<?xml version="1.0" encoding="utf-8"?>
<!-- Generator: Adobe Illustrator 15.1.0, SVG Export Plug-In . SVG Version: 6.00 Build 0)  -->
<!DOCTYPE svg PUBLIC "-//W3C//DTD SVG 1.1//EN" "http://www.w3.org/Graphics/SVG/1.1/DTD/svg11.dtd">
<svg version="1.1" id="State" xmlns="http://www.w3.org/2000/svg" xmlns:xlink="http://www.w3.org/1999/xlink" x="0px" y="0px"
	 width="1296px" height="1296px" viewBox="0 0 1296 1296" enable-background="new 0 0 1296 1296" xml:space="preserve">
<g>
	<defs>
		<rect id="SVGID_1_" x="349.219" y="266.421" width="598.45" height="770.958"/>
	</defs>
	<clipPath id="SVGID_2_">
		<use xlink:href="#SVGID_1_"  overflow="visible"/>
	</clipPath>
	
		<polyline clip-path="url(#SVGID_2_)" fill="none" stroke="#B37C34" stroke-width="0.7199" stroke-linecap="round" stroke-linejoin="round" stroke-miterlimit="3.85" points="
		418.326,787.754 418.326,785.114 418.326,784.154 418.086,775.033 418.086,774.313 417.846,773.593 417.846,772.152 
		417.846,769.272 417.606,764.473 417.606,760.632 417.606,757.991 417.846,753.671 418.086,752.231 418.086,751.99 
		420.006,735.669 420.006,735.43 420.246,734.229 420.246,733.509 420.486,731.349 421.686,720.787 421.925,719.348 
		422.405,715.507 422.405,715.268 422.646,713.827 422.885,712.146 423.125,709.986 423.125,708.787 423.125,708.547 
		423.365,707.106 423.845,703.506 423.845,703.026 424.325,697.985 424.805,694.625 425.285,690.064 425.765,686.225 
		425.765,685.984 425.765,684.784 426.005,684.304 426.005,683.823 426.245,682.144 426.245,681.904 426.245,680.943 
		427.205,673.263 427.205,673.022 427.205,672.543 427.444,671.103 427.685,668.223 427.685,667.982 427.685,667.742 
		429.364,653.581 429.604,650.221 429.844,649.261 430.084,646.14 431.284,635.099 431.524,633.179 432.003,629.338 
		432.003,629.098 432.003,628.618 432.244,627.658 432.244,627.418 432.483,625.258 433.204,617.817 434.163,608.216 
		434.883,601.016 435.123,600.055 435.363,596.455 435.603,595.975 436.083,590.455 437.042,582.293 437.522,578.213 
		437.522,577.973 438.482,567.892 439.202,561.171 439.442,560.691 439.682,558.291 439.922,556.611 439.922,555.411 
		440.162,554.211 440.642,549.89 441.122,545.33 441.362,543.169 441.602,540.289 441.602,539.569 442.082,535.969 442.082,535.489 
		442.322,534.529 442.562,530.928 442.802,528.288 443.042,526.608 443.521,521.808 444.481,514.367 444.481,512.927 
		444.721,512.207 444.721,511.006 444.961,510.526 445.201,507.886 445.201,507.166 445.681,503.806 445.681,503.085 
		445.681,502.125 445.921,501.885 445.921,501.165 446.161,499.965 446.161,499.005 446.161,498.525 446.401,497.325 
		446.641,494.925 446.881,492.765 446.881,492.284 447.121,491.084 447.121,489.644 447.601,485.083 447.841,483.164 
		447.841,482.684 448.321,479.563 448.8,475.723 448.8,474.522 449.041,472.123 449.28,471.402 449.28,469.962 449.521,467.802 
		449.76,466.842 449.76,466.602 450,465.642 450,464.682 450.48,460.121 450.48,459.401 451.2,455.081 451.44,453.4 451.44,453.16 
		451.68,450.28 451.68,450.04 452.16,446.44 452.4,445.24 452.88,439.479 453.36,435.398 453.6,435.159 453.84,433.479 
		453.84,432.278 454.319,427.718 454.56,426.278 454.799,423.397 455.04,422.197 455.279,419.077 455.999,413.316 455.999,412.596 
		456.479,409.956 456.479,407.796 456.959,405.396 456.959,404.676 457.199,402.996 457.679,397.235 458.399,392.674 
		458.399,392.194 458.399,391.954 458.639,390.514 458.879,387.634 459.838,378.513 459.838,378.273 460.559,372.752 
		460.559,371.312 460.798,370.112 460.798,369.152 461.038,366.752 461.278,366.271 461.278,366.031 461.278,365.792 
		461.758,361.951 462.238,358.111 462.238,357.15 463.438,348.03 463.438,347.07 463.438,346.83 464.158,341.789 464.638,338.429 
		464.638,337.709 464.638,337.469 465.598,330.748 465.837,329.788 465.837,328.588 466.317,326.188 466.557,322.827 
		466.557,321.627 466.797,319.947 467.277,316.347 467.757,312.986 467.997,310.826 467.997,309.386 468.957,300.505 
		468.717,300.265 465.598,299.064 464.638,298.585 464.158,298.345 463.678,297.865 462.958,297.145 461.758,295.944 
		461.278,294.504 461.038,294.504 461.038,294.264 460.318,292.824 459.599,290.904 459.119,289.704 458.639,288.983 
		457.919,288.024 456.479,285.383 456.239,284.663 456.239,284.423 455.999,283.223 455.999,282.743 481.435,283.223 
		483.354,283.223 484.794,283.463 490.553,283.463 496.792,283.463 497.271,283.463 499.671,283.463 499.911,283.463 
		503.75,283.463 509.75,283.463 510.469,283.703 511.669,283.703 517.908,283.703 518.868,283.703 519.348,283.703 520.547,283.703 
		522.707,283.703 523.427,283.703 528.466,283.703 529.186,283.703 530.866,283.703 533.745,283.943 534.465,283.943 
		539.504,283.943 541.423,283.943 544.783,283.943 545.023,283.943 549.102,283.943 551.262,283.943 551.981,283.943 
		553.182,283.943 553.901,283.943 554.621,283.943 557.741,283.943 558.46,283.943 559.18,283.943 561.82,284.183 563.02,284.183 
		569.258,284.183 573.098,284.183 577.897,284.423 578.857,284.423 579.336,284.423 579.816,284.423 580.057,284.423 
		580.537,284.423 586.535,284.663 589.415,284.663 591.094,284.663 591.574,284.663 591.814,284.663 595.174,284.663 
		595.654,284.663 603.092,284.903 605.492,284.903 606.932,284.903 608.371,284.903 610.051,285.144 610.291,285.144 
		610.771,285.144 611.011,285.144 614.85,285.144 616.05,285.144 619.649,285.144 622.049,285.383 624.208,285.383 624.448,285.383 
		624.928,285.383 625.888,285.383 626.128,285.383 627.568,285.383 629.487,285.383 629.728,285.383 629.967,285.383 
		634.046,285.383 641.005,285.144 641.965,285.144 647.484,285.144 647.964,285.144 648.204,285.144 649.644,285.144 
		652.044,285.144 657.082,285.144 658.522,285.144 660.922,285.144 662.841,285.144 666.201,285.144 666.92,285.144 
		671.239,285.144 673.16,285.144 673.879,285.144 677.959,284.903 678.678,284.903 682.758,284.903 685.157,284.903 
		692.116,284.903 692.596,284.903 693.556,284.903 700.754,284.903 706.753,284.663 710.113,284.663 713.231,284.663 
		713.473,284.663 723.311,284.663 724.03,284.663 724.75,284.663 741.307,284.423 744.666,284.423 745.386,284.423 749.706,284.423 
		749.945,284.423 754.024,284.423 754.504,284.423 754.744,284.423 756.664,284.423 758.104,284.423 761.463,284.423 
		766.262,284.423 766.982,284.423 767.462,284.423 770.102,284.423 770.822,284.423 781.14,284.423 781.379,284.423 782.1,284.423 
		783.059,289.464 783.059,289.704 783.059,290.424 783.299,291.864 783.299,292.344 783.539,293.544 783.539,293.784 
		784.499,298.585 785.219,303.385 786.419,308.906 786.419,310.106 787.378,314.426 788.338,320.187 788.818,323.067 
		789.058,323.067 789.538,326.428 789.538,326.667 790.498,331.228 790.979,333.388 790.979,333.868 791.218,334.349 
		792.178,339.149 792.178,339.389 793.138,344.669 794.577,351.63 794.817,353.791 795.057,354.51 795.297,355.471 795.777,358.111 
		796.018,359.311 796.257,360.511 796.736,362.191 797.697,367.231 799.136,374.433 799.616,376.353 800.576,381.633 
		800.576,381.873 801.057,384.273 801.536,386.434 802.256,390.034 802.256,390.754 802.735,393.395 802.976,393.875 
		803.216,395.794 803.216,396.275 804.655,403.955 805.136,405.396 805.375,406.836 806.335,411.636 806.335,412.596 
		807.055,415.237 807.055,416.917 807.295,417.157 808.015,421.958 808.255,423.397 809.455,429.398 810.174,433.958 
		810.174,434.198 810.414,434.198 811.374,439.479 811.374,439.719 813.054,449.32 813.294,450.04 813.773,452.92 814.494,456.281 
		814.494,457.001 814.974,459.161 815.213,460.601 816.173,466.122 816.173,466.602 816.653,468.762 816.894,469.722 
		817.373,472.362 817.373,472.603 817.613,474.042 817.854,475.963 819.293,482.684 819.293,482.923 819.532,484.604 
		820.013,487.004 820.973,491.804 820.973,492.524 822.173,498.285 822.173,499.005 823.372,504.766 823.372,505.006 
		823.611,505.726 823.611,505.966 824.812,512.927 826.011,519.407 826.252,520.607 826.491,521.327 827.69,528.768 
		828.171,531.168 829.37,537.409 831.051,546.05 831.53,549.89 832.011,551.57 832.49,554.451 833.93,561.651 834.41,565.012 
		834.65,565.972 834.65,566.692 835.369,570.052 836.569,577.013 836.81,577.973 838.489,586.374 838.489,586.854 839.449,591.415 
		839.689,592.615 840.648,597.655 841.129,599.815 841.369,601.735 841.608,602.936 841.608,603.176 841.849,604.376 
		842.088,604.616 842.088,605.096 842.088,605.336 842.088,605.576 842.328,605.816 842.328,606.056 842.328,606.296 
		842.328,607.256 842.328,607.496 842.809,608.216 843.048,608.216 843.048,608.456 843.288,608.456 843.288,608.696 
		843.528,608.696 843.769,608.696 844.008,608.696 844.248,608.937 844.488,608.937 844.729,608.937 844.968,608.937 
		845.208,609.176 845.448,609.417 845.448,609.656 845.448,609.896 845.688,610.136 845.688,610.376 845.688,610.616 
		845.688,610.856 845.448,611.097 844.968,611.577 844.968,611.816 844.488,612.296 844.488,612.537 844.488,613.257 
		844.488,614.217 844.488,614.697 844.729,614.937 844.729,615.177 845.208,615.897 845.448,616.137 846.647,617.577 
		846.647,617.817 846.888,617.817 847.607,618.297 847.848,618.777 848.327,619.017 849.048,619.498 849.287,619.737 
		849.287,619.978 849.287,620.217 849.287,620.697 849.048,620.938 849.048,621.178 848.807,621.417 848.567,622.138 
		848.567,622.858 848.567,623.818 849.048,624.538 849.527,625.018 850.007,625.258 850.486,625.498 850.486,625.738 
		850.967,625.978 850.967,626.218 851.207,626.458 851.207,626.698 851.207,627.178 851.207,627.418 851.207,627.898 
		850.967,628.378 850.967,628.618 850.967,628.858 850.728,629.578 850.967,629.818 851.687,633.179 851.927,633.899 
		851.927,634.139 852.166,634.379 852.406,634.619 853.366,635.099 853.606,635.099 854.807,636.539 855.525,638.459 
		855.286,638.699 854.566,639.179 854.566,639.659 854.326,640.14 854.326,640.379 854.086,640.62 854.326,641.339 855.046,641.58 
		855.525,641.82 855.766,641.82 855.766,642.06 855.766,642.3 855.766,642.54 855.766,642.78 855.525,643.02 855.525,643.26 
		855.525,643.5 855.525,643.74 855.766,643.98 855.766,644.22 856.006,644.22 856.006,644.46 856.246,644.46 856.485,644.7 
		856.485,645.66 856.485,645.9 856.726,646.62 856.726,647.1 857.205,647.82 857.205,648.06 857.445,648.3 858.405,650.221 
		859.846,651.42 862.484,654.061 862.725,654.061 864.404,655.741 864.404,655.981 864.404,656.222 864.404,656.461 
		864.645,656.941 865.124,657.422 865.124,657.901 865.364,657.901 865.604,658.141 866.324,658.381 866.324,658.621 
		867.044,659.581 867.044,659.821 867.283,660.062 867.283,660.302 867.283,660.541 867.283,661.021 867.283,661.262 
		867.523,661.502 867.523,662.222 867.523,662.702 867.523,662.941 867.764,663.422 868.004,663.902 868.244,664.382 
		868.004,664.861 868.004,665.582 868.004,665.822 868.004,666.302 867.764,666.782 867.764,667.502 867.764,667.742 
		867.764,667.982 868.244,669.183 868.483,669.662 869.684,670.383 871.363,670.863 871.844,671.823 872.563,673.503 
		872.323,673.982 871.363,674.943 870.403,675.423 870.403,676.144 870.163,676.863 870.403,677.344 870.643,677.823 
		870.883,678.544 870.643,678.783 870.403,679.023 870.403,679.504 870.403,679.983 870.403,680.224 870.403,680.464 
		870.643,680.943 870.403,681.184 870.403,681.424 870.163,681.664 869.923,682.144 869.923,682.624 870.163,682.624 
		869.923,683.104 869.923,683.344 869.684,683.584 869.443,683.823 868.963,684.304 868.244,685.023 867.283,685.744 
		867.044,687.185 867.044,688.145 867.044,688.385 867.764,689.344 868.244,689.344 869.443,689.824 873.522,691.505 
		873.763,691.505 874.003,691.505 874.723,691.744 876.162,692.465 876.643,692.705 878.082,694.625 879.762,695.825 
		880.722,696.306 881.922,697.506 882.161,697.745 882.161,697.985 882.401,698.226 882.401,698.465 882.161,698.706 
		881.441,698.945 880.961,699.186 880.961,699.426 880.722,699.905 880.481,699.905 880.481,700.146 880.242,700.146 
		880.002,700.386 879.762,700.386 879.521,700.865 879.521,701.105 879.281,702.066 878.563,702.546 878.322,702.785 
		878.322,703.026 878.322,703.266 878.322,703.985 878.082,704.466 877.603,704.706 877.362,704.946 876.402,704.946 
		875.922,704.946 874.963,705.186 874.482,705.186 874.003,705.186 873.763,705.427 873.522,705.666 873.283,705.906 
		873.283,706.146 873.043,706.386 872.803,706.626 872.803,706.866 872.803,707.106 872.803,707.347 873.043,707.826 
		873.043,708.066 873.043,708.307 872.803,708.787 871.844,709.267 868.963,710.227 867.523,710.706 867.044,710.947 
		866.804,711.187 866.564,711.427 865.124,713.106 864.645,713.827 864.165,714.787 862.725,716.707 862.484,716.947 
		862.244,717.188 861.045,717.907 860.805,718.147 860.805,718.387 860.564,718.387 860.805,718.868 861.045,719.588 
		861.525,721.268 861.765,722.228 862.484,724.147 862.725,724.868 862.725,725.348 862.725,725.588 862.244,726.068 
		862.005,726.309 861.765,727.269 861.765,727.508 862.005,727.988 862.005,728.229 861.765,728.948 861.525,729.429 
		861.525,729.909 861.525,730.389 861.285,731.589 861.525,732.068 861.765,732.549 862.005,732.789 862.005,733.029 
		862.005,733.269 861.765,733.509 861.765,733.749 861.765,734.229 862.005,734.469 862.005,734.709 862.244,734.949 
		862.244,735.189 862.244,735.43 862.005,735.909 862.244,736.629 862.005,737.109 860.805,738.069 860.805,738.31 860.564,739.27 
		860.325,739.75 860.325,739.989 860.325,740.71 860.085,741.43 860.085,741.91 860.564,742.63 860.805,742.87 860.805,743.11 
		860.564,743.59 860.085,743.83 859.605,744.069 858.405,744.551 858.165,744.79 857.926,745.03 857.926,745.27 858.646,747.19 
		859.125,747.67 859.125,747.91 858.405,748.391 858.165,748.631 857.445,749.591 856.726,750.07 856.485,750.311 856.246,751.271 
		856.246,751.511 855.286,751.99 854.807,752.231 854.807,752.471 855.286,752.951 855.525,753.191 855.046,754.151 
		855.046,754.631 855.046,754.871 854.807,754.871 854.807,755.111 854.566,755.111 854.326,755.111 854.086,755.111 
		853.846,755.111 852.166,755.111 852.166,755.352 852.166,755.831 852.406,756.071 852.646,756.552 852.646,756.791 
		852.887,757.271 852.887,757.511 852.887,757.752 852.166,758.711 851.927,759.912 851.687,760.152 851.447,760.392 
		851.447,760.632 851.447,761.111 851.687,761.592 851.687,762.312 851.687,762.792 851.447,763.031 851.447,763.271 
		851.207,763.271 851.207,763.512 851.447,763.752 851.687,764.231 852.166,764.712 852.406,765.432 852.646,766.632 
		852.646,766.873 852.646,767.353 852.646,767.832 852.646,768.072 852.646,769.272 852.646,769.513 852.646,769.752 
		852.646,770.232 852.646,770.473 852.166,771.193 851.447,772.152 851.447,772.394 851.687,772.394 851.687,772.633 
		852.646,773.353 852.887,773.593 853.606,774.073 853.606,774.313 853.606,774.793 853.366,775.033 853.127,775.754 
		853.366,776.233 853.606,776.714 853.846,777.434 854.566,779.594 854.566,779.834 854.326,781.273 853.846,781.514 
		853.846,781.754 853.606,781.994 853.606,783.193 853.846,784.394 853.846,784.874 853.846,785.354 854.326,786.074 
		855.525,786.555 855.525,786.794 856.006,787.994 858.165,790.635 858.405,790.635 858.886,790.875 859.125,791.114 
		859.605,791.355 859.846,791.595 859.846,791.835 859.846,792.074 859.605,792.314 859.365,793.035 859.365,793.275 
		859.365,793.515 859.365,793.755 859.605,793.995 860.085,794.235 860.805,795.195 861.765,795.915 862.005,795.915 
		862.725,796.396 862.965,796.636 862.965,796.876 862.965,797.115 862.965,797.596 862.725,798.076 862.725,798.556 
		862.965,798.795 863.205,798.795 863.205,799.035 863.205,799.275 863.205,799.516 863.205,799.756 862.965,800.716 
		862.965,801.676 862.965,802.156 863.205,802.636 863.444,802.876 863.444,803.116 863.205,803.836 863.205,804.076 
		863.205,804.315 863.685,805.276 863.924,806.236 864.165,806.477 864.885,807.437 865.124,807.916 865.364,808.156 
		865.364,808.396 865.364,808.637 865.364,809.117 865.124,809.597 865.124,809.837 864.645,810.557 864.645,811.036 
		864.645,811.277 865.124,811.757 864.885,812.236 864.885,812.478 864.645,812.717 864.645,812.957 863.924,813.917 
		863.205,815.598 862.965,816.798 862.484,817.518 861.765,819.918 862.005,822.078 862.484,823.038 862.484,823.758 
		862.484,824.238 862.484,825.198 862.484,825.678 862.484,825.919 862.244,826.158 862.005,826.158 861.765,826.158 
		861.525,826.398 861.285,827.119 861.285,827.839 860.805,828.559 860.805,828.799 860.805,829.039 861.045,829.759 
		861.045,830.479 861.045,830.959 860.805,831.198 860.564,832.64 860.085,834.319 859.846,834.319 859.846,834.56 859.365,835.76 
		859.365,836 859.365,836.239 859.365,836.719 859.365,836.96 859.365,837.199 859.605,837.199 859.846,837.199 860.085,837.199 
		860.085,837.439 860.325,837.919 860.085,838.16 860.085,839.36 860.085,839.84 859.846,840.08 859.846,840.319 860.564,841.28 
		860.564,842.72 860.564,843.2 860.085,843.92 860.085,844.16 860.085,844.881 860.085,845.12 859.846,846.32 859.605,847.04 
		859.365,847.281 859.125,847.521 858.646,848.001 857.686,848.24 857.445,848.48 857.205,848.48 856.966,848.721 856.726,849.201 
		856.966,849.681 856.966,849.921 856.966,850.641 856.966,851.121 856.966,851.841 857.205,852.081 857.445,852.561 
		857.926,853.521 858.165,854.481 858.405,855.201 858.646,855.682 858.886,855.922 859.125,856.881 858.886,857.842 
		858.886,859.281 858.886,859.522 858.165,860.242 857.926,860.481 857.926,861.682 857.926,862.402 857.926,862.643 
		857.926,862.882 857.926,863.122 858.165,863.122 858.405,863.122 858.646,863.122 859.125,863.843 859.125,864.322 
		858.886,866.002 858.886,866.243 860.085,866.963 861.045,866.963 861.285,866.963 862.005,867.202 862.005,867.442 
		862.244,867.683 862.725,868.162 862.965,868.643 863.685,869.603 863.924,870.083 864.165,870.803 864.885,872.482 
		865.124,872.963 865.364,872.963 865.604,873.203 866.084,873.443 867.044,874.163 867.523,874.403 867.523,874.644 
		868.004,875.844 	"/>
	
		<polyline clip-path="url(#SVGID_2_)" fill="none" stroke="#B37C34" stroke-width="0.7199" stroke-linecap="round" stroke-linejoin="round" stroke-miterlimit="3.85" points="
		868.004,875.844 868.483,876.563 868.963,878.244 868.724,879.443 868.724,879.684 868.724,879.924 870.163,882.084 
		870.883,882.564 870.883,882.805 870.883,883.044 871.363,884.244 871.363,884.484 871.363,884.724 871.363,886.165 
		871.844,887.364 872.083,888.324 872.563,888.805 872.803,889.045 872.563,889.765 872.563,890.485 872.323,890.965 
		869.443,891.205 868.963,891.205 868.724,891.205 868.483,891.205 865.844,891.205 865.364,891.205 865.124,891.205 
		857.205,891.444 853.606,891.444 852.646,891.444 852.406,891.444 849.527,891.444 845.928,891.686 841.129,891.686 
		840.648,891.686 832.97,891.926 829.37,892.165 826.731,892.165 822.412,892.405 819.053,892.405 809.694,892.886 808.494,892.886 
		808.015,892.886 807.295,892.886 796.018,893.125 793.857,893.365 789.778,893.365 788.099,893.365 786.898,893.365 
		781.859,893.605 781.619,893.605 775.141,893.605 774.182,893.845 770.342,893.845 763.383,894.085 755.225,894.325 
		749.706,894.325 748.985,894.325 745.626,894.565 741.547,894.565 736.748,894.565 734.348,894.565 733.868,894.565 
		725.949,894.806 719.951,894.806 718.991,894.806 718.271,894.806 717.552,894.806 716.591,894.806 709.873,894.806 
		707.473,894.806 705.794,894.806 705.554,894.806 703.153,894.806 702.194,894.806 701.234,894.806 700.515,894.806 
		699.794,894.806 698.835,894.806 697.395,894.806 695.476,894.806 693.315,894.806 692.836,894.806 692.116,894.806 
		690.196,895.045 689.716,895.045 688.036,895.045 681.559,895.045 681.078,895.045 675.559,895.285 673.879,895.285 
		672.919,895.285 670.04,895.045 667.16,895.045 666.681,895.045 658.762,895.285 653.963,895.285 652.044,895.285 650.844,895.285 
		648.444,895.285 646.044,895.045 645.564,895.045 643.405,895.045 637.886,895.045 634.767,895.045 632.127,895.045 
		631.887,895.045 626.608,895.045 624.448,895.045 622.289,895.045 621.329,895.045 619.409,895.045 612.21,894.806 
		610.051,894.806 609.331,894.806 606.212,894.806 605.012,894.806 604.532,894.806 602.853,894.806 601.413,894.806 
		600.933,894.806 594.694,894.806 594.214,894.806 593.494,895.045 591.334,894.806 588.455,894.806 586.775,895.045 
		585.815,895.045 580.296,895.285 579.097,895.285 578.617,895.285 578.137,895.285 577.177,895.045 576.457,895.045 
		576.217,895.045 575.977,895.045 575.737,895.045 575.018,895.045 573.578,895.045 571.898,895.045 571.658,895.045 
		570.698,895.045 570.218,895.045 569.979,895.045 568.778,895.045 565.899,895.045 564.219,895.045 563.02,895.045 562.06,895.045 
		561.58,895.045 553.901,895.045 552.941,895.045 550.782,895.045 550.062,895.045 549.582,895.045 549.102,895.045 
		548.622,895.045 547.183,895.045 546.942,895.045 546.703,895.045 546.223,895.045 545.743,895.045 544.303,895.045 
		543.583,895.045 542.144,895.285 541.903,895.285 541.664,895.285 537.824,895.045 534.705,895.045 531.105,895.285 
		531.105,895.525 531.345,896.726 531.825,897.445 532.065,897.926 531.825,898.165 531.825,898.406 531.825,898.886 
		532.305,899.606 532.545,900.326 532.065,902.246 531.345,903.686 531.345,904.166 530.866,904.406 530.625,904.886 
		529.906,906.327 529.906,906.807 529.666,907.527 529.426,907.767 529.186,908.727 528.946,909.447 528.946,909.927 
		528.226,910.167 527.986,910.406 527.986,911.127 528.226,911.606 528.226,912.087 527.986,912.327 527.746,912.327 
		527.026,913.048 527.026,913.527 526.306,915.207 527.266,916.168 527.506,916.647 527.746,917.127 527.506,917.368 
		527.506,917.848 527.506,918.088 527.506,918.327 527.746,918.327 528.706,919.288 528.946,919.769 528.946,920.008 
		529.666,920.248 530.146,920.488 530.625,920.969 530.866,921.448 530.866,922.168 531.825,922.648 532.545,923.128 
		533.265,923.368 533.985,924.089 534.705,925.289 535.185,925.528 535.665,926.008 536.145,926.489 536.384,926.729 
		536.864,927.209 537.104,927.448 537.344,927.448 538.304,928.648 538.064,929.369 538.064,929.609 538.544,930.329 
		539.264,931.049 539.264,931.289 539.504,932.249 539.504,932.969 539.504,933.21 539.744,933.93 540.944,934.649 542.624,935.369 
		542.624,935.609 543.583,936.569 543.823,937.29 544.303,937.53 544.543,937.53 545.983,937.77 546.703,938.01 546.703,938.25 
		546.942,938.73 547.422,939.689 548.143,939.689 548.382,940.41 548.622,940.41 549.822,940.89 550.542,940.65 550.782,940.65 
		551.502,941.37 551.742,941.61 551.981,941.851 551.981,942.09 552.702,942.33 553.421,942.33 554.141,943.051 554.861,943.53 
		555.581,944.011 556.541,944.49 556.301,944.971 556.541,945.69 557.261,947.131 557.741,947.61 557.741,948.091 557.741,948.57 
		557.98,949.051 557.98,950.011 558.221,951.211 558.221,951.69 557.98,951.932 557.98,952.172 557.741,953.131 557.741,953.371 
		557.98,953.371 557.98,953.611 557.741,954.571 557.5,955.052 557.261,955.291 556.781,955.291 556.541,955.771 556.301,958.411 
		555.821,959.372 555.821,959.853 555.581,959.853 555.341,959.853 555.101,960.092 554.861,960.332 554.861,960.572 
		555.101,960.812 555.101,961.052 554.861,961.772 554.621,961.772 554.381,961.772 553.901,962.012 553.661,962.732 
		553.182,963.452 552.702,963.452 552.702,963.692 551.262,967.053 551.262,967.532 551.262,967.772 551.262,968.013 
		551.502,968.732 551.502,968.973 551.262,968.973 551.022,969.213 551.022,969.453 551.502,969.934 551.742,970.173 
		552.222,970.173 553.182,971.853 553.421,972.573 552.941,973.294 552.702,973.773 552.702,974.014 552.702,974.253 
		553.182,974.494 553.421,974.733 553.421,975.693 554.141,976.414 555.341,977.614 556.301,977.854 556.781,978.334 557.5,978.573 
		557.741,978.573 558.46,978.573 559.9,978.814 560.14,978.814 561.34,979.294 561.58,979.534 561.82,980.254 561.82,980.734 
		561.58,980.974 561.58,981.215 561.1,981.694 559.66,982.895 559.42,983.135 559.18,983.135 557.98,983.614 557.5,984.094 
		557.021,984.574 557.021,984.814 556.781,984.814 556.301,985.055 556.061,985.055 555.821,985.055 555.581,985.055 
		554.861,984.814 554.381,984.814 554.141,984.814 553.901,985.055 553.661,985.294 553.421,985.294 553.421,985.535 
		553.182,985.774 552.941,986.735 552.461,986.975 551.981,987.694 551.981,988.175 551.981,988.415 552.222,989.135 
		552.222,989.375 551.742,990.095 550.782,990.814 550.542,991.295 550.542,991.775 550.542,992.015 550.542,992.256 
		550.542,992.495 550.542,994.656 550.542,994.896 549.342,996.096 549.102,996.336 548.862,996.576 548.622,996.576 
		548.382,996.576 547.422,996.815 547.183,996.815 545.503,996.815 545.263,996.815 544.063,997.296 543.823,997.535 
		543.583,998.016 543.343,998.735 543.343,999.216 543.343,999.695 543.343,999.936 543.583,1000.177 543.583,1000.416 
		543.823,1000.416 544.063,1000.656 544.783,1000.896 545.263,1000.896 546.223,1000.896 546.463,1000.656 547.183,1000.416 
		547.422,1000.416 548.382,1000.416 548.622,1000.416 548.862,1000.416 549.102,1000.416 549.582,1000.416 550.062,1000.177 
		550.782,999.936 550.542,1001.616 544.063,1003.536 543.343,1003.536 541.664,1004.017 541.664,1004.256 541.664,1004.497 
		539.744,1004.977 538.304,1005.217 536.384,1005.456 533.505,1006.416 533.265,1006.416 526.066,1008.577 525.826,1008.577 
		523.427,1009.297 521.747,1009.537 519.107,1009.777 512.869,1010.737 504.47,1012.418 504.23,1012.418 499.431,1012.657 
		491.273,1012.177 488.153,1012.177 487.673,1012.177 482.875,1012.177 477.835,1012.897 475.916,1013.377 474.236,1013.377 
		473.996,1013.137 474.716,1012.177 482.395,1011.218 484.794,1008.097 486.474,1007.377 488.873,1008.577 489.353,1009.537 
		491.033,1010.497 491.993,1010.737 493.912,1010.978 496.552,1010.737 501.111,1008.817 502.071,1008.577 504.23,1008.817 
		506.15,1008.577 506.63,1008.337 508.79,1007.377 509.029,1007.137 509.029,1006.897 510.469,1004.977 510.469,1004.017 
		510.229,1003.297 510.229,1002.816 508.07,999.695 504.95,997.776 503.271,996.576 500.631,993.456 500.391,992.976 
		499.671,991.056 498.711,990.095 498.472,989.615 497.271,989.615 495.832,988.895 490.553,984.814 490.073,984.094 
		490.073,983.135 489.353,979.294 488.873,976.894 488.633,975.453 488.153,974.733 488.153,974.494 487.193,973.773 
		486.954,973.294 486.954,973.053 486.954,972.813 487.914,970.894 488.393,969.934 488.633,969.693 488.633,969.453 
		488.633,969.213 488.873,969.213 489.593,967.532 489.833,967.053 490.073,966.332 490.313,966.332 490.553,965.373 
		490.793,964.893 490.793,964.413 491.033,963.452 491.033,963.213 491.033,962.973 491.033,962.732 491.033,962.492 
		491.033,962.252 491.033,962.012 490.793,961.532 490.793,961.292 490.793,961.052 490.793,960.812 490.553,960.332 
		490.313,960.092 490.313,959.853 490.073,959.611 489.833,959.372 489.593,958.893 489.353,957.932 489.353,957.452 
		489.833,953.371 489.353,951.69 489.113,951.211 488.873,950.251 488.873,950.011 487.434,947.61 486.474,946.891 484.074,946.651 
		483.354,946.41 481.674,944.971 480.715,944.251 479.515,943.771 477.835,943.051 477.595,942.811 477.115,942.811 
		476.875,942.811 476.635,943.051 475.436,944.251 475.436,944.49 474.716,946.41 473.756,947.371 472.316,947.61 471.356,948.091 
		470.157,948.811 470.157,950.972 470.396,952.651 471.116,953.852 470.876,954.571 469.677,957.452 468.237,958.893 
		467.037,960.812 466.797,961.292 467.037,961.772 467.277,963.933 467.277,966.573 466.317,967.293 466.077,967.293 
		464.877,969.453 464.397,970.653 464.397,971.853 465.357,975.214 464.877,976.894 463.918,978.094 464.397,981.935 
		463.918,989.615 462.718,992.735 461.518,995.136 461.038,995.615 460.079,998.256 457.439,997.296 455.279,997.535 
		452.64,998.735 452.16,998.016 451.68,995.376 452.16,994.656 453.12,994.415 453.12,993.936 451.92,992.495 451.68,991.775 
		450.96,991.775 449.041,991.056 448.561,990.814 447.601,990.335 446.401,989.855 446.161,989.855 443.521,988.655 
		442.322,988.655 442.082,988.655 441.602,988.655 440.642,988.655 439.922,990.095 439.682,990.575 439.442,990.575 
		436.803,990.814 436.083,990.575 435.843,988.895 434.163,987.694 432.963,987.455 429.844,987.694 428.404,988.175 
		425.765,990.575 425.285,976.894 425.285,974.733 425.285,974.494 425.045,971.853 425.045,969.934 425.045,968.973 
		424.805,965.613 424.805,963.933 424.805,963.692 424.805,963.213 424.565,956.972 424.565,952.651 424.565,951.932 
		424.565,950.491 424.325,949.771 424.325,944.971 424.085,939.21 424.085,938.25 424.085,935.369 423.845,935.369 423.845,934.649 
		423.605,926.969 423.365,916.407 423.365,916.168 423.365,915.928 423.365,915.207 423.365,914.728 423.125,913.287 
		422.885,905.847 422.885,902.967 422.646,894.565 422.646,894.325 422.405,894.085 422.166,883.765 421.925,881.364 
		421.925,876.804 421.686,872.482 421.206,859.281 421.206,859.041 421.206,856.642 421.206,855.682 421.206,854.722 
		420.966,851.841 420.486,840.08 420.246,837.919 420.246,834.319 420.246,832.879 420.006,829.998 420.006,827.839 
		419.766,825.919 419.766,824.238 419.766,820.878 419.526,817.998 419.526,817.277 419.526,816.317 419.526,816.077 
		419.526,815.838 419.526,813.437 419.286,808.396 419.046,805.516 419.046,804.315 418.806,799.516 418.806,799.035 
		418.806,796.876 418.326,789.194 418.326,787.754 	"/>
	
		<polyline clip-path="url(#SVGID_2_)" fill="none" stroke="#B37C34" stroke-width="0.7199" stroke-linecap="round" stroke-linejoin="round" stroke-miterlimit="3.85" points="
		452.88,1009.537 452.16,1009.537 450.24,1009.777 440.882,1011.938 437.522,1012.177 436.563,1011.938 436.803,1011.457 
		438.243,1011.697 440.882,1011.457 443.761,1010.497 448.321,1009.537 455.04,1008.577 456.959,1008.577 459.358,1008.337 
		460.559,1007.137 461.518,1005.456 461.518,1003.776 466.557,1007.617 467.997,1009.297 467.997,1009.537 467.517,1009.777 
		463.438,1010.257 461.998,1009.537 459.838,1009.057 455.999,1009.057 452.88,1009.537 	"/>
</g>
</svg>
