<?xml version="1.0" encoding="utf-8"?>
<!-- Generator: Adobe Illustrator 15.1.0, SVG Export Plug-In . SVG Version: 6.00 Build 0)  -->
<!DOCTYPE svg PUBLIC "-//W3C//DTD SVG 1.1//EN" "http://www.w3.org/Graphics/SVG/1.1/DTD/svg11.dtd">
<svg version="1.1" id="State" xmlns="http://www.w3.org/2000/svg" xmlns:xlink="http://www.w3.org/1999/xlink" x="0px" y="0px"
	 width="1296px" height="1296px" viewBox="0 0 1296 1296" enable-background="new 0 0 1296 1296" xml:space="preserve">
<g>
	<defs>
		<rect id="SVGID_1_" x="349.219" y="266.421" width="598.45" height="770.958"/>
	</defs>
	<clipPath id="SVGID_2_">
		<use xlink:href="#SVGID_1_"  overflow="visible"/>
	</clipPath>
	
		<polyline clip-path="url(#SVGID_2_)" fill="none" stroke="#B37C34" stroke-width="0.4799" stroke-linecap="round" stroke-linejoin="round" stroke-miterlimit="3.85" points="
		402.489,763.992 402.009,763.752 401.769,763.752 401.529,763.512 400.809,763.512 400.329,763.271 400.089,763.271 
		399.129,763.271 397.45,763.031 396.97,763.031 396.73,763.031 396.49,763.271 396.25,763.752 396.01,763.992 395.771,763.992 
		394.571,763.992 393.13,763.752 392.411,763.512 392.171,763.271 391.691,762.552 391.211,761.832 390.971,761.592 
		390.491,761.352 390.251,761.592 389.771,762.552 389.532,763.031 389.292,763.031 389.051,763.031 388.812,763.031 
		388.332,762.552 388.092,762.072 387.852,761.592 388.092,760.392 386.892,758.952 386.652,758.231 386.652,757.991 
		386.652,757.511 386.412,757.271 386.172,757.271 385.692,757.271 385.212,757.031 384.972,756.552 384.972,755.831 
		385.212,755.111 385.452,754.151 386.172,752.231 386.892,751.511 387.132,751.031 387.372,750.551 387.612,749.591 
		387.852,749.11 387.852,748.871 387.852,748.15 387.852,747.67 388.332,746.71 388.332,746.471 388.332,745.99 388.092,744.79 
		388.092,744.311 388.332,743.59 388.571,742.63 388.571,742.39 388.571,741.91 388.092,741.43 387.852,740.949 387.132,739.75 
		387.372,739.51 388.571,738.79 388.812,738.31 388.332,737.109 388.092,736.629 387.612,736.39 386.892,736.149 385.932,735.669 
		385.212,735.669 384.732,735.43 384.252,735.189 384.252,734.949 383.533,733.509 383.533,733.269 383.533,733.029 
		384.252,732.309 385.452,731.589 385.692,731.109 385.932,730.869 386.412,729.669 386.652,727.988 386.652,727.508 
		386.652,727.028 385.932,725.828 385.932,725.348 385.932,724.868 385.932,724.628 385.692,724.389 385.452,724.147 
		384.492,722.948 384.252,722.468 384.252,722.228 384.492,721.988 384.732,721.988 385.692,721.988 386.412,721.988 
		386.892,721.748 386.892,721.508 386.892,721.268 387.132,721.268 387.852,721.027 389.051,721.027 390.491,721.508 
		390.971,721.508 391.211,721.508 391.931,721.268 392.651,720.548 393.13,720.067 393.371,719.348 393.851,717.907 
		393.851,717.188 393.851,716.947 394.81,715.268 395.291,715.027 395.771,714.307 396.01,713.827 396.25,713.587 396.25,713.106 
		396.97,712.146 397.21,711.906 397.93,711.427 398.41,711.427 398.89,711.187 399.609,710.467 399.85,710.227 399.85,709.506 
		399.85,709.026 399.85,708.787 401.529,707.586 403.209,706.626 403.209,706.386 402.969,706.146 402.249,704.706 401.769,703.506 
		401.769,703.026 401.769,702.306 402.489,701.105 402.729,700.865 402.969,700.626 403.209,700.386 403.209,700.146 
		403.209,699.905 403.209,699.665 402.969,699.426 402.969,698.945 402.969,698.465 402.969,698.226 403.209,697.745 
		403.209,697.265 402.969,696.785 402.969,696.545 402.969,696.306 402.969,695.825 402.969,695.585 403.209,695.346 
		403.209,695.105 403.449,695.105 403.449,694.865 403.449,694.625 403.209,694.625 403.209,694.385 403.209,694.145 
		402.969,693.905 402.969,693.665 402.729,693.186 402.969,692.944 402.969,692.705 403.209,692.465 403.449,691.985 
		403.929,691.744 404.649,691.505 404.889,691.505 405.368,691.265 406.088,690.785 406.329,689.585 406.329,688.864 
		406.088,688.385 405.849,688.145 405.608,687.904 405.368,687.424 405.368,687.185 404.889,686.944 404.649,686.704 
		404.889,686.704 405.128,685.984 405.368,685.504 405.608,685.023 405.608,684.304 405.608,683.823 405.368,683.104 
		404.409,680.943 404.168,679.504 403.449,677.823 403.688,677.823 403.929,677.583 404.168,677.103 404.409,676.863 
		404.168,676.623 403.929,675.663 403.929,675.423 403.449,674.223 403.449,673.982 403.688,673.503 403.688,673.263 
		403.929,673.263 404.649,673.263 404.889,673.263 405.368,672.783 405.608,672.543 405.849,672.303 406.088,672.063 
		405.849,671.343 405.849,671.103 405.128,670.623 404.889,670.143 404.649,670.143 404.649,669.902 404.649,669.662 
		404.649,669.423 404.649,669.183 404.889,668.942 405.128,668.942 405.368,668.702 405.608,668.463 405.608,668.223 
		405.608,667.982 405.608,667.742 405.368,667.502 404.889,666.782 404.649,666.782 404.409,666.542 404.168,666.302 
		404.168,666.062 403.929,666.062 403.449,665.822 403.209,665.582 403.209,664.861 403.209,664.622 403.929,663.422 
		404.409,662.702 404.409,662.462 405.128,662.222 405.368,662.462 405.608,662.462 406.568,661.981 407.048,661.262 
		408.008,660.541 408.008,660.302 408.248,660.062 408.248,659.821 408.728,659.581 409.208,659.102 409.448,658.621 
		409.688,658.621 409.928,658.381 410.167,658.381 410.167,658.141 410.167,657.901 410.167,657.661 409.928,657.422 
		409.928,657.182 409.928,656.941 410.167,656.701 410.408,656.701 410.647,656.701 411.127,656.461 411.367,656.461 
		411.847,655.981 412.087,655.741 412.327,655.501 412.567,654.781 412.567,653.82 412.567,653.341 412.327,652.381 412.327,651.9 
		412.327,651.66 412.567,649.98 412.807,649.261 412.807,648.541 412.807,648.3 413.527,647.82 413.527,647.34 414.247,646.62 
		414.487,646.14 414.967,645.9 415.446,645.66 415.926,645.66 416.887,645.9 417.846,645.42 418.806,645.18 419.046,645.18 
		419.526,644.46 420.006,643.74 420.246,643.5 420.726,643.26 421.925,643.5 422.885,643.26 423.365,643.02 424.085,642.3 
		425.045,641.1 425.045,640.859 425.285,640.859 425.285,640.62 426.005,639.899 426.484,639.659 427.444,639.419 428.164,639.659 
		429.364,639.179 430.324,638.699 430.564,638.219 431.764,637.979 431.764,637.739 432.003,637.739 432.244,637.019 
		432.003,636.299 432.244,636.059 432.244,635.819 432.963,635.579 433.443,635.339 433.683,634.859 435.363,633.179 
		436.563,632.219 436.563,631.979 436.803,631.979 436.803,631.499 437.042,631.499 437.283,631.259 437.522,631.259 
		437.522,631.019 437.763,631.019 437.763,630.778 438.002,630.539 438.002,630.298 438.243,630.298 438.482,630.298 
		438.722,630.298 439.442,630.059 439.682,630.059 440.162,630.059 440.402,630.059 440.402,629.818 440.642,629.338 
		440.402,629.098 440.402,628.618 440.402,628.138 440.402,627.898 440.162,626.938 440.162,626.218 440.162,625.498 
		440.162,625.258 439.922,625.018 438.482,623.818 438.002,622.377 437.522,621.417 437.283,620.697 436.803,620.217 
		436.563,619.978 436.083,619.737 435.603,619.498 434.883,618.777 433.683,618.777 432.483,618.297 432.244,618.057 
		431.764,617.097 430.804,616.137 430.564,615.897 430.084,615.657 429.124,614.457 428.884,614.217 427.685,614.217 
		426.964,613.977 426.964,613.737 426.725,613.497 426.725,613.257 426.484,612.537 426.484,612.057 426.005,611.577 
		425.765,611.577 424.805,610.856 424.565,610.856 424.325,610.616 424.325,610.376 424.085,610.376 423.605,610.376 
		423.605,610.136 423.125,609.417 423.125,609.176 422.885,609.176 422.885,608.937 422.646,608.937 422.646,608.696 
		422.405,608.696 422.166,608.696 421.686,608.696 420.966,608.937 420.246,609.176 419.286,609.176 419.046,608.937 
		418.806,608.696 418.086,607.976 418.086,607.736 418.086,607.496 418.566,606.536 418.566,606.056 418.566,605.816 
		418.566,604.616 418.566,603.896 418.806,603.416 418.806,602.936 419.046,602.456 419.046,601.496 418.806,600.295 
		418.806,600.055 418.086,598.615 416.646,595.735 415.207,594.295 414.727,593.095 414.727,592.615 414.487,592.615 
		414.727,592.375 414.967,592.135 415.207,592.135 415.207,591.174 414.727,590.694 413.767,589.974 413.767,589.014 
		413.767,588.774 413.767,588.054 413.767,587.574 413.527,587.094 413.047,586.614 412.807,586.374 412.807,585.894 
		412.807,585.654 412.807,585.174 412.807,584.934 412.807,584.694 412.567,584.454 412.567,584.214 412.567,583.974 
		412.327,583.734 411.847,582.773 411.607,582.293 411.367,581.093 411.367,580.374 411.367,580.133 411.367,579.894 
		411.127,579.894 411.127,579.653 410.888,579.653 410.647,579.653 410.167,579.413 409.928,579.173 409.448,578.453 
		408.968,578.213 408.248,577.733 407.768,577.493 407.048,577.013 406.808,576.533 406.568,576.293 406.329,576.053 
		406.088,575.573 405.128,574.853 404.409,574.373 403.929,573.653 403.449,572.933 403.209,572.453 402.969,571.973 
		402.969,571.732 402.489,570.772 402.489,570.532 402.249,569.332 402.009,569.332 402.009,568.372 401.529,567.412 
		401.529,567.172 401.049,566.212 400.569,565.492 400.089,565.012 399.85,564.772 399.609,564.772 399.609,564.532 398.65,564.052 
		398.41,563.812 398.17,563.812 397.93,563.332 397.69,563.332 397.69,563.092 397.21,562.611 396.97,562.131 396.97,561.892 
		396.97,561.651 396.73,560.451 396.73,560.211 396.97,559.491 397.21,558.771 397.45,558.291 397.45,557.811 397.21,557.091 
		397.21,556.611 397.21,556.371 397.21,556.131 397.21,555.891 397.21,555.651 397.45,554.691 397.45,554.211 397.45,553.491 
		397.21,552.53 397.21,552.05 397.21,551.811 397.21,551.331 397.69,550.13 397.69,549.65 397.69,548.93 397.69,548.69 
		397.45,547.73 397.45,547.25 397.45,547.01 397.45,546.29 397.45,545.33 397.69,544.37 398.17,543.169 398.89,542.45 
		399.129,542.209 400.089,541.729 400.329,541.009 400.329,540.77 400.329,540.529 400.329,540.049 400.089,540.049 
		400.089,539.809 399.85,539.569 399.609,539.089 399.37,539.089 399.129,538.849 398.65,538.369 397.69,537.889 397.45,537.889 
		396.97,537.409 396.73,537.409 396.49,536.929 396.73,536.449 396.97,536.209 397.21,535.969 397.69,535.489 397.93,535.249 
		398.17,535.249 398.17,535.009 398.41,535.009 398.65,535.009 398.89,534.769 399.129,534.769 399.609,534.769 400.329,534.769 
		400.809,535.009 401.769,534.529 402.489,534.289 402.729,534.049 403.209,533.088 403.688,530.448 403.688,529.728 
		403.688,529.488 403.688,528.048 403.688,527.808 403.688,527.088 403.449,526.368 403.209,525.648 402.729,525.168 
		402.489,523.007 402.729,522.047 402.249,519.407 401.529,515.567 401.529,513.887 401.769,512.687 401.049,509.566 
		400.569,507.646 399.85,505.246 399.129,503.326 396.97,501.165 396.97,500.925 396.97,500.685 396.25,499.485 396.25,499.245 
		396.01,498.765 396.01,498.285 395.771,497.085 395.771,496.845 395.291,495.165 394.81,494.445 394.81,493.484 394.81,493.245 
		394.81,493.004 395.05,491.804 395.291,491.324 395.771,490.844 396.25,490.604 396.73,489.884 396.97,489.644 396.97,489.404 
		396.73,488.924 396.49,488.204 396.49,486.284 396.25,484.844 396.25,484.604 396.73,483.644 397.21,482.684 397.45,481.243 
		396.97,480.283 395.53,477.883 394.331,476.683 394.331,475.723 394.331,475.243 394.571,474.763 395.05,473.803 395.291,473.083 
		395.291,472.842 395.05,472.603 394.091,471.882 393.371,471.162 393.13,470.442 393.13,469.962 393.851,467.562 394.091,466.362 
		394.091,465.162 393.611,463.722 393.851,461.562 392.891,459.641 393.13,459.161 393.611,458.681 394.091,457.721 
		394.331,457.001 394.331,456.761 394.091,455.561 394.091,455.081 394.331,454.601 394.331,454.36 394.81,454.121 395.771,453.4 
		396.01,452.92 396.01,452.68 396.01,452.2 396.01,451.72 395.771,451 395.05,450.28 394.091,449.32 393.371,448.12 393.611,447.16 
		393.611,446.44 392.891,445.72 391.691,444.76 391.451,444.52 391.691,444.04 391.931,443.319 391.691,442.6 391.451,441.879 
		390.731,441.159 390.491,439.959 390.731,437.799 390.731,437.319 390.971,437.079 390.971,436.839 391.211,436.599 
		391.691,436.119 391.931,435.398 391.931,434.918 391.451,434.438 391.211,434.198 390.971,434.198 390.971,433.958 
		390.971,433.718 390.971,432.999 391.451,432.519 391.451,432.038 391.451,431.798 390.971,430.598 390.491,430.358 
		390.251,429.878 390.011,429.638 389.771,429.398 389.771,428.918 390.011,428.438 390.731,427.718 391.691,426.998 
		393.371,426.758 393.851,426.758 394.571,426.518 395.771,426.278 397.21,426.038 397.45,425.798 397.93,425.798 398.17,425.558 
		398.41,425.078 399.37,424.357 401.049,423.157 401.289,423.157 401.769,424.357 402.249,424.598 402.969,424.117 404.168,423.157 
		405.849,422.438 406.329,422.197 407.288,422.197 407.768,422.197 408.728,422.197 409.208,422.197 411.367,422.438 
		411.607,422.438 412.087,422.677 412.327,423.157 412.327,423.397 412.327,423.638 412.087,423.877 412.087,424.357 
		412.087,424.598 412.327,424.837 412.567,424.837 412.807,425.078 413.047,425.078 413.767,424.837 415.207,423.877 
		415.926,423.877 416.407,423.877 416.887,424.837 417.126,425.317 417.366,425.317 419.046,424.357 420.006,423.157 
		420.486,423.157 420.966,423.157 423.605,423.638 424.085,423.638 424.805,425.078 425.045,425.317 426.964,427.478 
		427.444,427.718 427.685,427.958 429.604,430.358 429.844,431.318 429.604,431.558 428.884,432.038 428.884,432.519 
		428.884,432.999 432.003,434.438 432.724,435.639 432.963,436.359 433.443,436.599 434.403,437.319 434.403,437.559 
		435.363,437.799 435.603,438.039 435.843,438.039 436.083,438.039 437.763,438.039 439.682,437.319 441.122,436.599 
		442.082,436.599 442.322,436.839 443.042,437.079 443.282,437.079 443.521,436.599 444.241,435.639 444.481,435.159 
		444.721,434.679 444.481,433.958 444.721,433.238 445.441,431.798 446.641,429.398 446.881,429.158 446.401,428.678 
		445.921,428.438 445.921,428.198 445.921,427.718 446.161,427.238 447.121,426.758 447.841,426.758 448.081,426.518 
		449.041,424.117 450.48,421.477 451.2,420.277 451.68,419.317 453.12,418.837 453.12,418.357 453.12,413.076 453.12,412.596 
		453.12,410.676 453.12,408.276 453.36,405.396 453.36,404.436 453.6,397.235 453.6,391.474 453.6,390.994 453.6,388.834 
		453.6,388.114 453.6,385.233 453.84,372.032 453.84,371.552 453.84,368.432 453.84,368.192 453.84,365.312 454.08,352.59 
		454.08,352.35 454.08,351.63 454.08,350.43 454.319,347.79 454.56,335.308 454.56,330.508 461.998,330.748 466.317,330.748 
		485.034,331.228 492.232,331.228 493.912,331.468 496.552,331.468 503.271,331.468 506.39,331.468 507.59,331.708 511.189,331.708 
		519.828,331.708 522.707,331.708 536.145,331.948 539.744,331.948 545.263,332.188 545.983,332.188 549.822,332.188 
		550.782,332.188 553.182,332.188 555.581,332.188 558.94,332.188 561.82,332.188 570.938,332.428 581.016,332.428 585.335,332.428 
		586.535,332.428 586.775,332.428 587.015,332.428 587.495,332.428 587.975,332.428 592.054,332.428 593.974,332.428 
		597.333,332.428 601.652,332.428 602.132,332.428 603.092,332.428 614.37,332.428 624.688,332.428 631.647,332.428 
		646.284,332.428 659.481,332.428 662.602,332.428 665.961,332.428 666.44,332.428 671.96,332.428 685.877,332.428 686.117,332.428 
		686.598,332.428 686.837,332.428 687.077,332.428 687.316,332.428 687.557,332.428 687.797,332.428 690.196,332.428 
		690.916,332.428 694.516,332.428 695.955,332.428 696.195,332.428 697.875,332.428 699.794,332.428 700.035,332.428 
		700.754,332.428 701.474,332.428 709.633,332.428 709.873,332.428 710.353,332.428 713.952,332.188 716.352,332.188 
		716.831,332.188 743.946,331.708 748.266,331.708 754.984,331.468 755.465,331.468 756.904,331.468 757.384,331.468 
		760.264,331.468 761.703,331.468 763.383,331.468 765.063,331.228 766.022,331.228 766.502,331.228 766.742,331.468 
		768.662,331.948 768.902,331.948 771.541,331.948 772.981,331.948 774.66,331.948 776.34,331.708 779.46,331.708 780.9,331.708 
		782.58,331.708 785.698,331.708 794.338,331.468 795.537,331.468 796.977,331.468 800.096,331.228 801.536,331.228 
		803.216,331.228 804.415,331.228 804.655,331.228 804.896,331.228 808.015,331.228 809.694,331.228 815.693,330.988 
		819.532,330.988 820.732,330.988 828.891,330.748 829.37,330.748 835.369,330.508 836.33,330.508 842.809,330.508 843.769,330.508 
		844.248,330.508 854.086,330.028 856.246,330.028 863.924,329.788 864.165,329.788 864.404,329.788 865.844,329.788 
		866.324,329.788 867.764,329.788 869.443,329.548 874.003,329.548 874.482,329.548 875.922,329.548 877.122,329.548 
		881.682,329.308 893.68,329.068 893.68,332.188 893.68,333.388 893.919,340.109 893.919,342.509 893.919,342.989 893.919,343.469 
		894.159,344.43 894.159,348.51 894.398,353.55 894.398,354.03 894.639,361.471 894.639,363.871 894.879,371.072 895.119,380.673 
		895.119,383.553 895.359,386.434 895.359,391.954 895.599,396.755 895.599,399.635 895.839,403.715 895.839,407.556 
		896.078,409.956 896.318,418.357 896.318,421.477 896.318,422.917 896.559,425.558 896.798,438.039 896.798,441.159 
		897.039,446.44 897.039,448.12 897.039,450.04 897.278,450.52 897.278,450.76 897.278,451.48 897.278,456.761 897.278,457.001 
		897.278,457.721 897.519,459.401 897.519,462.761 897.519,464.922 897.758,468.282 897.758,470.202 897.758,471.642 
		897.758,475.243 897.758,475.482 897.998,477.643 897.998,480.283 897.998,480.523 897.998,481.003 897.998,481.963 
		897.998,482.443 897.998,484.124 898.238,485.563 898.238,486.524 898.238,487.244 898.238,487.964 898.238,488.924 
		898.238,489.164 898.238,492.044 898.479,493.725 898.479,495.165 898.479,496.845 898.479,498.285 898.479,499.725 
		898.479,501.165 898.479,501.405 898.719,503.085 898.719,504.045 898.719,506.206 898.719,506.686 898.719,507.406 
		898.719,507.886 898.719,508.126 898.958,510.526 898.958,510.766 898.958,511.486 898.958,511.966 898.958,512.927 
		898.958,514.126 898.958,515.807 899.198,517.247 899.198,518.927 899.198,520.367 899.198,522.047 	"/>
	
		<polyline clip-path="url(#SVGID_2_)" fill="none" stroke="#B37C34" stroke-width="0.4799" stroke-linecap="round" stroke-linejoin="round" stroke-miterlimit="3.85" points="
		899.198,522.047 899.198,523.728 899.198,524.208 899.438,525.168 899.438,526.848 899.438,528.528 899.438,529.488 
		899.918,545.57 900.158,552.05 900.397,558.051 900.397,561.892 900.397,563.092 900.638,566.452 900.638,567.892 900.638,569.572 
		900.638,571.252 900.638,572.692 901.357,593.575 901.357,599.815 901.598,604.616 902.558,638.699 902.797,652.141 
		903.037,656.941 903.277,661.981 903.518,670.623 903.757,681.184 903.757,681.424 903.757,685.504 903.997,692.225 
		903.997,692.705 904.237,697.985 904.237,698.945 904.237,703.266 904.237,704.706 904.717,715.507 904.717,715.987 
		904.717,716.707 904.717,717.188 904.717,718.147 904.717,721.508 904.957,725.348 904.957,725.588 904.957,726.068 
		904.957,726.309 904.957,726.548 905.197,739.029 905.438,743.59 905.677,751.271 905.677,754.631 905.677,756.312 
		905.677,758.711 905.677,758.952 906.396,777.434 906.637,785.114 906.637,790.635 906.637,791.835 906.877,799.996 
		906.877,800.235 906.877,800.716 906.877,801.195 907.117,805.036 907.597,829.039 908.557,859.762 908.557,866.002 
		908.557,866.482 908.557,867.923 908.797,872.723 908.797,874.163 909.036,884.484 909.276,889.765 909.276,890.965 
		909.276,892.886 909.276,896.485 909.276,897.926 909.756,915.447 910.235,930.329 910.235,930.568 910.235,932.489 
		910.716,948.811 889.12,949.051 887.2,949.051 885.04,949.291 868.963,949.531 868.004,949.531 867.283,949.531 865.844,949.531 
		865.604,949.531 864.885,949.771 864.645,949.771 864.165,949.771 863.685,949.771 862.725,949.771 862.484,949.771 
		862.244,949.771 862.005,949.771 861.045,949.771 857.445,949.771 840.889,950.251 837.529,950.251 833.93,950.251 829.37,950.491 
		825.531,950.491 821.452,950.491 821.213,950.491 808.734,950.731 808.255,950.731 802.256,950.731 778.261,951.211 
		763.144,951.451 753.785,951.451 750.186,951.451 748.506,951.451 746.826,951.69 744.906,951.69 741.787,951.69 737.948,951.69 
		735.788,951.69 733.148,951.932 732.908,951.932 730.989,951.932 729.789,951.932 727.629,951.932 720.671,951.932 
		715.871,950.251 693.315,941.851 675.079,935.13 669.32,932.969 635.966,920.728 611.011,911.606 599.973,907.527 599.493,907.286 
		599.013,907.286 597.813,906.807 597.573,906.566 596.613,906.327 584.855,902.006 577.417,899.126 555.101,890.965 
		553.182,890.245 529.186,881.604 520.787,878.244 509.989,874.163 495.112,868.402 471.356,859.281 468.477,858.322 
		444.241,848.961 425.285,841.52 402.249,832.64 396.49,830.479 389.771,827.839 382.333,824.959 378.974,823.758 376.333,822.798 
		373.454,821.598 373.454,821.357 373.694,821.118 373.454,820.638 373.454,820.397 373.694,820.157 373.934,820.157 
		374.174,820.157 374.174,819.918 374.414,819.678 374.414,819.438 374.414,819.198 373.934,818.718 373.694,818.478 
		373.934,817.998 374.174,817.518 374.654,817.038 374.654,816.798 374.414,816.558 374.414,816.077 374.414,815.838 
		374.654,815.838 375.374,815.598 375.374,815.357 375.614,815.357 375.614,815.117 375.614,814.877 375.614,814.637 
		375.614,814.397 375.374,814.157 375.134,813.917 374.654,814.157 374.174,814.157 373.934,813.917 373.934,813.677 
		374.174,813.437 374.654,812.957 374.894,812.717 374.894,812.478 374.654,812.236 374.654,811.997 374.654,811.757 
		374.894,811.518 375.134,811.036 375.134,810.797 374.894,810.317 374.894,810.077 374.414,810.077 374.414,809.837 
		374.174,809.117 374.174,808.156 374.414,807.677 375.134,807.437 375.374,807.437 375.614,807.677 375.854,807.677 
		376.813,807.437 376.813,806.956 376.813,806.717 377.054,806.477 377.534,806.236 378.253,805.756 378.493,805.516 
		378.493,805.276 378.493,805.036 378.493,804.797 378.974,804.076 379.453,803.836 380.173,803.116 380.173,802.876 
		380.173,802.636 380.413,802.396 380.413,801.676 381.853,799.516 381.853,799.275 381.853,798.795 382.573,797.835 
		382.813,797.355 383.053,797.115 383.292,796.396 383.292,796.155 384.252,794.955 384.492,794.476 384.732,794.476 
		385.692,795.436 386.172,795.436 386.652,795.436 386.892,795.436 387.612,795.676 387.852,795.676 388.571,795.915 
		389.532,795.915 389.771,795.915 390.011,796.155 390.251,796.155 390.971,796.155 391.691,796.396 392.171,796.636 
		392.411,796.396 392.651,795.915 395.53,795.915 395.53,794.955 397.21,795.195 397.21,794.235 398.41,794.235 399.609,794.235 
		399.609,793.515 400.809,793.515 400.569,792.556 400.329,791.595 400.329,791.355 400.329,790.875 400.329,789.915 
		400.569,789.675 400.569,789.194 401.289,788.715 401.529,788.475 401.529,788.234 402.009,787.754 402.009,787.515 
		402.489,787.034 403.209,786.794 403.688,786.555 403.929,786.314 404.409,786.074 405.128,785.354 405.608,784.874 
		406.329,784.154 406.808,780.794 406.808,780.313 406.808,780.073 407.048,777.914 407.048,777.673 407.048,777.193 
		407.048,776.714 406.088,775.754 405.849,775.514 405.608,775.033 405.368,774.313 405.608,774.073 405.608,773.593 
		406.088,773.113 406.329,772.633 406.329,772.152 406.329,771.913 406.329,771.673 406.329,771.433 406.329,771.193 
		406.329,770.952 406.088,770.473 405.849,770.232 405.608,770.232 404.889,770.473 404.649,770.473 404.409,770.232 
		404.409,769.993 404.168,769.272 404.168,768.072 403.929,766.632 403.688,766.152 403.688,765.912 403.449,765.673 
		403.449,765.432 403.449,765.192 403.209,765.192 402.969,764.473 402.489,764.231 402.489,763.992 	"/>
</g>
</svg>
