<?xml version="1.0" encoding="utf-8"?>
<!-- Generator: Adobe Illustrator 15.1.0, SVG Export Plug-In . SVG Version: 6.00 Build 0)  -->
<!DOCTYPE svg PUBLIC "-//W3C//DTD SVG 1.1//EN" "http://www.w3.org/Graphics/SVG/1.1/DTD/svg11.dtd">
<svg version="1.1" id="State" xmlns="http://www.w3.org/2000/svg" xmlns:xlink="http://www.w3.org/1999/xlink" x="0px" y="0px"
	 width="1296px" height="1296px" viewBox="0 0 1296 1296" enable-background="new 0 0 1296 1296" xml:space="preserve">
<g>
	<defs>
		<rect id="SVGID_1_" x="259.22" y="353.062" width="778.316" height="594.332"/>
	</defs>
	<clipPath id="SVGID_2_">
		<use xlink:href="#SVGID_1_"  overflow="visible"/>
	</clipPath>
	
		<polyline clip-path="url(#SVGID_2_)" fill="none" stroke="#B37C34" stroke-width="0.72" stroke-linecap="round" stroke-linejoin="round" stroke-miterlimit="3.85" points="
		341.54,370.825 345.379,371.064 346.1,371.064 351.14,371.064 351.62,371.064 354.02,371.064 354.5,371.305 355.22,371.305 
		359.3,371.305 359.54,371.305 360.259,371.305 362.659,371.305 363.139,371.305 363.379,371.305 366.02,371.305 366.259,371.544 
		368.179,371.544 369.139,371.544 370.339,371.544 372.259,371.544 375.859,371.785 377.059,371.785 377.299,371.785 
		377.779,371.785 378.02,371.785 384.739,372.025 387.379,372.025 387.62,372.025 388.579,372.025 388.819,372.025 389.059,372.025 
		390.02,372.025 395.779,372.265 397.699,372.265 398.179,372.265 399.62,372.265 399.859,372.265 400.339,372.265 402.5,372.265 
		411.859,372.505 412.819,372.505 415.459,372.505 415.939,372.505 416.899,372.745 417.139,372.745 417.619,372.745 
		421.219,372.745 421.699,372.745 422.419,372.745 424.339,372.745 429.379,372.745 432.979,372.985 433.699,372.985 
		443.779,372.985 444.019,372.985 444.739,372.985 446.179,373.225 446.419,373.225 447.139,373.225 448.339,373.225 
		449.539,373.225 450.739,373.225 451.699,373.225 453.379,373.225 465.619,373.465 474.499,373.705 475.219,373.705 
		476.179,373.705 477.379,373.705 477.619,373.705 479.059,373.705 481.219,373.705 483.859,373.705 484.099,373.705 
		484.579,373.705 485.539,373.705 486.739,373.705 487.459,373.705 488.179,373.705 489.139,373.945 489.379,373.945 
		489.619,373.945 490.819,373.945 496.339,373.945 499.939,373.945 502.339,373.945 508.099,374.185 511.939,374.185 
		513.379,374.185 520.339,374.425 520.819,374.425 523.219,374.425 524.179,374.425 528.739,374.425 528.979,374.425 
		531.379,374.425 537.858,374.425 538.339,374.425 541.938,374.425 543.619,374.665 548.418,374.665 549.139,374.665 
		550.818,374.665 553.699,374.665 558.738,374.665 560.659,374.665 560.898,374.665 567.619,374.905 569.298,374.905 
		570.499,374.905 586.579,374.905 587.298,374.905 588.979,374.905 589.698,374.905 595.938,374.905 596.418,374.905 
		598.578,374.905 600.019,374.905 600.258,374.905 601.938,374.905 606.019,374.905 606.258,374.905 610.098,374.905 
		611.298,374.905 612.498,374.905 613.458,375.145 614.178,375.145 618.738,375.145 619.938,375.145 620.418,375.145 
		620.658,375.145 623.298,375.145 627.378,375.145 628.338,375.145 634.578,375.145 634.818,375.145 640.338,375.145 
		640.578,375.145 640.818,375.145 642.498,375.145 648.738,375.145 650.418,375.145 652.578,374.905 655.458,375.145 
		658.338,375.145 660.738,375.145 662.418,375.145 664.338,375.145 665.538,375.145 669.378,375.145 669.857,375.145 
		673.698,375.145 676.098,375.145 676.818,375.145 680.418,375.145 684.979,375.145 685.218,374.905 687.618,374.905 
		688.818,374.905 692.657,374.905 693.138,374.905 693.617,374.905 695.538,374.905 695.777,374.905 697.938,374.905 
		702.979,374.905 707.777,374.905 708.018,374.905 709.938,374.905 713.537,374.905 714.979,374.905 716.897,374.905 
		718.818,374.905 719.537,374.905 721.218,374.905 723.617,374.905 723.857,374.905 724.818,374.905 725.058,374.905 
		725.298,374.905 725.537,374.905 726.258,374.905 726.738,374.905 727.218,374.905 727.938,374.905 728.418,374.905 
		731.058,374.905 731.298,374.905 731.777,374.905 732.498,374.905 734.657,374.905 738.258,375.145 738.738,375.145 
		739.938,375.145 740.418,375.145 743.777,375.145 744.018,375.145 753.857,374.905 756.978,374.905 765.617,374.905 
		766.577,374.905 767.777,374.905 768.018,374.905 773.777,374.905 779.537,374.665 781.697,374.665 783.377,374.665 
		793.457,374.665 793.697,374.425 794.657,374.425 798.257,374.425 800.418,374.425 800.657,374.425 803.297,374.425 
		805.217,374.425 805.457,374.425 811.217,374.425 811.457,374.425 811.938,374.425 813.137,374.425 813.617,374.185 
		814.817,374.185 821.057,374.185 823.217,374.185 823.457,374.185 823.938,374.185 825.617,374.185 832.577,374.185 
		834.978,373.945 840.018,373.945 840.737,373.945 841.938,373.945 845.297,373.945 846.257,373.945 847.697,373.945 
		848.657,373.945 848.897,373.945 849.857,373.705 857.777,373.705 859.697,373.705 860.177,373.705 860.417,373.705 
		863.777,373.705 867.377,373.705 868.337,373.465 869.057,373.465 875.297,373.465 880.098,373.465 881.777,373.465 
		882.978,373.465 889.697,373.225 892.098,373.225 894.257,373.225 895.217,373.225 895.697,373.225 898.816,373.225 
		901.217,372.985 904.097,372.985 903.856,373.225 903.856,373.465 903.617,373.705 903.377,373.705 903.137,373.705 
		903.137,373.945 903.377,373.945 903.617,374.185 903.617,374.665 903.137,374.665 903.137,374.905 903.377,375.145 
		903.137,375.625 903.137,375.865 903.377,375.865 904.577,376.585 905.057,376.345 905.297,376.585 905.537,377.065 
		905.537,377.306 904.816,377.545 904.577,377.545 904.097,377.306 903.617,378.025 903.617,378.506 905.057,378.506 
		905.297,378.506 905.537,378.506 905.537,378.746 905.537,378.985 905.777,379.466 906.018,379.706 906.257,380.426 
		906.257,381.146 906.257,381.626 906.257,381.866 906.497,381.866 906.497,382.586 906.257,383.546 906.018,383.546 
		905.537,383.546 905.297,384.026 905.297,384.507 905.297,384.747 906.018,385.227 906.257,385.227 906.497,384.987 
		906.497,384.747 906.497,384.987 906.497,385.467 906.497,385.707 906.497,385.947 906.257,386.187 906.018,386.187 
		906.497,386.427 906.978,386.187 907.217,386.667 908.177,386.667 908.897,387.147 909.137,387.387 909.856,387.867 
		910.097,387.867 910.337,387.627 910.576,387.627 911.777,387.867 913.457,388.347 913.697,388.587 913.938,388.827 
		913.938,389.067 914.417,389.307 914.417,389.547 915.137,390.027 915.617,391.228 915.617,392.668 915.617,393.628 
		915.377,394.828 914.897,395.308 914.417,396.269 913.938,396.269 913.938,396.508 914.417,396.988 914.417,397.469 
		914.177,397.708 913.938,398.429 914.417,398.669 914.417,398.909 914.177,399.389 913.938,399.869 913.697,400.109 
		913.457,400.589 913.697,400.829 913.697,401.069 913.938,401.309 914.177,401.069 915.137,402.029 915.617,402.75 
		915.617,403.229 915.856,403.709 915.137,404.91 915.137,405.15 914.897,405.15 914.177,406.11 914.417,407.07 913.457,408.51 
		913.217,408.75 912.497,408.75 911.297,409.23 910.816,409.471 910.097,409.471 909.856,409.471 909.617,409.71 909.377,410.671 
		909.137,411.631 908.417,413.071 908.177,413.311 907.697,413.311 907.697,413.551 907.697,413.791 907.938,414.271 
		908.177,414.511 908.417,414.511 908.417,414.751 908.177,415.471 907.457,415.951 906.978,415.951 906.736,415.951 
		906.018,415.711 905.057,417.151 904.816,417.632 904.337,418.112 903.856,417.872 903.617,417.632 902.897,418.112 
		902.177,418.592 901.457,418.832 900.978,419.552 900.497,419.552 900.257,419.312 900.018,420.032 899.777,420.272 
		899.537,420.272 899.297,420.272 899.057,420.992 898.816,420.752 898.577,420.992 898.577,421.472 898.816,421.472 
		898.337,422.433 898.097,422.433 897.377,422.913 897.137,422.913 896.897,422.672 896.177,422.672 895.217,424.593 
		894.978,425.313 894.978,425.553 894.257,426.753 894.978,427.713 894.978,428.673 894.497,429.634 894.497,429.874 
		893.777,430.354 893.297,430.354 893.057,431.074 892.816,431.554 892.098,431.794 892.098,432.034 891.856,432.034 
		891.617,432.034 891.377,431.794 891.137,432.034 890.417,432.994 889.697,433.474 888.978,433.474 887.297,433.954 
		887.057,433.954 887.057,434.194 886.816,434.194 886.337,435.154 886.577,435.634 886.577,435.875 886.337,436.595 
		885.377,437.075 884.657,437.314 883.938,438.035 883.697,438.035 883.697,438.515 883.697,439.235 883.938,439.715 
		883.938,440.195 883.697,440.915 882.018,441.635 881.777,442.596 881.777,442.835 881.537,444.036 881.537,444.756 
		881.297,444.756 880.816,445.236 880.337,445.716 880.098,445.716 880.098,445.956 880.098,446.196 880.098,446.676 
		879.856,447.396 879.856,447.876 879.856,448.116 879.856,448.356 879.137,449.316 878.177,450.037 877.697,450.757 
		877.217,451.717 876.497,452.917 877.697,452.917 881.057,452.917 881.537,452.917 887.537,452.677 888.018,452.677 
		893.297,452.677 900.018,452.437 901.217,452.437 904.577,452.197 908.656,452.197 908.897,452.197 909.617,452.197 
		909.856,452.197 910.337,452.197 910.816,451.957 911.057,451.957 911.777,451.957 915.856,451.957 916.097,451.957 
		918.017,451.957 925.697,451.717 928.576,451.477 929.536,451.477 930.017,451.477 930.257,451.477 931.937,451.477 
		937.697,451.237 938.417,451.237 941.057,451.237 941.297,451.237 942.017,451.237 942.977,451.237 944.177,450.997 
		945.377,450.997 950.177,450.997 954.496,450.757 954.736,450.757 958.816,450.757 959.297,450.757 959.536,451.237 
		960.017,451.717 961.217,452.917 961.217,453.157 961.217,454.837 961.217,455.317 961.217,455.797 961.937,456.518 
		962.416,456.998 963.856,457.958 965.536,458.918 966.736,459.878 967.456,460.838 969.617,462.279 970.097,462.999 
		970.336,463.479 970.816,465.159 971.057,465.639 970.816,467.079 970.336,467.799 969.856,468.52 969.377,468.52 968.416,469 
		967.937,469 966.977,468.76 966.257,468.04 965.536,466.839 961.937,465.639 959.536,465.879 957.137,467.079 956.896,467.079 
		956.416,467.319 955.456,468.04 955.217,468.76 954.736,469.96 954.736,470.2 954.736,470.44 954.496,471.16 954.736,471.88 
		954.736,472.12 955.217,472.6 955.217,472.84 955.937,473.32 957.856,474.041 958.576,474.28 960.257,474.761 962.896,476.201 
		963.617,476.681 963.856,476.921 963.856,477.161 964.097,477.401 964.097,477.881 964.097,478.361 964.097,478.601 
		963.856,479.081 963.377,479.321 961.697,480.521 961.217,480.761 960.017,481.481 958.816,481.481 956.896,480.761 
		955.937,480.761 955.937,481.001 953.777,481.722 951.856,483.642 951.617,484.362 951.856,485.322 951.856,485.802 
		951.617,486.522 950.416,488.203 949.937,488.683 949.697,488.923 948.977,489.403 948.496,489.643 947.297,489.883 
		945.617,489.643 944.177,490.603 943.456,491.083 942.257,492.043 941.777,492.043 940.816,491.563 940.337,490.603 
		937.937,489.403 937.697,489.403 937.456,489.403 936.977,489.643 936.736,490.123 932.897,492.283 932.177,492.763 
		931.697,493.003 931.457,493.483 931.217,494.443 931.217,495.164 931.217,495.884 931.457,497.084 931.697,499.484 
		931.697,500.205 931.937,500.925 932.177,500.925 932.417,501.645 933.377,502.605 934.097,504.285 934.816,504.765 
		934.816,505.005 935.057,505.005 935.057,505.245 936.017,505.725 936.977,506.206 937.217,506.206 938.177,506.445 
		939.137,506.445 940.337,506.206 940.816,505.965 941.057,505.725 941.057,505.485 941.297,505.485 941.297,505.245 
		941.777,504.285 942.017,504.045 942.257,503.805 942.496,503.565 942.977,503.565 943.456,503.325 943.937,503.325 
		944.177,503.325 944.177,503.565 944.416,503.565 944.896,504.285 945.137,504.765 945.377,505.245 945.377,505.485 
		945.377,506.445 945.377,507.406 945.137,508.125 945.137,508.366 944.896,508.606 944.656,508.846 944.656,509.086 
		943.697,509.566 942.257,510.286 942.017,510.286 941.057,511.006 939.856,511.966 939.617,512.207 939.377,512.207 
		939.137,512.207 938.417,511.966 937.697,511.726 936.736,512.687 935.057,513.407 933.377,514.367 932.656,515.087 
		932.177,515.567 931.937,516.047 931.697,516.767 931.697,517.007 931.937,517.487 932.177,518.447 933.377,520.368 
		933.617,520.848 934.097,521.568 935.536,522.288 936.257,522.288 937.217,522.288 937.456,522.528 937.937,522.768 
		938.177,523.248 938.177,523.488 937.937,523.728 937.937,524.208 938.177,524.208 938.656,524.448 938.896,524.688 
		938.896,524.928 938.417,526.608 938.417,527.089 937.937,527.569 937.456,528.049 936.977,528.049 936.496,528.049 
		935.297,527.569 935.057,527.569 933.617,527.329 933.377,527.329 932.897,527.089 932.656,526.849 932.177,526.369 
		931.937,526.128 931.937,525.648 932.177,525.168 932.177,524.928 932.177,524.208 931.937,523.968 931.697,523.728 
		929.536,522.048 927.856,521.088 927.377,520.848 926.656,520.848 926.417,520.848 925.457,521.088 924.977,521.328 
		924.257,521.808 924.017,521.808 923.297,521.808 922.816,521.808 922.097,522.288 921.617,522.768 921.377,523.008 
		921.137,524.688 920.656,525.648 920.656,525.889 920.177,527.089 920.177,528.289 920.417,529.969 920.656,531.169 
		920.897,531.889 922.097,533.81 924.017,535.25 924.257,535.73 924.257,535.97 924.257,536.21 923.777,537.41 923.536,537.89 
		923.297,538.851 923.297,539.331 923.297,540.051 923.297,540.531 923.057,540.771 922.816,541.971 921.617,542.931 
		921.377,543.171 921.137,543.411 920.897,544.131 920.897,544.371 920.656,544.852 920.177,545.332 919.697,545.571 
		919.457,545.332 918.977,545.332 918.736,544.852 918.736,544.131 917.777,542.931 917.297,541.251 917.297,540.291 
		917.537,538.61 918.017,536.93 918.017,536.21 918.017,535.97 917.297,535.25 917.057,535.01 916.337,534.53 915.617,534.05 
		914.897,534.05 913.938,534.29 913.457,534.53 912.736,534.53 911.777,535.25 911.297,535.73 911.057,536.21 910.816,537.17 
		910.097,540.051 908.656,541.011 905.057,543.411 904.816,543.891 904.816,545.091 903.856,549.172 903.856,549.652 
		904.577,550.372 905.537,550.853 908.177,550.853 909.377,550.372 908.417,548.692 907.938,547.492 907.938,546.771 
		908.177,546.052 908.417,545.571 908.656,545.332 909.137,544.852 909.377,544.611 910.097,544.611 911.777,544.852 
		912.257,545.091 912.497,545.332 912.978,546.052 913.457,546.292 914.417,547.252 914.897,547.732 915.617,547.972 
		916.576,548.932 916.816,548.932 917.297,549.172 916.097,551.572 915.617,552.292 915.377,552.772 914.897,552.772 
		914.417,553.493 914.177,554.213 913.217,555.653 912.978,555.653 912.736,555.653 913.697,557.093 913.697,557.333 
		913.217,558.534 912.978,561.654 912.017,561.894 911.537,561.654 911.297,561.894 910.097,562.374 909.137,562.614 
		907.697,562.134 907.457,562.134 906.736,562.374 906.257,562.854 906.018,563.094 905.777,563.574 905.297,565.495 
		905.297,565.975 905.777,566.695 906.736,568.375 907.697,569.575 909.137,570.055 910.337,569.815 911.297,569.575 
		912.257,569.575 912.978,569.575 913.697,569.575 914.417,570.055 914.656,570.295 915.617,571.496 916.337,572.456 
		916.576,573.176 917.057,573.896 917.057,574.376 917.297,575.096 917.297,575.336 917.297,575.816 917.057,575.816 
		916.816,576.056 916.576,576.056 916.337,576.056 916.097,576.296 915.856,576.536 915.377,577.736 915.137,578.937 
		914.897,579.177 913.457,578.457 912.497,578.457 912.257,579.897 912.257,580.137 912.736,581.097 913.217,581.577 
		913.457,581.577 913.457,582.297 913.457,583.018 913.457,583.257 913.697,583.498 913.938,583.737 914.417,583.978 
		914.897,584.458 915.617,584.938 916.097,585.178 918.736,585.417 918.977,585.658 918.977,585.898 919.217,587.338 
		919.217,587.578 919.217,588.058 918.977,588.298 918.497,589.018 918.017,589.499 917.057,590.699 916.576,590.938 
		916.097,591.179 914.656,591.418 913.697,591.179 909.617,588.778 909.137,588.538 908.897,588.538 907.457,589.258 
		906.978,589.738 906.257,590.218 906.257,590.458 906.018,590.458 905.537,591.179 905.297,591.179 905.297,591.418 
		904.816,592.379 904.337,595.499 903.377,598.14 902.656,600.3 902.656,601.26 902.897,601.98 902.897,603.42 902.656,604.141 
		901.938,604.861 901.938,605.101 900.736,605.821 900.257,606.061 900.018,606.061 898.816,605.341 898.097,605.341 
		894.736,604.861 894.018,604.381 893.777,604.381 893.777,603.9 893.537,603.9 890.177,603.661 889.697,603.9 889.457,604.381 
		888.978,605.821 888.257,607.501 887.777,608.701 887.777,609.662 887.777,609.901 887.777,610.142 888.018,611.102 
		888.497,612.782 888.736,613.262 889.697,613.982 890.177,614.222 890.897,614.702 891.617,615.422 892.098,615.902 
		894.497,616.863 894.736,617.103 895.217,617.343 895.697,617.823 895.938,618.543 896.177,618.783 896.177,619.023 
		896.417,619.983 896.417,622.624 896.417,623.824 896.177,624.544 895.938,624.784 892.098,627.664 889.217,629.345 
		888.257,630.064 887.777,630.545 888.736,632.225 888.978,632.465 889.217,632.945 889.217,633.425 888.978,633.905 
		888.497,634.625 888.018,635.105 887.057,634.865 886.577,634.625 885.377,633.665 884.177,632.465 883.217,633.425 
		882.736,633.665 879.137,634.865 876.497,636.545 876.257,636.545 875.537,637.026 875.057,637.026 874.577,637.266 
		873.617,636.786 873.377,636.786 872.657,635.585 872.417,634.385 872.417,633.425 872.417,632.945 872.657,631.985 
		872.657,631.505 872.417,631.025 871.697,629.345 871.697,629.104 871.457,628.864 870.978,628.625 870.497,628.384 
		869.297,627.904 868.577,627.664 867.856,627.904 866.657,628.625 865.938,629.104 865.457,630.064 865.457,630.545 
		865.457,631.265 865.457,632.465 865.457,632.705 865.697,632.705 865.697,632.945 865.697,633.185 865.938,633.185 
		865.938,633.425 866.897,634.385 868.098,636.786 869.057,638.466 869.057,638.706 869.057,638.946 868.816,639.906 
		868.098,640.626 867.617,641.346 867.377,641.586 867.137,641.827 866.897,642.546 866.897,643.027 866.897,643.507 
		866.897,643.747 867.137,643.987 867.377,645.427 869.057,647.827 869.777,649.508 869.777,649.748 870.018,650.468 
		870.018,650.948 870.018,651.188 870.018,651.428 870.018,651.668 869.777,651.908 869.537,652.389 869.297,652.868 
		867.617,653.828 	"/>
	
		<polyline clip-path="url(#SVGID_2_)" fill="none" stroke="#B37C34" stroke-width="0.72" stroke-linecap="round" stroke-linejoin="round" stroke-miterlimit="3.85" points="
		867.617,653.828 866.417,654.309 865.217,654.309 863.537,654.309 861.856,653.589 861.377,653.108 860.897,652.147 
		860.897,651.428 860.897,650.468 860.897,649.748 861.617,649.027 863.057,648.067 863.297,647.107 863.537,647.107 
		863.537,646.867 863.537,646.387 863.057,645.427 861.856,643.027 861.617,642.066 861.377,642.066 860.657,642.066 
		859.697,642.307 859.457,642.307 858.737,642.546 858.257,643.027 857.777,643.747 857.297,644.947 857.297,645.427 
		857.297,645.667 857.537,646.627 858.018,648.067 858.018,649.988 858.018,650.468 857.777,650.948 857.537,651.188 
		857.057,651.428 856.817,651.668 856.337,651.668 855.856,651.908 855.377,652.147 855.137,652.628 854.897,653.108 
		854.897,653.828 854.897,654.068 854.897,654.309 854.897,654.548 855.137,655.028 856.577,656.469 857.777,657.909 
		858.737,658.39 859.697,658.629 859.938,658.629 860.177,658.629 860.417,658.629 860.897,658.869 861.137,658.629 862.577,658.39 
		863.777,658.148 864.018,658.148 864.257,658.148 865.457,657.909 866.417,657.909 867.137,657.909 867.617,658.148 
		867.617,658.39 867.856,658.629 868.098,658.869 868.337,659.109 868.577,659.59 868.577,659.829 868.816,660.069 868.816,660.549 
		868.577,661.029 868.337,662.229 867.856,662.949 867.617,663.189 866.657,664.39 865.457,665.35 864.257,666.311 863.537,667.511 
		863.297,667.751 863.057,667.99 862.816,668.23 861.617,669.191 860.897,669.431 860.657,669.431 860.417,669.671 859.938,669.671 
		859.697,669.671 859.457,669.671 859.217,669.671 858.978,669.671 858.497,669.431 858.257,669.431 858.018,669.191 
		857.777,669.191 857.777,668.951 857.297,668.23 856.817,667.751 856.817,667.511 856.817,666.79 856.817,665.35 857.057,664.63 
		857.297,664.15 858.737,662.949 858.978,662.47 858.737,661.029 858.497,660.549 858.257,660.069 857.537,659.35 857.297,658.869 
		857.057,658.629 856.577,658.629 855.617,658.869 855.137,659.35 854.177,660.549 853.457,660.79 853.217,661.51 852.257,662.949 
		852.257,663.189 852.497,663.91 852.737,666.07 852.737,666.79 852.978,667.271 852.978,667.511 852.737,668.471 852.497,669.91 
		852.497,671.591 853.457,673.511 854.177,674.952 854.897,676.152 855.617,676.872 856.577,677.832 857.777,679.032 
		858.018,679.992 858.737,681.912 858.737,682.152 858.737,682.633 858.497,683.593 858.257,683.833 857.057,685.033 
		855.137,685.993 853.938,687.434 853.697,687.673 853.697,687.914 853.217,689.354 852.978,689.834 852.737,690.555 
		852.737,691.273 852.497,692.475 852.737,694.635 853.217,696.074 853.457,696.555 854.417,697.035 854.657,697.515 
		855.617,699.195 855.617,699.436 855.617,699.676 855.617,699.915 855.856,700.155 855.856,700.396 855.856,700.876 
		855.617,701.115 855.617,701.355 855.377,701.836 855.377,702.076 855.377,702.315 855.137,702.556 854.657,703.276 
		853.938,703.996 849.617,707.356 848.897,707.597 847.217,707.837 846.737,708.077 846.018,708.317 843.857,709.757 
		844.098,710.236 843.617,711.437 842.657,712.877 842.657,713.118 842.657,714.077 843.617,715.998 844.098,717.438 
		844.098,718.158 843.617,719.358 842.417,719.599 841.457,719.599 840.257,719.358 839.777,718.878 839.297,718.158 
		839.297,716.958 839.537,715.758 840.737,713.357 840.978,711.918 840.737,711.197 840.497,710.957 839.537,710.957 
		838.338,711.437 836.897,711.677 835.217,711.677 834.497,711.677 834.018,711.437 832.817,711.197 831.857,711.197 
		830.897,711.197 830.177,711.677 829.697,712.157 829.697,712.397 829.457,713.357 829.457,714.558 829.697,714.798 
		829.938,715.038 831.617,716.478 831.857,716.958 832.098,716.958 832.338,717.438 832.577,717.678 832.577,717.919 
		832.817,718.639 833.057,719.599 833.057,720.799 832.817,721.519 831.617,723.439 831.377,723.919 830.897,724.159 
		829.938,724.88 829.217,725.119 828.978,725.119 828.737,725.119 828.497,724.88 828.018,724.88 827.777,724.88 825.617,724.64 
		825.377,724.64 825.137,724.64 824.897,724.88 823.697,725.119 822.737,725.359 822.497,725.6 822.257,725.84 822.018,725.84 
		821.777,726.08 821.537,726.319 821.537,726.56 821.297,726.56 821.297,727.04 821.057,727.76 821.057,728 820.817,728.48 
		820.577,729.92 820.577,730.16 820.338,731.12 820.338,732.081 820.338,732.32 820.338,732.801 820.338,733.04 820.338,733.761 
		820.338,734.24 820.098,734.481 820.098,734.721 820.098,735.201 819.617,736.161 819.377,736.881 818.657,736.401 
		818.177,735.921 816.737,735.921 815.057,735.44 813.137,734.001 812.657,733.521 812.418,733.281 811.697,731.36 811.697,731.12 
		811.457,730.881 811.217,730.881 810.978,730.64 810.737,730.64 810.498,730.64 809.297,730.64 808.577,730.881 807.857,731.601 
		807.617,732.081 807.617,732.32 807.617,732.561 807.377,732.561 807.617,733.761 807.857,734.961 808.098,735.44 808.098,735.682 
		810.257,738.081 810.257,738.321 810.498,738.562 810.737,738.802 810.978,738.802 810.978,739.041 813.617,740.242 
		814.098,740.722 814.817,740.242 815.297,740.242 815.777,740.481 816.257,740.481 816.497,740.481 816.978,740.481 
		817.217,740.481 817.938,740.002 818.177,740.002 819.377,740.002 820.577,740.242 821.777,740.242 823.217,740.481 
		823.457,740.481 823.938,740.722 824.177,741.202 824.418,741.442 824.418,741.682 824.657,742.882 824.657,743.843 
		824.177,744.802 823.457,745.763 822.737,746.723 822.257,746.963 821.777,747.202 820.817,747.683 819.377,747.683 
		818.657,747.683 817.217,747.202 816.737,746.963 815.537,746.002 814.817,745.522 813.137,744.082 811.938,743.603 
		811.217,743.362 807.617,746.002 805.457,747.683 804.737,748.883 804.978,749.844 805.217,750.563 805.457,750.803 
		806.177,752.003 806.418,752.244 809.777,754.644 810.257,754.884 810.737,754.884 812.418,754.644 813.377,753.924 
		814.098,753.924 814.817,754.164 815.297,754.404 815.777,754.884 816.257,755.844 816.497,756.324 816.497,756.805 
		816.257,757.284 816.018,758.005 815.057,759.444 814.577,760.165 814.338,760.645 814.098,761.125 814.098,762.085 
		814.338,763.285 814.338,763.765 814.338,764.006 814.338,764.246 814.098,764.726 813.857,765.206 813.617,765.206 
		812.897,765.686 810.737,766.165 809.777,765.926 809.537,765.926 808.098,766.406 807.137,766.646 806.177,766.646 
		804.978,766.406 803.537,766.165 802.577,766.165 801.857,766.406 801.137,766.646 802.338,769.526 802.577,770.247 
		803.537,770.967 804.737,772.647 804.737,772.887 804.737,773.127 804.737,773.367 804.737,773.606 804.498,774.807 
		804.257,775.047 804.018,775.287 803.537,775.527 802.817,775.768 801.857,776.007 801.377,775.768 800.897,775.768 
		800.418,775.527 800.177,775.287 799.697,775.047 799.217,774.327 798.978,773.367 797.777,770.486 797.058,769.047 
		795.137,770.486 794.418,771.447 793.938,771.687 793.217,772.166 791.537,772.166 790.338,772.166 789.617,772.406 
		789.138,772.647 788.657,772.887 788.177,773.606 787.938,774.087 787.938,774.567 787.938,774.807 787.938,775.047 
		787.938,775.287 787.938,775.527 787.938,775.768 787.938,776.007 788.177,776.247 788.657,776.728 789.377,776.968 
		793.457,777.928 794.897,778.647 797.058,779.607 798.018,780.328 798.257,780.809 798.257,781.048 798.498,781.288 
		798.257,781.528 797.537,782.488 796.338,784.169 794.897,785.609 794.657,786.089 792.737,788.01 792.498,788.249 
		791.777,788.969 790.577,790.89 790.338,791.369 790.098,792.33 790.338,793.53 791.058,794.97 791.297,795.45 792.498,796.65 
		792.978,797.61 793.217,798.331 793.697,798.811 794.177,799.291 796.577,800.251 796.817,800.491 797.297,800.491 
		798.978,800.972 799.697,801.211 799.938,801.211 800.897,802.411 801.377,803.131 801.377,803.372 801.377,803.611 
		801.377,804.331 801.137,804.812 800.657,805.531 799.938,806.012 798.257,806.973 796.817,807.212 796.338,806.973 
		792.737,804.572 792.018,804.812 788.657,805.052 788.177,805.292 785.777,806.012 785.297,805.292 785.058,805.292 
		784.817,805.052 784.338,804.812 783.617,804.331 782.897,804.092 782.418,804.092 782.178,804.092 781.938,804.331 
		781.697,804.572 781.457,805.052 781.217,805.531 780.737,806.492 780.737,807.212 780.978,807.452 781.217,807.692 
		781.457,807.692 781.217,808.412 780.978,809.132 780.978,809.373 780.978,809.853 780.737,811.532 780.737,812.013 
		780.737,812.732 780.978,812.973 782.657,814.894 783.377,815.854 784.577,816.334 785.777,816.573 786.018,816.334 
		786.257,816.334 786.737,816.334 786.978,816.334 788.177,816.094 790.098,814.894 791.058,814.653 791.537,814.653 
		791.777,814.653 792.018,814.653 792.018,814.894 792.257,814.894 792.498,815.133 792.737,815.133 793.938,816.094 
		794.657,817.054 794.897,817.534 795.137,818.254 795.377,818.734 795.617,818.974 796.098,818.974 796.098,819.935 
		795.857,820.654 795.617,821.135 795.617,821.374 795.137,821.614 793.938,822.094 793.457,822.094 792.257,822.335 
		791.297,823.055 789.857,823.775 788.897,824.015 788.657,824.015 788.418,824.015 788.418,823.775 787.938,823.775 
		787.697,823.775 786.737,823.535 782.897,821.135 782.418,820.894 780.978,818.974 780.498,818.254 778.817,816.334 
		778.817,816.094 778.577,816.094 778.098,816.334 776.897,816.813 774.978,817.054 773.537,817.054 772.817,817.054 
		772.817,817.294 772.338,817.534 772.098,817.534 771.857,817.773 770.897,818.494 770.418,819.214 769.938,819.935 
		769.938,820.894 769.938,821.854 770.178,822.335 770.658,822.814 770.658,823.055 771.138,823.294 771.377,823.535 
		771.857,823.775 772.098,823.775 772.577,824.015 773.297,824.015 775.457,824.494 775.697,824.735 776.418,824.975 
		776.658,824.975 777.617,825.455 778.338,826.175 780.257,827.855 781.697,828.815 781.697,829.056 781.938,829.295 
		782.418,830.016 782.897,831.216 782.897,832.176 782.897,832.896 782.897,833.136 782.657,833.616 782.418,833.856 
		781.938,834.576 780.018,835.776 779.537,836.017 779.058,836.017 776.897,835.776 776.658,835.776 776.418,836.017 
		775.218,836.736 774.018,837.457 773.297,837.697 771.138,838.177 770.897,838.177 770.658,838.177 769.938,838.657 
		769.697,839.137 769.697,839.377 769.457,839.856 769.457,840.577 769.697,841.298 769.938,841.538 770.418,842.498 
		771.377,843.698 771.857,844.178 775.457,847.298 775.697,847.778 775.938,848.258 775.938,848.739 775.697,849.459 
		775.218,849.939 774.498,850.659 774.018,851.619 773.058,853.06 773.058,853.539 772.817,853.779 771.857,854.499 
		771.377,854.739 770.897,854.739 769.697,855.699 769.697,856.18 769.457,857.86 769.457,858.101 769.218,858.34 769.218,858.58 
		771.138,859.061 771.617,859.301 772.577,859.301 773.058,859.301 773.297,859.301 774.018,859.061 774.737,859.061 
		775.697,858.58 776.418,858.34 776.897,857.86 778.098,856.42 777.617,854.739 777.138,853.299 777.377,852.099 777.377,851.379 
		777.377,850.659 777.857,850.179 778.098,850.179 778.338,850.179 779.058,849.939 779.537,849.939 782.418,851.859 
		783.857,853.06 784.577,855.22 784.817,856.18 784.817,856.9 784.338,857.86 783.377,858.82 783.138,859.301 783.138,859.54 
		782.897,859.78 781.938,860.501 781.217,860.261 780.978,860.261 778.817,861.221 777.617,861.701 777.138,861.94 776.658,861.94 
		775.938,861.701 774.978,861.94 774.018,861.94 773.537,862.181 773.297,862.421 772.817,863.381 772.817,863.621 772.817,864.102 
		773.058,864.341 773.297,864.82 774.978,866.261 775.218,866.261 776.418,866.981 777.138,867.461 777.857,867.702 
		778.577,867.941 780.018,867.702 781.697,867.461 783.617,866.021 784.817,865.061 785.777,864.341 786.978,862.901 
		787.457,861.701 787.457,860.501 787.457,859.54 787.457,859.301 787.697,858.58 787.938,857.86 788.418,857.38 788.897,856.42 
		789.617,855.939 790.098,855.699 790.577,855.699 791.537,855.939 791.777,856.18 792.498,856.66 792.737,857.14 792.737,857.38 
		792.737,860.021 792.737,860.261 792.257,861.221 791.297,862.66 790.577,863.621 789.857,864.341 789.377,864.82 788.657,865.781 
		787.457,866.981 787.217,866.981 786.498,867.702 784.577,870.342 784.098,871.062 781.938,872.262 781.697,872.502 
		781.697,872.742 781.938,874.663 781.938,875.143 781.697,875.143 781.697,875.383 781.697,875.623 781.697,875.863 
		781.697,876.103 781.938,878.264 781.938,880.184 781.938,880.423 782.178,880.903 784.098,883.544 784.098,884.504 
		783.617,885.465 785.058,886.424 785.297,886.665 785.537,887.624 785.537,887.864 786.018,889.064 786.737,889.545 
		787.457,890.265 787.697,890.265 787.938,889.545 788.177,888.345 788.657,887.624 788.657,887.145 788.897,886.665 
		789.377,884.504 789.617,883.784 789.857,883.304 790.338,883.064 791.058,882.584 791.777,882.344 792.978,882.344 
		793.697,882.584 794.418,883.064 794.657,883.784 794.897,884.265 794.897,885.224 794.657,885.704 794.418,886.665 
		794.177,888.104 793.697,888.824 792.257,890.265 792.018,890.985 791.777,890.985 791.297,891.465 791.297,891.945 
		791.058,891.945 790.577,891.945 790.338,891.945 790.338,892.426 789.857,892.905 789.377,892.905 788.657,892.905 
		788.897,894.585 789.377,896.506 789.617,899.146 789.617,902.268 789.617,902.507 789.617,902.986 789.617,903.228 
		789.377,903.707 789.377,904.427 789.377,904.907 789.138,905.147 788.897,905.867 788.657,906.107 786.978,907.067 
		785.777,907.308 783.617,907.548 783.377,907.548 781.938,907.308 780.978,907.308 780.737,907.067 780.498,906.588 
		779.537,905.627 779.537,905.387 779.297,905.387 779.058,905.387 778.577,905.387 778.338,905.387 778.098,905.387 
		776.418,905.627 775.938,905.867 775.697,905.867 775.218,906.348 774.978,906.588 774.018,908.268 774.018,908.748 
		774.257,910.668 774.257,910.908 774.257,911.148 774.498,911.148 774.737,911.389 774.978,911.389 775.938,911.868 
		776.178,912.108 776.897,912.349 777.857,913.549 777.857,913.789 778.098,914.028 779.058,914.269 779.537,914.269 
		780.978,914.989 781.697,915.469 784.577,917.63 784.817,918.59 785.058,919.069 785.058,919.31 784.577,920.51 784.338,921.71 
		783.857,922.67 782.897,923.39 782.178,923.631 781.217,923.631 780.257,924.11 779.537,924.831 779.058,926.031 779.058,927.231 
		765.857,927.231 763.218,927.231 760.338,927.231 759.617,927.231 758.178,927.231 757.938,927.231 757.698,927.231 
		757.218,927.231 756.738,927.231 753.377,927.231 750.978,927.231 744.498,927.231 743.058,927.231 740.657,927.231 
		739.938,927.231 736.098,927.231 734.418,927.231 726.738,927.231 724.818,927.231 723.857,927.231 720.018,927.231 
		718.818,927.231 718.098,927.231 717.617,927.231 713.298,927.231 710.897,927.231 709.938,927.231 708.018,927.231 
		703.218,927.231 700.578,927.231 694.578,927.231 692.418,927.231 689.298,927.231 685.218,927.231 684.498,927.231 
		674.658,927.231 674.418,927.231 670.818,927.231 667.938,927.231 658.818,926.99 642.738,926.99 638.418,926.99 638.178,926.99 
		629.058,926.751 624.978,926.751 623.298,926.751 622.098,926.751 619.698,926.511 618.979,926.511 618.738,926.511 
		615.858,926.511 609.378,926.511 605.298,926.271 601.218,926.271 600.979,926.271 598.338,926.271 598.098,926.271 
		597.378,926.271 579.619,925.79 575.778,925.79 574.338,925.79 573.619,925.79 573.139,925.79 572.659,925.79 571.698,925.79 
		571.458,925.79 570.258,925.79 561.858,925.551 560.418,925.551 557.298,925.551 555.619,925.311 554.179,925.311 552.499,925.311 
		548.898,925.311 541.938,925.07 540.259,925.07 538.579,925.07 537.139,925.07 536.179,925.07 529.938,924.831 525.379,924.831 
		525.139,924.831 523.938,924.831 521.299,924.831 518.899,924.831 517.699,924.831 516.979,924.831 514.339,924.59 513.859,924.59 
		508.579,924.59 506.179,924.59 505.219,924.59 504.979,924.59 503.059,924.59 493.699,924.351 489.379,924.351 484.579,924.351 
		482.659,924.11 482.179,924.11 478.099,924.11 476.419,924.11 473.299,924.11 472.579,924.11 469.699,924.11 469.459,924.11 
		469.219,924.11 465.379,923.87 464.899,923.87 463.939,923.87 453.379,923.631 449.539,923.631 444.979,923.39 444.739,923.39 
		442.819,923.39 440.899,923.39 440.659,923.39 438.499,923.39 427.699,923.149 426.259,923.149 416.179,922.91 415.459,922.91 
		412.339,922.91 408.02,922.91 398.419,922.67 397.939,922.67 396.979,922.67 396.02,922.67 396.02,913.068 396.259,910.908 
		396.259,907.067 396.259,904.427 396.259,903.707 396.259,902.986 396.5,900.347 396.5,894.105 396.5,893.626 396.5,891.705 
		396.739,887.385 396.739,886.185 396.739,884.504 396.739,882.823 396.979,873.463 396.979,872.022 396.979,871.302 
		396.979,870.822 396.979,870.103 396.979,869.861 396.979,868.902 396.979,866.981 396.979,866.021 396.979,865.781 
		396.979,864.82 396.979,864.341 397.219,862.421 397.219,861.46 397.219,860.261 397.219,859.301 397.219,857.86 397.219,857.62 
		397.219,856.9 397.219,856.66 397.219,856.42 397.219,856.18 397.219,855.22 397.219,854.739 397.219,854.02 397.219,853.299 
		397.219,852.819 397.219,851.379 397.459,848.258 397.459,848.019 397.459,847.778 397.459,847.539 397.459,839.856 
		397.459,838.417 397.219,838.417 396.739,838.417 396.5,838.177 395.779,838.657 395.059,838.657 394.579,838.417 394.1,838.177 
		393.859,837.937 393.62,837.697 393.62,837.217 393.859,837.217 	"/>
	
		<polyline clip-path="url(#SVGID_2_)" fill="none" stroke="#B37C34" stroke-width="0.72" stroke-linecap="round" stroke-linejoin="round" stroke-miterlimit="3.85" points="
		393.859,837.217 394.339,836.977 394.579,836.977 395.299,837.217 395.779,836.977 396.02,836.736 396.02,836.017 395.779,835.776 
		395.299,835.776 394.579,835.776 394.339,835.536 394.339,835.297 394.339,834.816 394.1,834.816 393.859,834.816 393.859,835.057 
		393.62,835.057 392.419,834.576 391.699,834.576 390.5,834.816 390.02,835.057 389.779,835.297 388.339,835.776 387.379,835.776 
		387.379,836.017 387.379,836.736 387.139,837.937 386.899,838.177 386.419,838.417 386.179,838.417 385.939,837.937 385.7,837.217 
		385.459,835.536 385.459,835.057 385.22,835.057 384.259,836.017 384.02,836.017 383.779,836.017 383.299,835.536 383.299,835.297 
		383.299,835.057 383.539,834.816 384.02,834.336 384.5,834.097 384.5,833.856 384.5,833.376 384.259,833.376 384.02,833.376 
		383.779,833.616 383.059,834.336 382.579,834.336 382.1,833.856 381.859,833.616 382.1,832.416 381.859,832.176 380.179,831.936 
		379.459,831.695 378.979,831.216 378.739,831.936 378.259,832.416 377.539,833.136 377.299,833.376 377.059,833.376 
		376.339,833.376 376.1,833.376 375.379,833.136 375.139,832.896 374.899,832.896 374.659,833.376 374.659,833.616 374.659,834.097 
		375.379,834.576 375.62,834.576 375.859,834.336 376.339,834.336 376.819,834.097 377.299,834.336 377.539,834.576 
		377.779,835.057 378.259,836.257 378.02,837.217 377.779,837.457 377.299,837.457 377.059,837.457 376.819,837.217 
		376.579,836.977 376.579,836.257 376.339,835.776 376.1,835.536 375.859,835.536 375.139,836.017 375.139,836.257 374.179,837.217 
		373.7,837.697 373.22,837.697 372.5,837.937 371.779,837.697 370.1,836.977 370.1,836.736 369.859,836.497 369.859,836.257 
		370.1,835.776 371.059,834.336 371.779,833.856 372.02,833.376 372.02,832.416 372.02,832.176 371.54,831.936 371.299,831.936 
		370.819,831.936 369.859,832.416 369.379,832.896 368.659,833.856 368.179,834.336 367.459,835.776 367.459,836.017 
		367.22,836.257 366.979,836.736 366.739,836.736 366.259,836.977 365.3,836.977 365.06,836.736 364.82,836.736 364.82,835.776 
		364.82,835.297 366.02,834.336 366.259,834.097 366.259,833.856 366.02,833.136 365.779,832.896 365.3,832.896 365.06,832.896 
		364.58,833.136 363.859,833.856 363.62,834.336 363.139,835.057 362.659,836.497 362.899,836.736 362.659,836.977 362.419,837.697 
		360.979,838.177 360.5,837.937 360.02,837.697 359.54,837.457 359.3,837.457 359.3,836.977 359.06,836.736 359.06,836.017 
		359.06,835.776 358.58,835.297 358.58,835.057 358.34,835.057 357.859,835.057 357.62,835.057 356.659,836.017 356.659,836.257 
		357.379,837.457 357.379,837.697 357.139,838.177 356.179,838.897 355.7,838.897 355.459,838.657 355.22,838.657 354.02,838.657 
		353.779,838.657 352.82,838.657 352.1,838.657 351.62,838.177 351.379,837.457 350.659,836.977 350.419,836.736 350.419,836.497 
		350.419,836.017 350.659,835.776 351.14,835.536 351.379,835.297 352.1,835.297 352.82,835.057 353.06,834.816 353.3,834.336 
		353.3,833.856 353.3,833.376 353.06,832.896 352.82,832.416 352.34,832.656 350.899,834.336 349.939,834.816 349.22,834.816 
		348.739,834.816 348.739,834.576 347.06,831.936 346.82,831.456 346.58,831.216 346.58,830.976 345.379,830.496 344.9,830.976 
		343.939,830.976 343.7,830.976 343.459,830.976 343.22,830.735 342.739,829.775 342.259,829.775 341.54,829.775 341.06,829.295 
		341.06,829.056 341.06,828.815 341.3,828.335 342.259,827.855 343.459,827.136 343.7,826.895 343.7,826.655 343.7,826.175 
		343.22,825.936 342.739,825.694 342.5,825.694 342.259,824.735 342.979,824.494 344.179,824.255 344.42,824.015 344.42,823.294 
		344.179,822.814 343.459,822.574 342.979,822.574 342.5,822.814 342.259,823.535 342.02,823.775 340.58,823.294 339.859,823.294 
		339.379,823.535 339.379,821.135 339.379,819.454 339.62,815.613 339.62,815.133 339.859,812.013 339.859,811.053 339.859,809.373 
		340.1,807.932 340.1,805.772 340.1,805.292 340.1,804.812 340.34,799.771 340.58,798.57 340.58,797.61 340.58,797.371 
		340.82,794.25 340.82,793.05 340.82,789.93 341.06,788.969 341.06,785.129 341.3,785.129 341.54,776.247 341.54,775.768 
		341.54,775.527 341.779,773.606 341.779,773.127 342.259,763.285 342.259,762.806 342.5,757.044 342.739,754.644 342.739,750.083 
		342.979,745.522 343.22,741.922 343.22,741.202 343.459,736.401 343.7,733.04 343.7,732.561 343.939,728.72 343.939,727.04 
		344.66,710.718 344.66,709.518 344.9,706.877 344.9,706.637 345.14,702.796 345.14,700.876 345.14,700.155 345.14,699.915 
		345.379,697.995 345.379,695.835 345.379,695.595 345.859,686.233 345.859,685.754 345.859,685.273 346.1,681.912 346.1,680.232 
		346.1,679.752 346.58,671.591 346.82,669.191 346.82,666.07 346.82,664.87 346.82,664.63 347.3,658.869 347.3,657.909 
		347.3,656.709 347.3,654.789 347.54,651.188 347.779,649.988 347.779,649.748 347.779,649.508 347.779,649.027 348.02,645.187 
		348.02,642.307 348.5,635.585 348.5,635.105 348.739,631.505 348.739,631.265 348.739,630.785 348.739,630.305 348.739,628.145 
		348.979,626.464 348.979,625.984 348.979,625.744 348.979,625.024 348.979,624.784 349.22,618.783 349.7,611.822 349.7,608.701 
		349.7,608.221 349.939,605.341 350.419,598.38 350.659,590.699 350.899,589.499 350.899,588.058 351.14,582.537 351.14,581.577 
		351.14,581.337 351.379,579.177 351.379,578.697 351.379,577.736 351.379,577.256 351.379,576.536 351.62,575.336 351.62,575.096 
		351.62,573.416 351.62,573.176 351.62,572.696 351.62,571.976 351.62,570.535 351.859,570.055 351.859,568.855 351.859,567.655 
		352.1,565.495 352.1,565.015 352.1,564.774 352.1,564.054 352.1,562.854 352.34,562.374 352.34,562.134 352.34,559.974 
		352.58,559.494 352.58,558.534 352.58,558.293 352.58,557.813 352.58,556.373 352.82,554.693 352.82,553.733 352.82,553.253 
		352.82,552.772 352.82,552.533 353.06,551.092 353.06,550.853 353.06,550.372 353.06,549.892 352.82,548.932 352.82,548.212 
		352.82,547.252 353.06,546.532 353.06,546.052 353.06,545.571 352.58,541.731 352.1,537.89 352.1,537.17 352.1,536.69 
		351.14,529.729 351.14,529.489 350.659,525.168 350.419,523.968 350.419,523.008 350.419,522.768 350.419,522.528 350.179,519.647 
		349.7,516.287 349.7,515.567 349.7,515.087 349.459,514.367 348.979,508.846 348.739,507.406 347.54,497.804 347.54,496.604 
		347.06,493.483 347.06,493.003 346.82,489.643 346.58,488.203 346.58,487.723 346.34,486.762 345.859,482.922 345.859,482.682 
		345.859,482.202 345.859,481.242 345.62,481.001 345.62,480.761 345.379,478.841 345.379,477.401 345.14,476.441 345.14,474.761 
		344.9,474.521 343.939,465.639 343.939,465.159 343.939,464.919 343.939,464.679 343.7,463.959 343.459,460.838 343.459,460.358 
		343.459,460.118 343.22,458.918 343.22,458.678 342.739,455.317 342.5,451.957 342.259,450.517 342.02,449.557 342.02,449.316 
		342.02,449.077 342.02,448.597 341.779,447.156 341.3,443.315 341.3,441.875 340.82,437.795 340.82,437.555 340.34,433.714 
		339.859,429.394 339.62,427.233 339.379,426.993 339.379,425.793 339.14,424.353 339.14,424.113 339.14,423.393 338.9,422.433 
		338.9,421.952 338.9,421.712 338.9,421.232 338.66,420.752 338.66,420.272 338.66,419.792 338.42,418.832 338.18,416.432 
		338.18,415.951 338.18,414.751 337.939,413.551 337.939,413.071 337.939,412.831 337.7,411.871 337.459,410.431 337.459,410.19 
		337.459,408.271 336.979,405.87 336.979,405.39 336.739,403.709 336.739,402.27 336.259,397.229 336.02,395.308 336.02,395.068 
		336.02,394.588 335.54,390.027 335.3,388.347 335.3,387.387 335.06,386.187 335.06,385.947 335.06,385.707 334.82,383.066 
		334.1,376.585 334.1,375.625 333.859,374.425 333.62,372.985 333.379,370.584 336.5,370.825 340.82,370.825 341.54,370.825 	"/>
</g>
</svg>
