<?xml version="1.0" encoding="utf-8"?>
<!-- Generator: Adobe Illustrator 15.1.0, SVG Export Plug-In . SVG Version: 6.00 Build 0)  -->
<!DOCTYPE svg PUBLIC "-//W3C//DTD SVG 1.1//EN" "http://www.w3.org/Graphics/SVG/1.1/DTD/svg11.dtd">
<svg version="1.1" id="State" xmlns="http://www.w3.org/2000/svg" xmlns:xlink="http://www.w3.org/1999/xlink" x="0px" y="0px"
	 width="1296px" height="1296px" viewBox="0 0 1296 1296" enable-background="new 0 0 1296 1296" xml:space="preserve">
<g>
	<defs>
		<rect id="SVGID_1_" x="259.22" y="351.622" width="779.516" height="595.772"/>
	</defs>
	<clipPath id="SVGID_2_">
		<use xlink:href="#SVGID_1_"  overflow="visible"/>
	</clipPath>
	
		<polygon clip-path="url(#SVGID_2_)" fill="none" stroke="#B37C34" stroke-width="0.48" stroke-linecap="round" stroke-linejoin="round" stroke-miterlimit="3.85" points="
		303.14,691.034 303.62,678.552 304.34,663.43 304.82,653.828 304.82,653.348 305.54,643.987 305.78,640.146 306.02,635.346 
		306.26,628.145 306.5,625.744 306.5,625.264 306.979,614.462 306.979,613.502 306.979,612.302 308.42,582.057 308.66,570.055 
		308.9,565.495 309.859,545.091 310.1,534.29 310.82,517.967 311.78,494.684 312.26,480.521 312.26,479.562 312.26,479.321 
		312.5,474.28 313.7,446.196 313.939,439.955 313.939,439.235 314.18,434.194 314.66,424.113 314.9,419.792 315.14,412.111 
		315.62,398.188 316.34,381.386 316.34,376.105 332.18,376.825 341.54,377.065 356.419,377.785 366.5,378.025 368.899,378.025 
		388.1,378.746 389.299,378.746 392.659,378.985 399.379,378.985 408.259,379.226 412.339,379.226 424.099,379.466 424.579,379.466 
		446.179,380.186 452.419,380.186 455.299,380.186 457.459,380.426 462.499,380.426 477.139,380.666 481.939,380.666 
		483.139,380.666 483.379,380.666 489.139,380.906 498.499,381.146 501.139,381.146 512.179,381.146 525.859,381.626 
		529.938,381.626 564.499,382.106 565.699,382.106 565.938,382.106 566.659,382.106 570.258,382.346 570.738,382.346 
		576.979,382.586 587.059,382.826 589.218,382.826 589.458,382.826 601.938,383.066 630.258,383.307 633.378,383.307 
		634.098,383.307 641.538,383.307 650.418,383.307 663.857,383.066 676.818,383.066 678.738,383.066 678.979,383.066 
		686.657,383.066 708.738,382.826 709.218,382.826 717.138,382.826 719.537,382.826 725.058,382.586 734.178,382.346 
		738.258,382.346 741.617,382.346 751.218,382.106 754.098,382.106 762.018,382.106 763.457,382.106 778.338,381.866 
		778.577,381.866 781.457,381.866 786.978,381.626 788.897,381.626 790.577,381.626 792.498,381.626 793.697,381.626 
		795.137,381.626 796.577,381.386 797.058,381.386 797.777,381.386 801.377,381.386 801.617,381.386 803.297,381.386 
		807.857,381.386 808.817,381.386 810.497,381.386 812.418,381.146 821.297,380.906 822.737,380.906 839.537,380.666 
		843.137,380.666 846.737,380.666 847.938,380.426 853.938,380.426 856.337,380.186 857.777,380.186 859.457,380.186 
		859.697,380.186 864.978,380.186 886.816,379.466 887.057,379.466 888.497,379.466 888.736,379.466 890.177,379.466 
		890.656,379.466 894.018,379.226 894.257,379.226 895.938,379.226 896.177,379.226 897.856,379.226 898.097,379.226 
		899.537,379.226 899.777,379.226 901.457,378.985 903.137,378.985 903.377,378.985 905.057,378.985 905.297,378.985 
		906.978,378.985 907.217,378.985 908.656,378.985 908.897,378.985 910.576,378.746 910.816,378.746 915.856,378.746 
		916.576,378.746 917.777,378.506 919.217,378.506 919.457,378.506 927.377,378.266 930.496,378.266 934.576,378.025 
		934.816,378.025 935.777,378.025 936.736,378.025 940.337,377.785 943.217,377.785 944.896,377.785 945.856,377.785 
		952.816,377.545 953.536,377.545 954.977,377.306 961.937,377.065 963.137,377.065 963.856,377.065 964.097,377.065 
		965.057,377.065 967.697,377.065 969.617,376.825 969.856,376.825 971.536,376.825 977.776,376.585 983.057,376.345 
		984.736,376.345 986.177,408.271 986.416,414.751 986.896,429.153 987.137,434.915 987.137,437.075 987.616,447.156 
		987.616,452.677 987.856,453.157 987.856,457.238 987.856,458.438 988.097,458.678 988.097,459.878 988.576,472.84 988.576,473.8 
		988.816,482.202 988.816,483.882 989.297,494.443 989.536,502.125 989.776,505.245 990.256,521.568 990.496,522.288 
		990.496,523.488 990.496,525.408 990.977,535.01 991.217,543.411 991.456,546.292 991.456,547.252 991.456,549.652 
		991.696,553.973 991.937,556.133 991.937,557.093 991.937,560.694 991.937,560.934 992.176,564.774 992.656,575.096 
		992.656,575.816 992.656,577.736 992.896,578.937 992.896,581.577 993.377,590.458 993.856,600.78 994.097,611.342 
		994.336,611.822 994.336,612.062 994.576,622.624 996.017,651.908 996.017,653.828 996.017,655.748 996.256,657.429 
		996.256,659.35 996.496,666.551 996.496,667.751 996.496,667.99 996.496,669.431 996.736,669.431 996.736,670.151 996.977,676.872 
		996.977,681.192 997.217,684.073 997.217,685.993 997.456,688.394 997.456,690.794 997.696,697.275 997.937,701.596 
		997.937,702.076 997.937,705.916 998.416,715.038 998.656,720.559 998.656,721.279 998.656,722.959 999.136,732.32 
		999.377,736.641 999.377,737.602 999.377,738.321 999.377,738.562 999.377,738.802 999.377,739.281 999.377,740.242 
		999.616,748.163 999.616,748.402 999.616,748.644 999.616,749.123 999.856,750.563 1000.336,763.525 1000.336,763.765 
		1000.336,765.206 1000.576,770.967 1000.816,776.487 1001.057,779.128 1001.057,781.048 1001.297,784.648 1001.536,787.289 
		1001.536,789.21 1001.776,794.73 1001.776,796.41 1001.776,797.851 1002.017,799.291 1002.017,803.852 1002.256,807.452 
		1002.256,810.093 1002.256,812.253 1002.496,812.973 1002.496,816.573 1002.736,821.135 1002.977,825.455 1002.977,825.694 
		1002.977,828.815 1003.217,831.216 1003.217,833.136 1003.217,836.017 1003.456,841.298 1003.456,842.738 1003.696,847.778 
		1004.176,862.421 1004.416,864.341 1004.416,864.581 1004.416,866.261 1004.416,866.981 1004.896,875.863 1004.896,876.103 
		1004.896,876.343 1004.896,877.303 1004.896,881.144 1003.696,881.144 990.736,881.623 988.097,881.864 983.776,881.864 
		982.816,881.864 981.856,881.864 978.256,882.104 973.217,882.104 956.177,882.823 938.656,883.304 934.337,883.064 
		932.417,882.823 930.496,883.064 927.617,883.064 926.897,882.823 924.257,883.064 910.337,883.544 909.617,883.544 
		909.377,883.784 907.938,883.544 899.537,883.784 897.617,883.784 896.656,883.784 892.337,884.023 888.018,884.023 
		881.537,884.265 875.057,884.504 865.217,884.744 857.537,884.984 834.018,885.465 806.418,886.185 785.297,886.665 
		781.697,886.904 777.138,886.904 775.938,886.904 772.817,887.145 771.377,887.145 771.138,887.145 770.178,887.145 
		766.817,887.145 765.377,887.145 763.698,887.145 758.897,887.145 758.657,887.145 756.258,887.145 754.577,887.145 
		744.018,887.385 741.857,887.385 735.857,887.385 733.218,887.385 722.178,887.624 706.098,887.624 702.979,887.864 
		693.857,887.385 692.178,887.385 690.258,887.624 683.777,887.624 680.658,887.624 663.618,887.624 661.698,887.385 
		661.219,887.385 660.738,887.385 659.058,887.385 658.338,887.385 654.498,887.624 654.258,887.624 653.298,887.624 
		652.098,887.624 642.498,887.624 638.898,887.385 633.618,887.385 633.378,887.385 605.298,887.385 604.338,887.385 
		594.979,887.385 588.499,887.385 584.658,887.385 579.858,887.385 575.298,887.385 572.179,887.385 570.499,887.385 
		570.258,887.385 563.298,887.385 556.818,887.145 554.418,887.145 542.659,887.145 541.458,887.145 538.099,887.145 
		536.659,887.145 528.979,887.145 525.859,887.145 516.979,886.904 516.259,885.944 512.179,885.944 508.339,885.704 
		505.459,885.704 500.179,885.704 492.979,885.465 483.859,885.465 478.099,885.224 461.299,884.984 459.139,884.984 
		455.299,884.744 450.979,884.744 450.739,884.744 443.059,884.504 442.819,884.504 431.779,884.265 425.059,884.023 
		417.379,884.023 416.419,883.784 415.939,883.784 411.619,883.784 404.419,883.544 402.739,883.544 399.379,883.544 
		397.939,883.304 384.739,883.064 384.02,883.064 377.539,882.823 373.7,882.823 370.339,882.584 364.58,882.344 356.419,882.104 
		348.739,881.864 340.1,881.623 337.459,881.623 327.14,881.144 306.5,880.423 306.02,880.423 301.22,880.184 297.14,880.184 
		297.38,877.543 297.38,877.063 297.62,870.822 297.62,870.582 297.62,869.142 297.62,867.941 297.86,866.261 297.86,865.781 
		298.1,857.62 298.1,854.499 298.1,854.26 298.34,853.539 298.34,849.698 298.34,848.498 298.82,839.617 298.82,838.897 
		299.06,834.576 299.06,832.656 299.78,820.894 299.78,819.935 299.78,818.974 299.78,818.734 300.02,817.054 300.26,813.213 
		300.5,803.852 300.5,802.172 300.5,801.451 300.74,796.17 300.979,790.41 300.979,790.169 301.22,786.81 301.22,786.329 
		301.22,785.609 301.22,785.129 301.459,782.969 301.459,779.368 301.7,774.807 301.7,774.087 301.939,770.006 301.939,769.047 
		302.18,765.686 302.18,757.284 302.42,754.404 302.42,754.164 302.9,740.242 303.14,737.602 303.14,734.721 303.379,733.281 
		302.42,723.199 301.939,719.358 302.66,702.076 	"/>
</g>
</svg>
