  0
SECTION
  2
HEADER
  9
$ACADVER
  1
AC1014
  9
$ACADMAINTVER
 70
     9
  9
$DWGCODEPAGE
  3
ANSI_1252
  9
$INSBASE
 10
0.0
 20
0.0
 30
0.0
  9
$EXTMIN
 10
1.000000000000000E+20
 20
1.000000000000000E+20
 30
1.000000000000000E+20
  9
$EXTMAX
 10
-1.000000000000000E+20
 20
-1.000000000000000E+20
 30
-1.000000000000000E+20
  9
$LIMMIN
 10
0.0
 20
0.0
  9
$LIMMAX
 10
12.0
 20
9.0
  9
$ORTHOMODE
 70
     0
  9
$REGENMODE
 70
     1
  9
$FILLMODE
 70
     1
  9
$QTEXTMODE
 70
     0
  9
$MIRRTEXT
 70
     1
  9
$DRAGMODE
 70
     2
  9
$LTSCALE
 40
1.0
  9
$OSMODE
 70
    37
  9
$ATTMODE
 70
     1
  9
$TEXTSIZE
 40
0.2
  9
$TRACEWID
 40
0.05
  9
$TEXTSTYLE
  7
STANDARD
  9
$CLAYER
  8
0
  9
$CELTYPE
  6
BYLAYER
  9
$CECOLOR
 62
   256
  9
$CELTSCALE
 40
1.0
  9
$DELOBJ
 70
     1
  9
$DISPSILH
 70
     0
  9
$DIMSCALE
 40
1.0
  9
$DIMASZ
 40
0.18
  9
$DIMEXO
 40
0.0625
  9
$DIMDLI
 40
0.38
  9
$DIMRND
 40
0.0
  9
$DIMDLE
 40
0.0
  9
$DIMEXE
 40
0.18
  9
$DIMTP
 40
0.0
  9
$DIMTM
 40
0.0
  9
$DIMTXT
 40
0.18
  9
$DIMCEN
 40
0.09
  9
$DIMTSZ
 40
0.0
  9
$DIMTOL
 70
     0
  9
$DIMLIM
 70
     0
  9
$DIMTIH
 70
     1
  9
$DIMTOH
 70
     1
  9
$DIMSE1
 70
     0
  9
$DIMSE2
 70
     0
  9
$DIMTAD
 70
     0
  9
$DIMZIN
 70
     0
  9
$DIMBLK
  1

  9
$DIMASO
 70
     1
  9
$DIMSHO
 70
     1
  9
$DIMPOST
  1

  9
$DIMAPOST
  1

  9
$DIMALT
 70
     0
  9
$DIMALTD
 70
     2
  9
$DIMALTF
 40
25.4
  9
$DIMLFAC
 40
1.0
  9
$DIMTOFL
 70
     0
  9
$DIMTVP
 40
0.0
  9
$DIMTIX
 70
     0
  9
$DIMSOXD
 70
     0
  9
$DIMSAH
 70
     0
  9
$DIMBLK1
  1

  9
$DIMBLK2
  1

  9
$DIMSTYLE
  2
STANDARD
  9
$DIMCLRD
 70
     0
  9
$DIMCLRE
 70
     0
  9
$DIMCLRT
 70
     0
  9
$DIMTFAC
 40
1.0
  9
$DIMGAP
 40
0.09
  9
$DIMJUST
 70
     0
  9
$DIMSD1
 70
     0
  9
$DIMSD2
 70
     0
  9
$DIMTOLJ
 70
     1
  9
$DIMTZIN
 70
     0
  9
$DIMALTZ
 70
     0
  9
$DIMALTTZ
 70
     0
  9
$DIMFIT
 70
     3
  9
$DIMUPT
 70
     0
  9
$DIMUNIT
 70
     2
  9
$DIMDEC
 70
     4
  9
$DIMTDEC
 70
     4
  9
$DIMALTU
 70
     2
  9
$DIMALTTD
 70
     2
  9
$DIMTXSTY
  7
STANDARD
  9
$DIMAUNIT
 70
     0
  9
$LUNITS
 70
     2
  9
$LUPREC
 70
     4
  9
$SKETCHINC
 40
0.1
  9
$FILLETRAD
 40
0.5
  9
$AUNITS
 70
     0
  9
$AUPREC
 70
     0
  9
$MENU
  1
.
  9
$ELEVATION
 40
0.0
  9
$PELEVATION
 40
0.0
  9
$THICKNESS
 40
0.0
  9
$LIMCHECK
 70
     0
  9
$CHAMFERA
 40
0.5
  9
$CHAMFERB
 40
0.5
  9
$CHAMFERC
 40
1.0
  9
$CHAMFERD
 40
0.0
  9
$SKPOLY
 70
     0
  9
$TDCREATE
 40
2457216.863437141
  9
$TDUPDATE
 40
2457216.863437153
  9
$TDINDWG
 40
0.0000000116
  9
$TDUSRTIMER
 40
0.0000000116
  9
$USRTIMER
 70
     1
  9
$ANGBASE
 50
0.0
  9
$ANGDIR
 70
     0
  9
$PDMODE
 70
     0
  9
$PDSIZE
 40
0.0
  9
$PLINEWID
 40
0.0
  9
$COORDS
 70
     1
  9
$SPLFRAME
 70
     0
  9
$SPLINETYPE
 70
     6
  9
$SPLINESEGS
 70
     8
  9
$ATTDIA
 70
     0
  9
$ATTREQ
 70
     1
  9
$HANDLING
 70
     1
  9
$HANDSEED
  5
30E
  9
$SURFTAB1
 70
     6
  9
$SURFTAB2
 70
     6
  9
$SURFTYPE
 70
     6
  9
$SURFU
 70
     6
  9
$SURFV
 70
     6
  9
$UCSNAME
  2

  9
$UCSORG
 10
0.0
 20
0.0
 30
0.0
  9
$UCSXDIR
 10
1.0
 20
0.0
 30
0.0
  9
$UCSYDIR
 10
0.0
 20
1.0
 30
0.0
  9
$PUCSNAME
  2

  9
$PUCSORG
 10
0.0
 20
0.0
 30
0.0
  9
$PUCSXDIR
 10
1.0
 20
0.0
 30
0.0
  9
$PUCSYDIR
 10
0.0
 20
1.0
 30
0.0
  9
$USERI1
 70
     0
  9
$USERI2
 70
     0
  9
$USERI3
 70
     0
  9
$USERI4
 70
     0
  9
$USERI5
 70
     0
  9
$USERR1
 40
0.0
  9
$USERR2
 40
0.0
  9
$USERR3
 40
0.0
  9
$USERR4
 40
0.0
  9
$USERR5
 40
0.0
  9
$WORLDVIEW
 70
     1
  9
$SHADEDGE
 70
     3
  9
$SHADEDIF
 70
    70
  9
$TILEMODE
 70
     1
  9
$MAXACTVP
 70
    64
  9
$PINSBASE
 10
0.0
 20
0.0
 30
0.0
  9
$PLIMCHECK
 70
     0
  9
$PEXTMIN
 10
1.000000000000000E+20
 20
1.000000000000000E+20
 30
1.000000000000000E+20
  9
$PEXTMAX
 10
-1.000000000000000E+20
 20
-1.000000000000000E+20
 30
-1.000000000000000E+20
  9
$PLIMMIN
 10
0.0
 20
0.0
  9
$PLIMMAX
 10
12.0
 20
9.0
  9
$UNITMODE
 70
     0
  9
$VISRETAIN
 70
     1
  9
$PLINEGEN
 70
     0
  9
$PSLTSCALE
 70
     1
  9
$TREEDEPTH
 70
  3020
  9
$PICKSTYLE
 70
     1
  9
$CMLSTYLE
  2
STANDARD
  9
$CMLJUST
 70
     0
  9
$CMLSCALE
 40
1.0
  9
$PROXYGRAPHICS
 70
     1
  9
$MEASUREMENT
 70
     0
  0
ENDSEC
  0
SECTION
  2
CLASSES
  0
CLASS
  1
ACDBDICTIONARYWDFLT
  2
AcDbDictionaryWithDefault
  3
ObjectDBX Classes
 90
        0
280
     0
281
     0
  0
CLASS
  1
VISUALSTYLE
  2
AcDbVisualStyle
  3
ObjectDBX Classes
 90
     4095
280
     0
281
     0
  0
CLASS
  1
XRECORD
  2
AcDbXrecord
  3
AutoCAD 2000
 90
        0
280
     0
281
     0
  0
CLASS
  1
LWPOLYLINE
  2
AcDbPolyline
  3
AutoCAD 2000
 90
        0
280
     0
281
     1
  0
CLASS
  1
HATCH
  2
AcDbHatch
  3
AutoCAD 2000
 90
        0
280
     0
281
     1
  0
CLASS
  1
ACDBPLACEHOLDER
  2
AcDbPlaceHolder
  3
ObjectDBX Classes
 90
        0
280
     0
281
     0
  0
CLASS
  1
LAYOUT
  2
AcDbLayout
  3
ObjectDBX Classes
 90
        0
280
     0
281
     0
  0
ENDSEC
  0
SECTION
  2
TABLES
  0
TABLE
  2
VPORT
  5
8
330
0
100
AcDbSymbolTable
 70
     1
  0
VPORT
  5
29
330
8
100
AcDbSymbolTableRecord
100
AcDbViewportTableRecord
  2
*ACTIVE
 70
     0
 10
0.0
 20
0.0
 11
1.0
 21
1.0
 12
0.0
 22
0.0
 13
0.0
 23
0.0
 14
0.5
 24
0.5
 15
0.5
 25
0.5
 16
0.0
 26
0.0
 36
1.0
 17
5.493055555555555
 27
4.256944444444444
 37
0.0
 40
18.0
 41
1.0
 42
50.0
 43
0.0
 44
0.0
 50
0.0
 51
0.0
 71
     0
 72
   100
 73
     1
 74
     3
 75
     0
 76
     0
 77
     0
 78
     0
  0
ENDTAB
  0
TABLE
  2
LTYPE
  5
5
330
0
100
AcDbSymbolTable
 70
     1
  0
LTYPE
  5
14
330
5
100
AcDbSymbolTableRecord
100
AcDbLinetypeTableRecord
  2
BYBLOCK
 70
     0
  3

 72
    65
 73
     0
 40
0.0
  0
LTYPE
  5
15
330
5
100
AcDbSymbolTableRecord
100
AcDbLinetypeTableRecord
  2
BYLAYER
 70
     0
  3

 72
    65
 73
     0
 40
0.0
  0
LTYPE
  5
16
330
5
100
AcDbSymbolTableRecord
100
AcDbLinetypeTableRecord
  2
CONTINUOUS
 70
     0
  3
Solid line
 72
    65
 73
     0
 40
0.0
  0
ENDTAB
  0
TABLE
  2
LAYER
  5
2
330
0
100
AcDbSymbolTable
 70
     2
  0
LAYER
  5
10
330
2
100
AcDbSymbolTableRecord
100
AcDbLayerTableRecord
  2
0
 70
     0
 62
     7
  6
CONTINUOUS
  0
LAYER
  5
3B
330
2
100
AcDbSymbolTableRecord
100
AcDbLayerTableRecord
  2
STATE
 70
     0
 62
     7
  6
CONTINUOUS
  0
ENDTAB
  0
TABLE
  2
STYLE
  5
3
330
0
100
AcDbSymbolTable
 70
     1
  0
STYLE
  5
11
330
3
100
AcDbSymbolTableRecord
100
AcDbTextStyleTableRecord
  2
STANDARD
 70
     0
 40
0.0
 41
1.0
 50
0.0
 71
     0
 42
0.2
  3
txt
  4

  0
ENDTAB
  0
TABLE
  2
VIEW
  5
6
330
0
100
AcDbSymbolTable
 70
     0
  0
ENDTAB
  0
TABLE
  2
UCS
  5
7
330
0
100
AcDbSymbolTable
 70
     0
  0
ENDTAB
  0
TABLE
  2
APPID
  5
9
330
0
100
AcDbSymbolTable
 70
     1
  0
APPID
  5
12
330
9
100
AcDbSymbolTableRecord
100
AcDbRegAppTableRecord
  2
ACAD
 70
     0
  0
ENDTAB
  0
TABLE
  2
DIMSTYLE
  5
A
330
0
100
AcDbSymbolTable
 70
     1
  0
DIMSTYLE
105
27
330
A
100
AcDbSymbolTableRecord
100
AcDbDimStyleTableRecord
  2
STANDARD
 70
     0
  3

  4

  5

  6

  7

 40
1.0
 41
0.18
 42
0.0625
 43
0.38
 44
0.18
 45
0.0
 46
0.0
 47
0.0
 48
0.0
140
0.18
141
0.09
142
0.0
143
25.4
144
1.0
145
0.0
146
1.0
147
0.09
 71
     0
 72
     0
 73
     1
 74
     1
 75
     0
 76
     0
 77
     0
 78
     0
170
     0
171
     2
172
     0
173
     0
174
     0
175
     0
176
     0
177
     0
178
     0
270
     2
271
     4
272
     4
273
     2
274
     2
340
11
275
     0
280
     0
281
     0
282
     0
283
     1
284
     0
285
     0
286
     0
287
     3
288
     0
  0
ENDTAB
  0
TABLE
  2
BLOCK_RECORD
  5
1
330
0
100
AcDbSymbolTable
 70
     2
  0
BLOCK_RECORD
  5
1F
330
1
100
AcDbSymbolTableRecord
100
AcDbBlockTableRecord
  2
*MODEL_SPACE
  0
BLOCK_RECORD
  5
1B
330
1
100
AcDbSymbolTableRecord
100
AcDbBlockTableRecord
  2
*PAPER_SPACE
  0
BLOCK_RECORD
  5
3C
330
1
100
AcDbSymbolTableRecord
100
AcDbBlockTableRecord
  2
BLOCK_2
  0
ENDTAB
  0
ENDSEC
  0
SECTION
  2
BLOCKS
  0
BLOCK
  5
20
330
1F
100
AcDbEntity
  8
0
100
AcDbBlockBegin
  2
*MODEL_SPACE
 70
     0
 71
     0
 10
0.0
 20
0.0
 30
0.0
  3
*MODEL_SPACE
  1

  0
ENDBLK
  5
21
330
1F
100
AcDbEntity
  8
0
100
AcDbBlockEnd
  0
BLOCK
  5
1C
330
1B
100
AcDbEntity
 67
     1
  8
0
100
AcDbBlockBegin
  2
*PAPER_SPACE
 70
     0
 71
     0
 10
0.0
 20
0.0
 30
0.0
  3
*PAPER_SPACE
  1

  0
ENDBLK
  5
1D
330
1B
100
AcDbEntity
 67
     1
  8
0
100
AcDbBlockEnd
  0
BLOCK
  5
3E
330
3C
100
AcDbEntity
  8
0
100
AcDbBlockBegin
  2
BLOCK_2
 70
     0
 71
     0
 10
0.0
 20
0.0
 30
0.0
  3
BLOCK_2
  1

  0
POLYLINE
  5
40
330
3C
100
AcDbEntity
  8
STATE
 62
     2
100
AcDb2dPolyline
 66
     1
 10
0.0
 20
0.0
 30
0.0
  0
VERTEX
  5
41
330
40
100
AcDbEntity
  8
STATE
 62
     2
100
AcDbVertex
100
AcDb2dVertex
 10
1.506659613715278
 20
5.35284423828125
 30
0.0
  0
VERTEX
  5
42
330
40
100
AcDbEntity
  8
STATE
 62
     2
100
AcDbVertex
100
AcDb2dVertex
 10
1.506659613715278
 20
5.372850206163194
 30
0.0
  0
VERTEX
  5
43
330
40
100
AcDbEntity
  8
STATE
 62
     2
100
AcDbVertex
100
AcDb2dVertex
 10
1.513326009114583
 20
5.459526909722222
 30
0.0
  0
VERTEX
  5
44
330
40
100
AcDbEntity
  8
STATE
 62
     2
100
AcDbVertex
100
AcDb2dVertex
 10
1.513326009114583
 20
5.469529893663194
 30
0.0
  0
VERTEX
  5
45
330
40
100
AcDbEntity
  8
STATE
 62
     2
100
AcDbVertex
100
AcDb2dVertex
 10
1.51666259765625
 20
5.486199273003472
 30
0.0
  0
VERTEX
  5
46
330
40
100
AcDbEntity
  8
STATE
 62
     2
100
AcDbVertex
100
AcDb2dVertex
 10
1.51666259765625
 20
5.50286865234375
 30
0.0
  0
VERTEX
  5
47
330
40
100
AcDbEntity
  8
STATE
 62
     2
100
AcDbVertex
100
AcDb2dVertex
 10
1.536655002170139
 20
5.732903374565972
 30
0.0
  0
VERTEX
  5
48
330
40
100
AcDbEntity
  8
STATE
 62
     2
100
AcDbVertex
100
AcDb2dVertex
 10
1.543328179253472
 20
5.822916666666666
 30
0.0
  0
VERTEX
  5
49
330
40
100
AcDbEntity
  8
STATE
 62
     2
100
AcDbVertex
100
AcDb2dVertex
 10
1.556660970052083
 20
5.992947048611111
 30
0.0
  0
VERTEX
  5
4A
330
40
100
AcDbEntity
  8
STATE
 62
     2
100
AcDbVertex
100
AcDb2dVertex
 10
1.573323567708333
 20
6.156304253472222
 30
0.0
  0
VERTEX
  5
4B
330
40
100
AcDbEntity
  8
STATE
 62
     2
100
AcDbVertex
100
AcDb2dVertex
 10
1.573323567708333
 20
6.159634060329861
 30
0.0
  0
VERTEX
  5
4C
330
40
100
AcDbEntity
  8
STATE
 62
     2
100
AcDbVertex
100
AcDb2dVertex
 10
1.586656358506944
 20
6.336330837673611
 30
0.0
  0
VERTEX
  5
4D
330
40
100
AcDbEntity
  8
STATE
 62
     2
100
AcDbVertex
100
AcDb2dVertex
 10
1.589992947048611
 20
6.336330837673611
 30
0.0
  0
VERTEX
  5
4E
330
40
100
AcDbEntity
  8
STATE
 62
     2
100
AcDbVertex
100
AcDb2dVertex
 10
1.593329535590278
 20
6.383002387152778
 30
0.0
  0
VERTEX
  5
4F
330
40
100
AcDbEntity
  8
STATE
 62
     2
100
AcDbVertex
100
AcDb2dVertex
 10
1.593329535590278
 20
6.386338975694444
 30
0.0
  0
VERTEX
  5
50
330
40
100
AcDbEntity
  8
STATE
 62
     2
100
AcDbVertex
100
AcDb2dVertex
 10
1.599995930989583
 20
6.439683702256944
 30
0.0
  0
VERTEX
  5
51
330
40
100
AcDbEntity
  8
STATE
 62
     2
100
AcDbVertex
100
AcDb2dVertex
 10
1.599995930989583
 20
6.456353081597221
 30
0.0
  0
VERTEX
  5
52
330
40
100
AcDbEntity
  8
STATE
 62
     2
100
AcDbVertex
100
AcDb2dVertex
 10
1.606655544704861
 20
6.509691026475694
 30
0.0
  0
VERTEX
  5
53
330
40
100
AcDbEntity
  8
STATE
 62
     2
100
AcDbVertex
100
AcDb2dVertex
 10
1.616658528645833
 20
6.659715440538194
 30
0.0
  0
VERTEX
  5
54
330
40
100
AcDbEntity
  8
STATE
 62
     2
100
AcDbVertex
100
AcDb2dVertex
 10
1.616658528645833
 20
6.663045247395833
 30
0.0
  0
VERTEX
  5
55
330
40
100
AcDbEntity
  8
STATE
 62
     2
100
AcDbVertex
100
AcDb2dVertex
 10
1.619988335503472
 20
6.686387803819444
 30
0.0
  0
VERTEX
  5
56
330
40
100
AcDbEntity
  8
STATE
 62
     2
100
AcDbVertex
100
AcDb2dVertex
 10
1.633327907986111
 20
6.823072645399305
 30
0.0
  0
VERTEX
  5
57
330
40
100
AcDbEntity
  8
STATE
 62
     2
100
AcDbVertex
100
AcDb2dVertex
 10
1.633327907986111
 20
6.836405436197916
 30
0.0
  0
VERTEX
  5
58
330
40
100
AcDbEntity
  8
STATE
 62
     2
100
AcDbVertex
100
AcDb2dVertex
 10
1.633327907986111
 20
6.849745008680555
 30
0.0
  0
VERTEX
  5
59
330
40
100
AcDbEntity
  8
STATE
 62
     2
100
AcDbVertex
100
AcDb2dVertex
 10
1.653327094184028
 20
7.0631103515625
 30
0.0
  0
VERTEX
  5
5A
330
40
100
AcDbEntity
  8
STATE
 62
     2
100
AcDbVertex
100
AcDb2dVertex
 10
1.663323296440972
 20
7.316480848524305
 30
0.0
  0
VERTEX
  5
5B
330
40
100
AcDbEntity
  8
STATE
 62
     2
100
AcDbVertex
100
AcDb2dVertex
 10
1.923319498697917
 20
7.323147243923611
 30
0.0
  0
VERTEX
  5
5C
330
40
100
AcDbEntity
  8
STATE
 62
     2
100
AcDbVertex
100
AcDb2dVertex
 10
1.926656087239583
 20
7.323147243923611
 30
0.0
  0
VERTEX
  5
5D
330
40
100
AcDbEntity
  8
STATE
 62
     2
100
AcDbVertex
100
AcDb2dVertex
 10
1.943325466579861
 20
7.323147243923611
 30
0.0
  0
VERTEX
  5
5E
330
40
100
AcDbEntity
  8
STATE
 62
     2
100
AcDbVertex
100
AcDb2dVertex
 10
1.966661241319444
 20
7.319817437065971
 30
0.0
  0
VERTEX
  5
5F
330
40
100
AcDbEntity
  8
STATE
 62
     2
100
AcDbVertex
100
AcDb2dVertex
 10
1.976657443576389
 20
7.319817437065971
 30
0.0
  0
VERTEX
  5
60
330
40
100
AcDbEntity
  8
STATE
 62
     2
100
AcDbVertex
100
AcDb2dVertex
 10
2.249993218315972
 20
7.313151041666666
 30
0.0
  0
VERTEX
  5
61
330
40
100
AcDbEntity
  8
STATE
 62
     2
100
AcDbVertex
100
AcDb2dVertex
 10
2.416653103298611
 20
7.309814453125
 30
0.0
  0
VERTEX
  5
62
330
40
100
AcDbEntity
  8
STATE
 62
     2
100
AcDbVertex
100
AcDb2dVertex
 10
2.483323838975694
 20
7.306477864583333
 30
0.0
  0
VERTEX
  5
63
330
40
100
AcDbEntity
  8
STATE
 62
     2
100
AcDbVertex
100
AcDb2dVertex
 10
2.493320041232639
 20
7.306477864583333
 30
0.0
  0
VERTEX
  5
64
330
40
100
AcDbEntity
  8
STATE
 62
     2
100
AcDbVertex
100
AcDb2dVertex
 10
2.643324110243055
 20
7.303148057725694
 30
0.0
  0
VERTEX
  5
65
330
40
100
AcDbEntity
  8
STATE
 62
     2
100
AcDbVertex
100
AcDb2dVertex
 10
2.6533203125
 20
7.303148057725694
 30
0.0
  0
VERTEX
  5
66
330
40
100
AcDbEntity
  8
STATE
 62
     2
100
AcDbVertex
100
AcDb2dVertex
 10
2.659986707899305
 20
7.303148057725694
 30
0.0
  0
VERTEX
  5
67
330
40
100
AcDbEntity
  8
STATE
 62
     2
100
AcDbVertex
100
AcDb2dVertex
 10
2.966654459635417
 20
7.293145073784721
 30
0.0
  0
VERTEX
  5
68
330
40
100
AcDbEntity
  8
STATE
 62
     2
100
AcDbVertex
100
AcDb2dVertex
 10
2.969984266493055
 20
7.293145073784721
 30
0.0
  0
VERTEX
  5
69
330
40
100
AcDbEntity
  8
STATE
 62
     2
100
AcDbVertex
100
AcDb2dVertex
 10
2.979987250434028
 20
7.293145073784721
 30
0.0
  0
VERTEX
  5
6A
330
40
100
AcDbEntity
  8
STATE
 62
     2
100
AcDbVertex
100
AcDb2dVertex
 10
2.986653645833333
 20
7.293145073784721
 30
0.0
  0
VERTEX
  5
6B
330
40
100
AcDbEntity
  8
STATE
 62
     2
100
AcDbVertex
100
AcDb2dVertex
 10
3.279981825086805
 20
7.28314208984375
 30
0.0
  0
VERTEX
  5
6C
330
40
100
AcDbEntity
  8
STATE
 62
     2
100
AcDbVertex
100
AcDb2dVertex
 10
3.513319227430555
 20
7.276475694444444
 30
0.0
  0
VERTEX
  5
6D
330
40
100
AcDbEntity
  8
STATE
 62
     2
100
AcDbVertex
100
AcDb2dVertex
 10
3.893317328559028
 20
7.266472710503471
 30
0.0
  0
VERTEX
  5
6E
330
40
100
AcDbEntity
  8
STATE
 62
     2
100
AcDbVertex
100
AcDb2dVertex
 10
4.119981553819445
 20
7.263142903645833
 30
0.0
  0
VERTEX
  5
6F
330
40
100
AcDbEntity
  8
STATE
 62
     2
100
AcDbVertex
100
AcDb2dVertex
 10
4.123311360677083
 20
7.263142903645833
 30
0.0
  0
VERTEX
  5
70
330
40
100
AcDbEntity
  8
STATE
 62
     2
100
AcDbVertex
100
AcDb2dVertex
 10
4.166646321614583
 20
7.259806315104166
 30
0.0
  0
VERTEX
  5
71
330
40
100
AcDbEntity
  8
STATE
 62
     2
100
AcDbVertex
100
AcDb2dVertex
 10
4.243313259548611
 20
7.259806315104166
 30
0.0
  0
VERTEX
  5
72
330
40
100
AcDbEntity
  8
STATE
 62
     2
100
AcDbVertex
100
AcDb2dVertex
 10
4.2733154296875
 20
7.259806315104166
 30
0.0
  0
VERTEX
  5
73
330
40
100
AcDbEntity
  8
STATE
 62
     2
100
AcDbVertex
100
AcDb2dVertex
 10
4.396647135416666
 20
7.259806315104166
 30
0.0
  0
VERTEX
  5
74
330
40
100
AcDbEntity
  8
STATE
 62
     2
100
AcDbVertex
100
AcDb2dVertex
 10
4.556647406684028
 20
7.256476508246528
 30
0.0
  0
VERTEX
  5
75
330
40
100
AcDbEntity
  8
STATE
 62
     2
100
AcDbVertex
100
AcDb2dVertex
 10
4.863308376736111
 20
7.256476508246528
 30
0.0
  0
VERTEX
  5
76
330
40
100
AcDbEntity
  8
STATE
 62
     2
100
AcDbVertex
100
AcDb2dVertex
 10
4.866644965277778
 20
7.256476508246528
 30
0.0
  0
VERTEX
  5
77
330
40
100
AcDbEntity
  8
STATE
 62
     2
100
AcDbVertex
100
AcDb2dVertex
 10
4.949978298611111
 20
7.253139919704861
 30
0.0
  0
VERTEX
  5
78
330
40
100
AcDbEntity
  8
STATE
 62
     2
100
AcDbVertex
100
AcDb2dVertex
 10
5.003309461805555
 20
7.249803331163194
 30
0.0
  0
VERTEX
  5
79
330
40
100
AcDbEntity
  8
STATE
 62
     2
100
AcDbVertex
100
AcDb2dVertex
 10
5.013312445746528
 20
7.249803331163194
 30
0.0
  0
VERTEX
  5
7A
330
40
100
AcDbEntity
  8
STATE
 62
     2
100
AcDbVertex
100
AcDb2dVertex
 10
5.123311360677083
 20
7.249803331163194
 30
0.0
  0
VERTEX
  5
7B
330
40
100
AcDbEntity
  8
STATE
 62
     2
100
AcDbVertex
100
AcDb2dVertex
 10
5.106641981336805
 20
7.049777560763888
 30
0.0
  0
VERTEX
  5
7C
330
40
100
AcDbEntity
  8
STATE
 62
     2
100
AcDbVertex
100
AcDb2dVertex
 10
5.219977484809028
 20
7.0631103515625
 30
0.0
  0
VERTEX
  5
7D
330
40
100
AcDbEntity
  8
STATE
 62
     2
100
AcDbVertex
100
AcDb2dVertex
 10
5.273308648003472
 20
7.066446940104166
 30
0.0
  0
VERTEX
  5
7E
330
40
100
AcDbEntity
  8
STATE
 62
     2
100
AcDbVertex
100
AcDb2dVertex
 10
5.319973415798611
 20
7.073113335503471
 30
0.0
  0
VERTEX
  5
7F
330
40
100
AcDbEntity
  8
STATE
 62
     2
100
AcDbVertex
100
AcDb2dVertex
 10
5.343309190538194
 20
7.076443142361111
 30
0.0
  0
VERTEX
  5
80
330
40
100
AcDbEntity
  8
STATE
 62
     2
100
AcDbVertex
100
AcDb2dVertex
 10
5.363308376736111
 20
7.076443142361111
 30
0.0
  0
VERTEX
  5
81
330
40
100
AcDbEntity
  8
STATE
 62
     2
100
AcDbVertex
100
AcDb2dVertex
 10
5.36663818359375
 20
7.099785698784721
 30
0.0
  0
VERTEX
  5
82
330
40
100
AcDbEntity
  8
STATE
 62
     2
100
AcDbVertex
100
AcDb2dVertex
 10
5.36663818359375
 20
7.103115505642361
 30
0.0
  0
VERTEX
  5
83
330
40
100
AcDbEntity
  8
STATE
 62
     2
100
AcDbVertex
100
AcDb2dVertex
 10
5.379977756076388
 20
7.113118489583333
 30
0.0
  0
VERTEX
  5
84
330
40
100
AcDbEntity
  8
STATE
 62
     2
100
AcDbVertex
100
AcDb2dVertex
 10
5.379977756076388
 20
7.126451280381944
 30
0.0
  0
VERTEX
  5
85
330
40
100
AcDbEntity
  8
STATE
 62
     2
100
AcDbVertex
100
AcDb2dVertex
 10
5.389973958333333
 20
7.136454264322916
 30
0.0
  0
VERTEX
  5
86
330
40
100
AcDbEntity
  8
STATE
 62
     2
100
AcDbVertex
100
AcDb2dVertex
 10
5.399976942274305
 20
7.149793836805555
 30
0.0
  0
VERTEX
  5
87
330
40
100
AcDbEntity
  8
STATE
 62
     2
100
AcDbVertex
100
AcDb2dVertex
 10
5.389973958333333
 20
7.156460232204861
 30
0.0
  0
VERTEX
  5
88
330
40
100
AcDbEntity
  8
STATE
 62
     2
100
AcDbVertex
100
AcDb2dVertex
 10
5.386644151475694
 20
7.1597900390625
 30
0.0
  0
VERTEX
  5
89
330
40
100
AcDbEntity
  8
STATE
 62
     2
100
AcDbVertex
100
AcDb2dVertex
 10
5.386644151475694
 20
7.163126627604166
 30
0.0
  0
VERTEX
  5
8A
330
40
100
AcDbEntity
  8
STATE
 62
     2
100
AcDbVertex
100
AcDb2dVertex
 10
5.386644151475694
 20
7.173129611545138
 30
0.0
  0
VERTEX
  5
8B
330
40
100
AcDbEntity
  8
STATE
 62
     2
100
AcDbVertex
100
AcDb2dVertex
 10
5.393310546875
 20
7.173129611545138
 30
0.0
  0
VERTEX
  5
8C
330
40
100
AcDbEntity
  8
STATE
 62
     2
100
AcDbVertex
100
AcDb2dVertex
 10
5.406643337673611
 20
7.169793023003471
 30
0.0
  0
VERTEX
  5
8D
330
40
100
AcDbEntity
  8
STATE
 62
     2
100
AcDbVertex
100
AcDb2dVertex
 10
5.40997314453125
 20
7.169793023003471
 30
0.0
  0
VERTEX
  5
8E
330
40
100
AcDbEntity
  8
STATE
 62
     2
100
AcDbVertex
100
AcDb2dVertex
 10
5.426642523871528
 20
7.193128797743055
 30
0.0
  0
VERTEX
  5
8F
330
40
100
AcDbEntity
  8
STATE
 62
     2
100
AcDbVertex
100
AcDb2dVertex
 10
5.439975314670138
 20
7.216464572482638
 30
0.0
  0
VERTEX
  5
90
330
40
100
AcDbEntity
  8
STATE
 62
     2
100
AcDbVertex
100
AcDb2dVertex
 10
5.429972330729166
 20
7.226467556423611
 30
0.0
  0
VERTEX
  5
91
330
40
100
AcDbEntity
  8
STATE
 62
     2
100
AcDbVertex
100
AcDb2dVertex
 10
5.40997314453125
 20
7.233133951822916
 30
0.0
  0
VERTEX
  5
92
330
40
100
AcDbEntity
  8
STATE
 62
     2
100
AcDbVertex
100
AcDb2dVertex
 10
5.419976128472222
 20
7.246473524305555
 30
0.0
  0
VERTEX
  5
93
330
40
100
AcDbEntity
  8
STATE
 62
     2
100
AcDbVertex
100
AcDb2dVertex
 10
5.439975314670138
 20
7.249803331163194
 30
0.0
  0
VERTEX
  5
94
330
40
100
AcDbEntity
  8
STATE
 62
     2
100
AcDbVertex
100
AcDb2dVertex
 10
5.606635199652778
 20
7.249803331163194
 30
0.0
  0
VERTEX
  5
95
330
40
100
AcDbEntity
  8
STATE
 62
     2
100
AcDbVertex
100
AcDb2dVertex
 10
5.629964192708333
 20
7.249803331163194
 30
0.0
  0
VERTEX
  5
96
330
40
100
AcDbEntity
  8
STATE
 62
     2
100
AcDbVertex
100
AcDb2dVertex
 10
5.63330078125
 20
7.249803331163194
 30
0.0
  0
VERTEX
  5
97
330
40
100
AcDbEntity
  8
STATE
 62
     2
100
AcDbVertex
100
AcDb2dVertex
 10
5.639973958333333
 20
7.249803331163194
 30
0.0
  0
VERTEX
  5
98
330
40
100
AcDbEntity
  8
STATE
 62
     2
100
AcDbVertex
100
AcDb2dVertex
 10
5.709974500868055
 20
7.249803331163194
 30
0.0
  0
VERTEX
  5
99
330
40
100
AcDbEntity
  8
STATE
 62
     2
100
AcDbVertex
100
AcDb2dVertex
 10
5.713297526041666
 20
7.249803331163194
 30
0.0
  0
VERTEX
  5
9A
330
40
100
AcDbEntity
  8
STATE
 62
     2
100
AcDbVertex
100
AcDb2dVertex
 10
5.716634114583333
 20
7.249803331163194
 30
0.0
  0
VERTEX
  5
9B
330
40
100
AcDbEntity
  8
STATE
 62
     2
100
AcDbVertex
100
AcDb2dVertex
 10
5.726643880208333
 20
7.249803331163194
 30
0.0
  0
VERTEX
  5
9C
330
40
100
AcDbEntity
  8
STATE
 62
     2
100
AcDbVertex
100
AcDb2dVertex
 10
5.739963107638888
 20
7.249803331163194
 30
0.0
  0
VERTEX
  5
9D
330
40
100
AcDbEntity
  8
STATE
 62
     2
100
AcDbVertex
100
AcDb2dVertex
 10
5.746636284722222
 20
7.249803331163194
 30
0.0
  0
VERTEX
  5
9E
330
40
100
AcDbEntity
  8
STATE
 62
     2
100
AcDbVertex
100
AcDb2dVertex
 10
5.776638454861111
 20
7.246473524305555
 30
0.0
  0
VERTEX
  5
9F
330
40
100
AcDbEntity
  8
STATE
 62
     2
100
AcDbVertex
100
AcDb2dVertex
 10
5.843302408854166
 20
7.23980712890625
 30
0.0
  0
VERTEX
  5
A0
330
40
100
AcDbEntity
  8
STATE
 62
     2
100
AcDbVertex
100
AcDb2dVertex
 10
5.996636284722222
 20
7.229804144965278
 30
0.0
  0
VERTEX
  5
A1
330
40
100
AcDbEntity
  8
STATE
 62
     2
100
AcDbVertex
100
AcDb2dVertex
 10
6.129964192708333
 20
7.223137749565971
 30
0.0
  0
VERTEX
  5
A2
330
40
100
AcDbEntity
  8
STATE
 62
     2
100
AcDbVertex
100
AcDb2dVertex
 10
6.1766357421875
 20
7.219801161024305
 30
0.0
  0
VERTEX
  5
A3
330
40
100
AcDbEntity
  8
STATE
 62
     2
100
AcDbVertex
100
AcDb2dVertex
 10
6.183308919270833
 20
7.189798990885416
 30
0.0
  0
VERTEX
  5
A4
330
40
100
AcDbEntity
  8
STATE
 62
     2
100
AcDbVertex
100
AcDb2dVertex
 10
6.269978841145833
 20
7.189798990885416
 30
0.0
  0
VERTEX
  5
A5
330
40
100
AcDbEntity
  8
STATE
 62
     2
100
AcDbVertex
100
AcDb2dVertex
 10
6.273301866319444
 20
7.189798990885416
 30
0.0
  0
VERTEX
  5
A6
330
40
100
AcDbEntity
  8
STATE
 62
     2
100
AcDbVertex
100
AcDb2dVertex
 10
6.309977213541666
 20
7.189798990885416
 30
0.0
  0
VERTEX
  5
A7
330
40
100
AcDbEntity
  8
STATE
 62
     2
100
AcDbVertex
100
AcDb2dVertex
 10
6.346638997395833
 20
7.209798177083333
 30
0.0
  0
VERTEX
  5
A8
330
40
100
AcDbEntity
  8
STATE
 62
     2
100
AcDbVertex
100
AcDb2dVertex
 10
6.356635199652778
 20
7.216464572482638
 30
0.0
  0
VERTEX
  5
A9
330
40
100
AcDbEntity
  8
STATE
 62
     2
100
AcDbVertex
100
AcDb2dVertex
 10
6.416639539930555
 20
7.223137749565971
 30
0.0
  0
VERTEX
  5
AA
330
40
100
AcDbEntity
  8
STATE
 62
     2
100
AcDbVertex
100
AcDb2dVertex
 10
6.4599609375
 20
7.226467556423611
 30
0.0
  0
VERTEX
  5
AB
330
40
100
AcDbEntity
  8
STATE
 62
     2
100
AcDbVertex
100
AcDb2dVertex
 10
6.569959852430555
 20
7.236470540364583
 30
0.0
  0
VERTEX
  5
AC
330
40
100
AcDbEntity
  8
STATE
 62
     2
100
AcDbVertex
100
AcDb2dVertex
 10
6.573296440972221
 20
7.236470540364583
 30
0.0
  0
VERTEX
  5
AD
330
40
100
AcDbEntity
  8
STATE
 62
     2
100
AcDbVertex
100
AcDb2dVertex
 10
6.586642795138888
 20
7.23980712890625
 30
0.0
  0
VERTEX
  5
AE
330
40
100
AcDbEntity
  8
STATE
 62
     2
100
AcDbVertex
100
AcDb2dVertex
 10
6.603298611111111
 20
7.23980712890625
 30
0.0
  0
VERTEX
  5
AF
330
40
100
AcDbEntity
  8
STATE
 62
     2
100
AcDbVertex
100
AcDb2dVertex
 10
6.616631401909721
 20
7.236470540364583
 30
0.0
  0
VERTEX
  5
B0
330
40
100
AcDbEntity
  8
STATE
 62
     2
100
AcDbVertex
100
AcDb2dVertex
 10
6.619967990451388
 20
7.236470540364583
 30
0.0
  0
VERTEX
  5
B1
330
40
100
AcDbEntity
  8
STATE
 62
     2
100
AcDbVertex
100
AcDb2dVertex
 10
6.669976128472221
 20
7.236470540364583
 30
0.0
  0
VERTEX
  5
B2
330
40
100
AcDbEntity
  8
STATE
 62
     2
100
AcDbVertex
100
AcDb2dVertex
 10
6.683308919270833
 20
7.236470540364583
 30
0.0
  0
VERTEX
  5
B3
330
40
100
AcDbEntity
  8
STATE
 62
     2
100
AcDbVertex
100
AcDb2dVertex
 10
6.836642795138888
 20
7.236470540364583
 30
0.0
  0
VERTEX
  5
B4
330
40
100
AcDbEntity
  8
STATE
 62
     2
100
AcDbVertex
100
AcDb2dVertex
 10
6.889960394965278
 20
7.236470540364583
 30
0.0
  0
VERTEX
  5
B5
330
40
100
AcDbEntity
  8
STATE
 62
     2
100
AcDbVertex
100
AcDb2dVertex
 10
6.929958767361111
 20
7.236470540364583
 30
0.0
  0
VERTEX
  5
B6
330
40
100
AcDbEntity
  8
STATE
 62
     2
100
AcDbVertex
100
AcDb2dVertex
 10
6.936631944444444
 20
7.236470540364583
 30
0.0
  0
VERTEX
  5
B7
330
40
100
AcDbEntity
  8
STATE
 62
     2
100
AcDbVertex
100
AcDb2dVertex
 10
6.943305121527778
 20
7.236470540364583
 30
0.0
  0
VERTEX
  5
B8
330
40
100
AcDbEntity
  8
STATE
 62
     2
100
AcDbVertex
100
AcDb2dVertex
 10
6.946628146701388
 20
7.236470540364583
 30
0.0
  0
VERTEX
  5
B9
330
40
100
AcDbEntity
  8
STATE
 62
     2
100
AcDbVertex
100
AcDb2dVertex
 10
6.953301323784721
 20
7.236470540364583
 30
0.0
  0
VERTEX
  5
BA
330
40
100
AcDbEntity
  8
STATE
 62
     2
100
AcDbVertex
100
AcDb2dVertex
 10
6.986626519097221
 20
7.236470540364583
 30
0.0
  0
VERTEX
  5
BB
330
40
100
AcDbEntity
  8
STATE
 62
     2
100
AcDbVertex
100
AcDb2dVertex
 10
7.033298068576388
 20
7.236470540364583
 30
0.0
  0
VERTEX
  5
BC
330
40
100
AcDbEntity
  8
STATE
 62
     2
100
AcDbVertex
100
AcDb2dVertex
 10
7.206624348958333
 20
7.233133951822916
 30
0.0
  0
VERTEX
  5
BD
330
40
100
AcDbEntity
  8
STATE
 62
     2
100
AcDbVertex
100
AcDb2dVertex
 10
7.256632486979166
 20
7.233133951822916
 30
0.0
  0
VERTEX
  5
BE
330
40
100
AcDbEntity
  8
STATE
 62
     2
100
AcDbVertex
100
AcDb2dVertex
 10
7.413289388020833
 20
7.229804144965278
 30
0.0
  0
VERTEX
  5
BF
330
40
100
AcDbEntity
  8
STATE
 62
     2
100
AcDbVertex
100
AcDb2dVertex
 10
7.573296440972221
 20
7.226467556423611
 30
0.0
  0
VERTEX
  5
C0
330
40
100
AcDbEntity
  8
STATE
 62
     2
100
AcDbVertex
100
AcDb2dVertex
 10
7.646633572048611
 20
7.226467556423611
 30
0.0
  0
VERTEX
  5
C1
330
40
100
AcDbEntity
  8
STATE
 62
     2
100
AcDbVertex
100
AcDb2dVertex
 10
7.649956597222221
 20
7.226467556423611
 30
0.0
  0
VERTEX
  5
C2
330
40
100
AcDbEntity
  8
STATE
 62
     2
100
AcDbVertex
100
AcDb2dVertex
 10
7.669962565104166
 20
7.226467556423611
 30
0.0
  0
VERTEX
  5
C3
330
40
100
AcDbEntity
  8
STATE
 62
     2
100
AcDbVertex
100
AcDb2dVertex
 10
7.746622721354166
 20
7.226467556423611
 30
0.0
  0
VERTEX
  5
C4
330
40
100
AcDbEntity
  8
STATE
 62
     2
100
AcDbVertex
100
AcDb2dVertex
 10
7.819959852430555
 20
7.226467556423611
 30
0.0
  0
VERTEX
  5
C5
330
40
100
AcDbEntity
  8
STATE
 62
     2
100
AcDbVertex
100
AcDb2dVertex
 10
7.909966362847221
 20
7.226467556423611
 30
0.0
  0
VERTEX
  5
C6
330
40
100
AcDbEntity
  8
STATE
 62
     2
100
AcDbVertex
100
AcDb2dVertex
 10
8.01662868923611
 20
7.223137749565971
 30
0.0
  0
VERTEX
  5
C7
330
40
100
AcDbEntity
  8
STATE
 62
     2
100
AcDbVertex
100
AcDb2dVertex
 10
8.05996365017361
 20
7.223137749565971
 30
0.0
  0
VERTEX
  5
C8
330
40
100
AcDbEntity
  8
STATE
 62
     2
100
AcDbVertex
100
AcDb2dVertex
 10
8.246622721354166
 20
7.223137749565971
 30
0.0
  0
VERTEX
  5
C9
330
40
100
AcDbEntity
  8
STATE
 62
     2
100
AcDbVertex
100
AcDb2dVertex
 10
8.2532958984375
 20
7.223137749565971
 30
0.0
  0
VERTEX
  5
CA
330
40
100
AcDbEntity
  8
STATE
 62
     2
100
AcDbVertex
100
AcDb2dVertex
 10
8.276624891493055
 20
7.219801161024305
 30
0.0
  0
VERTEX
  5
CB
330
40
100
AcDbEntity
  8
STATE
 62
     2
100
AcDbVertex
100
AcDb2dVertex
 10
8.526624891493055
 20
7.219801161024305
 30
0.0
  0
VERTEX
  5
CC
330
40
100
AcDbEntity
  8
STATE
 62
     2
100
AcDbVertex
100
AcDb2dVertex
 10
8.563286675347221
 20
7.216464572482638
 30
0.0
  0
VERTEX
  5
CD
330
40
100
AcDbEntity
  8
STATE
 62
     2
100
AcDbVertex
100
AcDb2dVertex
 10
8.60329861111111
 20
7.216464572482638
 30
0.0
  0
VERTEX
  5
CE
330
40
100
AcDbEntity
  8
STATE
 62
     2
100
AcDbVertex
100
AcDb2dVertex
 10
8.77328830295139
 20
7.209798177083333
 30
0.0
  0
VERTEX
  5
CF
330
40
100
AcDbEntity
  8
STATE
 62
     2
100
AcDbVertex
100
AcDb2dVertex
 10
8.78662109375
 20
7.209798177083333
 30
0.0
  0
VERTEX
  5
D0
330
40
100
AcDbEntity
  8
STATE
 62
     2
100
AcDbVertex
100
AcDb2dVertex
 10
8.953287760416666
 20
7.203131781684028
 30
0.0
  0
VERTEX
  5
D1
330
40
100
AcDbEntity
  8
STATE
 62
     2
100
AcDbVertex
100
AcDb2dVertex
 10
8.97329372829861
 20
7.203131781684028
 30
0.0
  0
VERTEX
  5
D2
330
40
100
AcDbEntity
  8
STATE
 62
     2
100
AcDbVertex
100
AcDb2dVertex
 10
9.119954427083332
 20
7.203131781684028
 30
0.0
  0
VERTEX
  5
D3
330
40
100
AcDbEntity
  8
STATE
 62
     2
100
AcDbVertex
100
AcDb2dVertex
 10
9.163289388020832
 20
7.199801974826388
 30
0.0
  0
VERTEX
  5
D4
330
40
100
AcDbEntity
  8
STATE
 62
     2
100
AcDbVertex
100
AcDb2dVertex
 10
9.246622721354166
 20
7.199801974826388
 30
0.0
  0
VERTEX
  5
D5
330
40
100
AcDbEntity
  8
STATE
 62
     2
100
AcDbVertex
100
AcDb2dVertex
 10
9.3199462890625
 20
7.199801974826388
 30
0.0
  0
VERTEX
  5
D6
330
40
100
AcDbEntity
  8
STATE
 62
     2
100
AcDbVertex
100
AcDb2dVertex
 10
9.333292643229166
 20
7.199801974826388
 30
0.0
  0
VERTEX
  5
D7
330
40
100
AcDbEntity
  8
STATE
 62
     2
100
AcDbVertex
100
AcDb2dVertex
 10
9.336615668402777
 20
7.199801974826388
 30
0.0
  0
VERTEX
  5
D8
330
40
100
AcDbEntity
  8
STATE
 62
     2
100
AcDbVertex
100
AcDb2dVertex
 10
9.36328125
 20
7.199801974826388
 30
0.0
  0
VERTEX
  5
D9
330
40
100
AcDbEntity
  8
STATE
 62
     2
100
AcDbVertex
100
AcDb2dVertex
 10
9.486612955729166
 20
7.196465386284721
 30
0.0
  0
VERTEX
  5
DA
330
40
100
AcDbEntity
  8
STATE
 62
     2
100
AcDbVertex
100
AcDb2dVertex
 10
9.543294270833332
 20
7.196465386284721
 30
0.0
  0
VERTEX
  5
DB
330
40
100
AcDbEntity
  8
STATE
 62
     2
100
AcDbVertex
100
AcDb2dVertex
 10
9.703287760416666
 20
7.189798990885416
 30
0.0
  0
VERTEX
  5
DC
330
40
100
AcDbEntity
  8
STATE
 62
     2
100
AcDbVertex
100
AcDb2dVertex
 10
9.719957139756945
 20
7.189798990885416
 30
0.0
  0
VERTEX
  5
DD
330
40
100
AcDbEntity
  8
STATE
 62
     2
100
AcDbVertex
100
AcDb2dVertex
 10
9.796617296006945
 20
7.189798990885416
 30
0.0
  0
VERTEX
  5
DE
330
40
100
AcDbEntity
  8
STATE
 62
     2
100
AcDbVertex
100
AcDb2dVertex
 10
9.803290473090277
 20
7.189798990885416
 30
0.0
  0
VERTEX
  5
DF
330
40
100
AcDbEntity
  8
STATE
 62
     2
100
AcDbVertex
100
AcDb2dVertex
 10
9.859944661458332
 20
7.18646240234375
 30
0.0
  0
VERTEX
  5
E0
330
40
100
AcDbEntity
  8
STATE
 62
     2
100
AcDbVertex
100
AcDb2dVertex
 10
9.896620008680555
 20
7.18646240234375
 30
0.0
  0
VERTEX
  5
E1
330
40
100
AcDbEntity
  8
STATE
 62
     2
100
AcDbVertex
100
AcDb2dVertex
 10
9.899956597222221
 20
7.18646240234375
 30
0.0
  0
VERTEX
  5
E2
330
40
100
AcDbEntity
  8
STATE
 62
     2
100
AcDbVertex
100
AcDb2dVertex
 10
9.929945203993055
 20
7.18646240234375
 30
0.0
  0
VERTEX
  5
E3
330
40
100
AcDbEntity
  8
STATE
 62
     2
100
AcDbVertex
100
AcDb2dVertex
 10
9.953287760416666
 20
7.18646240234375
 30
0.0
  0
VERTEX
  5
E4
330
40
100
AcDbEntity
  8
STATE
 62
     2
100
AcDbVertex
100
AcDb2dVertex
 10
9.986612955729166
 20
7.18646240234375
 30
0.0
  0
VERTEX
  5
E5
330
40
100
AcDbEntity
  8
STATE
 62
     2
100
AcDbVertex
100
AcDb2dVertex
 10
10.00661892361111
 20
7.18646240234375
 30
0.0
  0
VERTEX
  5
E6
330
40
100
AcDbEntity
  8
STATE
 62
     2
100
AcDbVertex
100
AcDb2dVertex
 10
10.01995171440972
 20
7.18646240234375
 30
0.0
  0
VERTEX
  5
E7
330
40
100
AcDbEntity
  8
STATE
 62
     2
100
AcDbVertex
100
AcDb2dVertex
 10
10.08995225694444
 20
7.18646240234375
 30
0.0
  0
VERTEX
  5
E8
330
40
100
AcDbEntity
  8
STATE
 62
     2
100
AcDbVertex
100
AcDb2dVertex
 10
10.11328125
 20
7.18646240234375
 30
0.0
  0
VERTEX
  5
E9
330
40
100
AcDbEntity
  8
STATE
 62
     2
100
AcDbVertex
100
AcDb2dVertex
 10
10.123291015625
 20
7.18646240234375
 30
0.0
  0
VERTEX
  5
EA
330
40
100
AcDbEntity
  8
STATE
 62
     2
100
AcDbVertex
100
AcDb2dVertex
 10
10.29995388454861
 20
7.183132595486111
 30
0.0
  0
VERTEX
  5
EB
330
40
100
AcDbEntity
  8
STATE
 62
     2
100
AcDbVertex
100
AcDb2dVertex
 10
10.32328287760417
 20
7.183132595486111
 30
0.0
  0
VERTEX
  5
EC
330
40
100
AcDbEntity
  8
STATE
 62
     2
100
AcDbVertex
100
AcDb2dVertex
 10
10.32994249131944
 20
7.103115505642361
 30
0.0
  0
VERTEX
  5
ED
330
40
100
AcDbEntity
  8
STATE
 62
     2
100
AcDbVertex
100
AcDb2dVertex
 10
10.32994249131944
 20
6.986429850260416
 30
0.0
  0
VERTEX
  5
EE
330
40
100
AcDbEntity
  8
STATE
 62
     2
100
AcDbVertex
100
AcDb2dVertex
 10
10.33327907986111
 20
6.943094889322916
 30
0.0
  0
VERTEX
  5
EF
330
40
100
AcDbEntity
  8
STATE
 62
     2
100
AcDbVertex
100
AcDb2dVertex
 10
10.33327907986111
 20
6.859747992621528
 30
0.0
  0
VERTEX
  5
F0
330
40
100
AcDbEntity
  8
STATE
 62
     2
100
AcDbVertex
100
AcDb2dVertex
 10
10.33327907986111
 20
6.823072645399305
 30
0.0
  0
VERTEX
  5
F1
330
40
100
AcDbEntity
  8
STATE
 62
     2
100
AcDbVertex
100
AcDb2dVertex
 10
10.33661566840278
 20
6.729722764756944
 30
0.0
  0
VERTEX
  5
F2
330
40
100
AcDbEntity
  8
STATE
 62
     2
100
AcDbVertex
100
AcDb2dVertex
 10
10.33661566840278
 20
6.723056369357638
 30
0.0
  0
VERTEX
  5
F3
330
40
100
AcDbEntity
  8
STATE
 62
     2
100
AcDbVertex
100
AcDb2dVertex
 10
10.33661566840278
 20
6.716389973958333
 30
0.0
  0
VERTEX
  5
F4
330
40
100
AcDbEntity
  8
STATE
 62
     2
100
AcDbVertex
100
AcDb2dVertex
 10
10.33661566840278
 20
6.696384006076388
 30
0.0
  0
VERTEX
  5
F5
330
40
100
AcDbEntity
  8
STATE
 62
     2
100
AcDbVertex
100
AcDb2dVertex
 10
10.34328884548611
 20
6.573031955295138
 30
0.0
  0
VERTEX
  5
F6
330
40
100
AcDbEntity
  8
STATE
 62
     2
100
AcDbVertex
100
AcDb2dVertex
 10
10.34994845920139
 20
6.386338975694444
 30
0.0
  0
VERTEX
  5
F7
330
40
100
AcDbEntity
  8
STATE
 62
     2
100
AcDbVertex
100
AcDb2dVertex
 10
10.35328504774306
 20
6.319661458333333
 30
0.0
  0
VERTEX
  5
F8
330
40
100
AcDbEntity
  8
STATE
 62
     2
100
AcDbVertex
100
AcDb2dVertex
 10
10.35328504774306
 20
6.316324869791666
 30
0.0
  0
VERTEX
  5
F9
330
40
100
AcDbEntity
  8
STATE
 62
     2
100
AcDbVertex
100
AcDb2dVertex
 10
10.35328504774306
 20
6.302992078993055
 30
0.0
  0
VERTEX
  5
FA
330
40
100
AcDbEntity
  8
STATE
 62
     2
100
AcDbVertex
100
AcDb2dVertex
 10
10.35328504774306
 20
6.289659288194444
 30
0.0
  0
VERTEX
  5
FB
330
40
100
AcDbEntity
  8
STATE
 62
     2
100
AcDbVertex
100
AcDb2dVertex
 10
10.35328504774306
 20
6.246317545572916
 30
0.0
  0
VERTEX
  5
FC
330
40
100
AcDbEntity
  8
STATE
 62
     2
100
AcDbVertex
100
AcDb2dVertex
 10
10.35328504774306
 20
6.24298095703125
 30
0.0
  0
VERTEX
  5
FD
330
40
100
AcDbEntity
  8
STATE
 62
     2
100
AcDbVertex
100
AcDb2dVertex
 10
10.35660807291667
 20
6.182976616753472
 30
0.0
  0
VERTEX
  5
FE
330
40
100
AcDbEntity
  8
STATE
 62
     2
100
AcDbVertex
100
AcDb2dVertex
 10
10.36328125
 20
6.079623752170138
 30
0.0
  0
VERTEX
  5
FF
330
40
100
AcDbEntity
  8
STATE
 62
     2
100
AcDbVertex
100
AcDb2dVertex
 10
10.36328125
 20
6.072957356770833
 30
0.0
  0
VERTEX
  5
100
330
40
100
AcDbEntity
  8
STATE
 62
     2
100
AcDbVertex
100
AcDb2dVertex
 10
10.36995442708333
 20
5.902926974826388
 30
0.0
  0
VERTEX
  5
101
330
40
100
AcDbEntity
  8
STATE
 62
     2
100
AcDbVertex
100
AcDb2dVertex
 10
10.36995442708333
 20
5.882927788628472
 30
0.0
  0
VERTEX
  5
102
330
40
100
AcDbEntity
  8
STATE
 62
     2
100
AcDbVertex
100
AcDb2dVertex
 10
10.37661404079861
 20
5.649556477864583
 30
0.0
  0
VERTEX
  5
103
330
40
100
AcDbEntity
  8
STATE
 62
     2
100
AcDbVertex
100
AcDb2dVertex
 10
10.38328721788194
 20
5.512871636284722
 30
0.0
  0
VERTEX
  5
104
330
40
100
AcDbEntity
  8
STATE
 62
     2
100
AcDbVertex
100
AcDb2dVertex
 10
10.39328342013889
 20
5.296169704861111
 30
0.0
  0
VERTEX
  5
105
330
40
100
AcDbEntity
  8
STATE
 62
     2
100
AcDbVertex
100
AcDb2dVertex
 10
10.38994683159722
 20
5.212822808159722
 30
0.0
  0
VERTEX
  5
106
330
40
100
AcDbEntity
  8
STATE
 62
     2
100
AcDbVertex
100
AcDb2dVertex
 10
10.37995062934028
 20
4.992791069878472
 30
0.0
  0
VERTEX
  5
107
330
40
100
AcDbEntity
  8
STATE
 62
     2
100
AcDbVertex
100
AcDb2dVertex
 10
10.373291015625
 20
4.866102430555555
 30
0.0
  0
VERTEX
  5
108
330
40
100
AcDbEntity
  8
STATE
 62
     2
100
AcDbVertex
100
AcDb2dVertex
 10
10.36661783854167
 20
4.729417588975694
 30
0.0
  0
VERTEX
  5
109
330
40
100
AcDbEntity
  8
STATE
 62
     2
100
AcDbVertex
100
AcDb2dVertex
 10
10.36328125
 20
4.632731119791666
 30
0.0
  0
VERTEX
  5
10A
330
40
100
AcDbEntity
  8
STATE
 62
     2
100
AcDbVertex
100
AcDb2dVertex
 10
10.35660807291667
 20
4.522718641493055
 30
0.0
  0
VERTEX
  5
10B
330
40
100
AcDbEntity
  8
STATE
 62
     2
100
AcDbVertex
100
AcDb2dVertex
 10
10.35660807291667
 20
4.4893798828125
 30
0.0
  0
VERTEX
  5
10C
330
40
100
AcDbEntity
  8
STATE
 62
     2
100
AcDbVertex
100
AcDb2dVertex
 10
10.34661187065972
 20
4.309353298611111
 30
0.0
  0
VERTEX
  5
10D
330
40
100
AcDbEntity
  8
STATE
 62
     2
100
AcDbVertex
100
AcDb2dVertex
 10
10.34661187065972
 20
4.282680935329861
 30
0.0
  0
VERTEX
  5
10E
330
40
100
AcDbEntity
  8
STATE
 62
     2
100
AcDbVertex
100
AcDb2dVertex
 10
10.34328884548611
 20
4.1993408203125
 30
0.0
  0
VERTEX
  5
10F
330
40
100
AcDbEntity
  8
STATE
 62
     2
100
AcDbVertex
100
AcDb2dVertex
 10
10.33995225694444
 20
4.169325086805555
 30
0.0
  0
VERTEX
  5
110
330
40
100
AcDbEntity
  8
STATE
 62
     2
100
AcDbVertex
100
AcDb2dVertex
 10
10.33995225694444
 20
4.115993923611111
 30
0.0
  0
VERTEX
  5
111
330
40
100
AcDbEntity
  8
STATE
 62
     2
100
AcDbVertex
100
AcDb2dVertex
 10
10.33661566840278
 20
4.0926513671875
 30
0.0
  0
VERTEX
  5
112
330
40
100
AcDbEntity
  8
STATE
 62
     2
100
AcDbVertex
100
AcDb2dVertex
 10
10.33661566840278
 20
4.082655164930555
 30
0.0
  0
VERTEX
  5
113
330
40
100
AcDbEntity
  8
STATE
 62
     2
100
AcDbVertex
100
AcDb2dVertex
 10
10.33661566840278
 20
4.065972222222222
 30
0.0
  0
VERTEX
  5
114
330
40
100
AcDbEntity
  8
STATE
 62
     2
100
AcDbVertex
100
AcDb2dVertex
 10
10.26661512586806
 20
4.075981987847222
 30
0.0
  0
VERTEX
  5
115
330
40
100
AcDbEntity
  8
STATE
 62
     2
100
AcDbVertex
100
AcDb2dVertex
 10
10.22995334201389
 20
4.082655164930555
 30
0.0
  0
VERTEX
  5
116
330
40
100
AcDbEntity
  8
STATE
 62
     2
100
AcDbVertex
100
AcDb2dVertex
 10
10.21328396267361
 20
4.075981987847222
 30
0.0
  0
VERTEX
  5
117
330
40
100
AcDbEntity
  8
STATE
 62
     2
100
AcDbVertex
100
AcDb2dVertex
 10
10.11995442708333
 20
4.042643229166666
 30
0.0
  0
VERTEX
  5
118
330
40
100
AcDbEntity
  8
STATE
 62
     2
100
AcDbVertex
100
AcDb2dVertex
 10
10.10662163628472
 20
4.032633463541666
 30
0.0
  0
VERTEX
  5
119
330
40
100
AcDbEntity
  8
STATE
 62
     2
100
AcDbVertex
100
AcDb2dVertex
 10
10.10328504774306
 20
4.022637261284722
 30
0.0
  0
VERTEX
  5
11A
330
40
100
AcDbEntity
  8
STATE
 62
     2
100
AcDbVertex
100
AcDb2dVertex
 10
10.10328504774306
 20
4.012641059027778
 30
0.0
  0
VERTEX
  5
11B
330
40
100
AcDbEntity
  8
STATE
 62
     2
100
AcDbVertex
100
AcDb2dVertex
 10
10.10994466145833
 20
3.959296332465278
 30
0.0
  0
VERTEX
  5
11C
330
40
100
AcDbEntity
  8
STATE
 62
     2
100
AcDbVertex
100
AcDb2dVertex
 10
10.10994466145833
 20
3.955959743923611
 30
0.0
  0
VERTEX
  5
11D
330
40
100
AcDbEntity
  8
STATE
 62
     2
100
AcDbVertex
100
AcDb2dVertex
 10
10.11328125
 20
3.95263671875
 30
0.0
  0
VERTEX
  5
11E
330
40
100
AcDbEntity
  8
STATE
 62
     2
100
AcDbVertex
100
AcDb2dVertex
 10
10.12662760416667
 20
3.9326171875
 30
0.0
  0
VERTEX
  5
11F
330
40
100
AcDbEntity
  8
STATE
 62
     2
100
AcDbVertex
100
AcDb2dVertex
 10
10.12995062934028
 20
3.9326171875
 30
0.0
  0
VERTEX
  5
120
330
40
100
AcDbEntity
  8
STATE
 62
     2
100
AcDbVertex
100
AcDb2dVertex
 10
10.15327962239583
 20
3.902628580729167
 30
0.0
  0
VERTEX
  5
121
330
40
100
AcDbEntity
  8
STATE
 62
     2
100
AcDbVertex
100
AcDb2dVertex
 10
10.15327962239583
 20
3.899278428819444
 30
0.0
  0
VERTEX
  5
122
330
40
100
AcDbEntity
  8
STATE
 62
     2
100
AcDbVertex
100
AcDb2dVertex
 10
10.15327962239583
 20
3.895955403645833
 30
0.0
  0
VERTEX
  5
123
330
40
100
AcDbEntity
  8
STATE
 62
     2
100
AcDbVertex
100
AcDb2dVertex
 10
10.1566162109375
 20
3.885959201388889
 30
0.0
  0
VERTEX
  5
124
330
40
100
AcDbEntity
  8
STATE
 62
     2
100
AcDbVertex
100
AcDb2dVertex
 10
10.1566162109375
 20
3.882609049479167
 30
0.0
  0
VERTEX
  5
125
330
40
100
AcDbEntity
  8
STATE
 62
     2
100
AcDbVertex
100
AcDb2dVertex
 10
10.1566162109375
 20
3.875949435763889
 30
0.0
  0
VERTEX
  5
126
330
40
100
AcDbEntity
  8
STATE
 62
     2
100
AcDbVertex
100
AcDb2dVertex
 10
10.1566162109375
 20
3.865939670138889
 30
0.0
  0
VERTEX
  5
127
330
40
100
AcDbEntity
  8
STATE
 62
     2
100
AcDbVertex
100
AcDb2dVertex
 10
10.15995279947917
 20
3.862616644965278
 30
0.0
  0
VERTEX
  5
128
330
40
100
AcDbEntity
  8
STATE
 62
     2
100
AcDbVertex
100
AcDb2dVertex
 10
10.16327582465278
 20
3.832614474826389
 30
0.0
  0
VERTEX
  5
129
330
40
100
AcDbEntity
  8
STATE
 62
     2
100
AcDbVertex
100
AcDb2dVertex
 10
10.16327582465278
 20
3.825941297743055
 30
0.0
  0
VERTEX
  5
12A
330
40
100
AcDbEntity
  8
STATE
 62
     2
100
AcDbVertex
100
AcDb2dVertex
 10
10.16327582465278
 20
3.812608506944444
 30
0.0
  0
VERTEX
  5
12B
330
40
100
AcDbEntity
  8
STATE
 62
     2
100
AcDbVertex
100
AcDb2dVertex
 10
10.16327582465278
 20
3.809271918402778
 30
0.0
  0
VERTEX
  5
12C
330
40
100
AcDbEntity
  8
STATE
 62
     2
100
AcDbVertex
100
AcDb2dVertex
 10
10.16327582465278
 20
3.805935329861111
 30
0.0
  0
VERTEX
  5
12D
330
40
100
AcDbEntity
  8
STATE
 62
     2
100
AcDbVertex
100
AcDb2dVertex
 10
10.16327582465278
 20
3.795939127604167
 30
0.0
  0
VERTEX
  5
12E
330
40
100
AcDbEntity
  8
STATE
 62
     2
100
AcDbVertex
100
AcDb2dVertex
 10
10.16327582465278
 20
3.7926025390625
 30
0.0
  0
VERTEX
  5
12F
330
40
100
AcDbEntity
  8
STATE
 62
     2
100
AcDbVertex
100
AcDb2dVertex
 10
10.16327582465278
 20
3.755927191840278
 30
0.0
  0
VERTEX
  5
130
330
40
100
AcDbEntity
  8
STATE
 62
     2
100
AcDbVertex
100
AcDb2dVertex
 10
10.16327582465278
 20
3.735921223958333
 30
0.0
  0
VERTEX
  5
131
330
40
100
AcDbEntity
  8
STATE
 62
     2
100
AcDbVertex
100
AcDb2dVertex
 10
10.16327582465278
 20
3.699245876736111
 30
0.0
  0
VERTEX
  5
132
330
40
100
AcDbEntity
  8
STATE
 62
     2
100
AcDbVertex
100
AcDb2dVertex
 10
10.1566162109375
 20
3.679253472222222
 30
0.0
  0
VERTEX
  5
133
330
40
100
AcDbEntity
  8
STATE
 62
     2
100
AcDbVertex
100
AcDb2dVertex
 10
10.11995442708333
 20
3.645914713541667
 30
0.0
  0
VERTEX
  5
134
330
40
100
AcDbEntity
  8
STATE
 62
     2
100
AcDbVertex
100
AcDb2dVertex
 10
10.08327907986111
 20
3.622585720486111
 30
0.0
  0
VERTEX
  5
135
330
40
100
AcDbEntity
  8
STATE
 62
     2
100
AcDbVertex
100
AcDb2dVertex
 10
10.07661946614583
 20
3.619235568576389
 30
0.0
  0
VERTEX
  5
136
330
40
100
AcDbEntity
  8
STATE
 62
     2
100
AcDbVertex
100
AcDb2dVertex
 10
10.01995171440972
 20
3.582573784722222
 30
0.0
  0
VERTEX
  5
137
330
40
100
AcDbEntity
  8
STATE
 62
     2
100
AcDbVertex
100
AcDb2dVertex
 10
9.973280164930555
 20
3.625908745659722
 30
0.0
  0
VERTEX
  5
138
330
40
100
AcDbEntity
  8
STATE
 62
     2
100
AcDbVertex
100
AcDb2dVertex
 10
9.943277994791666
 20
3.635904947916667
 30
0.0
  0
VERTEX
  5
139
330
40
100
AcDbEntity
  8
STATE
 62
     2
100
AcDbVertex
100
AcDb2dVertex
 10
9.903279622395832
 20
3.649251302083333
 30
0.0
  0
VERTEX
  5
13A
330
40
100
AcDbEntity
  8
STATE
 62
     2
100
AcDbVertex
100
AcDb2dVertex
 10
9.883287217881945
 20
3.655924479166667
 30
0.0
  0
VERTEX
  5
13B
330
40
100
AcDbEntity
  8
STATE
 62
     2
100
AcDbVertex
100
AcDb2dVertex
 10
9.849962022569445
 20
3.652574327256944
 30
0.0
  0
VERTEX
  5
13C
330
40
100
AcDbEntity
  8
STATE
 62
     2
100
AcDbVertex
100
AcDb2dVertex
 10
9.783284505208332
 20
3.642578125
 30
0.0
  0
VERTEX
  5
13D
330
40
100
AcDbEntity
  8
STATE
 62
     2
100
AcDbVertex
100
AcDb2dVertex
 10
9.753282335069445
 20
3.639241536458333
 30
0.0
  0
VERTEX
  5
13E
330
40
100
AcDbEntity
  8
STATE
 62
     2
100
AcDbVertex
100
AcDb2dVertex
 10
9.7432861328125
 20
3.635904947916667
 30
0.0
  0
VERTEX
  5
13F
330
40
100
AcDbEntity
  8
STATE
 62
     2
100
AcDbVertex
100
AcDb2dVertex
 10
9.726616753472221
 20
3.632568359375
 30
0.0
  0
VERTEX
  5
140
330
40
100
AcDbEntity
  8
STATE
 62
     2
100
AcDbVertex
100
AcDb2dVertex
 10
9.696614583333332
 20
3.645914713541667
 30
0.0
  0
VERTEX
  5
141
330
40
100
AcDbEntity
  8
STATE
 62
     2
100
AcDbVertex
100
AcDb2dVertex
 10
9.693277994791666
 20
3.649251302083333
 30
0.0
  0
VERTEX
  5
142
330
40
100
AcDbEntity
  8
STATE
 62
     2
100
AcDbVertex
100
AcDb2dVertex
 10
9.626627604166666
 20
3.662584092881944
 30
0.0
  0
VERTEX
  5
143
330
40
100
AcDbEntity
  8
STATE
 62
     2
100
AcDbVertex
100
AcDb2dVertex
 10
9.619954427083332
 20
3.662584092881944
 30
0.0
  0
VERTEX
  5
144
330
40
100
AcDbEntity
  8
STATE
 62
     2
100
AcDbVertex
100
AcDb2dVertex
 10
9.576619466145832
 20
3.662584092881944
 30
0.0
  0
VERTEX
  5
145
330
40
100
AcDbEntity
  8
STATE
 62
     2
100
AcDbVertex
100
AcDb2dVertex
 10
9.519951714409721
 20
3.622585720486111
 30
0.0
  0
VERTEX
  5
146
330
40
100
AcDbEntity
  8
STATE
 62
     2
100
AcDbVertex
100
AcDb2dVertex
 10
9.503282335069445
 20
3.615898980034722
 30
0.0
  0
VERTEX
  5
147
330
40
100
AcDbEntity
  8
STATE
 62
     2
100
AcDbVertex
100
AcDb2dVertex
 10
9.446614583333332
 20
3.595906575520833
 30
0.0
  0
VERTEX
  5
148
330
40
100
AcDbEntity
  8
STATE
 62
     2
100
AcDbVertex
100
AcDb2dVertex
 10
9.403279622395832
 20
3.622585720486111
 30
0.0
  0
VERTEX
  5
149
330
40
100
AcDbEntity
  8
STATE
 62
     2
100
AcDbVertex
100
AcDb2dVertex
 10
9.399956597222221
 20
3.622585720486111
 30
0.0
  0
VERTEX
  5
14A
330
40
100
AcDbEntity
  8
STATE
 62
     2
100
AcDbVertex
100
AcDb2dVertex
 10
9.389946831597221
 20
3.622585720486111
 30
0.0
  0
VERTEX
  5
14B
330
40
100
AcDbEntity
  8
STATE
 62
     2
100
AcDbVertex
100
AcDb2dVertex
 10
9.359958224826388
 20
3.572564019097222
 30
0.0
  0
VERTEX
  5
14C
330
40
100
AcDbEntity
  8
STATE
 62
     2
100
AcDbVertex
100
AcDb2dVertex
 10
9.296617296006945
 20
3.565904405381944
 30
0.0
  0
VERTEX
  5
14D
330
40
100
AcDbEntity
  8
STATE
 62
     2
100
AcDbVertex
100
AcDb2dVertex
 10
9.283298068576388
 20
3.565904405381944
 30
0.0
  0
VERTEX
  5
14E
330
40
100
AcDbEntity
  8
STATE
 62
     2
100
AcDbVertex
100
AcDb2dVertex
 10
9.229953342013888
 20
3.559231228298611
 30
0.0
  0
VERTEX
  5
14F
330
40
100
AcDbEntity
  8
STATE
 62
     2
100
AcDbVertex
100
AcDb2dVertex
 10
9.196614583333332
 20
3.555908203125
 30
0.0
  0
VERTEX
  5
150
330
40
100
AcDbEntity
  8
STATE
 62
     2
100
AcDbVertex
100
AcDb2dVertex
 10
9.186631944444445
 20
3.555908203125
 30
0.0
  0
VERTEX
  5
151
330
40
100
AcDbEntity
  8
STATE
 62
     2
100
AcDbVertex
100
AcDb2dVertex
 10
9.01662868923611
 20
3.562567816840278
 30
0.0
  0
VERTEX
  5
152
330
40
100
AcDbEntity
  8
STATE
 62
     2
100
AcDbVertex
100
AcDb2dVertex
 10
8.913289388020832
 20
3.565904405381944
 30
0.0
  0
VERTEX
  5
153
330
40
100
AcDbEntity
  8
STATE
 62
     2
100
AcDbVertex
100
AcDb2dVertex
 10
8.876627604166666
 20
3.569240993923611
 30
0.0
  0
VERTEX
  5
154
330
40
100
AcDbEntity
  8
STATE
 62
     2
100
AcDbVertex
100
AcDb2dVertex
 10
8.863294813368055
 20
3.569240993923611
 30
0.0
  0
VERTEX
  5
155
330
40
100
AcDbEntity
  8
STATE
 62
     2
100
AcDbVertex
100
AcDb2dVertex
 10
8.823296440972221
 20
3.5458984375
 30
0.0
  0
VERTEX
  5
156
330
40
100
AcDbEntity
  8
STATE
 62
     2
100
AcDbVertex
100
AcDb2dVertex
 10
8.813286675347221
 20
3.542561848958333
 30
0.0
  0
VERTEX
  5
157
330
40
100
AcDbEntity
  8
STATE
 62
     2
100
AcDbVertex
100
AcDb2dVertex
 10
8.78662109375
 20
3.505886501736111
 30
0.0
  0
VERTEX
  5
158
330
40
100
AcDbEntity
  8
STATE
 62
     2
100
AcDbVertex
100
AcDb2dVertex
 10
8.77328830295139
 20
3.495890299479167
 30
0.0
  0
VERTEX
  5
159
330
40
100
AcDbEntity
  8
STATE
 62
     2
100
AcDbVertex
100
AcDb2dVertex
 10
8.72329372829861
 20
3.462551540798611
 30
0.0
  0
VERTEX
  5
15A
330
40
100
AcDbEntity
  8
STATE
 62
     2
100
AcDbVertex
100
AcDb2dVertex
 10
8.65329318576389
 20
3.465888129340278
 30
0.0
  0
VERTEX
  5
15B
330
40
100
AcDbEntity
  8
STATE
 62
     2
100
AcDbVertex
100
AcDb2dVertex
 10
8.60995822482639
 20
3.465888129340278
 30
0.0
  0
VERTEX
  5
15C
330
40
100
AcDbEntity
  8
STATE
 62
     2
100
AcDbVertex
100
AcDb2dVertex
 10
8.5032958984375
 20
3.509223090277778
 30
0.0
  0
VERTEX
  5
15D
330
40
100
AcDbEntity
  8
STATE
 62
     2
100
AcDbVertex
100
AcDb2dVertex
 10
8.469957139756945
 20
3.522555881076389
 30
0.0
  0
VERTEX
  5
15E
330
40
100
AcDbEntity
  8
STATE
 62
     2
100
AcDbVertex
100
AcDb2dVertex
 10
8.406629774305555
 20
3.559231228298611
 30
0.0
  0
VERTEX
  5
15F
330
40
100
AcDbEntity
  8
STATE
 62
     2
100
AcDbVertex
100
AcDb2dVertex
 10
8.38662380642361
 20
3.582573784722222
 30
0.0
  0
VERTEX
  5
160
330
40
100
AcDbEntity
  8
STATE
 62
     2
100
AcDbVertex
100
AcDb2dVertex
 10
8.35329861111111
 20
3.592569986979167
 30
0.0
  0
VERTEX
  5
161
330
40
100
AcDbEntity
  8
STATE
 62
     2
100
AcDbVertex
100
AcDb2dVertex
 10
8.31662326388889
 20
3.585910373263889
 30
0.0
  0
VERTEX
  5
162
330
40
100
AcDbEntity
  8
STATE
 62
     2
100
AcDbVertex
100
AcDb2dVertex
 10
8.313286675347221
 20
3.585910373263889
 30
0.0
  0
VERTEX
  5
163
330
40
100
AcDbEntity
  8
STATE
 62
     2
100
AcDbVertex
100
AcDb2dVertex
 10
8.263292100694445
 20
3.549235026041667
 30
0.0
  0
VERTEX
  5
164
330
40
100
AcDbEntity
  8
STATE
 62
     2
100
AcDbVertex
100
AcDb2dVertex
 10
8.256632486979166
 20
3.535902235243055
 30
0.0
  0
VERTEX
  5
165
330
40
100
AcDbEntity
  8
STATE
 62
     2
100
AcDbVertex
100
AcDb2dVertex
 10
8.249959309895832
 20
3.462551540798611
 30
0.0
  0
VERTEX
  5
166
330
40
100
AcDbEntity
  8
STATE
 62
     2
100
AcDbVertex
100
AcDb2dVertex
 10
8.206624348958332
 20
3.422539605034722
 30
0.0
  0
VERTEX
  5
167
330
40
100
AcDbEntity
  8
STATE
 62
     2
100
AcDbVertex
100
AcDb2dVertex
 10
8.199964735243055
 20
3.425876193576389
 30
0.0
  0
VERTEX
  5
168
330
40
100
AcDbEntity
  8
STATE
 62
     2
100
AcDbVertex
100
AcDb2dVertex
 10
8.146620008680555
 20
3.462551540798611
 30
0.0
  0
VERTEX
  5
169
330
40
100
AcDbEntity
  8
STATE
 62
     2
100
AcDbVertex
100
AcDb2dVertex
 10
8.143296983506945
 20
3.462551540798611
 30
0.0
  0
VERTEX
  5
16A
330
40
100
AcDbEntity
  8
STATE
 62
     2
100
AcDbVertex
100
AcDb2dVertex
 10
8.0899658203125
 20
3.469211154513889
 30
0.0
  0
VERTEX
  5
16B
330
40
100
AcDbEntity
  8
STATE
 62
     2
100
AcDbVertex
100
AcDb2dVertex
 10
8.02328830295139
 20
3.465888129340278
 30
0.0
  0
VERTEX
  5
16C
330
40
100
AcDbEntity
  8
STATE
 62
     2
100
AcDbVertex
100
AcDb2dVertex
 10
8.006632486979166
 20
3.462551540798611
 30
0.0
  0
VERTEX
  5
16D
330
40
100
AcDbEntity
  8
STATE
 62
     2
100
AcDbVertex
100
AcDb2dVertex
 10
8.013292100694445
 20
3.439208984375
 30
0.0
  0
VERTEX
  5
16E
330
40
100
AcDbEntity
  8
STATE
 62
     2
100
AcDbVertex
100
AcDb2dVertex
 10
8.006632486979166
 20
3.415879991319444
 30
0.0
  0
VERTEX
  5
16F
330
40
100
AcDbEntity
  8
STATE
 62
     2
100
AcDbVertex
100
AcDb2dVertex
 10
7.956624348958333
 20
3.379204644097222
 30
0.0
  0
VERTEX
  5
170
330
40
100
AcDbEntity
  8
STATE
 62
     2
100
AcDbVertex
100
AcDb2dVertex
 10
7.859971788194444
 20
3.372545030381944
 30
0.0
  0
VERTEX
  5
171
330
40
100
AcDbEntity
  8
STATE
 62
     2
100
AcDbVertex
100
AcDb2dVertex
 10
7.666639539930555
 20
3.355875651041667
 30
0.0
  0
VERTEX
  5
172
330
40
100
AcDbEntity
  8
STATE
 62
     2
100
AcDbVertex
100
AcDb2dVertex
 10
7.616631401909721
 20
3.359212239583333
 30
0.0
  0
VERTEX
  5
173
330
40
100
AcDbEntity
  8
STATE
 62
     2
100
AcDbVertex
100
AcDb2dVertex
 10
7.609971788194444
 20
3.362535264756944
 30
0.0
  0
VERTEX
  5
174
330
40
100
AcDbEntity
  8
STATE
 62
     2
100
AcDbVertex
100
AcDb2dVertex
 10
7.583306206597221
 20
3.379204644097222
 30
0.0
  0
VERTEX
  5
175
330
40
100
AcDbEntity
  8
STATE
 62
     2
100
AcDbVertex
100
AcDb2dVertex
 10
7.546630859375
 20
3.365871853298611
 30
0.0
  0
VERTEX
  5
176
330
40
100
AcDbEntity
  8
STATE
 62
     2
100
AcDbVertex
100
AcDb2dVertex
 10
7.509955512152778
 20
3.352525499131944
 30
0.0
  0
VERTEX
  5
177
330
40
100
AcDbEntity
  8
STATE
 62
     2
100
AcDbVertex
100
AcDb2dVertex
 10
7.509955512152778
 20
3.342529296875
 30
0.0
  0
VERTEX
  5
178
330
40
100
AcDbEntity
  8
STATE
 62
     2
100
AcDbVertex
100
AcDb2dVertex
 10
7.513292100694444
 20
3.312527126736111
 30
0.0
  0
VERTEX
  5
179
330
40
100
AcDbEntity
  8
STATE
 62
     2
100
AcDbVertex
100
AcDb2dVertex
 10
7.506632486979166
 20
3.312527126736111
 30
0.0
  0
VERTEX
  5
17A
330
40
100
AcDbEntity
  8
STATE
 62
     2
100
AcDbVertex
100
AcDb2dVertex
 10
7.443305121527778
 20
3.2991943359375
 30
0.0
  0
VERTEX
  5
17B
330
40
100
AcDbEntity
  8
STATE
 62
     2
100
AcDbVertex
100
AcDb2dVertex
 10
7.429958767361111
 20
3.295857747395833
 30
0.0
  0
VERTEX
  5
17C
330
40
100
AcDbEntity
  8
STATE
 62
     2
100
AcDbVertex
100
AcDb2dVertex
 10
7.313300238715278
 20
3.272528754340278
 30
0.0
  0
VERTEX
  5
17D
330
40
100
AcDbEntity
  8
STATE
 62
     2
100
AcDbVertex
100
AcDb2dVertex
 10
7.273301866319444
 20
3.325859917534722
 30
0.0
  0
VERTEX
  5
17E
330
40
100
AcDbEntity
  8
STATE
 62
     2
100
AcDbVertex
100
AcDb2dVertex
 10
7.256632486979166
 20
3.352525499131944
 30
0.0
  0
VERTEX
  5
17F
330
40
100
AcDbEntity
  8
STATE
 62
     2
100
AcDbVertex
100
AcDb2dVertex
 10
7.2532958984375
 20
3.355875651041667
 30
0.0
  0
VERTEX
  5
180
330
40
100
AcDbEntity
  8
STATE
 62
     2
100
AcDbVertex
100
AcDb2dVertex
 10
7.213297526041666
 20
3.355875651041667
 30
0.0
  0
VERTEX
  5
181
330
40
100
AcDbEntity
  8
STATE
 62
     2
100
AcDbVertex
100
AcDb2dVertex
 10
7.159966362847221
 20
3.359212239583333
 30
0.0
  0
VERTEX
  5
182
330
40
100
AcDbEntity
  8
STATE
 62
     2
100
AcDbVertex
100
AcDb2dVertex
 10
7.083306206597221
 20
3.359212239583333
 30
0.0
  0
VERTEX
  5
183
330
40
100
AcDbEntity
  8
STATE
 62
     2
100
AcDbVertex
100
AcDb2dVertex
 10
6.979966905381944
 20
3.359212239583333
 30
0.0
  0
VERTEX
  5
184
330
40
100
AcDbEntity
  8
STATE
 62
     2
100
AcDbVertex
100
AcDb2dVertex
 10
6.876627604166666
 20
3.315863715277778
 30
0.0
  0
VERTEX
  5
185
330
40
100
AcDbEntity
  8
STATE
 62
     2
100
AcDbVertex
100
AcDb2dVertex
 10
6.873291015625
 20
3.315863715277778
 30
0.0
  0
VERTEX
  5
186
330
40
100
AcDbEntity
  8
STATE
 62
     2
100
AcDbVertex
100
AcDb2dVertex
 10
6.833306206597221
 20
3.315863715277778
 30
0.0
  0
VERTEX
  5
187
330
40
100
AcDbEntity
  8
STATE
 62
     2
100
AcDbVertex
100
AcDb2dVertex
 10
6.819959852430555
 20
3.319186740451389
 30
0.0
  0
VERTEX
  5
188
330
40
100
AcDbEntity
  8
STATE
 62
     2
100
AcDbVertex
100
AcDb2dVertex
 10
6.806627061631944
 20
3.319186740451389
 30
0.0
  0
VERTEX
  5
189
330
40
100
AcDbEntity
  8
STATE
 62
     2
100
AcDbVertex
100
AcDb2dVertex
 10
6.803304036458333
 20
3.319186740451389
 30
0.0
  0
VERTEX
  5
18A
330
40
100
AcDbEntity
  8
STATE
 62
     2
100
AcDbVertex
100
AcDb2dVertex
 10
6.733303493923611
 20
3.292534722222222
 30
0.0
  0
VERTEX
  5
18B
330
40
100
AcDbEntity
  8
STATE
 62
     2
100
AcDbVertex
100
AcDb2dVertex
 10
6.696628146701388
 20
3.262518988715278
 30
0.0
  0
VERTEX
  5
18C
330
40
100
AcDbEntity
  8
STATE
 62
     2
100
AcDbVertex
100
AcDb2dVertex
 10
6.636637369791666
 20
3.269178602430555
 30
0.0
  0
VERTEX
  5
18D
330
40
100
AcDbEntity
  8
STATE
 62
     2
100
AcDbVertex
100
AcDb2dVertex
 10
6.623304578993055
 20
3.292534722222222
 30
0.0
  0
VERTEX
  5
18E
330
40
100
AcDbEntity
  8
STATE
 62
     2
100
AcDbVertex
100
AcDb2dVertex
 10
6.616631401909721
 20
3.292534722222222
 30
0.0
  0
VERTEX
  5
18F
330
40
100
AcDbEntity
  8
STATE
 62
     2
100
AcDbVertex
100
AcDb2dVertex
 10
6.579969618055555
 20
3.285847981770833
 30
0.0
  0
VERTEX
  5
190
330
40
100
AcDbEntity
  8
STATE
 62
     2
100
AcDbVertex
100
AcDb2dVertex
 10
6.559977213541666
 20
3.275851779513889
 30
0.0
  0
VERTEX
  5
191
330
40
100
AcDbEntity
  8
STATE
 62
     2
100
AcDbVertex
100
AcDb2dVertex
 10
6.543294270833333
 20
3.242513020833333
 30
0.0
  0
VERTEX
  5
192
330
40
100
AcDbEntity
  8
STATE
 62
     2
100
AcDbVertex
100
AcDb2dVertex
 10
6.536634657118055
 20
3.239176432291667
 30
0.0
  0
VERTEX
  5
193
330
40
100
AcDbEntity
  8
STATE
 62
     2
100
AcDbVertex
100
AcDb2dVertex
 10
6.489963107638888
 20
3.215847439236111
 30
0.0
  0
VERTEX
  5
194
330
40
100
AcDbEntity
  8
STATE
 62
     2
100
AcDbVertex
100
AcDb2dVertex
 10
6.366631401909721
 20
3.305867513020833
 30
0.0
  0
VERTEX
  5
195
330
40
100
AcDbEntity
  8
STATE
 62
     2
100
AcDbVertex
100
AcDb2dVertex
 10
6.306627061631944
 20
3.322536892361111
 30
0.0
  0
VERTEX
  5
196
330
40
100
AcDbEntity
  8
STATE
 62
     2
100
AcDbVertex
100
AcDb2dVertex
 10
6.303304036458333
 20
3.322536892361111
 30
0.0
  0
VERTEX
  5
197
330
40
100
AcDbEntity
  8
STATE
 62
     2
100
AcDbVertex
100
AcDb2dVertex
 10
6.299967447916666
 20
3.322536892361111
 30
0.0
  0
VERTEX
  5
198
330
40
100
AcDbEntity
  8
STATE
 62
     2
100
AcDbVertex
100
AcDb2dVertex
 10
6.296630859375
 20
3.322536892361111
 30
0.0
  0
VERTEX
  5
199
330
40
100
AcDbEntity
  8
STATE
 62
     2
100
AcDbVertex
100
AcDb2dVertex
 10
6.229966905381944
 20
3.309190538194444
 30
0.0
  0
VERTEX
  5
19A
330
40
100
AcDbEntity
  8
STATE
 62
     2
100
AcDbVertex
100
AcDb2dVertex
 10
6.129964192708333
 20
3.325859917534722
 30
0.0
  0
VERTEX
  5
19B
330
40
100
AcDbEntity
  8
STATE
 62
     2
100
AcDbVertex
100
AcDb2dVertex
 10
6.119967990451388
 20
3.322536892361111
 30
0.0
  0
VERTEX
  5
19C
330
40
100
AcDbEntity
  8
STATE
 62
     2
100
AcDbVertex
100
AcDb2dVertex
 10
6.056640625
 20
3.309190538194444
 30
0.0
  0
VERTEX
  5
19D
330
40
100
AcDbEntity
  8
STATE
 62
     2
100
AcDbVertex
100
AcDb2dVertex
 10
6.006646050347222
 20
3.2991943359375
 30
0.0
  0
VERTEX
  5
19E
330
40
100
AcDbEntity
  8
STATE
 62
     2
100
AcDbVertex
100
AcDb2dVertex
 10
5.943305121527778
 20
3.292534722222222
 30
0.0
  0
VERTEX
  5
19F
330
40
100
AcDbEntity
  8
STATE
 62
     2
100
AcDbVertex
100
AcDb2dVertex
 10
5.9366455078125
 20
3.295857747395833
 30
0.0
  0
VERTEX
  5
1A0
330
40
100
AcDbEntity
  8
STATE
 62
     2
100
AcDbVertex
100
AcDb2dVertex
 10
5.896633572048611
 20
3.309190538194444
 30
0.0
  0
VERTEX
  5
1A1
330
40
100
AcDbEntity
  8
STATE
 62
     2
100
AcDbVertex
100
AcDb2dVertex
 10
5.893310546875
 20
3.309190538194444
 30
0.0
  0
VERTEX
  5
1A2
330
40
100
AcDbEntity
  8
STATE
 62
     2
100
AcDbVertex
100
AcDb2dVertex
 10
5.876641167534722
 20
3.305867513020833
 30
0.0
  0
VERTEX
  5
1A3
330
40
100
AcDbEntity
  8
STATE
 62
     2
100
AcDbVertex
100
AcDb2dVertex
 10
5.873304578993055
 20
3.305867513020833
 30
0.0
  0
VERTEX
  5
1A4
330
40
100
AcDbEntity
  8
STATE
 62
     2
100
AcDbVertex
100
AcDb2dVertex
 10
5.846638997395833
 20
3.2991943359375
 30
0.0
  0
VERTEX
  5
1A5
330
40
100
AcDbEntity
  8
STATE
 62
     2
100
AcDbVertex
100
AcDb2dVertex
 10
5.836642795138888
 20
3.292534722222222
 30
0.0
  0
VERTEX
  5
1A6
330
40
100
AcDbEntity
  8
STATE
 62
     2
100
AcDbVertex
100
AcDb2dVertex
 10
5.783298068576388
 20
3.249186197916667
 30
0.0
  0
VERTEX
  5
1A7
330
40
100
AcDbEntity
  8
STATE
 62
     2
100
AcDbVertex
100
AcDb2dVertex
 10
5.779975043402778
 20
3.239176432291667
 30
0.0
  0
VERTEX
  5
1A8
330
40
100
AcDbEntity
  8
STATE
 62
     2
100
AcDbVertex
100
AcDb2dVertex
 10
5.779975043402778
 20
3.219184027777778
 30
0.0
  0
VERTEX
  5
1A9
330
40
100
AcDbEntity
  8
STATE
 62
     2
100
AcDbVertex
100
AcDb2dVertex
 10
5.753309461805555
 20
3.195841471354167
 30
0.0
  0
VERTEX
  5
1AA
330
40
100
AcDbEntity
  8
STATE
 62
     2
100
AcDbVertex
100
AcDb2dVertex
 10
5.733303493923611
 20
3.185845269097222
 30
0.0
  0
VERTEX
  5
1AB
330
40
100
AcDbEntity
  8
STATE
 62
     2
100
AcDbVertex
100
AcDb2dVertex
 10
5.699964735243055
 20
3.185845269097222
 30
0.0
  0
VERTEX
  5
1AC
330
40
100
AcDbEntity
  8
STATE
 62
     2
100
AcDbVertex
100
AcDb2dVertex
 10
5.673312717013888
 20
3.182508680555555
 30
0.0
  0
VERTEX
  5
1AD
330
40
100
AcDbEntity
  8
STATE
 62
     2
100
AcDbVertex
100
AcDb2dVertex
 10
5.669976128472222
 20
3.182508680555555
 30
0.0
  0
VERTEX
  5
1AE
330
40
100
AcDbEntity
  8
STATE
 62
     2
100
AcDbVertex
100
AcDb2dVertex
 10
5.649970160590278
 20
3.182508680555555
 30
0.0
  0
VERTEX
  5
1AF
330
40
100
AcDbEntity
  8
STATE
 62
     2
100
AcDbVertex
100
AcDb2dVertex
 10
5.63330078125
 20
3.205837673611111
 30
0.0
  0
VERTEX
  5
1B0
330
40
100
AcDbEntity
  8
STATE
 62
     2
100
AcDbVertex
100
AcDb2dVertex
 10
5.646633572048611
 20
3.215847439236111
 30
0.0
  0
VERTEX
  5
1B1
330
40
100
AcDbEntity
  8
STATE
 62
     2
100
AcDbVertex
100
AcDb2dVertex
 10
5.639973958333333
 20
3.232516818576389
 30
0.0
  0
VERTEX
  5
1B2
330
40
100
AcDbEntity
  8
STATE
 62
     2
100
AcDbVertex
100
AcDb2dVertex
 10
5.589979383680555
 20
3.259182400173611
 30
0.0
  0
VERTEX
  5
1B3
330
40
100
AcDbEntity
  8
STATE
 62
     2
100
AcDbVertex
100
AcDb2dVertex
 10
5.536648220486111
 20
3.235853407118055
 30
0.0
  0
VERTEX
  5
1B4
330
40
100
AcDbEntity
  8
STATE
 62
     2
100
AcDbVertex
100
AcDb2dVertex
 10
5.506639268663194
 20
3.252522786458333
 30
0.0
  0
VERTEX
  5
1B5
330
40
100
AcDbEntity
  8
STATE
 62
     2
100
AcDbVertex
100
AcDb2dVertex
 10
5.483310275607638
 20
3.265855577256944
 30
0.0
  0
VERTEX
  5
1B6
330
40
100
AcDbEntity
  8
STATE
 62
     2
100
AcDbVertex
100
AcDb2dVertex
 10
5.436638726128472
 20
3.292534722222222
 30
0.0
  0
VERTEX
  5
1B7
330
40
100
AcDbEntity
  8
STATE
 62
     2
100
AcDbVertex
100
AcDb2dVertex
 10
5.426642523871528
 20
3.2991943359375
 30
0.0
  0
VERTEX
  5
1B8
330
40
100
AcDbEntity
  8
STATE
 62
     2
100
AcDbVertex
100
AcDb2dVertex
 10
5.40997314453125
 20
3.2991943359375
 30
0.0
  0
VERTEX
  5
1B9
330
40
100
AcDbEntity
  8
STATE
 62
     2
100
AcDbVertex
100
AcDb2dVertex
 10
5.406643337673611
 20
3.2991943359375
 30
0.0
  0
VERTEX
  5
1BA
330
40
100
AcDbEntity
  8
STATE
 62
     2
100
AcDbVertex
100
AcDb2dVertex
 10
5.393310546875
 20
3.295857747395833
 30
0.0
  0
VERTEX
  5
1BB
330
40
100
AcDbEntity
  8
STATE
 62
     2
100
AcDbVertex
100
AcDb2dVertex
 10
5.363308376736111
 20
3.295857747395833
 30
0.0
  0
VERTEX
  5
1BC
330
40
100
AcDbEntity
  8
STATE
 62
     2
100
AcDbVertex
100
AcDb2dVertex
 10
5.359971788194444
 20
3.295857747395833
 30
0.0
  0
VERTEX
  5
1BD
330
40
100
AcDbEntity
  8
STATE
 62
     2
100
AcDbVertex
100
AcDb2dVertex
 10
5.343309190538194
 20
3.292534722222222
 30
0.0
  0
VERTEX
  5
1BE
330
40
100
AcDbEntity
  8
STATE
 62
     2
100
AcDbVertex
100
AcDb2dVertex
 10
5.336642795138888
 20
3.292534722222222
 30
0.0
  0
VERTEX
  5
1BF
330
40
100
AcDbEntity
  8
STATE
 62
     2
100
AcDbVertex
100
AcDb2dVertex
 10
5.303310818142361
 20
3.289198133680555
 30
0.0
  0
VERTEX
  5
1C0
330
40
100
AcDbEntity
  8
STATE
 62
     2
100
AcDbVertex
100
AcDb2dVertex
 10
5.2633056640625
 20
3.289198133680555
 30
0.0
  0
VERTEX
  5
1C1
330
40
100
AcDbEntity
  8
STATE
 62
     2
100
AcDbVertex
100
AcDb2dVertex
 10
5.243306477864583
 20
3.279188368055555
 30
0.0
  0
VERTEX
  5
1C2
330
40
100
AcDbEntity
  8
STATE
 62
     2
100
AcDbVertex
100
AcDb2dVertex
 10
5.196641710069444
 20
3.262518988715278
 30
0.0
  0
VERTEX
  5
1C3
330
40
100
AcDbEntity
  8
STATE
 62
     2
100
AcDbVertex
100
AcDb2dVertex
 10
5.163309733072916
 20
3.249186197916667
 30
0.0
  0
VERTEX
  5
1C4
330
40
100
AcDbEntity
  8
STATE
 62
     2
100
AcDbVertex
100
AcDb2dVertex
 10
5.136644151475694
 20
3.239176432291667
 30
0.0
  0
VERTEX
  5
1C5
330
40
100
AcDbEntity
  8
STATE
 62
     2
100
AcDbVertex
100
AcDb2dVertex
 10
5.096638997395833
 20
3.222520616319444
 30
0.0
  0
VERTEX
  5
1C6
330
40
100
AcDbEntity
  8
STATE
 62
     2
100
AcDbVertex
100
AcDb2dVertex
 10
5.093309190538194
 20
3.232516818576389
 30
0.0
  0
VERTEX
  5
1C7
330
40
100
AcDbEntity
  8
STATE
 62
     2
100
AcDbVertex
100
AcDb2dVertex
 10
5.059977213541666
 20
3.245849609375
 30
0.0
  0
VERTEX
  5
1C8
330
40
100
AcDbEntity
  8
STATE
 62
     2
100
AcDbVertex
100
AcDb2dVertex
 10
5.053310818142361
 20
3.245849609375
 30
0.0
  0
VERTEX
  5
1C9
330
40
100
AcDbEntity
  8
STATE
 62
     2
100
AcDbVertex
100
AcDb2dVertex
 10
4.983310275607638
 20
3.245849609375
 30
0.0
  0
VERTEX
  5
1CA
330
40
100
AcDbEntity
  8
STATE
 62
     2
100
AcDbVertex
100
AcDb2dVertex
 10
4.95330810546875
 20
3.245849609375
 30
0.0
  0
VERTEX
  5
1CB
330
40
100
AcDbEntity
  8
STATE
 62
     2
100
AcDbVertex
100
AcDb2dVertex
 10
4.946641710069444
 20
3.245849609375
 30
0.0
  0
VERTEX
  5
1CC
330
40
100
AcDbEntity
  8
STATE
 62
     2
100
AcDbVertex
100
AcDb2dVertex
 10
4.943311903211805
 20
3.242513020833333
 30
0.0
  0
VERTEX
  5
1CD
330
40
100
AcDbEntity
  8
STATE
 62
     2
100
AcDbVertex
100
AcDb2dVertex
 10
4.933308919270833
 20
3.239176432291667
 30
0.0
  0
VERTEX
  5
1CE
330
40
100
AcDbEntity
  8
STATE
 62
     2
100
AcDbVertex
100
AcDb2dVertex
 10
4.916646321614583
 20
3.205837673611111
 30
0.0
  0
VERTEX
  5
1CF
330
40
100
AcDbEntity
  8
STATE
 62
     2
100
AcDbVertex
100
AcDb2dVertex
 10
4.913309733072916
 20
3.199178059895833
 30
0.0
  0
VERTEX
  5
1D0
330
40
100
AcDbEntity
  8
STATE
 62
     2
100
AcDbVertex
100
AcDb2dVertex
 10
4.886644151475694
 20
3.189168294270833
 30
0.0
  0
VERTEX
  5
1D1
330
40
100
AcDbEntity
  8
STATE
 62
     2
100
AcDbVertex
100
AcDb2dVertex
 10
4.876641167534722
 20
3.189168294270833
 30
0.0
  0
VERTEX
  5
1D2
330
40
100
AcDbEntity
  8
STATE
 62
     2
100
AcDbVertex
100
AcDb2dVertex
 10
4.779975043402778
 20
3.175835503472222
 30
0.0
  0
VERTEX
  5
1D3
330
40
100
AcDbEntity
  8
STATE
 62
     2
100
AcDbVertex
100
AcDb2dVertex
 10
4.773308648003472
 20
3.172498914930555
 30
0.0
  0
VERTEX
  5
1D4
330
40
100
AcDbEntity
  8
STATE
 62
     2
100
AcDbVertex
100
AcDb2dVertex
 10
4.70330810546875
 20
3.179172092013889
 30
0.0
  0
VERTEX
  5
1D5
330
40
100
AcDbEntity
  8
STATE
 62
     2
100
AcDbVertex
100
AcDb2dVertex
 10
4.676642523871528
 20
3.189168294270833
 30
0.0
  0
VERTEX
  5
1D6
330
40
100
AcDbEntity
  8
STATE
 62
     2
100
AcDbVertex
100
AcDb2dVertex
 10
4.673312717013888
 20
3.189168294270833
 30
0.0
  0
VERTEX
  5
1D7
330
40
100
AcDbEntity
  8
STATE
 62
     2
100
AcDbVertex
100
AcDb2dVertex
 10
4.656643337673611
 20
3.199178059895833
 30
0.0
  0
VERTEX
  5
1D8
330
40
100
AcDbEntity
  8
STATE
 62
     2
100
AcDbVertex
100
AcDb2dVertex
 10
4.649976942274305
 20
3.2025146484375
 30
0.0
  0
VERTEX
  5
1D9
330
40
100
AcDbEntity
  8
STATE
 62
     2
100
AcDbVertex
100
AcDb2dVertex
 10
4.663309733072916
 20
3.225843641493055
 30
0.0
  0
VERTEX
  5
1DA
330
40
100
AcDbEntity
  8
STATE
 62
     2
100
AcDbVertex
100
AcDb2dVertex
 10
4.696641710069444
 20
3.239176432291667
 30
0.0
  0
VERTEX
  5
1DB
330
40
100
AcDbEntity
  8
STATE
 62
     2
100
AcDbVertex
100
AcDb2dVertex
 10
4.706644694010416
 20
3.242513020833333
 30
0.0
  0
VERTEX
  5
1DC
330
40
100
AcDbEntity
  8
STATE
 62
     2
100
AcDbVertex
100
AcDb2dVertex
 10
4.709974500868055
 20
3.262518988715278
 30
0.0
  0
VERTEX
  5
1DD
330
40
100
AcDbEntity
  8
STATE
 62
     2
100
AcDbVertex
100
AcDb2dVertex
 10
4.70330810546875
 20
3.275851779513889
 30
0.0
  0
VERTEX
  5
1DE
330
40
100
AcDbEntity
  8
STATE
 62
     2
100
AcDbVertex
100
AcDb2dVertex
 10
4.699978298611111
 20
3.282524956597222
 30
0.0
  0
VERTEX
  5
1DF
330
40
100
AcDbEntity
  8
STATE
 62
     2
100
AcDbVertex
100
AcDb2dVertex
 10
4.659979926215278
 20
3.342529296875
 30
0.0
  0
VERTEX
  5
1E0
330
40
100
AcDbEntity
  8
STATE
 62
     2
100
AcDbVertex
100
AcDb2dVertex
 10
4.636644151475694
 20
3.379204644097222
 30
0.0
  0
VERTEX
  5
1E1
330
40
100
AcDbEntity
  8
STATE
 62
     2
100
AcDbVertex
100
AcDb2dVertex
 10
4.5999755859375
 20
3.375881618923611
 30
0.0
  0
VERTEX
  5
1E2
330
40
100
AcDbEntity
  8
STATE
 62
     2
100
AcDbVertex
100
AcDb2dVertex
 10
4.593309190538194
 20
3.375881618923611
 30
0.0
  0
VERTEX
  5
1E3
330
40
100
AcDbEntity
  8
STATE
 62
     2
100
AcDbVertex
100
AcDb2dVertex
 10
4.576646592881944
 20
3.365871853298611
 30
0.0
  0
VERTEX
  5
1E4
330
40
100
AcDbEntity
  8
STATE
 62
     2
100
AcDbVertex
100
AcDb2dVertex
 10
4.573310004340278
 20
3.339206271701389
 30
0.0
  0
VERTEX
  5
1E5
330
40
100
AcDbEntity
  8
STATE
 62
     2
100
AcDbVertex
100
AcDb2dVertex
 10
4.573310004340278
 20
3.315863715277778
 30
0.0
  0
VERTEX
  5
1E6
330
40
100
AcDbEntity
  8
STATE
 62
     2
100
AcDbVertex
100
AcDb2dVertex
 10
4.569980197482638
 20
3.309190538194444
 30
0.0
  0
VERTEX
  5
1E7
330
40
100
AcDbEntity
  8
STATE
 62
     2
100
AcDbVertex
100
AcDb2dVertex
 10
4.523308648003472
 20
3.275851779513889
 30
0.0
  0
VERTEX
  5
1E8
330
40
100
AcDbEntity
  8
STATE
 62
     2
100
AcDbVertex
100
AcDb2dVertex
 10
4.49664306640625
 20
3.255859375
 30
0.0
  0
VERTEX
  5
1E9
330
40
100
AcDbEntity
  8
STATE
 62
     2
100
AcDbVertex
100
AcDb2dVertex
 10
4.463311089409722
 20
3.245849609375
 30
0.0
  0
VERTEX
  5
1EA
330
40
100
AcDbEntity
  8
STATE
 62
     2
100
AcDbVertex
100
AcDb2dVertex
 10
4.393310546875
 20
3.229180230034722
 30
0.0
  0
VERTEX
  5
1EB
330
40
100
AcDbEntity
  8
STATE
 62
     2
100
AcDbVertex
100
AcDb2dVertex
 10
4.369981553819445
 20
3.222520616319444
 30
0.0
  0
VERTEX
  5
1EC
330
40
100
AcDbEntity
  8
STATE
 62
     2
100
AcDbVertex
100
AcDb2dVertex
 10
4.359978569878472
 20
3.219184027777778
 30
0.0
  0
VERTEX
  5
1ED
330
40
100
AcDbEntity
  8
STATE
 62
     2
100
AcDbVertex
100
AcDb2dVertex
 10
4.343315972222222
 20
3.205837673611111
 30
0.0
  0
VERTEX
  5
1EE
330
40
100
AcDbEntity
  8
STATE
 62
     2
100
AcDbVertex
100
AcDb2dVertex
 10
4.319980197482638
 20
3.1925048828125
 30
0.0
  0
VERTEX
  5
1EF
330
40
100
AcDbEntity
  8
STATE
 62
     2
100
AcDbVertex
100
AcDb2dVertex
 10
4.293314615885416
 20
3.169175889756944
 30
0.0
  0
VERTEX
  5
1F0
330
40
100
AcDbEntity
  8
STATE
 62
     2
100
AcDbVertex
100
AcDb2dVertex
 10
4.28997802734375
 20
3.165839301215278
 30
0.0
  0
VERTEX
  5
1F1
330
40
100
AcDbEntity
  8
STATE
 62
     2
100
AcDbVertex
100
AcDb2dVertex
 10
4.269978841145833
 20
3.152506510416667
 30
0.0
  0
VERTEX
  5
1F2
330
40
100
AcDbEntity
  8
STATE
 62
     2
100
AcDbVertex
100
AcDb2dVertex
 10
4.266649034288195
 20
3.149169921875
 30
0.0
  0
VERTEX
  5
1F3
330
40
100
AcDbEntity
  8
STATE
 62
     2
100
AcDbVertex
100
AcDb2dVertex
 10
4.246649848090278
 20
3.135837131076389
 30
0.0
  0
VERTEX
  5
1F4
330
40
100
AcDbEntity
  8
STATE
 62
     2
100
AcDbVertex
100
AcDb2dVertex
 10
4.243313259548611
 20
3.132500542534722
 30
0.0
  0
VERTEX
  5
1F5
330
40
100
AcDbEntity
  8
STATE
 62
     2
100
AcDbVertex
100
AcDb2dVertex
 10
4.236646864149305
 20
3.125840928819444
 30
0.0
  0
VERTEX
  5
1F6
330
40
100
AcDbEntity
  8
STATE
 62
     2
100
AcDbVertex
100
AcDb2dVertex
 10
4.203314887152778
 20
3.099161783854167
 30
0.0
  0
VERTEX
  5
1F7
330
40
100
AcDbEntity
  8
STATE
 62
     2
100
AcDbVertex
100
AcDb2dVertex
 10
4.183315700954861
 20
3.075832790798611
 30
0.0
  0
VERTEX
  5
1F8
330
40
100
AcDbEntity
  8
STATE
 62
     2
100
AcDbVertex
100
AcDb2dVertex
 10
4.176649305555555
 20
3.072482638888889
 30
0.0
  0
VERTEX
  5
1F9
330
40
100
AcDbEntity
  8
STATE
 62
     2
100
AcDbVertex
100
AcDb2dVertex
 10
4.16998291015625
 20
3.062486436631944
 30
0.0
  0
VERTEX
  5
1FA
330
40
100
AcDbEntity
  8
STATE
 62
     2
100
AcDbVertex
100
AcDb2dVertex
 10
4.166646321614583
 20
3.059163411458333
 30
0.0
  0
VERTEX
  5
1FB
330
40
100
AcDbEntity
  8
STATE
 62
     2
100
AcDbVertex
100
AcDb2dVertex
 10
4.146647135416666
 20
3.032484266493055
 30
0.0
  0
VERTEX
  5
1FC
330
40
100
AcDbEntity
  8
STATE
 62
     2
100
AcDbVertex
100
AcDb2dVertex
 10
4.12664794921875
 20
3.005818684895833
 30
0.0
  0
VERTEX
  5
1FD
330
40
100
AcDbEntity
  8
STATE
 62
     2
100
AcDbVertex
100
AcDb2dVertex
 10
4.099982367621528
 20
2.985812717013889
 30
0.0
  0
VERTEX
  5
1FE
330
40
100
AcDbEntity
  8
STATE
 62
     2
100
AcDbVertex
100
AcDb2dVertex
 10
4.089979383680555
 20
2.975802951388889
 30
0.0
  0
VERTEX
  5
1FF
330
40
100
AcDbEntity
  8
STATE
 62
     2
100
AcDbVertex
100
AcDb2dVertex
 10
4.063313802083333
 20
2.975802951388889
 30
0.0
  0
VERTEX
  5
200
330
40
100
AcDbEntity
  8
STATE
 62
     2
100
AcDbVertex
100
AcDb2dVertex
 10
4.059977213541666
 20
2.979139539930555
 30
0.0
  0
VERTEX
  5
201
330
40
100
AcDbEntity
  8
STATE
 62
     2
100
AcDbVertex
100
AcDb2dVertex
 10
4.059977213541666
 20
2.989149305555555
 30
0.0
  0
VERTEX
  5
202
330
40
100
AcDbEntity
  8
STATE
 62
     2
100
AcDbVertex
100
AcDb2dVertex
 10
4.049981011284722
 20
2.992485894097222
 30
0.0
  0
VERTEX
  5
203
330
40
100
AcDbEntity
  8
STATE
 62
     2
100
AcDbVertex
100
AcDb2dVertex
 10
3.986646864149305
 20
2.9991455078125
 30
0.0
  0
VERTEX
  5
204
330
40
100
AcDbEntity
  8
STATE
 62
     2
100
AcDbVertex
100
AcDb2dVertex
 10
3.929979112413194
 20
3.005818684895833
 30
0.0
  0
VERTEX
  5
205
330
40
100
AcDbEntity
  8
STATE
 62
     2
100
AcDbVertex
100
AcDb2dVertex
 10
3.913316514756944
 20
3.005818684895833
 30
0.0
  0
VERTEX
  5
206
330
40
100
AcDbEntity
  8
STATE
 62
     2
100
AcDbVertex
100
AcDb2dVertex
 10
3.909979926215278
 20
3.005818684895833
 30
0.0
  0
VERTEX
  5
207
330
40
100
AcDbEntity
  8
STATE
 62
     2
100
AcDbVertex
100
AcDb2dVertex
 10
3.906650119357639
 20
3.005818684895833
 30
0.0
  0
VERTEX
  5
208
330
40
100
AcDbEntity
  8
STATE
 62
     2
100
AcDbVertex
100
AcDb2dVertex
 10
3.886650933159722
 20
2.9991455078125
 30
0.0
  0
VERTEX
  5
209
330
40
100
AcDbEntity
  8
STATE
 62
     2
100
AcDbVertex
100
AcDb2dVertex
 10
3.883314344618055
 20
2.9991455078125
 30
0.0
  0
VERTEX
  5
20A
330
40
100
AcDbEntity
  8
STATE
 62
     2
100
AcDbVertex
100
AcDb2dVertex
 10
3.859978569878472
 20
2.989149305555555
 30
0.0
  0
VERTEX
  5
20B
330
40
100
AcDbEntity
  8
STATE
 62
     2
100
AcDbVertex
100
AcDb2dVertex
 10
3.783318413628472
 20
2.939141167534722
 30
0.0
  0
VERTEX
  5
20C
330
40
100
AcDbEntity
  8
STATE
 62
     2
100
AcDbVertex
100
AcDb2dVertex
 10
3.779981825086805
 20
2.939141167534722
 30
0.0
  0
VERTEX
  5
20D
330
40
100
AcDbEntity
  8
STATE
 62
     2
100
AcDbVertex
100
AcDb2dVertex
 10
3.756646050347222
 20
2.925794813368055
 30
0.0
  0
VERTEX
  5
20E
330
40
100
AcDbEntity
  8
STATE
 62
     2
100
AcDbVertex
100
AcDb2dVertex
 10
3.753316243489583
 20
2.922471788194444
 30
0.0
  0
VERTEX
  5
20F
330
40
100
AcDbEntity
  8
STATE
 62
     2
100
AcDbVertex
100
AcDb2dVertex
 10
3.743313259548611
 20
2.9124755859375
 30
0.0
  0
VERTEX
  5
210
330
40
100
AcDbEntity
  8
STATE
 62
     2
100
AcDbVertex
100
AcDb2dVertex
 10
3.719984266493055
 20
2.895806206597222
 30
0.0
  0
VERTEX
  5
211
330
40
100
AcDbEntity
  8
STATE
 62
     2
100
AcDbVertex
100
AcDb2dVertex
 10
3.699985080295139
 20
2.875786675347222
 30
0.0
  0
VERTEX
  5
212
330
40
100
AcDbEntity
  8
STATE
 62
     2
100
AcDbVertex
100
AcDb2dVertex
 10
3.693318684895833
 20
2.869127061631944
 30
0.0
  0
VERTEX
  5
213
330
40
100
AcDbEntity
  8
STATE
 62
     2
100
AcDbVertex
100
AcDb2dVertex
 10
3.623318142361111
 20
2.812459309895833
 30
0.0
  0
VERTEX
  5
214
330
40
100
AcDbEntity
  8
STATE
 62
     2
100
AcDbVertex
100
AcDb2dVertex
 10
3.6099853515625
 20
2.795789930555555
 30
0.0
  0
VERTEX
  5
215
330
40
100
AcDbEntity
  8
STATE
 62
     2
100
AcDbVertex
100
AcDb2dVertex
 10
3.606648763020833
 20
2.782443576388889
 30
0.0
  0
VERTEX
  5
216
330
40
100
AcDbEntity
  8
STATE
 62
     2
100
AcDbVertex
100
AcDb2dVertex
 10
3.599982367621528
 20
2.749104817708333
 30
0.0
  0
VERTEX
  5
217
330
40
100
AcDbEntity
  8
STATE
 62
     2
100
AcDbVertex
100
AcDb2dVertex
 10
3.599982367621528
 20
2.735772026909722
 30
0.0
  0
VERTEX
  5
218
330
40
100
AcDbEntity
  8
STATE
 62
     2
100
AcDbVertex
100
AcDb2dVertex
 10
3.6099853515625
 20
2.715766059027778
 30
0.0
  0
VERTEX
  5
219
330
40
100
AcDbEntity
  8
STATE
 62
     2
100
AcDbVertex
100
AcDb2dVertex
 10
3.596652560763889
 20
2.702433268229167
 30
0.0
  0
VERTEX
  5
21A
330
40
100
AcDbEntity
  8
STATE
 62
     2
100
AcDbVertex
100
AcDb2dVertex
 10
3.583319769965278
 20
2.6990966796875
 30
0.0
  0
VERTEX
  5
21B
330
40
100
AcDbEntity
  8
STATE
 62
     2
100
AcDbVertex
100
AcDb2dVertex
 10
3.496649848090278
 20
2.682427300347222
 30
0.0
  0
VERTEX
  5
21C
330
40
100
AcDbEntity
  8
STATE
 62
     2
100
AcDbVertex
100
AcDb2dVertex
 10
3.459981282552083
 20
2.692437065972222
 30
0.0
  0
VERTEX
  5
21D
330
40
100
AcDbEntity
  8
STATE
 62
     2
100
AcDbVertex
100
AcDb2dVertex
 10
3.323316786024305
 20
2.742445203993055
 30
0.0
  0
VERTEX
  5
21E
330
40
100
AcDbEntity
  8
STATE
 62
     2
100
AcDbVertex
100
AcDb2dVertex
 10
3.293314615885417
 20
2.75244140625
 30
0.0
  0
VERTEX
  5
21F
330
40
100
AcDbEntity
  8
STATE
 62
     2
100
AcDbVertex
100
AcDb2dVertex
 10
3.289984809027778
 20
2.775783962673611
 30
0.0
  0
VERTEX
  5
220
330
40
100
AcDbEntity
  8
STATE
 62
     2
100
AcDbVertex
100
AcDb2dVertex
 10
3.269985622829861
 20
2.779106987847222
 30
0.0
  0
VERTEX
  5
221
330
40
100
AcDbEntity
  8
STATE
 62
     2
100
AcDbVertex
100
AcDb2dVertex
 10
3.259982638888889
 20
2.782443576388889
 30
0.0
  0
VERTEX
  5
222
330
40
100
AcDbEntity
  8
STATE
 62
     2
100
AcDbVertex
100
AcDb2dVertex
 10
3.253316243489583
 20
2.782443576388889
 30
0.0
  0
VERTEX
  5
223
330
40
100
AcDbEntity
  8
STATE
 62
     2
100
AcDbVertex
100
AcDb2dVertex
 10
3.236653645833333
 20
2.779106987847222
 30
0.0
  0
VERTEX
  5
224
330
40
100
AcDbEntity
  8
STATE
 62
     2
100
AcDbVertex
100
AcDb2dVertex
 10
3.21331787109375
 20
2.769110785590278
 30
0.0
  0
VERTEX
  5
225
330
40
100
AcDbEntity
  8
STATE
 62
     2
100
AcDbVertex
100
AcDb2dVertex
 10
3.123318142361111
 20
2.739108615451389
 30
0.0
  0
VERTEX
  5
226
330
40
100
AcDbEntity
  8
STATE
 62
     2
100
AcDbVertex
100
AcDb2dVertex
 10
3.033318413628472
 20
2.685763888888889
 30
0.0
  0
VERTEX
  5
227
330
40
100
AcDbEntity
  8
STATE
 62
     2
100
AcDbVertex
100
AcDb2dVertex
 10
2.996649848090278
 20
2.662421332465278
 30
0.0
  0
VERTEX
  5
228
330
40
100
AcDbEntity
  8
STATE
 62
     2
100
AcDbVertex
100
AcDb2dVertex
 10
2.993320041232639
 20
2.662421332465278
 30
0.0
  0
VERTEX
  5
229
330
40
100
AcDbEntity
  8
STATE
 62
     2
100
AcDbVertex
100
AcDb2dVertex
 10
2.993320041232639
 20
2.659098307291667
 30
0.0
  0
VERTEX
  5
22A
330
40
100
AcDbEntity
  8
STATE
 62
     2
100
AcDbVertex
100
AcDb2dVertex
 10
2.959988064236111
 20
2.669094509548611
 30
0.0
  0
VERTEX
  5
22B
330
40
100
AcDbEntity
  8
STATE
 62
     2
100
AcDbVertex
100
AcDb2dVertex
 10
2.953321668836805
 20
2.662421332465278
 30
0.0
  0
VERTEX
  5
22C
330
40
100
AcDbEntity
  8
STATE
 62
     2
100
AcDbVertex
100
AcDb2dVertex
 10
2.936652289496528
 20
2.639092339409722
 30
0.0
  0
VERTEX
  5
22D
330
40
100
AcDbEntity
  8
STATE
 62
     2
100
AcDbVertex
100
AcDb2dVertex
 10
2.906650119357639
 20
2.595743815104167
 30
0.0
  0
VERTEX
  5
22E
330
40
100
AcDbEntity
  8
STATE
 62
     2
100
AcDbVertex
100
AcDb2dVertex
 10
2.893317328559028
 20
2.575737847222222
 30
0.0
  0
VERTEX
  5
22F
330
40
100
AcDbEntity
  8
STATE
 62
     2
100
AcDbVertex
100
AcDb2dVertex
 10
2.819986979166667
 20
2.532416449652778
 30
0.0
  0
VERTEX
  5
230
330
40
100
AcDbEntity
  8
STATE
 62
     2
100
AcDbVertex
100
AcDb2dVertex
 10
2.79998779296875
 20
2.539076063368055
 30
0.0
  0
VERTEX
  5
231
330
40
100
AcDbEntity
  8
STATE
 62
     2
100
AcDbVertex
100
AcDb2dVertex
 10
2.6966552734375
 20
2.582424587673611
 30
0.0
  0
VERTEX
  5
232
330
40
100
AcDbEntity
  8
STATE
 62
     2
100
AcDbVertex
100
AcDb2dVertex
 10
2.693318684895833
 20
2.585747612847222
 30
0.0
  0
VERTEX
  5
233
330
40
100
AcDbEntity
  8
STATE
 62
     2
100
AcDbVertex
100
AcDb2dVertex
 10
2.643324110243055
 20
2.572414822048611
 30
0.0
  0
VERTEX
  5
234
330
40
100
AcDbEntity
  8
STATE
 62
     2
100
AcDbVertex
100
AcDb2dVertex
 10
2.633321126302083
 20
2.569078233506944
 30
0.0
  0
VERTEX
  5
235
330
40
100
AcDbEntity
  8
STATE
 62
     2
100
AcDbVertex
100
AcDb2dVertex
 10
2.633321126302083
 20
2.565755208333333
 30
0.0
  0
VERTEX
  5
236
330
40
100
AcDbEntity
  8
STATE
 62
     2
100
AcDbVertex
100
AcDb2dVertex
 10
2.629984537760417
 20
2.565755208333333
 30
0.0
  0
VERTEX
  5
237
330
40
100
AcDbEntity
  8
STATE
 62
     2
100
AcDbVertex
100
AcDb2dVertex
 10
2.563320583767361
 20
2.525729709201389
 30
0.0
  0
VERTEX
  5
238
330
40
100
AcDbEntity
  8
STATE
 62
     2
100
AcDbVertex
100
AcDb2dVertex
 10
2.523322211371528
 20
2.512410481770833
 30
0.0
  0
VERTEX
  5
239
330
40
100
AcDbEntity
  8
STATE
 62
     2
100
AcDbVertex
100
AcDb2dVertex
 10
2.466654459635417
 20
2.492404513888889
 30
0.0
  0
VERTEX
  5
23A
330
40
100
AcDbEntity
  8
STATE
 62
     2
100
AcDbVertex
100
AcDb2dVertex
 10
2.383321126302083
 20
2.482394748263889
 30
0.0
  0
VERTEX
  5
23B
330
40
100
AcDbEntity
  8
STATE
 62
     2
100
AcDbVertex
100
AcDb2dVertex
 10
2.383321126302083
 20
2.479071723090278
 30
0.0
  0
VERTEX
  5
23C
330
40
100
AcDbEntity
  8
STATE
 62
     2
100
AcDbVertex
100
AcDb2dVertex
 10
2.263319227430555
 20
2.46240234375
 30
0.0
  0
VERTEX
  5
23D
330
40
100
AcDbEntity
  8
STATE
 62
     2
100
AcDbVertex
100
AcDb2dVertex
 10
2.253323025173611
 20
2.46240234375
 30
0.0
  0
VERTEX
  5
23E
330
40
100
AcDbEntity
  8
STATE
 62
     2
100
AcDbVertex
100
AcDb2dVertex
 10
2.1966552734375
 20
2.415717230902778
 30
0.0
  0
VERTEX
  5
23F
330
40
100
AcDbEntity
  8
STATE
 62
     2
100
AcDbVertex
100
AcDb2dVertex
 10
2.1533203125
 20
2.379041883680555
 30
0.0
  0
VERTEX
  5
240
330
40
100
AcDbEntity
  8
STATE
 62
     2
100
AcDbVertex
100
AcDb2dVertex
 10
2.143324110243055
 20
2.375718858506944
 30
0.0
  0
VERTEX
  5
241
330
40
100
AcDbEntity
  8
STATE
 62
     2
100
AcDbVertex
100
AcDb2dVertex
 10
2.1099853515625
 20
2.372382269965278
 30
0.0
  0
VERTEX
  5
242
330
40
100
AcDbEntity
  8
STATE
 62
     2
100
AcDbVertex
100
AcDb2dVertex
 10
2.103318956163194
 20
2.365709092881944
 30
0.0
  0
VERTEX
  5
243
330
40
100
AcDbEntity
  8
STATE
 62
     2
100
AcDbVertex
100
AcDb2dVertex
 10
2.043328179253472
 20
2.305704752604167
 30
0.0
  0
VERTEX
  5
244
330
40
100
AcDbEntity
  8
STATE
 62
     2
100
AcDbVertex
100
AcDb2dVertex
 10
2.019985622829861
 20
2.289035373263889
 30
0.0
  0
VERTEX
  5
245
330
40
100
AcDbEntity
  8
STATE
 62
     2
100
AcDbVertex
100
AcDb2dVertex
 10
2.016655815972222
 20
2.285698784722222
 30
0.0
  0
VERTEX
  5
246
330
40
100
AcDbEntity
  8
STATE
 62
     2
100
AcDbVertex
100
AcDb2dVertex
 10
2.00665283203125
 20
2.275702582465278
 30
0.0
  0
VERTEX
  5
247
330
40
100
AcDbEntity
  8
STATE
 62
     2
100
AcDbVertex
100
AcDb2dVertex
 10
1.933322482638889
 20
2.219021267361111
 30
0.0
  0
VERTEX
  5
248
330
40
100
AcDbEntity
  8
STATE
 62
     2
100
AcDbVertex
100
AcDb2dVertex
 10
1.873324924045139
 20
2.222357855902778
 30
0.0
  0
VERTEX
  5
249
330
40
100
AcDbEntity
  8
STATE
 62
     2
100
AcDbVertex
100
AcDb2dVertex
 10
1.869988335503472
 20
2.222357855902778
 30
0.0
  0
VERTEX
  5
24A
330
40
100
AcDbEntity
  8
STATE
 62
     2
100
AcDbVertex
100
AcDb2dVertex
 10
1.866658528645833
 20
2.222357855902778
 30
0.0
  0
VERTEX
  5
24B
330
40
100
AcDbEntity
  8
STATE
 62
     2
100
AcDbVertex
100
AcDb2dVertex
 10
1.853325737847222
 20
2.222357855902778
 30
0.0
  0
VERTEX
  5
24C
330
40
100
AcDbEntity
  8
STATE
 62
     2
100
AcDbVertex
100
AcDb2dVertex
 10
1.836656358506944
 20
2.2156982421875
 30
0.0
  0
VERTEX
  5
24D
330
40
100
AcDbEntity
  8
STATE
 62
     2
100
AcDbVertex
100
AcDb2dVertex
 10
1.796657986111111
 20
2.202351888020833
 30
0.0
  0
VERTEX
  5
24E
330
40
100
AcDbEntity
  8
STATE
 62
     2
100
AcDbVertex
100
AcDb2dVertex
 10
1.779988606770833
 20
2.199028862847222
 30
0.0
  0
VERTEX
  5
24F
330
40
100
AcDbEntity
  8
STATE
 62
     2
100
AcDbVertex
100
AcDb2dVertex
 10
1.763326009114583
 20
2.192355685763889
 30
0.0
  0
VERTEX
  5
250
330
40
100
AcDbEntity
  8
STATE
 62
     2
100
AcDbVertex
100
AcDb2dVertex
 10
1.713324652777778
 20
2.112345377604167
 30
0.0
  0
VERTEX
  5
251
330
40
100
AcDbEntity
  8
STATE
 62
     2
100
AcDbVertex
100
AcDb2dVertex
 10
1.653327094184028
 20
2.159016927083333
 30
0.0
  0
VERTEX
  5
252
330
40
100
AcDbEntity
  8
STATE
 62
     2
100
AcDbVertex
100
AcDb2dVertex
 10
1.633327907986111
 20
2.175686306423611
 30
0.0
  0
VERTEX
  5
253
330
40
100
AcDbEntity
  8
STATE
 62
     2
100
AcDbVertex
100
AcDb2dVertex
 10
1.623324924045139
 20
2.172349717881944
 30
0.0
  0
VERTEX
  5
254
330
40
100
AcDbEntity
  8
STATE
 62
     2
100
AcDbVertex
100
AcDb2dVertex
 10
1.51666259765625
 20
2.129014756944444
 30
0.0
  0
VERTEX
  5
255
330
40
100
AcDbEntity
  8
STATE
 62
     2
100
AcDbVertex
100
AcDb2dVertex
 10
1.513326009114583
 20
2.125678168402778
 30
0.0
  0
VERTEX
  5
256
330
40
100
AcDbEntity
  8
STATE
 62
     2
100
AcDbVertex
100
AcDb2dVertex
 10
1.513326009114583
 20
2.079006618923611
 30
0.0
  0
VERTEX
  5
257
330
40
100
AcDbEntity
  8
STATE
 62
     2
100
AcDbVertex
100
AcDb2dVertex
 10
1.483330620659722
 20
2.025661892361111
 30
0.0
  0
VERTEX
  5
258
330
40
100
AcDbEntity
  8
STATE
 62
     2
100
AcDbVertex
100
AcDb2dVertex
 10
1.449991861979167
 20
2.0123291015625
 30
0.0
  0
VERTEX
  5
259
330
40
100
AcDbEntity
  8
STATE
 62
     2
100
AcDbVertex
100
AcDb2dVertex
 10
1.439988878038194
 20
2.042331271701389
 30
0.0
  0
VERTEX
  5
25A
330
40
100
AcDbEntity
  8
STATE
 62
     2
100
AcDbVertex
100
AcDb2dVertex
 10
1.443325466579861
 20
2.075670030381944
 30
0.0
  0
VERTEX
  5
25B
330
40
100
AcDbEntity
  8
STATE
 62
     2
100
AcDbVertex
100
AcDb2dVertex
 10
1.42999267578125
 20
2.092339409722222
 30
0.0
  0
VERTEX
  5
25C
330
40
100
AcDbEntity
  8
STATE
 62
     2
100
AcDbVertex
100
AcDb2dVertex
 10
1.419989691840278
 20
2.092339409722222
 30
0.0
  0
VERTEX
  5
25D
330
40
100
AcDbEntity
  8
STATE
 62
     2
100
AcDbVertex
100
AcDb2dVertex
 10
1.416659884982639
 20
2.092339409722222
 30
0.0
  0
VERTEX
  5
25E
330
40
100
AcDbEntity
  8
STATE
 62
     2
100
AcDbVertex
100
AcDb2dVertex
 10
1.409993489583333
 20
2.089002821180555
 30
0.0
  0
VERTEX
  5
25F
330
40
100
AcDbEntity
  8
STATE
 62
     2
100
AcDbVertex
100
AcDb2dVertex
 10
1.396660698784722
 20
2.082329644097222
 30
0.0
  0
VERTEX
  5
260
330
40
100
AcDbEntity
  8
STATE
 62
     2
100
AcDbVertex
100
AcDb2dVertex
 10
1.333326551649306
 20
2.052341037326389
 30
0.0
  0
VERTEX
  5
261
330
40
100
AcDbEntity
  8
STATE
 62
     2
100
AcDbVertex
100
AcDb2dVertex
 10
1.32666015625
 20
2.048990885416667
 30
0.0
  0
VERTEX
  5
262
330
40
100
AcDbEntity
  8
STATE
 62
     2
100
AcDbVertex
100
AcDb2dVertex
 10
1.279995388454861
 20
2.015652126736111
 30
0.0
  0
VERTEX
  5
263
330
40
100
AcDbEntity
  8
STATE
 62
     2
100
AcDbVertex
100
AcDb2dVertex
 10
1.269992404513889
 20
2.002332899305555
 30
0.0
  0
VERTEX
  5
264
330
40
100
AcDbEntity
  8
STATE
 62
     2
100
AcDbVertex
100
AcDb2dVertex
 10
1.249993218315972
 20
1.985663519965278
 30
0.0
  0
VERTEX
  5
265
330
40
100
AcDbEntity
  8
STATE
 62
     2
100
AcDbVertex
100
AcDb2dVertex
 10
1.239990234375
 20
1.935655381944444
 30
0.0
  0
VERTEX
  5
266
330
40
100
AcDbEntity
  8
STATE
 62
     2
100
AcDbVertex
100
AcDb2dVertex
 10
1.166659884982639
 20
1.932318793402778
 30
0.0
  0
VERTEX
  5
267
330
40
100
AcDbEntity
  8
STATE
 62
     2
100
AcDbVertex
100
AcDb2dVertex
 10
1.163323296440972
 20
1.975653754340278
 30
0.0
  0
VERTEX
  5
268
330
40
100
AcDbEntity
  8
STATE
 62
     2
100
AcDbVertex
100
AcDb2dVertex
 10
1.163323296440972
 20
1.982326931423611
 30
0.0
  0
VERTEX
  5
269
330
40
100
AcDbEntity
  8
STATE
 62
     2
100
AcDbVertex
100
AcDb2dVertex
 10
1.106662326388889
 20
2.008992513020833
 30
0.0
  0
VERTEX
  5
26A
330
40
100
AcDbEntity
  8
STATE
 62
     2
100
AcDbVertex
100
AcDb2dVertex
 10
1.066663953993056
 20
2.005655924479167
 30
0.0
  0
VERTEX
  5
26B
330
40
100
AcDbEntity
  8
STATE
 62
     2
100
AcDbVertex
100
AcDb2dVertex
 10
0.9766642252604166
 20
1.975653754340278
 30
0.0
  0
VERTEX
  5
26C
330
40
100
AcDbEntity
  8
STATE
 62
     2
100
AcDbVertex
100
AcDb2dVertex
 10
0.8699951171875
 20
1.942314995659722
 30
0.0
  0
VERTEX
  5
26D
330
40
100
AcDbEntity
  8
STATE
 62
     2
100
AcDbVertex
100
AcDb2dVertex
 10
0.8633287217881944
 20
1.938978407118055
 30
0.0
  0
VERTEX
  5
26E
330
40
100
AcDbEntity
  8
STATE
 62
     2
100
AcDbVertex
100
AcDb2dVertex
 10
0.8599989149305555
 20
1.935655381944444
 30
0.0
  0
VERTEX
  5
26F
330
40
100
AcDbEntity
  8
STATE
 62
     2
100
AcDbVertex
100
AcDb2dVertex
 10
0.823330349392361
 20
1.902303059895833
 30
0.0
  0
VERTEX
  5
270
330
40
100
AcDbEntity
  8
STATE
 62
     2
100
AcDbVertex
100
AcDb2dVertex
 10
0.7899915907118055
 20
1.852294921875
 30
0.0
  0
VERTEX
  5
271
330
40
100
AcDbEntity
  8
STATE
 62
     2
100
AcDbVertex
100
AcDb2dVertex
 10
0.779995388454861
 20
1.865641276041667
 30
0.0
  0
VERTEX
  5
272
330
40
100
AcDbEntity
  8
STATE
 62
     2
100
AcDbVertex
100
AcDb2dVertex
 10
0.7833319769965277
 20
1.895643446180555
 30
0.0
  0
VERTEX
  5
273
330
40
100
AcDbEntity
  8
STATE
 62
     2
100
AcDbVertex
100
AcDb2dVertex
 10
0.7833319769965277
 20
1.898980034722222
 30
0.0
  0
VERTEX
  5
274
330
40
100
AcDbEntity
  8
STATE
 62
     2
100
AcDbVertex
100
AcDb2dVertex
 10
0.7833319769965277
 20
1.9056396484375
 30
0.0
  0
VERTEX
  5
275
330
40
100
AcDbEntity
  8
STATE
 62
     2
100
AcDbVertex
100
AcDb2dVertex
 10
0.779995388454861
 20
1.925645616319444
 30
0.0
  0
VERTEX
  5
276
330
40
100
AcDbEntity
  8
STATE
 62
     2
100
AcDbVertex
100
AcDb2dVertex
 10
0.7899915907118055
 20
1.942314995659722
 30
0.0
  0
VERTEX
  5
277
330
40
100
AcDbEntity
  8
STATE
 62
     2
100
AcDbVertex
100
AcDb2dVertex
 10
0.7899915907118055
 20
1.945651584201389
 30
0.0
  0
VERTEX
  5
278
330
40
100
AcDbEntity
  8
STATE
 62
     2
100
AcDbVertex
100
AcDb2dVertex
 10
0.7933281792534722
 20
1.948988172743055
 30
0.0
  0
VERTEX
  5
279
330
40
100
AcDbEntity
  8
STATE
 62
     2
100
AcDbVertex
100
AcDb2dVertex
 10
0.7999945746527777
 20
1.968994140625
 30
0.0
  0
VERTEX
  5
27A
330
40
100
AcDbEntity
  8
STATE
 62
     2
100
AcDbVertex
100
AcDb2dVertex
 10
0.8033311631944444
 20
1.975653754340278
 30
0.0
  0
VERTEX
  5
27B
330
40
100
AcDbEntity
  8
STATE
 62
     2
100
AcDbVertex
100
AcDb2dVertex
 10
0.8033311631944444
 20
1.985663519965278
 30
0.0
  0
VERTEX
  5
27C
330
40
100
AcDbEntity
  8
STATE
 62
     2
100
AcDbVertex
100
AcDb2dVertex
 10
0.8033311631944444
 20
1.988986545138889
 30
0.0
  0
VERTEX
  5
27D
330
40
100
AcDbEntity
  8
STATE
 62
     2
100
AcDbVertex
100
AcDb2dVertex
 10
0.8033311631944444
 20
1.992323133680555
 30
0.0
  0
VERTEX
  5
27E
330
40
100
AcDbEntity
  8
STATE
 62
     2
100
AcDbVertex
100
AcDb2dVertex
 10
0.7999945746527777
 20
1.992323133680555
 30
0.0
  0
VERTEX
  5
27F
330
40
100
AcDbEntity
  8
STATE
 62
     2
100
AcDbVertex
100
AcDb2dVertex
 10
0.7833319769965277
 20
2.0123291015625
 30
0.0
  0
VERTEX
  5
280
330
40
100
AcDbEntity
  8
STATE
 62
     2
100
AcDbVertex
100
AcDb2dVertex
 10
0.7733289930555555
 20
2.022325303819444
 30
0.0
  0
VERTEX
  5
281
330
40
100
AcDbEntity
  8
STATE
 62
     2
100
AcDbVertex
100
AcDb2dVertex
 10
0.7633260091145833
 20
2.032321506076389
 30
0.0
  0
VERTEX
  5
282
330
40
100
AcDbEntity
  8
STATE
 62
     2
100
AcDbVertex
100
AcDb2dVertex
 10
0.7466634114583333
 20
2.0556640625
 30
0.0
  0
VERTEX
  5
283
330
40
100
AcDbEntity
  8
STATE
 62
     2
100
AcDbVertex
100
AcDb2dVertex
 10
0.7433336046006944
 20
2.0556640625
 30
0.0
  0
VERTEX
  5
284
330
40
100
AcDbEntity
  8
STATE
 62
     2
100
AcDbVertex
100
AcDb2dVertex
 10
0.72332763671875
 20
2.082329644097222
 30
0.0
  0
VERTEX
  5
285
330
40
100
AcDbEntity
  8
STATE
 62
     2
100
AcDbVertex
100
AcDb2dVertex
 10
0.719997829861111
 20
2.085679796006944
 30
0.0
  0
VERTEX
  5
286
330
40
100
AcDbEntity
  8
STATE
 62
     2
100
AcDbVertex
100
AcDb2dVertex
 10
0.7166680230034722
 20
2.089002821180555
 30
0.0
  0
VERTEX
  5
287
330
40
100
AcDbEntity
  8
STATE
 62
     2
100
AcDbVertex
100
AcDb2dVertex
 10
0.6999986436631944
 20
2.112345377604167
 30
0.0
  0
VERTEX
  5
288
330
40
100
AcDbEntity
  8
STATE
 62
     2
100
AcDbVertex
100
AcDb2dVertex
 10
0.6733262803819444
 20
2.142347547743055
 30
0.0
  0
VERTEX
  5
289
330
40
100
AcDbEntity
  8
STATE
 62
     2
100
AcDbVertex
100
AcDb2dVertex
 10
0.6666666666666666
 20
2.155680338541667
 30
0.0
  0
VERTEX
  5
28A
330
40
100
AcDbEntity
  8
STATE
 62
     2
100
AcDbVertex
100
AcDb2dVertex
 10
0.660000271267361
 20
2.162353515625
 30
0.0
  0
VERTEX
  5
28B
330
40
100
AcDbEntity
  8
STATE
 62
     2
100
AcDbVertex
100
AcDb2dVertex
 10
0.6366644965277778
 20
2.189019097222222
 30
0.0
  0
VERTEX
  5
28C
330
40
100
AcDbEntity
  8
STATE
 62
     2
100
AcDbVertex
100
AcDb2dVertex
 10
0.6299981011284722
 20
2.199028862847222
 30
0.0
  0
VERTEX
  5
28D
330
40
100
AcDbEntity
  8
STATE
 62
     2
100
AcDbVertex
100
AcDb2dVertex
 10
0.5999959309895833
 20
2.232367621527778
 30
0.0
  0
VERTEX
  5
28E
330
40
100
AcDbEntity
  8
STATE
 62
     2
100
AcDbVertex
100
AcDb2dVertex
 10
0.5399983723958333
 20
2.309041341145833
 30
0.0
  0
VERTEX
  5
28F
330
40
100
AcDbEntity
  8
STATE
 62
     2
100
AcDbVertex
100
AcDb2dVertex
 10
0.4966634114583333
 20
2.362372504340278
 30
0.0
  0
VERTEX
  5
290
330
40
100
AcDbEntity
  8
STATE
 62
     2
100
AcDbVertex
100
AcDb2dVertex
 10
0.4866672092013888
 20
2.379041883680555
 30
0.0
  0
VERTEX
  5
291
330
40
100
AcDbEntity
  8
STATE
 62
     2
100
AcDbVertex
100
AcDb2dVertex
 10
0.4566650390625
 20
2.4090576171875
 30
0.0
  0
VERTEX
  5
292
330
40
100
AcDbEntity
  8
STATE
 62
     2
100
AcDbVertex
100
AcDb2dVertex
 10
0.4299994574652777
 20
2.445732964409722
 30
0.0
  0
VERTEX
  5
293
330
40
100
AcDbEntity
  8
STATE
 62
     2
100
AcDbVertex
100
AcDb2dVertex
 10
0.5933295355902778
 20
2.519070095486111
 30
0.0
  0
VERTEX
  5
294
330
40
100
AcDbEntity
  8
STATE
 62
     2
100
AcDbVertex
100
AcDb2dVertex
 10
0.5933295355902778
 20
2.522406684027778
 30
0.0
  0
VERTEX
  5
295
330
40
100
AcDbEntity
  8
STATE
 62
     2
100
AcDbVertex
100
AcDb2dVertex
 10
0.660000271267361
 20
2.552408854166667
 30
0.0
  0
VERTEX
  5
296
330
40
100
AcDbEntity
  8
STATE
 62
     2
100
AcDbVertex
100
AcDb2dVertex
 10
0.7266642252604166
 20
2.582424587673611
 30
0.0
  0
VERTEX
  5
297
330
40
100
AcDbEntity
  8
STATE
 62
     2
100
AcDbVertex
100
AcDb2dVertex
 10
0.7333306206597222
 20
2.585747612847222
 30
0.0
  0
VERTEX
  5
298
330
40
100
AcDbEntity
  8
STATE
 62
     2
100
AcDbVertex
100
AcDb2dVertex
 10
0.7733289930555555
 20
2.605753580729167
 30
0.0
  0
VERTEX
  5
299
330
40
100
AcDbEntity
  8
STATE
 62
     2
100
AcDbVertex
100
AcDb2dVertex
 10
0.883327907986111
 20
2.65576171875
 30
0.0
  0
VERTEX
  5
29A
330
40
100
AcDbEntity
  8
STATE
 62
     2
100
AcDbVertex
100
AcDb2dVertex
 10
0.910000271267361
 20
2.669094509548611
 30
0.0
  0
VERTEX
  5
29B
330
40
100
AcDbEntity
  8
STATE
 62
     2
100
AcDbVertex
100
AcDb2dVertex
 10
0.9199964735243055
 20
2.672431098090278
 30
0.0
  0
VERTEX
  5
29C
330
40
100
AcDbEntity
  8
STATE
 62
     2
100
AcDbVertex
100
AcDb2dVertex
 10
1.009996202256944
 20
2.712429470486111
 30
0.0
  0
VERTEX
  5
29D
330
40
100
AcDbEntity
  8
STATE
 62
     2
100
AcDbVertex
100
AcDb2dVertex
 10
1.099995930989583
 20
2.75244140625
 30
0.0
  0
VERTEX
  5
29E
330
40
100
AcDbEntity
  8
STATE
 62
     2
100
AcDbVertex
100
AcDb2dVertex
 10
1.1199951171875
 20
2.762451171875
 30
0.0
  0
VERTEX
  5
29F
330
40
100
AcDbEntity
  8
STATE
 62
     2
100
AcDbVertex
100
AcDb2dVertex
 10
1.156656901041667
 20
2.779106987847222
 30
0.0
  0
VERTEX
  5
2A0
330
40
100
AcDbEntity
  8
STATE
 62
     2
100
AcDbVertex
100
AcDb2dVertex
 10
1.193332248263889
 20
2.795789930555555
 30
0.0
  0
VERTEX
  5
2A1
330
40
100
AcDbEntity
  8
STATE
 62
     2
100
AcDbVertex
100
AcDb2dVertex
 10
1.26666259765625
 20
2.829128689236111
 30
0.0
  0
VERTEX
  5
2A2
330
40
100
AcDbEntity
  8
STATE
 62
     2
100
AcDbVertex
100
AcDb2dVertex
 10
1.316663953993056
 20
2.84912109375
 30
0.0
  0
VERTEX
  5
2A3
330
40
100
AcDbEntity
  8
STATE
 62
     2
100
AcDbVertex
100
AcDb2dVertex
 10
1.359992133246528
 20
2.872463650173611
 30
0.0
  0
VERTEX
  5
2A4
330
40
100
AcDbEntity
  8
STATE
 62
     2
100
AcDbVertex
100
AcDb2dVertex
 10
1.413323296440972
 20
2.895806206597222
 30
0.0
  0
VERTEX
  5
2A5
330
40
100
AcDbEntity
  8
STATE
 62
     2
100
AcDbVertex
100
AcDb2dVertex
 10
1.476664225260417
 20
2.925794813368055
 30
0.0
  0
VERTEX
  5
2A6
330
40
100
AcDbEntity
  8
STATE
 62
     2
100
AcDbVertex
100
AcDb2dVertex
 10
1.523322211371528
 20
2.94580078125
 30
0.0
  0
VERTEX
  5
2A7
330
40
100
AcDbEntity
  8
STATE
 62
     2
100
AcDbVertex
100
AcDb2dVertex
 10
1.5333251953125
 20
2.952473958333333
 30
0.0
  0
VERTEX
  5
2A8
330
40
100
AcDbEntity
  8
STATE
 62
     2
100
AcDbVertex
100
AcDb2dVertex
 10
1.549994574652778
 20
2.959133572048611
 30
0.0
  0
VERTEX
  5
2A9
330
40
100
AcDbEntity
  8
STATE
 62
     2
100
AcDbVertex
100
AcDb2dVertex
 10
1.57666015625
 20
2.972479926215278
 30
0.0
  0
VERTEX
  5
2AA
330
40
100
AcDbEntity
  8
STATE
 62
     2
100
AcDbVertex
100
AcDb2dVertex
 10
1.589992947048611
 20
2.975802951388889
 30
0.0
  0
VERTEX
  5
2AB
330
40
100
AcDbEntity
  8
STATE
 62
     2
100
AcDbVertex
100
AcDb2dVertex
 10
1.619988335503472
 20
2.989149305555555
 30
0.0
  0
VERTEX
  5
2AC
330
40
100
AcDbEntity
  8
STATE
 62
     2
100
AcDbVertex
100
AcDb2dVertex
 10
1.673326280381944
 20
3.015814887152778
 30
0.0
  0
VERTEX
  5
2AD
330
40
100
AcDbEntity
  8
STATE
 62
     2
100
AcDbVertex
100
AcDb2dVertex
 10
1.686659071180555
 20
3.019151475694444
 30
0.0
  0
VERTEX
  5
2AE
330
40
100
AcDbEntity
  8
STATE
 62
     2
100
AcDbVertex
100
AcDb2dVertex
 10
1.63665771484375
 20
3.085828993055555
 30
0.0
  0
VERTEX
  5
2AF
330
40
100
AcDbEntity
  8
STATE
 62
     2
100
AcDbVertex
100
AcDb2dVertex
 10
1.603325737847222
 20
3.125840928819444
 30
0.0
  0
VERTEX
  5
2B0
330
40
100
AcDbEntity
  8
STATE
 62
     2
100
AcDbVertex
100
AcDb2dVertex
 10
1.583326551649305
 20
3.145833333333333
 30
0.0
  0
VERTEX
  5
2B1
330
40
100
AcDbEntity
  8
STATE
 62
     2
100
AcDbVertex
100
AcDb2dVertex
 10
1.566663953993055
 20
3.169175889756944
 30
0.0
  0
VERTEX
  5
2B2
330
40
100
AcDbEntity
  8
STATE
 62
     2
100
AcDbVertex
100
AcDb2dVertex
 10
1.509996202256944
 20
3.239176432291667
 30
0.0
  0
VERTEX
  5
2B3
330
40
100
AcDbEntity
  8
STATE
 62
     2
100
AcDbVertex
100
AcDb2dVertex
 10
1.503323025173611
 20
3.245849609375
 30
0.0
  0
VERTEX
  5
2B4
330
40
100
AcDbEntity
  8
STATE
 62
     2
100
AcDbVertex
100
AcDb2dVertex
 10
1.469997829861111
 20
3.289198133680555
 30
0.0
  0
VERTEX
  5
2B5
330
40
100
AcDbEntity
  8
STATE
 62
     2
100
AcDbVertex
100
AcDb2dVertex
 10
1.463324652777778
 20
3.292534722222222
 30
0.0
  0
VERTEX
  5
2B6
330
40
100
AcDbEntity
  8
STATE
 62
     2
100
AcDbVertex
100
AcDb2dVertex
 10
1.413323296440972
 20
3.352525499131944
 30
0.0
  0
VERTEX
  5
2B7
330
40
100
AcDbEntity
  8
STATE
 62
     2
100
AcDbVertex
100
AcDb2dVertex
 10
1.389994303385417
 20
3.382541232638889
 30
0.0
  0
VERTEX
  5
2B8
330
40
100
AcDbEntity
  8
STATE
 62
     2
100
AcDbVertex
100
AcDb2dVertex
 10
1.349995930989583
 20
3.429212782118055
 30
0.0
  0
VERTEX
  5
2B9
330
40
100
AcDbEntity
  8
STATE
 62
     2
100
AcDbVertex
100
AcDb2dVertex
 10
1.346659342447917
 20
3.432549370659722
 30
0.0
  0
VERTEX
  5
2BA
330
40
100
AcDbEntity
  8
STATE
 62
     2
100
AcDbVertex
100
AcDb2dVertex
 10
1.336656358506944
 20
3.445882161458333
 30
0.0
  0
VERTEX
  5
2BB
330
40
100
AcDbEntity
  8
STATE
 62
     2
100
AcDbVertex
100
AcDb2dVertex
 10
1.343329535590278
 20
3.479220920138889
 30
0.0
  0
VERTEX
  5
2BC
330
40
100
AcDbEntity
  8
STATE
 62
     2
100
AcDbVertex
100
AcDb2dVertex
 10
1.343329535590278
 20
3.482557508680555
 30
0.0
  0
VERTEX
  5
2BD
330
40
100
AcDbEntity
  8
STATE
 62
     2
100
AcDbVertex
100
AcDb2dVertex
 10
1.346659342447917
 20
3.499226888020833
 30
0.0
  0
VERTEX
  5
2BE
330
40
100
AcDbEntity
  8
STATE
 62
     2
100
AcDbVertex
100
AcDb2dVertex
 10
1.346659342447917
 20
3.505886501736111
 30
0.0
  0
VERTEX
  5
2BF
330
40
100
AcDbEntity
  8
STATE
 62
     2
100
AcDbVertex
100
AcDb2dVertex
 10
1.346659342447917
 20
3.515896267361111
 30
0.0
  0
VERTEX
  5
2C0
330
40
100
AcDbEntity
  8
STATE
 62
     2
100
AcDbVertex
100
AcDb2dVertex
 10
1.343329535590278
 20
3.549235026041667
 30
0.0
  0
VERTEX
  5
2C1
330
40
100
AcDbEntity
  8
STATE
 62
     2
100
AcDbVertex
100
AcDb2dVertex
 10
1.343329535590278
 20
3.555908203125
 30
0.0
  0
VERTEX
  5
2C2
330
40
100
AcDbEntity
  8
STATE
 62
     2
100
AcDbVertex
100
AcDb2dVertex
 10
1.346659342447917
 20
3.602579752604167
 30
0.0
  0
VERTEX
  5
2C3
330
40
100
AcDbEntity
  8
STATE
 62
     2
100
AcDbVertex
100
AcDb2dVertex
 10
1.349995930989583
 20
3.622585720486111
 30
0.0
  0
VERTEX
  5
2C4
330
40
100
AcDbEntity
  8
STATE
 62
     2
100
AcDbVertex
100
AcDb2dVertex
 10
1.353325737847222
 20
3.649251302083333
 30
0.0
  0
VERTEX
  5
2C5
330
40
100
AcDbEntity
  8
STATE
 62
     2
100
AcDbVertex
100
AcDb2dVertex
 10
1.3699951171875
 20
3.809271918402778
 30
0.0
  0
VERTEX
  5
2C6
330
40
100
AcDbEntity
  8
STATE
 62
     2
100
AcDbVertex
100
AcDb2dVertex
 10
1.376661512586806
 20
3.862616644965278
 30
0.0
  0
VERTEX
  5
2C7
330
40
100
AcDbEntity
  8
STATE
 62
     2
100
AcDbVertex
100
AcDb2dVertex
 10
1.379991319444444
 20
3.925957573784722
 30
0.0
  0
VERTEX
  5
2C8
330
40
100
AcDbEntity
  8
STATE
 62
     2
100
AcDbVertex
100
AcDb2dVertex
 10
1.379991319444444
 20
3.929294162326389
 30
0.0
  0
VERTEX
  5
2C9
330
40
100
AcDbEntity
  8
STATE
 62
     2
100
AcDbVertex
100
AcDb2dVertex
 10
1.379991319444444
 20
3.9326171875
 30
0.0
  0
VERTEX
  5
2CA
330
40
100
AcDbEntity
  8
STATE
 62
     2
100
AcDbVertex
100
AcDb2dVertex
 10
1.386664496527778
 20
4.012641059027778
 30
0.0
  0
VERTEX
  5
2CB
330
40
100
AcDbEntity
  8
STATE
 62
     2
100
AcDbVertex
100
AcDb2dVertex
 10
1.406656901041667
 20
4.155992296006945
 30
0.0
  0
VERTEX
  5
2CC
330
40
100
AcDbEntity
  8
STATE
 62
     2
100
AcDbVertex
100
AcDb2dVertex
 10
1.406656901041667
 20
4.166002061631945
 30
0.0
  0
VERTEX
  5
2CD
330
40
100
AcDbEntity
  8
STATE
 62
     2
100
AcDbVertex
100
AcDb2dVertex
 10
1.406656901041667
 20
4.1793212890625
 30
0.0
  0
VERTEX
  5
2CE
330
40
100
AcDbEntity
  8
STATE
 62
     2
100
AcDbVertex
100
AcDb2dVertex
 10
1.409993489583333
 20
4.192667643229166
 30
0.0
  0
VERTEX
  5
2CF
330
40
100
AcDbEntity
  8
STATE
 62
     2
100
AcDbVertex
100
AcDb2dVertex
 10
1.413323296440972
 20
4.246005588107638
 30
0.0
  0
VERTEX
  5
2D0
330
40
100
AcDbEntity
  8
STATE
 62
     2
100
AcDbVertex
100
AcDb2dVertex
 10
1.413323296440972
 20
4.252671983506945
 30
0.0
  0
VERTEX
  5
2D1
330
40
100
AcDbEntity
  8
STATE
 62
     2
100
AcDbVertex
100
AcDb2dVertex
 10
1.413323296440972
 20
4.266011555989583
 30
0.0
  0
VERTEX
  5
2D2
330
40
100
AcDbEntity
  8
STATE
 62
     2
100
AcDbVertex
100
AcDb2dVertex
 10
1.413323296440972
 20
4.269341362847222
 30
0.0
  0
VERTEX
  5
2D3
330
40
100
AcDbEntity
  8
STATE
 62
     2
100
AcDbVertex
100
AcDb2dVertex
 10
1.416659884982639
 20
4.276014539930555
 30
0.0
  0
VERTEX
  5
2D4
330
40
100
AcDbEntity
  8
STATE
 62
     2
100
AcDbVertex
100
AcDb2dVertex
 10
1.419989691840278
 20
4.349358452690972
 30
0.0
  0
VERTEX
  5
2D5
330
40
100
AcDbEntity
  8
STATE
 62
     2
100
AcDbVertex
100
AcDb2dVertex
 10
1.423326280381944
 20
4.372694227430555
 30
0.0
  0
VERTEX
  5
2D6
330
40
100
AcDbEntity
  8
STATE
 62
     2
100
AcDbVertex
100
AcDb2dVertex
 10
1.423326280381944
 20
4.376024034288195
 30
0.0
  0
VERTEX
  5
2D7
330
40
100
AcDbEntity
  8
STATE
 62
     2
100
AcDbVertex
100
AcDb2dVertex
 10
1.423326280381944
 20
4.382697211371528
 30
0.0
  0
VERTEX
  5
2D8
330
40
100
AcDbEntity
  8
STATE
 62
     2
100
AcDbVertex
100
AcDb2dVertex
 10
1.423326280381944
 20
4.386027018229166
 30
0.0
  0
VERTEX
  5
2D9
330
40
100
AcDbEntity
  8
STATE
 62
     2
100
AcDbVertex
100
AcDb2dVertex
 10
1.423326280381944
 20
4.389363606770833
 30
0.0
  0
VERTEX
  5
2DA
330
40
100
AcDbEntity
  8
STATE
 62
     2
100
AcDbVertex
100
AcDb2dVertex
 10
1.433329264322917
 20
4.4893798828125
 30
0.0
  0
VERTEX
  5
2DB
330
40
100
AcDbEntity
  8
STATE
 62
     2
100
AcDbVertex
100
AcDb2dVertex
 10
1.433329264322917
 20
4.492709689670138
 30
0.0
  0
VERTEX
  5
2DC
330
40
100
AcDbEntity
  8
STATE
 62
     2
100
AcDbVertex
100
AcDb2dVertex
 10
1.439988878038194
 20
4.599392361111111
 30
0.0
  0
VERTEX
  5
2DD
330
40
100
AcDbEntity
  8
STATE
 62
     2
100
AcDbVertex
100
AcDb2dVertex
 10
1.443325466579861
 20
4.636067708333333
 30
0.0
  0
VERTEX
  5
2DE
330
40
100
AcDbEntity
  8
STATE
 62
     2
100
AcDbVertex
100
AcDb2dVertex
 10
1.459994845920139
 20
4.789421929253472
 30
0.0
  0
VERTEX
  5
2DF
330
40
100
AcDbEntity
  8
STATE
 62
     2
100
AcDbVertex
100
AcDb2dVertex
 10
1.466661241319444
 20
4.862765842013888
 30
0.0
  0
VERTEX
  5
2E0
330
40
100
AcDbEntity
  8
STATE
 62
     2
100
AcDbVertex
100
AcDb2dVertex
 10
1.489990234375
 20
5.092807345920138
 30
0.0
  0
VERTEX
  5
2E1
330
40
100
AcDbEntity
  8
STATE
 62
     2
100
AcDbVertex
100
AcDb2dVertex
 10
1.489990234375
 20
5.109476725260416
 30
0.0
  0
VERTEX
  5
2E2
330
40
100
AcDbEntity
  8
STATE
 62
     2
100
AcDbVertex
100
AcDb2dVertex
 10
1.496656629774306
 20
5.219489203559028
 30
0.0
  0
VERTEX
  5
2E3
330
40
100
AcDbEntity
  8
STATE
 62
     2
100
AcDbVertex
100
AcDb2dVertex
 10
1.496656629774306
 20
5.236158582899305
 30
0.0
  0
VERTEX
  5
2E4
330
40
100
AcDbEntity
  8
STATE
 62
     2
100
AcDbVertex
100
AcDb2dVertex
 10
1.506659613715278
 20
5.35284423828125
 30
0.0
  0
SEQEND
  5
2E5
330
40
100
AcDbEntity
  8
STATE
  0
POLYLINE
  5
2E6
330
3C
100
AcDbEntity
  8
STATE
100
AcDb2dPolyline
 66
     1
 10
0.0
 20
0.0
 30
0.0
  0
VERTEX
  5
2E7
330
2E6
100
AcDbEntity
  8
STATE
100
AcDbVertex
100
AcDb2dVertex
 10
0.0933363172743056
 20
0.0987006293402778
 30
0.0
  0
VERTEX
  5
2E8
330
2E6
100
AcDbEntity
  8
STATE
100
AcDbVertex
100
AcDb2dVertex
 10
0.0933363172743056
 20
8.37331814236111
 30
0.0
  0
VERTEX
  5
2E9
330
2E6
100
AcDbEntity
  8
STATE
100
AcDbVertex
100
AcDb2dVertex
 10
10.91994900173611
 20
8.37331814236111
 30
0.0
  0
VERTEX
  5
2EA
330
2E6
100
AcDbEntity
  8
STATE
100
AcDbVertex
100
AcDb2dVertex
 10
10.91994900173611
 20
0.0987006293402778
 30
0.0
  0
VERTEX
  5
2EB
330
2E6
100
AcDbEntity
  8
STATE
100
AcDbVertex
100
AcDb2dVertex
 10
0.0933363172743056
 20
0.0987006293402778
 30
0.0
  0
SEQEND
  5
2EC
330
2E6
100
AcDbEntity
  8
STATE
  0
ENDBLK
  5
3F
330
3C
100
AcDbEntity
  8
0
100
AcDbBlockEnd
  0
ENDSEC
  0
SECTION
  2
ENTITIES
  0
INSERT
  5
3D
330
1F
100
AcDbEntity
  8
STATE
100
AcDbBlockReference
  2
BLOCK_2
 10
0.0
 20
0.0
 30
0.0
  0
ENDSEC
  0
SECTION
  2
OBJECTS
  0
DICTIONARY
  5
C
330
0
100
AcDbDictionary
  3
ACAD_GROUP
350
D
  3
ACAD_LAYOUT
350
1A
  3
ACAD_MLINESTYLE
350
17
  3
ACAD_PLOTSETTINGS
350
19
  3
ACAD_TABLESTYLE
350
30D
  3
ACAD_VISUALSTYLE
350
2A
  3
ACDBHEADERROUNDTRIPXREC
350
2ED
  0
DICTIONARY
  5
D
102
{ACAD_REACTORS
330
C
102
}
330
C
100
AcDbDictionary
  0
DICTIONARY
  5
1A
102
{ACAD_REACTORS
330
C
102
}
330
C
100
AcDbDictionary
  0
DICTIONARY
  5
17
102
{ACAD_REACTORS
330
C
102
}
330
C
100
AcDbDictionary
  3
STANDARD
350
18
  0
DICTIONARY
  5
19
102
{ACAD_REACTORS
330
C
102
}
330
C
100
AcDbDictionary
  0
DICTIONARY
  5
30D
102
{ACAD_REACTORS
330
C
102
}
330
C
100
AcDbDictionary
  0
DICTIONARY
  5
2A
102
{ACAD_REACTORS
330
C
102
}
330
C
100
AcDbDictionary
  3
2DWIREFRAME
350
2F
  3
3D_HIDDEN
350
31
  3
3DWIREFRAME
350
30
  3
BASIC
350
32
  3
BRIGHTEN
350
36
  3
COLORCHANGE
350
3A
  3
CONCEPTUAL
350
34
  3
DIM
350
35
  3
FACEPATTERN
350
39
  3
FLAT
350
2B
  3
FLATWITHEDGES
350
2C
  3
GOURAUD
350
2D
  3
GOURAUDWITHEDGES
350
2E
  3
LINEPATTERN
350
38
  3
REALISTIC
350
33
  3
THICKEN
350
37
  0
DICTIONARY
  5
2ED
102
{ACAD_REACTORS
330
C
102
}
330
C
100
AcDbDictionary
  3
CEPSNTYPE
350
2F6
  3
DIMSTYLEDATA
350
30C
  3
FINGERPRINTGUID
350
2F7
  3
HYPERLINKBASE
350
2F0
  3
INSUNITS
350
2F5
  3
LAYOUTDICT
350
2F2
  3
LWETCUNION
350
2F4
  3
PLOTSETDICT
350
2F3
  3
PSVPSCALE
350
2F9
  3
PUCSBASE
350
2FC
  3
PUCSORGBACK
350
302
  3
PUCSORGBOTTOM
350
2FE
  3
PUCSORGFRONT
350
301
  3
PUCSORGLEFT
350
2FF
  3
PUCSORGRIGHT
350
300
  3
PUCSORGTOP
350
2FD
  3
PUCSORTHOREF
350
2FA
  3
PUCSORTHOVIEW
350
2FB
  3
STYLESHEET
350
2F1
  3
TSTACKALIGN
350
2EE
  3
TSTACKSIZE
350
2EF
  3
UCSBASE
350
305
  3
UCSORGBACK
350
30B
  3
UCSORGBOTTOM
350
307
  3
UCSORGFRONT
350
30A
  3
UCSORGLEFT
350
308
  3
UCSORGRIGHT
350
309
  3
UCSORGTOP
350
306
  3
UCSORTHOREF
350
303
  3
UCSORTHOVIEW
350
304
  3
VERSIONGUID
350
2F8
  0
MLINESTYLE
  5
18
102
{ACAD_REACTORS
330
17
102
}
330
17
100
AcDbMlineStyle
  2
Standard
 70
     0
  3

 62
   256
 51
90.0
 52
90.0
 71
     2
 49
0.5
 62
   256
  6
BYLAYER
 49
-0.5
 62
   256
  6
BYLAYER
  0
VISUALSTYLE
  5
2F
102
{ACAD_REACTORS
330
2A
102
}
330
2A
100
AcDbVisualStyle
  2
2dWireframe
 70
     4
 71
     0
 72
     2
 73
     0
 90
        0
 40
-0.6
 41
-30.0
 62
     5
 63
     7
 74
     1
 91
        4
 64
     7
 65
   257
 75
     1
175
     1
 42
1.0
 92
        0
 66
   257
 43
1.0
 76
     1
 77
     6
 78
     2
 67
     7
 79
     5
170
     0
171
     0
290
     0
174
     0
 93
        1
 44
0.0
173
     0
291
     0
 45
0.0
1001
ACAD
1000
AcDbSavedByObjectVersion
1070
     0
  0
VISUALSTYLE
  5
31
102
{ACAD_REACTORS
330
2A
102
}
330
2A
100
AcDbVisualStyle
  2
3D Hidden
 70
     6
 71
     1
 72
     2
 73
     2
 90
        0
 40
-0.6
 41
-30.0
 62
     5
 63
     7
 74
     2
 91
        2
 64
     7
 65
   257
 75
     2
175
     1
 42
40.0
 92
        0
 66
   257
 43
1.0
 76
     1
 77
     6
 78
     2
 67
     7
 79
     3
170
     0
171
     0
290
     0
174
     0
 93
        1
 44
0.0
173
     0
291
     0
 45
0.0
1001
ACAD
1000
AcDbSavedByObjectVersion
1070
     0
  0
VISUALSTYLE
  5
30
102
{ACAD_REACTORS
330
2A
102
}
330
2A
100
AcDbVisualStyle
  2
3dWireframe
 70
     5
 71
     0
 72
     2
 73
     0
 90
        0
 40
-0.6
 41
-30.0
 62
     5
 63
     7
 74
     1
 91
        4
 64
     7
 65
   257
 75
     1
175
     1
 42
1.0
 92
        0
 66
   257
 43
1.0
 76
     1
 77
     6
 78
     2
 67
     7
 79
     5
170
     0
171
     0
290
     0
174
     0
 93
        1
 44
0.0
173
     0
291
     0
 45
0.0
1001
ACAD
1000
AcDbSavedByObjectVersion
1070
     0
  0
VISUALSTYLE
  5
32
102
{ACAD_REACTORS
330
2A
102
}
330
2A
100
AcDbVisualStyle
  2
Basic
 70
     7
 71
     1
 72
     0
 73
     1
 90
        0
 40
-0.6
 41
-30.0
 62
     5
 63
     7
 74
     0
 91
        4
 64
     7
 65
   257
 75
     1
175
     1
 42
1.0
 92
        8
 66
     7
 43
1.0
 76
     1
 77
     6
 78
     2
 67
     7
 79
     5
170
     0
171
     0
290
     0
174
     0
 93
        1
 44
0.0
173
     0
291
     1
 45
0.0
1001
ACAD
1000
AcDbSavedByObjectVersion
1070
     0
  0
VISUALSTYLE
  5
36
102
{ACAD_REACTORS
330
2A
102
}
330
2A
100
AcDbVisualStyle
  2
Brighten
 70
    12
 71
     2
 72
     2
 73
     0
 90
        0
 40
-0.6
 41
-30.0
 62
     5
 63
     7
 74
     1
 91
        4
 64
     7
 65
   257
 75
     1
175
     1
 42
1.0
 92
        8
 66
     7
 43
1.0
 76
     1
 77
     6
 78
     2
 67
     7
 79
     5
170
     0
171
     0
290
     0
174
     0
 93
        1
 44
50.0
173
     0
291
     1
 45
0.0
1001
ACAD
1000
AcDbSavedByObjectVersion
1070
     0
  0
VISUALSTYLE
  5
3A
102
{ACAD_REACTORS
330
2A
102
}
330
2A
100
AcDbVisualStyle
  2
ColorChange
 70
    16
 71
     2
 72
     2
 73
     3
 90
        0
 40
-0.6
 41
-30.0
 62
     5
 63
     8
 74
     1
 91
        4
 64
     7
 65
   257
 75
     1
175
     1
 42
1.0
 92
        8
 66
     8
 43
1.0
 76
     1
 77
     6
 78
     2
 67
     7
 79
     5
170
     0
171
     0
290
     0
174
     0
 93
        1
 44
0.0
173
     0
291
     1
 45
0.0
1001
ACAD
1000
AcDbSavedByObjectVersion
1070
     0
  0
VISUALSTYLE
  5
34
102
{ACAD_REACTORS
330
2A
102
}
330
2A
100
AcDbVisualStyle
  2
Conceptual
 70
     9
 71
     3
 72
     2
 73
     0
 90
        0
 40
-0.6
 41
-30.0
 62
     5
 63
     7
 74
     2
 91
        2
 64
     7
 65
   257
 75
     1
175
     1
 42
40.0
 92
        8
 66
     7
 43
1.0
 76
     1
 77
     6
 78
     2
 67
     7
 79
     3
170
     0
171
     0
290
     0
174
     0
 93
        1
 44
0.0
173
     0
291
     0
 45
0.0
1001
ACAD
1000
AcDbSavedByObjectVersion
1070
     0
  0
VISUALSTYLE
  5
35
102
{ACAD_REACTORS
330
2A
102
}
330
2A
100
AcDbVisualStyle
  2
Dim
 70
    11
 71
     2
 72
     2
 73
     0
 90
        0
 40
-0.6
 41
-30.0
 62
     5
 63
     7
 74
     1
 91
        4
 64
     7
 65
   257
 75
     1
175
     1
 42
1.0
 92
        8
 66
     7
 43
1.0
 76
     1
 77
     6
 78
     2
 67
     7
 79
     5
170
     0
171
     0
290
     0
174
     0
 93
        1
 44
-50.0
173
     0
291
     1
 45
0.0
1001
ACAD
1000
AcDbSavedByObjectVersion
1070
     0
  0
VISUALSTYLE
  5
39
102
{ACAD_REACTORS
330
2A
102
}
330
2A
100
AcDbVisualStyle
  2
Facepattern
 70
    15
 71
     2
 72
     2
 73
     0
 90
        0
 40
-0.6
 41
-30.0
 62
     5
 63
     7
 74
     1
 91
        4
 64
     7
 65
   257
 75
     1
175
     1
 42
1.0
 92
        8
 66
     7
 43
1.0
 76
     1
 77
     6
 78
     2
 67
     7
 79
     5
170
     0
171
     0
290
     0
174
     0
 93
        1
 44
0.0
173
     0
291
     1
 45
0.0
1001
ACAD
1000
AcDbSavedByObjectVersion
1070
     0
  0
VISUALSTYLE
  5
2B
102
{ACAD_REACTORS
330
2A
102
}
330
2A
100
AcDbVisualStyle
  2
Flat
 70
     0
 71
     2
 72
     1
 73
     1
 90
        2
 40
-0.6
 41
30.0
 62
     5
 63
     7
 74
     0
 91
        4
 64
     7
 65
   257
 75
     1
175
     1
 42
1.0
 92
        8
 66
     7
 43
1.0
 76
     1
 77
     6
 78
     2
 67
     7
 79
     5
170
     0
171
     0
290
     0
174
     0
 93
       13
 44
0.0
173
     0
291
     1
 45
0.0
1001
ACAD
1000
AcDbSavedByObjectVersion
1070
     0
  0
VISUALSTYLE
  5
2C
102
{ACAD_REACTORS
330
2A
102
}
330
2A
100
AcDbVisualStyle
  2
FlatWithEdges
 70
     1
 71
     2
 72
     1
 73
     1
 90
        2
 40
-0.6
 41
30.0
 62
     5
 63
     7
 74
     1
 91
        4
 64
     7
 65
   257
 75
     1
175
     1
 42
1.0
 92
        0
 66
   257
 43
1.0
 76
     1
 77
     6
 78
     2
 67
     7
 79
     5
170
     0
171
     0
290
     0
174
     0
 93
       13
 44
0.0
173
     0
291
     1
 45
0.0
1001
ACAD
1000
AcDbSavedByObjectVersion
1070
     0
  0
VISUALSTYLE
  5
2D
102
{ACAD_REACTORS
330
2A
102
}
330
2A
100
AcDbVisualStyle
  2
Gouraud
 70
     2
 71
     2
 72
     2
 73
     1
 90
        2
 40
-0.6
 41
30.0
 62
     5
 63
     7
 74
     0
 91
        4
 64
     7
 65
   257
 75
     1
175
     1
 42
1.0
 92
        0
 66
     7
 43
1.0
 76
     1
 77
     6
 78
     2
 67
     7
 79
     5
170
     0
171
     0
290
     0
174
     0
 93
       13
 44
0.0
173
     0
291
     1
 45
0.0
1001
ACAD
1000
AcDbSavedByObjectVersion
1070
     0
  0
VISUALSTYLE
  5
2E
102
{ACAD_REACTORS
330
2A
102
}
330
2A
100
AcDbVisualStyle
  2
GouraudWithEdges
 70
     3
 71
     2
 72
     2
 73
     1
 90
        2
 40
-0.6
 41
30.0
 62
     5
 63
     7
 74
     1
 91
        4
 64
     7
 65
   257
 75
     1
175
     1
 42
1.0
 92
        0
 66
   257
 43
1.0
 76
     1
 77
     6
 78
     2
 67
     7
 79
     5
170
     0
171
     0
290
     0
174
     0
 93
       13
 44
0.0
173
     0
291
     1
 45
0.0
1001
ACAD
1000
AcDbSavedByObjectVersion
1070
     0
  0
VISUALSTYLE
  5
38
102
{ACAD_REACTORS
330
2A
102
}
330
2A
100
AcDbVisualStyle
  2
Linepattern
 70
    14
 71
     2
 72
     2
 73
     0
 90
        0
 40
-0.6
 41
-30.0
 62
     5
 63
     7
 74
     1
 91
        4
 64
     7
 65
   257
 75
     7
175
     7
 42
1.0
 92
        8
 66
     7
 43
1.0
 76
     1
 77
     6
 78
     2
 67
     7
 79
     5
170
     0
171
     0
290
     0
174
     0
 93
        1
 44
0.0
173
     0
291
     1
 45
0.0
1001
ACAD
1000
AcDbSavedByObjectVersion
1070
     0
  0
VISUALSTYLE
  5
33
102
{ACAD_REACTORS
330
2A
102
}
330
2A
100
AcDbVisualStyle
  2
Realistic
 70
     8
 71
     2
 72
     2
 73
     0
 90
        0
 40
-0.6
 41
-30.0
 62
     5
 63
     7
 74
     1
 91
        0
 64
     7
 65
   257
 75
     1
175
     1
 42
1.0
 92
        8
 66
     8
 43
1.0
 76
     1
 77
     6
 78
     2
 67
     7
 79
     5
170
     0
171
     0
290
     0
174
     0
 93
       13
 44
0.0
173
     0
291
     0
 45
0.0
1001
ACAD
1000
AcDbSavedByObjectVersion
1070
     0
  0
VISUALSTYLE
  5
37
102
{ACAD_REACTORS
330
2A
102
}
330
2A
100
AcDbVisualStyle
  2
Thicken
 70
    13
 71
     2
 72
     2
 73
     0
 90
        0
 40
-0.6
 41
-30.0
 62
     5
 63
     7
 74
     1
 91
        4
 64
     7
 65
   257
 75
     1
175
     1
 42
1.0
 92
       12
 66
     7
 43
1.0
 76
     1
 77
     6
 78
     2
 67
     7
 79
     5
170
     0
171
     0
290
     0
174
     0
 93
        1
 44
0.0
173
     0
291
     1
 45
0.0
1001
ACAD
1000
AcDbSavedByObjectVersion
1070
     0
  0
XRECORD
  5
2F6
102
{ACAD_REACTORS
330
2ED
102
}
330
2ED
100
AcDbXrecord
 90
        0
  0
XRECORD
  5
30C
102
{ACAD_REACTORS
330
2ED
102
}
330
2ED
100
AcDbXrecord
1000
DSTYLE
1002
{
1070
   340
340
11
1002
}
  0
XRECORD
  5
2F7
102
{ACAD_REACTORS
330
2ED
102
}
330
2ED
100
AcDbXrecord
  1
{C23592A7-1BEE-4AFE-8AD5-00614B382385}
  0
XRECORD
  5
2F0
102
{ACAD_REACTORS
330
2ED
102
}
330
2ED
100
AcDbXrecord
  1

  0
XRECORD
  5
2F5
102
{ACAD_REACTORS
330
2ED
102
}
330
2ED
100
AcDbXrecord
 90
        1
  0
XRECORD
  5
2F2
102
{ACAD_REACTORS
330
2ED
102
}
330
2ED
100
AcDbXrecord
340
1A
  0
XRECORD
  5
2F4
102
{ACAD_REACTORS
330
2ED
102
}
330
2ED
100
AcDbXrecord
 90
    10269
  0
XRECORD
  5
2F3
102
{ACAD_REACTORS
330
2ED
102
}
330
2ED
100
AcDbXrecord
340
19
  0
XRECORD
  5
2F9
102
{ACAD_REACTORS
330
2ED
102
}
330
2ED
100
AcDbXrecord
 40
0.0
  0
XRECORD
  5
2FC
102
{ACAD_REACTORS
330
2ED
102
}
330
2ED
100
AcDbXrecord
340
0
  0
XRECORD
  5
302
102
{ACAD_REACTORS
330
2ED
102
}
330
2ED
100
AcDbXrecord
 10
0.0
 20
0.0
 30
0.0
  0
XRECORD
  5
2FE
102
{ACAD_REACTORS
330
2ED
102
}
330
2ED
100
AcDbXrecord
 10
0.0
 20
0.0
 30
0.0
  0
XRECORD
  5
301
102
{ACAD_REACTORS
330
2ED
102
}
330
2ED
100
AcDbXrecord
 10
0.0
 20
0.0
 30
0.0
  0
XRECORD
  5
2FF
102
{ACAD_REACTORS
330
2ED
102
}
330
2ED
100
AcDbXrecord
 10
0.0
 20
0.0
 30
0.0
  0
XRECORD
  5
300
102
{ACAD_REACTORS
330
2ED
102
}
330
2ED
100
AcDbXrecord
 10
0.0
 20
0.0
 30
0.0
  0
XRECORD
  5
2FD
102
{ACAD_REACTORS
330
2ED
102
}
330
2ED
100
AcDbXrecord
 10
0.0
 20
0.0
 30
0.0
  0
XRECORD
  5
2FA
102
{ACAD_REACTORS
330
2ED
102
}
330
2ED
100
AcDbXrecord
340
0
  0
XRECORD
  5
2FB
102
{ACAD_REACTORS
330
2ED
102
}
330
2ED
100
AcDbXrecord
 70
     0
  0
XRECORD
  5
2F1
102
{ACAD_REACTORS
330
2ED
102
}
330
2ED
100
AcDbXrecord
  1

  0
XRECORD
  5
2EE
102
{ACAD_REACTORS
330
2ED
102
}
330
2ED
100
AcDbXrecord
 90
        1
  0
XRECORD
  5
2EF
102
{ACAD_REACTORS
330
2ED
102
}
330
2ED
100
AcDbXrecord
 90
       70
  0
XRECORD
  5
305
102
{ACAD_REACTORS
330
2ED
102
}
330
2ED
100
AcDbXrecord
340
0
  0
XRECORD
  5
30B
102
{ACAD_REACTORS
330
2ED
102
}
330
2ED
100
AcDbXrecord
 10
0.0
 20
0.0
 30
0.0
  0
XRECORD
  5
307
102
{ACAD_REACTORS
330
2ED
102
}
330
2ED
100
AcDbXrecord
 10
0.0
 20
0.0
 30
0.0
  0
XRECORD
  5
30A
102
{ACAD_REACTORS
330
2ED
102
}
330
2ED
100
AcDbXrecord
 10
0.0
 20
0.0
 30
0.0
  0
XRECORD
  5
308
102
{ACAD_REACTORS
330
2ED
102
}
330
2ED
100
AcDbXrecord
 10
0.0
 20
0.0
 30
0.0
  0
XRECORD
  5
309
102
{ACAD_REACTORS
330
2ED
102
}
330
2ED
100
AcDbXrecord
 10
0.0
 20
0.0
 30
0.0
  0
XRECORD
  5
306
102
{ACAD_REACTORS
330
2ED
102
}
330
2ED
100
AcDbXrecord
 10
0.0
 20
0.0
 30
0.0
  0
XRECORD
  5
303
102
{ACAD_REACTORS
330
2ED
102
}
330
2ED
100
AcDbXrecord
340
0
  0
XRECORD
  5
304
102
{ACAD_REACTORS
330
2ED
102
}
330
2ED
100
AcDbXrecord
 70
     0
  0
XRECORD
  5
2F8
102
{ACAD_REACTORS
330
2ED
102
}
330
2ED
100
AcDbXrecord
  1
{FAEB1C32-E019-11D5-929B-00C0DF256EC4}
  0
ENDSEC
  0
EOF
