<?xml version="1.0" encoding="utf-8"?>
<!-- Generator: Adobe Illustrator 15.1.0, SVG Export Plug-In . SVG Version: 6.00 Build 0)  -->
<!DOCTYPE svg PUBLIC "-//W3C//DTD SVG 1.1//EN" "http://www.w3.org/Graphics/SVG/1.1/DTD/svg11.dtd">
<svg version="1.1" id="State" xmlns="http://www.w3.org/2000/svg" xmlns:xlink="http://www.w3.org/1999/xlink" x="0px" y="0px"
	 width="1296px" height="1296px" viewBox="0 0 1296 1296" enable-background="new 0 0 1296 1296" xml:space="preserve">
<g>
	<defs>
		<rect id="SVGID_1_" x="259.22" y="351.621" width="779.516" height="595.772"/>
	</defs>
	<clipPath id="SVGID_2_">
		<use xlink:href="#SVGID_1_"  overflow="visible"/>
	</clipPath>
	
		<polygon clip-path="url(#SVGID_2_)" fill="none" stroke="#B37C34" stroke-width="1.68" stroke-linecap="round" stroke-linejoin="round" stroke-miterlimit="3.85" points="
		360.979,569.095 360.979,567.655 361.459,561.414 361.459,560.694 361.7,559.494 361.7,558.293 363.139,541.731 363.62,535.25 
		364.58,523.008 365.779,511.246 365.779,511.006 366.739,498.284 366.979,498.284 367.22,494.924 367.22,494.684 367.7,490.843 
		367.7,489.643 368.179,485.802 368.899,475 368.899,474.761 369.139,473.08 370.1,463.239 370.1,462.279 370.1,461.318 
		371.54,445.956 372.259,427.713 390.979,427.233 391.219,427.233 392.419,427.233 394.1,427.473 394.819,427.473 414.5,427.953 
		426.499,428.193 431.299,428.434 432.019,428.434 442.819,428.673 443.539,428.673 444.019,428.673 466.099,429.394 
		466.339,429.394 467.059,429.394 467.539,429.394 488.659,430.114 505.459,430.594 532.819,431.314 549.139,431.554 
		549.378,431.554 552.499,431.794 558.019,431.794 560.179,431.794 569.059,431.794 580.579,432.034 602.658,432.034 
		602.898,432.034 608.898,432.274 612.738,432.514 613.458,432.514 621.378,432.514 620.178,446.916 628.338,445.956 
		632.178,445.716 635.538,445.236 637.218,444.996 638.658,444.996 638.898,443.315 638.898,443.076 639.858,442.355 
		639.858,441.396 640.578,440.675 641.298,439.715 640.578,439.235 640.338,438.995 640.338,438.755 640.338,438.035 
		640.818,438.035 641.778,438.275 642.018,438.275 643.218,436.595 644.178,434.915 643.458,434.194 642.018,433.714 
		642.738,432.754 644.178,432.514 656.178,432.514 657.857,432.514 658.098,432.514 658.578,432.514 663.618,432.514 
		663.857,432.514 664.098,432.514 664.818,432.514 665.777,432.514 666.258,432.514 668.418,432.754 673.218,433.234 
		684.258,433.954 693.857,434.434 697.218,434.674 697.698,436.834 703.938,436.834 704.178,436.834 706.818,436.834 
		709.458,435.395 710.178,434.915 714.498,434.434 717.617,434.194 725.537,433.474 725.777,433.474 726.738,433.234 
		727.938,433.234 728.897,433.474 729.138,433.474 732.738,433.474 733.698,433.474 744.738,433.474 748.577,433.474 
		751.457,433.474 751.938,433.474 752.418,433.474 752.657,433.474 753.138,433.474 755.537,433.474 758.897,433.474 
		771.377,433.714 774.978,433.714 786.257,433.954 797.777,434.194 803.058,434.194 803.297,434.194 804.737,434.194 
		810.257,434.194 815.537,434.194 822.018,434.194 829.697,434.434 832.817,434.434 846.257,434.434 846.737,434.434 
		848.417,434.674 866.417,434.674 869.057,434.915 871.938,434.915 884.177,435.395 885.137,435.395 897.137,435.875 
		898.577,435.875 909.137,435.875 912.257,436.114 918.257,436.114 923.536,436.114 924.497,436.114 924.736,436.114 
		926.656,436.114 935.536,436.354 939.617,436.354 951.137,436.834 952.337,436.834 957.856,436.834 958.337,436.834 
		962.416,437.075 965.057,437.075 965.297,437.075 967.456,437.075 969.137,437.075 971.536,437.075 972.977,437.075 
		973.937,437.075 978.977,437.075 980.656,437.075 981.377,437.075 994.097,437.314 995.776,437.314 996.256,443.076 
		996.256,451.477 996.496,454.597 996.496,460.598 996.496,463.239 996.736,469.96 996.736,470.44 996.736,470.92 996.736,472.36 
		997.217,481.242 997.696,494.684 997.937,499.484 997.937,499.725 997.937,500.685 997.937,501.645 997.937,504.765 
		997.937,505.005 998.176,509.326 998.656,516.767 998.656,517.247 999.137,529.489 999.137,530.929 999.616,547.732 
		1000.097,557.573 1000.816,573.176 1000.576,579.177 999.856,595.019 999.377,604.141 998.896,613.982 998.656,620.943 
		998.176,628.864 998.176,631.265 997.456,644.227 997.456,646.147 997.217,652.147 996.977,654.309 996.977,658.148 
		996.736,659.829 996.736,660.549 996.736,661.75 991.696,661.029 989.057,660.549 987.856,661.029 981.137,663.43 980.177,664.15 
		979.937,664.87 979.937,665.59 980.416,669.431 980.416,669.671 980.656,669.91 981.617,671.352 981.856,671.352 983.536,673.511 
		983.536,673.752 983.536,673.991 983.776,674.711 983.776,674.952 983.776,675.432 983.776,676.152 984.017,676.392 
		984.256,678.552 984.256,679.032 984.256,679.992 984.256,680.232 984.256,680.473 984.256,681.192 984.256,681.433 
		984.256,684.073 984.256,685.514 984.256,688.154 983.776,689.594 981.137,691.994 978.496,693.674 978.017,693.915 
		973.937,696.555 970.576,693.435 968.416,692.715 965.536,691.754 964.097,691.273 961.697,691.515 956.896,692.234 
		954.736,692.475 954.017,692.715 952.816,692.955 950.656,691.994 950.416,691.754 945.617,690.794 945.137,690.794 
		942.017,690.794 937.937,693.674 936.736,694.155 932.656,695.595 929.536,693.674 929.297,693.674 928.576,693.674 
		926.417,697.275 921.856,697.755 920.897,697.755 917.057,698.235 914.656,698.475 913.938,698.475 901.697,697.995 
		894.257,697.755 891.617,697.515 890.657,697.515 887.777,699.195 887.057,699.436 885.137,702.076 884.177,702.796 
		880.577,705.196 875.537,704.956 872.417,704.956 864.737,701.836 862.337,700.876 857.777,698.235 856.337,696.555 
		853.938,695.835 851.297,696.314 851.057,696.314 847.457,698.955 846.978,699.915 846.497,705.196 843.377,708.077 
		842.897,707.837 839.057,705.196 838.817,705.196 834.978,704.717 830.177,704.956 828.978,705.196 829.457,706.877 
		828.978,708.557 825.377,711.197 818.418,711.677 804.498,712.877 800.897,712.637 800.418,712.397 798.498,711.197 
		795.857,712.157 793.217,713.118 793.217,713.838 793.457,715.998 792.978,715.998 788.418,716.958 787.457,717.198 
		779.058,718.878 776.178,715.038 774.978,713.118 774.737,712.877 771.857,712.877 768.018,712.637 762.498,712.637 
		755.058,712.637 747.617,715.758 747.377,715.758 744.498,715.758 743.537,715.519 742.577,715.519 742.338,715.519 
		737.298,717.438 734.657,719.599 730.338,719.119 729.378,717.438 728.897,717.438 726.258,717.919 724.818,718.639 
		723.617,721.039 723.138,721.279 719.777,722.959 710.897,716.478 706.577,715.277 706.338,715.277 706.098,715.277 
		705.857,715.277 701.058,716.238 693.857,715.038 693.138,715.277 688.578,716.238 684.979,716.958 680.418,717.438 
		679.938,717.198 677.058,716.238 676.818,716.238 675.618,716.478 675.378,716.478 673.458,716.958 672.738,717.438 
		668.897,720.559 668.658,721.279 668.658,722.719 666.738,724.399 665.298,725.119 662.897,725.119 660.979,725.359 
		660.738,725.359 659.298,725.359 658.098,723.68 659.058,722.959 658.578,721.759 654.979,719.839 651.139,721.519 
		648.978,720.318 647.298,719.358 643.938,717.438 643.218,716.958 642.018,716.958 641.778,716.958 640.818,717.198 
		638.658,717.198 638.418,717.198 637.218,717.438 636.738,717.438 634.338,717.678 631.458,717.678 630.018,718.398 
		626.658,719.599 624.258,720.559 622.338,721.279 619.458,722.479 619.218,721.759 616.818,720.799 616.338,720.799 
		611.298,720.799 609.138,720.799 608.658,720.799 608.418,721.039 607.698,721.279 606.499,723.68 606.258,724.159 604.338,724.88 
		603.618,724.88 596.658,725.84 596.178,726.08 591.138,725.6 589.218,724.88 588.979,724.88 587.778,724.159 587.298,723.919 
		588.258,722.239 590.658,721.279 591.378,721.039 591.618,719.599 591.138,718.639 590.898,718.158 588.019,713.838 
		586.338,711.197 583.698,711.437 583.218,711.437 582.019,712.157 581.778,714.077 581.778,715.758 581.539,716.238 
		578.178,718.639 576.258,720.078 573.858,720.799 568.818,721.999 567.139,722.479 566.418,722.719 565.219,723.68 563.539,724.64 
		561.619,726.319 561.378,726.56 559.938,727.52 559.699,727.76 558.259,728.72 558.019,728.96 557.539,729.439 555.139,731.36 
		553.699,733.04 553.219,733.281 552.739,734.001 552.499,734.24 551.059,736.161 549.619,738.081 547.699,739.521 546.979,740.242 
		545.059,740.242 544.818,740.002 544.818,739.281 544.099,739.041 539.539,738.562 535.458,738.081 534.259,738.081 
		534.019,738.081 533.779,738.081 532.339,738.562 532.099,738.562 530.418,739.281 524.899,742.882 524.659,742.882 
		522.979,743.843 522.739,744.082 522.019,744.802 520.339,746.002 518.899,747.443 518.419,747.923 513.379,752.003 
		512.419,753.203 512.179,754.164 511.699,756.564 511.699,757.524 512.419,758.965 511.459,759.925 510.499,760.165 
		504.259,761.365 501.619,760.645 491.779,757.044 489.619,756.324 489.379,754.644 487.939,754.404 487.219,754.164 
		486.739,754.164 485.539,754.404 483.859,755.124 477.379,757.284 470.899,761.125 468.259,762.806 468.019,762.806 
		468.019,763.045 465.619,762.325 465.139,762.806 463.939,764.485 461.779,767.606 460.819,769.047 455.539,772.166 
		454.099,771.687 446.659,768.565 446.419,768.326 442.819,769.286 442.099,769.526 442.099,769.766 441.859,769.766 
		437.059,772.647 434.179,773.606 430.099,775.047 424.099,775.768 424.099,776.007 415.459,777.207 414.739,777.207 
		410.659,780.568 407.539,783.209 406.819,783.448 404.419,783.688 403.939,784.169 399.62,788.489 397.939,789.689 397.699,789.93 
		396.979,790.649 391.699,794.73 387.379,794.49 387.139,794.49 386.899,794.49 385.939,794.49 384.739,794.97 381.859,795.931 
		380.659,796.17 379.459,796.65 375.859,802.411 371.54,799.051 370.1,797.851 369.379,798.091 361.7,801.211 361.459,801.451 
		361.459,804.812 359.3,808.652 356.899,809.612 356.179,807.452 356.419,805.052 355.459,803.852 354.739,803.852 354.5,803.852 
		354.02,804.092 353.06,804.572 348.5,806.731 348.02,806.973 344.66,809.373 343.939,810.332 342.5,811.532 341.779,815.133 
		336.5,815.373 336.259,812.253 336.259,811.772 332.18,809.853 329.3,810.093 322.82,812.253 315.14,814.653 314.66,814.894 
		314.42,815.133 311.78,817.534 309.379,821.135 308.66,820.174 308.9,818.014 308.9,817.773 308.9,817.294 308.66,815.854 
		309.379,814.653 309.379,814.413 309.62,814.173 310.1,812.732 310.34,812.253 310.34,811.532 310.34,811.293 310.34,811.053 
		310.1,811.053 308.9,809.612 308.18,808.893 307.459,808.173 306.26,806.492 306.02,806.492 304.58,804.572 304.34,804.331 
		304.1,804.092 302.9,802.411 300.979,800.251 300.5,799.291 300.02,798.811 298.34,796.891 297.86,796.17 295.7,793.77 
		291.38,788.249 288.26,784.409 287.54,783.209 285.38,781.048 283.46,778.407 295.22,773.127 295.22,772.887 300.02,770.727 
		304.82,768.565 305.3,768.326 308.18,766.886 316.1,763.285 318.02,762.325 318.74,762.085 325.22,759.205 331.7,756.324 
		333.14,755.604 335.779,754.404 338.42,753.203 343.7,750.803 347.3,749.363 350.419,747.683 354.259,746.002 358.82,743.843 
		362.179,742.402 362.899,741.922 364.1,741.442 366.02,740.481 366.979,740.242 369.139,739.281 372.979,737.361 373.939,737.121 
		370.339,732.32 367.939,729.439 366.5,728 365.3,726.319 361.22,721.279 360.739,720.799 358.34,717.678 357.859,717.438 
		354.259,713.118 352.58,710.957 349.7,707.597 349.459,707.356 348.739,706.396 349.22,703.996 349.22,703.756 349.459,702.556 
		349.459,702.076 349.459,701.355 349.22,698.955 349.22,698.475 349.459,695.114 349.7,693.674 349.939,691.754 351.14,680.232 
		351.62,676.392 351.859,671.831 351.859,671.591 351.859,671.352 352.34,665.59 353.779,655.269 353.779,654.548 353.779,653.589 
		354.02,652.628 354.259,648.788 354.259,648.308 354.259,647.347 354.259,647.107 354.5,646.627 354.739,641.346 354.979,639.666 
		354.979,639.426 354.979,638.946 354.979,638.706 354.979,638.466 355.7,631.265 355.7,631.025 356.179,623.344 356.419,620.703 
		357.62,609.662 358.1,604.381 359.779,587.818 359.779,586.618 360.259,578.697 360.259,577.497 	"/>
</g>
</svg>
