  0
SECTION
  2
HEADER
  9
$ACADVER
  1
AC1014
  9
$ACADMAINTVER
 70
     9
  9
$DWGCODEPAGE
  3
ANSI_1252
  9
$INSBASE
 10
0.0
 20
0.0
 30
0.0
  9
$EXTMIN
 10
1.000000000000000E+20
 20
1.000000000000000E+20
 30
1.000000000000000E+20
  9
$EXTMAX
 10
-1.000000000000000E+20
 20
-1.000000000000000E+20
 30
-1.000000000000000E+20
  9
$LIMMIN
 10
0.0
 20
0.0
  9
$LIMMAX
 10
12.0
 20
9.0
  9
$ORTHOMODE
 70
     0
  9
$REGENMODE
 70
     1
  9
$FILLMODE
 70
     1
  9
$QTEXTMODE
 70
     0
  9
$MIRRTEXT
 70
     1
  9
$DRAGMODE
 70
     2
  9
$LTSCALE
 40
1.0
  9
$OSMODE
 70
    37
  9
$ATTMODE
 70
     1
  9
$TEXTSIZE
 40
0.2
  9
$TRACEWID
 40
0.05
  9
$TEXTSTYLE
  7
STANDARD
  9
$CLAYER
  8
0
  9
$CELTYPE
  6
BYLAYER
  9
$CECOLOR
 62
   256
  9
$CELTSCALE
 40
1.0
  9
$DELOBJ
 70
     1
  9
$DISPSILH
 70
     0
  9
$DIMSCALE
 40
1.0
  9
$DIMASZ
 40
0.18
  9
$DIMEXO
 40
0.0625
  9
$DIMDLI
 40
0.38
  9
$DIMRND
 40
0.0
  9
$DIMDLE
 40
0.0
  9
$DIMEXE
 40
0.18
  9
$DIMTP
 40
0.0
  9
$DIMTM
 40
0.0
  9
$DIMTXT
 40
0.18
  9
$DIMCEN
 40
0.09
  9
$DIMTSZ
 40
0.0
  9
$DIMTOL
 70
     0
  9
$DIMLIM
 70
     0
  9
$DIMTIH
 70
     1
  9
$DIMTOH
 70
     1
  9
$DIMSE1
 70
     0
  9
$DIMSE2
 70
     0
  9
$DIMTAD
 70
     0
  9
$DIMZIN
 70
     0
  9
$DIMBLK
  1

  9
$DIMASO
 70
     1
  9
$DIMSHO
 70
     1
  9
$DIMPOST
  1

  9
$DIMAPOST
  1

  9
$DIMALT
 70
     0
  9
$DIMALTD
 70
     2
  9
$DIMALTF
 40
25.4
  9
$DIMLFAC
 40
1.0
  9
$DIMTOFL
 70
     0
  9
$DIMTVP
 40
0.0
  9
$DIMTIX
 70
     0
  9
$DIMSOXD
 70
     0
  9
$DIMSAH
 70
     0
  9
$DIMBLK1
  1

  9
$DIMBLK2
  1

  9
$DIMSTYLE
  2
STANDARD
  9
$DIMCLRD
 70
     0
  9
$DIMCLRE
 70
     0
  9
$DIMCLRT
 70
     0
  9
$DIMTFAC
 40
1.0
  9
$DIMGAP
 40
0.09
  9
$DIMJUST
 70
     0
  9
$DIMSD1
 70
     0
  9
$DIMSD2
 70
     0
  9
$DIMTOLJ
 70
     1
  9
$DIMTZIN
 70
     0
  9
$DIMALTZ
 70
     0
  9
$DIMALTTZ
 70
     0
  9
$DIMFIT
 70
     3
  9
$DIMUPT
 70
     0
  9
$DIMUNIT
 70
     2
  9
$DIMDEC
 70
     4
  9
$DIMTDEC
 70
     4
  9
$DIMALTU
 70
     2
  9
$DIMALTTD
 70
     2
  9
$DIMTXSTY
  7
STANDARD
  9
$DIMAUNIT
 70
     0
  9
$LUNITS
 70
     2
  9
$LUPREC
 70
     4
  9
$SKETCHINC
 40
0.1
  9
$FILLETRAD
 40
0.5
  9
$AUNITS
 70
     0
  9
$AUPREC
 70
     0
  9
$MENU
  1
.
  9
$ELEVATION
 40
0.0
  9
$PELEVATION
 40
0.0
  9
$THICKNESS
 40
0.0
  9
$LIMCHECK
 70
     0
  9
$CHAMFERA
 40
0.5
  9
$CHAMFERB
 40
0.5
  9
$CHAMFERC
 40
1.0
  9
$CHAMFERD
 40
0.0
  9
$SKPOLY
 70
     0
  9
$TDCREATE
 40
2457216.86827809
  9
$TDUPDATE
 40
2457216.868278102
  9
$TDINDWG
 40
0.0000000116
  9
$TDUSRTIMER
 40
0.0000000116
  9
$USRTIMER
 70
     1
  9
$ANGBASE
 50
0.0
  9
$ANGDIR
 70
     0
  9
$PDMODE
 70
     0
  9
$PDSIZE
 40
0.0
  9
$PLINEWID
 40
0.0
  9
$COORDS
 70
     1
  9
$SPLFRAME
 70
     0
  9
$SPLINETYPE
 70
     6
  9
$SPLINESEGS
 70
     8
  9
$ATTDIA
 70
     0
  9
$ATTREQ
 70
     1
  9
$HANDLING
 70
     1
  9
$HANDSEED
  5
82
  9
$SURFTAB1
 70
     6
  9
$SURFTAB2
 70
     6
  9
$SURFTYPE
 70
     6
  9
$SURFU
 70
     6
  9
$SURFV
 70
     6
  9
$UCSNAME
  2

  9
$UCSORG
 10
0.0
 20
0.0
 30
0.0
  9
$UCSXDIR
 10
1.0
 20
0.0
 30
0.0
  9
$UCSYDIR
 10
0.0
 20
1.0
 30
0.0
  9
$PUCSNAME
  2

  9
$PUCSORG
 10
0.0
 20
0.0
 30
0.0
  9
$PUCSXDIR
 10
1.0
 20
0.0
 30
0.0
  9
$PUCSYDIR
 10
0.0
 20
1.0
 30
0.0
  9
$USERI1
 70
     0
  9
$USERI2
 70
     0
  9
$USERI3
 70
     0
  9
$USERI4
 70
     0
  9
$USERI5
 70
     0
  9
$USERR1
 40
0.0
  9
$USERR2
 40
0.0
  9
$USERR3
 40
0.0
  9
$USERR4
 40
0.0
  9
$USERR5
 40
0.0
  9
$WORLDVIEW
 70
     1
  9
$SHADEDGE
 70
     3
  9
$SHADEDIF
 70
    70
  9
$TILEMODE
 70
     1
  9
$MAXACTVP
 70
    64
  9
$PINSBASE
 10
0.0
 20
0.0
 30
0.0
  9
$PLIMCHECK
 70
     0
  9
$PEXTMIN
 10
1.000000000000000E+20
 20
1.000000000000000E+20
 30
1.000000000000000E+20
  9
$PEXTMAX
 10
-1.000000000000000E+20
 20
-1.000000000000000E+20
 30
-1.000000000000000E+20
  9
$PLIMMIN
 10
0.0
 20
0.0
  9
$PLIMMAX
 10
12.0
 20
9.0
  9
$UNITMODE
 70
     0
  9
$VISRETAIN
 70
     1
  9
$PLINEGEN
 70
     0
  9
$PSLTSCALE
 70
     1
  9
$TREEDEPTH
 70
  3020
  9
$PICKSTYLE
 70
     1
  9
$CMLSTYLE
  2
STANDARD
  9
$CMLJUST
 70
     0
  9
$CMLSCALE
 40
1.0
  9
$PROXYGRAPHICS
 70
     1
  9
$MEASUREMENT
 70
     0
  0
ENDSEC
  0
SECTION
  2
CLASSES
  0
CLASS
  1
ACDBDICTIONARYWDFLT
  2
AcDbDictionaryWithDefault
  3
ObjectDBX Classes
 90
        0
280
     0
281
     0
  0
CLASS
  1
VISUALSTYLE
  2
AcDbVisualStyle
  3
ObjectDBX Classes
 90
     4095
280
     0
281
     0
  0
CLASS
  1
XRECORD
  2
AcDbXrecord
  3
AutoCAD 2000
 90
        0
280
     0
281
     0
  0
CLASS
  1
LWPOLYLINE
  2
AcDbPolyline
  3
AutoCAD 2000
 90
        0
280
     0
281
     1
  0
CLASS
  1
HATCH
  2
AcDbHatch
  3
AutoCAD 2000
 90
        0
280
     0
281
     1
  0
CLASS
  1
ACDBPLACEHOLDER
  2
AcDbPlaceHolder
  3
ObjectDBX Classes
 90
        0
280
     0
281
     0
  0
CLASS
  1
LAYOUT
  2
AcDbLayout
  3
ObjectDBX Classes
 90
        0
280
     0
281
     0
  0
ENDSEC
  0
SECTION
  2
TABLES
  0
TABLE
  2
VPORT
  5
8
330
0
100
AcDbSymbolTable
 70
     1
  0
VPORT
  5
29
330
8
100
AcDbSymbolTableRecord
100
AcDbViewportTableRecord
  2
*ACTIVE
 70
     0
 10
0.0
 20
0.0
 11
1.0
 21
1.0
 12
0.0
 22
0.0
 13
0.0
 23
0.0
 14
0.5
 24
0.5
 15
0.5
 25
0.5
 16
0.0
 26
0.0
 36
1.0
 17
4.243055555555555
 27
5.506944444444444
 37
0.0
 40
18.0
 41
1.0
 42
50.0
 43
0.0
 44
0.0
 50
0.0
 51
0.0
 71
     0
 72
   100
 73
     1
 74
     3
 75
     0
 76
     0
 77
     0
 78
     0
  0
ENDTAB
  0
TABLE
  2
LTYPE
  5
5
330
0
100
AcDbSymbolTable
 70
     1
  0
LTYPE
  5
14
330
5
100
AcDbSymbolTableRecord
100
AcDbLinetypeTableRecord
  2
BYBLOCK
 70
     0
  3

 72
    65
 73
     0
 40
0.0
  0
LTYPE
  5
15
330
5
100
AcDbSymbolTableRecord
100
AcDbLinetypeTableRecord
  2
BYLAYER
 70
     0
  3

 72
    65
 73
     0
 40
0.0
  0
LTYPE
  5
16
330
5
100
AcDbSymbolTableRecord
100
AcDbLinetypeTableRecord
  2
CONTINUOUS
 70
     0
  3
Solid line
 72
    65
 73
     0
 40
0.0
  0
ENDTAB
  0
TABLE
  2
LAYER
  5
2
330
0
100
AcDbSymbolTable
 70
     2
  0
LAYER
  5
10
330
2
100
AcDbSymbolTableRecord
100
AcDbLayerTableRecord
  2
0
 70
     0
 62
     7
  6
CONTINUOUS
  0
LAYER
  5
3B
330
2
100
AcDbSymbolTableRecord
100
AcDbLayerTableRecord
  2
STATE
 70
     0
 62
     7
  6
CONTINUOUS
  0
ENDTAB
  0
TABLE
  2
STYLE
  5
3
330
0
100
AcDbSymbolTable
 70
     1
  0
STYLE
  5
11
330
3
100
AcDbSymbolTableRecord
100
AcDbTextStyleTableRecord
  2
STANDARD
 70
     0
 40
0.0
 41
1.0
 50
0.0
 71
     0
 42
0.2
  3
txt
  4

  0
ENDTAB
  0
TABLE
  2
VIEW
  5
6
330
0
100
AcDbSymbolTable
 70
     0
  0
ENDTAB
  0
TABLE
  2
UCS
  5
7
330
0
100
AcDbSymbolTable
 70
     0
  0
ENDTAB
  0
TABLE
  2
APPID
  5
9
330
0
100
AcDbSymbolTable
 70
     1
  0
APPID
  5
12
330
9
100
AcDbSymbolTableRecord
100
AcDbRegAppTableRecord
  2
ACAD
 70
     0
  0
ENDTAB
  0
TABLE
  2
DIMSTYLE
  5
A
330
0
100
AcDbSymbolTable
 70
     1
  0
DIMSTYLE
105
27
330
A
100
AcDbSymbolTableRecord
100
AcDbDimStyleTableRecord
  2
STANDARD
 70
     0
  3

  4

  5

  6

  7

 40
1.0
 41
0.18
 42
0.0625
 43
0.38
 44
0.18
 45
0.0
 46
0.0
 47
0.0
 48
0.0
140
0.18
141
0.09
142
0.0
143
25.4
144
1.0
145
0.0
146
1.0
147
0.09
 71
     0
 72
     0
 73
     1
 74
     1
 75
     0
 76
     0
 77
     0
 78
     0
170
     0
171
     2
172
     0
173
     0
174
     0
175
     0
176
     0
177
     0
178
     0
270
     2
271
     4
272
     4
273
     2
274
     2
340
11
275
     0
280
     0
281
     0
282
     0
283
     1
284
     0
285
     0
286
     0
287
     3
288
     0
  0
ENDTAB
  0
TABLE
  2
BLOCK_RECORD
  5
1
330
0
100
AcDbSymbolTable
 70
     2
  0
BLOCK_RECORD
  5
1F
330
1
100
AcDbSymbolTableRecord
100
AcDbBlockTableRecord
  2
*MODEL_SPACE
  0
BLOCK_RECORD
  5
1B
330
1
100
AcDbSymbolTableRecord
100
AcDbBlockTableRecord
  2
*PAPER_SPACE
  0
BLOCK_RECORD
  5
3C
330
1
100
AcDbSymbolTableRecord
100
AcDbBlockTableRecord
  2
BLOCK_2
  0
ENDTAB
  0
ENDSEC
  0
SECTION
  2
BLOCKS
  0
BLOCK
  5
20
330
1F
100
AcDbEntity
  8
0
100
AcDbBlockBegin
  2
*MODEL_SPACE
 70
     0
 71
     0
 10
0.0
 20
0.0
 30
0.0
  3
*MODEL_SPACE
  1

  0
ENDBLK
  5
21
330
1F
100
AcDbEntity
  8
0
100
AcDbBlockEnd
  0
BLOCK
  5
1C
330
1B
100
AcDbEntity
 67
     1
  8
0
100
AcDbBlockBegin
  2
*PAPER_SPACE
 70
     0
 71
     0
 10
0.0
 20
0.0
 30
0.0
  3
*PAPER_SPACE
  1

  0
ENDBLK
  5
1D
330
1B
100
AcDbEntity
 67
     1
  8
0
100
AcDbBlockEnd
  0
BLOCK
  5
3E
330
3C
100
AcDbEntity
  8
0
100
AcDbBlockBegin
  2
BLOCK_2
 70
     0
 71
     0
 10
0.0
 20
0.0
 30
0.0
  3
BLOCK_2
  1

  0
SPLINE
  5
40
330
3C
100
AcDbEntity
  8
STATE
 62
     2
100
AcDbSpline
210
0.0
220
0.0
230
1.0
 70
    11
 71
     3
 72
  1376
 73
  1372
 74
     0
 42
0.0000000001
 43
0.0000000001
 40
0.0
 40
0.0
 40
0.0
 40
0.0
 40
1.0
 40
1.0
 40
1.0
 40
2.0
 40
2.0
 40
2.0
 40
3.0
 40
3.0
 40
3.0
 40
4.0
 40
4.0
 40
4.0
 40
5.0
 40
5.0
 40
5.0
 40
6.0
 40
6.0
 40
6.0
 40
7.0
 40
7.0
 40
7.0
 40
8.0
 40
8.0
 40
8.0
 40
9.0
 40
9.0
 40
9.0
 40
10.0
 40
10.0
 40
10.0
 40
11.0
 40
11.0
 40
11.0
 40
12.0
 40
12.0
 40
12.0
 40
13.0
 40
13.0
 40
13.0
 40
14.0
 40
14.0
 40
14.0
 40
15.0
 40
15.0
 40
15.0
 40
16.0
 40
16.0
 40
16.0
 40
17.0
 40
17.0
 40
17.0
 40
18.0
 40
18.0
 40
18.0
 40
19.0
 40
19.0
 40
19.0
 40
20.0
 40
20.0
 40
20.0
 40
21.0
 40
21.0
 40
21.0
 40
22.0
 40
22.0
 40
22.0
 40
23.0
 40
23.0
 40
23.0
 40
24.0
 40
24.0
 40
24.0
 40
25.0
 40
25.0
 40
25.0
 40
26.0
 40
26.0
 40
26.0
 40
27.0
 40
27.0
 40
27.0
 40
28.0
 40
28.0
 40
28.0
 40
29.0
 40
29.0
 40
29.0
 40
30.0
 40
30.0
 40
30.0
 40
31.0
 40
31.0
 40
31.0
 40
32.0
 40
32.0
 40
32.0
 40
33.0
 40
33.0
 40
33.0
 40
34.0
 40
34.0
 40
34.0
 40
35.0
 40
35.0
 40
35.0
 40
36.0
 40
36.0
 40
36.0
 40
37.0
 40
37.0
 40
37.0
 40
38.0
 40
38.0
 40
38.0
 40
39.0
 40
39.0
 40
39.0
 40
40.0
 40
40.0
 40
40.0
 40
41.0
 40
41.0
 40
41.0
 40
42.0
 40
42.0
 40
42.0
 40
43.0
 40
43.0
 40
43.0
 40
44.0
 40
44.0
 40
44.0
 40
45.0
 40
45.0
 40
45.0
 40
46.0
 40
46.0
 40
46.0
 40
47.0
 40
47.0
 40
47.0
 40
48.0
 40
48.0
 40
48.0
 40
49.0
 40
49.0
 40
49.0
 40
50.0
 40
50.0
 40
50.0
 40
51.0
 40
51.0
 40
51.0
 40
52.0
 40
52.0
 40
52.0
 40
53.0
 40
53.0
 40
53.0
 40
54.0
 40
54.0
 40
54.0
 40
55.0
 40
55.0
 40
55.0
 40
56.0
 40
56.0
 40
56.0
 40
57.0
 40
57.0
 40
57.0
 40
58.0
 40
58.0
 40
58.0
 40
59.0
 40
59.0
 40
59.0
 40
60.0
 40
60.0
 40
60.0
 40
61.0
 40
61.0
 40
61.0
 40
62.0
 40
62.0
 40
62.0
 40
63.0
 40
63.0
 40
63.0
 40
64.0
 40
64.0
 40
64.0
 40
65.0
 40
65.0
 40
65.0
 40
66.0
 40
66.0
 40
66.0
 40
67.0
 40
67.0
 40
67.0
 40
68.0
 40
68.0
 40
68.0
 40
69.0
 40
69.0
 40
69.0
 40
70.0
 40
70.0
 40
70.0
 40
71.0
 40
71.0
 40
71.0
 40
72.0
 40
72.0
 40
72.0
 40
73.0
 40
73.0
 40
73.0
 40
74.0
 40
74.0
 40
74.0
 40
75.0
 40
75.0
 40
75.0
 40
76.0
 40
76.0
 40
76.0
 40
77.0
 40
77.0
 40
77.0
 40
78.0
 40
78.0
 40
78.0
 40
79.0
 40
79.0
 40
79.0
 40
80.0
 40
80.0
 40
80.0
 40
81.0
 40
81.0
 40
81.0
 40
82.0
 40
82.0
 40
82.0
 40
83.0
 40
83.0
 40
83.0
 40
84.0
 40
84.0
 40
84.0
 40
85.0
 40
85.0
 40
85.0
 40
86.0
 40
86.0
 40
86.0
 40
87.0
 40
87.0
 40
87.0
 40
88.0
 40
88.0
 40
88.0
 40
89.0
 40
89.0
 40
89.0
 40
90.0
 40
90.0
 40
90.0
 40
91.0
 40
91.0
 40
91.0
 40
92.0
 40
92.0
 40
92.0
 40
93.0
 40
93.0
 40
93.0
 40
94.0
 40
94.0
 40
94.0
 40
95.0
 40
95.0
 40
95.0
 40
96.0
 40
96.0
 40
96.0
 40
97.0
 40
97.0
 40
97.0
 40
98.0
 40
98.0
 40
98.0
 40
99.0
 40
99.0
 40
99.0
 40
100.0
 40
100.0
 40
100.0
 40
101.0
 40
101.0
 40
101.0
 40
102.0
 40
102.0
 40
102.0
 40
103.0
 40
103.0
 40
103.0
 40
104.0
 40
104.0
 40
104.0
 40
105.0
 40
105.0
 40
105.0
 40
106.0
 40
106.0
 40
106.0
 40
107.0
 40
107.0
 40
107.0
 40
108.0
 40
108.0
 40
108.0
 40
109.0
 40
109.0
 40
109.0
 40
110.0
 40
110.0
 40
110.0
 40
111.0
 40
111.0
 40
111.0
 40
112.0
 40
112.0
 40
112.0
 40
113.0
 40
113.0
 40
113.0
 40
114.0
 40
114.0
 40
114.0
 40
115.0
 40
115.0
 40
115.0
 40
116.0
 40
116.0
 40
116.0
 40
117.0
 40
117.0
 40
117.0
 40
118.0
 40
118.0
 40
118.0
 40
119.0
 40
119.0
 40
119.0
 40
120.0
 40
120.0
 40
120.0
 40
121.0
 40
121.0
 40
121.0
 40
122.0
 40
122.0
 40
122.0
 40
123.0
 40
123.0
 40
123.0
 40
124.0
 40
124.0
 40
124.0
 40
125.0
 40
125.0
 40
125.0
 40
126.0
 40
126.0
 40
126.0
 40
127.0
 40
127.0
 40
127.0
 40
128.0
 40
128.0
 40
128.0
 40
129.0
 40
129.0
 40
129.0
 40
130.0
 40
130.0
 40
130.0
 40
131.0
 40
131.0
 40
131.0
 40
132.0
 40
132.0
 40
132.0
 40
133.0
 40
133.0
 40
133.0
 40
134.0
 40
134.0
 40
134.0
 40
135.0
 40
135.0
 40
135.0
 40
136.0
 40
136.0
 40
136.0
 40
137.0
 40
137.0
 40
137.0
 40
138.0
 40
138.0
 40
138.0
 40
139.0
 40
139.0
 40
139.0
 40
140.0
 40
140.0
 40
140.0
 40
141.0
 40
141.0
 40
141.0
 40
142.0
 40
142.0
 40
142.0
 40
143.0
 40
143.0
 40
143.0
 40
144.0
 40
144.0
 40
144.0
 40
145.0
 40
145.0
 40
145.0
 40
146.0
 40
146.0
 40
146.0
 40
147.0
 40
147.0
 40
147.0
 40
148.0
 40
148.0
 40
148.0
 40
149.0
 40
149.0
 40
149.0
 40
150.0
 40
150.0
 40
150.0
 40
151.0
 40
151.0
 40
151.0
 40
152.0
 40
152.0
 40
152.0
 40
153.0
 40
153.0
 40
153.0
 40
154.0
 40
154.0
 40
154.0
 40
155.0
 40
155.0
 40
155.0
 40
156.0
 40
156.0
 40
156.0
 40
157.0
 40
157.0
 40
157.0
 40
158.0
 40
158.0
 40
158.0
 40
159.0
 40
159.0
 40
159.0
 40
160.0
 40
160.0
 40
160.0
 40
161.0
 40
161.0
 40
161.0
 40
162.0
 40
162.0
 40
162.0
 40
163.0
 40
163.0
 40
163.0
 40
164.0
 40
164.0
 40
164.0
 40
165.0
 40
165.0
 40
165.0
 40
166.0
 40
166.0
 40
166.0
 40
167.0
 40
167.0
 40
167.0
 40
168.0
 40
168.0
 40
168.0
 40
169.0
 40
169.0
 40
169.0
 40
170.0
 40
170.0
 40
170.0
 40
171.0
 40
171.0
 40
171.0
 40
172.0
 40
172.0
 40
172.0
 40
173.0
 40
173.0
 40
173.0
 40
174.0
 40
174.0
 40
174.0
 40
175.0
 40
175.0
 40
175.0
 40
176.0
 40
176.0
 40
176.0
 40
177.0
 40
177.0
 40
177.0
 40
178.0
 40
178.0
 40
178.0
 40
179.0
 40
179.0
 40
179.0
 40
180.0
 40
180.0
 40
180.0
 40
181.0
 40
181.0
 40
181.0
 40
182.0
 40
182.0
 40
182.0
 40
183.0
 40
183.0
 40
183.0
 40
184.0
 40
184.0
 40
184.0
 40
185.0
 40
185.0
 40
185.0
 40
186.0
 40
186.0
 40
186.0
 40
187.0
 40
187.0
 40
187.0
 40
188.0
 40
188.0
 40
188.0
 40
189.0
 40
189.0
 40
189.0
 40
190.0
 40
190.0
 40
190.0
 40
191.0
 40
191.0
 40
191.0
 40
192.0
 40
192.0
 40
192.0
 40
193.0
 40
193.0
 40
193.0
 40
194.0
 40
194.0
 40
194.0
 40
195.0
 40
195.0
 40
195.0
 40
196.0
 40
196.0
 40
196.0
 40
197.0
 40
197.0
 40
197.0
 40
198.0
 40
198.0
 40
198.0
 40
199.0
 40
199.0
 40
199.0
 40
200.0
 40
200.0
 40
200.0
 40
201.0
 40
201.0
 40
201.0
 40
202.0
 40
202.0
 40
202.0
 40
203.0
 40
203.0
 40
203.0
 40
204.0
 40
204.0
 40
204.0
 40
205.0
 40
205.0
 40
205.0
 40
206.0
 40
206.0
 40
206.0
 40
207.0
 40
207.0
 40
207.0
 40
208.0
 40
208.0
 40
208.0
 40
209.0
 40
209.0
 40
209.0
 40
210.0
 40
210.0
 40
210.0
 40
211.0
 40
211.0
 40
211.0
 40
212.0
 40
212.0
 40
212.0
 40
213.0
 40
213.0
 40
213.0
 40
214.0
 40
214.0
 40
214.0
 40
215.0
 40
215.0
 40
215.0
 40
216.0
 40
216.0
 40
216.0
 40
217.0
 40
217.0
 40
217.0
 40
218.0
 40
218.0
 40
218.0
 40
219.0
 40
219.0
 40
219.0
 40
220.0
 40
220.0
 40
220.0
 40
221.0
 40
221.0
 40
221.0
 40
222.0
 40
222.0
 40
222.0
 40
223.0
 40
223.0
 40
223.0
 40
224.0
 40
224.0
 40
224.0
 40
225.0
 40
225.0
 40
225.0
 40
226.0
 40
226.0
 40
226.0
 40
227.0
 40
227.0
 40
227.0
 40
228.0
 40
228.0
 40
228.0
 40
229.0
 40
229.0
 40
229.0
 40
230.0
 40
230.0
 40
230.0
 40
231.0
 40
231.0
 40
231.0
 40
232.0
 40
232.0
 40
232.0
 40
233.0
 40
233.0
 40
233.0
 40
234.0
 40
234.0
 40
234.0
 40
235.0
 40
235.0
 40
235.0
 40
236.0
 40
236.0
 40
236.0
 40
237.0
 40
237.0
 40
237.0
 40
238.0
 40
238.0
 40
238.0
 40
239.0
 40
239.0
 40
239.0
 40
240.0
 40
240.0
 40
240.0
 40
241.0
 40
241.0
 40
241.0
 40
242.0
 40
242.0
 40
242.0
 40
243.0
 40
243.0
 40
243.0
 40
244.0
 40
244.0
 40
244.0
 40
245.0
 40
245.0
 40
245.0
 40
246.0
 40
246.0
 40
246.0
 40
247.0
 40
247.0
 40
247.0
 40
248.0
 40
248.0
 40
248.0
 40
249.0
 40
249.0
 40
249.0
 40
250.0
 40
250.0
 40
250.0
 40
251.0
 40
251.0
 40
251.0
 40
252.0
 40
252.0
 40
252.0
 40
253.0
 40
253.0
 40
253.0
 40
254.0
 40
254.0
 40
254.0
 40
255.0
 40
255.0
 40
255.0
 40
256.0
 40
256.0
 40
256.0
 40
257.0
 40
257.0
 40
257.0
 40
258.0
 40
258.0
 40
258.0
 40
259.0
 40
259.0
 40
259.0
 40
260.0
 40
260.0
 40
260.0
 40
261.0
 40
261.0
 40
261.0
 40
262.0
 40
262.0
 40
262.0
 40
263.0
 40
263.0
 40
263.0
 40
264.0
 40
264.0
 40
264.0
 40
265.0
 40
265.0
 40
265.0
 40
266.0
 40
266.0
 40
266.0
 40
267.0
 40
267.0
 40
267.0
 40
268.0
 40
268.0
 40
268.0
 40
269.0
 40
269.0
 40
269.0
 40
270.0
 40
270.0
 40
270.0
 40
271.0
 40
271.0
 40
271.0
 40
272.0
 40
272.0
 40
272.0
 40
273.0
 40
273.0
 40
273.0
 40
274.0
 40
274.0
 40
274.0
 40
275.0
 40
275.0
 40
275.0
 40
276.0
 40
276.0
 40
276.0
 40
277.0
 40
277.0
 40
277.0
 40
278.0
 40
278.0
 40
278.0
 40
279.0
 40
279.0
 40
279.0
 40
280.0
 40
280.0
 40
280.0
 40
281.0
 40
281.0
 40
281.0
 40
282.0
 40
282.0
 40
282.0
 40
283.0
 40
283.0
 40
283.0
 40
284.0
 40
284.0
 40
284.0
 40
285.0
 40
285.0
 40
285.0
 40
286.0
 40
286.0
 40
286.0
 40
287.0
 40
287.0
 40
287.0
 40
288.0
 40
288.0
 40
288.0
 40
289.0
 40
289.0
 40
289.0
 40
290.0
 40
290.0
 40
290.0
 40
291.0
 40
291.0
 40
291.0
 40
292.0
 40
292.0
 40
292.0
 40
293.0
 40
293.0
 40
293.0
 40
294.0
 40
294.0
 40
294.0
 40
295.0
 40
295.0
 40
295.0
 40
296.0
 40
296.0
 40
296.0
 40
297.0
 40
297.0
 40
297.0
 40
298.0
 40
298.0
 40
298.0
 40
299.0
 40
299.0
 40
299.0
 40
300.0
 40
300.0
 40
300.0
 40
301.0
 40
301.0
 40
301.0
 40
302.0
 40
302.0
 40
302.0
 40
303.0
 40
303.0
 40
303.0
 40
304.0
 40
304.0
 40
304.0
 40
305.0
 40
305.0
 40
305.0
 40
306.0
 40
306.0
 40
306.0
 40
307.0
 40
307.0
 40
307.0
 40
308.0
 40
308.0
 40
308.0
 40
309.0
 40
309.0
 40
309.0
 40
310.0
 40
310.0
 40
310.0
 40
311.0
 40
311.0
 40
311.0
 40
312.0
 40
312.0
 40
312.0
 40
313.0
 40
313.0
 40
313.0
 40
314.0
 40
314.0
 40
314.0
 40
315.0
 40
315.0
 40
315.0
 40
316.0
 40
316.0
 40
316.0
 40
317.0
 40
317.0
 40
317.0
 40
318.0
 40
318.0
 40
318.0
 40
319.0
 40
319.0
 40
319.0
 40
320.0
 40
320.0
 40
320.0
 40
321.0
 40
321.0
 40
321.0
 40
322.0
 40
322.0
 40
322.0
 40
323.0
 40
323.0
 40
323.0
 40
324.0
 40
324.0
 40
324.0
 40
325.0
 40
325.0
 40
325.0
 40
326.0
 40
326.0
 40
326.0
 40
327.0
 40
327.0
 40
327.0
 40
328.0
 40
328.0
 40
328.0
 40
329.0
 40
329.0
 40
329.0
 40
330.0
 40
330.0
 40
330.0
 40
331.0
 40
331.0
 40
331.0
 40
332.0
 40
332.0
 40
332.0
 40
333.0
 40
333.0
 40
333.0
 40
334.0
 40
334.0
 40
334.0
 40
335.0
 40
335.0
 40
335.0
 40
336.0
 40
336.0
 40
336.0
 40
337.0
 40
337.0
 40
337.0
 40
338.0
 40
338.0
 40
338.0
 40
339.0
 40
339.0
 40
339.0
 40
340.0
 40
340.0
 40
340.0
 40
341.0
 40
341.0
 40
341.0
 40
342.0
 40
342.0
 40
342.0
 40
343.0
 40
343.0
 40
343.0
 40
344.0
 40
344.0
 40
344.0
 40
345.0
 40
345.0
 40
345.0
 40
346.0
 40
346.0
 40
346.0
 40
347.0
 40
347.0
 40
347.0
 40
348.0
 40
348.0
 40
348.0
 40
349.0
 40
349.0
 40
349.0
 40
350.0
 40
350.0
 40
350.0
 40
351.0
 40
351.0
 40
351.0
 40
352.0
 40
352.0
 40
352.0
 40
353.0
 40
353.0
 40
353.0
 40
354.0
 40
354.0
 40
354.0
 40
355.0
 40
355.0
 40
355.0
 40
356.0
 40
356.0
 40
356.0
 40
357.0
 40
357.0
 40
357.0
 40
358.0
 40
358.0
 40
358.0
 40
359.0
 40
359.0
 40
359.0
 40
360.0
 40
360.0
 40
360.0
 40
361.0
 40
361.0
 40
361.0
 40
362.0
 40
362.0
 40
362.0
 40
363.0
 40
363.0
 40
363.0
 40
364.0
 40
364.0
 40
364.0
 40
365.0
 40
365.0
 40
365.0
 40
366.0
 40
366.0
 40
366.0
 40
367.0
 40
367.0
 40
367.0
 40
368.0
 40
368.0
 40
368.0
 40
369.0
 40
369.0
 40
369.0
 40
370.0
 40
370.0
 40
370.0
 40
371.0
 40
371.0
 40
371.0
 40
372.0
 40
372.0
 40
372.0
 40
373.0
 40
373.0
 40
373.0
 40
374.0
 40
374.0
 40
374.0
 40
375.0
 40
375.0
 40
375.0
 40
376.0
 40
376.0
 40
376.0
 40
377.0
 40
377.0
 40
377.0
 40
378.0
 40
378.0
 40
378.0
 40
379.0
 40
379.0
 40
379.0
 40
380.0
 40
380.0
 40
380.0
 40
381.0
 40
381.0
 40
381.0
 40
382.0
 40
382.0
 40
382.0
 40
383.0
 40
383.0
 40
383.0
 40
384.0
 40
384.0
 40
384.0
 40
385.0
 40
385.0
 40
385.0
 40
386.0
 40
386.0
 40
386.0
 40
387.0
 40
387.0
 40
387.0
 40
388.0
 40
388.0
 40
388.0
 40
389.0
 40
389.0
 40
389.0
 40
390.0
 40
390.0
 40
390.0
 40
391.0
 40
391.0
 40
391.0
 40
392.0
 40
392.0
 40
392.0
 40
393.0
 40
393.0
 40
393.0
 40
394.0
 40
394.0
 40
394.0
 40
395.0
 40
395.0
 40
395.0
 40
396.0
 40
396.0
 40
396.0
 40
397.0
 40
397.0
 40
397.0
 40
398.0
 40
398.0
 40
398.0
 40
399.0
 40
399.0
 40
399.0
 40
400.0
 40
400.0
 40
400.0
 40
401.0
 40
401.0
 40
401.0
 40
402.0
 40
402.0
 40
402.0
 40
403.0
 40
403.0
 40
403.0
 40
404.0
 40
404.0
 40
404.0
 40
405.0
 40
405.0
 40
405.0
 40
406.0
 40
406.0
 40
406.0
 40
407.0
 40
407.0
 40
407.0
 40
408.0
 40
408.0
 40
408.0
 40
409.0
 40
409.0
 40
409.0
 40
410.0
 40
410.0
 40
410.0
 40
411.0
 40
411.0
 40
411.0
 40
412.0
 40
412.0
 40
412.0
 40
413.0
 40
413.0
 40
413.0
 40
414.0
 40
414.0
 40
414.0
 40
415.0
 40
415.0
 40
415.0
 40
416.0
 40
416.0
 40
416.0
 40
417.0
 40
417.0
 40
417.0
 40
418.0
 40
418.0
 40
418.0
 40
419.0
 40
419.0
 40
419.0
 40
420.0
 40
420.0
 40
420.0
 40
421.0
 40
421.0
 40
421.0
 40
422.0
 40
422.0
 40
422.0
 40
423.0
 40
423.0
 40
423.0
 40
424.0
 40
424.0
 40
424.0
 40
425.0
 40
425.0
 40
425.0
 40
426.0
 40
426.0
 40
426.0
 40
427.0
 40
427.0
 40
427.0
 40
428.0
 40
428.0
 40
428.0
 40
429.0
 40
429.0
 40
429.0
 40
430.0
 40
430.0
 40
430.0
 40
431.0
 40
431.0
 40
431.0
 40
432.0
 40
432.0
 40
432.0
 40
433.0
 40
433.0
 40
433.0
 40
434.0
 40
434.0
 40
434.0
 40
435.0
 40
435.0
 40
435.0
 40
436.0
 40
436.0
 40
436.0
 40
437.0
 40
437.0
 40
437.0
 40
438.0
 40
438.0
 40
438.0
 40
439.0
 40
439.0
 40
439.0
 40
440.0
 40
440.0
 40
440.0
 40
441.0
 40
441.0
 40
441.0
 40
442.0
 40
442.0
 40
442.0
 40
443.0
 40
443.0
 40
443.0
 40
444.0
 40
444.0
 40
444.0
 40
445.0
 40
445.0
 40
445.0
 40
446.0
 40
446.0
 40
446.0
 40
447.0
 40
447.0
 40
447.0
 40
448.0
 40
448.0
 40
448.0
 40
449.0
 40
449.0
 40
449.0
 40
450.0
 40
450.0
 40
450.0
 40
451.0
 40
451.0
 40
451.0
 40
452.0
 40
452.0
 40
452.0
 40
453.0
 40
453.0
 40
453.0
 40
454.0
 40
454.0
 40
454.0
 40
455.0
 40
455.0
 40
455.0
 40
456.0
 40
456.0
 40
456.0
 40
457.0
 40
457.0
 40
457.0
 40
457.0
 10
2.319573296440972
 20
6.746236165364583
 30
0.0
 10
2.319573296440972
 20
6.746236165364583
 30
0.0
 10
2.319573296440972
 20
6.749565972222221
 30
0.0
 10
2.319573296440972
 20
6.749565972222221
 30
0.0
 10
2.319573296440972
 20
6.749565972222221
 30
0.0
 10
2.319573296440972
 20
6.776238335503471
 30
0.0
 10
2.319573296440972
 20
6.776238335503471
 30
0.0
 10
2.319573296440972
 20
6.776238335503471
 30
0.0
 10
2.302910698784722
 20
7.069600423177083
 30
0.0
 10
2.302910698784722
 20
7.069600423177083
 30
0.0
 10
2.302910698784722
 20
7.069600423177083
 30
0.0
 10
2.296244303385417
 20
7.162943522135416
 30
0.0
 10
2.296244303385417
 20
7.162943522135416
 30
0.0
 10
2.296244303385417
 20
7.162943522135416
 30
0.0
 10
2.292914496527778
 20
7.219618055555555
 30
0.0
 10
2.292914496527778
 20
7.219618055555555
 30
0.0
 10
2.292914496527778
 20
7.219618055555555
 30
0.0
 10
2.289577907986111
 20
7.289618598090278
 30
0.0
 10
2.289577907986111
 20
7.289618598090278
 30
0.0
 10
2.289577907986111
 20
7.289618598090278
 30
0.0
 10
2.272915310329861
 20
7.549648708767361
 30
0.0
 10
2.272915310329861
 20
7.549648708767361
 30
0.0
 10
2.272915310329861
 20
7.549648708767361
 30
0.0
 10
2.262919108072917
 20
7.749667697482638
 30
0.0
 10
2.262919108072917
 20
7.749667697482638
 30
0.0
 10
2.262919108072917
 20
7.749667697482638
 30
0.0
 10
2.252922905815972
 20
7.8863525390625
 30
0.0
 10
2.252922905815972
 20
7.8863525390625
 30
0.0
 10
2.252922905815972
 20
7.8863525390625
 30
0.0
 10
2.246256510416667
 20
7.989691840277778
 30
0.0
 10
2.246256510416667
 20
7.989691840277778
 30
0.0
 10
2.246256510416667
 20
7.989691840277778
 30
0.0
 10
2.22625732421875
 20
8.35306125217014
 30
0.0
 10
2.22625732421875
 20
8.35306125217014
 30
0.0
 10
2.22625732421875
 20
8.35306125217014
 30
0.0
 10
2.22625732421875
 20
8.356397840711805
 30
0.0
 10
2.22625732421875
 20
8.356397840711805
 30
0.0
 10
2.22625732421875
 20
8.356397840711805
 30
0.0
 10
2.22625732421875
 20
8.36306423611111
 30
0.0
 10
2.22625732421875
 20
8.36306423611111
 30
0.0
 10
2.22625732421875
 20
8.36306423611111
 30
0.0
 10
2.219590928819444
 20
8.45974392361111
 30
0.0
 10
2.219590928819444
 20
8.45974392361111
 30
0.0
 10
2.219590928819444
 20
8.45974392361111
 30
0.0
 10
2.2095947265625
 20
8.606424967447916
 30
0.0
 10
2.2095947265625
 20
8.606424967447916
 30
0.0
 10
2.2095947265625
 20
8.606424967447916
 30
0.0
 10
2.2095947265625
 20
8.64309353298611
 30
0.0
 10
2.2095947265625
 20
8.64309353298611
 30
0.0
 10
2.2095947265625
 20
8.64309353298611
 30
0.0
 10
2.206264919704861
 20
8.673095703125
 30
0.0
 10
2.206264919704861
 20
8.673095703125
 30
0.0
 10
2.206264919704861
 20
8.673095703125
 30
0.0
 10
2.206264919704861
 20
8.696431477864582
 30
0.0
 10
2.206264919704861
 20
8.696431477864582
 30
0.0
 10
2.206264919704861
 20
8.696431477864582
 30
0.0
 10
2.202928331163194
 20
8.72977023654514
 30
0.0
 10
2.202928331163194
 20
8.72977023654514
 30
0.0
 10
2.202928331163194
 20
8.72977023654514
 30
0.0
 10
2.202928331163194
 20
8.769775390625
 30
0.0
 10
2.202928331163194
 20
8.769775390625
 30
0.0
 10
2.202928331163194
 20
8.769775390625
 30
0.0
 10
2.199598524305555
 20
8.836446126302082
 30
0.0
 10
2.199598524305555
 20
8.836446126302082
 30
0.0
 10
2.199598524305555
 20
8.836446126302082
 30
0.0
 10
2.196261935763889
 20
8.866448296440971
 30
0.0
 10
2.196261935763889
 20
8.866448296440971
 30
0.0
 10
2.196261935763889
 20
8.866448296440971
 30
0.0
 10
2.19293212890625
 20
8.939792209201388
 30
0.0
 10
2.19293212890625
 20
8.939792209201388
 30
0.0
 10
2.19293212890625
 20
8.939792209201388
 30
0.0
 10
2.189602322048611
 20
8.999796549479166
 30
0.0
 10
2.189602322048611
 20
8.999796549479166
 30
0.0
 10
2.189602322048611
 20
8.999796549479166
 30
0.0
 10
2.186265733506944
 20
9.046468098958332
 30
0.0
 10
2.186265733506944
 20
9.046468098958332
 30
0.0
 10
2.186265733506944
 20
9.046468098958332
 30
0.0
 10
2.186265733506944
 20
9.053134494357638
 30
0.0
 10
2.186265733506944
 20
9.053134494357638
 30
0.0
 10
2.186265733506944
 20
9.053134494357638
 30
0.0
 10
2.186265733506944
 20
9.083136664496527
 30
0.0
 10
2.186265733506944
 20
9.083136664496527
 30
0.0
 10
2.186265733506944
 20
9.083136664496527
 30
0.0
 10
2.182935926649305
 20
9.129808213975695
 30
0.0
 10
2.182935926649305
 20
9.129808213975695
 30
0.0
 10
2.182935926649305
 20
9.129808213975695
 30
0.0
 10
2.182935926649305
 20
9.14980740017361
 30
0.0
 10
2.182935926649305
 20
9.14980740017361
 30
0.0
 10
2.182935926649305
 20
9.14980740017361
 30
0.0
 10
2.182935926649305
 20
9.16314697265625
 30
0.0
 10
2.182935926649305
 20
9.16314697265625
 30
0.0
 10
2.182935926649305
 20
9.16314697265625
 30
0.0
 10
2.182935926649305
 20
9.17647976345486
 30
0.0
 10
2.182935926649305
 20
9.17647976345486
 30
0.0
 10
2.182935926649305
 20
9.17647976345486
 30
0.0
 10
2.179599338107639
 20
9.186482747395832
 30
0.0
 10
2.179599338107639
 20
9.186482747395832
 30
0.0
 10
2.179599338107639
 20
9.186482747395832
 30
0.0
 10
2.182935926649305
 20
9.199815538194445
 30
0.0
 10
2.182935926649305
 20
9.199815538194445
 30
0.0
 10
2.182935926649305
 20
9.199815538194445
 30
0.0
 10
2.182935926649305
 20
9.2764892578125
 30
0.0
 10
2.182935926649305
 20
9.2764892578125
 30
0.0
 10
2.182935926649305
 20
9.2764892578125
 30
0.0
 10
2.182935926649305
 20
9.309828016493055
 30
0.0
 10
2.182935926649305
 20
9.309828016493055
 30
0.0
 10
2.182935926649305
 20
9.309828016493055
 30
0.0
 10
2.182935926649305
 20
9.323160807291666
 30
0.0
 10
2.182935926649305
 20
9.323160807291666
 30
0.0
 10
2.182935926649305
 20
9.323160807291666
 30
0.0
 10
2.182935926649305
 20
9.329833984375
 30
0.0
 10
2.182935926649305
 20
9.329833984375
 30
0.0
 10
2.182935926649305
 20
9.329833984375
 30
0.0
 10
2.182935926649305
 20
9.339830186631945
 30
0.0
 10
2.182935926649305
 20
9.339830186631945
 30
0.0
 10
2.182935926649305
 20
9.339830186631945
 30
0.0
 10
2.182935926649305
 20
9.34649658203125
 30
0.0
 10
2.182935926649305
 20
9.34649658203125
 30
0.0
 10
2.182935926649305
 20
9.34649658203125
 30
0.0
 10
2.182935926649305
 20
9.42983669704861
 30
0.0
 10
2.182935926649305
 20
9.42983669704861
 30
0.0
 10
2.182935926649305
 20
9.42983669704861
 30
0.0
 10
2.182935926649305
 20
9.436509874131945
 30
0.0
 10
2.182935926649305
 20
9.436509874131945
 30
0.0
 10
2.182935926649305
 20
9.436509874131945
 30
0.0
 10
2.182935926649305
 20
9.4698486328125
 30
0.0
 10
2.182935926649305
 20
9.4698486328125
 30
0.0
 10
2.182935926649305
 20
9.4698486328125
 30
0.0
 10
2.182935926649305
 20
9.599853515625
 30
0.0
 10
2.182935926649305
 20
9.599853515625
 30
0.0
 10
2.182935926649305
 20
9.599853515625
 30
0.0
 10
2.182935926649305
 20
9.616522894965277
 30
0.0
 10
2.182935926649305
 20
9.616522894965277
 30
0.0
 10
2.182935926649305
 20
9.616522894965277
 30
0.0
 10
2.262919108072917
 20
9.619859483506945
 30
0.0
 10
2.262919108072917
 20
9.619859483506945
 30
0.0
 10
2.262919108072917
 20
9.619859483506945
 30
0.0
 10
2.266248914930555
 20
9.633192274305555
 30
0.0
 10
2.266248914930555
 20
9.633192274305555
 30
0.0
 10
2.266248914930555
 20
9.633192274305555
 30
0.0
 10
2.296244303385417
 20
9.706536187065971
 30
0.0
 10
2.296244303385417
 20
9.706536187065971
 30
0.0
 10
2.296244303385417
 20
9.706536187065971
 30
0.0
 10
2.302910698784722
 20
9.723198784722221
 30
0.0
 10
2.302910698784722
 20
9.723198784722221
 30
0.0
 10
2.302910698784722
 20
9.723198784722221
 30
0.0
 10
2.332906087239583
 20
9.786539713541666
 30
0.0
 10
2.332906087239583
 20
9.786539713541666
 30
0.0
 10
2.332906087239583
 20
9.786539713541666
 30
0.0
 10
2.362901475694444
 20
9.843214246961805
 30
0.0
 10
2.362901475694444
 20
9.843214246961805
 30
0.0
 10
2.362901475694444
 20
9.843214246961805
 30
0.0
 10
2.36956787109375
 20
9.856547037760416
 30
0.0
 10
2.36956787109375
 20
9.856547037760416
 30
0.0
 10
2.36956787109375
 20
9.856547037760416
 30
0.0
 10
2.379564073350694
 20
9.873216417100695
 30
0.0
 10
2.379564073350694
 20
9.873216417100695
 30
0.0
 10
2.379564073350694
 20
9.873216417100695
 30
0.0
 10
2.40289306640625
 20
9.90655517578125
 30
0.0
 10
2.40289306640625
 20
9.90655517578125
 30
0.0
 10
2.40289306640625
 20
9.90655517578125
 30
0.0
 10
2.40289306640625
 20
9.909891764322916
 30
0.0
 10
2.40289306640625
 20
9.909891764322916
 30
0.0
 10
2.40289306640625
 20
9.909891764322916
 30
0.0
 10
2.409559461805555
 20
9.916558159722221
 30
0.0
 10
2.409559461805555
 20
9.916558159722221
 30
0.0
 10
2.409559461805555
 20
9.916558159722221
 30
0.0
 10
2.416225857204861
 20
9.926554361979166
 30
0.0
 10
2.416225857204861
 20
9.926554361979166
 30
0.0
 10
2.416225857204861
 20
9.926554361979166
 30
0.0
 10
2.429551866319444
 20
9.94656032986111
 30
0.0
 10
2.429551866319444
 20
9.94656032986111
 30
0.0
 10
2.429551866319444
 20
9.94656032986111
 30
0.0
 10
2.432888454861111
 20
9.94989013671875
 30
0.0
 10
2.432888454861111
 20
9.94989013671875
 30
0.0
 10
2.432888454861111
 20
9.94989013671875
 30
0.0
 10
2.442884657118055
 20
9.959893120659721
 30
0.0
 10
2.442884657118055
 20
9.959893120659721
 30
0.0
 10
2.442884657118055
 20
9.959893120659721
 30
0.0
 10
2.446221245659722
 20
9.966559516059027
 30
0.0
 10
2.446221245659722
 20
9.966559516059027
 30
0.0
 10
2.446221245659722
 20
9.966559516059027
 30
0.0
 10
2.456217447916667
 20
9.979899088541666
 30
0.0
 10
2.456217447916667
 20
9.979899088541666
 30
0.0
 10
2.456217447916667
 20
9.979899088541666
 30
0.0
 10
2.469550238715278
 20
9.993231879340277
 30
0.0
 10
2.469550238715278
 20
9.993231879340277
 30
0.0
 10
2.469550238715278
 20
9.993231879340277
 30
0.0
 10
2.489542643229167
 20
10.01656765407986
 30
0.0
 10
2.489542643229167
 20
10.01656765407986
 30
0.0
 10
2.489542643229167
 20
10.01656765407986
 30
0.0
 10
2.506205240885417
 20
10.03656684027778
 30
0.0
 10
2.506205240885417
 20
10.03656684027778
 30
0.0
 10
2.506205240885417
 20
10.03656684027778
 30
0.0
 10
2.516208224826389
 20
10.04656982421875
 30
0.0
 10
2.516208224826389
 20
10.04656982421875
 30
0.0
 10
2.516208224826389
 20
10.04656982421875
 30
0.0
 10
2.519538031684028
 20
10.04989963107639
 30
0.0
 10
2.519538031684028
 20
10.04989963107639
 30
0.0
 10
2.519538031684028
 20
10.04989963107639
 30
0.0
 10
2.522867838541667
 20
10.05323621961806
 30
0.0
 10
2.522867838541667
 20
10.05323621961806
 30
0.0
 10
2.522867838541667
 20
10.05323621961806
 30
0.0
 10
2.532870822482639
 20
10.06323920355903
 30
0.0
 10
2.532870822482639
 20
10.06323920355903
 30
0.0
 10
2.532870822482639
 20
10.06323920355903
 30
0.0
 10
2.539537217881944
 20
10.06990559895833
 30
0.0
 10
2.539537217881944
 20
10.06990559895833
 30
0.0
 10
2.539537217881944
 20
10.06990559895833
 30
0.0
 10
2.546196831597222
 20
10.07657199435764
 30
0.0
 10
2.546196831597222
 20
10.07657199435764
 30
0.0
 10
2.546196831597222
 20
10.07657199435764
 30
0.0
 10
2.549533420138889
 20
10.07990180121528
 30
0.0
 10
2.549533420138889
 20
10.07990180121528
 30
0.0
 10
2.549533420138889
 20
10.07990180121528
 30
0.0
 10
2.559529622395833
 20
10.08991156684028
 30
0.0
 10
2.559529622395833
 20
10.08991156684028
 30
0.0
 10
2.559529622395833
 20
10.08991156684028
 30
0.0
 10
2.602857801649305
 20
10.12657335069444
 30
0.0
 10
2.602857801649305
 20
10.12657335069444
 30
0.0
 10
2.602857801649305
 20
10.12657335069444
 30
0.0
 10
2.616190592447917
 20
10.13991292317708
 30
0.0
 10
2.616190592447917
 20
10.13991292317708
 30
0.0
 10
2.616190592447917
 20
10.13991292317708
 30
0.0
 10
2.622850206163194
 20
10.14657931857639
 30
0.0
 10
2.622850206163194
 20
10.14657931857639
 30
0.0
 10
2.622850206163194
 20
10.14657931857639
 30
0.0
 10
2.639519585503472
 20
10.159912109375
 30
0.0
 10
2.639519585503472
 20
10.159912109375
 30
0.0
 10
2.639519585503472
 20
10.159912109375
 30
0.0
 10
2.676174587673611
 20
10.18658447265625
 30
0.0
 10
2.676174587673611
 20
10.18658447265625
 30
0.0
 10
2.676174587673611
 20
10.18658447265625
 30
0.0
 10
2.712836371527778
 20
10.21325005425347
 30
0.0
 10
2.712836371527778
 20
10.21325005425347
 30
0.0
 10
2.712836371527778
 20
10.21325005425347
 30
0.0
 10
2.719502766927083
 20
10.21658664279514
 30
0.0
 10
2.719502766927083
 20
10.21658664279514
 30
0.0
 10
2.719502766927083
 20
10.21658664279514
 30
0.0
 10
2.736165364583333
 20
10.22658962673611
 30
0.0
 10
2.736165364583333
 20
10.22658962673611
 30
0.0
 10
2.736165364583333
 20
10.22658962673611
 30
0.0
 10
2.746161566840278
 20
10.23325602213542
 30
0.0
 10
2.746161566840278
 20
10.23325602213542
 30
0.0
 10
2.746161566840278
 20
10.23325602213542
 30
0.0
 10
2.749498155381944
 20
10.23325602213542
 30
0.0
 10
2.749498155381944
 20
10.23325602213542
 30
0.0
 10
2.749498155381944
 20
10.23325602213542
 30
0.0
 10
2.769490559895833
 20
10.24658881293403
 30
0.0
 10
2.769490559895833
 20
10.24658881293403
 30
0.0
 10
2.769490559895833
 20
10.24658881293403
 30
0.0
 10
2.8394775390625
 20
10.28325737847222
 30
0.0
 10
2.8394775390625
 20
10.28325737847222
 30
0.0
 10
2.8394775390625
 20
10.28325737847222
 30
0.0
 10
2.859476725260417
 20
10.29326036241319
 30
0.0
 10
2.859476725260417
 20
10.29326036241319
 30
0.0
 10
2.859476725260417
 20
10.29326036241319
 30
0.0
 10
2.866143120659722
 20
10.29659695095486
 30
0.0
 10
2.866143120659722
 20
10.29659695095486
 30
0.0
 10
2.866143120659722
 20
10.29659695095486
 30
0.0
 10
2.952792697482639
 20
10.33326551649306
 30
0.0
 10
2.952792697482639
 20
10.33326551649306
 30
0.0
 10
2.952792697482639
 20
10.33326551649306
 30
0.0
 10
2.986117892795139
 20
10.34659830729167
 30
0.0
 10
2.986117892795139
 20
10.34659830729167
 30
0.0
 10
2.986117892795139
 20
10.34659830729167
 30
0.0
 10
3.079433865017361
 20
10.36993408203125
 30
0.0
 10
3.079433865017361
 20
10.36993408203125
 30
0.0
 10
3.079433865017361
 20
10.36993408203125
 30
0.0
 10
3.189412434895833
 20
10.39326985677083
 30
0.0
 10
3.189412434895833
 20
10.39326985677083
 30
0.0
 10
3.189412434895833
 20
10.39326985677083
 30
0.0
 10
3.199415418836805
 20
10.39326985677083
 30
0.0
 10
3.199415418836805
 20
10.39326985677083
 30
0.0
 10
3.199415418836805
 20
10.39326985677083
 30
0.0
 10
3.272732204861111
 20
10.39994303385417
 30
0.0
 10
3.272732204861111
 20
10.39994303385417
 30
0.0
 10
3.272732204861111
 20
10.39994303385417
 30
0.0
 10
3.322726779513889
 20
10.40327284071181
 30
0.0
 10
3.322726779513889
 20
10.40327284071181
 30
0.0
 10
3.322726779513889
 20
10.40327284071181
 30
0.0
 10
3.409376356336805
 20
10.39994303385417
 30
0.0
 10
3.409376356336805
 20
10.39994303385417
 30
0.0
 10
3.409376356336805
 20
10.39994303385417
 30
0.0
 10
3.476026746961805
 20
10.39994303385417
 30
0.0
 10
3.476026746961805
 20
10.39994303385417
 30
0.0
 10
3.476026746961805
 20
10.39994303385417
 30
0.0
 10
3.482693142361111
 20
10.39994303385417
 30
0.0
 10
3.482693142361111
 20
10.39994303385417
 30
0.0
 10
3.482693142361111
 20
10.39994303385417
 30
0.0
 10
3.592678493923611
 20
10.38660346137153
 30
0.0
 10
3.592678493923611
 20
10.38660346137153
 30
0.0
 10
3.592678493923611
 20
10.38660346137153
 30
0.0
 10
3.626003689236111
 20
10.37993706597222
 30
0.0
 10
3.626003689236111
 20
10.37993706597222
 30
0.0
 10
3.626003689236111
 20
10.37993706597222
 30
0.0
 10
3.692654079861111
 20
10.36660427517361
 30
0.0
 10
3.692654079861111
 20
10.36660427517361
 30
0.0
 10
3.692654079861111
 20
10.36660427517361
 30
0.0
 10
3.725986056857639
 20
10.35660129123264
 30
0.0
 10
3.725986056857639
 20
10.35660129123264
 30
0.0
 10
3.725986056857639
 20
10.35660129123264
 30
0.0
 10
3.785970052083333
 20
10.33660210503472
 30
0.0
 10
3.785970052083333
 20
10.33660210503472
 30
0.0
 10
3.785970052083333
 20
10.33660210503472
 30
0.0
 10
3.825968424479167
 20
10.31993272569444
 30
0.0
 10
3.825968424479167
 20
10.31993272569444
 30
0.0
 10
3.825968424479167
 20
10.31993272569444
 30
0.0
 10
3.829298231336805
 20
10.31993272569444
 30
0.0
 10
3.829298231336805
 20
10.31993272569444
 30
0.0
 10
3.829298231336805
 20
10.31993272569444
 30
0.0
 10
3.879286024305555
 20
10.2999267578125
 30
0.0
 10
3.879286024305555
 20
10.2999267578125
 30
0.0
 10
3.879286024305555
 20
10.2999267578125
 30
0.0
 10
3.899285210503472
 20
10.29326036241319
 30
0.0
 10
3.899285210503472
 20
10.29326036241319
 30
0.0
 10
3.899285210503472
 20
10.29326036241319
 30
0.0
 10
3.925950792100694
 20
10.27992757161458
 30
0.0
 10
3.925950792100694
 20
10.27992757161458
 30
0.0
 10
3.925950792100694
 20
10.27992757161458
 30
0.0
 10
3.929280598958333
 20
10.27659098307292
 30
0.0
 10
3.929280598958333
 20
10.27659098307292
 30
0.0
 10
3.929280598958333
 20
10.27659098307292
 30
0.0
 10
3.932610405815972
 20
10.27659098307292
 30
0.0
 10
3.932610405815972
 20
10.27659098307292
 30
0.0
 10
3.932610405815972
 20
10.27659098307292
 30
0.0
 10
3.945943196614583
 20
10.26658799913194
 30
0.0
 10
3.945943196614583
 20
10.26658799913194
 30
0.0
 10
3.945943196614583
 20
10.26658799913194
 30
0.0
 10
4.01593017578125
 20
10.22991943359375
 30
0.0
 10
4.01593017578125
 20
10.22991943359375
 30
0.0
 10
4.01593017578125
 20
10.22991943359375
 30
0.0
 10
4.01593017578125
 20
10.22658962673611
 30
0.0
 10
4.01593017578125
 20
10.22658962673611
 30
0.0
 10
4.01593017578125
 20
10.22658962673611
 30
0.0
 10
4.0325927734375
 20
10.21991644965278
 30
0.0
 10
4.0325927734375
 20
10.21991644965278
 30
0.0
 10
4.0325927734375
 20
10.21991644965278
 30
0.0
 10
4.062588161892361
 20
10.20325385199653
 30
0.0
 10
4.062588161892361
 20
10.20325385199653
 30
0.0
 10
4.062588161892361
 20
10.20325385199653
 30
0.0
 10
4.129245334201388
 20
10.15324571397569
 30
0.0
 10
4.129245334201388
 20
10.15324571397569
 30
0.0
 10
4.129245334201388
 20
10.15324571397569
 30
0.0
 10
4.179233127170138
 20
10.11324055989583
 30
0.0
 10
4.179233127170138
 20
10.11324055989583
 30
0.0
 10
4.179233127170138
 20
10.11324055989583
 30
0.0
 10
4.069254557291666
 20
10.05657280815972
 30
0.0
 10
4.069254557291666
 20
10.05657280815972
 30
0.0
 10
4.069254557291666
 20
10.05657280815972
 30
0.0
 10
4.019266764322916
 20
10.03323703342014
 30
0.0
 10
4.019266764322916
 20
10.03323703342014
 30
0.0
 10
4.019266764322916
 20
10.03323703342014
 30
0.0
 10
4.012600368923611
 20
10.02990044487847
 30
0.0
 10
4.012600368923611
 20
10.02990044487847
 30
0.0
 10
4.012600368923611
 20
10.02990044487847
 30
0.0
 10
3.98260498046875
 20
9.996568467881945
 30
0.0
 10
3.98260498046875
 20
9.996568467881945
 30
0.0
 10
3.98260498046875
 20
9.996568467881945
 30
0.0
 10
3.955939398871528
 20
9.966559516059027
 30
0.0
 10
3.955939398871528
 20
9.966559516059027
 30
0.0
 10
3.955939398871528
 20
9.966559516059027
 30
0.0
 10
3.959275987413194
 20
9.963229709201388
 30
0.0
 10
3.959275987413194
 20
9.963229709201388
 30
0.0
 10
3.959275987413194
 20
9.963229709201388
 30
0.0
 10
3.962605794270833
 20
9.959893120659721
 30
0.0
 10
3.962605794270833
 20
9.959893120659721
 30
0.0
 10
3.962605794270833
 20
9.959893120659721
 30
0.0
 10
3.935946994357639
 20
9.929890950520832
 30
0.0
 10
3.935946994357639
 20
9.929890950520832
 30
0.0
 10
3.935946994357639
 20
9.929890950520832
 30
0.0
 10
3.899285210503472
 20
9.909891764322916
 30
0.0
 10
3.899285210503472
 20
9.909891764322916
 30
0.0
 10
3.899285210503472
 20
9.909891764322916
 30
0.0
 10
3.885952419704861
 20
9.889885796440971
 30
0.0
 10
3.885952419704861
 20
9.889885796440971
 30
0.0
 10
3.885952419704861
 20
9.889885796440971
 30
0.0
 10
3.879286024305555
 20
9.8798828125
 30
0.0
 10
3.879286024305555
 20
9.8798828125
 30
0.0
 10
3.879286024305555
 20
9.8798828125
 30
0.0
 10
3.879286024305555
 20
9.859883626302082
 30
0.0
 10
3.879286024305555
 20
9.859883626302082
 30
0.0
 10
3.879286024305555
 20
9.859883626302082
 30
0.0
 10
3.869289822048611
 20
9.826551649305555
 30
0.0
 10
3.869289822048611
 20
9.826551649305555
 30
0.0
 10
3.869289822048611
 20
9.826551649305555
 30
0.0
 10
3.862623426649305
 20
9.80654568142361
 30
0.0
 10
3.862623426649305
 20
9.80654568142361
 30
0.0
 10
3.862623426649305
 20
9.80654568142361
 30
0.0
 10
3.849297417534722
 20
9.759874131944445
 30
0.0
 10
3.849297417534722
 20
9.759874131944445
 30
0.0
 10
3.849297417534722
 20
9.759874131944445
 30
0.0
 10
3.842631022135417
 20
9.746534559461805
 30
0.0
 10
3.842631022135417
 20
9.746534559461805
 30
0.0
 10
3.842631022135417
 20
9.746534559461805
 30
0.0
 10
3.832628038194444
 20
9.729871961805555
 30
0.0
 10
3.832628038194444
 20
9.729871961805555
 30
0.0
 10
3.832628038194444
 20
9.729871961805555
 30
0.0
 10
3.8226318359375
 20
9.70986599392361
 30
0.0
 10
3.8226318359375
 20
9.70986599392361
 30
0.0
 10
3.8226318359375
 20
9.70986599392361
 30
0.0
 10
3.8226318359375
 20
9.703199598524305
 30
0.0
 10
3.8226318359375
 20
9.703199598524305
 30
0.0
 10
3.8226318359375
 20
9.703199598524305
 30
0.0
 10
3.819302029079861
 20
9.689866807725695
 30
0.0
 10
3.819302029079861
 20
9.689866807725695
 30
0.0
 10
3.819302029079861
 20
9.689866807725695
 30
0.0
 10
3.815965440538194
 20
9.676534016927082
 30
0.0
 10
3.815965440538194
 20
9.676534016927082
 30
0.0
 10
3.815965440538194
 20
9.676534016927082
 30
0.0
 10
3.815965440538194
 20
9.659864637586805
 30
0.0
 10
3.815965440538194
 20
9.659864637586805
 30
0.0
 10
3.815965440538194
 20
9.659864637586805
 30
0.0
 10
3.80596923828125
 20
9.633192274305555
 30
0.0
 10
3.80596923828125
 20
9.633192274305555
 30
0.0
 10
3.80596923828125
 20
9.633192274305555
 30
0.0
 10
3.80596923828125
 20
9.603190104166666
 30
0.0
 10
3.80596923828125
 20
9.603190104166666
 30
0.0
 10
3.80596923828125
 20
9.603190104166666
 30
0.0
 10
3.809299045138889
 20
9.589857313368055
 30
0.0
 10
3.809299045138889
 20
9.589857313368055
 30
0.0
 10
3.809299045138889
 20
9.589857313368055
 30
0.0
 10
3.802639431423611
 20
9.566521538628471
 30
0.0
 10
3.802639431423611
 20
9.566521538628471
 30
0.0
 10
3.802639431423611
 20
9.566521538628471
 30
0.0
 10
3.795973036024305
 20
9.559855143229166
 30
0.0
 10
3.795973036024305
 20
9.559855143229166
 30
0.0
 10
3.795973036024305
 20
9.559855143229166
 30
0.0
 10
3.782640245225694
 20
9.563191731770832
 30
0.0
 10
3.782640245225694
 20
9.563191731770832
 30
0.0
 10
3.782640245225694
 20
9.563191731770832
 30
0.0
 10
3.779310438368055
 20
9.566521538628471
 30
0.0
 10
3.779310438368055
 20
9.566521538628471
 30
0.0
 10
3.779310438368055
 20
9.566521538628471
 30
0.0
 10
3.775973849826389
 20
9.56985134548611
 30
0.0
 10
3.775973849826389
 20
9.56985134548611
 30
0.0
 10
3.775973849826389
 20
9.56985134548611
 30
0.0
 10
3.765977647569444
 20
9.573187934027777
 30
0.0
 10
3.765977647569444
 20
9.573187934027777
 30
0.0
 10
3.765977647569444
 20
9.573187934027777
 30
0.0
 10
3.745978461371528
 20
9.566521538628471
 30
0.0
 10
3.745978461371528
 20
9.566521538628471
 30
0.0
 10
3.745978461371528
 20
9.566521538628471
 30
0.0
 10
3.732652452256944
 20
9.539849175347221
 30
0.0
 10
3.732652452256944
 20
9.539849175347221
 30
0.0
 10
3.732652452256944
 20
9.539849175347221
 30
0.0
 10
3.725986056857639
 20
9.52651638454861
 30
0.0
 10
3.725986056857639
 20
9.52651638454861
 30
0.0
 10
3.725986056857639
 20
9.52651638454861
 30
0.0
 10
3.722649468315972
 20
9.51318359375
 30
0.0
 10
3.722649468315972
 20
9.51318359375
 30
0.0
 10
3.722649468315972
 20
9.51318359375
 30
0.0
 10
3.705986870659722
 20
9.476508246527777
 30
0.0
 10
3.705986870659722
 20
9.476508246527777
 30
0.0
 10
3.705986870659722
 20
9.476508246527777
 30
0.0
 10
3.665995279947917
 20
9.453179253472221
 30
0.0
 10
3.665995279947917
 20
9.453179253472221
 30
0.0
 10
3.665995279947917
 20
9.453179253472221
 30
0.0
 10
3.649332682291667
 20
9.446506076388888
 30
0.0
 10
3.649332682291667
 20
9.446506076388888
 30
0.0
 10
3.649332682291667
 20
9.446506076388888
 30
0.0
 10
3.639336480034722
 20
9.42983669704861
 30
0.0
 10
3.639336480034722
 20
9.42983669704861
 30
0.0
 10
3.639336480034722
 20
9.42983669704861
 30
0.0
 10
3.635999891493055
 20
9.376505533854166
 30
0.0
 10
3.635999891493055
 20
9.376505533854166
 30
0.0
 10
3.635999891493055
 20
9.376505533854166
 30
0.0
 10
3.635999891493055
 20
9.3731689453125
 30
0.0
 10
3.635999891493055
 20
9.3731689453125
 30
0.0
 10
3.635999891493055
 20
9.3731689453125
 30
0.0
 10
3.532687717013889
 20
9.41650390625
 30
0.0
 10
3.532687717013889
 20
9.41650390625
 30
0.0
 10
3.532687717013889
 20
9.41650390625
 30
0.0
 10
3.529351128472222
 20
9.409837510850695
 30
0.0
 10
3.529351128472222
 20
9.409837510850695
 30
0.0
 10
3.529351128472222
 20
9.409837510850695
 30
0.0
 10
3.512688530815972
 20
9.38650173611111
 30
0.0
 10
3.512688530815972
 20
9.38650173611111
 30
0.0
 10
3.512688530815972
 20
9.38650173611111
 30
0.0
 10
3.479363335503472
 20
9.339830186631945
 30
0.0
 10
3.479363335503472
 20
9.339830186631945
 30
0.0
 10
3.479363335503472
 20
9.339830186631945
 30
0.0
 10
3.456034342447917
 20
9.306491427951388
 30
0.0
 10
3.456034342447917
 20
9.306491427951388
 30
0.0
 10
3.456034342447917
 20
9.306491427951388
 30
0.0
 10
3.392713758680555
 20
9.216484917534721
 30
0.0
 10
3.392713758680555
 20
9.216484917534721
 30
0.0
 10
3.392713758680555
 20
9.216484917534721
 30
0.0
 10
3.366048177083333
 20
9.179816351996527
 30
0.0
 10
3.366048177083333
 20
9.179816351996527
 30
0.0
 10
3.366048177083333
 20
9.179816351996527
 30
0.0
 10
3.366048177083333
 20
9.17647976345486
 30
0.0
 10
3.366048177083333
 20
9.17647976345486
 30
0.0
 10
3.366048177083333
 20
9.17647976345486
 30
0.0
 10
3.362718370225694
 20
9.173149956597221
 30
0.0
 10
3.362718370225694
 20
9.173149956597221
 30
0.0
 10
3.362718370225694
 20
9.173149956597221
 30
0.0
 10
3.309393988715278
 20
9.156480577256945
 30
0.0
 10
3.309393988715278
 20
9.156480577256945
 30
0.0
 10
3.309393988715278
 20
9.156480577256945
 30
0.0
 10
3.302727593315972
 20
9.156480577256945
 30
0.0
 10
3.302727593315972
 20
9.156480577256945
 30
0.0
 10
3.302727593315972
 20
9.156480577256945
 30
0.0
 10
3.256069607204861
 20
9.143147786458332
 30
0.0
 10
3.256069607204861
 20
9.143147786458332
 30
0.0
 10
3.256069607204861
 20
9.143147786458332
 30
0.0
 10
3.232740614149305
 20
9.136474609375
 30
0.0
 10
3.232740614149305
 20
9.136474609375
 30
0.0
 10
3.232740614149305
 20
9.136474609375
 30
0.0
 10
3.222744411892361
 20
9.119805230034721
 30
0.0
 10
3.222744411892361
 20
9.119805230034721
 30
0.0
 10
3.222744411892361
 20
9.119805230034721
 30
0.0
 10
3.206081814236111
 20
9.096476236979166
 30
0.0
 10
3.206081814236111
 20
9.096476236979166
 30
0.0
 10
3.206081814236111
 20
9.096476236979166
 30
0.0
 10
3.162753634982639
 20
9.033135308159721
 30
0.0
 10
3.162753634982639
 20
9.033135308159721
 30
0.0
 10
3.162753634982639
 20
9.033135308159721
 30
0.0
 10
3.102762858072917
 20
8.939792209201388
 30
0.0
 10
3.102762858072917
 20
8.939792209201388
 30
0.0
 10
3.102762858072917
 20
8.939792209201388
 30
0.0
 10
3.096096462673611
 20
8.933119032118055
 30
0.0
 10
3.096096462673611
 20
8.933119032118055
 30
0.0
 10
3.096096462673611
 20
8.933119032118055
 30
0.0
 10
3.096096462673611
 20
8.929789225260416
 30
0.0
 10
3.096096462673611
 20
8.929789225260416
 30
0.0
 10
3.096096462673611
 20
8.929789225260416
 30
0.0
 10
3.092766655815972
 20
8.916456434461805
 30
0.0
 10
3.092766655815972
 20
8.916456434461805
 30
0.0
 10
3.092766655815972
 20
8.916456434461805
 30
0.0
 10
3.086100260416667
 20
8.899787055121527
 30
0.0
 10
3.086100260416667
 20
8.899787055121527
 30
0.0
 10
3.086100260416667
 20
8.899787055121527
 30
0.0
 10
3.089436848958333
 20
8.889784071180555
 30
0.0
 10
3.089436848958333
 20
8.889784071180555
 30
0.0
 10
3.089436848958333
 20
8.889784071180555
 30
0.0
 10
3.096096462673611
 20
8.87978786892361
 30
0.0
 10
3.096096462673611
 20
8.87978786892361
 30
0.0
 10
3.096096462673611
 20
8.87978786892361
 30
0.0
 10
3.092766655815972
 20
8.876451280381945
 30
0.0
 10
3.092766655815972
 20
8.876451280381945
 30
0.0
 10
3.092766655815972
 20
8.876451280381945
 30
0.0
 10
3.096096462673611
 20
8.839775933159721
 30
0.0
 10
3.096096462673611
 20
8.839775933159721
 30
0.0
 10
3.096096462673611
 20
8.839775933159721
 30
0.0
 10
3.092766655815972
 20
8.836446126302082
 30
0.0
 10
3.092766655815972
 20
8.836446126302082
 30
0.0
 10
3.092766655815972
 20
8.836446126302082
 30
0.0
 10
3.092766655815972
 20
8.833109537760416
 30
0.0
 10
3.092766655815972
 20
8.833109537760416
 30
0.0
 10
3.092766655815972
 20
8.833109537760416
 30
0.0
 10
3.102762858072917
 20
8.77310519748264
 30
0.0
 10
3.102762858072917
 20
8.77310519748264
 30
0.0
 10
3.102762858072917
 20
8.77310519748264
 30
0.0
 10
3.139424641927083
 20
8.723097059461805
 30
0.0
 10
3.139424641927083
 20
8.723097059461805
 30
0.0
 10
3.139424641927083
 20
8.723097059461805
 30
0.0
 10
3.146091037326389
 20
8.716437445746527
 30
0.0
 10
3.146091037326389
 20
8.716437445746527
 30
0.0
 10
3.146091037326389
 20
8.716437445746527
 30
0.0
 10
3.152757432725694
 20
8.71310085720486
 30
0.0
 10
3.152757432725694
 20
8.71310085720486
 30
0.0
 10
3.152757432725694
 20
8.71310085720486
 30
0.0
 10
3.206081814236111
 20
8.679762098524305
 30
0.0
 10
3.206081814236111
 20
8.679762098524305
 30
0.0
 10
3.206081814236111
 20
8.679762098524305
 30
0.0
 10
3.206081814236111
 20
8.676432291666666
 30
0.0
 10
3.206081814236111
 20
8.676432291666666
 30
0.0
 10
3.206081814236111
 20
8.676432291666666
 30
0.0
 10
3.229410807291667
 20
8.65976291232639
 30
0.0
 10
3.229410807291667
 20
8.65976291232639
 30
0.0
 10
3.229410807291667
 20
8.65976291232639
 30
0.0
 10
3.232740614149305
 20
8.656426323784721
 30
0.0
 10
3.232740614149305
 20
8.656426323784721
 30
0.0
 10
3.232740614149305
 20
8.656426323784721
 30
0.0
 10
3.232740614149305
 20
8.649759928385416
 30
0.0
 10
3.232740614149305
 20
8.649759928385416
 30
0.0
 10
3.232740614149305
 20
8.649759928385416
 30
0.0
 10
3.236077202690972
 20
8.64642333984375
 30
0.0
 10
3.236077202690972
 20
8.64642333984375
 30
0.0
 10
3.236077202690972
 20
8.64642333984375
 30
0.0
 10
3.312723795572917
 20
8.57308620876736
 30
0.0
 10
3.312723795572917
 20
8.57308620876736
 30
0.0
 10
3.312723795572917
 20
8.57308620876736
 30
0.0
 10
3.316060384114583
 20
8.569756401909721
 30
0.0
 10
3.316060384114583
 20
8.569756401909721
 30
0.0
 10
3.316060384114583
 20
8.569756401909721
 30
0.0
 10
3.356051974826389
 20
8.536417643229166
 30
0.0
 10
3.356051974826389
 20
8.536417643229166
 30
0.0
 10
3.356051974826389
 20
8.536417643229166
 30
0.0
 10
3.35272216796875
 20
8.526414659288195
 30
0.0
 10
3.35272216796875
 20
8.526414659288195
 30
0.0
 10
3.35272216796875
 20
8.526414659288195
 30
0.0
 10
3.349385579427083
 20
8.51974826388889
 30
0.0
 10
3.349385579427083
 20
8.51974826388889
 30
0.0
 10
3.349385579427083
 20
8.51974826388889
 30
0.0
 10
3.342719184027778
 20
8.509745279947916
 30
0.0
 10
3.342719184027778
 20
8.509745279947916
 30
0.0
 10
3.342719184027778
 20
8.509745279947916
 30
0.0
 10
3.322726779513889
 20
8.38973659939236
 30
0.0
 10
3.322726779513889
 20
8.38973659939236
 30
0.0
 10
3.322726779513889
 20
8.38973659939236
 30
0.0
 10
3.322726779513889
 20
8.37973361545139
 30
0.0
 10
3.322726779513889
 20
8.37973361545139
 30
0.0
 10
3.322726779513889
 20
8.37973361545139
 30
0.0
 10
3.319390190972222
 20
8.299723307291666
 30
0.0
 10
3.319390190972222
 20
8.299723307291666
 30
0.0
 10
3.319390190972222
 20
8.299723307291666
 30
0.0
 10
3.369384765625
 20
8.2530517578125
 30
0.0
 10
3.369384765625
 20
8.2530517578125
 30
0.0
 10
3.369384765625
 20
8.2530517578125
 30
0.0
 10
3.336052788628472
 20
8.173048231336805
 30
0.0
 10
3.336052788628472
 20
8.173048231336805
 30
0.0
 10
3.336052788628472
 20
8.173048231336805
 30
0.0
 10
3.289394802517361
 20
8.176378038194445
 30
0.0
 10
3.289394802517361
 20
8.176378038194445
 30
0.0
 10
3.289394802517361
 20
8.176378038194445
 30
0.0
 10
3.286064995659722
 20
8.176378038194445
 30
0.0
 10
3.286064995659722
 20
8.176378038194445
 30
0.0
 10
3.286064995659722
 20
8.176378038194445
 30
0.0
 10
3.252739800347222
 20
8.12637668185764
 30
0.0
 10
3.252739800347222
 20
8.12637668185764
 30
0.0
 10
3.252739800347222
 20
8.12637668185764
 30
0.0
 10
3.22607421875
 20
8.089701334635416
 30
0.0
 10
3.22607421875
 20
8.089701334635416
 30
0.0
 10
3.22607421875
 20
8.089701334635416
 30
0.0
 10
3.22607421875
 20
8.08303493923611
 30
0.0
 10
3.22607421875
 20
8.08303493923611
 30
0.0
 10
3.22607421875
 20
8.08303493923611
 30
0.0
 10
3.202745225694444
 20
7.993028428819444
 30
0.0
 10
3.202745225694444
 20
7.993028428819444
 30
0.0
 10
3.202745225694444
 20
7.993028428819444
 30
0.0
 10
3.199415418836805
 20
7.976359049479166
 30
0.0
 10
3.199415418836805
 20
7.976359049479166
 30
0.0
 10
3.199415418836805
 20
7.976359049479166
 30
0.0
 10
3.199415418836805
 20
7.966356065538194
 30
0.0
 10
3.199415418836805
 20
7.966356065538194
 30
0.0
 10
3.199415418836805
 20
7.966356065538194
 30
0.0
 10
3.216078016493055
 20
7.85968017578125
 30
0.0
 10
3.216078016493055
 20
7.85968017578125
 30
0.0
 10
3.216078016493055
 20
7.85968017578125
 30
0.0
 10
3.219407823350694
 20
7.849677191840278
 30
0.0
 10
3.219407823350694
 20
7.849677191840278
 30
0.0
 10
3.219407823350694
 20
7.849677191840278
 30
0.0
 10
3.266065809461805
 20
7.783006456163194
 30
0.0
 10
3.266065809461805
 20
7.783006456163194
 30
0.0
 10
3.266065809461805
 20
7.783006456163194
 30
0.0
 10
3.269402398003472
 20
7.769673665364583
 30
0.0
 10
3.269402398003472
 20
7.769673665364583
 30
0.0
 10
3.269402398003472
 20
7.769673665364583
 30
0.0
 10
3.272732204861111
 20
7.763007269965278
 30
0.0
 10
3.272732204861111
 20
7.763007269965278
 30
0.0
 10
3.272732204861111
 20
7.763007269965278
 30
0.0
 10
3.312723795572917
 20
7.726331922743055
 30
0.0
 10
3.312723795572917
 20
7.726331922743055
 30
0.0
 10
3.312723795572917
 20
7.726331922743055
 30
0.0
 10
3.312723795572917
 20
7.716335720486111
 30
0.0
 10
3.312723795572917
 20
7.716335720486111
 30
0.0
 10
3.312723795572917
 20
7.716335720486111
 30
0.0
 10
3.309393988715278
 20
7.702996148003471
 30
0.0
 10
3.309393988715278
 20
7.702996148003471
 30
0.0
 10
3.309393988715278
 20
7.702996148003471
 30
0.0
 10
3.392713758680555
 20
7.646321614583333
 30
0.0
 10
3.392713758680555
 20
7.646321614583333
 30
0.0
 10
3.392713758680555
 20
7.646321614583333
 30
0.0
 10
3.482693142361111
 20
7.552985297309028
 30
0.0
 10
3.482693142361111
 20
7.552985297309028
 30
0.0
 10
3.482693142361111
 20
7.552985297309028
 30
0.0
 10
3.496025933159722
 20
7.502977159288194
 30
0.0
 10
3.496025933159722
 20
7.502977159288194
 30
0.0
 10
3.496025933159722
 20
7.502977159288194
 30
0.0
 10
3.56268310546875
 20
7.382961697048611
 30
0.0
 10
3.56268310546875
 20
7.382961697048611
 30
0.0
 10
3.56268310546875
 20
7.382961697048611
 30
0.0
 10
3.572679307725694
 20
7.359632703993055
 30
0.0
 10
3.572679307725694
 20
7.359632703993055
 30
0.0
 10
3.572679307725694
 20
7.359632703993055
 30
0.0
 10
3.616007486979167
 20
7.212944878472221
 30
0.0
 10
3.616007486979167
 20
7.212944878472221
 30
0.0
 10
3.616007486979167
 20
7.212944878472221
 30
0.0
 10
3.619337293836805
 20
7.209615071614583
 30
0.0
 10
3.619337293836805
 20
7.209615071614583
 30
0.0
 10
3.619337293836805
 20
7.209615071614583
 30
0.0
 10
3.622667100694444
 20
7.206278483072916
 30
0.0
 10
3.622667100694444
 20
7.206278483072916
 30
0.0
 10
3.622667100694444
 20
7.206278483072916
 30
0.0
 10
3.655999077690972
 20
7.162943522135416
 30
0.0
 10
3.655999077690972
 20
7.162943522135416
 30
0.0
 10
3.655999077690972
 20
7.162943522135416
 30
0.0
 10
3.715983072916667
 20
7.132941351996528
 30
0.0
 10
3.715983072916667
 20
7.132941351996528
 30
0.0
 10
3.715983072916667
 20
7.132941351996528
 30
0.0
 10
3.729315863715278
 20
7.11627197265625
 30
0.0
 10
3.729315863715278
 20
7.11627197265625
 30
0.0
 10
3.729315863715278
 20
7.11627197265625
 30
0.0
 10
3.715983072916667
 20
7.079603407118055
 30
0.0
 10
3.715983072916667
 20
7.079603407118055
 30
0.0
 10
3.715983072916667
 20
7.079603407118055
 30
0.0
 10
3.722649468315972
 20
7.072930230034721
 30
0.0
 10
3.722649468315972
 20
7.072930230034721
 30
0.0
 10
3.722649468315972
 20
7.072930230034721
 30
0.0
 10
3.729315863715278
 20
7.062934027777778
 30
0.0
 10
3.729315863715278
 20
7.062934027777778
 30
0.0
 10
3.729315863715278
 20
7.062934027777778
 30
0.0
 10
3.735982259114583
 20
7.052931043836805
 30
0.0
 10
3.735982259114583
 20
7.052931043836805
 30
0.0
 10
3.735982259114583
 20
7.052931043836805
 30
0.0
 10
3.789306640625
 20
7.016262478298611
 30
0.0
 10
3.789306640625
 20
7.016262478298611
 30
0.0
 10
3.789306640625
 20
7.016262478298611
 30
0.0
 10
3.789306640625
 20
7.012925889756944
 30
0.0
 10
3.789306640625
 20
7.012925889756944
 30
0.0
 10
3.789306640625
 20
7.012925889756944
 30
0.0
 10
3.845960828993055
 20
6.972920735677083
 30
0.0
 10
3.845960828993055
 20
6.972920735677083
 30
0.0
 10
3.845960828993055
 20
6.972920735677083
 30
0.0
 10
3.892618815104167
 20
6.956258138020833
 30
0.0
 10
3.892618815104167
 20
6.956258138020833
 30
0.0
 10
3.892618815104167
 20
6.956258138020833
 30
0.0
 10
4.005933973524305
 20
6.856241861979166
 30
0.0
 10
4.005933973524305
 20
6.856241861979166
 30
0.0
 10
4.005933973524305
 20
6.856241861979166
 30
0.0
 10
4.01593017578125
 20
6.829576280381944
 30
0.0
 10
4.01593017578125
 20
6.829576280381944
 30
0.0
 10
4.01593017578125
 20
6.829576280381944
 30
0.0
 10
4.022596571180555
 20
6.749565972222221
 30
0.0
 10
4.022596571180555
 20
6.749565972222221
 30
0.0
 10
4.022596571180555
 20
6.749565972222221
 30
0.0
 10
4.022596571180555
 20
6.742899576822916
 30
0.0
 10
4.022596571180555
 20
6.742899576822916
 30
0.0
 10
4.022596571180555
 20
6.742899576822916
 30
0.0
 10
4.062588161892361
 20
6.662889268663194
 30
0.0
 10
4.062588161892361
 20
6.662889268663194
 30
0.0
 10
4.062588161892361
 20
6.662889268663194
 30
0.0
 10
4.165907118055555
 20
6.526211208767361
 30
0.0
 10
4.165907118055555
 20
6.526211208767361
 30
0.0
 10
4.165907118055555
 20
6.526211208767361
 30
0.0
 10
4.19256591796875
 20
6.459540473090278
 30
0.0
 10
4.19256591796875
 20
6.459540473090278
 30
0.0
 10
4.19256591796875
 20
6.459540473090278
 30
0.0
 10
4.182569715711805
 20
6.399529351128471
 30
0.0
 10
4.182569715711805
 20
6.399529351128471
 30
0.0
 10
4.182569715711805
 20
6.399529351128471
 30
0.0
 10
4.182569715711805
 20
6.396199544270833
 30
0.0
 10
4.182569715711805
 20
6.396199544270833
 30
0.0
 10
4.182569715711805
 20
6.396199544270833
 30
0.0
 10
4.179233127170138
 20
6.382866753472221
 30
0.0
 10
4.179233127170138
 20
6.382866753472221
 30
0.0
 10
4.179233127170138
 20
6.382866753472221
 30
0.0
 10
4.179233127170138
 20
6.249518500434028
 30
0.0
 10
4.179233127170138
 20
6.249518500434028
 30
0.0
 10
4.179233127170138
 20
6.249518500434028
 30
0.0
 10
4.185899522569445
 20
6.242852105034721
 30
0.0
 10
4.185899522569445
 20
6.242852105034721
 30
0.0
 10
4.185899522569445
 20
6.242852105034721
 30
0.0
 10
4.22589111328125
 20
6.199510362413194
 30
0.0
 10
4.22589111328125
 20
6.199510362413194
 30
0.0
 10
4.22589111328125
 20
6.199510362413194
 30
0.0
 10
4.245890299479166
 20
6.1195068359375
 30
0.0
 10
4.245890299479166
 20
6.1195068359375
 30
0.0
 10
4.245890299479166
 20
6.1195068359375
 30
0.0
 10
4.235894097222222
 20
6.009494357638888
 30
0.0
 10
4.235894097222222
 20
6.009494357638888
 30
0.0
 10
4.235894097222222
 20
6.009494357638888
 30
0.0
 10
4.215894911024305
 20
5.999491373697916
 30
0.0
 10
4.215894911024305
 20
5.999491373697916
 30
0.0
 10
4.215894911024305
 20
5.999491373697916
 30
0.0
 10
4.209228515625
 20
5.999491373697916
 30
0.0
 10
4.209228515625
 20
5.999491373697916
 30
0.0
 10
4.209228515625
 20
5.999491373697916
 30
0.0
 10
4.165907118055555
 20
5.919481065538194
 30
0.0
 10
4.165907118055555
 20
5.919481065538194
 30
0.0
 10
4.165907118055555
 20
5.919481065538194
 30
0.0
 10
4.152574327256945
 20
5.792805989583333
 30
0.0
 10
4.152574327256945
 20
5.792805989583333
 30
0.0
 10
4.152574327256945
 20
5.792805989583333
 30
0.0
 10
4.162570529513888
 20
5.706129286024305
 30
0.0
 10
4.162570529513888
 20
5.706129286024305
 30
0.0
 10
4.162570529513888
 20
5.706129286024305
 30
0.0
 10
4.202562120225695
 20
5.339423285590278
 30
0.0
 10
4.202562120225695
 20
5.339423285590278
 30
0.0
 10
4.202562120225695
 20
5.339423285590278
 30
0.0
 10
4.199232313368055
 20
5.192735460069444
 30
0.0
 10
4.199232313368055
 20
5.192735460069444
 30
0.0
 10
4.199232313368055
 20
5.192735460069444
 30
0.0
 10
4.209228515625
 20
5.1827392578125
 30
0.0
 10
4.209228515625
 20
5.1827392578125
 30
0.0
 10
4.209228515625
 20
5.1827392578125
 30
0.0
 10
4.232557508680555
 20
5.139404296875
 30
0.0
 10
4.232557508680555
 20
5.139404296875
 30
0.0
 10
4.232557508680555
 20
5.139404296875
 30
0.0
 10
4.229227701822916
 20
5.12939453125
 30
0.0
 10
4.229227701822916
 20
5.12939453125
 30
0.0
 10
4.229227701822916
 20
5.12939453125
 30
0.0
 10
4.272542317708333
 20
5.086073133680555
 30
0.0
 10
4.272542317708333
 20
5.086073133680555
 30
0.0
 10
4.272542317708333
 20
5.086073133680555
 30
0.0
 10
4.315877278645833
 20
5.069390190972222
 30
0.0
 10
4.315877278645833
 20
5.069390190972222
 30
0.0
 10
4.315877278645833
 20
5.069390190972222
 30
0.0
 10
4.435845269097222
 20
4.959391276041666
 30
0.0
 10
4.435845269097222
 20
4.959391276041666
 30
0.0
 10
4.435845269097222
 20
4.959391276041666
 30
0.0
 10
4.495849609375
 20
4.906046549479166
 30
0.0
 10
4.495849609375
 20
4.906046549479166
 30
0.0
 10
4.495849609375
 20
4.906046549479166
 30
0.0
 10
4.519178602430555
 20
4.876044379340278
 30
0.0
 10
4.519178602430555
 20
4.876044379340278
 30
0.0
 10
4.519178602430555
 20
4.876044379340278
 30
0.0
 10
4.639146592881944
 20
4.659356011284722
 30
0.0
 10
4.639146592881944
 20
4.659356011284722
 30
0.0
 10
4.639146592881944
 20
4.659356011284722
 30
0.0
 10
4.659152560763888
 20
4.609347873263888
 30
0.0
 10
4.659152560763888
 20
4.609347873263888
 30
0.0
 10
4.659152560763888
 20
4.609347873263888
 30
0.0
 10
4.675808376736111
 20
4.522664388020833
 30
0.0
 10
4.675808376736111
 20
4.522664388020833
 30
0.0
 10
4.675808376736111
 20
4.522664388020833
 30
0.0
 10
4.669135199652778
 20
4.409328884548611
 30
0.0
 10
4.669135199652778
 20
4.409328884548611
 30
0.0
 10
4.669135199652778
 20
4.409328884548611
 30
0.0
 10
4.669135199652778
 20
4.39599609375
 30
0.0
 10
4.669135199652778
 20
4.39599609375
 30
0.0
 10
4.669135199652778
 20
4.39599609375
 30
0.0
 10
4.6724853515625
 20
4.375990125868055
 30
0.0
 10
4.6724853515625
 20
4.375990125868055
 30
0.0
 10
4.6724853515625
 20
4.375990125868055
 30
0.0
 10
4.6724853515625
 20
4.372653537326388
 30
0.0
 10
4.6724853515625
 20
4.372653537326388
 30
0.0
 10
4.6724853515625
 20
4.372653537326388
 30
0.0
 10
4.675808376736111
 20
4.365993923611111
 30
0.0
 10
4.675808376736111
 20
4.365993923611111
 30
0.0
 10
4.675808376736111
 20
4.365993923611111
 30
0.0
 10
4.722466362847222
 20
4.329318576388888
 30
0.0
 10
4.722466362847222
 20
4.329318576388888
 30
0.0
 10
4.722466362847222
 20
4.329318576388888
 30
0.0
 10
4.6724853515625
 20
4.232638888888888
 30
0.0
 10
4.6724853515625
 20
4.232638888888888
 30
0.0
 10
4.6724853515625
 20
4.232638888888888
 30
0.0
 10
4.715793185763888
 20
4.152628580729166
 30
0.0
 10
4.715793185763888
 20
4.152628580729166
 30
0.0
 10
4.715793185763888
 20
4.152628580729166
 30
0.0
 10
4.779134114583333
 20
4.082628038194445
 30
0.0
 10
4.779134114583333
 20
4.082628038194445
 30
0.0
 10
4.779134114583333
 20
4.082628038194445
 30
0.0
 10
4.845784505208333
 20
4.009290907118055
 30
0.0
 10
4.845784505208333
 20
4.009290907118055
 30
0.0
 10
4.845784505208333
 20
4.009290907118055
 30
0.0
 10
4.932427300347222
 20
3.912611219618055
 30
0.0
 10
4.932427300347222
 20
3.912611219618055
 30
0.0
 10
4.932427300347222
 20
3.912611219618055
 30
0.0
 10
4.932427300347222
 20
3.909288194444444
 30
0.0
 10
4.932427300347222
 20
3.909288194444444
 30
0.0
 10
4.932427300347222
 20
3.909288194444444
 30
0.0
 10
5.052408854166666
 20
3.749267578125
 30
0.0
 10
5.052408854166666
 20
3.749267578125
 30
0.0
 10
5.052408854166666
 20
3.749267578125
 30
0.0
 10
5.062405056423611
 20
3.735921223958333
 30
0.0
 10
5.062405056423611
 20
3.735921223958333
 30
0.0
 10
5.062405056423611
 20
3.735921223958333
 30
0.0
 10
5.082411024305555
 20
3.7059326171875
 30
0.0
 10
5.082411024305555
 20
3.7059326171875
 30
0.0
 10
5.082411024305555
 20
3.7059326171875
 30
0.0
 10
5.095730251736111
 20
3.689263237847222
 30
0.0
 10
5.095730251736111
 20
3.689263237847222
 30
0.0
 10
5.095730251736111
 20
3.689263237847222
 30
0.0
 10
5.112399631076388
 20
3.672593858506944
 30
0.0
 10
5.112399631076388
 20
3.672593858506944
 30
0.0
 10
5.112399631076388
 20
3.672593858506944
 30
0.0
 10
5.122395833333333
 20
3.665920681423611
 30
0.0
 10
5.122395833333333
 20
3.665920681423611
 30
0.0
 10
5.122395833333333
 20
3.665920681423611
 30
0.0
 10
5.129069010416666
 20
3.655924479166667
 30
0.0
 10
5.129069010416666
 20
3.655924479166667
 30
0.0
 10
5.129069010416666
 20
3.655924479166667
 30
0.0
 10
5.239040798611111
 20
3.549235026041667
 30
0.0
 10
5.239040798611111
 20
3.549235026041667
 30
0.0
 10
5.239040798611111
 20
3.549235026041667
 30
0.0
 10
5.315700954861111
 20
3.435899522569444
 30
0.0
 10
5.315700954861111
 20
3.435899522569444
 30
0.0
 10
5.315700954861111
 20
3.435899522569444
 30
0.0
 10
5.472330729166666
 20
3.332546657986111
 30
0.0
 10
5.472330729166666
 20
3.332546657986111
 30
0.0
 10
5.472330729166666
 20
3.332546657986111
 30
0.0
 10
5.47900390625
 20
3.329210069444444
 30
0.0
 10
5.47900390625
 20
3.329210069444444
 30
0.0
 10
5.47900390625
 20
3.329210069444444
 30
0.0
 10
5.482326931423611
 20
3.325887044270833
 30
0.0
 10
5.482326931423611
 20
3.325887044270833
 30
0.0
 10
5.482326931423611
 20
3.325887044270833
 30
0.0
 10
5.528984917534722
 20
3.305881076388889
 30
0.0
 10
5.528984917534722
 20
3.305881076388889
 30
0.0
 10
5.528984917534722
 20
3.305881076388889
 30
0.0
 10
5.565646701388888
 20
3.292548285590278
 30
0.0
 10
5.565646701388888
 20
3.292548285590278
 30
0.0
 10
5.565646701388888
 20
3.292548285590278
 30
0.0
 10
5.615641276041666
 20
3.272542317708333
 30
0.0
 10
5.615641276041666
 20
3.272542317708333
 30
0.0
 10
5.615641276041666
 20
3.272542317708333
 30
0.0
 10
5.725613064236111
 20
3.27587890625
 30
0.0
 10
5.725613064236111
 20
3.27587890625
 30
0.0
 10
5.725613064236111
 20
3.27587890625
 30
0.0
 10
5.765611436631944
 20
3.295884874131944
 30
0.0
 10
5.765611436631944
 20
3.295884874131944
 30
0.0
 10
5.765611436631944
 20
3.295884874131944
 30
0.0
 10
5.808932834201388
 20
3.315890842013889
 30
0.0
 10
5.808932834201388
 20
3.315890842013889
 30
0.0
 10
5.808932834201388
 20
3.315890842013889
 30
0.0
 10
5.825602213541666
 20
3.352552625868055
 30
0.0
 10
5.825602213541666
 20
3.352552625868055
 30
0.0
 10
5.825602213541666
 20
3.352552625868055
 30
0.0
 10
5.828925238715278
 20
3.352552625868055
 30
0.0
 10
5.828925238715278
 20
3.352552625868055
 30
0.0
 10
5.828925238715278
 20
3.352552625868055
 30
0.0
 10
5.825602213541666
 20
3.352552625868055
 30
0.0
 10
5.825602213541666
 20
3.352552625868055
 30
0.0
 10
5.825602213541666
 20
3.352552625868055
 30
0.0
 10
5.818929036458333
 20
3.379231770833333
 30
0.0
 10
5.818929036458333
 20
3.379231770833333
 30
0.0
 10
5.818929036458333
 20
3.379231770833333
 30
0.0
 10
5.808932834201388
 20
3.412570529513889
 30
0.0
 10
5.808932834201388
 20
3.412570529513889
 30
0.0
 10
5.808932834201388
 20
3.412570529513889
 30
0.0
 10
5.825602213541666
 20
3.419230143229167
 30
0.0
 10
5.825602213541666
 20
3.419230143229167
 30
0.0
 10
5.825602213541666
 20
3.419230143229167
 30
0.0
 10
5.828925238715278
 20
3.4158935546875
 30
0.0
 10
5.828925238715278
 20
3.4158935546875
 30
0.0
 10
5.828925238715278
 20
3.4158935546875
 30
0.0
 10
5.848931206597222
 20
3.37255859375
 30
0.0
 10
5.848931206597222
 20
3.37255859375
 30
0.0
 10
5.848931206597222
 20
3.37255859375
 30
0.0
 10
5.888916015625
 20
3.205878363715278
 30
0.0
 10
5.888916015625
 20
3.205878363715278
 30
0.0
 10
5.888916015625
 20
3.205878363715278
 30
0.0
 10
5.89892578125
 20
3.055867513020833
 30
0.0
 10
5.89892578125
 20
3.055867513020833
 30
0.0
 10
5.89892578125
 20
3.055867513020833
 30
0.0
 10
5.902248806423611
 20
3.015855577256944
 30
0.0
 10
5.902248806423611
 20
3.015855577256944
 30
0.0
 10
5.902248806423611
 20
3.015855577256944
 30
0.0
 10
5.902248806423611
 20
3.002522786458333
 30
0.0
 10
5.902248806423611
 20
3.002522786458333
 30
0.0
 10
5.902248806423611
 20
3.002522786458333
 30
0.0
 10
5.905585394965278
 20
2.975843641493055
 30
0.0
 10
5.905585394965278
 20
2.975843641493055
 30
0.0
 10
5.905585394965278
 20
2.975843641493055
 30
0.0
 10
5.912245008680555
 20
2.939181857638889
 30
0.0
 10
5.912245008680555
 20
2.939181857638889
 30
0.0
 10
5.912245008680555
 20
2.939181857638889
 30
0.0
 10
5.912245008680555
 20
2.925835503472222
 30
0.0
 10
5.912245008680555
 20
2.925835503472222
 30
0.0
 10
5.912245008680555
 20
2.925835503472222
 30
0.0
 10
5.912245008680555
 20
2.919175889756944
 30
0.0
 10
5.912245008680555
 20
2.919175889756944
 30
0.0
 10
5.912245008680555
 20
2.919175889756944
 30
0.0
 10
5.925577799479166
 20
2.832492404513889
 30
0.0
 10
5.925577799479166
 20
2.832492404513889
 30
0.0
 10
5.925577799479166
 20
2.832492404513889
 30
0.0
 10
5.935574001736111
 20
2.765828450520833
 30
0.0
 10
5.935574001736111
 20
2.765828450520833
 30
0.0
 10
5.935574001736111
 20
2.765828450520833
 30
0.0
 10
5.938910590277778
 20
2.749159071180555
 30
0.0
 10
5.938910590277778
 20
2.749159071180555
 30
0.0
 10
5.938910590277778
 20
2.749159071180555
 30
0.0
 10
5.952243381076388
 20
2.639146592881944
 30
0.0
 10
5.952243381076388
 20
2.639146592881944
 30
0.0
 10
5.952243381076388
 20
2.639146592881944
 30
0.0
 10
5.955579969618055
 20
2.615817599826389
 30
0.0
 10
5.955579969618055
 20
2.615817599826389
 30
0.0
 10
5.955579969618055
 20
2.615817599826389
 30
0.0
 10
5.958902994791666
 20
2.592475043402778
 30
0.0
 10
5.958902994791666
 20
2.592475043402778
 30
0.0
 10
5.958902994791666
 20
2.592475043402778
 30
0.0
 10
5.978908962673611
 20
2.455796983506944
 30
0.0
 10
5.978908962673611
 20
2.455796983506944
 30
0.0
 10
5.978908962673611
 20
2.455796983506944
 30
0.0
 10
5.982231987847222
 20
2.262451171875
 30
0.0
 10
5.982231987847222
 20
2.262451171875
 30
0.0
 10
5.982231987847222
 20
2.262451171875
 30
0.0
 10
5.9989013671875
 20
2.102430555555555
 30
0.0
 10
5.9989013671875
 20
2.102430555555555
 30
0.0
 10
5.9989013671875
 20
2.102430555555555
 30
0.0
 10
6.002224392361111
 20
2.102430555555555
 30
0.0
 10
6.002224392361111
 20
2.102430555555555
 30
0.0
 10
6.002224392361111
 20
2.102430555555555
 30
0.0
 10
6.005560980902778
 20
2.099093967013889
 30
0.0
 10
6.005560980902778
 20
2.099093967013889
 30
0.0
 10
6.005560980902778
 20
2.099093967013889
 30
0.0
 10
6.008897569444444
 20
2.095757378472222
 30
0.0
 10
6.008897569444444
 20
2.095757378472222
 30
0.0
 10
6.008897569444444
 20
2.095757378472222
 30
0.0
 10
6.018893771701388
 20
1.982421875
 30
0.0
 10
6.018893771701388
 20
1.982421875
 30
0.0
 10
6.018893771701388
 20
1.982421875
 30
0.0
 10
6.018893771701388
 20
1.962415907118055
 30
0.0
 10
6.018893771701388
 20
1.962415907118055
 30
0.0
 10
6.018893771701388
 20
1.962415907118055
 30
0.0
 10
6.0322265625
 20
1.802395290798611
 30
0.0
 10
6.0322265625
 20
1.802395290798611
 30
0.0
 10
6.0322265625
 20
1.802395290798611
 30
0.0
 10
6.038899739583333
 20
1.679050021701389
 30
0.0
 10
6.038899739583333
 20
1.679050021701389
 30
0.0
 10
6.038899739583333
 20
1.679050021701389
 30
0.0
 10
6.045559353298611
 20
1.582383897569444
 30
0.0
 10
6.045559353298611
 20
1.582383897569444
 30
0.0
 10
6.045559353298611
 20
1.582383897569444
 30
0.0
 10
6.052232530381944
 20
1.515706380208333
 30
0.0
 10
6.052232530381944
 20
1.515706380208333
 30
0.0
 10
6.052232530381944
 20
1.515706380208333
 30
0.0
 10
6.052232530381944
 20
1.502360026041667
 30
0.0
 10
6.052232530381944
 20
1.502360026041667
 30
0.0
 10
6.052232530381944
 20
1.502360026041667
 30
0.0
 10
6.058892144097222
 20
1.42236328125
 30
0.0
 10
6.058892144097222
 20
1.42236328125
 30
0.0
 10
6.058892144097222
 20
1.42236328125
 30
0.0
 10
6.068888346354166
 20
1.275675455729167
 30
0.0
 10
6.068888346354166
 20
1.275675455729167
 30
0.0
 10
6.068888346354166
 20
1.275675455729167
 30
0.0
 10
6.072211371527778
 20
1.148993598090278
 30
0.0
 10
6.072211371527778
 20
1.148993598090278
 30
0.0
 10
6.072211371527778
 20
1.148993598090278
 30
0.0
 10
6.072211371527778
 20
1.075656467013889
 30
0.0
 10
6.072211371527778
 20
1.075656467013889
 30
0.0
 10
6.072211371527778
 20
1.075656467013889
 30
0.0
 10
6.072211371527778
 20
1.038981119791667
 30
0.0
 10
6.072211371527778
 20
1.038981119791667
 30
0.0
 10
6.072211371527778
 20
1.038981119791667
 30
0.0
 10
6.055555555555555
 20
1.038981119791667
 30
0.0
 10
6.055555555555555
 20
1.038981119791667
 30
0.0
 10
6.055555555555555
 20
1.038981119791667
 30
0.0
 10
6.048882378472222
 20
1.038981119791667
 30
0.0
 10
6.048882378472222
 20
1.038981119791667
 30
0.0
 10
6.048882378472222
 20
1.038981119791667
 30
0.0
 10
5.988905164930555
 20
1.038981119791667
 30
0.0
 10
5.988905164930555
 20
1.038981119791667
 30
0.0
 10
5.988905164930555
 20
1.038981119791667
 30
0.0
 10
5.985568576388888
 20
1.038981119791667
 30
0.0
 10
5.985568576388888
 20
1.038981119791667
 30
0.0
 10
5.985568576388888
 20
1.038981119791667
 30
0.0
 10
5.982231987847222
 20
1.038981119791667
 30
0.0
 10
5.982231987847222
 20
1.038981119791667
 30
0.0
 10
5.982231987847222
 20
1.038981119791667
 30
0.0
 10
5.962239583333333
 20
1.038981119791667
 30
0.0
 10
5.962239583333333
 20
1.038981119791667
 30
0.0
 10
5.962239583333333
 20
1.038981119791667
 30
0.0
 10
5.958902994791666
 20
1.038981119791667
 30
0.0
 10
5.958902994791666
 20
1.038981119791667
 30
0.0
 10
5.958902994791666
 20
1.038981119791667
 30
0.0
 10
5.945570203993055
 20
1.038981119791667
 30
0.0
 10
5.945570203993055
 20
1.038981119791667
 30
0.0
 10
5.945570203993055
 20
1.038981119791667
 30
0.0
 10
5.878919813368055
 20
1.038981119791667
 30
0.0
 10
5.878919813368055
 20
1.038981119791667
 30
0.0
 10
5.878919813368055
 20
1.038981119791667
 30
0.0
 10
5.868923611111111
 20
1.038981119791667
 30
0.0
 10
5.868923611111111
 20
1.038981119791667
 30
0.0
 10
5.868923611111111
 20
1.038981119791667
 30
0.0
 10
5.8555908203125
 20
1.038981119791667
 30
0.0
 10
5.8555908203125
 20
1.038981119791667
 30
0.0
 10
5.8555908203125
 20
1.038981119791667
 30
0.0
 10
5.5789794921875
 20
1.038981119791667
 30
0.0
 10
5.5789794921875
 20
1.038981119791667
 30
0.0
 10
5.5789794921875
 20
1.038981119791667
 30
0.0
 10
5.349012586805555
 20
1.03564453125
 30
0.0
 10
5.349012586805555
 20
1.03564453125
 30
0.0
 10
5.349012586805555
 20
1.03564453125
 30
0.0
 10
5.345689561631944
 20
1.03564453125
 30
0.0
 10
5.345689561631944
 20
1.03564453125
 30
0.0
 10
5.345689561631944
 20
1.03564453125
 30
0.0
 10
5.245700412326388
 20
1.03564453125
 30
0.0
 10
5.245700412326388
 20
1.03564453125
 30
0.0
 10
5.245700412326388
 20
1.03564453125
 30
0.0
 10
5.172376844618055
 20
1.03564453125
 30
0.0
 10
5.172376844618055
 20
1.03564453125
 30
0.0
 10
5.172376844618055
 20
1.03564453125
 30
0.0
 10
5.125718858506944
 20
1.03564453125
 30
0.0
 10
5.125718858506944
 20
1.03564453125
 30
0.0
 10
5.125718858506944
 20
1.03564453125
 30
0.0
 10
5.079074435763888
 20
1.03564453125
 30
0.0
 10
5.079074435763888
 20
1.03564453125
 30
0.0
 10
5.079074435763888
 20
1.03564453125
 30
0.0
 10
4.992418077256944
 20
1.038981119791667
 30
0.0
 10
4.992418077256944
 20
1.038981119791667
 30
0.0
 10
4.992418077256944
 20
1.038981119791667
 30
0.0
 10
4.952419704861111
 20
1.038981119791667
 30
0.0
 10
4.952419704861111
 20
1.038981119791667
 30
0.0
 10
4.952419704861111
 20
1.038981119791667
 30
0.0
 10
4.882432725694444
 20
1.038981119791667
 30
0.0
 10
4.882432725694444
 20
1.038981119791667
 30
0.0
 10
4.882432725694444
 20
1.038981119791667
 30
0.0
 10
4.575832790798611
 20
1.038981119791667
 30
0.0
 10
4.575832790798611
 20
1.038981119791667
 30
0.0
 10
4.575832790798611
 20
1.038981119791667
 30
0.0
 10
4.522501627604166
 20
1.042317708333333
 30
0.0
 10
4.522501627604166
 20
1.042317708333333
 30
0.0
 10
4.522501627604166
 20
1.042317708333333
 30
0.0
 10
4.445855034722222
 20
1.042317708333333
 30
0.0
 10
4.445855034722222
 20
1.042317708333333
 30
0.0
 10
4.445855034722222
 20
1.042317708333333
 30
0.0
 10
4.362535264756945
 20
1.042317708333333
 30
0.0
 10
4.362535264756945
 20
1.042317708333333
 30
0.0
 10
4.362535264756945
 20
1.042317708333333
 30
0.0
 10
4.245890299479166
 20
1.042317708333333
 30
0.0
 10
4.245890299479166
 20
1.042317708333333
 30
0.0
 10
4.245890299479166
 20
1.042317708333333
 30
0.0
 10
4.239223904079861
 20
1.042317708333333
 30
0.0
 10
4.239223904079861
 20
1.042317708333333
 30
0.0
 10
4.239223904079861
 20
1.042317708333333
 30
0.0
 10
4.152574327256945
 20
1.042317708333333
 30
0.0
 10
4.152574327256945
 20
1.042317708333333
 30
0.0
 10
4.152574327256945
 20
1.042317708333333
 30
0.0
 10
4.079250759548611
 20
1.045654296875
 30
0.0
 10
4.079250759548611
 20
1.045654296875
 30
0.0
 10
4.079250759548611
 20
1.045654296875
 30
0.0
 10
4.059258355034722
 20
1.045654296875
 30
0.0
 10
4.059258355034722
 20
1.045654296875
 30
0.0
 10
4.059258355034722
 20
1.045654296875
 30
0.0
 10
3.975938585069444
 20
1.048990885416667
 30
0.0
 10
3.975938585069444
 20
1.048990885416667
 30
0.0
 10
3.975938585069444
 20
1.048990885416667
 30
0.0
 10
3.83929443359375
 20
1.052327473958333
 30
0.0
 10
3.83929443359375
 20
1.052327473958333
 30
0.0
 10
3.83929443359375
 20
1.052327473958333
 30
0.0
 10
3.799302842881944
 20
1.052327473958333
 30
0.0
 10
3.799302842881944
 20
1.052327473958333
 30
0.0
 10
3.799302842881944
 20
1.052327473958333
 30
0.0
 10
3.789306640625
 20
1.052327473958333
 30
0.0
 10
3.789306640625
 20
1.052327473958333
 30
0.0
 10
3.789306640625
 20
1.052327473958333
 30
0.0
 10
3.679328070746528
 20
1.055650499131944
 30
0.0
 10
3.679328070746528
 20
1.055650499131944
 30
0.0
 10
3.679328070746528
 20
1.055650499131944
 30
0.0
 10
3.662665473090278
 20
1.055650499131944
 30
0.0
 10
3.662665473090278
 20
1.055650499131944
 30
0.0
 10
3.662665473090278
 20
1.055650499131944
 30
0.0
 10
3.566012912326389
 20
1.058987087673611
 30
0.0
 10
3.566012912326389
 20
1.058987087673611
 30
0.0
 10
3.566012912326389
 20
1.058987087673611
 30
0.0
 10
3.559346516927083
 20
1.058987087673611
 30
0.0
 10
3.559346516927083
 20
1.058987087673611
 30
0.0
 10
3.559346516927083
 20
1.058987087673611
 30
0.0
 10
3.499362521701389
 20
1.062323676215278
 30
0.0
 10
3.499362521701389
 20
1.062323676215278
 30
0.0
 10
3.499362521701389
 20
1.062323676215278
 30
0.0
 10
3.486029730902778
 20
1.062323676215278
 30
0.0
 10
3.486029730902778
 20
1.062323676215278
 30
0.0
 10
3.486029730902778
 20
1.062323676215278
 30
0.0
 10
3.4027099609375
 20
1.065660264756944
 30
0.0
 10
3.4027099609375
 20
1.065660264756944
 30
0.0
 10
3.4027099609375
 20
1.065660264756944
 30
0.0
 10
3.38604736328125
 20
1.065660264756944
 30
0.0
 10
3.38604736328125
 20
1.065660264756944
 30
0.0
 10
3.38604736328125
 20
1.065660264756944
 30
0.0
 10
3.376051161024305
 20
1.065660264756944
 30
0.0
 10
3.376051161024305
 20
1.065660264756944
 30
0.0
 10
3.376051161024305
 20
1.065660264756944
 30
0.0
 10
3.372714572482639
 20
1.065660264756944
 30
0.0
 10
3.372714572482639
 20
1.065660264756944
 30
0.0
 10
3.372714572482639
 20
1.065660264756944
 30
0.0
 10
3.366048177083333
 20
1.065660264756944
 30
0.0
 10
3.366048177083333
 20
1.065660264756944
 30
0.0
 10
3.366048177083333
 20
1.065660264756944
 30
0.0
 10
3.362718370225694
 20
1.065660264756944
 30
0.0
 10
3.362718370225694
 20
1.065660264756944
 30
0.0
 10
3.362718370225694
 20
1.065660264756944
 30
0.0
 10
3.359381781684028
 20
1.065660264756944
 30
0.0
 10
3.359381781684028
 20
1.065660264756944
 30
0.0
 10
3.359381781684028
 20
1.065660264756944
 30
0.0
 10
3.356051974826389
 20
1.065660264756944
 30
0.0
 10
3.356051974826389
 20
1.065660264756944
 30
0.0
 10
3.356051974826389
 20
1.065660264756944
 30
0.0
 10
3.349385579427083
 20
1.065660264756944
 30
0.0
 10
3.349385579427083
 20
1.065660264756944
 30
0.0
 10
3.349385579427083
 20
1.065660264756944
 30
0.0
 10
3.346055772569444
 20
1.065660264756944
 30
0.0
 10
3.346055772569444
 20
1.065660264756944
 30
0.0
 10
3.346055772569444
 20
1.065660264756944
 30
0.0
 10
3.342719184027778
 20
1.065660264756944
 30
0.0
 10
3.342719184027778
 20
1.065660264756944
 30
0.0
 10
3.342719184027778
 20
1.065660264756944
 30
0.0
 10
3.339389377170139
 20
1.065660264756944
 30
0.0
 10
3.339389377170139
 20
1.065660264756944
 30
0.0
 10
3.339389377170139
 20
1.065660264756944
 30
0.0
 10
3.286064995659722
 20
1.068996853298611
 30
0.0
 10
3.286064995659722
 20
1.068996853298611
 30
0.0
 10
3.286064995659722
 20
1.068996853298611
 30
0.0
 10
3.249403211805555
 20
1.068996853298611
 30
0.0
 10
3.249403211805555
 20
1.068996853298611
 30
0.0
 10
3.249403211805555
 20
1.068996853298611
 30
0.0
 10
3.239407009548611
 20
1.072319878472222
 30
0.0
 10
3.239407009548611
 20
1.072319878472222
 30
0.0
 10
3.239407009548611
 20
1.072319878472222
 30
0.0
 10
3.236077202690972
 20
1.072319878472222
 30
0.0
 10
3.236077202690972
 20
1.072319878472222
 30
0.0
 10
3.236077202690972
 20
1.072319878472222
 30
0.0
 10
3.206081814236111
 20
1.068996853298611
 30
0.0
 10
3.206081814236111
 20
1.068996853298611
 30
0.0
 10
3.206081814236111
 20
1.068996853298611
 30
0.0
 10
3.186082628038194
 20
1.072319878472222
 30
0.0
 10
3.186082628038194
 20
1.072319878472222
 30
0.0
 10
3.186082628038194
 20
1.072319878472222
 30
0.0
 10
3.159423828125
 20
1.075656467013889
 30
0.0
 10
3.159423828125
 20
1.075656467013889
 30
0.0
 10
3.159423828125
 20
1.075656467013889
 30
0.0
 10
2.986117892795139
 20
1.082316080729167
 30
0.0
 10
2.986117892795139
 20
1.082316080729167
 30
0.0
 10
2.986117892795139
 20
1.082316080729167
 30
0.0
 10
2.892801920572917
 20
1.085666232638889
 30
0.0
 10
2.892801920572917
 20
1.085666232638889
 30
0.0
 10
2.892801920572917
 20
1.085666232638889
 30
0.0
 10
2.816148546006944
 20
1.0889892578125
 30
0.0
 10
2.816148546006944
 20
1.0889892578125
 30
0.0
 10
2.816148546006944
 20
1.0889892578125
 30
0.0
 10
2.799485948350694
 20
1.0889892578125
 30
0.0
 10
2.799485948350694
 20
1.0889892578125
 30
0.0
 10
2.799485948350694
 20
1.0889892578125
 30
0.0
 10
2.669508192274305
 20
1.095648871527778
 30
0.0
 10
2.669508192274305
 20
1.095648871527778
 30
0.0
 10
2.669508192274305
 20
1.095648871527778
 30
0.0
 10
2.652845594618055
 20
1.098985460069444
 30
0.0
 10
2.652845594618055
 20
1.098985460069444
 30
0.0
 10
2.652845594618055
 20
1.098985460069444
 30
0.0
 10
2.639519585503472
 20
1.315673828125
 30
0.0
 10
2.639519585503472
 20
1.315673828125
 30
0.0
 10
2.639519585503472
 20
1.315673828125
 30
0.0
 10
2.636182996961805
 20
1.342352973090278
 30
0.0
 10
2.636182996961805
 20
1.342352973090278
 30
0.0
 10
2.636182996961805
 20
1.342352973090278
 30
0.0
 10
2.6295166015625
 20
1.442355685763889
 30
0.0
 10
2.6295166015625
 20
1.442355685763889
 30
0.0
 10
2.6295166015625
 20
1.442355685763889
 30
0.0
 10
2.626186794704861
 20
1.515706380208333
 30
0.0
 10
2.626186794704861
 20
1.515706380208333
 30
0.0
 10
2.626186794704861
 20
1.515706380208333
 30
0.0
 10
2.619520399305555
 20
1.655707465277778
 30
0.0
 10
2.619520399305555
 20
1.655707465277778
 30
0.0
 10
2.619520399305555
 20
1.655707465277778
 30
0.0
 10
2.61285400390625
 20
1.769070095486111
 30
0.0
 10
2.61285400390625
 20
1.769070095486111
 30
0.0
 10
2.61285400390625
 20
1.769070095486111
 30
0.0
 10
2.61285400390625
 20
1.775729709201389
 30
0.0
 10
2.61285400390625
 20
1.775729709201389
 30
0.0
 10
2.61285400390625
 20
1.775729709201389
 30
0.0
 10
2.61285400390625
 20
1.782389322916667
 30
0.0
 10
2.61285400390625
 20
1.782389322916667
 30
0.0
 10
2.61285400390625
 20
1.782389322916667
 30
0.0
 10
2.602857801649305
 20
1.942409939236111
 30
0.0
 10
2.602857801649305
 20
1.942409939236111
 30
0.0
 10
2.602857801649305
 20
1.942409939236111
 30
0.0
 10
2.599521213107639
 20
1.989081488715278
 30
0.0
 10
2.599521213107639
 20
1.989081488715278
 30
0.0
 10
2.599521213107639
 20
1.989081488715278
 30
0.0
 10
2.592861599392361
 20
2.142428927951389
 30
0.0
 10
2.592861599392361
 20
2.142428927951389
 30
0.0
 10
2.592861599392361
 20
2.142428927951389
 30
0.0
 10
2.589525010850694
 20
2.152425130208333
 30
0.0
 10
2.589525010850694
 20
2.152425130208333
 30
0.0
 10
2.589525010850694
 20
2.152425130208333
 30
0.0
 10
2.589525010850694
 20
2.185777452256944
 30
0.0
 10
2.589525010850694
 20
2.185777452256944
 30
0.0
 10
2.589525010850694
 20
2.185777452256944
 30
0.0
 10
2.586195203993055
 20
2.2191162109375
 30
0.0
 10
2.586195203993055
 20
2.2191162109375
 30
0.0
 10
2.586195203993055
 20
2.2191162109375
 30
0.0
 10
2.582858615451389
 20
2.279106987847222
 30
0.0
 10
2.582858615451389
 20
2.279106987847222
 30
0.0
 10
2.582858615451389
 20
2.279106987847222
 30
0.0
 10
2.556199815538194
 20
2.755818684895833
 30
0.0
 10
2.556199815538194
 20
2.755818684895833
 30
0.0
 10
2.556199815538194
 20
2.755818684895833
 30
0.0
 10
2.532870822482639
 20
3.162529839409722
 30
0.0
 10
2.532870822482639
 20
3.162529839409722
 30
0.0
 10
2.532870822482639
 20
3.162529839409722
 30
0.0
 10
2.526204427083333
 20
3.262546115451389
 30
0.0
 10
2.526204427083333
 20
3.262546115451389
 30
0.0
 10
2.526204427083333
 20
3.262546115451389
 30
0.0
 10
2.516208224826389
 20
3.405897352430555
 30
0.0
 10
2.516208224826389
 20
3.405897352430555
 30
0.0
 10
2.516208224826389
 20
3.405897352430555
 30
0.0
 10
2.509541829427083
 20
3.542575412326389
 30
0.0
 10
2.509541829427083
 20
3.542575412326389
 30
0.0
 10
2.509541829427083
 20
3.542575412326389
 30
0.0
 10
2.506205240885417
 20
3.595920138888889
 30
0.0
 10
2.506205240885417
 20
3.595920138888889
 30
0.0
 10
2.506205240885417
 20
3.595920138888889
 30
0.0
 10
2.506205240885417
 20
3.615912543402778
 30
0.0
 10
2.506205240885417
 20
3.615912543402778
 30
0.0
 10
2.506205240885417
 20
3.615912543402778
 30
0.0
 10
2.499538845486111
 20
3.7059326171875
 30
0.0
 10
2.499538845486111
 20
3.7059326171875
 30
0.0
 10
2.499538845486111
 20
3.7059326171875
 30
0.0
 10
2.499538845486111
 20
3.715928819444444
 30
0.0
 10
2.499538845486111
 20
3.715928819444444
 30
0.0
 10
2.499538845486111
 20
3.715928819444444
 30
0.0
 10
2.496209038628472
 20
3.769259982638889
 30
0.0
 10
2.496209038628472
 20
3.769259982638889
 30
0.0
 10
2.496209038628472
 20
3.769259982638889
 30
0.0
 10
2.492879231770833
 20
3.852606879340278
 30
0.0
 10
2.492879231770833
 20
3.852606879340278
 30
0.0
 10
2.492879231770833
 20
3.852606879340278
 30
0.0
 10
2.489542643229167
 20
3.859280056423611
 30
0.0
 10
2.489542643229167
 20
3.859280056423611
 30
0.0
 10
2.489542643229167
 20
3.859280056423611
 30
0.0
 10
2.479546440972222
 20
4.035956488715278
 30
0.0
 10
2.479546440972222
 20
4.035956488715278
 30
0.0
 10
2.479546440972222
 20
4.035956488715278
 30
0.0
 10
2.466213650173611
 20
4.289320203993055
 30
0.0
 10
2.466213650173611
 20
4.289320203993055
 30
0.0
 10
2.466213650173611
 20
4.289320203993055
 30
0.0
 10
2.466213650173611
 20
4.302652994791666
 30
0.0
 10
2.466213650173611
 20
4.302652994791666
 30
0.0
 10
2.466213650173611
 20
4.302652994791666
 30
0.0
 10
2.456217447916667
 20
4.4493408203125
 30
0.0
 10
2.456217447916667
 20
4.4493408203125
 30
0.0
 10
2.456217447916667
 20
4.4493408203125
 30
0.0
 10
2.456217447916667
 20
4.456000434027778
 30
0.0
 10
2.456217447916667
 20
4.456000434027778
 30
0.0
 10
2.456217447916667
 20
4.456000434027778
 30
0.0
 10
2.426222059461805
 20
4.942708333333333
 30
0.0
 10
2.426222059461805
 20
4.942708333333333
 30
0.0
 10
2.426222059461805
 20
4.942708333333333
 30
0.0
 10
2.422892252604167
 20
5.039388020833333
 30
0.0
 10
2.422892252604167
 20
5.039388020833333
 30
0.0
 10
2.422892252604167
 20
5.039388020833333
 30
0.0
 10
2.409559461805555
 20
5.219414605034722
 30
0.0
 10
2.409559461805555
 20
5.219414605034722
 30
0.0
 10
2.409559461805555
 20
5.219414605034722
 30
0.0
 10
2.409559461805555
 20
5.242757161458333
 30
0.0
 10
2.409559461805555
 20
5.242757161458333
 30
0.0
 10
2.409559461805555
 20
5.242757161458333
 30
0.0
 10
2.406222873263889
 20
5.286078559027778
 30
0.0
 10
2.406222873263889
 20
5.286078559027778
 30
0.0
 10
2.406222873263889
 20
5.286078559027778
 30
0.0
 10
2.40289306640625
 20
5.382758246527778
 30
0.0
 10
2.40289306640625
 20
5.382758246527778
 30
0.0
 10
2.40289306640625
 20
5.382758246527778
 30
0.0
 10
2.392896864149305
 20
5.492770724826388
 30
0.0
 10
2.392896864149305
 20
5.492770724826388
 30
0.0
 10
2.392896864149305
 20
5.492770724826388
 30
0.0
 10
2.392896864149305
 20
5.519443088107638
 30
0.0
 10
2.392896864149305
 20
5.519443088107638
 30
0.0
 10
2.392896864149305
 20
5.519443088107638
 30
0.0
 10
2.389560275607639
 20
5.556111653645833
 30
0.0
 10
2.389560275607639
 20
5.556111653645833
 30
0.0
 10
2.389560275607639
 20
5.556111653645833
 30
0.0
 10
2.382893880208333
 20
5.709459092881944
 30
0.0
 10
2.382893880208333
 20
5.709459092881944
 30
0.0
 10
2.382893880208333
 20
5.709459092881944
 30
0.0
 10
2.372897677951389
 20
5.85614013671875
 30
0.0
 10
2.372897677951389
 20
5.85614013671875
 30
0.0
 10
2.372897677951389
 20
5.85614013671875
 30
0.0
 10
2.366231282552083
 20
5.942816840277778
 30
0.0
 10
2.366231282552083
 20
5.942816840277778
 30
0.0
 10
2.366231282552083
 20
5.942816840277778
 30
0.0
 10
2.366231282552083
 20
5.946153428819444
 30
0.0
 10
2.366231282552083
 20
5.946153428819444
 30
0.0
 10
2.366231282552083
 20
5.946153428819444
 30
0.0
 10
2.359564887152778
 20
6.089497884114583
 30
0.0
 10
2.359564887152778
 20
6.089497884114583
 30
0.0
 10
2.359564887152778
 20
6.089497884114583
 30
0.0
 10
2.342902289496528
 20
6.402865939670138
 30
0.0
 10
2.342902289496528
 20
6.402865939670138
 30
0.0
 10
2.342902289496528
 20
6.402865939670138
 30
0.0
 10
2.336235894097222
 20
6.4862060546875
 30
0.0
 10
2.336235894097222
 20
6.4862060546875
 30
0.0
 10
2.336235894097222
 20
6.4862060546875
 30
0.0
 10
2.329576280381944
 20
6.589552137586805
 30
0.0
 10
2.329576280381944
 20
6.589552137586805
 30
0.0
 10
2.329576280381944
 20
6.589552137586805
 30
0.0
 10
2.319573296440972
 20
6.746236165364583
 30
0.0
 10
2.319573296440972
 20
6.746236165364583
 30
0.0
  0
POLYLINE
  5
41
330
3C
100
AcDbEntity
  8
STATE
 62
     2
100
AcDb2dPolyline
 66
     1
 10
0.0
 20
0.0
 30
0.0
  0
VERTEX
  5
42
330
41
100
AcDbEntity
  8
STATE
 62
     2
100
AcDbVertex
100
AcDb2dVertex
 10
3.396043565538194
 20
8.829779730902777
 30
0.0
  0
VERTEX
  5
43
330
41
100
AcDbEntity
  8
STATE
 62
     2
100
AcDbVertex
100
AcDb2dVertex
 10
3.362718370225694
 20
8.82644992404514
 30
0.0
  0
VERTEX
  5
44
330
41
100
AcDbEntity
  8
STATE
 62
     2
100
AcDbVertex
100
AcDb2dVertex
 10
3.359381781684028
 20
8.829779730902777
 30
0.0
  0
VERTEX
  5
45
330
41
100
AcDbEntity
  8
STATE
 62
     2
100
AcDbVertex
100
AcDb2dVertex
 10
3.332722981770833
 20
8.88311767578125
 30
0.0
  0
VERTEX
  5
46
330
41
100
AcDbEntity
  8
STATE
 62
     2
100
AcDbVertex
100
AcDb2dVertex
 10
3.312723795572917
 20
8.949788411458332
 30
0.0
  0
VERTEX
  5
47
330
41
100
AcDbEntity
  8
STATE
 62
     2
100
AcDbVertex
100
AcDb2dVertex
 10
3.316060384114583
 20
8.969794379340277
 30
0.0
  0
VERTEX
  5
48
330
41
100
AcDbEntity
  8
STATE
 62
     2
100
AcDbVertex
100
AcDb2dVertex
 10
3.372714572482639
 20
8.989793565538195
 30
0.0
  0
VERTEX
  5
49
330
41
100
AcDbEntity
  8
STATE
 62
     2
100
AcDbVertex
100
AcDb2dVertex
 10
3.376051161024305
 20
8.99313015407986
 30
0.0
  0
VERTEX
  5
4A
330
41
100
AcDbEntity
  8
STATE
 62
     2
100
AcDbVertex
100
AcDb2dVertex
 10
3.379380967881944
 20
8.986463758680555
 30
0.0
  0
VERTEX
  5
4B
330
41
100
AcDbEntity
  8
STATE
 62
     2
100
AcDbVertex
100
AcDb2dVertex
 10
3.376051161024305
 20
8.953125
 30
0.0
  0
VERTEX
  5
4C
330
41
100
AcDbEntity
  8
STATE
 62
     2
100
AcDbVertex
100
AcDb2dVertex
 10
3.382710774739583
 20
8.906453450520832
 30
0.0
  0
VERTEX
  5
4D
330
41
100
AcDbEntity
  8
STATE
 62
     2
100
AcDbVertex
100
AcDb2dVertex
 10
3.389377170138889
 20
8.873114691840277
 30
0.0
  0
VERTEX
  5
4E
330
41
100
AcDbEntity
  8
STATE
 62
     2
100
AcDbVertex
100
AcDb2dVertex
 10
3.38604736328125
 20
8.85311550564236
 30
0.0
  0
VERTEX
  5
4F
330
41
100
AcDbEntity
  8
STATE
 62
     2
100
AcDbVertex
100
AcDb2dVertex
 10
3.389377170138889
 20
8.836446126302082
 30
0.0
  0
VERTEX
  5
50
330
41
100
AcDbEntity
  8
STATE
 62
     2
100
AcDbVertex
100
AcDb2dVertex
 10
3.396043565538194
 20
8.829779730902777
 30
0.0
  0
SEQEND
  5
51
330
41
100
AcDbEntity
  8
STATE
  0
POLYLINE
  5
52
330
3C
100
AcDbEntity
  8
STATE
 62
     2
100
AcDb2dPolyline
 66
     1
 10
0.0
 20
0.0
 30
0.0
  0
VERTEX
  5
53
330
52
100
AcDbEntity
  8
STATE
 62
     2
100
AcDbVertex
100
AcDb2dVertex
 10
3.346055772569444
 20
8.676432291666666
 30
0.0
  0
VERTEX
  5
54
330
52
100
AcDbEntity
  8
STATE
 62
     2
100
AcDbVertex
100
AcDb2dVertex
 10
3.289394802517361
 20
8.709771050347221
 30
0.0
  0
VERTEX
  5
55
330
52
100
AcDbEntity
  8
STATE
 62
     2
100
AcDbVertex
100
AcDb2dVertex
 10
3.276068793402778
 20
8.733100043402777
 30
0.0
  0
VERTEX
  5
56
330
52
100
AcDbEntity
  8
STATE
 62
     2
100
AcDbVertex
100
AcDb2dVertex
 10
3.269402398003472
 20
8.78310818142361
 30
0.0
  0
VERTEX
  5
57
330
52
100
AcDbEntity
  8
STATE
 62
     2
100
AcDbVertex
100
AcDb2dVertex
 10
3.342719184027778
 20
8.726433648003471
 30
0.0
  0
VERTEX
  5
58
330
52
100
AcDbEntity
  8
STATE
 62
     2
100
AcDbVertex
100
AcDb2dVertex
 10
3.346055772569444
 20
8.676432291666666
 30
0.0
  0
SEQEND
  5
59
330
52
100
AcDbEntity
  8
STATE
  0
POLYLINE
  5
5A
330
3C
100
AcDbEntity
  8
STATE
100
AcDb2dPolyline
 66
     1
 10
0.0
 20
0.0
 30
0.0
  0
VERTEX
  5
5B
330
5A
100
AcDbEntity
  8
STATE
100
AcDbVertex
100
AcDb2dVertex
 10
0.2099609375
 20
0.215576171875
 30
0.0
  0
VERTEX
  5
5C
330
5A
100
AcDbEntity
  8
STATE
100
AcDbVertex
100
AcDb2dVertex
 10
0.2099609375
 20
10.64329698350694
 30
0.0
  0
VERTEX
  5
5D
330
5A
100
AcDbEntity
  8
STATE
100
AcDbVertex
100
AcDb2dVertex
 10
8.171834309895832
 20
10.64329698350694
 30
0.0
  0
VERTEX
  5
5E
330
5A
100
AcDbEntity
  8
STATE
100
AcDbVertex
100
AcDb2dVertex
 10
8.171834309895832
 20
0.215576171875
 30
0.0
  0
VERTEX
  5
5F
330
5A
100
AcDbEntity
  8
STATE
100
AcDbVertex
100
AcDb2dVertex
 10
0.2099609375
 20
0.215576171875
 30
0.0
  0
SEQEND
  5
60
330
5A
100
AcDbEntity
  8
STATE
  0
ENDBLK
  5
3F
330
3C
100
AcDbEntity
  8
0
100
AcDbBlockEnd
  0
ENDSEC
  0
SECTION
  2
ENTITIES
  0
INSERT
  5
3D
330
1F
100
AcDbEntity
  8
STATE
100
AcDbBlockReference
  2
BLOCK_2
 10
0.0
 20
0.0
 30
0.0
  0
ENDSEC
  0
SECTION
  2
OBJECTS
  0
DICTIONARY
  5
C
330
0
100
AcDbDictionary
  3
ACAD_GROUP
350
D
  3
ACAD_LAYOUT
350
1A
  3
ACAD_MLINESTYLE
350
17
  3
ACAD_PLOTSETTINGS
350
19
  3
ACAD_TABLESTYLE
350
81
  3
ACAD_VISUALSTYLE
350
2A
  3
ACDBHEADERROUNDTRIPXREC
350
61
  0
DICTIONARY
  5
D
102
{ACAD_REACTORS
330
C
102
}
330
C
100
AcDbDictionary
  0
DICTIONARY
  5
1A
102
{ACAD_REACTORS
330
C
102
}
330
C
100
AcDbDictionary
  0
DICTIONARY
  5
17
102
{ACAD_REACTORS
330
C
102
}
330
C
100
AcDbDictionary
  3
STANDARD
350
18
  0
DICTIONARY
  5
19
102
{ACAD_REACTORS
330
C
102
}
330
C
100
AcDbDictionary
  0
DICTIONARY
  5
81
102
{ACAD_REACTORS
330
C
102
}
330
C
100
AcDbDictionary
  0
DICTIONARY
  5
2A
102
{ACAD_REACTORS
330
C
102
}
330
C
100
AcDbDictionary
  3
2DWIREFRAME
350
2F
  3
3D_HIDDEN
350
31
  3
3DWIREFRAME
350
30
  3
BASIC
350
32
  3
BRIGHTEN
350
36
  3
COLORCHANGE
350
3A
  3
CONCEPTUAL
350
34
  3
DIM
350
35
  3
FACEPATTERN
350
39
  3
FLAT
350
2B
  3
FLATWITHEDGES
350
2C
  3
GOURAUD
350
2D
  3
GOURAUDWITHEDGES
350
2E
  3
LINEPATTERN
350
38
  3
REALISTIC
350
33
  3
THICKEN
350
37
  0
DICTIONARY
  5
61
102
{ACAD_REACTORS
330
C
102
}
330
C
100
AcDbDictionary
  3
CEPSNTYPE
350
6A
  3
DIMSTYLEDATA
350
80
  3
FINGERPRINTGUID
350
6B
  3
HYPERLINKBASE
350
64
  3
INSUNITS
350
69
  3
LAYOUTDICT
350
66
  3
LWETCUNION
350
68
  3
PLOTSETDICT
350
67
  3
PSVPSCALE
350
6D
  3
PUCSBASE
350
70
  3
PUCSORGBACK
350
76
  3
PUCSORGBOTTOM
350
72
  3
PUCSORGFRONT
350
75
  3
PUCSORGLEFT
350
73
  3
PUCSORGRIGHT
350
74
  3
PUCSORGTOP
350
71
  3
PUCSORTHOREF
350
6E
  3
PUCSORTHOVIEW
350
6F
  3
STYLESHEET
350
65
  3
TSTACKALIGN
350
62
  3
TSTACKSIZE
350
63
  3
UCSBASE
350
79
  3
UCSORGBACK
350
7F
  3
UCSORGBOTTOM
350
7B
  3
UCSORGFRONT
350
7E
  3
UCSORGLEFT
350
7C
  3
UCSORGRIGHT
350
7D
  3
UCSORGTOP
350
7A
  3
UCSORTHOREF
350
77
  3
UCSORTHOVIEW
350
78
  3
VERSIONGUID
350
6C
  0
MLINESTYLE
  5
18
102
{ACAD_REACTORS
330
17
102
}
330
17
100
AcDbMlineStyle
  2
Standard
 70
     0
  3

 62
   256
 51
90.0
 52
90.0
 71
     2
 49
0.5
 62
   256
  6
BYLAYER
 49
-0.5
 62
   256
  6
BYLAYER
  0
VISUALSTYLE
  5
2F
102
{ACAD_REACTORS
330
2A
102
}
330
2A
100
AcDbVisualStyle
  2
2dWireframe
 70
     4
 71
     0
 72
     2
 73
     0
 90
        0
 40
-0.6
 41
-30.0
 62
     5
 63
     7
 74
     1
 91
        4
 64
     7
 65
   257
 75
     1
175
     1
 42
1.0
 92
        0
 66
   257
 43
1.0
 76
     1
 77
     6
 78
     2
 67
     7
 79
     5
170
     0
171
     0
290
     0
174
     0
 93
        1
 44
0.0
173
     0
291
     0
 45
0.0
1001
ACAD
1000
AcDbSavedByObjectVersion
1070
     0
  0
VISUALSTYLE
  5
31
102
{ACAD_REACTORS
330
2A
102
}
330
2A
100
AcDbVisualStyle
  2
3D Hidden
 70
     6
 71
     1
 72
     2
 73
     2
 90
        0
 40
-0.6
 41
-30.0
 62
     5
 63
     7
 74
     2
 91
        2
 64
     7
 65
   257
 75
     2
175
     1
 42
40.0
 92
        0
 66
   257
 43
1.0
 76
     1
 77
     6
 78
     2
 67
     7
 79
     3
170
     0
171
     0
290
     0
174
     0
 93
        1
 44
0.0
173
     0
291
     0
 45
0.0
1001
ACAD
1000
AcDbSavedByObjectVersion
1070
     0
  0
VISUALSTYLE
  5
30
102
{ACAD_REACTORS
330
2A
102
}
330
2A
100
AcDbVisualStyle
  2
3dWireframe
 70
     5
 71
     0
 72
     2
 73
     0
 90
        0
 40
-0.6
 41
-30.0
 62
     5
 63
     7
 74
     1
 91
        4
 64
     7
 65
   257
 75
     1
175
     1
 42
1.0
 92
        0
 66
   257
 43
1.0
 76
     1
 77
     6
 78
     2
 67
     7
 79
     5
170
     0
171
     0
290
     0
174
     0
 93
        1
 44
0.0
173
     0
291
     0
 45
0.0
1001
ACAD
1000
AcDbSavedByObjectVersion
1070
     0
  0
VISUALSTYLE
  5
32
102
{ACAD_REACTORS
330
2A
102
}
330
2A
100
AcDbVisualStyle
  2
Basic
 70
     7
 71
     1
 72
     0
 73
     1
 90
        0
 40
-0.6
 41
-30.0
 62
     5
 63
     7
 74
     0
 91
        4
 64
     7
 65
   257
 75
     1
175
     1
 42
1.0
 92
        8
 66
     7
 43
1.0
 76
     1
 77
     6
 78
     2
 67
     7
 79
     5
170
     0
171
     0
290
     0
174
     0
 93
        1
 44
0.0
173
     0
291
     1
 45
0.0
1001
ACAD
1000
AcDbSavedByObjectVersion
1070
     0
  0
VISUALSTYLE
  5
36
102
{ACAD_REACTORS
330
2A
102
}
330
2A
100
AcDbVisualStyle
  2
Brighten
 70
    12
 71
     2
 72
     2
 73
     0
 90
        0
 40
-0.6
 41
-30.0
 62
     5
 63
     7
 74
     1
 91
        4
 64
     7
 65
   257
 75
     1
175
     1
 42
1.0
 92
        8
 66
     7
 43
1.0
 76
     1
 77
     6
 78
     2
 67
     7
 79
     5
170
     0
171
     0
290
     0
174
     0
 93
        1
 44
50.0
173
     0
291
     1
 45
0.0
1001
ACAD
1000
AcDbSavedByObjectVersion
1070
     0
  0
VISUALSTYLE
  5
3A
102
{ACAD_REACTORS
330
2A
102
}
330
2A
100
AcDbVisualStyle
  2
ColorChange
 70
    16
 71
     2
 72
     2
 73
     3
 90
        0
 40
-0.6
 41
-30.0
 62
     5
 63
     8
 74
     1
 91
        4
 64
     7
 65
   257
 75
     1
175
     1
 42
1.0
 92
        8
 66
     8
 43
1.0
 76
     1
 77
     6
 78
     2
 67
     7
 79
     5
170
     0
171
     0
290
     0
174
     0
 93
        1
 44
0.0
173
     0
291
     1
 45
0.0
1001
ACAD
1000
AcDbSavedByObjectVersion
1070
     0
  0
VISUALSTYLE
  5
34
102
{ACAD_REACTORS
330
2A
102
}
330
2A
100
AcDbVisualStyle
  2
Conceptual
 70
     9
 71
     3
 72
     2
 73
     0
 90
        0
 40
-0.6
 41
-30.0
 62
     5
 63
     7
 74
     2
 91
        2
 64
     7
 65
   257
 75
     1
175
     1
 42
40.0
 92
        8
 66
     7
 43
1.0
 76
     1
 77
     6
 78
     2
 67
     7
 79
     3
170
     0
171
     0
290
     0
174
     0
 93
        1
 44
0.0
173
     0
291
     0
 45
0.0
1001
ACAD
1000
AcDbSavedByObjectVersion
1070
     0
  0
VISUALSTYLE
  5
35
102
{ACAD_REACTORS
330
2A
102
}
330
2A
100
AcDbVisualStyle
  2
Dim
 70
    11
 71
     2
 72
     2
 73
     0
 90
        0
 40
-0.6
 41
-30.0
 62
     5
 63
     7
 74
     1
 91
        4
 64
     7
 65
   257
 75
     1
175
     1
 42
1.0
 92
        8
 66
     7
 43
1.0
 76
     1
 77
     6
 78
     2
 67
     7
 79
     5
170
     0
171
     0
290
     0
174
     0
 93
        1
 44
-50.0
173
     0
291
     1
 45
0.0
1001
ACAD
1000
AcDbSavedByObjectVersion
1070
     0
  0
VISUALSTYLE
  5
39
102
{ACAD_REACTORS
330
2A
102
}
330
2A
100
AcDbVisualStyle
  2
Facepattern
 70
    15
 71
     2
 72
     2
 73
     0
 90
        0
 40
-0.6
 41
-30.0
 62
     5
 63
     7
 74
     1
 91
        4
 64
     7
 65
   257
 75
     1
175
     1
 42
1.0
 92
        8
 66
     7
 43
1.0
 76
     1
 77
     6
 78
     2
 67
     7
 79
     5
170
     0
171
     0
290
     0
174
     0
 93
        1
 44
0.0
173
     0
291
     1
 45
0.0
1001
ACAD
1000
AcDbSavedByObjectVersion
1070
     0
  0
VISUALSTYLE
  5
2B
102
{ACAD_REACTORS
330
2A
102
}
330
2A
100
AcDbVisualStyle
  2
Flat
 70
     0
 71
     2
 72
     1
 73
     1
 90
        2
 40
-0.6
 41
30.0
 62
     5
 63
     7
 74
     0
 91
        4
 64
     7
 65
   257
 75
     1
175
     1
 42
1.0
 92
        8
 66
     7
 43
1.0
 76
     1
 77
     6
 78
     2
 67
     7
 79
     5
170
     0
171
     0
290
     0
174
     0
 93
       13
 44
0.0
173
     0
291
     1
 45
0.0
1001
ACAD
1000
AcDbSavedByObjectVersion
1070
     0
  0
VISUALSTYLE
  5
2C
102
{ACAD_REACTORS
330
2A
102
}
330
2A
100
AcDbVisualStyle
  2
FlatWithEdges
 70
     1
 71
     2
 72
     1
 73
     1
 90
        2
 40
-0.6
 41
30.0
 62
     5
 63
     7
 74
     1
 91
        4
 64
     7
 65
   257
 75
     1
175
     1
 42
1.0
 92
        0
 66
   257
 43
1.0
 76
     1
 77
     6
 78
     2
 67
     7
 79
     5
170
     0
171
     0
290
     0
174
     0
 93
       13
 44
0.0
173
     0
291
     1
 45
0.0
1001
ACAD
1000
AcDbSavedByObjectVersion
1070
     0
  0
VISUALSTYLE
  5
2D
102
{ACAD_REACTORS
330
2A
102
}
330
2A
100
AcDbVisualStyle
  2
Gouraud
 70
     2
 71
     2
 72
     2
 73
     1
 90
        2
 40
-0.6
 41
30.0
 62
     5
 63
     7
 74
     0
 91
        4
 64
     7
 65
   257
 75
     1
175
     1
 42
1.0
 92
        0
 66
     7
 43
1.0
 76
     1
 77
     6
 78
     2
 67
     7
 79
     5
170
     0
171
     0
290
     0
174
     0
 93
       13
 44
0.0
173
     0
291
     1
 45
0.0
1001
ACAD
1000
AcDbSavedByObjectVersion
1070
     0
  0
VISUALSTYLE
  5
2E
102
{ACAD_REACTORS
330
2A
102
}
330
2A
100
AcDbVisualStyle
  2
GouraudWithEdges
 70
     3
 71
     2
 72
     2
 73
     1
 90
        2
 40
-0.6
 41
30.0
 62
     5
 63
     7
 74
     1
 91
        4
 64
     7
 65
   257
 75
     1
175
     1
 42
1.0
 92
        0
 66
   257
 43
1.0
 76
     1
 77
     6
 78
     2
 67
     7
 79
     5
170
     0
171
     0
290
     0
174
     0
 93
       13
 44
0.0
173
     0
291
     1
 45
0.0
1001
ACAD
1000
AcDbSavedByObjectVersion
1070
     0
  0
VISUALSTYLE
  5
38
102
{ACAD_REACTORS
330
2A
102
}
330
2A
100
AcDbVisualStyle
  2
Linepattern
 70
    14
 71
     2
 72
     2
 73
     0
 90
        0
 40
-0.6
 41
-30.0
 62
     5
 63
     7
 74
     1
 91
        4
 64
     7
 65
   257
 75
     7
175
     7
 42
1.0
 92
        8
 66
     7
 43
1.0
 76
     1
 77
     6
 78
     2
 67
     7
 79
     5
170
     0
171
     0
290
     0
174
     0
 93
        1
 44
0.0
173
     0
291
     1
 45
0.0
1001
ACAD
1000
AcDbSavedByObjectVersion
1070
     0
  0
VISUALSTYLE
  5
33
102
{ACAD_REACTORS
330
2A
102
}
330
2A
100
AcDbVisualStyle
  2
Realistic
 70
     8
 71
     2
 72
     2
 73
     0
 90
        0
 40
-0.6
 41
-30.0
 62
     5
 63
     7
 74
     1
 91
        0
 64
     7
 65
   257
 75
     1
175
     1
 42
1.0
 92
        8
 66
     8
 43
1.0
 76
     1
 77
     6
 78
     2
 67
     7
 79
     5
170
     0
171
     0
290
     0
174
     0
 93
       13
 44
0.0
173
     0
291
     0
 45
0.0
1001
ACAD
1000
AcDbSavedByObjectVersion
1070
     0
  0
VISUALSTYLE
  5
37
102
{ACAD_REACTORS
330
2A
102
}
330
2A
100
AcDbVisualStyle
  2
Thicken
 70
    13
 71
     2
 72
     2
 73
     0
 90
        0
 40
-0.6
 41
-30.0
 62
     5
 63
     7
 74
     1
 91
        4
 64
     7
 65
   257
 75
     1
175
     1
 42
1.0
 92
       12
 66
     7
 43
1.0
 76
     1
 77
     6
 78
     2
 67
     7
 79
     5
170
     0
171
     0
290
     0
174
     0
 93
        1
 44
0.0
173
     0
291
     1
 45
0.0
1001
ACAD
1000
AcDbSavedByObjectVersion
1070
     0
  0
XRECORD
  5
6A
102
{ACAD_REACTORS
330
61
102
}
330
61
100
AcDbXrecord
 90
        0
  0
XRECORD
  5
80
102
{ACAD_REACTORS
330
61
102
}
330
61
100
AcDbXrecord
1000
DSTYLE
1002
{
1070
   340
340
11
1002
}
  0
XRECORD
  5
6B
102
{ACAD_REACTORS
330
61
102
}
330
61
100
AcDbXrecord
  1
{4F46F163-2D15-47F7-B455-3A34E7520230}
  0
XRECORD
  5
64
102
{ACAD_REACTORS
330
61
102
}
330
61
100
AcDbXrecord
  1

  0
XRECORD
  5
69
102
{ACAD_REACTORS
330
61
102
}
330
61
100
AcDbXrecord
 90
        1
  0
XRECORD
  5
66
102
{ACAD_REACTORS
330
61
102
}
330
61
100
AcDbXrecord
340
1A
  0
XRECORD
  5
68
102
{ACAD_REACTORS
330
61
102
}
330
61
100
AcDbXrecord
 90
    10269
  0
XRECORD
  5
67
102
{ACAD_REACTORS
330
61
102
}
330
61
100
AcDbXrecord
340
19
  0
XRECORD
  5
6D
102
{ACAD_REACTORS
330
61
102
}
330
61
100
AcDbXrecord
 40
0.0
  0
XRECORD
  5
70
102
{ACAD_REACTORS
330
61
102
}
330
61
100
AcDbXrecord
340
0
  0
XRECORD
  5
76
102
{ACAD_REACTORS
330
61
102
}
330
61
100
AcDbXrecord
 10
0.0
 20
0.0
 30
0.0
  0
XRECORD
  5
72
102
{ACAD_REACTORS
330
61
102
}
330
61
100
AcDbXrecord
 10
0.0
 20
0.0
 30
0.0
  0
XRECORD
  5
75
102
{ACAD_REACTORS
330
61
102
}
330
61
100
AcDbXrecord
 10
0.0
 20
0.0
 30
0.0
  0
XRECORD
  5
73
102
{ACAD_REACTORS
330
61
102
}
330
61
100
AcDbXrecord
 10
0.0
 20
0.0
 30
0.0
  0
XRECORD
  5
74
102
{ACAD_REACTORS
330
61
102
}
330
61
100
AcDbXrecord
 10
0.0
 20
0.0
 30
0.0
  0
XRECORD
  5
71
102
{ACAD_REACTORS
330
61
102
}
330
61
100
AcDbXrecord
 10
0.0
 20
0.0
 30
0.0
  0
XRECORD
  5
6E
102
{ACAD_REACTORS
330
61
102
}
330
61
100
AcDbXrecord
340
0
  0
XRECORD
  5
6F
102
{ACAD_REACTORS
330
61
102
}
330
61
100
AcDbXrecord
 70
     0
  0
XRECORD
  5
65
102
{ACAD_REACTORS
330
61
102
}
330
61
100
AcDbXrecord
  1

  0
XRECORD
  5
62
102
{ACAD_REACTORS
330
61
102
}
330
61
100
AcDbXrecord
 90
        1
  0
XRECORD
  5
63
102
{ACAD_REACTORS
330
61
102
}
330
61
100
AcDbXrecord
 90
       70
  0
XRECORD
  5
79
102
{ACAD_REACTORS
330
61
102
}
330
61
100
AcDbXrecord
340
0
  0
XRECORD
  5
7F
102
{ACAD_REACTORS
330
61
102
}
330
61
100
AcDbXrecord
 10
0.0
 20
0.0
 30
0.0
  0
XRECORD
  5
7B
102
{ACAD_REACTORS
330
61
102
}
330
61
100
AcDbXrecord
 10
0.0
 20
0.0
 30
0.0
  0
XRECORD
  5
7E
102
{ACAD_REACTORS
330
61
102
}
330
61
100
AcDbXrecord
 10
0.0
 20
0.0
 30
0.0
  0
XRECORD
  5
7C
102
{ACAD_REACTORS
330
61
102
}
330
61
100
AcDbXrecord
 10
0.0
 20
0.0
 30
0.0
  0
XRECORD
  5
7D
102
{ACAD_REACTORS
330
61
102
}
330
61
100
AcDbXrecord
 10
0.0
 20
0.0
 30
0.0
  0
XRECORD
  5
7A
102
{ACAD_REACTORS
330
61
102
}
330
61
100
AcDbXrecord
 10
0.0
 20
0.0
 30
0.0
  0
XRECORD
  5
77
102
{ACAD_REACTORS
330
61
102
}
330
61
100
AcDbXrecord
340
0
  0
XRECORD
  5
78
102
{ACAD_REACTORS
330
61
102
}
330
61
100
AcDbXrecord
 70
     0
  0
XRECORD
  5
6C
102
{ACAD_REACTORS
330
61
102
}
330
61
100
AcDbXrecord
  1
{FAEB1C32-E019-11D5-929B-00C0DF256EC4}
  0
ENDSEC
  0
EOF
