<?xml version="1.0" encoding="utf-8"?>
<!-- Generator: Adobe Illustrator 15.1.0, SVG Export Plug-In . SVG Version: 6.00 Build 0)  -->
<!DOCTYPE svg PUBLIC "-//W3C//DTD SVG 1.1//EN" "http://www.w3.org/Graphics/SVG/1.1/DTD/svg11.dtd">
<svg version="1.1" id="State" xmlns="http://www.w3.org/2000/svg" xmlns:xlink="http://www.w3.org/1999/xlink" x="0px" y="0px"
	 width="1296px" height="1296px" viewBox="0 0 1296 1296" enable-background="new 0 0 1296 1296" xml:space="preserve">
<g>
	<defs>
		<rect id="SVGID_1_" x="357.617" y="278.183" width="573.255" height="750.796"/>
	</defs>
	<clipPath id="SVGID_2_">
		<use xlink:href="#SVGID_1_"  overflow="visible"/>
	</clipPath>
	
		<path clip-path="url(#SVGID_2_)" fill="none" stroke="#B37C34" stroke-width="2.1596" stroke-linecap="round" stroke-linejoin="round" stroke-miterlimit="3.85" d="
		M509.509,558.771v-0.24v-1.92l-1.2-21.122l-0.48-6.721l-0.24-4.081l-0.24-5.04l-1.2-18.722l-0.72-14.401l-0.72-9.841l-0.48-7.44
		l-1.44-26.163v-0.24v-0.48l-0.48-6.961l-0.72-10.561v-2.64l-0.24-2.16v-1.68l-0.24-2.4v-2.88l-0.24-4.8l-0.24-2.16l-0.24-5.281
		l-0.24-4.32l-0.24-3.36v-0.48v-2.16l-0.24-3.36v-1.44v-0.96v-0.96l-0.24-0.72l0.24-0.96v-5.521v-2.4v-0.96v-0.48v-0.72v-0.48v-6
		v-0.48v-2.4v-9.36v-1.2l5.759-0.24l0.24-0.96l2.16-5.281l0.48-1.2l2.16-4.561l2.16-4.081l0.48-0.96l0.72-1.2l1.68-2.4v-0.24
		l0.48-0.48l0.48-0.72l0.959-1.44l0.24-0.24l0.72-0.72l0.24-0.48l0.72-0.96l0.96-0.96l1.439-1.68l1.2-1.44l0.72-0.72l0.24-0.24
		l0.24-0.24l0.72-0.72l0.48-0.48l0.479-0.48l0.24-0.24l0.72-0.721l3.12-2.64l0.96-0.96l0.479-0.48l1.2-0.96l2.639-1.92l2.64-1.92
		l0.48-0.24l1.2-0.72l0.72-0.48h0.24l1.439-0.96l5.039-2.64l1.44-0.72l0.48-0.24l6.239-2.64l2.399-0.96l6.719-1.68l7.918-1.68h0.72
		l5.279-0.48l3.6-0.24l6.239,0.24h4.799h0.48l7.919,0.96l2.399,0.48l4.799,0.96l2.4,0.72l4.319,1.44l2.88,1.2h0.24l3.599,1.44
		l1.44,0.48l1.92,0.96l0.24,0.24h0.24l0.96,0.72l5.039,2.64v0.24l1.2,0.48l2.16,1.2l4.799,3.601l3.599,2.88l-7.918,4.08l-3.599,1.68
		l-0.48,0.24l-2.16,2.4l-1.92,2.161l0.24,0.24l0.24,0.24l-1.919,2.16l-2.64,1.44l-0.96,1.44l-0.48,0.72v1.44l-0.72,2.4l-0.48,1.44
		l-0.959,3.36l-0.48,0.96l-0.72,1.2l-0.72,1.44v0.48l-0.24,0.96l-0.24,0.96v1.2l-0.72,1.92v2.16l0.24,0.96l-0.479,1.68l-0.48,0.48
		l-0.96-0.24l-0.24-0.24l-0.24-0.24l-0.72-0.24l-1.44,0.48l-0.959,1.92l-0.48,0.96l-0.24,0.96l-1.2,2.641l-2.879,1.68l-1.2,0.48
		l-0.72,1.2l-0.24,3.84v0.24l-7.438-3.12l-0.24,0.48l-1.2,1.68l-2.399,3.36l-1.68,2.4l-4.559,6.48l-1.92,2.64v0.24l-0.24,0.24
		l-3.839,1.2h-0.48l-3.359,0.96l-1.68,0.48l-0.72,1.2l-1.2,1.68l-3.12,4.561l-4.319,6.721l-0.48,0.48v0.24l-0.24,0.96l-0.48,1.2
		l0.24,0.72l0.479,0.72l-0.24,0.24l0.24,2.641l-0.24,0.24v0.24l0.72,4.32l2.64,3.601l0.48,0.479l0.48,0.24l3.839,2.4v0.24l1.68,1.2
		l0.24,0.24v0.48l0.24,0.24l5.519,5.28l0.24,0.24l2.879,2.4l-0.24,0.72l-0.24,0.48l-0.48,0.72l-1.439,8.641v0.72l-0.24,5.761
		l3.6,3.36l-2.4,5.76l-3.359-0.24h-0.24l-2.399,3.6l-1.92,2.641v0.48l-1.68,6.48l-0.24,1.2v0.72l1.2,7.681l0.24,0.72l3.359,4.8
		l0.24,0.96l0.24,0.48l2.879,2.641v0.72l-0.24,0.96l5.999,4.081l6.479,6.72l0.96,3.601l4.799,8.641l0.72,1.68l3.12,10.562l0.24,0.24
		l0.24,0.24l2.4,3.12l4.319,2.16l0.96,1.2l-0.96,2.64l0.48,0.48l0.48,0.72l0.48,0.72l3.839,2.64v0.24l4.079,2.88l3.359,1.2
		l8.159,7.201l0.72,1.92l0.48,5.761v0.48l2.879,5.761l7.439,9.841l1.919,4.8l-0.72,4.321v0.24l-0.24,0.96v9.601l0.48,0.48
		l2.879,3.121l1.44,5.76l-0.72,7.921l-1.44,0.72h-0.48l-3.119,5.761l-0.96,9.121l0.72,6.241l2.879,26.403l-0.24,10.562l0.72,0.72
		l1.68,3.12l-0.24,0.721l3.119,3.119l3.12,1.201l8.638,7.92l4.32,3.841l1.68,2.16l8.638,15.602l1.44,3.601l1.199,6.241l-0.48,8.16
		v0.96l0.241,1.44v0.24l0.239,0.479l3.359,2.641l-3.599,6.961l3.118,5.761l4.561,5.04l4.799,5.28l6.238,6.961v0.239l8.639,11.521
		l0.72,0.961l1.44,2.159l0.959,1.2l1.2,1.2l0.72,0.48l0.48,0.72l7.918,7.682l5.52,8.16l11.277,7.441l0.48,0.24l0.239,0.239
		l3.359,1.44l2.64,0.96l3.6,1.44l7.918-0.24l2.88-1.44l3.119-1.44l1.2-2.64h0.239h-0.239l-0.48-1.921l-0.72-2.4l1.2-0.479
		l0.239,0.24l1.44,3.12l2.879,12.001l0.721,10.801l0.239,2.881v0.96l0.24,1.921l0.479,2.64v0.961v0.479l0.96,6.241l0.72,4.8
		l0.24,1.2l0.96,7.921l0.24,1.68l0.239,1.681l1.44,9.841l0.239,13.921l1.2,11.521h0.239l0.24,0.24l0.24,0.24l0.72,8.16v1.44
		l0.96,11.521l0.48,8.881l0.479,6.96l0.48,4.801v0.961l0.479,5.76l0.72,10.562l0.239,9.121v5.28v2.641H778.5h-0.48h-4.318h-0.24
		h-0.24h-1.439h-0.24h-0.96h-4.799h-0.72h-0.96h-19.916l-16.558,0.24h-0.239h-7.199h-5.279h-3.359h-3.358l-6.239-0.24h-2.88h-5.039
		H671.96l-3.84-0.24h-5.519h-5.999h-8.398h-0.48h-6.239l-5.279-0.24h-1.439l-5.999-0.24l-9.838-0.24h-2.879h-0.72l-7.918-0.239h-1.2
		l-6.959-0.24h-0.48l-4.319-0.24h-0.96l-5.999-0.24h-1.2h-0.72h-0.24h-0.48h-0.24h-0.24h-0.24h-0.48h-0.24h-0.24h-0.24l-3.839-0.24
		h-2.64l-0.72-0.239h-0.24l-2.16,0.239l-1.44-0.239l-1.919-0.24l-12.478-0.479l-6.719-0.241l-5.519-0.239h-1.2l-9.358-0.479
		l-1.2-0.24l-0.959-15.602l-0.24-1.921l-0.48-7.2l-0.24-5.281l-0.48-10.08l-0.48-8.162v-0.479v-0.479l-0.72-11.521l-0.24-3.36
		l-0.479-11.041l-0.24-0.72v-2.401l-0.24-2.4l-0.24-4.319l-1.919-34.323l-1.68-29.283l-0.48-7.201l-0.72-10.321l-0.48-9.841
		l-0.24-3.841v-1.439l-0.48-6.481v-0.72l-0.24-3.84l-0.24-6.001l-0.24-0.48l-0.72-12.721l-0.96-18.242v-0.96l-0.72-10.562v-0.479
		l-2.16-35.043l-0.24-6.961l-0.96-12.962v-1.681l-0.24-3.119l-0.24-6.961l-0.72-7.921v-1.92l-0.24-2.64l-0.48-11.041l-0.72-10.561
		l-0.48-6.241v-0.24l-0.48-10.321l-1.2-22.563l-0.48-6l-0.479-7.441L509.509,558.771z M587.015,408.756l-2.399,0.24l-0.24-0.24
		l-1.919-3.84l-1.44-4.8l0.24-1.44l4.079-1.44l0.24-0.24l0.24,0.48l-0.24,2.4l0.479,3.36l0.48,2.4l-0.24,1.44l0.24,1.2
		L587.015,408.756z M583.416,419.797l-4.08-2.4l-0.959-1.68l-0.48-3.601l5.279,4.081L583.416,419.797z"/>
</g>
</svg>
