<?xml version="1.0" encoding="utf-8"?>
<!-- Generator: Adobe Illustrator 15.1.0, SVG Export Plug-In . SVG Version: 6.00 Build 0)  -->
<!DOCTYPE svg PUBLIC "-//W3C//DTD SVG 1.1//EN" "http://www.w3.org/Graphics/SVG/1.1/DTD/svg11.dtd">
<svg version="1.1" id="State" xmlns="http://www.w3.org/2000/svg" xmlns:xlink="http://www.w3.org/1999/xlink" x="0px" y="0px"
	 width="1296px" height="1296px" viewBox="0 0 1296 1296" enable-background="new 0 0 1296 1296" xml:space="preserve">
<g>
	<defs>
		<rect id="SVGID_1_" x="354.258" y="264.741" width="590.052" height="772.639"/>
	</defs>
	<clipPath id="SVGID_2_">
		<use xlink:href="#SVGID_1_"  overflow="visible"/>
	</clipPath>
	
		<polyline clip-path="url(#SVGID_2_)" fill="none" stroke="#B37C34" stroke-width="0.4799" stroke-linecap="round" stroke-linejoin="round" stroke-miterlimit="3.85" points="
		392.651,381.153 392.891,381.153 393.13,381.153 393.611,381.153 393.851,381.153 394.571,381.153 395.53,381.153 395.771,381.393 
		396.01,381.393 396.25,381.393 396.49,381.393 397.21,381.393 397.45,381.393 397.69,381.393 398.41,381.393 401.289,381.393 
		402.009,381.393 402.729,381.393 404.409,381.393 405.608,381.393 405.849,381.393 406.329,381.393 409.448,381.633 
		409.928,381.633 410.647,381.633 411.607,381.633 411.847,381.633 412.567,381.633 414.247,381.633 414.487,381.633 
		415.687,381.633 419.766,381.873 420.726,381.873 421.206,381.873 422.405,381.873 423.605,381.873 426.484,382.113 
		426.725,382.113 428.164,382.113 429.844,382.113 432.724,382.354 433.923,382.354 433.923,382.113 434.163,382.354 
		435.603,382.354 436.803,382.593 437.522,382.593 438.482,382.593 441.122,382.593 445.441,382.593 445.681,382.593 
		447.361,382.593 448.8,382.833 449.521,382.833 450.24,382.833 453.36,382.833 453.6,382.833 457.199,382.833 458.159,382.833 
		458.399,382.833 459.358,382.833 459.599,382.833 460.079,382.833 461.278,382.833 462.238,383.073 462.958,383.073 
		463.438,383.073 463.918,383.073 464.397,383.073 464.877,383.073 465.357,383.073 466.797,383.073 467.757,383.073 
		469.197,383.073 472.796,383.073 473.276,383.073 473.516,383.073 473.996,383.073 474.476,383.073 477.835,383.313 
		482.154,383.313 482.395,383.313 483.594,383.313 486.234,383.313 486.474,383.313 488.633,383.553 490.313,383.553 
		490.793,383.553 493.912,383.553 498.231,383.553 502.071,383.553 504.23,383.553 504.71,383.553 508.31,383.553 511.189,383.553 
		511.669,383.553 512.629,383.553 515.028,383.553 515.988,383.553 522.227,383.553 522.707,383.553 522.947,383.553 
		523.667,383.553 528.706,383.313 530.625,383.313 532.785,383.313 534.225,383.313 536.145,383.313 540.464,383.313 
		540.704,383.313 543.343,383.313 545.263,383.313 546.942,383.313 547.422,383.313 549.582,383.313 553.901,383.313 
		554.141,383.313 555.821,383.313 556.061,383.313 556.301,383.313 557.741,383.313 557.741,383.553 557.741,383.793 
		557.741,384.514 557.5,385.233 557.5,385.474 557.741,385.714 557.98,385.954 557.98,385.714 557.98,385.954 558.7,385.954 
		558.94,386.193 559.18,386.434 559.42,386.674 559.42,386.914 559.42,387.154 559.18,387.634 559.18,387.874 559.18,388.114 
		559.18,388.354 559.18,388.594 559.18,388.834 559.42,389.074 559.66,389.314 559.9,389.554 560.14,390.034 560.38,390.274 
		561.1,391.234 561.34,391.714 561.58,391.954 562.06,392.674 562.06,392.914 562.3,392.914 562.54,393.154 562.54,393.395 
		562.54,393.634 562.3,393.875 562.3,394.114 562.3,394.354 562.54,394.354 562.54,394.595 562.54,394.834 562.54,395.075 
		562.54,395.314 562.54,395.555 562.78,395.794 563.02,396.035 563.02,396.275 563.02,396.515 563.02,396.755 562.78,396.995 
		562.54,397.235 562.54,397.475 562.54,398.195 562.54,398.435 562.54,398.675 562.78,399.155 563.02,399.635 563.02,399.875 
		563.02,400.355 563.02,400.595 563.02,400.835 563.739,402.035 563.739,402.515 563.5,402.996 563.739,403.235 563.979,403.476 
		563.979,403.715 563.979,403.955 563.979,404.195 564.219,404.195 564.459,404.195 564.699,404.195 564.939,404.195 
		565.179,404.195 565.419,404.195 565.899,404.916 566.139,405.636 566.139,405.875 566.859,406.116 567.099,406.596 
		567.579,407.556 569.499,407.556 572.858,407.796 577.657,408.036 581.016,408.276 581.976,408.276 583.416,408.276 
		584.855,408.516 586.055,408.516 590.135,408.756 590.854,408.756 591.334,408.756 592.054,408.756 595.654,409.236 
		596.134,409.236 597.333,409.236 599.253,409.236 602.373,409.236 602.373,409.476 602.853,409.476 609.571,409.716 
		611.491,409.716 611.73,409.716 618.689,410.196 620.849,410.196 621.329,410.436 622.049,410.436 623.729,410.436 
		624.448,410.436 625.648,410.676 626.368,410.676 626.848,410.676 628.528,410.676 629.248,410.676 638.366,411.156 
		640.286,411.396 642.685,411.396 643.405,411.636 643.645,411.636 648.204,411.876 653.003,412.116 653.243,412.116 
		655.643,412.116 657.802,412.356 661.161,412.596 663.081,412.596 663.321,412.596 665.721,412.836 669.561,413.076 
		670.04,413.076 670.76,413.076 673.64,413.076 674.359,413.316 676.039,413.316 677.239,413.316 679.398,413.557 679.639,413.557 
		682.518,413.796 683.478,413.796 688.277,414.037 689.236,414.037 689.477,414.037 689.956,414.037 690.677,414.037 
		691.876,414.276 692.116,414.276 692.356,414.276 692.836,414.276 693.315,414.276 697.875,414.517 706.033,414.997 
		710.593,415.237 723.551,415.957 724.27,415.957 731.709,416.437 732.908,416.437 733.148,416.437 734.108,416.437 
		734.588,416.437 735.308,416.677 736.027,416.677 740.827,416.917 743.706,416.917 746.826,417.157 753.305,417.396 
		755.225,417.637 755.944,417.637 758.344,417.877 758.584,417.877 758.104,418.117 757.864,418.357 757.624,418.357 
		757.144,418.837 757.144,419.077 756.904,419.797 756.904,420.517 757.144,420.757 757.384,421.237 757.384,421.717 
		757.384,422.197 757.624,422.677 757.864,422.917 758.344,423.157 758.584,423.638 759.063,424.117 759.544,424.837 
		759.544,425.558 759.304,426.038 759.063,426.758 759.063,426.998 759.304,427.238 759.304,427.478 759.304,428.198 
		759.304,428.678 759.063,429.158 759.063,429.878 759.544,431.798 759.783,432.278 760.264,433.479 760.503,433.718 
		760.983,433.958 761.223,434.438 761.943,435.159 762.423,435.159 762.663,435.398 762.902,435.159 763.863,434.679 
		765.063,434.679 765.303,434.438 765.782,434.438 766.022,434.438 766.742,434.438 766.982,434.438 766.982,434.679 
		767.223,434.679 767.462,434.918 768.422,435.159 769.382,434.918 769.861,434.918 770.581,434.679 770.822,434.679 
		771.302,434.198 771.302,433.958 771.541,433.718 771.541,433.479 771.541,432.999 771.541,432.758 771.302,431.798 
		771.062,431.318 771.302,430.838 771.302,430.358 771.541,430.118 771.781,429.638 771.781,429.158 771.541,428.678 
		771.541,428.438 772.021,427.958 772.021,427.718 772.261,426.758 772.261,426.278 772.261,426.038 772.502,426.038 
		772.741,425.317 772.741,425.078 772.741,424.357 772.741,423.877 772.981,423.638 772.981,423.157 772.981,422.438 
		772.981,422.197 772.741,421.717 772.741,421.477 772.741,421.237 772.741,420.517 772.981,419.077 773.461,417.877 
		773.461,417.637 773.221,416.917 773.221,416.437 773.221,416.197 772.981,415.477 772.741,414.757 772.502,414.517 
		771.781,414.517 771.781,414.276 772.021,413.796 771.781,413.076 771.302,412.356 771.062,412.116 770.822,411.876 
		771.062,411.396 770.822,411.396 770.822,410.916 770.342,410.676 770.102,410.436 770.102,408.756 770.102,408.516 
		770.581,407.316 771.062,406.116 770.822,405.155 770.822,404.676 770.581,404.436 770.581,404.195 770.581,403.715 
		770.822,403.476 770.822,402.996 770.822,402.755 770.822,402.515 771.062,402.275 771.302,402.275 771.541,402.275 
		772.261,402.035 772.741,401.555 772.741,401.315 772.261,400.355 771.781,399.635 771.781,399.395 771.781,399.155 
		772.261,398.915 772.981,398.915 773.221,398.915 773.94,399.395 774.182,399.635 774.421,399.875 774.9,400.115 775.141,400.115 
		775.381,399.875 775.62,399.635 776.101,398.435 776.101,398.195 776.101,397.475 776.101,396.995 776.101,396.755 776.34,396.515 
		777.061,395.794 777.54,395.794 777.78,396.035 778.02,396.275 778.261,396.515 778.98,396.755 779.699,396.755 779.939,396.755 
		780.18,396.755 780.42,396.515 780.42,396.275 780.66,396.275 780.9,396.275 781.14,396.515 781.379,396.755 781.379,396.995 
		781.859,397.715 782.34,397.955 782.819,398.435 783.059,398.675 784.019,398.435 784.499,398.675 784.739,398.915 
		784.979,399.155 785.219,399.155 785.939,398.915 786.419,398.915 786.658,398.915 787.378,398.675 788.099,399.155 
		788.338,399.155 788.818,399.635 789.058,400.115 789.058,400.355 789.298,400.595 789.778,400.595 789.778,400.355 
		790.019,400.355 790.019,400.115 790.258,400.115 790.498,400.115 790.738,400.115 791.218,400.355 791.458,400.595 
		791.698,400.595 791.938,400.595 791.938,400.835 791.938,401.075 792.897,402.035 793.138,402.275 793.617,402.275 
		793.857,402.275 794.338,402.275 794.577,402.275 795.537,402.035 795.777,402.035 795.777,402.275 795.777,402.515 
		796.018,402.515 796.977,402.755 797.217,402.755 797.456,402.515 797.456,402.275 797.697,402.035 797.937,402.035 
		798.177,402.275 798.416,402.275 798.656,402.515 798.656,402.996 798.656,403.235 798.656,403.476 798.896,403.476 
		799.136,403.715 800.096,403.476 800.336,403.235 800.576,403.235 800.815,403.235 800.815,403.476 801.057,403.715 
		801.057,403.955 801.536,404.195 801.775,404.195 801.775,403.955 802.016,403.715 802.256,403.476 802.495,403.715 
		802.735,403.715 803.456,403.955 804.176,403.955 804.415,403.955 804.655,404.195 804.896,404.195 804.896,404.436 
		805.136,404.436 805.855,404.436 806.095,404.436 806.335,404.676 806.575,404.676 806.814,404.676 807.055,404.436 
		807.055,404.195 807.295,403.955 807.535,403.715 808.015,403.955 808.494,403.955 808.975,403.715 809.694,403.715 
		810.414,403.476 810.654,403.715 811.374,404.436 811.614,404.436 811.614,404.676 812.094,404.676 812.573,404.676 
		813.294,404.916 813.533,404.676 814.494,405.396 814.974,405.636 814.733,407.556 814.733,408.036 814.733,408.276 
		814.494,410.436 814.253,410.676 814.253,411.156 814.014,413.316 814.014,413.796 814.014,416.197 814.014,417.637 
		814.494,419.317 814.733,420.277 814.253,421.477 813.773,421.958 814.494,422.438 815.453,422.438 816.653,423.638 
		816.894,428.678 817.613,430.358 817.613,430.598 817.854,432.038 817.854,432.278 817.854,433.718 817.854,435.398 
		818.093,436.839 818.093,437.079 818.093,437.559 818.333,438.039 818.333,438.519 818.573,439.719 818.573,439.959 
		818.813,440.439 818.813,440.919 819.293,442.6 820.252,446.2 821.213,450.04 823.132,457.961 825.052,466.122 825.531,467.562 
		826.252,469.482 826.252,469.722 826.491,470.442 826.731,470.682 826.971,470.922 827.69,471.882 828.171,473.322 
		828.411,475.243 828.65,475.243 828.65,475.482 828.65,475.723 828.65,478.363 828.65,478.603 829.37,481.243 829.37,481.483 
		829.61,482.443 830.57,485.083 831.53,487.244 831.53,487.484 831.771,487.964 831.771,488.204 832.011,488.444 832.011,488.684 
		832.73,490.604 832.73,490.844 832.97,491.084 833.21,491.564 833.689,493.484 834.17,494.445 835.13,496.845 835.61,497.805 
		836.569,500.205 837.77,502.846 838.489,504.045 838.969,505.246 839.449,506.446 839.689,506.926 841.369,510.766 
		842.088,512.207 844.729,518.447 844.968,518.687 845.208,519.167 845.448,519.887 845.688,520.607 845.928,521.087 
		846.407,521.808 846.407,522.047 847.367,523.968 848.327,525.888 848.567,526.608 849.048,527.568 849.287,527.808 
		849.768,529.008 850.007,529.488 850.486,530.448 850.728,531.168 851.447,532.369 851.927,533.568 851.927,533.809 
		852.166,534.049 852.406,534.289 852.646,534.769 853.127,535.969 853.606,536.689 856.006,539.809 856.485,540.529 
		856.726,540.77 857.205,542.209 857.445,542.689 857.686,542.689 857.686,542.93 857.926,543.41 857.926,543.649 858.405,544.37 
		858.886,545.09 859.125,545.57 859.605,546.53 861.525,549.17 864.404,553.971 865.604,555.651 865.844,556.131 870.163,562.852 
		871.363,565.012 871.844,565.732 872.083,565.972 874.482,569.332 875.202,570.292 876.643,572.212 879.042,575.573 
		879.762,576.533 881.441,578.693 882.161,579.653 882.881,581.333 882.881,581.573 883.36,584.214 884.801,587.094 
		885.281,588.534 886.24,589.974 886.24,590.694 885.281,590.935 883.602,591.895 882.641,592.854 881.922,594.055 881.682,594.295 
		881.682,594.535 881.441,595.015 881.201,595.735 881.201,595.975 880.961,596.935 880.961,597.655 880.722,598.135 
		880.722,598.615 880.722,599.815 880.481,600.536 880.481,601.735 880.481,602.456 880.722,604.376 880.961,605.816 
		880.961,607.016 881.682,610.856 881.682,611.097 881.922,611.577 881.922,612.057 881.922,612.296 882.161,612.777 
		882.401,613.497 882.401,613.977 882.641,614.697 882.881,615.177 882.881,615.657 883.121,616.377 883.121,616.617 
		883.121,616.857 883.841,619.017 884.32,620.458 884.32,620.697 884.801,621.897 885.281,623.098 885.521,623.578 885.761,624.298 
		886,624.778 886.48,625.498 886.721,626.218 887.2,627.418 888.64,630.298 888.64,630.539 888.88,630.778 889.12,631.019 
		893.68,639.659 895.599,643.5 895.839,643.5 897.758,647.58 897.998,647.82 898.479,648.78 898.719,649.501 898.958,650.221 
		899.438,651.66 899.678,651.9 900.158,653.581 900.397,654.541 900.638,655.021 900.878,655.981 901.117,656.701 901.357,657.182 
		901.357,657.422 901.357,657.661 901.598,657.661 901.598,657.901 901.598,658.381 901.598,658.861 901.838,659.342 
		902.077,659.821 902.317,660.062 903.037,661.021 903.037,661.262 903.277,661.262 903.757,663.662 903.997,664.622 
		904.717,667.262 905.677,669.183 906.156,669.183 907.117,671.582 908.557,675.903 909.516,679.264 911.195,682.384 
		911.676,683.823 914.075,688.864 914.315,689.585 914.555,689.824 914.555,690.064 915.995,692.705 916.234,693.186 
		916.955,694.385 917.194,695.105 917.675,696.545 917.435,696.785 917.194,697.025 917.915,698.465 918.875,700.626 
		918.875,701.105 919.114,701.586 919.594,702.306 920.074,703.266 920.555,704.227 920.794,704.466 921.034,705.186 
		922.714,708.787 922.953,709.986 923.914,712.867 924.394,714.307 924.394,715.027 924.633,715.268 924.873,716.228 
		925.113,716.707 925.354,717.668 925.833,719.107 926.073,720.067 926.553,721.988 927.033,723.908 927.513,725.588 
		927.992,727.269 927.992,728.469 927.992,729.188 927.753,729.188 927.513,729.669 927.753,730.629 927.992,733.269 
		927.992,733.509 928.232,733.989 928.232,734.469 928.232,735.189 927.992,737.109 928.232,739.51 928.232,742.15 928.232,742.39 
		928.232,744.069 928.232,744.551 928.232,744.79 928.232,745.99 927.992,748.15 927.513,751.031 927.513,751.271 927.272,753.671 
		927.272,753.911 927.033,755.111 927.033,755.592 927.033,755.831 927.033,756.552 927.033,757.031 926.793,757.991 
		926.793,761.111 926.553,763.512 926.553,764.473 926.553,765.673 926.313,765.673 926.313,766.873 926.313,767.112 
		926.313,767.832 926.313,768.313 926.073,771.673 925.833,772.152 925.833,772.633 925.594,772.873 925.594,773.113 
		925.354,774.313 925.354,774.793 925.354,775.754 925.354,776.714 925.354,776.953 925.113,777.434 925.113,778.394 
		925.113,778.634 924.873,779.834 924.873,780.554 924.873,781.514 924.873,782.234 924.633,784.635 924.633,785.594 
		924.633,786.074 924.394,786.555 924.394,788.955 924.394,789.435 924.153,791.595 924.153,792.795 924.153,794.955 
		924.153,795.915 924.153,797.355 924.394,799.035 924.394,799.756 924.394,800.476 924.394,800.716 924.394,801.916 
		924.394,802.156 924.153,802.396 924.153,803.116 924.153,803.597 924.153,803.836 924.153,804.076 924.153,804.315 
		924.394,804.557 924.394,805.756 924.394,806.236 924.394,806.717 924.394,806.956 924.394,807.437 924.394,808.877 
		924.394,809.356 924.153,809.837 924.153,810.557 924.153,810.797 924.153,811.036 923.914,811.277 923.914,811.518 
		923.914,811.997 924.153,812.717 923.914,812.957 923.914,813.197 923.914,813.437 923.674,813.677 923.674,814.157 
		923.434,814.637 923.193,814.877 922.953,815.357 922.953,815.838 922.714,816.798 922.474,818.238 922.474,818.718 
		922.234,820.397 922.474,820.878 922.234,821.838 921.994,821.838 920.794,820.638 920.555,820.157 920.555,819.918 
		920.794,818.718 921.034,818.238 921.034,817.998 921.514,817.038 921.273,816.558 920.794,815.838 920.074,815.357 
		919.834,815.117 918.875,815.357 917.675,815.838 916.955,816.317 916.715,816.317 916.475,816.317 916.234,816.558 
		915.995,816.798 915.995,817.038 915.755,817.038 915.515,817.757 915.275,818.478 915.275,818.718 915.035,819.918 
		915.035,820.157 914.075,822.798 913.835,823.038 913.835,823.278 913.115,824.478 912.875,824.719 912.396,824.959 
		912.396,825.198 911.676,825.678 911.436,826.398 911.436,826.639 911.436,826.878 911.195,827.599 911.195,828.318 
		911.195,829.519 911.195,829.759 911.436,830.239 911.436,830.479 911.195,830.959 910.716,832.64 910.716,832.879 
		909.996,833.119 909.756,833.119 909.756,833.359 909.516,833.359 909.516,833.84 909.036,836 908.797,836.239 908.797,836.479 
		909.036,836.719 909.036,837.919 909.036,838.88 909.276,838.88 909.276,839.119 909.276,839.36 909.756,840.08 909.756,840.319 
		909.996,840.8 910.477,841.28 910.235,842.48 910.235,844.64 910.716,845.12 911.436,845.12 911.676,845.601 911.436,846.32 
		911.436,846.561 911.195,847.281 909.756,849.44 909.516,849.681 908.316,850.401 907.836,850.641 907.356,850.881 907.117,851.36 
		906.877,851.36 906.156,852.802 905.917,854.001 903.518,856.161 902.077,856.881 901.598,857.361 900.397,858.562 
		899.918,858.802 898.958,860.242 898.479,860.962 897.998,861.682 897.758,861.682 897.039,860.962 896.559,860.242 
		896.078,860.002 895.839,860.002 895.359,860.242 894.398,860.242 894.398,859.762 894.398,859.522 894.398,859.281 
		893.919,858.562 893.199,858.562 892.239,858.562 	"/>
	
		<polyline clip-path="url(#SVGID_2_)" fill="none" stroke="#B37C34" stroke-width="0.4799" stroke-linecap="round" stroke-linejoin="round" stroke-miterlimit="3.85" points="
		892.239,858.562 890.8,859.762 891.04,861.202 891.279,861.682 890.56,862.402 889.84,862.882 889.359,863.362 888.64,863.843 
		887.44,863.843 886.96,863.843 886.721,864.082 886.48,864.322 886.48,864.563 885.761,864.563 885.521,864.563 884.801,864.802 
		884.561,864.802 884.081,864.802 883.841,864.802 883.36,865.043 882.881,865.522 882.401,866.482 882.401,867.202 
		881.441,866.963 880.961,866.723 880.481,866.723 879.281,866.963 879.042,866.482 879.042,866.002 878.563,865.282 
		878.082,865.043 875.202,864.563 873.763,865.282 873.043,865.762 872.803,865.282 872.563,865.043 872.083,864.563 
		871.363,864.322 870.403,864.563 869.203,864.563 867.283,865.762 867.283,866.482 867.523,866.963 867.283,867.683 
		866.084,867.442 864.165,868.162 862.965,868.162 862.005,868.162 859.846,869.123 859.125,869.123 858.165,868.883 
		856.006,868.883 854.086,869.603 853.846,869.843 852.646,869.123 851.207,867.683 850.728,867.202 849.527,866.723 
		849.048,866.243 848.807,864.563 848.567,863.843 847.848,862.402 846.888,861.682 846.647,861.442 846.647,861.202 
		846.647,859.281 846.647,858.802 846.888,858.322 846.888,857.122 847.127,855.922 847.127,855.682 847.367,855.201 
		847.367,854.961 847.848,854.481 848.088,853.281 847.848,852.802 848.088,852.081 848.567,851.36 849.048,851.121 
		850.007,851.602 850.247,850.881 850.486,850.16 849.768,848.721 849.527,848.001 848.567,848.001 847.848,847.521 
		847.848,846.561 848.088,846.081 848.088,845.84 846.168,841.28 845.448,840.319 844.488,839.6 843.048,837.919 843.048,836.96 
		843.528,835.279 843.288,835.039 842.809,834.319 841.608,833.359 841.129,832.159 841.129,831.198 840.408,829.998 
		840.408,828.799 839.449,826.878 838.249,825.198 837.529,824.719 836.569,822.798 833.45,820.397 832.97,820.638 832.25,820.157 
		832.25,818.718 832.25,817.998 832.011,817.277 831.29,816.798 831.051,816.317 830.811,815.838 832.25,815.117 832.49,814.637 
		832.25,813.917 832.011,813.197 831.771,812.236 831.53,811.757 831.051,811.518 830.811,811.518 828.891,810.317 828.65,810.077 
		828.411,809.356 828.171,809.356 826.491,808.156 826.011,807.916 825.531,808.156 824.572,808.396 823.372,807.916 
		822.412,806.956 822.173,806.477 821.213,806.477 820.013,806.717 819.532,806.956 819.293,806.717 819.293,805.756 
		819.053,805.516 818.093,805.516 817.133,805.516 814.253,806.477 813.773,806.477 811.614,806.236 810.894,805.996 
		809.694,805.996 809.215,805.996 808.494,806.236 807.775,806.956 807.535,807.916 807.535,808.637 807.295,809.356 
		806.814,810.317 806.335,810.317 806.335,810.077 806.095,809.837 805.855,809.837 805.855,809.597 804.176,805.996 
		803.695,805.756 802.976,805.276 802.976,805.036 802.495,803.356 802.016,802.396 801.536,801.916 801.536,801.676 
		801.296,800.956 801.296,800.716 801.296,799.996 801.296,798.076 801.057,797.835 800.815,797.596 800.576,797.596 
		800.096,797.115 800.096,796.876 797.456,791.114 796.977,790.395 796.977,790.155 796.977,789.915 796.497,786.794 
		796.497,786.314 796.257,785.114 796.257,784.874 796.018,783.914 795.777,783.193 795.777,782.234 795.537,780.554 
		795.537,780.313 795.537,780.073 795.297,778.394 795.297,778.153 795.297,777.914 795.057,776.953 795.057,776.473 
		794.577,774.313 794.338,773.833 794.338,773.113 793.377,770.473 793.138,770.232 792.418,768.313 792.178,768.072 
		791.938,767.353 791.458,766.632 791.458,766.393 791.458,766.152 790.019,764.952 790.019,764.712 789.538,764.473 
		788.818,763.512 788.818,763.271 788.338,762.552 788.099,762.312 787.139,761.592 786.179,760.872 784.739,760.152 
		784.019,759.912 783.779,759.432 784.019,759.191 783.779,758.952 783.779,758.231 782.819,757.991 781.619,757.511 
		780.66,757.752 780.42,757.031 780.66,756.312 780.66,756.071 780.66,755.831 780.18,755.831 779.46,755.352 778.02,754.871 
		776.82,755.111 776.34,755.352 776.101,756.312 775.86,757.031 775.381,757.511 774.9,757.511 774.182,757.752 773.461,757.752 
		773.461,757.271 773.221,756.312 773.221,755.592 773.221,755.352 773.221,755.111 772.981,753.191 772.261,751.511 
		772.261,751.271 772.261,751.031 772.261,750.79 772.261,750.551 772.021,750.311 772.021,750.07 772.021,749.831 771.781,749.351 
		771.781,749.11 771.781,748.871 771.541,748.391 771.541,747.91 771.062,746.471 771.062,745.99 770.822,745.03 770.342,744.551 
		770.102,744.069 769.861,743.83 769.621,743.59 769.382,743.35 767.462,741.67 767.462,741.43 767.462,741.189 767.462,740.229 
		767.702,739.989 767.941,739.989 767.941,739.75 768.182,739.75 768.902,739.75 769.621,739.51 770.581,739.75 771.062,739.75 
		771.302,739.75 771.541,739.989 771.781,739.989 771.781,740.229 772.021,740.71 772.981,742.39 772.981,742.63 773.221,742.63 
		773.461,742.87 773.94,742.87 774.182,742.63 774.182,742.39 774.421,740.949 774.66,739.51 774.9,738.31 775.141,737.83 
		775.86,736.149 776.101,734.949 776.101,733.989 776.34,733.509 776.101,732.309 776.581,731.349 776.581,730.629 776.34,729.669 
		776.34,728.229 776.34,727.748 776.34,726.548 776.34,726.068 776.34,725.588 776.34,725.107 776.101,724.868 775.62,724.628 
		773.94,724.147 773.701,723.668 773.701,722.708 773.701,722.468 773.94,721.268 774.421,720.787 775.381,720.787 775.62,720.787 
		775.86,720.548 775.86,719.827 775.86,718.868 774.9,718.387 774.66,718.387 774.421,718.387 772.981,718.387 772.502,718.387 
		772.021,718.627 771.781,718.627 771.302,719.348 770.342,721.027 768.422,721.027 768.182,721.268 767.941,721.268 
		767.462,721.988 767.702,723.428 768.902,727.269 769.861,732.549 769.621,733.029 767.941,733.269 767.462,733.989 
		765.303,733.989 764.823,733.989 764.343,733.989 763.383,733.029 762.663,733.989 762.183,735.43 761.463,738.31 761.463,738.549 
		761.463,738.31 761.223,738.069 760.983,735.669 760.983,735.43 760.743,733.029 760.503,732.549 759.783,730.869 759.063,729.429 
		758.104,728.229 755.225,724.147 754.984,723.908 754.984,723.668 754.265,722.948 752.824,720.308 752.345,719.827 
		750.426,716.468 748.985,713.587 747.065,710.227 746.586,709.026 746.586,708.787 746.586,708.547 746.346,708.547 
		746.106,707.586 745.866,707.106 745.626,706.146 745.386,705.906 745.146,705.906 744.666,703.506 742.986,700.386 
		742.746,699.665 741.787,698.226 740.348,695.585 739.867,694.625 739.867,694.385 739.387,693.665 738.428,693.186 
		738.188,692.944 737.948,692.705 737.707,692.225 737.468,692.225 737.468,691.985 737.468,691.744 737.468,690.544 
		736.988,689.824 736.027,688.385 735.308,687.664 733.868,685.984 733.389,685.504 731.948,683.104 730.749,681.664 
		729.549,680.224 728.109,679.264 728.349,678.783 728.349,678.544 727.39,676.383 727.39,676.144 727.149,675.663 726.91,675.184 
		726.91,674.943 726.669,674.463 726.669,674.223 726.43,673.982 725.949,673.022 725.71,672.783 725.23,672.303 724.989,672.303 
		724.75,671.823 724.27,671.343 724.03,670.863 724.27,670.863 725.23,671.343 726.189,671.582 726.91,672.063 726.91,672.783 
		726.669,673.982 726.91,674.223 727.629,674.223 728.109,674.223 728.349,674.223 728.59,674.223 728.59,673.743 728.59,673.263 
		728.829,672.783 729.309,672.303 730.269,672.063 731.229,672.063 731.469,671.343 731.469,671.103 731.948,670.383 
		732.429,669.662 733.868,667.982 733.868,667.021 733.868,666.782 735.068,666.062 736.027,665.822 736.988,664.861 
		737.228,664.143 737.948,662.222 738.188,661.742 739.387,659.342 741.066,656.701 742.507,655.501 743.227,655.501 
		743.467,655.501 743.706,655.021 743.706,654.541 743.706,654.301 743.706,654.061 743.227,653.581 743.706,653.101 
		745.146,652.621 746.346,651.9 746.586,651.9 746.826,651.66 746.826,651.42 747.065,651.42 747.065,651.181 746.826,650.94 
		746.826,650.701 747.785,649.261 748.025,649.261 748.025,648.3 748.506,647.82 749.226,647.58 749.706,645.9 749.706,645.66 
		749.706,645.42 749.706,645.18 749.465,644.7 749.465,644.22 748.985,641.82 748.266,640.14 746.826,640.14 746.346,640.14 
		745.386,639.659 745.146,639.659 744.666,639.419 744.666,638.939 744.666,638.699 744.427,638.699 743.467,637.979 
		742.507,638.699 742.507,639.179 742.507,639.659 742.746,640.859 742.746,641.58 742.746,641.82 742.746,642.06 742.746,643.26 
		742.746,643.5 743.227,644.22 743.946,644.7 744.187,645.18 743.946,646.86 743.706,646.86 742.746,646.86 741.066,646.38 
		739.147,645.42 737.948,644.7 737.948,643.5 738.907,643.5 739.147,643.26 739.387,643.02 739.627,642.3 738.907,641.82 
		738.668,641.339 738.668,641.1 739.147,640.62 739.387,640.14 739.387,639.659 739.387,639.179 739.387,638.699 739.387,638.459 
		739.147,637.739 739.147,637.499 738.907,636.779 738.668,636.299 737.948,635.339 737.707,634.859 737.468,634.859 
		737.228,634.859 735.068,634.619 732.908,634.859 730.749,635.099 726.189,635.819 725.71,635.819 725.47,636.059 725.23,636.539 
		725.23,636.779 725.47,637.259 725.47,637.499 725.47,637.739 726.189,638.219 726.43,638.459 727.39,638.459 727.629,638.699 
		728.109,639.179 729.069,639.659 732.188,639.659 731.948,640.14 731.948,640.379 731.948,641.339 733.628,642.78 736.748,641.82 
		736.748,643.26 736.988,643.98 734.588,643.98 734.828,645.18 735.308,645.9 735.308,646.86 735.548,647.58 734.588,648.3 
		734.108,649.021 733.868,649.021 733.389,649.98 733.148,650.221 732.908,650.701 732.669,651.181 732.669,651.42 732.429,652.621 
		732.429,652.86 732.669,653.581 732.669,654.541 732.669,655.021 732.429,655.501 732.188,656.461 731.709,656.941 
		731.229,657.182 730.749,657.182 730.028,657.182 729.309,656.701 728.829,656.701 728.829,657.661 727.629,657.422 
		726.189,657.422 725.949,657.901 725.47,659.821 725.71,660.302 726.189,661.502 726.43,661.742 726.669,661.981 727.39,662.462 
		726.91,663.662 724.989,664.622 724.75,664.143 724.511,663.902 724.511,662.702 724.511,661.742 724.511,659.342 724.511,656.941 
		724.511,656.701 724.27,655.741 724.03,655.261 723.79,654.781 723.311,654.301 723.07,654.301 722.59,653.581 722.11,652.141 
		721.871,651.66 720.91,650.46 720.671,649.98 720.431,649.74 719.951,649.501 719.231,648.78 718.271,648.06 717.552,647.34 
		716.831,646.14 716.591,645.42 716.352,644.94 716.111,644.7 716.111,644.46 716.111,643.98 715.871,643.26 715.871,642.06 
		715.871,640.859 716.111,639.899 716.352,638.699 716.591,637.739 717.312,635.579 717.791,635.819 717.791,636.059 
		717.312,637.739 717.312,638.219 716.831,639.899 716.831,640.14 717.071,640.14 717.312,640.14 717.552,639.419 717.791,638.939 
		718.031,638.459 718.031,638.219 718.991,636.299 719.231,635.819 719.231,635.339 719.711,633.179 719.711,632.699 
		719.951,631.979 719.951,631.499 719.951,630.539 719.951,629.818 720.19,629.338 720.431,628.138 720.671,627.658 
		720.671,625.978 720.431,623.578 720.431,623.338 720.671,622.138 720.671,621.897 720.671,621.658 720.431,620.458 
		720.19,620.458 719.951,619.737 719.471,619.737 718.751,619.498 718.991,618.057 718.991,617.817 719.231,617.097 
		719.471,616.857 720.431,615.897 721.15,615.177 721.391,614.937 721.391,614.697 721.871,614.217 721.871,613.977 
		721.871,612.057 721.871,611.816 722.11,611.336 722.351,611.097 722.831,610.856 723.07,610.616 723.311,610.136 723.79,608.696 
		723.79,608.456 724.03,607.976 723.79,607.256 724.03,605.336 724.989,603.896 725.23,603.656 725.23,603.416 725.47,602.936 
		725.71,602.216 725.949,601.735 725.949,601.255 725.949,598.855 726.189,598.135 726.43,597.415 727.39,596.695 727.869,596.215 
		728.109,595.495 727.629,594.295 728.349,593.575 728.349,593.334 728.59,592.135 728.829,591.895 728.829,591.654 
		728.829,591.415 728.829,591.174 728.829,590.935 728.59,590.935 728.349,590.694 728.349,589.734 728.349,589.014 728.59,588.294 
		728.829,588.054 729.309,586.854 729.069,586.614 729.069,586.134 729.309,584.934 729.309,584.454 729.309,584.214 
		729.549,583.014 728.59,581.813 729.309,580.374 729.069,579.173 729.309,576.533 729.789,574.373 730.028,574.133 
		729.309,573.413 729.069,572.933 729.309,572.453 729.069,571.732 728.59,570.772 729.549,570.052 729.789,569.092 
		729.789,568.372 730.028,567.172 730.028,566.452 729.549,565.972 729.549,565.252 729.309,563.092 729.789,562.611 
		730.269,562.131 729.789,560.691 730.028,559.251 730.028,558.771 729.789,558.291 728.829,557.331 727.629,557.331 
		726.43,556.851 725.949,555.891 725.47,554.691 724.989,554.451 723.79,553.011 723.551,552.291 723.07,551.331 722.831,549.41 
		721.15,549.65 720.91,549.17 721.15,548.69 721.631,547.01 721.15,544.61 719.711,543.89 719.471,543.649 719.471,542.93 
		716.831,542.93 716.352,541.009 717.312,540.529 718.031,540.529 718.271,540.049 718.271,539.569 717.552,538.369 
		717.791,536.929 716.111,535.969 713.712,535.729 711.552,535.729 709.633,535.249 709.393,535.249 709.152,535.249 
		708.913,535.249 708.434,535.249 707.473,535.249 706.753,535.249 706.273,535.249 705.313,535.009 704.834,535.009 
		704.594,534.529 704.354,534.529 704.354,534.289 704.114,534.289 703.634,534.529 702.194,536.689 701.954,537.169 
		701.954,537.409 701.954,537.649 701.474,538.129 701.234,538.129 700.754,538.369 699.555,538.609 699.314,537.169 
		698.355,536.689 698.595,536.449 698.595,536.209 698.835,535.249 698.835,534.769 698.595,534.049 697.635,533.088 
		696.915,531.408 697.875,528.768 697.635,528.288 696.915,527.328 695.476,527.088 694.035,526.368 694.035,525.888 
		692.596,525.408 692.356,525.408 691.876,525.648 691.636,525.648 691.156,525.408 690.916,525.408 690.437,523.968 
		690.437,523.248 690.196,522.288 690.437,522.047 690.437,520.847 690.437,520.607 689.477,519.167 688.517,518.447 
		688.517,516.767 688.277,516.287 687.557,515.087 687.316,514.847 687.316,514.606 686.356,513.887 685.877,513.646 
		685.637,513.407 683.957,513.407 683.238,513.646 681.798,513.167 681.559,513.167 681.559,512.927 680.598,511.246 
		680.598,510.526 680.357,510.046 679.639,510.046 678.919,510.046 677.479,508.846 676.998,508.126 676.039,508.126 
		675.318,507.646 675.079,506.926 673.879,506.686 673.879,506.446 673.879,506.206 673.879,505.246 673.879,504.286 
		673.64,503.326 673.64,503.085 673.64,502.605 673.399,501.646 673.399,500.205 673.879,498.765 673.64,496.605 673.399,496.365 
		673.399,496.125 673.16,495.405 672.919,494.205 672.919,493.965 672.68,493.965 671.239,493.245 670.52,493.245 670.279,493.484 
		669.8,493.484 669.561,493.245 668.12,492.524 667.641,492.284 667.641,491.564 667.16,490.844 666.92,490.844 666.44,490.604 
		666.201,490.364 665.481,490.124 665.24,490.124 665.001,489.884 663.802,489.644 663.321,489.164 663.081,488.924 
		662.361,487.964 661.642,486.524 660.682,485.804 660.441,485.563 660.202,485.083 660.202,484.604 660.441,484.364 
		660.441,483.884 660.202,482.203 659.481,480.763 658.762,480.283 657.802,479.803 657.322,478.603 657.322,478.363 
		657.082,477.643 656.842,477.403 656.362,475.963 655.162,475.243 654.923,475.243 654.683,475.002 654.203,474.283 
		653.243,473.322 652.764,472.842 650.844,471.882 650.604,471.882 649.164,470.922 647.724,470.202 647.484,469.962 
		646.284,469.242 645.325,468.522 645.084,468.522 644.845,468.522 644.604,468.522 643.645,468.282 642.445,468.042 
		642.205,467.802 641.965,467.562 641.725,467.322 641.485,467.082 641.245,466.842 641.005,466.602 638.846,465.642 
		637.886,465.162 637.166,464.682 636.446,464.202 635.726,463.961 635.006,463.481 634.767,463.241 635.006,463.001 
		634.767,462.761 633.567,461.801 632.847,461.321 632.367,460.841 632.127,460.841 631.887,460.601 631.647,460.361 
		630.927,459.881 630.687,459.881 630.687,459.641 629.967,458.681 628.528,458.201 628.288,458.201 627.328,458.201 
		627.088,458.201 626.368,458.201 626.128,458.201 625.408,458.201 625.168,458.441 624.688,458.681 624.448,458.921 
		623.968,459.161 623.729,459.161 623.249,458.921 623.009,458.921 622.529,458.921 622.289,459.161 621.809,459.641 
		620.849,459.161 620.129,459.881 619.889,460.121 618.689,460.841 617.97,460.841 617.01,460.601 616.05,459.881 615.57,459.401 
		615.33,459.401 615.33,459.641 614.85,459.641 614.61,459.641 612.931,459.641 612.21,459.161 611.971,458.441 611.491,458.201 
		610.531,458.681 610.291,459.161 610.051,459.881 610.531,460.601 610.291,461.081 610.051,461.801 609.091,462.042 
		608.371,462.042 607.412,461.321 607.171,461.081 605.252,461.562 604.292,461.801 604.052,462.042 603.572,464.202 
		603.572,464.682 603.572,465.642 603.812,467.802 604.052,468.042 604.772,468.042 605.252,469.002 605.252,469.962 
		605.252,470.202 605.492,471.402 605.732,471.642 605.732,472.362 605.972,473.083 605.732,474.042 605.252,475.243 
		605.012,475.243 604.772,475.482 603.092,475.723 602.612,475.723 600.693,475.002 599.253,475.002 598.533,474.522 
		597.813,474.042 597.333,472.842 595.894,473.083 594.214,474.042 593.014,473.803 591.094,474.283 589.895,475.002 
		589.415,475.482 588.215,476.203 586.295,477.163 585.815,477.643 585.576,477.883 	"/>
	
		<polyline clip-path="url(#SVGID_2_)" fill="none" stroke="#B37C34" stroke-width="0.4799" stroke-linecap="round" stroke-linejoin="round" stroke-miterlimit="3.85" points="
		585.576,477.883 583.176,479.563 582.696,479.803 582.456,480.283 582.456,480.523 582.216,480.763 581.976,480.763 
		581.496,481.003 580.537,480.763 579.816,481.003 577.177,482.923 575.257,484.364 574.777,484.364 570.218,487.004 
		569.258,487.004 568.539,487.484 567.579,487.964 567.099,488.204 566.139,488.924 565.659,489.884 565.179,489.884 
		564.939,489.164 564.699,488.684 565.419,487.004 566.139,486.044 566.379,485.804 565.659,485.083 565.179,484.604 
		564.459,484.604 563.739,484.844 563.26,485.563 562.06,487.484 561.34,487.964 560.14,488.204 559.66,489.404 559.18,489.884 
		558.94,490.124 557.98,490.364 557.261,490.604 554.861,490.844 552.222,490.124 550.062,490.124 548.622,490.364 546.223,491.084 
		544.543,491.564 541.664,492.044 540.944,492.044 538.544,493.245 536.384,493.004 534.225,493.245 532.545,493.965 
		532.305,493.965 532.065,494.205 532.305,495.405 531.825,494.925 530.625,493.245 529.906,491.564 529.186,489.884 
		528.946,489.404 528.466,488.204 527.506,483.164 527.266,480.763 527.266,479.563 527.506,478.843 527.986,477.643 
		528.946,477.403 528.466,478.363 528.226,480.763 527.986,483.164 528.706,486.284 529.906,490.844 531.105,492.044 
		531.825,492.765 532.305,492.765 534.465,492.284 534.945,491.804 535.425,485.563 535.425,485.324 535.665,484.124 
		535.665,483.884 535.665,483.403 535.425,482.684 535.425,482.443 534.945,481.963 534.705,481.483 534.705,481.003 
		534.705,480.763 534.705,480.523 534.465,480.043 534.225,479.803 533.985,479.563 533.505,479.323 533.025,479.083 
		532.305,477.163 531.105,475.002 530.386,474.042 529.906,473.322 529.666,473.083 529.426,473.083 529.426,472.842 
		528.226,471.882 528.226,471.642 527.986,471.642 526.786,470.682 526.306,470.682 525.106,470.202 524.146,469.962 
		523.667,469.962 523.427,469.962 522.227,469.722 520.547,468.762 518.628,467.082 518.388,466.842 518.148,466.602 
		517.188,465.402 516.228,464.441 516.228,464.202 515.988,463.961 515.508,463.241 515.269,462.521 515.028,461.801 
		514.789,461.801 514.068,461.801 513.589,461.562 512.869,461.081 512.869,460.841 511.909,460.601 511.429,460.361 
		510.469,459.881 510.229,459.881 509.75,459.641 507.11,458.201 505.19,456.761 504.71,456.521 504.71,456.281 503.511,455.321 
		503.271,454.841 503.031,454.841 502.791,454.36 501.831,453.4 501.591,453.4 501.111,452.92 500.391,452.44 499.671,451.96 
		498.951,451.48 497.992,450.76 497.032,450.04 496.312,449.56 494.872,448.84 494.632,448.6 494.152,448.36 493.192,447.64 
		492.473,447.16 491.752,446.68 491.273,446.44 491.033,446.44 490.793,446.2 485.754,443.799 485.514,443.56 484.794,443.319 
		479.035,440.679 470.396,437.559 469.437,437.319 469.197,437.079 468.957,437.079 463.918,435.639 462.718,435.159 
		459.599,434.679 459.119,434.438 458.879,434.438 458.399,434.438 456.959,434.198 456.239,433.958 455.759,433.958 
		451.44,433.718 449.041,433.718 448.561,433.718 447.361,433.238 439.922,432.278 431.284,432.519 427.685,432.999 
		424.085,433.238 423.365,433.479 421.686,433.718 419.766,433.958 419.526,433.958 419.046,434.198 405.368,436.599 
		402.009,437.319 401.289,437.319 399.37,437.559 398.41,437.799 398.17,437.799 393.851,438.039 392.891,437.799 391.931,437.319 
		390.971,437.559 390.251,437.799 389.532,438.039 387.852,438.279 384.972,438.759 382.813,439.479 375.614,440.679 
		375.614,440.439 375.614,440.199 376.574,439.959 377.054,439.959 380.653,438.999 380.653,438.039 380.413,438.279 
		379.933,438.279 379.693,438.519 379.453,438.279 378.974,438.279 378.733,438.519 378.493,438.519 378.253,438.519 
		377.773,438.519 377.534,438.519 377.054,438.519 377.054,438.279 376.813,438.279 376.813,438.039 376.813,437.799 
		376.813,437.319 376.813,437.079 377.054,436.599 377.773,436.359 378.013,436.359 378.733,436.359 378.974,436.359 
		379.453,436.359 379.693,436.359 379.933,436.119 380.173,436.119 380.653,435.398 380.653,435.159 380.653,433.958 
		380.653,433.718 380.653,433.479 380.893,433.238 381.373,432.758 381.613,432.278 381.613,431.798 381.613,431.558 
		381.853,431.078 382.093,431.078 382.333,430.598 382.333,430.358 382.573,430.118 382.813,430.118 382.813,429.878 
		383.053,429.878 383.533,430.118 383.772,430.118 384.013,430.118 384.252,430.118 384.252,429.878 384.492,429.878 
		384.732,429.638 384.972,429.398 385.452,429.158 385.692,429.158 385.932,428.918 386.652,428.438 386.892,428.198 
		386.892,427.958 387.132,427.958 386.892,427.478 386.892,427.238 386.652,426.998 386.172,426.758 385.932,426.758 
		385.212,426.518 384.972,426.758 384.732,426.518 384.252,426.518 384.013,426.038 383.533,426.038 382.813,425.317 
		382.573,424.837 382.573,424.357 382.333,424.357 382.093,424.117 382.093,423.877 382.333,423.638 382.573,423.157 
		382.573,422.917 382.093,421.958 381.853,421.958 381.613,421.958 381.613,421.717 381.373,421.477 381.373,421.237 
		381.613,421.237 381.373,420.757 381.373,420.517 381.373,420.277 382.333,418.357 382.573,418.357 382.813,417.877 
		383.053,417.396 383.292,417.396 383.533,417.396 383.772,416.917 383.533,416.677 383.772,416.437 384.013,416.437 
		384.013,416.197 384.252,415.477 384.492,414.276 384.732,413.796 384.972,413.796 385.212,413.557 385.452,412.836 
		385.212,412.836 385.212,412.356 385.452,412.116 385.452,411.876 385.452,411.636 385.452,411.156 385.452,410.436 
		385.212,410.196 385.452,409.956 385.212,409.716 384.972,409.476 384.732,408.756 384.492,408.276 384.732,408.036 
		384.492,408.036 384.252,407.556 383.772,407.556 383.292,407.316 383.053,406.836 382.573,406.836 382.333,406.596 
		382.093,406.596 382.093,406.355 381.613,405.875 381.373,405.875 381.133,405.875 380.413,405.636 380.173,405.396 
		379.933,405.155 379.453,404.676 379.453,404.436 378.974,404.195 378.253,403.955 377.773,403.955 377.773,403.476 
		377.293,402.996 377.293,402.755 376.333,402.515 375.614,402.035 375.614,401.555 375.614,401.075 375.374,400.595 
		375.374,400.355 375.134,399.875 374.894,399.635 374.894,399.395 374.894,399.155 374.414,398.435 374.174,398.435 
		373.934,397.955 373.454,397.475 373.214,397.235 372.975,397.235 372.734,396.515 372.254,396.275 372.015,396.035 
		371.535,395.794 371.055,395.555 371.055,395.075 370.815,394.834 370.575,394.595 370.335,394.354 369.855,394.354 
		370.095,394.114 369.855,393.875 369.375,393.395 369.135,393.154 369.135,392.914 369.135,392.674 369.375,392.674 
		369.135,392.435 369.135,392.194 368.655,391.714 369.135,390.754 369.135,390.514 369.375,390.034 369.615,390.034 
		369.615,389.794 369.615,389.554 369.615,389.314 369.615,389.074 369.855,388.834 370.095,388.594 370.095,388.354 
		370.335,388.114 370.335,387.634 370.575,387.394 370.575,386.914 370.815,386.674 371.055,385.954 371.295,385.714 
		371.535,385.714 371.535,385.474 372.015,384.514 372.254,383.553 372.015,383.073 372.015,382.833 371.775,382.593 
		371.775,382.354 372.015,382.113 371.775,381.873 371.775,381.633 371.535,380.913 371.535,380.673 373.454,380.673 
		375.134,380.673 377.293,380.913 377.534,380.913 378.253,380.913 378.733,380.913 379.453,380.913 379.693,380.913 
		379.933,380.913 380.173,380.913 380.893,380.913 381.373,380.913 381.613,380.913 381.853,380.913 382.333,380.913 
		383.533,380.913 384.013,380.913 388.092,381.153 388.332,381.153 389.051,381.153 389.532,381.153 390.491,381.153 
		392.171,381.153 392.651,381.153 	"/>
	
		<polyline clip-path="url(#SVGID_2_)" fill="none" stroke="#B37C34" stroke-width="0.4799" stroke-linecap="round" stroke-linejoin="round" stroke-miterlimit="3.85" points="
		830.57,901.766 830.811,901.766 831.051,902.246 831.051,902.486 831.051,902.727 831.29,902.967 831.53,903.206 831.771,903.446 
		832.25,903.927 832.97,904.166 833.45,904.646 833.689,904.646 834.17,904.646 834.65,904.646 836.569,905.127 837.049,906.086 
		837.049,906.807 837.29,908.247 838.249,908.967 838.01,909.207 837.049,909.687 836.81,909.927 836.569,909.927 836.09,910.167 
		835.85,910.406 835.61,910.406 834.65,910.647 834.41,910.887 833.45,911.127 831.29,911.848 831.051,912.087 830.811,912.087 
		830.331,911.848 830.331,911.606 830.331,911.127 830.331,910.406 829.37,909.927 828.171,910.167 826.731,910.647 
		826.011,910.406 825.291,910.406 824.331,910.167 824.331,909.927 824.572,909.927 824.572,909.687 824.812,909.447 
		824.331,908.967 822.893,908.486 822.652,908.967 822.412,909.447 822.412,909.927 822.173,910.406 822.173,911.367 
		822.173,911.848 821.452,912.327 819.532,912.807 815.213,915.447 812.814,915.928 810.414,916.647 810.174,916.888 
		809.935,917.127 809.694,917.368 808.975,917.848 808.494,917.848 806.095,918.088 805.375,918.088 804.176,918.327 
		802.735,918.568 801.536,919.048 801.296,919.048 801.057,919.048 800.576,919.048 800.336,919.048 800.096,919.048 
		799.377,919.288 799.136,919.048 799.136,918.568 799.136,918.088 799.136,917.607 799.377,917.127 799.616,917.127 
		799.856,917.127 800.096,917.127 800.096,916.888 800.336,916.647 800.576,915.688 802.016,915.928 802.256,915.688 
		802.735,915.688 803.216,915.447 803.936,915.447 804.176,915.447 804.655,915.447 805.136,915.928 805.375,915.928 
		806.335,915.688 806.575,915.447 806.575,914.968 807.295,914.728 807.775,914.728 808.255,914.968 808.734,914.968 
		809.455,914.487 809.694,914.248 809.935,914.007 810.174,913.768 810.894,913.048 811.135,913.048 811.854,912.807 
		812.573,912.567 814.253,910.647 814.253,909.927 815.453,909.687 816.173,909.447 816.653,909.207 816.653,908.486 
		817.373,907.527 818.093,906.327 818.333,906.327 819.532,907.286 820.252,907.527 820.252,907.286 821.452,906.807 
		821.452,905.606 821.932,905.366 822.652,905.127 823.372,904.886 824.572,904.646 824.812,905.127 825.052,905.366 
		826.011,904.886 826.252,904.646 826.252,904.406 826.491,904.406 826.252,902.486 826.011,902.246 826.491,901.526 
		827.211,902.486 827.451,903.206 827.69,903.446 827.932,903.686 828.65,902.967 828.65,902.486 828.171,901.766 827.932,901.526 
		827.932,901.286 828.411,901.046 830.091,901.286 830.331,901.526 830.57,901.766 	"/>
	
		<polyline clip-path="url(#SVGID_2_)" fill="none" stroke="#B37C34" stroke-width="0.4799" stroke-linecap="round" stroke-linejoin="round" stroke-miterlimit="3.85" points="
		915.035,848.001 915.275,847.761 915.515,847.521 915.515,847.04 915.755,846.561 915.755,846.32 915.755,845.84 915.755,845.601 
		915.995,844.881 915.995,844.64 916.234,844.64 916.234,844.4 916.715,844.16 916.955,843.92 917.435,843.681 917.675,843.681 
		917.915,843.439 918.395,843.2 918.635,842.72 918.875,842 919.114,841.52 919.114,841.28 919.594,839.119 920.074,837.919 
		920.314,836.96 920.074,836.479 920.074,836 920.314,835.279 920.314,835.039 921.034,834.079 921.273,834.079 921.514,836.96 
		920.794,838.399 919.354,842.96 918.154,844.4 917.194,846.801 916.955,847.281 916.955,848.24 916.955,848.48 916.234,848.961 
		915.755,849.44 915.755,849.921 915.515,850.401 914.795,850.881 914.795,851.121 914.555,851.602 914.555,851.841 
		914.075,852.561 913.355,854.001 913.115,854.722 912.875,854.961 912.156,856.161 911.915,856.642 909.036,861.922 
		908.797,862.162 908.797,862.402 908.797,862.643 908.797,862.882 909.036,863.603 909.036,863.843 908.797,864.322 
		908.797,864.563 908.557,864.802 908.557,865.043 907.597,866.482 907.356,866.723 907.117,866.963 906.877,867.202 
		905.438,868.883 904.717,869.363 904.478,869.603 904.237,869.603 903.997,869.843 903.277,870.083 903.277,870.323 
		903.277,870.563 902.317,871.764 901.357,872.003 900.878,872.243 899.918,873.203 899.438,873.923 898.719,874.883 
		898.479,875.123 898.719,875.123 898.719,875.363 898.958,875.363 898.958,875.604 898.479,876.323 898.238,876.563 
		898.238,876.804 897.998,876.804 897.758,877.044 896.559,878.003 896.559,878.244 895.839,878.724 895.599,878.964 
		895.359,879.203 894.639,880.404 893.919,881.364 893.439,881.844 892.959,882.324 892.719,882.324 891.76,882.564 891.52,882.564 
		891.04,882.805 890.319,883.524 890.08,883.524 889.84,883.765 889.12,884.724 888.88,884.965 888.16,885.924 886.48,887.364 
		886.24,887.124 886.24,886.645 886.96,886.404 887.68,885.685 887.92,885.444 888.4,884.965 888.88,884.244 889.12,884.005 
		888.88,883.765 889.12,883.284 889.84,882.805 890.08,882.564 891.04,882.084 891.279,881.844 892,881.604 892.239,881.364 
		892.479,881.604 892.959,881.604 893.68,880.884 893.919,880.884 893.919,880.404 894.398,879.203 894.879,878.484 
		894.879,877.764 894.639,877.284 894.639,877.044 894.879,877.044 895.599,877.044 896.318,877.044 896.798,876.323 
		897.278,876.084 897.519,875.844 897.998,874.883 897.998,874.644 898.238,874.644 898.479,874.403 898.719,874.163 
		898.958,874.163 898.958,873.923 899.198,873.923 899.438,873.443 900.878,871.522 900.638,871.043 900.397,870.803 
		900.158,870.803 899.438,870.563 898.238,869.843 899.198,869.123 899.678,869.363 899.678,869.843 900.397,870.323 
		900.638,870.323 900.878,870.563 901.117,870.563 901.838,870.803 902.077,870.563 902.077,870.323 903.037,869.123 
		903.037,868.883 903.037,868.643 902.558,867.442 901.838,865.762 901.838,865.522 902.558,865.762 903.518,866.243 
		904.237,866.482 904.478,866.482 904.957,866.243 905.197,866.243 905.677,865.522 905.917,864.802 905.917,864.563 
		906.156,864.322 906.396,863.603 906.156,863.603 906.156,862.882 906.156,862.643 905.917,861.922 906.156,861.442 
		907.117,860.722 907.356,860.722 907.597,860.722 908.316,860.722 908.316,860.481 908.797,860.242 909.036,860.242 
		909.996,858.562 909.996,858.322 909.996,856.642 909.996,855.922 909.756,855.682 909.276,855.441 907.356,854.241 
		907.597,854.001 909.516,853.521 909.756,853.761 909.996,854.001 910.235,854.001 910.477,854.001 911.436,853.281 
		911.676,852.802 912.156,852.321 912.396,852.081 913.115,851.36 913.115,850.641 914.075,848.961 915.035,848.001 	"/>
	
		<polyline clip-path="url(#SVGID_2_)" fill="none" stroke="#B37C34" stroke-width="0.4799" stroke-linecap="round" stroke-linejoin="round" stroke-miterlimit="3.85" points="
		766.262,752.231 766.022,751.99 765.782,751.031 764.582,749.11 763.863,747.431 763.144,745.27 762.423,743.83 761.223,742.39 
		760.983,741.43 760.983,741.189 761.223,740.229 761.703,739.75 761.943,739.51 762.423,739.51 762.902,740.47 762.663,740.949 
		762.663,741.43 763.144,743.11 764.823,746.23 765.063,747.431 765.063,748.15 766.502,751.751 766.742,752.231 766.742,752.951 
		766.982,753.432 767.223,754.391 767.462,754.631 767.462,755.111 767.941,756.552 768.182,756.791 768.662,757.031 
		768.902,757.511 769.861,758.231 770.102,758.472 771.541,758.472 772.261,758.711 774.9,760.152 775.62,759.191 776.581,758.952 
		777.061,759.191 778.5,759.912 778.74,759.912 778.74,760.152 780.18,760.152 780.42,760.152 780.42,760.392 779.939,760.632 
		778.5,761.592 776.82,762.792 775.86,763.031 775.381,763.031 775.141,763.031 774.182,762.792 772.981,762.312 772.021,761.832 
		770.342,760.392 768.422,759.432 768.182,758.952 767.941,758.711 767.702,758.231 767.462,757.511 766.742,755.111 
		766.742,754.391 766.502,753.671 766.262,752.471 766.262,752.231 	"/>
	
		<polyline clip-path="url(#SVGID_2_)" fill="none" stroke="#B37C34" stroke-width="0.4799" stroke-linecap="round" stroke-linejoin="round" stroke-miterlimit="3.85" points="
		545.983,493.245 547.422,493.004 547.663,492.765 549.102,492.524 550.542,493.004 551.262,493.484 551.742,494.205 
		550.782,495.885 550.302,497.325 548.382,497.565 546.942,497.085 545.743,495.885 544.063,494.685 542.624,493.965 
		541.903,493.725 541.184,493.484 541.423,493.245 542.144,493.245 544.063,493.004 545.263,493.004 545.983,493.245 	"/>
	
		<polyline clip-path="url(#SVGID_2_)" fill="none" stroke="#B37C34" stroke-width="0.4799" stroke-linecap="round" stroke-linejoin="round" stroke-miterlimit="3.85" points="
		573.578,491.084 577.177,488.444 578.137,487.724 579.577,486.044 579.816,486.524 579.577,486.524 578.377,488.444 
		574.538,491.804 573.578,492.524 572.138,493.245 569.499,494.205 568.059,494.685 565.899,495.645 560.62,499.005 
		554.861,500.925 553.661,501.165 553.421,500.685 552.461,499.485 551.022,498.525 550.542,498.045 550.302,497.805 
		550.542,497.805 552.702,499.245 554.621,499.965 555.821,500.205 556.061,499.725 558.221,499.245 559.66,498.525 562.3,497.085 
		562.78,496.365 563.26,496.125 564.939,495.405 567.579,493.965 570.938,492.765 572.138,491.804 573.578,491.084 	"/>
	
		<polyline clip-path="url(#SVGID_2_)" fill="none" stroke="#B37C34" stroke-width="0.4799" stroke-linecap="round" stroke-linejoin="round" stroke-miterlimit="3.85" points="
		866.804,897.926 867.523,897.445 867.523,897.686 867.764,897.926 868.004,898.406 868.004,898.646 867.764,898.646 
		867.523,898.886 866.804,898.886 866.564,898.886 866.324,898.886 866.084,898.886 865.364,898.886 863.924,900.086 
		862.965,900.565 861.045,902.006 860.085,902.727 859.605,902.967 859.125,903.206 858.646,902.967 858.646,902.727 
		858.405,902.486 858.165,902.486 857.686,902.727 857.445,902.727 856.726,903.206 856.006,903.446 855.525,903.686 
		855.286,904.166 855.046,904.406 855.046,905.127 855.046,905.366 854.326,905.606 854.086,905.606 853.846,905.606 
		853.606,905.606 852.887,905.847 852.646,905.847 852.406,905.366 852.166,905.127 851.927,904.886 851.447,904.406 
		851.447,904.166 852.646,903.686 852.887,903.927 853.127,903.927 853.366,903.927 854.326,903.446 854.566,903.206 
		854.807,903.206 855.046,902.967 855.766,902.727 856.246,902.246 856.966,901.526 857.445,901.286 857.686,901.046 
		857.926,901.046 858.165,901.046 858.165,901.286 858.405,901.526 858.646,901.526 858.886,901.766 859.125,901.766 
		859.365,901.766 859.605,901.766 859.846,901.526 860.564,901.286 861.285,900.807 861.765,900.086 862.005,900.086 
		862.725,899.606 863.205,899.365 863.444,899.365 863.924,899.126 864.404,898.886 864.885,898.646 866.564,897.926 
		866.804,897.926 	"/>
	
		<polyline clip-path="url(#SVGID_2_)" fill="none" stroke="#B37C34" stroke-width="0.4799" stroke-linecap="round" stroke-linejoin="round" stroke-miterlimit="3.85" points="
		773.461,917.127 773.94,915.688 774.421,915.447 775.141,915.447 776.82,916.168 777.061,916.407 777.301,917.368 776.82,918.327 
		776.101,919.288 772.741,919.527 772.261,919.288 772.261,918.327 773.461,917.127 	"/>
	
		<polyline clip-path="url(#SVGID_2_)" fill="none" stroke="#B37C34" stroke-width="0.4799" stroke-linecap="round" stroke-linejoin="round" stroke-miterlimit="3.85" points="
		833.689,900.807 833.45,900.565 833.689,900.565 834.65,900.565 835.85,900.086 836.09,899.606 836.569,900.565 837.049,900.565 
		837.529,900.565 837.77,901.046 838.729,902.246 838.969,903.446 837.77,904.166 837.049,902.967 836.569,902.727 835.85,902.967 
		834.17,901.526 833.689,900.807 	"/>
	
		<polyline clip-path="url(#SVGID_2_)" fill="none" stroke="#B37C34" stroke-width="0.4799" stroke-linecap="round" stroke-linejoin="round" stroke-miterlimit="3.85" points="
		717.791,631.979 717.791,632.219 718.271,633.179 718.271,633.899 718.271,634.619 718.271,635.099 718.031,635.339 
		717.312,635.099 717.312,634.379 717.312,633.419 717.312,631.259 717.312,630.778 717.791,629.818 717.791,628.858 
		717.552,628.138 717.071,627.178 716.591,626.458 716.831,625.738 717.071,625.498 717.552,625.498 717.791,626.698 
		718.031,627.658 718.511,629.338 718.271,631.499 717.791,631.739 717.791,631.979 	"/>
	
		<polyline clip-path="url(#SVGID_2_)" fill="none" stroke="#B37C34" stroke-width="0.4799" stroke-linecap="round" stroke-linejoin="round" stroke-miterlimit="3.85" points="
		874.482,893.605 874.723,893.365 874.963,893.365 876.402,892.165 877.362,892.405 876.643,893.605 876.643,894.325 
		876.162,894.806 874.242,894.806 872.323,895.525 872.083,895.766 872.083,895.525 872.323,895.285 873.522,894.565 
		874.482,893.605 	"/>
	
		<polyline clip-path="url(#SVGID_2_)" fill="none" stroke="#B37C34" stroke-width="0.4799" stroke-linecap="round" stroke-linejoin="round" stroke-miterlimit="3.85" points="
		882.881,888.805 883.121,888.805 883.841,888.324 884.081,888.564 883.602,889.285 883.36,889.285 883.121,889.765 
		882.401,890.245 881.201,891.205 880.481,891.444 879.762,891.926 879.521,892.165 878.802,892.645 878.322,892.645 
		879.521,891.686 880.002,891.444 880.242,890.725 880.961,890.245 881.201,890.005 881.682,890.245 881.922,890.245 
		882.881,888.805 	"/>
	
		<polyline clip-path="url(#SVGID_2_)" fill="none" stroke="#B37C34" stroke-width="0.4799" stroke-linecap="round" stroke-linejoin="round" stroke-miterlimit="3.85" points="
		841.849,907.286 842.328,907.047 842.328,907.286 842.328,907.527 842.328,907.767 842.088,907.767 840.889,908.486 
		839.929,908.967 839.449,908.967 839.689,908.486 841.129,907.286 841.849,907.286 	"/>
	
		<polyline clip-path="url(#SVGID_2_)" fill="none" stroke="#B37C34" stroke-width="0.4799" stroke-linecap="round" stroke-linejoin="round" stroke-miterlimit="3.85" points="
		868.963,896.726 869.443,896.726 868.963,897.206 868.483,897.206 867.764,897.445 868.963,896.726 	"/>
</g>
</svg>
