<?xml version="1.0" encoding="utf-8"?>
<!-- Generator: Adobe Illustrator 15.1.0, SVG Export Plug-In . SVG Version: 6.00 Build 0)  -->
<!DOCTYPE svg PUBLIC "-//W3C//DTD SVG 1.1//EN" "http://www.w3.org/Graphics/SVG/1.1/DTD/svg11.dtd">
<svg version="1.1" id="State" xmlns="http://www.w3.org/2000/svg" xmlns:xlink="http://www.w3.org/1999/xlink" x="0px" y="0px"
	 width="1296px" height="1296px" viewBox="0 0 1296 1296" enable-background="new 0 0 1296 1296" xml:space="preserve">
<g>
	<defs>
		<rect id="SVGID_1_" x="349.219" y="266.421" width="598.45" height="770.958"/>
	</defs>
	<clipPath id="SVGID_2_">
		<use xlink:href="#SVGID_1_"  overflow="visible"/>
	</clipPath>
	
		<polyline clip-path="url(#SVGID_2_)" fill="none" stroke="#B37C34" stroke-width="0.7199" stroke-linecap="round" stroke-linejoin="round" stroke-miterlimit="3.85" points="
		380.653,397.715 379.933,393.154 379.693,392.674 379.693,392.435 379.453,390.274 378.733,386.193 378.733,385.954 
		378.253,382.833 378.013,382.833 377.773,380.193 376.813,374.913 376.333,370.832 376.094,369.872 375.374,364.832 
		374.894,360.271 374.174,355.71 373.934,354.75 373.934,354.271 373.694,352.83 373.694,352.11 373.694,351.87 373.214,347.31 
		379.213,347.55 383.533,347.55 385.452,347.79 388.092,347.79 388.571,347.79 389.051,347.79 390.731,347.79 393.851,347.79 
		395.53,347.79 395.771,347.79 397.21,348.03 397.45,348.03 398.41,348.03 400.329,348.03 400.569,348.03 400.809,347.79 
		402.969,347.79 403.209,347.79 403.449,347.79 403.688,347.79 404.889,347.79 407.288,347.79 407.528,347.79 408.008,347.79 
		408.728,347.79 409.688,347.79 410.167,347.79 410.408,347.79 410.647,347.79 410.888,347.79 411.367,347.79 412.087,347.79 
		413.287,347.79 414.727,347.79 415.446,347.79 416.167,347.79 416.407,347.79 417.126,347.79 417.366,347.79 417.606,347.79 
		417.846,347.79 418.326,347.79 419.046,347.79 419.526,347.79 420.246,347.79 421.206,347.79 421.925,347.79 422.405,347.79 
		425.525,347.79 426.484,347.79 427.924,347.79 428.404,347.79 430.804,347.79 431.524,347.79 432.963,347.79 433.204,347.79 
		435.123,347.79 435.363,347.79 437.283,347.79 437.522,347.79 438.243,347.79 444.961,347.79 445.201,347.79 447.601,347.79 
		449.041,347.79 449.521,347.79 450.48,347.79 455.04,347.79 455.52,347.79 458.399,347.79 458.879,347.79 461.998,347.79 
		462.718,347.79 463.198,347.79 463.438,347.79 464.397,347.79 464.638,347.79 468.237,347.79 469.437,347.79 472.556,347.79 
		473.516,347.79 473.756,347.79 479.035,348.03 485.514,348.03 485.994,348.03 492.232,348.03 498.711,348.03 498.951,348.03 
		505.19,348.03 511.909,348.03 512.149,348.03 512.389,348.03 513.349,348.03 514.309,348.03 514.789,348.03 515.988,348.03 
		517.428,348.03 517.908,348.03 520.308,348.03 527.266,348.03 530.625,348.03 532.545,348.03 533.505,348.03 533.745,348.03 
		536.625,348.03 540.704,348.03 542.383,348.27 546.223,348.27 546.942,348.27 553.901,348.27 554.861,348.27 556.781,348.27 
		559.66,348.03 561.58,348.03 564.699,348.03 566.139,348.03 569.499,348.03 571.658,348.03 572.378,348.03 573.578,348.03 
		576.697,348.03 577.177,348.03 580.296,348.03 581.256,348.03 583.176,348.03 586.055,348.03 588.935,348.03 589.175,348.03 
		589.655,348.03 600.933,348.03 600.933,347.31 603.332,347.31 609.091,347.31 616.53,347.07 628.288,346.83 629.967,346.83 
		631.407,346.59 631.647,346.59 633.327,346.59 633.807,346.59 635.006,346.59 637.886,346.35 638.846,346.35 644.845,346.109 
		649.403,345.87 649.644,345.87 650.123,345.87 659.722,345.629 659.962,346.35 659.962,346.83 660.202,347.31 659.722,348.27 
		659.481,348.51 659.242,349.23 658.282,350.19 658.042,350.91 658.282,351.39 657.802,352.11 657.563,352.35 657.563,352.83 
		658.042,353.55 658.282,353.791 658.282,354.03 658.282,354.271 658.042,354.51 657.802,354.51 657.563,354.51 657.322,354.51 
		657.322,354.75 657.322,355.23 657.082,355.471 656.123,356.19 655.883,356.19 655.643,356.19 654.923,355.95 654.683,356.19 
		654.203,356.431 653.963,356.911 653.723,357.15 653.243,357.15 653.003,357.15 652.764,357.391 652.523,357.871 652.283,358.351 
		652.044,358.351 651.563,358.591 651.563,358.831 651.563,359.071 650.844,359.791 650.364,360.031 650.123,360.031 
		649.884,360.031 649.644,360.511 648.924,360.751 648.684,361.231 649.164,361.951 648.684,362.671 648.204,362.671 
		647.724,362.191 647.004,362.911 646.044,362.671 645.805,362.671 645.564,362.911 645.084,363.151 644.845,363.151 
		644.845,363.631 644.845,363.871 644.845,364.111 644.604,364.591 644.365,364.591 644.125,364.591 643.885,365.071 
		643.885,365.312 643.885,365.552 643.885,365.792 643.645,366.031 643.165,366.271 643.165,366.992 643.165,367.231 
		643.165,367.472 642.925,367.472 642.685,367.472 642.445,367.472 642.205,367.472 641.965,367.472 641.485,367.472 
		641.245,368.672 641.725,369.392 641.485,370.832 641.245,371.312 640.766,371.552 639.806,370.832 639.565,370.592 
		639.086,370.352 638.846,370.832 638.846,371.312 638.606,371.792 638.126,371.792 637.886,371.792 637.646,371.792 
		637.646,372.032 637.646,372.272 637.646,372.752 637.646,373.232 637.406,373.472 636.206,373.952 635.247,375.393 
		635.726,377.553 635.486,378.753 635.726,379.473 634.767,380.433 634.287,381.153 633.567,381.873 632.367,382.593 
		631.887,383.793 631.887,385.714 632.127,385.954 632.367,386.674 632.607,387.154 632.607,387.394 632.367,387.394 
		632.367,387.634 632.367,387.874 632.367,388.114 632.607,388.354 632.607,388.594 632.847,388.834 633.087,389.074 
		633.327,389.314 633.567,389.794 633.567,390.034 633.567,390.274 633.807,390.514 634.046,390.514 634.287,390.514 
		634.526,390.514 635.006,390.754 635.486,390.994 635.726,391.234 635.966,391.474 636.206,392.194 636.446,392.194 
		636.926,391.954 637.406,391.954 637.886,392.435 637.886,393.154 638.846,394.114 639.326,394.595 639.565,394.595 
		640.045,395.075 640.286,395.314 640.525,395.555 641.245,395.794 642.445,396.035 643.165,396.515 644.125,397.235 
		644.604,397.955 644.845,398.195 644.845,398.435 644.604,399.155 645.084,399.635 645.805,399.875 646.044,400.115 
		646.284,400.115 646.524,400.115 647.244,400.355 648.204,400.115 649.644,400.595 649.884,400.835 652.044,400.595 
		652.283,400.595 652.523,400.595 652.764,400.595 653.003,400.835 653.243,401.075 653.003,401.315 653.003,401.795 
		653.003,402.755 653.243,402.996 654.923,403.235 655.162,404.676 656.603,406.116 656.842,406.116 657.802,406.836 
		658.042,406.836 658.522,407.076 659.722,408.516 660.202,408.996 660.922,409.956 660.922,410.436 660.922,410.916 
		661.642,411.156 662.121,410.916 662.602,410.916 663.081,411.156 663.802,411.876 663.802,412.116 662.841,413.076 
		662.841,413.316 664.281,414.517 664.761,415.237 665.24,415.237 666.201,414.997 666.681,414.997 666.681,415.237 667.16,415.957 
		667.4,416.437 667.881,416.917 668.84,417.637 669.08,417.877 669.561,417.637 672.199,419.077 672.68,419.317 673.399,419.317 
		673.399,419.077 673.399,418.837 673.399,418.597 673.64,418.357 673.879,418.357 675.318,417.637 676.998,417.877 
		677.479,417.877 678.198,418.357 678.919,418.117 679.639,417.157 681.078,417.396 681.559,417.877 681.798,417.877 
		683.478,417.396 684.197,417.157 686.356,418.117 687.077,418.597 687.316,418.837 687.557,419.077 687.316,419.557 
		687.316,420.037 687.316,420.277 688.517,420.757 688.757,420.997 688.996,420.997 688.996,421.237 688.996,421.477 
		688.996,421.958 688.996,422.197 689.477,422.677 689.716,422.917 689.716,424.598 690.196,425.317 690.437,425.798 
		690.677,426.278 690.677,427.478 690.677,427.718 691.396,429.158 691.396,429.398 691.396,430.118 691.396,430.358 
		691.396,430.598 691.636,430.838 691.876,431.558 692.116,432.758 692.116,433.479 692.116,433.718 692.356,433.958 
		693.556,434.918 694.516,435.639 694.996,436.119 696.436,437.319 696.915,437.319 696.915,437.559 697.155,438.519 
		697.395,438.519 697.395,438.759 697.155,439.239 697.395,439.479 697.395,439.719 697.875,441.399 698.355,442.6 698.595,443.319 
		699.314,444.279 699.314,444.52 699.794,445 700.515,445.479 700.754,445.479 701.474,446.2 702.194,446.92 702.674,447.64 
		702.434,447.88 702.434,448.36 702.674,449.08 702.914,449.56 702.914,450.52 702.914,450.76 702.914,451.48 703.153,452.68 
		702.914,452.92 702.914,453.4 703.394,454.121 703.394,454.36 703.153,454.841 703.153,455.321 703.394,455.561 704.354,457.481 
		704.354,457.721 704.354,459.641 704.354,459.881 704.594,460.121 705.313,461.081 705.313,461.321 705.554,461.562 
		705.554,461.801 706.273,463.722 706.514,463.961 707.713,464.922 708.193,465.162 708.673,465.402 709.152,465.162 
		709.393,465.402 709.873,465.882 710.832,466.362 711.072,466.602 712.032,467.802 712.032,468.522 712.032,468.762 
		712.272,468.762 712.512,469.242 712.752,469.482 712.752,469.722 712.992,469.722 712.992,470.202 713.231,470.202 
		713.712,470.682 713.952,470.682 714.432,470.922 715.152,471.642 715.152,471.882 715.152,472.123 715.392,472.362 
		715.152,472.603 714.911,473.322 714.672,473.563 714.672,474.042 714.672,474.283 714.911,474.522 715.392,475.243 
		715.871,475.482 716.111,475.482 716.352,475.482 716.591,475.482 716.831,475.723 717.312,476.443 717.552,476.683 
		717.552,476.923 717.791,477.403 718.511,477.883 718.991,478.843 719.711,479.563 720.431,480.283 720.671,480.523 
		720.671,480.763 720.671,481.963 720.671,482.203 720.671,482.443 720.91,482.684 720.91,482.923 721.15,483.164 721.391,484.364 
		721.631,484.844 722.11,485.083 722.831,485.324 723.07,485.563 723.07,485.804 722.831,485.804 722.59,486.044 722.59,486.284 
		722.351,486.524 722.351,487.004 722.59,487.244 722.831,487.724 723.07,487.964 723.79,488.444 723.79,488.684 724.03,489.404 
		724.27,490.124 724.27,490.604 725.23,492.044 725.47,492.284 726.91,492.524 727.149,492.524 727.629,492.284 727.869,492.284 
		728.109,492.284 728.59,492.284 728.829,492.284 729.069,492.284 730.269,493.004 730.989,493.965 731.469,494.685 
		731.948,495.645 732.429,496.365 732.669,496.845 734.108,497.805 734.348,498.045 735.548,499.245 736.748,499.965 
		736.748,500.205 737.228,500.685 737.948,501.165 738.907,501.646 739.147,501.646 740.107,502.605 740.348,502.846 
		740.587,503.085 741.066,503.085 741.547,503.085 741.787,503.085 742.027,502.846 742.746,502.846 743.227,502.846 
		743.706,503.085 744.187,503.806 744.906,504.045 745.386,504.286 746.106,504.766 746.826,505.486 747.065,505.726 
		747.306,505.966 748.506,506.446 748.745,506.686 749.226,506.926 749.945,507.166 750.665,507.886 750.905,508.126 
		751.145,508.126 751.865,508.606 752.105,508.846 752.585,509.086 753.305,509.806 753.545,510.046 753.785,510.286 
		753.785,510.526 754.504,511.006 754.984,511.486 755.225,511.486 755.465,511.727 755.465,511.966 755.465,512.207 
		755.704,512.446 755.465,513.646 755.465,513.887 755.704,514.126 756.184,514.367 756.424,514.126 756.664,514.367 
		757.144,514.606 757.624,515.087 758.104,515.567 759.063,516.287 759.304,516.287 759.544,516.287 759.544,516.527 
		759.783,516.767 759.783,517.007 760.264,517.247 760.503,517.247 760.743,517.247 761.703,518.207 761.943,519.167 
		762.423,520.607 762.663,520.847 762.663,521.327 762.902,521.567 763.144,523.488 763.144,524.448 763.383,525.648 
		763.863,526.128 764.103,526.368 764.582,526.848 764.823,527.088 765.303,527.568 765.543,527.808 766.022,528.768 
		766.262,529.488 766.502,529.728 767.462,530.448 767.462,530.928 767.462,531.408 767.462,532.849 767.941,535.009 
		767.941,535.249 769.142,536.449 769.861,537.169 770.102,537.169 770.581,537.409 770.581,537.649 771.781,537.889 
		772.021,537.889 772.502,538.129 772.741,538.129 772.981,538.369 773.461,539.329 773.701,539.569 774.421,540.049 
		775.381,540.529 775.62,540.77 775.86,540.77 776.101,540.77 776.101,540.529 776.34,540.529 777.061,540.049 777.301,539.809 
		777.54,539.809 778.261,539.809 778.5,539.809 779.46,541.25 779.699,541.489 779.939,541.729 780.9,541.969 782.1,542.209 
		782.58,542.209 783.059,542.689 784.26,543.89 784.499,543.89 784.739,543.89 785.459,544.13 785.698,544.13 786.658,545.33 
		787.139,546.29 787.378,546.53 787.858,546.77 788.338,547.25 788.338,547.73 788.818,548.21 789.778,548.45 790.019,548.69 
		790.258,549.65 790.258,549.89 790.498,549.89 790.738,549.89 790.979,550.13 791.698,551.57 792.178,552.291 792.418,552.771 
		792.418,553.25 792.418,553.73 792.657,554.211 792.897,554.691 793.377,554.931 793.617,555.171 794.338,555.411 795.297,555.651 
		795.537,555.891 796.018,555.891 796.497,556.371 797.697,556.851 798.177,557.091 799.136,557.091 799.616,557.571 
		800.096,558.051 800.096,558.291 800.576,559.251 800.576,559.491 801.296,560.451 801.296,560.691 801.536,560.932 
		801.536,561.171 801.536,561.412 801.536,561.651 801.296,561.892 801.296,562.131 800.815,562.372 800.336,562.611 
		800.096,563.092 800.096,563.572 800.336,564.052 800.815,564.292 801.057,564.532 801.057,564.772 800.815,565.252 
		800.576,565.492 799.616,565.732 799.136,565.972 798.896,566.212 798.896,566.452 799.136,566.932 799.136,567.172 
		799.616,569.572 800.096,570.052 800.336,570.292 800.336,570.772 799.856,571.252 799.377,571.012 798.656,570.532 
		798.177,570.532 797.937,570.772 797.937,571.012 797.937,571.252 798.177,571.732 798.656,572.212 799.377,572.933 
		799.136,573.413 798.896,573.653 798.656,574.133 798.656,574.373 798.896,574.373 799.136,574.613 799.616,574.613 
		799.856,574.613 800.576,574.373 800.815,574.373 801.296,574.853 801.296,575.813 801.296,576.053 802.016,576.533 
		802.256,576.773 802.256,577.013 802.495,577.253 802.735,577.253 802.976,576.773 803.216,576.533 803.216,576.293 
		803.456,576.293 803.695,576.533 803.936,576.773 803.936,577.253 803.695,577.493 803.936,577.493 804.655,577.973 
		805.136,578.213 805.375,579.173 806.335,579.413 807.055,578.693 807.295,578.693 807.295,578.453 807.295,578.693 
		807.535,578.693 808.975,578.933 809.215,579.173 809.694,579.413 809.694,579.653 809.935,579.894 809.455,580.613 
		809.215,580.613 808.975,580.613 808.734,580.613 808.494,580.613 808.015,580.854 808.015,582.054 808.015,582.293 
		808.015,582.534 808.255,582.534 809.215,582.773 810.174,583.494 810.654,583.974 810.894,584.214 810.894,584.694 
		810.654,584.934 810.414,585.174 809.935,585.174 809.694,585.414 809.215,587.334 809.215,587.814 809.935,588.534 
		810.654,588.774 811.135,589.014 811.854,589.734 812.334,590.455 813.294,590.694 814.253,590.935 814.494,591.174 
		814.494,591.654 814.733,592.375 814.733,592.615 814.974,592.615 816.653,593.095 817.373,593.095 818.093,592.854 
		818.093,592.615 818.093,592.135 817.854,591.654 817.854,591.415 817.854,591.174 818.093,591.174 818.573,591.174 
		818.813,591.415 819.293,591.654 819.293,591.895 819.532,592.375 819.772,593.575 820.013,593.815 820.013,594.055 
		820.492,594.055 820.492,594.295 820.732,594.535 820.252,595.735 820.013,595.735 819.532,595.975 818.813,596.935 
		819.532,598.375 819.772,599.095 820.013,599.815 820.973,601.016 821.452,601.496 822.412,602.216 824.572,603.896 
		825.052,604.376 825.531,604.616 826.971,605.576 827.211,605.816 827.69,605.576 827.932,605.576 829.61,606.056 832.011,607.256 
		832.49,607.496 832.73,607.496 832.97,607.736 833.21,607.976 833.93,608.456 833.93,608.696 834.41,608.696 834.65,608.696 
		834.89,608.696 835.13,608.696 835.369,608.696 835.61,608.696 836.09,608.456 837.29,608.456 837.529,608.456 837.77,608.456 
		838.01,608.456 838.249,608.696 838.249,609.176 838.249,609.656 838.249,609.896 838.249,610.136 838.489,610.136 
		838.729,610.136 838.969,609.896 839.209,609.896 839.449,609.896 839.689,610.376 839.689,610.616 839.449,610.856 
		839.449,611.097 839.449,611.336 839.449,611.577 840.169,611.816 840.408,611.816 840.648,611.577 840.889,611.816 
		841.369,612.296 841.849,612.777 842.088,613.257 842.809,613.977 843.288,613.977 843.528,613.977 843.769,613.977 
		843.769,613.737 844.008,613.737 844.248,613.737 844.248,613.977 844.248,614.217 844.248,614.697 844.248,614.937 
		844.488,615.177 844.729,615.177 844.968,615.417 845.208,615.177 845.448,615.177 845.688,614.937 846.168,614.937 
		846.407,615.177 846.647,615.897 846.888,615.897 849.048,617.337 849.768,617.337 850.007,617.577 851.207,619.257 
		852.406,619.978 852.406,620.217 852.406,621.658 852.406,621.897 852.166,624.298 851.687,626.218 851.687,626.458 
		851.447,626.458 851.207,626.458 850.967,626.458 850.728,626.698 850.728,626.938 850.728,627.178 850.728,627.418 
		850.728,627.898 850.728,628.138 851.207,628.618 851.687,629.098 851.447,629.818 851.447,630.298 851.447,630.539 
		851.687,630.778 852.166,630.778 853.606,632.219 854.086,633.419 854.326,634.379 855.525,635.099 855.766,635.099 
		856.006,635.579 856.006,635.819 855.286,636.539 854.566,637.019 854.326,637.979 854.807,638.219 855.286,638.459 
		855.766,638.459 856.485,638.699 857.445,638.699 857.445,638.939 857.445,639.179 857.686,639.419 857.445,640.859 
		857.205,641.58 857.445,642.06 857.686,642.3 857.926,642.3 858.405,642.06 858.646,642.06 860.564,643.26 861.285,643.98 
		861.525,644.7 861.765,646.38 861.765,646.86 861.525,647.1 861.045,647.58 861.045,648.78 861.045,649.74 861.045,650.46 
		860.805,650.701 860.564,650.94 860.564,651.181 860.564,651.42 860.805,651.66 861.285,651.66 861.525,651.9 861.525,652.141 
		861.525,652.381 861.525,652.621 861.285,652.621 861.045,652.86 861.045,653.101 861.045,653.341 861.045,653.581 
		861.525,653.581 861.765,653.82 862.005,654.301 862.244,654.541 862.244,654.781 862.244,655.261 862.244,655.501 
		862.244,655.741 862.244,655.981 862.244,656.222 862.484,656.222 862.725,656.222 	"/>
	
		<polyline clip-path="url(#SVGID_2_)" fill="none" stroke="#B37C34" stroke-width="0.7199" stroke-linecap="round" stroke-linejoin="round" stroke-miterlimit="3.85" points="
		862.725,656.222 862.965,656.461 862.965,656.701 862.965,656.941 862.965,657.182 862.725,657.422 862.005,658.381 
		861.765,660.062 861.765,661.262 861.045,662.702 861.045,662.941 862.484,663.662 862.725,663.902 862.965,663.902 
		862.965,663.662 863.205,663.662 863.444,663.662 863.685,664.622 864.165,665.582 864.165,666.062 863.924,667.502 
		863.685,668.223 863.685,668.463 863.924,668.942 864.165,668.942 864.645,668.942 865.124,669.423 865.364,669.662 
		865.124,669.902 864.165,670.863 863.924,670.863 863.924,671.582 864.165,671.582 864.165,671.823 863.685,672.543 
		863.444,672.543 863.205,672.543 863.205,672.303 862.965,671.582 862.725,671.582 862.484,671.823 862.484,672.063 
		862.484,672.783 862.484,673.022 863.205,674.223 863.205,674.463 864.165,675.184 864.885,676.144 865.364,676.383 
		865.844,677.344 867.044,678.303 867.283,678.303 867.523,678.303 867.764,677.823 868.004,677.823 868.244,678.063 
		868.483,678.063 868.483,679.023 868.724,679.983 869.684,680.464 869.923,680.464 870.883,680.943 873.283,681.904 
		874.003,682.144 874.242,682.144 874.482,682.144 875.683,681.904 876.162,681.664 876.643,681.664 876.882,681.664 
		877.122,681.664 877.362,681.904 877.842,682.144 878.802,682.624 879.042,682.864 879.521,684.064 879.762,684.304 
		879.762,684.544 879.521,685.023 879.521,685.265 879.521,685.504 879.762,685.744 880.481,686.225 881.201,686.944 
		882.401,687.664 882.641,687.904 882.881,687.664 883.36,687.664 884.32,687.904 884.561,687.904 884.561,688.385 884.561,688.625 
		884.32,688.625 884.081,688.864 884.081,689.104 884.081,689.344 884.801,690.544 885.521,691.024 887.2,693.186 888.88,694.625 
		889.359,695.105 889.6,695.105 890.08,694.865 890.319,694.865 890.319,695.105 890.319,695.346 889.6,696.306 889.12,696.785 
		888.64,696.785 888.64,697.025 888.4,697.265 888.4,697.506 888.64,697.745 888.64,697.985 888.88,697.985 888.64,698.226 
		888.64,698.465 888.4,698.706 888.16,698.945 887.92,699.186 888.4,700.865 889.12,701.826 889.6,702.546 890.319,703.026 
		891.279,704.466 891.76,705.186 891.76,706.146 891.279,706.866 891.52,706.866 891.76,707.106 892.239,707.826 892.719,708.307 
		892.959,708.547 892.719,708.787 892.719,709.026 892.719,709.267 892.719,709.506 893.68,709.986 894.159,710.467 
		894.639,710.947 894.639,711.187 894.639,711.427 894.879,711.427 895.119,711.427 895.359,711.427 895.359,711.187 
		895.359,710.947 895.839,710.706 896.078,710.706 896.318,710.947 897.039,711.906 897.039,712.146 897.278,712.146 
		897.278,712.867 896.798,713.587 896.798,713.827 897.039,714.307 897.519,715.507 898.238,716.468 898.479,716.468 
		898.479,716.707 898.719,716.947 898.958,719.107 898.958,719.348 898.958,719.588 898.719,719.827 897.998,721.027 
		897.758,721.268 897.039,721.748 896.798,721.988 896.078,722.948 895.839,724.147 894.879,725.348 894.879,725.828 
		894.879,726.068 895.119,726.309 895.119,726.548 895.359,726.788 895.839,727.748 896.078,727.988 896.318,728.229 
		896.559,728.709 897.278,729.909 898.238,730.629 898.958,731.589 899.198,732.309 899.438,732.789 899.678,733.269 
		899.678,733.749 899.438,734.229 899.438,734.709 899.438,734.949 899.438,735.189 899.198,735.189 898.958,735.669 
		898.479,736.149 898.238,736.39 898.238,736.629 898.479,736.629 899.198,736.869 899.198,737.109 899.438,738.069 899.438,738.31 
		899.678,739.51 899.678,739.75 899.678,740.71 899.678,740.949 899.678,741.43 899.918,743.11 900.397,743.83 900.638,744.069 
		902.077,744.069 902.797,744.069 903.037,744.069 903.037,744.551 903.518,745.03 903.997,745.511 906.156,746.95 906.396,746.95 
		906.877,747.19 907.117,747.19 908.076,747.431 908.316,747.431 909.036,747.431 909.516,747.67 910.235,747.431 911.436,746.71 
		911.676,746.471 912.156,745.75 912.636,745.27 913.115,745.03 913.355,745.27 913.596,745.27 914.075,745.511 914.555,745.99 
		915.035,746.471 915.515,747.431 915.995,748.15 916.475,748.391 917.915,748.871 918.875,749.11 919.594,749.591 920.794,751.031 
		921.994,752.231 922.953,753.191 923.434,753.432 923.914,753.671 924.873,753.671 927.033,753.911 927.753,753.911 
		929.672,754.871 931.112,755.352 931.832,754.871 932.792,755.352 933.272,757.031 933.272,757.271 933.031,758.231 
		932.792,759.191 932.552,760.152 932.552,760.392 932.313,760.392 932.072,760.872 930.872,763.031 929.433,763.992 
		928.473,764.473 926.793,765.912 925.113,766.632 922.953,766.632 922.953,764.952 921.514,764.952 921.273,764.952 
		920.555,764.952 917.915,767.353 917.675,768.313 917.675,769.752 918.395,770.952 920.074,771.433 921.754,771.193 
		922.474,771.673 921.273,773.353 921.034,773.593 918.154,776.233 915.755,779.114 915.035,779.114 914.075,778.634 
		913.115,777.673 910.956,776.953 909.996,776.714 908.316,776.714 907.597,776.473 907.356,776.473 907.117,776.473 
		907.597,778.153 908.076,779.354 907.836,780.313 907.597,781.033 905.917,782.234 906.156,783.435 908.316,784.154 
		909.036,784.154 909.276,783.914 910.235,784.154 910.716,784.394 910.716,785.354 910.235,786.074 909.516,786.794 
		908.557,788.955 907.117,791.595 906.156,792.795 903.997,793.755 903.997,793.995 903.757,793.995 902.317,795.676 
		899.918,798.315 899.438,798.556 898.958,798.556 897.039,797.835 896.318,797.596 892.479,797.115 891.76,798.076 
		891.279,799.035 893.439,801.436 896.318,802.876 897.278,802.396 897.519,801.676 897.758,801.676 898.958,801.436 
		899.918,802.156 899.438,803.836 899.438,805.036 900.158,807.916 899.918,812.236 898.238,816.317 897.039,819.678 
		895.599,821.838 894.879,821.838 894.159,821.118 893.919,820.157 892.959,820.157 891.76,820.157 890.56,821.598 887.44,822.559 
		885.761,822.078 885.04,823.038 884.801,824.478 884.801,825.198 884.801,825.438 885.281,825.678 886.48,825.678 890.319,825.919 
		890.8,825.678 892.479,824.478 893.199,824.719 894.639,825.678 895.119,826.398 895.119,827.119 893.68,829.039 892,833.359 
		889.359,837.199 887.68,839.84 887.2,840.561 885.761,843.2 883.841,848.001 883.602,848.48 883.602,850.641 883.121,854.001 
		884.32,854.001 885.04,854.241 886.721,855.441 886,857.122 884.801,858.562 884.32,859.281 884.32,864.082 883.602,865.522 
		882.881,868.162 882.881,869.843 882.881,870.323 882.401,870.803 882.161,870.803 880.961,871.043 880.002,870.803 
		877.122,873.684 875.202,876.563 874.482,878.003 874.482,878.244 874.723,878.964 874.482,879.203 874.003,880.164 
		873.763,880.884 873.522,880.884 873.283,880.884 871.844,881.364 871.363,881.364 869.923,881.364 869.923,881.844 
		869.684,882.564 869.443,884.965 869.923,888.085 869.923,889.765 868.483,896.246 867.764,897.686 867.283,898.165 
		866.324,898.165 866.084,897.926 866.084,897.686 865.124,897.686 864.165,897.926 863.444,898.646 863.205,899.365 
		862.005,900.807 859.605,902.246 859.125,903.446 860.085,904.406 860.325,904.646 861.285,904.886 861.765,904.406 
		862.484,904.166 863.924,904.886 864.885,906.086 866.324,906.086 867.283,906.086 868.004,903.686 868.483,903.206 
		869.443,903.206 869.443,903.446 870.163,905.847 870.163,906.566 870.163,907.527 870.163,912.807 868.004,920.728 
		867.523,922.889 867.283,923.608 866.084,925.048 865.364,926.489 864.645,928.889 864.404,929.369 864.404,929.849 
		863.924,932.249 863.924,934.409 863.924,935.609 864.165,936.09 864.165,936.33 864.885,938.489 865.364,939.689 866.084,940.65 
		865.604,940.65 864.165,940.65 863.685,940.41 863.444,940.41 862.965,940.17 862.484,940.17 862.244,939.931 861.285,938.73 
		860.805,938.489 860.564,938.489 859.365,938.73 858.405,938.97 857.445,938.97 856.726,938.97 855.766,938.97 855.525,938.97 
		855.286,939.21 855.286,939.449 855.046,939.689 855.046,939.931 854.807,940.17 854.566,940.41 854.326,940.41 854.086,940.41 
		853.846,940.41 853.846,940.17 853.606,940.17 853.366,939.931 852.887,939.931 851.927,940.17 851.687,939.931 851.207,939.931 
		851.207,939.689 850.728,939.21 850.486,939.21 850.007,939.21 848.807,938.97 848.088,938.73 847.607,938.73 847.127,938.489 
		846.647,938.489 846.647,938.97 846.407,939.449 846.168,939.449 845.688,939.449 845.208,939.449 844.968,939.21 844.968,938.97 
		844.729,938.25 844.488,938.01 844.248,937.77 843.769,938.01 843.528,938.01 843.288,938.25 841.608,938.73 841.369,938.489 
		841.129,938.489 840.889,938.01 840.889,937.53 840.889,936.81 840.889,936.569 840.648,936.33 840.408,936.33 839.689,936.09 
		839.449,936.09 838.969,936.09 838.969,936.33 838.729,936.81 838.729,937.05 838.489,937.05 838.249,937.05 836.569,936.81 
		836.09,936.569 836.09,936.09 835.85,935.85 834.41,936.09 834.17,936.09 833.689,936.33 832.97,936.569 832.73,936.569 
		831.771,936.09 831.29,935.85 829.851,934.409 829.851,934.169 829.851,933.93 829.61,933.689 829.37,933.689 829.37,933.449 
		829.131,933.449 828.891,933.449 828.411,933.21 827.932,932.969 827.451,932.489 826.731,932.489 826.491,932.729 826.252,933.21 
		826.011,933.449 825.531,933.449 825.052,933.21 824.812,932.729 824.572,932.01 823.853,931.049 823.372,931.049 822.173,930.329 
		821.932,930.329 820.732,930.568 820.492,930.568 819.772,930.568 819.532,930.568 818.333,930.81 818.093,931.049 817.854,930.81 
		817.613,930.568 817.373,930.329 816.653,929.849 814.733,930.089 814.494,930.089 813.773,929.129 813.054,928.409 
		812.094,927.448 811.854,926.969 811.614,926.489 811.374,926.248 810.894,926.248 810.654,926.248 810.414,926.489 
		810.174,926.729 810.174,926.969 809.455,926.969 807.775,926.729 806.575,926.489 806.575,926.248 806.095,925.769 
		805.615,925.528 804.896,925.528 803.695,926.489 803.456,926.729 803.456,926.969 803.216,927.448 803.456,928.169 
		803.456,929.369 803.456,929.849 802.256,932.01 802.016,932.489 801.536,932.729 801.296,932.729 801.057,932.729 
		800.336,932.249 800.096,932.01 799.377,931.289 798.177,930.568 797.937,930.568 796.736,930.568 796.018,931.289 
		796.018,931.529 796.018,931.769 796.736,932.969 797.456,934.649 797.456,934.89 796.736,935.85 795.537,936.33 795.057,936.33 
		794.577,936.33 794.338,936.569 794.338,936.81 794.098,937.53 794.098,938.25 794.098,938.73 793.857,939.449 794.098,939.931 
		794.338,940.17 794.338,940.41 794.577,940.89 794.817,942.57 794.098,944.49 793.138,946.651 793.138,946.891 793.138,947.131 
		793.377,949.771 793.617,950.251 794.098,950.491 794.577,951.451 794.577,951.69 794.577,952.172 794.817,952.891 
		795.297,953.371 795.777,954.331 796.257,955.531 796.018,956.492 796.977,956.972 797.456,956.972 797.456,957.212 
		797.937,958.172 798.177,959.611 798.416,959.853 798.416,960.572 798.656,962.012 798.896,962.492 797.937,964.413 
		797.456,967.053 797.217,968.013 797.456,968.253 797.456,968.493 797.456,968.732 797.697,968.732 797.937,969.453 
		797.937,969.693 797.937,969.934 797.697,971.373 797.697,971.853 797.697,972.094 797.456,972.333 797.697,973.053 
		797.697,974.253 797.697,974.494 797.697,974.733 796.977,975.934 796.736,976.414 796.736,977.134 796.497,978.573 
		796.257,979.054 795.537,980.015 795.297,980.494 795.777,981.454 795.777,982.174 795.537,982.654 795.057,983.374 
		794.817,983.854 794.817,984.814 795.057,985.774 795.537,987.455 795.537,988.415 795.297,988.895 795.057,989.375 
		794.817,989.615 794.338,990.575 793.857,990.575 792.657,990.814 791.698,991.056 790.258,991.056 788.578,990.814 
		788.099,990.575 787.858,990.575 787.858,990.335 787.619,990.335 787.858,990.095 787.619,989.855 787.378,989.855 
		786.419,990.095 785.939,990.095 784.979,990.095 784.979,990.335 784.499,990.335 782.819,990.575 780.9,991.295 780.42,991.535 
		780.18,991.535 779.46,991.295 779.22,991.295 779.22,991.056 778.261,990.095 777.78,989.375 777.061,988.895 776.581,988.655 
		775.62,986.494 775.141,985.535 774.421,982.174 774.421,981.215 774.9,980.494 775.141,979.534 775.141,978.573 774.9,977.854 
		774.66,977.854 774.66,977.373 775.141,976.174 775.381,975.214 775.381,973.773 774.66,972.813 773.94,971.853 773.221,971.133 
		772.502,970.653 772.261,970.413 771.781,969.453 772.021,968.973 771.781,968.013 771.302,967.293 771.062,966.573 
		771.062,965.613 771.541,964.173 771.541,963.933 772.021,963.213 772.502,962.973 773.221,962.732 773.701,962.492 
		773.461,962.252 769.382,962.012 768.422,961.772 764.823,961.772 754.265,961.052 748.985,960.812 743.946,960.572 
		736.027,960.092 734.828,960.092 733.628,959.853 732.669,959.853 731.229,959.853 730.749,959.853 729.069,959.611 
		716.352,959.132 715.152,958.893 693.556,957.692 693.315,957.692 686.117,957.212 671.96,956.492 664.521,956.012 
		663.802,956.012 663.081,956.012 662.361,956.012 659.962,955.771 659.002,955.771 658.042,955.771 657.802,955.771 
		656.123,955.531 647.964,955.052 646.524,955.052 641.485,954.571 641.245,954.571 637.646,954.331 635.726,954.331 
		633.087,954.091 631.887,954.091 627.088,953.852 625.648,953.611 624.688,953.611 618.449,953.371 614.37,953.131 614.13,953.131 
		610.531,952.891 605.012,952.651 601.413,952.411 597.573,952.172 597.333,952.172 589.175,951.69 581.256,951.211 
		581.016,951.211 579.816,950.972 575.737,950.731 572.618,950.731 557.5,949.771 556.061,949.771 553.421,949.531 553.182,949.531 
		552.702,949.531 551.502,949.531 549.582,949.291 548.143,949.291 547.902,949.291 545.263,949.051 544.303,949.051 
		544.063,949.051 543.343,949.051 539.504,948.811 528.226,948.091 527.746,948.091 524.387,948.091 513.109,947.371 
		512.629,947.371 512.389,947.371 507.11,947.131 503.75,946.891 502.071,946.891 501.111,946.891 494.872,946.41 493.912,946.41 
		493.432,946.41 491.993,946.17 485.274,945.931 482.875,945.69 480.715,945.451 478.315,945.451 478.075,945.451 476.875,945.21 
		470.876,944.971 463.198,944.49 457.679,944.251 454.319,944.011 454.08,944.011 453.6,942.57 452.88,941.851 451.92,941.13 
		451.68,940.89 451.44,939.931 450.48,938.489 450.24,938.489 450,938.489 449.521,938.489 449.28,938.489 449.041,938.489 
		448.561,938.489 448.321,938.25 448.321,938.01 448.321,937.77 448.081,937.05 447.841,936.81 447.601,936.33 447.841,935.609 
		447.841,935.13 447.841,934.649 446.881,932.969 446.641,932.969 446.641,932.729 446.641,932.489 446.641,932.249 446.401,932.01 
		446.641,931.289 446.641,931.049 446.401,930.329 445.681,929.369 445.681,928.889 445.681,928.169 445.681,927.448 
		445.921,926.969 446.161,926.489 446.401,926.248 446.401,926.008 446.641,925.769 446.641,925.528 446.641,925.048 
		446.401,924.809 446.161,924.568 445.921,924.089 445.921,923.848 445.921,923.608 445.921,923.128 445.921,922.889 
		445.921,922.648 445.681,922.168 445.441,921.928 445.441,921.448 445.441,921.208 445.921,920.728 445.921,920.488 
		445.921,920.248 445.681,919.769 445.441,919.769 445.201,919.527 444.961,919.288 444.241,918.088 443.761,917.368 
		443.282,916.647 442.082,915.207 441.842,914.728 441.602,913.768 441.122,913.527 440.402,913.048 440.162,912.807 
		440.162,912.567 440.162,911.848 440.162,911.367 440.162,911.127 440.402,910.647 440.642,910.167 440.642,909.927 
		440.642,909.447 440.642,909.207 440.162,908.486 439.922,908.247 439.682,908.007 438.482,907.767 438.243,907.767 
		437.763,907.527 437.522,907.286 437.522,907.047 437.522,906.807 437.522,906.566 437.763,905.606 437.763,905.366 
		438.002,904.166 438.002,903.927 438.002,903.686 438.002,902.967 438.243,902.486 438.243,901.766 437.763,901.046 
		437.522,900.326 437.042,899.126 437.283,897.686 437.283,897.445 436.803,896.246 436.803,896.006 436.083,895.525 
		434.883,893.365 434.883,893.125 434.883,892.886 435.123,891.926 434.643,890.245 434.403,889.765 433.923,888.564 
		433.923,888.324 433.443,888.085 432.724,887.364 432.244,887.124 432.003,887.124 432.003,886.885 431.764,886.885 
		431.764,886.645 431.524,886.404 431.044,884.965 430.804,884.244 430.564,883.765 429.844,883.044 429.604,882.564 
		429.364,882.084 429.124,881.844 429.124,881.604 428.404,881.364 427.205,881.364 426.484,880.644 426.245,880.644 
		426.245,880.404 426.484,878.964 426.484,878.484 426.245,878.003 426.005,877.764 425.765,877.764 425.525,877.764 
		425.525,877.523 425.525,877.284 425.525,876.323 425.525,875.363 425.765,875.123 426.484,874.403 426.484,874.163 
		426.484,872.963 426.725,872.243 426.484,871.283 426.484,871.043 426.484,870.803 426.245,870.563 426.005,869.843 
		425.765,869.123 425.285,868.162 425.045,867.683 425.045,867.442 424.805,866.723 425.045,866.243 425.045,865.762 
		425.045,865.282 424.805,865.043 425.045,864.563 425.285,864.322 425.525,864.322 425.765,864.322 426.484,864.082 
		426.725,864.082 426.964,863.603 427.444,863.362 427.444,863.122 427.685,862.643 427.924,861.442 427.924,861.202 
		427.924,860.722 428.164,860.242 428.404,859.522 428.404,859.281 428.404,857.842 427.924,857.122 427.924,856.881 
		427.924,856.642 428.164,856.161 428.164,854.961 428.164,854.481 428.164,854.241 427.685,854.241 427.444,853.761 
		427.444,853.281 427.444,853.041 427.444,852.802 427.924,851.841 	"/>
	
		<polyline clip-path="url(#SVGID_2_)" fill="none" stroke="#B37C34" stroke-width="0.7199" stroke-linecap="round" stroke-linejoin="round" stroke-miterlimit="3.85" points="
		427.924,851.841 428.164,851.602 428.164,851.36 428.644,850.16 428.884,848.721 429.124,848.48 429.364,848.001 429.364,847.521 
		429.124,846.801 429.124,846.561 429.124,846.32 429.364,845.601 429.604,844.881 429.604,844.4 429.844,844.16 430.324,844.16 
		430.564,844.16 430.564,843.92 430.804,843.681 430.804,843.2 430.804,842.48 430.804,842 430.804,841.28 430.324,840.561 
		430.084,838.399 430.804,836.239 431.284,835.76 431.764,834.56 432.483,833.119 432.963,832.159 432.963,831.919 433.204,831.679 
		433.443,831.439 433.443,831.198 432.963,830.719 432.963,830.479 433.204,829.998 433.443,829.279 433.683,829.039 
		433.683,828.799 433.923,828.318 433.923,828.078 433.683,827.839 433.683,827.599 433.204,827.119 432.724,826.158 
		432.483,825.919 432.483,825.198 432.003,824.238 431.764,823.998 432.003,823.758 432.244,823.278 432.244,823.038 
		432.003,822.798 431.764,822.318 431.764,821.838 431.764,820.878 432.003,820.157 432.003,819.918 432.244,819.438 
		432.003,819.198 431.764,818.957 431.524,818.957 431.524,818.478 431.764,817.998 432.003,817.757 432.003,817.518 
		432.003,817.277 431.764,817.038 431.044,816.558 430.804,816.558 430.084,815.838 429.364,814.877 428.884,814.637 
		428.644,814.397 428.644,814.157 428.644,813.917 428.884,813.197 429.124,813.197 429.124,812.957 429.124,812.717 
		429.124,812.478 428.884,812.236 428.644,811.997 428.404,811.997 427.924,811.757 427.924,811.518 425.765,809.117 
		425.525,808.156 425.285,807.916 424.325,807.196 424.085,806.717 423.845,806.717 423.845,806.236 423.845,805.756 
		423.845,804.797 423.845,803.597 423.845,803.356 424.085,803.356 424.325,802.876 424.805,801.676 424.805,801.436 
		424.325,799.516 423.845,798.795 423.845,798.315 423.605,797.835 423.845,797.355 424.085,797.115 424.085,796.636 
		424.085,796.396 423.845,796.396 423.365,795.915 423.125,795.676 422.405,794.955 422.166,794.955 422.166,794.715 
		422.166,794.476 422.646,793.755 423.125,793.275 423.365,792.795 423.365,792.556 423.125,792.314 423.125,792.074 
		423.125,790.875 423.365,790.635 423.365,790.155 423.365,789.915 423.365,789.675 423.365,789.435 423.125,788.475 
		422.885,787.754 422.646,787.515 422.405,787.274 422.405,787.034 422.166,786.555 422.166,786.314 422.405,786.314 
		422.646,785.835 422.646,785.594 422.646,784.874 422.405,784.394 422.405,784.154 422.405,783.914 422.646,783.674 
		422.885,783.435 423.125,782.234 423.845,781.514 423.845,781.273 423.845,781.033 423.845,780.554 423.605,780.554 
		423.605,780.313 423.365,780.073 423.125,779.594 423.125,779.354 423.365,779.114 424.805,779.114 425.045,779.114 
		425.285,779.114 425.525,779.114 425.765,778.873 426.005,778.634 426.005,778.153 426.245,777.434 426.005,776.953 
		425.765,776.714 425.765,776.473 426.245,776.233 426.964,775.754 427.205,775.514 427.205,774.793 427.444,774.553 
		428.164,774.073 428.884,773.113 429.124,773.113 429.844,772.633 429.844,772.394 429.364,771.913 428.884,770.232 
		428.884,769.993 429.124,769.752 429.364,769.513 430.324,769.272 430.804,769.033 431.044,768.793 431.284,768.313 
		431.284,768.072 431.284,767.832 430.804,767.353 430.804,766.873 431.044,766.152 431.044,765.432 431.044,765.192 
		431.284,764.712 431.524,763.992 431.764,763.752 432.724,762.792 432.963,762.312 432.724,761.832 432.963,761.352 
		432.963,761.111 432.963,760.872 432.963,760.632 432.724,760.632 432.724,760.392 432.483,760.392 432.483,759.912 
		432.724,759.432 432.724,759.191 432.724,758.952 432.724,758.711 432.483,758.231 432.244,757.752 432.483,756.791 
		432.724,756.312 432.483,756.071 432.724,755.592 432.963,754.871 432.963,754.391 432.724,754.151 432.724,753.911 
		432.963,752.951 433.204,752.711 433.683,752.471 433.683,752.231 433.683,751.751 433.443,751.031 432.963,749.351 
		432.724,748.391 432.244,746.95 432.003,746.23 432.003,745.75 432.244,745.511 432.483,745.27 433.443,744.551 433.683,744.551 
		433.923,744.311 435.363,742.63 435.363,742.39 435.843,741.67 436.323,741.189 437.763,739.75 438.002,739.27 438.482,739.029 
		439.922,738.549 442.562,737.59 443.282,737.35 443.521,736.869 443.521,736.629 443.521,736.39 443.521,736.149 443.282,735.909 
		443.282,735.669 443.521,735.43 443.521,735.189 443.761,735.189 443.761,734.949 444.001,734.709 444.241,734.469 
		444.241,734.229 444.481,734.229 444.961,734.229 445.441,733.989 446.401,733.989 446.641,733.989 447.841,733.749 
		448.081,733.749 448.321,733.509 448.561,733.029 448.561,732.549 448.561,732.309 448.561,732.068 448.8,731.828 449.521,731.349 
		449.76,730.389 449.76,730.148 449.76,729.909 450.24,729.909 450.48,729.669 450.72,729.669 450.72,729.429 450.96,729.429 
		450.96,729.188 451.2,728.709 451.68,728.709 452.16,728.469 452.4,728.229 452.4,727.988 452.4,727.748 452.16,727.508 
		452.16,727.269 450.96,726.309 450,725.828 448.8,724.628 447.361,722.708 446.881,722.468 445.681,721.988 444.961,721.508 
		444.721,721.508 440.882,719.827 439.682,719.588 439.442,719.348 438.722,718.627 438.722,718.387 438.722,717.427 
		438.962,716.228 439.922,715.507 440.642,714.787 440.882,714.547 441.122,714.307 441.362,714.307 441.362,714.066 
		441.602,713.827 441.602,713.347 441.602,713.106 441.602,712.627 442.082,712.387 442.082,712.146 442.082,711.906 
		442.082,711.427 442.082,711.187 442.082,710.706 442.082,710.467 442.082,709.986 442.322,709.986 442.322,709.506 
		442.322,709.026 442.082,708.547 441.842,708.307 442.082,707.586 442.082,706.866 443.042,706.386 444.001,705.427 
		444.001,705.186 443.521,703.746 443.042,702.546 441.602,702.306 440.402,701.586 440.402,701.105 439.922,699.905 
		439.922,699.665 439.922,699.426 439.922,698.945 440.162,698.465 440.402,697.985 440.402,697.745 440.402,697.265 
		440.402,697.025 440.402,696.545 440.162,696.064 440.162,695.825 439.922,695.346 439.922,695.105 439.922,694.625 
		439.922,694.145 439.682,693.665 439.682,693.186 439.682,692.944 439.682,692.705 439.682,692.465 439.442,692.225 
		438.962,691.265 438.722,691.265 438.243,691.024 438.002,690.544 437.763,690.305 437.522,689.824 437.283,689.344 
		437.283,689.104 437.283,688.864 437.283,688.625 435.843,687.185 435.603,687.185 433.204,684.544 432.003,683.584 
		431.044,681.664 430.804,681.424 430.564,680.464 430.324,680.224 430.324,679.504 430.324,679.264 430.324,678.303 
		430.084,678.063 429.844,678.063 429.844,677.823 429.604,677.823 429.604,677.344 429.364,677.103 429.364,676.863 
		429.604,676.623 429.604,676.383 429.844,676.144 429.844,675.903 429.604,675.903 429.364,675.663 429.124,675.423 
		428.644,675.184 428.404,674.703 428.404,674.463 428.404,674.223 428.644,673.743 428.884,673.263 429.364,672.783 
		429.604,672.543 428.884,670.863 427.924,669.662 427.685,669.423 426.964,668.942 426.725,668.942 426.484,668.702 
		426.484,668.463 426.245,667.742 425.525,664.622 425.525,664.382 425.765,663.902 425.765,663.662 425.765,663.422 
		426.005,662.941 426.005,662.462 426.005,662.222 426.005,661.742 426.005,661.502 425.765,661.502 425.765,661.262 
		425.525,660.781 425.285,660.781 425.045,660.541 424.565,660.062 424.085,659.581 423.845,659.102 423.605,658.141 
		423.845,657.661 424.085,656.941 424.085,656.701 424.325,656.461 424.565,656.222 424.565,655.981 424.565,655.501 
		424.325,655.261 423.605,654.781 423.365,654.301 422.885,654.061 422.405,653.581 422.166,653.581 422.166,653.341 
		420.966,652.141 420.726,651.66 420.246,650.94 420.246,650.701 420.246,650.221 420.246,649.261 420.246,648.541 420.486,648.541 
		420.726,648.06 420.726,647.82 421.206,647.34 421.446,647.1 421.446,646.86 421.446,646.62 421.206,646.38 421.206,646.14 
		421.206,645.9 421.206,645.66 420.966,645.42 420.726,645.42 420.486,645.42 420.246,645.42 419.766,645.18 419.526,645.18 
		419.286,645.18 419.286,644.94 419.046,644.94 419.046,644.7 418.806,644.7 418.566,644.22 418.566,643.98 418.326,643.74 
		418.326,643.02 418.566,643.02 418.566,642.78 418.326,642.54 418.326,642.3 418.326,642.06 418.326,641.82 418.326,641.339 
		418.086,641.339 418.086,640.14 418.086,639.899 417.846,638.699 417.606,636.779 417.126,635.099 416.407,630.539 
		416.407,629.338 415.687,625.018 415.446,624.538 414.247,616.857 414.247,615.897 413.287,609.656 412.807,606.536 
		412.567,605.816 412.567,604.856 412.087,601.976 411.127,595.255 410.647,592.615 410.408,590.935 409.928,587.574 
		408.728,579.653 407.768,573.893 407.528,571.732 406.568,565.012 406.329,564.292 406.088,563.092 405.368,557.331 
		404.168,550.61 404.168,549.89 404.168,549.65 403.449,544.61 403.209,543.649 402.489,538.609 402.249,537.889 401.529,533.568 
		401.289,531.168 401.049,529.728 401.049,529.248 400.089,523.248 399.85,521.327 399.609,520.127 399.609,519.887 
		399.129,517.487 399.129,516.527 398.89,514.606 398.65,514.126 397.93,509.326 397.69,507.886 397.45,505.966 397.45,505.726 
		397.45,505.006 396.97,502.125 396.49,499.485 396.49,498.765 395.05,490.124 395.05,489.644 394.331,485.083 394.331,484.844 
		394.331,484.604 393.611,480.523 392.891,475.002 392.651,473.803 391.931,469.242 391.931,469.002 391.691,467.562 
		391.451,465.162 391.211,464.202 390.491,459.641 390.491,458.441 390.251,457.001 389.051,450.04 389.051,449.56 388.812,447.88 
		388.571,447.4 388.332,445 388.092,444.279 387.612,441.159 387.372,439.239 387.132,436.839 386.892,436.599 386.172,431.798 
		385.932,430.118 384.732,423.397 384.013,418.837 384.013,418.597 383.772,417.157 383.533,415.957 383.292,414.997 
		383.053,412.596 382.813,411.636 382.573,410.916 382.333,409.236 381.373,402.755 380.653,397.715 	"/>
</g>
</svg>
