  0
SECTION
  2
HEADER
  9
$ACADVER
  1
AC1014
  9
$ACADMAINTVER
 70
     9
  9
$DWGCODEPAGE
  3
ANSI_1252
  9
$INSBASE
 10
0.0
 20
0.0
 30
0.0
  9
$EXTMIN
 10
1.000000000000000E+20
 20
1.000000000000000E+20
 30
1.000000000000000E+20
  9
$EXTMAX
 10
-1.000000000000000E+20
 20
-1.000000000000000E+20
 30
-1.000000000000000E+20
  9
$LIMMIN
 10
0.0
 20
0.0
  9
$LIMMAX
 10
12.0
 20
9.0
  9
$ORTHOMODE
 70
     0
  9
$REGENMODE
 70
     1
  9
$FILLMODE
 70
     1
  9
$QTEXTMODE
 70
     0
  9
$MIRRTEXT
 70
     1
  9
$DRAGMODE
 70
     2
  9
$LTSCALE
 40
1.0
  9
$OSMODE
 70
    37
  9
$ATTMODE
 70
     1
  9
$TEXTSIZE
 40
0.2
  9
$TRACEWID
 40
0.05
  9
$TEXTSTYLE
  7
STANDARD
  9
$CLAYER
  8
0
  9
$CELTYPE
  6
BYLAYER
  9
$CECOLOR
 62
   256
  9
$CELTSCALE
 40
1.0
  9
$DELOBJ
 70
     1
  9
$DISPSILH
 70
     0
  9
$DIMSCALE
 40
1.0
  9
$DIMASZ
 40
0.18
  9
$DIMEXO
 40
0.0625
  9
$DIMDLI
 40
0.38
  9
$DIMRND
 40
0.0
  9
$DIMDLE
 40
0.0
  9
$DIMEXE
 40
0.18
  9
$DIMTP
 40
0.0
  9
$DIMTM
 40
0.0
  9
$DIMTXT
 40
0.18
  9
$DIMCEN
 40
0.09
  9
$DIMTSZ
 40
0.0
  9
$DIMTOL
 70
     0
  9
$DIMLIM
 70
     0
  9
$DIMTIH
 70
     1
  9
$DIMTOH
 70
     1
  9
$DIMSE1
 70
     0
  9
$DIMSE2
 70
     0
  9
$DIMTAD
 70
     0
  9
$DIMZIN
 70
     0
  9
$DIMBLK
  1

  9
$DIMASO
 70
     1
  9
$DIMSHO
 70
     1
  9
$DIMPOST
  1

  9
$DIMAPOST
  1

  9
$DIMALT
 70
     0
  9
$DIMALTD
 70
     2
  9
$DIMALTF
 40
25.4
  9
$DIMLFAC
 40
1.0
  9
$DIMTOFL
 70
     0
  9
$DIMTVP
 40
0.0
  9
$DIMTIX
 70
     0
  9
$DIMSOXD
 70
     0
  9
$DIMSAH
 70
     0
  9
$DIMBLK1
  1

  9
$DIMBLK2
  1

  9
$DIMSTYLE
  2
STANDARD
  9
$DIMCLRD
 70
     0
  9
$DIMCLRE
 70
     0
  9
$DIMCLRT
 70
     0
  9
$DIMTFAC
 40
1.0
  9
$DIMGAP
 40
0.09
  9
$DIMJUST
 70
     0
  9
$DIMSD1
 70
     0
  9
$DIMSD2
 70
     0
  9
$DIMTOLJ
 70
     1
  9
$DIMTZIN
 70
     0
  9
$DIMALTZ
 70
     0
  9
$DIMALTTZ
 70
     0
  9
$DIMFIT
 70
     3
  9
$DIMUPT
 70
     0
  9
$DIMUNIT
 70
     2
  9
$DIMDEC
 70
     4
  9
$DIMTDEC
 70
     4
  9
$DIMALTU
 70
     2
  9
$DIMALTTD
 70
     2
  9
$DIMTXSTY
  7
STANDARD
  9
$DIMAUNIT
 70
     0
  9
$LUNITS
 70
     2
  9
$LUPREC
 70
     4
  9
$SKETCHINC
 40
0.1
  9
$FILLETRAD
 40
0.5
  9
$AUNITS
 70
     0
  9
$AUPREC
 70
     0
  9
$MENU
  1
.
  9
$ELEVATION
 40
0.0
  9
$PELEVATION
 40
0.0
  9
$THICKNESS
 40
0.0
  9
$LIMCHECK
 70
     0
  9
$CHAMFERA
 40
0.5
  9
$CHAMFERB
 40
0.5
  9
$CHAMFERC
 40
1.0
  9
$CHAMFERD
 40
0.0
  9
$SKPOLY
 70
     0
  9
$TDCREATE
 40
2457213.895868981
  9
$TDUPDATE
 40
2457213.895868993
  9
$TDINDWG
 40
0.0000000116
  9
$TDUSRTIMER
 40
0.0000000116
  9
$USRTIMER
 70
     1
  9
$ANGBASE
 50
0.0
  9
$ANGDIR
 70
     0
  9
$PDMODE
 70
     0
  9
$PDSIZE
 40
0.0
  9
$PLINEWID
 40
0.0
  9
$COORDS
 70
     1
  9
$SPLFRAME
 70
     0
  9
$SPLINETYPE
 70
     6
  9
$SPLINESEGS
 70
     8
  9
$ATTDIA
 70
     0
  9
$ATTREQ
 70
     1
  9
$HANDLING
 70
     1
  9
$HANDSEED
  5
4E7
  9
$SURFTAB1
 70
     6
  9
$SURFTAB2
 70
     6
  9
$SURFTYPE
 70
     6
  9
$SURFU
 70
     6
  9
$SURFV
 70
     6
  9
$UCSNAME
  2

  9
$UCSORG
 10
0.0
 20
0.0
 30
0.0
  9
$UCSXDIR
 10
1.0
 20
0.0
 30
0.0
  9
$UCSYDIR
 10
0.0
 20
1.0
 30
0.0
  9
$PUCSNAME
  2

  9
$PUCSORG
 10
0.0
 20
0.0
 30
0.0
  9
$PUCSXDIR
 10
1.0
 20
0.0
 30
0.0
  9
$PUCSYDIR
 10
0.0
 20
1.0
 30
0.0
  9
$USERI1
 70
     0
  9
$USERI2
 70
     0
  9
$USERI3
 70
     0
  9
$USERI4
 70
     0
  9
$USERI5
 70
     0
  9
$USERR1
 40
0.0
  9
$USERR2
 40
0.0
  9
$USERR3
 40
0.0
  9
$USERR4
 40
0.0
  9
$USERR5
 40
0.0
  9
$WORLDVIEW
 70
     1
  9
$SHADEDGE
 70
     3
  9
$SHADEDIF
 70
    70
  9
$TILEMODE
 70
     1
  9
$MAXACTVP
 70
    64
  9
$PINSBASE
 10
0.0
 20
0.0
 30
0.0
  9
$PLIMCHECK
 70
     0
  9
$PEXTMIN
 10
1.000000000000000E+20
 20
1.000000000000000E+20
 30
1.000000000000000E+20
  9
$PEXTMAX
 10
-1.000000000000000E+20
 20
-1.000000000000000E+20
 30
-1.000000000000000E+20
  9
$PLIMMIN
 10
0.0
 20
0.0
  9
$PLIMMAX
 10
12.0
 20
9.0
  9
$UNITMODE
 70
     0
  9
$VISRETAIN
 70
     1
  9
$PLINEGEN
 70
     0
  9
$PSLTSCALE
 70
     1
  9
$TREEDEPTH
 70
  3020
  9
$PICKSTYLE
 70
     1
  9
$CMLSTYLE
  2
STANDARD
  9
$CMLJUST
 70
     0
  9
$CMLSCALE
 40
1.0
  9
$PROXYGRAPHICS
 70
     1
  9
$MEASUREMENT
 70
     0
  0
ENDSEC
  0
SECTION
  2
CLASSES
  0
CLASS
  1
ACDBDICTIONARYWDFLT
  2
AcDbDictionaryWithDefault
  3
ObjectDBX Classes
 90
        0
280
     0
281
     0
  0
CLASS
  1
VISUALSTYLE
  2
AcDbVisualStyle
  3
ObjectDBX Classes
 90
     4095
280
     0
281
     0
  0
CLASS
  1
XRECORD
  2
AcDbXrecord
  3
AutoCAD 2000
 90
        0
280
     0
281
     0
  0
CLASS
  1
LWPOLYLINE
  2
AcDbPolyline
  3
AutoCAD 2000
 90
        0
280
     0
281
     1
  0
CLASS
  1
HATCH
  2
AcDbHatch
  3
AutoCAD 2000
 90
        0
280
     0
281
     1
  0
CLASS
  1
ACDBPLACEHOLDER
  2
AcDbPlaceHolder
  3
ObjectDBX Classes
 90
        0
280
     0
281
     0
  0
CLASS
  1
LAYOUT
  2
AcDbLayout
  3
ObjectDBX Classes
 90
        0
280
     0
281
     0
  0
ENDSEC
  0
SECTION
  2
TABLES
  0
TABLE
  2
VPORT
  5
8
330
0
100
AcDbSymbolTable
 70
     1
  0
VPORT
  5
29
330
8
100
AcDbSymbolTableRecord
100
AcDbViewportTableRecord
  2
*ACTIVE
 70
     0
 10
0.0
 20
0.0
 11
1.0
 21
1.0
 12
0.0
 22
0.0
 13
0.0
 23
0.0
 14
0.5
 24
0.5
 15
0.5
 25
0.5
 16
0.0
 26
0.0
 36
1.0
 17
5.493055555555555
 27
4.256944444444444
 37
0.0
 40
18.0
 41
1.0
 42
50.0
 43
0.0
 44
0.0
 50
0.0
 51
0.0
 71
     0
 72
   100
 73
     1
 74
     3
 75
     0
 76
     0
 77
     0
 78
     0
  0
ENDTAB
  0
TABLE
  2
LTYPE
  5
5
330
0
100
AcDbSymbolTable
 70
     1
  0
LTYPE
  5
14
330
5
100
AcDbSymbolTableRecord
100
AcDbLinetypeTableRecord
  2
BYBLOCK
 70
     0
  3

 72
    65
 73
     0
 40
0.0
  0
LTYPE
  5
15
330
5
100
AcDbSymbolTableRecord
100
AcDbLinetypeTableRecord
  2
BYLAYER
 70
     0
  3

 72
    65
 73
     0
 40
0.0
  0
LTYPE
  5
16
330
5
100
AcDbSymbolTableRecord
100
AcDbLinetypeTableRecord
  2
CONTINUOUS
 70
     0
  3
Solid line
 72
    65
 73
     0
 40
0.0
  0
ENDTAB
  0
TABLE
  2
LAYER
  5
2
330
0
100
AcDbSymbolTable
 70
     2
  0
LAYER
  5
10
330
2
100
AcDbSymbolTableRecord
100
AcDbLayerTableRecord
  2
0
 70
     0
 62
     7
  6
CONTINUOUS
  0
LAYER
  5
3B
330
2
100
AcDbSymbolTableRecord
100
AcDbLayerTableRecord
  2
STATE
 70
     0
 62
     7
  6
CONTINUOUS
  0
ENDTAB
  0
TABLE
  2
STYLE
  5
3
330
0
100
AcDbSymbolTable
 70
     1
  0
STYLE
  5
11
330
3
100
AcDbSymbolTableRecord
100
AcDbTextStyleTableRecord
  2
STANDARD
 70
     0
 40
0.0
 41
1.0
 50
0.0
 71
     0
 42
0.2
  3
txt
  4

  0
ENDTAB
  0
TABLE
  2
VIEW
  5
6
330
0
100
AcDbSymbolTable
 70
     0
  0
ENDTAB
  0
TABLE
  2
UCS
  5
7
330
0
100
AcDbSymbolTable
 70
     0
  0
ENDTAB
  0
TABLE
  2
APPID
  5
9
330
0
100
AcDbSymbolTable
 70
     1
  0
APPID
  5
12
330
9
100
AcDbSymbolTableRecord
100
AcDbRegAppTableRecord
  2
ACAD
 70
     0
  0
ENDTAB
  0
TABLE
  2
DIMSTYLE
  5
A
330
0
100
AcDbSymbolTable
 70
     1
  0
DIMSTYLE
105
27
330
A
100
AcDbSymbolTableRecord
100
AcDbDimStyleTableRecord
  2
STANDARD
 70
     0
  3

  4

  5

  6

  7

 40
1.0
 41
0.18
 42
0.0625
 43
0.38
 44
0.18
 45
0.0
 46
0.0
 47
0.0
 48
0.0
140
0.18
141
0.09
142
0.0
143
25.4
144
1.0
145
0.0
146
1.0
147
0.09
 71
     0
 72
     0
 73
     1
 74
     1
 75
     0
 76
     0
 77
     0
 78
     0
170
     0
171
     2
172
     0
173
     0
174
     0
175
     0
176
     0
177
     0
178
     0
270
     2
271
     4
272
     4
273
     2
274
     2
340
11
275
     0
280
     0
281
     0
282
     0
283
     1
284
     0
285
     0
286
     0
287
     3
288
     0
  0
ENDTAB
  0
TABLE
  2
BLOCK_RECORD
  5
1
330
0
100
AcDbSymbolTable
 70
     2
  0
BLOCK_RECORD
  5
1F
330
1
100
AcDbSymbolTableRecord
100
AcDbBlockTableRecord
  2
*MODEL_SPACE
  0
BLOCK_RECORD
  5
1B
330
1
100
AcDbSymbolTableRecord
100
AcDbBlockTableRecord
  2
*PAPER_SPACE
  0
BLOCK_RECORD
  5
3C
330
1
100
AcDbSymbolTableRecord
100
AcDbBlockTableRecord
  2
BLOCK_2
  0
ENDTAB
  0
ENDSEC
  0
SECTION
  2
BLOCKS
  0
BLOCK
  5
20
330
1F
100
AcDbEntity
  8
0
100
AcDbBlockBegin
  2
*MODEL_SPACE
 70
     0
 71
     0
 10
0.0
 20
0.0
 30
0.0
  3
*MODEL_SPACE
  1

  0
ENDBLK
  5
21
330
1F
100
AcDbEntity
  8
0
100
AcDbBlockEnd
  0
BLOCK
  5
1C
330
1B
100
AcDbEntity
 67
     1
  8
0
100
AcDbBlockBegin
  2
*PAPER_SPACE
 70
     0
 71
     0
 10
0.0
 20
0.0
 30
0.0
  3
*PAPER_SPACE
  1

  0
ENDBLK
  5
1D
330
1B
100
AcDbEntity
 67
     1
  8
0
100
AcDbBlockEnd
  0
BLOCK
  5
3E
330
3C
100
AcDbEntity
  8
0
100
AcDbBlockBegin
  2
BLOCK_2
 70
     0
 71
     0
 10
0.0
 20
0.0
 30
0.0
  3
BLOCK_2
  1

  0
POLYLINE
  5
40
330
3C
100
AcDbEntity
  8
STATE
 62
     2
100
AcDb2dPolyline
 66
     1
 10
0.0
 20
0.0
 30
0.0
  0
VERTEX
  5
41
330
40
100
AcDbEntity
  8
STATE
 62
     2
100
AcDbVertex
100
AcDb2dVertex
 10
7.183295355902778
 20
5.172817654079861
 30
0.0
  0
VERTEX
  5
42
330
40
100
AcDbEntity
  8
STATE
 62
     2
100
AcDbVertex
100
AcDb2dVertex
 10
7.196641710069444
 20
5.159478081597222
 30
0.0
  0
VERTEX
  5
43
330
40
100
AcDbEntity
  8
STATE
 62
     2
100
AcDbVertex
100
AcDb2dVertex
 10
7.229966905381944
 20
5.149481879340278
 30
0.0
  0
VERTEX
  5
44
330
40
100
AcDbEntity
  8
STATE
 62
     2
100
AcDbVertex
100
AcDb2dVertex
 10
7.2532958984375
 20
5.129475911458333
 30
0.0
  0
VERTEX
  5
45
330
40
100
AcDbEntity
  8
STATE
 62
     2
100
AcDbVertex
100
AcDb2dVertex
 10
7.259969075520833
 20
5.129475911458333
 30
0.0
  0
VERTEX
  5
46
330
40
100
AcDbEntity
  8
STATE
 62
     2
100
AcDbVertex
100
AcDb2dVertex
 10
7.296630859375
 20
5.056131998697916
 30
0.0
  0
VERTEX
  5
47
330
40
100
AcDbEntity
  8
STATE
 62
     2
100
AcDbVertex
100
AcDb2dVertex
 10
7.313300238715278
 20
5.029459635416666
 30
0.0
  0
VERTEX
  5
48
330
40
100
AcDbEntity
  8
STATE
 62
     2
100
AcDbVertex
100
AcDb2dVertex
 10
7.326633029513888
 20
5.022793240017361
 30
0.0
  0
VERTEX
  5
49
330
40
100
AcDbEntity
  8
STATE
 62
     2
100
AcDbVertex
100
AcDb2dVertex
 10
7.3299560546875
 20
4.999457465277778
 30
0.0
  0
VERTEX
  5
4A
330
40
100
AcDbEntity
  8
STATE
 62
     2
100
AcDbVertex
100
AcDb2dVertex
 10
7.333306206597221
 20
4.996120876736111
 30
0.0
  0
VERTEX
  5
4B
330
40
100
AcDbEntity
  8
STATE
 62
     2
100
AcDbVertex
100
AcDb2dVertex
 10
7.349962022569444
 20
4.989454481336805
 30
0.0
  0
VERTEX
  5
4C
330
40
100
AcDbEntity
  8
STATE
 62
     2
100
AcDbVertex
100
AcDb2dVertex
 10
7.356635199652778
 20
4.976121690538194
 30
0.0
  0
VERTEX
  5
4D
330
40
100
AcDbEntity
  8
STATE
 62
     2
100
AcDbVertex
100
AcDb2dVertex
 10
7.359971788194444
 20
4.962782118055555
 30
0.0
  0
VERTEX
  5
4E
330
40
100
AcDbEntity
  8
STATE
 62
     2
100
AcDbVertex
100
AcDb2dVertex
 10
7.359971788194444
 20
4.959452311197916
 30
0.0
  0
VERTEX
  5
4F
330
40
100
AcDbEntity
  8
STATE
 62
     2
100
AcDbVertex
100
AcDb2dVertex
 10
7.363294813368055
 20
4.952785915798611
 30
0.0
  0
VERTEX
  5
50
330
40
100
AcDbEntity
  8
STATE
 62
     2
100
AcDbVertex
100
AcDb2dVertex
 10
7.369967990451388
 20
4.942782931857638
 30
0.0
  0
VERTEX
  5
51
330
40
100
AcDbEntity
  8
STATE
 62
     2
100
AcDbVertex
100
AcDb2dVertex
 10
7.379964192708333
 20
4.926113552517361
 30
0.0
  0
VERTEX
  5
52
330
40
100
AcDbEntity
  8
STATE
 62
     2
100
AcDbVertex
100
AcDb2dVertex
 10
7.38330078125
 20
4.916110568576388
 30
0.0
  0
VERTEX
  5
53
330
40
100
AcDbEntity
  8
STATE
 62
     2
100
AcDbVertex
100
AcDb2dVertex
 10
7.396633572048611
 20
4.909444173177083
 30
0.0
  0
VERTEX
  5
54
330
40
100
AcDbEntity
  8
STATE
 62
     2
100
AcDbVertex
100
AcDb2dVertex
 10
7.403293185763888
 20
4.912773980034722
 30
0.0
  0
VERTEX
  5
55
330
40
100
AcDbEntity
  8
STATE
 62
     2
100
AcDbVertex
100
AcDb2dVertex
 10
7.419962565104166
 20
4.919447157118055
 30
0.0
  0
VERTEX
  5
56
330
40
100
AcDbEntity
  8
STATE
 62
     2
100
AcDbVertex
100
AcDb2dVertex
 10
7.443305121527778
 20
4.926113552517361
 30
0.0
  0
VERTEX
  5
57
330
40
100
AcDbEntity
  8
STATE
 62
     2
100
AcDbVertex
100
AcDb2dVertex
 10
7.493299696180555
 20
4.946112738715278
 30
0.0
  0
VERTEX
  5
58
330
40
100
AcDbEntity
  8
STATE
 62
     2
100
AcDbVertex
100
AcDb2dVertex
 10
7.543294270833333
 20
4.95611572265625
 30
0.0
  0
VERTEX
  5
59
330
40
100
AcDbEntity
  8
STATE
 62
     2
100
AcDbVertex
100
AcDb2dVertex
 10
7.563300238715278
 20
4.962782118055555
 30
0.0
  0
VERTEX
  5
5A
330
40
100
AcDbEntity
  8
STATE
 62
     2
100
AcDbVertex
100
AcDb2dVertex
 10
7.583306206597221
 20
4.976121690538194
 30
0.0
  0
VERTEX
  5
5B
330
40
100
AcDbEntity
  8
STATE
 62
     2
100
AcDbVertex
100
AcDb2dVertex
 10
7.5899658203125
 20
4.986124674479166
 30
0.0
  0
VERTEX
  5
5C
330
40
100
AcDbEntity
  8
STATE
 62
     2
100
AcDbVertex
100
AcDb2dVertex
 10
7.599962022569444
 20
4.992791069878472
 30
0.0
  0
VERTEX
  5
5D
330
40
100
AcDbEntity
  8
STATE
 62
     2
100
AcDbVertex
100
AcDb2dVertex
 10
7.623291015625
 20
5.006123860677083
 30
0.0
  0
VERTEX
  5
5E
330
40
100
AcDbEntity
  8
STATE
 62
     2
100
AcDbVertex
100
AcDb2dVertex
 10
7.636637369791666
 20
5.006123860677083
 30
0.0
  0
VERTEX
  5
5F
330
40
100
AcDbEntity
  8
STATE
 62
     2
100
AcDbVertex
100
AcDb2dVertex
 10
7.643296983506944
 20
4.999457465277778
 30
0.0
  0
VERTEX
  5
60
330
40
100
AcDbEntity
  8
STATE
 62
     2
100
AcDbVertex
100
AcDb2dVertex
 10
7.646633572048611
 20
5.002794053819444
 30
0.0
  0
VERTEX
  5
61
330
40
100
AcDbEntity
  8
STATE
 62
     2
100
AcDbVertex
100
AcDb2dVertex
 10
7.649956597222221
 20
5.002794053819444
 30
0.0
  0
VERTEX
  5
62
330
40
100
AcDbEntity
  8
STATE
 62
     2
100
AcDbVertex
100
AcDb2dVertex
 10
7.663289388020833
 20
5.016126844618055
 30
0.0
  0
VERTEX
  5
63
330
40
100
AcDbEntity
  8
STATE
 62
     2
100
AcDbVertex
100
AcDb2dVertex
 10
7.676622178819444
 20
5.022793240017361
 30
0.0
  0
VERTEX
  5
64
330
40
100
AcDbEntity
  8
STATE
 62
     2
100
AcDbVertex
100
AcDb2dVertex
 10
7.7099609375
 20
5.00946044921875
 30
0.0
  0
VERTEX
  5
65
330
40
100
AcDbEntity
  8
STATE
 62
     2
100
AcDbVertex
100
AcDb2dVertex
 10
7.749972873263888
 20
5.019463433159722
 30
0.0
  0
VERTEX
  5
66
330
40
100
AcDbEntity
  8
STATE
 62
     2
100
AcDbVertex
100
AcDb2dVertex
 10
7.769965277777778
 20
4.999457465277778
 30
0.0
  0
VERTEX
  5
67
330
40
100
AcDbEntity
  8
STATE
 62
     2
100
AcDbVertex
100
AcDb2dVertex
 10
7.793294270833333
 20
5.006123860677083
 30
0.0
  0
VERTEX
  5
68
330
40
100
AcDbEntity
  8
STATE
 62
     2
100
AcDbVertex
100
AcDb2dVertex
 10
7.799967447916666
 20
5.006123860677083
 30
0.0
  0
VERTEX
  5
69
330
40
100
AcDbEntity
  8
STATE
 62
     2
100
AcDbVertex
100
AcDb2dVertex
 10
7.8299560546875
 20
4.999457465277778
 30
0.0
  0
VERTEX
  5
6A
330
40
100
AcDbEntity
  8
STATE
 62
     2
100
AcDbVertex
100
AcDb2dVertex
 10
7.853298611111111
 20
4.989454481336805
 30
0.0
  0
VERTEX
  5
6B
330
40
100
AcDbEntity
  8
STATE
 62
     2
100
AcDbVertex
100
AcDb2dVertex
 10
7.853298611111111
 20
4.959452311197916
 30
0.0
  0
VERTEX
  5
6C
330
40
100
AcDbEntity
  8
STATE
 62
     2
100
AcDbVertex
100
AcDb2dVertex
 10
7.859971788194444
 20
4.959452311197916
 30
0.0
  0
VERTEX
  5
6D
330
40
100
AcDbEntity
  8
STATE
 62
     2
100
AcDbVertex
100
AcDb2dVertex
 10
7.869954427083333
 20
4.962782118055555
 30
0.0
  0
VERTEX
  5
6E
330
40
100
AcDbEntity
  8
STATE
 62
     2
100
AcDbVertex
100
AcDb2dVertex
 10
7.876627604166666
 20
4.959452311197916
 30
0.0
  0
VERTEX
  5
6F
330
40
100
AcDbEntity
  8
STATE
 62
     2
100
AcDbVertex
100
AcDb2dVertex
 10
7.879964192708333
 20
4.939446343315972
 30
0.0
  0
VERTEX
  5
70
330
40
100
AcDbEntity
  8
STATE
 62
     2
100
AcDbVertex
100
AcDb2dVertex
 10
7.9166259765625
 20
4.912773980034722
 30
0.0
  0
VERTEX
  5
71
330
40
100
AcDbEntity
  8
STATE
 62
     2
100
AcDbVertex
100
AcDb2dVertex
 10
7.963297526041666
 20
4.879435221354166
 30
0.0
  0
VERTEX
  5
72
330
40
100
AcDbEntity
  8
STATE
 62
     2
100
AcDbVertex
100
AcDb2dVertex
 10
7.966634114583333
 20
4.876105414496528
 30
0.0
  0
VERTEX
  5
73
330
40
100
AcDbEntity
  8
STATE
 62
     2
100
AcDbVertex
100
AcDb2dVertex
 10
7.973293728298611
 20
4.85943603515625
 30
0.0
  0
VERTEX
  5
74
330
40
100
AcDbEntity
  8
STATE
 62
     2
100
AcDbVertex
100
AcDb2dVertex
 10
8.039957682291666
 20
4.849433051215278
 30
0.0
  0
VERTEX
  5
75
330
40
100
AcDbEntity
  8
STATE
 62
     2
100
AcDbVertex
100
AcDb2dVertex
 10
8.046630859375
 20
4.822760687934028
 30
0.0
  0
VERTEX
  5
76
330
40
100
AcDbEntity
  8
STATE
 62
     2
100
AcDbVertex
100
AcDb2dVertex
 10
8.069959852430555
 20
4.782755533854166
 30
0.0
  0
VERTEX
  5
77
330
40
100
AcDbEntity
  8
STATE
 62
     2
100
AcDbVertex
100
AcDb2dVertex
 10
8.099962022569445
 20
4.786092122395833
 30
0.0
  0
VERTEX
  5
78
330
40
100
AcDbEntity
  8
STATE
 62
     2
100
AcDbVertex
100
AcDb2dVertex
 10
8.119954427083332
 20
4.792758517795138
 30
0.0
  0
VERTEX
  5
79
330
40
100
AcDbEntity
  8
STATE
 62
     2
100
AcDbVertex
100
AcDb2dVertex
 10
8.176622178819445
 20
4.752753363715278
 30
0.0
  0
VERTEX
  5
7A
330
40
100
AcDbEntity
  8
STATE
 62
     2
100
AcDbVertex
100
AcDb2dVertex
 10
8.176622178819445
 20
4.749416775173611
 30
0.0
  0
VERTEX
  5
7B
330
40
100
AcDbEntity
  8
STATE
 62
     2
100
AcDbVertex
100
AcDb2dVertex
 10
8.226630316840277
 20
4.746086968315972
 30
0.0
  0
VERTEX
  5
7C
330
40
100
AcDbEntity
  8
STATE
 62
     2
100
AcDbVertex
100
AcDb2dVertex
 10
8.28329806857639
 20
4.722744411892361
 30
0.0
  0
VERTEX
  5
7D
330
40
100
AcDbEntity
  8
STATE
 62
     2
100
AcDbVertex
100
AcDb2dVertex
 10
8.28329806857639
 20
4.712748209635416
 30
0.0
  0
VERTEX
  5
7E
330
40
100
AcDbEntity
  8
STATE
 62
     2
100
AcDbVertex
100
AcDb2dVertex
 10
8.28329806857639
 20
4.70941162109375
 30
0.0
  0
VERTEX
  5
7F
330
40
100
AcDbEntity
  8
STATE
 62
     2
100
AcDbVertex
100
AcDb2dVertex
 10
8.313286675347221
 20
4.6827392578125
 30
0.0
  0
VERTEX
  5
80
330
40
100
AcDbEntity
  8
STATE
 62
     2
100
AcDbVertex
100
AcDb2dVertex
 10
8.319959852430555
 20
4.666069878472222
 30
0.0
  0
VERTEX
  5
81
330
40
100
AcDbEntity
  8
STATE
 62
     2
100
AcDbVertex
100
AcDb2dVertex
 10
8.313286675347221
 20
4.649400499131944
 30
0.0
  0
VERTEX
  5
82
330
40
100
AcDbEntity
  8
STATE
 62
     2
100
AcDbVertex
100
AcDb2dVertex
 10
8.31662326388889
 20
4.619398328993055
 30
0.0
  0
VERTEX
  5
83
330
40
100
AcDbEntity
  8
STATE
 62
     2
100
AcDbVertex
100
AcDb2dVertex
 10
8.313286675347221
 20
4.576056586371528
 30
0.0
  0
VERTEX
  5
84
330
40
100
AcDbEntity
  8
STATE
 62
     2
100
AcDbVertex
100
AcDb2dVertex
 10
8.306627061631945
 20
4.55938720703125
 30
0.0
  0
VERTEX
  5
85
330
40
100
AcDbEntity
  8
STATE
 62
     2
100
AcDbVertex
100
AcDb2dVertex
 10
8.28662109375
 20
4.526048448350694
 30
0.0
  0
VERTEX
  5
86
330
40
100
AcDbEntity
  8
STATE
 62
     2
100
AcDbVertex
100
AcDb2dVertex
 10
8.26662868923611
 20
4.502712673611111
 30
0.0
  0
VERTEX
  5
87
330
40
100
AcDbEntity
  8
STATE
 62
     2
100
AcDbVertex
100
AcDb2dVertex
 10
8.2532958984375
 20
4.506049262152778
 30
0.0
  0
VERTEX
  5
88
330
40
100
AcDbEntity
  8
STATE
 62
     2
100
AcDbVertex
100
AcDb2dVertex
 10
8.233289930555555
 20
4.496046278211805
 30
0.0
  0
VERTEX
  5
89
330
40
100
AcDbEntity
  8
STATE
 62
     2
100
AcDbVertex
100
AcDb2dVertex
 10
8.216634114583332
 20
4.476040310329861
 30
0.0
  0
VERTEX
  5
8A
330
40
100
AcDbEntity
  8
STATE
 62
     2
100
AcDbVertex
100
AcDb2dVertex
 10
8.2099609375
 20
4.459370930989583
 30
0.0
  0
VERTEX
  5
8B
330
40
100
AcDbEntity
  8
STATE
 62
     2
100
AcDbVertex
100
AcDb2dVertex
 10
8.193291558159721
 20
4.439371744791666
 30
0.0
  0
VERTEX
  5
8C
330
40
100
AcDbEntity
  8
STATE
 62
     2
100
AcDbVertex
100
AcDb2dVertex
 10
8.17995876736111
 20
4.432705349392361
 30
0.0
  0
VERTEX
  5
8D
330
40
100
AcDbEntity
  8
STATE
 62
     2
100
AcDbVertex
100
AcDb2dVertex
 10
8.139960394965277
 20
4.439371744791666
 30
0.0
  0
VERTEX
  5
8E
330
40
100
AcDbEntity
  8
STATE
 62
     2
100
AcDbVertex
100
AcDb2dVertex
 10
8.123291015625
 20
4.426032172309028
 30
0.0
  0
VERTEX
  5
8F
330
40
100
AcDbEntity
  8
STATE
 62
     2
100
AcDbVertex
100
AcDb2dVertex
 10
8.0899658203125
 20
4.40936279296875
 30
0.0
  0
VERTEX
  5
90
330
40
100
AcDbEntity
  8
STATE
 62
     2
100
AcDbVertex
100
AcDb2dVertex
 10
8.083292643229166
 20
4.406032986111111
 30
0.0
  0
VERTEX
  5
91
330
40
100
AcDbEntity
  8
STATE
 62
     2
100
AcDbVertex
100
AcDb2dVertex
 10
8.06662326388889
 20
4.396030002170138
 30
0.0
  0
VERTEX
  5
92
330
40
100
AcDbEntity
  8
STATE
 62
     2
100
AcDbVertex
100
AcDb2dVertex
 10
8.049967447916666
 20
4.382697211371528
 30
0.0
  0
VERTEX
  5
93
330
40
100
AcDbEntity
  8
STATE
 62
     2
100
AcDbVertex
100
AcDb2dVertex
 10
8.026624891493055
 20
4.376024034288195
 30
0.0
  0
VERTEX
  5
94
330
40
100
AcDbEntity
  8
STATE
 62
     2
100
AcDbVertex
100
AcDb2dVertex
 10
8.02328830295139
 20
4.376024034288195
 30
0.0
  0
VERTEX
  5
95
330
40
100
AcDbEntity
  8
STATE
 62
     2
100
AcDbVertex
100
AcDb2dVertex
 10
8.01662868923611
 20
4.386027018229166
 30
0.0
  0
VERTEX
  5
96
330
40
100
AcDbEntity
  8
STATE
 62
     2
100
AcDbVertex
100
AcDb2dVertex
 10
7.999959309895833
 20
4.386027018229166
 30
0.0
  0
VERTEX
  5
97
330
40
100
AcDbEntity
  8
STATE
 62
     2
100
AcDbVertex
100
AcDb2dVertex
 10
7.973293728298611
 20
4.382697211371528
 30
0.0
  0
VERTEX
  5
98
330
40
100
AcDbEntity
  8
STATE
 62
     2
100
AcDbVertex
100
AcDb2dVertex
 10
7.966634114583333
 20
4.376024034288195
 30
0.0
  0
VERTEX
  5
99
330
40
100
AcDbEntity
  8
STATE
 62
     2
100
AcDbVertex
100
AcDb2dVertex
 10
7.946628146701388
 20
4.386027018229166
 30
0.0
  0
VERTEX
  5
9A
330
40
100
AcDbEntity
  8
STATE
 62
     2
100
AcDbVertex
100
AcDb2dVertex
 10
7.929958767361111
 20
4.389363606770833
 30
0.0
  0
VERTEX
  5
9B
330
40
100
AcDbEntity
  8
STATE
 62
     2
100
AcDbVertex
100
AcDb2dVertex
 10
7.899956597222221
 20
4.382697211371528
 30
0.0
  0
VERTEX
  5
9C
330
40
100
AcDbEntity
  8
STATE
 62
     2
100
AcDbVertex
100
AcDb2dVertex
 10
7.873291015625
 20
4.376024034288195
 30
0.0
  0
VERTEX
  5
9D
330
40
100
AcDbEntity
  8
STATE
 62
     2
100
AcDbVertex
100
AcDb2dVertex
 10
7.869954427083333
 20
4.372694227430555
 30
0.0
  0
VERTEX
  5
9E
330
40
100
AcDbEntity
  8
STATE
 62
     2
100
AcDbVertex
100
AcDb2dVertex
 10
7.849962022569444
 20
4.359354654947916
 30
0.0
  0
VERTEX
  5
9F
330
40
100
AcDbEntity
  8
STATE
 62
     2
100
AcDbVertex
100
AcDb2dVertex
 10
7.843288845486111
 20
4.356024848090278
 30
0.0
  0
VERTEX
  5
A0
330
40
100
AcDbEntity
  8
STATE
 62
     2
100
AcDbVertex
100
AcDb2dVertex
 10
7.8299560546875
 20
4.349358452690972
 30
0.0
  0
VERTEX
  5
A1
330
40
100
AcDbEntity
  8
STATE
 62
     2
100
AcDbVertex
100
AcDb2dVertex
 10
7.806627061631944
 20
4.336018880208333
 30
0.0
  0
VERTEX
  5
A2
330
40
100
AcDbEntity
  8
STATE
 62
     2
100
AcDbVertex
100
AcDb2dVertex
 10
7.793294270833333
 20
4.329352484809028
 30
0.0
  0
VERTEX
  5
A3
330
40
100
AcDbEntity
  8
STATE
 62
     2
100
AcDbVertex
100
AcDb2dVertex
 10
7.763292100694444
 20
4.319349500868055
 30
0.0
  0
VERTEX
  5
A4
330
40
100
AcDbEntity
  8
STATE
 62
     2
100
AcDbVertex
100
AcDb2dVertex
 10
7.759955512152778
 20
4.319349500868055
 30
0.0
  0
VERTEX
  5
A5
330
40
100
AcDbEntity
  8
STATE
 62
     2
100
AcDbVertex
100
AcDb2dVertex
 10
7.7532958984375
 20
4.309353298611111
 30
0.0
  0
VERTEX
  5
A6
330
40
100
AcDbEntity
  8
STATE
 62
     2
100
AcDbVertex
100
AcDb2dVertex
 10
7.743299696180555
 20
4.302680121527778
 30
0.0
  0
VERTEX
  5
A7
330
40
100
AcDbEntity
  8
STATE
 62
     2
100
AcDbVertex
100
AcDb2dVertex
 10
7.726630316840278
 20
4.299350314670138
 30
0.0
  0
VERTEX
  5
A8
330
40
100
AcDbEntity
  8
STATE
 62
     2
100
AcDbVertex
100
AcDb2dVertex
 10
7.723293728298611
 20
4.299350314670138
 30
0.0
  0
VERTEX
  5
A9
330
40
100
AcDbEntity
  8
STATE
 62
     2
100
AcDbVertex
100
AcDb2dVertex
 10
7.706624348958333
 20
4.299350314670138
 30
0.0
  0
VERTEX
  5
AA
330
40
100
AcDbEntity
  8
STATE
 62
     2
100
AcDbVertex
100
AcDb2dVertex
 10
7.703287760416666
 20
4.299350314670138
 30
0.0
  0
VERTEX
  5
AB
330
40
100
AcDbEntity
  8
STATE
 62
     2
100
AcDbVertex
100
AcDb2dVertex
 10
7.696628146701388
 20
4.299350314670138
 30
0.0
  0
VERTEX
  5
AC
330
40
100
AcDbEntity
  8
STATE
 62
     2
100
AcDbVertex
100
AcDb2dVertex
 10
7.686631944444444
 20
4.302680121527778
 30
0.0
  0
VERTEX
  5
AD
330
40
100
AcDbEntity
  8
STATE
 62
     2
100
AcDbVertex
100
AcDb2dVertex
 10
7.63330078125
 20
4.299350314670138
 30
0.0
  0
VERTEX
  5
AE
330
40
100
AcDbEntity
  8
STATE
 62
     2
100
AcDbVertex
100
AcDb2dVertex
 10
7.619954427083333
 20
4.289347330729166
 30
0.0
  0
VERTEX
  5
AF
330
40
100
AcDbEntity
  8
STATE
 62
     2
100
AcDbVertex
100
AcDb2dVertex
 10
7.596625434027778
 20
4.282680935329861
 30
0.0
  0
VERTEX
  5
B0
330
40
100
AcDbEntity
  8
STATE
 62
     2
100
AcDbVertex
100
AcDb2dVertex
 10
7.586629231770833
 20
4.279344346788195
 30
0.0
  0
VERTEX
  5
B1
330
40
100
AcDbEntity
  8
STATE
 62
     2
100
AcDbVertex
100
AcDb2dVertex
 10
7.569959852430555
 20
4.282680935329861
 30
0.0
  0
VERTEX
  5
B2
330
40
100
AcDbEntity
  8
STATE
 62
     2
100
AcDbVertex
100
AcDb2dVertex
 10
7.566623263888888
 20
4.2860107421875
 30
0.0
  0
VERTEX
  5
B3
330
40
100
AcDbEntity
  8
STATE
 62
     2
100
AcDbVertex
100
AcDb2dVertex
 10
7.513292100694444
 20
4.296013726128472
 30
0.0
  0
VERTEX
  5
B4
330
40
100
AcDbEntity
  8
STATE
 62
     2
100
AcDbVertex
100
AcDb2dVertex
 10
7.509955512152778
 20
4.302680121527778
 30
0.0
  0
VERTEX
  5
B5
330
40
100
AcDbEntity
  8
STATE
 62
     2
100
AcDbVertex
100
AcDb2dVertex
 10
7.513292100694444
 20
4.31268310546875
 30
0.0
  0
VERTEX
  5
B6
330
40
100
AcDbEntity
  8
STATE
 62
     2
100
AcDbVertex
100
AcDb2dVertex
 10
7.509955512152778
 20
4.319349500868055
 30
0.0
  0
VERTEX
  5
B7
330
40
100
AcDbEntity
  8
STATE
 62
     2
100
AcDbVertex
100
AcDb2dVertex
 10
7.499972873263888
 20
4.326015896267361
 30
0.0
  0
VERTEX
  5
B8
330
40
100
AcDbEntity
  8
STATE
 62
     2
100
AcDbVertex
100
AcDb2dVertex
 10
7.489963107638888
 20
4.319349500868055
 30
0.0
  0
VERTEX
  5
B9
330
40
100
AcDbEntity
  8
STATE
 62
     2
100
AcDbVertex
100
AcDb2dVertex
 10
7.483289930555555
 20
4.319349500868055
 30
0.0
  0
VERTEX
  5
BA
330
40
100
AcDbEntity
  8
STATE
 62
     2
100
AcDbVertex
100
AcDb2dVertex
 10
7.469970703125
 20
4.326015896267361
 30
0.0
  0
VERTEX
  5
BB
330
40
100
AcDbEntity
  8
STATE
 62
     2
100
AcDbVertex
100
AcDb2dVertex
 10
7.4599609375
 20
4.33935546875
 30
0.0
  0
VERTEX
  5
BC
330
40
100
AcDbEntity
  8
STATE
 62
     2
100
AcDbVertex
100
AcDb2dVertex
 10
7.463297526041666
 20
4.349358452690972
 30
0.0
  0
VERTEX
  5
BD
330
40
100
AcDbEntity
  8
STATE
 62
     2
100
AcDbVertex
100
AcDb2dVertex
 10
7.446628146701388
 20
4.406032986111111
 30
0.0
  0
VERTEX
  5
BE
330
40
100
AcDbEntity
  8
STATE
 62
     2
100
AcDbVertex
100
AcDb2dVertex
 10
7.456624348958333
 20
4.419365776909722
 30
0.0
  0
VERTEX
  5
BF
330
40
100
AcDbEntity
  8
STATE
 62
     2
100
AcDbVertex
100
AcDb2dVertex
 10
7.4599609375
 20
4.43603515625
 30
0.0
  0
VERTEX
  5
C0
330
40
100
AcDbEntity
  8
STATE
 62
     2
100
AcDbVertex
100
AcDb2dVertex
 10
7.4599609375
 20
4.439371744791666
 30
0.0
  0
VERTEX
  5
C1
330
40
100
AcDbEntity
  8
STATE
 62
     2
100
AcDbVertex
100
AcDb2dVertex
 10
7.4599609375
 20
4.442701551649305
 30
0.0
  0
VERTEX
  5
C2
330
40
100
AcDbEntity
  8
STATE
 62
     2
100
AcDbVertex
100
AcDb2dVertex
 10
7.456624348958333
 20
4.472710503472222
 30
0.0
  0
VERTEX
  5
C3
330
40
100
AcDbEntity
  8
STATE
 62
     2
100
AcDbVertex
100
AcDb2dVertex
 10
7.449964735243055
 20
4.53271484375
 30
0.0
  0
VERTEX
  5
C4
330
40
100
AcDbEntity
  8
STATE
 62
     2
100
AcDbVertex
100
AcDb2dVertex
 10
7.446628146701388
 20
4.556057400173611
 30
0.0
  0
VERTEX
  5
C5
330
40
100
AcDbEntity
  8
STATE
 62
     2
100
AcDbVertex
100
AcDb2dVertex
 10
7.443305121527778
 20
4.572726779513888
 30
0.0
  0
VERTEX
  5
C6
330
40
100
AcDbEntity
  8
STATE
 62
     2
100
AcDbVertex
100
AcDb2dVertex
 10
7.439954969618055
 20
4.582722981770833
 30
0.0
  0
VERTEX
  5
C7
330
40
100
AcDbEntity
  8
STATE
 62
     2
100
AcDbVertex
100
AcDb2dVertex
 10
7.429958767361111
 20
4.596062554253472
 30
0.0
  0
VERTEX
  5
C8
330
40
100
AcDbEntity
  8
STATE
 62
     2
100
AcDbVertex
100
AcDb2dVertex
 10
7.426622178819444
 20
4.606065538194444
 30
0.0
  0
VERTEX
  5
C9
330
40
100
AcDbEntity
  8
STATE
 62
     2
100
AcDbVertex
100
AcDb2dVertex
 10
7.423299153645833
 20
4.622734917534722
 30
0.0
  0
VERTEX
  5
CA
330
40
100
AcDbEntity
  8
STATE
 62
     2
100
AcDbVertex
100
AcDb2dVertex
 10
7.423299153645833
 20
4.629401312934028
 30
0.0
  0
VERTEX
  5
CB
330
40
100
AcDbEntity
  8
STATE
 62
     2
100
AcDbVertex
100
AcDb2dVertex
 10
7.423299153645833
 20
4.666069878472222
 30
0.0
  0
VERTEX
  5
CC
330
40
100
AcDbEntity
  8
STATE
 62
     2
100
AcDbVertex
100
AcDb2dVertex
 10
7.419962565104166
 20
4.676072862413194
 30
0.0
  0
VERTEX
  5
CD
330
40
100
AcDbEntity
  8
STATE
 62
     2
100
AcDbVertex
100
AcDb2dVertex
 10
7.419962565104166
 20
4.686075846354166
 30
0.0
  0
VERTEX
  5
CE
330
40
100
AcDbEntity
  8
STATE
 62
     2
100
AcDbVertex
100
AcDb2dVertex
 10
7.399956597222221
 20
4.702745225694444
 30
0.0
  0
VERTEX
  5
CF
330
40
100
AcDbEntity
  8
STATE
 62
     2
100
AcDbVertex
100
AcDb2dVertex
 10
7.369967990451388
 20
4.716078016493055
 30
0.0
  0
VERTEX
  5
D0
330
40
100
AcDbEntity
  8
STATE
 62
     2
100
AcDbVertex
100
AcDb2dVertex
 10
7.369967990451388
 20
4.719414605034722
 30
0.0
  0
VERTEX
  5
D1
330
40
100
AcDbEntity
  8
STATE
 62
     2
100
AcDbVertex
100
AcDb2dVertex
 10
7.346625434027778
 20
4.719414605034722
 30
0.0
  0
VERTEX
  5
D2
330
40
100
AcDbEntity
  8
STATE
 62
     2
100
AcDbVertex
100
AcDb2dVertex
 10
7.3399658203125
 20
4.719414605034722
 30
0.0
  0
VERTEX
  5
D3
330
40
100
AcDbEntity
  8
STATE
 62
     2
100
AcDbVertex
100
AcDb2dVertex
 10
7.319959852430555
 20
4.70941162109375
 30
0.0
  0
VERTEX
  5
D4
330
40
100
AcDbEntity
  8
STATE
 62
     2
100
AcDbVertex
100
AcDb2dVertex
 10
7.316623263888888
 20
4.702745225694444
 30
0.0
  0
VERTEX
  5
D5
330
40
100
AcDbEntity
  8
STATE
 62
     2
100
AcDbVertex
100
AcDb2dVertex
 10
7.313300238715278
 20
4.692742241753472
 30
0.0
  0
VERTEX
  5
D6
330
40
100
AcDbEntity
  8
STATE
 62
     2
100
AcDbVertex
100
AcDb2dVertex
 10
7.306627061631944
 20
4.686075846354166
 30
0.0
  0
VERTEX
  5
D7
330
40
100
AcDbEntity
  8
STATE
 62
     2
100
AcDbVertex
100
AcDb2dVertex
 10
7.303304036458333
 20
4.6827392578125
 30
0.0
  0
VERTEX
  5
D8
330
40
100
AcDbEntity
  8
STATE
 62
     2
100
AcDbVertex
100
AcDb2dVertex
 10
7.279975043402778
 20
4.676072862413194
 30
0.0
  0
VERTEX
  5
D9
330
40
100
AcDbEntity
  8
STATE
 62
     2
100
AcDbVertex
100
AcDb2dVertex
 10
7.263292100694444
 20
4.686075846354166
 30
0.0
  0
VERTEX
  5
DA
330
40
100
AcDbEntity
  8
STATE
 62
     2
100
AcDbVertex
100
AcDb2dVertex
 10
7.103298611111111
 20
4.759419759114583
 30
0.0
  0
VERTEX
  5
DB
330
40
100
AcDbEntity
  8
STATE
 62
     2
100
AcDbVertex
100
AcDb2dVertex
 10
7.036634657118055
 20
4.832763671875
 30
0.0
  0
VERTEX
  5
DC
330
40
100
AcDbEntity
  8
STATE
 62
     2
100
AcDbVertex
100
AcDb2dVertex
 10
7.036634657118055
 20
4.836100260416666
 30
0.0
  0
VERTEX
  5
DD
330
40
100
AcDbEntity
  8
STATE
 62
     2
100
AcDbVertex
100
AcDb2dVertex
 10
7.016642252604166
 20
4.85943603515625
 30
0.0
  0
VERTEX
  5
DE
330
40
100
AcDbEntity
  8
STATE
 62
     2
100
AcDbVertex
100
AcDb2dVertex
 10
7.009969075520833
 20
4.866102430555555
 30
0.0
  0
VERTEX
  5
DF
330
40
100
AcDbEntity
  8
STATE
 62
     2
100
AcDbVertex
100
AcDb2dVertex
 10
7.003309461805555
 20
4.876105414496528
 30
0.0
  0
VERTEX
  5
E0
330
40
100
AcDbEntity
  8
STATE
 62
     2
100
AcDbVertex
100
AcDb2dVertex
 10
6.996636284722221
 20
4.892774793836805
 30
0.0
  0
VERTEX
  5
E1
330
40
100
AcDbEntity
  8
STATE
 62
     2
100
AcDbVertex
100
AcDb2dVertex
 10
6.996636284722221
 20
4.899441189236111
 30
0.0
  0
VERTEX
  5
E2
330
40
100
AcDbEntity
  8
STATE
 62
     2
100
AcDbVertex
100
AcDb2dVertex
 10
6.996636284722221
 20
4.912773980034722
 30
0.0
  0
VERTEX
  5
E3
330
40
100
AcDbEntity
  8
STATE
 62
     2
100
AcDbVertex
100
AcDb2dVertex
 10
6.996636284722221
 20
4.929443359375
 30
0.0
  0
VERTEX
  5
E4
330
40
100
AcDbEntity
  8
STATE
 62
     2
100
AcDbVertex
100
AcDb2dVertex
 10
6.989963107638888
 20
4.942782931857638
 30
0.0
  0
VERTEX
  5
E5
330
40
100
AcDbEntity
  8
STATE
 62
     2
100
AcDbVertex
100
AcDb2dVertex
 10
6.986626519097221
 20
4.942782931857638
 30
0.0
  0
VERTEX
  5
E6
330
40
100
AcDbEntity
  8
STATE
 62
     2
100
AcDbVertex
100
AcDb2dVertex
 10
6.986626519097221
 20
4.946112738715278
 30
0.0
  0
VERTEX
  5
E7
330
40
100
AcDbEntity
  8
STATE
 62
     2
100
AcDbVertex
100
AcDb2dVertex
 10
6.979966905381944
 20
4.949449327256944
 30
0.0
  0
VERTEX
  5
E8
330
40
100
AcDbEntity
  8
STATE
 62
     2
100
AcDbVertex
100
AcDb2dVertex
 10
6.973293728298611
 20
4.959452311197916
 30
0.0
  0
VERTEX
  5
E9
330
40
100
AcDbEntity
  8
STATE
 62
     2
100
AcDbVertex
100
AcDb2dVertex
 10
6.983303493923611
 20
5.022793240017361
 30
0.0
  0
VERTEX
  5
EA
330
40
100
AcDbEntity
  8
STATE
 62
     2
100
AcDbVertex
100
AcDb2dVertex
 10
6.986626519097221
 20
5.026129828559028
 30
0.0
  0
VERTEX
  5
EB
330
40
100
AcDbEntity
  8
STATE
 62
     2
100
AcDbVertex
100
AcDb2dVertex
 10
7.009969075520833
 20
5.076137966579861
 30
0.0
  0
VERTEX
  5
EC
330
40
100
AcDbEntity
  8
STATE
 62
     2
100
AcDbVertex
100
AcDb2dVertex
 10
7.026638454861111
 20
5.112806532118055
 30
0.0
  0
VERTEX
  5
ED
330
40
100
AcDbEntity
  8
STATE
 62
     2
100
AcDbVertex
100
AcDb2dVertex
 10
7.036634657118055
 20
5.129475911458333
 30
0.0
  0
VERTEX
  5
EE
330
40
100
AcDbEntity
  8
STATE
 62
     2
100
AcDbVertex
100
AcDb2dVertex
 10
7.063300238715278
 20
5.136142306857638
 30
0.0
  0
VERTEX
  5
EF
330
40
100
AcDbEntity
  8
STATE
 62
     2
100
AcDbVertex
100
AcDb2dVertex
 10
7.073296440972221
 20
5.146145290798611
 30
0.0
  0
VERTEX
  5
F0
330
40
100
AcDbEntity
  8
STATE
 62
     2
100
AcDbVertex
100
AcDb2dVertex
 10
7.079969618055555
 20
5.156148274739583
 30
0.0
  0
VERTEX
  5
F1
330
40
100
AcDbEntity
  8
STATE
 62
     2
100
AcDbVertex
100
AcDb2dVertex
 10
7.076633029513888
 20
5.162814670138888
 30
0.0
  0
VERTEX
  5
F2
330
40
100
AcDbEntity
  8
STATE
 62
     2
100
AcDbVertex
100
AcDb2dVertex
 10
7.079969618055555
 20
5.172817654079861
 30
0.0
  0
VERTEX
  5
F3
330
40
100
AcDbEntity
  8
STATE
 62
     2
100
AcDbVertex
100
AcDb2dVertex
 10
7.123291015625
 20
5.172817654079861
 30
0.0
  0
VERTEX
  5
F4
330
40
100
AcDbEntity
  8
STATE
 62
     2
100
AcDbVertex
100
AcDb2dVertex
 10
7.136637369791666
 20
5.166151258680555
 30
0.0
  0
VERTEX
  5
F5
330
40
100
AcDbEntity
  8
STATE
 62
     2
100
AcDbVertex
100
AcDb2dVertex
 10
7.136637369791666
 20
5.172817654079861
 30
0.0
  0
VERTEX
  5
F6
330
40
100
AcDbEntity
  8
STATE
 62
     2
100
AcDbVertex
100
AcDb2dVertex
 10
7.146633572048611
 20
5.186150444878472
 30
0.0
  0
VERTEX
  5
F7
330
40
100
AcDbEntity
  8
STATE
 62
     2
100
AcDbVertex
100
AcDb2dVertex
 10
7.173299153645833
 20
5.182820638020833
 30
0.0
  0
VERTEX
  5
F8
330
40
100
AcDbEntity
  8
STATE
 62
     2
100
AcDbVertex
100
AcDb2dVertex
 10
7.183295355902778
 20
5.172817654079861
 30
0.0
  0
SEQEND
  5
F9
330
40
100
AcDbEntity
  8
STATE
  0
POLYLINE
  5
FA
330
3C
100
AcDbEntity
  8
STATE
 62
     2
100
AcDb2dPolyline
 66
     1
 10
0.0
 20
0.0
 30
0.0
  0
VERTEX
  5
FB
330
FA
100
AcDbEntity
  8
STATE
 62
     2
100
AcDbVertex
100
AcDb2dVertex
 10
4.626641167534722
 20
6.493021647135416
 30
0.0
  0
VERTEX
  5
FC
330
FA
100
AcDbEntity
  8
STATE
 62
     2
100
AcDbVertex
100
AcDb2dVertex
 10
4.636644151475694
 20
6.483018663194444
 30
0.0
  0
VERTEX
  5
FD
330
FA
100
AcDbEntity
  8
STATE
 62
     2
100
AcDbVertex
100
AcDb2dVertex
 10
4.646647135416666
 20
6.456353081597221
 30
0.0
  0
VERTEX
  5
FE
330
FA
100
AcDbEntity
  8
STATE
 62
     2
100
AcDbVertex
100
AcDb2dVertex
 10
4.653313530815972
 20
6.439683702256944
 30
0.0
  0
VERTEX
  5
FF
330
FA
100
AcDbEntity
  8
STATE
 62
     2
100
AcDbVertex
100
AcDb2dVertex
 10
4.663309733072916
 20
6.419677734375
 30
0.0
  0
VERTEX
  5
100
330
FA
100
AcDbEntity
  8
STATE
 62
     2
100
AcDbVertex
100
AcDb2dVertex
 10
4.669976128472222
 20
6.413011338975694
 30
0.0
  0
VERTEX
  5
101
330
FA
100
AcDbEntity
  8
STATE
 62
     2
100
AcDbVertex
100
AcDb2dVertex
 10
4.679979112413194
 20
6.406344943576388
 30
0.0
  0
VERTEX
  5
102
330
FA
100
AcDbEntity
  8
STATE
 62
     2
100
AcDbVertex
100
AcDb2dVertex
 10
4.679979112413194
 20
6.403008355034721
 30
0.0
  0
VERTEX
  5
103
330
FA
100
AcDbEntity
  8
STATE
 62
     2
100
AcDbVertex
100
AcDb2dVertex
 10
4.679979112413194
 20
6.396341959635416
 30
0.0
  0
VERTEX
  5
104
330
FA
100
AcDbEntity
  8
STATE
 62
     2
100
AcDbVertex
100
AcDb2dVertex
 10
4.683308919270833
 20
6.379672580295138
 30
0.0
  0
VERTEX
  5
105
330
FA
100
AcDbEntity
  8
STATE
 62
     2
100
AcDbVertex
100
AcDb2dVertex
 10
4.683308919270833
 20
6.376335991753471
 30
0.0
  0
VERTEX
  5
106
330
FA
100
AcDbEntity
  8
STATE
 62
     2
100
AcDbVertex
100
AcDb2dVertex
 10
4.679979112413194
 20
6.363003200954861
 30
0.0
  0
VERTEX
  5
107
330
FA
100
AcDbEntity
  8
STATE
 62
     2
100
AcDbVertex
100
AcDb2dVertex
 10
4.683308919270833
 20
6.356336805555555
 30
0.0
  0
VERTEX
  5
108
330
FA
100
AcDbEntity
  8
STATE
 62
     2
100
AcDbVertex
100
AcDb2dVertex
 10
4.693311903211805
 20
6.342997233072916
 30
0.0
  0
VERTEX
  5
109
330
FA
100
AcDbEntity
  8
STATE
 62
     2
100
AcDbVertex
100
AcDb2dVertex
 10
4.696641710069444
 20
6.339667426215278
 30
0.0
  0
VERTEX
  5
10A
330
FA
100
AcDbEntity
  8
STATE
 62
     2
100
AcDbVertex
100
AcDb2dVertex
 10
4.70330810546875
 20
6.326327853732638
 30
0.0
  0
VERTEX
  5
10B
330
FA
100
AcDbEntity
  8
STATE
 62
     2
100
AcDbVertex
100
AcDb2dVertex
 10
4.723307291666666
 20
6.316324869791666
 30
0.0
  0
VERTEX
  5
10C
330
FA
100
AcDbEntity
  8
STATE
 62
     2
100
AcDbVertex
100
AcDb2dVertex
 10
4.72998046875
 20
6.306328667534721
 30
0.0
  0
VERTEX
  5
10D
330
FA
100
AcDbEntity
  8
STATE
 62
     2
100
AcDbVertex
100
AcDb2dVertex
 10
4.753309461805555
 20
6.276319715711805
 30
0.0
  0
VERTEX
  5
10E
330
FA
100
AcDbEntity
  8
STATE
 62
     2
100
AcDbVertex
100
AcDb2dVertex
 10
4.766642252604166
 20
6.252983940972221
 30
0.0
  0
VERTEX
  5
10F
330
FA
100
AcDbEntity
  8
STATE
 62
     2
100
AcDbVertex
100
AcDb2dVertex
 10
4.763312445746528
 20
6.222981770833333
 30
0.0
  0
VERTEX
  5
110
330
FA
100
AcDbEntity
  8
STATE
 62
     2
100
AcDbVertex
100
AcDb2dVertex
 10
4.776645236545138
 20
6.219645182291666
 30
0.0
  0
VERTEX
  5
111
330
FA
100
AcDbEntity
  8
STATE
 62
     2
100
AcDbVertex
100
AcDb2dVertex
 10
4.786641438802083
 20
6.229648166232638
 30
0.0
  0
VERTEX
  5
112
330
FA
100
AcDbEntity
  8
STATE
 62
     2
100
AcDbVertex
100
AcDb2dVertex
 10
4.806640625
 20
6.226311577690971
 30
0.0
  0
VERTEX
  5
113
330
FA
100
AcDbEntity
  8
STATE
 62
     2
100
AcDbVertex
100
AcDb2dVertex
 10
4.813313802083333
 20
6.219645182291666
 30
0.0
  0
VERTEX
  5
114
330
FA
100
AcDbEntity
  8
STATE
 62
     2
100
AcDbVertex
100
AcDb2dVertex
 10
4.823310004340278
 20
6.19964599609375
 30
0.0
  0
VERTEX
  5
115
330
FA
100
AcDbEntity
  8
STATE
 62
     2
100
AcDbVertex
100
AcDb2dVertex
 10
4.83331298828125
 20
6.179640028211805
 30
0.0
  0
VERTEX
  5
116
330
FA
100
AcDbEntity
  8
STATE
 62
     2
100
AcDbVertex
100
AcDb2dVertex
 10
4.843309190538194
 20
6.162970648871528
 30
0.0
  0
VERTEX
  5
117
330
FA
100
AcDbEntity
  8
STATE
 62
     2
100
AcDbVertex
100
AcDb2dVertex
 10
4.843309190538194
 20
6.126295301649305
 30
0.0
  0
VERTEX
  5
118
330
FA
100
AcDbEntity
  8
STATE
 62
     2
100
AcDbVertex
100
AcDb2dVertex
 10
4.819980197482638
 20
6.122965494791666
 30
0.0
  0
VERTEX
  5
119
330
FA
100
AcDbEntity
  8
STATE
 62
     2
100
AcDbVertex
100
AcDb2dVertex
 10
4.816643608940972
 20
6.112962510850694
 30
0.0
  0
VERTEX
  5
11A
330
FA
100
AcDbEntity
  8
STATE
 62
     2
100
AcDbVertex
100
AcDb2dVertex
 10
4.813313802083333
 20
6.102959526909722
 30
0.0
  0
VERTEX
  5
11B
330
FA
100
AcDbEntity
  8
STATE
 62
     2
100
AcDbVertex
100
AcDb2dVertex
 10
4.819980197482638
 20
6.072957356770833
 30
0.0
  0
VERTEX
  5
11C
330
FA
100
AcDbEntity
  8
STATE
 62
     2
100
AcDbVertex
100
AcDb2dVertex
 10
4.819980197482638
 20
6.062954372829861
 30
0.0
  0
VERTEX
  5
11D
330
FA
100
AcDbEntity
  8
STATE
 62
     2
100
AcDbVertex
100
AcDb2dVertex
 10
4.823310004340278
 20
6.04962158203125
 30
0.0
  0
VERTEX
  5
11E
330
FA
100
AcDbEntity
  8
STATE
 62
     2
100
AcDbVertex
100
AcDb2dVertex
 10
4.826646592881944
 20
6.036282009548611
 30
0.0
  0
VERTEX
  5
11F
330
FA
100
AcDbEntity
  8
STATE
 62
     2
100
AcDbVertex
100
AcDb2dVertex
 10
4.83331298828125
 20
6.026285807291666
 30
0.0
  0
VERTEX
  5
120
330
FA
100
AcDbEntity
  8
STATE
 62
     2
100
AcDbVertex
100
AcDb2dVertex
 10
4.836642795138888
 20
6.02294921875
 30
0.0
  0
VERTEX
  5
121
330
FA
100
AcDbEntity
  8
STATE
 62
     2
100
AcDbVertex
100
AcDb2dVertex
 10
4.839979383680555
 20
6.02294921875
 30
0.0
  0
VERTEX
  5
122
330
FA
100
AcDbEntity
  8
STATE
 62
     2
100
AcDbVertex
100
AcDb2dVertex
 10
4.866644965277778
 20
6.016282823350694
 30
0.0
  0
VERTEX
  5
123
330
FA
100
AcDbEntity
  8
STATE
 62
     2
100
AcDbVertex
100
AcDb2dVertex
 10
4.879977756076388
 20
6.002943250868055
 30
0.0
  0
VERTEX
  5
124
330
FA
100
AcDbEntity
  8
STATE
 62
     2
100
AcDbVertex
100
AcDb2dVertex
 10
4.886644151475694
 20
5.986273871527778
 30
0.0
  0
VERTEX
  5
125
330
FA
100
AcDbEntity
  8
STATE
 62
     2
100
AcDbVertex
100
AcDb2dVertex
 10
4.899976942274305
 20
5.962938096788194
 30
0.0
  0
VERTEX
  5
126
330
FA
100
AcDbEntity
  8
STATE
 62
     2
100
AcDbVertex
100
AcDb2dVertex
 10
4.909979926215278
 20
5.956271701388888
 30
0.0
  0
VERTEX
  5
127
330
FA
100
AcDbEntity
  8
STATE
 62
     2
100
AcDbVertex
100
AcDb2dVertex
 10
4.916646321614583
 20
5.949605305989583
 30
0.0
  0
VERTEX
  5
128
330
FA
100
AcDbEntity
  8
STATE
 62
     2
100
AcDbVertex
100
AcDb2dVertex
 10
4.923312717013888
 20
5.946268717447916
 30
0.0
  0
VERTEX
  5
129
330
FA
100
AcDbEntity
  8
STATE
 62
     2
100
AcDbVertex
100
AcDb2dVertex
 10
4.9366455078125
 20
5.936265733506944
 30
0.0
  0
VERTEX
  5
12A
330
FA
100
AcDbEntity
  8
STATE
 62
     2
100
AcDbVertex
100
AcDb2dVertex
 10
4.943311903211805
 20
5.936265733506944
 30
0.0
  0
VERTEX
  5
12B
330
FA
100
AcDbEntity
  8
STATE
 62
     2
100
AcDbVertex
100
AcDb2dVertex
 10
4.949978298611111
 20
5.939602322048611
 30
0.0
  0
VERTEX
  5
12C
330
FA
100
AcDbEntity
  8
STATE
 62
     2
100
AcDbVertex
100
AcDb2dVertex
 10
4.959974500868055
 20
5.946268717447916
 30
0.0
  0
VERTEX
  5
12D
330
FA
100
AcDbEntity
  8
STATE
 62
     2
100
AcDbVertex
100
AcDb2dVertex
 10
4.963311089409722
 20
5.962938096788194
 30
0.0
  0
VERTEX
  5
12E
330
FA
100
AcDbEntity
  8
STATE
 62
     2
100
AcDbVertex
100
AcDb2dVertex
 10
4.963311089409722
 20
5.966274685329861
 30
0.0
  0
VERTEX
  5
12F
330
FA
100
AcDbEntity
  8
STATE
 62
     2
100
AcDbVertex
100
AcDb2dVertex
 10
4.963311089409722
 20
5.972941080729166
 30
0.0
  0
VERTEX
  5
130
330
FA
100
AcDbEntity
  8
STATE
 62
     2
100
AcDbVertex
100
AcDb2dVertex
 10
4.959974500868055
 20
5.989610460069444
 30
0.0
  0
VERTEX
  5
131
330
FA
100
AcDbEntity
  8
STATE
 62
     2
100
AcDbVertex
100
AcDb2dVertex
 10
4.959974500868055
 20
6.012946234809028
 30
0.0
  0
VERTEX
  5
132
330
FA
100
AcDbEntity
  8
STATE
 62
     2
100
AcDbVertex
100
AcDb2dVertex
 10
4.963311089409722
 20
6.019612630208333
 30
0.0
  0
VERTEX
  5
133
330
FA
100
AcDbEntity
  8
STATE
 62
     2
100
AcDbVertex
100
AcDb2dVertex
 10
4.976643880208333
 20
6.026285807291666
 30
0.0
  0
VERTEX
  5
134
330
FA
100
AcDbEntity
  8
STATE
 62
     2
100
AcDbVertex
100
AcDb2dVertex
 10
4.989976671006944
 20
6.026285807291666
 30
0.0
  0
VERTEX
  5
135
330
FA
100
AcDbEntity
  8
STATE
 62
     2
100
AcDbVertex
100
AcDb2dVertex
 10
4.99664306640625
 20
6.026285807291666
 30
0.0
  0
VERTEX
  5
136
330
FA
100
AcDbEntity
  8
STATE
 62
     2
100
AcDbVertex
100
AcDb2dVertex
 10
5.013312445746528
 20
6.02294921875
 30
0.0
  0
VERTEX
  5
137
330
FA
100
AcDbEntity
  8
STATE
 62
     2
100
AcDbVertex
100
AcDb2dVertex
 10
5.019978841145833
 20
6.02294921875
 30
0.0
  0
VERTEX
  5
138
330
FA
100
AcDbEntity
  8
STATE
 62
     2
100
AcDbVertex
100
AcDb2dVertex
 10
5.026645236545138
 20
6.02294921875
 30
0.0
  0
VERTEX
  5
139
330
FA
100
AcDbEntity
  8
STATE
 62
     2
100
AcDbVertex
100
AcDb2dVertex
 10
5.03997802734375
 20
6.016282823350694
 30
0.0
  0
VERTEX
  5
13A
330
FA
100
AcDbEntity
  8
STATE
 62
     2
100
AcDbVertex
100
AcDb2dVertex
 10
5.03997802734375
 20
6.002943250868055
 30
0.0
  0
VERTEX
  5
13B
330
FA
100
AcDbEntity
  8
STATE
 62
     2
100
AcDbVertex
100
AcDb2dVertex
 10
5.03997802734375
 20
5.992947048611111
 30
0.0
  0
VERTEX
  5
13C
330
FA
100
AcDbEntity
  8
STATE
 62
     2
100
AcDbVertex
100
AcDb2dVertex
 10
5.029975043402778
 20
5.979607476128472
 30
0.0
  0
VERTEX
  5
13D
330
FA
100
AcDbEntity
  8
STATE
 62
     2
100
AcDbVertex
100
AcDb2dVertex
 10
5.026645236545138
 20
5.966274685329861
 30
0.0
  0
VERTEX
  5
13E
330
FA
100
AcDbEntity
  8
STATE
 62
     2
100
AcDbVertex
100
AcDb2dVertex
 10
5.026645236545138
 20
5.962938096788194
 30
0.0
  0
VERTEX
  5
13F
330
FA
100
AcDbEntity
  8
STATE
 62
     2
100
AcDbVertex
100
AcDb2dVertex
 10
5.023308648003472
 20
5.952935112847222
 30
0.0
  0
VERTEX
  5
140
330
FA
100
AcDbEntity
  8
STATE
 62
     2
100
AcDbVertex
100
AcDb2dVertex
 10
5.023308648003472
 20
5.932935926649305
 30
0.0
  0
VERTEX
  5
141
330
FA
100
AcDbEntity
  8
STATE
 62
     2
100
AcDbVertex
100
AcDb2dVertex
 10
5.023308648003472
 20
5.929599338107638
 30
0.0
  0
VERTEX
  5
142
330
FA
100
AcDbEntity
  8
STATE
 62
     2
100
AcDbVertex
100
AcDb2dVertex
 10
5.023308648003472
 20
5.919596354166666
 30
0.0
  0
VERTEX
  5
143
330
FA
100
AcDbEntity
  8
STATE
 62
     2
100
AcDbVertex
100
AcDb2dVertex
 10
5.026645236545138
 20
5.912929958767361
 30
0.0
  0
VERTEX
  5
144
330
FA
100
AcDbEntity
  8
STATE
 62
     2
100
AcDbVertex
100
AcDb2dVertex
 10
5.043307834201388
 20
5.909600151909722
 30
0.0
  0
VERTEX
  5
145
330
FA
100
AcDbEntity
  8
STATE
 62
     2
100
AcDbVertex
100
AcDb2dVertex
 10
5.046644422743055
 20
5.909600151909722
 30
0.0
  0
VERTEX
  5
146
330
FA
100
AcDbEntity
  8
STATE
 62
     2
100
AcDbVertex
100
AcDb2dVertex
 10
5.049974229600694
 20
5.909600151909722
 30
0.0
  0
VERTEX
  5
147
330
FA
100
AcDbEntity
  8
STATE
 62
     2
100
AcDbVertex
100
AcDb2dVertex
 10
5.053310818142361
 20
5.909600151909722
 30
0.0
  0
VERTEX
  5
148
330
FA
100
AcDbEntity
  8
STATE
 62
     2
100
AcDbVertex
100
AcDb2dVertex
 10
5.056640625
 20
5.909600151909722
 30
0.0
  0
VERTEX
  5
149
330
FA
100
AcDbEntity
  8
STATE
 62
     2
100
AcDbVertex
100
AcDb2dVertex
 10
5.056640625
 20
5.906263563368055
 30
0.0
  0
VERTEX
  5
14A
330
FA
100
AcDbEntity
  8
STATE
 62
     2
100
AcDbVertex
100
AcDb2dVertex
 10
5.059977213541666
 20
5.906263563368055
 30
0.0
  0
VERTEX
  5
14B
330
FA
100
AcDbEntity
  8
STATE
 62
     2
100
AcDbVertex
100
AcDb2dVertex
 10
5.059977213541666
 20
5.902926974826388
 30
0.0
  0
VERTEX
  5
14C
330
FA
100
AcDbEntity
  8
STATE
 62
     2
100
AcDbVertex
100
AcDb2dVertex
 10
5.063307020399305
 20
5.896260579427083
 30
0.0
  0
VERTEX
  5
14D
330
FA
100
AcDbEntity
  8
STATE
 62
     2
100
AcDbVertex
100
AcDb2dVertex
 10
5.073310004340278
 20
5.882927788628472
 30
0.0
  0
VERTEX
  5
14E
330
FA
100
AcDbEntity
  8
STATE
 62
     2
100
AcDbVertex
100
AcDb2dVertex
 10
5.083306206597222
 20
5.8729248046875
 30
0.0
  0
VERTEX
  5
14F
330
FA
100
AcDbEntity
  8
STATE
 62
     2
100
AcDbVertex
100
AcDb2dVertex
 10
5.083306206597222
 20
5.862921820746528
 30
0.0
  0
VERTEX
  5
150
330
FA
100
AcDbEntity
  8
STATE
 62
     2
100
AcDbVertex
100
AcDb2dVertex
 10
5.076639811197916
 20
5.842922634548611
 30
0.0
  0
VERTEX
  5
151
330
FA
100
AcDbEntity
  8
STATE
 62
     2
100
AcDbVertex
100
AcDb2dVertex
 10
5.079976399739583
 20
5.822916666666666
 30
0.0
  0
VERTEX
  5
152
330
FA
100
AcDbEntity
  8
STATE
 62
     2
100
AcDbVertex
100
AcDb2dVertex
 10
5.083306206597222
 20
5.812913682725694
 30
0.0
  0
VERTEX
  5
153
330
FA
100
AcDbEntity
  8
STATE
 62
     2
100
AcDbVertex
100
AcDb2dVertex
 10
5.086642795138888
 20
5.806247287326388
 30
0.0
  0
VERTEX
  5
154
330
FA
100
AcDbEntity
  8
STATE
 62
     2
100
AcDbVertex
100
AcDb2dVertex
 10
5.093309190538194
 20
5.792914496527778
 30
0.0
  0
VERTEX
  5
155
330
FA
100
AcDbEntity
  8
STATE
 62
     2
100
AcDbVertex
100
AcDb2dVertex
 10
5.103312174479166
 20
5.7762451171875
 30
0.0
  0
VERTEX
  5
156
330
FA
100
AcDbEntity
  8
STATE
 62
     2
100
AcDbVertex
100
AcDb2dVertex
 10
5.109978569878472
 20
5.769578721788194
 30
0.0
  0
VERTEX
  5
157
330
FA
100
AcDbEntity
  8
STATE
 62
     2
100
AcDbVertex
100
AcDb2dVertex
 10
5.119974772135416
 20
5.762905544704861
 30
0.0
  0
VERTEX
  5
158
330
FA
100
AcDbEntity
  8
STATE
 62
     2
100
AcDbVertex
100
AcDb2dVertex
 10
5.126641167534722
 20
5.759575737847222
 30
0.0
  0
VERTEX
  5
159
330
FA
100
AcDbEntity
  8
STATE
 62
     2
100
AcDbVertex
100
AcDb2dVertex
 10
5.129977756076388
 20
5.759575737847222
 30
0.0
  0
VERTEX
  5
15A
330
FA
100
AcDbEntity
  8
STATE
 62
     2
100
AcDbVertex
100
AcDb2dVertex
 10
5.129977756076388
 20
5.756239149305555
 30
0.0
  0
VERTEX
  5
15B
330
FA
100
AcDbEntity
  8
STATE
 62
     2
100
AcDbVertex
100
AcDb2dVertex
 10
5.146640353732638
 20
5.746242947048611
 30
0.0
  0
VERTEX
  5
15C
330
FA
100
AcDbEntity
  8
STATE
 62
     2
100
AcDbVertex
100
AcDb2dVertex
 10
5.166639539930555
 20
5.736239963107638
 30
0.0
  0
VERTEX
  5
15D
330
FA
100
AcDbEntity
  8
STATE
 62
     2
100
AcDbVertex
100
AcDb2dVertex
 10
5.166639539930555
 20
5.732903374565972
 30
0.0
  0
VERTEX
  5
15E
330
FA
100
AcDbEntity
  8
STATE
 62
     2
100
AcDbVertex
100
AcDb2dVertex
 10
5.169976128472222
 20
5.732903374565972
 30
0.0
  0
VERTEX
  5
15F
330
FA
100
AcDbEntity
  8
STATE
 62
     2
100
AcDbVertex
100
AcDb2dVertex
 10
5.183308919270833
 20
5.732903374565972
 30
0.0
  0
VERTEX
  5
160
330
FA
100
AcDbEntity
  8
STATE
 62
     2
100
AcDbVertex
100
AcDb2dVertex
 10
5.189975314670138
 20
5.732903374565972
 30
0.0
  0
VERTEX
  5
161
330
FA
100
AcDbEntity
  8
STATE
 62
     2
100
AcDbVertex
100
AcDb2dVertex
 10
5.189975314670138
 20
5.729573567708333
 30
0.0
  0
VERTEX
  5
162
330
FA
100
AcDbEntity
  8
STATE
 62
     2
100
AcDbVertex
100
AcDb2dVertex
 10
5.1866455078125
 20
5.709567599826388
 30
0.0
  0
VERTEX
  5
163
330
FA
100
AcDbEntity
  8
STATE
 62
     2
100
AcDbVertex
100
AcDb2dVertex
 10
5.15997314453125
 20
5.692898220486111
 30
0.0
  0
VERTEX
  5
164
330
FA
100
AcDbEntity
  8
STATE
 62
     2
100
AcDbVertex
100
AcDb2dVertex
 10
5.119974772135416
 20
5.662896050347222
 30
0.0
  0
VERTEX
  5
165
330
FA
100
AcDbEntity
  8
STATE
 62
     2
100
AcDbVertex
100
AcDb2dVertex
 10
5.109978569878472
 20
5.65289306640625
 30
0.0
  0
VERTEX
  5
166
330
FA
100
AcDbEntity
  8
STATE
 62
     2
100
AcDbVertex
100
AcDb2dVertex
 10
5.109978569878472
 20
5.639553493923611
 30
0.0
  0
VERTEX
  5
167
330
FA
100
AcDbEntity
  8
STATE
 62
     2
100
AcDbVertex
100
AcDb2dVertex
 10
5.0999755859375
 20
5.632887098524305
 30
0.0
  0
VERTEX
  5
168
330
FA
100
AcDbEntity
  8
STATE
 62
     2
100
AcDbVertex
100
AcDb2dVertex
 10
5.079976399739583
 20
5.629557291666666
 30
0.0
  0
VERTEX
  5
169
330
FA
100
AcDbEntity
  8
STATE
 62
     2
100
AcDbVertex
100
AcDb2dVertex
 10
5.073310004340278
 20
5.632887098524305
 30
0.0
  0
VERTEX
  5
16A
330
FA
100
AcDbEntity
  8
STATE
 62
     2
100
AcDbVertex
100
AcDb2dVertex
 10
5.073310004340278
 20
5.639553493923611
 30
0.0
  0
VERTEX
  5
16B
330
FA
100
AcDbEntity
  8
STATE
 62
     2
100
AcDbVertex
100
AcDb2dVertex
 10
5.076639811197916
 20
5.649556477864583
 30
0.0
  0
VERTEX
  5
16C
330
FA
100
AcDbEntity
  8
STATE
 62
     2
100
AcDbVertex
100
AcDb2dVertex
 10
5.076639811197916
 20
5.669562445746528
 30
0.0
  0
VERTEX
  5
16D
330
FA
100
AcDbEntity
  8
STATE
 62
     2
100
AcDbVertex
100
AcDb2dVertex
 10
5.073310004340278
 20
5.672892252604166
 30
0.0
  0
VERTEX
  5
16E
330
FA
100
AcDbEntity
  8
STATE
 62
     2
100
AcDbVertex
100
AcDb2dVertex
 10
5.059977213541666
 20
5.6795654296875
 30
0.0
  0
VERTEX
  5
16F
330
FA
100
AcDbEntity
  8
STATE
 62
     2
100
AcDbVertex
100
AcDb2dVertex
 10
5.029975043402778
 20
5.672892252604166
 30
0.0
  0
VERTEX
  5
170
330
FA
100
AcDbEntity
  8
STATE
 62
     2
100
AcDbVertex
100
AcDb2dVertex
 10
5.023308648003472
 20
5.669562445746528
 30
0.0
  0
VERTEX
  5
171
330
FA
100
AcDbEntity
  8
STATE
 62
     2
100
AcDbVertex
100
AcDb2dVertex
 10
4.993306477864583
 20
5.659559461805555
 30
0.0
  0
VERTEX
  5
172
330
FA
100
AcDbEntity
  8
STATE
 62
     2
100
AcDbVertex
100
AcDb2dVertex
 10
4.983310275607638
 20
5.662896050347222
 30
0.0
  0
VERTEX
  5
173
330
FA
100
AcDbEntity
  8
STATE
 62
     2
100
AcDbVertex
100
AcDb2dVertex
 10
4.976643880208333
 20
5.662896050347222
 30
0.0
  0
VERTEX
  5
174
330
FA
100
AcDbEntity
  8
STATE
 62
     2
100
AcDbVertex
100
AcDb2dVertex
 10
4.963311089409722
 20
5.656222873263888
 30
0.0
  0
VERTEX
  5
175
330
FA
100
AcDbEntity
  8
STATE
 62
     2
100
AcDbVertex
100
AcDb2dVertex
 10
4.95330810546875
 20
5.65289306640625
 30
0.0
  0
VERTEX
  5
176
330
FA
100
AcDbEntity
  8
STATE
 62
     2
100
AcDbVertex
100
AcDb2dVertex
 10
4.949978298611111
 20
5.649556477864583
 30
0.0
  0
VERTEX
  5
177
330
FA
100
AcDbEntity
  8
STATE
 62
     2
100
AcDbVertex
100
AcDb2dVertex
 10
4.946641710069444
 20
5.646226671006944
 30
0.0
  0
VERTEX
  5
178
330
FA
100
AcDbEntity
  8
STATE
 62
     2
100
AcDbVertex
100
AcDb2dVertex
 10
4.9366455078125
 20
5.636223687065972
 30
0.0
  0
VERTEX
  5
179
330
FA
100
AcDbEntity
  8
STATE
 62
     2
100
AcDbVertex
100
AcDb2dVertex
 10
4.926642523871528
 20
5.626220703125
 30
0.0
  0
VERTEX
  5
17A
330
FA
100
AcDbEntity
  8
STATE
 62
     2
100
AcDbVertex
100
AcDb2dVertex
 10
4.923312717013888
 20
5.626220703125
 30
0.0
  0
VERTEX
  5
17B
330
FA
100
AcDbEntity
  8
STATE
 62
     2
100
AcDbVertex
100
AcDb2dVertex
 10
4.913309733072916
 20
5.622884114583333
 30
0.0
  0
VERTEX
  5
17C
330
FA
100
AcDbEntity
  8
STATE
 62
     2
100
AcDbVertex
100
AcDb2dVertex
 10
4.893310546875
 20
5.619554307725694
 30
0.0
  0
VERTEX
  5
17D
330
FA
100
AcDbEntity
  8
STATE
 62
     2
100
AcDbVertex
100
AcDb2dVertex
 10
4.886644151475694
 20
5.622884114583333
 30
0.0
  0
VERTEX
  5
17E
330
FA
100
AcDbEntity
  8
STATE
 62
     2
100
AcDbVertex
100
AcDb2dVertex
 10
4.873311360677083
 20
5.626220703125
 30
0.0
  0
VERTEX
  5
17F
330
FA
100
AcDbEntity
  8
STATE
 62
     2
100
AcDbVertex
100
AcDb2dVertex
 10
4.866644965277778
 20
5.632887098524305
 30
0.0
  0
VERTEX
  5
180
330
FA
100
AcDbEntity
  8
STATE
 62
     2
100
AcDbVertex
100
AcDb2dVertex
 10
4.863308376736111
 20
5.646226671006944
 30
0.0
  0
VERTEX
  5
181
330
FA
100
AcDbEntity
  8
STATE
 62
     2
100
AcDbVertex
100
AcDb2dVertex
 10
4.859978569878472
 20
5.65289306640625
 30
0.0
  0
VERTEX
  5
182
330
FA
100
AcDbEntity
  8
STATE
 62
     2
100
AcDbVertex
100
AcDb2dVertex
 10
4.853312174479166
 20
5.662896050347222
 30
0.0
  0
VERTEX
  5
183
330
FA
100
AcDbEntity
  8
STATE
 62
     2
100
AcDbVertex
100
AcDb2dVertex
 10
4.846645779079861
 20
5.669562445746528
 30
0.0
  0
VERTEX
  5
184
330
FA
100
AcDbEntity
  8
STATE
 62
     2
100
AcDbVertex
100
AcDb2dVertex
 10
4.826646592881944
 20
5.686231825086805
 30
0.0
  0
VERTEX
  5
185
330
FA
100
AcDbEntity
  8
STATE
 62
     2
100
AcDbVertex
100
AcDb2dVertex
 10
4.803310818142361
 20
5.692898220486111
 30
0.0
  0
VERTEX
  5
186
330
FA
100
AcDbEntity
  8
STATE
 62
     2
100
AcDbVertex
100
AcDb2dVertex
 10
4.796644422743055
 20
5.696234809027778
 30
0.0
  0
VERTEX
  5
187
330
FA
100
AcDbEntity
  8
STATE
 62
     2
100
AcDbVertex
100
AcDb2dVertex
 10
4.783311631944444
 20
5.702901204427083
 30
0.0
  0
VERTEX
  5
188
330
FA
100
AcDbEntity
  8
STATE
 62
     2
100
AcDbVertex
100
AcDb2dVertex
 10
4.776645236545138
 20
5.702901204427083
 30
0.0
  0
VERTEX
  5
189
330
FA
100
AcDbEntity
  8
STATE
 62
     2
100
AcDbVertex
100
AcDb2dVertex
 10
4.743313259548611
 20
5.716233995225694
 30
0.0
  0
VERTEX
  5
18A
330
FA
100
AcDbEntity
  8
STATE
 62
     2
100
AcDbVertex
100
AcDb2dVertex
 10
4.736646864149305
 20
5.739569769965278
 30
0.0
  0
VERTEX
  5
18B
330
FA
100
AcDbEntity
  8
STATE
 62
     2
100
AcDbVertex
100
AcDb2dVertex
 10
4.736646864149305
 20
5.742906358506944
 30
0.0
  0
VERTEX
  5
18C
330
FA
100
AcDbEntity
  8
STATE
 62
     2
100
AcDbVertex
100
AcDb2dVertex
 10
4.733310275607638
 20
5.74957275390625
 30
0.0
  0
VERTEX
  5
18D
330
FA
100
AcDbEntity
  8
STATE
 62
     2
100
AcDbVertex
100
AcDb2dVertex
 10
4.726643880208333
 20
5.759575737847222
 30
0.0
  0
VERTEX
  5
18E
330
FA
100
AcDbEntity
  8
STATE
 62
     2
100
AcDbVertex
100
AcDb2dVertex
 10
4.716647677951388
 20
5.762905544704861
 30
0.0
  0
VERTEX
  5
18F
330
FA
100
AcDbEntity
  8
STATE
 62
     2
100
AcDbVertex
100
AcDb2dVertex
 10
4.713311089409722
 20
5.762905544704861
 30
0.0
  0
VERTEX
  5
190
330
FA
100
AcDbEntity
  8
STATE
 62
     2
100
AcDbVertex
100
AcDb2dVertex
 10
4.709974500868055
 20
5.759575737847222
 30
0.0
  0
VERTEX
  5
191
330
FA
100
AcDbEntity
  8
STATE
 62
     2
100
AcDbVertex
100
AcDb2dVertex
 10
4.70330810546875
 20
5.752909342447916
 30
0.0
  0
VERTEX
  5
192
330
FA
100
AcDbEntity
  8
STATE
 62
     2
100
AcDbVertex
100
AcDb2dVertex
 10
4.689975314670138
 20
5.742906358506944
 30
0.0
  0
VERTEX
  5
193
330
FA
100
AcDbEntity
  8
STATE
 62
     2
100
AcDbVertex
100
AcDb2dVertex
 10
4.693311903211805
 20
5.732903374565972
 30
0.0
  0
VERTEX
  5
194
330
FA
100
AcDbEntity
  8
STATE
 62
     2
100
AcDbVertex
100
AcDb2dVertex
 10
4.699978298611111
 20
5.726236979166666
 30
0.0
  0
VERTEX
  5
195
330
FA
100
AcDbEntity
  8
STATE
 62
     2
100
AcDbVertex
100
AcDb2dVertex
 10
4.70330810546875
 20
5.716233995225694
 30
0.0
  0
VERTEX
  5
196
330
FA
100
AcDbEntity
  8
STATE
 62
     2
100
AcDbVertex
100
AcDb2dVertex
 10
4.626641167534722
 20
5.716233995225694
 30
0.0
  0
VERTEX
  5
197
330
FA
100
AcDbEntity
  8
STATE
 62
     2
100
AcDbVertex
100
AcDb2dVertex
 10
4.629977756076388
 20
5.729573567708333
 30
0.0
  0
VERTEX
  5
198
330
FA
100
AcDbEntity
  8
STATE
 62
     2
100
AcDbVertex
100
AcDb2dVertex
 10
4.629977756076388
 20
5.739569769965278
 30
0.0
  0
VERTEX
  5
199
330
FA
100
AcDbEntity
  8
STATE
 62
     2
100
AcDbVertex
100
AcDb2dVertex
 10
4.629977756076388
 20
5.742906358506944
 30
0.0
  0
VERTEX
  5
19A
330
FA
100
AcDbEntity
  8
STATE
 62
     2
100
AcDbVertex
100
AcDb2dVertex
 10
4.596645779079861
 20
5.759575737847222
 30
0.0
  0
VERTEX
  5
19B
330
FA
100
AcDbEntity
  8
STATE
 62
     2
100
AcDbVertex
100
AcDb2dVertex
 10
4.593309190538194
 20
5.759575737847222
 30
0.0
  0
VERTEX
  5
19C
330
FA
100
AcDbEntity
  8
STATE
 62
     2
100
AcDbVertex
100
AcDb2dVertex
 10
4.589979383680555
 20
5.759575737847222
 30
0.0
  0
VERTEX
  5
19D
330
FA
100
AcDbEntity
  8
STATE
 62
     2
100
AcDbVertex
100
AcDb2dVertex
 10
4.586642795138888
 20
5.759575737847222
 30
0.0
  0
VERTEX
  5
19E
330
FA
100
AcDbEntity
  8
STATE
 62
     2
100
AcDbVertex
100
AcDb2dVertex
 10
4.563313802083333
 20
5.746242947048611
 30
0.0
  0
VERTEX
  5
19F
330
FA
100
AcDbEntity
  8
STATE
 62
     2
100
AcDbVertex
100
AcDb2dVertex
 10
4.556647406684028
 20
5.739569769965278
 30
0.0
  0
VERTEX
  5
1A0
330
FA
100
AcDbEntity
  8
STATE
 62
     2
100
AcDbVertex
100
AcDb2dVertex
 10
4.549981011284722
 20
5.739569769965278
 30
0.0
  0
VERTEX
  5
1A1
330
FA
100
AcDbEntity
  8
STATE
 62
     2
100
AcDbVertex
100
AcDb2dVertex
 10
4.493313259548611
 20
5.722900390625
 30
0.0
  0
VERTEX
  5
1A2
330
FA
100
AcDbEntity
  8
STATE
 62
     2
100
AcDbVertex
100
AcDb2dVertex
 10
4.483310275607638
 20
5.722900390625
 30
0.0
  0
VERTEX
  5
1A3
330
FA
100
AcDbEntity
  8
STATE
 62
     2
100
AcDbVertex
100
AcDb2dVertex
 10
4.449978298611111
 20
5.716233995225694
 30
0.0
  0
VERTEX
  5
1A4
330
FA
100
AcDbEntity
  8
STATE
 62
     2
100
AcDbVertex
100
AcDb2dVertex
 10
4.373311360677083
 20
5.702901204427083
 30
0.0
  0
VERTEX
  5
1A5
330
FA
100
AcDbEntity
  8
STATE
 62
     2
100
AcDbVertex
100
AcDb2dVertex
 10
4.346645779079861
 20
5.699564615885416
 30
0.0
  0
VERTEX
  5
1A6
330
FA
100
AcDbEntity
  8
STATE
 62
     2
100
AcDbVertex
100
AcDb2dVertex
 10
4.326646592881945
 20
5.709567599826388
 30
0.0
  0
VERTEX
  5
1A7
330
FA
100
AcDbEntity
  8
STATE
 62
     2
100
AcDbVertex
100
AcDb2dVertex
 10
4.313313802083333
 20
5.739569769965278
 30
0.0
  0
VERTEX
  5
1A8
330
FA
100
AcDbEntity
  8
STATE
 62
     2
100
AcDbVertex
100
AcDb2dVertex
 10
4.309977213541666
 20
5.74957275390625
 30
0.0
  0
VERTEX
  5
1A9
330
FA
100
AcDbEntity
  8
STATE
 62
     2
100
AcDbVertex
100
AcDb2dVertex
 10
4.329976399739583
 20
5.756239149305555
 30
0.0
  0
VERTEX
  5
1AA
330
FA
100
AcDbEntity
  8
STATE
 62
     2
100
AcDbVertex
100
AcDb2dVertex
 10
4.326646592881945
 20
5.766242133246528
 30
0.0
  0
VERTEX
  5
1AB
330
FA
100
AcDbEntity
  8
STATE
 62
     2
100
AcDbVertex
100
AcDb2dVertex
 10
4.316643608940972
 20
5.772908528645833
 30
0.0
  0
VERTEX
  5
1AC
330
FA
100
AcDbEntity
  8
STATE
 62
     2
100
AcDbVertex
100
AcDb2dVertex
 10
4.303310818142361
 20
5.766242133246528
 30
0.0
  0
VERTEX
  5
1AD
330
FA
100
AcDbEntity
  8
STATE
 62
     2
100
AcDbVertex
100
AcDb2dVertex
 10
4.293314615885416
 20
5.809583875868055
 30
0.0
  0
VERTEX
  5
1AE
330
FA
100
AcDbEntity
  8
STATE
 62
     2
100
AcDbVertex
100
AcDb2dVertex
 10
4.28997802734375
 20
5.822916666666666
 30
0.0
  0
VERTEX
  5
1AF
330
FA
100
AcDbEntity
  8
STATE
 62
     2
100
AcDbVertex
100
AcDb2dVertex
 10
4.279981825086805
 20
5.84625244140625
 30
0.0
  0
VERTEX
  5
1B0
330
FA
100
AcDbEntity
  8
STATE
 62
     2
100
AcDbVertex
100
AcDb2dVertex
 10
4.276645236545138
 20
5.849589029947916
 30
0.0
  0
VERTEX
  5
1B1
330
FA
100
AcDbEntity
  8
STATE
 62
     2
100
AcDbVertex
100
AcDb2dVertex
 10
4.276645236545138
 20
5.852925618489583
 30
0.0
  0
VERTEX
  5
1B2
330
FA
100
AcDbEntity
  8
STATE
 62
     2
100
AcDbVertex
100
AcDb2dVertex
 10
4.269978841145833
 20
5.859592013888888
 30
0.0
  0
VERTEX
  5
1B3
330
FA
100
AcDbEntity
  8
STATE
 62
     2
100
AcDbVertex
100
AcDb2dVertex
 10
4.259982638888888
 20
5.876261393229166
 30
0.0
  0
VERTEX
  5
1B4
330
FA
100
AcDbEntity
  8
STATE
 62
     2
100
AcDbVertex
100
AcDb2dVertex
 10
4.249979654947916
 20
5.886257595486111
 30
0.0
  0
VERTEX
  5
1B5
330
FA
100
AcDbEntity
  8
STATE
 62
     2
100
AcDbVertex
100
AcDb2dVertex
 10
4.236646864149305
 20
5.896260579427083
 30
0.0
  0
VERTEX
  5
1B6
330
FA
100
AcDbEntity
  8
STATE
 62
     2
100
AcDbVertex
100
AcDb2dVertex
 10
4.203314887152778
 20
5.912929958767361
 30
0.0
  0
VERTEX
  5
1B7
330
FA
100
AcDbEntity
  8
STATE
 62
     2
100
AcDbVertex
100
AcDb2dVertex
 10
4.203314887152778
 20
5.916266547309028
 30
0.0
  0
VERTEX
  5
1B8
330
FA
100
AcDbEntity
  8
STATE
 62
     2
100
AcDbVertex
100
AcDb2dVertex
 10
4.199978298611111
 20
5.922932942708333
 30
0.0
  0
VERTEX
  5
1B9
330
FA
100
AcDbEntity
  8
STATE
 62
     2
100
AcDbVertex
100
AcDb2dVertex
 10
4.199978298611111
 20
5.946268717447916
 30
0.0
  0
VERTEX
  5
1BA
330
FA
100
AcDbEntity
  8
STATE
 62
     2
100
AcDbVertex
100
AcDb2dVertex
 10
4.196648491753472
 20
5.962938096788194
 30
0.0
  0
VERTEX
  5
1BB
330
FA
100
AcDbEntity
  8
STATE
 62
     2
100
AcDbVertex
100
AcDb2dVertex
 10
4.196648491753472
 20
5.9696044921875
 30
0.0
  0
VERTEX
  5
1BC
330
FA
100
AcDbEntity
  8
STATE
 62
     2
100
AcDbVertex
100
AcDb2dVertex
 10
4.193311903211805
 20
5.9696044921875
 30
0.0
  0
VERTEX
  5
1BD
330
FA
100
AcDbEntity
  8
STATE
 62
     2
100
AcDbVertex
100
AcDb2dVertex
 10
4.193311903211805
 20
5.972941080729166
 30
0.0
  0
VERTEX
  5
1BE
330
FA
100
AcDbEntity
  8
STATE
 62
     2
100
AcDbVertex
100
AcDb2dVertex
 10
4.189982096354166
 20
5.979607476128472
 30
0.0
  0
VERTEX
  5
1BF
330
FA
100
AcDbEntity
  8
STATE
 62
     2
100
AcDbVertex
100
AcDb2dVertex
 10
4.183315700954861
 20
5.99627685546875
 30
0.0
  0
VERTEX
  5
1C0
330
FA
100
AcDbEntity
  8
STATE
 62
     2
100
AcDbVertex
100
AcDb2dVertex
 10
4.179979112413195
 20
5.999613444010416
 30
0.0
  0
VERTEX
  5
1C1
330
FA
100
AcDbEntity
  8
STATE
 62
     2
100
AcDbVertex
100
AcDb2dVertex
 10
4.159979926215278
 20
6.016282823350694
 30
0.0
  0
VERTEX
  5
1C2
330
FA
100
AcDbEntity
  8
STATE
 62
     2
100
AcDbVertex
100
AcDb2dVertex
 10
4.156650119357638
 20
6.02294921875
 30
0.0
  0
VERTEX
  5
1C3
330
FA
100
AcDbEntity
  8
STATE
 62
     2
100
AcDbVertex
100
AcDb2dVertex
 10
4.149983723958333
 20
6.026285807291666
 30
0.0
  0
VERTEX
  5
1C4
330
FA
100
AcDbEntity
  8
STATE
 62
     2
100
AcDbVertex
100
AcDb2dVertex
 10
4.129977756076388
 20
6.042955186631944
 30
0.0
  0
VERTEX
  5
1C5
330
FA
100
AcDbEntity
  8
STATE
 62
     2
100
AcDbVertex
100
AcDb2dVertex
 10
4.113315158420138
 20
6.062954372829861
 30
0.0
  0
VERTEX
  5
1C6
330
FA
100
AcDbEntity
  8
STATE
 62
     2
100
AcDbVertex
100
AcDb2dVertex
 10
4.106648763020833
 20
6.0762939453125
 30
0.0
  0
VERTEX
  5
1C7
330
FA
100
AcDbEntity
  8
STATE
 62
     2
100
AcDbVertex
100
AcDb2dVertex
 10
4.103312174479166
 20
6.079623752170138
 30
0.0
  0
VERTEX
  5
1C8
330
FA
100
AcDbEntity
  8
STATE
 62
     2
100
AcDbVertex
100
AcDb2dVertex
 10
4.106648763020833
 20
6.152967664930555
 30
0.0
  0
VERTEX
  5
1C9
330
FA
100
AcDbEntity
  8
STATE
 62
     2
100
AcDbVertex
100
AcDb2dVertex
 10
4.106648763020833
 20
6.169637044270833
 30
0.0
  0
VERTEX
  5
1CA
330
FA
100
AcDbEntity
  8
STATE
 62
     2
100
AcDbVertex
100
AcDb2dVertex
 10
4.099982367621528
 20
6.182976616753472
 30
0.0
  0
VERTEX
  5
1CB
330
FA
100
AcDbEntity
  8
STATE
 62
     2
100
AcDbVertex
100
AcDb2dVertex
 10
4.069980197482638
 20
6.219645182291666
 30
0.0
  0
VERTEX
  5
1CC
330
FA
100
AcDbEntity
  8
STATE
 62
     2
100
AcDbVertex
100
AcDb2dVertex
 10
4.0233154296875
 20
6.249647352430555
 30
0.0
  0
VERTEX
  5
1CD
330
FA
100
AcDbEntity
  8
STATE
 62
     2
100
AcDbVertex
100
AcDb2dVertex
 10
4.016649034288195
 20
6.256320529513888
 30
0.0
  0
VERTEX
  5
1CE
330
FA
100
AcDbEntity
  8
STATE
 62
     2
100
AcDbVertex
100
AcDb2dVertex
 10
4.019978841145833
 20
6.259650336371528
 30
0.0
  0
VERTEX
  5
1CF
330
FA
100
AcDbEntity
  8
STATE
 62
     2
100
AcDbVertex
100
AcDb2dVertex
 10
4.063313802083333
 20
6.2696533203125
 30
0.0
  0
VERTEX
  5
1D0
330
FA
100
AcDbEntity
  8
STATE
 62
     2
100
AcDbVertex
100
AcDb2dVertex
 10
4.183315700954861
 20
6.276319715711805
 30
0.0
  0
VERTEX
  5
1D1
330
FA
100
AcDbEntity
  8
STATE
 62
     2
100
AcDbVertex
100
AcDb2dVertex
 10
4.219977484809028
 20
6.266316731770833
 30
0.0
  0
VERTEX
  5
1D2
330
FA
100
AcDbEntity
  8
STATE
 62
     2
100
AcDbVertex
100
AcDb2dVertex
 10
4.279981825086805
 20
6.272989908854166
 30
0.0
  0
VERTEX
  5
1D3
330
FA
100
AcDbEntity
  8
STATE
 62
     2
100
AcDbVertex
100
AcDb2dVertex
 10
4.303310818142361
 20
6.276319715711805
 30
0.0
  0
VERTEX
  5
1D4
330
FA
100
AcDbEntity
  8
STATE
 62
     2
100
AcDbVertex
100
AcDb2dVertex
 10
4.306647406684028
 20
6.279656304253471
 30
0.0
  0
VERTEX
  5
1D5
330
FA
100
AcDbEntity
  8
STATE
 62
     2
100
AcDbVertex
100
AcDb2dVertex
 10
4.339979383680555
 20
6.29632568359375
 30
0.0
  0
VERTEX
  5
1D6
330
FA
100
AcDbEntity
  8
STATE
 62
     2
100
AcDbVertex
100
AcDb2dVertex
 10
4.339979383680555
 20
6.299655490451388
 30
0.0
  0
VERTEX
  5
1D7
330
FA
100
AcDbEntity
  8
STATE
 62
     2
100
AcDbVertex
100
AcDb2dVertex
 10
4.339979383680555
 20
6.309658474392361
 30
0.0
  0
VERTEX
  5
1D8
330
FA
100
AcDbEntity
  8
STATE
 62
     2
100
AcDbVertex
100
AcDb2dVertex
 10
4.33331298828125
 20
6.312995062934028
 30
0.0
  0
VERTEX
  5
1D9
330
FA
100
AcDbEntity
  8
STATE
 62
     2
100
AcDbVertex
100
AcDb2dVertex
 10
4.336642795138888
 20
6.319661458333333
 30
0.0
  0
VERTEX
  5
1DA
330
FA
100
AcDbEntity
  8
STATE
 62
     2
100
AcDbVertex
100
AcDb2dVertex
 10
4.346645779079861
 20
6.326327853732638
 30
0.0
  0
VERTEX
  5
1DB
330
FA
100
AcDbEntity
  8
STATE
 62
     2
100
AcDbVertex
100
AcDb2dVertex
 10
4.389980740017361
 20
6.359666612413194
 30
0.0
  0
VERTEX
  5
1DC
330
FA
100
AcDbEntity
  8
STATE
 62
     2
100
AcDbVertex
100
AcDb2dVertex
 10
4.413309733072916
 20
6.389675564236111
 30
0.0
  0
VERTEX
  5
1DD
330
FA
100
AcDbEntity
  8
STATE
 62
     2
100
AcDbVertex
100
AcDb2dVertex
 10
4.413309733072916
 20
6.406344943576388
 30
0.0
  0
VERTEX
  5
1DE
330
FA
100
AcDbEntity
  8
STATE
 62
     2
100
AcDbVertex
100
AcDb2dVertex
 10
4.419976128472222
 20
6.419677734375
 30
0.0
  0
VERTEX
  5
1DF
330
FA
100
AcDbEntity
  8
STATE
 62
     2
100
AcDbVertex
100
AcDb2dVertex
 10
4.423312717013888
 20
6.426344129774305
 30
0.0
  0
VERTEX
  5
1E0
330
FA
100
AcDbEntity
  8
STATE
 62
     2
100
AcDbVertex
100
AcDb2dVertex
 10
4.469977484809028
 20
6.469685872395833
 30
0.0
  0
VERTEX
  5
1E1
330
FA
100
AcDbEntity
  8
STATE
 62
     2
100
AcDbVertex
100
AcDb2dVertex
 10
4.493313259548611
 20
6.493021647135416
 30
0.0
  0
VERTEX
  5
1E2
330
FA
100
AcDbEntity
  8
STATE
 62
     2
100
AcDbVertex
100
AcDb2dVertex
 10
4.503309461805555
 20
6.503024631076388
 30
0.0
  0
VERTEX
  5
1E3
330
FA
100
AcDbEntity
  8
STATE
 62
     2
100
AcDbVertex
100
AcDb2dVertex
 10
4.553310818142361
 20
6.519694010416666
 30
0.0
  0
VERTEX
  5
1E4
330
FA
100
AcDbEntity
  8
STATE
 62
     2
100
AcDbVertex
100
AcDb2dVertex
 10
4.563313802083333
 20
6.526360405815971
 30
0.0
  0
VERTEX
  5
1E5
330
FA
100
AcDbEntity
  8
STATE
 62
     2
100
AcDbVertex
100
AcDb2dVertex
 10
4.596645779079861
 20
6.526360405815971
 30
0.0
  0
VERTEX
  5
1E6
330
FA
100
AcDbEntity
  8
STATE
 62
     2
100
AcDbVertex
100
AcDb2dVertex
 10
4.626641167534722
 20
6.493021647135416
 30
0.0
  0
SEQEND
  5
1E7
330
FA
100
AcDbEntity
  8
STATE
  0
POLYLINE
  5
1E8
330
3C
100
AcDbEntity
  8
STATE
 62
     2
100
AcDb2dPolyline
 66
     1
 10
0.0
 20
0.0
 30
0.0
  0
VERTEX
  5
1E9
330
1E8
100
AcDbEntity
  8
STATE
 62
     2
100
AcDbVertex
100
AcDb2dVertex
 10
1.813320583767361
 20
7.566521538628471
 30
0.0
  0
VERTEX
  5
1EA
330
1E8
100
AcDbEntity
  8
STATE
 62
     2
100
AcDbVertex
100
AcDb2dVertex
 10
1.833326551649305
 20
7.569851345486111
 30
0.0
  0
VERTEX
  5
1EB
330
1E8
100
AcDbEntity
  8
STATE
 62
     2
100
AcDbVertex
100
AcDb2dVertex
 10
1.859992133246528
 20
7.566521538628471
 30
0.0
  0
VERTEX
  5
1EC
330
1E8
100
AcDbEntity
  8
STATE
 62
     2
100
AcDbVertex
100
AcDb2dVertex
 10
1.879991319444444
 20
7.553181966145833
 30
0.0
  0
VERTEX
  5
1ED
330
1E8
100
AcDbEntity
  8
STATE
 62
     2
100
AcDbVertex
100
AcDb2dVertex
 10
1.896653917100694
 20
7.559855143229166
 30
0.0
  0
VERTEX
  5
1EE
330
1E8
100
AcDbEntity
  8
STATE
 62
     2
100
AcDbVertex
100
AcDb2dVertex
 10
1.926656087239583
 20
7.573187934027778
 30
0.0
  0
VERTEX
  5
1EF
330
1E8
100
AcDbEntity
  8
STATE
 62
     2
100
AcDbVertex
100
AcDb2dVertex
 10
1.959994845920139
 20
7.559855143229166
 30
0.0
  0
VERTEX
  5
1F0
330
1E8
100
AcDbEntity
  8
STATE
 62
     2
100
AcDbVertex
100
AcDb2dVertex
 10
1.959994845920139
 20
7.5565185546875
 30
0.0
  0
VERTEX
  5
1F1
330
1E8
100
AcDbEntity
  8
STATE
 62
     2
100
AcDbVertex
100
AcDb2dVertex
 10
1.963324652777778
 20
7.549852159288194
 30
0.0
  0
VERTEX
  5
1F2
330
1E8
100
AcDbEntity
  8
STATE
 62
     2
100
AcDbVertex
100
AcDb2dVertex
 10
1.989990234375
 20
7.543185763888888
 30
0.0
  0
VERTEX
  5
1F3
330
1E8
100
AcDbEntity
  8
STATE
 62
     2
100
AcDbVertex
100
AcDb2dVertex
 10
1.999993218315972
 20
7.539849175347221
 30
0.0
  0
VERTEX
  5
1F4
330
1E8
100
AcDbEntity
  8
STATE
 62
     2
100
AcDbVertex
100
AcDb2dVertex
 10
2.013319227430555
 20
7.539849175347221
 30
0.0
  0
VERTEX
  5
1F5
330
1E8
100
AcDbEntity
  8
STATE
 62
     2
100
AcDbVertex
100
AcDb2dVertex
 10
2.016655815972222
 20
7.546522352430555
 30
0.0
  0
VERTEX
  5
1F6
330
1E8
100
AcDbEntity
  8
STATE
 62
     2
100
AcDbVertex
100
AcDb2dVertex
 10
2.023322211371528
 20
7.546522352430555
 30
0.0
  0
VERTEX
  5
1F7
330
1E8
100
AcDbEntity
  8
STATE
 62
     2
100
AcDbVertex
100
AcDb2dVertex
 10
2.049994574652778
 20
7.526516384548611
 30
0.0
  0
VERTEX
  5
1F8
330
1E8
100
AcDbEntity
  8
STATE
 62
     2
100
AcDbVertex
100
AcDb2dVertex
 10
2.053324381510417
 20
7.523179796006944
 30
0.0
  0
VERTEX
  5
1F9
330
1E8
100
AcDbEntity
  8
STATE
 62
     2
100
AcDbVertex
100
AcDb2dVertex
 10
2.063320583767361
 20
7.51318359375
 30
0.0
  0
VERTEX
  5
1FA
330
1E8
100
AcDbEntity
  8
STATE
 62
     2
100
AcDbVertex
100
AcDb2dVertex
 10
2.079989963107639
 20
7.496514214409721
 30
0.0
  0
VERTEX
  5
1FB
330
1E8
100
AcDbEntity
  8
STATE
 62
     2
100
AcDbVertex
100
AcDb2dVertex
 10
2.09332275390625
 20
7.483174641927083
 30
0.0
  0
VERTEX
  5
1FC
330
1E8
100
AcDbEntity
  8
STATE
 62
     2
100
AcDbVertex
100
AcDb2dVertex
 10
2.096652560763889
 20
7.469841851128471
 30
0.0
  0
VERTEX
  5
1FD
330
1E8
100
AcDbEntity
  8
STATE
 62
     2
100
AcDbVertex
100
AcDb2dVertex
 10
2.099989149305555
 20
7.463175455729166
 30
0.0
  0
VERTEX
  5
1FE
330
1E8
100
AcDbEntity
  8
STATE
 62
     2
100
AcDbVertex
100
AcDb2dVertex
 10
2.099989149305555
 20
7.4598388671875
 30
0.0
  0
VERTEX
  5
1FF
330
1E8
100
AcDbEntity
  8
STATE
 62
     2
100
AcDbVertex
100
AcDb2dVertex
 10
2.099989149305555
 20
7.449835883246528
 30
0.0
  0
VERTEX
  5
200
330
1E8
100
AcDbEntity
  8
STATE
 62
     2
100
AcDbVertex
100
AcDb2dVertex
 10
2.103318956163194
 20
7.443169487847221
 30
0.0
  0
VERTEX
  5
201
330
1E8
100
AcDbEntity
  8
STATE
 62
     2
100
AcDbVertex
100
AcDb2dVertex
 10
2.103318956163194
 20
7.439832899305555
 30
0.0
  0
VERTEX
  5
202
330
1E8
100
AcDbEntity
  8
STATE
 62
     2
100
AcDbVertex
100
AcDb2dVertex
 10
2.103318956163194
 20
7.436503092447916
 30
0.0
  0
VERTEX
  5
203
330
1E8
100
AcDbEntity
  8
STATE
 62
     2
100
AcDbVertex
100
AcDb2dVertex
 10
2.103318956163194
 20
7.429836697048611
 30
0.0
  0
VERTEX
  5
204
330
1E8
100
AcDbEntity
  8
STATE
 62
     2
100
AcDbVertex
100
AcDb2dVertex
 10
2.106655544704861
 20
7.426500108506944
 30
0.0
  0
VERTEX
  5
205
330
1E8
100
AcDbEntity
  8
STATE
 62
     2
100
AcDbVertex
100
AcDb2dVertex
 10
2.106655544704861
 20
7.423163519965278
 30
0.0
  0
VERTEX
  5
206
330
1E8
100
AcDbEntity
  8
STATE
 62
     2
100
AcDbVertex
100
AcDb2dVertex
 10
2.1099853515625
 20
7.419833713107638
 30
0.0
  0
VERTEX
  5
207
330
1E8
100
AcDbEntity
  8
STATE
 62
     2
100
AcDbVertex
100
AcDb2dVertex
 10
2.119988335503472
 20
7.413167317708333
 30
0.0
  0
VERTEX
  5
208
330
1E8
100
AcDbEntity
  8
STATE
 62
     2
100
AcDbVertex
100
AcDb2dVertex
 10
2.123324924045139
 20
7.413167317708333
 30
0.0
  0
VERTEX
  5
209
330
1E8
100
AcDbEntity
  8
STATE
 62
     2
100
AcDbVertex
100
AcDb2dVertex
 10
2.126654730902778
 20
7.409830729166666
 30
0.0
  0
VERTEX
  5
20A
330
1E8
100
AcDbEntity
  8
STATE
 62
     2
100
AcDbVertex
100
AcDb2dVertex
 10
2.129991319444444
 20
7.403164333767361
 30
0.0
  0
VERTEX
  5
20B
330
1E8
100
AcDbEntity
  8
STATE
 62
     2
100
AcDbVertex
100
AcDb2dVertex
 10
2.129991319444444
 20
7.399827745225694
 30
0.0
  0
VERTEX
  5
20C
330
1E8
100
AcDbEntity
  8
STATE
 62
     2
100
AcDbVertex
100
AcDb2dVertex
 10
2.129991319444444
 20
7.389824761284721
 30
0.0
  0
VERTEX
  5
20D
330
1E8
100
AcDbEntity
  8
STATE
 62
     2
100
AcDbVertex
100
AcDb2dVertex
 10
2.129991319444444
 20
7.376491970486111
 30
0.0
  0
VERTEX
  5
20E
330
1E8
100
AcDbEntity
  8
STATE
 62
     2
100
AcDbVertex
100
AcDb2dVertex
 10
2.129991319444444
 20
7.369825575086805
 30
0.0
  0
VERTEX
  5
20F
330
1E8
100
AcDbEntity
  8
STATE
 62
     2
100
AcDbVertex
100
AcDb2dVertex
 10
2.129991319444444
 20
7.359822591145833
 30
0.0
  0
VERTEX
  5
210
330
1E8
100
AcDbEntity
  8
STATE
 62
     2
100
AcDbVertex
100
AcDb2dVertex
 10
2.129991319444444
 20
7.356486002604166
 30
0.0
  0
VERTEX
  5
211
330
1E8
100
AcDbEntity
  8
STATE
 62
     2
100
AcDbVertex
100
AcDb2dVertex
 10
2.129991319444444
 20
7.346489800347221
 30
0.0
  0
VERTEX
  5
212
330
1E8
100
AcDbEntity
  8
STATE
 62
     2
100
AcDbVertex
100
AcDb2dVertex
 10
2.126654730902778
 20
7.339816623263888
 30
0.0
  0
VERTEX
  5
213
330
1E8
100
AcDbEntity
  8
STATE
 62
     2
100
AcDbVertex
100
AcDb2dVertex
 10
2.116658528645833
 20
7.316480848524305
 30
0.0
  0
VERTEX
  5
214
330
1E8
100
AcDbEntity
  8
STATE
 62
     2
100
AcDbVertex
100
AcDb2dVertex
 10
2.106655544704861
 20
7.303148057725694
 30
0.0
  0
VERTEX
  5
215
330
1E8
100
AcDbEntity
  8
STATE
 62
     2
100
AcDbVertex
100
AcDb2dVertex
 10
2.089986165364583
 20
7.273139105902778
 30
0.0
  0
VERTEX
  5
216
330
1E8
100
AcDbEntity
  8
STATE
 62
     2
100
AcDbVertex
100
AcDb2dVertex
 10
2.089986165364583
 20
7.269809299045138
 30
0.0
  0
VERTEX
  5
217
330
1E8
100
AcDbEntity
  8
STATE
 62
     2
100
AcDbVertex
100
AcDb2dVertex
 10
2.086656358506944
 20
7.259806315104166
 30
0.0
  0
VERTEX
  5
218
330
1E8
100
AcDbEntity
  8
STATE
 62
     2
100
AcDbVertex
100
AcDb2dVertex
 10
2.079989963107639
 20
7.236470540364583
 30
0.0
  0
VERTEX
  5
219
330
1E8
100
AcDbEntity
  8
STATE
 62
     2
100
AcDbVertex
100
AcDb2dVertex
 10
2.07666015625
 20
7.229804144965278
 30
0.0
  0
VERTEX
  5
21A
330
1E8
100
AcDbEntity
  8
STATE
 62
     2
100
AcDbVertex
100
AcDb2dVertex
 10
2.059990776909722
 20
7.219801161024305
 30
0.0
  0
VERTEX
  5
21B
330
1E8
100
AcDbEntity
  8
STATE
 62
     2
100
AcDbVertex
100
AcDb2dVertex
 10
2.056654188368055
 20
7.216464572482638
 30
0.0
  0
VERTEX
  5
21C
330
1E8
100
AcDbEntity
  8
STATE
 62
     2
100
AcDbVertex
100
AcDb2dVertex
 10
2.053324381510417
 20
7.209798177083333
 30
0.0
  0
VERTEX
  5
21D
330
1E8
100
AcDbEntity
  8
STATE
 62
     2
100
AcDbVertex
100
AcDb2dVertex
 10
2.053324381510417
 20
7.206468370225694
 30
0.0
  0
VERTEX
  5
21E
330
1E8
100
AcDbEntity
  8
STATE
 62
     2
100
AcDbVertex
100
AcDb2dVertex
 10
2.049994574652778
 20
7.206468370225694
 30
0.0
  0
VERTEX
  5
21F
330
1E8
100
AcDbEntity
  8
STATE
 62
     2
100
AcDbVertex
100
AcDb2dVertex
 10
2.049994574652778
 20
7.203131781684028
 30
0.0
  0
VERTEX
  5
220
330
1E8
100
AcDbEntity
  8
STATE
 62
     2
100
AcDbVertex
100
AcDb2dVertex
 10
2.043328179253472
 20
7.169793023003471
 30
0.0
  0
VERTEX
  5
221
330
1E8
100
AcDbEntity
  8
STATE
 62
     2
100
AcDbVertex
100
AcDb2dVertex
 10
2.049994574652778
 20
7.119784884982638
 30
0.0
  0
VERTEX
  5
222
330
1E8
100
AcDbEntity
  8
STATE
 62
     2
100
AcDbVertex
100
AcDb2dVertex
 10
2.053324381510417
 20
7.106452094184028
 30
0.0
  0
VERTEX
  5
223
330
1E8
100
AcDbEntity
  8
STATE
 62
     2
100
AcDbVertex
100
AcDb2dVertex
 10
2.056654188368055
 20
7.076443142361111
 30
0.0
  0
VERTEX
  5
224
330
1E8
100
AcDbEntity
  8
STATE
 62
     2
100
AcDbVertex
100
AcDb2dVertex
 10
2.056654188368055
 20
7.066446940104166
 30
0.0
  0
VERTEX
  5
225
330
1E8
100
AcDbEntity
  8
STATE
 62
     2
100
AcDbVertex
100
AcDb2dVertex
 10
2.056654188368055
 20
7.056443956163194
 30
0.0
  0
VERTEX
  5
226
330
1E8
100
AcDbEntity
  8
STATE
 62
     2
100
AcDbVertex
100
AcDb2dVertex
 10
2.056654188368055
 20
7.039774576822916
 30
0.0
  0
VERTEX
  5
227
330
1E8
100
AcDbEntity
  8
STATE
 62
     2
100
AcDbVertex
100
AcDb2dVertex
 10
2.056654188368055
 20
7.033108181423611
 30
0.0
  0
VERTEX
  5
228
330
1E8
100
AcDbEntity
  8
STATE
 62
     2
100
AcDbVertex
100
AcDb2dVertex
 10
2.046657986111111
 20
7.029771592881944
 30
0.0
  0
VERTEX
  5
229
330
1E8
100
AcDbEntity
  8
STATE
 62
     2
100
AcDbVertex
100
AcDb2dVertex
 10
2.039991590711805
 20
7.023105197482638
 30
0.0
  0
VERTEX
  5
22A
330
1E8
100
AcDbEntity
  8
STATE
 62
     2
100
AcDbVertex
100
AcDb2dVertex
 10
2.026658799913194
 20
7.013102213541666
 30
0.0
  0
VERTEX
  5
22B
330
1E8
100
AcDbEntity
  8
STATE
 62
     2
100
AcDbVertex
100
AcDb2dVertex
 10
2.013319227430555
 20
6.993096245659721
 30
0.0
  0
VERTEX
  5
22C
330
1E8
100
AcDbEntity
  8
STATE
 62
     2
100
AcDbVertex
100
AcDb2dVertex
 10
1.966661241319444
 20
6.963094075520833
 30
0.0
  0
VERTEX
  5
22D
330
1E8
100
AcDbEntity
  8
STATE
 62
     2
100
AcDbVertex
100
AcDb2dVertex
 10
1.936659071180555
 20
6.929755316840278
 30
0.0
  0
VERTEX
  5
22E
330
1E8
100
AcDbEntity
  8
STATE
 62
     2
100
AcDbVertex
100
AcDb2dVertex
 10
1.916659884982639
 20
6.909756130642361
 30
0.0
  0
VERTEX
  5
22F
330
1E8
100
AcDbEntity
  8
STATE
 62
     2
100
AcDbVertex
100
AcDb2dVertex
 10
1.896653917100694
 20
6.893086751302083
 30
0.0
  0
VERTEX
  5
230
330
1E8
100
AcDbEntity
  8
STATE
 62
     2
100
AcDbVertex
100
AcDb2dVertex
 10
1.883327907986111
 20
6.883083767361111
 30
0.0
  0
VERTEX
  5
231
330
1E8
100
AcDbEntity
  8
STATE
 62
     2
100
AcDbVertex
100
AcDb2dVertex
 10
1.879991319444444
 20
6.879747178819444
 30
0.0
  0
VERTEX
  5
232
330
1E8
100
AcDbEntity
  8
STATE
 62
     2
100
AcDbVertex
100
AcDb2dVertex
 10
1.873324924045139
 20
6.876417371961805
 30
0.0
  0
VERTEX
  5
233
330
1E8
100
AcDbEntity
  8
STATE
 62
     2
100
AcDbVertex
100
AcDb2dVertex
 10
1.856655544704861
 20
6.863077799479166
 30
0.0
  0
VERTEX
  5
234
330
1E8
100
AcDbEntity
  8
STATE
 62
     2
100
AcDbVertex
100
AcDb2dVertex
 10
1.846659342447917
 20
6.856411404079861
 30
0.0
  0
VERTEX
  5
235
330
1E8
100
AcDbEntity
  8
STATE
 62
     2
100
AcDbVertex
100
AcDb2dVertex
 10
1.799994574652778
 20
6.879747178819444
 30
0.0
  0
VERTEX
  5
236
330
1E8
100
AcDbEntity
  8
STATE
 62
     2
100
AcDbVertex
100
AcDb2dVertex
 10
1.786661783854167
 20
6.883083767361111
 30
0.0
  0
VERTEX
  5
237
330
1E8
100
AcDbEntity
  8
STATE
 62
     2
100
AcDbVertex
100
AcDb2dVertex
 10
1.76666259765625
 20
6.889750162760416
 30
0.0
  0
VERTEX
  5
238
330
1E8
100
AcDbEntity
  8
STATE
 62
     2
100
AcDbVertex
100
AcDb2dVertex
 10
1.763326009114583
 20
6.893086751302083
 30
0.0
  0
VERTEX
  5
239
330
1E8
100
AcDbEntity
  8
STATE
 62
     2
100
AcDbVertex
100
AcDb2dVertex
 10
1.733323838975694
 20
6.896416558159721
 30
0.0
  0
VERTEX
  5
23A
330
1E8
100
AcDbEntity
  8
STATE
 62
     2
100
AcDbVertex
100
AcDb2dVertex
 10
1.713324652777778
 20
6.896416558159721
 30
0.0
  0
VERTEX
  5
23B
330
1E8
100
AcDbEntity
  8
STATE
 62
     2
100
AcDbVertex
100
AcDb2dVertex
 10
1.669989691840278
 20
6.899753146701388
 30
0.0
  0
VERTEX
  5
23C
330
1E8
100
AcDbEntity
  8
STATE
 62
     2
100
AcDbVertex
100
AcDb2dVertex
 10
1.643324110243055
 20
6.899753146701388
 30
0.0
  0
VERTEX
  5
23D
330
1E8
100
AcDbEntity
  8
STATE
 62
     2
100
AcDbVertex
100
AcDb2dVertex
 10
1.606655544704861
 20
6.909756130642361
 30
0.0
  0
VERTEX
  5
23E
330
1E8
100
AcDbEntity
  8
STATE
 62
     2
100
AcDbVertex
100
AcDb2dVertex
 10
1.603325737847222
 20
6.916422526041666
 30
0.0
  0
VERTEX
  5
23F
330
1E8
100
AcDbEntity
  8
STATE
 62
     2
100
AcDbVertex
100
AcDb2dVertex
 10
1.593329535590278
 20
6.916422526041666
 30
0.0
  0
VERTEX
  5
240
330
1E8
100
AcDbEntity
  8
STATE
 62
     2
100
AcDbVertex
100
AcDb2dVertex
 10
1.589992947048611
 20
6.9130859375
 30
0.0
  0
VERTEX
  5
241
330
1E8
100
AcDbEntity
  8
STATE
 62
     2
100
AcDbVertex
100
AcDb2dVertex
 10
1.583326551649305
 20
6.9130859375
 30
0.0
  0
VERTEX
  5
242
330
1E8
100
AcDbEntity
  8
STATE
 62
     2
100
AcDbVertex
100
AcDb2dVertex
 10
1.573323567708333
 20
6.9130859375
 30
0.0
  0
VERTEX
  5
243
330
1E8
100
AcDbEntity
  8
STATE
 62
     2
100
AcDbVertex
100
AcDb2dVertex
 10
1.569993760850694
 20
6.9130859375
 30
0.0
  0
VERTEX
  5
244
330
1E8
100
AcDbEntity
  8
STATE
 62
     2
100
AcDbVertex
100
AcDb2dVertex
 10
1.566663953993055
 20
6.9130859375
 30
0.0
  0
VERTEX
  5
245
330
1E8
100
AcDbEntity
  8
STATE
 62
     2
100
AcDbVertex
100
AcDb2dVertex
 10
1.546657986111111
 20
6.9130859375
 30
0.0
  0
VERTEX
  5
246
330
1E8
100
AcDbEntity
  8
STATE
 62
     2
100
AcDbVertex
100
AcDb2dVertex
 10
1.539991590711806
 20
6.9130859375
 30
0.0
  0
VERTEX
  5
247
330
1E8
100
AcDbEntity
  8
STATE
 62
     2
100
AcDbVertex
100
AcDb2dVertex
 10
1.539991590711806
 20
6.916422526041666
 30
0.0
  0
VERTEX
  5
248
330
1E8
100
AcDbEntity
  8
STATE
 62
     2
100
AcDbVertex
100
AcDb2dVertex
 10
1.526658799913194
 20
6.926425509982638
 30
0.0
  0
VERTEX
  5
249
330
1E8
100
AcDbEntity
  8
STATE
 62
     2
100
AcDbVertex
100
AcDb2dVertex
 10
1.51666259765625
 20
6.933091905381944
 30
0.0
  0
VERTEX
  5
24A
330
1E8
100
AcDbEntity
  8
STATE
 62
     2
100
AcDbVertex
100
AcDb2dVertex
 10
1.513326009114583
 20
6.933091905381944
 30
0.0
  0
VERTEX
  5
24B
330
1E8
100
AcDbEntity
  8
STATE
 62
     2
100
AcDbVertex
100
AcDb2dVertex
 10
1.499993218315972
 20
6.943094889322916
 30
0.0
  0
VERTEX
  5
24C
330
1E8
100
AcDbEntity
  8
STATE
 62
     2
100
AcDbVertex
100
AcDb2dVertex
 10
1.489990234375
 20
6.953091091579861
 30
0.0
  0
VERTEX
  5
24D
330
1E8
100
AcDbEntity
  8
STATE
 62
     2
100
AcDbVertex
100
AcDb2dVertex
 10
1.483330620659722
 20
6.963094075520833
 30
0.0
  0
VERTEX
  5
24E
330
1E8
100
AcDbEntity
  8
STATE
 62
     2
100
AcDbVertex
100
AcDb2dVertex
 10
1.47332763671875
 20
6.983100043402778
 30
0.0
  0
VERTEX
  5
24F
330
1E8
100
AcDbEntity
  8
STATE
 62
     2
100
AcDbVertex
100
AcDb2dVertex
 10
1.469997829861111
 20
6.983100043402778
 30
0.0
  0
VERTEX
  5
250
330
1E8
100
AcDbEntity
  8
STATE
 62
     2
100
AcDbVertex
100
AcDb2dVertex
 10
1.433329264322917
 20
7.026435004340278
 30
0.0
  0
VERTEX
  5
251
330
1E8
100
AcDbEntity
  8
STATE
 62
     2
100
AcDbVertex
100
AcDb2dVertex
 10
1.426662868923611
 20
7.033108181423611
 30
0.0
  0
VERTEX
  5
252
330
1E8
100
AcDbEntity
  8
STATE
 62
     2
100
AcDbVertex
100
AcDb2dVertex
 10
1.409993489583333
 20
7.039774576822916
 30
0.0
  0
VERTEX
  5
253
330
1E8
100
AcDbEntity
  8
STATE
 62
     2
100
AcDbVertex
100
AcDb2dVertex
 10
1.383327907986111
 20
7.043104383680555
 30
0.0
  0
VERTEX
  5
254
330
1E8
100
AcDbEntity
  8
STATE
 62
     2
100
AcDbVertex
100
AcDb2dVertex
 10
1.366658528645833
 20
7.046440972222221
 30
0.0
  0
VERTEX
  5
255
330
1E8
100
AcDbEntity
  8
STATE
 62
     2
100
AcDbVertex
100
AcDb2dVertex
 10
1.346659342447917
 20
7.056443956163194
 30
0.0
  0
VERTEX
  5
256
330
1E8
100
AcDbEntity
  8
STATE
 62
     2
100
AcDbVertex
100
AcDb2dVertex
 10
1.336656358506944
 20
7.059773763020833
 30
0.0
  0
VERTEX
  5
257
330
1E8
100
AcDbEntity
  8
STATE
 62
     2
100
AcDbVertex
100
AcDb2dVertex
 10
1.30999755859375
 20
7.069776746961805
 30
0.0
  0
VERTEX
  5
258
330
1E8
100
AcDbEntity
  8
STATE
 62
     2
100
AcDbVertex
100
AcDb2dVertex
 10
1.26666259765625
 20
7.079779730902778
 30
0.0
  0
VERTEX
  5
259
330
1E8
100
AcDbEntity
  8
STATE
 62
     2
100
AcDbVertex
100
AcDb2dVertex
 10
1.253323025173611
 20
7.093112521701388
 30
0.0
  0
VERTEX
  5
25A
330
1E8
100
AcDbEntity
  8
STATE
 62
     2
100
AcDbVertex
100
AcDb2dVertex
 10
1.243326822916667
 20
7.113118489583333
 30
0.0
  0
VERTEX
  5
25B
330
1E8
100
AcDbEntity
  8
STATE
 62
     2
100
AcDbVertex
100
AcDb2dVertex
 10
1.219997829861111
 20
7.143120659722221
 30
0.0
  0
VERTEX
  5
25C
330
1E8
100
AcDbEntity
  8
STATE
 62
     2
100
AcDbVertex
100
AcDb2dVertex
 10
1.213324652777778
 20
7.156460232204861
 30
0.0
  0
VERTEX
  5
25D
330
1E8
100
AcDbEntity
  8
STATE
 62
     2
100
AcDbVertex
100
AcDb2dVertex
 10
1.206658257378472
 20
7.183132595486111
 30
0.0
  0
VERTEX
  5
25E
330
1E8
100
AcDbEntity
  8
STATE
 62
     2
100
AcDbVertex
100
AcDb2dVertex
 10
1.213324652777778
 20
7.219801161024305
 30
0.0
  0
VERTEX
  5
25F
330
1E8
100
AcDbEntity
  8
STATE
 62
     2
100
AcDbVertex
100
AcDb2dVertex
 10
1.216661241319444
 20
7.246473524305555
 30
0.0
  0
VERTEX
  5
260
330
1E8
100
AcDbEntity
  8
STATE
 62
     2
100
AcDbVertex
100
AcDb2dVertex
 10
1.229994032118056
 20
7.266472710503471
 30
0.0
  0
VERTEX
  5
261
330
1E8
100
AcDbEntity
  8
STATE
 62
     2
100
AcDbVertex
100
AcDb2dVertex
 10
1.289991590711806
 20
7.319817437065971
 30
0.0
  0
VERTEX
  5
262
330
1E8
100
AcDbEntity
  8
STATE
 62
     2
100
AcDbVertex
100
AcDb2dVertex
 10
1.303331163194444
 20
7.349819607204861
 30
0.0
  0
VERTEX
  5
263
330
1E8
100
AcDbEntity
  8
STATE
 62
     2
100
AcDbVertex
100
AcDb2dVertex
 10
1.30999755859375
 20
7.376491970486111
 30
0.0
  0
VERTEX
  5
264
330
1E8
100
AcDbEntity
  8
STATE
 62
     2
100
AcDbVertex
100
AcDb2dVertex
 10
1.313327365451389
 20
7.383158365885416
 30
0.0
  0
VERTEX
  5
265
330
1E8
100
AcDbEntity
  8
STATE
 62
     2
100
AcDbVertex
100
AcDb2dVertex
 10
1.316663953993056
 20
7.403164333767361
 30
0.0
  0
VERTEX
  5
266
330
1E8
100
AcDbEntity
  8
STATE
 62
     2
100
AcDbVertex
100
AcDb2dVertex
 10
1.329989963107639
 20
7.423163519965278
 30
0.0
  0
VERTEX
  5
267
330
1E8
100
AcDbEntity
  8
STATE
 62
     2
100
AcDbVertex
100
AcDb2dVertex
 10
1.379991319444444
 20
7.449835883246528
 30
0.0
  0
VERTEX
  5
268
330
1E8
100
AcDbEntity
  8
STATE
 62
     2
100
AcDbVertex
100
AcDb2dVertex
 10
1.396660698784722
 20
7.449835883246528
 30
0.0
  0
VERTEX
  5
269
330
1E8
100
AcDbEntity
  8
STATE
 62
     2
100
AcDbVertex
100
AcDb2dVertex
 10
1.436659071180556
 20
7.4598388671875
 30
0.0
  0
VERTEX
  5
26A
330
1E8
100
AcDbEntity
  8
STATE
 62
     2
100
AcDbVertex
100
AcDb2dVertex
 10
1.476664225260417
 20
7.483174641927083
 30
0.0
  0
VERTEX
  5
26B
330
1E8
100
AcDbEntity
  8
STATE
 62
     2
100
AcDbVertex
100
AcDb2dVertex
 10
1.483330620659722
 20
7.489841037326388
 30
0.0
  0
VERTEX
  5
26C
330
1E8
100
AcDbEntity
  8
STATE
 62
     2
100
AcDbVertex
100
AcDb2dVertex
 10
1.549994574652778
 20
7.529852973090278
 30
0.0
  0
VERTEX
  5
26D
330
1E8
100
AcDbEntity
  8
STATE
 62
     2
100
AcDbVertex
100
AcDb2dVertex
 10
1.583326551649305
 20
7.553181966145833
 30
0.0
  0
VERTEX
  5
26E
330
1E8
100
AcDbEntity
  8
STATE
 62
     2
100
AcDbVertex
100
AcDb2dVertex
 10
1.596659342447917
 20
7.569851345486111
 30
0.0
  0
VERTEX
  5
26F
330
1E8
100
AcDbEntity
  8
STATE
 62
     2
100
AcDbVertex
100
AcDb2dVertex
 10
1.613321940104167
 20
7.569851345486111
 30
0.0
  0
VERTEX
  5
270
330
1E8
100
AcDbEntity
  8
STATE
 62
     2
100
AcDbVertex
100
AcDb2dVertex
 10
1.633327907986111
 20
7.573187934027778
 30
0.0
  0
VERTEX
  5
271
330
1E8
100
AcDbEntity
  8
STATE
 62
     2
100
AcDbVertex
100
AcDb2dVertex
 10
1.643324110243055
 20
7.573187934027778
 30
0.0
  0
VERTEX
  5
272
330
1E8
100
AcDbEntity
  8
STATE
 62
     2
100
AcDbVertex
100
AcDb2dVertex
 10
1.653327094184028
 20
7.569851345486111
 30
0.0
  0
VERTEX
  5
273
330
1E8
100
AcDbEntity
  8
STATE
 62
     2
100
AcDbVertex
100
AcDb2dVertex
 10
1.663323296440972
 20
7.566521538628471
 30
0.0
  0
VERTEX
  5
274
330
1E8
100
AcDbEntity
  8
STATE
 62
     2
100
AcDbVertex
100
AcDb2dVertex
 10
1.669989691840278
 20
7.5565185546875
 30
0.0
  0
VERTEX
  5
275
330
1E8
100
AcDbEntity
  8
STATE
 62
     2
100
AcDbVertex
100
AcDb2dVertex
 10
1.673326280381944
 20
7.553181966145833
 30
0.0
  0
VERTEX
  5
276
330
1E8
100
AcDbEntity
  8
STATE
 62
     2
100
AcDbVertex
100
AcDb2dVertex
 10
1.676662868923611
 20
7.546522352430555
 30
0.0
  0
VERTEX
  5
277
330
1E8
100
AcDbEntity
  8
STATE
 62
     2
100
AcDbVertex
100
AcDb2dVertex
 10
1.689988878038194
 20
7.553181966145833
 30
0.0
  0
VERTEX
  5
278
330
1E8
100
AcDbEntity
  8
STATE
 62
     2
100
AcDbVertex
100
AcDb2dVertex
 10
1.709994845920139
 20
7.549852159288194
 30
0.0
  0
VERTEX
  5
279
330
1E8
100
AcDbEntity
  8
STATE
 62
     2
100
AcDbVertex
100
AcDb2dVertex
 10
1.716661241319444
 20
7.546522352430555
 30
0.0
  0
VERTEX
  5
27A
330
1E8
100
AcDbEntity
  8
STATE
 62
     2
100
AcDbVertex
100
AcDb2dVertex
 10
1.716661241319444
 20
7.543185763888888
 30
0.0
  0
VERTEX
  5
27B
330
1E8
100
AcDbEntity
  8
STATE
 62
     2
100
AcDbVertex
100
AcDb2dVertex
 10
1.719991048177083
 20
7.536519368489583
 30
0.0
  0
VERTEX
  5
27C
330
1E8
100
AcDbEntity
  8
STATE
 62
     2
100
AcDbVertex
100
AcDb2dVertex
 10
1.723320855034722
 20
7.529852973090278
 30
0.0
  0
VERTEX
  5
27D
330
1E8
100
AcDbEntity
  8
STATE
 62
     2
100
AcDbVertex
100
AcDb2dVertex
 10
1.726657443576389
 20
7.529852973090278
 30
0.0
  0
VERTEX
  5
27E
330
1E8
100
AcDbEntity
  8
STATE
 62
     2
100
AcDbVertex
100
AcDb2dVertex
 10
1.729987250434028
 20
7.526516384548611
 30
0.0
  0
VERTEX
  5
27F
330
1E8
100
AcDbEntity
  8
STATE
 62
     2
100
AcDbVertex
100
AcDb2dVertex
 10
1.736653645833333
 20
7.526516384548611
 30
0.0
  0
VERTEX
  5
280
330
1E8
100
AcDbEntity
  8
STATE
 62
     2
100
AcDbVertex
100
AcDb2dVertex
 10
1.749993218315972
 20
7.536519368489583
 30
0.0
  0
VERTEX
  5
281
330
1E8
100
AcDbEntity
  8
STATE
 62
     2
100
AcDbVertex
100
AcDb2dVertex
 10
1.749993218315972
 20
7.546522352430555
 30
0.0
  0
VERTEX
  5
282
330
1E8
100
AcDbEntity
  8
STATE
 62
     2
100
AcDbVertex
100
AcDb2dVertex
 10
1.749993218315972
 20
7.549852159288194
 30
0.0
  0
VERTEX
  5
283
330
1E8
100
AcDbEntity
  8
STATE
 62
     2
100
AcDbVertex
100
AcDb2dVertex
 10
1.749993218315972
 20
7.563191731770833
 30
0.0
  0
VERTEX
  5
284
330
1E8
100
AcDbEntity
  8
STATE
 62
     2
100
AcDbVertex
100
AcDb2dVertex
 10
1.773322211371528
 20
7.579861111111111
 30
0.0
  0
VERTEX
  5
285
330
1E8
100
AcDbEntity
  8
STATE
 62
     2
100
AcDbVertex
100
AcDb2dVertex
 10
1.789991590711805
 20
7.579861111111111
 30
0.0
  0
VERTEX
  5
286
330
1E8
100
AcDbEntity
  8
STATE
 62
     2
100
AcDbVertex
100
AcDb2dVertex
 10
1.813320583767361
 20
7.566521538628471
 30
0.0
  0
SEQEND
  5
287
330
1E8
100
AcDbEntity
  8
STATE
  0
POLYLINE
  5
288
330
3C
100
AcDbEntity
  8
STATE
 62
     2
100
AcDb2dPolyline
 66
     1
 10
0.0
 20
0.0
 30
0.0
  0
VERTEX
  5
289
330
288
100
AcDbEntity
  8
STATE
 62
     2
100
AcDbVertex
100
AcDb2dVertex
 10
6.379964192708333
 20
5.482862684461805
 30
0.0
  0
VERTEX
  5
28A
330
288
100
AcDbEntity
  8
STATE
 62
     2
100
AcDbVertex
100
AcDb2dVertex
 10
6.396633572048611
 20
5.479532877604166
 30
0.0
  0
VERTEX
  5
28B
330
288
100
AcDbEntity
  8
STATE
 62
     2
100
AcDbVertex
100
AcDb2dVertex
 10
6.409966362847221
 20
5.4761962890625
 30
0.0
  0
VERTEX
  5
28C
330
288
100
AcDbEntity
  8
STATE
 62
     2
100
AcDbVertex
100
AcDb2dVertex
 10
6.423312717013888
 20
5.482862684461805
 30
0.0
  0
VERTEX
  5
28D
330
288
100
AcDbEntity
  8
STATE
 62
     2
100
AcDbVertex
100
AcDb2dVertex
 10
6.429972330729166
 20
5.489535861545138
 30
0.0
  0
VERTEX
  5
28E
330
288
100
AcDbEntity
  8
STATE
 62
     2
100
AcDbVertex
100
AcDb2dVertex
 10
6.439968532986111
 20
5.519538031684028
 30
0.0
  0
VERTEX
  5
28F
330
288
100
AcDbEntity
  8
STATE
 62
     2
100
AcDbVertex
100
AcDb2dVertex
 10
6.439968532986111
 20
5.526204427083333
 30
0.0
  0
VERTEX
  5
290
330
288
100
AcDbEntity
  8
STATE
 62
     2
100
AcDbVertex
100
AcDb2dVertex
 10
6.4366455078125
 20
5.532870822482638
 30
0.0
  0
VERTEX
  5
291
330
288
100
AcDbEntity
  8
STATE
 62
     2
100
AcDbVertex
100
AcDb2dVertex
 10
6.4366455078125
 20
5.536207411024305
 30
0.0
  0
VERTEX
  5
292
330
288
100
AcDbEntity
  8
STATE
 62
     2
100
AcDbVertex
100
AcDb2dVertex
 10
6.456637912326388
 20
5.549540201822916
 30
0.0
  0
VERTEX
  5
293
330
288
100
AcDbEntity
  8
STATE
 62
     2
100
AcDbVertex
100
AcDb2dVertex
 10
6.466634114583333
 20
5.546210394965278
 30
0.0
  0
VERTEX
  5
294
330
288
100
AcDbEntity
  8
STATE
 62
     2
100
AcDbVertex
100
AcDb2dVertex
 10
6.476643880208333
 20
5.536207411024305
 30
0.0
  0
VERTEX
  5
295
330
288
100
AcDbEntity
  8
STATE
 62
     2
100
AcDbVertex
100
AcDb2dVertex
 10
6.499972873263888
 20
5.496202256944444
 30
0.0
  0
VERTEX
  5
296
330
288
100
AcDbEntity
  8
STATE
 62
     2
100
AcDbVertex
100
AcDb2dVertex
 10
6.499972873263888
 20
5.4761962890625
 30
0.0
  0
VERTEX
  5
297
330
288
100
AcDbEntity
  8
STATE
 62
     2
100
AcDbVertex
100
AcDb2dVertex
 10
6.509969075520833
 20
5.462863498263888
 30
0.0
  0
VERTEX
  5
298
330
288
100
AcDbEntity
  8
STATE
 62
     2
100
AcDbVertex
100
AcDb2dVertex
 10
6.563300238715278
 20
5.44952392578125
 30
0.0
  0
VERTEX
  5
299
330
288
100
AcDbEntity
  8
STATE
 62
     2
100
AcDbVertex
100
AcDb2dVertex
 10
6.5899658203125
 20
5.439527723524305
 30
0.0
  0
VERTEX
  5
29A
330
288
100
AcDbEntity
  8
STATE
 62
     2
100
AcDbVertex
100
AcDb2dVertex
 10
6.5999755859375
 20
5.442857530381944
 30
0.0
  0
VERTEX
  5
29B
330
288
100
AcDbEntity
  8
STATE
 62
     2
100
AcDbVertex
100
AcDb2dVertex
 10
6.603298611111111
 20
5.452860514322916
 30
0.0
  0
VERTEX
  5
29C
330
288
100
AcDbEntity
  8
STATE
 62
     2
100
AcDbVertex
100
AcDb2dVertex
 10
6.603298611111111
 20
5.456197102864583
 30
0.0
  0
VERTEX
  5
29D
330
288
100
AcDbEntity
  8
STATE
 62
     2
100
AcDbVertex
100
AcDb2dVertex
 10
6.656629774305555
 20
5.442857530381944
 30
0.0
  0
VERTEX
  5
29E
330
288
100
AcDbEntity
  8
STATE
 62
     2
100
AcDbVertex
100
AcDb2dVertex
 10
6.706637912326388
 20
5.44952392578125
 30
0.0
  0
VERTEX
  5
29F
330
288
100
AcDbEntity
  8
STATE
 62
     2
100
AcDbVertex
100
AcDb2dVertex
 10
6.743299696180555
 20
5.462863498263888
 30
0.0
  0
VERTEX
  5
2A0
330
288
100
AcDbEntity
  8
STATE
 62
     2
100
AcDbVertex
100
AcDb2dVertex
 10
6.836642795138888
 20
5.472866482204861
 30
0.0
  0
VERTEX
  5
2A1
330
288
100
AcDbEntity
  8
STATE
 62
     2
100
AcDbVertex
100
AcDb2dVertex
 10
6.866631401909721
 20
5.469529893663194
 30
0.0
  0
VERTEX
  5
2A2
330
288
100
AcDbEntity
  8
STATE
 62
     2
100
AcDbVertex
100
AcDb2dVertex
 10
6.889960394965278
 20
5.466193305121528
 30
0.0
  0
VERTEX
  5
2A3
330
288
100
AcDbEntity
  8
STATE
 62
     2
100
AcDbVertex
100
AcDb2dVertex
 10
6.899970160590278
 20
5.459526909722222
 30
0.0
  0
VERTEX
  5
2A4
330
288
100
AcDbEntity
  8
STATE
 62
     2
100
AcDbVertex
100
AcDb2dVertex
 10
6.903293185763888
 20
5.439527723524305
 30
0.0
  0
VERTEX
  5
2A5
330
288
100
AcDbEntity
  8
STATE
 62
     2
100
AcDbVertex
100
AcDb2dVertex
 10
6.933308919270833
 20
5.442857530381944
 30
0.0
  0
VERTEX
  5
2A6
330
288
100
AcDbEntity
  8
STATE
 62
     2
100
AcDbVertex
100
AcDb2dVertex
 10
6.946628146701388
 20
5.439527723524305
 30
0.0
  0
VERTEX
  5
2A7
330
288
100
AcDbEntity
  8
STATE
 62
     2
100
AcDbVertex
100
AcDb2dVertex
 10
6.943305121527778
 20
5.419521755642361
 30
0.0
  0
VERTEX
  5
2A8
330
288
100
AcDbEntity
  8
STATE
 62
     2
100
AcDbVertex
100
AcDb2dVertex
 10
6.923299153645833
 20
5.3795166015625
 30
0.0
  0
VERTEX
  5
2A9
330
288
100
AcDbEntity
  8
STATE
 62
     2
100
AcDbVertex
100
AcDb2dVertex
 10
6.879964192708333
 20
5.332845052083333
 30
0.0
  0
VERTEX
  5
2AA
330
288
100
AcDbEntity
  8
STATE
 62
     2
100
AcDbVertex
100
AcDb2dVertex
 10
6.829969618055555
 20
5.292833116319444
 30
0.0
  0
VERTEX
  5
2AB
330
288
100
AcDbEntity
  8
STATE
 62
     2
100
AcDbVertex
100
AcDb2dVertex
 10
6.799967447916666
 20
5.279500325520833
 30
0.0
  0
VERTEX
  5
2AC
330
288
100
AcDbEntity
  8
STATE
 62
     2
100
AcDbVertex
100
AcDb2dVertex
 10
6.796630859375
 20
5.266167534722222
 30
0.0
  0
VERTEX
  5
2AD
330
288
100
AcDbEntity
  8
STATE
 62
     2
100
AcDbVertex
100
AcDb2dVertex
 10
6.719970703125
 20
5.239495171440972
 30
0.0
  0
VERTEX
  5
2AE
330
288
100
AcDbEntity
  8
STATE
 62
     2
100
AcDbVertex
100
AcDb2dVertex
 10
6.659966362847221
 20
5.2294921875
 30
0.0
  0
VERTEX
  5
2AF
330
288
100
AcDbEntity
  8
STATE
 62
     2
100
AcDbVertex
100
AcDb2dVertex
 10
6.639960394965278
 20
5.212822808159722
 30
0.0
  0
VERTEX
  5
2B0
330
288
100
AcDbEntity
  8
STATE
 62
     2
100
AcDbVertex
100
AcDb2dVertex
 10
6.613294813368055
 20
5.216159396701388
 30
0.0
  0
VERTEX
  5
2B1
330
288
100
AcDbEntity
  8
STATE
 62
     2
100
AcDbVertex
100
AcDb2dVertex
 10
6.606635199652778
 20
5.226155598958333
 30
0.0
  0
VERTEX
  5
2B2
330
288
100
AcDbEntity
  8
STATE
 62
     2
100
AcDbVertex
100
AcDb2dVertex
 10
6.5999755859375
 20
5.226155598958333
 30
0.0
  0
VERTEX
  5
2B3
330
288
100
AcDbEntity
  8
STATE
 62
     2
100
AcDbVertex
100
AcDb2dVertex
 10
6.499972873263888
 20
5.246161566840278
 30
0.0
  0
VERTEX
  5
2B4
330
288
100
AcDbEntity
  8
STATE
 62
     2
100
AcDbVertex
100
AcDb2dVertex
 10
6.496636284722221
 20
5.249498155381944
 30
0.0
  0
VERTEX
  5
2B5
330
288
100
AcDbEntity
  8
STATE
 62
     2
100
AcDbVertex
100
AcDb2dVertex
 10
6.446628146701388
 20
5.262830946180555
 30
0.0
  0
VERTEX
  5
2B6
330
288
100
AcDbEntity
  8
STATE
 62
     2
100
AcDbVertex
100
AcDb2dVertex
 10
6.433308919270833
 20
5.269497341579861
 30
0.0
  0
VERTEX
  5
2B7
330
288
100
AcDbEntity
  8
STATE
 62
     2
100
AcDbVertex
100
AcDb2dVertex
 10
6.413302951388888
 20
5.276163736979166
 30
0.0
  0
VERTEX
  5
2B8
330
288
100
AcDbEntity
  8
STATE
 62
     2
100
AcDbVertex
100
AcDb2dVertex
 10
6.403293185763888
 20
5.279500325520833
 30
0.0
  0
VERTEX
  5
2B9
330
288
100
AcDbEntity
  8
STATE
 62
     2
100
AcDbVertex
100
AcDb2dVertex
 10
6.396633572048611
 20
5.279500325520833
 30
0.0
  0
VERTEX
  5
2BA
330
288
100
AcDbEntity
  8
STATE
 62
     2
100
AcDbVertex
100
AcDb2dVertex
 10
6.386637369791666
 20
5.2828369140625
 30
0.0
  0
VERTEX
  5
2BB
330
288
100
AcDbEntity
  8
STATE
 62
     2
100
AcDbVertex
100
AcDb2dVertex
 10
6.38330078125
 20
5.2828369140625
 30
0.0
  0
VERTEX
  5
2BC
330
288
100
AcDbEntity
  8
STATE
 62
     2
100
AcDbVertex
100
AcDb2dVertex
 10
6.359971788194444
 20
5.289503309461805
 30
0.0
  0
VERTEX
  5
2BD
330
288
100
AcDbEntity
  8
STATE
 62
     2
100
AcDbVertex
100
AcDb2dVertex
 10
6.353312174479166
 20
5.292833116319444
 30
0.0
  0
VERTEX
  5
2BE
330
288
100
AcDbEntity
  8
STATE
 62
     2
100
AcDbVertex
100
AcDb2dVertex
 10
6.3499755859375
 20
5.292833116319444
 30
0.0
  0
VERTEX
  5
2BF
330
288
100
AcDbEntity
  8
STATE
 62
     2
100
AcDbVertex
100
AcDb2dVertex
 10
6.339979383680555
 20
5.306172688802083
 30
0.0
  0
VERTEX
  5
2C0
330
288
100
AcDbEntity
  8
STATE
 62
     2
100
AcDbVertex
100
AcDb2dVertex
 10
6.259969075520833
 20
5.322842068142361
 30
0.0
  0
VERTEX
  5
2C1
330
288
100
AcDbEntity
  8
STATE
 62
     2
100
AcDbVertex
100
AcDb2dVertex
 10
6.233303493923611
 20
5.322842068142361
 30
0.0
  0
VERTEX
  5
2C2
330
288
100
AcDbEntity
  8
STATE
 62
     2
100
AcDbVertex
100
AcDb2dVertex
 10
6.229966905381944
 20
5.322842068142361
 30
0.0
  0
VERTEX
  5
2C3
330
288
100
AcDbEntity
  8
STATE
 62
     2
100
AcDbVertex
100
AcDb2dVertex
 10
6.216634114583333
 20
5.322842068142361
 30
0.0
  0
VERTEX
  5
2C4
330
288
100
AcDbEntity
  8
STATE
 62
     2
100
AcDbVertex
100
AcDb2dVertex
 10
6.2099609375
 20
5.319505479600694
 30
0.0
  0
VERTEX
  5
2C5
330
288
100
AcDbEntity
  8
STATE
 62
     2
100
AcDbVertex
100
AcDb2dVertex
 10
6.1766357421875
 20
5.316175672743055
 30
0.0
  0
VERTEX
  5
2C6
330
288
100
AcDbEntity
  8
STATE
 62
     2
100
AcDbVertex
100
AcDb2dVertex
 10
6.139973958333333
 20
5.302836100260416
 30
0.0
  0
VERTEX
  5
2C7
330
288
100
AcDbEntity
  8
STATE
 62
     2
100
AcDbVertex
100
AcDb2dVertex
 10
5.933308919270833
 20
5.289503309461805
 30
0.0
  0
VERTEX
  5
2C8
330
288
100
AcDbEntity
  8
STATE
 62
     2
100
AcDbVertex
100
AcDb2dVertex
 10
5.853312174479166
 20
5.302836100260416
 30
0.0
  0
VERTEX
  5
2C9
330
288
100
AcDbEntity
  8
STATE
 62
     2
100
AcDbVertex
100
AcDb2dVertex
 10
5.823296440972222
 20
5.319505479600694
 30
0.0
  0
VERTEX
  5
2CA
330
288
100
AcDbEntity
  8
STATE
 62
     2
100
AcDbVertex
100
AcDb2dVertex
 10
5.8499755859375
 20
5.372850206163194
 30
0.0
  0
VERTEX
  5
2CB
330
288
100
AcDbEntity
  8
STATE
 62
     2
100
AcDbVertex
100
AcDb2dVertex
 10
5.8499755859375
 20
5.3795166015625
 30
0.0
  0
VERTEX
  5
2CC
330
288
100
AcDbEntity
  8
STATE
 62
     2
100
AcDbVertex
100
AcDb2dVertex
 10
5.859971788194444
 20
5.399522569444444
 30
0.0
  0
VERTEX
  5
2CD
330
288
100
AcDbEntity
  8
STATE
 62
     2
100
AcDbVertex
100
AcDb2dVertex
 10
5.876641167534722
 20
5.422858344184028
 30
0.0
  0
VERTEX
  5
2CE
330
288
100
AcDbEntity
  8
STATE
 62
     2
100
AcDbVertex
100
AcDb2dVertex
 10
5.893310546875
 20
5.436191134982638
 30
0.0
  0
VERTEX
  5
2CF
330
288
100
AcDbEntity
  8
STATE
 62
     2
100
AcDbVertex
100
AcDb2dVertex
 10
5.896633572048611
 20
5.432854546440972
 30
0.0
  0
VERTEX
  5
2D0
330
288
100
AcDbEntity
  8
STATE
 62
     2
100
AcDbVertex
100
AcDb2dVertex
 10
5.923312717013888
 20
5.459526909722222
 30
0.0
  0
VERTEX
  5
2D1
330
288
100
AcDbEntity
  8
STATE
 62
     2
100
AcDbVertex
100
AcDb2dVertex
 10
5.933308919270833
 20
5.472866482204861
 30
0.0
  0
VERTEX
  5
2D2
330
288
100
AcDbEntity
  8
STATE
 62
     2
100
AcDbVertex
100
AcDb2dVertex
 10
5.939968532986111
 20
5.489535861545138
 30
0.0
  0
VERTEX
  5
2D3
330
288
100
AcDbEntity
  8
STATE
 62
     2
100
AcDbVertex
100
AcDb2dVertex
 10
5.939968532986111
 20
5.522867838541666
 30
0.0
  0
VERTEX
  5
2D4
330
288
100
AcDbEntity
  8
STATE
 62
     2
100
AcDbVertex
100
AcDb2dVertex
 10
5.9266357421875
 20
5.539537217881944
 30
0.0
  0
VERTEX
  5
2D5
330
288
100
AcDbEntity
  8
STATE
 62
     2
100
AcDbVertex
100
AcDb2dVertex
 10
5.919976128472222
 20
5.542873806423611
 30
0.0
  0
VERTEX
  5
2D6
330
288
100
AcDbEntity
  8
STATE
 62
     2
100
AcDbVertex
100
AcDb2dVertex
 10
5.916639539930555
 20
5.549540201822916
 30
0.0
  0
VERTEX
  5
2D7
330
288
100
AcDbEntity
  8
STATE
 62
     2
100
AcDbVertex
100
AcDb2dVertex
 10
5.919976128472222
 20
5.559543185763888
 30
0.0
  0
VERTEX
  5
2D8
330
288
100
AcDbEntity
  8
STATE
 62
     2
100
AcDbVertex
100
AcDb2dVertex
 10
5.9266357421875
 20
5.562879774305555
 30
0.0
  0
VERTEX
  5
2D9
330
288
100
AcDbEntity
  8
STATE
 62
     2
100
AcDbVertex
100
AcDb2dVertex
 10
5.956637912326388
 20
5.549540201822916
 30
0.0
  0
VERTEX
  5
2DA
330
288
100
AcDbEntity
  8
STATE
 62
     2
100
AcDbVertex
100
AcDb2dVertex
 10
5.983303493923611
 20
5.549540201822916
 30
0.0
  0
VERTEX
  5
2DB
330
288
100
AcDbEntity
  8
STATE
 62
     2
100
AcDbVertex
100
AcDb2dVertex
 10
6.0133056640625
 20
5.552876790364583
 30
0.0
  0
VERTEX
  5
2DC
330
288
100
AcDbEntity
  8
STATE
 62
     2
100
AcDbVertex
100
AcDb2dVertex
 10
6.029961480034722
 20
5.546210394965278
 30
0.0
  0
VERTEX
  5
2DD
330
288
100
AcDbEntity
  8
STATE
 62
     2
100
AcDbVertex
100
AcDb2dVertex
 10
6.049967447916666
 20
5.522867838541666
 30
0.0
  0
VERTEX
  5
2DE
330
288
100
AcDbEntity
  8
STATE
 62
     2
100
AcDbVertex
100
AcDb2dVertex
 10
6.059977213541666
 20
5.519538031684028
 30
0.0
  0
VERTEX
  5
2DF
330
288
100
AcDbEntity
  8
STATE
 62
     2
100
AcDbVertex
100
AcDb2dVertex
 10
6.113294813368055
 20
5.509535047743055
 30
0.0
  0
VERTEX
  5
2E0
330
288
100
AcDbEntity
  8
STATE
 62
     2
100
AcDbVertex
100
AcDb2dVertex
 10
6.129964192708333
 20
5.509535047743055
 30
0.0
  0
VERTEX
  5
2E1
330
288
100
AcDbEntity
  8
STATE
 62
     2
100
AcDbVertex
100
AcDb2dVertex
 10
6.136637369791666
 20
5.512871636284722
 30
0.0
  0
VERTEX
  5
2E2
330
288
100
AcDbEntity
  8
STATE
 62
     2
100
AcDbVertex
100
AcDb2dVertex
 10
6.136637369791666
 20
5.516201443142361
 30
0.0
  0
VERTEX
  5
2E3
330
288
100
AcDbEntity
  8
STATE
 62
     2
100
AcDbVertex
100
AcDb2dVertex
 10
6.169976128472222
 20
5.512871636284722
 30
0.0
  0
VERTEX
  5
2E4
330
288
100
AcDbEntity
  8
STATE
 62
     2
100
AcDbVertex
100
AcDb2dVertex
 10
6.1866455078125
 20
5.506205240885416
 30
0.0
  0
VERTEX
  5
2E5
330
288
100
AcDbEntity
  8
STATE
 62
     2
100
AcDbVertex
100
AcDb2dVertex
 10
6.196628146701388
 20
5.506205240885416
 30
0.0
  0
VERTEX
  5
2E6
330
288
100
AcDbEntity
  8
STATE
 62
     2
100
AcDbVertex
100
AcDb2dVertex
 10
6.226643880208333
 20
5.506205240885416
 30
0.0
  0
VERTEX
  5
2E7
330
288
100
AcDbEntity
  8
STATE
 62
     2
100
AcDbVertex
100
AcDb2dVertex
 10
6.266642252604166
 20
5.492865668402778
 30
0.0
  0
VERTEX
  5
2E8
330
288
100
AcDbEntity
  8
STATE
 62
     2
100
AcDbVertex
100
AcDb2dVertex
 10
6.289971245659721
 20
5.489535861545138
 30
0.0
  0
VERTEX
  5
2E9
330
288
100
AcDbEntity
  8
STATE
 62
     2
100
AcDbVertex
100
AcDb2dVertex
 10
6.303304036458333
 20
5.489535861545138
 30
0.0
  0
VERTEX
  5
2EA
330
288
100
AcDbEntity
  8
STATE
 62
     2
100
AcDbVertex
100
AcDb2dVertex
 10
6.306627061631944
 20
5.489535861545138
 30
0.0
  0
VERTEX
  5
2EB
330
288
100
AcDbEntity
  8
STATE
 62
     2
100
AcDbVertex
100
AcDb2dVertex
 10
6.309977213541666
 20
5.489535861545138
 30
0.0
  0
VERTEX
  5
2EC
330
288
100
AcDbEntity
  8
STATE
 62
     2
100
AcDbVertex
100
AcDb2dVertex
 10
6.319973415798611
 20
5.492865668402778
 30
0.0
  0
VERTEX
  5
2ED
330
288
100
AcDbEntity
  8
STATE
 62
     2
100
AcDbVertex
100
AcDb2dVertex
 10
6.333306206597221
 20
5.492865668402778
 30
0.0
  0
VERTEX
  5
2EE
330
288
100
AcDbEntity
  8
STATE
 62
     2
100
AcDbVertex
100
AcDb2dVertex
 10
6.379964192708333
 20
5.482862684461805
 30
0.0
  0
SEQEND
  5
2EF
330
288
100
AcDbEntity
  8
STATE
  0
POLYLINE
  5
2F0
330
3C
100
AcDbEntity
  8
STATE
 62
     2
100
AcDb2dPolyline
 66
     1
 10
0.0
 20
0.0
 30
0.0
  0
VERTEX
  5
2F1
330
2F0
100
AcDbEntity
  8
STATE
 62
     2
100
AcDbVertex
100
AcDb2dVertex
 10
6.393310546875
 20
4.972785101996528
 30
0.0
  0
VERTEX
  5
2F2
330
2F0
100
AcDbEntity
  8
STATE
 62
     2
100
AcDbVertex
100
AcDb2dVertex
 10
6.429972330729166
 20
4.976121690538194
 30
0.0
  0
VERTEX
  5
2F3
330
2F0
100
AcDbEntity
  8
STATE
 62
     2
100
AcDbVertex
100
AcDb2dVertex
 10
6.466634114583333
 20
4.966118706597222
 30
0.0
  0
VERTEX
  5
2F4
330
2F0
100
AcDbEntity
  8
STATE
 62
     2
100
AcDbVertex
100
AcDb2dVertex
 10
6.529961480034721
 20
4.962782118055555
 30
0.0
  0
VERTEX
  5
2F5
330
2F0
100
AcDbEntity
  8
STATE
 62
     2
100
AcDbVertex
100
AcDb2dVertex
 10
6.563300238715278
 20
4.959452311197916
 30
0.0
  0
VERTEX
  5
2F6
330
2F0
100
AcDbEntity
  8
STATE
 62
     2
100
AcDbVertex
100
AcDb2dVertex
 10
6.603298611111111
 20
4.946112738715278
 30
0.0
  0
VERTEX
  5
2F7
330
2F0
100
AcDbEntity
  8
STATE
 62
     2
100
AcDbVertex
100
AcDb2dVertex
 10
6.716634114583333
 20
4.842766655815972
 30
0.0
  0
VERTEX
  5
2F8
330
2F0
100
AcDbEntity
  8
STATE
 62
     2
100
AcDbVertex
100
AcDb2dVertex
 10
6.739963107638888
 20
4.816094292534722
 30
0.0
  0
VERTEX
  5
2F9
330
2F0
100
AcDbEntity
  8
STATE
 62
     2
100
AcDbVertex
100
AcDb2dVertex
 10
6.769965277777778
 20
4.766086154513888
 30
0.0
  0
VERTEX
  5
2FA
330
2F0
100
AcDbEntity
  8
STATE
 62
     2
100
AcDbVertex
100
AcDb2dVertex
 10
6.773301866319444
 20
4.756083170572916
 30
0.0
  0
VERTEX
  5
2FB
330
2F0
100
AcDbEntity
  8
STATE
 62
     2
100
AcDbVertex
100
AcDb2dVertex
 10
6.769965277777778
 20
4.732747395833333
 30
0.0
  0
VERTEX
  5
2FC
330
2F0
100
AcDbEntity
  8
STATE
 62
     2
100
AcDbVertex
100
AcDb2dVertex
 10
6.756632486979166
 20
4.706075032552083
 30
0.0
  0
VERTEX
  5
2FD
330
2F0
100
AcDbEntity
  8
STATE
 62
     2
100
AcDbVertex
100
AcDb2dVertex
 10
6.716634114583333
 20
4.646070692274305
 30
0.0
  0
VERTEX
  5
2FE
330
2F0
100
AcDbEntity
  8
STATE
 62
     2
100
AcDbVertex
100
AcDb2dVertex
 10
6.703301323784721
 20
4.636067708333333
 30
0.0
  0
VERTEX
  5
2FF
330
2F0
100
AcDbEntity
  8
STATE
 62
     2
100
AcDbVertex
100
AcDb2dVertex
 10
6.693305121527778
 20
4.636067708333333
 30
0.0
  0
VERTEX
  5
300
330
2F0
100
AcDbEntity
  8
STATE
 62
     2
100
AcDbVertex
100
AcDb2dVertex
 10
6.659966362847221
 20
4.626064724392361
 30
0.0
  0
VERTEX
  5
301
330
2F0
100
AcDbEntity
  8
STATE
 62
     2
100
AcDbVertex
100
AcDb2dVertex
 10
6.619967990451388
 20
4.606065538194444
 30
0.0
  0
VERTEX
  5
302
330
2F0
100
AcDbEntity
  8
STATE
 62
     2
100
AcDbVertex
100
AcDb2dVertex
 10
6.583306206597221
 20
4.592725965711805
 30
0.0
  0
VERTEX
  5
303
330
2F0
100
AcDbEntity
  8
STATE
 62
     2
100
AcDbVertex
100
AcDb2dVertex
 10
6.509969075520833
 20
4.592725965711805
 30
0.0
  0
VERTEX
  5
304
330
2F0
100
AcDbEntity
  8
STATE
 62
     2
100
AcDbVertex
100
AcDb2dVertex
 10
6.473293728298611
 20
4.582722981770833
 30
0.0
  0
VERTEX
  5
305
330
2F0
100
AcDbEntity
  8
STATE
 62
     2
100
AcDbVertex
100
AcDb2dVertex
 10
6.443305121527778
 20
4.626064724392361
 30
0.0
  0
VERTEX
  5
306
330
2F0
100
AcDbEntity
  8
STATE
 62
     2
100
AcDbVertex
100
AcDb2dVertex
 10
6.423312717013888
 20
4.686075846354166
 30
0.0
  0
VERTEX
  5
307
330
2F0
100
AcDbEntity
  8
STATE
 62
     2
100
AcDbVertex
100
AcDb2dVertex
 10
6.433308919270833
 20
4.742750379774305
 30
0.0
  0
VERTEX
  5
308
330
2F0
100
AcDbEntity
  8
STATE
 62
     2
100
AcDbVertex
100
AcDb2dVertex
 10
6.429972330729166
 20
4.766086154513888
 30
0.0
  0
VERTEX
  5
309
330
2F0
100
AcDbEntity
  8
STATE
 62
     2
100
AcDbVertex
100
AcDb2dVertex
 10
6.399970160590278
 20
4.812757703993055
 30
0.0
  0
VERTEX
  5
30A
330
2F0
100
AcDbEntity
  8
STATE
 62
     2
100
AcDbVertex
100
AcDb2dVertex
 10
6.393310546875
 20
4.822760687934028
 30
0.0
  0
VERTEX
  5
30B
330
2F0
100
AcDbEntity
  8
STATE
 62
     2
100
AcDbVertex
100
AcDb2dVertex
 10
6.309977213541666
 20
4.866102430555555
 30
0.0
  0
VERTEX
  5
30C
330
2F0
100
AcDbEntity
  8
STATE
 62
     2
100
AcDbVertex
100
AcDb2dVertex
 10
6.299967447916666
 20
4.882771809895833
 30
0.0
  0
VERTEX
  5
30D
330
2F0
100
AcDbEntity
  8
STATE
 62
     2
100
AcDbVertex
100
AcDb2dVertex
 10
6.296630859375
 20
4.892774793836805
 30
0.0
  0
VERTEX
  5
30E
330
2F0
100
AcDbEntity
  8
STATE
 62
     2
100
AcDbVertex
100
AcDb2dVertex
 10
6.296630859375
 20
4.919447157118055
 30
0.0
  0
VERTEX
  5
30F
330
2F0
100
AcDbEntity
  8
STATE
 62
     2
100
AcDbVertex
100
AcDb2dVertex
 10
6.299967447916666
 20
4.939446343315972
 30
0.0
  0
VERTEX
  5
310
330
2F0
100
AcDbEntity
  8
STATE
 62
     2
100
AcDbVertex
100
AcDb2dVertex
 10
6.343302408854166
 20
4.966118706597222
 30
0.0
  0
VERTEX
  5
311
330
2F0
100
AcDbEntity
  8
STATE
 62
     2
100
AcDbVertex
100
AcDb2dVertex
 10
6.363294813368055
 20
4.972785101996528
 30
0.0
  0
VERTEX
  5
312
330
2F0
100
AcDbEntity
  8
STATE
 62
     2
100
AcDbVertex
100
AcDb2dVertex
 10
6.393310546875
 20
4.972785101996528
 30
0.0
  0
SEQEND
  5
313
330
2F0
100
AcDbEntity
  8
STATE
  0
POLYLINE
  5
314
330
3C
100
AcDbEntity
  8
STATE
 62
     2
100
AcDb2dPolyline
 66
     1
 10
0.0
 20
0.0
 30
0.0
  0
VERTEX
  5
315
330
314
100
AcDbEntity
  8
STATE
 62
     2
100
AcDbVertex
100
AcDb2dVertex
 10
0.3866644965277777
 20
6.713053385416666
 30
0.0
  0
VERTEX
  5
316
330
314
100
AcDbEntity
  8
STATE
 62
     2
100
AcDbVertex
100
AcDb2dVertex
 10
0.3766682942708333
 20
6.723056369357638
 30
0.0
  0
VERTEX
  5
317
330
314
100
AcDbEntity
  8
STATE
 62
     2
100
AcDbVertex
100
AcDb2dVertex
 10
0.3566623263888889
 20
6.753065321180555
 30
0.0
  0
VERTEX
  5
318
330
314
100
AcDbEntity
  8
STATE
 62
     2
100
AcDbVertex
100
AcDb2dVertex
 10
0.35333251953125
 20
6.756395128038194
 30
0.0
  0
VERTEX
  5
319
330
314
100
AcDbEntity
  8
STATE
 62
     2
100
AcDbVertex
100
AcDb2dVertex
 10
0.3500027126736111
 20
6.7630615234375
 30
0.0
  0
VERTEX
  5
31A
330
314
100
AcDbEntity
  8
STATE
 62
     2
100
AcDbVertex
100
AcDb2dVertex
 10
0.3566623263888889
 20
6.829739040798611
 30
0.0
  0
VERTEX
  5
31B
330
314
100
AcDbEntity
  8
STATE
 62
     2
100
AcDbVertex
100
AcDb2dVertex
 10
0.3599989149305555
 20
6.836405436197916
 30
0.0
  0
VERTEX
  5
31C
330
314
100
AcDbEntity
  8
STATE
 62
     2
100
AcDbVertex
100
AcDb2dVertex
 10
0.3733317057291666
 20
6.869744194878471
 30
0.0
  0
VERTEX
  5
31D
330
314
100
AcDbEntity
  8
STATE
 62
     2
100
AcDbVertex
100
AcDb2dVertex
 10
0.3799981011284722
 20
6.889750162760416
 30
0.0
  0
VERTEX
  5
31E
330
314
100
AcDbEntity
  8
STATE
 62
     2
100
AcDbVertex
100
AcDb2dVertex
 10
0.3799981011284722
 20
6.893086751302083
 30
0.0
  0
VERTEX
  5
31F
330
314
100
AcDbEntity
  8
STATE
 62
     2
100
AcDbVertex
100
AcDb2dVertex
 10
0.3866644965277777
 20
6.903082953559028
 30
0.0
  0
VERTEX
  5
320
330
314
100
AcDbEntity
  8
STATE
 62
     2
100
AcDbVertex
100
AcDb2dVertex
 10
0.3899943033854166
 20
6.909756130642361
 30
0.0
  0
VERTEX
  5
321
330
314
100
AcDbEntity
  8
STATE
 62
     2
100
AcDbVertex
100
AcDb2dVertex
 10
0.4166666666666666
 20
6.929755316840278
 30
0.0
  0
VERTEX
  5
322
330
314
100
AcDbEntity
  8
STATE
 62
     2
100
AcDbVertex
100
AcDb2dVertex
 10
0.4333360460069444
 20
6.946424696180555
 30
0.0
  0
VERTEX
  5
323
330
314
100
AcDbEntity
  8
STATE
 62
     2
100
AcDbVertex
100
AcDb2dVertex
 10
0.4399956597222222
 20
6.956427680121528
 30
0.0
  0
VERTEX
  5
324
330
314
100
AcDbEntity
  8
STATE
 62
     2
100
AcDbVertex
100
AcDb2dVertex
 10
0.4533352322048611
 20
6.969760470920138
 30
0.0
  0
VERTEX
  5
325
330
314
100
AcDbEntity
  8
STATE
 62
     2
100
AcDbVertex
100
AcDb2dVertex
 10
0.4600016276041666
 20
6.973097059461805
 30
0.0
  0
VERTEX
  5
326
330
314
100
AcDbEntity
  8
STATE
 62
     2
100
AcDbVertex
100
AcDb2dVertex
 10
0.4633314344618055
 20
6.976426866319444
 30
0.0
  0
VERTEX
  5
327
330
314
100
AcDbEntity
  8
STATE
 62
     2
100
AcDbVertex
100
AcDb2dVertex
 10
0.5033298068576388
 20
6.996432834201388
 30
0.0
  0
VERTEX
  5
328
330
314
100
AcDbEntity
  8
STATE
 62
     2
100
AcDbVertex
100
AcDb2dVertex
 10
0.5633273654513888
 20
7.026435004340278
 30
0.0
  0
VERTEX
  5
329
330
314
100
AcDbEntity
  8
STATE
 62
     2
100
AcDbVertex
100
AcDb2dVertex
 10
0.5799967447916666
 20
7.039774576822916
 30
0.0
  0
VERTEX
  5
32A
330
314
100
AcDbEntity
  8
STATE
 62
     2
100
AcDbVertex
100
AcDb2dVertex
 10
0.5833333333333333
 20
7.046440972222221
 30
0.0
  0
VERTEX
  5
32B
330
314
100
AcDbEntity
  8
STATE
 62
     2
100
AcDbVertex
100
AcDb2dVertex
 10
0.589992947048611
 20
7.053107367621528
 30
0.0
  0
VERTEX
  5
32C
330
314
100
AcDbEntity
  8
STATE
 62
     2
100
AcDbVertex
100
AcDb2dVertex
 10
0.5966593424479166
 20
7.073113335503471
 30
0.0
  0
VERTEX
  5
32D
330
314
100
AcDbEntity
  8
STATE
 62
     2
100
AcDbVertex
100
AcDb2dVertex
 10
0.5999959309895833
 20
7.083116319444444
 30
0.0
  0
VERTEX
  5
32E
330
314
100
AcDbEntity
  8
STATE
 62
     2
100
AcDbVertex
100
AcDb2dVertex
 10
0.6099989149305555
 20
7.119784884982638
 30
0.0
  0
VERTEX
  5
32F
330
314
100
AcDbEntity
  8
STATE
 62
     2
100
AcDbVertex
100
AcDb2dVertex
 10
0.6233317057291666
 20
7.126451280381944
 30
0.0
  0
VERTEX
  5
330
330
314
100
AcDbEntity
  8
STATE
 62
     2
100
AcDbVertex
100
AcDb2dVertex
 10
0.6333346896701388
 20
7.126451280381944
 30
0.0
  0
VERTEX
  5
331
330
314
100
AcDbEntity
  8
STATE
 62
     2
100
AcDbVertex
100
AcDb2dVertex
 10
0.6399943033854166
 20
7.129787868923611
 30
0.0
  0
VERTEX
  5
332
330
314
100
AcDbEntity
  8
STATE
 62
     2
100
AcDbVertex
100
AcDb2dVertex
 10
0.6533338758680555
 20
7.133124457465278
 30
0.0
  0
VERTEX
  5
333
330
314
100
AcDbEntity
  8
STATE
 62
     2
100
AcDbVertex
100
AcDb2dVertex
 10
0.67999267578125
 20
7.133124457465278
 30
0.0
  0
VERTEX
  5
334
330
314
100
AcDbEntity
  8
STATE
 62
     2
100
AcDbVertex
100
AcDb2dVertex
 10
0.6833292643229166
 20
7.133124457465278
 30
0.0
  0
VERTEX
  5
335
330
314
100
AcDbEntity
  8
STATE
 62
     2
100
AcDbVertex
100
AcDb2dVertex
 10
0.7100016276041666
 20
7.119784884982638
 30
0.0
  0
VERTEX
  5
336
330
314
100
AcDbEntity
  8
STATE
 62
     2
100
AcDbVertex
100
AcDb2dVertex
 10
0.719997829861111
 20
7.093112521701388
 30
0.0
  0
VERTEX
  5
337
330
314
100
AcDbEntity
  8
STATE
 62
     2
100
AcDbVertex
100
AcDb2dVertex
 10
0.719997829861111
 20
7.086446126302083
 30
0.0
  0
VERTEX
  5
338
330
314
100
AcDbEntity
  8
STATE
 62
     2
100
AcDbVertex
100
AcDb2dVertex
 10
0.7133314344618055
 20
7.083116319444444
 30
0.0
  0
VERTEX
  5
339
330
314
100
AcDbEntity
  8
STATE
 62
     2
100
AcDbVertex
100
AcDb2dVertex
 10
0.7033284505208333
 20
7.079779730902778
 30
0.0
  0
VERTEX
  5
33A
330
314
100
AcDbEntity
  8
STATE
 62
     2
100
AcDbVertex
100
AcDb2dVertex
 10
0.6999986436631944
 20
7.083116319444444
 30
0.0
  0
VERTEX
  5
33B
330
314
100
AcDbEntity
  8
STATE
 62
     2
100
AcDbVertex
100
AcDb2dVertex
 10
0.6966620551215278
 20
7.079779730902778
 30
0.0
  0
VERTEX
  5
33C
330
314
100
AcDbEntity
  8
STATE
 62
     2
100
AcDbVertex
100
AcDb2dVertex
 10
0.6699964735243055
 20
7.03643798828125
 30
0.0
  0
VERTEX
  5
33D
330
314
100
AcDbEntity
  8
STATE
 62
     2
100
AcDbVertex
100
AcDb2dVertex
 10
0.6566636827256944
 20
6.983100043402778
 30
0.0
  0
VERTEX
  5
33E
330
314
100
AcDbEntity
  8
STATE
 62
     2
100
AcDbVertex
100
AcDb2dVertex
 10
0.6666666666666666
 20
6.949761284722221
 30
0.0
  0
VERTEX
  5
33F
330
314
100
AcDbEntity
  8
STATE
 62
     2
100
AcDbVertex
100
AcDb2dVertex
 10
0.6699964735243055
 20
6.919752332899305
 30
0.0
  0
VERTEX
  5
340
330
314
100
AcDbEntity
  8
STATE
 62
     2
100
AcDbVertex
100
AcDb2dVertex
 10
0.6299981011284722
 20
6.896416558159721
 30
0.0
  0
VERTEX
  5
341
330
314
100
AcDbEntity
  8
STATE
 62
     2
100
AcDbVertex
100
AcDb2dVertex
 10
0.6266682942708333
 20
6.896416558159721
 30
0.0
  0
VERTEX
  5
342
330
314
100
AcDbEntity
  8
STATE
 62
     2
100
AcDbVertex
100
AcDb2dVertex
 10
0.6233317057291666
 20
6.896416558159721
 30
0.0
  0
VERTEX
  5
343
330
314
100
AcDbEntity
  8
STATE
 62
     2
100
AcDbVertex
100
AcDb2dVertex
 10
0.5833333333333333
 20
6.883083767361111
 30
0.0
  0
VERTEX
  5
344
330
314
100
AcDbEntity
  8
STATE
 62
     2
100
AcDbVertex
100
AcDb2dVertex
 10
0.5399983723958333
 20
6.876417371961805
 30
0.0
  0
VERTEX
  5
345
330
314
100
AcDbEntity
  8
STATE
 62
     2
100
AcDbVertex
100
AcDb2dVertex
 10
0.5133260091145833
 20
6.859747992621528
 30
0.0
  0
VERTEX
  5
346
330
314
100
AcDbEntity
  8
STATE
 62
     2
100
AcDbVertex
100
AcDb2dVertex
 10
0.4899970160590277
 20
6.823072645399305
 30
0.0
  0
VERTEX
  5
347
330
314
100
AcDbEntity
  8
STATE
 62
     2
100
AcDbVertex
100
AcDb2dVertex
 10
0.4600016276041666
 20
6.776401095920138
 30
0.0
  0
VERTEX
  5
348
330
314
100
AcDbEntity
  8
STATE
 62
     2
100
AcDbVertex
100
AcDb2dVertex
 10
0.4299994574652777
 20
6.709723578559028
 30
0.0
  0
VERTEX
  5
349
330
314
100
AcDbEntity
  8
STATE
 62
     2
100
AcDbVertex
100
AcDb2dVertex
 10
0.4399956597222222
 20
6.703057183159721
 30
0.0
  0
VERTEX
  5
34A
330
314
100
AcDbEntity
  8
STATE
 62
     2
100
AcDbVertex
100
AcDb2dVertex
 10
0.4299994574652777
 20
6.689717610677083
 30
0.0
  0
VERTEX
  5
34B
330
314
100
AcDbEntity
  8
STATE
 62
     2
100
AcDbVertex
100
AcDb2dVertex
 10
0.4166666666666666
 20
6.696384006076388
 30
0.0
  0
VERTEX
  5
34C
330
314
100
AcDbEntity
  8
STATE
 62
     2
100
AcDbVertex
100
AcDb2dVertex
 10
0.413330078125
 20
6.696384006076388
 30
0.0
  0
VERTEX
  5
34D
330
314
100
AcDbEntity
  8
STATE
 62
     2
100
AcDbVertex
100
AcDb2dVertex
 10
0.4066636827256944
 20
6.699720594618055
 30
0.0
  0
VERTEX
  5
34E
330
314
100
AcDbEntity
  8
STATE
 62
     2
100
AcDbVertex
100
AcDb2dVertex
 10
0.3933308919270833
 20
6.709723578559028
 30
0.0
  0
VERTEX
  5
34F
330
314
100
AcDbEntity
  8
STATE
 62
     2
100
AcDbVertex
100
AcDb2dVertex
 10
0.3899943033854166
 20
6.713053385416666
 30
0.0
  0
VERTEX
  5
350
330
314
100
AcDbEntity
  8
STATE
 62
     2
100
AcDbVertex
100
AcDb2dVertex
 10
0.3866644965277777
 20
6.713053385416666
 30
0.0
  0
SEQEND
  5
351
330
314
100
AcDbEntity
  8
STATE
  0
POLYLINE
  5
352
330
3C
100
AcDbEntity
  8
STATE
 62
     2
100
AcDb2dPolyline
 66
     1
 10
0.0
 20
0.0
 30
0.0
  0
VERTEX
  5
353
330
352
100
AcDbEntity
  8
STATE
 62
     2
100
AcDbVertex
100
AcDb2dVertex
 10
7.229966905381944
 20
4.329352484809028
 30
0.0
  0
VERTEX
  5
354
330
352
100
AcDbEntity
  8
STATE
 62
     2
100
AcDbVertex
100
AcDb2dVertex
 10
7.243299696180555
 20
4.319349500868055
 30
0.0
  0
VERTEX
  5
355
330
352
100
AcDbEntity
  8
STATE
 62
     2
100
AcDbVertex
100
AcDb2dVertex
 10
7.2532958984375
 20
4.309353298611111
 30
0.0
  0
VERTEX
  5
356
330
352
100
AcDbEntity
  8
STATE
 62
     2
100
AcDbVertex
100
AcDb2dVertex
 10
7.266628689236111
 20
4.289347330729166
 30
0.0
  0
VERTEX
  5
357
330
352
100
AcDbEntity
  8
STATE
 62
     2
100
AcDbVertex
100
AcDb2dVertex
 10
7.273301866319444
 20
4.282680935329861
 30
0.0
  0
VERTEX
  5
358
330
352
100
AcDbEntity
  8
STATE
 62
     2
100
AcDbVertex
100
AcDb2dVertex
 10
7.273301866319444
 20
4.269341362847222
 30
0.0
  0
VERTEX
  5
359
330
352
100
AcDbEntity
  8
STATE
 62
     2
100
AcDbVertex
100
AcDb2dVertex
 10
7.263292100694444
 20
4.259345160590278
 30
0.0
  0
VERTEX
  5
35A
330
352
100
AcDbEntity
  8
STATE
 62
     2
100
AcDbVertex
100
AcDb2dVertex
 10
7.249972873263888
 20
4.206000434027778
 30
0.0
  0
VERTEX
  5
35B
330
352
100
AcDbEntity
  8
STATE
 62
     2
100
AcDbVertex
100
AcDb2dVertex
 10
7.256632486979166
 20
4.1993408203125
 30
0.0
  0
VERTEX
  5
35C
330
352
100
AcDbEntity
  8
STATE
 62
     2
100
AcDbVertex
100
AcDb2dVertex
 10
7.279975043402778
 20
4.1893310546875
 30
0.0
  0
VERTEX
  5
35D
330
352
100
AcDbEntity
  8
STATE
 62
     2
100
AcDbVertex
100
AcDb2dVertex
 10
7.283298068576388
 20
4.175998263888888
 30
0.0
  0
VERTEX
  5
35E
330
352
100
AcDbEntity
  8
STATE
 62
     2
100
AcDbVertex
100
AcDb2dVertex
 10
7.279975043402778
 20
4.172661675347222
 30
0.0
  0
VERTEX
  5
35F
330
352
100
AcDbEntity
  8
STATE
 62
     2
100
AcDbVertex
100
AcDb2dVertex
 10
7.273301866319444
 20
4.166002061631945
 30
0.0
  0
VERTEX
  5
360
330
352
100
AcDbEntity
  8
STATE
 62
     2
100
AcDbVertex
100
AcDb2dVertex
 10
7.263292100694444
 20
4.162651909722222
 30
0.0
  0
VERTEX
  5
361
330
352
100
AcDbEntity
  8
STATE
 62
     2
100
AcDbVertex
100
AcDb2dVertex
 10
7.243299696180555
 20
4.166002061631945
 30
0.0
  0
VERTEX
  5
362
330
352
100
AcDbEntity
  8
STATE
 62
     2
100
AcDbVertex
100
AcDb2dVertex
 10
7.193305121527778
 20
4.142659505208333
 30
0.0
  0
VERTEX
  5
363
330
352
100
AcDbEntity
  8
STATE
 62
     2
100
AcDbVertex
100
AcDb2dVertex
 10
7.159966362847221
 20
4.169325086805555
 30
0.0
  0
VERTEX
  5
364
330
352
100
AcDbEntity
  8
STATE
 62
     2
100
AcDbVertex
100
AcDb2dVertex
 10
7.109971788194444
 20
4.149332682291666
 30
0.0
  0
VERTEX
  5
365
330
352
100
AcDbEntity
  8
STATE
 62
     2
100
AcDbVertex
100
AcDb2dVertex
 10
7.0899658203125
 20
4.135986328125
 30
0.0
  0
VERTEX
  5
366
330
352
100
AcDbEntity
  8
STATE
 62
     2
100
AcDbVertex
100
AcDb2dVertex
 10
7.079969618055555
 20
4.142659505208333
 30
0.0
  0
VERTEX
  5
367
330
352
100
AcDbEntity
  8
STATE
 62
     2
100
AcDbVertex
100
AcDb2dVertex
 10
7.063300238715278
 20
4.135986328125
 30
0.0
  0
VERTEX
  5
368
330
352
100
AcDbEntity
  8
STATE
 62
     2
100
AcDbVertex
100
AcDb2dVertex
 10
7.056627061631944
 20
4.135986328125
 30
0.0
  0
VERTEX
  5
369
330
352
100
AcDbEntity
  8
STATE
 62
     2
100
AcDbVertex
100
AcDb2dVertex
 10
7.039957682291666
 20
4.129313151041666
 30
0.0
  0
VERTEX
  5
36A
330
352
100
AcDbEntity
  8
STATE
 62
     2
100
AcDbVertex
100
AcDb2dVertex
 10
7.026638454861111
 20
4.129313151041666
 30
0.0
  0
VERTEX
  5
36B
330
352
100
AcDbEntity
  8
STATE
 62
     2
100
AcDbVertex
100
AcDb2dVertex
 10
7.013292100694444
 20
4.132663302951388
 30
0.0
  0
VERTEX
  5
36C
330
352
100
AcDbEntity
  8
STATE
 62
     2
100
AcDbVertex
100
AcDb2dVertex
 10
6.973293728298611
 20
4.172661675347222
 30
0.0
  0
VERTEX
  5
36D
330
352
100
AcDbEntity
  8
STATE
 62
     2
100
AcDbVertex
100
AcDb2dVertex
 10
6.976630316840278
 20
4.182671440972222
 30
0.0
  0
VERTEX
  5
36E
330
352
100
AcDbEntity
  8
STATE
 62
     2
100
AcDbVertex
100
AcDb2dVertex
 10
6.986626519097221
 20
4.202663845486111
 30
0.0
  0
VERTEX
  5
36F
330
352
100
AcDbEntity
  8
STATE
 62
     2
100
AcDbVertex
100
AcDb2dVertex
 10
6.999972873263888
 20
4.215996636284722
 30
0.0
  0
VERTEX
  5
370
330
352
100
AcDbEntity
  8
STATE
 62
     2
100
AcDbVertex
100
AcDb2dVertex
 10
7.016642252604166
 20
4.232666015625
 30
0.0
  0
VERTEX
  5
371
330
352
100
AcDbEntity
  8
STATE
 62
     2
100
AcDbVertex
100
AcDb2dVertex
 10
7.043294270833333
 20
4.24267578125
 30
0.0
  0
VERTEX
  5
372
330
352
100
AcDbEntity
  8
STATE
 62
     2
100
AcDbVertex
100
AcDb2dVertex
 10
7.069959852430555
 20
4.249342176649305
 30
0.0
  0
VERTEX
  5
373
330
352
100
AcDbEntity
  8
STATE
 62
     2
100
AcDbVertex
100
AcDb2dVertex
 10
7.086642795138888
 20
4.259345160590278
 30
0.0
  0
VERTEX
  5
374
330
352
100
AcDbEntity
  8
STATE
 62
     2
100
AcDbVertex
100
AcDb2dVertex
 10
7.103298611111111
 20
4.272677951388888
 30
0.0
  0
VERTEX
  5
375
330
352
100
AcDbEntity
  8
STATE
 62
     2
100
AcDbVertex
100
AcDb2dVertex
 10
7.139960394965278
 20
4.292683919270833
 30
0.0
  0
VERTEX
  5
376
330
352
100
AcDbEntity
  8
STATE
 62
     2
100
AcDbVertex
100
AcDb2dVertex
 10
7.146633572048611
 20
4.306016710069445
 30
0.0
  0
VERTEX
  5
377
330
352
100
AcDbEntity
  8
STATE
 62
     2
100
AcDbVertex
100
AcDb2dVertex
 10
7.156629774305555
 20
4.31268310546875
 30
0.0
  0
VERTEX
  5
378
330
352
100
AcDbEntity
  8
STATE
 62
     2
100
AcDbVertex
100
AcDb2dVertex
 10
7.2099609375
 20
4.332689073350695
 30
0.0
  0
VERTEX
  5
379
330
352
100
AcDbEntity
  8
STATE
 62
     2
100
AcDbVertex
100
AcDb2dVertex
 10
7.229966905381944
 20
4.329352484809028
 30
0.0
  0
SEQEND
  5
37A
330
352
100
AcDbEntity
  8
STATE
  0
POLYLINE
  5
37B
330
3C
100
AcDbEntity
  8
STATE
 62
     2
100
AcDb2dPolyline
 66
     1
 10
0.0
 20
0.0
 30
0.0
  0
VERTEX
  5
37C
330
37B
100
AcDbEntity
  8
STATE
 62
     2
100
AcDbVertex
100
AcDb2dVertex
 10
-0.2266642252604167
 20
6.479688856336805
 30
0.0
  0
VERTEX
  5
37D
330
37B
100
AcDbEntity
  8
STATE
 62
     2
100
AcDbVertex
100
AcDb2dVertex
 10
-0.2166680230034722
 20
6.483018663194444
 30
0.0
  0
VERTEX
  5
37E
330
37B
100
AcDbEntity
  8
STATE
 62
     2
100
AcDbVertex
100
AcDb2dVertex
 10
-0.2033352322048611
 20
6.476352267795138
 30
0.0
  0
VERTEX
  5
37F
330
37B
100
AcDbEntity
  8
STATE
 62
     2
100
AcDbVertex
100
AcDb2dVertex
 10
-0.2033352322048611
 20
6.436347113715278
 30
0.0
  0
VERTEX
  5
380
330
37B
100
AcDbEntity
  8
STATE
 62
     2
100
AcDbVertex
100
AcDb2dVertex
 10
-0.2166680230034722
 20
6.433010525173611
 30
0.0
  0
VERTEX
  5
381
330
37B
100
AcDbEntity
  8
STATE
 62
     2
100
AcDbVertex
100
AcDb2dVertex
 10
-0.22332763671875
 20
6.439683702256944
 30
0.0
  0
VERTEX
  5
382
330
37B
100
AcDbEntity
  8
STATE
 62
     2
100
AcDbVertex
100
AcDb2dVertex
 10
-0.2266642252604167
 20
6.479688856336805
 30
0.0
  0
SEQEND
  5
383
330
37B
100
AcDbEntity
  8
STATE
  0
SPLINE
  5
384
330
3C
100
AcDbEntity
  8
STATE
 62
     2
100
AcDbSpline
210
0.0
220
0.0
230
1.0
 70
    11
 71
     3
 72
    41
 73
    37
 74
     0
 42
0.0000000001
 43
0.0000000001
 40
0.0
 40
0.0
 40
0.0
 40
0.0
 40
1.0
 40
1.0
 40
1.0
 40
2.0
 40
2.0
 40
2.0
 40
3.0
 40
3.0
 40
3.0
 40
4.0
 40
4.0
 40
4.0
 40
5.0
 40
5.0
 40
5.0
 40
6.0
 40
6.0
 40
6.0
 40
7.0
 40
7.0
 40
7.0
 40
8.0
 40
8.0
 40
8.0
 40
9.0
 40
9.0
 40
9.0
 40
10.0
 40
10.0
 40
10.0
 40
11.0
 40
11.0
 40
11.0
 40
12.0
 40
12.0
 40
12.0
 40
12.0
 10
4.929979112413194
 20
5.979607476128472
 30
0.0
 10
4.929979112413194
 20
5.979607476128472
 30
0.0
 10
4.933308919270833
 20
5.976277669270833
 30
0.0
 10
4.933308919270833
 20
5.976277669270833
 30
0.0
 10
4.933308919270833
 20
5.976277669270833
 30
0.0
 10
4.929979112413194
 20
5.972941080729166
 30
0.0
 10
4.929979112413194
 20
5.972941080729166
 30
0.0
 10
4.929979112413194
 20
5.972941080729166
 30
0.0
 10
4.926642523871528
 20
5.972941080729166
 30
0.0
 10
4.926642523871528
 20
5.972941080729166
 30
0.0
 10
4.926642523871528
 20
5.972941080729166
 30
0.0
 10
4.923312717013888
 20
5.972941080729166
 30
0.0
 10
4.923312717013888
 20
5.972941080729166
 30
0.0
 10
4.923312717013888
 20
5.972941080729166
 30
0.0
 10
4.923312717013888
 20
5.976277669270833
 30
0.0
 10
4.923312717013888
 20
5.976277669270833
 30
0.0
 10
4.923312717013888
 20
5.976277669270833
 30
0.0
 10
4.926642523871528
 20
5.976277669270833
 30
0.0
 10
4.926642523871528
 20
5.976277669270833
 30
0.0
 10
4.926642523871528
 20
5.976277669270833
 30
0.0
 10
4.926642523871528
 20
5.979607476128472
 30
0.0
 10
4.926642523871528
 20
5.979607476128472
 30
0.0
 10
4.926642523871528
 20
5.979607476128472
 30
0.0
 10
4.923312717013888
 20
5.979607476128472
 30
0.0
 10
4.923312717013888
 20
5.979607476128472
 30
0.0
 10
4.923312717013888
 20
5.979607476128472
 30
0.0
 10
4.926642523871528
 20
5.979607476128472
 30
0.0
 10
4.926642523871528
 20
5.979607476128472
 30
0.0
 10
4.926642523871528
 20
5.979607476128472
 30
0.0
 10
4.929979112413194
 20
5.979607476128472
 30
0.0
 10
4.929979112413194
 20
5.979607476128472
 30
0.0
 10
4.929979112413194
 20
5.979607476128472
 30
0.0
 10
4.929979112413194
 20
5.982944064670138
 30
0.0
 10
4.929979112413194
 20
5.982944064670138
 30
0.0
 10
4.929979112413194
 20
5.982944064670138
 30
0.0
 10
4.929979112413194
 20
5.979607476128472
 30
0.0
 10
4.929979112413194
 20
5.979607476128472
 30
0.0
  0
POLYLINE
  5
385
330
3C
100
AcDbEntity
  8
STATE
 62
     2
100
AcDb2dPolyline
 66
     1
 10
0.0
 20
0.0
 30
0.0
  0
VERTEX
  5
386
330
385
100
AcDbEntity
  8
STATE
 62
     2
100
AcDbVertex
100
AcDb2dVertex
 10
9.026624891493055
 20
1.042168511284722
 30
0.0
  0
VERTEX
  5
387
330
385
100
AcDbEntity
  8
STATE
 62
     2
100
AcDbVertex
100
AcDb2dVertex
 10
9.019965277777777
 20
1.032172309027778
 30
0.0
  0
VERTEX
  5
388
330
385
100
AcDbEntity
  8
STATE
 62
     2
100
AcDbVertex
100
AcDb2dVertex
 10
8.983289930555555
 20
0.9988335503472222
 30
0.0
  0
VERTEX
  5
389
330
385
100
AcDbEntity
  8
STATE
 62
     2
100
AcDbVertex
100
AcDb2dVertex
 10
8.956624348958332
 20
0.9821641710069444
 30
0.0
  0
VERTEX
  5
38A
330
385
100
AcDbEntity
  8
STATE
 62
     2
100
AcDbVertex
100
AcDb2dVertex
 10
8.949964735243055
 20
0.9821641710069444
 30
0.0
  0
VERTEX
  5
38B
330
385
100
AcDbEntity
  8
STATE
 62
     2
100
AcDbVertex
100
AcDb2dVertex
 10
8.936631944444445
 20
0.985500759548611
 30
0.0
  0
VERTEX
  5
38C
330
385
100
AcDbEntity
  8
STATE
 62
     2
100
AcDbVertex
100
AcDb2dVertex
 10
8.92995876736111
 20
0.9888373480902777
 30
0.0
  0
VERTEX
  5
38D
330
385
100
AcDbEntity
  8
STATE
 62
     2
100
AcDbVertex
100
AcDb2dVertex
 10
8.926622178819445
 20
0.995510525173611
 30
0.0
  0
VERTEX
  5
38E
330
385
100
AcDbEntity
  8
STATE
 62
     2
100
AcDbVertex
100
AcDb2dVertex
 10
8.923299153645832
 20
0.9988335503472222
 30
0.0
  0
VERTEX
  5
38F
330
385
100
AcDbEntity
  8
STATE
 62
     2
100
AcDbVertex
100
AcDb2dVertex
 10
8.91994900173611
 20
1.012179904513889
 30
0.0
  0
VERTEX
  5
390
330
385
100
AcDbEntity
  8
STATE
 62
     2
100
AcDbVertex
100
AcDb2dVertex
 10
8.9166259765625
 20
1.028849283854167
 30
0.0
  0
VERTEX
  5
391
330
385
100
AcDbEntity
  8
STATE
 62
     2
100
AcDbVertex
100
AcDb2dVertex
 10
8.88662380642361
 20
1.055514865451389
 30
0.0
  0
VERTEX
  5
392
330
385
100
AcDbEntity
  8
STATE
 62
     2
100
AcDbVertex
100
AcDb2dVertex
 10
8.856621636284721
 20
1.082180447048611
 30
0.0
  0
VERTEX
  5
393
330
385
100
AcDbEntity
  8
STATE
 62
     2
100
AcDbVertex
100
AcDb2dVertex
 10
8.85329861111111
 20
1.085517035590278
 30
0.0
  0
VERTEX
  5
394
330
385
100
AcDbEntity
  8
STATE
 62
     2
100
AcDbVertex
100
AcDb2dVertex
 10
8.779961480034721
 20
1.108846028645833
 30
0.0
  0
VERTEX
  5
395
330
385
100
AcDbEntity
  8
STATE
 62
     2
100
AcDbVertex
100
AcDb2dVertex
 10
8.699964735243055
 20
1.172186957465278
 30
0.0
  0
VERTEX
  5
396
330
385
100
AcDbEntity
  8
STATE
 62
     2
100
AcDbVertex
100
AcDb2dVertex
 10
8.63662380642361
 20
1.185533311631944
 30
0.0
  0
VERTEX
  5
397
330
385
100
AcDbEntity
  8
STATE
 62
     2
100
AcDbVertex
100
AcDb2dVertex
 10
8.606621636284721
 20
1.188856336805556
 30
0.0
  0
VERTEX
  5
398
330
385
100
AcDbEntity
  8
STATE
 62
     2
100
AcDbVertex
100
AcDb2dVertex
 10
8.556627061631945
 20
1.215535481770833
 30
0.0
  0
VERTEX
  5
399
330
385
100
AcDbEntity
  8
STATE
 62
     2
100
AcDbVertex
100
AcDb2dVertex
 10
8.549967447916666
 20
1.222195095486111
 30
0.0
  0
VERTEX
  5
39A
330
385
100
AcDbEntity
  8
STATE
 62
     2
100
AcDbVertex
100
AcDb2dVertex
 10
8.546617296006945
 20
1.252210828993056
 30
0.0
  0
VERTEX
  5
39B
330
385
100
AcDbEntity
  8
STATE
 62
     2
100
AcDbVertex
100
AcDb2dVertex
 10
8.513292100694445
 20
1.302218967013889
 30
0.0
  0
VERTEX
  5
39C
330
385
100
AcDbEntity
  8
STATE
 62
     2
100
AcDbVertex
100
AcDb2dVertex
 10
8.5032958984375
 20
1.302218967013889
 30
0.0
  0
VERTEX
  5
39D
330
385
100
AcDbEntity
  8
STATE
 62
     2
100
AcDbVertex
100
AcDb2dVertex
 10
8.5032958984375
 20
1.3055419921875
 30
0.0
  0
VERTEX
  5
39E
330
385
100
AcDbEntity
  8
STATE
 62
     2
100
AcDbVertex
100
AcDb2dVertex
 10
8.476616753472221
 20
1.382229275173611
 30
0.0
  0
VERTEX
  5
39F
330
385
100
AcDbEntity
  8
STATE
 62
     2
100
AcDbVertex
100
AcDb2dVertex
 10
8.483289930555555
 20
1.452229817708333
 30
0.0
  0
VERTEX
  5
3A0
330
385
100
AcDbEntity
  8
STATE
 62
     2
100
AcDbVertex
100
AcDb2dVertex
 10
8.509955512152777
 20
1.575602213541667
 30
0.0
  0
VERTEX
  5
3A1
330
385
100
AcDbEntity
  8
STATE
 62
     2
100
AcDbVertex
100
AcDb2dVertex
 10
8.506632486979166
 20
1.602267795138889
 30
0.0
  0
VERTEX
  5
3A2
330
385
100
AcDbEntity
  8
STATE
 62
     2
100
AcDbVertex
100
AcDb2dVertex
 10
8.509955512152777
 20
1.658935546875
 30
0.0
  0
VERTEX
  5
3A3
330
385
100
AcDbEntity
  8
STATE
 62
     2
100
AcDbVertex
100
AcDb2dVertex
 10
8.52328830295139
 20
1.688937717013889
 30
0.0
  0
VERTEX
  5
3A4
330
385
100
AcDbEntity
  8
STATE
 62
     2
100
AcDbVertex
100
AcDb2dVertex
 10
8.529961480034721
 20
1.738959418402778
 30
0.0
  0
VERTEX
  5
3A5
330
385
100
AcDbEntity
  8
STATE
 62
     2
100
AcDbVertex
100
AcDb2dVertex
 10
8.53662109375
 20
1.815619574652778
 30
0.0
  0
VERTEX
  5
3A6
330
385
100
AcDbEntity
  8
STATE
 62
     2
100
AcDbVertex
100
AcDb2dVertex
 10
8.53329806857639
 20
1.835625542534722
 30
0.0
  0
VERTEX
  5
3A7
330
385
100
AcDbEntity
  8
STATE
 62
     2
100
AcDbVertex
100
AcDb2dVertex
 10
8.513292100694445
 20
1.895643446180555
 30
0.0
  0
VERTEX
  5
3A8
330
385
100
AcDbEntity
  8
STATE
 62
     2
100
AcDbVertex
100
AcDb2dVertex
 10
8.486626519097221
 20
1.942314995659722
 30
0.0
  0
VERTEX
  5
3A9
330
385
100
AcDbEntity
  8
STATE
 62
     2
100
AcDbVertex
100
AcDb2dVertex
 10
8.493299696180555
 20
1.965657552083333
 30
0.0
  0
VERTEX
  5
3AA
330
385
100
AcDbEntity
  8
STATE
 62
     2
100
AcDbVertex
100
AcDb2dVertex
 10
8.493299696180555
 20
1.968994140625
 30
0.0
  0
VERTEX
  5
3AB
330
385
100
AcDbEntity
  8
STATE
 62
     2
100
AcDbVertex
100
AcDb2dVertex
 10
8.469957139756945
 20
1.998982747395833
 30
0.0
  0
VERTEX
  5
3AC
330
385
100
AcDbEntity
  8
STATE
 62
     2
100
AcDbVertex
100
AcDb2dVertex
 10
8.46328396267361
 20
2.015652126736111
 30
0.0
  0
VERTEX
  5
3AD
330
385
100
AcDbEntity
  8
STATE
 62
     2
100
AcDbVertex
100
AcDb2dVertex
 10
8.46328396267361
 20
2.075670030381944
 30
0.0
  0
VERTEX
  5
3AE
330
385
100
AcDbEntity
  8
STATE
 62
     2
100
AcDbVertex
100
AcDb2dVertex
 10
8.466634114583332
 20
2.095675998263889
 30
0.0
  0
VERTEX
  5
3AF
330
385
100
AcDbEntity
  8
STATE
 62
     2
100
AcDbVertex
100
AcDb2dVertex
 10
8.46328396267361
 20
2.102349175347222
 30
0.0
  0
VERTEX
  5
3B0
330
385
100
AcDbEntity
  8
STATE
 62
     2
100
AcDbVertex
100
AcDb2dVertex
 10
8.453287760416666
 20
2.1090087890625
 30
0.0
  0
VERTEX
  5
3B1
330
385
100
AcDbEntity
  8
STATE
 62
     2
100
AcDbVertex
100
AcDb2dVertex
 10
8.443291558159721
 20
2.1090087890625
 30
0.0
  0
VERTEX
  5
3B2
330
385
100
AcDbEntity
  8
STATE
 62
     2
100
AcDbVertex
100
AcDb2dVertex
 10
8.439954969618055
 20
2.105672200520833
 30
0.0
  0
VERTEX
  5
3B3
330
385
100
AcDbEntity
  8
STATE
 62
     2
100
AcDbVertex
100
AcDb2dVertex
 10
8.439954969618055
 20
2.102349175347222
 30
0.0
  0
VERTEX
  5
3B4
330
385
100
AcDbEntity
  8
STATE
 62
     2
100
AcDbVertex
100
AcDb2dVertex
 10
8.436631944444445
 20
2.102349175347222
 30
0.0
  0
VERTEX
  5
3B5
330
385
100
AcDbEntity
  8
STATE
 62
     2
100
AcDbVertex
100
AcDb2dVertex
 10
8.413289388020832
 20
2.112345377604167
 30
0.0
  0
VERTEX
  5
3B6
330
385
100
AcDbEntity
  8
STATE
 62
     2
100
AcDbVertex
100
AcDb2dVertex
 10
8.409966362847221
 20
2.115668402777778
 30
0.0
  0
VERTEX
  5
3B7
330
385
100
AcDbEntity
  8
STATE
 62
     2
100
AcDbVertex
100
AcDb2dVertex
 10
8.406629774305555
 20
2.159016927083333
 30
0.0
  0
VERTEX
  5
3B8
330
385
100
AcDbEntity
  8
STATE
 62
     2
100
AcDbVertex
100
AcDb2dVertex
 10
8.399956597222221
 20
2.195692274305555
 30
0.0
  0
VERTEX
  5
3B9
330
385
100
AcDbEntity
  8
STATE
 62
     2
100
AcDbVertex
100
AcDb2dVertex
 10
8.399956597222221
 20
2.202351888020833
 30
0.0
  0
VERTEX
  5
3BA
330
385
100
AcDbEntity
  8
STATE
 62
     2
100
AcDbVertex
100
AcDb2dVertex
 10
8.393296983506945
 20
2.232367621527778
 30
0.0
  0
VERTEX
  5
3BB
330
385
100
AcDbEntity
  8
STATE
 62
     2
100
AcDbVertex
100
AcDb2dVertex
 10
8.389960394965277
 20
2.242363823784722
 30
0.0
  0
VERTEX
  5
3BC
330
385
100
AcDbEntity
  8
STATE
 62
     2
100
AcDbVertex
100
AcDb2dVertex
 10
8.38330078125
 20
2.245686848958333
 30
0.0
  0
VERTEX
  5
3BD
330
385
100
AcDbEntity
  8
STATE
 62
     2
100
AcDbVertex
100
AcDb2dVertex
 10
8.376627604166666
 20
2.249037000868055
 30
0.0
  0
VERTEX
  5
3BE
330
385
100
AcDbEntity
  8
STATE
 62
     2
100
AcDbVertex
100
AcDb2dVertex
 10
8.373291015625
 20
2.309041341145833
 30
0.0
  0
VERTEX
  5
3BF
330
385
100
AcDbEntity
  8
STATE
 62
     2
100
AcDbVertex
100
AcDb2dVertex
 10
8.363294813368055
 20
2.342380099826389
 30
0.0
  0
VERTEX
  5
3C0
330
385
100
AcDbEntity
  8
STATE
 62
     2
100
AcDbVertex
100
AcDb2dVertex
 10
8.35995822482639
 20
2.352376302083333
 30
0.0
  0
VERTEX
  5
3C1
330
385
100
AcDbEntity
  8
STATE
 62
     2
100
AcDbVertex
100
AcDb2dVertex
 10
8.356621636284721
 20
2.359049479166667
 30
0.0
  0
VERTEX
  5
3C2
330
385
100
AcDbEntity
  8
STATE
 62
     2
100
AcDbVertex
100
AcDb2dVertex
 10
8.336629231770832
 20
2.395724826388889
 30
0.0
  0
VERTEX
  5
3C3
330
385
100
AcDbEntity
  8
STATE
 62
     2
100
AcDbVertex
100
AcDb2dVertex
 10
8.32663302951389
 20
2.415717230902778
 30
0.0
  0
VERTEX
  5
3C4
330
385
100
AcDbEntity
  8
STATE
 62
     2
100
AcDbVertex
100
AcDb2dVertex
 10
8.319959852430555
 20
2.422390407986111
 30
0.0
  0
VERTEX
  5
3C5
330
385
100
AcDbEntity
  8
STATE
 62
     2
100
AcDbVertex
100
AcDb2dVertex
 10
8.30996365017361
 20
2.425726996527778
 30
0.0
  0
VERTEX
  5
3C6
330
385
100
AcDbEntity
  8
STATE
 62
     2
100
AcDbVertex
100
AcDb2dVertex
 10
8.263292100694445
 20
2.435723198784722
 30
0.0
  0
VERTEX
  5
3C7
330
385
100
AcDbEntity
  8
STATE
 62
     2
100
AcDbVertex
100
AcDb2dVertex
 10
8.2532958984375
 20
2.442396375868055
 30
0.0
  0
VERTEX
  5
3C8
330
385
100
AcDbEntity
  8
STATE
 62
     2
100
AcDbVertex
100
AcDb2dVertex
 10
8.249959309895832
 20
2.455729166666667
 30
0.0
  0
VERTEX
  5
3C9
330
385
100
AcDbEntity
  8
STATE
 62
     2
100
AcDbVertex
100
AcDb2dVertex
 10
8.2532958984375
 20
2.472398546006944
 30
0.0
  0
VERTEX
  5
3CA
330
385
100
AcDbEntity
  8
STATE
 62
     2
100
AcDbVertex
100
AcDb2dVertex
 10
8.259955512152777
 20
2.479071723090278
 30
0.0
  0
VERTEX
  5
3CB
330
385
100
AcDbEntity
  8
STATE
 62
     2
100
AcDbVertex
100
AcDb2dVertex
 10
8.263292100694445
 20
2.479071723090278
 30
0.0
  0
VERTEX
  5
3CC
330
385
100
AcDbEntity
  8
STATE
 62
     2
100
AcDbVertex
100
AcDb2dVertex
 10
8.259955512152777
 20
2.492404513888889
 30
0.0
  0
VERTEX
  5
3CD
330
385
100
AcDbEntity
  8
STATE
 62
     2
100
AcDbVertex
100
AcDb2dVertex
 10
8.246622721354166
 20
2.515733506944444
 30
0.0
  0
VERTEX
  5
3CE
330
385
100
AcDbEntity
  8
STATE
 62
     2
100
AcDbVertex
100
AcDb2dVertex
 10
8.226630316840277
 20
2.532416449652778
 30
0.0
  0
VERTEX
  5
3CF
330
385
100
AcDbEntity
  8
STATE
 62
     2
100
AcDbVertex
100
AcDb2dVertex
 10
8.216634114583332
 20
2.542399088541667
 30
0.0
  0
VERTEX
  5
3D0
330
385
100
AcDbEntity
  8
STATE
 62
     2
100
AcDbVertex
100
AcDb2dVertex
 10
8.216634114583332
 20
2.572414822048611
 30
0.0
  0
VERTEX
  5
3D1
330
385
100
AcDbEntity
  8
STATE
 62
     2
100
AcDbVertex
100
AcDb2dVertex
 10
8.193291558159721
 20
2.595743815104167
 30
0.0
  0
VERTEX
  5
3D2
330
385
100
AcDbEntity
  8
STATE
 62
     2
100
AcDbVertex
100
AcDb2dVertex
 10
8.206624348958332
 20
2.619086371527778
 30
0.0
  0
VERTEX
  5
3D3
330
385
100
AcDbEntity
  8
STATE
 62
     2
100
AcDbVertex
100
AcDb2dVertex
 10
8.216634114583332
 20
2.649102105034722
 30
0.0
  0
VERTEX
  5
3D4
330
385
100
AcDbEntity
  8
STATE
 62
     2
100
AcDbVertex
100
AcDb2dVertex
 10
8.219970703125
 20
2.695760091145833
 30
0.0
  0
VERTEX
  5
3D5
330
385
100
AcDbEntity
  8
STATE
 62
     2
100
AcDbVertex
100
AcDb2dVertex
 10
8.27328830295139
 20
2.739108615451389
 30
0.0
  0
VERTEX
  5
3D6
330
385
100
AcDbEntity
  8
STATE
 62
     2
100
AcDbVertex
100
AcDb2dVertex
 10
8.299967447916666
 20
2.769110785590278
 30
0.0
  0
VERTEX
  5
3D7
330
385
100
AcDbEntity
  8
STATE
 62
     2
100
AcDbVertex
100
AcDb2dVertex
 10
8.303290473090277
 20
2.772447374131944
 30
0.0
  0
VERTEX
  5
3D8
330
385
100
AcDbEntity
  8
STATE
 62
     2
100
AcDbVertex
100
AcDb2dVertex
 10
8.303290473090277
 20
2.775783962673611
 30
0.0
  0
VERTEX
  5
3D9
330
385
100
AcDbEntity
  8
STATE
 62
     2
100
AcDbVertex
100
AcDb2dVertex
 10
8.306627061631945
 20
2.779106987847222
 30
0.0
  0
VERTEX
  5
3DA
330
385
100
AcDbEntity
  8
STATE
 62
     2
100
AcDbVertex
100
AcDb2dVertex
 10
8.34328884548611
 20
2.825778537326389
 30
0.0
  0
VERTEX
  5
3DB
330
385
100
AcDbEntity
  8
STATE
 62
     2
100
AcDbVertex
100
AcDb2dVertex
 10
8.356621636284721
 20
2.835788302951389
 30
0.0
  0
VERTEX
  5
3DC
330
385
100
AcDbEntity
  8
STATE
 62
     2
100
AcDbVertex
100
AcDb2dVertex
 10
8.379950629340277
 20
2.845798068576389
 30
0.0
  0
VERTEX
  5
3DD
330
385
100
AcDbEntity
  8
STATE
 62
     2
100
AcDbVertex
100
AcDb2dVertex
 10
8.406629774305555
 20
2.84912109375
 30
0.0
  0
VERTEX
  5
3DE
330
385
100
AcDbEntity
  8
STATE
 62
     2
100
AcDbVertex
100
AcDb2dVertex
 10
8.4166259765625
 20
2.842447916666667
 30
0.0
  0
VERTEX
  5
3DF
330
385
100
AcDbEntity
  8
STATE
 62
     2
100
AcDbVertex
100
AcDb2dVertex
 10
8.423299153645832
 20
2.842447916666667
 30
0.0
  0
VERTEX
  5
3E0
330
385
100
AcDbEntity
  8
STATE
 62
     2
100
AcDbVertex
100
AcDb2dVertex
 10
8.453287760416666
 20
2.855794270833333
 30
0.0
  0
VERTEX
  5
3E1
330
385
100
AcDbEntity
  8
STATE
 62
     2
100
AcDbVertex
100
AcDb2dVertex
 10
8.449964735243055
 20
2.875786675347222
 30
0.0
  0
VERTEX
  5
3E2
330
385
100
AcDbEntity
  8
STATE
 62
     2
100
AcDbVertex
100
AcDb2dVertex
 10
8.453287760416666
 20
2.885796440972222
 30
0.0
  0
VERTEX
  5
3E3
330
385
100
AcDbEntity
  8
STATE
 62
     2
100
AcDbVertex
100
AcDb2dVertex
 10
8.469957139756945
 20
2.9124755859375
 30
0.0
  0
VERTEX
  5
3E4
330
385
100
AcDbEntity
  8
STATE
 62
     2
100
AcDbVertex
100
AcDb2dVertex
 10
8.47995334201389
 20
2.929131401909722
 30
0.0
  0
VERTEX
  5
3E5
330
385
100
AcDbEntity
  8
STATE
 62
     2
100
AcDbVertex
100
AcDb2dVertex
 10
8.47995334201389
 20
2.932467990451389
 30
0.0
  0
VERTEX
  5
3E6
330
385
100
AcDbEntity
  8
STATE
 62
     2
100
AcDbVertex
100
AcDb2dVertex
 10
8.483289930555555
 20
2.935804578993055
 30
0.0
  0
VERTEX
  5
3E7
330
385
100
AcDbEntity
  8
STATE
 62
     2
100
AcDbVertex
100
AcDb2dVertex
 10
8.496622721354166
 20
2.962470160590278
 30
0.0
  0
VERTEX
  5
3E8
330
385
100
AcDbEntity
  8
STATE
 62
     2
100
AcDbVertex
100
AcDb2dVertex
 10
8.509955512152777
 20
2.982476128472222
 30
0.0
  0
VERTEX
  5
3E9
330
385
100
AcDbEntity
  8
STATE
 62
     2
100
AcDbVertex
100
AcDb2dVertex
 10
8.509955512152777
 20
2.992485894097222
 30
0.0
  0
VERTEX
  5
3EA
330
385
100
AcDbEntity
  8
STATE
 62
     2
100
AcDbVertex
100
AcDb2dVertex
 10
8.513292100694445
 20
3.002482096354167
 30
0.0
  0
VERTEX
  5
3EB
330
385
100
AcDbEntity
  8
STATE
 62
     2
100
AcDbVertex
100
AcDb2dVertex
 10
8.559950086805555
 20
3.045817057291667
 30
0.0
  0
VERTEX
  5
3EC
330
385
100
AcDbEntity
  8
STATE
 62
     2
100
AcDbVertex
100
AcDb2dVertex
 10
8.563286675347221
 20
3.049153645833333
 30
0.0
  0
VERTEX
  5
3ED
330
385
100
AcDbEntity
  8
STATE
 62
     2
100
AcDbVertex
100
AcDb2dVertex
 10
8.5799560546875
 20
3.075832790798611
 30
0.0
  0
VERTEX
  5
3EE
330
385
100
AcDbEntity
  8
STATE
 62
     2
100
AcDbVertex
100
AcDb2dVertex
 10
8.60995822482639
 20
3.092502170138889
 30
0.0
  0
VERTEX
  5
3EF
330
385
100
AcDbEntity
  8
STATE
 62
     2
100
AcDbVertex
100
AcDb2dVertex
 10
8.613294813368055
 20
3.089152018229167
 30
0.0
  0
VERTEX
  5
3F0
330
385
100
AcDbEntity
  8
STATE
 62
     2
100
AcDbVertex
100
AcDb2dVertex
 10
8.619954427083332
 20
3.089152018229167
 30
0.0
  0
VERTEX
  5
3F1
330
385
100
AcDbEntity
  8
STATE
 62
     2
100
AcDbVertex
100
AcDb2dVertex
 10
8.626627604166666
 20
3.105821397569444
 30
0.0
  0
VERTEX
  5
3F2
330
385
100
AcDbEntity
  8
STATE
 62
     2
100
AcDbVertex
100
AcDb2dVertex
 10
8.626627604166666
 20
3.109171549479167
 30
0.0
  0
VERTEX
  5
3F3
330
385
100
AcDbEntity
  8
STATE
 62
     2
100
AcDbVertex
100
AcDb2dVertex
 10
8.629950629340277
 20
3.129163953993055
 30
0.0
  0
VERTEX
  5
3F4
330
385
100
AcDbEntity
  8
STATE
 62
     2
100
AcDbVertex
100
AcDb2dVertex
 10
8.63662380642361
 20
3.189168294270833
 30
0.0
  0
VERTEX
  5
3F5
330
385
100
AcDbEntity
  8
STATE
 62
     2
100
AcDbVertex
100
AcDb2dVertex
 10
8.629950629340277
 20
3.209174262152778
 30
0.0
  0
VERTEX
  5
3F6
330
385
100
AcDbEntity
  8
STATE
 62
     2
100
AcDbVertex
100
AcDb2dVertex
 10
8.616631401909721
 20
3.229180230034722
 30
0.0
  0
VERTEX
  5
3F7
330
385
100
AcDbEntity
  8
STATE
 62
     2
100
AcDbVertex
100
AcDb2dVertex
 10
8.606621636284721
 20
3.242513020833333
 30
0.0
  0
VERTEX
  5
3F8
330
385
100
AcDbEntity
  8
STATE
 62
     2
100
AcDbVertex
100
AcDb2dVertex
 10
8.60329861111111
 20
3.245849609375
 30
0.0
  0
VERTEX
  5
3F9
330
385
100
AcDbEntity
  8
STATE
 62
     2
100
AcDbVertex
100
AcDb2dVertex
 10
8.596625434027777
 20
3.252522786458333
 30
0.0
  0
VERTEX
  5
3FA
330
385
100
AcDbEntity
  8
STATE
 62
     2
100
AcDbVertex
100
AcDb2dVertex
 10
8.5899658203125
 20
3.262518988715278
 30
0.0
  0
VERTEX
  5
3FB
330
385
100
AcDbEntity
  8
STATE
 62
     2
100
AcDbVertex
100
AcDb2dVertex
 10
8.586629231770832
 20
3.265855577256944
 30
0.0
  0
VERTEX
  5
3FC
330
385
100
AcDbEntity
  8
STATE
 62
     2
100
AcDbVertex
100
AcDb2dVertex
 10
8.556627061631945
 20
3.295857747395833
 30
0.0
  0
VERTEX
  5
3FD
330
385
100
AcDbEntity
  8
STATE
 62
     2
100
AcDbVertex
100
AcDb2dVertex
 10
8.52328830295139
 20
3.349202473958333
 30
0.0
  0
VERTEX
  5
3FE
330
385
100
AcDbEntity
  8
STATE
 62
     2
100
AcDbVertex
100
AcDb2dVertex
 10
8.496622721354166
 20
3.429212782118055
 30
0.0
  0
VERTEX
  5
3FF
330
385
100
AcDbEntity
  8
STATE
 62
     2
100
AcDbVertex
100
AcDb2dVertex
 10
8.47995334201389
 20
3.5458984375
 30
0.0
  0
VERTEX
  5
400
330
385
100
AcDbEntity
  8
STATE
 62
     2
100
AcDbVertex
100
AcDb2dVertex
 10
8.48996310763889
 20
3.605902777777778
 30
0.0
  0
VERTEX
  5
401
330
385
100
AcDbEntity
  8
STATE
 62
     2
100
AcDbVertex
100
AcDb2dVertex
 10
8.506632486979166
 20
3.645914713541667
 30
0.0
  0
VERTEX
  5
402
330
385
100
AcDbEntity
  8
STATE
 62
     2
100
AcDbVertex
100
AcDb2dVertex
 10
8.52328830295139
 20
3.662584092881944
 30
0.0
  0
VERTEX
  5
403
330
385
100
AcDbEntity
  8
STATE
 62
     2
100
AcDbVertex
100
AcDb2dVertex
 10
8.539957682291666
 20
3.672593858506944
 30
0.0
  0
VERTEX
  5
404
330
385
100
AcDbEntity
  8
STATE
 62
     2
100
AcDbVertex
100
AcDb2dVertex
 10
8.57663302951389
 20
3.679253472222222
 30
0.0
  0
VERTEX
  5
405
330
385
100
AcDbEntity
  8
STATE
 62
     2
100
AcDbVertex
100
AcDb2dVertex
 10
8.65329318576389
 20
3.659247504340278
 30
0.0
  0
VERTEX
  5
406
330
385
100
AcDbEntity
  8
STATE
 62
     2
100
AcDbVertex
100
AcDb2dVertex
 10
8.656629774305555
 20
3.659247504340278
 30
0.0
  0
VERTEX
  5
407
330
385
100
AcDbEntity
  8
STATE
 62
     2
100
AcDbVertex
100
AcDb2dVertex
 10
8.676622178819445
 20
3.649251302083333
 30
0.0
  0
VERTEX
  5
408
330
385
100
AcDbEntity
  8
STATE
 62
     2
100
AcDbVertex
100
AcDb2dVertex
 10
8.7099609375
 20
3.632568359375
 30
0.0
  0
VERTEX
  5
409
330
385
100
AcDbEntity
  8
STATE
 62
     2
100
AcDbVertex
100
AcDb2dVertex
 10
8.719957139756945
 20
3.629245334201389
 30
0.0
  0
VERTEX
  5
40A
330
385
100
AcDbEntity
  8
STATE
 62
     2
100
AcDbVertex
100
AcDb2dVertex
 10
8.72995334201389
 20
3.629245334201389
 30
0.0
  0
VERTEX
  5
40B
330
385
100
AcDbEntity
  8
STATE
 62
     2
100
AcDbVertex
100
AcDb2dVertex
 10
8.743299696180555
 20
3.622585720486111
 30
0.0
  0
VERTEX
  5
40C
330
385
100
AcDbEntity
  8
STATE
 62
     2
100
AcDbVertex
100
AcDb2dVertex
 10
8.779961480034721
 20
3.605902777777778
 30
0.0
  0
VERTEX
  5
40D
330
385
100
AcDbEntity
  8
STATE
 62
     2
100
AcDbVertex
100
AcDb2dVertex
 10
8.799967447916666
 20
3.585910373263889
 30
0.0
  0
VERTEX
  5
40E
330
385
100
AcDbEntity
  8
STATE
 62
     2
100
AcDbVertex
100
AcDb2dVertex
 10
8.799967447916666
 20
3.565904405381944
 30
0.0
  0
VERTEX
  5
40F
330
385
100
AcDbEntity
  8
STATE
 62
     2
100
AcDbVertex
100
AcDb2dVertex
 10
8.806627061631945
 20
3.552571614583333
 30
0.0
  0
VERTEX
  5
410
330
385
100
AcDbEntity
  8
STATE
 62
     2
100
AcDbVertex
100
AcDb2dVertex
 10
8.863294813368055
 20
3.522555881076389
 30
0.0
  0
VERTEX
  5
411
330
385
100
AcDbEntity
  8
STATE
 62
     2
100
AcDbVertex
100
AcDb2dVertex
 10
8.956624348958332
 20
3.475884331597222
 30
0.0
  0
VERTEX
  5
412
330
385
100
AcDbEntity
  8
STATE
 62
     2
100
AcDbVertex
100
AcDb2dVertex
 10
8.999959309895832
 20
3.435872395833333
 30
0.0
  0
VERTEX
  5
413
330
385
100
AcDbEntity
  8
STATE
 62
     2
100
AcDbVertex
100
AcDb2dVertex
 10
9.013292100694445
 20
3.435872395833333
 30
0.0
  0
VERTEX
  5
414
330
385
100
AcDbEntity
  8
STATE
 62
     2
100
AcDbVertex
100
AcDb2dVertex
 10
9.043294270833332
 20
3.419203016493055
 30
0.0
  0
VERTEX
  5
415
330
385
100
AcDbEntity
  8
STATE
 62
     2
100
AcDbVertex
100
AcDb2dVertex
 10
9.056627061631945
 20
3.3958740234375
 30
0.0
  0
VERTEX
  5
416
330
385
100
AcDbEntity
  8
STATE
 62
     2
100
AcDbVertex
100
AcDb2dVertex
 10
9.063286675347221
 20
3.392550998263889
 30
0.0
  0
VERTEX
  5
417
330
385
100
AcDbEntity
  8
STATE
 62
     2
100
AcDbVertex
100
AcDb2dVertex
 10
9.076633029513888
 20
3.389200846354167
 30
0.0
  0
VERTEX
  5
418
330
385
100
AcDbEntity
  8
STATE
 62
     2
100
AcDbVertex
100
AcDb2dVertex
 10
9.0799560546875
 20
3.389200846354167
 30
0.0
  0
VERTEX
  5
419
330
385
100
AcDbEntity
  8
STATE
 62
     2
100
AcDbVertex
100
AcDb2dVertex
 10
9.09328884548611
 20
3.392550998263889
 30
0.0
  0
VERTEX
  5
41A
330
385
100
AcDbEntity
  8
STATE
 62
     2
100
AcDbVertex
100
AcDb2dVertex
 10
9.119954427083332
 20
3.405870225694444
 30
0.0
  0
VERTEX
  5
41B
330
385
100
AcDbEntity
  8
STATE
 62
     2
100
AcDbVertex
100
AcDb2dVertex
 10
9.13662380642361
 20
3.409206814236111
 30
0.0
  0
VERTEX
  5
41C
330
385
100
AcDbEntity
  8
STATE
 62
     2
100
AcDbVertex
100
AcDb2dVertex
 10
9.149956597222221
 20
3.405870225694444
 30
0.0
  0
VERTEX
  5
41D
330
385
100
AcDbEntity
  8
STATE
 62
     2
100
AcDbVertex
100
AcDb2dVertex
 10
9.203287760416666
 20
3.3858642578125
 30
0.0
  0
VERTEX
  5
41E
330
385
100
AcDbEntity
  8
STATE
 62
     2
100
AcDbVertex
100
AcDb2dVertex
 10
9.216620551215277
 20
3.375881618923611
 30
0.0
  0
VERTEX
  5
41F
330
385
100
AcDbEntity
  8
STATE
 62
     2
100
AcDbVertex
100
AcDb2dVertex
 10
9.226616753472221
 20
3.375881618923611
 30
0.0
  0
VERTEX
  5
420
330
385
100
AcDbEntity
  8
STATE
 62
     2
100
AcDbVertex
100
AcDb2dVertex
 10
9.2432861328125
 20
3.375881618923611
 30
0.0
  0
VERTEX
  5
421
330
385
100
AcDbEntity
  8
STATE
 62
     2
100
AcDbVertex
100
AcDb2dVertex
 10
9.306613498263888
 20
3.355875651041667
 30
0.0
  0
VERTEX
  5
422
330
385
100
AcDbEntity
  8
STATE
 62
     2
100
AcDbVertex
100
AcDb2dVertex
 10
9.35329861111111
 20
3.339206271701389
 30
0.0
  0
VERTEX
  5
423
330
385
100
AcDbEntity
  8
STATE
 62
     2
100
AcDbVertex
100
AcDb2dVertex
 10
9.36328125
 20
3.335856119791667
 30
0.0
  0
VERTEX
  5
424
330
385
100
AcDbEntity
  8
STATE
 62
     2
100
AcDbVertex
100
AcDb2dVertex
 10
9.426622178819445
 20
3.305867513020833
 30
0.0
  0
VERTEX
  5
425
330
385
100
AcDbEntity
  8
STATE
 62
     2
100
AcDbVertex
100
AcDb2dVertex
 10
9.433295355902777
 20
3.302517361111111
 30
0.0
  0
VERTEX
  5
426
330
385
100
AcDbEntity
  8
STATE
 62
     2
100
AcDbVertex
100
AcDb2dVertex
 10
9.436618381076388
 20
3.2991943359375
 30
0.0
  0
VERTEX
  5
427
330
385
100
AcDbEntity
  8
STATE
 62
     2
100
AcDbVertex
100
AcDb2dVertex
 10
9.4599609375
 20
3.285847981770833
 30
0.0
  0
VERTEX
  5
428
330
385
100
AcDbEntity
  8
STATE
 62
     2
100
AcDbVertex
100
AcDb2dVertex
 10
9.50661892361111
 20
3.262518988715278
 30
0.0
  0
VERTEX
  5
429
330
385
100
AcDbEntity
  8
STATE
 62
     2
100
AcDbVertex
100
AcDb2dVertex
 10
9.51662868923611
 20
3.255859375
 30
0.0
  0
VERTEX
  5
42A
330
385
100
AcDbEntity
  8
STATE
 62
     2
100
AcDbVertex
100
AcDb2dVertex
 10
9.5699462890625
 20
3.229180230034722
 30
0.0
  0
VERTEX
  5
42B
330
385
100
AcDbEntity
  8
STATE
 62
     2
100
AcDbVertex
100
AcDb2dVertex
 10
9.589952256944445
 20
3.219184027777778
 30
0.0
  0
VERTEX
  5
42C
330
385
100
AcDbEntity
  8
STATE
 62
     2
100
AcDbVertex
100
AcDb2dVertex
 10
9.63662380642361
 20
3.2025146484375
 30
0.0
  0
VERTEX
  5
42D
330
385
100
AcDbEntity
  8
STATE
 62
     2
100
AcDbVertex
100
AcDb2dVertex
 10
9.653279622395832
 20
3.199178059895833
 30
0.0
  0
VERTEX
  5
42E
330
385
100
AcDbEntity
  8
STATE
 62
     2
100
AcDbVertex
100
AcDb2dVertex
 10
9.659952799479166
 20
3.199178059895833
 30
0.0
  0
VERTEX
  5
42F
330
385
100
AcDbEntity
  8
STATE
 62
     2
100
AcDbVertex
100
AcDb2dVertex
 10
9.683295355902777
 20
3.182508680555555
 30
0.0
  0
VERTEX
  5
430
330
385
100
AcDbEntity
  8
STATE
 62
     2
100
AcDbVertex
100
AcDb2dVertex
 10
9.689954969618055
 20
3.179172092013889
 30
0.0
  0
VERTEX
  5
431
330
385
100
AcDbEntity
  8
STATE
 62
     2
100
AcDbVertex
100
AcDb2dVertex
 10
9.693277994791666
 20
3.175835503472222
 30
0.0
  0
VERTEX
  5
432
330
385
100
AcDbEntity
  8
STATE
 62
     2
100
AcDbVertex
100
AcDb2dVertex
 10
9.696614583333332
 20
3.172498914930555
 30
0.0
  0
VERTEX
  5
433
330
385
100
AcDbEntity
  8
STATE
 62
     2
100
AcDbVertex
100
AcDb2dVertex
 10
9.699951171875
 20
3.169175889756944
 30
0.0
  0
VERTEX
  5
434
330
385
100
AcDbEntity
  8
STATE
 62
     2
100
AcDbVertex
100
AcDb2dVertex
 10
9.719957139756945
 20
3.152506510416667
 30
0.0
  0
VERTEX
  5
435
330
385
100
AcDbEntity
  8
STATE
 62
     2
100
AcDbVertex
100
AcDb2dVertex
 10
9.723280164930555
 20
3.149169921875
 30
0.0
  0
VERTEX
  5
436
330
385
100
AcDbEntity
  8
STATE
 62
     2
100
AcDbVertex
100
AcDb2dVertex
 10
9.729953342013888
 20
3.145833333333333
 30
0.0
  0
VERTEX
  5
437
330
385
100
AcDbEntity
  8
STATE
 62
     2
100
AcDbVertex
100
AcDb2dVertex
 10
9.739963107638888
 20
3.135837131076389
 30
0.0
  0
VERTEX
  5
438
330
385
100
AcDbEntity
  8
STATE
 62
     2
100
AcDbVertex
100
AcDb2dVertex
 10
9.76662868923611
 20
3.119167751736111
 30
0.0
  0
VERTEX
  5
439
330
385
100
AcDbEntity
  8
STATE
 62
     2
100
AcDbVertex
100
AcDb2dVertex
 10
9.78662109375
 20
3.109171549479167
 30
0.0
  0
VERTEX
  5
43A
330
385
100
AcDbEntity
  8
STATE
 62
     2
100
AcDbVertex
100
AcDb2dVertex
 10
9.809950086805555
 20
3.0958251953125
 30
0.0
  0
VERTEX
  5
43B
330
385
100
AcDbEntity
  8
STATE
 62
     2
100
AcDbVertex
100
AcDb2dVertex
 10
9.826619466145832
 20
3.079155815972222
 30
0.0
  0
VERTEX
  5
43C
330
385
100
AcDbEntity
  8
STATE
 62
     2
100
AcDbVertex
100
AcDb2dVertex
 10
9.8299560546875
 20
3.072482638888889
 30
0.0
  0
VERTEX
  5
43D
330
385
100
AcDbEntity
  8
STATE
 62
     2
100
AcDbVertex
100
AcDb2dVertex
 10
9.856621636284721
 20
3.055813259548611
 30
0.0
  0
VERTEX
  5
43E
330
385
100
AcDbEntity
  8
STATE
 62
     2
100
AcDbVertex
100
AcDb2dVertex
 10
9.916612413194445
 20
3.002482096354167
 30
0.0
  0
VERTEX
  5
43F
330
385
100
AcDbEntity
  8
STATE
 62
     2
100
AcDbVertex
100
AcDb2dVertex
 10
9.923285590277777
 20
2.9991455078125
 30
0.0
  0
VERTEX
  5
440
330
385
100
AcDbEntity
  8
STATE
 62
     2
100
AcDbVertex
100
AcDb2dVertex
 10
9.949951171875
 20
2.972479926215278
 30
0.0
  0
VERTEX
  5
441
330
385
100
AcDbEntity
  8
STATE
 62
     2
100
AcDbVertex
100
AcDb2dVertex
 10
9.953287760416666
 20
2.969143337673611
 30
0.0
  0
VERTEX
  5
442
330
385
100
AcDbEntity
  8
STATE
 62
     2
100
AcDbVertex
100
AcDb2dVertex
 10
9.96328396267361
 20
2.952473958333333
 30
0.0
  0
VERTEX
  5
443
330
385
100
AcDbEntity
  8
STATE
 62
     2
100
AcDbVertex
100
AcDb2dVertex
 10
9.969943576388888
 20
2.932467990451389
 30
0.0
  0
VERTEX
  5
444
330
385
100
AcDbEntity
  8
STATE
 62
     2
100
AcDbVertex
100
AcDb2dVertex
 10
9.983289930555555
 20
2.919135199652778
 30
0.0
  0
VERTEX
  5
445
330
385
100
AcDbEntity
  8
STATE
 62
     2
100
AcDbVertex
100
AcDb2dVertex
 10
9.996622721354166
 20
2.905802408854167
 30
0.0
  0
VERTEX
  5
446
330
385
100
AcDbEntity
  8
STATE
 62
     2
100
AcDbVertex
100
AcDb2dVertex
 10
10.01327853732639
 20
2.895806206597222
 30
0.0
  0
VERTEX
  5
447
330
385
100
AcDbEntity
  8
STATE
 62
     2
100
AcDbVertex
100
AcDb2dVertex
 10
10.01995171440972
 20
2.895806206597222
 30
0.0
  0
VERTEX
  5
448
330
385
100
AcDbEntity
  8
STATE
 62
     2
100
AcDbVertex
100
AcDb2dVertex
 10
10.03662109375
 20
2.872463650173611
 30
0.0
  0
VERTEX
  5
449
330
385
100
AcDbEntity
  8
STATE
 62
     2
100
AcDbVertex
100
AcDb2dVertex
 10
10.03995768229167
 20
2.859117296006944
 30
0.0
  0
VERTEX
  5
44A
330
385
100
AcDbEntity
  8
STATE
 62
     2
100
AcDbVertex
100
AcDb2dVertex
 10
10.03995768229167
 20
2.839124891493055
 30
0.0
  0
VERTEX
  5
44B
330
385
100
AcDbEntity
  8
STATE
 62
     2
100
AcDbVertex
100
AcDb2dVertex
 10
10.03328450520833
 20
2.812459309895833
 30
0.0
  0
VERTEX
  5
44C
330
385
100
AcDbEntity
  8
STATE
 62
     2
100
AcDbVertex
100
AcDb2dVertex
 10
10.02994791666667
 20
2.8057861328125
 30
0.0
  0
VERTEX
  5
44D
330
385
100
AcDbEntity
  8
STATE
 62
     2
100
AcDbVertex
100
AcDb2dVertex
 10
10.02328830295139
 20
2.789116753472222
 30
0.0
  0
VERTEX
  5
44E
330
385
100
AcDbEntity
  8
STATE
 62
     2
100
AcDbVertex
100
AcDb2dVertex
 10
10.026611328125
 20
2.775783962673611
 30
0.0
  0
VERTEX
  5
44F
330
385
100
AcDbEntity
  8
STATE
 62
     2
100
AcDbVertex
100
AcDb2dVertex
 10
10.026611328125
 20
2.759114583333333
 30
0.0
  0
VERTEX
  5
450
330
385
100
AcDbEntity
  8
STATE
 62
     2
100
AcDbVertex
100
AcDb2dVertex
 10
10.02994791666667
 20
2.722439236111111
 30
0.0
  0
VERTEX
  5
451
330
385
100
AcDbEntity
  8
STATE
 62
     2
100
AcDbVertex
100
AcDb2dVertex
 10
10.02994791666667
 20
2.712429470486111
 30
0.0
  0
VERTEX
  5
452
330
385
100
AcDbEntity
  8
STATE
 62
     2
100
AcDbVertex
100
AcDb2dVertex
 10
10.026611328125
 20
2.705769856770833
 30
0.0
  0
VERTEX
  5
453
330
385
100
AcDbEntity
  8
STATE
 62
     2
100
AcDbVertex
100
AcDb2dVertex
 10
10.026611328125
 20
2.702433268229167
 30
0.0
  0
VERTEX
  5
454
330
385
100
AcDbEntity
  8
STATE
 62
     2
100
AcDbVertex
100
AcDb2dVertex
 10
10.026611328125
 20
2.679090711805555
 30
0.0
  0
VERTEX
  5
455
330
385
100
AcDbEntity
  8
STATE
 62
     2
100
AcDbVertex
100
AcDb2dVertex
 10
10.026611328125
 20
2.675767686631944
 30
0.0
  0
VERTEX
  5
456
330
385
100
AcDbEntity
  8
STATE
 62
     2
100
AcDbVertex
100
AcDb2dVertex
 10
10.026611328125
 20
2.635755750868055
 30
0.0
  0
VERTEX
  5
457
330
385
100
AcDbEntity
  8
STATE
 62
     2
100
AcDbVertex
100
AcDb2dVertex
 10
10.02994791666667
 20
2.632432725694444
 30
0.0
  0
VERTEX
  5
458
330
385
100
AcDbEntity
  8
STATE
 62
     2
100
AcDbVertex
100
AcDb2dVertex
 10
10.03328450520833
 20
2.625759548611111
 30
0.0
  0
VERTEX
  5
459
330
385
100
AcDbEntity
  8
STATE
 62
     2
100
AcDbVertex
100
AcDb2dVertex
 10
10.03995768229167
 20
2.615763346354167
 30
0.0
  0
VERTEX
  5
45A
330
385
100
AcDbEntity
  8
STATE
 62
     2
100
AcDbVertex
100
AcDb2dVertex
 10
10.04329427083333
 20
2.615763346354167
 30
0.0
  0
VERTEX
  5
45B
330
385
100
AcDbEntity
  8
STATE
 62
     2
100
AcDbVertex
100
AcDb2dVertex
 10
10.05327690972222
 20
2.612413194444444
 30
0.0
  0
VERTEX
  5
45C
330
385
100
AcDbEntity
  8
STATE
 62
     2
100
AcDbVertex
100
AcDb2dVertex
 10
10.06328667534722
 20
2.615763346354167
 30
0.0
  0
VERTEX
  5
45D
330
385
100
AcDbEntity
  8
STATE
 62
     2
100
AcDbVertex
100
AcDb2dVertex
 10
10.08327907986111
 20
2.619086371527778
 30
0.0
  0
VERTEX
  5
45E
330
385
100
AcDbEntity
  8
STATE
 62
     2
100
AcDbVertex
100
AcDb2dVertex
 10
10.10328504774306
 20
2.632432725694444
 30
0.0
  0
VERTEX
  5
45F
330
385
100
AcDbEntity
  8
STATE
 62
     2
100
AcDbVertex
100
AcDb2dVertex
 10
10.11661783854167
 20
2.642415364583333
 30
0.0
  0
VERTEX
  5
460
330
385
100
AcDbEntity
  8
STATE
 62
     2
100
AcDbVertex
100
AcDb2dVertex
 10
10.19327799479167
 20
2.642415364583333
 30
0.0
  0
VERTEX
  5
461
330
385
100
AcDbEntity
  8
STATE
 62
     2
100
AcDbVertex
100
AcDb2dVertex
 10
10.2099609375
 20
2.622422960069444
 30
0.0
  0
VERTEX
  5
462
330
385
100
AcDbEntity
  8
STATE
 62
     2
100
AcDbVertex
100
AcDb2dVertex
 10
10.21328396267361
 20
2.615763346354167
 30
0.0
  0
VERTEX
  5
463
330
385
100
AcDbEntity
  8
STATE
 62
     2
100
AcDbVertex
100
AcDb2dVertex
 10
10.21662055121528
 20
2.6024169921875
 30
0.0
  0
VERTEX
  5
464
330
385
100
AcDbEntity
  8
STATE
 62
     2
100
AcDbVertex
100
AcDb2dVertex
 10
10.22995334201389
 20
2.582424587673611
 30
0.0
  0
VERTEX
  5
465
330
385
100
AcDbEntity
  8
STATE
 62
     2
100
AcDbVertex
100
AcDb2dVertex
 10
10.23994954427083
 20
2.545749240451389
 30
0.0
  0
VERTEX
  5
466
330
385
100
AcDbEntity
  8
STATE
 62
     2
100
AcDbVertex
100
AcDb2dVertex
 10
10.23661295572917
 20
2.509073893229167
 30
0.0
  0
VERTEX
  5
467
330
385
100
AcDbEntity
  8
STATE
 62
     2
100
AcDbVertex
100
AcDb2dVertex
 10
10.23661295572917
 20
2.459065755208333
 30
0.0
  0
VERTEX
  5
468
330
385
100
AcDbEntity
  8
STATE
 62
     2
100
AcDbVertex
100
AcDb2dVertex
 10
10.23661295572917
 20
2.449055989583333
 30
0.0
  0
VERTEX
  5
469
330
385
100
AcDbEntity
  8
STATE
 62
     2
100
AcDbVertex
100
AcDb2dVertex
 10
10.25661892361111
 20
2.432386610243055
 30
0.0
  0
VERTEX
  5
46A
330
385
100
AcDbEntity
  8
STATE
 62
     2
100
AcDbVertex
100
AcDb2dVertex
 10
10.276611328125
 20
2.419053819444444
 30
0.0
  0
VERTEX
  5
46B
330
385
100
AcDbEntity
  8
STATE
 62
     2
100
AcDbVertex
100
AcDb2dVertex
 10
10.30327690972222
 20
2.419053819444444
 30
0.0
  0
VERTEX
  5
46C
330
385
100
AcDbEntity
  8
STATE
 62
     2
100
AcDbVertex
100
AcDb2dVertex
 10
10.30661349826389
 20
2.415717230902778
 30
0.0
  0
VERTEX
  5
46D
330
385
100
AcDbEntity
  8
STATE
 62
     2
100
AcDbVertex
100
AcDb2dVertex
 10
10.30661349826389
 20
2.4090576171875
 30
0.0
  0
VERTEX
  5
46E
330
385
100
AcDbEntity
  8
STATE
 62
     2
100
AcDbVertex
100
AcDb2dVertex
 10
10.29995388454861
 20
2.392388237847222
 30
0.0
  0
VERTEX
  5
46F
330
385
100
AcDbEntity
  8
STATE
 62
     2
100
AcDbVertex
100
AcDb2dVertex
 10
10.30995008680556
 20
2.375718858506944
 30
0.0
  0
VERTEX
  5
470
330
385
100
AcDbEntity
  8
STATE
 62
     2
100
AcDbVertex
100
AcDb2dVertex
 10
10.33327907986111
 20
2.362372504340278
 30
0.0
  0
VERTEX
  5
471
330
385
100
AcDbEntity
  8
STATE
 62
     2
100
AcDbVertex
100
AcDb2dVertex
 10
10.34328884548611
 20
2.355712890625
 30
0.0
  0
VERTEX
  5
472
330
385
100
AcDbEntity
  8
STATE
 62
     2
100
AcDbVertex
100
AcDb2dVertex
 10
10.34328884548611
 20
2.352376302083333
 30
0.0
  0
VERTEX
  5
473
330
385
100
AcDbEntity
  8
STATE
 62
     2
100
AcDbVertex
100
AcDb2dVertex
 10
10.35328504774306
 20
2.339043511284722
 30
0.0
  0
VERTEX
  5
474
330
385
100
AcDbEntity
  8
STATE
 62
     2
100
AcDbVertex
100
AcDb2dVertex
 10
10.36328125
 20
2.332383897569444
 30
0.0
  0
VERTEX
  5
475
330
385
100
AcDbEntity
  8
STATE
 62
     2
100
AcDbVertex
100
AcDb2dVertex
 10
10.36995442708333
 20
2.329033745659722
 30
0.0
  0
VERTEX
  5
476
330
385
100
AcDbEntity
  8
STATE
 62
     2
100
AcDbVertex
100
AcDb2dVertex
 10
10.39328342013889
 20
2.309041341145833
 30
0.0
  0
VERTEX
  5
477
330
385
100
AcDbEntity
  8
STATE
 62
     2
100
AcDbVertex
100
AcDb2dVertex
 10
10.41661241319444
 20
2.295694986979167
 30
0.0
  0
VERTEX
  5
478
330
385
100
AcDbEntity
  8
STATE
 62
     2
100
AcDbVertex
100
AcDb2dVertex
 10
10.44661458333333
 20
2.282375759548611
 30
0.0
  0
VERTEX
  5
479
330
385
100
AcDbEntity
  8
STATE
 62
     2
100
AcDbVertex
100
AcDb2dVertex
 10
10.48994954427083
 20
2.269029405381944
 30
0.0
  0
VERTEX
  5
47A
330
385
100
AcDbEntity
  8
STATE
 62
     2
100
AcDbVertex
100
AcDb2dVertex
 10
10.51995171440972
 20
2.245686848958333
 30
0.0
  0
VERTEX
  5
47B
330
385
100
AcDbEntity
  8
STATE
 62
     2
100
AcDbVertex
100
AcDb2dVertex
 10
10.53995768229167
 20
2.245686848958333
 30
0.0
  0
VERTEX
  5
47C
330
385
100
AcDbEntity
  8
STATE
 62
     2
100
AcDbVertex
100
AcDb2dVertex
 10
10.56328667534722
 20
2.232367621527778
 30
0.0
  0
VERTEX
  5
47D
330
385
100
AcDbEntity
  8
STATE
 62
     2
100
AcDbVertex
100
AcDb2dVertex
 10
10.57328287760417
 20
2.2156982421875
 30
0.0
  0
VERTEX
  5
47E
330
385
100
AcDbEntity
  8
STATE
 62
     2
100
AcDbVertex
100
AcDb2dVertex
 10
10.57328287760417
 20
2.209025065104167
 30
0.0
  0
VERTEX
  5
47F
330
385
100
AcDbEntity
  8
STATE
 62
     2
100
AcDbVertex
100
AcDb2dVertex
 10
10.54661729600694
 20
2.132337782118055
 30
0.0
  0
VERTEX
  5
480
330
385
100
AcDbEntity
  8
STATE
 62
     2
100
AcDbVertex
100
AcDb2dVertex
 10
10.53995768229167
 20
2.122341579861111
 30
0.0
  0
VERTEX
  5
481
330
385
100
AcDbEntity
  8
STATE
 62
     2
100
AcDbVertex
100
AcDb2dVertex
 10
10.51995171440972
 20
2.0989990234375
 30
0.0
  0
VERTEX
  5
482
330
385
100
AcDbEntity
  8
STATE
 62
     2
100
AcDbVertex
100
AcDb2dVertex
 10
10.46328396267361
 20
2.045667860243055
 30
0.0
  0
VERTEX
  5
483
330
385
100
AcDbEntity
  8
STATE
 62
     2
100
AcDbVertex
100
AcDb2dVertex
 10
10.45327419704861
 20
2.038994683159722
 30
0.0
  0
VERTEX
  5
484
330
385
100
AcDbEntity
  8
STATE
 62
     2
100
AcDbVertex
100
AcDb2dVertex
 10
10.42662217881944
 20
2.022325303819444
 30
0.0
  0
VERTEX
  5
485
330
385
100
AcDbEntity
  8
STATE
 62
     2
100
AcDbVertex
100
AcDb2dVertex
 10
10.34994845920139
 20
1.962320963541667
 30
0.0
  0
VERTEX
  5
486
330
385
100
AcDbEntity
  8
STATE
 62
     2
100
AcDbVertex
100
AcDb2dVertex
 10
10.32328287760417
 20
1.932318793402778
 30
0.0
  0
VERTEX
  5
487
330
385
100
AcDbEntity
  8
STATE
 62
     2
100
AcDbVertex
100
AcDb2dVertex
 10
10.28328450520833
 20
1.898980034722222
 30
0.0
  0
VERTEX
  5
488
330
385
100
AcDbEntity
  8
STATE
 62
     2
100
AcDbVertex
100
AcDb2dVertex
 10
10.25328233506944
 20
1.865641276041667
 30
0.0
  0
VERTEX
  5
489
330
385
100
AcDbEntity
  8
STATE
 62
     2
100
AcDbVertex
100
AcDb2dVertex
 10
10.24660915798611
 20
1.8623046875
 30
0.0
  0
VERTEX
  5
48A
330
385
100
AcDbEntity
  8
STATE
 62
     2
100
AcDbVertex
100
AcDb2dVertex
 10
10.18328179253472
 20
1.828965928819444
 30
0.0
  0
VERTEX
  5
48B
330
385
100
AcDbEntity
  8
STATE
 62
     2
100
AcDbVertex
100
AcDb2dVertex
 10
10.17994520399306
 20
1.828965928819444
 30
0.0
  0
VERTEX
  5
48C
330
385
100
AcDbEntity
  8
STATE
 62
     2
100
AcDbVertex
100
AcDb2dVertex
 10
10.10328504774306
 20
1.795627170138889
 30
0.0
  0
VERTEX
  5
48D
330
385
100
AcDbEntity
  8
STATE
 62
     2
100
AcDbVertex
100
AcDb2dVertex
 10
10.00328233506944
 20
1.742282443576389
 30
0.0
  0
VERTEX
  5
48E
330
385
100
AcDbEntity
  8
STATE
 62
     2
100
AcDbVertex
100
AcDb2dVertex
 10
9.989949544270832
 20
1.732286241319444
 30
0.0
  0
VERTEX
  5
48F
330
385
100
AcDbEntity
  8
STATE
 62
     2
100
AcDbVertex
100
AcDb2dVertex
 10
9.966620551215277
 20
1.7122802734375
 30
0.0
  0
VERTEX
  5
490
330
385
100
AcDbEntity
  8
STATE
 62
     2
100
AcDbVertex
100
AcDb2dVertex
 10
9.916612413194445
 20
1.695610894097222
 30
0.0
  0
VERTEX
  5
491
330
385
100
AcDbEntity
  8
STATE
 62
     2
100
AcDbVertex
100
AcDb2dVertex
 10
9.893283420138888
 20
1.698947482638889
 30
0.0
  0
VERTEX
  5
492
330
385
100
AcDbEntity
  8
STATE
 62
     2
100
AcDbVertex
100
AcDb2dVertex
 10
9.866617838541666
 20
1.692274305555555
 30
0.0
  0
VERTEX
  5
493
330
385
100
AcDbEntity
  8
STATE
 62
     2
100
AcDbVertex
100
AcDb2dVertex
 10
9.849962022569445
 20
1.682278103298611
 30
0.0
  0
VERTEX
  5
494
330
385
100
AcDbEntity
  8
STATE
 62
     2
100
AcDbVertex
100
AcDb2dVertex
 10
9.8299560546875
 20
1.682278103298611
 30
0.0
  0
VERTEX
  5
495
330
385
100
AcDbEntity
  8
STATE
 62
     2
100
AcDbVertex
100
AcDb2dVertex
 10
9.75661892361111
 20
1.698947482638889
 30
0.0
  0
VERTEX
  5
496
330
385
100
AcDbEntity
  8
STATE
 62
     2
100
AcDbVertex
100
AcDb2dVertex
 10
9.719957139756945
 20
1.705620659722222
 30
0.0
  0
VERTEX
  5
497
330
385
100
AcDbEntity
  8
STATE
 62
     2
100
AcDbVertex
100
AcDb2dVertex
 10
9.656629774305555
 20
1.688937717013889
 30
0.0
  0
VERTEX
  5
498
330
385
100
AcDbEntity
  8
STATE
 62
     2
100
AcDbVertex
100
AcDb2dVertex
 10
9.643283420138888
 20
1.678941514756944
 30
0.0
  0
VERTEX
  5
499
330
385
100
AcDbEntity
  8
STATE
 62
     2
100
AcDbVertex
100
AcDb2dVertex
 10
9.626627604166666
 20
1.658935546875
 30
0.0
  0
VERTEX
  5
49A
330
385
100
AcDbEntity
  8
STATE
 62
     2
100
AcDbVertex
100
AcDb2dVertex
 10
9.573296440972221
 20
1.622260199652778
 30
0.0
  0
VERTEX
  5
49B
330
385
100
AcDbEntity
  8
STATE
 62
     2
100
AcDbVertex
100
AcDb2dVertex
 10
9.559950086805555
 20
1.588921440972222
 30
0.0
  0
VERTEX
  5
49C
330
385
100
AcDbEntity
  8
STATE
 62
     2
100
AcDbVertex
100
AcDb2dVertex
 10
9.539957682291666
 20
1.572252061631944
 30
0.0
  0
VERTEX
  5
49D
330
385
100
AcDbEntity
  8
STATE
 62
     2
100
AcDbVertex
100
AcDb2dVertex
 10
9.503282335069445
 20
1.558932834201389
 30
0.0
  0
VERTEX
  5
49E
330
385
100
AcDbEntity
  8
STATE
 62
     2
100
AcDbVertex
100
AcDb2dVertex
 10
9.483289930555555
 20
1.555582682291667
 30
0.0
  0
VERTEX
  5
49F
330
385
100
AcDbEntity
  8
STATE
 62
     2
100
AcDbVertex
100
AcDb2dVertex
 10
9.4599609375
 20
1.545586480034722
 30
0.0
  0
VERTEX
  5
4A0
330
385
100
AcDbEntity
  8
STATE
 62
     2
100
AcDbVertex
100
AcDb2dVertex
 10
9.433295355902777
 20
1.528917100694444
 30
0.0
  0
VERTEX
  5
4A1
330
385
100
AcDbEntity
  8
STATE
 62
     2
100
AcDbVertex
100
AcDb2dVertex
 10
9.413289388020832
 20
1.512247721354167
 30
0.0
  0
VERTEX
  5
4A2
330
385
100
AcDbEntity
  8
STATE
 62
     2
100
AcDbVertex
100
AcDb2dVertex
 10
9.403279622395832
 20
1.495578342013889
 30
0.0
  0
VERTEX
  5
4A3
330
385
100
AcDbEntity
  8
STATE
 62
     2
100
AcDbVertex
100
AcDb2dVertex
 10
9.36328125
 20
1.455579969618056
 30
0.0
  0
VERTEX
  5
4A4
330
385
100
AcDbEntity
  8
STATE
 62
     2
100
AcDbVertex
100
AcDb2dVertex
 10
9.339952256944445
 20
1.445570203993056
 30
0.0
  0
VERTEX
  5
4A5
330
385
100
AcDbEntity
  8
STATE
 62
     2
100
AcDbVertex
100
AcDb2dVertex
 10
9.26662868923611
 20
1.425564236111111
 30
0.0
  0
VERTEX
  5
4A6
330
385
100
AcDbEntity
  8
STATE
 62
     2
100
AcDbVertex
100
AcDb2dVertex
 10
9.249959309895832
 20
1.415568033854167
 30
0.0
  0
VERTEX
  5
4A7
330
385
100
AcDbEntity
  8
STATE
 62
     2
100
AcDbVertex
100
AcDb2dVertex
 10
9.253282335069445
 20
1.408894856770833
 30
0.0
  0
VERTEX
  5
4A8
330
385
100
AcDbEntity
  8
STATE
 62
     2
100
AcDbVertex
100
AcDb2dVertex
 10
9.253282335069445
 20
1.398898654513889
 30
0.0
  0
VERTEX
  5
4A9
330
385
100
AcDbEntity
  8
STATE
 62
     2
100
AcDbVertex
100
AcDb2dVertex
 10
9.239963107638888
 20
1.385565863715278
 30
0.0
  0
VERTEX
  5
4AA
330
385
100
AcDbEntity
  8
STATE
 62
     2
100
AcDbVertex
100
AcDb2dVertex
 10
9.226616753472221
 20
1.382229275173611
 30
0.0
  0
VERTEX
  5
4AB
330
385
100
AcDbEntity
  8
STATE
 62
     2
100
AcDbVertex
100
AcDb2dVertex
 10
9.223280164930555
 20
1.378892686631944
 30
0.0
  0
VERTEX
  5
4AC
330
385
100
AcDbEntity
  8
STATE
 62
     2
100
AcDbVertex
100
AcDb2dVertex
 10
9.193291558159721
 20
1.332221137152778
 30
0.0
  0
VERTEX
  5
4AD
330
385
100
AcDbEntity
  8
STATE
 62
     2
100
AcDbVertex
100
AcDb2dVertex
 10
9.17995876736111
 20
1.328884548611111
 30
0.0
  0
VERTEX
  5
4AE
330
385
100
AcDbEntity
  8
STATE
 62
     2
100
AcDbVertex
100
AcDb2dVertex
 10
9.16994900173611
 20
1.3155517578125
 30
0.0
  0
VERTEX
  5
4AF
330
385
100
AcDbEntity
  8
STATE
 62
     2
100
AcDbVertex
100
AcDb2dVertex
 10
9.173299153645832
 20
1.288872612847222
 30
0.0
  0
VERTEX
  5
4B0
330
385
100
AcDbEntity
  8
STATE
 62
     2
100
AcDbVertex
100
AcDb2dVertex
 10
9.173299153645832
 20
1.258884006076389
 30
0.0
  0
VERTEX
  5
4B1
330
385
100
AcDbEntity
  8
STATE
 62
     2
100
AcDbVertex
100
AcDb2dVertex
 10
9.16994900173611
 20
1.242214626736111
 30
0.0
  0
VERTEX
  5
4B2
330
385
100
AcDbEntity
  8
STATE
 62
     2
100
AcDbVertex
100
AcDb2dVertex
 10
9.153293185763888
 20
1.215535481770833
 30
0.0
  0
VERTEX
  5
4B3
330
385
100
AcDbEntity
  8
STATE
 62
     2
100
AcDbVertex
100
AcDb2dVertex
 10
9.133287217881945
 20
1.205525716145833
 30
0.0
  0
VERTEX
  5
4B4
330
385
100
AcDbEntity
  8
STATE
 62
     2
100
AcDbVertex
100
AcDb2dVertex
 10
9.123291015625
 20
1.195529513888889
 30
0.0
  0
VERTEX
  5
4B5
330
385
100
AcDbEntity
  8
STATE
 62
     2
100
AcDbVertex
100
AcDb2dVertex
 10
9.096625434027777
 20
1.145521375868056
 30
0.0
  0
VERTEX
  5
4B6
330
385
100
AcDbEntity
  8
STATE
 62
     2
100
AcDbVertex
100
AcDb2dVertex
 10
9.096625434027777
 20
1.1121826171875
 30
0.0
  0
VERTEX
  5
4B7
330
385
100
AcDbEntity
  8
STATE
 62
     2
100
AcDbVertex
100
AcDb2dVertex
 10
9.086615668402777
 20
1.092176649305556
 30
0.0
  0
VERTEX
  5
4B8
330
385
100
AcDbEntity
  8
STATE
 62
     2
100
AcDbVertex
100
AcDb2dVertex
 10
9.066623263888888
 20
1.088853624131944
 30
0.0
  0
VERTEX
  5
4B9
330
385
100
AcDbEntity
  8
STATE
 62
     2
100
AcDbVertex
100
AcDb2dVertex
 10
9.043294270833332
 20
1.072184244791667
 30
0.0
  0
VERTEX
  5
4BA
330
385
100
AcDbEntity
  8
STATE
 62
     2
100
AcDbVertex
100
AcDb2dVertex
 10
9.043294270833332
 20
1.06884765625
 30
0.0
  0
VERTEX
  5
4BB
330
385
100
AcDbEntity
  8
STATE
 62
     2
100
AcDbVertex
100
AcDb2dVertex
 10
9.039957682291666
 20
1.065511067708333
 30
0.0
  0
VERTEX
  5
4BC
330
385
100
AcDbEntity
  8
STATE
 62
     2
100
AcDbVertex
100
AcDb2dVertex
 10
9.03662109375
 20
1.055514865451389
 30
0.0
  0
VERTEX
  5
4BD
330
385
100
AcDbEntity
  8
STATE
 62
     2
100
AcDbVertex
100
AcDb2dVertex
 10
9.026624891493055
 20
1.042168511284722
 30
0.0
  0
SEQEND
  5
4BE
330
385
100
AcDbEntity
  8
STATE
  0
POLYLINE
  5
4BF
330
3C
100
AcDbEntity
  8
STATE
100
AcDb2dPolyline
 66
     1
 10
0.0
 20
0.0
 30
0.0
  0
VERTEX
  5
4C0
330
4BF
100
AcDbEntity
  8
STATE
100
AcDbVertex
100
AcDb2dVertex
 10
0.0933363172743056
 20
0.0987006293402778
 30
0.0
  0
VERTEX
  5
4C1
330
4BF
100
AcDbEntity
  8
STATE
100
AcDbVertex
100
AcDb2dVertex
 10
0.0933363172743056
 20
8.37331814236111
 30
0.0
  0
VERTEX
  5
4C2
330
4BF
100
AcDbEntity
  8
STATE
100
AcDbVertex
100
AcDb2dVertex
 10
10.91994900173611
 20
8.37331814236111
 30
0.0
  0
VERTEX
  5
4C3
330
4BF
100
AcDbEntity
  8
STATE
100
AcDbVertex
100
AcDb2dVertex
 10
10.91994900173611
 20
0.0987006293402778
 30
0.0
  0
VERTEX
  5
4C4
330
4BF
100
AcDbEntity
  8
STATE
100
AcDbVertex
100
AcDb2dVertex
 10
0.0933363172743056
 20
0.0987006293402778
 30
0.0
  0
SEQEND
  5
4C5
330
4BF
100
AcDbEntity
  8
STATE
  0
ENDBLK
  5
3F
330
3C
100
AcDbEntity
  8
0
100
AcDbBlockEnd
  0
ENDSEC
  0
SECTION
  2
ENTITIES
  0
INSERT
  5
3D
330
1F
100
AcDbEntity
  8
STATE
100
AcDbBlockReference
  2
BLOCK_2
 10
0.0
 20
0.0
 30
0.0
  0
ENDSEC
  0
SECTION
  2
OBJECTS
  0
DICTIONARY
  5
C
330
0
100
AcDbDictionary
  3
ACAD_GROUP
350
D
  3
ACAD_LAYOUT
350
1A
  3
ACAD_MLINESTYLE
350
17
  3
ACAD_PLOTSETTINGS
350
19
  3
ACAD_TABLESTYLE
350
4E6
  3
ACAD_VISUALSTYLE
350
2A
  3
ACDBHEADERROUNDTRIPXREC
350
4C6
  0
DICTIONARY
  5
D
102
{ACAD_REACTORS
330
C
102
}
330
C
100
AcDbDictionary
  0
DICTIONARY
  5
1A
102
{ACAD_REACTORS
330
C
102
}
330
C
100
AcDbDictionary
  0
DICTIONARY
  5
17
102
{ACAD_REACTORS
330
C
102
}
330
C
100
AcDbDictionary
  3
STANDARD
350
18
  0
DICTIONARY
  5
19
102
{ACAD_REACTORS
330
C
102
}
330
C
100
AcDbDictionary
  0
DICTIONARY
  5
4E6
102
{ACAD_REACTORS
330
C
102
}
330
C
100
AcDbDictionary
  0
DICTIONARY
  5
2A
102
{ACAD_REACTORS
330
C
102
}
330
C
100
AcDbDictionary
  3
2DWIREFRAME
350
2F
  3
3D_HIDDEN
350
31
  3
3DWIREFRAME
350
30
  3
BASIC
350
32
  3
BRIGHTEN
350
36
  3
COLORCHANGE
350
3A
  3
CONCEPTUAL
350
34
  3
DIM
350
35
  3
FACEPATTERN
350
39
  3
FLAT
350
2B
  3
FLATWITHEDGES
350
2C
  3
GOURAUD
350
2D
  3
GOURAUDWITHEDGES
350
2E
  3
LINEPATTERN
350
38
  3
REALISTIC
350
33
  3
THICKEN
350
37
  0
DICTIONARY
  5
4C6
102
{ACAD_REACTORS
330
C
102
}
330
C
100
AcDbDictionary
  3
CEPSNTYPE
350
4CF
  3
DIMSTYLEDATA
350
4E5
  3
FINGERPRINTGUID
350
4D0
  3
HYPERLINKBASE
350
4C9
  3
INSUNITS
350
4CE
  3
LAYOUTDICT
350
4CB
  3
LWETCUNION
350
4CD
  3
PLOTSETDICT
350
4CC
  3
PSVPSCALE
350
4D2
  3
PUCSBASE
350
4D5
  3
PUCSORGBACK
350
4DB
  3
PUCSORGBOTTOM
350
4D7
  3
PUCSORGFRONT
350
4DA
  3
PUCSORGLEFT
350
4D8
  3
PUCSORGRIGHT
350
4D9
  3
PUCSORGTOP
350
4D6
  3
PUCSORTHOREF
350
4D3
  3
PUCSORTHOVIEW
350
4D4
  3
STYLESHEET
350
4CA
  3
TSTACKALIGN
350
4C7
  3
TSTACKSIZE
350
4C8
  3
UCSBASE
350
4DE
  3
UCSORGBACK
350
4E4
  3
UCSORGBOTTOM
350
4E0
  3
UCSORGFRONT
350
4E3
  3
UCSORGLEFT
350
4E1
  3
UCSORGRIGHT
350
4E2
  3
UCSORGTOP
350
4DF
  3
UCSORTHOREF
350
4DC
  3
UCSORTHOVIEW
350
4DD
  3
VERSIONGUID
350
4D1
  0
MLINESTYLE
  5
18
102
{ACAD_REACTORS
330
17
102
}
330
17
100
AcDbMlineStyle
  2
Standard
 70
     0
  3

 62
   256
 51
90.0
 52
90.0
 71
     2
 49
0.5
 62
   256
  6
BYLAYER
 49
-0.5
 62
   256
  6
BYLAYER
  0
VISUALSTYLE
  5
2F
102
{ACAD_REACTORS
330
2A
102
}
330
2A
100
AcDbVisualStyle
  2
2dWireframe
 70
     4
 71
     0
 72
     2
 73
     0
 90
        0
 40
-0.6
 41
-30.0
 62
     5
 63
     7
 74
     1
 91
        4
 64
     7
 65
   257
 75
     1
175
     1
 42
1.0
 92
        0
 66
   257
 43
1.0
 76
     1
 77
     6
 78
     2
 67
     7
 79
     5
170
     0
171
     0
290
     0
174
     0
 93
        1
 44
0.0
173
     0
291
     0
 45
0.0
1001
ACAD
1000
AcDbSavedByObjectVersion
1070
     0
  0
VISUALSTYLE
  5
31
102
{ACAD_REACTORS
330
2A
102
}
330
2A
100
AcDbVisualStyle
  2
3D Hidden
 70
     6
 71
     1
 72
     2
 73
     2
 90
        0
 40
-0.6
 41
-30.0
 62
     5
 63
     7
 74
     2
 91
        2
 64
     7
 65
   257
 75
     2
175
     1
 42
40.0
 92
        0
 66
   257
 43
1.0
 76
     1
 77
     6
 78
     2
 67
     7
 79
     3
170
     0
171
     0
290
     0
174
     0
 93
        1
 44
0.0
173
     0
291
     0
 45
0.0
1001
ACAD
1000
AcDbSavedByObjectVersion
1070
     0
  0
VISUALSTYLE
  5
30
102
{ACAD_REACTORS
330
2A
102
}
330
2A
100
AcDbVisualStyle
  2
3dWireframe
 70
     5
 71
     0
 72
     2
 73
     0
 90
        0
 40
-0.6
 41
-30.0
 62
     5
 63
     7
 74
     1
 91
        4
 64
     7
 65
   257
 75
     1
175
     1
 42
1.0
 92
        0
 66
   257
 43
1.0
 76
     1
 77
     6
 78
     2
 67
     7
 79
     5
170
     0
171
     0
290
     0
174
     0
 93
        1
 44
0.0
173
     0
291
     0
 45
0.0
1001
ACAD
1000
AcDbSavedByObjectVersion
1070
     0
  0
VISUALSTYLE
  5
32
102
{ACAD_REACTORS
330
2A
102
}
330
2A
100
AcDbVisualStyle
  2
Basic
 70
     7
 71
     1
 72
     0
 73
     1
 90
        0
 40
-0.6
 41
-30.0
 62
     5
 63
     7
 74
     0
 91
        4
 64
     7
 65
   257
 75
     1
175
     1
 42
1.0
 92
        8
 66
     7
 43
1.0
 76
     1
 77
     6
 78
     2
 67
     7
 79
     5
170
     0
171
     0
290
     0
174
     0
 93
        1
 44
0.0
173
     0
291
     1
 45
0.0
1001
ACAD
1000
AcDbSavedByObjectVersion
1070
     0
  0
VISUALSTYLE
  5
36
102
{ACAD_REACTORS
330
2A
102
}
330
2A
100
AcDbVisualStyle
  2
Brighten
 70
    12
 71
     2
 72
     2
 73
     0
 90
        0
 40
-0.6
 41
-30.0
 62
     5
 63
     7
 74
     1
 91
        4
 64
     7
 65
   257
 75
     1
175
     1
 42
1.0
 92
        8
 66
     7
 43
1.0
 76
     1
 77
     6
 78
     2
 67
     7
 79
     5
170
     0
171
     0
290
     0
174
     0
 93
        1
 44
50.0
173
     0
291
     1
 45
0.0
1001
ACAD
1000
AcDbSavedByObjectVersion
1070
     0
  0
VISUALSTYLE
  5
3A
102
{ACAD_REACTORS
330
2A
102
}
330
2A
100
AcDbVisualStyle
  2
ColorChange
 70
    16
 71
     2
 72
     2
 73
     3
 90
        0
 40
-0.6
 41
-30.0
 62
     5
 63
     8
 74
     1
 91
        4
 64
     7
 65
   257
 75
     1
175
     1
 42
1.0
 92
        8
 66
     8
 43
1.0
 76
     1
 77
     6
 78
     2
 67
     7
 79
     5
170
     0
171
     0
290
     0
174
     0
 93
        1
 44
0.0
173
     0
291
     1
 45
0.0
1001
ACAD
1000
AcDbSavedByObjectVersion
1070
     0
  0
VISUALSTYLE
  5
34
102
{ACAD_REACTORS
330
2A
102
}
330
2A
100
AcDbVisualStyle
  2
Conceptual
 70
     9
 71
     3
 72
     2
 73
     0
 90
        0
 40
-0.6
 41
-30.0
 62
     5
 63
     7
 74
     2
 91
        2
 64
     7
 65
   257
 75
     1
175
     1
 42
40.0
 92
        8
 66
     7
 43
1.0
 76
     1
 77
     6
 78
     2
 67
     7
 79
     3
170
     0
171
     0
290
     0
174
     0
 93
        1
 44
0.0
173
     0
291
     0
 45
0.0
1001
ACAD
1000
AcDbSavedByObjectVersion
1070
     0
  0
VISUALSTYLE
  5
35
102
{ACAD_REACTORS
330
2A
102
}
330
2A
100
AcDbVisualStyle
  2
Dim
 70
    11
 71
     2
 72
     2
 73
     0
 90
        0
 40
-0.6
 41
-30.0
 62
     5
 63
     7
 74
     1
 91
        4
 64
     7
 65
   257
 75
     1
175
     1
 42
1.0
 92
        8
 66
     7
 43
1.0
 76
     1
 77
     6
 78
     2
 67
     7
 79
     5
170
     0
171
     0
290
     0
174
     0
 93
        1
 44
-50.0
173
     0
291
     1
 45
0.0
1001
ACAD
1000
AcDbSavedByObjectVersion
1070
     0
  0
VISUALSTYLE
  5
39
102
{ACAD_REACTORS
330
2A
102
}
330
2A
100
AcDbVisualStyle
  2
Facepattern
 70
    15
 71
     2
 72
     2
 73
     0
 90
        0
 40
-0.6
 41
-30.0
 62
     5
 63
     7
 74
     1
 91
        4
 64
     7
 65
   257
 75
     1
175
     1
 42
1.0
 92
        8
 66
     7
 43
1.0
 76
     1
 77
     6
 78
     2
 67
     7
 79
     5
170
     0
171
     0
290
     0
174
     0
 93
        1
 44
0.0
173
     0
291
     1
 45
0.0
1001
ACAD
1000
AcDbSavedByObjectVersion
1070
     0
  0
VISUALSTYLE
  5
2B
102
{ACAD_REACTORS
330
2A
102
}
330
2A
100
AcDbVisualStyle
  2
Flat
 70
     0
 71
     2
 72
     1
 73
     1
 90
        2
 40
-0.6
 41
30.0
 62
     5
 63
     7
 74
     0
 91
        4
 64
     7
 65
   257
 75
     1
175
     1
 42
1.0
 92
        8
 66
     7
 43
1.0
 76
     1
 77
     6
 78
     2
 67
     7
 79
     5
170
     0
171
     0
290
     0
174
     0
 93
       13
 44
0.0
173
     0
291
     1
 45
0.0
1001
ACAD
1000
AcDbSavedByObjectVersion
1070
     0
  0
VISUALSTYLE
  5
2C
102
{ACAD_REACTORS
330
2A
102
}
330
2A
100
AcDbVisualStyle
  2
FlatWithEdges
 70
     1
 71
     2
 72
     1
 73
     1
 90
        2
 40
-0.6
 41
30.0
 62
     5
 63
     7
 74
     1
 91
        4
 64
     7
 65
   257
 75
     1
175
     1
 42
1.0
 92
        0
 66
   257
 43
1.0
 76
     1
 77
     6
 78
     2
 67
     7
 79
     5
170
     0
171
     0
290
     0
174
     0
 93
       13
 44
0.0
173
     0
291
     1
 45
0.0
1001
ACAD
1000
AcDbSavedByObjectVersion
1070
     0
  0
VISUALSTYLE
  5
2D
102
{ACAD_REACTORS
330
2A
102
}
330
2A
100
AcDbVisualStyle
  2
Gouraud
 70
     2
 71
     2
 72
     2
 73
     1
 90
        2
 40
-0.6
 41
30.0
 62
     5
 63
     7
 74
     0
 91
        4
 64
     7
 65
   257
 75
     1
175
     1
 42
1.0
 92
        0
 66
     7
 43
1.0
 76
     1
 77
     6
 78
     2
 67
     7
 79
     5
170
     0
171
     0
290
     0
174
     0
 93
       13
 44
0.0
173
     0
291
     1
 45
0.0
1001
ACAD
1000
AcDbSavedByObjectVersion
1070
     0
  0
VISUALSTYLE
  5
2E
102
{ACAD_REACTORS
330
2A
102
}
330
2A
100
AcDbVisualStyle
  2
GouraudWithEdges
 70
     3
 71
     2
 72
     2
 73
     1
 90
        2
 40
-0.6
 41
30.0
 62
     5
 63
     7
 74
     1
 91
        4
 64
     7
 65
   257
 75
     1
175
     1
 42
1.0
 92
        0
 66
   257
 43
1.0
 76
     1
 77
     6
 78
     2
 67
     7
 79
     5
170
     0
171
     0
290
     0
174
     0
 93
       13
 44
0.0
173
     0
291
     1
 45
0.0
1001
ACAD
1000
AcDbSavedByObjectVersion
1070
     0
  0
VISUALSTYLE
  5
38
102
{ACAD_REACTORS
330
2A
102
}
330
2A
100
AcDbVisualStyle
  2
Linepattern
 70
    14
 71
     2
 72
     2
 73
     0
 90
        0
 40
-0.6
 41
-30.0
 62
     5
 63
     7
 74
     1
 91
        4
 64
     7
 65
   257
 75
     7
175
     7
 42
1.0
 92
        8
 66
     7
 43
1.0
 76
     1
 77
     6
 78
     2
 67
     7
 79
     5
170
     0
171
     0
290
     0
174
     0
 93
        1
 44
0.0
173
     0
291
     1
 45
0.0
1001
ACAD
1000
AcDbSavedByObjectVersion
1070
     0
  0
VISUALSTYLE
  5
33
102
{ACAD_REACTORS
330
2A
102
}
330
2A
100
AcDbVisualStyle
  2
Realistic
 70
     8
 71
     2
 72
     2
 73
     0
 90
        0
 40
-0.6
 41
-30.0
 62
     5
 63
     7
 74
     1
 91
        0
 64
     7
 65
   257
 75
     1
175
     1
 42
1.0
 92
        8
 66
     8
 43
1.0
 76
     1
 77
     6
 78
     2
 67
     7
 79
     5
170
     0
171
     0
290
     0
174
     0
 93
       13
 44
0.0
173
     0
291
     0
 45
0.0
1001
ACAD
1000
AcDbSavedByObjectVersion
1070
     0
  0
VISUALSTYLE
  5
37
102
{ACAD_REACTORS
330
2A
102
}
330
2A
100
AcDbVisualStyle
  2
Thicken
 70
    13
 71
     2
 72
     2
 73
     0
 90
        0
 40
-0.6
 41
-30.0
 62
     5
 63
     7
 74
     1
 91
        4
 64
     7
 65
   257
 75
     1
175
     1
 42
1.0
 92
       12
 66
     7
 43
1.0
 76
     1
 77
     6
 78
     2
 67
     7
 79
     5
170
     0
171
     0
290
     0
174
     0
 93
        1
 44
0.0
173
     0
291
     1
 45
0.0
1001
ACAD
1000
AcDbSavedByObjectVersion
1070
     0
  0
XRECORD
  5
4CF
102
{ACAD_REACTORS
330
4C6
102
}
330
4C6
100
AcDbXrecord
 90
        0
  0
XRECORD
  5
4E5
102
{ACAD_REACTORS
330
4C6
102
}
330
4C6
100
AcDbXrecord
1000
DSTYLE
1002
{
1070
   340
340
11
1002
}
  0
XRECORD
  5
4D0
102
{ACAD_REACTORS
330
4C6
102
}
330
4C6
100
AcDbXrecord
  1
{F2EFB506-175D-495E-ADF9-86FBA316455D}
  0
XRECORD
  5
4C9
102
{ACAD_REACTORS
330
4C6
102
}
330
4C6
100
AcDbXrecord
  1

  0
XRECORD
  5
4CE
102
{ACAD_REACTORS
330
4C6
102
}
330
4C6
100
AcDbXrecord
 90
        1
  0
XRECORD
  5
4CB
102
{ACAD_REACTORS
330
4C6
102
}
330
4C6
100
AcDbXrecord
340
1A
  0
XRECORD
  5
4CD
102
{ACAD_REACTORS
330
4C6
102
}
330
4C6
100
AcDbXrecord
 90
    10269
  0
XRECORD
  5
4CC
102
{ACAD_REACTORS
330
4C6
102
}
330
4C6
100
AcDbXrecord
340
19
  0
XRECORD
  5
4D2
102
{ACAD_REACTORS
330
4C6
102
}
330
4C6
100
AcDbXrecord
 40
0.0
  0
XRECORD
  5
4D5
102
{ACAD_REACTORS
330
4C6
102
}
330
4C6
100
AcDbXrecord
340
0
  0
XRECORD
  5
4DB
102
{ACAD_REACTORS
330
4C6
102
}
330
4C6
100
AcDbXrecord
 10
0.0
 20
0.0
 30
0.0
  0
XRECORD
  5
4D7
102
{ACAD_REACTORS
330
4C6
102
}
330
4C6
100
AcDbXrecord
 10
0.0
 20
0.0
 30
0.0
  0
XRECORD
  5
4DA
102
{ACAD_REACTORS
330
4C6
102
}
330
4C6
100
AcDbXrecord
 10
0.0
 20
0.0
 30
0.0
  0
XRECORD
  5
4D8
102
{ACAD_REACTORS
330
4C6
102
}
330
4C6
100
AcDbXrecord
 10
0.0
 20
0.0
 30
0.0
  0
XRECORD
  5
4D9
102
{ACAD_REACTORS
330
4C6
102
}
330
4C6
100
AcDbXrecord
 10
0.0
 20
0.0
 30
0.0
  0
XRECORD
  5
4D6
102
{ACAD_REACTORS
330
4C6
102
}
330
4C6
100
AcDbXrecord
 10
0.0
 20
0.0
 30
0.0
  0
XRECORD
  5
4D3
102
{ACAD_REACTORS
330
4C6
102
}
330
4C6
100
AcDbXrecord
340
0
  0
XRECORD
  5
4D4
102
{ACAD_REACTORS
330
4C6
102
}
330
4C6
100
AcDbXrecord
 70
     0
  0
XRECORD
  5
4CA
102
{ACAD_REACTORS
330
4C6
102
}
330
4C6
100
AcDbXrecord
  1

  0
XRECORD
  5
4C7
102
{ACAD_REACTORS
330
4C6
102
}
330
4C6
100
AcDbXrecord
 90
        1
  0
XRECORD
  5
4C8
102
{ACAD_REACTORS
330
4C6
102
}
330
4C6
100
AcDbXrecord
 90
       70
  0
XRECORD
  5
4DE
102
{ACAD_REACTORS
330
4C6
102
}
330
4C6
100
AcDbXrecord
340
0
  0
XRECORD
  5
4E4
102
{ACAD_REACTORS
330
4C6
102
}
330
4C6
100
AcDbXrecord
 10
0.0
 20
0.0
 30
0.0
  0
XRECORD
  5
4E0
102
{ACAD_REACTORS
330
4C6
102
}
330
4C6
100
AcDbXrecord
 10
0.0
 20
0.0
 30
0.0
  0
XRECORD
  5
4E3
102
{ACAD_REACTORS
330
4C6
102
}
330
4C6
100
AcDbXrecord
 10
0.0
 20
0.0
 30
0.0
  0
XRECORD
  5
4E1
102
{ACAD_REACTORS
330
4C6
102
}
330
4C6
100
AcDbXrecord
 10
0.0
 20
0.0
 30
0.0
  0
XRECORD
  5
4E2
102
{ACAD_REACTORS
330
4C6
102
}
330
4C6
100
AcDbXrecord
 10
0.0
 20
0.0
 30
0.0
  0
XRECORD
  5
4DF
102
{ACAD_REACTORS
330
4C6
102
}
330
4C6
100
AcDbXrecord
 10
0.0
 20
0.0
 30
0.0
  0
XRECORD
  5
4DC
102
{ACAD_REACTORS
330
4C6
102
}
330
4C6
100
AcDbXrecord
340
0
  0
XRECORD
  5
4DD
102
{ACAD_REACTORS
330
4C6
102
}
330
4C6
100
AcDbXrecord
 70
     0
  0
XRECORD
  5
4D1
102
{ACAD_REACTORS
330
4C6
102
}
330
4C6
100
AcDbXrecord
  1
{FAEB1C32-E019-11D5-929B-00C0DF256EC4}
  0
ENDSEC
  0
EOF
