<?xml version="1.0" encoding="utf-8"?>
<!-- Generator: Adobe Illustrator 15.1.0, SVG Export Plug-In . SVG Version: 6.00 Build 0)  -->
<!DOCTYPE svg PUBLIC "-//W3C//DTD SVG 1.1//EN" "http://www.w3.org/Graphics/SVG/1.1/DTD/svg11.dtd">
<svg version="1.1" id="State" xmlns="http://www.w3.org/2000/svg" xmlns:xlink="http://www.w3.org/1999/xlink" x="0px" y="0px"
	 width="1296px" height="1296px" viewBox="0 0 1296 1296" enable-background="new 0 0 1296 1296" xml:space="preserve">
<g>
	<defs>
		<rect id="SVGID_1_" x="259.22" y="351.621" width="779.516" height="595.772"/>
	</defs>
	<clipPath id="SVGID_2_">
		<use xlink:href="#SVGID_1_"  overflow="visible"/>
	</clipPath>
	
		<polyline clip-path="url(#SVGID_2_)" fill="none" stroke="#B37C34" stroke-width="0.72" stroke-linecap="round" stroke-linejoin="round" stroke-miterlimit="3.85" points="
		769.697,582.057 770.658,583.018 773.058,583.737 774.737,585.178 775.218,585.178 777.857,590.458 779.058,592.379 
		780.018,592.859 780.257,594.539 780.498,594.779 781.697,595.259 782.178,596.219 782.418,597.18 782.418,597.419 
		782.657,597.899 783.138,598.62 783.857,599.82 784.098,600.54 785.058,601.02 785.537,600.78 786.737,600.3 788.418,599.82 
		792.018,598.38 795.617,597.66 797.058,597.18 798.498,596.219 798.978,595.499 799.697,595.019 801.377,594.059 802.338,594.059 
		802.817,594.539 803.058,594.299 803.297,594.299 804.257,593.339 805.217,592.859 807.617,593.819 810.498,593.099 
		811.938,594.539 813.617,594.059 814.098,594.059 816.257,594.539 817.938,595.259 817.938,597.419 818.418,597.419 
		819.137,597.18 819.617,597.419 819.857,598.86 822.497,600.78 825.857,603.181 826.098,603.42 826.577,604.621 831.377,605.341 
		831.857,607.261 833.537,610.142 835.697,609.901 837.137,609.421 841.217,612.302 841.217,612.542 844.817,612.782 
		848.897,614.462 848.897,615.182 848.897,615.422 851.057,617.343 851.537,618.543 851.057,619.743 851.297,621.903 
		851.057,625.024 850.577,626.224 849.137,628.625 847.697,630.305 846.737,630.064 845.297,630.785 844.098,632.225 
		843.617,633.425 842.417,634.865 841.457,635.345 838.577,634.865 837.377,635.826 834.978,637.026 834.497,637.266 
		833.297,637.986 832.098,638.946 830.417,639.426 830.177,639.426 829.697,638.706 828.497,638.706 826.577,638.946 
		826.098,639.426 824.657,638.706 823.457,638.466 821.297,638.946 819.377,639.426 819.137,639.666 817.697,640.626 
		817.217,640.866 816.257,641.346 814.577,642.307 813.617,642.787 811.457,643.507 811.217,643.507 810.737,644.227 
		810.018,644.707 808.817,644.947 808.577,644.947 807.377,644.947 807.137,644.947 806.657,644.947 805.938,644.707 
		802.098,644.947 801.137,645.667 799.457,646.147 798.737,646.387 797.537,646.147 797.297,645.907 793.457,645.187 
		793.217,644.707 793.457,643.987 793.217,643.507 792.498,643.027 791.777,643.507 791.297,643.507 790.338,643.027 
		789.617,642.066 789.857,641.346 788.657,637.266 789.377,636.306 789.617,635.105 789.617,634.865 789.617,634.625 
		789.377,632.465 788.897,628.145 788.657,626.464 788.418,625.264 788.177,624.544 787.457,623.583 787.217,622.863 
		786.978,621.663 786.978,621.183 786.978,618.543 786.737,617.823 786.737,617.103 785.297,615.902 783.138,614.942 
		783.138,614.702 781.457,614.702 780.978,614.702 779.537,615.422 779.297,615.902 779.058,616.623 778.577,617.103 
		778.338,617.343 776.658,617.823 775.457,617.103 763.938,611.822 759.138,606.541 759.138,606.301 757.698,604.621 
		757.218,604.141 756.738,603.42 756.258,602.22 756.258,601.74 756.258,600.78 756.258,599.58 755.777,598.62 755.537,598.62 
		755.537,598.38 755.058,598.14 754.577,597.419 755.298,592.859 755.537,592.619 757.218,589.018 758.418,586.378 759.138,585.178 
		761.058,584.698 761.777,583.978 762.258,583.257 762.018,582.777 762.258,582.057 765.377,582.057 766.338,582.537 
		766.338,582.057 767.058,581.097 768.978,581.337 769.697,582.057 	"/>
	
		<polyline clip-path="url(#SVGID_2_)" fill="none" stroke="#B37C34" stroke-width="0.72" stroke-linecap="round" stroke-linejoin="round" stroke-miterlimit="3.85" points="
		585.618,487.002 586.338,487.723 587.059,489.643 587.539,490.843 588.258,492.283 588.738,492.763 589.458,493.243 
		589.458,493.483 589.458,493.963 589.698,495.164 589.698,495.404 589.458,496.364 589.698,496.844 590.418,497.804 
		590.658,498.044 591.138,499.004 592.578,499.725 593.059,500.444 594.738,502.605 595.698,504.285 595.458,506.445 
		596.418,506.686 597.138,505.965 598.578,506.206 599.059,506.686 599.778,508.125 600.499,509.566 601.218,510.766 
		601.218,513.407 599.539,513.646 599.298,514.367 599.059,515.087 599.539,517.247 599.539,517.967 599.778,518.927 
		600.019,519.888 600.499,520.607 600.738,520.848 600.979,520.848 602.898,521.328 603.858,522.288 604.338,523.488 
		605.298,525.168 606.019,525.648 606.499,526.128 606.979,526.369 607.938,527.089 608.418,527.089 608.898,526.849 
		609.618,526.369 609.858,525.168 609.858,524.928 609.858,524.448 609.618,523.248 609.618,521.568 609.858,521.088 
		610.818,520.607 611.778,520.607 612.258,520.607 613.458,520.848 613.938,520.848 614.418,520.848 615.378,521.328 
		615.378,522.288 615.378,523.008 614.658,523.968 614.418,524.928 614.418,525.168 614.178,525.889 614.178,527.329 
		614.178,527.569 614.178,528.289 614.418,528.769 615.618,529.009 615.858,529.009 616.098,529.009 616.338,529.009 
		616.578,529.009 616.578,529.249 616.818,529.249 616.818,529.489 617.058,529.969 617.778,530.929 618.498,531.649 
		618.498,532.37 618.018,533.81 618.258,535.25 618.498,535.97 618.738,536.45 619.218,537.41 619.938,538.61 620.418,539.09 
		621.138,539.571 621.618,539.811 621.858,539.811 621.858,540.051 623.058,540.771 624.498,541.491 624.498,541.731 
		624.738,541.731 625.698,541.731 626.178,541.731 626.178,541.971 625.938,543.411 624.018,544.611 621.138,546.771 
		620.418,547.492 620.418,548.452 619.698,548.932 618.258,549.172 617.778,548.932 617.778,548.452 618.018,547.732 
		618.018,546.292 617.778,546.052 616.818,545.571 614.658,546.052 614.178,546.292 612.018,547.012 611.298,546.771 
		610.818,546.771 609.858,547.252 609.138,547.492 608.898,547.732 608.658,547.972 607.938,548.692 607.218,549.412 
		606.979,549.412 606.258,549.652 604.818,549.892 604.338,549.652 603.378,549.412 602.898,548.932 602.658,547.972 
		602.418,547.492 601.938,546.771 601.458,546.292 600.019,545.091 598.338,544.611 597.858,544.371 596.898,543.891 
		596.418,543.891 594.019,542.931 593.539,541.251 593.539,541.011 593.298,540.531 592.818,539.811 592.099,539.571 
		591.858,539.571 591.618,539.811 591.138,540.291 590.178,541.011 590.418,541.731 590.898,542.211 591.138,542.931 
		585.618,542.931 585.858,541.971 585.858,541.251 585.858,541.011 583.458,539.811 583.218,539.811 582.979,539.811 
		582.738,539.811 581.059,540.771 580.579,541.251 580.099,541.251 576.019,542.451 575.298,542.451 572.898,542.931 
		567.378,543.891 565.458,544.131 564.019,543.411 563.059,541.251 562.818,540.531 564.258,540.051 564.019,539.331 
		563.298,538.851 562.338,539.331 561.619,536.21 561.378,535.25 560.659,533.57 560.418,533.33 560.418,533.089 559.938,532.609 
		559.219,531.409 558.499,530.689 557.539,529.969 555.139,528.769 555.139,528.529 554.898,528.049 554.898,526.369 
		554.659,525.168 554.659,524.688 554.418,524.688 554.418,524.448 554.179,523.968 553.699,522.768 553.458,522.528 
		552.019,521.328 551.779,520.848 551.299,520.607 549.858,519.407 548.659,517.967 548.179,517.007 547.938,516.767 
		548.179,511.486 548.179,510.286 547.699,509.326 545.539,506.686 542.179,504.525 541.699,504.045 541.938,503.805 
		545.059,503.085 553.699,502.605 556.338,503.325 560.659,502.845 562.338,502.605 562.579,502.365 564.979,501.165 
		564.979,500.925 564.979,500.205 564.499,499.964 564.738,499.484 565.458,499.004 568.579,496.604 570.258,494.443 
		570.258,493.243 570.738,492.283 570.979,491.803 574.338,488.683 576.019,487.002 576.738,486.282 580.338,485.082 
		581.059,484.602 583.458,484.602 585.618,487.002 	"/>
	
		<polyline clip-path="url(#SVGID_2_)" fill="none" stroke="#B37C34" stroke-width="0.72" stroke-linecap="round" stroke-linejoin="round" stroke-miterlimit="3.85" points="
		383.059,409.71 384.5,409.471 386.419,409.71 387.859,410.671 389.059,410.19 391.219,409.23 393.62,410.19 393.62,410.431 
		393.859,410.911 395.779,411.391 396.5,411.631 397.459,411.631 397.699,411.15 398.179,411.15 400.1,412.591 400.339,412.831 
		401.059,413.551 402.259,414.751 403.219,415.711 403.459,416.671 403.699,417.151 403.699,417.392 403.699,418.112 
		403.939,418.592 403.939,418.832 403.939,419.072 403.939,419.552 404.179,419.792 404.179,420.032 404.419,420.272 
		405.139,420.752 405.379,420.752 405.619,420.992 405.859,421.472 405.859,421.712 405.859,422.433 405.859,423.393 
		405.859,423.873 405.859,424.593 405.859,424.833 405.859,425.553 405.619,426.033 404.899,427.713 404.179,428.673 
		402.979,430.834 402.979,431.074 402.739,431.794 402.259,433.474 402.02,433.954 400.819,434.674 400.579,434.915 
		400.339,435.395 400.339,435.634 400.1,435.634 400.1,435.875 399.62,438.275 400.1,441.875 400.339,442.835 400.579,444.996 
		400.579,445.716 400.579,446.436 400.579,447.636 400.579,448.116 399.859,448.356 399.379,448.836 398.419,449.557 
		397.459,450.997 394.1,453.157 391.939,455.558 390.5,456.998 389.059,458.198 388.1,458.918 387.859,459.158 387.379,459.398 
		386.179,460.358 385.459,460.838 382.1,459.158 381.14,458.918 379.7,458.438 379.459,458.198 377.299,457.958 375.859,457.958 
		372.739,457.718 370.819,457.718 368.179,456.998 367.939,456.518 367.22,456.518 366.979,456.758 366.5,456.758 365.779,456.758 
		365.54,456.758 365.3,456.758 363.859,456.758 363.379,456.758 363.379,456.518 362.419,455.797 361.7,455.317 361.459,455.317 
		360.5,454.597 359.779,453.877 359.3,453.157 358.58,451.717 358.34,451.717 355.7,448.597 355.22,448.116 354.02,447.636 
		352.1,447.396 350.899,447.156 349.459,446.436 348.739,446.196 346.82,445.476 343.7,444.756 342.739,443.796 342.02,442.355 
		340.34,440.195 339.859,439.235 339.379,437.314 339.859,434.674 340.1,432.754 341.06,431.314 345.379,427.473 346.34,425.313 
		346.82,423.393 347.06,422.913 347.3,421.472 348.259,420.032 351.859,418.112 353.06,418.112 355.939,417.392 358.82,415.711 
		359.3,415.231 364.1,412.351 366.5,410.671 367.459,409.471 368.659,409.471 370.1,409.23 370.819,409.23 371.54,409.471 
		372.259,409.71 372.739,410.431 372.979,410.671 373.22,411.15 374.179,410.671 375.62,410.911 376.1,411.15 376.1,411.391 
		376.339,411.871 376.579,412.351 376.819,412.351 377.059,412.591 377.539,412.591 378.5,411.871 378.5,411.15 378.5,410.911 
		378.5,409.95 380.179,408.75 381.379,408.75 383.059,409.71 	"/>
	
		<polyline clip-path="url(#SVGID_2_)" fill="none" stroke="#B37C34" stroke-width="0.72" stroke-linecap="round" stroke-linejoin="round" stroke-miterlimit="3.85" points="
		711.857,559.734 713.058,559.974 714.018,560.214 714.979,559.734 715.458,559.253 716.178,557.093 716.178,556.613 
		715.938,556.133 715.938,555.893 717.378,554.933 718.098,555.173 718.818,555.893 720.498,558.773 720.498,560.214 
		721.218,561.174 725.058,562.134 726.978,562.854 727.698,562.614 727.938,561.894 727.938,561.654 731.777,562.614 
		735.378,562.134 738.018,561.174 744.738,560.454 746.897,560.694 748.577,560.934 749.298,561.414 749.537,562.854 
		751.698,562.614 752.657,562.854 752.418,564.294 750.978,567.175 747.857,570.535 744.258,573.416 742.098,574.376 
		741.857,575.336 736.338,577.256 732.018,577.977 730.577,579.177 728.657,578.937 728.178,578.217 727.698,578.217 
		720.498,576.776 720.258,576.536 716.657,575.576 715.698,575.096 714.258,574.616 713.537,574.376 713.058,574.376 
		712.338,574.136 712.098,574.136 710.418,573.656 709.938,573.416 709.698,573.416 708.979,572.456 703.218,571.255 
		701.298,571.255 701.058,571.255 700.098,571.255 699.617,571.496 697.218,571.735 694.578,572.696 679.698,573.656 
		673.938,572.696 671.777,571.496 673.698,567.655 673.698,567.175 674.418,565.734 675.618,564.054 676.818,563.094 
		677.058,563.334 678.979,561.414 679.698,560.454 680.178,559.253 680.178,556.854 679.218,555.653 678.738,555.413 
		678.498,554.933 678.738,554.213 679.218,553.973 681.378,554.933 683.298,554.933 685.458,554.693 686.657,555.173 
		688.098,556.854 688.818,557.093 692.657,557.813 693.857,557.813 694.338,557.573 694.338,557.333 696.738,557.573 
		697.938,558.053 698.657,558.053 700.818,558.053 703.698,559.014 705.378,559.253 706.338,559.253 706.577,559.253 
		706.818,559.253 707.538,559.014 708.498,559.014 711.857,559.734 	"/>
	
		<polyline clip-path="url(#SVGID_2_)" fill="none" stroke="#B37C34" stroke-width="0.72" stroke-linecap="round" stroke-linejoin="round" stroke-miterlimit="3.85" points="
		712.818,596.459 715.458,596.219 718.098,596.939 722.657,597.18 725.058,597.419 727.938,598.38 736.098,605.821 737.777,607.741 
		739.938,611.342 740.178,612.062 739.938,613.742 738.978,615.663 736.098,619.983 735.138,620.703 734.418,620.703 
		732.018,621.423 729.138,622.863 726.498,623.824 721.218,623.824 718.577,624.544 716.418,621.423 714.979,617.103 
		715.698,613.022 715.458,611.342 713.298,607.981 712.818,607.261 706.818,604.141 706.098,602.94 705.857,602.22 705.857,600.3 
		706.098,598.86 709.218,596.939 710.657,596.459 712.818,596.459 	"/>
	
		<polyline clip-path="url(#SVGID_2_)" fill="none" stroke="#B37C34" stroke-width="0.72" stroke-linecap="round" stroke-linejoin="round" stroke-miterlimit="3.85" points="
		280.34,471.16 279.62,470.44 278.18,468.279 277.94,468.04 277.7,467.56 278.18,462.759 278.42,462.279 279.38,459.878 
		279.86,458.438 279.86,458.198 280.34,457.478 280.58,456.998 282.5,455.558 283.7,454.357 284.18,453.637 285.14,452.677 
		285.62,452.437 285.86,452.197 288.74,450.757 293.06,448.597 294.26,447.636 294.5,447.156 294.979,446.676 295.459,445.236 
		295.7,444.516 296.42,441.875 297.38,441.396 298.1,441.396 298.58,441.155 299.54,440.915 301.459,440.915 301.7,440.915 
		303.62,441.875 304.34,443.796 304.34,444.276 303.86,444.516 303.14,444.756 302.9,444.516 302.66,444.756 300.74,447.876 
		299.78,451.717 300.5,454.117 300.74,456.278 297.86,457.958 297.62,457.958 297.38,457.958 294.5,458.918 291.38,459.398 
		289.459,460.598 287.78,463.239 285.62,466.599 283.46,471.4 284.18,471.88 283.46,472.84 282.5,472.36 282.26,472.36 
		281.78,472.12 280.82,471.4 280.58,471.16 280.34,471.16 	"/>
	
		<polyline clip-path="url(#SVGID_2_)" fill="none" stroke="#B37C34" stroke-width="0.72" stroke-linecap="round" stroke-linejoin="round" stroke-miterlimit="3.85" points="
		773.058,642.787 774.018,643.507 774.737,644.227 775.697,645.667 776.178,646.147 776.178,647.107 775.457,647.827 
		774.498,651.668 774.978,652.147 776.658,652.868 776.897,653.828 776.658,654.068 776.178,654.548 775.457,654.789 
		774.018,654.548 770.418,656.229 768.018,654.309 764.418,655.748 762.978,656.709 762.258,656.229 761.058,656.709 
		760.577,656.709 759.377,657.189 758.418,657.189 757.457,656.948 754.577,654.068 754.817,653.348 755.537,651.908 
		756.498,650.948 757.698,649.748 759.617,649.027 761.537,648.547 762.738,647.827 763.938,646.867 766.577,645.427 
		767.058,644.467 767.777,643.987 771.617,642.546 773.058,642.787 	"/>
	
		<polyline clip-path="url(#SVGID_2_)" fill="none" stroke="#B37C34" stroke-width="0.72" stroke-linecap="round" stroke-linejoin="round" stroke-miterlimit="3.85" points="
		236.18,487.962 236.9,487.723 237.86,488.203 237.86,491.083 236.9,491.323 236.42,490.843 236.18,487.962 	"/>
	
		<polyline clip-path="url(#SVGID_2_)" fill="none" stroke="#B37C34" stroke-width="0.72" stroke-linecap="round" stroke-linejoin="round" stroke-miterlimit="3.85" points="
		607.458,523.968 607.698,524.208 607.458,524.448 607.218,524.448 606.979,524.448 606.979,524.208 607.218,524.208 
		607.218,523.968 606.979,523.968 607.218,523.968 607.458,523.968 607.458,523.728 607.458,523.968 	"/>
	
		<polyline clip-path="url(#SVGID_2_)" fill="none" stroke="#B37C34" stroke-width="0.72" stroke-linecap="round" stroke-linejoin="round" stroke-miterlimit="3.85" points="
		902.417,879.464 901.938,880.184 899.297,882.584 897.377,883.784 896.897,883.784 895.938,883.544 895.457,883.304 
		895.217,882.823 894.978,882.584 894.736,881.623 894.497,880.423 892.337,878.503 890.177,876.583 889.938,876.343 
		884.657,874.663 878.897,870.103 874.337,869.142 872.177,868.902 868.577,866.981 868.098,866.502 867.856,864.341 
		865.457,860.74 864.737,860.74 864.737,860.501 862.816,854.979 863.297,849.939 865.217,841.057 864.978,839.137 865.217,835.057 
		866.177,832.896 866.657,829.295 867.137,823.775 866.897,822.335 865.457,818.014 863.537,814.653 864.018,812.973 
		864.018,812.732 862.337,810.573 861.856,809.373 861.856,805.052 862.098,803.611 861.856,803.131 861.137,802.651 
		860.417,802.651 860.177,802.892 860.177,803.131 859.938,803.131 858.257,802.411 858.018,802.172 857.777,799.051 
		857.297,796.41 857.297,795.931 856.817,793.77 856.577,793.05 856.098,792.811 855.617,792.569 855.377,788.249 854.657,785.849 
		854.417,785.129 854.177,784.648 852.737,782.008 852.018,780.568 851.537,780.088 850.817,779.848 847.457,779.128 
		846.737,778.647 846.497,777.688 846.737,776.487 847.217,776.007 847.457,776.007 847.217,775.047 846.257,773.367 
		844.817,772.166 844.098,771.447 844.098,769.286 842.417,767.606 843.377,765.926 844.098,763.765 844.338,760.405 
		848.177,757.284 850.098,755.124 850.337,754.884 850.337,754.644 850.577,754.404 853.217,751.044 854.177,750.323 
		855.856,749.603 857.777,749.363 858.497,749.844 858.978,749.844 861.137,748.883 860.897,747.443 861.137,746.723 
		862.337,744.802 863.057,743.603 863.057,743.362 863.297,743.122 864.257,741.202 865.217,739.762 865.217,739.041 
		865.457,738.321 868.816,735.201 869.057,734.961 870.257,733.04 872.417,731.84 872.657,732.081 873.137,732.081 873.617,730.881 
		873.617,730.64 873.856,729.2 874.337,724.88 873.856,723.439 872.897,721.999 872.177,721.039 871.938,720.799 871.457,720.318 
		870.978,719.599 870.737,719.358 868.577,717.198 866.177,713.357 864.257,707.597 863.057,699.195 863.777,694.875 
		864.978,691.994 866.177,690.794 867.377,690.073 870.018,689.594 875.537,691.034 875.777,691.034 877.217,691.754 
		879.617,692.955 880.337,693.194 881.057,693.194 882.018,693.674 884.657,694.875 886.098,696.314 886.098,697.755 
		886.577,698.715 890.657,700.876 897.377,704.236 900.497,707.117 901.457,707.117 903.617,708.317 904.577,709.997 
		905.057,710.236 906.018,710.478 906.257,710.478 907.217,710.236 909.137,709.277 910.337,709.037 911.297,709.277 
		915.137,710.718 916.097,711.437 916.816,711.437 918.017,711.437 922.576,712.877 925.938,714.077 926.656,714.318 
		931.217,716.478 931.697,716.719 931.937,716.958 933.617,717.919 936.977,719.599 937.697,720.078 941.536,721.999 
		942.977,722.719 946.337,723.919 947.536,724.159 948.017,724.159 949.697,725.359 950.177,725.6 950.416,725.84 950.656,726.08 
		950.896,726.319 952.337,727.52 952.576,727.76 953.057,728 953.777,728.72 955.697,729.92 957.137,730.64 958.816,731.601 
		960.017,732.801 960.257,733.281 962.177,734.481 966.496,738.321 966.977,738.562 968.896,740.481 969.137,740.722 
		969.856,741.922 970.336,743.362 971.297,744.322 972.257,745.282 973.456,746.002 973.937,746.002 975.137,747.683 
		975.377,748.644 975.377,750.083 974.896,752.003 974.656,752.483 974.177,753.684 974.416,754.644 974.416,755.844 
		974.656,758.484 974.656,759.205 974.416,759.685 974.416,759.925 974.416,761.605 974.416,761.845 974.416,764.726 
		974.656,764.965 974.896,765.445 975.377,766.165 975.617,766.165 976.336,766.406 977.057,766.165 978.496,765.926 
		979.937,764.965 980.896,764.246 986.416,764.246 987.617,765.686 987.856,766.165 988.097,767.126 989.057,768.565 
		989.776,771.206 989.536,773.847 989.536,777.447 989.536,778.168 990.977,779.368 992.416,780.328 994.336,780.328 
		994.576,780.568 994.576,781.048 994.097,782.248 994.816,783.448 996.496,784.409 997.217,784.889 997.217,785.129 
		997.937,786.089 998.656,786.568 999.137,786.81 1000.816,788.249 1002.496,789.21 1004.656,790.169 1007.776,791.13 
		1009.937,792.811 1011.377,792.811 1013.057,793.77 1013.776,794.97 1013.776,795.45 1011.856,800.972 1011.377,801.691 
		1009.937,803.372 1005.856,807.212 1005.136,807.692 1003.217,808.893 997.696,813.213 995.776,815.373 992.896,817.773 
		990.736,820.174 990.256,820.414 985.696,822.814 985.456,822.814 979.937,825.215 972.736,829.056 971.776,829.775 
		970.097,831.216 966.496,832.416 964.816,832.176 962.896,832.656 961.697,833.376 960.257,833.376 954.977,832.176 
		952.337,831.695 947.777,832.896 946.816,833.616 945.617,835.057 941.777,837.697 940.816,840.098 939.377,841.298 
		936.736,842.257 935.297,842.498 933.617,843.218 931.697,844.418 930.257,845.618 929.536,846.818 926.656,849.698 
		924.977,850.419 919.697,851.859 918.497,852.579 918.736,853.06 918.736,853.779 917.777,854.739 916.816,854.979 916.576,855.22 
		914.417,858.58 913.457,858.82 912.736,859.78 912.978,861.701 912.978,863.86 912.736,865.061 911.537,866.981 910.097,867.702 
		909.377,868.422 907.457,872.022 907.457,874.423 906.736,875.863 905.297,876.103 903.617,877.303 903.617,877.543 
		903.377,877.783 903.137,878.503 902.417,879.464 	"/>
</g>
</svg>
