<?xml version="1.0" encoding="utf-8"?>
<!-- Generator: Adobe Illustrator 15.1.0, SVG Export Plug-In . SVG Version: 6.00 Build 0)  -->
<!DOCTYPE svg PUBLIC "-//W3C//DTD SVG 1.1//EN" "http://www.w3.org/Graphics/SVG/1.1/DTD/svg11.dtd">
<svg version="1.1" id="State" xmlns="http://www.w3.org/2000/svg" xmlns:xlink="http://www.w3.org/1999/xlink" x="0px" y="0px"
	 width="1296px" height="1296px" viewBox="0 0 1296 1296" enable-background="new 0 0 1296 1296" xml:space="preserve">
<g>
	<defs>
		<rect id="SVGID_1_" x="349.219" y="266.421" width="598.45" height="770.958"/>
	</defs>
	<clipPath id="SVGID_2_">
		<use xlink:href="#SVGID_1_"  overflow="visible"/>
	</clipPath>
	
		<polyline clip-path="url(#SVGID_2_)" fill="none" stroke="#B37C34" stroke-width="0.4799" stroke-linecap="round" stroke-linejoin="round" stroke-miterlimit="3.85" points="
		435.843,387.394 436.083,380.193 436.323,376.112 436.563,372.032 436.563,371.072 436.803,367.712 436.803,367.472 
		436.803,366.992 436.803,366.752 436.803,366.512 436.803,366.271 436.803,366.031 436.803,365.792 436.803,365.552 
		436.803,365.071 436.803,364.832 436.803,364.591 437.042,364.111 437.042,363.871 437.042,363.392 437.042,362.671 
		437.042,362.431 437.283,359.071 437.283,358.591 437.283,358.111 438.002,346.59 438.002,344.43 438.002,342.509 438.002,341.309 
		438.243,340.589 438.243,339.629 438.243,336.269 438.243,335.548 438.482,334.108 438.482,333.388 438.482,330.988 
		438.722,328.588 438.722,327.147 438.722,326.667 438.962,322.107 438.962,320.907 438.962,319.947 439.202,317.067 
		439.682,307.466 439.682,304.105 439.922,300.265 439.922,298.825 440.162,297.625 440.162,294.504 440.642,285.144 
		440.642,281.783 459.358,282.503 476.635,282.983 480.955,283.223 482.395,283.223 482.875,283.223 484.554,283.223 
		485.274,283.223 485.514,283.223 485.754,283.223 486.474,283.223 507.59,283.943 507.11,303.385 506.39,322.587 506.39,323.307 
		506.15,331.468 506.15,335.308 506.15,337.469 505.91,341.789 505.91,342.269 505.91,344.43 505.91,346.109 505.67,353.311 
		505.67,355.23 505.67,355.471 505.43,358.831 505.43,360.271 505.43,361.471 505.43,362.671 505.19,365.071 505.19,370.112 
		505.19,374.433 504.95,378.033 504.95,379.233 504.95,380.433 504.95,381.153 504.71,387.154 504.71,389.554 504.95,389.794 
		505.19,390.034 505.43,390.274 505.91,390.034 506.63,390.994 506.87,391.474 507.35,392.194 507.59,392.435 508.07,393.634 
		508.31,394.114 508.31,395.075 509.029,396.035 509.989,396.275 510.229,396.755 510.709,397.955 510.949,398.195 511.189,398.435 
		511.669,399.155 511.909,399.395 511.909,399.635 512.149,399.635 512.389,400.115 512.869,401.315 513.349,402.275 
		513.589,402.515 514.309,403.476 514.548,403.715 515.988,402.996 516.468,403.715 516.468,403.955 516.708,404.676 
		517.908,405.396 518.388,406.836 518.148,407.316 518.148,409.716 518.628,410.436 518.868,410.916 519.107,411.396 
		518.868,412.356 519.107,412.836 519.828,413.316 520.547,412.836 521.267,412.596 521.507,412.836 522.227,413.557 
		522.707,414.276 522.707,415.237 522.467,415.717 522.947,416.677 523.427,416.917 523.907,416.917 524.146,416.677 
		524.626,417.157 526.066,418.357 526.546,419.077 526.546,419.317 526.546,419.797 526.306,421.477 526.306,421.717 
		526.066,422.438 525.586,423.397 526.066,424.837 527.026,425.317 527.506,425.558 528.466,426.758 528.466,427.478 
		528.706,429.638 527.506,431.558 526.546,431.558 525.586,432.519 524.626,433.718 524.626,434.438 524.626,434.918 
		525.106,435.398 526.306,435.879 526.546,436.119 526.786,436.119 527.266,436.359 527.266,437.079 527.266,437.799 
		527.266,438.039 527.266,438.279 527.506,438.759 527.746,438.999 527.986,439.239 528.226,439.719 528.706,440.919 
		528.946,441.159 530.625,441.639 530.866,441.879 531.105,442.119 530.866,442.839 530.625,443.319 530.146,444.04 
		529.666,444.279 529.186,444.04 528.226,444.04 526.546,444.279 526.066,444.76 525.586,445.24 525.586,446.44 525.586,446.92 
		526.066,447.16 526.066,447.4 526.306,447.4 526.306,447.64 527.026,447.88 528.226,448.36 530.625,449.8 531.105,451 
		531.345,451.72 531.825,452.2 532.305,451.96 533.265,451.72 533.985,451.96 534.465,452.2 534.465,452.44 535.665,453.16 
		536.145,453.4 536.145,453.88 536.625,454.601 536.864,454.841 537.584,454.841 537.824,455.321 538.064,456.521 538.064,457.001 
		538.784,458.441 539.264,458.921 539.504,459.881 539.504,460.121 540.464,460.841 541.664,461.562 542.383,461.801 
		543.343,462.042 544.303,462.761 545.263,463.001 546.463,462.761 546.703,463.001 546.942,463.481 547.663,464.202 
		548.143,464.202 549.822,464.202 550.302,464.202 550.782,464.682 551.262,464.922 551.981,464.682 552.702,464.682 
		553.421,465.162 553.661,466.362 553.661,466.602 554.141,467.562 554.621,468.042 554.861,468.042 555.341,468.522 
		555.821,469.002 555.821,469.962 555.581,470.442 555.341,471.642 555.341,472.362 556.061,472.842 556.301,472.842 
		557.98,473.083 558.46,473.803 558.46,475.002 558.94,475.723 559.18,476.203 560.14,476.443 560.62,476.443 561.1,476.683 
		562.3,477.403 563.02,478.363 564.219,480.283 564.219,481.003 566.379,482.203 566.379,483.164 566.619,483.884 567.099,484.844 
		567.339,484.844 567.339,485.083 567.819,485.563 568.778,486.764 569.019,487.004 569.258,487.004 569.979,487.244 
		570.458,487.964 570.458,488.204 570.938,489.404 571.178,489.644 571.178,490.364 571.418,491.564 571.418,492.284 
		572.138,493.245 572.378,494.685 572.618,494.925 572.618,495.165 573.817,494.925 574.058,494.685 574.058,494.445 
		575.977,494.925 575.977,495.405 576.217,495.645 576.937,497.085 578.137,498.285 578.617,499.005 578.857,499.245 
		579.577,499.725 580.296,499.965 581.016,500.445 581.256,500.925 581.256,501.405 580.537,502.125 580.537,502.605 
		580.776,503.565 580.776,504.286 580.776,504.766 580.296,505.726 580.057,505.726 579.816,506.686 580.296,506.926 
		581.016,507.166 581.496,507.886 581.016,508.366 581.016,508.606 581.016,508.846 581.016,509.086 581.496,509.806 
		582.696,510.526 583.176,511.486 583.896,511.966 584.375,511.486 584.855,511.486 585.576,511.486 585.815,511.486 
		585.815,511.966 585.815,512.207 586.055,512.687 587.015,513.407 587.495,513.646 587.975,514.606 588.695,514.847 
		589.415,514.606 590.854,515.087 591.094,515.327 592.534,517.247 592.534,518.447 592.294,519.167 591.814,519.887 
		591.574,520.127 591.334,520.127 591.094,520.607 590.854,521.808 590.854,522.047 592.294,523.488 592.774,523.488 
		593.494,523.488 593.494,523.248 593.734,523.007 594.214,522.047 595.174,521.808 596.134,521.567 596.374,521.327 
		596.854,520.127 597.093,519.407 597.093,519.167 597.333,519.167 598.293,519.407 598.773,519.407 599.013,519.407 
		600.693,519.887 600.933,520.127 601.893,521.808 602.373,522.047 602.612,522.527 602.612,524.208 601.893,524.928 
		601.173,525.408 601.173,526.128 601.413,526.848 601.652,527.568 602.612,527.568 603.092,528.048 603.332,528.768 
		603.092,529.008 603.092,529.488 604.052,529.968 604.532,530.208 605.252,530.208 606.932,529.248 607.892,529.008 
		609.331,529.488 610.531,529.728 611.491,529.728 612.21,530.208 613.65,530.448 614.61,529.488 614.61,528.528 616.53,527.568 
		617.49,527.808 618.209,527.568 618.689,527.088 619.889,526.848 621.089,526.608 621.329,526.608 622.769,527.328 
		623.249,527.568 623.729,528.288 623.968,529.008 623.968,529.248 623.968,531.168 623.968,532.608 623.009,534.529 
		623.009,535.009 623.009,535.489 623.249,535.969 623.249,536.209 623.249,536.689 622.529,537.409 622.289,538.369 
		622.289,539.089 622.049,540.529 622.049,541.009 622.049,541.489 622.529,541.969 621.809,543.169 621.329,543.649 
		620.129,543.89 619.889,543.89 619.409,543.649 618.689,543.649 618.209,543.89 618.209,544.13 617.97,544.13 617.97,544.37 
		618.209,546.53 618.689,547.25 619.409,547.49 619.649,548.21 619.889,548.45 619.889,549.89 619.889,550.851 619.409,553.25 
		618.929,553.491 618.449,553.73 617.49,554.451 616.53,555.651 617.49,557.811 617.49,558.531 617.25,560.932 617.01,561.651 
		616.29,562.611 615.81,563.572 615.81,564.052 616.29,565.972 616.29,566.452 615.57,567.172 615.33,567.412 614.37,567.652 
		613.41,567.412 613.17,568.132 613.17,568.612 613.17,570.052 614.37,570.772 614.61,571.252 614.85,572.933 615.09,573.893 
		615.09,574.853 614.85,577.733 613.89,578.213 612.931,578.933 612.451,579.173 611.73,578.453 611.251,578.453 609.811,578.453 
		609.091,580.613 609.091,580.854 609.331,582.773 610.771,583.494 611.491,583.974 611.73,583.974 612.69,583.974 613.17,584.934 
		613.65,585.414 613.65,585.654 613.89,585.654 613.65,585.654 613.65,587.574 613.17,588.774 613.17,589.254 612.451,589.974 
		611.491,590.694 611.251,591.174 611.251,591.895 611.491,592.375 611.971,592.615 612.21,592.615 612.69,593.815 612.69,594.055 
		612.451,594.535 612.451,594.775 612.451,595.495 612.931,596.215 613.17,596.215 614.13,596.455 615.09,596.935 615.81,597.655 
		616.29,598.615 616.53,600.295 616.53,601.016 615.81,602.216 615.81,602.456 617.01,604.856 617.729,605.576 618.449,605.816 
		618.689,606.776 618.929,607.016 618.929,607.256 618.929,607.976 618.689,608.216 617.25,611.097 616.29,610.616 614.37,610.376 
		613.89,610.616 612.931,611.097 611.971,611.097 611.491,611.097 610.771,611.097 610.051,611.577 609.571,612.057 
		609.571,612.537 609.571,613.017 609.811,613.257 609.571,613.497 607.412,617.097 606.691,617.817 606.212,618.297 
		605.972,619.017 606.452,619.978 607.412,621.417 608.131,622.618 610.051,624.058 610.291,624.298 610.291,624.538 
		610.531,625.018 610.771,625.498 611.011,626.218 610.531,629.818 610.051,631.019 609.091,631.979 608.611,631.739 
		608.371,631.499 608.131,631.739 607.892,631.739 606.212,632.938 605.972,633.179 605.972,633.659 606.691,635.099 
		607.412,635.339 607.892,636.299 607.412,636.779 606.932,637.259 606.691,637.979 606.452,638.459 606.452,638.699 
		606.212,640.62 606.452,640.62 606.932,641.1 608.371,640.14 608.611,639.899 609.331,640.379 609.571,640.62 610.051,641.1 
		610.771,641.58 611.251,641.339 611.971,641.1 612.451,640.859 612.931,640.859 613.41,641.1 613.41,641.339 613.65,642.78 
		614.13,643.02 614.85,643.74 615.33,644.22 615.57,644.7 616.53,646.38 618.689,647.1 620.129,648.06 620.369,648.3 
		620.609,649.98 621.809,651.42 622.529,651.66 624.448,650.46 626.608,649.501 627.088,648.78 627.808,647.82 628.528,645.66 
		628.768,644.94 628.768,643.98 628.528,643.74 628.528,643.5 628.768,642.78 629.248,642.78 630.208,642.54 631.167,643.02 
		631.887,643.74 632.127,643.74 632.847,643.74 633.327,642.78 633.807,642.06 634.767,642.06 635.486,642.06 635.726,641.82 
		636.926,641.58 637.406,640.62 637.406,640.379 637.166,639.899 637.406,639.659 637.886,638.699 638.126,638.699 638.366,638.699 
		639.086,638.699 639.565,638.459 640.045,638.219 640.525,637.979 640.766,637.499 640.766,636.779 641.005,636.059 
		641.965,634.139 644.125,632.219 644.365,631.979 644.604,631.979 645.564,631.979 645.805,631.499 645.805,631.019 
		645.325,629.818 645.325,628.618 645.325,627.418 645.805,627.178 647.244,626.458 647.724,626.218 648.444,626.458 
		648.924,626.698 650.364,627.658 650.604,627.898 650.844,628.138 651.084,628.138 651.563,628.618 651.803,629.578 
		652.523,631.019 653.482,631.499 653.723,631.739 653.963,632.219 654.203,632.458 653.963,633.179 653.723,634.619 
		653.723,634.859 653.963,634.859 654.683,635.339 655.162,635.339 656.123,634.859 656.842,634.619 657.802,635.099 
		659.722,635.819 660.441,636.539 660.922,636.779 661.161,637.739 661.161,637.979 661.161,638.699 660.922,639.179 
		660.682,639.419 660.441,639.659 659.962,640.62 659.002,644.94 658.762,645.18 659.002,645.18 660.682,645.42 661.161,644.94 
		661.642,644.94 662.841,644.94 663.321,645.18 663.802,645.18 664.281,648.541 664.281,649.501 663.321,650.94 662.602,652.141 
		662.602,652.381 663.321,653.341 664.041,654.541 664.041,654.781 663.802,655.501 663.802,655.981 663.802,656.701 
		664.281,657.182 665.001,657.422 666.201,658.621 666.201,658.861 666.201,659.342 666.201,660.302 666.201,660.541 
		665.961,661.502 665.721,663.422 665.961,665.103 666.201,665.342 667.641,667.502 668.12,667.982 668.36,668.463 668.84,668.942 
		669.561,669.662 669.561,670.383 669.561,670.863 669.32,670.863 669.32,671.103 669.32,671.582 669.561,672.303 669.8,672.783 
		670.279,673.263 670.52,673.263 671.239,673.503 671.96,673.982 672.439,674.703 672.439,675.423 672.919,676.383 673.399,677.103 
		673.879,677.583 674.599,678.063 676.039,679.264 676.759,680.703 676.519,681.424 676.519,681.904 676.519,682.384 
		676.759,683.104 676.998,683.104 676.998,683.344 677.719,685.265 677.959,685.744 678.198,686.225 679.398,687.424 
		679.878,687.424 680.598,687.185 682.277,687.185 682.518,687.185 682.518,687.424 682.998,687.904 682.518,688.625 
		682.037,689.344 684.438,692.465 685.397,692.705 685.877,692.465 686.356,692.225 686.837,692.944 687.077,694.145 
		687.077,695.346 687.316,696.064 688.036,697.985 688.036,698.226 687.316,699.186 687.316,700.626 687.557,701.346 
		687.557,701.586 687.557,703.026 687.316,703.746 686.837,703.985 685.877,704.227 685.397,704.227 684.918,703.985 
		683.957,704.227 683.478,704.946 683.717,705.666 683.957,706.146 684.197,706.386 685.397,708.066 685.397,708.547 
		686.117,710.227 686.356,711.187 686.356,711.427 686.356,711.666 686.837,712.867 689.236,715.268 692.116,715.747 
		692.596,715.987 694.035,717.427 694.996,719.588 694.756,719.588 694.275,720.067 694.275,720.308 695.235,721.027 
		696.436,720.548 698.114,719.588 698.595,719.107 699.794,718.387 699.794,718.147 700.035,718.147 700.274,718.147 
		701.474,717.427 702.194,717.188 702.674,717.907 704.834,718.627 706.033,719.348 706.753,720.067 707.233,720.787 
		708.434,721.508 708.673,721.508 710.113,721.748 710.593,722.228 710.832,722.948 710.353,723.428 710.593,724.389 
		711.793,725.828 712.992,726.788 712.992,727.508 712.992,728.709 713.231,729.909 714.432,730.629 715.392,731.828 
		715.392,732.549 715.392,733.029 715.392,734.229 715.632,734.949 716.111,735.43 716.831,736.149 716.831,736.869 716.591,737.83 
		716.352,738.069 715.632,738.31 715.152,738.549 714.432,739.51 714.432,739.75 714.911,740.47 715.871,741.91 716.111,742.39 
		716.591,742.63 717.552,743.59 717.552,744.311 717.552,745.511 718.271,746.471 719.231,747.431 719.231,748.15 719.231,750.07 
		719.231,751.031 719.711,752.471 720.19,754.151 720.431,755.352 722.11,757.031 722.59,757.511 723.551,758.231 724.511,758.952 
		727.149,760.152 728.109,760.632 729.309,760.872 729.549,762.552 729.789,762.792 730.269,763.271 730.509,763.512 
		731.709,764.712 732.429,764.712 733.148,764.231 734.108,763.512 734.588,763.031 734.588,762.792 734.828,761.832 
		734.828,761.111 734.348,760.632 734.108,759.672 732.908,757.991 733.148,757.511 733.389,756.071 734.348,755.111 
		734.828,754.631 735.788,753.671 736.988,751.511 738.188,751.271 738.428,751.271 739.387,751.031 740.348,750.07 
		741.547,749.591 742.267,749.591 743.227,750.07 743.946,750.311 745.146,750.79 745.386,751.271 745.626,751.271 745.866,751.271 
		748.025,751.031 750.186,750.79 750.665,751.271 751.386,751.751 752.345,751.751 754.024,751.271 754.504,751.511 
		756.424,752.231 756.904,752.711 756.904,753.191 757.624,753.432 758.584,752.711 759.783,751.751 760.023,751.751 
		760.743,752.231 761.703,752.951 762.423,753.432 764.103,754.151 766.022,754.871 767.223,753.191 767.462,752.951 
		767.702,751.99 768.182,751.031 768.182,750.311 767.941,746.471 768.422,745.75 768.662,745.511 771.062,745.511 771.302,745.03 
		771.302,744.79 771.302,744.311 771.302,743.83 771.541,743.59 771.781,743.59 772.981,742.63 773.221,742.39 775.381,742.15 
		776.101,742.15 776.581,742.39 777.54,742.87 777.78,743.59 777.54,744.311 778.02,744.79 780.9,745.75 781.14,745.75 
		782.34,744.79 784.499,745.03 784.979,745.511 785.219,746.23 786.658,746.95 787.139,746.95 787.378,746.71 787.619,745.99 
		788.578,745.511 789.538,745.27 790.019,745.27 790.498,745.511 791.698,745.75 791.938,745.03 791.938,744.551 792.178,744.069 
		793.377,744.551 794.817,745.27 796.018,745.03 796.736,744.551 797.217,744.311 798.177,743.59 798.177,743.11 798.416,742.87 
		800.336,742.87 801.536,742.87 802.256,742.39 802.735,742.15 803.936,742.15 804.415,742.63 804.896,743.59 805.615,744.551 
		806.095,745.99 807.055,746.95 807.775,747.67 808.734,747.431 808.975,746.95 811.614,745.511 812.094,745.27 812.334,745.03 
		813.294,744.311 814.014,744.069 814.494,743.83 815.213,743.83 815.453,743.83 815.933,743.11 816.413,742.15 817.613,742.15 
		817.854,742.15 820.013,742.63 820.973,742.63 821.213,742.87 822.652,743.11 822.893,743.11 823.853,742.63 824.572,741.67 
		825.052,741.67 826.011,741.91 826.731,742.39 827.211,742.39 827.932,742.15 829.61,742.87 830.091,743.35 831.29,743.83 
		833.45,743.59 833.689,743.35 833.689,742.39 833.21,742.15 832.011,741.67 831.051,740.71 829.851,739.27 829.37,738.069 
		829.37,737.83 829.37,737.109 829.61,736.149 830.57,734.229 830.811,733.989 831.53,733.029 831.771,732.549 832.25,731.828 
		832.97,730.869 832.97,730.629 833.21,729.429 832.49,728.948 832.011,728.469 831.771,727.269 831.53,727.269 831.771,726.788 
		832.011,726.309 832.25,726.309 833.21,725.828 834.41,725.348 834.89,725.107 835.369,725.107 835.369,724.868 836.09,725.107 
		836.569,725.588 837.29,725.828 838.249,724.628 838.489,723.908 838.489,722.468 838.249,722.228 838.489,721.508 
		839.209,721.268 839.689,721.508 839.929,721.748 840.648,722.468 840.648,722.948 841.369,724.147 842.088,724.147 	"/>
	
		<polyline clip-path="url(#SVGID_2_)" fill="none" stroke="#B37C34" stroke-width="0.4799" stroke-linecap="round" stroke-linejoin="round" stroke-miterlimit="3.85" points="
		842.088,724.147 842.568,723.908 843.769,724.389 845.928,726.548 847.127,728.469 847.367,728.948 847.607,729.188 
		848.088,729.909 847.607,731.349 848.567,731.828 849.287,731.828 849.768,732.549 851.447,734.469 851.447,734.949 
		850.967,736.149 851.207,738.31 851.687,738.79 853.366,739.27 854.326,739.75 854.807,740.229 855.046,740.71 855.286,741.67 
		856.006,742.15 856.485,742.39 857.686,743.35 858.165,745.27 858.886,746.95 859.365,747.67 860.325,747.91 861.045,748.15 
		861.525,748.391 861.765,748.391 862.005,748.631 863.924,749.351 864.404,749.351 864.885,749.351 865.124,753.191 
		865.124,753.432 865.364,759.672 865.364,761.832 865.844,772.633 866.324,784.874 866.324,785.594 866.324,786.074 
		866.324,786.555 866.324,787.515 866.564,791.835 866.564,792.074 866.564,796.396 866.804,798.315 867.044,800.235 
		867.044,800.956 867.283,807.916 867.523,812.717 867.523,816.798 867.523,817.518 867.764,820.878 867.764,821.598 
		867.764,823.998 868.004,826.639 868.004,826.878 868.004,827.119 868.004,830.719 868.004,830.959 868.244,831.198 
		868.244,831.439 868.244,833.599 868.244,835.52 868.483,837.439 868.963,849.921 869.684,869.123 869.923,880.884 
		870.163,881.604 870.163,882.084 870.163,882.564 870.163,883.284 870.163,883.524 870.163,883.765 870.163,886.885 
		870.403,892.165 870.403,894.325 870.643,894.565 870.643,894.806 870.643,895.525 870.643,896.006 870.643,896.966 
		870.643,897.445 870.643,898.646 870.643,898.886 870.643,899.126 870.643,899.365 870.643,899.606 870.643,899.846 
		870.883,903.446 870.883,904.166 870.883,904.886 870.883,905.366 870.883,906.566 871.123,914.487 871.363,916.407 
		871.604,925.769 871.844,930.329 871.844,930.568 872.083,937.05 872.083,938.01 872.083,942.09 872.083,944.73 872.323,951.932 
		872.323,952.891 872.323,953.371 872.563,956.492 872.803,963.452 872.803,968.973 873.043,975.934 873.283,982.895 
		873.522,984.814 873.522,986.015 873.522,989.615 873.522,990.335 873.763,992.256 873.763,995.615 874.242,1004.736 
		871.844,1004.977 870.163,1004.977 866.324,1004.977 860.805,1005.217 853.127,1005.456 850.967,1005.697 849.048,1005.697 
		846.407,1005.697 845.688,1005.697 845.448,1005.697 844.968,1005.697 841.369,1005.937 838.729,1006.177 823.853,1006.656 
		820.732,1006.656 820.013,1006.656 815.213,1006.897 814.494,1006.897 813.294,1006.897 811.854,1006.897 810.414,1006.897 
		808.734,1007.137 807.295,1007.137 805.855,1007.137 805.375,1007.137 805.136,1007.137 802.735,1007.137 802.495,1007.137 
		799.856,1007.377 798.656,1007.377 797.697,1007.377 792.418,1007.617 788.099,1007.617 787.378,1007.617 785.939,1007.377 
		783.299,1007.377 782.58,1007.377 782.34,1007.377 782.1,1007.377 780.42,1007.377 772.741,1007.617 771.062,1007.617 
		766.742,1007.617 766.022,1007.617 761.943,1007.856 761.703,1007.856 750.905,1008.097 746.106,1008.097 740.107,1008.337 
		736.748,1008.337 732.908,1008.337 731.229,1008.337 730.749,1008.337 725.47,1008.577 723.79,1008.577 723.311,1008.577 
		709.152,1008.817 704.594,1009.057 697.635,1009.297 696.195,1009.297 693.315,1009.297 692.836,1009.297 691.396,1009.297 
		690.677,1009.297 685.637,1009.537 685.157,1009.537 673.879,1009.777 670.279,1009.777 665.961,1010.018 665.001,1010.018 
		662.602,1010.018 660.441,1010.018 657.322,1010.018 655.643,1010.018 655.162,1010.018 654.443,1010.018 647.244,1009.537 
		643.645,1009.537 643.165,1009.537 641.965,1009.537 638.606,1009.537 625.168,1009.537 616.29,1009.297 610.771,1009.297 
		608.371,1009.297 600.693,1009.297 595.414,1009.057 591.334,1008.817 584.855,1008.337 584.616,1008.337 582.936,1008.337 
		581.976,1008.337 581.256,1008.337 580.057,1008.337 579.336,1008.337 577.657,1008.577 576.457,1008.577 571.898,1008.577 
		570.698,1008.577 567.339,1008.817 566.859,1008.817 551.262,1008.577 550.542,1008.577 550.302,1008.577 545.983,1008.577 
		545.743,1008.577 543.583,1008.337 542.624,1008.337 541.903,1008.337 524.626,1008.097 522.467,1007.856 522.227,1007.856 
		521.747,1007.856 515.269,1007.856 513.589,1007.856 502.791,1007.617 502.071,1007.377 501.591,1007.377 499.671,1007.377 
		493.912,1007.137 491.993,1007.137 491.513,1007.377 490.553,1007.377 489.833,1007.377 480.475,1007.137 480.235,1006.897 
		472.076,1006.897 467.277,1006.656 467.037,1006.656 464.397,1006.656 463.678,1006.656 457.199,1006.416 455.759,1006.416 
		455.52,1006.416 454.319,1006.416 453.6,1006.416 452.4,1006.177 448.081,1006.177 447.601,1006.177 444.721,1005.937 
		418.326,1004.977 415.207,1004.977 414.487,1004.736 413.767,1004.736 414.247,992.495 414.247,991.056 414.487,987.936 
		414.487,987.455 414.967,972.573 414.967,971.133 415.207,967.772 415.207,965.613 415.926,947.61 416.167,940.17 416.167,939.931 
		416.887,921.448 417.606,898.886 417.846,892.886 418.566,875.363 418.566,872.482 418.566,871.283 418.806,863.362 
		419.046,856.161 419.286,852.081 419.526,843.2 419.766,842.24 419.766,841.76 419.766,840.08 419.766,839.84 419.766,839.6 
		419.766,839.36 419.766,838.399 419.766,837.68 419.766,837.439 419.766,836.96 419.766,836.239 420.006,832.879 420.006,831.679 
		420.006,831.198 420.006,830.959 420.006,829.759 420.246,828.559 420.246,827.599 420.246,825.919 420.246,825.678 
		420.246,822.798 420.486,821.118 420.486,818.238 420.486,817.998 420.486,817.518 420.486,816.317 420.726,815.838 
		420.726,815.598 420.726,815.357 420.966,814.637 421.446,813.437 421.446,813.197 421.686,812.717 421.925,812.478 
		422.166,812.478 422.405,812.478 422.646,812.236 422.885,812.236 423.365,812.478 423.605,812.236 423.845,812.236 
		424.085,811.997 424.325,811.036 424.325,810.797 424.565,809.356 424.565,809.117 424.565,808.637 424.565,808.156 
		424.565,807.916 425.285,806.956 425.525,806.717 425.765,806.477 425.765,805.756 425.765,805.276 425.765,804.076 
		425.765,803.356 425.525,802.876 425.285,802.876 425.285,802.636 425.285,802.396 425.285,802.156 425.285,801.916 
		425.285,801.676 425.765,801.676 426.245,801.195 427.205,799.996 427.444,799.756 427.444,799.516 427.685,798.795 
		427.924,798.315 427.924,797.355 427.924,797.115 428.164,796.396 428.164,795.915 427.924,795.436 427.685,794.715 
		427.205,794.235 426.725,793.995 425.525,793.275 425.285,792.795 425.285,792.314 425.285,791.835 425.285,791.355 
		425.285,789.915 425.285,789.675 425.285,789.435 425.525,789.194 425.765,789.194 426.005,788.955 426.725,788.955 
		427.685,788.715 427.924,788.715 428.164,788.475 428.644,788.234 428.884,787.515 429.124,787.274 429.844,785.594 
		430.084,785.114 431.524,782.714 431.764,782.234 431.764,781.994 431.764,780.794 431.284,780.313 431.044,780.073 
		429.604,778.634 428.884,778.394 428.404,778.394 427.924,778.634 426.484,778.394 426.005,777.914 426.005,776.953 
		426.005,775.033 426.245,774.313 426.245,774.073 426.245,773.833 426.005,773.593 426.005,773.353 425.525,773.113 
		425.045,772.873 424.085,772.873 422.885,772.873 422.646,772.873 422.405,772.633 422.166,772.633 421.925,772.633 
		421.446,772.633 420.966,773.113 420.726,774.313 420.726,774.553 420.486,774.553 420.246,774.553 420.006,774.313 
		419.766,773.593 419.286,772.873 419.046,772.873 418.566,772.394 418.326,772.394 417.606,771.433 417.606,771.193 
		417.366,770.232 417.366,769.993 416.887,769.513 416.646,769.272 416.646,769.033 416.407,769.033 415.926,769.033 
		415.687,769.033 415.446,769.272 415.207,769.272 414.487,769.993 414.487,770.232 414.487,770.713 414.247,770.713 
		414.007,771.193 413.527,771.193 412.567,771.193 411.607,771.193 409.928,769.752 409.688,769.513 408.248,767.832 
		407.768,766.873 408.008,766.632 408.248,765.912 408.488,765.673 409.208,765.432 409.448,765.432 410.167,763.752 
		410.408,763.752 410.408,763.271 410.408,763.031 409.928,762.072 409.928,761.832 409.208,761.111 408.968,760.872 
		408.488,760.392 407.768,759.672 407.288,758.952 406.808,757.271 406.808,756.552 407.288,756.312 408.008,755.831 
		408.008,755.592 408.728,754.151 408.968,753.671 408.968,751.511 408.968,750.79 408.968,750.311 408.728,749.11 408.488,748.631 
		408.488,748.391 408.248,748.391 408.248,748.15 408.488,748.15 408.488,747.91 408.488,747.67 408.728,747.67 409.208,747.431 
		409.448,747.67 409.688,747.67 410.408,746.95 410.888,746.23 410.888,745.75 411.127,745.511 411.127,745.03 411.127,744.79 
		411.607,744.069 411.847,743.83 412.807,743.83 413.287,743.59 414.007,742.87 414.247,742.39 414.727,741.43 414.727,740.47 
		414.487,739.75 414.487,739.51 414.727,739.27 414.967,738.79 415.207,738.79 415.446,738.549 416.167,737.83 416.167,737.59 
		416.167,736.629 416.646,734.949 416.646,734.469 416.887,733.989 417.126,733.509 417.606,733.269 418.326,731.828 
		418.806,730.629 418.566,730.148 418.806,729.429 419.046,728.948 419.766,727.508 420.006,727.508 420.006,727.269 
		420.006,726.548 420.486,725.828 421.206,725.348 421.446,725.107 421.446,723.668 421.446,722.948 422.646,721.508 
		422.885,721.268 423.365,721.027 425.045,720.067 425.285,720.067 425.765,720.308 426.245,720.067 426.725,719.827 
		426.964,719.827 427.205,719.588 427.685,719.107 428.164,718.627 428.404,718.387 428.644,718.387 429.844,718.147 
		430.804,717.668 431.044,717.427 431.284,717.188 431.284,716.947 431.284,716.707 431.284,716.468 431.044,716.228 
		431.044,715.987 431.284,715.268 431.524,715.027 432.244,714.307 433.443,712.387 433.443,711.906 433.683,711.666 
		434.163,710.947 435.123,709.986 436.323,708.787 437.042,707.826 437.522,707.106 437.522,706.386 438.002,705.186 
		438.243,704.227 438.722,703.266 438.962,702.785 439.202,702.546 439.202,702.306 438.962,701.586 438.002,700.386 
		437.763,699.665 437.283,697.745 437.283,697.506 437.522,697.025 438.243,695.346 438.482,695.346 438.482,693.905 
		438.482,693.425 438.243,693.186 438.722,692.225 439.682,691.744 439.922,691.505 441.362,690.305 442.082,689.344 
		443.042,687.904 443.282,687.664 443.282,687.424 443.282,686.465 443.282,685.984 443.282,685.744 444.001,684.784 
		445.441,683.823 447.121,681.184 447.361,680.943 447.361,680.703 447.841,679.023 447.841,678.063 449.041,674.703 
		449.041,674.463 449.041,673.263 449.041,673.022 449.521,671.103 450.24,669.423 450.48,668.463 450.96,668.223 451.44,667.982 
		451.68,667.502 451.92,667.262 451.92,666.542 452.16,666.062 452.16,665.103 451.92,663.422 452.16,662.702 453.6,659.581 
		454.56,657.901 455.759,655.981 456.239,654.781 456.719,654.541 457.919,653.341 458.399,651.9 458.639,650.46 458.639,650.221 
		459.119,649.74 459.599,649.261 460.559,648.541 461.278,648.3 461.278,647.34 461.038,646.62 461.038,646.38 461.278,644.7 
		461.758,643.5 462.238,643.02 462.718,642.06 463.678,639.659 464.397,638.699 465.357,637.739 465.598,637.499 466.317,637.019 
		466.797,636.779 466.797,636.539 467.997,634.379 468.237,634.139 468.237,632.699 468.237,632.458 467.757,632.219 
		467.757,631.739 467.277,631.019 467.037,630.539 467.037,630.298 467.037,630.059 466.557,629.098 466.317,628.858 
		466.077,628.618 464.877,626.938 464.158,626.218 463.918,625.738 463.438,624.778 463.198,624.298 463.198,622.377 
		463.438,620.458 463.438,619.978 462.958,619.017 462.718,618.537 462.478,618.297 462.238,618.297 461.758,618.057 
		460.559,616.857 459.358,615.657 458.639,615.417 456.719,614.937 456.479,614.937 455.999,615.177 455.52,615.417 454.56,615.417 
		454.319,615.177 453.12,613.977 453.12,613.737 452.64,612.537 452.16,611.097 451.92,611.097 451.2,610.616 451.2,610.376 
		450.96,610.376 450.72,610.376 449.28,610.376 449.041,610.376 449.041,610.616 448.8,610.616 448.561,610.856 448.321,611.097 
		448.081,611.097 447.841,611.336 447.601,611.336 447.361,611.336 445.921,610.376 445.441,609.656 445.441,609.417 
		445.441,609.176 445.681,608.696 445.681,608.456 445.441,607.736 445.201,607.256 444.961,606.776 443.761,604.856 
		443.521,604.616 442.802,603.896 441.842,603.176 440.882,601.976 440.642,601.735 440.402,601.255 440.162,600.775 
		439.922,600.055 439.682,598.135 439.682,597.655 438.962,596.215 438.482,594.775 437.283,593.095 437.042,592.375 
		436.803,592.375 436.803,591.895 436.563,589.974 436.083,587.814 435.363,585.654 434.883,584.934 434.163,583.974 
		433.923,583.974 433.443,583.974 432.724,583.494 432.724,583.254 432.483,583.014 432.483,582.534 432.483,582.293 
		432.724,581.813 432.963,581.813 433.204,581.813 434.163,581.573 434.403,581.333 434.883,580.374 434.883,579.653 
		434.883,579.173 435.123,578.933 435.123,578.693 436.083,577.253 437.042,575.333 437.283,574.853 437.283,574.613 
		437.042,574.373 435.843,572.692 435.363,572.212 435.123,571.973 434.403,571.252 434.163,570.772 434.163,570.292 
		434.643,569.092 434.883,568.612 435.123,567.892 434.883,566.692 434.403,565.732 434.403,565.492 434.403,565.252 
		434.163,564.772 433.923,564.532 433.683,564.292 432.963,563.572 432.724,563.092 432.724,562.852 433.204,561.892 
		433.204,561.412 432.963,561.171 432.724,560.932 432.483,560.451 432.244,560.451 432.003,560.451 432.003,560.211 
		431.524,560.211 431.044,559.491 430.564,559.251 430.564,558.771 430.564,558.531 430.564,558.051 430.564,557.571 
		430.564,557.091 430.564,556.851 430.324,556.611 430.084,556.371 429.844,556.371 429.604,556.371 428.884,556.131 
		428.644,556.131 428.404,556.131 428.404,555.891 428.164,555.891 428.164,555.651 427.924,555.651 427.924,555.411 
		427.685,555.171 427.685,554.931 427.924,553.73 427.924,553.491 428.164,553.25 428.644,552.771 428.884,552.771 429.124,552.291 
		429.364,551.57 429.364,551.09 429.364,550.851 429.604,550.61 429.604,550.37 429.844,549.65 429.844,549.41 430.084,549.17 
		430.084,548.45 430.084,548.21 429.844,547.97 429.844,547.73 429.844,547.25 429.844,546.77 429.844,546.05 429.844,544.37 
		429.844,543.89 429.844,543.169 429.844,542.93 430.084,535.729 430.324,530.928 430.564,527.568 430.804,521.567 430.804,519.167 
		430.804,517.487 431.044,517.007 431.044,516.047 431.044,515.567 431.044,512.446 431.044,511.727 431.284,507.406 
		431.284,506.206 431.524,502.605 431.524,501.405 431.764,497.325 431.764,492.044 432.003,491.804 432.003,490.844 
		432.003,486.284 432.244,483.403 432.483,479.083 432.483,478.843 432.483,475.243 432.483,474.522 432.724,472.362 
		432.724,469.482 432.724,467.322 432.963,464.922 432.963,463.722 432.963,463.481 432.963,461.562 433.443,453.88 433.443,452.44 
		433.443,450.52 433.443,449.56 433.683,447.16 433.683,445.72 433.683,443.319 433.923,440.439 433.923,438.999 434.163,434.438 
		434.163,434.198 434.163,433.718 434.163,433.238 434.163,430.598 434.163,428.918 434.163,428.438 434.403,427.958 
		434.403,426.518 434.403,425.078 434.403,423.877 434.643,418.357 434.643,418.117 434.643,417.637 434.643,416.437 
		434.643,416.197 434.643,415.957 434.643,415.717 434.643,415.237 434.883,413.557 434.883,412.356 434.883,411.396 
		434.883,409.716 434.883,409.236 434.883,408.996 435.123,407.796 435.123,403.235 435.123,402.996 435.123,402.275 
		435.123,401.795 435.123,401.555 435.363,399.395 435.363,398.675 435.363,397.955 435.363,397.715 435.363,397.475 
		435.363,396.995 435.363,396.755 435.603,392.674 435.843,388.354 435.843,387.394 	"/>
</g>
</svg>
