<?xml version="1.0" encoding="utf-8"?>
<!-- Generator: Adobe Illustrator 15.1.0, SVG Export Plug-In . SVG Version: 6.00 Build 0)  -->
<!DOCTYPE svg PUBLIC "-//W3C//DTD SVG 1.1//EN" "http://www.w3.org/Graphics/SVG/1.1/DTD/svg11.dtd">
<svg version="1.1" id="State" xmlns="http://www.w3.org/2000/svg" xmlns:xlink="http://www.w3.org/1999/xlink" x="0px" y="0px"
	 width="1296px" height="1296px" viewBox="0 0 1296 1296" enable-background="new 0 0 1296 1296" xml:space="preserve">
<g>
	<defs>
		<rect id="SVGID_1_" x="349.219" y="266.421" width="598.45" height="770.958"/>
	</defs>
	<clipPath id="SVGID_2_">
		<use xlink:href="#SVGID_1_"  overflow="visible"/>
	</clipPath>
	
		<polyline clip-path="url(#SVGID_2_)" fill="none" stroke="#B37C34" stroke-width="0.4799" stroke-linecap="round" stroke-linejoin="round" stroke-miterlimit="3.85" points="
		433.204,585.414 432.963,584.694 432.963,584.214 432.963,583.254 433.204,582.054 433.443,581.093 433.204,580.854 
		433.204,580.613 433.204,580.133 433.443,579.653 433.683,579.173 433.923,579.173 433.923,578.933 434.163,578.933 
		434.163,578.693 434.883,577.493 434.883,577.013 434.883,576.773 434.643,576.053 434.643,575.333 434.643,574.853 
		434.643,574.373 434.883,574.373 434.883,574.133 434.883,573.893 435.123,573.413 435.363,572.933 436.803,569.572 
		437.042,569.092 437.283,567.652 437.522,567.412 438.002,566.212 438.482,565.492 438.962,564.772 438.962,564.532 
		439.202,564.532 439.442,564.052 439.442,563.812 439.682,563.572 440.402,563.092 440.882,562.852 441.362,562.611 
		441.602,562.372 442.082,561.892 442.322,561.651 442.802,561.171 443.042,560.932 444.241,560.932 444.721,560.932 
		444.961,560.932 445.201,560.691 445.441,560.691 445.681,560.691 446.161,560.451 446.641,559.971 446.881,559.731 
		447.121,558.771 447.121,558.531 447.121,558.291 447.121,558.051 447.121,557.811 447.361,557.091 447.121,556.371 
		447.121,556.131 446.641,555.171 446.641,554.691 446.641,554.451 446.401,554.211 446.401,553.971 446.401,553.73 
		446.401,553.491 446.401,553.011 446.401,552.53 446.401,552.291 446.401,551.811 446.641,551.57 446.641,551.09 446.881,550.61 
		447.121,550.13 447.361,549.65 447.841,548.69 447.841,548.45 448.081,547.49 448.321,546.53 448.321,546.05 448.321,545.81 
		448.321,545.33 448.081,544.37 447.841,544.13 447.841,543.89 447.841,543.649 446.881,542.209 446.401,541.489 446.161,541.009 
		445.921,540.77 445.201,540.529 444.481,540.289 444.241,540.049 444.001,539.569 444.001,538.849 444.001,538.129 
		444.241,537.889 444.481,537.169 445.921,535.969 446.641,535.489 446.881,535.249 447.361,534.049 448.081,532.849 
		448.321,532.369 448.8,531.648 449.521,531.168 449.521,530.928 450,530.448 450.72,530.208 450.96,529.968 451.68,529.728 
		452.64,529.248 454.08,528.528 454.319,528.528 454.319,528.288 454.56,528.288 455.04,528.288 455.279,528.048 457.439,527.568 
		458.399,527.568 458.639,527.328 459.119,527.088 459.358,527.088 459.599,527.088 459.599,526.848 459.838,526.848 
		460.318,526.848 462.478,526.848 463.438,526.848 465.598,527.088 465.837,527.088 466.077,527.088 466.317,527.088 
		466.557,527.088 466.797,527.088 469.437,525.168 469.917,524.928 471.596,523.968 473.036,522.768 473.276,522.527 
		473.516,522.288 473.516,522.047 473.996,519.887 474.476,519.167 474.476,518.207 474.476,517.487 474.236,516.047 
		474.236,515.807 473.996,515.327 474.236,514.606 474.716,512.687 474.956,511.966 475.196,511.486 475.436,511.006 
		475.916,510.286 476.155,509.806 476.396,509.086 476.396,508.846 476.635,508.366 476.635,508.126 476.635,507.886 
		476.635,507.166 476.635,506.686 476.635,506.446 476.635,506.206 476.396,505.966 476.396,505.486 476.155,505.006 
		476.155,504.766 475.916,504.525 476.155,504.045 476.155,503.806 476.155,503.565 476.396,502.605 476.635,502.365 
		476.635,502.125 476.875,501.885 478.075,500.925 479.275,499.725 479.995,499.005 480.235,498.765 480.955,497.565 
		481.195,496.605 481.435,496.125 481.674,495.885 481.915,495.645 482.154,495.405 482.395,495.165 483.354,494.685 
		483.834,493.965 484.314,493.245 484.554,492.765 484.794,492.524 484.794,492.284 485.034,492.044 485.034,491.804 
		485.514,491.564 485.754,491.324 485.754,491.084 485.994,491.084 486.234,490.844 487.673,490.364 488.153,489.884 
		489.353,489.404 489.593,489.164 489.833,488.684 490.313,487.004 490.553,486.044 490.793,485.083 491.033,484.604 
		491.033,484.124 491.033,483.644 490.793,482.684 490.553,481.723 490.553,481.243 490.793,480.283 491.273,479.083 
		491.752,477.643 491.752,476.923 491.752,475.963 491.993,474.522 492.232,473.803 492.232,473.322 491.993,472.123 
		491.993,471.402 491.752,470.202 491.513,469.002 491.513,468.762 491.513,467.082 491.752,467.082 491.752,465.882 
		491.752,465.642 491.513,465.162 491.273,464.682 490.793,463.481 490.313,463.001 489.833,462.521 489.353,461.081 
		488.633,459.881 488.393,459.641 488.393,459.401 488.153,458.921 488.153,458.681 487.914,458.441 487.673,457.721 
		487.434,457.481 487.193,457.241 486.954,457.001 486.713,456.521 486.234,456.281 485.754,456.281 485.754,456.041 
		485.514,456.041 485.274,456.281 485.034,456.281 483.594,456.521 483.354,456.521 482.154,456.041 480.955,453.4 480.715,452.92 
		480.475,452.68 479.755,451.72 479.035,450.52 478.315,449.56 477.115,448.36 476.396,447.4 475.436,446.68 475.196,446.2 
		474.956,445.96 474.956,445.24 474.956,444.76 475.436,444.04 475.916,443.08 476.396,442.359 477.115,439.959 477.355,439.719 
		477.835,438.759 478.795,437.799 479.035,437.319 479.275,436.359 479.275,433.718 479.275,433.479 479.515,432.758 
		479.755,430.118 479.995,429.398 479.995,429.158 479.995,428.918 480.235,428.918 480.475,428.198 480.955,427.478 
		481.435,426.758 481.674,426.278 481.674,425.798 481.674,424.598 481.674,424.117 481.915,423.397 481.915,423.157 
		482.154,422.677 482.395,422.438 482.875,422.197 483.114,421.958 483.354,421.958 484.074,421.477 484.554,421.477 
		485.514,421.237 485.754,421.237 486.234,421.237 487.673,420.517 487.914,420.517 488.393,420.277 488.633,420.037 
		488.873,420.037 489.113,420.037 489.353,420.277 490.073,420.757 491.513,421.477 491.993,421.477 493.912,421.958 
		494.152,421.958 494.392,421.717 494.872,421.237 496.072,420.997 496.792,420.757 496.792,420.517 497.032,420.517 
		497.751,420.037 497.992,420.037 498.951,419.317 499.671,418.837 499.911,418.597 500.151,418.357 500.871,418.117 
		501.111,417.877 501.351,417.637 501.591,417.637 502.311,417.396 502.551,417.396 503.031,417.396 503.271,417.396 
		503.511,417.396 504.47,417.637 504.71,417.637 506.39,417.637 508.55,417.877 509.029,417.877 509.27,418.117 509.75,418.117 
		509.989,418.117 512.149,418.357 513.349,418.117 514.789,417.877 516.948,417.637 518.148,417.396 519.587,416.677 
		520.308,416.917 520.547,416.917 521.747,416.677 522.227,416.197 523.187,415.237 523.907,414.517 524.146,414.276 
		525.347,413.557 526.546,412.596 526.786,412.356 526.786,411.876 527.026,410.676 527.746,410.196 527.746,409.956 
		528.226,409.956 528.466,409.716 528.706,409.716 529.186,409.476 529.666,409.476 530.146,409.476 530.625,409.236 
		531.585,408.516 531.825,408.276 532.785,408.276 533.265,408.036 533.745,408.276 533.985,408.276 536.145,408.996 
		537.104,409.236 537.344,409.236 537.584,409.236 538.544,409.236 539.744,408.996 539.984,408.996 541.423,408.516 
		542.383,407.556 542.624,407.076 542.863,406.836 543.103,406.596 543.583,405.636 544.063,405.155 544.303,404.916 
		544.783,404.676 545.023,404.436 545.263,404.436 545.503,403.955 545.983,403.235 546.223,402.996 546.223,402.755 
		546.942,402.515 547.663,402.035 549.342,401.315 549.582,401.315 550.542,401.075 551.262,400.835 552.461,400.355 
		553.182,399.875 553.421,399.395 553.421,399.155 553.661,398.675 553.661,398.435 553.661,396.755 553.421,396.275 
		553.421,395.314 553.182,392.674 553.182,392.194 553.182,391.954 553.421,391.714 553.661,390.754 553.661,390.514 
		553.901,389.554 554.141,388.834 554.141,388.114 554.141,387.634 554.141,387.394 554.381,387.394 554.381,387.154 
		554.621,386.914 555.581,386.193 555.821,385.954 556.061,385.954 556.061,385.474 556.301,385.474 556.301,385.233 
		556.301,384.993 556.301,384.753 556.301,384.514 556.301,384.273 556.301,383.793 556.301,383.553 555.821,382.354 
		555.821,381.633 556.061,380.913 556.061,380.193 556.541,379.233 556.541,378.993 557.5,378.033 559.66,375.873 559.9,375.633 
		561.34,375.152 561.82,374.672 562.78,374.192 562.78,373.952 563.5,373.712 565.419,372.272 566.139,372.032 566.619,371.792 
		566.859,371.792 567.099,371.552 567.339,371.552 569.019,370.832 569.499,370.352 569.738,370.112 569.738,369.632 
		569.499,368.192 569.499,367.472 569.258,366.992 569.258,366.512 569.499,366.512 569.499,366.271 569.499,365.552 
		569.499,365.312 569.738,365.071 569.979,364.832 569.979,364.591 570.218,364.111 570.458,363.631 570.458,362.671 
		570.458,362.431 570.458,362.191 570.698,361.951 570.698,361.711 570.698,360.991 570.938,360.751 571.178,360.271 
		571.178,360.031 572.138,358.111 572.378,357.15 572.378,356.911 572.378,356.671 572.378,355.71 572.618,354.03 572.618,353.791 
		572.618,353.55 572.378,353.07 572.138,352.83 571.658,352.35 571.418,351.87 571.178,351.39 571.418,350.43 571.658,349.71 
		571.898,348.75 572.378,348.03 572.858,347.31 573.098,347.07 573.098,346.109 573.817,344.909 573.817,343.949 573.578,343.229 
		573.578,342.75 573.338,342.509 573.338,342.269 573.098,342.269 573.098,341.789 572.858,341.789 572.858,341.549 
		572.858,341.309 572.858,340.829 572.618,340.589 572.618,340.349 572.378,340.109 571.898,339.389 571.418,338.909 
		571.178,337.709 571.178,336.988 571.178,336.029 571.178,335.789 570.938,334.349 571.418,332.668 571.418,332.428 
		571.418,331.948 571.658,331.708 571.658,331.228 571.658,330.748 571.658,330.268 571.658,330.028 571.658,329.788 
		571.658,329.068 571.418,328.828 571.178,328.108 570.938,328.108 570.698,327.628 569.019,327.628 568.778,327.628 
		568.299,327.388 568.059,327.147 567.579,326.908 567.339,325.708 567.099,324.987 567.099,324.507 566.859,324.268 
		566.859,324.027 566.139,323.307 565.419,322.827 564.219,322.107 562.78,321.387 562.3,321.387 560.86,320.907 559.66,320.427 
		558.221,319.467 557.98,319.227 557.5,318.987 557.021,318.747 556.061,318.507 554.861,317.307 553.901,317.067 551.981,316.827 
		551.742,316.586 551.262,316.106 550.302,315.626 548.622,314.187 548.382,313.706 548.382,313.466 548.143,312.986 
		547.663,312.266 546.703,311.066 546.223,310.586 545.983,310.346 545.983,310.106 545.503,309.386 545.503,308.666 
		545.263,308.186 544.783,306.985 544.783,306.266 544.783,305.785 545.023,305.306 545.263,305.306 545.263,305.065 
		545.503,304.825 545.503,304.105 545.743,303.385 545.743,302.425 545.743,301.945 545.743,301.705 546.223,301.465 
		546.223,301.225 546.223,300.985 546.223,300.745 545.983,300.265 545.743,300.025 545.263,299.785 545.023,299.305 
		544.783,299.064 543.823,297.145 543.583,296.665 543.343,296.665 543.343,296.425 543.103,296.425 542.624,296.185 
		541.903,295.464 541.664,294.984 541.423,294.984 541.423,294.745 540.944,294.024 540.944,293.784 540.944,293.544 
		540.464,293.064 540.224,292.824 539.744,292.584 539.504,292.584 539.264,292.584 538.784,292.344 538.304,291.624 
		537.824,291.144 537.584,291.144 537.584,290.904 537.104,290.664 536.145,290.184 533.025,288.744 532.305,288.504 
		532.065,288.024 532.065,287.784 532.065,286.824 531.825,286.104 531.345,285.383 531.105,285.144 530.866,284.903 
		529.666,284.663 529.426,284.423 528.946,284.183 527.266,283.703 525.586,282.743 523.907,281.303 523.427,280.823 
		522.707,279.863 522.467,279.383 522.467,278.423 522.467,278.183 523.187,277.462 523.907,276.022 524.146,276.022 
		524.387,276.022 526.306,276.022 526.546,276.022 527.026,276.022 528.946,276.022 531.345,276.022 532.305,276.022 
		532.785,276.022 533.505,276.022 534.705,276.022 538.784,276.022 539.264,276.263 539.984,276.263 540.464,276.263 
		544.303,276.263 545.263,276.263 547.183,276.263 547.663,276.263 550.782,276.263 551.022,276.263 551.502,276.263 
		557.021,276.263 557.5,276.263 560.62,276.263 560.86,276.263 561.1,276.263 562.54,276.263 562.78,276.263 565.419,276.263 
		565.659,276.263 567.099,276.263 567.579,276.263 567.819,276.263 568.539,276.263 569.499,276.263 571.418,276.022 
		573.338,276.022 577.417,276.263 578.137,276.263 578.377,276.022 579.097,276.022 580.296,276.022 585.815,276.263 
		586.055,276.263 586.295,276.263 587.735,276.263 587.975,276.263 589.175,276.263 591.094,276.502 592.054,276.502 
		592.294,276.502 592.774,276.502 593.014,276.502 594.934,276.502 603.812,276.502 607.412,276.502 607.651,276.502 
		608.131,276.502 609.571,276.502 610.531,276.502 612.451,276.502 613.41,276.502 614.13,276.502 615.57,276.502 618.209,276.502 
		618.449,276.502 620.849,276.502 622.529,276.502 623.009,276.502 626.128,276.502 627.088,276.502 627.328,276.502 
		627.568,276.502 628.048,276.502 629.248,276.502 629.487,276.502 629.967,276.742 630.927,276.742 635.247,276.742 
		638.126,276.742 639.086,276.742 644.845,276.742 645.084,276.742 645.325,276.742 647.244,276.742 650.844,276.742 
		651.084,276.742 658.282,276.982 660.922,276.982 662.121,276.982 662.602,276.982 664.521,276.982 664.761,276.982 667.4,276.982 
		670.52,276.982 670.76,276.982 671.479,276.982 674.359,276.982 674.599,276.982 675.079,276.982 675.559,276.982 677.239,276.982 
		679.158,276.982 680.118,276.982 680.357,276.982 680.838,276.982 681.318,276.982 681.559,276.982 681.798,276.982 
		682.037,276.982 682.518,276.982 682.998,276.982 683.478,276.982 683.957,276.982 684.438,276.982 685.157,276.982 
		685.877,276.982 687.797,276.982 688.036,276.982 692.836,276.982 693.076,276.982 697.635,276.982 700.754,277.223 
		705.073,277.223 706.273,277.223 706.993,277.223 708.434,277.223 709.393,277.223 710.593,277.223 712.512,276.982 
		713.231,276.982 714.191,276.982 714.672,276.982 716.352,276.742 721.15,276.502 722.11,276.502 722.59,276.502 723.07,276.502 
		724.75,276.502 727.869,276.502 731.948,276.263 732.908,276.263 736.269,276.263 739.867,276.263 740.827,276.263 
		743.706,276.263 744.666,276.263 745.146,276.263 745.626,276.263 748.985,276.022 751.386,276.022 752.824,276.022 
		753.305,276.022 755.704,276.022 756.424,275.782 756.904,275.782 758.344,275.782 759.063,275.782 759.304,275.782 
		759.544,275.782 760.264,275.782 760.743,275.782 761.703,275.542 761.943,275.542 762.902,275.542 763.863,275.542 
		764.343,275.542 764.823,275.542 765.063,275.542 765.303,275.542 766.742,275.542 767.941,275.542 768.902,275.542 
		770.102,275.302 771.781,275.302 772.741,275.302 774.421,275.302 775.141,275.302 775.62,275.302 776.34,275.302 777.061,275.302 
		778.74,275.302 778.98,275.302 779.46,275.302 779.699,275.302 779.939,275.302 780.42,275.302 781.619,275.302 786.419,275.302 
		787.619,275.302 789.538,275.302 791.698,275.302 794.817,275.063 796.497,275.063 796.736,275.063 797.697,275.063 
		797.937,275.063 798.177,275.063 800.815,275.063 801.296,275.063 802.256,275.063 802.976,275.063 803.936,275.063 
		804.415,275.063 804.896,275.063 806.575,275.063 806.814,276.742 806.814,277.703 806.814,278.663 806.575,280.343 
		806.575,280.823 806.575,281.783 806.575,283.463 806.575,284.663 806.575,285.623 806.335,286.824 806.335,287.063 
		806.335,288.504 806.335,289.464 806.095,290.424 805.615,291.864 805.375,292.104 805.375,292.344 804.896,292.584 
		804.896,293.544 804.655,293.544 804.655,294.264 804.415,294.984 804.415,295.464 804.176,296.904 803.936,297.145 
		803.936,297.385 803.936,297.865 803.936,300.265 803.695,300.745 803.936,300.985 803.936,301.225 803.936,301.465 
		804.176,303.145 804.176,303.385 804.176,303.625 804.415,304.105 804.415,305.065 804.655,305.065 804.896,306.025 
		805.136,306.985 805.375,307.226 805.615,307.946 805.855,308.906 806.335,310.106 806.575,311.066 806.814,311.306 
		807.055,311.786 807.295,312.506 807.535,312.746 807.535,312.986 807.535,313.226 807.775,313.706 808.015,313.706 
		808.494,314.906 808.975,315.626 809.455,316.347 809.935,317.067 810.174,317.547 810.894,318.747 811.374,319.467 
		811.854,320.427 812.573,321.867 812.814,322.107 812.814,322.347 813.533,323.307 813.773,323.787 814.253,324.507 
		814.733,325.467 815.453,326.428 815.693,326.667 815.933,326.908 816.413,327.388 816.413,327.628 816.894,328.108 
		817.373,328.588 817.613,328.588 817.854,328.828 818.573,329.548 818.813,329.788 819.772,330.748 820.013,330.748 
		820.013,330.988 820.252,331.228 820.492,331.708 820.492,331.948 820.732,332.188 820.732,332.428 820.973,332.668 
		820.973,332.908 821.213,333.388 821.213,333.628 821.213,333.868 820.973,334.349 821.213,334.829 821.213,335.308 
		821.213,336.269 821.452,336.509 821.452,336.749 821.452,336.988 821.452,337.229 821.692,337.709 821.932,338.188 
		821.932,338.429 821.932,338.669 822.173,339.149 822.412,339.629 822.412,340.109 822.412,340.349 822.652,340.349 
		822.652,341.069 822.893,341.309 822.893,341.549 822.893,341.789 823.132,341.789 823.132,342.029 823.132,342.269 
		823.372,342.75 823.372,342.989 823.611,343.709 824.092,344.909 824.092,345.149 824.331,345.629 824.331,345.87 824.572,346.83 
		824.812,347.55 825.052,348.27 825.291,348.51 825.291,348.99 825.531,349.23 825.531,349.71 825.771,350.67 826.011,351.63 
		826.252,352.59 826.252,352.83 826.252,353.07 826.252,353.311 826.491,353.55 826.491,353.791 826.731,354.03 826.971,354.03 
		826.971,354.271 827.211,354.271 827.211,354.51 827.211,354.75 827.451,354.75 827.451,354.991 827.69,354.991 827.69,355.23 
		827.69,355.471 827.451,355.71 827.451,355.95 827.451,356.19 827.211,356.431 827.211,356.671 827.211,357.631 827.451,358.351 
		827.932,360.511 827.932,360.751 	"/>
	
		<polyline clip-path="url(#SVGID_2_)" fill="none" stroke="#B37C34" stroke-width="0.4799" stroke-linecap="round" stroke-linejoin="round" stroke-miterlimit="3.85" points="
		827.932,360.751 828.171,361.471 828.411,362.431 828.891,363.392 829.131,363.871 829.131,364.111 829.37,364.111 
		830.091,365.071 830.331,365.552 830.57,366.031 830.57,366.271 830.811,366.271 830.811,366.512 831.051,366.512 831.051,366.752 
		831.051,366.992 831.29,366.992 831.29,367.231 831.29,367.472 831.29,367.712 831.29,367.952 831.53,368.192 831.53,368.912 
		831.771,369.392 832.011,369.872 832.25,370.112 832.49,370.592 832.73,370.832 833.21,371.792 833.45,372.032 833.689,372.272 
		833.689,372.512 833.93,372.512 834.41,372.992 834.89,373.472 835.13,373.712 836.33,374.192 836.81,376.112 837.29,377.553 
		837.29,378.033 837.29,379.473 837.29,379.713 837.29,379.953 837.29,380.433 837.29,380.913 837.29,381.393 837.29,381.873 
		837.29,382.354 837.29,382.833 837.29,384.033 837.29,385.954 837.29,386.193 837.529,386.674 837.529,387.154 837.529,387.394 
		837.529,388.114 837.529,389.554 837.529,389.794 837.529,390.034 837.529,390.754 837.529,391.234 837.529,391.714 
		837.529,391.954 837.529,392.435 837.529,392.914 837.529,393.154 837.529,393.395 837.529,394.114 837.77,394.354 837.77,394.834 
		837.77,395.314 837.77,395.555 837.77,395.794 837.77,396.515 837.77,396.755 837.77,396.995 837.77,397.235 837.77,397.955 
		837.77,398.195 837.77,399.155 837.77,399.635 837.77,399.875 837.77,400.115 837.77,400.355 837.77,401.075 837.77,401.315 
		837.77,401.555 837.77,401.795 837.77,402.035 837.77,402.275 837.77,402.755 838.01,402.996 838.01,403.476 838.01,403.715 
		838.01,404.436 838.01,404.676 838.01,406.355 838.01,407.556 838.01,407.796 838.01,408.036 838.01,408.276 838.01,408.996 
		838.01,410.436 838.01,410.916 838.01,411.396 838.01,411.636 838.249,413.796 838.249,415.237 838.249,416.197 838.249,420.037 
		838.489,422.197 838.489,423.157 838.489,423.638 838.489,423.877 838.489,424.117 838.489,424.598 838.489,426.998 
		838.489,427.958 838.489,428.198 838.489,428.438 838.489,428.918 838.729,434.679 838.729,436.839 838.969,440.679 
		838.969,442.119 838.969,446.68 839.209,448.6 839.209,450.04 839.209,451 839.209,452.44 839.209,452.68 839.209,453.16 
		839.209,453.4 839.209,454.121 839.209,454.841 839.209,456.041 839.449,458.441 839.449,462.042 839.449,463.001 839.449,463.722 
		839.929,471.402 839.929,473.322 839.929,474.763 839.929,476.923 840.169,482.203 840.169,483.164 840.408,486.764 
		840.408,487.484 840.408,488.924 840.408,489.164 840.408,490.844 840.408,491.084 840.408,493.004 840.648,494.445 
		840.648,494.685 840.648,499.485 840.889,502.605 840.889,504.766 840.889,507.166 840.889,508.366 841.129,510.286 
		841.129,516.527 841.369,521.808 841.369,524.928 841.608,527.568 841.608,530.928 841.608,531.648 841.608,533.329 
		841.849,537.409 842.088,543.169 842.088,545.09 842.088,545.33 842.088,547.25 842.328,557.091 842.328,562.372 842.328,564.772 
		842.328,568.372 842.568,572.692 842.568,575.573 842.568,577.493 842.568,578.213 842.568,580.374 842.809,582.534 
		842.809,583.254 842.809,583.494 842.809,585.414 842.809,586.374 842.809,589.254 842.809,589.494 842.809,589.974 
		842.809,591.415 843.048,593.334 843.048,593.575 843.048,595.495 843.048,601.496 843.288,607.736 843.288,609.176 
		843.288,609.656 843.288,610.856 843.288,611.097 843.288,612.296 843.288,612.537 843.288,613.257 843.528,615.177 
		843.528,616.137 843.528,616.377 843.528,621.417 843.769,625.018 844.008,632.938 844.008,634.619 844.008,635.579 
		844.008,636.779 844.008,638.699 844.248,643.5 844.248,645.42 844.488,648.541 844.488,650.46 844.729,654.301 844.729,656.941 
		844.729,658.141 844.968,661.981 844.968,666.062 845.208,667.982 845.208,670.383 845.208,671.823 845.208,672.783 
		845.208,673.743 845.448,677.103 845.448,677.583 845.448,678.303 845.448,679.504 845.448,680.703 845.448,680.943 
		845.688,683.344 845.688,684.784 845.688,685.023 845.688,687.424 845.928,697.025 845.928,696.785 844.729,696.306 
		844.248,697.265 844.008,697.265 843.769,697.985 843.528,697.985 842.328,697.985 842.088,697.985 841.129,697.985 
		840.889,698.226 840.169,698.945 839.929,698.945 839.929,699.186 839.449,700.626 838.969,701.826 839.209,703.746 
		839.209,703.985 839.209,704.227 838.969,704.466 838.01,705.906 838.249,706.626 838.489,708.787 838.729,709.026 
		839.929,710.706 840.889,711.187 841.369,712.627 842.088,714.547 841.849,715.507 840.889,716.947 840.648,717.188 
		838.969,718.868 838.729,719.107 837.29,720.548 835.85,721.268 835.369,721.508 835.13,722.468 835.13,722.948 834.89,724.628 
		834.89,725.588 835.13,726.788 836.33,727.988 836.33,728.469 836.33,728.709 836.33,729.188 836.33,729.669 836.569,729.909 
		837.049,730.389 837.77,730.389 838.01,731.109 838.01,731.349 838.01,731.828 838.489,732.549 838.969,732.789 839.449,733.029 
		840.169,733.269 840.408,733.509 841.129,734.229 841.369,734.709 841.849,734.949 842.809,736.149 842.809,737.35 842.568,739.27 
		843.288,741.189 843.288,741.43 842.568,743.35 842.328,743.35 842.328,743.59 842.568,745.27 845.448,746.71 846.168,746.95 
		847.607,747.431 848.088,747.91 849.048,749.351 849.287,749.351 849.287,749.591 849.527,749.831 849.527,750.311 849.527,750.79 
		849.287,751.271 849.287,752.711 849.048,752.711 849.048,753.671 849.048,753.911 848.088,756.071 847.367,756.791 
		846.407,757.752 846.407,758.472 846.168,760.392 845.688,762.072 845.928,762.552 847.367,763.512 847.607,763.512 
		848.567,763.992 849.048,766.393 849.048,766.873 848.807,767.593 848.567,768.072 848.807,768.553 849.048,768.793 
		851.927,773.353 851.687,774.793 851.687,775.514 851.687,775.993 851.687,776.233 851.927,778.153 851.927,778.394 
		851.687,779.114 851.447,779.354 850.967,780.073 850.728,780.554 850.007,781.754 849.768,783.914 849.768,784.394 
		849.527,784.635 848.807,785.835 848.807,786.074 848.567,786.074 848.567,786.314 848.088,786.555 847.127,787.034 
		845.208,787.754 842.088,788.475 841.129,789.915 839.929,791.835 839.689,792.074 839.449,792.314 839.449,792.556 
		839.449,793.035 839.209,793.995 839.209,795.195 838.969,796.636 838.729,797.115 838.969,797.596 839.209,798.076 
		839.209,798.556 838.969,799.035 838.729,799.035 838.489,799.035 838.249,799.275 837.77,799.275 837.529,799.756 836.33,802.156 
		836.569,803.116 836.569,803.597 836.33,804.076 835.61,805.756 836.09,808.396 836.33,808.877 836.33,809.597 836.09,810.317 
		835.369,810.797 833.689,811.518 832.25,812.957 830.091,814.157 828.411,814.397 827.932,814.637 827.451,814.877 
		826.971,815.838 826.971,816.077 826.971,817.038 827.932,817.757 828.411,818.718 828.411,819.198 827.69,819.918 
		827.451,820.157 827.451,820.638 827.211,821.838 827.211,822.078 827.211,822.559 827.211,823.038 826.971,823.758 
		826.252,824.959 826.011,825.198 825.771,825.438 825.531,825.919 825.291,826.398 823.611,828.559 823.611,828.799 
		823.611,829.039 823.372,829.039 821.692,829.759 821.452,829.759 820.732,829.998 820.732,830.239 820.492,830.479 
		819.053,832.398 819.053,832.64 818.813,832.879 818.333,834.799 818.093,835.039 818.093,835.279 818.093,837.439 818.333,837.68 
		818.093,838.88 817.613,839.6 816.894,839.84 815.933,840.08 815.213,839.84 814.733,839.36 814.253,838.88 813.533,838.64 
		813.054,838.88 812.814,839.6 812.573,840.319 812.334,840.8 811.854,841.28 811.135,842 810.894,842 810.174,842.24 809.694,842 
		809.455,841.28 809.215,840.8 808.734,840.319 808.015,839.84 807.055,840.319 805.855,842 805.615,842.48 805.615,843.2 
		806.335,844.64 806.335,844.881 805.855,846.081 805.136,847.04 804.896,847.281 804.896,847.521 803.936,847.521 803.216,848.001 
		802.976,848.48 802.735,848.721 802.495,849.681 802.495,850.401 802.495,851.121 803.456,852.802 805.136,854.481 
		807.535,856.161 808.494,856.642 808.975,857.361 809.215,857.602 809.215,858.081 809.215,858.562 809.215,859.281 
		808.975,859.762 808.255,860.242 807.775,860.962 807.775,861.202 807.295,861.682 807.055,861.922 806.814,862.162 
		804.655,862.643 803.695,862.882 802.016,864.563 801.775,864.802 801.057,865.762 801.296,867.202 801.536,867.683 
		801.775,868.162 802.495,869.123 802.735,870.083 802.256,871.764 800.815,872.482 800.336,872.723 799.136,873.203 
		798.656,874.163 798.656,874.403 798.416,875.123 798.177,876.084 798.177,876.323 798.656,878.003 798.656,878.484 
		800.096,882.564 800.096,884.005 799.377,884.724 798.656,885.924 797.937,886.885 797.697,887.124 796.977,889.285 
		796.977,889.525 797.697,890.965 797.697,891.205 798.416,892.645 798.177,893.605 797.937,893.845 797.217,894.565 
		796.497,895.285 796.257,895.766 796.018,896.006 795.777,896.726 795.537,897.686 795.777,898.886 796.257,900.086 
		796.497,900.326 796.736,900.565 797.217,900.807 797.217,901.526 797.217,902.246 796.736,902.967 796.497,903.446 
		796.497,903.927 796.497,904.646 796.736,904.886 796.736,905.127 796.977,905.366 797.217,905.366 797.937,905.606 
		798.896,905.847 799.136,906.327 798.656,906.807 798.177,907.527 797.937,908.486 797.697,909.687 797.697,909.927 
		797.697,910.167 797.697,910.406 797.697,910.647 797.697,910.887 797.456,910.887 796.736,912.567 795.777,914.007 
		795.297,914.728 794.577,915.447 793.617,915.928 793.138,916.168 792.897,916.168 791.938,916.888 791.458,917.607 
		790.979,917.848 789.778,918.327 789.298,918.568 789.298,918.808 789.058,919.048 788.338,920.248 788.099,920.488 
		788.099,920.728 788.099,921.208 787.619,921.448 787.619,921.688 786.898,922.408 786.179,923.368 785.459,924.809 
		785.459,925.048 785.459,925.289 785.459,925.528 785.459,925.769 785.459,926.008 785.459,926.248 785.459,926.969 
		785.698,928.169 785.698,928.889 785.698,929.129 786.179,930.329 787.378,932.969 787.619,933.689 787.619,934.169 
		787.619,934.649 787.619,935.369 788.099,936.09 788.578,936.81 788.578,937.05 789.778,937.77 790.498,938.489 791.458,939.21 
		791.938,939.931 792.897,941.37 793.377,942.09 793.617,942.09 793.857,942.33 794.577,942.57 795.057,942.811 795.537,943.29 
		796.018,944.73 796.257,944.73 796.257,944.971 796.257,945.69 796.497,945.931 796.257,947.371 796.018,947.851 796.257,948.091 
		796.257,948.331 796.257,948.57 796.018,948.811 795.777,949.291 795.297,949.051 794.577,949.531 794.338,950.011 
		794.098,950.491 793.617,950.731 793.377,950.731 793.377,950.491 792.897,950.491 791.218,950.491 789.298,950.731 
		788.818,950.731 788.578,950.731 786.658,951.211 786.179,951.451 785.939,951.451 784.739,951.69 784.26,951.932 782.819,952.172 
		782.58,952.172 780.9,952.411 779.46,952.651 778.98,952.891 777.54,952.891 775.86,952.891 772.981,953.611 772.741,953.611 
		771.541,954.331 771.302,954.331 771.062,954.571 769.621,955.291 769.382,955.531 769.142,955.771 769.142,956.012 
		768.902,956.012 768.662,956.012 767.702,956.731 767.462,957.212 767.223,957.692 766.982,957.932 766.742,958.172 
		766.502,958.411 765.782,959.372 764.823,960.092 764.582,960.332 764.103,960.572 763.383,960.572 763.144,960.332 
		762.902,959.611 761.703,958.652 760.743,957.932 759.783,957.692 759.304,957.452 759.063,957.692 758.823,957.692 
		758.344,957.932 757.624,958.411 756.904,958.652 756.184,958.893 754.984,959.372 754.265,959.853 753.305,961.052 
		752.824,961.532 752.105,962.732 752.105,964.413 751.865,964.893 751.865,965.373 751.625,965.853 751.625,967.053 
		751.625,967.293 751.386,968.493 751.145,969.213 750.905,969.934 750.426,970.894 749.706,972.094 749.465,973.294 
		749.465,973.533 748.985,974.014 748.745,974.733 748.266,975.693 748.266,976.653 748.985,978.094 749.226,979.054 
		748.985,979.534 748.985,979.773 749.226,980.015 749.945,980.734 750.905,981.454 751.386,981.935 751.625,982.414 
		752.345,983.854 752.345,984.335 753.064,985.294 753.545,985.535 754.504,986.015 755.465,986.975 755.704,987.455 
		756.424,989.375 756.664,990.335 756.904,990.575 757.384,992.495 757.384,992.735 757.624,993.215 757.864,993.456 
		758.104,993.456 758.344,994.176 758.344,994.415 758.344,994.656 757.384,997.776 757.144,998.016 756.424,1000.177 
		756.424,1001.376 755.465,1003.297 754.984,1004.736 753.064,1005.697 752.345,1005.697 751.625,1005.697 750.905,1005.937 
		749.945,1006.177 748.985,1006.177 748.506,1006.177 748.266,1006.177 747.065,1005.937 745.626,1005.456 743.946,1004.736 
		743.227,1004.256 742.986,1004.017 742.746,1003.776 742.507,1003.536 742.267,1003.536 742.027,1003.297 741.547,1002.816 
		741.307,1002.576 741.307,1002.336 740.827,1001.616 740.348,1001.376 739.387,1000.656 739.387,1000.416 739.147,1000.416 
		738.668,1000.177 738.428,999.936 737.228,999.216 736.748,998.977 736.269,998.735 736.027,998.735 735.548,998.735 
		734.828,998.496 731.948,997.296 731.469,997.056 731.229,997.056 730.749,996.815 730.269,996.576 730.028,996.576 
		729.549,996.336 729.309,996.096 728.59,996.096 727.39,996.336 726.669,996.336 726.43,996.336 726.189,996.336 725.949,996.096 
		725.71,996.096 725.47,995.855 725.23,995.855 724.989,995.855 724.75,995.615 724.511,995.376 724.27,995.136 724.03,995.136 
		723.79,994.896 723.551,994.896 723.07,994.415 722.59,994.176 722.11,993.936 721.631,993.456 720.671,992.735 720.19,992.256 
		719.471,991.295 718.271,990.575 717.312,990.095 715.871,989.615 715.632,989.615 714.672,989.135 714.191,989.135 
		713.712,988.655 712.512,988.175 712.032,988.175 710.353,987.215 706.753,986.015 705.313,985.294 704.834,985.294 
		704.114,985.055 703.634,985.055 703.394,985.055 702.674,984.814 700.035,984.814 698.114,984.814 697.155,985.294 
		696.195,985.535 695.476,986.015 695.715,986.015 694.996,986.735 693.315,987.215 692.356,988.415 692.116,988.415 
		691.636,988.655 691.636,988.895 690.196,990.335 689.716,991.056 689.477,991.056 688.277,992.256 688.036,992.495 
		687.316,993.456 687.077,993.456 686.598,994.656 686.117,995.615 686.117,996.096 686.117,996.336 685.877,996.815 
		685.397,998.016 685.157,998.496 684.677,999.695 684.197,1000.177 683.717,1000.656 683.478,1000.656 683.478,1000.896 
		683.238,1001.136 682.037,1001.856 682.037,1002.097 681.798,1002.816 681.318,1003.297 680.838,1003.536 680.598,1003.776 
		680.357,1003.776 680.118,1003.776 679.878,1004.017 678.919,1005.456 678.438,1005.937 678.198,1006.656 677.719,1007.617 
		677.479,1008.577 677.479,1008.817 677.239,1009.537 676.998,1010.737 676.998,1010.978 677.239,1012.177 677.239,1012.418 
		677.479,1012.657 677.479,1012.897 677.479,1013.137 677.719,1013.618 677.959,1014.337 678.198,1014.817 678.438,1014.817 
		678.678,1015.058 678.919,1015.298 679.398,1015.777 680.838,1016.978 681.798,1017.938 682.518,1018.178 681.559,1018.658 
		681.318,1018.658 680.598,1018.897 679.398,1019.618 678.438,1019.857 677.719,1019.857 676.759,1019.378 676.278,1018.658 
		676.039,1018.658 675.799,1017.218 675.799,1015.777 675.559,1015.298 675.559,1014.817 675.559,1014.577 675.318,1014.337 
		675.318,1014.098 675.079,1013.857 675.079,1013.618 674.599,1013.137 673.879,1012.657 673.399,1012.418 672.439,1011.697 
		671.479,1010.978 671,1010.257 671,1010.018 670.279,1008.097 669.32,1006.177 669.08,1006.416 668.84,1006.897 668.84,1007.137 
		668.6,1007.377 668.12,1007.137 666.44,1007.137 666.201,1007.137 666.201,1006.897 665.001,1006.897 663.561,1006.656 
		663.561,1006.897 663.321,1008.337 663.321,1008.817 663.561,1009.297 663.802,1009.537 664.281,1010.018 665.24,1010.497 
		666.92,1011.218 668.12,1012.177 668.84,1012.897 669.08,1013.857 668.36,1016.018 668.12,1016.498 667.641,1016.738 
		667.16,1017.218 666.681,1017.458 665.24,1016.978 663.081,1014.817 662.602,1014.337 661.881,1013.857 661.161,1013.377 
		659.481,1012.657 657.802,1011.938 656.123,1010.737 655.883,1010.737 655.643,1010.497 655.643,1010.257 655.402,1009.777 
		655.162,1009.537 655.162,1009.297 655.162,1008.577 655.162,1008.337 655.883,1006.897 655.883,1006.656 655.883,1006.416 
		656.123,1005.217 656.123,1004.497 655.883,1003.297 655.162,1002.097 654.923,1001.616 654.683,1001.616 654.683,1001.376 
		654.443,1001.136 654.203,1001.136 653.482,1000.656 652.764,1000.177 652.764,999.936 652.523,999.936 652.283,999.695 
		652.044,999.216 651.803,999.216 650.844,997.535 649.644,995.615 649.403,994.415 647.964,992.015 647.484,991.056 
		647.484,990.814 647.244,990.575 646.764,989.375 646.764,988.895 646.284,986.735 646.284,986.255 646.284,986.015 
		646.524,985.774 646.764,985.055 647.004,984.094 647.244,983.854 647.244,983.614 647.244,982.895 647.004,982.895 
		647.004,982.654 647.004,982.414 646.764,982.414 646.524,982.414 645.805,982.174 644.845,982.174 643.885,982.414 
		643.645,982.414 643.165,981.454 642.445,980.734 641.965,980.015 641.245,979.054 640.766,978.334 640.766,977.854 
		640.766,977.614 640.766,977.373 640.766,977.134 640.766,976.894 641.005,976.414 641.005,976.174 641.005,975.934 
		641.005,975.453 641.245,974.494 641.485,974.253 641.485,974.014 641.725,973.773 642.685,973.053 643.165,972.573 
		643.645,971.613 643.885,971.373 644.125,971.133 644.365,971.133 645.325,970.653 647.484,970.653 648.204,970.413 
		649.403,969.934 649.884,969.453 650.123,968.732 650.364,968.253 650.844,964.893 	"/>
	
		<polyline clip-path="url(#SVGID_2_)" fill="none" stroke="#B37C34" stroke-width="0.4799" stroke-linecap="round" stroke-linejoin="round" stroke-miterlimit="3.85" points="
		650.844,964.893 651.084,964.413 651.084,963.933 651.084,963.452 650.844,962.732 650.844,962.492 650.604,962.252 
		650.604,962.012 650.604,961.772 650.364,961.292 649.644,958.893 648.924,957.452 648.924,957.212 648.684,956.972 
		648.444,956.731 648.444,956.492 648.204,956.492 648.204,956.252 647.964,955.771 647.724,955.771 647.724,955.531 
		647.484,955.531 647.244,955.291 646.284,954.091 645.805,953.611 645.564,953.371 645.325,953.131 645.084,952.891 
		644.365,951.69 644.365,951.451 643.405,950.011 643.405,949.771 643.165,949.771 642.685,948.331 642.445,947.371 
		642.205,946.651 641.725,945.69 641.245,944.971 641.005,944.971 640.525,944.251 640.525,944.011 640.045,941.851 640.045,940.89 
		640.045,940.17 640.045,939.21 640.045,938.489 640.045,938.01 640.286,938.01 640.525,937.77 640.766,937.53 641.005,937.53 
		641.245,937.77 642.925,938.25 643.645,938.25 643.885,938.01 644.125,938.01 644.365,937.77 644.604,937.77 644.845,937.53 
		644.845,937.05 644.845,936.81 644.845,936.569 644.845,936.09 644.604,935.609 643.885,934.649 643.885,934.409 643.165,933.689 
		642.205,932.969 642.205,932.729 641.965,932.489 641.725,932.249 641.245,931.289 640.525,930.568 640.525,930.089 
		640.525,929.609 640.525,929.369 640.525,928.648 640.525,927.929 640.525,926.489 640.766,925.289 641.005,924.809 
		641.005,924.089 640.766,923.608 640.525,923.128 639.806,922.648 639.565,922.408 638.846,922.168 638.126,921.928 
		635.006,921.208 634.287,920.969 633.327,920.488 633.327,920.248 632.847,920.008 632.847,919.769 632.367,919.048 
		631.887,917.848 631.407,917.368 631.167,917.368 630.687,916.888 630.208,916.888 630.208,916.647 629.967,916.407 
		629.728,916.168 629.728,915.688 629.728,915.447 629.007,915.688 628.528,915.688 628.048,916.168 626.608,915.928 
		626.368,916.168 625.408,915.928 625.168,915.688 624.928,915.688 624.688,915.447 624.448,915.207 624.208,914.248 
		624.448,913.527 624.688,913.048 624.928,912.327 624.928,912.087 624.928,911.848 625.168,911.367 625.168,911.127 
		625.168,910.887 625.168,910.647 624.928,910.647 624.928,910.406 624.688,909.927 623.968,908.727 623.488,908.486 
		623.249,908.247 622.769,907.767 622.289,907.527 621.329,907.047 621.089,906.807 620.609,906.566 620.369,906.566 
		618.929,905.366 617.729,904.166 617.25,903.686 617.01,902.967 616.53,902.486 615.57,902.486 615.09,902.727 614.61,902.486 
		614.13,902.006 613.89,902.006 612.931,901.766 612.21,901.526 611.971,901.526 611.491,902.006 610.771,901.286 610.531,900.807 
		610.051,899.606 610.051,899.365 610.291,898.886 610.291,898.165 610.291,897.926 609.811,897.686 608.611,897.206 
		606.212,895.285 606.212,895.045 605.492,894.806 605.252,894.806 604.772,894.806 603.332,895.766 603.092,896.246 
		602.373,897.206 601.893,897.686 601.413,898.165 599.733,899.365 599.253,899.606 598.053,899.606 597.093,899.365 
		595.414,898.886 595.174,898.646 594.934,898.646 594.454,898.165 594.214,897.926 593.974,897.926 593.974,897.686 
		593.734,897.445 593.014,895.766 592.774,895.285 591.814,893.365 591.814,893.125 591.574,893.125 591.574,892.886 
		591.574,891.926 592.294,891.205 592.774,890.965 593.014,890.005 594.454,890.005 595.414,889.285 595.894,889.045 
		596.134,889.045 596.854,888.085 596.854,887.364 595.894,887.604 595.654,887.364 595.414,887.364 595.414,886.645 
		594.934,886.165 593.494,886.645 591.094,887.124 590.375,887.124 589.175,886.885 588.695,886.885 587.975,886.165 
		587.015,884.724 585.335,882.805 583.896,882.084 583.656,881.844 583.416,881.604 583.176,881.364 583.176,880.884 
		582.936,880.404 582.696,880.164 582.696,879.924 582.456,879.924 581.976,879.684 581.016,879.684 580.296,879.924 
		579.577,879.924 579.336,879.924 578.857,879.684 577.177,878.484 576.697,878.244 576.457,878.003 576.217,877.764 
		575.977,877.284 575.498,876.804 575.498,876.563 575.257,876.323 575.257,876.084 575.498,875.363 575.257,874.644 
		575.257,874.163 575.257,873.923 575.018,873.684 573.817,872.963 573.578,872.963 573.338,872.723 571.898,872.003 
		571.658,872.003 571.418,872.003 570.458,872.723 566.859,870.323 565.659,869.363 563.02,866.963 562.54,866.002 562.3,865.282 
		562.06,865.043 562.06,864.802 561.58,864.322 559.66,860.962 558.7,860.002 557.98,859.281 557.021,858.562 555.821,858.081 
		555.101,857.842 554.621,857.602 553.661,856.881 553.421,856.642 552.461,855.201 551.742,854.001 551.262,853.521 
		551.262,853.281 551.022,853.041 551.022,852.802 550.542,851.841 550.302,850.401 549.822,848.721 549.822,848.48 549.822,848.24 
		549.822,847.761 549.822,847.521 549.822,847.281 549.582,846.801 549.582,846.081 549.342,846.081 549.342,845.84 549.342,845.36 
		549.102,844.4 549.102,844.16 549.102,843.681 549.102,843.2 549.102,842.72 549.102,842.48 549.342,841.04 549.342,838.64 
		549.582,837.199 549.822,836.239 551.022,833.599 551.262,833.119 551.742,831.439 551.742,831.198 552.222,830.719 
		552.222,830.479 552.461,830.239 553.901,828.559 554.621,828.078 555.581,826.878 557.5,824.719 558.221,823.278 558.221,823.038 
		558.46,822.798 558.46,822.559 558.7,821.357 558.94,820.878 558.94,820.638 559.18,818.478 559.42,817.998 559.66,817.518 
		559.66,816.798 560.14,815.357 560.38,814.157 560.86,812.236 560.86,811.997 561.1,811.036 561.58,810.557 562.3,809.117 
		562.3,808.877 563.02,807.916 563.26,807.437 563.5,807.196 564.939,804.797 565.179,804.797 565.179,804.557 565.419,804.557 
		565.899,804.315 566.619,803.597 566.859,803.356 567.339,802.876 567.579,802.876 568.059,802.156 568.539,801.676 
		569.019,800.476 569.258,799.996 569.499,799.035 569.738,797.596 569.979,796.876 569.979,795.915 569.979,795.676 
		569.499,793.515 569.499,793.275 569.499,792.556 569.019,791.595 569.019,791.355 568.778,791.114 568.539,790.635 
		568.059,789.675 567.819,789.435 567.339,788.955 566.619,787.754 566.379,786.555 566.379,785.594 566.379,785.114 
		566.619,784.635 567.099,783.674 568.539,782.234 569.258,781.754 569.979,780.794 570.218,780.073 570.218,779.834 
		570.458,779.354 570.698,779.114 571.178,778.153 573.098,776.953 575.737,774.793 576.217,773.833 576.457,772.633 
		576.937,769.993 577.177,769.513 577.177,768.793 576.937,768.553 576.697,768.072 575.977,767.353 575.498,767.112 
		574.777,766.873 574.538,766.632 573.578,766.152 573.338,765.912 572.618,765.673 572.138,765.192 571.178,764.473 
		571.178,764.231 570.458,763.992 570.218,763.752 569.499,763.512 569.499,763.271 569.019,763.031 568.539,763.031 
		568.299,763.031 568.059,763.031 567.819,762.792 567.339,762.072 566.859,761.832 566.619,761.592 566.139,761.111 
		566.139,760.872 565.899,760.872 565.179,760.152 564.939,759.912 564.699,759.912 564.459,759.672 563.26,759.191 562.3,758.472 
		561.82,758.472 561.58,758.231 561.1,758.472 560.38,757.991 559.66,757.991 559.42,757.991 558.7,757.991 557.741,757.991 
		557.5,757.991 557.261,757.991 556.541,757.991 556.061,757.991 555.341,757.271 554.621,757.031 554.381,757.031 554.141,757.031 
		553.901,756.791 553.661,756.552 553.421,756.552 552.222,755.592 550.542,754.871 550.542,754.631 550.302,754.631 
		549.822,754.391 548.382,753.671 548.143,753.671 548.143,753.432 547.902,753.432 547.183,753.191 546.942,752.951 
		546.463,752.951 545.983,752.711 545.503,752.711 545.263,752.711 544.063,752.471 543.103,752.231 542.624,752.231 
		542.383,751.99 541.184,751.99 539.984,752.471 539.504,752.711 539.024,753.191 538.544,754.151 538.304,754.631 538.064,755.111 
		537.824,755.352 537.824,755.592 537.824,755.831 537.824,756.312 537.824,756.552 537.584,757.511 536.145,759.672 
		535.425,760.632 534.225,761.111 532.785,762.792 531.585,764.473 531.345,764.473 530.386,764.952 530.146,764.952 
		529.666,765.192 529.186,765.192 527.986,765.192 527.506,765.192 527.266,765.192 527.026,764.952 526.066,764.473 
		522.947,762.552 522.707,762.072 521.747,760.392 521.507,759.912 520.547,759.432 520.067,758.952 519.587,758.231 
		519.107,757.752 518.868,757.271 518.868,756.312 518.388,754.631 518.148,753.911 517.908,753.191 517.668,752.951 
		517.668,752.711 517.668,752.471 517.668,752.231 517.668,751.99 517.668,749.591 517.428,748.631 517.188,747.91 516.948,747.67 
		516.948,747.431 516.708,747.431 516.708,747.19 516.468,746.71 516.468,746.471 516.228,745.99 515.988,745.27 515.028,743.59 
		514.309,741.91 514.068,741.189 513.829,740.47 513.829,740.229 513.829,739.989 513.829,739.75 515.028,738.79 515.028,738.069 
		515.269,737.83 516.948,735.669 517.188,735.43 517.188,733.989 516.948,732.309 516.708,732.068 516.708,731.828 516.708,731.589 
		516.468,731.109 515.748,730.148 515.269,729.429 515.028,728.948 514.789,728.229 514.548,727.269 514.309,726.788 
		514.309,724.389 514.309,723.908 513.829,722.708 513.829,721.988 513.589,721.748 513.589,721.027 513.589,720.308 
		513.589,720.067 513.589,719.827 513.589,719.348 513.589,718.868 513.349,718.387 513.109,717.427 513.109,717.188 
		513.109,716.707 513.109,716.228 512.869,715.268 512.629,713.827 512.149,713.106 511.909,712.867 511.909,712.627 
		511.429,712.387 510.229,711.906 509.989,711.906 508.31,709.747 507.59,708.547 507.59,708.066 506.63,707.586 505.91,706.866 
		505.91,706.146 505.67,705.906 504.95,705.427 503.271,704.466 502.791,703.985 500.871,701.586 500.631,701.586 500.151,701.105 
		498.951,700.146 497.992,699.665 497.751,699.426 496.312,698.706 495.592,698.226 495.352,698.226 495.352,697.985 
		495.112,697.985 494.632,697.265 494.392,697.025 494.392,696.545 494.152,696.306 493.912,696.306 493.192,696.064 
		492.712,696.064 492.712,695.825 492.473,695.825 491.993,695.585 491.752,695.346 491.273,694.865 491.033,694.625 
		491.033,693.905 490.793,693.665 490.793,693.425 490.553,693.425 490.553,693.186 490.313,693.186 490.313,692.944 
		489.833,692.705 489.593,692.705 489.593,692.465 488.633,692.465 487.673,691.985 487.193,691.744 486.474,691.024 
		485.994,690.785 484.794,690.544 483.834,689.824 483.114,689.104 481.915,688.385 481.435,688.145 481.435,687.904 
		481.195,687.664 480.715,687.424 480.475,687.185 480.235,686.944 479.275,685.984 479.035,685.504 479.035,685.265 
		478.795,685.265 478.795,685.023 478.555,685.023 478.315,684.304 478.075,684.304 478.075,684.064 477.835,683.584 
		477.835,682.624 477.595,680.703 476.875,679.983 476.635,679.744 476.155,679.023 475.436,677.823 474.716,676.144 
		473.996,674.703 472.556,674.463 472.316,674.463 471.116,674.223 468.957,673.743 468.477,673.503 467.997,673.022 
		467.997,672.783 467.517,672.063 467.037,671.103 466.797,670.623 466.557,668.942 466.317,667.502 466.077,666.782 
		465.598,666.062 465.118,665.822 461.998,664.382 461.278,664.143 460.559,663.662 459.358,662.462 459.119,661.981 
		459.119,661.742 458.879,661.502 458.639,661.021 458.639,660.781 457.919,660.062 457.439,659.821 456.959,658.861 
		456.959,658.621 455.999,657.422 455.04,656.941 454.08,656.222 453.12,655.741 453.12,655.501 453.12,655.261 452.88,655.021 
		452.64,655.021 451.68,653.82 450.24,652.86 449.76,652.381 448.8,651.66 448.321,651.181 448.081,650.701 447.841,650.701 
		447.841,650.46 447.601,650.221 446.881,649.261 446.401,648.78 446.401,648.541 446.161,648.541 446.161,648.3 446.401,646.86 
		446.641,645.66 446.641,645.18 446.881,644.94 446.641,643.98 446.881,643.02 446.881,642.78 446.881,642.06 447.121,641.58 
		447.121,641.339 447.121,641.1 447.121,640.379 446.641,639.419 445.921,638.219 445.681,637.739 444.721,637.259 443.521,636.539 
		442.562,635.819 441.842,635.339 440.402,634.139 439.922,633.899 439.682,633.419 439.682,633.179 439.442,632.938 
		439.442,632.699 439.202,631.739 438.482,629.818 438.482,628.858 438.482,628.138 438.962,626.698 439.682,625.978 
		440.402,624.778 440.642,624.538 441.122,624.058 441.362,623.818 441.362,623.578 441.602,623.098 441.602,622.858 
		441.602,622.377 441.602,622.138 441.362,621.897 441.362,621.658 441.362,621.417 441.122,621.178 440.882,620.697 
		440.642,620.458 440.402,620.217 440.162,619.978 439.922,619.737 439.682,619.498 439.442,619.017 439.202,619.017 
		439.202,618.777 438.722,617.817 438.482,617.097 438.002,616.137 437.522,615.177 437.522,614.937 437.042,614.697 
		436.803,614.457 436.803,613.977 436.563,613.497 436.563,613.017 435.603,611.097 434.883,609.656 434.643,609.176 
		434.643,608.937 434.163,607.976 434.163,607.736 433.923,607.496 433.923,607.256 434.403,605.336 434.403,604.616 
		434.403,604.136 433.923,602.696 433.683,601.735 433.443,600.055 433.204,598.855 432.963,598.375 432.963,598.135 
		432.963,597.655 432.724,596.935 432.724,596.215 432.724,595.975 432.483,595.975 432.483,595.255 432.483,595.015 
		432.483,594.775 432.483,594.295 432.483,594.055 432.483,593.815 432.483,593.334 432.483,592.854 432.483,592.375 
		432.483,592.135 432.724,591.174 432.483,589.254 432.244,588.294 432.244,587.814 432.483,586.854 432.724,586.614 
		433.204,585.894 433.204,585.654 433.204,585.414 	"/>
</g>
</svg>
