<?xml version="1.0" encoding="utf-8"?>
<!-- Generator: Adobe Illustrator 15.1.0, SVG Export Plug-In . SVG Version: 6.00 Build 0)  -->
<!DOCTYPE svg PUBLIC "-//W3C//DTD SVG 1.1//EN" "http://www.w3.org/Graphics/SVG/1.1/DTD/svg11.dtd">
<svg version="1.1" id="State" xmlns="http://www.w3.org/2000/svg" xmlns:xlink="http://www.w3.org/1999/xlink" x="0px" y="0px"
	 width="1296px" height="1296px" viewBox="0 0 1296 1296" enable-background="new 0 0 1296 1296" xml:space="preserve">
<g>
	<defs>
		<rect id="SVGID_1_" x="349.219" y="266.421" width="598.45" height="770.958"/>
	</defs>
	<clipPath id="SVGID_2_">
		<use xlink:href="#SVGID_1_"  overflow="visible"/>
	</clipPath>
	
		<polyline clip-path="url(#SVGID_2_)" fill="none" stroke="#B37C34" stroke-width="0.7199" stroke-linecap="round" stroke-linejoin="round" stroke-miterlimit="3.85" points="
		412.567,942.09 412.807,941.61 413.047,941.61 414.007,940.89 415.207,940.89 415.446,940.65 415.446,940.41 416.646,938.97 
		417.126,937.53 417.366,937.29 416.646,935.13 416.407,934.169 416.887,933.449 418.326,931.289 418.566,931.289 420.006,930.568 
		420.966,931.049 421.686,932.01 421.925,932.489 422.166,933.689 422.885,934.169 423.845,933.689 424.325,933.689 
		425.285,932.729 425.765,932.01 426.005,932.01 426.245,931.529 426.725,930.568 426.964,929.369 427.685,929.129 428.884,929.369 
		429.364,930.089 430.084,930.81 431.044,931.289 432.244,931.049 433.204,930.568 433.923,929.609 434.163,927.929 
		434.163,927.688 434.163,924.809 434.163,924.568 434.403,924.328 434.403,923.848 435.363,921.448 435.363,921.208 
		435.603,920.728 435.603,920.488 437.763,918.088 438.002,917.848 438.002,917.607 438.962,917.127 439.202,917.127 
		441.842,916.168 442.082,916.168 442.082,915.928 442.322,915.688 444.481,912.807 444.961,912.087 445.441,911.367 
		445.681,911.127 445.921,910.647 447.121,908.967 447.121,908.007 447.361,907.527 447.361,906.566 447.361,906.327 
		447.601,904.646 447.841,904.166 447.841,903.927 448.081,903.686 449.28,902.727 449.28,902.006 448.561,900.807 447.601,899.606 
		447.361,898.406 447.361,898.165 448.081,896.726 448.561,896.485 449.28,896.006 451.68,895.766 454.799,894.325 456.959,892.405 
		459.119,891.686 459.119,891.444 460.079,890.725 460.559,890.005 460.798,888.805 460.318,888.085 459.599,884.484 
		461.038,882.084 461.278,881.604 461.038,880.884 461.038,879.443 462.718,876.323 463.198,875.604 463.918,875.363 
		464.158,875.363 464.397,875.363 464.877,875.123 465.118,874.644 465.118,873.923 464.877,873.203 464.638,872.482 
		464.877,871.764 465.357,869.843 465.598,868.402 465.598,866.963 465.598,866.723 465.837,866.243 465.837,866.002 
		466.077,865.762 466.317,865.282 468.477,862.643 469.677,860.962 473.996,859.762 476.635,859.041 478.315,858.081 
		478.555,857.842 478.795,857.842 479.035,857.602 479.275,857.361 480.235,855.682 480.475,855.441 480.715,854.722 
		480.955,851.841 482.154,849.921 482.395,849.44 482.875,848.48 483.354,848.001 483.834,847.281 484.074,846.801 483.594,844.16 
		483.594,843.92 483.834,843.2 483.834,842.24 484.074,840.08 480.235,833.84 479.755,833.359 479.515,832.64 479.755,832.159 
		480.475,831.198 480.235,830.479 479.755,827.119 478.555,826.398 478.315,826.158 476.155,824.959 475.676,824.238 
		476.635,822.078 477.115,819.198 477.115,818.238 478.555,817.038 479.515,816.077 480.955,813.197 480.955,812.717 
		481.195,811.277 481.435,809.356 481.674,808.637 481.674,808.156 481.915,807.196 481.674,806.956 481.435,806.717 
		481.195,806.477 479.755,804.557 479.275,804.076 477.355,803.116 476.396,802.636 472.316,800.716 472.316,800.476 
		472.076,798.315 472.316,798.076 473.516,795.195 473.516,794.955 472.796,792.314 473.036,789.675 473.036,787.994 
		471.596,786.314 471.356,785.835 470.876,785.114 469.917,784.154 469.677,783.674 468.717,783.435 467.997,783.193 
		467.277,782.714 466.797,781.754 466.797,781.033 466.797,780.794 466.317,779.834 465.598,779.594 464.877,779.114 
		464.638,779.114 464.397,778.634 464.397,777.914 464.397,777.193 464.638,776.473 462.958,774.553 462.718,773.113 
		462.478,771.433 462.958,769.513 462.958,769.272 463.198,768.553 463.438,767.353 464.158,767.112 466.317,765.912 
		468.477,763.992 470.876,761.592 471.356,761.111 472.556,759.191 473.036,757.752 472.316,755.111 471.836,753.191 
		470.396,752.471 468.717,750.311 468.717,750.07 468.477,749.831 467.997,746.71 467.997,745.99 469.437,743.83 469.437,743.59 
		469.677,743.35 469.677,743.11 469.677,742.87 469.677,742.63 469.437,740.229 470.157,738.31 470.876,736.629 470.876,736.39 
		471.116,736.149 471.356,736.149 472.316,735.189 472.556,734.949 472.796,734.949 473.996,734.949 474.236,734.949 
		475.916,734.949 476.155,734.949 476.635,733.989 476.875,733.989 477.595,732.789 479.275,733.509 479.275,733.749 
		479.515,720.308 479.515,717.188 479.515,716.947 479.515,716.707 479.515,714.787 479.515,711.427 479.515,710.947 
		479.515,709.506 479.515,707.826 479.515,706.866 479.515,706.146 479.515,701.346 479.515,700.146 479.515,698.706 
		479.515,696.785 479.515,696.545 479.515,693.186 479.515,690.544 479.515,685.265 479.515,679.744 479.515,677.823 
		479.515,674.463 479.515,668.942 479.515,666.062 479.515,661.981 479.515,659.342 479.515,652.621 479.515,649.74 479.515,648.3 
		479.515,647.1 479.515,644.7 479.755,633.659 479.755,628.378 479.755,621.658 479.755,621.417 479.755,619.978 479.755,617.097 
		479.755,616.377 479.755,615.897 479.755,614.217 479.755,613.977 479.995,612.057 479.995,611.816 479.995,609.656 
		479.995,609.417 479.995,600.775 479.995,592.375 479.995,589.734 480.235,586.854 480.235,584.934 480.235,584.694 
		480.235,583.974 480.235,579.894 480.235,578.693 480.235,575.813 480.235,575.333 480.235,574.373 480.475,571.493 
		480.475,568.372 480.475,567.652 480.475,565.012 480.475,564.772 480.475,560.691 480.715,554.931 480.715,549.89 480.715,546.53 
		480.955,539.089 481.195,525.168 481.195,522.768 481.195,522.527 481.195,519.887 481.195,511.727 481.195,511.486 
		481.195,506.206 481.195,503.565 481.435,502.846 481.435,498.045 481.435,494.445 481.435,490.124 481.435,482.684 
		481.435,473.803 481.435,471.402 481.435,469.482 481.435,466.362 481.674,463.481 481.674,458.921 481.674,452.44 481.674,451.96 
		481.674,450.04 481.674,447.16 481.674,446.92 481.674,444.52 481.674,444.279 481.674,442.359 481.674,442.119 481.674,441.159 
		481.674,436.359 481.674,434.918 481.674,427.718 481.674,424.598 481.674,422.677 481.674,420.037 481.674,408.996 
		481.674,408.276 481.674,407.076 481.674,402.035 481.674,398.675 481.674,396.755 481.915,395.794 481.915,394.834 
		481.915,394.595 481.915,394.114 481.915,393.634 481.915,391.474 481.915,390.274 481.915,388.354 481.915,385.474 
		481.915,379.233 481.915,377.313 481.915,371.792 481.915,368.912 481.915,360.751 481.915,360.271 481.915,360.031 
		481.915,359.551 481.915,359.311 481.915,358.111 482.154,354.991 482.154,354.03 482.154,353.791 482.154,353.55 482.154,352.83 
		482.154,351.63 482.154,348.51 482.154,343.229 482.154,341.789 482.154,339.869 482.154,336.749 482.154,336.509 482.154,335.789 
		482.154,335.068 482.395,333.148 482.395,332.188 482.395,331.708 482.395,331.468 482.395,330.988 482.395,329.548 
		482.395,326.908 482.395,325.947 482.395,325.708 482.395,325.467 482.395,324.987 482.395,324.507 482.395,323.787 
		482.395,323.547 482.395,323.067 482.395,322.587 482.395,322.347 482.395,322.107 482.395,320.907 482.395,320.667 
		482.395,320.427 482.395,320.187 482.395,319.227 482.395,318.026 482.395,317.787 482.395,316.827 482.395,316.586 
		482.395,316.106 482.395,315.867 482.395,315.626 482.395,314.906 482.395,314.187 482.395,313.946 482.395,313.466 
		482.395,313.226 482.395,312.746 482.395,312.266 482.634,311.306 482.634,311.066 482.634,310.826 482.634,310.586 
		482.634,309.866 482.634,309.626 482.634,308.906 482.634,308.186 482.634,307.706 482.634,306.746 482.634,306.266 
		482.634,306.025 482.634,304.105 482.634,303.145 482.634,302.665 482.634,301.945 482.634,301.465 482.634,301.225 
		482.634,298.345 482.634,296.665 482.634,296.185 482.634,295.225 482.634,294.504 482.634,294.024 482.634,293.304 
		482.634,292.824 482.634,292.584 482.634,292.344 482.634,292.104 483.114,291.864 483.834,293.064 484.554,294.504 
		485.274,295.225 485.994,295.704 487.193,296.904 490.073,298.825 491.273,298.345 492.232,298.585 492.712,298.825 
		493.672,299.545 494.152,299.064 494.632,299.305 494.872,299.545 495.112,300.025 495.352,300.265 495.592,301.225 
		494.632,302.425 495.352,303.385 495.832,303.865 496.792,304.585 498.951,305.065 500.871,305.545 504.47,306.746 504.95,306.985 
		505.43,306.985 505.91,307.226 510.709,308.186 515.748,308.426 517.188,308.906 519.348,308.666 520.787,308.666 524.867,308.186 
		525.106,307.946 527.746,307.466 529.906,306.985 530.386,306.746 531.585,306.505 533.505,305.545 533.505,304.105 
		535.905,303.625 538.544,303.145 539.264,304.105 545.263,301.705 546.703,300.985 546.942,300.985 552.222,298.585 
		554.861,297.385 555.101,297.145 564.699,292.344 565.179,292.104 565.659,291.864 568.539,288.983 568.778,288.744 
		573.578,286.824 578.857,283.703 580.776,282.503 581.976,282.503 582.696,282.503 583.416,282.503 583.896,282.503 
		584.136,282.503 586.775,282.503 587.015,282.503 591.094,282.503 591.334,282.503 591.574,282.503 595.174,282.503 
		598.293,282.503 602.373,282.503 606.452,282.503 609.091,282.503 614.61,282.503 616.05,282.503 618.449,282.503 618.689,282.503 
		622.769,282.503 623.488,282.503 625.888,282.503 632.367,282.503 636.446,282.263 638.126,282.263 646.044,282.263 
		647.004,282.263 648.444,282.263 651.803,282.263 652.523,282.263 653.723,282.263 658.042,282.023 659.002,282.023 
		660.441,282.023 660.922,282.023 661.881,282.023 662.121,282.023 662.361,282.023 663.321,282.023 663.802,282.023 
		664.521,282.023 665.721,282.023 669.8,282.023 671,282.023 678.198,281.783 678.678,281.783 681.078,281.783 687.316,281.783 
		690.437,281.783 695.715,281.783 695.955,281.783 696.436,281.783 696.676,281.783 697.395,281.783 699.555,281.783 
		699.794,281.783 704.114,281.783 710.593,281.543 711.793,281.543 713.231,281.543 713.712,281.543 714.191,281.543 
		717.552,281.543 718.991,281.543 722.59,281.543 725.47,281.543 727.629,281.543 727.869,281.543 731.229,281.303 734.348,281.303 
		734.828,281.303 743.467,281.303 743.706,281.303 745.146,281.063 745.626,281.063 747.546,281.063 748.745,281.063 
		748.985,281.063 750.905,281.063 751.145,281.063 762.663,280.823 763.623,280.823 763.863,280.823 767.941,280.583 
		775.62,280.583 776.34,280.583 778.98,280.343 783.059,280.343 784.499,280.343 785.459,280.343 786.419,280.343 787.139,280.343 
		790.019,280.103 791.698,280.103 793.138,280.103 794.338,280.103 795.297,280.103 797.937,280.103 798.177,280.103 
		803.695,279.863 808.734,279.863 811.614,279.863 812.094,279.863 819.053,279.623 819.772,279.623 824.572,279.383 
		827.932,279.383 829.37,279.383 830.57,279.383 830.811,279.383 833.45,279.143 837.529,279.143 839.929,279.143 840.169,279.143 
		841.608,279.143 844.248,278.903 845.688,278.903 855.766,278.663 860.805,278.423 861.525,278.423 863.444,278.423 
		863.444,281.543 863.444,282.743 863.444,283.463 863.685,285.863 863.685,288.264 863.685,289.224 863.685,290.424 
		863.685,291.624 863.685,294.504 863.924,298.585 864.165,302.425 864.165,304.825 864.165,305.306 864.165,306.025 
		864.404,311.066 864.645,319.227 864.645,321.387 864.885,324.747 864.885,326.908 864.885,329.308 865.124,333.628 
		865.124,337.469 865.364,339.149 865.364,340.829 865.364,343.709 865.364,344.189 865.604,351.87 865.604,354.03 865.844,357.15 
		865.844,359.791 866.084,369.872 866.324,373.472 866.564,385.954 866.564,388.114 866.564,389.794 866.804,390.514 
		866.804,391.714 866.804,394.354 866.804,396.275 866.804,397.955 867.044,402.515 867.044,403.955 867.044,406.116 
		867.523,418.837 867.523,422.677 868.004,435.159 868.004,438.999 868.483,451.48 868.483,452.92 868.483,455.321 868.724,457.961 
		868.724,461.081 868.724,463.241 868.724,464.441 868.963,467.802 868.963,468.762 868.963,471.402 868.963,473.322 
		869.203,476.203 869.203,478.363 869.203,478.843 869.203,481.483 869.203,484.124 869.443,484.844 869.443,487.004 
		869.443,487.964 869.684,496.125 869.684,500.685 869.923,504.286 869.923,508.846 869.923,512.446 869.923,513.887 
		869.923,517.007 869.923,518.927 869.923,520.367 869.923,520.607 869.923,521.087 870.163,523.968 870.163,529.728 
		870.163,530.688 870.163,531.168 870.163,532.369 870.163,533.329 870.403,536.449 870.403,541.729 870.643,549.65 870.883,551.09 
		870.883,557.571 870.883,565.732 870.883,565.972 870.883,568.132 870.883,568.372 870.883,568.612 870.883,569.813 
		870.883,570.052 870.883,570.292 870.883,570.532 870.883,570.772 870.883,571.732 870.883,571.973 870.883,573.893 
		870.883,574.133 870.883,583.494 871.123,583.974 871.123,587.574 871.123,590.455 871.123,598.615 871.123,601.255 
		871.123,604.136 871.123,606.776 871.123,608.696 871.363,612.537 871.363,612.777 871.363,621.417 871.363,622.377 
		871.363,623.338 871.363,625.978 871.604,627.898 871.604,628.138 871.604,631.499 871.604,635.099 871.604,635.579 
		871.604,635.819 871.604,637.019 871.604,638.939 871.604,639.419 871.604,639.899 871.604,640.14 871.604,640.62 871.604,642.54 
		871.604,643.02 871.604,645.18 871.844,647.58 871.844,647.82 872.083,655.741 872.083,658.861 872.323,667.502 872.323,669.662 
		872.323,672.063 872.323,672.543 872.323,674.703 872.323,675.184 872.563,677.103 872.563,683.344 872.563,683.584 
		872.563,687.424 872.563,687.664 872.563,688.385 872.803,688.625 872.803,688.864 872.803,689.104 872.803,689.344 
		872.803,692.225 872.803,697.265 872.803,699.186 873.043,702.546 873.043,705.186 873.043,705.427 873.043,713.827 
		873.283,721.508 873.283,729.429 873.283,736.869 873.283,737.83 873.283,743.11 873.522,744.069 873.522,744.311 873.522,744.551 
		873.522,744.79 873.522,745.511 873.522,745.75 873.522,746.71 873.522,746.95 873.522,747.19 873.522,747.67 873.522,747.91 
		873.522,748.391 873.522,749.11 873.522,751.751 873.522,752.231 873.522,752.951 873.522,753.671 873.522,753.911 
		873.763,757.991 874.003,764.712 874.003,765.192 874.003,766.873 874.003,767.593 874.003,769.993 874.003,770.713 
		874.003,770.952 874.003,772.394 874.003,773.833 874.003,775.033 873.283,775.273 872.563,775.754 871.844,776.473 
		871.363,776.953 870.883,777.434 870.643,777.673 870.403,777.914 869.923,778.394 869.684,778.634 869.443,778.873 
		868.244,780.313 866.804,781.273 864.404,782.714 863.685,783.435 863.205,784.154 863.205,784.394 863.205,784.874 
		863.205,785.354 863.685,785.835 864.165,787.034 864.404,787.515 864.645,787.754 865.364,788.715 866.084,789.194 
		867.044,790.155 867.283,790.155 867.283,790.395 867.523,790.395 868.004,791.355 869.203,792.795 870.163,794.235 
		870.403,794.715 870.643,795.436 871.844,796.396 872.083,797.115 872.803,798.315 873.283,799.516 873.283,799.756 
		873.283,800.476 873.043,802.156 872.803,802.156 872.803,802.396 872.563,802.636 871.604,803.597 871.604,803.836 
		871.363,804.076 870.643,804.797 870.163,805.276 869.443,805.996 868.483,807.196 868.244,807.196 867.523,808.156 
		866.564,809.837 866.324,810.317 866.324,810.797 866.324,811.277 866.564,811.277 866.804,811.997 867.283,812.717 
		867.764,813.437 867.764,813.677 868.004,813.917 868.244,813.917 868.724,813.917 868.963,814.157 869.203,814.157 
		873.522,814.157 875.202,814.397 876.162,814.397 876.643,814.637 877.122,814.877 877.842,815.117 878.082,815.117 
		878.322,815.117 878.563,815.357 879.762,816.317 880.002,816.798 880.242,816.798 880.242,817.038 880.481,817.998 
		880.242,818.957 880.242,819.198 880.002,819.438 880.002,820.157 879.762,820.397 879.521,820.638 879.281,821.118 
		879.042,821.357 877.842,822.559 876.402,823.519 875.922,823.998 875.683,823.998 875.202,824.478 874.963,824.719 
		874.963,824.959 874.242,825.678 874.003,826.398 874.003,826.639 874.003,827.358 874.482,828.799 876.162,831.198 
		876.402,832.159 876.882,833.599 876.882,833.84 876.882,834.079 876.882,834.319 876.643,834.56 876.643,834.799 876.402,835.039 
		875.442,835.279 874.482,835.279 873.283,835.279 871.604,834.56 870.163,834.079 868.963,833.84 867.283,833.599 866.324,833.599 
		865.604,833.359 864.885,833.599 864.404,833.84 863.685,834.319 863.444,834.319 862.725,834.799 862.005,835.279 861.765,835.52 
		859.125,836.719 857.926,837.199 856.966,837.199 854.807,836.719 852.406,836.719 852.166,836.719 851.207,836.719 
		850.728,836.719 850.247,836.96 850.007,837.199 849.768,837.199 849.287,837.439 847.607,839.119 845.928,840.08 844.488,840.8 
		843.528,841.28 842.328,842.24 841.369,842.96 840.648,843.2 840.169,843.439 838.969,843.92 838.249,844.4 837.529,845.12 
		835.61,846.32 835.369,846.32 834.65,846.801 834.41,847.04 833.93,847.761 833.93,848.001 832.97,848.961 832.25,849.44 
		831.771,849.921 830.811,850.641 830.091,851.602 829.37,852.081 828.171,852.802 826.731,853.521 824.331,854.241 
		823.853,854.241 823.372,854.241 822.173,854.481 821.932,854.481 821.692,854.481 820.252,853.761 819.772,853.761 
		818.573,853.041 818.333,853.041 817.373,852.081 817.133,852.081 816.413,851.121 814.494,848.001 814.014,847.281 
		813.533,846.32 813.054,846.081 811.614,845.36 810.174,844.881 809.215,844.64 808.975,844.64 807.055,844.4 806.095,844.64 
		804.655,844.64 801.057,845.601 800.815,845.84 800.576,845.84 800.096,846.081 799.616,846.32 797.937,846.561 796.257,846.801 
		796.257,847.04 796.018,847.04 795.777,847.04 795.297,847.04 795.057,847.04 794.817,846.801 794.098,846.801 793.138,846.561 
		791.698,846.081 791.218,846.081 790.738,846.081 790.498,845.84 789.298,845.84 	"/>
	
		<polyline clip-path="url(#SVGID_2_)" fill="none" stroke="#B37C34" stroke-width="0.7199" stroke-linecap="round" stroke-linejoin="round" stroke-miterlimit="3.85" points="
		789.298,845.84 788.578,846.081 787.619,846.32 787.378,846.561 785.939,847.281 785.459,848.001 784.739,848.961 784.739,849.201 
		783.779,850.401 783.299,851.121 782.819,853.761 782.819,854.241 782.819,854.961 782.819,855.682 783.059,856.161 
		783.299,856.401 784.499,858.322 785.459,860.481 785.698,862.402 785.698,862.882 785.698,863.843 785.459,865.522 
		785.698,869.603 785.698,869.843 785.698,870.563 785.939,871.283 786.179,871.764 786.419,872.482 787.378,874.163 
		788.578,876.323 789.058,878.244 789.298,878.244 789.298,878.484 789.298,879.684 789.298,881.604 789.058,882.564 
		789.058,882.805 788.338,884.244 787.858,884.724 786.898,885.685 785.459,886.404 783.059,887.604 782.58,887.845 782.34,888.085 
		781.859,888.324 781.619,888.564 781.379,888.805 781.14,889.045 780.9,889.525 780.42,890.725 780.18,890.965 780.18,891.205 
		780.18,891.444 779.939,892.405 779.699,892.645 779.699,892.886 779.699,893.125 778.5,895.045 777.54,896.246 777.301,896.246 
		777.061,896.485 776.34,896.726 775.381,897.206 774.66,897.686 774.182,897.926 773.94,897.926 773.461,898.165 773.221,898.165 
		771.781,898.646 770.822,898.886 769.382,899.126 767.941,899.126 766.022,899.365 764.343,899.846 761.943,901.526 
		761.463,902.006 759.544,905.127 759.544,905.366 759.544,905.606 759.544,906.086 759.304,906.327 759.304,906.566 
		758.344,908.967 758.104,908.967 758.104,909.687 757.864,910.167 757.864,910.406 757.144,912.567 757.144,912.807 
		757.144,913.048 757.144,913.768 757.144,915.688 757.144,915.928 757.144,916.647 756.904,917.607 756.184,919.288 
		755.944,920.008 755.944,920.248 755.944,920.488 755.465,921.928 755.225,922.168 754.984,923.128 754.744,923.368 
		754.265,924.328 754.024,924.568 753.305,925.528 753.064,926.008 752.824,926.248 752.105,927.448 752.105,927.688 
		751.865,927.929 751.865,928.169 751.625,928.169 750.665,929.129 750.186,929.369 748.266,930.568 747.785,930.81 
		746.586,931.529 745.866,932.01 744.427,932.969 743.467,933.449 742.507,934.169 742.267,934.169 741.787,934.409 
		740.827,934.409 740.587,934.409 739.387,933.449 738.428,932.489 738.668,932.249 738.668,932.01 737.468,931.049 736.988,930.81 
		736.269,930.568 734.828,930.568 734.348,930.81 734.108,931.049 733.148,931.289 731.948,931.529 731.229,931.769 
		730.028,932.249 729.309,932.969 728.829,933.689 728.349,934.409 728.109,936.569 728.109,937.05 728.109,937.29 728.109,937.77 
		727.869,938.25 727.869,938.73 727.869,939.689 727.39,940.89 727.149,941.37 726.91,941.61 726.189,942.811 726.189,943.051 
		725.71,943.29 725.47,943.53 723.551,944.971 722.831,945.931 721.871,946.651 719.711,949.531 719.471,950.251 718.991,951.211 
		718.991,951.451 717.791,954.571 717.791,958.652 718.271,962.973 718.511,963.933 718.511,966.093 718.511,966.813 
		718.271,968.732 717.312,971.133 717.071,972.094 717.071,972.333 717.071,972.573 716.831,973.053 716.831,973.294 
		716.591,974.733 716.591,977.134 716.352,977.614 716.352,978.814 716.111,979.534 715.632,980.494 714.911,981.454 
		714.432,982.174 713.712,982.895 713.473,982.895 712.272,983.614 711.793,983.854 711.552,983.854 711.313,983.854 
		710.832,984.094 710.593,984.094 708.193,984.335 705.313,984.814 705.073,985.055 704.834,985.055 703.394,985.294 
		701.715,985.774 700.754,986.255 700.274,986.255 700.274,986.494 700.035,986.735 699.794,986.735 699.794,986.975 
		699.555,987.694 699.555,987.936 699.555,988.415 699.794,990.575 699.794,991.535 699.555,991.775 699.555,992.015 
		699.555,992.256 699.314,992.256 699.314,992.495 699.074,992.495 698.835,992.735 698.595,992.735 698.595,992.976 
		698.595,992.735 698.114,992.735 697.875,992.735 697.635,992.495 697.395,992.495 697.395,992.256 696.915,992.015 
		696.676,991.775 696.195,991.295 695.955,990.814 695.715,990.335 695.476,990.095 695.235,989.615 694.756,988.655 
		694.035,987.455 693.556,986.255 693.796,986.015 693.556,985.535 693.315,985.535 692.836,984.814 692.596,984.814 
		692.356,984.574 691.876,984.335 691.876,984.094 691.636,984.094 690.437,983.374 690.196,983.374 689.956,983.135 
		688.757,982.654 687.077,982.174 686.598,982.174 685.877,982.174 685.397,982.174 685.157,982.174 684.918,982.174 
		684.438,982.174 683.717,982.174 683.478,982.414 682.277,982.654 681.798,982.895 680.357,983.135 679.878,983.374 
		679.639,983.374 679.158,983.374 678.198,983.135 676.759,982.174 676.519,982.174 675.799,981.935 675.559,981.694 
		675.079,981.454 674.84,981.454 674.119,981.215 671.96,980.015 671.239,979.054 670.04,977.854 667.641,976.653 667.16,976.414 
		666.201,975.693 665.961,975.453 665.24,974.733 665.001,974.494 664.281,973.053 664.041,972.813 663.321,968.732 
		663.321,967.053 663.321,966.813 663.321,966.573 663.561,965.613 664.041,963.213 664.041,962.973 664.281,962.012 
		664.281,961.052 664.281,960.812 664.281,959.611 663.321,957.932 661.881,955.771 659.242,954.091 658.762,954.331 
		658.282,954.331 657.322,954.812 656.362,956.012 656.362,956.492 656.603,957.932 656.603,959.372 656.123,960.332 
		655.883,960.572 654.923,961.292 654.683,961.292 652.283,961.532 648.924,961.052 648.444,961.292 647.244,962.252 
		646.284,964.173 646.044,965.373 645.084,965.853 644.604,965.613 642.925,963.692 642.685,963.452 641.245,962.492 
		640.766,962.012 640.525,962.012 637.886,961.772 636.926,962.252 636.206,963.213 635.966,963.213 635.726,964.173 
		635.486,965.613 635.966,966.573 636.686,967.532 638.606,968.493 640.286,969.213 641.005,970.894 640.525,972.813 
		640.525,973.053 639.806,974.253 637.646,976.174 634.767,976.894 633.567,977.134 632.127,977.134 630.687,977.134 
		629.007,977.373 628.048,977.614 627.808,977.854 627.568,978.334 627.088,980.254 627.088,980.494 627.088,982.174 
		627.088,983.135 626.848,984.335 626.848,986.015 627.088,989.135 627.088,991.535 627.328,992.735 627.808,994.176 
		628.048,994.656 629.007,995.615 629.248,996.336 629.487,996.336 629.487,996.815 629.728,997.535 629.728,998.496 
		629.728,998.977 629.487,998.977 629.248,999.216 629.248,999.456 629.007,999.456 628.048,1000.177 627.088,1000.656 
		626.848,1000.656 626.608,1000.896 625.888,1001.136 624.688,1001.136 624.448,1001.136 623.729,1000.896 621.089,1000.177 
		618.929,999.936 617.97,1000.177 617.729,1000.416 616.77,1001.616 616.53,1001.616 616.53,1001.856 616.29,1002.336 
		616.05,1003.057 616.05,1003.297 616.05,1004.017 616.05,1004.256 616.29,1007.137 616.29,1007.377 616.29,1008.097 
		616.05,1009.057 616.53,1009.777 616.53,1010.018 616.29,1010.497 615.33,1012.177 614.61,1012.657 613.89,1013.137 
		612.21,1014.337 611.251,1014.817 611.011,1014.817 610.531,1015.058 609.091,1015.298 608.371,1015.298 607.892,1015.058 
		607.412,1014.817 606.932,1013.857 606.932,1012.418 606.932,1011.457 607.412,1010.257 608.851,1007.137 609.331,1005.456 
		609.571,1004.736 609.571,1004.017 609.571,1003.776 609.331,1003.536 609.331,1003.297 609.331,1003.057 609.091,1003.057 
		609.091,1002.816 608.851,1002.816 608.611,1002.576 608.611,1002.336 606.932,1002.097 605.492,1001.616 605.252,1001.616 
		604.052,1001.616 603.332,1002.097 602.373,1002.816 600.693,1004.256 599.973,1004.736 598.773,1005.456 598.533,1005.697 
		598.293,1005.697 598.053,1005.697 598.053,1005.937 597.813,1005.697 596.613,1005.456 596.134,1005.217 595.894,1004.977 
		595.654,1004.497 595.414,1004.256 594.934,1003.536 594.454,1002.816 593.734,1002.097 593.014,1000.896 593.014,1000.656 
		592.774,1000.416 591.574,998.496 591.574,998.256 591.334,997.776 590.615,996.576 590.135,995.615 590.135,995.376 
		589.895,994.896 589.415,993.936 589.175,993.695 588.935,992.735 588.215,990.814 587.735,989.615 587.015,987.936 
		586.295,987.215 585.815,986.975 585.335,986.735 584.855,986.255 584.375,986.255 584.375,986.015 584.136,986.015 
		583.896,986.015 583.656,986.015 583.416,986.015 582.936,986.015 581.256,986.975 579.097,987.694 578.137,988.175 
		576.937,989.135 576.457,989.615 575.977,990.575 575.257,991.295 574.297,992.015 573.817,992.495 572.858,993.936 
		572.858,994.176 571.178,995.855 570.698,996.336 570.458,996.576 569.738,997.056 569.019,997.535 568.778,997.535 
		568.778,997.776 567.819,998.016 567.579,998.016 566.619,998.016 564.939,998.256 562.06,998.496 561.34,998.496 559.9,998.977 
		556.301,1000.416 555.341,1000.896 554.141,1001.616 553.901,1001.856 551.981,1003.297 551.742,1003.297 551.742,1003.536 
		551.502,1003.776 551.022,1004.256 550.782,1004.736 550.542,1004.977 550.302,1005.456 550.062,1005.697 550.062,1005.937 
		550.062,1006.416 550.062,1006.897 550.062,1007.137 550.302,1007.617 550.302,1008.337 550.302,1009.057 550.542,1009.057 
		550.542,1009.297 550.302,1010.018 549.582,1012.177 549.102,1013.137 548.862,1015.058 548.622,1016.738 548.143,1018.178 
		547.183,1021.298 546.703,1022.019 546.703,1022.258 546.703,1022.498 546.463,1022.738 546.223,1022.979 545.743,1023.459 
		545.263,1023.938 544.543,1024.659 543.343,1025.619 541.903,1026.099 540.464,1026.578 540.224,1026.578 539.744,1026.578 
		539.024,1026.578 538.784,1026.339 538.544,1026.339 537.824,1026.099 537.824,1025.859 537.584,1025.859 537.584,1025.619 
		537.104,1024.659 536.384,1022.019 535.665,1020.339 534.225,1017.698 534.225,1017.458 533.985,1017.218 533.265,1016.258 
		532.785,1015.777 532.305,1015.538 531.585,1015.298 530.146,1015.538 526.786,1015.058 525.347,1014.577 524.146,1014.098 
		519.107,1010.737 517.908,1009.537 517.668,1009.297 517.188,1008.577 516.948,1008.577 516.708,1008.337 516.468,1008.097 
		516.228,1007.617 515.988,1007.617 511.909,1004.736 509.75,1003.776 509.509,1003.536 507.59,1003.057 507.35,1003.057 
		507.11,1003.057 506.15,1002.576 505.67,1002.336 504.47,1001.376 504.23,1001.136 503.75,1000.656 503.271,1000.656 
		503.031,1000.416 501.591,998.977 501.591,998.735 501.831,998.496 501.591,998.496 500.391,997.776 499.431,997.535 
		498.951,997.296 498.711,997.296 497.512,996.815 497.271,996.576 496.792,996.576 495.832,996.336 495.592,996.336 
		495.352,996.096 494.872,996.096 494.152,996.096 493.432,996.096 492.232,996.096 490.553,996.576 490.313,996.576 
		490.073,996.815 489.593,997.056 487.914,998.016 487.914,998.256 487.193,998.735 485.514,1000.177 485.274,1000.177 
		484.794,1000.656 484.554,1000.896 484.074,1001.376 482.634,1002.816 481.915,1003.057 481.674,1003.057 480.955,1003.297 
		479.755,1002.097 478.315,1001.376 478.075,1001.376 475.916,1000.177 475.676,999.936 475.196,999.695 474.716,999.216 
		474.236,998.735 473.996,998.496 473.516,998.016 473.036,997.296 472.556,996.576 472.076,995.615 471.836,994.176 
		471.836,993.695 471.836,992.735 471.836,991.775 471.356,991.056 470.876,990.575 470.157,990.335 469.917,990.095 
		469.677,990.095 469.437,990.095 468.957,990.095 468.477,990.335 467.757,990.814 467.517,991.535 467.277,991.775 
		467.277,992.015 467.277,992.256 467.277,992.976 467.517,993.215 467.037,995.136 466.317,996.096 465.118,997.056 
		464.158,998.016 463.678,999.216 463.678,999.456 463.678,1000.416 463.918,1001.136 464.158,1001.376 464.397,1002.336 
		464.638,1002.336 464.638,1002.576 464.877,1003.057 465.118,1003.057 466.797,1004.497 467.757,1005.217 468.477,1005.697 
		468.477,1005.937 469.197,1006.656 469.437,1008.097 469.437,1008.817 469.677,1010.257 469.677,1011.697 469.437,1011.697 
		469.197,1012.418 468.477,1013.377 468.237,1013.857 467.037,1015.538 466.797,1015.777 466.797,1016.018 466.077,1016.738 
		465.837,1016.738 465.598,1016.978 465.357,1017.218 464.158,1017.698 462.718,1017.938 462.478,1017.938 462.238,1017.938 
		461.038,1018.178 460.318,1018.178 459.838,1018.178 459.599,1018.178 459.358,1018.178 459.119,1017.938 457.919,1017.938 
		457.679,1017.698 457.199,1017.698 457.199,1017.458 456.959,1017.458 456.719,1017.218 456.719,1016.978 456.479,1016.738 
		456.239,1016.258 455.999,1015.298 455.759,1014.337 455.759,1012.418 456.719,1010.737 456.959,1010.257 457.679,1009.537 
		458.159,1009.057 458.399,1008.577 458.639,1007.856 458.639,1006.897 458.399,1005.456 458.159,1004.977 457.439,1004.497 
		456.719,1004.017 456.719,1003.776 456.239,1003.776 455.999,1003.776 455.52,1003.536 455.279,1003.776 455.04,1003.776 
		454.799,1003.776 454.56,1004.017 453.12,1004.736 452.88,1004.736 451.44,1005.456 450.48,1005.697 450,1005.697 449.76,1005.697 
		449.521,1005.697 449.041,1005.456 448.081,1005.217 447.121,1005.217 446.401,1005.456 445.201,1005.697 444.721,1005.697 
		444.001,1005.937 442.562,1006.656 442.322,1007.137 441.362,1007.856 440.882,1008.097 440.642,1008.337 440.402,1008.577 
		439.682,1008.817 438.962,1008.817 437.042,1008.817 436.323,1008.817 435.843,1008.577 434.643,1008.577 433.683,1008.577 
		433.443,1008.337 433.204,1008.337 432.724,1007.856 432.244,1007.377 432.244,1007.137 432.244,1006.416 431.764,1005.697 
		431.524,1005.456 429.844,1004.017 429.604,1003.536 428.884,1001.856 428.644,1001.376 428.404,1001.136 427.924,1000.416 
		427.685,1000.177 427.444,1000.177 427.444,999.936 426.964,999.695 426.964,999.456 426.245,999.216 426.005,999.216 
		425.285,998.977 424.565,998.735 424.325,998.735 423.845,998.977 422.885,999.456 422.646,999.695 420.726,1002.097 
		420.246,1002.576 419.526,1003.776 419.286,1003.776 419.286,1004.017 418.806,1004.497 418.086,1005.456 417.846,1005.697 
		417.606,1006.177 417.366,1006.897 417.366,1007.137 417.366,1007.617 417.366,1007.856 417.366,1008.097 417.606,1008.577 
		417.606,1008.817 417.606,1009.057 417.846,1009.537 418.086,1010.018 419.286,1011.697 421.206,1013.377 421.925,1014.577 
		422.166,1015.777 422.885,1019.378 422.885,1019.618 422.646,1020.339 422.405,1021.298 421.686,1021.778 420.486,1022.258 
		419.286,1022.738 419.046,1022.738 418.806,1022.979 418.566,1023.219 418.326,1023.219 418.086,1023.698 418.086,1024.179 
		418.086,1024.659 417.606,1024.898 416.887,1027.059 416.646,1027.299 416.407,1027.539 416.167,1027.778 415.446,1028.019 
		414.487,1027.778 414.487,1027.539 413.287,1026.578 412.807,1026.099 412.567,1025.619 412.087,1024.898 410.888,1024.179 
		410.408,1024.179 409.928,1023.698 409.448,1023.459 408.968,1022.979 407.768,1022.498 406.329,1022.258 405.368,1022.258 
		404.409,1022.738 404.168,1021.778 402.729,1021.538 401.769,1021.058 401.289,1020.578 401.289,1020.339 400.809,1019.857 
		400.809,1019.139 401.049,1018.418 401.289,1017.698 402.009,1016.738 402.249,1015.777 402.009,1014.817 401.289,1014.337 
		401.049,1013.857 400.809,1013.618 400.329,1012.177 399.85,1010.257 400.329,1009.057 400.569,1008.097 400.809,1007.617 
		401.289,1007.137 402.249,1006.177 403.449,1005.217 403.688,1004.977 403.929,1003.536 403.209,1001.376 402.969,1001.136 
		402.249,999.216 402.249,998.735 403.449,995.855 403.688,995.615 404.649,994.415 406.088,992.495 406.808,991.535 
		407.048,989.375 405.128,983.854 404.889,983.135 404.649,980.734 404.409,980.494 404.889,979.294 405.128,978.094 
		405.368,977.854 405.849,976.414 407.528,975.934 408.248,975.693 410.408,974.733 411.127,972.333 410.888,970.894 
		409.688,969.693 409.448,968.973 409.208,968.253 409.208,966.332 410.167,965.132 410.408,964.413 412.807,962.492 
		413.047,962.492 414.247,962.252 417.126,961.532 417.606,961.052 417.846,960.812 418.566,960.092 418.806,959.853 
		419.526,959.132 420.246,958.172 420.726,957.452 420.726,956.492 420.726,956.012 420.486,955.291 420.246,954.812 
		419.766,953.852 418.566,953.131 415.207,950.731 412.807,948.331 411.607,945.931 411.607,944.971 411.847,943.771 
		412.327,942.811 412.327,942.57 412.567,942.09 	"/>
</g>
</svg>
