<?xml version="1.0" encoding="utf-8"?>
<!-- Generator: Adobe Illustrator 15.1.0, SVG Export Plug-In . SVG Version: 6.00 Build 0)  -->
<!DOCTYPE svg PUBLIC "-//W3C//DTD SVG 1.1//EN" "http://www.w3.org/Graphics/SVG/1.1/DTD/svg11.dtd">
<svg version="1.1" id="State" xmlns="http://www.w3.org/2000/svg" xmlns:xlink="http://www.w3.org/1999/xlink" x="0px" y="0px"
	 width="1296px" height="1296px" viewBox="0 0 1296 1296" enable-background="new 0 0 1296 1296" xml:space="preserve">
<g>
	<defs>
		<rect id="SVGID_1_" x="259.22" y="351.621" width="779.516" height="595.772"/>
	</defs>
	<clipPath id="SVGID_2_">
		<use xlink:href="#SVGID_1_"  overflow="visible"/>
	</clipPath>
	
		<polyline clip-path="url(#SVGID_2_)" fill="none" stroke="#B37C34" stroke-width="0.72" stroke-linecap="round" stroke-linejoin="round" stroke-miterlimit="3.85" points="
		294.74,452.677 294.5,452.917 294.26,452.917 293.78,452.677 293.3,452.197 292.34,451.477 291.86,451.477 291.62,451.237 
		291.38,450.517 291.86,450.037 291.86,450.277 292.1,450.277 292.34,449.797 292.34,447.876 292.34,447.396 292.34,447.156 
		292.1,447.156 292.1,446.916 292.1,446.676 293.06,446.676 293.06,446.916 293.3,446.916 293.3,447.156 293.54,447.156 
		293.54,447.396 294.02,447.396 294.979,447.396 295.22,447.636 295.459,447.636 295.7,447.636 296.66,447.396 297.62,446.676 
		297.86,446.676 298.1,445.956 298.1,445.716 298.1,445.476 298.34,445.236 298.34,444.756 298.1,444.276 297.62,442.355 
		297.38,441.155 297.86,440.915 298.1,440.195 298.34,439.955 298.58,439.715 298.58,439.475 298.82,439.475 298.58,439.475 
		298.58,438.755 298.58,437.314 298.58,436.354 299.06,435.875 299.06,435.634 299.3,435.395 299.3,435.154 299.3,433.714 
		299.06,433.474 299.06,432.994 299.06,432.274 298.82,432.034 298.34,431.794 298.34,432.034 298.1,432.034 297.62,432.274 
		295.939,430.834 295.7,430.834 295.459,430.354 295.22,430.354 294.74,429.394 294.26,428.673 293.54,428.434 294.02,427.713 
		294.02,427.473 294.02,427.233 294.02,426.993 294.02,426.753 293.54,426.513 293.3,426.513 292.82,426.273 292.58,426.273 
		292.1,426.513 291.86,426.273 291.62,426.273 291.38,426.033 290.66,423.873 290.66,423.633 290.42,423.393 290.9,422.433 
		292.1,421.472 292.34,421.232 292.58,420.752 292.58,420.512 292.58,419.312 293.06,418.832 292.82,417.632 292.58,417.392 
		292.1,416.912 291.62,416.912 291.38,416.671 291.14,416.671 291.14,415.951 292.1,415.951 298.82,416.191 307.459,416.432 
		308.18,416.432 318.74,416.912 320.9,416.912 321.14,416.912 325.22,417.151 327.379,417.151 329.779,417.151 334.1,417.392 
		334.58,417.392 335.54,417.392 335.779,417.392 338.66,417.392 347.06,417.632 351.859,417.872 355.7,418.112 358.1,418.112 
		360.02,418.112 365.06,418.352 373.22,418.592 376.1,418.592 377.539,418.592 378.259,418.592 386.419,418.832 391.699,419.072 
		392.659,419.072 396.739,419.072 397.219,419.072 399.62,419.312 404.899,419.312 411.619,419.552 412.579,419.552 
		414.739,419.552 415.939,419.552 418.339,419.552 420.5,419.552 425.779,419.792 426.979,419.792 427.219,419.792 431.539,419.792 
		432.739,419.792 438.979,420.032 440.899,420.032 441.619,420.032 444.979,420.032 448.579,420.272 448.819,420.272 
		450.019,420.272 450.259,420.272 451.459,420.272 451.939,420.272 455.059,420.272 456.019,420.272 458.419,420.272 
		462.739,420.512 464.899,420.512 465.139,420.512 467.059,420.512 469.459,420.512 471.619,420.512 473.779,420.752 
		475.939,420.752 478.099,420.752 478.339,420.752 481.219,420.752 482.659,420.752 482.899,420.752 484.339,420.752 
		484.579,420.752 484.819,420.752 486.019,420.752 486.499,420.752 491.299,420.992 498.259,420.992 502.819,420.992 
		504.499,420.992 511.459,421.232 511.699,421.232 516.979,421.232 517.459,421.232 525.139,421.472 527.539,421.472 
		530.179,421.472 530.659,421.472 536.418,421.472 537.858,421.472 538.819,421.472 543.858,421.712 552.259,421.712 
		556.818,421.712 563.298,421.712 565.699,421.712 567.619,421.712 567.858,421.712 568.818,421.712 569.298,421.712 
		569.539,421.712 570.019,421.712 571.218,421.952 572.179,421.952 578.898,421.952 582.979,421.952 592.099,421.952 
		596.178,422.192 602.418,422.192 602.658,422.192 605.538,422.192 609.378,422.192 611.298,422.192 612.258,422.192 
		612.498,422.192 613.218,422.192 618.738,422.192 622.338,422.192 626.898,422.192 628.818,422.192 631.698,422.192 
		632.178,422.192 635.538,422.192 636.738,422.192 637.218,422.192 637.698,422.192 638.418,422.192 638.898,422.192 
		643.218,422.192 645.378,422.192 646.578,422.192 648.738,422.192 651.618,422.192 657.618,422.192 658.818,422.192 
		660.738,422.192 661.938,422.192 665.538,422.192 665.777,422.192 668.418,422.192 672.019,422.192 674.178,421.952 
		675.139,421.952 679.698,421.952 685.458,421.952 688.098,421.952 690.019,421.952 693.138,421.952 696.498,421.952 
		698.657,421.952 699.857,421.952 701.298,421.952 701.538,421.952 702.979,421.952 705.378,421.952 709.698,421.952 
		711.857,421.952 712.098,421.952 714.258,421.712 718.338,421.712 723.378,421.712 725.058,421.712 725.298,421.712 
		727.218,421.712 729.378,421.712 729.857,421.712 738.738,421.472 740.418,421.472 742.098,421.472 750.258,421.232 
		751.938,421.232 753.617,421.232 756.498,421.232 756.738,421.232 758.897,421.232 760.098,421.232 760.817,421.232 
		762.498,421.232 765.138,421.232 765.377,421.232 766.817,421.232 767.537,420.992 770.897,420.992 771.138,420.992 
		778.577,420.992 779.777,420.992 781.938,420.752 790.338,420.752 792.018,420.752 792.978,420.752 800.897,420.512 
		804.498,420.512 805.217,420.512 805.457,420.512 807.377,420.512 808.338,420.512 816.257,420.272 818.418,420.272 
		818.657,420.272 821.297,420.272 823.217,420.272 823.457,420.032 825.137,420.032 826.338,420.032 826.577,420.032 
		828.497,420.032 830.897,420.032 831.137,420.032 831.617,420.032 831.857,420.032 835.217,420.032 838.338,419.792 
		839.777,419.792 840.497,419.792 841.217,419.792 841.938,419.792 842.417,419.792 843.377,419.792 844.098,419.792 
		844.338,419.792 844.577,419.792 845.057,419.792 847.217,419.792 851.777,419.552 852.737,419.552 853.697,419.552 
		858.497,419.312 861.377,419.312 861.617,419.312 863.537,419.312 863.777,419.312 868.816,419.072 870.978,419.072 
		871.697,419.072 871.938,419.072 880.577,418.832 881.537,418.832 883.938,418.832 884.657,418.832 885.617,418.832 
		888.736,418.592 888.736,419.072 888.736,419.552 888.736,420.032 888.978,420.992 888.978,421.712 888.497,423.152 
		888.018,424.113 887.537,424.593 887.537,424.833 887.297,424.833 887.297,425.313 887.297,425.553 887.297,426.273 
		887.777,426.993 889.457,429.153 889.938,429.874 890.177,430.114 890.417,430.354 890.417,430.594 890.657,430.834 
		890.897,431.554 891.137,432.034 891.137,432.754 891.137,433.474 891.377,433.954 891.377,434.674 891.377,435.395 
		891.137,436.114 890.657,437.075 890.657,437.795 890.417,438.035 889.938,438.515 889.697,438.515 889.697,438.755 
		889.697,438.995 889.697,439.235 890.177,440.435 890.657,441.155 890.897,441.635 891.137,441.635 891.856,441.875 
		892.577,441.875 892.816,441.875 893.537,442.115 894.497,442.835 896.417,443.796 898.337,444.516 898.816,444.756 
		899.297,444.996 900.257,445.716 900.497,445.956 900.736,445.956 901.697,446.916 904.337,450.037 905.057,451.477 
		905.777,452.677 906.018,453.157 906.018,453.637 905.777,454.357 905.777,454.597 906.018,454.837 906.257,454.837 
		906.978,454.837 907.217,455.078 907.457,455.317 907.457,455.558 907.457,455.797 907.457,456.518 907.217,457.238 
		906.978,457.478 906.736,457.958 906.018,458.678 905.297,459.878 904.337,460.838 902.177,463.239 901.938,463.239 
		901.457,463.719 900.978,464.199 900.736,464.679 900.497,465.159 900.497,466.119 899.297,468.279 898.816,468.76 898.577,469.96 
		898.337,470.92 898.097,471.4 898.097,471.64 897.137,473.08 896.656,473.32 895.457,473.8 894.978,474.28 894.736,474.761 
		894.736,475.241 894.736,475.721 894.736,476.681 894.978,479.081 894.978,482.682 894.978,483.642 894.736,484.122 
		894.736,484.602 894.978,485.082 894.978,485.322 895.217,487.002 895.217,487.482 895.217,488.203 895.457,488.923 
		895.457,489.163 895.697,490.363 896.177,491.803 896.177,492.043 897.617,496.124 897.617,496.604 897.617,498.044 
		897.856,498.524 898.337,499.244 898.816,499.964 898.816,500.205 898.816,500.444 898.816,500.685 899.057,500.925 
		899.057,501.165 899.057,501.405 898.577,502.845 898.577,503.565 898.577,503.805 899.057,505.245 899.057,505.485 
		899.297,505.965 899.297,506.445 899.297,506.925 899.057,507.646 899.057,508.125 899.057,508.606 899.297,508.846 
		899.297,509.086 899.537,509.326 900.018,509.326 900.978,509.806 902.417,510.526 902.656,510.766 903.137,511.246 
		903.856,511.966 904.337,512.446 904.577,513.646 904.577,515.327 904.816,516.047 905.057,516.767 905.537,517.247 
		905.537,517.487 905.537,517.727 905.297,518.447 905.057,519.888 905.297,520.368 905.537,520.607 905.777,520.607 
		906.497,520.607 906.978,520.848 906.978,522.048 907.217,523.968 907.217,524.208 907.457,525.648 907.938,526.849 
		908.177,527.569 908.177,528.769 908.177,529.489 908.417,529.729 908.656,529.969 909.137,530.449 909.377,530.929 
		909.377,531.169 909.377,531.409 909.137,531.649 908.897,531.649 908.897,532.129 908.897,532.37 908.897,532.609 
		909.377,532.609 909.617,532.85 909.856,533.089 910.097,533.33 910.097,534.05 910.337,534.53 910.576,534.53 910.816,534.53 
		911.057,534.53 911.297,534.29 911.777,534.29 912.017,534.29 912.017,534.53 912.257,534.53 912.497,534.53 912.497,534.77 
		912.736,535.01 912.736,535.25 912.736,535.73 912.978,535.97 913.217,536.45 914.417,537.17 914.656,537.17 915.377,536.93 
		916.337,537.65 916.816,537.89 917.777,538.61 918.736,540.291 918.977,540.531 919.457,540.771 920.417,541.011 921.617,541.731 
		921.856,541.971 922.097,542.211 923.057,542.451 923.536,542.451 924.497,542.211 924.977,541.971 925.457,541.971 
		926.177,542.451 927.617,543.411 927.856,543.411 928.097,543.411 928.576,543.651 929.297,543.891 929.777,543.891 
		930.017,544.131 931.457,544.371 933.137,544.852 934.097,545.091 935.536,545.332 938.417,546.052 939.377,546.052 
		940.576,546.292 941.297,546.532 941.536,546.532 942.496,546.771 943.456,547.012 943.697,547.012 944.656,547.252 
		945.617,547.492 946.816,547.732 948.257,548.212 949.456,548.692 949.456,548.932 949.697,549.172 950.177,549.652 
		950.416,550.372 950.416,550.853 951.137,552.053 951.377,552.772 951.617,553.013 952.097,554.453 952.097,555.173 
		952.097,555.413 952.337,555.893 953.057,557.093 953.297,557.333 953.536,557.573 953.777,557.813 955.217,559.014 
		955.456,560.454 956.177,561.654 957.137,562.614 957.377,563.094 957.617,564.294 957.617,564.535 957.617,565.015 
		957.856,565.495 958.097,566.455 958.097,567.175 957.856,568.135 956.896,569.575 956.177,570.535 956.177,571.016 
		956.177,571.976 956.416,572.696 957.377,573.656 957.856,574.136 958.097,574.136 959.776,575.576 961.937,576.536 
		963.856,577.017 964.336,577.497 964.816,577.497 966.017,577.977 966.257,578.217 966.736,578.457 967.217,579.177 
		967.456,579.897 967.456,581.097 967.697,581.337 967.937,581.817 968.656,582.297 972.257,583.737 973.456,584.217 
		973.697,584.458 973.937,584.458 974.177,584.698 974.656,585.178 975.377,585.898 975.856,586.138 976.097,586.378 
		976.576,586.378 976.816,586.378 977.297,586.618 977.297,586.858 977.776,587.098 977.776,587.578 978.017,587.818 
		978.256,588.538 978.496,588.538 978.496,588.778 978.977,589.258 979.696,589.979 980.416,590.458 980.656,590.458 
		980.896,590.699 981.137,591.179 982.336,593.339 982.576,593.579 983.057,594.059 983.536,594.299 983.776,594.539 
		984.017,595.019 984.017,595.499 984.017,595.739 984.017,595.979 983.776,596.219 983.536,596.459 983.776,597.18 983.776,598.14 
		983.536,599.1 983.297,599.82 983.297,600.06 983.057,600.3 982.816,601.02 982.576,601.26 982.576,601.5 982.576,602.22 
		983.297,603.661 983.536,604.141 983.776,604.861 983.776,605.101 984.017,605.821 984.256,605.821 984.256,606.061 
		984.496,606.301 985.217,606.781 986.416,608.221 986.896,608.941 986.896,609.662 987.137,609.662 987.377,610.142 
		989.297,611.822 990.496,612.302 990.977,612.782 991.456,613.022 993.616,613.262 994.816,613.742 996.017,614.702 
		996.256,614.702 997.217,615.182 997.696,615.422 998.176,615.663 998.416,615.663 1000.097,616.863 1001.536,617.343 
		1003.217,617.823 1003.696,617.823 1005.377,618.783 1006.816,619.503 1007.776,619.983 1008.496,620.463 1008.736,620.943 
		1008.736,621.663 1008.977,622.624 1009.456,623.824 1009.937,624.304 1010.176,624.304 1010.656,624.544 1011.136,624.544 
		1013.057,624.544 1013.297,625.024 1013.536,625.024 1014.017,625.744 1014.017,626.224 1014.017,626.944 1014.256,627.184 
		1014.256,627.424 1014.256,627.904 1014.256,628.145 1014.256,628.384 1014.256,628.625 1014.017,629.104 1014.017,629.345 
		1014.017,629.825 1014.017,630.064 1014.017,630.305 1013.536,631.985 1013.536,632.225 1014.017,633.905 1014.017,634.146 
		1014.017,635.345 1014.017,635.826 1014.256,637.266 1014.256,637.506 1014.736,637.746 1015.456,638.466 1015.696,638.946 
		1015.937,639.426 1015.937,640.146 1016.176,640.146 1016.176,640.386 1016.176,640.626 1016.416,640.866 1016.656,641.106 
		1016.896,641.586 1017.136,642.066 1017.136,643.027 1017.136,643.987 1016.656,645.187 1016.656,646.387 1016.416,646.867 
		1015.696,647.347 1015.696,647.587 1015.456,648.547 1014.977,649.508 1014.736,650.228 1014.736,651.428 1014.736,651.908 
		1015.217,652.628 1015.696,652.868 1015.937,653.348 1016.176,653.828 1016.416,654.068 1016.176,654.309 1016.176,656.469 
		1016.176,657.189 1016.176,657.429 1016.176,657.669 1016.176,657.909 1015.937,659.109 1014.977,661.27 1014.977,661.51 
		1014.736,662.229 1014.496,662.47 1014.496,663.189 1014.256,663.43 1014.256,663.67 1014.256,663.91 1014.256,664.15 
		1014.256,665.35 1014.017,665.83 1013.776,666.551 1013.776,666.79 1013.536,667.03 1013.297,667.271 1013.297,667.511 
		1013.297,667.751 1013.297,668.471 1013.297,668.71 1013.297,669.191 1013.297,669.671 1013.536,670.631 1013.776,672.311 
		1013.776,672.791 1013.536,673.031 1012.816,673.752 1011.136,674.472 1010.896,674.472 1010.656,674.472 1010.416,674.711 
		1009.696,674.952 1008.977,675.432 1006.816,676.872 1006.097,677.353 1006.097,677.592 1004.896,678.312 1004.416,678.792 
		1002.736,679.512 1002.496,679.752 1000.097,682.152 999.377,683.353 999.137,683.593 998.896,684.793 998.656,685.514 
		998.656,686.473 998.656,687.193 999.137,688.394 999.137,688.634 999.137,688.873 999.137,689.354 999.137,689.594 
		999.137,690.073 999.137,690.314 999.137,690.555 999.137,690.794 998.896,690.794 998.896,691.034 998.896,691.273 
		998.656,691.273 998.416,691.515 997.456,692.475 997.217,692.715 996.977,692.715 996.977,692.955 996.977,693.194 
		996.736,693.674 996.736,694.395 996.736,695.354 996.496,696.555 996.496,696.795 996.017,697.995 996.017,698.235 
		996.017,698.475 996.017,698.955 996.496,701.836 996.496,703.036 996.496,703.516 996.736,705.437 996.736,705.677 
		996.736,706.396 996.496,706.637 996.496,707.117 995.536,707.597 994.097,708.557 993.377,708.557 992.416,708.797 
		992.176,709.037 990.256,709.757 989.297,710.236 988.576,710.718 988.576,710.957 988.336,711.197 987.856,712.157 
		987.617,712.637 987.377,712.637 987.137,712.877 986.896,712.877 986.416,713.357 986.177,713.598 985.696,714.077 
		985.217,715.038 984.977,715.519 984.736,715.758 984.496,715.758 984.256,716.238 983.297,717.438 981.856,717.919 
		981.377,718.158 979.937,718.398 978.977,718.398 978.736,718.398 978.496,718.398 977.297,718.158 975.137,717.438 
		974.656,717.438 974.177,717.198 973.697,717.438 972.496,717.678 972.257,717.919 972.017,717.919 971.297,718.639 
		971.057,718.639 970.816,718.878 970.576,718.878 970.097,719.119 969.617,719.119 969.377,719.119 969.137,719.358 
		968.656,719.358 968.416,719.599 967.937,719.839 967.217,720.559 966.977,721.999 966.736,722.479 966.496,722.719 
		965.536,723.919 964.097,724.64 964.097,724.88 963.856,724.88 963.137,725.84 961.937,727.04 961.217,727.52 960.017,727.76 
		959.776,727.76 958.816,727.76 957.377,728.48 956.177,728.72 953.536,729.2 952.097,729.681 950.656,729.681 948.017,729.681 
		947.297,729.681 947.057,729.439 946.816,729.439 946.337,729.439 943.937,729.2 942.017,729.2 940.576,729.2 940.097,729.2 
		939.617,729.2 939.377,729.2 938.656,729.439 938.177,729.681 937.937,729.92 937.697,729.92 937.217,730.4 936.736,730.64 
		936.496,730.881 935.777,731.601 934.576,732.32 934.337,732.561 933.617,733.04 933.377,733.04 932.656,733.521 931.217,734.001 
		930.736,734.481 930.496,734.481 930.257,734.721 930.017,734.721 927.856,734.24 927.377,734.24 925.938,733.521 924.977,733.04 
		924.736,732.801 924.497,732.801 924.257,732.801 924.017,732.801 923.777,733.04 923.536,733.04 923.297,733.281 923.057,733.281 
		921.377,734.24 920.897,734.24 920.656,734.481 919.697,734.481 918.736,734.721 918.017,735.201 917.777,735.201 917.537,735.44 
		917.057,735.921 916.816,736.161 916.576,736.641 916.576,737.602 916.337,738.321 916.337,739.521 916.337,740.242 
		916.337,740.481 916.337,740.722 915.856,741.442 915.617,741.442 915.137,742.402 914.897,743.122 914.656,743.122 
		914.656,743.362 914.656,743.603 914.417,744.563 914.177,747.683 914.177,748.402 914.177,748.644 914.177,751.523 
		913.938,752.724 913.697,753.443 912.497,754.644 912.017,755.604 912.017,755.844 911.057,758.725 910.816,759.444 
		910.097,760.405 909.617,761.365 909.617,762.085 909.856,762.806 909.856,763.045 910.337,763.525 911.297,764.246 
		912.257,765.445 913.457,766.646 914.656,767.847 915.377,768.807 916.097,770.006 916.337,770.486 916.816,770.967 
		918.257,773.847 919.697,774.327 919.938,774.327 921.377,773.847 	"/>
	
		<polyline clip-path="url(#SVGID_2_)" fill="none" stroke="#B37C34" stroke-width="0.72" stroke-linecap="round" stroke-linejoin="round" stroke-miterlimit="3.85" points="
		921.377,773.847 921.617,773.847 921.856,773.847 922.097,773.847 922.337,773.847 922.816,774.087 923.297,774.327 
		923.777,774.567 924.017,774.807 924.017,775.047 924.497,775.287 924.497,775.527 924.977,776.487 925.217,776.728 
		925.217,776.968 925.457,777.207 925.457,777.447 925.697,777.928 926.656,779.128 927.377,780.809 927.856,781.528 
		928.337,782.008 929.057,783.448 929.297,783.929 929.536,784.169 929.777,784.409 929.536,785.849 929.536,786.089 
		929.297,787.769 929.536,788.249 929.777,789.449 930.017,790.89 930.257,791.61 930.257,793.05 930.496,793.53 930.257,794.49 
		930.017,795.931 930.257,797.131 930.017,797.851 929.777,799.771 929.057,800.972 928.816,801.932 928.816,802.411 
		929.297,803.611 929.536,804.812 929.536,805.292 929.536,806.012 929.536,806.492 929.057,807.452 929.057,807.692 
		928.816,808.652 928.576,810.332 928.337,810.813 927.856,811.293 926.656,812.013 925.938,812.493 924.497,813.213 
		924.257,813.213 924.017,813.453 923.777,813.453 923.777,813.693 923.536,813.934 923.297,814.173 923.057,814.413 
		923.057,814.653 922.816,814.894 922.816,815.133 922.576,815.373 922.337,815.854 921.856,816.813 921.377,817.534 
		921.137,817.534 920.177,818.254 919.938,818.494 919.697,818.734 919.457,818.974 919.217,819.214 918.977,819.935 
		918.736,820.894 918.017,822.335 917.777,822.814 916.816,823.294 915.617,824.735 914.177,826.175 914.177,826.415 
		913.938,826.655 913.938,826.895 913.697,827.855 913.457,828.095 913.457,828.335 913.457,828.575 913.457,829.056 
		913.457,829.295 913.457,829.535 913.697,830.256 913.938,830.735 914.177,830.976 914.177,831.216 914.177,831.456 
		914.177,831.936 914.177,832.656 914.177,832.896 914.177,833.136 913.938,833.856 913.938,834.097 913.697,834.816 
		913.457,835.536 912.978,836.497 912.736,836.977 912.497,837.457 912.257,838.177 911.777,840.577 911.777,841.298 
		911.777,841.777 911.777,842.018 912.017,842.257 912.257,843.938 912.257,844.657 912.257,845.618 911.777,846.339 
		911.537,848.979 911.297,849.459 911.057,849.698 911.057,849.939 909.377,851.14 907.457,852.339 906.978,852.819 
		903.856,854.979 903.377,854.979 903.137,854.979 902.897,855.22 902.417,855.22 900.018,854.979 899.057,854.979 896.656,854.979 
		896.177,854.979 895.938,855.22 895.697,855.22 895.457,855.22 895.217,855.46 894.736,855.699 894.497,855.699 893.537,855.939 
		891.137,856.66 890.657,856.66 889.938,856.9 889.938,857.14 889.697,857.14 888.018,858.101 886.816,858.58 886.098,859.061 
		885.856,859.061 885.137,859.54 884.417,860.021 884.417,860.261 883.938,860.98 883.217,861.94 883.217,862.181 882.257,863.86 
		881.537,865.061 881.297,865.302 880.577,866.021 879.137,867.461 878.657,868.182 878.657,868.661 878.657,869.382 
		878.657,870.103 878.897,870.582 879.377,870.822 880.098,871.302 880.816,871.542 881.297,871.782 881.537,872.262 
		882.018,872.982 883.217,874.423 883.217,874.663 883.217,874.902 883.457,875.143 883.457,875.383 883.697,876.343 
		883.697,876.583 883.697,876.823 883.697,877.303 883.697,877.783 883.697,878.743 883.457,879.943 883.457,880.184 
		883.217,880.423 882.978,881.384 882.736,881.864 882.497,882.344 882.257,883.064 882.018,883.784 882.018,884.023 
		882.018,884.504 882.018,884.744 881.777,885.224 882.018,885.944 882.018,886.185 882.018,886.665 882.257,886.904 
		882.257,887.145 882.497,887.624 882.978,888.824 882.978,889.064 882.978,890.025 883.217,890.505 883.217,890.985 
		883.217,891.226 883.217,891.465 882.978,891.705 882.736,892.905 882.497,893.146 882.018,893.626 881.537,893.865 
		881.297,894.105 881.057,894.105 880.816,894.105 880.577,894.105 880.337,894.346 879.856,894.346 878.417,894.585 
		878.177,894.585 877.697,895.065 877.457,894.585 877.217,894.585 876.978,894.585 876.257,894.346 875.777,894.105 
		875.537,894.105 875.057,893.865 874.337,895.065 874.098,895.306 873.856,895.546 872.657,895.546 872.417,895.546 
		872.417,895.306 872.417,894.826 872.417,894.105 871.697,894.585 870.978,894.585 870.737,894.826 870.497,894.585 
		870.257,894.346 869.297,892.905 869.297,892.665 869.537,891.945 869.777,891.705 869.777,891.465 869.537,891.226 
		869.057,891.465 869.057,891.705 868.577,891.705 868.098,891.705 867.617,891.465 867.377,891.465 867.377,891.226 
		867.137,890.985 866.657,890.745 866.177,890.745 865.697,890.505 865.457,890.505 865.217,890.025 864.978,889.545 
		865.217,889.064 865.697,888.104 865.938,887.385 865.938,887.145 865.938,886.904 865.217,886.904 864.737,886.904 
		864.257,886.424 864.257,886.185 864.257,885.944 864.497,885.465 864.978,884.984 865.217,884.744 865.457,884.504 
		865.457,884.265 865.457,884.023 865.217,883.544 865.217,883.304 864.978,883.064 864.737,883.064 864.497,883.064 
		864.018,883.064 863.057,883.304 861.856,883.304 860.657,882.823 860.177,882.584 859.457,882.104 858.737,881.384 
		858.497,881.144 858.497,880.903 858.257,880.184 857.777,878.983 857.537,878.264 857.297,878.264 857.057,877.783 
		856.337,877.543 856.098,877.303 855.377,877.063 854.897,876.823 854.417,876.343 853.938,876.103 853.697,875.623 
		853.697,874.902 853.697,874.423 853.938,872.982 854.177,871.782 853.938,871.062 853.938,870.822 853.697,870.582 
		853.457,870.582 853.217,870.582 853.217,870.342 851.777,870.103 849.857,869.622 847.938,869.382 846.737,869.142 
		845.777,868.422 845.537,868.182 845.537,867.702 845.537,867.461 846.018,865.541 846.018,865.302 846.018,864.82 
		845.777,864.581 844.817,863.86 842.897,862.901 842.417,862.421 841.938,861.94 840.978,860.021 834.257,860.501 833.297,860.501 
		832.817,860.501 831.137,860.74 829.938,860.74 828.978,860.74 828.978,860.98 824.897,861.221 816.497,861.701 816.018,861.701 
		815.537,861.701 812.897,861.94 809.777,861.94 806.177,862.181 803.297,862.421 802.577,862.421 802.098,862.421 801.857,862.421 
		801.617,862.421 801.377,862.421 799.938,862.421 798.737,862.66 798.257,862.66 788.657,862.901 786.737,863.141 786.018,863.141 
		784.338,863.141 782.178,863.141 780.978,863.141 775.457,863.381 774.737,863.381 771.138,863.621 768.737,863.86 765.377,863.86 
		762.018,864.102 759.857,864.102 756.738,864.102 756.018,864.102 754.577,864.341 753.617,864.341 753.377,864.341 
		748.817,864.581 744.498,864.82 742.098,864.82 735.378,865.061 729.857,865.302 729.378,865.302 726.498,865.302 723.378,865.541 
		722.657,865.541 721.938,865.541 721.698,865.541 713.298,865.541 712.577,865.781 709.938,865.781 709.458,865.781 
		709.218,865.781 708.738,865.781 707.538,865.781 706.098,865.781 704.657,865.781 700.098,865.781 699.857,865.781 
		698.418,866.021 696.258,866.021 695.538,866.021 683.538,866.502 683.058,866.502 682.098,866.502 681.857,866.502 
		677.538,866.741 669.618,866.981 668.658,866.981 663.139,866.981 656.418,867.222 655.219,867.222 653.298,867.222 
		649.938,867.222 642.018,867.222 639.378,867.222 639.138,867.222 636.498,867.222 633.858,867.222 632.898,867.222 
		632.658,867.222 632.418,867.222 632.178,867.222 631.938,867.222 631.698,867.222 631.458,867.222 629.778,867.222 
		629.058,867.222 628.818,867.222 628.578,867.222 628.338,867.222 627.858,867.222 627.618,867.222 624.018,867.222 
		620.898,867.461 617.058,867.461 616.818,867.461 616.578,867.461 615.618,867.461 615.378,867.461 614.658,867.461 
		613.218,867.461 609.378,867.702 608.898,867.702 607.698,867.702 607.218,867.702 606.499,867.461 606.258,867.461 
		603.858,867.461 603.378,867.461 601.938,867.702 598.578,867.702 598.338,867.702 595.698,867.702 594.258,867.702 
		590.178,867.702 588.979,867.702 588.738,867.702 587.298,867.702 584.658,867.941 584.418,867.941 584.178,867.941 
		581.539,867.941 579.858,867.941 578.658,867.941 576.738,867.941 575.539,867.941 573.378,867.941 567.858,868.182 
		566.898,868.182 566.659,868.182 563.539,868.182 563.298,868.182 562.099,868.182 550.818,868.182 550.579,868.182 
		550.338,868.182 549.858,868.182 548.898,868.182 543.858,868.182 542.898,868.182 541.219,868.182 539.539,868.182 
		538.099,868.182 536.898,868.182 535.699,868.182 532.099,868.182 530.418,867.941 527.299,867.941 523.699,867.941 
		522.499,867.941 520.339,867.941 515.299,867.941 514.819,867.941 514.579,867.941 514.339,867.941 513.619,867.941 
		509.059,867.941 508.099,867.941 503.779,867.702 498.019,867.461 497.299,867.461 496.819,867.461 496.099,867.461 
		494.179,867.461 493.939,867.461 490.579,867.461 487.219,867.222 484.339,867.222 484.099,867.222 482.899,866.981 
		481.939,866.981 481.459,866.981 473.059,866.741 472.579,866.741 470.899,866.741 466.339,866.502 464.899,866.502 
		463.219,866.502 462.019,866.502 458.419,866.261 457.939,866.261 457.459,866.261 456.499,866.261 453.139,866.021 
		451.699,866.021 449.779,866.021 448.579,866.021 448.339,866.021 448.099,866.021 447.139,865.781 444.259,865.781 
		443.059,865.781 442.099,865.781 437.539,865.541 436.579,865.541 436.339,865.541 435.859,865.541 435.619,865.541 
		435.379,865.541 434.179,865.541 431.779,865.302 431.059,865.302 422.179,865.061 419.539,864.82 417.619,864.82 412.819,864.581 
		410.899,864.581 406.579,864.341 404.419,864.341 400.1,864.102 399.859,864.102 399.139,864.102 397.699,864.102 396.739,864.102 
		394.339,863.86 390.02,863.86 386.899,863.621 386.419,863.621 386.179,863.621 385.22,863.621 381.14,863.381 374.419,863.141 
		372.259,863.141 372.979,862.421 373.7,861.94 373.939,861.221 374.179,860.74 374.179,860.501 374.179,860.261 374.179,860.021 
		374.179,859.78 373.939,859.54 373.7,859.301 373.22,858.82 372.5,858.101 372.259,857.86 372.02,857.62 371.779,857.14 
		371.779,855.939 371.779,855.46 371.779,855.22 371.779,854.979 371.779,854.739 371.779,854.499 371.54,854.26 371.54,854.02 
		371.299,854.02 371.299,853.539 370.579,852.579 370.339,852.339 370.1,852.099 369.62,851.619 368.899,851.14 367.939,850.659 
		366.739,850.659 366.02,850.419 365.779,850.419 365.779,850.179 365.06,849.939 364.82,849.698 364.339,849.459 364.339,849.219 
		364.1,849.219 363.62,848.739 363.379,848.258 363.139,848.019 363.139,847.778 363.139,846.818 363.139,846.339 363.139,846.098 
		362.899,845.618 362.659,844.897 362.419,844.897 361.939,844.178 361.7,843.938 361.459,843.698 360.739,843.457 360.5,843.218 
		360.02,842.978 359.779,842.978 359.06,842.498 358.82,842.018 358.58,840.338 358.58,839.617 358.82,838.657 359.06,837.937 
		359.54,837.217 359.779,837.217 359.779,836.977 360.259,836.497 360.5,836.497 360.5,836.257 360.739,836.257 361.459,835.776 
		361.7,835.776 362.179,835.536 362.419,835.297 362.899,835.297 363.379,835.057 363.379,834.816 363.62,834.816 363.859,834.576 
		364.339,833.856 364.58,833.616 364.82,833.376 365.06,832.656 365.06,831.936 364.82,831.456 364.1,829.535 363.859,828.575 
		363.859,828.335 363.859,827.855 364.1,827.375 364.58,826.175 364.82,825.455 364.82,824.735 364.82,824.494 364.339,823.055 
		363.859,821.854 363.62,821.135 363.62,820.894 363.62,820.654 363.859,820.174 363.859,819.935 364.339,819.454 364.58,819.214 
		364.82,819.214 364.82,818.974 365.06,818.974 366.5,818.734 366.979,818.254 367.22,818.254 367.459,818.254 367.459,818.014 
		367.7,817.773 367.939,817.534 367.939,817.294 368.179,817.054 368.419,816.334 368.419,815.854 368.179,815.613 368.179,815.373 
		367.939,814.653 367.7,814.413 367.22,813.934 366.02,812.493 365.779,812.253 365.3,811.532 365.3,811.053 365.06,810.573 
		365.06,809.853 365.06,808.652 365.3,807.212 365.779,806.012 366.259,805.052 366.5,803.852 366.5,803.372 366.259,802.892 
		366.02,802.411 366.02,802.172 365.779,802.172 365.54,801.932 365.3,801.691 365.06,801.451 364.82,801.211 364.58,801.211 
		364.339,800.972 363.859,800.731 363.379,800.731 363.139,800.491 362.899,800.251 362.659,800.251 362.659,800.011 
		362.419,800.011 362.419,799.771 362.179,799.531 362.179,799.291 361.939,798.57 361.939,798.091 361.939,797.61 362.419,796.891 
		363.139,795.69 363.139,794.73 363.139,794.011 363.139,793.77 362.899,793.53 361.939,792.569 361.459,792.09 360.979,791.369 
		360.739,790.89 360.5,790.41 360.5,790.169 360.739,789.93 360.739,789.689 360.739,789.449 361.22,788.969 361.7,788.489 
		361.939,788.01 362.179,787.769 362.659,787.289 362.659,787.049 362.899,786.81 362.899,786.568 362.899,786.089 362.899,785.369 
		362.659,784.169 362.659,781.528 362.419,780.568 361.22,778.407 360.979,777.447 360.739,776.487 360.739,775.768 
		360.979,775.768 361.22,775.047 361.7,774.327 362.179,773.847 362.419,773.847 362.659,773.847 363.139,774.087 364.339,774.327 
		365.3,774.087 365.779,773.606 365.779,772.887 365.54,772.166 364.82,771.447 364.1,770.967 363.139,770.967 362.179,770.967 
		357.859,771.206 357.379,771.206 356.899,770.967 356.659,770.727 356.419,770.247 356.179,769.526 355.939,768.565 
		356.419,767.126 357.62,765.445 357.859,764.726 358.1,764.006 358.1,763.765 358.1,763.045 357.62,762.325 357.379,761.605 
		357.379,761.365 356.899,759.925 356.899,759.685 356.899,758.965 357.139,758.484 357.379,758.244 357.859,758.005 
		357.379,757.524 356.659,757.044 356.419,756.805 356.179,756.564 356.179,755.844 356.179,755.124 356.179,754.884 
		356.419,753.924 356.899,753.684 357.139,753.443 358.82,753.684 359.06,753.684 359.06,754.164 359.06,754.644 358.34,756.084 
		358.1,756.805 359.06,757.765 360.5,757.044 361.459,756.564 362.179,756.084 362.659,755.364 362.899,754.404 362.419,752.724 
		362.179,752.003 361.7,751.283 360.979,750.803 359.779,750.563 358.34,750.563 358.1,750.563 357.139,750.323 356.659,750.323 
		356.659,750.083 355.22,749.123 354.739,748.644 354.259,748.402 353.54,747.443 353.3,746.723 353.3,746.002 353.54,745.763 
		353.779,745.522 355.22,744.802 355.7,744.322 356.179,743.843 356.659,742.882 356.419,742.162 355.939,740.722 355.7,739.521 
		355.7,739.041 356.419,737.361 356.659,736.641 356.659,736.161 356.419,735.44 356.419,734.961 356.419,734.721 356.419,734.001 
		356.419,733.521 356.659,733.281 357.379,732.32 357.62,732.081 357.859,731.601 357.859,731.12 357.859,730.64 357.62,729.92 
		357.379,729.439 356.419,728.72 355.939,728.48 355.7,728.239 355.459,728.239 354.979,728.239 353.779,728.72 353.06,728.72 
		352.82,728.72 351.859,728 351.62,728 350.659,727.52 349.939,727.52 348.259,727.04 348.02,727.04 347.779,726.8 347.54,726.56 
		347.06,725.84 347.06,725.6 346.58,724.88 346.58,724.64 346.82,724.399 347.06,723.919 348.02,723.199 349.22,722.239 
		349.459,721.999 349.7,721.519 349.939,721.039 349.939,720.799 349.939,720.318 349.7,719.358 349.7,719.119 349.22,716.958 
		348.979,716.719 348.5,716.238 348.02,715.998 347.3,715.758 346.82,715.998 346.58,715.998 346.1,716.478 345.859,716.719 
		345.62,718.639 345.14,720.799 344.9,721.519 344.66,721.519 344.42,721.759 344.179,721.759 343.7,721.759 343.459,721.759 
		343.22,721.519 342.979,721.519 342.739,721.519 342.739,721.279 342.5,721.279 342.259,721.039 341.779,720.318 341.779,720.078 
		341.54,720.078 341.3,719.599 340.82,718.878 340.58,718.878 340.34,718.639 339.859,718.398 338.9,717.919 338.9,717.678 
		338.42,716.719 338.18,715.519 338.18,714.798 338.42,714.077 338.42,713.838 338.66,713.357 339.14,712.877 339.62,712.397 
		339.859,711.918 340.1,711.437 340.1,710.957 339.859,710.478 339.859,709.997 339.62,709.518 339.14,709.277 337.7,708.557 
		337.459,708.317 336.979,708.077 336.979,707.837 336.5,706.877 336.259,706.637 336.259,706.396 336.02,705.677 336.02,705.196 
		336.02,704.717 336.259,703.996 336.5,703.756 337.939,701.836 338.42,701.355 338.66,700.155 338.66,699.676 338.66,699.436 
		338.66,699.195 338.66,698.955 338.42,698.475 338.18,697.995 337.22,697.035 336.979,696.795 336.5,696.555 336.259,696.074 
		336.02,695.354 335.779,694.635 336.02,693.915 336.02,693.674 336.02,693.435 336.259,692.955 336.979,692.475 337.22,692.234 
		337.939,692.234 339.379,692.475 340.34,692.475 340.82,692.234 341.06,691.994 341.54,691.515 341.54,691.273 341.54,690.794 
		341.54,690.555 341.3,690.073 340.82,689.354 339.859,688.873 339.14,688.394 338.18,687.914 337.939,687.193 337.939,686.953 
		337.939,686.233 338.18,685.273 338.42,685.033 338.9,684.793 338.9,684.553 339.14,684.553 339.62,684.553 340.34,684.073 
		341.06,683.353 341.06,682.873 341.06,682.633 341.06,681.433 341.3,680.473 341.3,680.232 341.779,679.512 342.5,678.792 
		342.739,678.792 342.739,678.552 342.979,678.072 342.739,677.592 342.739,676.872 342.5,676.872 342.259,676.392 341.779,675.672 
		341.06,675.432 339.62,674.952 339.14,674.711 338.66,674.231 338.42,674.231 338.18,673.991 338.18,673.752 338.18,673.511 
		337.939,673.271 337.7,672.552 337.7,672.311 337.7,672.071 338.18,670.871 338.18,670.631 338.18,670.151 337.939,669.431 
		337.7,668.951 337.459,668.71 337.22,668.471 336.979,668.23 	"/>
	
		<polyline clip-path="url(#SVGID_2_)" fill="none" stroke="#B37C34" stroke-width="0.72" stroke-linecap="round" stroke-linejoin="round" stroke-miterlimit="3.85" points="
		336.979,668.23 336.5,667.99 335.779,667.511 335.54,667.271 335.06,667.271 334.82,666.79 334.58,666.311 334.34,666.311 
		334.34,666.07 334.1,665.83 333.859,665.35 333.859,664.87 333.859,663.91 333.62,663.189 333.379,662.71 332.66,661.989 
		332.66,661.75 332.66,661.51 332.42,661.27 332.42,660.79 332.18,660.549 332.42,660.549 332.42,660.31 332.66,659.829 
		333.14,659.59 334.34,659.109 334.58,659.109 334.82,658.869 335.3,658.39 335.3,657.909 335.3,657.669 335.3,657.429 
		335.3,657.189 334.58,655.748 334.34,655.269 334.58,654.789 334.58,654.548 335.3,653.828 335.54,653.589 335.779,653.108 
		336.02,652.628 336.259,651.668 336.259,650.948 336.259,650.708 336.02,650.228 335.54,649.988 335.06,649.508 334.82,649.508 
		333.379,649.268 333.14,649.268 332.9,649.268 331.939,649.268 331.22,649.748 330.979,649.748 330.74,649.748 330.02,649.748 
		329.779,649.508 329.54,649.268 329.3,649.027 329.3,648.788 329.3,648.547 329.3,648.308 329.3,648.067 329.54,647.827 
		330.02,646.867 330.259,646.387 330.259,646.147 330.259,645.667 329.779,645.187 329.06,644.707 327.859,644.707 326.66,644.947 
		326.42,645.427 326.18,646.147 325.939,646.387 325.7,646.627 325.459,646.867 325.22,646.867 324.979,646.867 324.26,646.627 
		324.26,646.387 324.02,646.147 323.78,646.147 323.78,645.907 323.54,645.667 323.54,645.427 323.78,644.947 324.02,643.987 
		324.26,643.987 325.459,643.027 325.939,642.546 325.939,642.307 326.18,642.066 326.18,641.586 325.939,640.866 325.7,640.626 
		325.459,640.386 324.979,639.906 324.26,639.666 323.3,639.666 322.34,639.906 322.34,640.146 321.62,639.906 321.379,639.666 
		320.9,639.426 320.42,638.946 320.42,638.706 320.18,637.986 319.7,636.545 319.7,635.345 319.7,635.105 319.7,634.625 
		320.18,633.425 320.18,633.185 320.42,632.945 320.42,632.705 320.66,632.225 321.14,631.265 321.379,630.064 321.379,629.104 
		321.14,628.625 320.9,628.145 320.9,627.664 320.42,627.424 319.939,626.944 319.22,626.704 317.78,626.224 317.54,626.224 
		317.06,625.984 316.82,625.744 316.58,625.504 316.1,624.784 315.859,623.824 315.62,623.344 315.14,622.624 314.9,622.624 
		314.9,622.383 314.42,622.144 313.459,621.663 313.22,621.183 312.979,621.183 312.979,620.943 312.5,620.223 312.26,619.503 
		312.26,619.263 312.26,618.543 312.26,618.303 312.26,618.063 312.5,617.103 312.74,617.103 312.5,616.623 312.5,616.382 
		312.5,616.143 312.5,615.902 312.5,615.663 312.5,615.422 312.26,615.182 312.26,614.942 311.54,613.982 311.3,613.742 
		311.3,613.502 311.54,612.782 311.78,612.782 312.979,612.302 313.22,612.302 313.7,612.302 313.939,612.302 314.42,611.822 
		314.66,611.582 315.379,610.622 315.62,610.381 315.62,610.142 315.379,609.662 315.14,609.421 314.9,608.941 314.9,608.701 
		314.9,608.461 315.14,607.501 315.14,606.781 314.9,606.061 314.18,605.341 313.7,604.621 312.02,603.42 311.54,602.94 
		311.06,601.98 310.82,601.02 310.82,599.58 310.82,599.1 310.82,598.38 310.58,598.14 310.58,597.66 310.1,596.939 309.14,595.739 
		307.7,595.019 306.979,594.299 306.5,593.819 306.02,593.339 305.78,592.859 305.78,592.379 305.54,591.659 305.54,591.179 
		305.54,590.699 305.54,590.218 305.78,589.738 306.02,589.499 306.26,589.018 306.74,588.058 306.74,587.818 306.74,587.578 
		306.5,587.338 306.5,587.098 306.5,586.858 306.26,586.378 306.02,585.417 306.02,584.217 306.26,583.257 306.5,582.777 
		307.939,580.857 309.379,579.417 309.62,578.697 310.1,577.497 310.34,576.536 310.1,575.096 309.859,573.416 309.62,573.176 
		308.9,571.976 308.66,571.496 307.22,571.016 306.74,571.016 305.78,570.775 305.54,570.775 305.06,570.775 303.62,570.535 
		303.38,570.535 301.939,570.055 301.22,570.295 299.78,570.055 299.54,569.815 299.54,569.575 299.54,569.095 299.78,568.855 
		300.02,568.375 299.54,567.415 299.3,567.175 298.82,567.175 298.1,566.935 297.86,566.215 298.1,565.734 299.3,565.254 
		299.54,564.774 299.3,564.294 299.54,563.334 299.78,561.894 299.78,560.214 297.86,560.214 297.38,559.974 297.38,559.494 
		297.38,558.773 297.38,558.534 297.38,558.053 297.62,557.813 298.1,558.053 298.58,558.053 298.82,557.813 298.82,557.573 
		299.06,557.333 298.82,557.333 298.58,557.093 298.34,557.093 297.86,556.613 297.86,556.373 297.86,556.133 298.1,555.893 
		298.1,555.653 297.86,555.413 297.38,555.173 297.38,554.933 297.38,554.693 297.38,554.453 297.14,553.013 296.9,552.772 
		296.66,551.813 296.42,551.572 296.18,551.333 295.7,551.092 295.459,551.333 294.979,551.572 294.74,552.053 294.5,552.053 
		294.26,552.053 294.26,551.813 294.02,551.572 294.02,551.333 294.02,551.092 294.02,550.853 294.26,550.853 294.5,550.612 
		294.979,550.612 295.22,550.612 295.459,550.372 295.7,550.132 295.939,549.652 295.939,549.412 295.939,549.172 295.7,548.932 
		294.74,547.252 294.26,547.012 294.02,546.771 293.78,546.771 293.78,546.532 293.54,546.292 293.54,546.052 293.3,546.052 
		293.54,545.812 293.54,545.332 293.54,544.852 293.06,544.131 292.82,543.891 292.58,543.891 291.38,544.371 291.14,544.371 
		291.14,543.651 291.38,543.651 291.62,543.411 291.14,542.691 290.42,541.731 290.18,541.731 289.94,541.971 289.94,542.211 
		289.94,542.451 289.7,542.451 289.22,542.451 288.979,542.211 289.459,541.731 289.459,541.491 289.459,541.251 289.459,540.771 
		289.459,540.531 288.26,539.811 287.54,539.811 287.06,539.571 287.3,539.331 287.06,538.61 286.82,538.371 286.58,538.13 
		286.58,538.371 286.1,538.61 285.62,538.61 285.38,538.61 285.38,538.371 285.38,538.13 285.14,538.13 284.66,537.89 
		283.46,536.93 283.46,536.45 283.7,536.21 284.18,535.73 284.18,533.81 283.94,533.81 283.22,534.05 282.74,532.37 282.5,532.37 
		282.5,532.129 282.74,531.649 282.98,531.409 283.46,530.929 283.7,530.209 284.18,529.729 284.66,529.729 284.9,529.489 
		284.9,529.009 284.66,529.009 284.42,529.009 283.94,529.009 283.46,528.289 283.46,527.329 283.46,527.089 283.7,527.089 
		283.94,526.849 284.18,526.608 284.66,525.648 285.14,524.928 285.38,524.928 285.62,524.928 286.58,525.168 286.82,525.168 
		287.06,524.448 287.78,523.728 288.26,522.528 288.26,522.048 288.26,521.808 288.5,521.328 288.26,521.088 287.78,521.088 
		287.78,520.368 288.02,520.368 288.5,520.368 288.979,519.888 289.22,519.888 289.459,519.407 289.94,518.447 289.459,517.487 
		289.7,517.007 290.66,517.007 291.14,517.967 291.38,518.207 291.62,517.967 291.62,517.247 291.86,517.007 291.86,516.767 
		292.1,516.767 292.34,517.007 292.34,517.247 292.58,517.247 292.82,517.247 293.06,517.247 293.06,517.007 293.3,517.007 
		293.3,516.767 293.06,516.767 292.82,516.527 292.58,516.287 292.58,515.807 292.82,515.567 293.06,515.567 293.78,515.327 
		293.78,515.087 294.26,514.126 294.26,513.887 294.02,513.887 293.78,514.126 293.54,514.126 293.3,513.167 293.3,512.207 
		293.54,511.726 293.78,511.486 294.02,511.486 294.74,511.006 294.74,509.806 294.5,509.326 295.22,509.086 295.939,509.086 
		296.18,508.846 295.939,508.606 295.7,508.125 294.979,507.646 294.74,507.646 294.26,507.166 294.26,506.925 294.74,506.925 
		294.979,506.925 294.979,506.206 294.979,505.965 294.74,504.765 294.5,504.525 294.5,504.285 294.5,503.805 296.42,502.365 
		296.66,502.365 296.9,502.365 296.9,502.845 297.14,502.845 297.38,502.845 297.38,502.605 297.38,502.365 296.9,501.885 
		297.14,501.645 297.62,501.165 298.1,500.925 298.34,500.925 298.34,500.444 298.82,499.484 299.3,498.764 299.06,497.324 
		298.82,497.084 298.82,496.844 298.34,496.844 297.62,496.604 297.14,495.884 297.14,495.404 297.62,495.404 298.1,494.684 
		298.1,494.204 298.1,493.724 298.34,493.243 298.82,493.003 299.3,493.003 299.54,493.003 299.78,492.763 300.02,492.763 
		300.26,492.283 300.5,491.803 300.5,491.563 300.5,491.083 300.26,490.363 300.26,490.123 299.78,489.643 299.54,489.643 
		299.3,489.643 298.58,488.923 298.58,488.683 298.34,488.683 298.34,488.442 298.34,488.203 298.34,487.962 298.58,487.723 
		298.82,487.002 298.82,486.762 298.58,486.522 298.34,486.522 298.1,486.522 297.86,486.282 297.86,486.042 298.82,484.842 
		299.3,485.082 299.54,485.082 300.979,484.842 301.22,484.842 301.22,484.362 301.459,484.122 302.42,483.162 302.9,482.922 
		303.38,483.162 304.1,483.162 304.34,482.922 304.58,482.442 305.06,481.481 305.06,481.242 305.06,480.042 305.06,479.801 
		305.06,479.562 305.06,479.321 304.34,479.081 304.34,478.841 304.1,478.841 304.34,478.841 304.58,478.361 305.54,477.401 
		306.02,476.921 306.979,475.48 307.22,474.28 306.979,474.28 306.74,474.041 306.74,473.8 306.74,473.08 306.5,472.36 
		305.78,471.16 305.3,470.68 304.82,470.92 304.34,470.2 304.1,469.72 304.1,468.279 304.1,467.799 304.1,467.079 304.34,466.599 
		304.34,466.119 304.34,465.639 304.34,465.159 304.58,464.919 304.34,464.919 304.34,464.679 304.1,464.439 303.62,464.439 
		303.62,463.719 303.62,462.279 303.86,461.318 303.86,461.079 303.86,460.838 303.62,459.638 303.38,458.918 302.42,458.438 
		301.459,458.438 301.22,458.438 300.74,458.918 300.5,458.918 299.78,459.158 299.3,459.158 298.58,459.398 298.34,459.158 
		298.34,458.918 297.86,458.198 296.9,457.718 296.42,457.958 295.7,457.958 295.459,457.718 294.74,457.718 294.5,457.958 
		294.5,458.198 294.26,458.198 294.02,458.198 293.06,456.998 293.06,456.758 293.06,456.038 292.82,455.797 293.54,455.078 
		294.26,455.078 294.979,454.597 295.22,454.117 294.979,453.157 294.979,452.917 294.74,452.677 	"/>
</g>
</svg>
