<?xml version="1.0" encoding="utf-8"?>
<!-- Generator: Adobe Illustrator 15.1.0, SVG Export Plug-In . SVG Version: 6.00 Build 0)  -->
<!DOCTYPE svg PUBLIC "-//W3C//DTD SVG 1.1//EN" "http://www.w3.org/Graphics/SVG/1.1/DTD/svg11.dtd">
<svg version="1.1" id="State" xmlns="http://www.w3.org/2000/svg" xmlns:xlink="http://www.w3.org/1999/xlink" x="0px" y="0px"
	 width="1296px" height="1296px" viewBox="0 0 1296 1296" enable-background="new 0 0 1296 1296" xml:space="preserve">
<g>
	<defs>
		<rect id="SVGID_1_" x="259.22" y="351.621" width="779.516" height="595.772"/>
	</defs>
	<clipPath id="SVGID_2_">
		<use xlink:href="#SVGID_1_"  overflow="visible"/>
	</clipPath>
	
		<polyline clip-path="url(#SVGID_2_)" fill="none" stroke="#B37C34" stroke-width="0.48" stroke-linecap="round" stroke-linejoin="round" stroke-miterlimit="3.85" points="
		291.14,503.805 291.14,503.085 291.14,500.685 291.38,496.364 291.38,494.204 291.62,493.243 291.62,490.363 292.1,482.202 
		292.34,472.6 292.34,470.92 292.58,469.479 292.58,468.76 293.3,452.917 293.3,449.797 306.26,450.277 307.459,450.277 
		311.54,450.517 313.459,450.757 314.42,450.757 316.1,450.757 316.58,450.757 316.82,450.757 318.979,450.997 322.34,450.997 
		333.859,451.477 334.1,451.477 338.42,451.717 342.02,451.957 342.979,451.957 352.1,452.197 354.02,452.437 354.5,452.437 
		354.739,452.437 356.899,452.437 358.1,452.437 360.979,452.677 362.899,452.677 365.779,452.677 366.5,452.677 370.1,452.917 
		373.22,452.917 373.7,453.157 375.379,453.157 375.859,453.157 376.819,453.157 377.779,453.157 381.379,453.397 383.779,453.397 
		384.5,453.397 388.1,453.637 391.219,453.637 395.299,453.877 397.459,453.877 399.859,453.877 406.1,454.117 416.419,454.597 
		416.899,454.597 417.379,454.597 418.819,454.597 419.299,454.597 419.539,454.597 420.5,454.597 424.099,454.837 426.259,454.837 
		427.699,454.837 429.619,454.837 432.019,455.078 432.499,455.078 435.139,455.078 436.579,455.078 438.499,455.078 
		440.179,455.317 440.419,455.317 442.819,455.317 443.779,455.317 444.499,455.317 446.659,455.317 447.379,455.558 
		449.299,455.558 450.979,455.558 452.179,455.558 460.099,455.797 461.539,455.797 467.299,456.038 467.539,456.038 
		468.739,456.038 470.659,456.038 470.899,456.038 471.139,456.038 471.379,456.038 472.339,456.038 481.699,456.278 
		490.339,456.518 490.579,456.518 494.419,456.518 494.659,456.518 496.099,456.758 498.259,456.758 503.299,456.758 
		503.779,456.758 507.139,456.998 510.739,456.998 511.219,456.998 511.939,456.998 512.659,456.998 513.619,456.998 
		514.099,456.998 514.339,456.998 515.059,456.998 516.259,456.998 524.899,457.238 525.139,457.238 535.458,457.238 
		535.699,457.238 536.898,457.478 537.379,457.478 537.858,457.478 539.059,457.478 544.579,457.478 545.539,457.478 
		546.259,457.478 546.499,457.478 549.858,457.478 557.059,457.718 557.539,457.718 558.019,457.718 560.659,457.718 
		561.139,457.718 564.258,457.718 566.179,457.718 566.898,457.718 567.139,457.718 567.858,457.718 568.818,457.958 
		573.139,457.958 574.099,457.958 576.738,457.958 578.658,457.958 582.979,457.958 583.218,457.958 585.618,457.958 
		587.539,457.958 587.778,457.958 588.738,457.958 589.458,457.958 591.138,457.958 600.019,458.198 600.738,458.198 
		602.178,458.198 606.258,458.198 606.499,458.198 610.818,458.198 611.058,458.198 612.738,458.198 614.418,458.198 
		614.658,458.198 616.338,458.198 616.578,458.198 618.018,458.198 618.258,458.198 619.218,458.198 621.618,458.198 
		621.858,458.198 623.778,458.198 625.458,458.198 626.898,458.438 628.578,458.438 630.498,458.438 630.978,458.438 
		631.938,458.438 632.178,458.438 632.418,458.438 632.658,458.438 633.618,458.438 638.418,458.438 639.858,458.438 
		642.978,458.438 654.258,458.438 654.979,458.438 656.658,458.438 660.258,458.438 662.178,458.438 663.378,458.438 
		664.098,458.438 665.538,458.438 666.979,458.438 671.058,458.438 672.258,458.438 673.218,458.438 673.938,458.438 
		675.857,458.438 676.098,458.438 676.578,458.438 679.218,458.438 679.698,458.438 683.298,458.438 687.138,458.438 
		692.418,458.438 694.098,458.438 696.019,458.438 697.698,458.438 697.938,458.438 701.777,458.438 702.498,458.438 
		702.738,458.438 702.979,458.438 707.777,458.438 708.498,458.438 709.218,458.438 712.098,458.438 716.657,458.438 
		717.378,458.438 719.298,458.438 722.657,458.438 722.897,458.438 726.978,458.438 727.218,458.438 727.457,458.438 
		728.178,458.438 728.657,458.438 729.378,458.438 730.098,458.438 731.777,458.438 733.698,458.438 735.378,458.438 
		736.098,458.438 736.338,458.438 740.897,458.438 742.577,458.438 751.698,458.198 752.657,458.198 756.738,458.198 
		756.978,458.198 758.657,458.198 760.338,458.198 761.058,458.198 762.258,458.198 762.498,458.198 762.978,458.198 
		771.377,458.198 773.297,458.198 775.218,458.198 783.857,457.958 784.098,457.958 787.697,457.958 788.177,457.958 
		788.657,457.958 794.657,457.958 794.897,457.958 805.457,457.718 805.697,457.718 812.177,457.718 813.377,457.718 
		813.857,457.718 816.018,457.718 816.257,457.718 816.737,457.718 817.217,457.478 818.418,457.478 820.338,457.478 
		821.297,457.478 826.817,457.478 827.057,457.478 827.537,457.478 837.857,457.238 838.098,457.238 838.338,457.238 
		839.057,457.238 842.657,457.238 842.897,457.238 848.897,456.998 849.137,456.998 850.337,456.998 850.577,456.998 
		857.057,456.998 857.777,456.998 859.697,456.998 859.938,456.998 863.057,456.758 864.018,456.758 866.897,456.758 
		869.537,456.758 870.257,456.758 870.737,456.518 872.177,456.518 875.777,456.518 881.057,456.518 881.537,456.518 
		882.978,456.278 892.098,456.278 892.337,456.038 902.897,455.797 903.137,455.797 904.337,455.797 905.057,455.797 
		905.777,455.797 906.257,455.797 913.217,455.558 913.938,455.558 923.057,455.317 923.777,455.317 924.017,455.317 
		925.457,455.317 925.697,455.317 926.656,455.317 927.137,455.317 927.617,455.317 931.457,455.078 934.816,455.078 
		936.017,455.078 937.937,455.078 937.937,455.797 937.937,456.038 937.937,456.278 938.417,456.998 939.617,457.718 
		941.057,458.438 941.536,458.678 942.496,459.638 942.736,460.358 943.697,461.079 944.416,461.559 944.896,461.798 
		945.377,461.798 946.576,461.559 946.816,461.559 947.057,461.798 948.017,462.279 948.257,462.759 948.496,463.479 
		948.257,464.199 948.017,465.159 948.017,465.399 948.017,465.639 948.017,465.879 948.017,466.119 948.257,466.599 
		948.496,466.599 948.496,466.839 948.736,466.839 948.977,466.839 949.217,467.079 949.697,467.079 950.416,467.079 
		950.656,467.079 950.656,466.839 951.137,466.839 952.337,466.119 952.576,466.119 952.816,466.119 953.057,466.119 
		953.297,466.119 953.536,466.359 953.777,466.359 954.017,466.599 954.017,467.079 954.017,467.56 954.017,468.279 954.017,468.76 
		954.257,469.24 954.736,469.479 954.977,469.72 955.456,470.2 957.617,470.68 959.057,471.4 959.297,471.4 959.776,471.4 
		960.017,471.4 960.257,471.4 962.896,471.16 963.856,470.92 964.336,470.92 964.576,470.68 964.816,470.44 965.057,470.2 
		965.297,469.479 965.297,469.24 965.297,468.279 965.297,468.04 965.297,467.799 965.536,467.56 965.536,467.319 966.017,466.839 
		966.496,466.599 966.736,466.359 966.977,466.359 967.456,466.359 968.416,466.839 968.656,466.839 968.896,466.839 
		969.137,466.839 969.617,466.839 969.856,466.599 971.297,466.119 971.536,466.119 971.776,466.119 972.257,466.359 
		972.977,466.599 973.937,467.079 974.416,467.56 974.656,468.04 974.656,468.279 974.656,468.76 974.656,469.24 974.416,469.479 
		974.416,469.72 973.697,470.44 973.456,470.68 973.456,471.16 973.456,471.64 973.697,472.36 973.937,472.6 975.137,473.561 
		975.856,474.041 976.097,474.28 976.576,474.28 976.816,474.28 977.057,474.28 977.297,474.28 978.256,474.28 978.496,474.28 
		978.736,474.521 978.977,474.521 979.456,475 979.696,475.241 979.696,475.48 979.937,475.961 979.937,476.921 979.937,477.641 
		979.456,478.841 979.217,479.321 978.736,479.562 978.496,479.562 978.256,479.801 976.816,479.801 976.576,479.801 
		975.377,480.042 975.137,480.042 974.896,480.042 974.896,480.281 974.656,480.281 974.656,480.521 974.416,480.761 
		974.416,481.242 974.416,481.722 974.416,481.961 974.656,481.961 974.896,482.442 975.137,482.442 975.137,482.682 
		975.377,482.922 975.617,482.922 976.097,483.402 976.336,483.402 976.816,483.642 977.057,483.642 977.297,483.642 
		977.776,483.402 978.017,483.402 978.256,483.162 978.496,482.922 979.456,482.202 979.696,482.202 980.177,481.961 
		980.656,481.722 980.656,481.961 980.896,481.961 981.137,482.202 981.377,482.442 981.617,482.922 981.856,484.122 
		981.617,484.602 981.617,485.562 980.896,486.522 980.416,487.243 979.696,487.482 979.456,487.723 978.736,487.962 
		978.256,487.962 978.017,487.962 977.776,487.962 977.536,487.962 977.297,487.962 977.057,487.723 976.336,487.482 
		975.377,486.762 975.137,486.762 974.416,486.042 974.177,486.042 973.697,485.562 973.217,485.562 972.977,485.562 
		972.736,485.562 972.257,485.802 971.776,486.282 971.776,486.522 971.536,486.762 971.297,487.002 971.297,487.243 
		971.297,487.482 971.297,487.723 971.297,488.203 971.297,488.442 971.536,490.363 971.536,490.603 971.536,492.043 
		971.536,492.523 971.297,493.003 970.816,493.483 970.336,493.963 970.097,493.963 969.856,493.963 969.617,494.204 
		969.377,494.204 969.137,494.204 968.656,494.204 968.416,494.204 968.177,494.204 967.937,494.443 967.697,494.443 
		967.456,494.443 967.217,494.684 966.977,494.684 966.496,494.924 966.257,495.404 966.017,495.644 965.057,497.324 
		965.057,497.804 964.576,498.284 964.097,499.244 963.617,500.205 963.617,500.925 963.617,501.165 963.617,501.405 
		963.617,501.645 963.856,502.125 963.856,502.365 964.336,503.085 964.576,503.805 964.576,504.045 964.336,504.525 
		964.336,505.245 963.856,506.206 963.617,506.445 963.377,506.445 962.896,506.686 962.656,506.925 962.416,506.925 
		962.177,506.925 961.697,506.925 960.496,506.445 960.257,506.445 959.776,506.445 959.536,506.686 959.297,506.686 
		959.057,506.925 958.816,507.166 958.816,507.406 958.576,507.886 958.337,509.086 958.337,509.326 958.337,509.806 
		958.576,511.246 959.057,511.726 959.057,511.966 959.297,512.446 960.017,512.926 960.017,513.167 960.257,513.407 
		961.217,514.367 961.937,514.847 963.617,515.567 963.856,515.807 964.336,516.287 964.576,516.527 964.576,517.007 
		964.816,518.688 964.816,519.407 965.057,519.647 965.536,520.368 965.776,520.607 966.017,520.848 966.257,521.088 
		966.736,521.328 967.937,522.048 969.617,522.528 970.097,522.528 970.576,522.768 971.297,523.488 971.776,523.968 
		971.776,525.168 972.017,525.168 972.257,525.889 972.736,526.128 972.977,526.369 974.177,526.849 974.416,527.089 
		974.656,527.329 974.896,527.809 974.896,528.529 974.896,529.009 975.137,529.249 975.377,529.729 975.617,529.969 
		975.856,529.969 976.336,530.209 977.297,530.209 977.536,530.209 978.017,529.969 978.496,529.729 979.217,529.249 
		979.696,529.009 979.937,529.009 980.177,529.009 980.416,529.249 980.656,529.249 980.896,529.489 981.377,530.209 
		981.377,530.449 981.377,530.689 981.617,531.169 981.377,531.889 980.896,532.37 980.416,532.609 979.937,532.85 979.696,532.85 
		979.456,533.089 978.977,533.57 978.977,533.81 978.736,534.05 978.736,534.29 978.496,534.77 978.736,535.49 978.977,536.93 
		978.977,537.89 979.217,538.61 979.217,538.851 979.217,539.09 979.217,539.331 979.456,539.571 979.456,539.811 979.696,540.051 
		979.696,540.531 979.937,540.771 980.177,541.251 980.416,541.491 980.896,541.971 981.137,542.451 981.617,542.691 
		981.856,542.931 982.097,542.931 982.336,543.171 982.816,543.171 983.057,543.411 984.017,543.891 984.736,544.131 
		985.217,544.371 985.456,544.611 985.696,544.852 985.937,545.091 986.177,545.332 986.177,545.571 986.416,545.812 
		986.656,545.812 986.896,546.532 987.137,546.771 987.137,547.252 987.377,547.732 987.137,548.212 987.137,548.452 
		987.137,548.692 986.656,549.412 986.416,549.892 986.416,550.372 986.656,550.612 986.896,550.853 987.617,551.572 
		987.856,551.813 988.816,552.053 989.776,552.053 990.017,552.053 990.496,551.813 990.977,551.813 991.217,551.813 
		991.456,551.813 991.696,552.053 991.937,552.053 991.937,552.292 992.176,552.533 992.896,553.733 992.896,553.973 
		993.616,555.173 994.576,555.893 995.776,556.373 996.256,556.373 997.456,556.373 998.416,556.133 999.137,555.653 
		1000.097,555.173 1000.816,554.453 1001.536,554.213 1002.736,554.453 1003.217,554.933 1003.456,556.373 1003.456,557.573 
		1004.656,558.053 1005.616,558.053 1007.057,557.573 1008.017,557.093 1008.496,557.093 1009.217,557.093 1009.937,557.333 
		1010.176,557.573 1010.416,559.494 1010.176,559.974 1009.456,560.934 1008.977,561.654 1008.977,562.134 1008.977,562.854 
		1008.977,565.734 1008.977,566.695 1009.217,567.895 1009.217,568.855 1009.217,569.095 1009.217,569.335 1009.217,569.815 
		1009.217,570.055 1009.217,570.295 1009.217,570.775 1009.217,571.255 1009.217,571.496 1009.217,571.735 1009.217,571.976 
		1009.217,572.456 1009.217,572.696 1009.217,573.176 1009.217,573.416 1009.217,574.376 1009.456,574.856 1009.456,575.096 
		1009.456,575.336 1009.456,576.056 1009.456,576.776 1009.456,577.017 1009.456,577.736 1009.456,577.977 1009.456,578.457 
		1009.456,578.697 1009.456,578.937 1009.456,579.177 1009.456,580.137 1009.456,580.617 1009.456,581.097 1009.456,581.337 
		1009.696,582.297 1009.696,582.537 1009.696,583.257 1009.696,584.217 1009.696,584.458 1009.696,584.698 1009.696,585.658 
		1009.696,586.858 1009.696,587.818 1009.937,588.058 1009.937,588.538 1009.937,588.778 1009.937,589.979 1009.937,590.218 
		1009.937,590.458 1009.937,591.418 1009.937,593.099 1009.937,593.339 1009.937,594.299 1010.176,595.019 1010.176,595.499 
		1010.176,595.979 1010.176,597.899 1010.176,598.38 1010.176,598.62 1010.176,600.3 1010.416,603.181 1010.416,604.141 
		1010.416,606.781 1010.416,608.941 1010.416,609.181 1010.416,609.421 1010.416,609.662 1010.416,610.142 1010.656,614.462 
		1010.656,616.863 1010.656,617.583 1010.656,622.144 1010.896,623.583 1010.896,624.063 1010.896,625.504 1010.896,625.984 
		1010.896,629.104 1010.896,629.584 1011.136,631.025 1011.136,632.945 1011.136,633.185 1011.136,636.786 1011.377,640.146 
		1011.377,641.106 1011.377,641.827 1011.377,642.307 1011.616,649.508 1011.616,650.708 1011.616,650.948 1011.616,651.428 
		1011.616,652.389 1011.856,652.868 1011.856,655.269 1011.856,655.989 1011.856,658.39 1012.096,659.35 1012.096,660.79 
		1012.096,661.51 1012.096,661.989 1012.096,662.229 1012.096,663.67 1012.336,664.87 1012.336,665.11 1012.336,667.271 
		1012.336,667.511 1012.576,671.591 1012.576,673.031 1012.576,673.991 1012.576,674.231 1012.576,675.912 1012.576,676.152 
		1012.576,677.592 1012.816,680.232 1012.816,681.192 1012.816,682.633 1012.816,684.313 1012.816,685.754 1012.816,686.473 
		1013.057,692.715 1013.057,692.955 1013.297,693.674 1013.297,696.555 1013.536,702.076 1013.536,702.796 1013.536,703.756 
		1013.536,704.717 1013.536,707.117 1013.536,707.356 1013.776,708.077 1013.776,708.557 1013.776,709.037 1013.776,709.277 
		1013.776,711.677 1013.776,712.877 1013.776,713.357 1013.776,715.277 1013.776,716.238 1013.776,716.958 1014.017,718.158 
		1014.017,718.878 1014.017,719.599 1014.017,720.318 1014.017,720.799 1014.017,721.279 1014.017,723.68 1014.256,728.96 
		1014.256,729.439 1014.256,730.4 1014.256,730.881 1014.256,734.721 1014.256,735.682 1014.496,739.762 1014.496,740.002 
		1014.496,740.722 1014.736,741.682 1014.736,744.322 1014.736,745.522 1014.736,746.243 1014.977,749.603 1015.217,754.404 
		1015.217,754.884 1015.217,755.364 1015.217,755.844 1015.217,756.084 1015.217,756.564 1015.217,756.805 1015.456,758.965 
		1015.456,759.925 1015.456,760.645 1015.456,762.564 1015.456,765.206 1015.696,766.165 1015.696,767.126 1015.696,767.606 
		1015.696,768.326 1015.696,768.807 1015.696,770.727 1015.937,772.647 1015.937,774.327 1015.937,776.247 1015.937,777.928 
		1015.937,779.848 1016.176,780.088 1016.176,783.448 1016.176,783.688 1016.176,785.129 1016.416,792.811 1016.656,795.45 
		1016.656,795.931 1016.656,796.891 1016.656,797.131 1016.656,799.531 1016.656,799.771 1016.896,801.211 1016.896,801.932 
		1016.896,802.892 1016.896,803.611 1016.896,805.531 1016.896,806.492 1017.136,808.893 1017.136,809.373 1017.136,810.573 
		1017.136,811.293 1017.136,812.493 1017.136,812.732 1017.377,813.453 1017.377,813.693 1017.377,814.413 1017.377,814.653 
		1017.377,815.613 1017.377,816.094 1017.377,816.573 1017.377,816.813 1017.377,817.534 1017.377,818.014 1017.377,818.254 
		1017.377,818.494 1017.616,820.414 1017.616,821.374 1017.616,823.775 1017.616,824.255 1017.616,824.735 1017.616,825.694 
		1016.896,825.694 1009.696,825.936 1009.456,825.936 1008.496,825.936 1008.256,825.936 1007.297,825.936 1006.336,825.936 
		1005.856,825.936 1005.616,825.936 1004.896,825.936 1004.656,826.175 1001.776,826.175 998.656,826.175 997.456,826.415 
		996.496,826.415 995.536,826.415 995.057,826.415 994.576,826.415 994.336,826.415 990.736,826.415 990.017,826.655 
		989.057,826.655 985.456,826.655 980.177,826.895 978.977,826.895 978.496,826.895 976.576,826.895 975.856,826.895 
		974.656,826.895 972.257,827.136 965.536,827.375 964.097,827.375 963.856,827.375 961.937,827.375 960.257,827.375 
		953.057,827.615 951.617,827.615 951.137,827.855 947.536,827.855 947.057,827.855 946.816,827.855 946.576,827.855 
		942.017,828.095 941.536,828.095 939.137,828.095 928.576,828.335 927.617,828.335 926.417,828.575 922.576,828.575 
		920.897,828.575 919.697,828.575 918.736,828.575 918.257,828.575 917.777,828.575 917.537,828.575 917.057,828.815 
		916.816,828.815 916.097,828.815 915.617,828.815 913.457,828.815 912.497,828.815 911.297,828.815 910.337,828.815 
		908.897,828.815 908.417,829.056 908.177,829.056 905.777,829.056 905.297,829.056 903.856,829.056 903.137,829.056 
		901.217,829.056 899.057,829.295 898.097,829.295 893.297,829.295 892.577,829.295 892.337,829.295 888.978,829.295 
		887.057,829.535 886.337,829.535 883.457,829.535 879.856,829.775 	"/>
	
		<polyline clip-path="url(#SVGID_2_)" fill="none" stroke="#B37C34" stroke-width="0.48" stroke-linecap="round" stroke-linejoin="round" stroke-miterlimit="3.85" points="
		879.856,829.775 870.497,829.775 865.938,830.016 865.697,830.016 865.217,830.016 864.978,830.016 864.737,830.016 
		861.617,830.016 859.938,830.016 858.257,830.016 856.577,830.016 852.497,830.256 852.257,830.256 841.938,830.496 
		840.737,830.496 838.577,830.496 830.177,830.735 827.537,830.735 825.137,830.735 817.697,830.735 809.537,830.976 
		809.058,830.976 806.897,830.976 806.418,830.976 806.177,830.976 805.217,830.976 800.897,830.976 800.657,830.976 
		798.018,830.976 793.457,831.216 792.498,831.216 790.098,831.216 789.857,831.216 788.657,831.216 788.177,831.216 
		787.697,831.216 786.737,831.216 783.617,831.216 782.657,831.216 777.377,831.456 776.418,831.456 775.697,831.456 
		770.178,831.456 769.938,831.456 768.258,831.456 768.018,831.456 766.577,831.456 765.617,831.456 764.658,831.456 
		760.098,831.456 754.817,831.456 750.258,831.695 746.178,831.695 744.258,831.695 743.777,831.695 743.058,831.695 
		741.857,831.695 734.178,831.695 733.218,831.695 727.698,831.695 725.777,831.695 724.098,831.695 722.178,831.695 
		719.777,831.695 719.537,831.695 716.657,831.695 715.458,831.695 711.138,831.695 710.657,831.936 703.698,831.936 
		702.258,831.936 701.777,831.936 700.338,831.936 692.897,831.936 690.979,831.936 684.019,831.936 680.418,831.936 
		677.538,831.936 677.058,831.936 676.578,831.936 676.098,831.936 669.378,831.936 667.698,831.936 665.777,831.936 
		662.897,831.936 661.458,831.936 659.777,831.936 658.578,831.936 656.897,831.936 646.098,831.936 645.858,831.936 
		645.138,831.936 644.178,831.936 639.858,831.695 638.898,831.695 638.658,831.695 633.138,831.695 632.178,831.695 
		626.178,831.695 618.498,831.695 615.618,831.695 609.378,831.456 608.898,831.456 604.578,831.456 601.698,831.456 
		601.458,831.456 600.979,831.456 599.539,831.456 593.778,831.456 592.818,831.456 588.499,831.216 581.298,831.216 
		580.818,831.216 579.619,831.216 579.378,831.216 577.938,831.216 576.499,831.216 575.778,831.216 568.338,831.216 
		567.858,830.976 559.458,830.976 558.738,830.976 558.259,830.976 556.099,830.976 553.219,830.976 543.378,830.735 
		541.219,830.735 540.259,830.735 535.458,830.735 532.579,830.496 530.898,830.496 530.659,830.496 530.179,830.496 
		526.819,830.496 525.139,830.496 523.458,830.496 518.419,830.256 516.259,830.256 515.299,830.256 513.379,830.256 
		510.979,830.016 508.819,830.016 503.539,829.775 502.579,829.775 498.019,829.775 493.459,829.535 490.579,829.535 
		481.699,829.295 480.979,829.295 480.499,829.295 472.339,829.056 469.699,829.056 462.499,828.815 462.019,828.815 
		461.779,828.815 461.059,828.815 454.339,828.575 441.619,828.335 437.779,828.335 437.539,828.335 435.139,828.335 
		431.779,828.095 428.659,828.095 426.259,828.095 426.019,828.095 422.179,828.095 418.339,827.855 418.099,827.855 
		413.779,827.855 412.099,827.855 408.02,827.615 405.619,827.615 405.379,827.615 404.899,827.615 400.819,827.615 
		399.859,827.375 396.5,827.375 395.779,827.375 392.179,827.375 390.979,827.136 390.979,827.375 386.899,827.136 385.7,827.136 
		381.859,827.136 380.179,826.895 376.1,826.895 374.899,826.895 372.5,826.655 371.779,826.655 369.62,826.655 365.3,826.655 
		360.259,826.415 354.979,826.175 353.3,826.175 345.859,825.936 345.62,825.936 345.379,825.936 343.7,825.936 340.1,825.694 
		333.14,825.694 329.779,825.455 326.18,825.215 322.1,825.215 321.62,825.215 321.379,825.215 318.5,824.975 314.42,824.975 
		309.859,824.735 305.54,824.735 299.06,824.494 295.459,824.255 293.54,824.255 291.86,824.015 291.62,824.015 291.14,824.015 
		288.26,824.015 281.78,823.775 278.9,823.535 277.46,823.535 277.7,819.693 277.7,818.974 277.7,818.734 277.94,818.494 
		277.94,818.254 278.18,809.373 278.18,808.893 278.42,807.212 278.42,806.973 278.42,805.052 279.14,790.649 279.38,785.849 
		279.38,784.169 279.62,778.888 279.86,776.247 279.86,774.327 279.86,771.927 280.1,768.807 280.34,764.485 280.34,759.925 
		280.58,756.324 280.58,755.604 280.82,753.443 280.82,750.803 281.06,747.202 281.3,742.643 281.3,741.442 281.3,740.002 
		281.54,738.321 281.54,732.801 281.78,730.881 281.78,728.239 282.02,724.88 282.02,722.959 282.02,720.318 282.26,715.038 
		282.5,709.277 282.5,707.597 282.5,707.356 282.98,694.875 283.22,693.194 283.22,692.955 283.22,692.475 283.7,684.553 
		283.7,683.593 283.7,683.113 283.7,682.633 283.7,681.912 283.7,680.952 283.94,676.632 284.42,667.511 284.42,665.83 
		284.42,665.11 284.66,659.829 285.14,650.708 285.14,646.867 285.14,646.387 285.38,642.066 285.62,635.826 285.86,633.425 
		285.86,631.025 285.86,629.104 286.1,626.224 286.34,622.144 286.58,615.422 286.58,614.702 286.58,613.262 286.58,613.022 
		286.82,611.822 287.06,604.861 287.06,604.621 287.06,602.94 287.3,601.26 287.3,599.34 287.3,597.419 288.5,568.615 
		288.979,558.293 288.979,557.813 288.979,557.333 289.459,547.012 289.7,536.69 290.18,527.809 290.18,525.408 290.18,524.208 
		290.42,522.288 290.42,521.808 290.9,511.486 290.9,507.646 290.9,507.406 291.14,503.805 	"/>
</g>
</svg>
