<?xml version="1.0" encoding="utf-8"?>
<!-- Generator: Adobe Illustrator 15.1.0, SVG Export Plug-In . SVG Version: 6.00 Build 0)  -->
<!DOCTYPE svg PUBLIC "-//W3C//DTD SVG 1.1//EN" "http://www.w3.org/Graphics/SVG/1.1/DTD/svg11.dtd">
<svg version="1.1" id="State" xmlns="http://www.w3.org/2000/svg" xmlns:xlink="http://www.w3.org/1999/xlink" x="0px" y="0px"
	 width="1296px" height="1296px" viewBox="0 0 1296 1296" enable-background="new 0 0 1296 1296" xml:space="preserve">
<g>
	<defs>
		<rect id="SVGID_1_" x="259.22" y="351.621" width="779.516" height="595.772"/>
	</defs>
	<clipPath id="SVGID_2_">
		<use xlink:href="#SVGID_1_"  overflow="visible"/>
	</clipPath>
	
		<polyline clip-path="url(#SVGID_2_)" fill="none" stroke="#B37C34" stroke-width="0.48" stroke-linecap="round" stroke-linejoin="round" stroke-miterlimit="3.85" points="
		320.9,757.044 321.859,755.844 322.58,755.124 321.62,754.404 321.379,754.404 321.62,754.164 321.62,753.684 321.62,752.724 
		321.62,752.483 321.62,752.244 321.14,751.764 320.18,750.803 318.979,749.363 318.74,749.123 318.74,748.883 318.74,748.644 
		318.74,748.402 318.74,747.923 318.74,747.683 318.74,746.723 318.979,746.002 319.7,745.282 320.42,744.322 320.9,744.082 
		321.379,744.082 321.379,743.843 321.859,743.843 322.1,743.843 323.06,744.322 323.54,744.322 323.78,744.322 324.5,744.322 
		325.22,744.802 325.7,744.802 326.18,744.802 326.42,744.563 326.9,743.843 327.14,742.882 327.14,742.402 327.14,741.922 
		326.66,741.202 326.42,740.722 325.939,740.481 325.459,740.481 324.5,740.481 323.3,740.242 322.82,740.002 322.1,739.521 
		321.859,739.041 321.379,738.081 321.14,737.602 321.14,737.361 321.14,736.881 321.379,736.881 321.379,734.961 321.379,734.721 
		321.379,734.481 321.859,734.001 322.1,733.761 322.58,733.761 323.3,733.761 323.54,733.761 323.78,733.281 324.5,733.281 
		325.459,733.281 325.939,732.081 326.42,730.4 326.66,730.4 326.66,730.16 326.66,729.92 327.14,729.439 327.379,728.96 
		327.62,728.48 328.34,724.64 329.3,722.239 329.3,721.759 329.54,720.078 329.54,719.599 329.54,719.358 329.54,719.119 
		329.3,718.878 329.3,718.639 329.06,718.398 328.58,717.678 328.1,717.198 327.859,716.958 327.14,716.719 326.9,716.719 
		326.42,716.958 325.939,716.478 324.979,715.758 323.78,714.798 323.3,714.318 323.06,714.077 322.82,713.598 322.58,713.357 
		322.34,712.637 322.1,712.157 322.1,711.918 322.1,711.437 321.859,711.437 321.859,709.997 322.1,709.037 322.34,708.317 
		322.34,708.077 322.58,707.117 323.06,706.396 323.54,705.677 323.78,705.196 324.74,703.996 324.979,703.996 324.979,703.756 
		325.22,703.756 325.7,703.756 326.18,703.516 326.18,703.276 326.42,703.036 326.66,702.315 327.859,701.596 328.1,701.355 
		328.1,701.115 328.34,701.115 328.82,700.876 329.06,700.396 329.779,699.195 329.779,698.955 330.5,697.755 330.5,697.515 
		330.74,697.275 330.74,696.795 330.979,696.074 331.7,694.875 331.939,694.875 332.66,693.915 332.66,693.674 333.859,692.715 
		334.1,692.715 334.58,692.234 336.02,690.794 336.259,690.555 336.739,690.555 337.459,689.594 338.9,689.114 339.859,688.394 
		339.62,688.634 340.34,688.154 341.06,687.914 342.02,687.673 343.7,687.434 346.1,687.673 346.82,687.914 347.06,687.914 
		347.3,688.154 348.02,688.394 348.5,688.394 349.7,689.114 352.82,690.314 354.5,691.034 354.739,691.273 355.7,691.754 
		356.179,691.994 356.659,692.234 357.62,692.475 357.859,692.715 359.06,692.955 359.779,693.435 360.739,694.395 361.459,695.114 
		361.939,695.595 362.659,696.314 362.899,696.314 363.139,696.795 363.62,697.035 364.1,697.275 364.58,697.755 364.82,697.995 
		365.06,697.995 365.3,698.235 365.54,698.475 365.779,698.475 365.779,698.715 366.02,698.715 366.259,698.715 366.259,698.955 
		366.5,698.955 366.739,698.955 366.979,699.195 367.22,699.195 367.7,698.955 368.899,698.955 369.379,699.195 369.62,699.195 
		370.339,699.436 370.579,699.436 370.819,699.676 371.299,699.915 371.54,699.915 372.02,700.155 374.419,701.596 375.139,701.836 
		375.379,701.836 375.62,701.836 376.1,701.836 376.1,702.076 376.579,702.315 377.539,702.796 377.779,703.036 378.02,703.036 
		378.02,703.276 378.259,703.516 378.5,703.516 379.22,704.236 379.7,704.477 380.179,705.196 380.419,705.677 380.899,706.156 
		381.14,706.396 381.379,706.637 381.62,706.637 381.859,706.877 382.339,707.356 383.779,708.317 385.22,708.557 386.179,708.797 
		386.419,708.797 386.899,708.797 387.859,708.797 388.579,708.797 389.059,708.557 389.779,708.797 390.5,708.557 392.179,708.077 
		392.899,706.637 393.62,704.956 393.859,703.996 393.859,703.756 394.579,701.836 394.819,701.596 395.779,698.955 
		395.779,698.715 395.779,698.475 395.539,697.995 395.299,697.755 395.299,697.515 395.059,697.035 394.579,695.114 
		394.579,694.875 394.339,694.155 393.859,692.234 393.379,691.994 392.659,691.034 391.939,690.555 391.459,690.314 
		390.979,689.354 390.739,689.114 390.259,687.673 390.02,687.193 389.539,686.714 388.819,685.993 388.1,685.273 388.1,685.033 
		388.339,684.553 388.1,683.593 387.379,682.393 387.62,681.433 387.859,680.713 388.1,679.992 388.579,679.512 388.579,679.272 
		389.059,678.312 389.779,677.111 390.02,676.152 390.5,675.672 390.739,674.952 390.979,673.991 390.979,672.791 391.219,672.311 
		391.219,671.831 391.459,671.352 391.699,670.151 392.179,668.951 392.659,668.471 393.62,667.511 394.339,667.03 395.299,666.551 
		396.02,666.311 396.5,666.311 397.219,665.83 397.699,665.83 397.699,665.59 397.939,665.59 398.179,665.59 398.659,665.83 
		399.379,666.07 400.339,666.79 401.299,667.511 401.539,668.23 401.779,668.471 402.5,668.471 402.739,668.471 402.739,668.23 
		402.979,668.23 404.179,667.511 404.659,666.79 404.899,666.551 405.139,666.07 405.379,666.07 405.619,665.59 405.859,665.35 
		406.819,664.63 407.059,664.63 407.059,664.39 407.299,664.15 407.539,663.91 408.739,663.43 408.979,663.189 409.219,663.189 
		410.419,662.71 410.659,662.71 413.299,662.229 414.979,662.229 416.179,662.229 416.419,662.229 417.859,661.989 419.299,661.75 
		419.779,661.75 420.979,661.51 421.219,661.27 422.419,661.27 422.659,661.27 423.139,661.029 424.819,660.79 425.059,660.79 
		425.539,660.79 427.459,660.549 428.659,660.549 429.139,660.549 429.139,660.79 429.379,660.79 429.859,660.549 430.099,660.31 
		430.339,659.829 431.059,659.35 431.299,659.59 431.779,659.35 431.779,659.109 432.019,658.869 432.019,658.629 431.779,658.629 
		431.779,658.39 432.019,657.909 432.019,656.709 432.019,656.469 432.019,655.748 432.019,655.509 431.299,654.309 
		431.059,653.828 430.579,653.589 429.859,653.348 429.859,653.108 429.619,653.108 429.139,652.628 428.419,651.188 
		427.939,650.468 427.219,649.748 426.499,649.027 425.539,648.308 425.299,648.308 425.059,647.587 424.819,646.867 
		424.579,646.147 424.819,645.667 424.819,645.187 424.579,644.707 423.619,642.307 423.379,641.106 423.139,640.866 
		423.139,640.146 423.139,639.186 423.139,638.466 423.139,638.226 423.139,637.986 423.139,637.746 423.139,637.506 
		423.139,637.266 423.859,636.065 424.339,635.105 424.579,635.105 425.299,634.385 425.539,634.146 425.779,633.665 
		425.779,633.425 426.019,633.185 426.499,632.225 426.739,631.985 426.979,631.745 427.219,631.505 428.419,631.265 
		428.899,631.025 429.379,630.305 430.339,629.825 430.339,629.584 430.819,629.345 431.779,629.104 432.499,628.625 
		432.979,628.145 433.939,626.704 434.659,625.264 434.659,625.024 434.899,624.784 434.899,624.544 434.899,624.304 
		434.899,624.063 435.139,623.104 435.379,622.144 435.619,621.663 436.099,621.183 436.819,620.943 437.299,620.943 
		438.499,621.183 439.219,621.423 439.459,621.663 439.699,621.903 440.179,622.144 440.419,622.144 441.139,622.624 
		441.619,623.104 441.619,623.583 441.859,623.824 442.579,624.544 443.299,624.784 443.779,624.784 444.019,624.544 
		444.019,624.304 444.259,624.063 444.739,622.863 444.979,622.624 445.219,622.383 445.219,621.903 445.219,621.663 
		445.459,621.663 445.699,621.423 445.939,621.423 446.659,621.183 447.379,620.703 447.859,620.463 448.099,619.983 
		448.099,619.503 448.099,619.263 447.859,616.863 447.619,616.143 447.139,615.422 445.939,614.222 445.219,613.262 
		444.979,612.782 444.979,612.542 444.739,612.302 444.739,612.062 444.739,611.822 444.739,611.582 444.739,611.342 
		444.739,611.102 444.979,610.862 444.979,610.381 445.219,610.142 445.699,609.662 445.939,609.181 446.179,609.181 
		446.659,608.221 446.899,607.981 448.099,606.541 448.339,606.541 448.339,606.301 449.059,606.061 449.299,606.061 
		449.539,606.061 450.019,606.061 450.499,606.301 450.979,606.541 451.459,606.781 451.699,607.021 451.939,607.501 
		452.179,607.501 452.419,607.981 452.659,609.181 452.899,609.421 453.859,610.381 454.099,610.381 454.339,610.862 
		454.339,611.582 454.579,611.822 455.059,612.302 455.299,612.302 455.779,612.302 456.739,612.542 456.979,612.542 
		457.459,612.542 458.659,612.542 459.139,612.542 459.619,612.542 459.859,612.302 460.339,611.822 460.819,611.582 
		461.059,611.342 462.019,610.622 462.499,610.622 462.739,610.622 463.459,610.381 464.179,610.381 464.659,610.381 
		465.139,610.622 465.619,610.622 465.859,610.622 466.099,610.622 466.819,610.381 467.779,610.142 468.979,609.662 
		468.979,609.421 469.219,609.421 469.459,609.421 469.699,609.421 469.939,609.421 470.179,609.662 470.659,609.901 
		471.139,610.381 471.379,610.622 471.379,611.582 471.379,612.062 471.379,612.542 471.139,613.022 470.899,613.262 
		470.419,613.742 470.179,613.982 469.699,615.182 469.459,616.382 469.699,617.103 469.699,617.583 469.939,618.063 
		470.179,618.063 470.179,618.303 470.419,618.303 470.419,618.543 470.659,618.543 470.899,618.543 471.859,618.783 
		472.099,618.783 472.579,618.783 472.819,618.783 473.059,618.783 473.779,618.783 474.019,618.783 474.979,618.543 
		475.699,618.303 475.939,618.063 476.179,618.063 476.659,617.343 476.899,617.103 477.619,616.143 477.859,615.902 
		478.339,615.182 478.579,614.702 478.579,613.742 478.579,612.782 478.339,612.302 478.339,611.582 477.859,610.862 
		477.379,610.622 477.379,610.381 476.659,610.142 475.699,609.181 475.699,608.941 475.459,608.701 475.219,608.701 
		474.979,607.981 474.979,607.261 474.739,606.781 474.739,606.541 475.219,605.821 475.699,605.341 476.659,604.621 477.139,603.9 
		477.379,602.7 477.139,602.46 477.139,601.98 477.379,601.74 477.379,601.5 477.619,601.26 478.099,600.78 478.339,600.78 
		478.819,600.78 479.059,600.78 479.539,601.02 479.779,601.26 480.019,601.74 480.259,602.46 480.259,603.181 480.259,603.42 
		480.259,604.141 480.259,604.381 480.739,605.101 480.979,605.341 481.219,605.821 481.459,606.301 481.699,606.301 
		481.939,606.781 482.179,607.021 482.419,607.021 482.899,607.261 484.099,608.221 484.339,608.221 485.299,608.461 
		486.019,609.421 486.499,609.421 486.499,609.181 486.979,608.941 488.179,608.221 488.179,607.981 488.419,607.741 
		488.899,607.501 488.899,607.261 490.099,606.541 490.579,606.061 491.779,605.341 492.019,605.341 492.019,605.101 
		492.259,605.101 493.219,604.861 494.179,604.861 494.659,604.861 495.139,604.861 495.379,604.861 495.619,605.101 
		496.339,605.101 496.579,605.101 496.819,605.341 497.539,605.581 498.019,605.821 498.739,606.061 499.459,606.541 
		499.459,606.781 500.179,607.741 500.419,607.741 500.899,607.981 501.139,608.221 501.379,608.461 501.859,608.941 
		502.099,608.941 502.339,609.181 503.059,609.421 503.299,609.421 504.499,609.662 504.739,609.901 506.179,610.622 
		508.819,612.542 509.059,612.782 509.059,613.022 509.299,613.022 509.299,613.262 509.779,613.742 510.499,614.462 
		513.859,616.863 514.579,617.103 515.539,617.343 517.699,617.823 518.659,617.583 519.139,617.823 519.379,617.823 
		519.859,618.303 520.339,618.783 520.339,619.023 520.339,619.263 521.299,620.943 521.779,621.903 522.259,623.824 
		522.499,624.544 522.739,624.784 523.219,624.784 523.458,625.024 523.938,625.024 524.179,625.024 524.419,625.024 
		525.379,624.784 526.099,624.304 526.339,624.304 526.819,623.824 527.539,623.344 527.779,623.104 528.019,622.863 
		528.259,622.624 528.259,622.383 528.499,622.383 528.499,622.144 528.739,621.663 529.458,619.743 529.699,618.783 
		529.938,617.583 530.179,616.382 530.418,615.663 530.898,614.462 530.898,613.982 530.898,613.742 530.898,613.262 
		530.898,612.782 530.659,612.542 530.659,612.302 530.659,612.062 530.659,611.822 530.898,611.582 530.898,611.342 
		531.139,611.102 531.139,610.862 531.379,610.622 531.619,610.381 531.859,610.142 532.099,610.142 533.299,609.181 
		533.299,608.941 534.259,608.461 534.739,608.221 537.139,607.261 538.099,607.021 538.579,607.021 540.499,607.021 
		541.458,606.781 542.179,606.781 542.898,606.541 543.139,606.541 543.619,606.061 544.099,605.821 544.339,605.581 
		544.579,605.341 545.539,604.381 545.539,604.141 546.259,603.181 546.499,602.94 547.219,602.46 547.699,601.98 547.938,601.5 
		548.418,601.02 549.139,600.54 549.858,600.3 551.059,599.82 552.259,599.1 552.499,599.1 552.739,599.1 552.979,599.1 
		553.219,599.1 553.219,599.34 553.458,599.34 553.699,599.58 553.938,599.82 554.418,600.06 554.898,600.3 555.378,601.5 
		555.619,602.22 556.099,603.42 556.338,604.141 556.338,604.381 556.579,605.101 556.818,605.101 556.818,605.341 556.818,605.581 
		557.059,606.061 557.539,606.781 557.778,607.021 557.778,607.261 558.499,608.461 558.499,608.701 558.738,608.941 
		558.979,609.662 559.458,610.142 559.938,610.622 560.179,611.102 560.179,611.342 560.418,611.582 560.659,611.582 
		560.898,611.822 561.619,612.062 561.858,612.062 562.099,612.062 562.338,612.062 563.059,611.342 563.539,611.102 
		564.738,610.142 565.219,609.662 565.699,609.421 566.418,609.421 566.659,609.421 567.619,609.662 568.579,609.901 
		568.818,609.901 568.818,610.142 569.059,610.142 569.059,610.381 569.059,610.622 569.298,610.862 569.298,611.102 
		569.298,611.582 569.298,611.822 568.818,613.022 567.858,614.942 567.619,615.902 567.378,616.623 567.619,617.343 
		567.858,618.063 568.099,618.303 568.338,618.303 568.818,618.303 569.778,618.303 570.258,618.063 570.979,617.823 
		571.938,617.103 572.659,616.623 572.898,616.382 573.139,616.382 573.619,615.182 573.858,614.942 573.619,614.702 
		573.619,614.462 573.619,613.742 573.619,613.262 573.619,611.102 573.619,610.622 573.619,609.901 573.858,609.662 
		574.579,608.701 574.818,608.701 575.539,608.461 576.738,608.701 578.418,609.181 579.139,609.421 579.858,609.421 
		580.338,609.181 580.579,609.181 580.579,608.941 581.298,608.701 582.019,608.221 582.258,608.221 582.258,607.981 
		582.499,607.981 582.499,607.741 582.499,607.021 582.258,606.541 582.258,606.301 582.019,605.821 581.298,605.101 
		581.298,604.861 580.818,603.9 580.818,603.181 580.818,601.5 580.818,599.58 580.818,598.38 580.818,597.66 580.818,596.939 
		580.818,595.979 580.818,595.739 581.059,594.539 581.298,594.299 581.539,594.059 582.019,593.819 583.218,593.819 
		584.178,593.819 585.139,593.819 585.858,593.819 587.778,593.339 589.218,592.139 589.698,591.179 589.938,589.738 
		589.698,588.778 588.499,588.298 587.298,587.578 586.818,587.098 586.579,586.378 586.579,585.417 586.818,584.938 
		586.818,584.698 587.539,584.217 588.258,583.978 589.938,583.978 589.938,584.217 590.418,584.458 591.138,585.178 
		592.338,586.618 592.818,586.618 593.298,586.378 593.539,585.658 594.019,584.217 594.738,583.737 595.218,583.498 
		597.378,583.737 599.059,583.737 599.298,583.737 599.778,583.498 599.778,583.257 600.258,582.537 600.258,581.577 
		600.019,580.617 600.019,580.377 600.738,579.657 601.218,579.417 601.698,579.177 601.938,579.177 603.618,580.377 
		604.578,581.817 605.298,582.777 605.298,583.498 605.298,583.737 605.058,584.458 605.058,584.938 605.058,585.178 
		604.578,586.858 604.578,587.338 604.578,587.578 604.578,588.538 605.058,591.179 605.058,591.418 605.538,592.379 
		605.538,592.619 606.019,593.099 606.258,593.099 606.979,593.819 607.218,593.819 608.898,594.779 609.618,595.499 
		610.098,596.219 611.298,596.939 611.778,597.18 612.018,597.18 612.258,597.18 612.498,597.419 612.738,597.419 612.979,597.66 
		613.938,598.14 614.658,598.38 614.898,598.38 615.138,598.38 615.378,598.14 616.338,597.899 616.818,597.899 617.298,597.66 
		617.538,597.66 618.018,597.66 618.258,597.66 618.498,597.66 618.738,597.66 618.979,597.66 619.458,597.66 619.698,597.66 
		620.898,597.899 621.618,598.38 621.858,598.38 622.818,598.86 622.818,599.1 623.298,599.34 623.538,599.34 623.778,599.82 
		624.018,599.82 624.018,600.06 624.018,600.3 624.258,601.02 624.738,601.98 624.978,602.46 624.978,602.7 625.218,602.94 
		625.458,603.181 625.698,603.661 625.938,603.9 625.938,604.141 626.178,604.381 626.418,604.381 626.658,604.621 626.898,604.621 
		627.138,604.621 627.378,604.621 627.378,604.381 627.618,604.381 627.618,604.141 627.858,603.9 627.858,603.181 627.858,601.74 
		627.858,601.5 627.858,601.26 627.858,601.02 628.098,600.78 628.098,600.54 628.338,600.54 628.578,600.3 629.058,600.06 
		630.258,599.82 631.218,599.58 631.458,599.58 633.378,599.1 635.058,599.1 635.538,598.86 635.778,598.86 636.018,598.86 
		636.978,598.38 636.978,598.14 637.458,597.899 637.938,597.419 638.178,596.939 638.178,596.699 638.658,596.219 638.658,595.739 
		638.898,595.019 638.898,594.539 638.898,593.099 639.138,592.139 639.138,591.659 639.138,591.418 639.378,591.418 
		639.378,590.699 640.098,589.258 640.338,588.058 640.338,587.338 640.338,586.138 640.098,585.417 639.858,582.537 
		639.858,580.137 640.818,577.977 640.818,577.736 641.058,577.256 641.298,576.776 642.738,574.856 	"/>
	
		<polyline clip-path="url(#SVGID_2_)" fill="none" stroke="#B37C34" stroke-width="0.48" stroke-linecap="round" stroke-linejoin="round" stroke-miterlimit="3.85" points="
		642.738,574.856 643.218,574.376 643.698,573.896 644.898,572.936 645.138,572.696 645.378,572.456 645.858,571.735 
		646.098,571.735 646.098,571.496 646.098,571.255 646.578,570.535 646.578,569.815 646.578,569.575 646.818,569.095 
		646.578,568.615 646.578,568.375 647.058,567.175 647.298,566.695 647.538,565.975 648.018,565.495 648.738,565.254 
		649.219,565.254 650.178,565.015 650.658,564.774 650.897,564.774 651.139,564.535 652.098,564.535 652.578,564.774 
		652.818,565.015 653.538,565.734 653.538,565.975 654.019,566.695 654.979,567.175 655.698,567.175 655.938,567.175 
		656.178,566.935 656.897,566.695 657.378,566.215 658.338,565.734 658.818,565.254 659.538,565.015 660.019,564.774 
		661.219,564.054 661.458,563.814 662.178,563.334 662.178,563.094 662.418,563.094 662.418,562.854 662.897,561.894 
		663.139,561.414 663.618,560.934 663.857,560.934 663.857,560.694 664.098,560.214 664.338,559.974 664.578,559.253 
		664.818,558.293 665.058,558.053 665.058,557.573 665.538,556.373 665.777,555.893 665.777,555.413 665.777,555.173 
		665.777,553.973 665.777,553.493 665.777,553.253 666.258,551.813 666.258,551.572 666.498,551.333 666.498,550.853 
		667.218,549.172 667.458,549.172 667.458,548.692 667.458,548.452 667.458,548.212 668.658,546.292 669.139,546.052 
		670.578,545.091 671.777,544.611 672.979,544.611 673.938,544.611 674.897,544.371 675.378,544.371 676.338,544.131 
		676.578,543.891 676.818,543.891 677.058,543.891 677.298,543.651 677.777,543.411 678.498,543.171 678.979,542.931 
		678.979,542.691 679.698,541.971 680.658,540.771 680.658,540.531 680.658,540.291 680.897,539.571 680.897,539.331 
		681.139,539.09 681.378,538.371 681.618,538.13 681.857,537.89 682.098,537.65 682.338,537.65 682.578,537.41 682.818,537.17 
		684.498,536.45 685.218,535.97 685.938,535.49 686.178,535.25 686.657,534.05 686.897,533.33 686.897,532.129 686.897,531.409 
		686.897,531.169 686.418,529.969 685.698,528.529 685.218,527.569 684.979,527.089 684.738,526.608 684.738,526.128 
		684.738,525.648 684.498,523.008 684.738,521.808 684.738,521.328 684.738,520.848 684.738,519.647 684.019,518.447 
		683.298,517.007 683.058,517.007 683.058,516.527 682.818,516.047 683.058,515.567 683.058,515.327 683.298,513.646 
		683.777,513.167 684.258,512.446 684.258,512.207 684.738,511.486 684.979,511.246 685.938,510.766 686.178,510.526 
		686.657,510.286 687.378,510.286 688.098,510.286 688.338,510.286 688.578,510.526 688.818,510.526 689.777,510.766 
		690.258,510.766 690.738,511.006 690.979,511.006 691.218,511.006 691.458,511.006 691.698,511.006 692.897,510.766 
		693.857,510.526 694.338,510.526 694.578,510.286 694.818,510.286 697.218,509.566 698.178,509.566 698.897,509.566 
		700.098,509.566 700.818,509.806 701.777,510.046 702.738,510.766 702.979,510.766 703.218,511.486 703.698,511.966 
		704.897,513.887 705.378,514.606 706.098,515.087 706.098,515.327 706.818,515.567 707.298,515.807 708.258,516.047 
		708.498,516.047 709.218,516.047 709.458,516.047 709.938,516.047 711.378,515.567 712.338,515.087 713.058,514.606 
		713.777,514.367 714.258,513.887 714.738,513.167 715.218,512.926 715.458,512.687 716.178,511.966 716.418,511.486 
		716.657,511.246 717.138,511.006 717.378,511.006 718.577,510.286 719.058,509.806 719.537,509.566 720.258,509.326 
		720.498,509.086 720.978,508.846 721.698,508.366 722.418,507.886 723.138,507.406 723.857,506.925 725.058,506.445 
		726.258,505.485 726.498,505.245 726.738,505.245 726.978,505.005 727.218,505.005 727.457,505.005 727.938,505.005 
		728.178,504.765 729.857,505.005 731.298,505.245 731.777,505.245 732.498,505.005 734.178,504.285 734.418,504.285 
		734.418,504.045 734.897,503.805 735.378,503.565 735.617,503.325 736.098,503.085 736.338,503.085 736.818,502.845 
		737.298,503.085 737.777,503.085 738.978,503.325 739.698,503.565 740.657,503.805 741.857,504.045 742.577,504.285 
		743.058,504.285 743.298,504.285 743.777,504.045 744.018,504.045 744.018,503.805 744.018,503.565 744.018,503.325 
		744.018,503.085 743.777,502.125 743.537,501.645 742.577,499.964 742.338,499.244 742.338,498.524 742.577,498.044 
		742.818,497.564 743.058,497.324 743.537,496.844 743.777,496.844 744.018,496.604 744.738,496.124 745.698,495.164 
		745.938,494.924 745.938,494.684 746.178,494.684 746.178,494.443 746.418,493.963 746.418,493.724 746.657,493.003 
		746.418,492.523 746.418,492.283 746.178,492.043 745.218,491.323 744.978,491.083 744.498,490.843 744.258,490.843 
		743.777,490.603 743.298,490.603 742.098,490.363 739.457,490.363 739.218,490.363 738.978,490.363 738.738,490.363 
		738.498,490.123 738.258,490.123 738.018,489.643 737.777,489.163 737.777,488.923 737.537,488.442 737.537,488.203 
		737.537,487.962 737.777,487.723 738.258,486.522 738.738,486.042 738.978,485.802 739.698,485.082 739.938,484.842 
		740.418,484.362 740.897,483.882 741.138,483.642 741.617,483.162 741.857,482.922 741.857,482.682 742.098,481.722 
		742.098,481.242 742.098,481.001 741.857,480.281 741.377,479.562 741.377,479.321 741.138,479.081 740.418,478.361 
		740.178,477.881 740.178,477.641 739.457,476.681 738.738,475.721 738.498,475.241 738.258,475 737.537,474.28 737.058,474.041 
		736.577,473.32 736.577,473.08 736.338,472.84 735.857,472.12 735.617,471.64 735.617,471.4 735.617,471.16 735.617,470.92 
		736.098,470.44 736.338,469.96 738.258,469 739.218,468.52 739.938,467.56 740.178,467.319 740.418,467.079 740.657,466.839 
		741.138,466.359 741.377,466.119 741.857,465.639 742.338,465.399 742.818,465.159 743.537,465.159 743.537,464.919 
		743.777,464.679 745.457,464.199 745.938,463.959 746.418,463.719 747.857,461.079 748.577,460.598 749.058,460.118 
		749.298,460.118 750.018,460.118 751.218,460.358 751.698,460.598 751.938,460.838 752.418,461.318 752.897,461.798 
		753.138,462.039 754.098,463.479 754.577,464.199 754.817,464.679 755.058,465.159 755.298,465.159 755.298,465.399 
		755.777,465.639 756.498,465.879 757.457,465.879 758.178,466.359 758.897,466.599 760.338,468.279 760.577,468.52 761.537,468.76 
		761.777,468.76 762.018,468.76 762.738,469 762.978,469 762.978,468.76 763.218,468.76 763.457,468.76 763.698,468.76 
		763.938,468.52 764.418,468.279 766.338,467.799 766.577,467.56 767.058,467.319 767.058,467.079 767.777,466.119 768.018,465.879 
		768.258,465.639 768.978,465.639 769.218,465.639 769.457,465.639 769.697,465.879 770.897,466.599 771.138,466.599 
		771.377,466.599 771.617,466.359 772.338,466.359 772.577,466.119 773.058,465.879 773.297,465.639 773.537,465.399 
		773.777,465.159 773.777,464.919 774.257,464.199 774.498,463.959 774.978,463.479 775.457,463.239 775.938,462.999 
		775.938,462.759 776.658,462.759 777.377,462.999 777.857,463.239 778.338,463.719 778.817,464.199 779.297,465.159 
		779.537,466.119 779.297,466.359 779.297,467.079 779.537,467.319 779.537,468.04 779.537,468.76 779.537,469.479 779.777,470.44 
		779.777,470.68 780.018,470.68 780.018,470.92 780.257,471.16 780.498,471.16 780.737,471.4 780.978,471.4 781.938,471.88 
		782.418,471.88 782.657,471.88 782.897,471.88 783.138,472.12 783.857,472.12 785.537,472.36 786.257,472.36 786.498,472.36 
		787.697,472.84 788.657,473.32 789.617,474.041 790.338,474.761 790.817,475.241 791.777,476.681 792.018,476.921 792.257,477.881 
		792.498,478.361 792.498,478.601 792.498,479.081 792.498,479.321 792.498,479.562 792.737,480.761 792.737,481.242 
		792.978,481.722 793.217,482.202 793.457,482.682 793.457,482.922 793.697,483.162 793.938,483.642 794.177,483.882 
		794.177,484.122 794.657,484.362 795.377,485.322 795.857,485.802 795.857,486.042 796.098,486.282 796.338,486.522 
		796.817,487.482 797.537,488.442 797.777,488.923 798.018,489.163 798.498,490.123 798.737,491.323 798.978,491.803 
		798.978,492.523 798.978,492.763 798.978,493.003 798.737,493.483 798.737,494.443 798.737,494.684 798.737,494.924 
		798.737,495.644 798.737,495.884 798.737,496.364 798.978,497.084 798.978,497.564 798.978,497.804 799.217,498.284 
		799.697,499.244 799.938,499.725 800.177,499.964 800.177,500.205 800.897,500.685 801.137,500.925 801.617,501.165 
		802.338,501.405 803.058,501.405 803.297,501.645 805.938,501.885 806.177,501.885 806.657,502.125 807.377,502.365 
		807.617,502.365 808.338,502.605 810.018,503.325 810.498,503.565 810.737,503.805 811.457,504.045 812.177,504.285 
		814.338,504.765 815.057,504.765 816.018,504.765 816.257,504.765 816.978,504.765 817.457,504.525 818.418,504.285 
		818.897,504.285 818.897,504.045 819.137,504.045 819.617,503.805 820.338,503.565 820.577,503.565 821.537,503.325 
		822.978,502.605 824.177,502.605 824.657,502.605 824.897,502.605 825.377,502.605 826.338,503.085 827.777,504.045 
		827.777,504.285 828.018,504.525 828.497,504.525 828.978,504.525 829.457,504.525 830.177,504.765 831.857,505.005 
		833.057,505.485 833.297,505.485 833.537,505.485 833.777,505.725 834.497,505.965 834.978,506.686 835.217,506.686 
		835.217,506.925 835.457,507.166 835.697,507.646 835.697,507.886 835.938,508.366 836.177,509.326 836.177,509.566 
		836.177,509.806 836.177,510.046 836.177,510.286 836.417,510.286 836.657,510.526 836.657,510.766 836.897,511.006 
		837.137,511.006 838.098,511.726 838.817,511.966 839.537,511.966 840.257,512.207 841.217,512.687 841.457,512.926 
		841.697,513.407 842.177,514.367 842.177,514.606 842.177,514.847 842.417,516.287 842.657,516.767 842.657,517.247 
		842.897,517.487 842.897,517.727 842.897,517.967 843.137,517.967 843.377,518.207 843.617,518.447 843.857,518.688 
		844.338,518.688 845.057,518.927 845.297,518.927 846.257,518.927 847.697,519.167 847.938,519.167 848.177,519.407 
		848.657,519.647 848.657,519.888 849.137,519.888 849.377,519.888 849.617,519.888 851.297,520.848 851.777,521.088 
		852.018,521.088 852.978,521.328 853.457,521.328 853.697,521.328 854.177,521.088 854.417,520.848 854.657,520.607 
		854.897,520.368 854.897,520.127 855.137,520.127 855.377,519.407 855.617,518.447 855.617,518.207 855.617,517.487 
		855.856,516.287 855.856,516.047 856.098,515.807 856.817,515.087 856.817,514.847 857.057,514.847 857.297,514.606 
		857.537,514.606 857.777,514.367 858.018,514.367 859.697,513.887 861.617,513.167 861.617,513.407 862.098,513.167 
		862.816,512.926 864.018,512.446 865.457,511.966 866.657,511.966 867.617,511.966 868.337,512.207 869.297,512.926 
		870.018,513.407 870.978,514.367 871.457,514.847 871.938,515.087 872.657,515.327 872.897,515.327 873.856,515.807 
		874.577,515.807 874.816,515.807 876.497,515.807 877.217,516.047 879.617,516.287 879.856,516.287 880.577,516.527 
		880.816,516.527 881.297,516.767 881.537,517.007 882.497,517.487 884.177,518.447 885.377,519.407 885.856,520.127 
		886.098,521.088 886.098,522.048 886.098,522.528 886.337,522.528 886.337,522.768 886.816,523.488 887.057,523.488 
		887.057,523.728 887.297,523.728 887.537,523.968 887.777,523.968 888.018,523.968 888.018,524.208 888.497,524.208 
		888.736,524.208 888.978,524.208 888.978,523.968 889.217,523.968 889.697,523.488 890.897,522.048 891.137,521.568 
		891.377,521.088 891.617,521.088 892.098,520.848 892.337,520.848 892.577,520.607 893.057,520.368 893.777,520.127 
		894.257,520.368 894.736,520.607 895.217,520.607 896.417,521.328 897.137,521.568 897.377,521.568 897.617,521.568 
		898.097,521.568 898.337,521.328 898.577,521.328 899.057,521.328 900.018,521.088 900.736,521.088 901.457,521.088 
		901.697,521.088 902.897,520.368 903.377,519.888 903.617,519.647 903.617,519.407 904.097,518.447 904.337,518.207 
		904.337,517.967 904.337,517.727 904.577,516.527 904.577,516.287 905.057,515.327 905.537,514.606 906.018,514.126 
		906.497,513.887 908.177,513.407 908.656,513.167 908.897,513.167 910.097,512.446 911.057,511.486 912.017,510.046 
		912.497,509.086 912.736,508.606 912.978,508.125 913.217,507.886 913.457,507.646 913.938,507.406 914.656,507.406 
		914.897,507.406 915.856,507.406 916.097,507.406 916.337,507.406 916.576,507.406 917.297,507.646 917.537,507.646 
		918.017,507.646 918.736,507.406 918.977,507.406 919.457,506.925 919.938,506.686 919.938,506.445 920.897,505.965 
		921.137,505.725 921.377,505.485 921.617,505.485 921.856,505.245 922.816,504.765 923.297,504.765 923.777,504.525 
		925.938,503.805 926.417,503.805 926.897,504.045 927.377,504.285 927.856,504.765 927.856,505.005 928.097,505.485 
		928.337,505.725 928.337,505.965 928.337,506.925 928.337,507.166 928.337,507.886 928.337,508.366 928.337,508.846 
		928.097,510.046 927.856,511.006 927.856,511.726 928.097,512.446 928.097,512.687 928.576,513.167 929.297,514.367 
		929.777,515.327 930.017,517.007 930.017,517.487 930.017,518.688 930.257,520.127 930.257,520.368 930.257,520.607 
		930.257,520.848 930.257,521.088 930.736,522.048 930.977,523.248 931.457,523.728 931.457,523.968 931.697,524.208 
		931.937,524.208 931.937,524.448 932.177,524.448 932.417,524.688 932.897,525.168 933.617,525.889 934.097,526.128 
		934.576,526.369 935.057,526.608 935.777,526.849 936.017,527.089 936.496,527.329 936.736,527.329 937.217,527.329 
		937.456,527.329 937.697,527.329 937.937,527.329 939.137,527.089 940.337,527.089 940.816,527.329 941.057,527.329 
		941.536,527.329 942.257,527.089 942.736,527.329 942.977,527.569 943.456,527.809 943.697,528.049 943.937,528.289 
		944.177,528.289 944.416,528.529 944.656,528.529 945.137,529.009 945.617,529.249 946.337,529.969 946.576,530.209 
		946.576,530.449 946.816,530.689 947.057,531.409 947.777,532.37 947.777,532.609 948.736,533.57 949.217,534.05 949.217,534.29 
		949.456,534.53 949.697,534.77 950.177,535.01 950.177,535.25 950.416,535.25 950.416,535.49 951.377,535.97 952.097,536.21 
		952.816,536.45 953.297,536.69 953.536,536.93 953.777,537.17 954.017,537.17 954.017,537.41 954.257,537.65 954.257,537.89 
		954.496,538.13 954.736,538.851 954.736,539.09 954.977,540.771 955.217,541.491 955.456,542.451 955.456,542.691 955.456,542.931 
		955.937,543.411 955.697,543.891 955.697,544.611 955.697,544.852 955.697,545.332 955.697,545.812 955.937,545.812 
		955.697,546.052 955.697,546.532 955.456,546.771 955.456,547.012 955.456,547.252 955.456,547.492 955.937,548.212 
		955.937,548.452 956.177,549.172 955.937,549.412 955.937,549.892 955.697,550.132 955.697,550.372 955.697,551.092 
		955.697,551.333 955.697,552.292 955.697,552.772 955.937,553.013 956.416,553.013 956.416,553.253 956.656,553.253 
		956.656,553.493 957.137,553.973 957.856,554.693 957.856,554.933 958.337,555.893 958.337,556.133 958.337,556.373 
		958.337,556.613 957.856,557.333 957.617,558.053 957.377,558.534 957.377,558.773 957.617,559.014 957.856,559.974 
		957.856,560.214 958.097,560.934 958.337,561.174 958.337,562.374 958.097,563.574 957.856,563.814 957.856,564.294 
		957.617,564.294 957.617,564.535 957.377,564.774 956.416,564.774 955.697,564.535 955.456,564.535 955.217,564.774 
		954.977,565.975 954.736,566.215 954.977,567.175 955.217,567.415 955.456,567.655 956.177,567.895 956.177,568.135 
		956.177,570.055 956.177,570.295 956.177,570.535 956.177,570.775 956.177,571.016 955.937,571.255 955.937,571.735 
		955.217,573.656 954.977,573.896 954.736,573.896 954.496,574.136 953.777,573.896 952.576,573.896 952.337,573.896 
		952.337,574.136 952.097,574.136 952.097,574.616 952.576,575.576 952.816,576.296 952.816,577.256 952.816,577.736 
		953.057,577.977 953.536,578.217 954.017,578.217 954.257,578.457 954.496,578.457 954.496,578.697 954.496,579.417 
		954.496,579.657 954.496,579.897 954.736,579.897 954.977,579.897 955.217,579.897 955.456,579.897 955.937,579.897 
		956.177,580.137 956.416,580.137 956.416,580.377 956.656,580.377 957.137,580.857 957.137,581.097 957.377,581.097 
		957.617,581.337 957.856,581.577 958.097,582.537 958.097,583.018 958.097,583.498 959.057,584.458 960.017,584.698 
		960.496,585.658 961.217,585.658 961.456,585.658 961.456,585.898 961.456,586.138 961.697,586.618 961.697,586.858 
		961.937,587.338 962.177,587.818 962.177,588.058 962.416,588.538 962.896,588.778 962.896,589.018 962.656,589.499 
		962.656,589.738 962.896,589.979 963.137,590.458 963.617,590.699 963.856,590.938 964.097,591.179 964.097,591.898 
		964.336,592.619 964.576,593.099 964.816,593.339 964.816,593.579 964.816,593.819 964.816,594.059 965.057,594.299 
		965.297,594.299 965.536,594.059 965.776,594.059 966.257,594.059 966.496,594.299 967.456,594.299 967.697,594.299 
		967.937,594.539 967.937,595.499 967.937,595.739 968.177,595.979 968.416,595.979 968.656,595.979 969.377,595.739 
		969.617,595.739 969.856,595.739 969.856,595.979 970.097,595.979 970.097,596.459 970.097,596.939 969.617,597.419 
		968.656,597.419 968.177,597.66 968.177,598.38 968.177,598.62 968.656,598.62 969.377,598.86 969.377,599.1 969.137,599.58 
		968.656,600.3 968.177,600.78 967.937,600.78 967.217,600.54 966.977,600.78 966.977,601.02 967.217,601.26 967.456,601.26 
		967.456,601.5 967.937,601.5 967.937,601.74 967.697,601.98 966.977,601.74 966.736,601.98 966.736,602.22 966.977,602.94 
		967.217,602.94 968.416,602.94 968.656,603.181 968.177,603.9 	"/>
	
		<polyline clip-path="url(#SVGID_2_)" fill="none" stroke="#B37C34" stroke-width="0.48" stroke-linecap="round" stroke-linejoin="round" stroke-miterlimit="3.85" points="
		968.177,603.9 967.937,604.141 968.177,604.141 968.896,604.381 969.137,604.621 969.377,604.621 969.377,604.861 969.377,605.341 
		969.377,605.581 969.377,605.821 969.377,606.061 969.617,606.301 969.856,606.301 969.856,605.821 970.097,605.821 
		970.097,605.581 969.856,604.861 970.097,604.621 970.336,604.381 970.576,604.381 970.576,604.621 970.816,604.861 
		970.816,605.101 971.057,605.101 971.297,605.101 971.536,605.101 971.776,605.101 972.017,605.341 972.017,605.581 
		972.977,606.061 972.977,606.301 973.217,606.301 973.217,606.541 973.456,607.021 973.456,607.261 973.937,607.501 
		974.656,607.741 974.656,607.981 974.896,608.221 974.896,608.941 974.896,609.181 974.896,609.421 975.137,609.662 
		975.377,609.662 975.856,609.662 976.097,609.901 975.856,610.142 974.656,610.381 974.416,610.622 974.416,610.862 
		974.656,610.862 975.377,611.342 975.377,611.582 975.137,612.062 974.896,612.062 974.896,612.302 974.896,612.542 
		975.137,612.542 975.377,612.542 975.617,612.542 975.617,612.782 975.856,613.022 975.856,613.262 975.856,613.502 
		976.097,613.742 976.336,613.982 976.576,613.982 976.816,614.462 977.057,615.422 976.816,616.623 976.816,616.863 
		977.057,617.103 977.297,616.863 977.536,616.863 977.536,616.623 978.017,615.902 978.256,615.902 978.977,616.623 
		978.977,616.863 978.977,617.103 979.217,617.583 979.456,617.823 979.937,617.823 980.177,617.823 980.177,618.063 
		980.416,618.063 980.416,618.303 980.416,618.543 980.656,618.543 981.377,618.543 981.377,618.783 981.856,619.023 
		981.856,619.263 982.097,619.503 982.816,619.503 983.057,620.223 983.057,620.463 983.057,620.703 983.057,620.943 
		983.297,620.943 983.536,620.943 983.776,620.703 984.256,620.703 984.496,620.703 984.496,620.943 984.496,621.183 
		983.776,621.663 983.536,621.903 983.776,622.383 984.017,622.383 984.256,622.383 984.977,621.903 985.456,621.903 
		985.696,621.903 985.696,622.144 985.696,622.383 985.456,622.624 985.217,622.624 984.977,622.863 984.736,623.104 
		984.736,623.583 984.496,623.824 984.256,624.063 983.536,624.784 983.776,625.024 984.256,625.504 984.977,625.744 
		985.217,625.744 985.217,625.984 985.217,626.464 985.456,627.184 985.937,627.664 985.937,628.145 986.177,628.384 
		986.177,628.864 986.416,628.864 986.416,629.104 986.656,629.104 986.896,629.104 987.137,629.345 987.377,629.584 
		987.377,629.825 986.896,630.305 986.896,630.545 986.896,631.025 987.377,631.265 987.617,631.505 987.377,631.745 
		986.896,632.465 986.656,632.465 986.656,632.705 986.896,632.705 987.377,632.465 987.617,632.465 987.856,632.945 
		987.617,633.185 987.856,633.425 988.097,633.425 988.336,633.665 988.576,633.425 988.576,632.705 988.816,632.705 
		989.057,632.705 989.057,632.945 989.297,633.425 989.536,633.665 990.017,634.146 990.256,634.146 990.256,634.385 
		990.977,634.625 991.456,634.865 991.696,634.865 991.937,634.865 992.176,634.625 992.656,634.385 992.896,634.146 
		993.137,634.146 994.336,635.105 994.576,635.345 994.576,636.065 994.576,636.306 995.057,636.545 995.297,636.545 
		995.297,636.786 995.057,637.266 995.057,637.506 995.536,638.226 995.536,638.466 995.776,638.466 996.017,638.466 
		996.496,638.466 996.736,638.466 996.736,638.226 996.977,638.226 997.696,638.466 998.176,638.226 998.416,638.226 
		998.416,637.986 998.176,637.026 998.176,636.786 997.937,636.545 997.696,636.306 997.696,636.065 998.176,635.826 
		998.176,635.585 998.416,635.585 998.656,635.585 999.137,635.585 999.377,635.585 999.377,635.826 999.377,636.065 
		999.137,636.306 999.137,636.545 999.377,637.026 999.616,637.266 999.616,637.506 999.616,637.746 999.377,637.746 
		999.377,637.986 998.896,638.226 998.896,638.466 998.656,638.466 998.656,638.706 998.896,638.706 998.896,638.946 
		999.137,638.946 999.137,639.186 999.377,639.186 999.616,639.186 999.616,638.946 1000.097,638.706 1000.336,638.706 
		1000.336,638.946 1000.576,638.946 1000.576,639.186 1000.097,639.666 1000.097,639.906 1000.097,640.146 1000.097,640.386 
		1000.576,640.386 1001.057,640.146 1001.297,640.386 1001.297,640.866 1001.297,641.827 1001.297,642.307 1002.256,642.546 
		1002.256,642.307 1002.736,641.827 1003.696,642.066 1003.937,642.307 1004.176,642.787 1004.416,643.267 1004.416,643.747 
		1004.416,643.987 1004.656,643.987 1004.656,644.227 1004.416,644.467 1004.176,644.707 1002.977,644.947 1002.736,644.947 
		1002.736,645.187 1002.736,645.427 1003.456,645.667 1003.696,645.907 1003.696,646.147 1003.696,646.387 1003.696,646.867 
		1003.696,647.107 1003.937,647.107 1004.416,647.107 1004.656,647.107 1004.896,646.867 1004.896,646.387 1005.377,646.147 
		1006.097,646.147 1006.336,646.147 1006.576,646.147 1006.576,645.907 1006.816,646.147 1006.816,646.387 1006.576,646.627 
		1006.576,646.867 1006.816,646.867 1007.057,646.867 1008.017,646.387 1008.496,646.627 1008.736,646.387 1008.977,646.387 
		1009.456,646.387 1009.696,646.627 1010.416,647.587 1010.416,647.827 1010.656,648.067 1010.416,648.547 1010.416,648.788 
		1010.656,648.788 1010.896,648.788 1011.136,648.547 1011.377,648.788 1011.856,648.788 1012.096,649.027 1012.096,649.508 
		1012.336,649.748 1012.336,649.508 1012.576,649.508 1012.576,649.027 1012.576,648.788 1012.336,648.067 1012.336,647.587 
		1012.336,647.347 1012.576,647.347 1012.576,647.107 1012.816,647.347 1013.057,647.347 1013.057,647.827 1014.017,648.547 
		1014.256,648.308 1014.736,648.067 1014.977,648.067 1014.977,648.308 1015.217,648.788 1015.456,648.788 1015.937,649.027 
		1015.937,648.788 1016.656,647.827 1016.896,647.587 1016.896,647.827 1016.896,648.308 1017.377,648.308 1017.856,647.827 
		1017.856,647.587 1018.336,647.827 1018.576,647.587 1019.057,647.347 1019.536,647.107 1020.017,647.587 1020.017,647.827 
		1019.776,648.308 1012.096,655.509 1010.896,656.709 1009.456,658.148 1006.336,661.029 1005.136,662.229 1004.656,662.71 
		1004.176,663.189 1003.696,663.67 1002.977,664.39 1002.256,664.87 997.937,668.71 997.937,668.951 996.496,670.391 
		993.137,673.511 990.017,676.392 989.536,676.872 988.576,677.592 988.336,678.072 987.856,678.312 987.377,678.792 
		987.377,679.032 987.137,679.032 987.137,679.272 987.137,679.752 986.656,680.473 985.937,680.473 985.456,680.713 
		984.977,680.713 984.977,681.433 984.017,682.393 983.776,682.633 982.816,682.873 981.617,683.353 981.377,683.353 
		981.137,683.353 980.896,683.353 980.656,683.353 980.416,683.593 980.177,683.593 977.776,684.553 976.576,685.033 
		976.336,685.033 975.856,685.273 974.656,685.514 974.416,685.754 973.937,686.233 973.456,686.233 973.217,686.233 
		972.496,686.714 972.017,686.714 971.776,686.953 971.536,686.953 971.057,687.193 971.057,687.673 970.576,687.914 
		970.336,687.914 970.097,687.673 969.856,687.673 969.137,688.394 969.137,688.634 968.896,688.873 968.656,689.114 
		967.937,689.594 967.456,689.354 967.217,689.354 966.977,689.594 966.736,689.594 966.736,689.834 966.736,690.073 
		966.496,690.073 966.257,690.314 966.017,690.314 965.536,690.794 965.057,690.555 964.816,690.794 964.336,691.273 
		963.617,691.754 962.416,692.715 962.177,692.715 961.697,692.955 961.456,693.194 960.977,693.435 960.977,693.674 
		960.736,694.155 960.496,694.155 960.017,694.395 959.536,694.635 958.816,695.354 958.576,695.354 958.097,695.835 
		957.377,697.035 957.137,697.035 956.416,697.275 955.456,697.275 955.217,697.515 954.977,698.235 954.496,698.475 
		954.017,698.715 953.536,698.955 953.297,699.195 953.057,699.436 952.816,699.436 952.337,699.436 951.617,699.676 
		951.377,699.915 950.177,700.636 949.697,701.115 949.217,701.115 948.736,701.355 948.257,702.076 948.257,702.315 
		948.496,702.556 948.736,703.276 948.977,703.756 948.736,704.477 948.736,704.717 948.496,704.956 948.736,705.677 
		948.977,706.156 949.217,706.156 949.456,706.396 949.456,706.637 949.217,706.877 948.977,706.877 948.736,706.877 
		948.496,707.117 948.496,707.837 948.736,708.317 948.977,709.037 948.977,709.518 948.977,710.236 948.977,710.478 
		948.736,710.718 948.736,710.957 948.496,710.957 948.017,710.718 947.057,710.957 946.816,712.397 946.576,713.118 
		946.337,713.118 946.337,712.877 946.097,712.877 945.617,712.877 944.896,713.357 944.896,713.598 944.416,714.318 
		944.177,714.318 943.937,714.318 943.697,714.318 943.697,714.558 943.456,715.038 943.456,715.277 943.217,715.277 
		942.977,715.277 942.736,715.277 942.496,715.277 942.257,715.519 942.017,715.277 941.777,715.038 941.536,715.277 
		940.337,715.519 940.097,715.519 939.856,715.519 939.617,715.519 939.617,715.758 939.377,715.758 939.137,715.519 
		938.896,715.519 938.656,715.998 938.656,716.238 938.896,716.719 938.656,717.198 938.417,717.198 938.177,717.678 
		937.937,717.919 937.697,717.919 937.456,718.398 936.977,718.398 936.736,718.158 936.496,718.158 936.257,718.639 
		936.257,718.878 936.017,719.119 935.777,719.119 935.536,718.878 935.297,719.119 935.057,719.358 935.057,719.599 
		935.057,719.839 935.057,720.559 935.297,720.799 935.536,721.519 935.777,721.519 936.017,721.759 936.257,721.999 
		936.496,721.999 936.496,722.239 936.017,722.479 936.017,722.959 936.017,723.199 936.017,723.68 936.017,723.919 
		936.257,724.399 936.257,724.64 936.257,724.88 936.257,725.119 936.017,725.359 936.017,725.6 935.777,725.84 935.536,726.08 
		935.536,726.319 935.057,727.04 934.816,727.04 934.576,727.28 934.576,727.52 935.057,728.239 935.297,728.239 935.057,728.48 
		934.816,728.96 934.576,728.96 934.337,729.2 934.337,729.439 934.576,729.439 934.576,729.681 934.337,729.92 933.856,729.92 
		933.617,730.16 933.377,730.4 932.897,730.881 932.656,730.881 931.697,731.12 931.697,731.36 931.697,731.601 931.457,731.84 
		931.217,731.84 930.257,731.84 928.816,732.801 927.617,732.801 927.377,732.801 926.417,733.281 926.417,733.521 926.177,733.521 
		926.177,733.761 925.697,734.001 925.457,734.001 925.217,733.761 924.736,733.761 923.777,733.761 922.816,734.24 
		922.337,734.721 922.097,735.201 921.856,735.44 921.617,735.44 920.656,734.961 920.417,734.961 920.177,734.481 918.736,734.481 
		918.497,734.721 918.257,734.961 917.777,734.961 916.816,734.721 916.576,734.961 916.337,734.961 916.097,734.721 
		915.617,734.721 915.377,735.201 915.617,735.921 915.377,736.401 915.137,736.401 914.417,736.641 914.177,736.881 
		913.938,737.121 913.217,737.361 912.978,737.842 912.978,738.081 913.217,738.321 913.217,738.562 913.217,739.521 
		913.217,739.762 912.978,740.481 912.497,740.962 912.257,741.202 911.777,741.922 911.537,742.402 911.297,742.643 
		911.057,742.882 910.576,743.122 910.097,743.603 910.337,743.843 910.337,744.082 910.576,744.322 910.576,745.043 
		910.337,745.282 910.097,745.522 910.097,745.763 910.337,745.763 910.816,746.002 910.576,746.482 910.576,746.723 
		910.576,747.443 910.337,747.443 910.097,747.923 909.856,748.402 908.897,748.402 907.938,748.402 907.457,748.883 
		906.978,748.883 906.018,748.883 904.816,748.883 904.337,748.883 904.097,748.883 904.097,749.123 903.617,749.123 
		901.697,749.844 900.978,750.323 900.257,750.563 900.018,750.563 899.297,750.803 898.337,751.283 897.617,751.283 
		896.897,751.523 896.656,751.764 896.417,751.764 895.457,752.003 895.217,752.244 894.736,752.244 893.777,752.483 
		893.297,752.483 893.057,752.724 892.816,752.724 892.816,752.964 892.577,752.964 892.337,752.964 890.177,753.924 
		889.938,753.924 889.217,754.164 889.217,754.404 888.736,754.404 888.736,754.644 888.497,754.644 888.257,754.884 
		888.018,754.644 887.777,754.884 887.537,755.124 885.617,755.844 885.377,756.084 884.897,756.564 884.897,756.805 
		884.897,757.044 883.217,757.765 882.978,758.005 882.497,758.005 882.018,758.244 881.297,758.244 880.816,758.484 
		880.337,758.244 879.617,758.484 879.137,758.725 878.657,758.484 878.417,758.725 877.938,758.725 876.257,758.484 
		875.777,758.244 875.297,758.005 874.816,758.005 874.577,758.005 874.577,758.244 873.856,758.244 873.617,758.244 
		873.377,758.244 873.137,758.484 871.938,758.725 871.697,758.725 871.457,758.725 871.457,758.965 871.457,759.205 
		870.497,759.925 870.018,760.165 869.297,760.165 868.577,760.405 868.337,760.885 867.856,761.125 867.137,761.605 
		866.417,761.845 864.978,762.325 864.737,762.325 864.497,762.325 864.257,762.325 863.537,762.806 863.297,763.045 
		863.297,763.285 863.057,763.285 863.057,763.525 862.577,763.765 862.098,764.006 861.617,764.006 861.137,763.765 
		860.657,764.006 860.417,764.246 860.177,764.965 859.457,765.445 858.737,766.165 858.018,766.406 857.777,766.406 
		857.777,766.646 857.777,766.886 857.777,767.126 857.537,767.365 857.297,767.606 857.057,767.847 856.577,768.565 
		856.337,768.807 856.337,769.047 853.938,769.047 846.737,769.047 841.697,769.047 836.417,769.047 833.057,769.047 
		832.817,769.047 827.297,768.807 823.938,768.807 821.057,768.807 815.777,768.807 814.817,768.807 814.098,768.807 
		813.617,768.807 811.938,768.807 811.457,768.807 807.377,768.807 806.657,769.047 806.418,769.047 804.018,769.047 
		803.777,769.047 800.418,769.047 799.457,769.047 785.297,768.807 783.617,768.807 783.377,768.807 783.138,768.807 
		782.897,768.807 781.938,768.807 777.138,768.807 775.218,768.807 773.058,768.807 771.138,768.807 766.817,768.565 
		764.897,768.565 763.698,768.565 763.218,768.565 761.298,768.565 750.018,768.326 749.298,768.326 747.617,768.326 
		743.777,768.086 742.098,768.086 736.818,767.606 733.938,767.365 730.818,767.126 729.617,766.886 726.018,766.646 
		723.378,766.406 720.018,766.406 719.058,766.165 711.617,765.926 709.938,765.926 709.698,765.926 709.218,765.926 
		708.498,765.926 708.018,765.926 707.538,765.926 702.498,765.926 701.298,765.926 699.857,765.926 699.378,765.926 
		698.897,766.165 696.738,766.165 695.777,766.406 688.098,766.646 686.418,766.886 685.698,766.886 680.658,767.365 
		679.218,767.365 674.418,767.365 671.058,767.126 670.818,767.126 663.378,767.126 662.178,767.126 660.498,766.886 
		660.019,766.886 656.897,766.646 655.698,766.646 654.738,766.646 651.378,766.646 650.178,766.406 647.058,766.646 
		642.978,766.406 640.098,766.165 638.418,765.926 634.578,765.686 633.378,765.686 632.898,765.686 631.938,765.686 
		630.018,765.686 627.378,765.445 626.898,765.445 622.818,764.965 622.578,764.965 621.378,764.965 619.458,764.965 
		618.258,764.726 614.658,764.485 611.298,764.246 610.818,764.246 609.618,764.246 609.378,764.246 608.898,764.246 
		604.818,763.765 602.178,763.525 601.698,763.525 598.338,763.045 598.098,763.045 597.378,763.045 595.698,763.045 
		594.258,763.045 594.019,763.045 591.618,762.806 590.658,762.806 584.898,762.564 584.658,762.564 584.418,762.564 
		581.059,762.564 578.178,763.765 577.698,764.006 577.698,763.525 576.979,763.525 576.979,764.246 575.539,764.726 
		574.818,764.246 573.139,762.564 571.698,762.564 571.458,762.564 566.898,762.564 564.499,762.564 562.579,762.806 
		561.139,762.806 556.579,762.806 556.099,762.806 553.938,762.806 551.299,762.806 551.059,762.806 550.818,762.806 
		549.378,762.806 548.418,762.806 547.219,762.806 542.179,762.806 540.979,763.045 537.139,763.045 534.259,763.045 
		533.059,763.045 531.859,763.045 528.979,763.045 528.019,763.045 527.059,763.045 521.779,763.045 518.419,763.045 
		516.019,763.045 513.859,763.045 513.139,763.045 510.499,763.045 508.819,763.045 505.939,763.045 505.699,763.045 
		505.219,762.806 502.579,762.806 500.419,762.806 499.939,762.806 499.459,762.806 499.219,762.806 498.259,762.806 
		494.419,762.806 492.739,762.806 491.539,762.806 490.579,762.806 490.339,762.806 486.739,762.806 478.099,762.806 
		477.859,762.806 470.419,762.806 465.379,762.806 464.899,762.806 460.339,762.806 455.299,762.806 449.779,762.806 
		450.259,759.205 448.099,758.965 444.019,758.484 434.419,757.284 431.299,757.044 428.659,757.044 428.899,759.205 
		429.139,760.165 429.859,761.125 429.859,761.605 429.859,761.845 430.099,762.085 430.099,762.806 431.059,766.165 
		431.299,768.326 431.299,769.766 431.779,771.206 432.019,772.406 432.019,773.606 431.779,774.807 431.539,775.527 
		431.539,775.768 431.539,776.007 431.539,776.487 431.299,776.968 431.299,777.207 430.579,778.168 430.099,778.647 
		429.859,778.888 426.499,778.647 422.659,778.647 421.699,778.407 421.459,778.407 417.859,778.407 409.699,778.168 
		404.899,777.928 403.699,777.928 403.219,777.688 402.739,777.688 394.339,777.447 392.899,777.447 390.979,777.447 
		390.739,777.447 388.819,777.207 387.139,777.207 384.979,777.207 384.5,777.207 381.859,776.968 378.739,776.968 374.179,776.728 
		370.339,776.728 365.06,776.487 361.939,776.247 356.899,776.007 355.22,776.007 354.259,776.007 353.54,776.007 351.379,776.007 
		351.14,776.007 349.939,776.007 349.459,776.007 348.739,776.007 348.5,776.007 348.259,776.007 347.54,776.007 347.06,775.768 
		345.379,775.768 345.14,775.768 340.82,775.768 337.22,775.527 336.739,775.527 336.259,775.527 333.859,775.287 331.459,775.287 
		330.259,775.047 328.58,775.047 325.939,775.047 325.7,775.047 321.62,774.807 321.379,774.567 316.58,774.327 316.34,774.327 
		314.42,774.327 310.1,774.087 309.859,774.087 307.939,773.847 303.62,774.087 302.42,774.327 300.26,774.327 300.02,774.327 
		299.06,774.567 297.86,774.327 296.42,774.327 	"/>
	
		<polyline clip-path="url(#SVGID_2_)" fill="none" stroke="#B37C34" stroke-width="0.48" stroke-linecap="round" stroke-linejoin="round" stroke-miterlimit="3.85" points="
		296.42,774.327 297.86,770.967 298.58,769.286 298.82,768.086 298.82,767.606 298.82,767.126 300.26,764.246 300.5,763.285 
		300.979,761.365 300.979,760.645 301.22,760.405 301.7,759.925 302.18,759.444 302.18,759.205 303.14,758.965 304.34,758.725 
		305.3,758.484 306.02,758.725 306.74,759.444 307.22,760.165 308.42,762.085 308.9,763.285 310.34,765.445 310.58,765.686 
		311.06,766.165 311.54,766.406 312.02,766.886 312.26,766.886 312.26,767.126 314.42,766.886 315.379,766.646 316.1,765.926 
		316.34,765.926 316.82,765.445 318.02,762.806 318.26,760.885 318.5,759.925 318.5,759.444 318.979,758.725 319.7,758.005 
		319.939,757.524 320.9,757.044 	"/>
	
		<polyline clip-path="url(#SVGID_2_)" fill="none" stroke="#B37C34" stroke-width="0.48" stroke-linecap="round" stroke-linejoin="round" stroke-miterlimit="3.85" points="
		289.94,774.327 289.22,774.327 288.74,774.327 284.66,774.087 284.18,773.127 283.46,771.927 283.22,771.687 282.74,770.967 
		282.74,770.727 282.26,769.766 282.26,769.286 281.78,768.326 281.78,767.847 281.78,767.365 281.78,766.646 282.02,766.646 
		282.26,765.926 282.5,765.445 283.22,764.726 283.46,764.485 283.7,764.485 284.42,764.006 284.66,764.006 286.1,764.006 
		286.34,764.006 286.58,764.246 287.06,764.246 287.06,764.485 287.3,764.485 288.74,764.726 290.18,765.206 290.66,765.686 
		290.9,765.686 290.9,765.926 291.38,766.646 291.38,766.886 291.62,767.847 291.86,768.326 291.86,769.286 291.86,769.526 
		292.1,769.766 291.86,770.247 291.86,770.486 291.62,771.447 291.38,772.166 291.14,772.406 291.14,772.647 290.9,773.127 
		290.66,773.127 290.18,773.847 289.94,774.327 	"/>
</g>
</svg>
