<?xml version="1.0" encoding="utf-8"?>
<!-- Generator: Adobe Illustrator 15.1.0, SVG Export Plug-In . SVG Version: 6.00 Build 0)  -->
<!DOCTYPE svg PUBLIC "-//W3C//DTD SVG 1.1//EN" "http://www.w3.org/Graphics/SVG/1.1/DTD/svg11.dtd">
<svg version="1.1" id="State" xmlns="http://www.w3.org/2000/svg" xmlns:xlink="http://www.w3.org/1999/xlink" x="0px" y="0px"
	 width="1296px" height="1296px" viewBox="0 0 1296 1296" enable-background="new 0 0 1296 1296" xml:space="preserve">
<g>
	<defs>
		<rect id="SVGID_1_" x="349.219" y="266.421" width="598.45" height="770.958"/>
	</defs>
	<clipPath id="SVGID_2_">
		<use xlink:href="#SVGID_1_"  overflow="visible"/>
	</clipPath>
	
		<polyline clip-path="url(#SVGID_2_)" fill="none" stroke="#B37C34" stroke-width="0.4799" stroke-linecap="round" stroke-linejoin="round" stroke-miterlimit="3.85" points="
		368.175,497.325 368.175,494.685 368.175,493.725 368.416,488.204 368.416,487.244 368.416,482.923 368.416,478.363 
		368.416,476.443 368.416,475.243 368.655,472.842 368.655,471.882 368.655,471.642 368.655,467.322 368.655,466.842 
		368.655,464.202 368.655,463.001 368.655,462.761 368.655,462.042 368.655,461.801 368.655,461.321 368.655,461.081 
		368.655,460.121 368.655,458.681 368.655,457.481 368.655,457.241 368.896,451.96 368.896,451.24 368.896,446.44 368.896,446.2 
		368.896,445.479 368.896,444.52 368.896,444.04 368.896,441.639 368.896,441.399 368.896,439.959 369.135,438.039 369.135,435.159 
		369.135,434.679 369.135,426.998 369.135,425.798 369.135,424.598 369.135,424.117 369.135,423.638 369.375,423.397 
		369.135,421.958 369.375,417.877 369.375,412.836 369.375,411.636 369.375,410.196 369.375,409.236 369.375,408.036 
		369.375,404.436 369.615,402.275 369.615,400.835 369.615,395.794 369.615,394.354 369.855,394.354 370.335,394.354 
		371.295,394.354 371.535,394.354 379.213,394.354 382.573,394.354 385.212,394.354 385.692,394.354 393.851,394.595 
		394.81,394.595 403.449,394.595 405.128,394.595 405.368,394.595 406.808,394.595 408.248,394.834 408.488,394.834 
		412.087,394.834 415.207,394.834 423.605,395.075 424.325,395.075 424.805,395.075 427.685,395.075 427.924,395.075 
		428.164,395.075 430.324,395.075 431.044,395.075 433.443,395.075 434.643,395.075 434.883,395.075 438.002,395.075 
		438.243,395.075 439.922,395.075 443.761,395.075 447.121,395.314 454.56,395.314 456.239,395.314 456.959,395.314 
		458.879,395.314 462.958,395.314 463.438,395.314 465.598,395.314 466.077,395.314 467.037,395.314 468.957,395.314 
		471.116,395.314 472.076,395.314 472.316,395.314 475.916,395.555 480.955,395.555 481.674,395.555 482.875,395.555 
		484.074,395.555 485.274,395.555 491.033,395.794 493.672,395.794 495.112,395.794 496.072,395.794 497.512,395.794 
		500.151,395.794 501.111,395.794 507.83,396.035 508.79,396.035 509.75,396.035 510.229,396.035 510.469,396.035 511.189,396.035 
		512.149,396.035 515.269,396.035 529.426,396.275 529.906,396.275 530.146,396.275 532.065,396.275 532.305,396.275 
		535.665,396.275 538.784,396.275 543.823,396.515 546.223,396.515 546.463,396.515 546.942,396.515 548.862,396.515 
		549.822,396.515 551.262,396.515 554.381,396.515 561.82,396.755 565.419,396.755 577.897,396.755 585.096,396.755 
		587.735,396.755 590.375,396.755 590.615,396.755 598.533,396.755 599.013,396.755 602.132,396.755 604.532,396.755 
		606.452,396.755 611.251,396.755 613.17,396.515 617.01,396.515 618.689,396.515 619.409,396.515 621.329,396.515 624.688,396.515 
		625.168,396.515 625.648,396.515 626.608,396.515 629.728,396.515 630.447,396.515 631.887,396.515 638.126,396.515 
		639.326,396.515 642.205,396.515 642.925,396.515 644.845,396.515 646.044,396.515 651.084,396.515 653.003,396.515 
		655.643,396.515 656.123,396.515 656.362,396.515 656.603,396.515 656.842,396.515 657.802,396.515 658.522,396.515 
		660.922,396.515 662.841,396.515 673.399,396.515 673.399,396.755 672.919,397.955 672.68,398.675 671.72,399.635 671.239,399.875 
		670.04,401.315 669.8,401.555 669.561,401.795 669.561,402.275 669.8,402.515 669.8,402.996 669.08,403.955 668.6,404.436 
		668.6,404.916 668.36,405.636 668.36,406.116 668.6,406.836 668.6,407.076 669.08,407.556 669.8,408.516 670.279,408.756 
		671.72,409.236 672.439,409.476 673.16,409.476 673.64,409.476 674.119,409.476 674.359,409.476 675.079,409.236 675.799,408.756 
		676.759,407.316 676.998,406.596 676.998,406.355 676.998,406.116 676.998,405.636 676.519,403.715 676.278,402.755 
		676.519,402.515 676.519,402.275 676.759,402.035 676.998,401.795 676.998,401.555 676.998,401.315 676.759,401.075 
		676.278,400.835 676.278,400.595 676.278,400.355 676.519,399.395 676.759,399.395 676.998,399.155 677.479,398.915 
		677.719,398.915 679.158,398.435 679.639,398.195 680.598,398.435 680.838,398.915 681.318,399.155 681.798,399.875 
		682.518,401.555 682.518,402.515 682.518,402.755 682.518,402.996 682.277,403.235 682.277,403.476 682.277,403.715 
		682.518,403.955 683.238,404.676 683.478,404.916 684.197,406.116 684.197,406.355 684.197,406.596 684.197,407.076 
		684.197,407.316 684.197,407.796 684.197,408.276 684.197,408.516 684.197,408.756 684.197,409.236 683.717,410.436 
		683.478,410.676 681.798,412.596 679.878,414.517 678.919,414.997 677.959,414.997 677.479,414.997 676.519,415.717 
		676.039,416.437 675.799,416.677 675.318,418.117 675.079,418.597 674.599,419.077 674.359,419.317 674.119,420.517 
		674.119,420.997 674.119,421.477 674.119,421.958 674.119,422.197 673.879,422.917 673.879,423.877 674.359,424.357 
		674.599,424.357 674.599,425.078 673.879,426.758 673.64,427.238 673.64,427.478 673.879,428.198 673.879,428.678 674.599,429.158 
		674.84,429.158 675.318,429.398 677.479,429.158 678.198,429.158 679.158,429.398 681.798,429.878 683.238,430.358 
		684.918,430.838 685.397,431.078 685.637,431.558 685.637,432.038 685.397,432.758 684.677,433.958 683.238,435.159 
		682.758,435.639 680.838,436.359 680.357,436.599 678.919,437.799 677.959,438.759 677.959,438.999 677.479,439.719 
		676.759,440.679 676.519,440.919 676.278,440.919 675.559,441.639 675.318,441.879 675.079,442.6 675.079,443.08 675.318,443.319 
		675.318,443.56 675.318,443.799 675.318,444.04 675.318,444.76 675.559,445 675.559,445.24 676.039,446.44 676.278,446.92 
		676.278,447.16 676.519,447.4 677.239,448.12 677.959,448.6 678.198,448.84 678.919,448.84 679.639,448.12 680.357,448.12 
		682.277,447.4 683.238,446.92 684.918,446.2 686.356,445.96 686.356,445.24 686.837,444.279 687.077,443.799 687.316,442.839 
		687.316,442.359 688.277,441.399 688.757,440.919 689.477,441.399 689.956,441.879 690.677,442.839 691.156,443.799 
		691.156,444.04 691.156,445 691.156,445.72 690.437,446.68 690.196,447.16 689.716,447.16 689.236,447.88 688.277,449.08 
		687.797,449.56 687.077,449.8 686.837,449.8 686.356,450.28 684.197,451.48 682.998,452.44 683.717,453.641 685.157,454.841 
		686.117,455.561 686.356,455.561 688.757,456.521 690.196,457.241 690.437,457.241 691.156,457.721 692.356,458.681 
		692.836,459.401 693.076,459.641 693.076,460.121 693.076,460.361 692.836,460.841 692.356,461.321 692.116,461.321 
		691.876,461.562 691.396,461.562 691.156,461.562 689.956,461.321 689.236,461.321 688.036,460.841 687.797,460.601 
		686.837,459.881 686.356,459.401 685.397,457.961 684.197,456.041 683.717,455.321 681.798,453.4 681.318,453.88 681.318,454.841 
		681.078,455.321 680.838,456.281 680.357,457.721 679.398,459.401 679.398,460.121 679.398,461.562 679.639,462.281 
		679.878,462.521 679.878,462.761 680.118,463.001 680.598,463.241 680.598,463.481 681.318,464.202 681.559,464.682 
		681.798,464.682 681.798,464.922 683.238,465.642 683.957,466.122 684.438,466.362 686.117,467.082 686.837,467.322 
		688.277,467.562 688.757,467.802 688.996,467.562 689.956,466.842 691.396,466.122 691.876,465.642 692.356,465.402 
		693.556,465.642 693.796,465.882 694.035,465.882 694.275,466.122 694.996,466.842 695.235,467.082 695.235,467.322 
		695.476,467.562 695.476,468.762 695.476,469.242 695.235,469.482 695.235,469.722 694.996,469.962 694.516,470.442 
		694.035,470.922 692.596,471.402 692.596,472.362 692.356,472.842 692.356,473.322 691.876,474.283 691.396,475.963 
		691.396,476.203 691.636,476.683 691.876,477.163 692.596,477.643 693.315,477.883 696.915,478.603 698.114,478.603 
		698.835,478.603 699.074,478.843 700.274,479.083 701.234,479.323 702.194,479.803 702.674,480.523 702.434,481.243 
		702.434,481.723 702.194,482.443 701.954,482.443 700.994,483.884 700.274,484.364 700.274,484.604 700.035,484.844 
		699.794,484.844 699.074,485.563 697.875,486.284 697.635,486.524 697.155,486.524 697.155,486.284 696.915,486.044 
		696.195,485.083 695.955,484.844 694.996,484.604 694.756,484.844 694.516,484.844 694.275,485.083 694.035,485.563 
		693.796,487.004 694.035,488.204 694.035,488.444 694.275,488.684 695.235,489.644 695.476,490.364 695.235,490.364 
		694.756,490.844 694.275,491.564 694.035,493.004 694.035,493.725 694.035,494.205 693.796,494.685 693.315,494.925 
		693.076,495.165 692.836,495.165 692.596,495.165 692.356,495.165 692.116,495.165 691.876,494.925 691.876,494.685 
		691.636,494.205 691.636,493.965 691.156,493.725 689.956,492.524 689.236,492.044 688.517,491.804 688.036,491.804 
		687.316,491.804 686.837,492.284 686.598,492.765 686.598,493.484 686.356,493.965 685.637,494.685 684.677,493.725 
		684.197,493.725 683.238,493.725 682.277,494.205 681.559,494.925 680.598,496.125 680.118,496.365 679.639,496.365 
		679.639,496.125 678.919,495.645 678.438,495.405 677.959,495.405 675.318,496.845 675.079,497.325 674.84,497.565 
		674.599,498.285 674.359,498.765 674.119,500.205 673.879,501.646 673.879,501.885 673.64,502.605 673.64,502.846 673.64,503.085 
		673.879,503.326 673.879,503.565 673.879,503.806 674.119,504.045 674.119,504.286 674.84,505.486 675.079,505.486 
		675.799,505.726 676.998,505.966 677.719,506.206 677.959,506.206 678.198,506.446 678.438,506.446 678.678,506.446 
		680.118,506.446 680.357,506.446 680.598,506.446 680.838,506.206 681.078,505.966 681.318,505.966 681.559,505.726 
		682.518,505.486 683.717,505.246 684.197,505.486 684.918,505.726 685.877,506.206 686.598,506.446 686.837,504.045 
		687.077,503.806 687.077,503.326 687.077,502.365 686.356,501.646 686.117,500.685 686.117,499.965 686.837,499.725 
		687.797,500.205 688.996,500.925 689.716,501.646 690.437,501.885 691.636,502.365 691.876,503.806 691.876,504.045 
		691.636,504.525 691.396,505.246 691.156,505.486 690.916,505.726 690.677,506.206 690.437,506.446 690.196,506.446 
		689.477,506.926 688.996,506.926 689.236,507.646 689.236,508.606 688.757,509.326 688.277,509.806 685.397,511.486 
		683.957,512.207 683.717,512.446 683.717,512.687 683.957,515.807 683.957,516.047 683.717,516.047 683.478,516.047 
		682.037,516.047 681.559,515.807 680.357,514.847 679.158,513.167 678.678,512.687 677.959,512.207 677.479,511.966 
		676.998,511.966 676.519,512.207 675.799,512.687 675.318,513.407 675.318,513.646 675.318,514.126 675.318,514.367 
		675.318,514.847 675.559,515.327 675.799,515.567 676.278,516.047 676.998,516.287 679.158,516.767 682.277,517.487 
		683.238,517.727 683.478,518.207 683.717,518.447 683.957,519.167 683.957,519.887 684.438,519.887 682.998,522.047 
		682.277,522.768 681.559,523.248 680.118,523.728 675.079,524.448 674.84,524.688 674.599,524.928 674.359,524.928 
		674.359,525.168 674.119,525.168 673.64,525.648 673.399,525.888 672.919,526.608 672.439,527.088 672.439,527.568 
		672.439,528.048 672.439,529.008 671.96,530.208 672.199,530.448 672.919,530.448 673.16,530.688 672.919,531.408 672.919,531.648 
		672.919,531.889 673.399,532.369 673.399,532.608 673.16,532.849 672.439,533.088 672.199,533.568 671.96,533.568 671.72,533.809 
		671.239,533.568 671,533.809 670.76,534.289 670.52,534.769 668.6,536.689 667.641,537.649 666.201,538.609 664.521,539.329 
		664.281,539.329 664.281,539.569 664.041,540.049 664.041,540.529 664.281,540.77 664.281,541.009 665.001,541.729 
		666.681,543.169 666.681,543.41 666.681,543.649 666.44,544.61 666.201,545.09 665.481,545.81 665.001,546.05 665.001,546.29 
		664.761,546.29 664.041,546.29 663.321,546.05 662.841,545.81 662.841,545.57 662.361,545.09 662.121,544.37 661.881,543.89 
		661.881,543.169 661.881,541.489 661.401,539.809 657.802,540.529 657.082,540.77 657.082,541.009 656.842,541.009 
		656.603,541.009 656.123,541.489 656.123,541.729 655.883,541.969 655.883,542.209 655.883,542.45 654.443,547.49 654.443,547.73 
		654.203,549.89 653.963,549.89 653.963,550.61 653.963,552.05 654.443,552.291 654.923,552.53 655.643,552.53 655.883,552.771 
		655.883,553.25 655.643,553.73 655.402,553.73 655.162,553.971 654.923,553.971 653.963,554.211 653.243,554.691 652.283,555.891 
		650.604,558.771 650.604,559.011 650.364,560.211 650.364,560.451 650.364,561.651 650.364,563.812 650.604,564.772 
		650.844,567.172 650.844,567.652 650.844,567.892 650.604,569.332 650.364,569.813 650.364,570.052 648.924,570.772 
		648.684,571.012 648.204,571.252 647.244,571.252 646.524,571.012 643.645,570.052 642.445,569.572 641.725,569.092 
		641.485,568.852 641.005,568.132 640.766,567.652 640.525,567.172 640.286,567.172 639.806,566.932 639.806,567.172 
		638.846,567.892 638.366,568.372 637.886,568.852 637.886,569.092 637.886,569.332 637.886,569.572 637.646,570.292 
		637.886,571.012 637.886,571.252 638.126,571.493 638.366,571.973 639.326,573.173 640.286,573.893 640.525,574.133 
		641.005,574.373 641.245,574.373 641.485,574.373 641.725,574.373 641.725,574.613 641.965,574.613 642.205,574.613 
		643.165,574.373 643.405,574.373 644.365,574.133 646.524,573.173 646.764,573.173 647.004,573.173 647.244,573.173 
		647.484,573.173 647.724,572.933 647.964,572.933 648.204,573.173 648.444,573.173 648.684,573.173 648.924,573.173 
		650.123,573.893 649.884,574.613 649.884,575.333 649.884,575.573 649.884,575.813 649.644,576.053 649.644,576.293 
		649.644,576.533 649.403,576.773 649.164,577.013 648.924,577.253 648.924,577.493 648.444,577.733 647.724,578.213 
		647.724,578.453 647.484,578.453 646.524,579.413 646.284,579.413 645.805,579.894 645.084,580.133 644.604,580.374 
		643.405,580.854 642.685,581.093 641.965,581.333 641.725,581.333 641.485,581.093 640.766,580.854 639.806,581.093 
		639.086,581.093 638.606,581.093 638.366,581.333 638.126,581.333 637.886,581.813 637.406,582.293 637.406,582.534 
		637.406,582.773 637.406,583.014 637.646,583.734 637.886,583.734 638.126,583.974 638.126,584.934 637.886,585.414 
		637.886,587.334 638.126,590.214 638.126,591.654 638.366,592.135 638.846,592.854 639.326,593.575 639.806,594.295 
		641.005,595.495 641.965,596.455 643.165,597.895 643.405,598.855 643.645,599.095 643.645,599.335 643.645,599.815 
		643.645,600.055 643.405,600.775 642.205,602.216 639.565,602.216 639.326,601.976 639.086,601.976 638.846,601.976 
		638.126,601.496 637.646,601.016 637.406,600.775 637.166,600.295 636.926,600.055 636.686,599.335 636.446,599.095 
		636.446,598.855 635.726,595.975 635.726,595.495 635.966,595.015 635.966,594.775 635.486,594.055 635.486,593.815 
		635.006,593.575 634.767,593.815 634.287,594.055 634.046,594.295 632.847,595.015 632.367,595.495 631.647,596.455 
		631.407,597.415 631.407,597.895 631.887,599.095 632.367,599.815 632.607,600.536 633.327,600.055 633.327,599.815 
		634.046,599.575 634.287,599.575 635.006,600.055 635.006,600.295 634.767,600.536 634.526,600.775 634.526,601.016 
		634.526,602.456 634.526,602.696 634.767,603.656 634.767,604.136 634.767,604.376 635.006,604.616 635.006,604.856 
		635.247,605.096 636.206,605.576 636.446,606.056 636.686,606.296 637.886,607.256 638.126,607.496 638.846,608.216 
		639.086,608.456 639.086,608.696 639.086,610.856 639.086,611.336 638.846,612.296 638.366,613.017 638.126,613.497 
		636.206,614.457 635.966,614.457 635.726,614.457 634.526,614.937 634.287,614.937 634.046,614.937 633.327,615.177 
		633.087,615.177 632.127,615.177 630.687,615.177 628.528,614.697 627.088,614.457 625.168,614.457 624.928,614.697 
		624.208,615.177 623.729,615.417 623.488,615.897 623.488,616.377 623.488,616.617 623.729,617.577 624.688,618.537 
		626.608,619.737 627.808,620.697 629.248,621.897 629.967,622.618 630.447,623.818 630.447,624.058 630.687,624.298 
		630.687,625.258 630.687,625.498 630.447,626.218 629.728,627.418 629.487,627.898 629.007,628.618 628.768,628.858 
		627.088,630.778 626.848,631.259 626.848,631.499 626.608,631.979 626.608,633.179 626.608,633.419 627.088,634.139 
		627.568,634.619 627.808,634.859 628.528,635.339 629.967,636.539 631.407,637.739 632.367,638.699 633.087,639.179 
		633.327,639.659 633.807,640.379 633.807,641.1 633.807,641.82 633.807,642.06 633.567,642.54 633.327,643.02 632.607,644.22 
		631.887,644.94 630.687,645.9 628.768,646.62 626.848,647.34 625.648,648.06 626.848,648.06 636.206,648.06 639.326,648.06 
		639.565,648.06 640.286,648.06 640.525,648.06 640.766,648.06 641.725,648.06 648.444,647.82 648.684,647.82 649.644,647.82 
		651.563,647.82 656.842,647.82 667.641,647.58 669.32,647.58 670.04,647.58 675.318,647.58 682.758,647.58 685.637,647.58 
		687.077,647.58 687.797,647.58 689.716,647.34 696.436,647.34 697.395,647.34 702.194,647.1 705.794,647.1 706.033,647.1 
		707.473,647.1 708.434,647.1 710.113,647.1 712.032,647.1 712.992,647.1 717.552,647.1 718.031,646.86 718.511,646.86 
		719.231,646.86 720.431,646.86 720.91,646.86 723.07,646.86 730.028,646.86 731.948,646.86 732.188,646.86 732.188,646.62 
		738.668,646.62 738.907,646.62 739.147,646.62 741.066,646.62 743.227,646.62 749.706,646.38 750.426,646.38 750.665,646.38 
		750.905,646.38 751.145,646.38 752.105,646.38 752.824,646.38 754.504,646.38 754.984,646.38 756.184,646.38 756.664,646.14 
		761.223,646.14 761.703,646.14 762.183,646.14 	"/>
	
		<polyline clip-path="url(#SVGID_2_)" fill="none" stroke="#B37C34" stroke-width="0.4799" stroke-linecap="round" stroke-linejoin="round" stroke-miterlimit="3.85" points="
		762.183,646.14 762.423,646.14 763.863,646.14 764.823,646.14 770.342,645.9 774.182,645.9 775.141,645.66 781.14,645.66 
		782.1,645.66 784.499,645.66 784.499,645.42 786.179,645.42 788.099,645.42 788.338,645.42 791.698,645.42 794.338,645.42 
		794.817,645.18 796.736,645.18 798.896,645.18 799.856,645.18 801.296,645.18 801.536,645.18 804.896,644.94 805.136,644.94 
		808.494,644.94 809.694,644.94 809.935,644.94 810.414,644.94 813.294,644.7 813.773,644.7 816.894,644.7 817.613,644.7 
		819.772,644.7 820.013,644.7 821.213,644.46 821.932,644.46 823.853,644.46 828.891,644.46 828.891,644.7 829.131,644.7 
		829.37,644.7 829.61,644.22 830.091,644.22 831.051,643.98 831.29,643.98 831.53,644.22 831.53,644.46 831.29,644.7 830.811,644.7 
		830.811,645.18 831.051,645.18 831.53,645.18 831.53,645.42 831.29,646.86 831.29,647.1 831.051,647.34 830.811,647.34 
		830.57,647.34 830.57,647.58 830.811,647.82 831.53,648.06 831.771,648.3 831.771,648.541 831.53,648.78 831.29,648.78 
		831.051,648.78 830.811,648.78 830.091,649.501 830.091,649.74 829.131,650.701 828.65,651.66 828.65,651.9 828.65,652.141 
		829.37,652.621 829.37,652.86 829.37,653.101 829.37,653.341 829.61,654.301 829.851,654.301 830.091,654.541 829.851,654.781 
		829.851,655.261 829.37,655.501 828.891,655.501 828.65,655.261 828.411,655.261 828.171,655.501 827.932,655.501 827.932,655.741 
		827.932,655.981 827.932,656.222 828.171,656.461 828.411,656.461 828.411,656.701 828.65,656.701 828.65,656.941 828.65,657.182 
		828.65,657.422 828.411,657.422 828.411,657.661 827.932,657.661 827.211,657.182 827.211,657.422 826.971,657.422 
		826.971,657.661 827.211,658.381 827.451,659.342 826.731,659.581 826.491,659.581 826.491,659.821 826.491,660.062 
		826.491,660.302 826.491,660.541 827.451,661.262 827.69,661.502 827.69,661.742 827.211,662.941 826.971,663.182 826.491,662.702 
		826.252,662.702 826.011,662.702 826.011,662.941 826.011,663.182 826.252,663.662 826.252,663.902 826.491,663.902 
		826.252,664.143 826.011,664.143 825.531,664.143 825.291,665.103 825.291,665.822 825.531,666.062 825.531,665.822 
		825.771,665.822 826.011,666.302 826.011,666.542 826.252,667.262 826.252,667.502 826.011,667.742 825.771,667.742 
		825.291,667.262 824.572,667.021 824.572,667.262 824.331,667.502 824.331,667.982 824.331,668.463 823.853,669.423 
		823.611,669.662 823.372,669.902 823.132,669.902 823.132,670.143 823.372,670.383 823.611,670.623 823.853,670.863 
		823.853,671.103 823.611,671.103 823.611,671.343 823.372,671.343 823.132,671.343 823.132,671.103 822.893,671.103 
		822.893,670.863 822.893,670.623 822.652,670.383 822.412,670.383 822.173,670.863 822.173,671.103 822.173,671.343 
		821.692,672.303 821.452,673.022 820.973,673.982 821.213,674.223 821.452,674.703 821.452,674.943 821.452,675.184 
		821.452,675.423 821.692,675.663 821.692,676.383 821.692,676.623 821.692,677.103 821.932,677.344 822.412,677.344 
		822.652,677.344 822.893,677.344 822.893,677.583 822.652,677.583 822.173,677.823 821.692,677.823 820.973,677.823 
		820.732,677.823 820.732,678.063 820.492,678.063 820.492,678.783 820.732,679.023 820.973,679.023 821.692,679.264 
		821.452,680.464 821.213,680.464 820.732,680.464 820.252,680.943 819.772,681.424 819.772,681.664 819.532,681.664 
		819.772,681.664 819.772,681.904 820.013,682.144 820.252,682.144 820.492,681.904 820.732,682.384 820.973,683.584 
		820.732,683.584 820.492,684.544 820.013,685.504 819.772,685.984 819.772,686.225 820.013,686.465 820.252,686.225 
		820.252,685.984 820.492,685.744 820.732,685.984 820.492,686.225 820.252,686.704 820.013,686.944 819.772,686.944 
		819.532,686.944 819.532,686.704 819.532,686.944 819.293,686.944 819.293,687.185 819.053,687.185 819.293,687.185 
		819.293,687.424 819.532,687.424 820.492,687.664 820.973,687.664 821.213,687.664 822.173,688.625 822.173,688.864 
		822.412,689.344 822.893,690.544 822.412,691.744 822.412,691.985 822.652,692.465 822.652,692.705 822.652,693.186 
		822.412,693.905 822.652,693.905 822.893,693.905 823.132,693.905 823.372,693.905 823.372,694.145 823.132,694.865 
		822.893,695.105 822.893,695.346 822.893,695.585 823.132,695.825 823.372,695.825 823.611,696.064 824.331,696.545 
		824.092,696.545 824.092,696.785 824.331,698.226 824.331,698.465 824.331,698.706 824.331,698.945 824.572,698.945 
		824.812,698.945 824.812,698.706 825.052,698.706 825.291,698.706 825.771,698.706 826.011,698.945 826.252,698.945 
		826.252,699.186 826.011,699.426 825.531,699.665 825.052,699.426 824.812,699.426 824.812,699.665 824.812,699.905 
		824.812,700.146 825.771,700.386 826.011,700.865 826.011,701.346 825.771,701.346 825.771,701.586 826.011,701.586 
		826.252,701.826 826.491,701.826 826.971,701.826 827.211,701.826 827.451,701.826 827.932,702.546 828.411,703.506 
		828.411,703.746 828.411,704.466 828.65,704.706 828.65,705.427 829.37,705.427 829.61,705.186 829.851,705.666 829.851,705.906 
		829.851,706.626 830.091,706.626 830.331,706.866 831.051,706.866 831.53,707.347 831.53,707.586 832.49,707.826 832.73,707.826 
		833.45,708.066 833.93,708.547 834.17,709.267 834.41,709.986 834.89,709.986 835.13,709.747 835.13,709.986 835.61,710.467 
		836.09,711.427 836.569,711.666 836.81,711.666 837.29,712.146 838.01,713.106 838.249,713.827 838.01,714.547 838.249,715.268 
		838.489,715.987 838.729,717.907 838.489,718.147 838.249,717.907 838.249,718.868 838.489,719.107 838.729,719.588 
		839.449,720.787 839.689,721.748 840.648,723.188 840.889,724.147 841.369,724.868 841.849,725.107 842.328,725.348 
		842.568,725.588 842.568,726.068 843.528,726.548 844.248,727.028 844.248,727.748 844.248,728.469 844.248,729.429 
		844.729,729.909 844.729,730.148 844.248,730.869 844.008,730.869 843.288,731.109 843.048,731.349 843.048,731.589 
		843.048,732.789 843.048,733.509 843.528,733.749 844.248,734.469 844.488,734.949 844.488,736.149 844.488,736.39 
		844.488,736.629 844.488,736.869 844.248,736.869 844.248,737.35 844.968,738.069 845.208,738.31 845.928,738.549 846.168,738.549 
		846.168,738.79 846.407,738.79 846.407,739.029 846.407,739.27 846.168,739.51 846.168,739.989 846.168,740.949 846.168,741.189 
		846.168,741.43 846.647,741.91 846.888,742.15 847.127,742.15 847.848,742.39 848.327,742.87 848.327,743.11 848.567,743.11 
		848.807,743.59 849.287,744.311 849.287,745.03 849.527,745.27 850.247,745.99 850.728,746.471 850.967,746.71 851.207,746.71 
		851.447,746.71 851.927,746.471 852.166,746.471 852.887,745.99 853.366,745.511 853.606,745.27 853.846,745.03 854.326,744.79 
		854.566,744.79 854.807,744.79 855.286,744.79 855.525,745.27 855.766,745.511 856.246,746.471 855.525,746.95 854.807,747.67 
		852.887,747.91 852.166,748.15 851.687,748.871 851.207,749.351 849.527,750.551 848.807,750.551 848.327,750.311 848.088,750.311 
		847.367,750.07 846.168,749.831 845.688,750.311 845.448,750.551 845.208,750.79 843.769,752.231 843.288,752.711 842.809,753.671 
		842.088,754.871 840.889,755.831 840.408,755.831 840.169,755.831 839.689,756.071 839.689,756.312 839.449,757.752 
		839.449,758.231 839.449,758.952 839.209,760.152 837.77,760.872 837.529,760.872 836.09,761.111 834.65,762.072 834.17,762.552 
		834.17,762.792 834.17,763.512 834.17,763.752 835.85,766.152 835.85,766.393 835.13,766.873 834.17,767.112 833.45,766.393 
		832.73,765.912 832.49,765.673 831.771,765.192 830.811,764.712 830.091,764.473 828.65,764.231 828.411,764.231 825.291,764.473 
		824.812,764.712 824.572,764.712 823.132,766.152 822.412,767.112 820.492,769.513 821.213,772.873 821.932,775.273 
		822.173,775.754 822.893,776.953 823.853,777.673 825.052,778.394 826.491,778.394 829.851,777.673 832.73,776.714 833.45,775.993 
		834.89,775.033 835.85,775.514 836.569,776.473 835.61,776.953 833.93,777.914 833.21,777.914 832.97,778.873 833.21,779.594 
		833.45,781.273 833.45,781.514 833.689,781.514 834.17,781.994 836.569,784.635 836.81,784.874 837.049,784.874 838.489,785.835 
		838.969,786.074 839.209,786.074 841.369,786.314 842.568,786.794 844.968,786.555 847.607,785.594 849.287,784.394 
		850.007,782.234 849.768,779.834 850.728,777.914 850.728,776.233 851.447,774.553 851.447,771.433 850.728,769.993 
		851.687,769.272 854.086,768.553 859.365,764.952 860.085,763.992 860.085,762.792 859.365,761.832 860.085,760.152 
		861.285,759.191 863.924,761.111 865.364,761.352 867.044,762.312 868.244,762.552 873.283,761.832 873.763,762.792 
		873.283,764.231 872.323,764.952 871.123,765.192 868.724,766.393 868.004,766.873 866.804,767.832 866.804,769.993 
		867.044,771.673 869.923,773.113 871.363,773.113 872.803,773.353 873.043,778.873 874.242,779.834 878.322,779.114 
		880.002,778.153 883.36,771.913 884.32,769.272 886.721,768.072 887.44,768.793 886.96,771.433 890.319,771.673 889.84,773.113 
		889.12,777.673 887.68,777.193 885.761,777.193 883.841,777.914 879.762,781.273 879.281,782.714 880.481,783.435 882.881,783.435 
		884.801,782.714 888.16,782.234 888.64,782.475 888.88,783.674 886.96,785.354 885.281,786.074 882.401,786.314 880.002,787.274 
		874.963,787.994 872.803,788.955 872.803,789.915 874.003,790.635 877.122,791.114 877.362,793.995 878.563,794.955 
		880.242,794.955 882.881,793.275 884.561,792.556 884.561,793.515 883.841,793.995 883.841,797.355 885.521,798.315 
		885.521,799.035 881.682,799.035 880.481,798.556 879.521,797.115 878.082,796.396 876.162,796.155 874.963,796.876 
		872.803,795.195 871.844,795.676 871.363,797.596 869.684,799.996 868.244,801.195 868.724,805.996 868.963,806.717 
		866.324,806.236 863.685,804.315 862.005,803.356 859.846,802.876 857.205,801.436 856.006,801.436 853.846,802.396 
		852.406,801.195 849.768,800.956 845.688,800.476 844.008,800.956 844.248,804.557 844.729,805.756 847.607,806.956 
		849.768,806.477 850.486,806.717 849.768,808.156 850.007,808.877 852.646,810.317 854.566,810.557 856.966,810.557 
		862.244,815.357 862.484,816.077 862.244,816.558 861.525,816.077 860.325,815.357 858.405,814.397 856.966,813.197 
		851.687,812.957 848.807,812.236 847.607,812.478 847.127,811.757 846.168,810.557 844.968,810.317 844.248,810.557 
		845.448,813.677 845.448,815.117 844.729,816.558 843.528,816.798 841.849,816.317 840.648,816.798 840.408,817.998 
		840.648,819.438 842.328,821.118 842.568,822.318 840.889,824.478 840.889,825.919 841.369,828.078 839.689,829.279 
		839.449,829.519 839.209,829.759 839.209,830.479 839.929,831.198 843.288,833.599 845.448,833.119 846.407,833.599 848.567,836 
		850.967,837.439 851.447,838.399 851.687,839.84 853.127,840.319 853.366,840.08 853.366,839.36 854.326,838.16 854.807,837.68 
		856.006,836.239 858.405,837.439 857.926,840.08 858.165,841.28 859.605,844.4 860.805,846.081 861.045,846.081 862.965,845.12 
		863.444,844.64 863.685,843.439 864.165,842.72 864.885,843.92 865.604,844.64 866.324,845.12 868.004,845.12 870.163,845.36 
		871.604,845.12 872.803,845.12 874.003,845.12 874.242,844.881 874.963,844.881 875.683,845.601 877.603,846.081 879.281,846.081 
		879.762,846.561 878.563,848.24 878.322,850.16 881.201,850.881 883.36,848.961 885.521,849.201 886.721,849.681 887.68,850.401 
		888.4,851.36 888.88,853.281 890.319,854.722 892.239,854.241 892.239,853.761 892.719,852.802 894.398,851.121 894.639,850.401 
		894.639,849.921 895.839,850.16 896.078,850.16 896.078,850.401 897.039,850.881 897.278,851.36 897.278,852.321 898.238,854.481 
		898.719,855.441 899.198,855.922 899.678,856.161 900.158,856.401 900.397,856.401 901.598,856.881 902.317,858.081 
		902.317,858.322 902.077,858.562 902.077,858.802 902.797,860.002 903.757,860.481 903.997,860.722 904.237,860.722 
		906.156,861.682 906.156,861.922 906.637,862.643 906.637,863.362 906.396,863.843 905.438,864.082 905.677,866.002 
		906.156,867.202 906.877,867.683 907.356,867.923 909.756,867.442 909.756,866.963 911.436,866.243 914.075,865.282 
		914.795,865.522 915.515,866.243 916.955,869.123 916.955,869.363 917.194,870.083 917.435,870.323 916.955,872.003 
		916.955,872.243 916.715,872.243 915.995,872.482 915.995,872.243 915.515,872.243 914.795,871.522 912.636,872.482 
		912.396,873.203 913.355,875.123 914.075,874.644 914.555,875.363 914.795,875.604 915.035,876.084 914.795,876.323 
		914.795,876.563 912.156,879.443 911.915,879.684 911.915,879.924 911.676,882.324 911.436,883.044 910.956,884.244 
		907.836,884.724 907.117,884.724 906.156,884.005 904.478,884.484 902.077,887.364 900.878,889.765 900.158,891.444 
		900.158,891.926 899.918,892.165 899.438,892.165 898.719,891.926 897.519,891.205 897.519,890.965 897.998,890.245 
		897.758,890.005 897.278,889.525 897.039,889.285 896.318,889.765 895.599,889.525 894.639,888.324 894.159,886.404 
		894.159,885.924 893.919,885.205 892.959,883.765 891.76,883.044 889.84,883.284 889.359,883.524 889.6,884.484 889.84,885.444 
		889.359,886.404 888.88,886.404 888.4,886.645 888.16,886.645 886.721,887.124 885.761,887.124 884.32,888.085 883.121,889.045 
		882.881,889.525 883.36,889.765 882.401,892.165 881.201,891.926 880.722,892.405 880.722,892.645 880.481,892.645 
		879.281,894.806 879.281,895.285 878.802,896.006 877.603,897.926 876.882,899.365 875.922,900.565 874.963,901.526 
		873.763,902.967 873.043,903.446 872.083,902.967 872.803,899.606 873.283,898.406 874.242,896.966 876.162,896.485 
		876.882,895.766 881.201,888.805 880.481,887.364 878.802,884.965 876.643,883.524 873.043,883.284 872.563,880.884 
		872.563,878.244 871.604,876.804 870.403,876.084 869.923,875.604 869.443,874.403 868.244,872.003 867.283,870.323 
		866.324,869.363 865.604,868.402 865.364,868.402 864.165,867.442 863.685,867.202 859.605,865.522 858.646,865.043 
		858.405,865.043 858.165,865.043 856.246,864.563 855.525,864.322 854.807,864.082 850.486,863.122 848.327,861.922 
		847.848,861.682 844.968,859.762 843.288,858.802 842.088,858.322 841.849,858.322 840.408,857.842 837.049,856.881 
		836.33,856.881 835.13,856.881 831.051,856.161 830.331,856.401 826.731,856.401 823.611,856.401 822.893,853.521 823.132,852.802 
		823.853,851.602 825.052,850.401 826.011,848.721 826.491,848.001 826.971,847.281 826.971,846.081 826.971,845.36 826.731,844.64 
		826.252,844.16 825.771,843.2 824.812,842.96 823.853,842.48 823.611,841.04 824.572,838.399 824.812,838.16 824.812,837.68 
		825.052,837.199 824.812,836.719 824.812,836.479 824.092,836 823.132,835.52 821.692,835.76 820.252,836.239 817.373,837.919 
		815.453,839.84 814.014,841.76 811.614,842 810.894,841.52 810.654,841.28 809.694,840.08 809.215,839.6 807.535,837.68 
		805.375,837.919 804.655,839.119 804.176,840.08 803.456,841.76 803.216,842.48 803.216,844.16 803.216,846.561 803.695,847.281 
		803.695,847.521 803.456,848.001 803.456,848.961 802.976,849.681 802.976,850.401 803.456,852.321 803.456,852.802 
		803.216,855.441 803.936,857.361 805.615,857.842 806.095,858.802 805.375,860.242 804.896,860.481 803.695,860.722 
		802.495,860.481 800.815,860.722 800.576,861.202 800.576,861.922 800.576,862.402 799.377,863.122 797.697,863.603 
		797.217,863.362 796.497,863.122 796.018,863.603 796.736,866.002 799.136,867.442 799.377,869.603 799.616,869.843 
		800.336,869.843 801.536,869.603 801.775,869.603 802.735,869.363 805.136,866.723 806.335,866.002 806.575,865.762 
		808.734,864.563 810.414,863.603 810.894,863.362 811.614,862.162 812.573,862.402 812.814,862.643 812.573,862.882 
		812.573,863.122 812.094,863.843 811.135,864.563 807.535,866.963 807.295,867.202 804.896,868.883 802.976,870.803 
		802.735,871.283 801.057,872.963 799.616,874.163 798.656,874.644 797.937,875.363 797.697,875.844 796.497,876.804 
		796.018,877.284 792.178,880.164 790.019,881.844 788.578,883.044 787.139,883.765 783.059,885.685 782.819,885.685 782.1,885.444 
		780.66,885.685 778.98,886.165 777.061,886.885 776.581,887.124 776.101,887.364 770.102,889.525 769.382,889.525 769.142,888.564 
		772.021,887.124 774.182,886.885 775.381,886.645 776.581,886.165 778.5,885.205 779.22,884.965 779.939,884.724 780.18,883.765 
		780.18,882.805 780.9,882.564 781.859,882.564 781.859,880.164 780.9,879.443 780.18,879.203 778.02,878.964 776.581,878.724 
		776.82,877.523 774.9,875.123 774.182,874.644 774.182,872.963 774.421,872.003 775.141,871.522 776.34,872.482 777.061,872.243 
		777.54,870.803 775.86,868.162 774.182,867.683 772.981,866.723 772.981,864.563 772.502,863.362 770.581,861.922 766.742,862.402 
		766.742,862.882 766.982,863.603 766.262,864.322 765.782,864.563 765.303,864.563 764.582,865.043 765.063,867.202 
		763.383,871.522 762.423,872.243 761.223,872.723 759.783,873.203 759.544,873.203 759.063,872.723 758.584,872.243 
		757.384,872.482 755.465,872.723 755.465,872.482 755.944,872.003 755.944,871.764 755.944,871.522 754.024,870.563 
		752.824,869.843 753.305,869.363 755.944,868.402 756.184,866.482 756.424,865.522 757.624,863.843 757.624,863.603 
		755.225,862.643 	"/>
	
		<polyline clip-path="url(#SVGID_2_)" fill="none" stroke="#B37C34" stroke-width="0.4799" stroke-linecap="round" stroke-linejoin="round" stroke-miterlimit="3.85" points="
		755.225,862.643 752.824,860.962 751.145,860.481 750.426,861.682 749.465,862.402 748.266,862.402 746.586,862.162 
		745.146,861.442 743.227,862.643 742.507,865.762 742.507,866.002 742.507,866.243 742.986,866.723 743.946,866.482 
		745.146,866.723 747.546,868.162 747.546,868.402 747.546,868.643 747.546,868.883 746.106,869.603 746.106,871.043 
		745.626,871.522 744.187,871.283 739.387,871.764 738.668,870.803 738.428,870.803 737.707,871.043 736.988,872.723 
		736.508,875.123 736.508,875.604 736.988,875.844 737.468,876.563 736.508,881.124 733.148,882.324 731.469,882.084 
		730.509,882.084 728.59,882.805 727.149,882.084 726.43,882.324 723.551,883.284 722.59,884.965 719.711,886.645 719.471,887.124 
		719.231,889.525 719.711,890.485 719.951,890.725 721.631,891.205 723.551,891.205 725.23,890.725 727.869,889.045 
		729.789,889.285 730.028,889.525 730.509,889.765 731.469,889.765 732.429,889.765 733.148,889.285 734.588,888.805 
		736.027,888.564 736.748,888.324 737.228,888.085 737.468,888.085 737.468,888.324 737.707,888.564 737.707,888.805 
		736.508,889.525 736.269,889.525 735.548,889.765 728.829,891.686 727.869,891.926 727.39,892.165 726.669,892.165 
		725.949,892.405 725.23,892.405 724.75,892.645 724.03,892.645 723.311,892.645 722.831,892.645 720.19,892.645 719.951,892.645 
		719.231,892.645 718.511,892.886 717.552,892.886 716.831,892.886 715.392,892.645 715.152,892.165 714.911,892.165 
		714.911,891.444 715.152,890.725 714.911,890.245 714.672,889.285 712.752,885.685 712.272,885.685 711.072,884.484 
		710.113,883.044 708.673,881.124 705.794,878.484 703.874,877.523 703.153,875.844 701.954,875.363 701.715,875.123 
		699.555,876.323 697.395,876.563 694.756,876.084 694.035,875.123 690.916,875.123 687.077,874.403 684.918,872.003 
		683.238,871.043 675.559,870.323 673.399,869.843 666.681,867.202 664.041,865.043 660.441,860.962 660.682,860.002 
		663.321,860.002 664.521,859.522 665.001,859.281 665.24,859.281 665.24,859.041 666.44,857.361 666.92,856.881 667.16,854.961 
		667.4,853.761 667.4,853.521 667.641,853.521 667.881,853.041 667.881,852.802 668.12,852.802 669.8,851.841 671,851.602 
		671.239,851.841 672.68,853.041 674.359,853.041 675.559,851.841 675.079,849.44 673.16,847.04 673.64,846.081 673.64,845.84 
		673.879,845.36 673.16,843.92 672.68,843.439 670.52,842.96 669.561,842.48 668.6,842.24 668.6,842 668.36,840.319 668.36,839.84 
		667.881,839.119 666.92,838.399 666.201,837.919 664.761,838.399 662.602,837.919 660.441,837.439 660.202,837.439 
		659.481,836.719 659.242,836.479 659.002,835.039 657.802,833.84 656.123,833.84 652.764,834.319 650.844,833.84 650.123,833.359 
		650.123,833.119 649.884,832.879 649.884,832.64 649.403,831.679 649.164,831.439 648.684,830.719 647.724,830.239 
		646.284,830.239 645.564,830.239 641.725,831.679 640.286,832.159 638.606,831.919 638.606,831.439 639.326,829.998 
		639.326,829.279 638.846,828.559 638.846,828.318 638.366,828.078 637.886,827.599 637.886,827.358 637.886,826.878 
		637.406,823.998 637.406,823.758 637.166,823.519 636.446,820.157 636.206,819.438 636.206,819.198 635.247,818.718 
		634.287,818.478 633.087,818.718 630.927,819.438 628.288,820.157 626.128,819.678 625.648,819.198 625.648,818.718 
		625.888,818.478 626.368,818.478 626.848,817.518 627.088,817.277 628.048,815.598 628.288,814.397 628.048,813.677 
		628.048,812.717 628.288,811.036 629.007,809.597 629.007,808.396 628.528,806.477 628.288,806.236 627.328,805.516 
		623.968,805.276 623.488,805.276 618.689,805.996 615.81,804.797 614.37,805.036 611.251,805.756 610.771,805.996 605.732,808.637 
		604.052,809.837 602.612,810.557 601.893,810.077 600.213,809.837 600.213,809.597 600.213,809.356 600.453,809.117 
		600.693,808.156 600.693,807.437 600.453,806.717 600.213,805.756 600.453,804.797 600.933,803.597 602.612,800.716 
		603.092,797.596 601.413,794.955 599.253,793.995 597.333,794.715 596.374,796.636 595.894,796.636 593.494,796.396 
		591.334,797.355 590.375,798.076 589.415,798.795 588.935,799.275 588.695,799.275 585.576,800.235 583.176,800.956 
		581.016,802.156 576.217,805.036 575.498,805.516 575.257,805.756 571.658,808.877 571.418,809.117 570.938,811.518 
		572.618,815.117 572.618,816.077 573.578,817.998 574.538,820.157 575.018,820.878 575.977,821.118 576.937,821.357 
		579.816,821.118 580.057,821.118 580.296,821.118 581.496,820.878 581.976,820.638 584.375,820.397 585.576,821.357 
		586.295,821.598 586.535,821.838 587.255,822.078 591.094,822.559 593.734,822.318 594.454,822.078 594.934,821.357 
		595.654,819.438 598.293,818.957 598.533,819.198 600.213,819.918 601.893,819.678 602.132,819.438 604.532,819.918 
		604.772,820.397 604.772,821.118 605.012,821.598 606.691,822.798 608.851,823.519 610.771,824.238 611.491,824.959 
		611.971,825.678 611.971,826.398 615.09,826.639 617.97,827.839 618.449,827.839 618.929,827.839 619.169,828.318 618.929,829.279 
		616.53,831.198 615.09,831.679 612.931,833.359 612.21,835.52 612.21,836.239 612.451,836.96 612.451,837.439 611.251,838.16 
		610.531,838.399 609.331,837.68 608.851,837.68 607.651,838.399 606.932,839.36 605.012,838.88 603.812,838.16 603.572,836.719 
		602.373,835.76 600.693,835.76 599.733,835.52 597.573,833.84 596.613,833.84 593.014,831.919 590.615,831.679 588.935,830.239 
		584.375,827.839 583.416,826.398 582.696,825.919 582.216,825.678 580.057,825.678 575.737,825.438 569.979,826.158 
		569.738,826.158 565.899,827.599 564.939,828.078 563.979,828.559 562.06,829.759 560.14,830.959 559.66,831.439 556.541,832.159 
		553.661,832.159 553.421,832.159 553.182,832.159 549.342,831.439 543.103,829.998 537.344,829.039 535.905,828.799 
		535.425,828.559 532.065,828.318 530.386,828.078 526.066,827.599 521.027,826.639 519.828,826.398 519.587,826.398 
		515.748,825.198 511.429,823.758 508.55,822.559 505.67,821.598 503.99,820.638 503.75,820.638 500.631,819.198 499.671,818.718 
		497.992,817.998 494.392,816.077 492.232,815.117 491.993,814.877 487.673,812.717 485.034,811.518 485.034,811.277 
		484.794,811.277 484.314,811.036 483.354,810.557 480.715,809.356 477.115,808.156 476.875,808.156 476.635,808.156 
		476.396,807.916 473.276,806.956 470.637,805.996 468.237,805.036 464.158,803.836 458.399,802.156 453.36,801.436 453.12,801.436 
		453.12,801.195 452.88,801.195 449.28,801.195 448.561,801.195 448.321,801.195 446.161,801.436 445.441,801.436 443.042,802.156 
		440.402,802.876 440.162,803.356 439.922,803.597 437.283,802.876 434.403,802.636 429.844,802.156 426.005,802.156 
		425.765,802.156 419.046,802.876 413.287,803.597 408.488,804.076 403.688,804.557 403.209,804.557 402.009,804.797 
		398.17,805.516 396.73,805.996 395.771,806.236 394.091,806.717 390.491,808.396 388.332,809.837 386.172,811.518 383.533,807.196 
		382.813,805.756 382.333,805.516 380.653,805.036 380.413,804.797 380.413,804.557 380.173,803.597 380.173,803.116 
		380.413,802.876 380.413,802.636 380.173,801.916 379.693,801.195 377.054,799.516 376.574,799.035 376.333,798.076 
		376.333,797.355 376.574,796.396 377.054,795.436 377.773,794.476 378.253,793.995 379.453,793.275 379.453,793.035 
		379.693,793.035 380.413,792.556 380.653,792.314 382.573,791.355 383.533,790.635 383.772,790.635 384.252,789.915 
		384.492,789.675 384.732,789.435 386.412,787.515 387.372,786.074 388.571,783.435 388.812,782.714 389.051,781.033 
		389.771,778.394 390.251,777.434 391.931,774.313 392.171,774.073 392.651,773.593 394.331,772.394 394.571,772.394 
		395.771,771.193 396.49,770.713 396.97,770.473 397.21,770.232 397.45,769.993 397.45,768.793 397.69,768.313 397.69,768.072 
		398.41,767.353 398.65,767.353 399.129,766.632 399.37,766.393 400.569,766.152 401.289,766.152 401.529,765.912 401.769,765.912 
		401.769,765.673 401.769,765.432 401.769,765.192 401.769,764.952 401.529,764.952 401.529,764.712 401.049,764.473 
		400.809,764.473 400.089,764.231 399.85,764.231 398.89,763.271 398.65,763.031 398.41,762.792 398.17,762.312 398.17,762.072 
		398.17,761.832 398.41,761.592 398.65,761.592 398.89,761.352 399.129,761.111 400.329,760.152 400.569,759.672 401.289,759.191 
		401.289,758.952 401.529,758.952 401.529,758.711 401.529,757.752 401.529,757.031 401.769,756.791 401.769,756.552 
		401.769,755.831 402.009,755.592 402.489,756.071 402.729,756.071 403.209,755.352 402.249,754.151 402.009,753.671 
		401.769,752.231 401.769,751.99 401.529,751.511 401.529,751.271 401.529,751.031 401.289,750.79 400.809,750.311 400.089,748.631 
		399.609,746.71 399.85,745.511 400.089,745.27 400.569,744.79 401.049,743.11 401.529,742.63 401.289,742.39 401.289,741.67 
		401.289,741.189 401.049,738.79 401.289,738.31 401.289,737.83 401.289,737.59 401.289,737.35 401.049,736.869 401.049,736.629 
		400.809,736.39 400.569,736.149 400.089,735.909 399.37,735.909 398.89,735.43 398.17,735.189 397.93,734.949 397.69,734.469 
		397.21,733.989 396.97,733.509 395.53,731.589 395.05,731.589 395.05,731.109 395.291,730.389 395.53,729.429 395.771,728.948 
		396.01,728.229 396.01,727.269 396.01,727.028 396.01,726.548 396.01,724.868 395.771,724.628 395.771,724.389 396.01,724.147 
		396.01,723.908 396.25,723.668 396.73,723.188 397.21,723.188 397.93,722.468 398.17,722.228 399.129,721.027 399.85,720.308 
		402.009,719.107 402.009,718.868 402.489,718.147 402.489,717.668 402.489,717.427 401.769,715.507 401.289,714.307 
		401.289,714.066 401.049,713.587 401.049,713.347 400.809,712.387 400.569,710.947 400.809,710.227 401.289,709.506 
		401.049,709.026 401.049,708.787 400.809,708.066 400.809,707.826 400.329,707.586 399.37,707.106 398.89,706.626 398.17,705.427 
		397.93,705.186 398.41,705.186 398.41,704.946 399.37,704.706 399.37,704.466 399.609,703.026 399.37,701.826 399.37,701.346 
		399.37,701.105 399.37,700.865 400.089,700.146 401.049,699.186 402.969,698.706 403.209,698.465 403.688,698.706 403.929,698.945 
		404.168,698.706 404.409,698.226 404.649,697.745 404.649,697.506 404.409,697.025 404.409,696.785 404.168,695.585 
		404.168,695.105 404.168,694.625 404.168,693.905 404.409,692.705 404.409,692.465 405.608,690.544 405.849,690.544 
		406.329,690.064 407.528,689.104 408.488,688.864 409.208,688.625 409.928,688.145 410.167,687.904 411.127,686.225 
		411.127,685.984 411.127,685.744 411.127,684.784 411.607,683.823 411.607,683.584 412.327,683.104 412.327,682.864 
		412.567,682.384 412.327,681.664 411.607,680.464 411.607,680.224 411.367,679.983 411.847,679.264 412.087,679.264 
		412.327,678.783 412.807,678.063 414.247,677.344 414.487,676.863 414.727,675.663 414.727,674.463 414.967,673.982 
		415.207,673.263 415.926,672.543 416.887,672.543 417.366,672.063 417.606,672.063 417.846,671.823 418.566,669.662 
		418.566,668.942 418.566,668.463 418.086,667.982 418.086,667.262 418.086,666.302 418.086,666.062 418.086,664.382 
		418.086,664.143 417.606,663.662 417.366,663.662 417.366,663.422 417.126,662.941 417.126,661.742 417.606,661.021 
		417.846,660.781 418.326,660.062 418.566,659.102 418.566,658.861 418.806,658.141 419.046,657.901 419.286,657.661 
		419.526,657.661 419.766,657.661 420.006,657.901 421.206,657.422 421.686,656.701 421.686,655.501 421.686,655.261 
		420.966,654.061 420.486,653.341 420.246,653.341 419.286,651.9 419.046,651.9 418.086,651.42 417.366,650.46 416.887,649.261 
		416.887,649.021 417.126,648.3 417.366,647.58 417.606,647.34 417.846,647.1 418.566,647.34 420.246,646.86 420.486,646.86 
		422.885,644.94 422.885,644.7 422.885,644.22 422.885,643.74 422.166,643.02 421.206,641.339 421.206,640.859 421.446,640.62 
		421.925,640.379 422.166,640.14 422.166,639.899 422.166,639.659 422.166,639.419 421.925,638.939 421.686,638.699 
		421.446,638.459 420.486,637.979 419.766,637.499 419.286,636.299 419.046,635.579 419.286,635.339 419.286,634.619 
		419.526,634.619 420.246,633.659 420.486,632.699 420.486,631.739 420.006,631.019 420.006,630.778 420.006,629.818 
		420.006,629.098 420.006,628.618 420.486,628.138 420.726,627.898 421.206,626.458 421.206,625.978 421.446,625.258 
		421.206,624.778 420.966,624.538 419.526,624.538 419.286,624.538 418.326,625.018 417.606,625.498 417.366,625.498 
		416.887,625.978 416.887,626.218 416.407,626.698 416.167,626.938 415.926,626.938 415.687,626.938 415.446,626.938 
		415.207,626.938 414.487,626.218 414.247,625.978 414.007,625.738 413.767,625.018 413.287,622.138 413.527,620.697 
		413.767,620.217 413.527,619.737 413.287,619.257 413.047,619.017 412.567,618.537 412.327,618.537 412.327,617.097 
		412.567,616.137 412.567,615.177 412.567,614.937 412.087,613.737 411.847,613.737 411.127,613.977 410.647,613.977 
		409.688,613.977 408.968,613.497 408.008,612.537 406.808,610.376 406.088,609.896 405.128,609.896 404.889,609.417 
		404.889,608.937 405.849,606.296 406.329,605.096 406.808,603.896 406.808,603.416 407.288,603.176 407.288,602.936 
		407.528,602.696 407.528,602.456 407.288,602.216 407.048,601.976 406.808,601.735 406.808,601.255 406.808,601.016 
		407.048,600.775 407.048,600.295 406.808,599.095 406.568,598.375 406.329,597.895 405.849,597.655 404.649,596.695 
		404.168,596.455 403.449,596.455 403.209,596.215 403.209,595.255 403.929,594.055 403.929,593.815 403.449,592.854 
		402.969,592.375 402.729,592.135 398.89,589.254 398.41,589.014 398.41,588.774 398.41,588.534 398.41,588.054 398.41,587.574 
		398.65,587.334 398.89,587.334 399.129,587.094 399.85,586.854 400.089,586.374 400.329,585.894 400.569,585.414 401.049,584.454 
		400.809,583.974 400.809,583.494 400.089,583.254 399.609,583.014 399.37,582.773 399.37,582.534 399.37,582.293 399.37,582.054 
		399.129,582.054 399.129,581.813 398.65,581.813 398.41,581.573 398.17,581.813 397.93,581.813 397.45,582.054 395.53,581.813 
		395.05,581.813 394.331,581.573 393.371,580.613 391.211,577.973 390.971,577.493 390.731,576.773 390.731,576.293 
		389.292,574.133 389.051,573.173 389.051,572.453 389.051,571.493 390.251,570.292 390.491,570.532 390.731,570.532 
		391.211,570.532 391.451,569.572 391.211,567.172 391.211,566.452 390.491,564.772 390.491,564.532 390.491,564.052 
		390.971,563.092 391.451,563.332 391.691,563.092 391.931,562.611 392.891,561.651 393.13,560.691 393.13,560.211 392.891,559.971 
		392.891,559.731 392.651,559.491 392.651,559.251 392.171,559.251 392.171,559.011 391.691,559.011 391.691,558.531 
		391.691,558.291 391.691,557.331 391.211,556.371 391.211,556.131 390.731,555.411 390.011,553.971 390.251,553.011 
		390.491,552.291 390.491,552.05 390.731,551.811 390.971,550.61 390.971,550.37 390.491,550.13 390.011,549.65 389.771,549.41 
		389.532,548.69 389.532,548.45 389.532,547.97 389.292,547.49 388.571,547.01 387.852,546.53 386.172,545.33 385.932,545.09 
		385.452,544.61 385.452,543.41 385.452,542.93 385.452,542.209 384.972,541.729 384.492,541.25 384.252,540.289 384.013,540.049 
		384.013,538.849 383.292,537.889 383.053,537.889 382.813,537.169 382.813,536.449 382.333,535.729 381.853,535.489 
		381.133,535.489 380.893,535.729 380.413,535.969 379.933,535.729 379.453,535.249 379.213,534.049 378.974,533.809 
		378.253,533.568 377.293,533.329 375.374,532.128 374.654,531.168 374.414,530.688 372.975,528.048 372.734,527.808 
		372.495,527.088 372.015,526.128 371.775,525.648 371.535,525.168 371.055,524.448 370.815,523.968 370.335,523.007 
		369.615,522.527 369.375,522.527 369.135,522.527 368.416,523.007 367.935,523.007 367.935,522.768 367.935,522.527 
		367.935,522.288 367.935,522.047 367.935,521.087 367.935,514.847 367.935,513.167 368.175,506.926 368.175,506.206 
		368.175,504.766 368.175,502.125 368.175,500.925 368.175,498.765 368.175,497.325 	"/>
	
		<polyline clip-path="url(#SVGID_2_)" fill="none" stroke="#B37C34" stroke-width="0.4799" stroke-linecap="round" stroke-linejoin="round" stroke-miterlimit="3.85" points="
		932.552,775.514 932.313,774.313 932.072,773.833 931.832,771.673 932.072,770.952 932.072,770.232 931.592,769.033 
		931.353,767.593 930.632,765.192 929.433,763.512 927.992,761.592 926.793,760.392 927.992,760.872 929.672,762.792 
		931.353,765.432 932.313,767.112 933.272,770.473 934.231,775.033 934.472,780.794 933.512,786.074 933.031,788.955 
		931.832,792.556 929.912,798.076 927.272,802.396 921.994,810.317 921.514,810.077 921.273,809.597 921.754,807.916 
		922.714,806.956 922.953,806.717 923.914,805.516 924.873,804.797 927.272,800.956 928.952,797.355 929.433,795.676 
		929.433,793.275 929.912,791.355 931.592,789.915 931.832,788.715 932.552,785.114 932.552,784.635 931.832,783.914 
		933.031,781.994 933.031,776.714 932.552,775.514 	"/>
</g>
</svg>
