<?xml version="1.0" encoding="utf-8"?>
<!-- Generator: Adobe Illustrator 15.1.0, SVG Export Plug-In . SVG Version: 6.00 Build 0)  -->
<!DOCTYPE svg PUBLIC "-//W3C//DTD SVG 1.1//EN" "http://www.w3.org/Graphics/SVG/1.1/DTD/svg11.dtd">
<svg version="1.1" id="State" xmlns="http://www.w3.org/2000/svg" xmlns:xlink="http://www.w3.org/1999/xlink" x="0px" y="0px"
	 width="1296px" height="1296px" viewBox="0 0 1296 1296" enable-background="new 0 0 1296 1296" xml:space="preserve">
<g>
	<defs>
		<rect id="SVGID_1_" x="349.219" y="263.061" width="591.731" height="770.958"/>
	</defs>
	<clipPath id="SVGID_2_">
		<use xlink:href="#SVGID_1_"  overflow="visible"/>
	</clipPath>
	
		<polyline clip-path="url(#SVGID_2_)" fill="none" stroke="#B37C34" stroke-width="0.7199" stroke-linecap="round" stroke-linejoin="round" stroke-miterlimit="3.85" points="
		401.769,639.419 402.489,639.419 402.969,639.179 403.929,638.459 404.649,638.219 406.568,638.219 407.288,638.459 
		408.008,638.459 409.208,637.979 409.928,637.739 410.647,637.259 411.367,635.819 411.127,635.339 410.408,634.619 
		410.167,633.179 410.167,632.938 410.408,632.699 411.127,632.938 411.607,633.179 412.567,634.139 412.807,634.379 
		413.047,634.619 413.287,635.099 415.446,635.099 417.366,634.859 417.606,635.339 418.326,636.539 418.806,637.259 
		420.006,637.499 420.966,638.219 421.206,638.699 421.925,641.339 421.686,641.82 421.206,642.78 420.966,643.02 420.726,643.98 
		420.726,644.22 421.686,644.7 422.405,645.66 423.605,647.58 423.605,648.541 423.605,649.98 423.605,650.221 424.085,650.701 
		425.045,651.42 425.765,651.66 427.685,652.381 428.404,652.381 429.844,651.66 430.564,651.181 430.324,650.94 429.364,649.98 
		429.364,647.82 429.364,646.86 430.084,646.38 430.324,646.14 430.564,645.9 431.044,644.7 431.284,644.22 431.524,643.98 
		431.524,642.78 431.764,642.3 433.204,641.1 433.683,640.379 434.163,638.699 434.403,637.019 434.163,636.299 433.923,636.059 
		433.683,636.059 433.204,635.579 432.963,635.339 432.963,634.859 432.963,633.899 433.443,631.259 434.163,630.298 
		434.403,630.059 434.883,630.059 434.883,629.818 434.883,629.578 434.403,627.898 434.403,627.658 433.923,626.938 
		433.683,626.698 432.724,625.498 432.483,625.498 432.244,625.258 432.244,624.298 432.244,624.058 433.683,622.138 
		435.123,621.178 435.363,619.978 435.603,619.737 435.603,619.498 435.843,619.498 435.843,619.257 437.522,618.777 
		440.642,619.257 440.642,619.498 440.882,619.498 441.842,620.697 441.842,621.178 441.842,622.138 443.521,624.298 
		444.241,625.018 445.441,625.738 447.841,625.498 448.561,625.258 448.8,625.018 449.041,625.018 449.521,625.018 451.44,626.458 
		451.68,627.898 452.64,627.898 453.36,627.658 454.56,626.938 454.799,624.538 455.04,622.858 455.04,621.417 454.56,619.498 
		452.88,617.097 451.44,616.377 450,615.417 449.28,614.457 448.8,613.497 448.081,612.296 446.641,610.856 446.161,610.616 
		445.201,609.417 444.481,606.296 444.481,605.816 444.481,605.336 444.721,604.856 445.201,604.376 445.921,603.416 
		446.881,602.456 447.121,602.216 448.561,599.335 448.561,597.415 448.561,596.935 448.8,596.695 449.76,595.735 451.92,593.095 
		452.64,591.895 453.12,591.174 453.12,590.935 453.6,589.734 454.799,589.254 456.959,588.054 458.159,586.614 458.879,586.374 
		459.838,585.894 460.079,585.894 463.198,581.813 463.438,580.854 463.198,580.613 463.198,580.374 463.918,579.894 
		464.397,579.653 465.837,579.894 467.517,579.894 468.477,579.173 468.477,578.933 469.437,577.733 471.116,576.533 
		474.236,574.133 476.396,573.653 476.875,573.653 477.835,573.653 478.795,573.173 479.995,572.453 480.475,571.973 
		481.915,571.252 482.154,571.012 482.395,571.012 483.594,569.572 484.314,568.612 483.594,565.972 482.875,565.012 
		482.154,564.772 481.674,564.052 480.475,559.971 480.235,558.771 480.235,558.531 480.475,558.531 481.435,558.051 
		481.674,558.051 481.915,558.291 482.154,558.291 482.395,558.291 482.875,557.811 482.875,557.571 482.875,557.331 
		482.634,557.091 482.875,556.371 483.834,554.451 484.554,553.491 485.754,552.291 486.234,551.811 489.113,548.93 490.553,548.69 
		491.273,548.45 491.513,548.45 491.993,548.21 492.953,547.97 493.432,547.73 495.832,545.81 498.472,543.169 498.711,542.689 
		499.431,540.529 499.431,540.049 498.951,538.129 498.711,537.649 498.472,537.649 498.231,537.649 498.231,537.169 
		498.472,537.169 498.472,536.929 499.671,535.489 500.871,534.529 501.111,534.289 501.111,533.809 499.431,531.889 
		497.992,530.688 497.032,530.448 496.312,530.208 495.352,530.448 492.473,530.688 492.232,530.448 492.712,529.248 
		492.712,529.008 492.953,527.808 493.192,527.328 493.912,526.848 494.632,526.848 495.592,525.648 495.832,525.168 
		494.872,524.928 493.672,524.688 493.672,524.448 491.993,521.327 491.993,521.087 494.152,518.447 494.872,517.487 
		496.552,515.807 496.552,514.847 496.552,514.367 495.832,513.887 495.592,513.887 495.352,514.126 495.112,514.126 
		494.872,514.367 494.632,514.367 493.672,514.126 493.432,514.126 493.192,514.126 492.953,513.887 492.953,513.646 
		494.152,511.246 494.632,510.286 495.352,508.606 495.832,507.886 497.271,507.406 497.992,507.646 499.431,507.886 
		499.671,507.646 499.671,506.686 499.431,506.446 499.431,505.966 499.671,504.766 500.631,502.846 501.111,500.685 
		501.351,499.965 501.111,499.485 497.992,496.125 497.512,495.645 497.271,495.645 496.792,495.165 496.552,495.165 
		496.552,494.925 495.112,493.484 495.112,492.524 494.872,492.524 495.832,491.564 497.271,489.404 498.711,485.804 
		498.951,485.083 499.191,483.403 499.431,481.963 499.671,481.243 500.151,479.803 501.111,478.363 501.831,476.923 
		503.99,475.243 504.95,474.522 505.43,472.123 505.19,471.642 504.95,471.162 504.71,469.722 504.71,469.482 504.95,469.242 
		506.63,466.362 507.11,466.122 508.55,464.682 508.79,464.682 509.029,464.682 510.229,464.202 511.669,464.682 512.389,463.961 
		513.349,463.001 513.829,463.001 513.829,462.761 514.068,462.521 514.068,461.321 514.309,461.081 514.309,460.841 
		515.028,460.361 515.988,460.121 517.188,457.961 517.188,457.001 517.668,456.281 518.388,456.041 519.587,456.041 
		520.067,456.281 522.227,455.321 522.227,455.081 525.586,431.558 526.066,429.158 526.066,428.678 526.546,425.798 
		528.946,408.516 529.426,408.036 534.465,400.595 535.185,399.395 542.863,388.114 549.342,378.513 577.897,336.749 
		592.054,315.867 616.05,280.583 616.53,281.063 618.449,281.783 620.849,281.303 621.089,281.063 622.769,282.023 623.729,282.023 
		624.928,282.263 627.568,283.463 629.248,284.423 630.208,285.144 630.447,285.383 630.447,285.863 632.127,286.344 
		632.367,286.344 633.807,285.383 634.526,284.903 635.247,284.903 636.446,285.623 636.686,285.863 636.926,286.583 
		637.406,288.983 637.166,289.704 636.686,290.184 636.686,290.424 636.926,290.664 636.686,290.664 636.446,291.624 
		636.446,292.104 636.686,292.344 636.926,292.584 637.166,292.824 636.686,293.064 636.206,293.064 635.486,294.024 
		635.726,302.425 635.486,304.345 636.206,305.785 635.966,306.985 635.726,307.226 635.726,307.946 635.726,308.186 
		635.966,308.186 636.206,308.426 636.206,309.386 635.966,310.106 636.206,310.826 636.446,311.306 636.446,312.506 
		636.446,312.986 636.206,313.226 636.206,313.706 636.206,313.946 636.206,314.187 637.406,316.106 638.126,316.827 
		638.606,316.827 639.086,317.067 641.485,318.507 642.685,319.467 644.125,320.187 644.845,320.667 645.084,321.147 
		645.805,321.387 646.284,322.587 646.764,322.587 647.244,322.347 647.484,322.347 647.484,323.067 647.724,323.067 
		648.444,322.347 649.403,323.067 649.884,323.787 650.123,323.787 650.364,323.787 650.604,323.787 651.084,324.268 
		651.084,324.987 651.563,325.228 652.283,325.708 652.764,326.428 653.243,326.908 653.482,326.428 653.963,326.188 
		654.203,326.188 654.443,326.188 655.402,326.188 655.883,325.467 656.362,325.228 656.603,324.987 657.563,324.987 
		658.282,324.747 658.762,324.268 659.242,323.547 660.682,322.827 660.922,322.587 661.161,322.347 661.642,321.867 
		661.881,321.627 662.841,320.907 663.321,320.667 664.281,320.427 666.92,319.467 668.12,319.467 668.6,319.467 668.84,319.227 
		670.04,318.507 670.76,317.787 671.96,317.067 673.879,316.106 674.359,316.106 674.599,316.347 675.079,316.586 675.318,316.586 
		676.278,316.106 676.759,315.867 676.998,315.626 677.239,315.626 677.959,315.626 678.438,315.867 678.678,315.867 
		680.118,316.827 680.357,316.827 680.598,316.586 681.078,316.347 681.798,316.106 682.758,315.867 684.438,315.626 
		684.918,315.626 686.356,314.906 686.598,314.426 687.797,313.226 687.797,312.746 687.797,312.506 687.797,312.266 
		687.316,311.306 687.316,311.066 687.557,310.826 688.036,310.346 688.277,309.386 688.517,309.146 688.996,308.426 
		689.236,308.426 689.477,308.186 689.716,308.186 690.437,308.186 691.636,308.666 692.356,308.906 692.596,308.906 
		693.076,308.666 694.035,308.426 695.235,307.226 695.715,306.746 696.436,306.505 697.635,306.505 697.875,306.505 
		698.835,306.746 699.314,306.746 700.035,306.746 700.754,306.266 701.234,306.266 701.715,306.266 702.194,306.505 
		702.434,306.985 702.674,307.466 702.914,307.946 703.153,308.186 704.114,308.666 704.354,308.666 704.834,308.426 
		706.033,308.666 706.273,308.666 706.514,308.666 706.753,308.426 706.993,308.426 707.953,307.706 708.193,307.466 
		710.832,307.706 711.793,307.706 712.032,307.706 712.272,307.706 712.272,307.466 712.512,307.466 712.512,307.226 
		712.512,306.985 712.512,306.746 712.512,306.505 712.272,306.266 712.272,306.025 712.032,305.785 711.552,305.306 
		711.313,305.065 711.552,304.585 711.793,304.345 711.793,304.105 711.793,303.865 711.313,301.945 711.313,301.225 
		711.313,300.985 711.793,298.825 712.032,298.345 712.032,298.104 712.272,297.625 712.512,297.625 712.752,297.145 
		712.992,296.904 713.231,296.665 713.473,296.425 713.952,296.185 714.672,295.944 714.911,295.944 716.591,295.464 
		716.831,295.464 717.552,295.464 718.271,295.464 719.711,295.944 720.431,296.185 720.671,295.944 721.631,295.464 
		721.871,295.225 722.11,295.225 722.59,295.225 723.311,295.464 724.03,296.185 724.27,296.185 724.75,296.425 726.669,296.425 
		727.629,296.185 728.349,295.944 729.069,296.185 729.309,296.665 729.549,296.904 729.549,297.385 729.549,297.625 
		729.789,297.865 730.269,298.345 730.509,298.585 730.749,298.585 730.989,298.585 731.709,298.345 731.948,298.585 
		734.348,299.785 735.068,300.025 736.748,300.265 737.228,300.745 737.468,300.745 737.468,300.985 737.707,301.225 
		737.707,302.665 737.707,302.905 737.707,303.145 738.668,304.105 739.627,305.545 740.587,305.785 740.827,306.025 
		741.307,306.746 741.547,306.985 744.666,308.666 745.866,309.386 746.106,309.626 746.346,310.346 746.586,311.066 
		746.826,311.306 748.266,311.786 751.145,313.706 751.386,313.946 753.064,314.906 753.545,315.387 754.744,316.827 
		755.704,318.026 756.424,318.987 756.664,319.227 757.144,319.467 758.823,319.707 759.063,319.947 759.544,320.427 
		760.503,321.147 760.983,321.627 760.983,322.107 761.223,323.307 761.223,323.787 761.943,324.747 762.183,324.987 
		762.663,325.708 762.902,326.667 763.383,327.388 763.863,328.108 764.103,328.348 764.103,328.588 764.343,328.588 
		764.823,329.068 766.022,329.548 766.742,331.228 766.982,331.468 767.941,332.428 768.182,332.668 768.422,333.388 
		768.422,334.349 768.422,335.068 768.662,335.548 768.902,336.269 769.142,336.509 769.382,336.749 769.861,336.988 
		770.822,337.229 771.302,337.469 773.221,338.429 774.66,339.389 775.141,339.629 776.101,339.869 776.34,339.869 777.061,340.349 
		777.54,341.069 778.261,341.549 779.46,342.029 779.939,342.509 779.939,342.75 780.18,343.229 780.18,345.39 780.18,347.07 
		780.42,349.47 780.42,351.15 780.42,353.07 780.42,353.791 780.66,359.311 780.66,360.511 781.14,373.472 781.14,374.913 
		781.379,387.874 781.619,392.674 781.619,394.114 782.1,405.396 782.58,420.037 782.58,420.277 783.299,435.159 783.539,442.6 
		783.779,445.24 783.779,447.4 784.019,451.72 784.26,458.201 784.979,473.803 785.459,489.164 785.698,493.965 785.698,498.045 
		785.939,504.286 786.179,513.887 786.419,519.407 786.419,520.127 786.419,521.087 786.658,526.368 786.658,527.328 
		786.658,529.728 786.898,530.448 787.139,531.168 787.378,531.168 787.619,531.168 789.538,532.608 790.498,533.809 
		790.258,534.289 789.778,534.769 789.298,535.249 788.818,535.009 788.818,535.249 788.338,536.449 788.338,537.169 
		787.139,537.649 786.658,537.649 786.419,537.649 785.459,538.609 784.499,539.809 784.26,539.809 784.26,541.25 784.499,542.209 
		784.739,542.689 785.219,543.649 786.179,545.09 786.898,545.81 787.619,546.29 788.338,546.77 788.578,547.01 789.058,547.97 
		789.298,548.45 789.298,548.69 790.258,549.65 789.298,550.13 789.058,550.37 788.338,550.37 787.619,550.37 787.378,550.61 
		787.378,550.851 784.979,553.011 784.499,554.451 784.979,556.611 784.739,558.051 784.739,558.771 784.26,559.011 
		784.739,561.171 786.179,561.892 787.619,565.012 784.499,565.492 785.459,571.012 783.539,571.493 784.979,573.413 
		785.459,573.893 789.538,573.893 791.218,575.573 794.098,576.293 795.057,576.293 795.297,576.293 795.537,575.813 
		795.537,575.333 794.817,574.853 793.857,573.653 793.617,572.692 793.377,571.973 793.857,571.973 794.098,571.973 
		795.777,573.173 796.257,573.413 796.736,574.373 797.697,576.533 798.416,578.213 800.576,581.333 801.775,582.293 
		804.176,584.214 804.655,583.734 804.176,582.534 804.896,582.293 805.855,582.773 808.734,585.174 811.614,585.654 
		814.014,586.854 814.733,586.854 814.733,586.614 815.933,586.374 817.133,586.854 819.053,588.054 821.452,588.054 
		822.412,587.334 822.652,586.614 822.652,586.374 822.412,585.894 822.412,585.654 823.853,585.174 826.491,584.934 
		827.211,585.174 829.61,588.294 830.091,589.014 830.331,590.214 830.811,593.815 830.331,595.495 829.851,595.495 
		829.851,595.255 829.61,595.255 829.61,595.495 829.37,596.215 829.131,597.175 829.131,597.415 829.61,598.855 831.051,600.295 
		831.53,601.496 831.53,601.735 831.051,601.255 830.811,601.255 830.57,601.255 830.57,601.735 830.331,601.976 830.091,601.976 
		827.69,601.496 826.011,601.016 825.291,601.496 825.291,601.735 825.291,602.456 824.572,602.936 823.132,603.416 
		821.932,603.896 821.452,604.136 821.452,604.376 821.452,604.856 821.932,606.056 822.652,607.016 823.611,607.736 
		824.092,608.937 824.092,609.417 823.853,609.656 823.853,610.376 824.812,613.737 825.291,614.937 825.531,615.177 
		827.211,616.377 828.411,617.577 830.57,619.978 832.011,622.618 832.011,622.858 831.771,623.098 831.53,623.338 831.051,623.338 
		830.811,623.578 830.57,623.818 830.331,624.778 830.331,625.258 831.051,626.218 830.811,627.418 830.331,628.858 829.61,629.818 
		828.171,631.019 827.932,631.259 827.932,631.739 828.411,632.458 828.411,632.938 828.411,633.179 827.451,635.579 
		826.971,636.059 826.971,636.539 826.971,636.779 825.291,637.499 825.052,637.259 824.812,637.019 824.572,637.259 
		824.331,638.699 824.331,638.939 824.572,639.179 827.451,644.94 827.69,645.18 827.932,645.42 828.65,645.42 830.331,647.82 
		830.811,648.541 831.53,650.46 831.771,652.381 831.771,653.341 834.41,655.501 834.65,656.701 834.89,657.661 834.89,657.901 
		834.89,658.381 834.89,658.621 834.89,658.861 835.85,659.342 836.569,659.581 837.529,660.062 838.969,661.502 839.209,661.742 
		840.648,663.182 841.129,663.662 842.088,664.143 842.568,664.143 842.809,664.143 844.008,663.182 845.208,661.742 
		846.647,660.781 847.607,660.541 847.848,660.302 847.848,660.062 847.848,659.342 847.607,659.102 847.127,658.861 
		846.888,658.141 847.367,656.941 847.607,656.461 848.088,656.461 848.088,655.981 847.848,655.741 847.848,655.501 
		847.848,655.261 848.088,654.781 848.088,653.581 848.327,653.581 848.567,653.101 848.807,652.86 849.048,652.86 849.768,652.86 
		850.247,653.101 850.486,653.101 850.728,653.101 850.967,653.341 851.687,653.581 852.166,654.061 853.366,654.541 
		853.606,655.021 853.846,655.981 854.086,656.222 855.046,656.701 855.525,657.182 855.766,657.422 856.246,657.422 
		858.405,655.981 859.365,656.461 860.085,656.941 862.725,656.941 863.444,657.182 863.685,657.422 863.924,657.661 
		865.604,659.821 867.523,662.222 868.004,662.941 868.244,663.422 869.684,665.342 871.844,671.582 872.563,672.543 
		870.643,673.263 869.443,674.703 871.123,676.383 871.604,676.623 873.763,679.023 874.723,680.703 874.963,682.624 
		875.442,683.823 877.362,685.984 878.322,689.104 878.563,690.544 879.042,691.505 879.281,692.465 879.521,692.944 
		880.002,693.905 883.841,697.265 885.281,697.265 886,698.226 886.24,699.665 886,700.146 886,700.626 885.521,700.865 
		885.521,703.266 886.24,704.706 886.24,705.427 886.721,706.386 887.2,707.347 885.521,708.787 885.04,709.506 885.04,709.747 
		886.48,713.347 887.68,714.307 888.88,713.587 890.56,713.347 890.8,713.827 890.8,714.307 889.6,715.507 888.4,715.747 
		887.68,715.507 887.2,715.747 886.24,717.188 885.521,718.387 885.281,718.868 882.641,721.748 881.922,722.468 880.002,722.948 
		878.563,721.988 877.842,722.228 877.842,722.468 877.603,724.147 877.122,725.588 876.643,727.028 876.162,727.028 
		875.442,727.269 875.202,727.269 874.242,727.028 873.522,727.269 873.283,729.429 873.043,730.869 873.043,731.109 
		872.563,732.068 871.604,733.269 871.123,733.749 870.403,734.949 868.963,735.189 868.004,736.869 867.283,739.51 867.523,739.51 
		866.804,739.989 866.324,740.229 865.604,740.71 864.165,740.47 863.685,740.71 862.965,741.91 863.205,742.63 863.205,742.87 
		863.205,743.11 863.444,743.59 862.484,743.83 861.525,744.311 860.564,744.79 859.605,744.79 858.165,745.03 856.485,744.311 
		856.006,744.551 853.366,747.19 853.127,748.391 	"/>
	
		<polyline clip-path="url(#SVGID_2_)" fill="none" stroke="#B37C34" stroke-width="0.7199" stroke-linecap="round" stroke-linejoin="round" stroke-miterlimit="3.85" points="
		853.127,748.391 853.606,749.591 852.887,750.311 852.406,750.79 851.207,751.751 850.247,751.99 849.527,751.99 848.807,751.99 
		847.848,750.07 847.848,749.591 849.287,749.351 850.967,745.75 851.207,743.59 850.486,742.63 849.048,741.67 849.048,736.39 
		850.007,735.43 850.007,734.229 850.007,733.989 848.807,733.749 846.647,734.469 844.248,735.189 843.288,735.43 840.889,738.31 
		840.408,740.229 840.648,740.949 841.369,741.43 842.328,743.11 842.809,746.471 842.328,747.67 841.129,748.631 840.169,747.431 
		839.929,747.431 838.969,749.831 838.729,751.511 838.01,752.951 837.29,752.471 836.33,751.511 836.09,750.79 835.61,750.79 
		835.13,750.551 833.45,751.271 832.97,751.751 832.97,752.231 831.771,752.471 827.451,749.351 827.451,747.67 825.771,746.23 
		823.853,746.95 823.853,748.15 822.893,748.871 822.652,748.871 821.932,748.15 821.692,748.15 821.452,748.15 820.492,748.871 
		820.492,749.351 818.093,759.191 818.573,759.912 819.532,762.792 819.053,764.231 809.935,765.432 809.455,765.432 
		808.975,765.432 808.494,763.752 808.015,763.271 804.896,763.512 803.695,764.231 802.976,765.192 803.456,767.112 
		802.976,769.033 801.775,770.713 801.536,770.473 800.815,770.232 799.377,770.473 798.416,770.473 798.416,769.033 
		798.656,768.553 798.177,765.432 796.736,762.792 796.257,762.312 795.777,762.072 795.297,762.072 794.338,762.072 
		793.857,762.792 793.617,764.473 793.617,766.632 791.698,766.632 791.218,766.152 790.738,765.192 790.738,763.992 
		790.258,762.792 787.619,760.632 786.419,760.392 785.939,760.872 785.939,761.592 786.179,763.271 784.739,766.393 
		785.219,770.713 785.459,771.673 785.459,772.873 784.979,773.833 784.499,774.073 783.779,775.033 783.539,776.233 
		783.539,777.673 785.698,782.234 785.698,782.954 785.459,783.674 785.219,783.674 783.779,782.954 782.58,781.033 782.1,781.273 
		781.379,781.514 781.379,782.714 781.14,784.394 780.9,785.594 780.66,786.794 780.18,788.234 778.5,783.914 778.261,782.234 
		777.301,781.754 776.82,781.994 776.34,782.475 776.581,783.674 776.34,785.354 775.62,785.354 774.421,784.635 773.461,784.635 
		773.221,784.635 772.741,785.354 772.741,787.515 770.822,789.435 769.861,789.675 769.382,788.955 768.422,787.515 
		767.941,786.314 767.462,785.835 766.742,786.314 766.022,787.515 765.782,787.994 766.502,789.194 766.022,790.155 
		765.063,792.074 764.343,794.235 763.863,794.235 763.623,793.995 763.144,794.715 763.144,795.676 763.144,796.876 
		762.663,799.035 761.223,799.035 760.503,798.315 759.304,796.396 759.063,792.074 757.864,791.595 757.624,792.556 
		757.144,792.556 755.944,790.155 754.744,787.515 754.744,785.354 754.504,784.154 754.024,782.954 753.545,780.313 
		753.545,777.914 754.024,776.473 753.785,775.273 753.064,774.793 749.706,774.313 748.745,774.793 748.506,775.033 
		748.506,775.754 747.546,776.233 744.666,775.993 745.146,775.033 745.146,773.833 744.906,773.593 742.507,772.633 
		742.267,772.633 741.066,773.593 740.827,774.793 741.066,777.434 740.587,777.673 738.668,776.473 737.707,774.313 
		736.748,774.313 736.508,774.313 735.788,776.233 735.548,778.394 734.348,779.834 732.429,780.073 732.429,781.033 
		732.429,781.994 732.908,782.954 734.108,782.475 736.027,781.514 738.428,782.714 738.907,783.193 738.907,784.635 
		738.188,785.354 738.188,785.835 738.428,785.835 740.587,787.994 740.827,787.994 742.507,789.675 743.227,789.194 
		743.467,789.194 743.706,789.194 743.946,789.435 744.427,789.915 744.427,790.155 744.666,790.155 744.666,790.395 
		745.146,790.875 745.146,791.114 746.346,793.035 746.346,793.275 747.546,797.355 747.785,799.996 745.626,803.356 
		745.626,803.597 745.146,803.836 740.827,806.717 735.788,806.717 735.548,806.956 734.108,807.677 733.868,807.916 
		733.148,808.877 732.908,810.557 733.148,811.036 733.389,811.277 734.108,813.677 730.989,817.518 730.509,817.518 
		728.349,817.998 727.869,816.798 725.23,815.598 724.511,814.637 723.551,813.917 723.07,813.917 722.11,814.157 720.91,813.197 
		718.511,809.597 718.271,807.916 717.552,806.236 717.071,805.516 717.071,803.116 719.231,801.676 719.711,800.956 
		719.471,800.716 719.471,800.476 718.031,799.275 718.031,799.035 719.471,795.915 719.951,795.915 720.91,794.715 721.15,793.755 
		720.91,793.035 720.671,792.556 724.27,790.155 724.75,790.395 725.23,790.155 725.47,789.675 725.23,787.994 723.79,784.874 
		723.551,784.635 722.831,783.435 721.871,783.435 721.391,783.914 721.15,785.594 718.511,788.955 717.791,789.194 
		717.071,789.194 716.352,788.475 716.352,784.154 716.831,782.234 715.632,780.794 715.152,780.554 714.432,780.554 
		713.712,780.794 712.992,781.514 712.752,782.714 713.231,786.794 712.752,789.194 712.752,790.155 713.231,791.114 
		713.231,792.314 712.512,792.556 711.072,792.556 710.593,790.875 710.832,789.194 711.793,787.994 710.593,783.435 
		710.353,783.193 710.113,783.193 708.913,783.914 708.434,786.555 707.713,787.034 706.753,786.555 704.834,789.194 
		704.354,789.194 701.954,788.475 701.234,788.475 700.754,789.194 700.515,789.915 700.754,791.355 701.474,793.275 
		702.674,793.755 703.153,796.396 702.194,797.835 701.234,799.996 701.234,800.235 700.754,802.636 700.754,803.597 
		701.234,804.315 702.194,805.516 704.114,805.516 705.073,807.196 705.073,807.916 705.554,809.597 706.514,811.277 
		706.514,812.236 705.313,813.917 705.554,815.357 706.273,816.317 706.033,817.518 704.834,817.277 702.914,816.077 
		702.914,815.838 701.474,814.397 700.274,813.437 696.436,810.077 694.996,809.837 693.796,809.117 693.556,808.396 
		693.315,808.156 686.837,805.996 685.397,805.036 681.798,802.396 680.838,801.195 679.398,800.956 677.959,800.956 
		677.479,801.195 676.998,801.676 676.278,802.636 673.64,804.797 669.561,804.315 669.561,803.356 669.8,800.476 670.279,797.835 
		670.76,797.355 670.76,796.876 671,795.915 670.52,793.755 670.04,787.994 670.76,784.874 672.439,783.674 673.64,780.073 
		674.119,779.114 674.359,777.193 672.919,777.673 671.239,778.153 669.08,779.114 665.481,782.234 664.761,782.954 
		663.081,784.874 662.361,784.635 661.642,783.435 661.401,782.475 661.642,782.234 661.161,781.514 660.922,781.273 
		660.441,781.033 657.322,781.754 657.082,782.234 656.842,783.435 655.162,784.874 653.723,785.114 650.844,785.594 
		650.604,785.835 649.884,787.274 650.604,790.395 650.844,790.875 651.323,792.074 652.764,793.035 653.482,793.995 
		655.162,797.115 654.443,802.396 653.963,803.597 653.963,804.076 651.563,807.196 649.644,807.437 648.684,807.437 
		648.444,810.797 647.004,813.677 645.805,815.117 645.564,815.117 644.365,817.757 643.885,819.198 644.125,819.438 
		644.125,820.638 643.645,822.318 643.165,823.998 643.165,824.238 642.925,824.719 642.925,828.078 641.965,829.039 
		640.045,829.039 639.806,829.759 639.806,830.479 639.565,830.479 639.806,832.64 640.286,835.039 639.806,836.96 639.565,837.199 
		637.406,839.36 637.406,841.04 638.606,842.48 638.846,842.48 640.286,841.52 642.685,840.8 643.405,840.8 644.365,841.28 
		645.805,843.439 643.645,846.081 643.405,845.36 642.925,845.12 641.965,844.881 641.485,845.36 640.525,846.561 640.045,847.521 
		640.766,848.961 639.806,849.681 638.366,850.16 636.446,851.602 636.206,851.841 634.526,853.521 634.287,853.761 
		634.767,855.441 634.287,855.682 631.887,856.881 630.208,856.881 629.248,857.602 627.328,860.002 626.608,860.962 
		626.128,862.162 626.368,862.882 626.608,863.603 626.368,865.043 625.408,866.482 624.208,867.442 621.329,868.162 
		620.609,869.363 618.689,870.083 617.97,867.923 617.729,866.243 616.05,864.082 615.81,863.843 615.09,864.082 612.931,866.482 
		611.971,866.482 611.491,866.243 613.17,864.082 613.17,863.362 611.251,861.922 610.051,861.202 607.651,861.202 607.412,861.202 
		605.732,862.882 604.772,862.882 603.092,862.882 601.893,861.682 599.733,860.962 598.293,864.082 597.813,862.882 
		597.333,862.643 596.854,863.122 595.654,866.723 594.694,873.203 591.814,877.044 591.574,878.003 591.574,878.964 
		589.415,884.244 588.215,885.205 587.975,884.244 588.215,883.044 587.495,878.964 586.775,878.003 586.535,877.764 
		584.616,877.044 584.616,876.804 583.896,877.284 583.656,877.523 583.656,878.484 584.375,880.404 583.656,883.524 
		582.936,883.765 581.736,883.044 581.256,883.284 581.016,883.284 580.776,883.524 580.537,886.645 579.336,887.604 
		577.417,888.324 577.177,888.085 577.417,886.165 578.137,886.404 578.857,885.444 579.097,882.084 578.377,880.644 
		577.657,880.884 577.177,880.884 576.217,883.044 576.217,883.284 576.217,884.244 575.977,885.205 575.257,886.165 
		574.297,884.484 574.297,883.284 574.058,883.284 573.578,883.044 571.898,884.484 571.898,884.724 571.418,887.845 
		571.658,890.005 571.418,892.165 569.979,892.165 567.579,887.845 567.579,887.124 566.619,886.645 566.139,886.404 
		565.179,886.885 563.979,889.045 563.739,890.485 563.739,891.926 563.5,892.886 562.3,894.325 562.3,894.565 561.82,895.045 
		561.34,895.525 560.14,897.206 559.42,897.926 558.46,897.926 556.301,898.165 556.061,898.165 555.821,898.406 556.061,898.886 
		556.301,899.365 556.541,899.846 549.582,903.927 549.102,906.566 547.663,906.807 547.422,906.566 547.183,906.566 
		546.942,903.446 547.183,902.006 546.703,900.565 545.503,900.326 546.223,897.445 546.223,897.206 545.983,896.726 
		545.263,894.806 543.583,894.325 543.343,894.565 541.423,895.285 539.744,894.806 538.544,894.085 538.064,894.325 
		535.905,896.485 535.425,896.006 534.705,896.006 532.305,898.406 531.825,898.886 531.105,900.326 530.386,902.727 
		530.625,902.967 530.625,903.206 529.426,904.406 528.946,904.646 528.946,902.727 529.666,901.766 529.906,900.807 
		529.426,900.086 524.626,901.046 524.867,899.846 525.586,897.686 525.586,897.445 526.546,895.766 528.946,892.886 
		529.906,890.965 529.666,890.005 529.426,888.805 528.226,889.045 527.026,887.364 526.546,887.124 526.546,885.924 
		526.786,884.965 528.706,883.524 529.186,882.805 529.186,881.844 528.946,881.364 528.466,880.884 527.266,880.884 
		526.786,881.364 525.826,882.564 523.187,886.165 523.187,887.124 521.747,888.564 521.747,887.604 519.828,887.604 
		516.708,889.285 515.269,890.245 512.869,891.926 512.389,892.165 511.189,893.845 511.189,894.085 511.189,894.325 
		511.189,895.045 510.949,895.045 509.27,896.726 508.55,897.206 508.31,897.206 508.31,896.726 508.79,895.285 508.79,895.045 
		508.55,894.565 508.31,894.806 508.07,894.806 506.87,895.525 506.15,896.485 505.91,898.646 506.15,899.846 506.15,900.326 
		505.67,901.046 504.95,902.006 503.271,904.166 503.271,904.646 503.271,904.886 503.75,906.086 503.511,906.566 502.071,907.047 
		501.591,906.566 500.631,908.007 500.151,908.967 499.911,909.207 499.671,909.687 499.431,910.167 499.191,910.167 
		498.951,911.127 498.951,911.367 499.191,911.606 499.911,912.087 500.391,912.327 500.391,912.567 500.871,913.048 
		500.631,913.287 500.391,913.527 500.631,914.248 501.351,915.447 502.311,916.888 502.791,917.607 503.271,918.327 
		504.23,919.769 503.99,921.688 503.511,924.568 503.75,925.769 504.23,925.769 505.43,926.248 505.91,929.849 504.71,931.049 
		503.511,931.289 503.031,930.329 501.591,930.568 500.151,932.01 497.992,931.769 496.792,930.329 493.432,932.249 
		492.473,933.449 491.513,933.449 490.553,933.689 490.073,933.689 488.393,933.93 486.954,934.649 486.954,934.89 485.994,935.85 
		483.834,939.449 483.114,941.37 483.114,942.811 483.354,945.451 483.354,945.69 483.354,945.931 483.594,946.651 484.074,947.131 
		484.554,948.091 486.474,949.771 487.434,950.251 485.994,950.731 485.034,951.451 484.794,951.69 484.074,952.891 
		483.834,953.131 483.114,954.331 483.114,955.291 482.634,956.252 482.395,956.972 481.195,957.452 481.195,957.212 
		480.955,957.212 480.715,957.212 480.475,957.212 480.235,957.212 478.795,957.932 478.555,957.932 478.555,958.172 
		477.835,959.132 477.835,959.372 478.315,960.812 478.315,961.292 476.155,964.652 475.676,964.893 475.436,965.132 
		475.196,965.373 474.716,965.853 474.476,966.093 473.996,966.573 473.756,966.813 473.276,967.293 472.316,966.573 
		471.836,966.573 470.876,966.332 467.277,966.573 467.037,966.573 464.877,967.772 464.638,968.013 464.158,968.493 
		462.718,970.173 462.478,970.173 462.478,970.413 462.238,970.653 462.238,970.894 461.998,970.894 461.518,971.853 
		461.518,972.094 461.038,972.813 461.038,973.053 459.838,975.934 458.639,978.814 458.639,979.054 458.639,979.294 
		457.919,981.694 457.679,981.935 457.679,982.414 457.919,984.335 458.879,985.535 459.838,986.975 459.599,987.694 
		458.879,989.135 458.399,990.095 458.399,990.575 456.719,992.976 456.719,993.215 456.479,993.456 455.52,995.136 454.56,996.576 
		454.319,997.056 453.84,998.977 453.6,999.456 453.36,999.936 453.12,1000.896 452.64,1002.336 452.64,1002.576 452.64,1003.536 
		452.16,1004.736 450.72,1006.416 450.72,1006.656 450.24,1007.137 450,1007.377 450,1007.617 450,1007.856 449.76,1008.337 
		448.561,1011.218 447.841,1012.177 447.121,1012.418 445.921,1012.897 444.001,1013.857 444.001,1011.938 443.761,1011.697 
		443.521,1011.218 442.562,1011.218 442.082,1011.218 440.402,1011.457 439.922,1011.457 439.442,1010.978 439.442,1010.737 
		438.002,1010.497 437.522,1010.497 437.522,1010.257 437.042,1009.537 437.042,1009.297 436.803,1008.817 436.323,1008.337 
		436.323,1008.097 434.883,1007.856 434.403,1007.137 434.403,1006.897 432.963,1005.937 432.724,1005.697 432.483,1005.217 
		431.764,1004.736 431.284,1004.256 429.844,1003.297 429.124,1002.576 428.884,1002.097 428.884,1001.616 428.644,1000.656 
		428.404,999.695 428.164,999.216 428.884,997.296 429.124,995.855 428.884,995.615 429.124,994.896 429.364,994.896 
		429.604,994.896 429.604,994.656 429.364,993.695 428.884,992.495 429.124,992.256 429.124,992.015 429.604,991.775 
		429.844,991.775 430.084,991.535 430.084,991.295 430.084,990.814 429.844,990.575 429.844,990.335 430.084,990.095 
		430.324,987.936 430.564,987.694 430.804,987.455 431.044,987.215 431.284,986.255 431.284,986.015 431.044,985.774 
		430.804,985.535 430.564,985.535 430.564,984.814 430.564,984.574 430.324,984.094 429.604,983.614 429.364,983.614 
		429.364,983.374 429.124,983.374 428.404,983.135 427.924,983.374 427.685,983.135 427.685,982.895 427.444,982.174 
		427.685,981.935 427.205,981.454 427.205,981.215 426.245,980.974 425.765,981.215 425.525,980.974 425.285,980.734 
		425.285,980.494 425.045,979.773 424.805,979.534 424.805,979.294 424.565,979.294 424.085,979.054 423.605,978.573 
		422.646,978.334 422.405,978.094 422.405,977.373 422.166,977.134 422.166,976.894 421.925,976.414 421.686,976.174 
		420.966,976.174 420.486,975.693 419.766,974.974 419.526,974.733 420.006,974.253 420.246,973.773 420.486,973.533 
		420.246,972.813 419.766,972.813 419.526,972.813 419.286,972.573 418.806,972.333 419.046,971.853 419.046,970.413 
		418.566,970.413 418.566,970.173 418.086,969.934 417.606,969.453 416.646,968.732 416.646,968.493 416.646,967.772 
		416.407,967.532 415.926,967.293 414.247,967.772 414.007,968.013 413.527,967.772 413.527,967.532 413.527,967.293 
		413.047,966.813 412.807,966.573 412.327,966.332 412.327,966.093 411.367,963.933 411.607,962.973 411.127,962.252 
		410.647,961.292 410.408,960.812 410.167,960.332 410.167,960.092 410.167,959.611 410.167,959.132 409.928,958.652 
		409.928,958.411 409.928,957.932 410.408,957.692 410.647,957.212 410.408,956.972 410.167,956.731 410.167,956.252 
		409.928,954.812 410.167,954.571 410.167,954.331 410.408,953.852 410.647,953.611 411.127,953.131 411.367,953.131 
		411.607,953.131 412.087,952.651 412.327,951.932 412.087,951.451 412.327,951.211 412.327,950.972 412.567,950.972 
		413.287,950.491 413.287,950.251 413.047,949.771 412.567,949.051 412.567,948.57 412.567,948.091 412.807,947.371 
		413.287,945.931 413.287,945.21 412.807,944.73 412.567,944.73 412.087,944.73 412.087,944.49 411.847,944.49 411.607,944.011 
		412.327,943.53 412.567,943.53 412.567,943.29 412.567,943.051 412.327,943.051 412.327,942.57 412.567,941.61 413.287,940.65 
		413.527,940.41 413.767,938.97 414.007,938.73 414.007,938.489 413.767,938.25 414.247,937.05 414.247,936.569 413.767,936.33 
		413.767,936.09 413.767,935.609 413.767,935.13 413.287,934.649 413.047,934.409 413.047,934.169 413.047,933.689 413.287,933.449 
		414.007,933.21 414.007,933.449 414.727,931.769 414.487,931.529 414.247,931.529 414.247,931.289 414.007,930.329 
		413.767,930.089 413.287,929.849 412.567,928.889 412.327,928.889 412.087,928.648 411.847,921.208 411.847,919.527 
		411.367,911.367 411.367,909.687 411.127,906.807 411.127,906.566 411.127,904.886 411.127,904.406 410.888,898.165 
		410.888,897.686 410.408,891.686 410.408,891.444 410.408,883.765 410.167,877.284 410.167,875.844 410.167,874.163 
		410.167,871.043 410.167,869.363 409.928,864.082 409.928,863.603 409.928,859.522 409.928,856.881 409.928,856.401 
		409.688,853.521 409.688,850.16 409.448,845.36 409.448,841.52 409.448,838.64 408.728,816.077 408.728,813.917 408.728,811.518 
		408.728,810.797 	"/>
	
		<polyline clip-path="url(#SVGID_2_)" fill="none" stroke="#B37C34" stroke-width="0.7199" stroke-linecap="round" stroke-linejoin="round" stroke-miterlimit="3.85" points="
		408.728,810.797 408.728,809.597 408.488,806.717 408.488,800.235 408.248,795.195 408.248,794.955 408.248,793.995 
		408.008,787.754 408.008,783.674 407.768,781.994 407.768,780.073 407.768,778.153 407.768,777.914 407.528,775.754 
		407.528,773.593 407.288,763.992 407.048,755.352 406.808,747.91 406.568,738.79 406.568,738.069 406.329,734.229 406.329,733.749 
		406.329,732.549 406.329,731.109 406.088,728.229 406.088,727.269 405.608,718.868 405.608,717.427 405.608,716.228 
		405.608,714.547 405.368,713.106 405.128,707.586 404.889,701.826 404.409,694.865 404.409,691.985 404.409,690.305 
		404.168,689.585 404.168,687.904 403.209,666.302 402.969,660.302 402.489,649.261 401.769,639.419 	"/>
	
		<polyline clip-path="url(#SVGID_2_)" fill="none" stroke="#B37C34" stroke-width="0.7199" stroke-linecap="round" stroke-linejoin="round" stroke-miterlimit="3.85" points="
		659.722,837.919 656.362,838.16 656.123,837.68 657.082,834.56 659.242,831.679 662.841,829.759 663.802,828.559 667.641,825.678 
		670.279,825.198 671,826.158 670.52,826.398 670.52,827.358 671.239,829.279 674.359,831.679 674.84,832.159 675.559,831.919 
		675.799,832.159 674.359,833.359 673.16,833.119 671.239,833.359 671,833.599 671,834.56 671,835.76 671.479,836.96 
		672.68,836.719 674.599,840.561 675.799,842 676.759,842.96 677.239,844.4 676.039,846.561 675.318,847.281 674.84,847.04 
		672.919,850.16 671.479,850.881 670.279,850.881 668.36,851.36 666.201,852.081 664.761,852.081 662.841,850.881 661.642,845.12 
		660.922,843.439 659.962,842.24 660.441,838.88 660.441,837.919 659.722,837.919 	"/>
	
		<polyline clip-path="url(#SVGID_2_)" fill="none" stroke="#B37C34" stroke-width="0.7199" stroke-linecap="round" stroke-linejoin="round" stroke-miterlimit="3.85" points="
		694.275,823.038 694.035,823.278 694.756,824.238 694.996,824.719 694.996,825.678 692.116,829.519 691.156,830.239 
		688.996,830.719 688.757,832.879 688.277,833.119 687.557,832.879 687.077,831.439 686.356,830.239 685.157,829.519 
		684.197,829.519 683.717,829.279 683.238,828.799 682.758,827.839 682.998,825.438 683.478,824.238 683.478,822.078 
		682.518,820.638 682.518,819.438 682.277,818.718 682.998,817.998 683.717,817.757 684.918,817.038 685.877,814.397 
		687.316,812.236 687.797,811.036 687.557,810.077 687.316,809.356 687.797,809.356 688.277,809.597 688.757,809.837 
		689.956,811.036 694.275,813.197 695.715,814.877 696.436,817.277 695.715,821.118 694.275,822.798 694.275,823.038 	"/>
	
		<polyline clip-path="url(#SVGID_2_)" fill="none" stroke="#B37C34" stroke-width="0.7199" stroke-linecap="round" stroke-linejoin="round" stroke-miterlimit="3.85" points="
		655.883,809.597 658.762,804.797 658.522,800.476 659.481,795.676 660.441,793.275 663.321,791.835 664.521,792.795 
		665.481,795.676 665.001,797.115 664.281,798.795 662.841,799.996 662.361,799.996 661.881,800.476 661.401,802.636 
		662.602,805.756 661.161,809.117 660.441,809.837 659.242,815.838 658.042,817.518 655.643,819.678 654.923,819.918 
		655.643,818.718 654.443,815.838 653.963,815.117 653.243,814.877 653.003,814.397 653.243,813.197 654.683,811.036 
		655.883,809.597 	"/>
	
		<polyline clip-path="url(#SVGID_2_)" fill="none" stroke="#B37C34" stroke-width="0.7199" stroke-linecap="round" stroke-linejoin="round" stroke-miterlimit="3.85" points="
		718.271,823.519 719.231,823.998 720.19,825.919 722.11,828.078 722.351,828.318 723.07,829.279 722.11,831.198 721.631,831.679 
		721.15,832.398 720.91,832.64 718.031,835.52 716.831,836 716.352,835.279 716.111,835.039 715.632,834.319 715.632,833.119 
		714.432,831.198 711.793,830.719 711.072,830.959 710.593,830.959 709.633,830.959 709.152,829.998 709.152,828.799 
		709.873,828.559 709.873,828.318 710.593,827.119 712.272,825.198 713.231,824.719 713.952,824.238 714.911,823.758 
		716.591,823.998 718.271,823.519 	"/>
	
		<polyline clip-path="url(#SVGID_2_)" fill="none" stroke="#B37C34" stroke-width="0.7199" stroke-linecap="round" stroke-linejoin="round" stroke-miterlimit="3.85" points="
		694.516,840.319 695.235,839.6 696.436,839.84 697.155,841.28 697.395,841.52 698.835,843.2 699.314,843.2 699.555,843.681 
		699.555,843.92 699.074,845.36 698.835,845.84 697.395,846.081 696.436,851.602 696.436,852.802 696.436,853.521 695.955,854.001 
		695.476,853.761 694.516,853.041 694.035,853.041 693.556,852.561 693.315,852.802 692.116,853.281 691.636,854.241 
		691.396,854.722 691.396,855.201 690.916,855.201 690.677,853.281 690.437,852.081 690.916,851.841 690.916,851.121 
		691.636,849.201 691.156,845.84 690.196,843.2 694.275,841.04 694.516,840.319 	"/>
	
		<polyline clip-path="url(#SVGID_2_)" fill="none" stroke="#B37C34" stroke-width="0.7199" stroke-linecap="round" stroke-linejoin="round" stroke-miterlimit="3.85" points="
		708.673,793.995 711.313,802.156 710.113,803.116 706.993,801.436 705.073,799.996 705.313,798.076 706.033,795.915 
		706.033,794.235 706.273,792.074 706.993,791.355 707.713,791.355 708.434,791.835 708.673,793.995 	"/>
	
		<polyline clip-path="url(#SVGID_2_)" fill="none" stroke="#B37C34" stroke-width="0.7199" stroke-linecap="round" stroke-linejoin="round" stroke-miterlimit="3.85" points="
		674.119,816.558 676.759,818.957 676.998,820.638 675.559,822.318 674.359,822.078 673.16,821.357 672.199,820.638 
		671.239,820.397 670.52,820.157 669.561,820.157 668.6,818.478 668.36,816.798 669.08,816.077 669.8,815.838 670.04,815.838 
		674.119,816.558 	"/>
	
		<polyline clip-path="url(#SVGID_2_)" fill="none" stroke="#B37C34" stroke-width="0.7199" stroke-linecap="round" stroke-linejoin="round" stroke-miterlimit="3.85" points="
		818.813,777.434 818.573,777.434 817.133,777.673 816.413,776.233 814.733,769.033 814.494,768.793 813.533,768.793 
		813.054,768.553 812.814,766.152 813.533,765.912 816.653,766.632 817.373,767.112 816.653,769.272 816.413,770.473 
		817.854,771.433 820.013,773.833 819.293,776.714 819.053,777.193 818.813,777.434 	"/>
	
		<polyline clip-path="url(#SVGID_2_)" fill="none" stroke="#B37C34" stroke-width="0.7199" stroke-linecap="round" stroke-linejoin="round" stroke-miterlimit="3.85" points="
		729.069,824.238 728.829,824.959 728.59,826.398 727.629,826.878 727.149,826.639 724.511,824.959 723.79,824.478 724.511,823.038 
		725.47,822.318 726.43,821.838 727.39,821.357 729.069,820.397 730.269,820.638 731.229,821.598 731.229,822.078 730.989,822.318 
		730.509,821.838 729.309,823.038 729.069,824.238 	"/>
	
		<polyline clip-path="url(#SVGID_2_)" fill="none" stroke="#B37C34" stroke-width="0.7199" stroke-linecap="round" stroke-linejoin="round" stroke-miterlimit="3.85" points="
		740.587,810.557 741.307,810.557 742.986,810.797 743.467,811.997 743.467,812.236 743.227,812.236 742.267,811.997 
		741.066,812.236 740.348,812.478 740.348,812.717 740.107,812.957 739.867,813.677 740.107,814.877 739.147,815.598 
		738.907,815.598 736.988,815.838 736.027,815.357 736.027,815.117 735.788,814.877 736.027,811.757 737.468,811.518 
		738.428,811.997 739.387,811.757 739.867,811.518 740.587,810.317 740.587,810.557 	"/>
	
		<polyline clip-path="url(#SVGID_2_)" fill="none" stroke="#B37C34" stroke-width="0.7199" stroke-linecap="round" stroke-linejoin="round" stroke-miterlimit="3.85" points="
		515.269,899.365 515.988,899.365 517.908,897.926 518.148,898.646 517.668,900.326 516.708,901.766 516.468,902.246 
		516.468,903.686 514.789,906.086 514.068,906.086 513.109,904.406 512.869,902.967 514.309,900.326 515.269,899.365 	"/>
	
		<polyline clip-path="url(#SVGID_2_)" fill="none" stroke="#B37C34" stroke-width="0.7199" stroke-linecap="round" stroke-linejoin="round" stroke-miterlimit="3.85" points="
		662.841,882.805 662.841,882.324 662.361,881.364 661.642,881.604 661.161,881.364 661.881,878.244 663.321,877.044 
		664.521,878.964 664.281,881.604 664.521,882.324 665.001,883.524 665.001,883.765 664.281,884.965 663.802,885.924 
		662.361,886.165 662.361,885.924 663.081,884.484 663.081,884.244 662.841,882.805 	"/>
	
		<polyline clip-path="url(#SVGID_2_)" fill="none" stroke="#B37C34" stroke-width="0.7199" stroke-linecap="round" stroke-linejoin="round" stroke-miterlimit="3.85" points="
		726.43,834.319 726.91,833.84 727.869,833.84 728.829,835.279 729.789,836.719 729.789,836.96 729.789,837.199 729.069,838.16 
		728.829,838.16 725.71,838.16 725.23,837.68 724.511,836.719 724.27,836.479 724.27,836.239 724.27,835.76 725.47,834.56 
		726.43,834.319 	"/>
	
		<polyline clip-path="url(#SVGID_2_)" fill="none" stroke="#B37C34" stroke-width="0.7199" stroke-linecap="round" stroke-linejoin="round" stroke-miterlimit="3.85" points="
		506.87,911.848 507.35,911.606 507.83,912.327 509.029,913.527 508.55,914.248 507.59,915.447 506.63,916.888 504.95,918.327 
		504.71,918.568 504.23,917.127 505.43,913.768 505.43,913.527 506.87,911.848 	"/>
	
		<polyline clip-path="url(#SVGID_2_)" fill="none" stroke="#B37C34" stroke-width="0.7199" stroke-linecap="round" stroke-linejoin="round" stroke-miterlimit="3.85" points="
		710.832,819.198 711.072,817.518 711.313,817.277 712.512,817.277 712.752,817.998 712.272,818.718 712.752,819.198 
		713.952,819.918 714.672,821.598 714.672,821.838 714.672,822.078 714.191,822.318 713.952,822.559 713.952,822.318 
		712.992,822.078 711.313,821.838 711.072,821.598 710.593,820.638 710.593,820.397 710.832,819.918 710.832,819.198 	"/>
	
		<polyline clip-path="url(#SVGID_2_)" fill="none" stroke="#B37C34" stroke-width="0.7199" stroke-linecap="round" stroke-linejoin="round" stroke-miterlimit="3.85" points="
		708.193,834.56 708.673,834.319 709.393,834.799 710.353,836 710.593,837.199 709.152,838.64 709.152,838.88 707.473,838.399 
		707.473,838.16 707.233,836.719 707.713,835.279 707.953,834.56 708.193,834.56 	"/>
	
		<polyline clip-path="url(#SVGID_2_)" fill="none" stroke="#B37C34" stroke-width="0.7199" stroke-linecap="round" stroke-linejoin="round" stroke-miterlimit="3.85" points="
		598.533,868.883 599.013,869.843 599.253,870.803 599.013,871.043 597.333,872.243 596.854,872.243 596.854,871.043 
		597.813,865.522 598.293,865.762 599.253,867.442 598.533,868.883 	"/>
	
		<polyline clip-path="url(#SVGID_2_)" fill="none" stroke="#B37C34" stroke-width="0.7199" stroke-linecap="round" stroke-linejoin="round" stroke-miterlimit="3.85" points="
		513.349,907.286 510.949,910.647 509.27,911.606 509.029,911.606 508.79,910.167 509.029,909.447 509.75,908.727 509.989,908.727 
		510.709,908.247 511.189,907.767 512.149,907.047 513.349,907.286 	"/>
	
		<polyline clip-path="url(#SVGID_2_)" fill="none" stroke="#B37C34" stroke-width="0.7199" stroke-linecap="round" stroke-linejoin="round" stroke-miterlimit="3.85" points="
		506.63,909.207 507.11,910.406 507.11,910.887 506.39,911.848 504.71,913.768 504.23,913.768 503.99,913.527 503.75,913.048 
		504.47,911.367 505.43,909.927 505.91,909.207 506.63,909.207 	"/>
	
		<polyline clip-path="url(#SVGID_2_)" fill="none" stroke="#B37C34" stroke-width="0.7199" stroke-linecap="round" stroke-linejoin="round" stroke-miterlimit="3.85" points="
		518.388,905.606 518.628,905.847 517.908,907.286 518.628,907.767 519.107,907.527 518.388,908.727 517.668,908.247 
		515.748,910.167 515.508,910.167 515.508,909.687 515.748,909.207 517.428,906.327 518.148,905.847 518.388,905.606 	"/>
	
		<polyline clip-path="url(#SVGID_2_)" fill="none" stroke="#B37C34" stroke-width="0.7199" stroke-linecap="round" stroke-linejoin="round" stroke-miterlimit="3.85" points="
		613.17,894.565 613.17,894.325 613.65,894.565 614.13,894.806 613.89,895.525 612.451,897.445 611.491,897.686 611.251,897.206 
		611.491,896.006 612.451,894.806 613.17,894.565 	"/>
</g>
</svg>
