<?xml version="1.0" encoding="utf-8"?>
<!-- Generator: Adobe Illustrator 15.1.0, SVG Export Plug-In . SVG Version: 6.00 Build 0)  -->
<!DOCTYPE svg PUBLIC "-//W3C//DTD SVG 1.1//EN" "http://www.w3.org/Graphics/SVG/1.1/DTD/svg11.dtd">
<svg version="1.1" id="State" xmlns="http://www.w3.org/2000/svg" xmlns:xlink="http://www.w3.org/1999/xlink" x="0px" y="0px"
	 width="1296px" height="1296px" viewBox="0 0 1296 1296" enable-background="new 0 0 1296 1296" xml:space="preserve">
<g>
	<defs>
		<rect id="SVGID_1_" x="259.22" y="351.621" width="779.516" height="595.772"/>
	</defs>
	<clipPath id="SVGID_2_">
		<use xlink:href="#SVGID_1_"  overflow="visible"/>
	</clipPath>
	
		<polyline clip-path="url(#SVGID_2_)" fill="none" stroke="#B37C34" stroke-width="0.96" stroke-linecap="round" stroke-linejoin="round" stroke-miterlimit="3.85" points="
		343.7,505.725 341.3,506.445 339.859,506.206 339.379,505.965 339.14,505.965 338.9,506.206 338.66,506.206 338.66,506.445 
		338.66,506.925 339.14,507.646 339.14,508.125 339.14,508.366 337.7,511.006 337.7,511.246 336.979,511.966 336.02,512.446 
		335.54,512.926 335.54,513.407 335.54,513.887 335.3,514.367 335.06,514.606 334.82,514.606 334.58,514.606 334.34,514.606 
		333.379,515.327 333.379,515.807 333.379,516.767 333.14,517.487 332.66,517.727 332.42,517.727 331.939,517.727 331.22,517.967 
		331.22,518.447 330.979,519.407 330.74,519.888 330.5,519.888 330.259,519.888 329.779,519.888 329.54,519.647 329.06,518.927 
		328.58,518.688 328.1,518.688 327.859,518.927 327.62,519.407 327.14,520.368 326.9,521.328 327.14,522.288 326.66,523.008 
		326.18,523.248 325.939,523.248 325.459,523.008 324.979,523.248 324.979,523.488 324.74,523.968 323.06,524.448 322.82,524.448 
		322.34,523.968 321.859,524.208 321.62,524.448 321.14,525.168 320.66,526.128 318.74,528.769 318.74,529.009 317.54,529.249 
		316.1,529.249 315.859,529.489 315.62,529.729 315.379,529.729 314.9,530.209 314.66,530.209 312.979,530.449 312.26,530.689 
		312.02,530.689 312.02,531.169 311.78,532.37 311.78,532.609 311.78,533.81 311.78,534.53 311.78,534.77 311.78,535.01 
		311.54,535.01 310.82,535.49 309.14,536.21 308.42,536.69 306.979,537.89 306.979,538.61 306.74,540.771 305.54,542.691 
		305.54,542.931 305.06,542.931 303.38,542.931 301.939,541.971 301.7,541.971 301.459,541.731 301.22,541.731 300.979,541.731 
		298.58,542.451 298.34,542.691 296.42,543.891 296.42,544.131 296.18,544.852 296.42,545.332 296.42,545.571 294.74,547.252 
		294.02,547.492 293.54,547.732 293.3,547.972 292.58,547.972 292.1,547.972 291.38,548.212 290.9,548.212 290.66,548.212 
		290.42,548.692 288.979,549.892 287.78,551.333 285.14,554.453 284.66,555.173 284.18,555.173 283.22,555.413 282.26,556.613 
		282.5,557.813 281.54,558.773 279.86,560.214 277.46,561.174 274.82,562.134 273.62,562.854 271.7,562.374 271.94,555.653 
		272.18,549.412 271.94,549.412 272.18,547.012 272.18,546.532 272.18,546.292 272.42,542.691 272.42,537.89 272.66,532.37 
		272.9,532.37 273.14,530.929 273.14,530.689 273.14,526.128 273.62,516.047 273.86,509.086 273.86,508.606 274.34,496.364 
		274.34,495.164 274.34,493.724 274.34,493.003 274.34,491.563 275.06,491.563 275.3,486.282 275.3,483.882 275.54,477.881 
		275.78,470.2 275.78,467.56 276.02,467.56 276.02,467.079 276.26,462.999 276.5,450.517 290.66,450.757 300.26,450.997 
		303.14,450.997 306.26,450.997 312.74,451.237 313.939,451.237 314.66,451.237 321.859,451.477 341.779,451.717 347.06,451.957 
		348.259,451.957 348.739,451.957 367.939,452.437 370.819,452.437 372.259,452.437 375.62,452.437 381.14,452.677 381.379,452.677 
		382.339,452.677 386.419,452.677 387.379,452.677 388.579,452.677 392.179,452.677 392.419,452.677 394.579,452.917 
		395.299,452.917 396.739,452.917 399.62,452.917 400.819,452.917 402.979,452.917 403.459,452.917 405.619,452.917 
		409.459,453.157 410.899,453.157 413.779,453.157 414.259,453.157 417.859,453.397 420.5,453.397 423.619,453.397 425.299,453.397 
		427.699,453.397 430.819,453.637 432.499,453.637 433.219,453.637 433.459,453.637 433.939,453.637 440.179,453.637 
		441.619,453.637 444.259,453.637 446.899,453.877 448.339,453.877 449.539,453.877 450.739,453.877 452.899,453.877 
		460.339,454.117 466.819,454.117 467.059,454.117 467.299,454.117 467.779,454.117 468.739,454.117 477.139,454.357 
		479.059,454.357 483.379,454.357 483.859,454.357 486.499,454.357 489.859,454.357 490.099,454.597 494.659,454.597 
		499.219,454.597 501.139,454.597 502.339,454.597 507.619,454.837 511.459,454.837 511.939,454.837 514.339,454.837 
		524.899,454.837 533.059,455.078 534.499,455.078 534.739,455.078 540.499,455.078 544.339,455.078 545.059,455.078 
		545.299,455.078 546.739,455.078 549.858,455.317 551.539,455.317 551.779,455.317 559.458,455.558 560.898,455.558 
		563.059,455.558 565.458,455.558 567.378,455.558 567.858,455.558 569.059,455.558 570.019,455.558 570.499,455.558 
		578.898,455.797 579.139,455.797 579.619,455.797 590.418,455.797 595.698,456.038 596.898,456.038 600.979,456.038 
		602.418,456.038 602.658,456.038 606.979,456.038 608.658,456.038 613.218,456.038 614.898,456.038 623.538,456.278 
		626.178,456.278 627.618,456.278 627.858,456.278 628.338,456.278 629.538,456.278 630.018,456.278 630.498,456.278 
		631.218,456.278 631.458,456.278 633.138,456.278 638.418,456.278 642.258,456.278 642.978,456.278 651.139,456.278 
		651.857,456.278 655.698,456.278 664.098,456.278 666.258,456.278 671.538,456.278 674.178,456.278 680.897,456.278 
		682.098,456.278 682.338,456.278 684.258,456.278 684.738,456.278 692.178,456.278 693.617,456.278 696.258,456.278 
		699.138,456.278 699.857,456.278 702.738,456.278 705.378,456.278 706.098,456.278 709.218,456.278 710.418,456.278 
		712.098,456.278 716.897,456.278 724.098,456.278 724.577,456.278 725.537,456.278 727.698,456.038 731.537,456.038 
		732.738,456.038 739.698,456.038 740.418,456.038 742.098,456.038 742.818,456.038 744.978,456.038 749.537,456.038 
		750.018,456.038 753.617,456.038 757.698,456.038 764.418,456.038 767.537,455.797 768.737,455.797 771.617,455.797 
		773.058,455.797 777.377,455.797 782.418,455.797 785.537,455.797 786.257,455.797 789.617,455.797 792.018,455.797 
		793.457,455.797 796.098,455.797 802.338,455.558 803.297,455.558 804.018,455.558 815.537,455.558 819.377,455.558 
		819.617,455.558 820.817,455.558 822.257,455.558 833.537,455.317 834.018,455.317 837.137,455.317 837.617,455.317 
		839.057,455.317 848.417,455.078 855.137,455.078 857.537,455.078 860.177,455.078 863.057,455.078 866.177,455.078 
		870.497,454.837 880.816,454.837 886.337,454.597 889.938,454.597 891.377,454.597 891.617,454.597 893.537,454.597 
		895.457,454.597 895.457,455.078 895.457,459.398 895.457,460.358 895.457,460.598 895.457,463.239 895.457,463.479 
		895.457,463.719 895.457,464.199 895.457,464.439 895.457,465.639 895.457,468.04 895.457,468.52 895.457,468.76 895.457,469.24 
		895.457,469.479 895.697,470.44 895.697,471.64 895.697,472.6 895.697,472.84 895.938,474.521 895.938,476.441 896.177,478.841 
		896.177,479.562 896.417,481.722 896.417,483.162 896.656,484.122 896.656,485.082 896.656,486.042 896.656,487.002 
		897.137,491.803 897.377,494.924 897.377,495.164 898.337,506.925 898.577,510.286 898.816,514.606 899.297,521.088 
		900.018,529.489 900.257,531.649 900.257,533.57 900.497,536.45 901.217,546.052 901.457,546.771 901.457,547.012 901.697,552.053 
		901.938,555.173 902.177,557.813 902.897,568.135 903.137,572.696 903.617,575.576 903.856,580.137 904.337,585.178 
		904.337,586.378 904.337,587.098 904.816,590.699 904.816,593.819 905.057,595.259 905.057,595.979 905.537,601.74 
		905.777,604.861 906.978,620.463 906.978,620.703 907.217,625.504 907.457,625.984 907.938,633.905 908.417,639.666 
		908.417,639.906 908.656,642.546 908.897,644.467 908.897,644.707 909.137,647.587 909.137,648.308 909.137,649.988 
		909.617,654.309 909.856,658.869 910.097,662.229 911.057,675.191 912.257,690.555 912.497,692.475 912.497,693.435 
		912.497,694.635 912.497,694.875 912.978,699.915 913.217,701.355 913.457,706.396 913.457,706.637 913.457,706.877 
		913.697,710.478 914.177,715.038 914.177,717.438 914.417,720.559 914.656,721.519 915.137,728.48 915.617,728.48 919.938,728.72 
		920.417,728.72 923.057,728.72 925.938,728.72 931.457,728.96 932.417,728.96 932.897,728.96 933.856,728.96 934.097,728.96 
		934.337,728.96 935.536,729.2 937.217,729.2 937.456,729.2 937.697,729.2 937.937,729.2 938.177,729.2 938.417,729.2 
		938.896,729.2 939.377,729.2 942.017,729.2 942.496,729.2 944.416,729.2 944.656,729.2 947.777,729.2 948.257,729.2 
		951.856,729.439 952.097,729.439 953.536,729.439 957.856,729.439 960.496,729.439 961.217,729.439 963.377,729.439 
		966.257,729.439 966.496,729.439 970.336,729.439 972.977,729.439 975.377,729.2 977.057,729.2 987.137,729.2 989.297,729.2 
		990.496,729.2 993.377,729.2 994.816,729.2 996.256,728.96 998.656,728.96 1002.017,728.96 1009.456,728.72 1018.336,728.72 
		1018.816,728.48 1019.057,728.48 1021.217,728.48 1021.696,728.48 1022.416,728.48 1022.656,728.48 1024.576,728.48 
		1025.297,728.48 1025.057,731.84 1024.576,735.921 1024.576,736.401 1024.336,736.881 1023.856,740.242 1023.377,741.922 
		1023.377,742.643 1023.136,743.603 1022.656,745.282 1021.937,748.163 1021.696,749.123 1021.696,749.363 1021.456,750.083 
		1021.217,751.283 1019.776,755.604 1019.536,756.084 1019.297,756.564 1019.057,756.564 1018.816,756.564 1018.576,756.324 
		1018.096,756.324 1016.656,758.965 1014.496,767.126 1010.176,778.888 1007.776,786.81 1007.057,789.689 1004.656,798.811 
		1002.736,804.572 1002.017,806.252 1001.776,806.731 998.416,813.693 994.097,821.135 992.656,821.374 991.696,821.614 
		990.736,821.614 980.177,823.055 970.816,824.255 967.217,824.735 962.177,825.455 960.736,825.455 958.576,825.694 
		956.416,826.175 951.617,826.655 942.736,827.855 928.816,829.535 928.576,829.535 928.337,830.496 928.097,830.735 
		927.377,830.976 927.137,831.216 926.897,831.695 926.897,831.936 927.856,833.136 927.856,833.376 927.617,833.616 
		927.377,833.616 926.897,833.136 926.656,832.656 926.177,832.896 925.697,833.616 925.217,834.816 924.497,835.536 
		924.736,839.856 923.297,840.098 921.617,839.377 920.897,839.137 921.617,837.937 921.856,836.736 920.417,835.776 
		918.017,835.536 913.217,833.616 911.777,834.336 911.777,834.816 911.297,835.057 911.297,835.297 910.816,835.536 
		909.856,836.017 909.137,836.497 908.177,836.017 906.978,835.297 905.537,835.057 904.816,834.816 902.656,834.816 
		901.457,834.576 901.217,834.576 897.137,838.657 896.177,839.377 895.938,839.617 894.978,840.577 893.297,842.018 
		893.297,842.257 893.057,842.978 892.816,843.218 890.177,845.139 889.217,845.857 888.018,846.578 887.057,847.059 
		884.417,848.019 883.938,848.019 883.697,847.778 882.497,847.059 882.018,846.098 881.777,845.378 881.537,845.139 
		881.777,844.657 882.257,844.178 882.257,843.938 882.736,839.856 882.736,838.657 882.497,837.937 881.537,834.816 
		881.297,834.576 884.177,828.335 885.377,826.175 885.377,824.494 885.377,822.814 885.377,822.574 885.617,821.374 
		888.257,820.414 889.457,820.894 889.697,821.374 889.938,821.374 890.417,821.135 893.057,819.454 893.777,818.734 
		895.457,816.573 895.938,815.854 895.697,815.613 894.978,814.653 894.736,814.173 893.537,813.934 892.816,813.693 
		892.577,813.693 890.657,813.213 890.417,813.213 888.018,814.173 887.777,814.653 888.018,815.854 887.537,815.854 
		886.577,815.854 885.856,816.094 885.377,815.854 885.377,815.613 884.177,812.493 884.657,811.772 885.856,809.612 
		886.098,809.132 886.577,807.932 886.816,807.212 887.057,807.212 887.057,806.973 889.217,805.292 890.657,804.331 
		891.137,804.092 891.617,804.092 893.297,799.771 893.057,799.771 892.337,799.051 890.417,797.371 890.177,797.371 
		889.457,797.371 888.978,797.61 888.736,797.851 887.777,798.331 886.577,799.531 886.098,799.771 884.177,799.051 
		883.217,798.811 882.257,798.57 882.018,798.57 880.577,798.331 879.377,799.051 878.417,799.531 876.978,800.491 875.057,801.691 
		874.816,801.691 874.337,801.932 874.577,805.052 874.337,805.052 873.617,804.812 873.137,804.331 872.417,803.372 
		871.697,801.932 870.978,800.491 870.497,799.291 870.737,798.091 871.938,793.77 872.417,792.569 872.657,792.09 872.657,791.85 
		871.697,790.89 871.697,790.649 871.697,790.41 871.938,790.41 871.938,790.169 873.377,788.489 875.057,787.769 876.497,787.049 
		876.736,787.049 882.736,784.648 882.978,784.648 882.978,784.889 883.217,785.609 884.417,785.849 885.377,785.609 
		886.098,785.369 886.816,785.129 888.736,783.929 889.697,782.969 889.217,781.048 888.978,780.328 888.978,779.607 
		888.736,779.607 887.537,778.168 886.577,776.968 885.617,776.007 885.137,775.768 884.897,775.768 884.177,775.768 
		883.217,775.768 882.497,776.487 882.257,776.968 882.497,777.688 882.978,778.647 882.018,779.368 881.297,779.368 
		881.057,779.128 880.577,778.407 880.337,778.168 879.137,775.287 879.137,774.087 878.657,772.887 877.457,771.687 
		876.978,771.447 876.018,770.967 873.856,769.766 871.697,770.967 870.978,771.687 870.978,772.166 871.217,774.087 
		872.177,775.047 872.897,774.807 872.897,775.047 873.377,775.287 873.617,775.287 873.377,775.287 872.657,776.968 
		872.657,777.207 872.417,777.207 868.098,778.407 868.577,777.688 869.537,776.728 869.777,775.287 869.537,774.327 
		866.417,771.927 865.938,771.447 865.938,770.727 865.697,769.047 864.978,767.606 861.856,763.045 860.417,762.325 
		860.177,762.085 861.617,761.365 864.737,760.885 866.417,760.645 868.337,759.444 869.297,758.484 869.537,756.805 
		869.537,754.884 869.297,754.164 869.057,753.443 868.816,752.724 868.337,751.764 867.617,750.083 867.617,749.603 
		866.417,749.123 863.537,748.163 862.816,747.923 862.577,747.683 862.577,747.923 862.098,748.402 861.856,748.644 
		861.377,750.083 861.137,750.563 861.137,750.803 860.897,751.523 861.137,752.003 861.377,752.483 860.417,756.084 
		860.177,757.044 857.297,758.965 856.098,759.205 855.377,760.165 854.897,761.605 854.657,761.845 854.657,762.085 
		854.657,762.564 854.657,763.045 856.337,764.965 858.018,766.646 858.497,767.847 858.497,768.326 857.777,770.727 
		857.297,771.927 856.817,773.606 856.577,773.847 855.856,775.047 855.856,776.728 857.297,779.128 857.777,780.809 
		858.018,782.008 857.777,782.008 857.537,782.008 853.457,779.848 851.537,777.447 851.297,776.968 851.057,776.247 
		850.817,775.287 850.577,774.567 848.417,774.327 846.257,774.087 845.537,773.367 844.817,772.406 844.817,772.166 
		845.777,769.047 844.098,766.886 842.897,767.365 841.457,767.606 840.737,767.847 839.777,768.086 839.537,768.326 
		837.617,767.606 836.177,766.646 835.697,766.165 835.217,766.165 834.737,766.406 833.537,767.365 833.297,767.847 
		832.338,769.286 833.057,772.406 833.297,772.647 834.018,773.606 835.457,775.287 838.338,775.047 840.497,776.007 
		841.457,776.487 841.697,776.487 841.697,776.728 841.938,777.447 840.978,778.647 839.297,779.128 837.857,778.647 
		837.617,778.407 837.377,778.407 833.537,775.768 833.297,775.047 831.617,772.406 830.897,771.447 830.657,769.286 
		829.697,767.606 828.737,766.165 828.497,765.926 828.257,765.686 827.057,763.765 824.657,762.325 824.418,762.085 
		821.777,762.085 821.537,762.085 821.057,761.845 819.857,761.125 819.617,761.125 818.897,760.405 818.418,758.725 
		817.457,755.844 817.697,754.884 817.938,754.404 818.657,755.364 822.257,753.924 822.257,753.684 822.257,753.443 
		821.777,752.724 821.057,751.523 820.338,750.323 819.137,749.844 816.497,749.844 816.257,749.363 816.018,748.883 
		815.777,747.923 814.817,744.082 815.057,741.922 814.577,739.762 813.857,738.562 813.857,738.321 814.098,738.321 
		813.857,738.321 813.377,737.842 811.457,734.001 808.098,729.681 806.177,726.8 805.697,723.919 805.457,722.959 805.457,722.719 
		806.657,721.279 806.897,721.039 808.577,721.279 813.377,720.078 814.338,720.078 814.577,720.559 817.217,720.318 
		817.697,720.078 817.938,719.839 818.177,719.599 820.577,715.758 820.817,713.598 821.057,712.877 820.098,712.397 
		819.377,712.397 816.018,714.077 815.297,713.838 814.817,713.118 815.297,711.918 815.537,710.236 814.817,708.557 
		813.137,705.916 810.018,705.437 810.498,704.717 811.938,703.516 813.137,702.796 816.018,701.115 816.257,700.396 
		816.737,699.676 816.018,698.715 815.297,697.515 814.817,697.275 815.057,697.035 815.297,696.555 816.257,695.835 
		817.457,695.835 818.177,695.354 819.137,694.635 820.338,693.435 822.018,692.955 822.497,694.155 822.978,696.074 
		826.338,697.755 827.297,697.035 827.777,696.795 828.018,696.314 829.938,694.395 832.577,692.715 833.537,692.715 
		835.217,693.435 836.417,691.994 837.377,691.034 835.938,686.473 834.978,685.514 834.257,684.793 833.777,684.553 
		833.537,684.313 832.817,683.353 832.577,683.113 830.897,683.113 828.737,683.353 828.257,683.593 828.257,683.833 
		826.098,681.433 823.697,677.832 821.537,674.711 821.537,673.511 821.297,673.031 821.537,673.031 821.777,672.071 
		821.537,669.671 821.057,669.671 818.897,669.431 818.657,669.671 817.697,670.631 816.497,671.831 816.257,672.071 
		816.018,673.752 816.018,674.711 815.537,674.711 815.297,674.711 812.177,673.752 811.457,673.752 811.457,673.511 
		811.217,673.271 811.938,672.311 811.457,671.831 811.217,671.591 809.777,671.11 809.058,670.871 808.338,671.11 807.617,672.311 
		806.657,673.511 806.418,673.991 805.938,674.711 805.457,676.872 807.617,679.752 807.377,682.152 807.137,682.152 
		804.737,683.593 804.498,683.833 804.257,683.353 803.777,682.393 803.058,680.473 803.297,679.272 803.537,676.152 
		803.777,675.432 804.018,672.071 804.257,671.352 804.257,670.871 804.257,669.431 804.257,667.751 804.018,666.311 	"/>
	
		<polyline clip-path="url(#SVGID_2_)" fill="none" stroke="#B37C34" stroke-width="0.96" stroke-linecap="round" stroke-linejoin="round" stroke-miterlimit="3.85" points="
		804.018,666.311 804.257,665.59 805.217,661.75 805.938,661.029 807.137,660.31 809.297,656.469 809.537,652.868 809.777,652.147 
		810.498,650.948 810.498,650.708 810.737,650.228 811.457,649.748 812.897,649.748 813.617,649.508 814.817,649.027 
		814.817,648.067 814.577,648.067 815.297,645.907 815.777,644.467 816.497,644.467 816.978,644.467 816.737,645.427 
		817.217,646.387 818.177,648.067 818.418,648.308 818.657,648.788 819.377,650.228 820.098,650.708 820.098,650.948 
		821.537,651.428 824.657,653.108 826.577,652.868 828.257,652.628 828.497,652.389 829.217,650.948 829.457,649.268 
		829.457,649.027 829.217,648.308 828.497,646.387 828.257,646.147 828.018,644.707 827.777,643.747 827.537,642.066 
		827.777,637.746 827.057,635.585 827.057,632.945 827.057,630.305 827.057,627.904 827.057,627.664 826.577,626.944 
		825.377,625.744 822.978,625.024 822.257,624.784 821.777,624.784 821.777,625.024 819.377,625.504 819.137,627.904 
		819.617,628.864 819.377,629.345 818.177,629.825 817.697,629.825 817.217,629.584 816.737,628.625 816.737,627.424 
		815.297,625.024 814.817,625.264 813.377,626.464 813.137,626.704 812.177,627.184 812.177,627.424 811.457,627.904 
		811.217,629.104 810.978,630.064 810.978,630.305 811.938,631.985 811.938,633.425 809.777,634.385 809.537,634.385 
		808.577,632.705 807.857,631.745 806.657,631.745 804.737,632.705 804.498,634.385 804.498,635.105 804.498,635.345 
		804.257,635.585 804.257,635.826 804.498,635.826 804.737,636.786 804.978,637.266 805.217,638.946 805.457,639.906 
		805.697,641.827 805.217,642.787 804.018,643.747 803.777,643.747 802.338,643.507 802.098,643.507 801.377,643.987 
		800.657,644.467 800.657,644.707 800.418,644.707 799.938,646.627 799.697,647.587 799.457,647.587 799.457,648.067 
		799.217,647.827 798.257,647.347 798.257,646.627 798.018,644.947 798.498,643.267 799.938,639.906 799.938,639.666 
		799.938,636.065 799.697,634.625 799.697,632.465 799.697,632.225 799.697,631.505 800.177,626.464 800.418,625.744 
		801.377,622.383 801.617,621.663 802.098,620.943 803.537,618.543 804.737,616.143 806.897,612.542 806.897,612.302 
		806.897,611.102 806.657,610.381 807.137,607.501 807.137,607.261 807.617,606.541 808.338,605.101 808.577,604.621 
		808.817,604.621 810.257,603.661 810.498,604.621 810.498,605.581 810.257,606.781 810.257,607.021 811.217,609.662 
		811.697,611.582 812.657,612.782 812.897,613.502 813.617,614.462 814.577,616.143 814.817,616.143 817.697,615.902 
		818.177,615.902 819.617,616.382 819.857,616.382 820.338,616.382 820.817,616.623 822.737,617.103 823.938,618.063 
		824.418,618.543 827.057,618.063 827.297,618.063 828.978,616.382 829.217,616.382 830.177,615.663 833.057,612.782 
		833.777,612.302 833.777,611.582 833.777,610.142 833.777,609.901 833.057,608.221 832.098,606.541 831.857,606.061 
		831.377,605.341 830.177,602.22 830.897,600.78 831.617,599.34 832.817,598.62 833.537,598.14 834.497,597.899 834.978,597.18 
		834.978,596.699 835.697,595.499 835.938,594.779 836.177,593.819 836.657,592.139 836.657,591.898 834.497,591.659 
		833.057,591.659 832.577,591.418 831.857,591.418 830.177,591.179 829.697,591.659 828.257,592.619 826.817,593.579 
		826.338,596.699 825.857,598.14 825.857,598.38 825.617,600.3 825.617,601.5 825.377,603.181 825.617,604.141 825.857,605.101 
		825.857,605.581 826.098,606.061 826.098,606.781 827.057,608.221 827.537,608.941 826.817,609.421 826.098,610.142 
		822.257,608.221 820.817,606.541 820.338,606.061 820.338,605.821 820.577,603.661 821.297,602.46 822.257,599.1 822.257,598.62 
		822.018,594.299 821.777,592.379 821.057,590.218 819.377,586.138 819.137,584.938 818.418,583.498 818.418,583.257 
		816.978,581.097 816.737,581.097 816.497,581.097 815.777,580.857 814.098,580.617 814.098,580.377 814.817,576.296 
		815.777,573.416 816.018,573.176 816.018,572.936 817.938,570.775 818.657,569.095 821.777,561.654 822.737,558.773 
		823.938,555.413 825.137,553.733 825.137,553.493 825.377,553.493 826.577,553.493 828.257,551.572 829.217,550.612 
		829.457,550.132 830.177,548.932 830.177,548.692 830.657,547.972 830.897,547.252 830.897,545.571 830.657,544.852 
		830.417,544.852 829.457,544.371 829.217,543.651 829.457,542.931 829.457,542.691 832.098,540.051 833.777,539.09 
		836.177,539.571 836.657,539.09 838.098,538.13 838.338,538.13 837.617,537.41 837.617,537.17 837.857,535.73 839.057,535.01 
		840.978,533.57 841.938,531.169 842.177,531.169 843.137,531.169 847.217,531.409 848.417,531.409 849.137,531.409 
		851.777,531.409 852.257,531.409 854.897,532.129 855.137,532.129 855.617,532.37 856.577,533.089 856.817,533.33 857.057,533.33 
		859.697,532.37 860.177,532.129 860.177,529.969 860.177,528.289 857.297,528.049 854.897,528.049 854.657,528.049 
		854.417,528.049 853.938,527.569 853.697,526.369 854.657,524.688 857.777,523.248 859.457,521.808 859.457,521.568 
		859.938,520.607 860.897,518.688 860.897,518.447 861.137,518.447 862.337,517.727 863.537,517.247 864.497,515.327 
		864.497,514.606 863.297,513.407 862.098,512.207 860.657,512.446 860.177,514.126 858.978,514.367 858.497,513.407 
		858.737,512.687 859.938,509.806 860.897,508.366 861.137,506.925 861.377,505.725 861.617,505.245 862.577,500.925 
		862.816,500.444 863.537,498.764 864.257,496.604 864.497,496.604 865.217,495.404 865.938,494.684 865.697,493.243 
		865.697,492.523 865.697,492.283 865.697,492.043 865.457,491.083 865.217,490.603 864.018,490.363 861.377,489.403 
		860.177,490.123 859.217,492.283 855.377,492.763 852.737,493.003 852.257,493.003 849.617,493.243 847.457,493.963 
		846.257,494.443 846.018,494.684 844.338,495.164 844.098,495.404 843.857,496.124 843.617,496.604 843.377,497.084 
		843.377,497.324 843.377,497.564 842.897,498.284 841.457,501.885 840.737,504.285 841.217,505.965 841.217,506.206 
		841.217,506.445 841.457,506.445 842.177,507.406 842.657,507.886 842.897,508.125 843.857,508.606 846.497,508.125 
		848.177,508.846 848.417,508.846 848.657,509.806 850.098,513.646 850.337,513.646 850.337,513.887 850.337,514.606 
		846.737,517.247 846.497,516.767 843.377,517.487 841.697,518.688 840.737,519.167 840.018,520.607 835.938,523.968 
		833.777,523.968 831.617,526.849 830.417,530.209 827.537,532.129 827.057,532.609 822.497,536.21 821.297,535.73 820.338,533.81 
		819.617,533.57 818.418,533.81 818.177,534.05 815.777,535.49 816.018,536.21 817.217,537.17 817.938,539.09 816.257,539.571 
		815.777,540.051 815.777,540.291 814.098,542.211 813.857,543.411 813.377,544.611 813.377,545.332 813.377,546.771 
		810.498,546.532 811.697,543.171 810.257,540.771 810.257,538.371 810.978,536.93 810.737,536.21 810.018,535.97 808.098,535.01 
		806.177,534.77 804.978,535.01 803.058,535.49 804.257,538.851 804.498,539.811 804.257,540.291 803.537,541.971 805.457,544.131 
		803.777,546.052 803.297,546.532 801.137,544.852 800.897,544.611 799.938,544.611 799.217,544.611 796.577,547.492 
		796.338,548.452 796.098,550.372 795.857,552.533 795.137,553.253 794.177,553.973 792.978,556.373 795.137,558.053 
		795.617,558.293 796.577,558.293 796.338,558.773 796.098,559.734 795.137,561.414 794.418,562.134 793.938,562.614 
		790.338,564.774 789.138,567.895 786.257,570.055 785.297,569.575 785.058,569.335 783.138,568.135 782.657,567.895 
		780.018,567.895 779.537,568.135 779.058,568.375 778.338,568.615 776.897,568.135 776.418,567.175 773.777,564.774 
		773.058,564.054 771.617,565.254 771.617,565.495 770.658,566.215 770.418,566.695 770.897,567.415 770.658,568.375 
		770.897,571.255 772.338,573.896 772.577,574.136 774.018,575.096 774.498,575.336 774.978,575.576 775.218,575.816 
		775.218,576.056 776.418,577.497 777.377,577.256 779.297,576.776 780.737,577.497 780.737,577.736 781.457,578.937 
		781.938,579.177 784.577,581.337 786.737,582.777 787.217,583.018 788.177,583.498 788.657,583.978 788.177,584.938 
		787.938,587.818 789.138,591.659 789.617,593.579 789.857,594.059 789.857,594.539 789.857,594.779 789.857,596.459 
		787.938,599.34 787.457,600.3 786.978,601.02 788.657,602.22 790.577,603.661 792.737,605.341 794.177,607.501 794.657,609.901 
		793.457,611.342 791.537,613.262 791.297,613.742 790.098,614.942 789.138,615.182 787.457,615.663 786.978,615.663 
		785.537,616.143 785.297,617.343 784.577,618.063 782.897,618.303 782.657,618.303 782.418,618.303 781.457,618.543 
		781.217,618.543 781.217,619.023 781.217,619.743 781.217,619.983 781.217,620.223 781.457,620.703 781.697,621.903 
		783.138,623.583 783.377,623.824 783.617,623.824 784.098,623.824 785.297,625.264 783.857,628.384 783.377,629.104 
		784.098,631.265 783.857,632.705 782.178,632.705 782.178,631.745 780.978,631.025 778.577,631.985 778.098,632.225 
		777.857,633.425 777.857,634.385 778.098,635.345 778.577,635.585 778.817,637.026 778.577,637.506 778.338,637.986 
		776.178,639.666 774.978,640.866 774.978,641.106 773.777,642.307 773.777,643.507 774.018,644.947 775.218,645.427 
		775.457,645.427 777.138,644.707 777.617,644.467 778.817,646.627 778.817,647.587 778.098,649.508 777.377,651.908 
		777.138,652.147 776.418,653.589 775.697,655.269 775.218,655.748 772.817,657.189 772.577,657.669 772.338,657.909 
		772.338,658.629 772.577,658.869 772.338,659.109 771.617,660.069 771.138,660.549 771.138,660.79 770.897,660.79 770.658,661.029 
		769.697,661.51 768.978,661.989 767.777,662.71 767.297,662.949 766.817,663.189 767.058,665.11 767.297,667.99 768.018,669.91 
		768.258,670.151 768.258,670.391 769.457,671.831 769.697,671.831 771.617,671.591 772.098,671.591 772.577,671.831 
		772.577,672.552 772.098,674.711 771.857,676.392 771.857,676.632 771.857,676.872 771.857,677.111 771.617,677.832 
		771.617,679.752 771.617,682.152 771.617,682.393 771.857,683.833 772.577,687.673 773.058,689.114 773.058,689.594 
		773.537,690.555 774.018,691.754 774.498,693.194 775.457,696.074 775.218,696.314 775.218,697.275 774.498,701.596 
		774.498,704.477 774.737,706.637 774.737,709.037 774.498,712.397 774.257,712.637 774.498,712.877 774.498,713.118 
		774.737,714.798 776.418,720.078 776.418,720.318 776.658,720.559 776.897,721.519 778.577,724.88 781.457,727.76 782.897,729.439 
		784.817,731.601 785.058,731.84 785.058,732.561 785.058,732.801 785.297,732.801 785.537,733.04 785.777,733.761 786.018,733.761 
		787.938,735.201 788.418,735.682 792.018,739.762 794.177,743.603 795.857,745.043 796.577,745.522 797.058,746.723 
		796.817,751.283 793.938,755.604 793.217,758.965 793.217,759.205 793.697,760.645 794.177,762.085 798.018,763.765 
		798.978,764.726 799.217,765.206 798.737,765.686 798.018,766.646 795.857,769.047 795.857,769.286 795.617,769.526 
		795.377,770.727 794.897,771.687 794.897,772.406 794.897,772.647 794.897,773.367 794.897,773.606 796.817,780.568 
		797.297,782.488 798.978,784.409 801.377,788.01 801.857,788.729 802.817,790.89 804.978,793.53 807.137,795.931 808.577,799.291 
		808.577,799.531 808.098,800.491 806.897,801.932 805.457,803.611 805.457,803.852 805.697,805.531 805.938,806.012 
		806.897,808.173 806.897,809.373 807.137,814.173 808.098,816.813 808.817,819.693 809.058,820.174 808.577,821.135 
		808.577,821.614 807.617,819.935 806.657,818.734 805.217,818.014 804.498,818.014 803.297,818.014 801.857,816.813 
		799.938,812.732 799.938,812.493 798.737,810.813 798.257,810.093 798.257,809.853 796.577,807.452 796.338,807.452 
		795.617,806.973 794.177,806.492 793.217,806.492 792.737,806.492 792.257,806.973 791.297,806.731 791.297,806.492 
		789.857,803.852 789.857,802.892 789.857,802.411 788.418,800.251 788.177,799.531 787.217,799.531 784.817,799.531 
		784.577,800.011 783.857,801.932 783.138,803.611 783.138,803.852 783.138,804.812 783.617,805.531 783.617,806.252 
		783.857,806.731 782.418,807.452 781.938,806.973 781.217,804.572 780.498,803.852 779.058,801.932 778.817,801.211 
		778.098,800.251 777.857,800.011 776.418,799.291 775.218,799.051 774.257,799.531 774.018,799.531 773.777,799.771 
		772.817,800.731 771.138,796.891 770.897,796.65 769.938,794.011 769.938,792.569 769.697,791.61 769.697,791.369 769.457,791.369 
		769.218,790.649 768.737,789.21 767.537,788.01 767.058,787.529 766.338,786.81 766.098,786.329 764.897,785.609 762.738,783.688 
		762.258,783.448 762.018,783.448 756.018,781.288 755.298,781.048 755.058,780.809 753.138,781.048 750.258,780.088 
		748.098,779.128 745.698,779.128 744.978,779.128 741.857,779.368 740.657,779.368 740.178,779.368 738.978,779.128 
		736.577,778.888 736.338,779.128 735.857,779.848 734.897,781.048 734.418,781.769 733.698,781.528 731.058,780.809 
		730.098,780.328 726.738,778.647 724.818,776.247 724.338,775.768 724.338,775.287 725.298,775.287 725.298,774.807 
		725.777,770.247 725.777,769.047 725.298,768.326 722.657,765.206 722.657,764.965 721.938,764.726 720.498,764.965 
		718.338,765.445 718.338,766.646 719.298,767.126 720.258,770.486 720.018,772.406 719.777,773.127 719.777,773.367 
		719.058,774.807 718.338,774.327 715.218,771.687 714.979,771.447 711.378,769.766 707.777,767.365 705.617,766.646 
		705.378,762.325 705.138,761.605 704.178,760.405 702.019,758.484 699.857,757.765 698.657,756.564 698.178,756.084 
		696.258,754.644 696.258,754.404 695.538,752.964 694.818,751.283 694.818,750.323 694.578,749.363 694.338,747.202 
		694.098,745.043 694.098,744.322 694.098,744.082 693.857,744.082 693.617,743.603 693.617,743.362 692.418,741.442 
		692.178,741.202 692.178,740.962 691.698,738.321 690.738,736.161 689.298,733.281 687.138,733.281 685.218,733.521 
		684.979,733.521 684.498,733.761 684.019,734.24 682.818,734.961 679.218,737.842 677.298,740.002 676.578,741.442 
		676.338,741.442 676.098,741.442 674.418,741.682 673.938,741.682 673.218,741.202 672.738,741.202 671.058,740.722 
		670.098,742.882 668.658,745.043 666.979,746.002 664.338,747.923 663.139,748.644 661.698,749.603 660.258,750.563 
		660.019,750.563 656.658,751.764 654.979,751.044 651.857,748.644 649.219,746.723 648.738,745.522 647.298,741.202 
		646.818,740.002 647.538,737.602 647.538,737.121 647.538,735.201 647.538,734.721 647.058,732.561 646.578,731.12 646.578,730.4 
		646.098,728.72 645.138,725.359 645.858,723.439 646.578,720.078 647.058,718.639 648.018,716.719 648.498,715.758 
		649.698,713.838 649.938,712.877 651.618,709.997 653.778,709.518 654.258,709.277 655.219,707.837 656.178,706.396 
		657.139,704.956 660.738,699.436 661.698,698.955 663.139,698.235 663.378,698.235 664.578,698.235 664.818,698.235 
		666.258,698.475 666.738,698.475 666.979,698.475 666.979,698.235 667.458,697.995 669.618,696.795 669.857,696.555 
		670.098,696.555 670.818,695.354 669.857,691.994 669.618,690.794 669.618,690.073 668.897,688.873 668.897,688.634 
		669.378,683.593 671.298,680.952 672.258,680.232 672.979,679.512 673.938,678.552 674.178,678.552 674.658,678.312 
		675.139,678.312 675.857,677.592 676.338,677.353 677.058,676.872 677.538,676.632 677.538,676.392 678.498,675.912 
		679.458,675.432 679.698,675.432 679.698,675.672 680.897,675.912 681.378,675.912 683.058,675.912 684.258,674.952 
		684.738,673.991 684.979,673.271 684.979,672.552 684.979,671.831 684.979,671.352 684.979,669.671 684.979,668.951 
		684.979,668.71 684.979,667.99 684.979,667.751 684.979,667.511 684.979,666.79 684.979,665.11 684.979,663.43 684.979,663.189 
		684.979,662.71 684.979,661.989 685.218,659.829 685.218,659.109 685.218,658.39 685.218,658.148 685.458,658.148 685.698,657.669 
		687.618,655.748 690.498,652.868 691.698,651.668 691.938,651.428 692.418,651.188 692.657,650.948 692.657,650.708 
		693.378,650.228 693.617,649.988 693.617,649.748 693.857,649.508 694.338,649.268 694.578,648.788 695.538,648.067 
		696.738,646.867 696.979,646.627 696.979,646.387 697.458,645.907 697.698,645.667 697.938,645.667 697.938,645.427 
		698.418,645.187 698.657,644.947 698.897,644.707 698.897,644.467 699.138,644.227 699.857,643.507 700.578,643.027 
		701.058,642.307 701.538,641.827 701.777,641.827 702.258,641.106 702.979,640.626 703.218,640.386 703.218,640.146 
		703.458,639.906 703.938,639.666 704.897,638.706 705.138,638.466 705.378,638.226 705.378,637.986 705.617,637.986 
		705.857,637.746 706.577,637.026 706.818,636.786 706.818,636.545 707.298,636.306 707.538,636.065 707.298,635.826 
		706.818,635.585 706.818,635.345 706.577,635.345 706.577,635.105 706.098,634.865 705.617,634.146 705.138,633.665 
		703.698,632.225 702.979,631.745 702.019,630.545 701.538,630.064 700.338,629.104 700.338,628.864 699.138,627.904 
		699.138,627.664 698.897,627.664 698.897,627.424 698.657,627.184 698.178,626.944 697.698,626.464 697.458,625.984 
		696.498,625.264 696.258,625.024 695.777,624.544 695.777,624.304 694.578,623.344 694.098,622.863 693.857,622.624 
		693.378,622.144 692.657,621.183 692.178,620.943 691.938,620.703 691.938,620.463 691.698,620.223 690.738,619.503 
		690.738,619.263 690.258,618.783 689.777,618.303 689.538,618.303 689.298,618.063 689.058,617.823 689.058,617.583 
		688.578,617.343 687.618,616.143 687.378,615.902 686.897,615.422 686.178,614.942 685.938,614.702 685.218,613.982 
		684.979,613.982 684.019,614.702 	"/>
	
		<polyline clip-path="url(#SVGID_2_)" fill="none" stroke="#B37C34" stroke-width="0.96" stroke-linecap="round" stroke-linejoin="round" stroke-miterlimit="3.85" points="
		684.019,614.702 683.058,615.663 682.818,616.143 681.378,617.343 681.139,617.583 680.658,618.063 680.658,618.303 
		680.418,618.543 680.178,618.543 679.938,619.023 678.979,619.983 678.498,620.463 678.019,620.703 677.538,621.183 
		677.058,621.663 676.578,622.144 676.098,622.624 675.378,623.344 674.897,623.824 674.897,624.063 674.418,624.304 
		674.418,624.544 673.938,625.024 673.458,625.264 672.979,625.744 671.777,626.944 670.338,625.744 669.618,624.304 
		669.618,624.063 668.658,622.383 667.218,620.463 666.979,620.463 666.498,620.223 664.098,619.743 663.857,619.743 
		663.618,619.743 662.897,619.743 661.458,619.743 660.979,619.503 660.019,619.743 658.578,619.983 657.618,619.743 
		657.618,619.503 656.658,619.263 656.178,619.503 655.938,619.263 654.498,619.023 654.019,618.543 653.298,617.343 
		653.058,617.103 652.818,617.103 652.578,617.103 652.338,617.823 649.698,615.902 649.938,614.462 649.698,614.222 
		649.219,613.742 648.738,612.302 649.458,610.381 650.178,609.421 650.418,608.701 650.658,608.461 650.658,608.221 
		650.418,607.261 649.938,606.781 648.738,606.301 648.258,606.061 648.018,606.061 647.058,605.821 645.618,605.341 
		644.178,604.141 642.498,602.7 641.058,601.98 640.578,601.74 639.378,601.5 638.658,601.26 637.698,600.78 637.218,600.54 
		636.738,600.3 636.498,600.06 635.538,599.82 635.538,599.34 635.298,599.34 634.338,599.1 632.658,599.1 631.218,599.1 
		629.778,599.34 628.578,599.34 628.098,599.1 627.858,599.1 627.618,599.1 627.378,599.1 626.658,599.1 624.738,598.62 
		624.498,598.62 623.538,598.62 621.618,598.14 620.658,598.14 620.418,598.14 620.178,597.899 618.979,597.66 618.258,597.419 
		618.018,597.419 618.018,597.18 616.578,597.18 615.378,596.939 614.418,596.699 614.178,596.459 613.938,596.459 613.938,596.219 
		613.698,596.219 613.698,595.979 613.458,595.259 612.498,593.819 612.018,592.379 611.778,591.898 611.538,591.418 
		611.298,590.938 611.298,590.699 611.058,590.699 610.578,589.738 610.578,589.499 609.858,588.778 608.898,588.298 
		608.178,588.058 607.458,587.818 606.738,587.578 604.818,586.858 604.818,586.618 604.338,586.378 604.098,586.378 
		604.098,586.138 603.858,586.138 603.378,584.698 603.138,583.737 602.898,582.777 602.898,581.097 602.898,580.857 
		603.378,580.377 603.858,577.497 604.098,577.256 604.818,575.336 605.778,573.896 606.738,572.936 609.858,572.216 
		611.058,571.496 611.298,571.255 611.778,570.295 611.538,568.615 612.018,567.415 612.498,566.455 614.178,565.254 
		614.418,565.015 614.418,564.774 614.658,564.294 614.658,563.814 614.658,563.574 614.418,563.334 614.418,563.094 
		614.178,563.094 614.178,562.854 612.498,561.654 610.818,559.974 610.098,559.014 609.858,558.773 608.418,558.053 
		608.178,558.053 607.938,558.053 606.258,557.573 604.338,556.613 604.098,556.613 604.098,556.373 603.858,556.373 
		603.618,556.133 603.138,556.133 601.698,555.413 600.738,554.933 600.258,554.453 600.258,553.973 599.778,553.493 
		599.059,552.533 598.578,551.813 598.098,551.092 597.378,550.372 597.138,548.452 597.138,547.012 596.898,546.532 
		596.418,546.052 595.938,546.052 594.499,546.292 593.539,546.532 592.818,546.771 592.099,547.012 591.858,547.012 
		590.898,546.771 590.658,546.771 590.418,546.771 589.698,546.532 588.019,546.771 585.378,545.812 584.658,545.571 
		584.178,545.571 583.938,545.332 583.698,545.332 583.218,545.091 582.979,545.091 582.738,545.091 582.258,544.852 
		581.298,544.371 580.099,543.651 579.858,543.651 579.619,543.411 578.658,542.451 578.178,541.971 577.938,541.971 
		577.698,541.971 577.458,541.971 577.218,541.971 576.979,541.971 576.979,542.211 576.019,542.931 575.059,543.171 
		574.338,543.171 572.659,542.451 571.218,542.691 570.738,542.451 569.298,542.451 569.298,542.211 569.059,542.211 
		569.059,541.971 568.818,541.971 568.818,541.731 568.099,541.251 566.179,540.531 565.699,540.291 565.458,540.051 
		564.738,539.811 564.499,539.811 564.258,539.571 564.258,539.331 564.019,539.09 563.778,539.09 563.539,538.371 563.539,538.13 
		563.539,537.89 563.778,537.41 564.019,537.17 565.458,536.45 566.179,535.49 566.659,534.05 566.659,533.089 566.659,532.85 
		564.979,529.969 564.979,529.729 564.979,529.489 564.979,529.249 565.219,529.009 565.699,528.769 565.938,528.769 
		567.139,528.529 567.378,528.529 567.619,528.529 567.619,528.289 567.858,528.289 567.858,528.049 567.858,527.809 
		568.099,527.569 567.858,527.569 567.858,527.089 567.858,526.369 567.378,525.168 567.378,524.928 566.898,524.448 
		566.179,523.008 565.219,521.088 565.219,520.368 564.979,519.888 564.258,519.647 564.019,519.407 563.539,519.167 
		563.298,519.167 561.378,519.167 559.458,518.927 558.499,518.688 558.259,518.447 558.019,518.447 557.778,518.207 
		557.539,518.207 557.539,517.967 557.298,517.967 557.059,517.727 556.818,517.487 556.818,517.247 556.818,516.767 
		557.059,516.527 557.298,516.287 559.219,516.047 559.699,515.807 559.699,515.567 559.699,515.087 558.499,514.126 
		557.539,513.167 557.539,512.687 557.539,512.207 558.019,511.966 558.499,511.726 560.179,512.207 560.659,512.207 
		560.898,512.207 561.139,511.966 561.139,511.726 560.898,511.486 558.979,510.526 558.019,509.806 557.778,509.566 
		557.539,508.846 557.778,508.125 558.019,507.886 558.019,507.406 559.219,506.925 559.458,506.686 559.699,506.686 
		560.418,506.445 561.619,505.965 562.099,505.965 562.338,505.965 562.338,505.725 562.579,505.725 562.818,505.725 
		562.818,505.485 563.059,505.245 563.298,505.005 563.298,504.765 563.059,504.525 562.818,504.285 562.818,504.045 
		562.579,504.045 562.338,503.805 561.619,503.805 560.659,503.805 560.418,503.805 560.179,504.045 559.938,504.045 
		559.699,504.285 559.699,504.525 559.219,505.245 558.979,505.485 558.738,505.485 558.738,505.725 558.499,505.725 
		558.019,505.725 557.778,505.725 557.298,505.965 557.059,505.965 556.818,505.725 556.338,505.725 556.099,505.725 
		555.858,505.485 555.378,505.485 555.139,505.485 553.938,505.005 553.938,504.765 553.699,504.765 552.979,504.765 
		552.019,504.765 549.858,503.805 549.619,503.805 549.378,503.325 549.378,503.085 549.378,502.845 549.858,502.125 
		552.499,500.444 553.219,499.964 553.458,498.284 553.458,497.804 553.219,497.324 553.219,497.084 552.979,497.084 
		552.979,496.844 552.739,496.844 551.779,496.364 551.299,496.604 550.818,496.844 550.579,497.084 550.579,499.004 
		550.338,499.484 548.898,500.205 547.219,500.444 546.739,500.205 546.499,499.964 546.259,499.725 546.259,499.484 
		546.259,499.244 546.259,499.004 546.259,498.284 546.259,498.044 546.499,497.804 546.499,497.324 546.499,497.084 
		546.739,495.884 546.739,495.644 546.499,495.404 546.499,495.164 546.499,494.924 545.539,493.724 543.139,492.283 
		542.898,492.043 542.659,491.323 542.659,491.083 542.659,490.843 542.659,490.603 543.139,490.363 543.378,490.123 
		543.858,489.883 544.099,489.643 544.339,489.643 545.299,489.643 546.499,489.643 546.739,489.643 548.179,489.403 
		550.338,489.643 551.299,489.163 551.779,488.683 551.779,488.442 552.019,488.203 552.019,487.243 552.259,485.802 
		552.499,485.082 552.499,484.602 552.499,483.642 552.259,481.722 552.259,481.481 552.019,481.242 551.299,480.521 
		551.059,480.521 550.338,480.281 549.619,480.281 548.898,480.281 548.659,480.281 548.418,480.281 547.938,480.042 
		547.699,480.042 546.979,479.801 546.499,479.562 546.259,479.321 546.019,479.321 545.059,478.601 543.378,478.361 
		542.898,478.601 542.898,478.841 543.619,479.801 543.858,480.042 543.858,480.281 543.858,481.001 543.858,481.722 
		543.619,481.961 543.378,482.202 543.139,482.202 542.898,482.202 542.659,482.202 542.418,482.202 541.458,481.961 
		539.299,481.242 538.099,481.001 537.858,481.001 536.898,480.521 536.418,480.042 536.418,479.801 535.938,478.601 
		535.219,478.121 534.739,477.881 534.259,478.121 534.259,478.361 534.019,478.361 534.019,478.601 534.499,479.321 
		534.499,480.521 534.499,481.001 534.499,481.242 533.779,482.442 533.299,482.442 533.059,482.442 532.819,482.442 
		532.339,482.442 532.099,482.202 531.859,481.722 531.619,481.001 531.379,480.521 530.898,480.281 530.418,480.281 
		529.699,480.281 529.219,480.281 528.979,480.521 528.259,481.242 527.779,481.722 526.579,481.722 525.379,481.481 
		525.139,481.481 523.458,481.481 523.458,481.242 522.979,481.242 522.739,481.242 522.259,480.761 522.019,480.521 
		520.339,477.161 520.099,476.681 519.859,476.681 518.899,475.48 517.939,473.561 517.459,473.08 516.259,472.36 516.019,472.12 
		516.019,471.88 515.779,471.64 515.299,470.92 515.299,470.68 512.659,468.04 511.699,466.839 511.219,466.359 510.259,465.879 
		510.019,465.879 509.299,465.879 509.059,465.879 507.859,464.439 507.379,463.959 507.139,463.959 506.179,463.479 
		505.459,463.239 503.299,462.759 501.859,462.279 501.379,462.039 500.179,461.559 498.259,461.559 498.019,461.318 
		497.779,461.318 497.299,461.079 497.059,460.838 495.619,460.358 495.379,460.358 494.659,460.358 493.699,460.358 
		493.459,460.358 492.979,460.838 492.019,461.559 491.779,461.798 491.059,463.239 490.339,464.199 490.099,464.439 
		489.379,464.679 486.019,464.439 485.299,464.919 485.059,465.159 485.059,465.639 485.779,466.599 486.499,467.319 
		486.499,467.56 486.499,467.799 486.259,468.279 485.779,468.76 484.099,469.72 483.619,470.2 483.379,470.44 482.659,471.16 
		481.459,472.36 480.019,474.28 479.779,475.241 479.779,476.201 479.539,476.681 479.059,476.921 478.579,476.681 476.419,476.441 
		474.979,475.721 474.019,475.241 473.539,475 472.339,474.521 471.379,474.041 469.699,473.561 468.259,473.08 468.019,472.84 
		467.059,472.6 464.899,471.88 464.419,471.88 464.179,471.88 463.939,472.12 463.699,472.36 463.699,473.08 464.419,473.561 
		464.659,474.041 464.659,474.521 464.659,474.761 464.179,475 463.939,475.241 463.219,475 462.499,474.761 462.259,474.521 
		461.299,474.041 460.339,474.28 460.099,474.28 459.859,474.521 459.619,474.761 459.619,475.241 459.619,475.48 459.619,475.721 
		460.339,476.681 461.299,478.121 461.539,478.361 461.299,478.601 461.059,478.841 460.339,478.841 459.619,478.841 
		458.419,478.121 457.459,477.161 454.579,475.961 453.379,475.241 452.419,475.241 451.699,475.48 451.219,475.961 
		451.219,476.441 451.219,476.681 451.219,476.921 451.459,477.401 452.419,478.841 453.379,479.801 454.579,481.001 
		454.819,481.001 456.259,481.961 457.219,482.682 457.459,483.162 457.459,483.402 457.459,484.122 457.219,484.602 
		456.499,484.842 455.299,485.322 453.859,484.842 453.619,484.602 453.379,484.602 452.899,484.122 451.939,483.402 
		449.539,482.442 449.299,482.442 449.059,482.442 448.579,482.442 448.339,482.682 448.099,482.682 447.619,482.922 
		447.139,483.162 446.899,483.642 446.899,484.842 447.619,486.042 448.099,486.762 450.259,488.442 452.179,489.403 
		452.659,489.883 452.659,490.123 452.899,490.363 453.139,491.083 453.379,491.323 453.379,491.563 453.379,492.043 
		452.899,492.043 452.419,492.283 451.939,492.043 451.459,491.563 450.979,491.563 450.739,492.043 450.739,492.763 
		450.739,493.243 450.499,493.243 450.499,493.724 450.259,493.724 450.019,493.724 449.539,493.483 449.539,493.243 
		448.819,492.763 448.579,492.763 448.339,493.003 448.099,493.003 448.099,493.243 448.099,493.483 448.099,493.724 
		448.099,493.963 447.859,494.204 447.619,494.204 447.379,494.204 446.659,494.443 446.179,494.684 446.179,494.924 
		446.179,495.884 446.179,496.124 446.179,496.364 446.179,496.604 445.939,497.564 444.979,498.524 444.499,498.764 
		444.019,498.524 442.819,498.044 442.339,497.804 442.099,497.804 441.379,498.284 439.699,498.044 439.219,498.044 
		437.299,497.084 436.099,496.604 435.859,496.604 435.619,496.604 434.899,496.604 433.699,496.844 431.779,497.324 
		431.299,497.564 430.819,497.324 430.099,497.324 428.659,497.564 428.179,497.564 427.459,497.084 426.499,496.124 
		425.059,495.644 424.819,495.644 424.339,495.164 424.099,494.924 424.099,494.443 423.859,494.204 423.619,494.204 
		423.379,494.204 422.899,494.443 422.659,494.443 421.939,494.443 421.699,494.204 421.219,493.963 420.739,493.724 420.5,493.483 
		419.059,493.243 418.099,493.243 418.099,493.483 417.619,493.724 413.539,494.204 413.059,493.963 412.099,493.724 
		411.379,492.763 410.179,492.763 408.979,492.043 407.779,491.563 407.539,491.083 407.539,490.603 407.299,490.123 
		407.059,490.123 407.059,489.883 406.819,489.883 406.579,489.883 406.1,489.643 405.379,489.403 404.899,489.403 404.659,489.163 
		404.659,488.923 403.939,487.962 403.699,487.962 403.459,487.723 402.5,487.723 402.02,487.482 401.779,487.002 401.779,486.762 
		401.539,486.522 400.819,485.082 400.579,483.162 400.579,482.682 399.859,482.682 399.62,482.682 398.899,483.882 
		398.419,484.122 396.739,483.882 396.02,483.402 394.819,482.202 394.819,481.961 394.819,481.481 394.339,480.521 394.1,480.281 
		393.859,480.042 393.62,479.801 393.139,479.321 393.139,479.081 393.379,478.841 393.379,478.601 394.819,477.641 
		396.259,477.401 396.979,477.401 397.699,477.401 397.939,477.641 398.179,477.641 398.179,478.121 398.419,478.361 
		398.899,478.121 399.379,477.881 399.859,477.641 399.859,477.401 400.579,476.681 400.819,476.681 400.819,476.441 
		400.819,476.201 400.579,475.961 400.339,475 400.339,474.761 399.62,474.521 399.139,474.28 398.419,474.041 398.179,473.8 
		398.179,474.041 397.459,474.28 396.979,474.521 395.779,475.48 395.299,475.48 394.819,475.241 394.1,475 393.379,474.761 
		393.139,474.521 393.139,474.28 393.379,474.041 393.379,473.561 393.62,473.561 393.62,473.32 394.339,471.64 394.579,471.16 
		394.819,471.16 395.059,470.92 395.299,470.44 395.539,469.96 395.539,469.479 395.539,469.24 395.539,469 395.299,469 
		395.059,469.24 394.579,469.24 394.1,469.479 393.859,469.72 393.379,470.44 393.379,470.68 392.899,471.4 392.419,471.64 
		391.219,471.16 390.739,471.16 390.5,471.4 390.259,471.4 389.539,473.08 389.299,473.561 389.779,475 390.02,475.48 
		390.02,475.721 390.259,476.201 390.259,476.441 390.259,477.161 390.259,477.401 390.259,477.881 390.259,478.121 390.02,478.361 
		389.539,478.361 389.299,477.881 388.339,477.641 388.1,477.641 387.379,479.321 387.379,479.801 387.379,480.042 386.419,481.481 
		385.22,481.481 384.979,481.722 384.979,481.961 384.979,482.922 384.979,483.402 384.979,484.122 384.979,484.362 
		385.459,484.362 385.7,484.362 385.939,484.602 386.899,485.562 387.139,486.522 386.419,487.723 385.7,487.962 384.979,487.482 
		384.259,486.762 382.819,486.522 382.579,486.762 382.339,486.762 381.62,487.243 381.379,487.482 380.659,487.962 
		380.659,488.203 380.659,488.442 380.659,489.163 380.659,489.643 378.259,493.003 377.539,493.963 377.539,494.204 
		376.579,496.124 376.339,496.124 376.339,496.364 375.859,496.364 374.659,495.884 373.939,496.844 373.7,496.844 373.22,498.044 
		373.22,498.284 370.819,501.405 369.379,503.805 369.139,503.805 367.7,503.565 367.22,503.565 366.739,503.805 366.5,503.805 
		365.779,504.285 365.06,504.765 365.06,505.005 365.06,505.725 365.54,505.965 365.54,506.206 365.06,507.166 364.339,508.125 
		363.139,508.606 362.659,513.167 362.419,513.646 362.179,513.646 361.22,513.887 360.979,513.887 360.739,513.887 
		360.739,513.646 360.5,513.407 360.259,512.926 359.779,512.446 358.82,511.726 357.379,511.006 356.899,510.766 356.419,510.526 
		355.7,510.286 355.22,509.806 354.5,509.566 353.54,508.846 353.3,508.846 352.34,507.646 351.859,507.646 351.62,507.646 
		350.659,507.886 350.419,507.886 350.179,507.886 349.7,507.406 349.459,507.406 349.22,506.686 349.22,506.206 349.22,505.725 
		349.22,505.485 348.739,505.005 347.54,503.805 346.82,503.805 346.58,504.045 346.34,504.525 346.34,504.765 346.1,505.005 
		346.1,505.245 346.1,506.206 345.859,506.445 345.62,506.445 345.379,506.445 343.7,505.725 	"/>
	
		<polyline clip-path="url(#SVGID_2_)" fill="none" stroke="#B37C34" stroke-width="0.96" stroke-linecap="round" stroke-linejoin="round" stroke-miterlimit="3.85" points="
		855.377,803.131 853.938,801.932 853.217,801.691 852.497,801.932 849.137,803.611 848.897,803.611 848.897,803.852 
		848.177,804.331 847.217,802.172 848.177,800.731 848.177,800.491 848.417,798.57 847.697,796.41 847.697,795.931 848.177,788.489 
		848.177,787.769 848.177,787.529 848.417,787.289 851.297,785.129 852.978,784.889 854.657,784.889 854.897,784.889 
		855.137,784.889 855.856,785.849 857.297,787.529 859.697,790.41 859.697,791.85 858.018,792.33 857.777,792.569 857.777,794.25 
		857.777,794.97 858.018,796.891 858.257,797.131 859.697,800.251 860.657,800.731 861.377,800.491 861.617,802.651 
		860.177,803.611 859.938,805.772 861.377,807.212 862.337,808.412 862.816,812.253 861.856,813.453 859.697,813.693 
		858.018,812.973 857.537,812.493 856.337,811.293 853.697,808.652 853.457,808.412 855.137,805.772 855.617,805.531 
		856.337,805.292 856.817,804.812 856.337,803.852 856.098,803.611 855.377,803.131 	"/>
	
		<polyline clip-path="url(#SVGID_2_)" fill="none" stroke="#B37C34" stroke-width="0.96" stroke-linecap="round" stroke-linejoin="round" stroke-miterlimit="3.85" points="
		861.137,839.137 860.417,839.137 858.978,839.137 857.537,839.137 856.817,839.137 856.098,839.377 855.856,837.217 
		855.377,832.656 855.377,830.016 855.617,829.295 855.617,826.415 855.617,825.936 855.856,823.775 856.577,822.574 
		856.817,822.094 860.177,820.654 861.617,820.414 863.057,821.135 865.217,823.535 865.938,823.775 866.417,824.015 
		867.137,824.255 868.098,824.494 868.577,824.975 868.577,825.215 869.057,825.694 869.057,827.615 867.377,828.095 
		866.657,828.335 866.417,829.056 866.417,829.535 866.177,829.775 865.938,830.976 865.217,833.136 864.978,834.576 
		865.217,835.776 865.457,836.257 865.457,836.497 865.938,837.697 864.978,839.137 863.057,839.137 861.137,839.137 	"/>
</g>
</svg>
