<?xml version="1.0" encoding="utf-8"?>
<!-- Generator: Adobe Illustrator 15.1.0, SVG Export Plug-In . SVG Version: 6.00 Build 0)  -->
<!DOCTYPE svg PUBLIC "-//W3C//DTD SVG 1.1//EN" "http://www.w3.org/Graphics/SVG/1.1/DTD/svg11.dtd">
<svg version="1.1" id="State" xmlns="http://www.w3.org/2000/svg" xmlns:xlink="http://www.w3.org/1999/xlink" x="0px" y="0px"
	 width="1296px" height="1296px" viewBox="0 0 1296 1296" enable-background="new 0 0 1296 1296" xml:space="preserve">
<g>
	<defs>
		<rect id="SVGID_1_" x="259.22" y="351.621" width="779.516" height="595.772"/>
	</defs>
	<clipPath id="SVGID_2_">
		<use xlink:href="#SVGID_1_"  overflow="visible"/>
	</clipPath>
	
		<polyline clip-path="url(#SVGID_2_)" fill="none" stroke="#B37C34" stroke-width="1.2" stroke-linecap="round" stroke-linejoin="round" stroke-miterlimit="3.85" points="
		330.979,463.239 335.06,463.479 341.3,463.719 341.779,463.719 351.62,464.199 355.939,464.439 359.54,464.679 362.419,464.679 
		366.5,464.919 370.1,465.159 370.339,465.159 372.259,465.159 375.139,465.399 380.179,465.639 380.899,465.639 398.899,466.359 
		399.62,466.599 412.339,467.079 417.139,467.319 423.619,467.56 427.219,467.799 429.139,467.799 429.619,467.799 448.339,468.76 
		450.739,469 462.499,469.479 466.099,469.72 472.099,469.96 472.819,470.2 482.899,470.68 494.659,471.16 496.099,471.16 
		498.739,471.4 500.659,471.4 503.299,471.64 504.019,471.64 512.899,472.12 519.139,472.36 521.539,472.6 528.499,472.84 
		529.699,473.08 529.938,473.08 530.179,473.08 546.259,473.8 558.259,474.28 562.338,474.28 565.219,474.521 569.539,474.761 
		571.698,474.761 571.938,474.761 584.418,475.48 591.378,475.721 596.658,475.961 602.178,476.201 608.178,476.441 
		608.658,476.441 623.298,476.921 623.538,476.921 627.138,477.161 631.698,477.401 633.858,477.401 634.578,477.401 
		639.378,477.641 643.218,477.641 648.258,477.881 654.258,478.121 654.738,478.121 658.338,478.121 661.458,478.361 
		662.418,478.361 662.658,478.361 664.818,478.361 675.618,478.841 678.498,478.841 679.698,478.841 680.178,478.841 
		680.418,478.841 680.658,478.841 684.738,479.081 690.498,479.321 690.979,479.321 691.698,479.321 691.938,479.321 
		692.178,479.321 695.777,479.321 697.698,479.562 699.378,479.562 702.979,479.562 705.378,479.801 711.857,480.042 
		712.098,480.042 715.698,480.042 716.178,480.042 716.657,480.042 719.298,480.281 720.738,480.281 723.617,480.521 
		726.498,480.521 727.218,480.521 731.058,480.521 732.018,479.081 733.938,476.441 734.657,475.241 736.338,472.6 738.738,469.72 
		738.738,469.479 740.897,467.799 743.298,467.079 745.218,466.839 746.657,467.079 748.338,467.56 750.018,468.04 750.738,468.279 
		751.218,468.52 753.857,469.24 753.617,465.399 753.377,464.919 753.138,461.559 752.897,454.597 753.138,454.117 753.617,453.637 
		754.338,452.677 755.298,451.477 756.498,450.037 756.738,449.797 756.978,449.557 760.098,447.636 760.577,447.636 
		763.698,446.196 767.058,447.156 769.938,447.876 772.098,448.597 774.737,449.316 777.377,450.037 777.617,450.277 
		779.537,442.835 780.737,439.715 781.457,438.515 783.377,436.354 784.098,435.634 789.617,434.434 791.058,434.194 
		792.498,433.714 795.617,433.234 797.297,432.754 798.018,432.274 799.457,431.554 800.657,430.834 804.257,428.673 
		804.498,428.434 804.978,428.193 807.617,427.953 810.018,427.953 813.377,428.914 813.857,429.394 816.018,431.074 
		820.817,434.674 821.057,434.915 823.457,433.714 824.657,432.754 825.857,432.034 826.098,432.034 826.577,431.794 
		827.537,431.794 827.297,437.555 827.777,439.715 828.018,442.115 828.257,444.036 828.737,446.436 828.978,448.356 
		830.177,456.518 832.338,465.159 832.577,466.119 834.497,470.44 836.897,475.961 837.377,477.641 835.697,479.562 
		835.697,480.521 835.697,480.761 838.577,482.922 841.697,483.402 842.657,483.882 845.537,487.243 845.777,488.923 
		846.257,489.163 853.938,491.803 854.897,491.563 855.377,491.323 855.377,489.163 857.297,487.002 858.978,485.082 
		862.816,481.722 863.777,481.481 865.938,480.761 867.856,481.961 867.377,485.322 867.137,487.723 867.137,487.962 
		867.137,488.203 867.377,489.643 867.617,489.643 867.856,489.883 869.057,490.363 870.497,490.123 872.177,489.883 
		872.657,489.643 872.897,489.643 873.856,492.763 873.856,495.164 873.377,496.604 872.657,496.604 870.978,496.604 
		868.337,498.284 868.337,498.524 868.337,498.764 868.098,499.004 866.897,502.125 866.177,503.805 864.978,506.206 
		861.137,511.246 858.978,511.726 858.497,511.486 858.497,510.526 858.257,509.326 858.018,508.606 857.537,507.886 
		857.057,507.886 856.817,507.886 856.098,507.886 855.617,508.366 855.137,509.566 854.417,510.286 852.257,512.687 
		848.417,513.646 846.018,514.367 844.338,512.926 840.257,514.606 839.537,514.847 836.417,515.807 832.817,516.767 
		830.897,517.247 828.497,519.167 826.817,520.127 821.777,520.368 819.857,520.848 819.377,521.088 817.457,521.568 
		817.217,521.568 816.978,521.808 816.978,522.528 816.978,523.008 817.217,523.248 818.177,527.809 818.177,528.049 
		819.617,528.529 820.098,528.289 821.537,528.529 823.217,528.769 823.697,529.729 824.418,531.169 825.377,533.33 824.418,536.93 
		823.217,537.65 822.018,536.69 820.098,536.93 819.377,537.41 817.457,538.61 815.537,540.051 814.338,542.451 814.098,542.451 
		813.857,543.171 813.857,543.411 814.098,543.891 812.657,545.091 810.978,544.131 809.777,543.411 809.537,543.411 
		807.857,543.171 806.897,543.411 805.697,544.852 805.217,545.091 804.257,546.052 804.257,546.292 804.498,549.652 
		804.737,551.572 805.697,553.253 806.177,553.493 808.817,554.213 809.777,554.933 811.217,556.373 810.498,557.333 
		809.537,557.333 806.897,557.093 804.018,556.854 803.297,554.213 802.577,551.813 802.577,547.492 801.857,546.532 
		801.617,546.771 799.217,549.172 799.217,549.892 799.217,550.612 797.537,552.292 794.657,555.413 794.418,555.653 
		793.938,557.093 793.697,557.333 792.978,559.974 793.457,561.174 793.697,561.414 794.177,561.414 794.418,562.854 
		794.657,563.094 795.137,564.294 796.098,564.535 796.817,564.774 797.297,565.254 797.058,565.495 796.817,565.975 
		796.817,566.935 796.817,567.175 796.817,568.135 797.297,568.855 797.777,569.815 798.018,570.535 799.217,572.696 
		800.897,575.816 800.897,577.256 798.737,576.536 796.817,574.616 796.338,574.136 795.377,573.896 794.897,574.136 
		791.537,575.096 789.857,576.536 789.617,577.736 788.418,581.577 788.177,582.297 788.657,585.178 790.338,587.578 
		791.058,588.778 790.817,590.218 790.338,592.379 790.098,592.859 790.338,593.579 790.338,593.819 790.338,594.299 
		790.817,595.019 791.537,596.219 792.257,597.419 793.217,598.14 793.457,598.14 793.697,598.38 796.098,598.38 798.018,598.14 
		800.177,597.66 801.857,596.939 802.577,597.899 803.777,598.86 804.018,598.86 804.498,599.34 807.137,599.58 809.537,598.86 
		810.498,597.18 812.657,593.579 812.657,592.859 812.657,592.619 812.657,591.418 812.657,591.179 812.418,590.458 
		808.577,588.778 808.098,587.818 810.257,587.338 815.297,586.858 815.537,588.058 815.537,589.258 816.018,589.979 
		816.497,590.938 816.737,591.418 817.457,592.859 817.697,593.339 818.418,594.299 819.617,595.979 820.577,596.939 
		821.777,598.14 825.857,598.14 827.297,598.62 829.938,599.34 834.018,601.5 834.737,601.98 836.177,602.46 838.338,603.181 
		839.537,604.621 841.697,608.701 842.897,610.142 843.137,610.622 843.617,611.102 845.537,612.542 845.777,612.782 
		846.737,613.742 848.417,614.462 848.657,616.382 849.137,620.703 849.137,620.943 850.098,625.264 850.337,625.504 
		851.777,626.704 856.098,635.105 857.297,636.786 860.657,641.827 861.377,642.546 865.457,647.107 865.938,649.027 
		864.737,649.988 864.018,650.468 864.018,651.428 863.777,652.628 864.978,657.429 864.737,658.869 863.537,658.869 
		863.297,658.869 859.697,661.27 859.217,664.63 859.217,664.87 859.217,665.11 859.217,665.59 860.177,668.23 859.457,669.431 
		857.777,670.151 856.098,667.99 854.177,667.99 850.817,669.671 851.057,670.871 851.297,671.831 851.537,672.071 853.697,675.191 
		854.897,676.392 858.978,680.232 860.657,681.912 861.137,682.393 862.337,682.633 863.537,682.873 864.018,682.152 
		864.257,682.152 865.457,683.113 867.137,684.793 867.617,685.033 869.297,687.193 870.737,687.914 872.417,687.673 
		874.577,685.754 877.457,685.273 878.417,685.993 882.497,689.354 883.457,690.314 883.938,690.794 884.657,692.715 
		885.137,694.155 885.137,695.595 885.137,696.074 885.377,696.795 887.777,700.876 888.257,701.596 888.736,704.717 
		889.697,710.236 887.777,715.277 887.777,715.519 886.337,717.678 886.098,719.599 886.577,721.999 887.537,723.439 
		888.497,725.119 891.137,728.239 891.617,728.72 895.938,732.801 896.417,733.521 896.897,733.761 898.577,734.961 
		898.816,734.961 900.257,736.161 900.497,736.401 901.217,736.881 906.018,738.562 910.097,740.242 913.457,741.442 
		919.457,742.402 919.938,742.643 921.137,742.882 922.576,742.882 932.417,743.362 938.417,743.843 938.896,744.082 
		941.536,745.763 941.777,746.002 942.017,746.482 942.257,747.202 944.177,749.363 944.656,749.363 945.137,749.363 
		945.377,748.883 946.576,747.443 947.536,746.482 948.496,745.522 949.697,744.082 949.937,743.843 952.097,742.402 
		952.816,741.922 953.777,741.202 959.297,738.562 960.736,738.802 960.977,738.802 962.177,738.562 965.536,737.361 
		969.137,736.161 971.776,736.401 972.977,736.401 973.217,736.401 974.656,735.921 975.856,735.44 977.297,734.721 
		978.017,734.481 978.496,734.24 980.416,733.761 981.377,733.521 984.256,732.561 984.496,732.561 984.736,732.561 
		984.977,732.561 985.696,732.081 988.336,730.64 989.297,730.4 991.456,729.2 993.137,728.239 993.377,728 993.616,727.76 
		996.017,724.88 996.256,724.64 997.217,722.479 997.217,720.559 996.977,714.077 996.496,710.478 996.256,707.117 995.776,703.756 
		996.496,702.556 997.696,700.876 996.977,699.915 995.057,699.676 992.656,697.755 992.416,696.314 992.416,694.155 
		991.217,689.834 991.217,689.354 988.336,689.114 986.416,689.834 984.017,694.155 984.017,697.515 984.256,698.715 
		984.256,700.876 984.256,701.115 984.496,703.276 984.256,703.756 983.776,703.516 983.057,702.076 982.576,697.515 
		982.336,686.953 981.856,681.673 981.377,673.991 980.896,672.311 979.937,667.271 979.937,666.79 978.736,663.189 
		977.297,661.029 974.656,658.148 971.536,655.989 966.736,653.348 966.496,653.108 965.057,653.108 961.937,653.828 
		960.496,654.548 960.257,654.789 958.816,656.229 958.576,656.469 957.856,657.909 957.137,659.59 956.896,660.549 
		956.896,661.029 957.377,662.71 958.816,664.39 958.816,664.87 957.856,664.87 956.656,664.15 954.257,661.989 952.097,657.909 
		948.977,654.548 947.777,653.828 946.816,653.828 946.576,652.868 948.017,650.468 950.416,648.788 954.257,647.827 
		957.856,647.587 963.856,648.547 965.057,649.027 972.977,651.428 979.937,655.028 984.977,658.869 986.177,660.069 
		990.017,664.63 990.256,664.87 990.256,665.11 992.656,669.191 994.816,672.552 997.937,678.792 1000.336,683.593 
		1000.816,685.033 1003.937,693.915 1006.576,702.556 1008.017,708.317 1009.217,712.157 1011.136,721.759 1011.136,721.999 
		1012.336,732.081 1012.336,732.561 1013.057,740.722 1013.297,744.563 1013.297,745.763 1013.536,754.404 1012.816,758.244 
		1012.576,760.165 1010.656,764.726 1010.176,766.165 1009.696,767.126 1009.217,767.847 1008.977,768.326 1008.736,768.565 
		1007.776,768.807 1007.536,768.807 1006.576,770.486 1005.616,772.166 1003.937,778.647 1002.736,784.648 1001.776,791.85 
		1001.776,792.09 1001.776,792.33 999.856,795.21 998.416,795.69 996.977,795.45 996.256,794.73 995.776,793.53 996.256,792.811 
		996.736,792.811 997.217,792.811 998.896,790.169 1000.336,786.089 1000.816,782.729 1001.776,777.447 1002.496,775.047 
		1002.496,774.807 1002.977,773.127 1003.217,772.406 1003.696,770.967 1004.416,768.565 1004.416,768.326 1004.416,766.886 
		1003.937,764.965 1002.736,764.006 999.616,761.365 998.656,760.885 997.217,760.165 996.017,760.165 995.776,760.165 
		992.656,761.365 990.977,761.605 987.377,762.085 985.456,762.325 980.896,762.806 980.416,762.806 974.416,764.726 
		973.697,765.206 971.776,765.686 969.856,766.406 967.937,766.406 966.257,766.406 966.017,766.406 959.297,768.086 
		958.816,768.326 953.536,770.486 950.416,771.927 948.257,772.887 946.097,775.047 946.337,775.768 945.377,777.688 
		944.177,778.168 943.697,777.688 943.217,775.768 943.456,773.606 942.977,773.127 942.257,771.687 940.816,770.967 
		938.896,770.967 935.777,771.687 932.417,772.406 930.736,771.447 930.257,771.206 930.017,771.206 929.057,770.967 
		926.417,771.447 924.497,772.406 923.536,773.606 923.536,774.327 923.536,774.567 922.576,776.728 920.656,777.928 
		916.337,779.368 916.097,779.368 915.137,779.128 914.656,779.128 914.177,779.128 913.938,779.128 909.617,779.607 
		908.656,779.607 907.217,783.448 906.497,784.409 906.018,785.369 904.337,788.01 904.337,788.489 903.856,788.969 903.617,789.21 
		903.377,789.449 902.177,791.13 901.938,791.369 900.736,792.569 899.057,793.77 898.816,793.77 898.816,794.011 897.377,794.49 
		895.938,794.73 891.377,795.45 890.177,795.45 889.457,795.45 886.098,795.69 883.697,795.69 883.457,795.69 881.297,795.931 
		880.577,796.17 879.137,796.41 877.697,796.65 877.457,796.65 876.497,796.65 876.018,796.891 873.856,797.131 872.897,797.371 
		872.177,797.61 871.938,797.61 871.457,797.61 870.497,797.851 868.337,798.57 866.657,800.011 866.417,800.251 866.177,800.251 
		865.938,800.731 865.697,801.451 864.257,803.852 863.057,804.572 862.098,805.292 860.897,805.531 859.697,805.772 
		853.697,810.093 847.697,813.213 842.897,817.773 843.137,818.734 842.177,820.174 836.177,824.255 830.417,824.494 
		826.817,825.455 823.938,828.335 822.257,830.016 820.338,830.976 815.537,831.216 812.897,831.456 807.617,832.896 
		805.697,834.097 803.537,834.576 802.817,834.097 803.058,832.896 807.617,828.575 808.577,828.815 809.537,830.256 
		810.978,830.496 812.177,830.016 816.978,828.335 822.737,823.535 828.257,821.614 833.777,820.174 836.657,816.334 
		839.297,815.613 843.617,811.532 845.297,809.132 855.617,802.172 857.297,801.211 858.497,800.491 861.377,798.331 
		861.856,798.091 862.577,797.61 862.816,797.61 863.057,797.371 863.537,796.65 864.018,795.45 863.777,793.29 864.018,791.369 
		865.217,789.93 866.417,789.21 866.417,788.729 866.657,788.01 866.657,787.769 866.417,786.329 866.417,786.089 865.457,783.448 
		864.978,782.488 864.257,780.328 864.257,779.848 864.257,778.888 865.457,776.968 866.417,775.527 866.657,775.047 
		866.897,774.807 865.938,772.647 865.697,772.406 865.457,772.406 864.257,771.206 864.497,769.766 864.497,769.526 
		865.697,768.807 866.657,768.086 866.897,768.086 867.137,766.646 866.897,765.686 865.697,761.605 865.217,760.165 
		864.737,759.444 862.098,759.205 865.457,755.844 869.537,754.404 869.777,753.684 869.777,753.443 870.018,752.003 
		869.297,750.563 868.577,750.083 865.938,749.123 865.457,748.883 864.257,749.844 863.057,749.844 860.177,748.163 
		858.257,747.443 857.777,747.443 856.337,746.963 852.497,745.763 850.577,744.802 850.337,744.322 849.137,745.043 
		848.657,745.282 848.177,747.443 848.177,747.923 849.857,750.803 850.577,755.844 850.098,758.484 848.177,757.524 
		845.297,755.364 845.057,755.124 843.377,755.604 842.897,755.844 842.657,756.084 842.657,756.324 842.657,756.564 
		842.417,757.524 841.457,760.645 841.457,760.885 841.457,763.285 842.177,764.965 842.417,766.886 840.737,770.486 
		840.018,770.486 839.057,769.526 838.577,768.326 838.577,767.847 838.098,767.847 835.938,767.365 833.297,766.646 
		831.857,766.406 831.137,766.646 830.897,766.646 830.417,767.365 830.417,769.286 832.817,770.727 833.297,771.927 
		833.777,773.127 833.537,773.847 833.297,773.847 831.617,775.047 826.338,775.287 824.657,774.087 822.978,774.567 
		822.497,775.287 822.257,775.287 822.497,776.487 822.737,778.168 823.457,783.688 823.457,783.929 822.737,785.609 
		822.018,785.369 821.537,784.169 821.297,783.688 821.057,782.488 819.617,778.168 819.617,777.928 819.617,777.688 
		819.617,776.728 819.617,775.768 819.377,775.047 818.657,774.327 817.697,773.847 816.737,773.606 815.297,773.127 
		814.098,774.087 812.177,775.527 811.938,775.527 810.257,776.728 810.737,777.207 810.978,777.688 811.697,778.407 
		811.938,778.888 812.177,779.368 812.418,780.328 813.137,783.929 812.897,784.169 810.978,783.448 810.737,782.488 
		809.777,780.088 809.537,779.848 809.297,779.607 809.058,779.128 808.338,779.128 807.857,779.128 807.617,779.128 
		806.897,779.607 806.897,779.848 806.897,782.008 807.377,783.448 807.377,783.688 807.377,783.929 807.377,784.169 
		806.657,786.568 805.217,788.249 804.498,787.289 803.777,787.289 803.537,787.289 803.058,787.769 803.058,788.01 803.297,789.21 
		803.297,789.449 803.537,789.449 805.457,791.61 806.657,798.57 804.498,798.57 797.058,801.211 796.817,801.451 796.098,804.092 
		792.018,806.492 788.657,807.452 787.697,808.173 785.297,810.093 780.498,808.173 778.338,807.932 774.978,807.212 
		767.777,810.573 767.297,803.852 766.338,794.49 766.098,792.569 765.377,784.409 765.377,783.929 764.178,781.769 
		763.938,781.528 763.698,781.288 763.457,781.048 763.457,780.328 763.218,777.928 763.457,776.487 763.457,775.768 
		764.418,774.567 764.658,770.967 764.897,766.165 764.897,765.926 764.658,765.686 764.418,765.686 762.258,765.206 
		760.577,764.726 758.897,764.246 756.018,763.765 756.018,763.525 756.018,762.806 755.058,762.564 754.338,762.325 
		752.897,761.845 752.897,762.085 752.418,761.845 752.178,761.845 751.938,761.845 750.738,759.925 749.298,757.524 
		746.418,752.724 745.938,752.003 745.698,751.764 743.537,748.402 741.617,745.522 741.138,744.563 740.178,743.362 
		739.698,742.402 738.258,740.481 733.698,737.842 733.457,737.842 731.537,736.641 730.818,736.401 726.738,734.001 
		724.577,732.801 	"/>
	
		<polyline clip-path="url(#SVGID_2_)" fill="none" stroke="#B37C34" stroke-width="1.2" stroke-linecap="round" stroke-linejoin="round" stroke-miterlimit="3.85" points="
		724.577,732.801 724.338,732.32 724.338,731.12 724.098,730.64 724.098,730.4 723.857,729.439 723.378,728.96 722.897,728.96 
		722.178,728.48 721.938,728 721.938,727.28 722.178,726.319 722.178,725.6 722.418,725.119 722.178,724.88 720.738,721.039 
		721.218,719.839 721.458,719.358 722.178,718.639 722.657,718.158 723.138,717.678 721.938,715.758 721.698,715.519 
		721.698,715.277 721.698,715.038 722.657,712.397 723.138,710.478 723.378,710.478 723.378,710.236 722.897,708.557 
		722.657,707.356 722.418,706.637 721.938,704.956 722.178,702.556 722.178,701.836 722.178,701.596 722.418,700.396 
		722.178,700.396 720.978,700.636 720.738,700.636 720.258,700.636 719.537,700.876 719.058,700.876 717.378,701.115 
		716.897,701.115 715.698,701.355 715.218,701.355 714.498,701.596 713.537,701.836 713.537,698.955 713.537,696.074 
		713.537,695.835 713.537,695.595 713.537,695.354 713.537,693.674 713.537,691.754 713.537,686.714 713.537,685.514 
		713.537,682.152 713.537,681.673 713.537,677.111 713.537,676.632 713.537,673.511 713.537,672.552 713.537,667.271 
		705.138,667.271 697.698,667.511 692.657,667.511 691.938,667.511 691.458,667.751 690.979,667.751 690.258,667.751 
		689.538,667.751 689.298,667.751 689.058,667.751 688.818,667.751 686.897,667.99 684.738,668.23 684.019,668.23 683.538,668.23 
		683.298,668.23 681.857,668.23 678.258,668.471 677.058,668.471 676.338,668.471 673.458,668.471 671.538,668.471 670.578,668.71 
		669.857,668.71 667.458,668.71 655.938,668.951 652.578,669.191 652.098,669.191 642.978,669.431 636.738,669.671 634.578,669.671 
		627.858,670.151 627.378,665.83 626.658,665.83 619.698,665.59 619.218,665.59 618.258,665.59 615.378,665.59 614.898,665.59 
		613.938,665.59 612.738,665.59 611.778,665.59 610.578,665.59 608.898,665.59 606.738,665.35 606.499,665.35 603.378,665.35 
		602.898,665.35 596.418,665.11 594.258,664.87 589.218,664.63 588.019,664.63 587.298,664.63 584.418,664.63 581.298,664.63 
		579.378,664.63 573.619,664.39 572.659,664.39 566.179,664.15 565.699,663.91 558.738,663.67 557.298,663.67 555.619,663.43 
		545.779,663.189 544.818,663.189 544.579,663.189 537.139,662.949 535.458,662.949 531.139,662.949 527.299,662.949 
		524.659,662.949 521.539,662.71 520.579,662.71 517.459,662.71 511.219,662.47 504.979,662.229 502.819,662.229 496.099,661.989 
		494.179,661.989 492.739,661.989 492.499,661.989 492.259,661.989 491.779,661.989 490.339,661.989 488.179,661.75 482.179,661.75 
		481.459,661.75 479.539,661.75 479.299,661.75 478.819,661.75 478.099,661.75 477.619,661.75 477.379,661.75 473.059,662.229 
		471.379,662.47 468.979,662.71 468.499,662.949 467.059,664.15 465.619,664.15 465.379,664.15 462.019,664.15 461.779,662.47 
		459.859,662.229 454.579,661.989 448.579,661.27 445.699,660.79 444.499,660.549 443.779,660.549 443.539,660.549 443.299,660.549 
		443.059,660.549 440.419,660.549 439.939,660.549 438.979,660.549 432.499,660.549 431.539,660.549 431.059,661.27 432.019,661.75 
		432.259,662.229 431.779,663.43 431.059,664.63 431.059,664.87 430.339,664.39 430.099,664.63 430.099,665.11 430.099,665.35 
		430.339,665.59 430.579,665.83 430.339,666.551 429.859,667.03 429.859,667.751 429.139,668.471 429.139,669.671 428.419,669.671 
		427.459,669.91 425.539,670.151 423.379,670.391 418.819,670.871 419.539,660.31 415.219,660.069 414.979,660.069 412.819,660.069 
		409.459,659.829 396.979,659.59 390.739,659.35 385.7,659.109 384.5,659.109 381.379,659.109 379.7,658.869 370.579,658.629 
		355.22,657.669 346.1,657.189 334.34,656.469 334.1,656.469 333.62,656.469 333.379,656.469 321.379,655.509 321.14,655.509 
		320.66,655.509 314.66,655.269 314.18,655.269 311.54,655.028 304.82,654.789 294.02,654.068 293.54,654.068 292.58,654.068 
		291.86,654.068 281.54,654.068 279.62,653.828 278.42,648.308 277.46,643.747 279.86,635.585 280.34,634.385 282.98,625.024 
		284.66,619.743 288.26,607.981 291.86,595.259 294.5,586.378 298.34,573.656 298.82,572.216 299.06,571.255 301.22,563.814 
		303.38,556.373 305.06,551.092 305.3,549.892 311.78,527.809 314.18,519.888 320.66,498.524 321.859,494.204 327.62,474.761 
		329.06,470.2 329.3,469.479 330.979,463.239 	"/>
	
		<polyline clip-path="url(#SVGID_2_)" fill="none" stroke="#B37C34" stroke-width="1.2" stroke-linecap="round" stroke-linejoin="round" stroke-miterlimit="3.85" points="
		864.257,820.654 865.217,819.935 868.577,818.014 874.816,813.934 875.777,814.173 876.257,816.813 878.417,817.294 
		880.816,817.773 882.257,817.054 882.257,816.813 882.257,817.054 883.217,817.534 884.177,819.935 884.897,821.135 
		885.137,821.854 885.137,822.094 885.377,824.494 884.897,828.095 885.377,830.016 886.337,831.936 886.577,832.176 
		888.497,833.856 890.417,835.057 892.816,835.297 894.978,836.257 894.978,836.497 895.938,838.657 896.177,839.377 
		896.177,840.338 896.656,840.577 896.897,840.577 898.097,840.817 898.337,840.817 898.577,840.817 899.777,840.098 
		900.497,838.897 902.177,836.497 901.938,834.097 901.938,833.856 901.938,833.616 902.417,832.656 903.856,830.976 
		906.736,830.496 907.697,837.217 906.978,841.538 907.217,848.979 906.736,850.419 902.897,850.659 897.377,851.14 
		894.257,850.898 892.577,850.659 890.657,850.659 889.697,850.659 888.736,850.419 884.897,850.419 879.137,850.659 
		876.018,850.659 875.057,850.659 874.577,850.659 865.217,851.619 853.217,852.819 852.978,852.819 852.978,853.06 848.657,854.26 
		848.177,854.499 847.938,854.499 845.297,856.18 843.137,858.101 841.938,859.301 840.978,861.221 841.457,861.94 840.978,863.381 
		839.537,864.102 837.617,862.901 836.897,862.421 834.497,860.98 834.018,860.74 834.018,860.501 830.417,857.14 827.537,853.299 
		826.338,851.619 827.297,849.939 829.217,849.698 831.857,849.219 834.257,849.698 835.457,850.179 837.617,851.379 
		837.857,851.379 838.098,851.379 839.537,850.898 840.737,849.698 840.978,849.698 848.897,837.457 849.857,837.217 
		852.497,834.336 852.497,832.656 854.657,828.335 857.537,825.455 864.257,820.654 	"/>
	
		<polyline clip-path="url(#SVGID_2_)" fill="none" stroke="#B37C34" stroke-width="1.2" stroke-linecap="round" stroke-linejoin="round" stroke-miterlimit="3.85" points="
		975.137,864.341 980.896,863.381 981.377,863.381 983.536,862.901 987.617,860.261 989.297,858.34 990.977,856.66 993.856,851.619 
		994.336,846.098 993.856,843.938 992.896,842.738 992.176,841.538 990.736,839.617 989.776,838.417 990.017,837.217 
		993.137,838.897 996.256,843.457 1005.616,861.94 1008.977,868.182 1008.977,872.022 1008.256,874.663 1007.776,875.383 
		1005.856,876.823 1003.937,877.543 1000.576,878.983 997.696,879.464 993.137,878.743 989.776,878.264 984.496,878.022 
		983.536,878.022 980.656,878.983 976.576,878.743 976.097,878.743 966.736,875.623 965.297,875.143 958.576,871.542 
		951.377,867.941 950.177,867.461 947.297,866.502 945.137,864.82 943.697,862.901 943.217,860.501 946.337,860.501 
		948.736,861.701 949.697,862.421 950.656,864.341 951.856,865.061 952.816,865.781 957.137,865.781 959.776,864.581 
		974.656,864.581 975.137,864.341 	"/>
	
		<polyline clip-path="url(#SVGID_2_)" fill="none" stroke="#B37C34" stroke-width="1.2" stroke-linecap="round" stroke-linejoin="round" stroke-miterlimit="3.85" points="
		827.297,780.328 828.978,782.488 829.457,785.369 829.457,786.329 829.217,786.568 829.217,786.81 829.217,786.568 
		827.777,786.089 827.537,786.089 827.537,785.849 826.098,783.209 825.857,782.969 827.057,780.568 827.057,780.088 
		827.297,780.328 	"/>
</g>
</svg>
