<?xml version="1.0" encoding="utf-8"?>
<!-- Generator: Adobe Illustrator 15.1.0, SVG Export Plug-In . SVG Version: 6.00 Build 0)  -->
<!DOCTYPE svg PUBLIC "-//W3C//DTD SVG 1.1//EN" "http://www.w3.org/Graphics/SVG/1.1/DTD/svg11.dtd">
<svg version="1.1" id="State" xmlns="http://www.w3.org/2000/svg" xmlns:xlink="http://www.w3.org/1999/xlink" x="0px" y="0px"
	 width="1296px" height="1296px" viewBox="0 0 1296 1296" enable-background="new 0 0 1296 1296" xml:space="preserve">
<g>
	<defs>
		<rect id="SVGID_1_" x="349.219" y="266.421" width="598.45" height="770.958"/>
	</defs>
	<clipPath id="SVGID_2_">
		<use xlink:href="#SVGID_1_"  overflow="visible"/>
	</clipPath>
	
		<polyline clip-path="url(#SVGID_2_)" fill="none" stroke="#B37C34" stroke-width="0.4799" stroke-linecap="round" stroke-linejoin="round" stroke-miterlimit="3.85" points="
		633.567,793.995 633.327,792.795 633.087,792.074 633.087,791.595 632.367,789.675 632.367,789.435 630.927,786.314 
		630.687,785.594 630.208,784.874 629.487,783.193 629.007,781.754 628.768,781.514 628.768,781.273 628.288,778.873 
		628.048,777.434 628.048,777.193 628.048,776.473 628.048,776.233 628.048,775.993 628.288,775.993 628.288,775.033 
		628.288,774.793 628.288,774.553 629.007,772.873 630.447,770.713 632.847,768.072 633.327,767.112 634.287,765.912 
		634.287,765.673 635.486,763.512 635.486,763.271 635.726,763.271 635.726,763.031 635.726,762.792 636.206,761.592 
		636.206,761.352 636.686,758.952 636.686,758.711 636.686,758.472 636.926,756.312 636.686,754.631 635.966,751.271 
		635.966,751.031 635.966,750.07 635.726,748.15 635.247,745.99 635.247,745.27 635.247,744.79 635.006,744.069 634.767,742.87 
		634.767,742.63 634.287,741.43 633.327,739.75 632.367,737.83 632.127,737.59 632.127,737.35 631.647,736.629 631.647,736.39 
		631.407,736.149 631.167,734.709 631.167,733.749 631.647,732.789 632.367,732.068 633.087,731.349 634.287,730.629 
		636.206,728.948 636.446,728.948 636.446,728.709 637.646,727.508 638.366,726.548 638.366,726.309 639.806,723.908 
		641.005,721.508 641.485,720.548 641.725,720.308 642.925,718.627 643.645,716.468 643.885,715.747 644.365,714.307 
		645.564,713.106 645.564,712.867 646.524,710.947 647.004,709.747 647.724,708.547 650.123,704.706 650.364,703.506 
		650.364,703.266 651.563,698.945 651.803,697.025 651.803,696.306 651.803,695.825 651.803,695.585 651.803,695.346 
		651.563,693.905 651.563,693.425 651.563,692.705 651.563,692.465 651.803,692.225 651.803,691.985 651.803,690.544 
		652.283,690.064 652.764,688.864 652.764,688.625 653.243,686.944 653.963,683.823 654.203,681.904 653.963,679.504 
		653.963,679.264 653.963,679.023 653.723,678.544 653.482,678.063 653.482,677.583 653.243,677.344 652.764,675.423 
		652.283,674.463 652.044,673.982 652.044,673.503 651.803,672.543 651.563,672.063 651.563,671.823 651.803,670.623 
		651.803,669.662 652.044,669.183 652.044,668.942 652.523,668.463 653.723,667.742 653.723,667.502 656.123,666.782 
		658.042,666.302 659.002,665.582 659.242,665.582 661.881,665.582 662.841,665.342 664.281,664.382 664.281,664.143 
		664.521,663.422 665.001,662.462 665.481,661.502 665.481,660.541 665.721,657.901 665.961,656.222 666.201,655.981 
		666.201,655.741 666.201,654.781 665.721,651.66 665.721,649.501 665.961,648.541 666.201,647.34 666.92,646.86 668.36,646.38 
		668.84,647.34 669.561,647.82 670.279,648.06 671.72,648.06 672.439,647.58 673.16,646.62 673.64,645.18 673.879,644.46 
		674.599,643.98 675.318,642.78 675.318,642.54 675.799,641.58 675.799,641.339 676.278,641.1 677.239,641.1 678.678,641.82 
		679.158,642.3 679.878,643.74 680.357,644.22 680.598,644.22 681.798,644.46 682.998,644.22 684.677,643.74 684.918,643.5 
		685.157,643.26 685.397,643.02 687.316,640.379 687.316,639.899 687.557,637.979 688.036,636.539 688.757,635.819 689.956,632.938 
		690.196,632.458 692.356,631.499 693.556,630.298 693.796,629.818 694.035,629.578 694.756,628.618 694.996,627.418 
		695.235,626.218 696.676,623.338 698.355,620.938 699.314,619.257 699.794,619.257 699.794,619.737 700.274,619.978 
		701.234,619.978 701.715,619.737 703.394,618.537 703.634,617.817 704.354,616.857 705.073,616.857 706.033,619.017 
		705.794,620.217 705.313,620.697 704.114,621.178 703.394,622.138 703.394,622.377 703.394,622.618 703.153,622.618 
		702.914,622.618 702.914,622.377 702.674,622.377 701.474,622.618 700.754,623.098 700.515,623.578 699.794,624.538 
		699.555,625.258 700.035,626.698 700.515,627.898 701.715,631.019 702.434,631.259 702.914,632.219 702.914,633.899 
		702.674,634.139 702.434,633.899 700.754,634.139 700.515,635.819 700.515,636.059 700.274,636.299 700.274,636.539 
		700.035,636.779 699.794,637.019 698.835,637.979 699.555,638.699 700.035,639.419 700.035,639.179 700.274,641.1 700.274,643.26 
		700.274,645.9 700.035,645.9 698.835,646.14 698.355,646.38 697.395,649.501 696.915,650.221 696.915,650.46 696.676,651.181 
		696.436,652.381 696.436,653.581 696.436,653.82 696.436,655.501 696.915,656.941 696.915,657.182 697.155,657.661 
		697.395,659.342 697.395,659.821 697.155,660.781 697.155,661.021 697.155,661.262 697.155,661.502 697.395,661.742 
		697.635,661.981 697.875,662.222 698.114,662.222 698.595,662.462 699.074,662.462 699.314,662.462 699.555,662.462 
		699.794,662.462 700.035,662.462 700.274,662.462 700.515,662.222 700.515,661.981 700.515,661.502 700.754,661.021 
		700.754,660.541 701.474,658.141 701.474,657.901 702.194,656.701 703.153,654.301 704.114,652.381 704.594,651.9 705.073,651.42 
		705.313,650.701 705.313,649.98 705.313,649.74 703.634,649.501 703.153,649.98 702.914,649.261 703.634,648.3 703.874,647.82 
		704.594,646.86 705.073,646.14 705.554,644.94 706.273,642.54 706.273,642.3 706.033,641.82 706.273,641.1 708.193,639.419 
		709.633,639.419 709.873,640.379 710.113,642.06 710.113,642.54 710.113,642.78 709.633,642.78 708.673,643.26 708.434,644.94 
		708.193,645.9 708.193,647.82 708.434,648.541 707.713,652.381 707.473,653.341 706.993,654.061 706.033,654.301 705.554,654.781 
		705.073,655.021 705.073,655.261 704.594,655.501 703.394,656.941 703.394,657.182 703.153,657.901 702.914,659.342 
		702.914,660.062 702.434,661.502 702.194,661.981 701.954,662.702 701.715,662.941 701.954,663.182 702.194,663.422 
		702.194,663.662 703.153,664.143 703.394,664.143 704.594,664.382 704.834,664.382 705.073,664.382 705.313,664.382 
		705.313,664.143 705.554,664.143 706.753,662.702 706.753,662.462 706.993,662.222 706.993,661.981 707.233,661.742 
		706.993,661.742 706.993,661.021 706.993,660.541 706.753,660.302 707.473,658.621 707.953,658.381 708.913,657.901 
		709.393,657.422 710.113,656.461 710.353,655.501 711.072,654.301 711.793,652.86 712.032,652.621 712.992,650.701 
		712.992,650.221 712.992,649.98 713.231,649.261 713.473,649.021 713.712,648.78 713.952,648.3 714.432,647.58 715.152,645.66 
		715.392,644.7 715.632,643.98 716.352,639.659 716.591,638.699 716.352,636.779 716.352,636.539 716.591,633.899 716.591,633.659 
		716.831,632.938 717.552,631.499 717.552,629.818 717.552,626.458 717.312,625.978 717.071,625.498 717.071,625.258 
		716.831,623.818 716.591,619.978 716.111,619.017 716.111,617.337 716.111,614.457 717.552,610.856 718.511,609.656 
		719.951,608.456 720.19,608.456 720.91,607.496 721.391,607.016 722.11,606.536 723.07,606.056 723.551,606.296 724.511,606.296 
		724.75,606.056 724.989,606.056 725.47,605.816 725.949,605.336 725.949,605.096 726.189,604.616 727.39,603.896 728.59,602.696 
		729.309,601.976 730.269,601.735 731.229,601.735 732.188,601.255 734.108,600.775 737.468,601.016 740.587,601.496 
		741.307,601.735 742.027,601.735 742.746,601.255 744.427,600.775 744.666,600.775 745.626,600.536 746.346,600.536 
		747.306,600.295 747.546,600.295 748.745,599.575 750.426,598.615 750.665,598.615 750.665,598.375 750.905,597.655 
		750.905,597.415 750.905,597.175 750.905,596.695 750.665,596.695 750.665,596.455 750.665,595.975 750.186,595.495 
		746.586,594.775 745.866,594.775 745.146,595.015 745.146,595.255 745.626,595.735 746.106,595.735 744.906,595.495 
		744.906,595.255 743.467,594.775 742.027,594.055 741.547,594.055 741.307,593.575 740.587,592.615 739.627,591.654 
		739.387,591.654 738.188,589.734 738.188,589.494 737.707,588.054 736.988,586.374 736.748,585.174 736.748,584.934 
		736.269,583.254 736.269,582.293 736.027,580.374 736.027,579.653 736.508,578.693 737.948,577.013 738.907,575.333 
		739.147,574.853 739.147,574.613 739.387,574.133 740.348,573.173 741.547,572.692 743.467,571.973 743.706,571.973 
		743.706,571.732 744.187,571.493 744.666,571.012 744.906,570.052 746.346,568.852 746.586,568.612 746.826,568.372 
		748.745,565.972 748.745,565.732 748.985,564.772 748.985,564.052 748.266,563.092 747.785,562.852 747.065,562.372 
		746.106,561.651 745.626,561.412 745.146,561.412 744.666,561.412 743.946,560.932 743.706,560.691 744.187,560.451 
		745.146,560.691 749.226,560.691 750.186,561.171 751.145,561.892 754.265,561.651 754.744,561.651 754.984,561.892 
		755.225,562.131 756.184,562.372 758.584,562.372 759.304,562.131 759.783,561.651 760.023,561.651 760.503,560.691 
		760.743,559.971 760.503,559.731 760.023,559.251 759.783,559.011 759.783,558.771 760.503,558.051 760.743,558.051 
		760.983,557.811 761.223,557.811 762.663,558.531 763.383,558.291 763.863,558.051 764.103,558.051 764.582,558.051 
		764.582,558.531 765.063,559.011 765.303,560.211 767.702,561.171 767.702,561.651 767.941,561.892 769.382,562.611 
		770.342,562.852 772.261,564.292 772.981,564.532 773.221,564.772 773.461,565.012 773.701,565.012 775.381,565.972 
		776.82,566.932 776.82,567.172 777.301,567.652 778.02,568.132 778.5,568.612 779.46,569.092 780.42,569.813 780.9,570.052 
		781.859,570.772 782.1,571.012 783.059,571.732 783.299,571.732 783.299,571.973 783.539,571.973 784.26,571.732 784.979,571.732 
		785.459,570.772 785.939,570.292 786.898,570.292 787.858,570.772 788.099,571.012 788.338,571.012 788.578,571.252 
		789.298,571.493 789.538,571.732 791.698,571.012 793.138,570.772 794.817,571.493 795.777,571.973 796.018,571.973 
		796.497,572.212 797.217,572.692 800.336,573.413 801.296,573.893 802.016,574.613 802.735,575.093 803.695,576.773 
		803.936,577.013 804.896,578.213 805.375,578.933 806.814,580.133 807.055,580.374 807.535,581.333 807.775,581.813 
		807.775,583.014 807.535,583.254 807.775,583.494 808.015,585.174 808.494,586.134 808.494,586.374 808.975,586.854 
		808.975,587.094 809.215,587.334 809.935,587.814 811.135,588.534 811.374,588.534 811.614,588.534 812.573,588.774 
		812.814,588.774 814.014,588.294 814.253,588.054 814.733,587.814 814.974,587.814 815.453,588.054 816.173,588.054 
		816.894,588.534 818.093,588.294 818.333,588.294 819.293,588.294 819.772,588.294 821.213,588.294 821.932,588.534 
		822.893,588.774 823.372,589.014 825.291,590.935 827.211,593.095 827.69,593.575 827.932,593.815 828.171,594.055 
		828.411,594.055 828.411,594.295 828.891,594.535 829.61,595.015 829.851,595.015 830.331,595.495 830.811,595.735 832.25,595.975 
		833.21,595.975 834.17,596.455 834.65,596.695 835.369,596.695 835.85,596.695 836.09,596.695 837.049,596.455 838.489,597.655 
		838.729,598.135 838.969,598.135 839.689,598.615 840.169,598.855 840.889,599.335 842.328,600.295 842.568,600.536 
		842.809,600.536 843.048,600.775 844.008,601.255 845.928,602.456 846.168,602.696 847.848,602.936 848.088,603.176 
		849.048,602.936 849.527,602.696 849.768,602.456 849.768,602.216 849.768,601.976 850.007,601.976 850.247,601.976 
		851.687,602.936 852.166,603.176 853.366,601.976 853.846,602.216 854.326,602.936 854.807,603.656 855.525,604.616 
		856.726,606.296 857.205,606.776 858.165,607.496 858.646,608.216 858.886,608.696 858.886,608.937 860.325,609.896 
		860.564,609.896 861.285,610.136 861.525,610.376 861.765,610.856 861.285,612.296 860.564,612.777 859.605,613.257 
		859.605,613.977 860.085,614.937 860.085,615.177 860.805,616.137 861.045,616.617 861.285,616.857 861.525,617.337 
		861.525,617.577 861.765,617.577 862.005,617.817 862.965,619.978 862.965,620.938 863.205,621.417 863.444,621.897 
		864.404,621.897 864.404,622.138 864.404,622.377 865.124,623.338 866.804,624.058 866.564,624.298 866.564,625.258 
		867.283,628.378 868.004,629.338 868.724,631.499 868.724,631.979 869.443,633.899 869.684,633.899 870.163,634.619 
		870.643,635.819 870.163,636.059 868.963,635.819 868.004,635.099 865.124,634.379 863.924,633.419 863.205,632.219 
		862.484,631.979 861.285,631.499 861.045,631.499 860.805,631.499 859.846,631.979 859.365,631.979 858.886,632.458 
		858.646,632.699 858.405,632.699 858.165,632.699 857.686,633.419 857.445,634.139 857.205,634.379 856.966,635.099 
		856.726,635.339 856.966,635.819 857.445,637.019 858.165,637.499 858.646,637.739 858.405,638.219 858.165,638.699 
		857.926,638.699 857.205,639.659 857.205,640.379 857.445,641.58 857.445,642.3 857.686,642.78 857.686,643.5 857.926,644.22 
		858.165,644.7 858.405,645.66 858.646,645.66 859.125,646.14 859.365,646.38 859.605,646.38 860.564,646.86 861.045,648.3 
		861.285,648.541 864.404,650.221 866.804,650.94 866.804,653.101 866.804,653.581 867.283,654.781 867.764,655.501 
		868.244,655.981 868.244,656.701 868.483,657.422 868.724,659.821 868.724,661.262 868.724,661.742 868.724,663.422 
		868.483,663.662 868.483,663.902 868.724,664.622 869.203,666.302 869.203,666.542 869.684,667.021 869.684,667.262 
		870.163,667.742 870.403,667.982 870.403,668.702 870.163,669.902 870.163,670.383 870.163,670.863 869.684,673.022 
		869.443,673.743 869.443,674.223 869.203,674.223 868.963,674.943 868.004,676.623 867.523,678.544 867.523,678.783 
		867.523,679.264 867.523,679.744 867.523,680.224 867.523,680.464 867.523,680.943 867.764,683.344 868.004,684.784 
		868.004,685.023 868.004,685.744 868.004,686.225 867.523,688.385 867.523,688.625 867.523,689.824 867.523,691.265 
		867.523,691.505 867.523,691.744 866.804,695.585 866.804,697.265 867.044,697.506 867.044,698.465 867.044,698.706 
		867.283,699.186 867.283,699.426 867.283,699.665 866.804,701.346 866.564,703.026 866.324,704.466 866.564,705.906 
		866.564,706.386 866.564,706.626 866.324,707.106 865.844,707.347 865.124,707.106 864.165,707.106 863.685,707.586 
		863.444,707.826 861.525,710.467 861.045,710.947 860.564,711.187 860.325,711.906 860.085,712.627 859.846,713.347 
		859.605,713.587 858.646,714.066 858.405,713.347 858.165,713.347 857.205,712.867 856.966,712.867 855.766,712.627 
		855.286,712.867 854.326,713.106 854.086,713.106 853.606,713.347 852.406,714.547 851.687,715.747 851.687,715.987 
		851.447,715.987 851.447,716.228 850.728,718.147 850.486,719.827 850.486,721.268 849.768,723.668 849.527,724.628 
		849.527,725.107 849.527,725.588 849.527,726.788 849.287,728.469 849.527,729.188 849.287,729.669 849.048,731.109 
		848.088,732.549 848.088,732.789 847.848,733.509 847.848,734.469 848.327,735.669 847.127,735.909 845.688,735.669 
		843.528,736.149 842.328,737.109 841.369,737.83 841.129,738.549 840.889,738.549 840.889,738.79 840.648,739.27 840.648,739.51 
		841.369,742.15 840.169,742.39 839.209,742.39 836.569,742.39 836.33,742.87 835.85,742.87 835.369,743.11 835.13,743.11 
		833.93,743.11 833.21,743.11 831.771,743.11 831.051,742.87 830.331,742.87 828.891,743.59 828.411,744.069 828.171,744.551 
		827.932,744.79 827.211,745.75 826.731,745.99 826.011,747.19 825.771,748.391 825.771,749.591 824.572,750.07 824.092,751.031 
		823.853,751.99 823.611,756.552 823.611,757.271 823.372,759.672 823.372,761.111 823.132,763.512 822.893,764.473 
		822.893,764.712 822.652,765.192 821.932,765.912 821.692,766.393 820.973,766.393 820.973,766.873 820.973,767.353 
		821.452,768.553 822.173,770.952 822.893,772.394 824.331,775.273 825.291,776.233 826.491,776.953 826.971,777.193 
		828.65,778.153 828.891,778.153 831.53,778.394 832.011,778.634 834.17,779.594 834.89,779.834 834.89,779.114 835.61,779.594 
		836.09,779.834 836.33,779.834 836.569,780.073 838.249,780.794 839.929,782.954 840.169,782.954 842.328,783.674 842.568,783.674 
		843.528,782.714 846.168,779.594 847.848,777.434 848.088,777.193 848.567,776.233 849.527,775.273 850.247,774.073 
		850.247,773.833 850.967,773.833 851.207,772.873 851.207,772.394 851.207,772.152 851.447,771.913 851.927,771.433 
		853.127,770.473 853.846,770.473 853.846,770.713 854.326,771.193 856.485,770.713 857.205,769.752 857.445,769.272 
		857.445,768.793 857.686,768.553 857.926,768.072 858.886,766.632 859.365,765.912 859.365,765.432 859.125,764.952 
		858.886,764.952 859.365,763.271 860.325,762.072 861.045,761.832 861.525,761.352 861.525,761.111 861.285,760.152 
		861.525,759.432 861.765,758.711 862.005,758.472 862.965,757.991 862.965,757.752 862.965,757.271 865.364,756.071 
		867.283,753.671 867.283,752.951 867.283,752.711 867.283,752.471 867.283,752.231 867.044,751.751 866.804,751.511 
		866.564,751.031 866.084,751.031 865.844,750.551 866.084,750.311 866.564,750.07 866.804,750.07 868.244,749.831 868.963,749.351 
		869.203,749.351 869.443,749.11 870.163,748.391 870.883,747.67 871.604,745.99 871.844,745.75 872.323,744.551 872.323,744.069 
		873.283,743.59 873.763,743.59 874.003,743.35 874.723,743.11 874.963,743.11 876.162,743.11 876.402,743.11 877.122,742.87 
		877.362,742.87 878.322,743.11 880.242,742.39 880.722,742.39 880.961,742.15 881.441,741.91 881.682,741.91 881.922,741.67 
		882.401,741.43 882.641,741.189 882.641,740.949 883.602,740.71 883.841,740.71 885.761,740.949 886,740.949 886.721,740.71 
		886.96,740.47 887.44,740.47 888.16,739.51 888.64,738.549 888.64,738.31 888.88,737.83 889.12,737.59 889.359,736.869 
		889.84,736.39 890.56,736.39 890.8,736.149 891.52,736.149 891.76,736.149 892.239,735.909 892.719,735.43 892.959,735.189 	"/>
	
		<polyline clip-path="url(#SVGID_2_)" fill="none" stroke="#B37C34" stroke-width="0.4799" stroke-linecap="round" stroke-linejoin="round" stroke-miterlimit="3.85" points="
		892.959,735.189 893.919,734.229 894.639,734.229 894.879,734.469 895.599,734.469 896.559,733.989 896.559,733.749 
		896.798,733.749 897.758,733.509 898.479,734.229 898.719,734.469 899.678,735.669 900.878,736.149 902.558,736.629 
		903.997,736.869 904.237,737.109 904.957,737.35 905.197,737.59 905.438,737.59 906.877,738.31 907.356,739.27 907.836,739.75 
		908.316,739.75 908.797,739.989 909.036,739.989 910.477,740.949 910.956,741.43 911.195,741.67 911.915,743.35 912.156,743.83 
		912.396,744.069 913.115,745.75 913.355,745.99 913.835,746.95 914.075,747.431 914.075,747.67 914.555,748.871 915.275,751.271 
		915.515,751.511 915.755,752.471 917.194,753.671 917.435,754.151 917.915,754.631 918.154,754.871 918.395,755.352 
		918.395,755.592 918.395,755.831 918.635,756.312 918.395,756.312 918.154,756.552 918.395,757.031 918.635,757.271 
		918.875,757.511 919.114,757.752 919.354,757.752 919.354,758.472 919.594,760.152 920.074,761.832 920.074,762.552 
		920.314,763.271 920.555,764.231 920.555,765.432 920.555,766.393 921.034,767.112 921.273,769.513 921.273,770.473 
		921.514,772.152 921.754,773.353 921.754,773.833 921.754,774.313 921.754,774.553 921.754,775.754 921.754,775.993 
		921.754,776.233 921.994,777.673 921.994,778.153 922.234,780.794 922.234,781.033 922.234,781.273 922.474,782.475 
		922.714,783.435 922.953,784.874 922.953,785.114 923.434,787.274 924.633,790.155 925.113,791.355 925.113,792.074 
		925.354,793.275 925.833,794.476 926.073,795.436 926.553,796.396 927.033,798.076 927.272,798.795 927.272,799.275 
		927.033,799.756 927.272,800.235 927.272,801.436 927.272,801.676 927.272,802.636 927.513,805.276 927.513,807.196 
		927.753,807.677 927.992,808.637 928.232,810.557 928.232,811.036 927.992,811.518 927.992,812.717 928.232,814.157 
		928.232,814.637 928.473,816.077 928.473,816.317 928.473,816.558 928.473,817.038 928.952,819.918 929.192,820.878 
		929.192,821.118 929.192,821.357 929.433,821.598 929.912,822.798 930.393,825.678 930.632,825.678 930.632,826.398 
		931.112,827.839 931.353,828.078 931.353,828.318 931.353,829.279 931.592,829.998 931.592,830.719 931.832,832.398 
		933.031,833.84 933.272,834.319 933.992,836 934.231,836.719 935.432,838.88 935.672,839.36 936.151,840.319 936.391,841.04 
		936.631,841.28 936.871,842 937.352,842.24 937.352,842.48 936.871,842.72 936.871,842.96 936.871,843.2 936.871,843.439 
		936.871,843.681 936.871,843.92 937.111,844.16 937.111,844.4 937.352,844.64 937.831,845.12 937.591,845.84 937.591,846.081 
		937.591,846.32 937.352,846.32 936.631,847.761 935.911,848.48 935.672,848.961 935.191,849.201 935.191,849.44 934.711,850.401 
		934.231,852.321 933.992,853.041 933.752,853.761 933.752,854.001 933.752,854.481 933.752,854.961 933.752,855.201 
		933.752,855.441 933.992,857.361 933.752,858.081 933.752,859.281 933.512,859.762 933.272,860.722 933.272,860.962 
		933.031,861.442 933.031,862.643 933.031,862.882 933.031,863.362 933.272,863.843 933.752,865.043 934.231,866.723 
		934.231,867.442 933.992,868.162 933.031,870.323 933.031,870.803 933.031,871.283 933.031,872.003 933.031,872.243 
		932.792,872.482 932.313,873.684 932.072,874.163 931.112,877.523 931.112,878.724 931.353,880.164 931.112,880.644 
		930.872,881.844 930.872,882.084 930.632,882.564 930.632,882.805 930.393,883.284 928.473,884.965 928.232,885.205 
		927.992,885.924 926.793,886.885 926.313,887.604 926.073,887.845 925.833,889.045 925.354,889.285 924.153,889.525 
		923.674,889.285 923.434,889.045 922.714,888.805 921.994,888.805 921.514,889.045 921.273,889.045 920.794,889.525 
		920.074,890.245 919.834,890.245 919.834,890.485 919.594,890.965 918.635,892.405 918.154,892.886 918.154,891.686 
		918.635,890.965 919.354,890.725 919.834,890.005 919.114,889.285 918.395,888.805 918.395,886.885 917.915,885.685 
		916.955,885.924 915.995,885.444 915.995,884.724 916.715,883.765 918.154,883.524 918.154,882.564 917.675,881.844 
		917.675,881.604 919.114,880.644 920.314,880.884 920.555,880.884 920.794,881.124 921.034,881.124 921.994,880.164 
		921.994,879.924 922.474,879.443 922.474,878.964 922.714,878.484 922.714,878.244 922.474,877.523 922.234,877.044 
		921.994,876.804 921.754,876.563 921.273,876.563 920.074,876.323 919.834,876.323 919.594,876.084 918.635,875.363 
		917.915,875.123 916.715,875.123 916.234,875.844 914.795,875.844 914.075,876.323 913.596,876.804 912.636,877.284 
		912.396,877.764 912.156,878.003 911.915,878.724 911.676,878.964 910.716,879.203 910.235,878.964 909.756,878.964 
		909.516,878.964 908.557,879.924 908.316,880.404 908.076,880.404 908.076,880.644 907.836,881.364 907.836,881.604 
		907.836,881.844 907.836,882.805 908.557,883.524 909.036,883.765 910.235,884.244 910.235,884.724 910.235,885.205 
		910.235,886.404 910.716,887.364 910.716,888.085 910.477,888.324 910.235,887.845 909.516,887.604 908.557,887.604 
		908.316,887.604 908.076,887.604 907.836,887.604 906.877,887.845 906.637,888.085 906.396,888.085 906.396,888.324 
		905.917,888.564 905.917,888.805 905.677,888.805 905.677,889.285 905.438,890.005 904.957,890.725 904.717,890.965 
		904.237,891.686 903.997,891.926 903.997,892.165 903.997,892.405 903.757,892.645 903.757,892.886 903.518,893.845 
		903.277,894.325 903.277,894.806 903.277,895.045 903.277,895.285 903.277,896.006 903.277,896.246 903.277,896.485 
		903.277,896.966 903.277,897.206 903.277,897.445 903.277,897.686 903.277,897.926 903.277,898.165 903.518,898.646 
		903.997,899.365 904.237,900.086 903.997,901.286 903.277,903.686 903.037,904.406 903.037,904.646 903.037,905.366 
		902.558,906.327 902.317,906.807 902.077,906.807 901.598,907.047 901.117,907.527 900.878,907.527 900.638,908.007 
		900.397,908.486 900.397,908.727 899.918,909.447 900.397,910.167 899.678,910.406 899.198,910.647 898.958,910.647 
		898.719,910.647 898.479,910.887 898.238,911.127 897.758,911.606 895.839,912.327 895.359,912.327 893.919,912.567 
		893.199,912.567 892.719,912.807 891.52,913.287 890.8,913.527 889.84,914.007 888.88,914.487 888.88,914.728 888.64,914.968 
		887.68,916.168 887.2,916.888 887.2,917.127 886.24,919.769 886,920.248 885.521,921.448 885.04,922.168 885.04,922.648 
		884.801,925.289 884.801,925.769 884.561,928.648 884.561,928.889 885.04,931.289 885.521,932.729 885.521,933.449 
		885.761,933.689 884.801,937.53 882.881,938.01 882.161,939.21 881.922,939.21 880.722,939.931 880.481,940.41 880.722,940.41 
		880.961,941.37 880.722,943.051 880.722,943.53 880.961,943.771 881.201,944.73 880.722,945.931 880.481,946.17 879.042,946.17 
		879.042,947.131 878.563,948.091 878.082,947.851 877.603,948.091 876.402,949.291 876.162,949.771 875.683,950.491 
		875.442,950.972 875.442,951.932 875.202,952.411 874.482,953.131 874.003,952.891 873.283,952.651 872.803,952.651 
		872.563,952.651 872.083,952.651 871.844,952.891 871.604,953.131 871.363,953.131 871.363,953.371 871.123,953.611 
		870.883,953.611 870.403,954.571 870.163,954.571 870.163,954.812 869.684,956.252 869.684,956.492 869.684,957.692 
		869.684,957.932 869.443,958.172 869.203,959.132 869.203,959.372 868.724,959.611 868.483,959.853 868.004,960.332 
		867.764,960.572 867.283,960.812 867.044,960.572 866.804,959.853 866.324,960.092 866.084,960.092 866.084,960.332 
		865.364,961.292 865.124,961.772 865.124,962.012 864.885,962.012 863.924,964.413 863.444,964.893 862.965,965.373 
		862.244,965.613 862.005,965.613 862.005,965.853 861.765,966.093 861.765,966.332 861.525,966.813 861.525,967.532 
		861.525,967.772 861.525,968.493 861.525,968.732 861.525,968.973 861.525,969.213 861.525,969.453 861.525,969.693 
		861.765,970.653 862.725,972.813 862.965,973.773 862.244,974.014 861.285,974.253 860.805,974.253 860.805,974.494 
		860.564,974.494 859.846,974.494 859.605,974.494 858.886,974.494 858.646,974.494 857.926,974.733 857.686,974.733 
		857.205,974.733 856.966,974.733 856.726,974.733 855.525,974.733 854.807,974.733 853.366,974.733 851.927,974.974 
		850.486,974.974 849.768,974.974 849.048,974.974 848.567,974.974 848.327,974.974 847.607,975.214 846.888,975.214 
		846.647,975.214 846.407,975.214 845.928,975.214 845.688,975.214 844.248,975.214 842.809,975.453 841.849,975.453 
		841.129,975.453 840.648,975.453 840.169,975.453 839.929,975.453 838.249,975.693 836.81,975.693 835.369,975.693 833.21,975.934 
		830.091,975.934 829.37,975.934 827.69,976.174 826.252,976.174 821.932,976.414 818.573,976.414 817.854,976.414 811.374,976.894 
		809.694,976.894 809.455,976.894 807.535,976.894 802.976,977.134 802.256,977.134 801.536,977.134 800.815,977.134 
		797.456,977.373 790.738,977.614 788.099,977.614 787.858,977.614 784.739,977.854 783.299,977.854 781.859,977.854 
		778.98,977.854 777.78,977.854 774.421,978.094 766.982,978.334 765.543,978.334 763.863,978.334 760.983,978.334 760.743,978.334 
		756.424,978.573 756.424,977.854 756.424,977.373 756.424,976.174 756.424,974.733 756.424,974.253 756.424,973.773 
		756.424,972.094 755.465,972.094 754.984,972.094 752.345,972.094 746.826,972.094 746.106,972.094 744.666,972.094 
		744.427,972.094 743.706,972.094 742.267,972.094 740.107,971.853 738.668,971.853 738.428,971.853 737.707,971.853 
		736.988,971.853 735.068,971.853 732.429,971.853 732.188,971.853 728.349,971.853 728.109,971.853 726.43,971.853 
		723.551,971.853 720.671,971.613 720.431,971.853 718.991,971.613 718.511,971.613 717.791,971.613 717.071,971.613 
		716.111,971.613 714.672,971.613 714.191,971.613 713.712,971.613 713.231,971.613 712.272,971.613 710.113,971.613 
		708.673,971.613 708.193,971.613 704.114,971.613 701.954,971.613 701.715,971.613 700.994,971.613 694.756,971.373 
		693.556,971.373 692.836,971.373 691.636,971.373 691.396,971.373 690.677,971.373 690.437,971.373 685.877,971.373 
		685.397,971.373 683.717,971.373 682.037,971.373 681.798,971.373 680.598,971.133 679.158,971.133 676.998,971.133 
		676.278,971.133 674.359,971.133 674.119,971.133 673.879,971.133 673.16,971.133 672.439,971.133 669.08,970.894 666.44,970.894 
		665.24,970.894 665.001,970.894 664.761,970.894 664.521,970.894 664.281,970.894 661.401,970.653 659.722,970.653 
		656.123,970.653 654.923,970.653 654.683,970.653 650.844,970.413 650.123,970.413 647.724,970.413 647.244,970.413 
		646.764,970.413 646.524,970.413 646.044,970.413 645.805,970.413 645.325,970.413 644.845,970.413 644.125,970.413 
		643.645,970.413 641.245,970.413 640.766,970.413 640.286,970.413 638.366,970.173 637.646,970.173 636.926,970.173 
		632.607,970.173 631.887,970.173 629.487,970.173 625.888,969.934 624.688,969.934 624.208,969.934 622.049,969.934 
		621.809,969.934 620.609,969.934 619.649,969.934 616.77,969.693 615.33,969.693 613.17,969.693 610.771,969.453 609.091,969.453 
		607.171,969.453 606.932,969.453 606.691,969.453 604.532,969.213 602.853,969.213 602.612,969.213 602.132,969.213 
		601.652,969.213 601.173,969.213 602.612,968.253 602.853,968.253 602.853,968.013 604.772,966.813 605.732,966.093 
		606.932,965.132 607.651,964.893 608.131,964.413 609.331,963.452 609.571,963.452 610.531,962.492 611.251,962.012 
		612.451,960.812 614.61,958.652 615.09,958.172 615.33,957.932 617.01,956.012 617.25,956.012 617.49,955.531 617.729,955.291 
		618.929,953.371 619.649,952.411 620.369,950.972 620.609,950.251 621.569,947.371 621.809,946.651 622.529,945.21 623.249,943.53 
		624.208,941.61 625.168,939.931 626.128,938.25 626.128,937.77 626.848,936.569 627.808,934.409 628.048,933.689 628.288,933.21 
		628.768,932.489 629.248,931.769 629.728,931.529 629.967,931.289 631.407,929.129 633.807,926.248 634.287,925.769 
		634.526,925.289 636.206,923.128 636.206,922.889 637.646,920.488 638.126,920.008 638.366,919.527 638.366,919.288 
		640.286,915.447 641.245,913.768 641.965,911.606 643.165,908.727 643.645,907.286 643.885,906.327 643.885,906.086 
		644.125,905.366 644.125,905.127 644.125,904.646 644.125,904.406 644.845,903.206 645.084,902.486 645.564,901.286 
		646.044,900.326 646.044,900.086 646.044,899.846 646.764,897.206 647.004,896.485 647.004,896.246 647.484,893.845 
		647.484,892.645 647.724,892.165 647.964,890.245 647.964,890.005 648.444,887.604 648.924,885.924 649.164,884.724 
		649.164,884.244 649.164,882.324 648.924,880.404 648.924,880.164 649.164,880.164 649.164,879.924 649.164,879.443 
		649.403,878.964 650.123,877.523 650.123,877.284 650.364,876.563 650.364,876.323 650.364,875.844 650.604,874.644 
		650.844,872.243 650.844,871.764 650.844,870.563 650.844,869.123 650.844,868.883 650.844,867.442 650.844,866.963 
		650.844,866.243 650.844,865.282 650.844,864.802 650.844,864.322 650.844,863.122 650.844,862.402 650.844,861.682 
		650.844,860.242 650.844,859.522 650.844,857.842 650.844,857.602 650.844,857.361 650.844,856.642 650.844,855.201 
		650.844,854.961 650.604,853.521 650.604,853.041 650.604,852.081 650.604,851.602 650.604,851.36 650.604,850.401 
		650.364,848.961 650.364,846.801 650.123,844.64 650.123,844.4 650.123,844.16 649.644,841.28 649.164,839.6 648.924,838.399 
		648.924,837.919 648.444,836.96 648.444,836 648.204,835.52 648.204,834.319 647.964,834.079 647.964,833.84 647.244,831.679 
		647.004,830.719 646.284,828.799 645.564,826.878 645.084,825.919 643.885,822.798 643.405,822.078 641.965,818.718 
		640.286,814.877 639.086,812.236 638.126,810.077 637.166,807.916 637.166,807.437 636.926,807.196 635.966,804.076 
		635.966,803.597 635.486,801.916 635.247,801.676 635.006,800.476 634.767,799.756 634.767,799.275 634.526,798.315 
		634.526,798.076 634.046,796.396 633.807,795.195 633.567,793.995 	"/>
	
		<polyline clip-path="url(#SVGID_2_)" fill="none" stroke="#B37C34" stroke-width="0.4799" stroke-linecap="round" stroke-linejoin="round" stroke-miterlimit="3.85" points="
		361.696,462.042 363.376,461.081 365.536,459.641 366.736,458.921 366.976,458.921 368.416,458.201 368.655,458.441 
		369.855,458.921 372.734,457.481 373.694,457.241 373.934,457.241 374.894,457.001 380.173,455.081 384.732,454.601 388.812,453.4 
		390.011,452.92 392.411,451.24 393.13,450.28 393.13,450.04 394.091,449.56 394.331,449.32 395.291,448.84 396.73,447.88 
		397.69,447.16 398.17,446.68 398.65,446.2 399.129,445.72 399.37,445.479 400.089,444.52 400.569,444.279 402.489,442.359 
		403.449,441.399 403.688,441.159 404.649,440.439 406.808,439.719 407.528,439.239 407.768,439.239 408.968,438.999 
		409.928,438.999 412.807,438.279 413.527,438.279 416.167,438.279 416.887,438.519 418.326,439.239 418.566,439.719 
		418.806,439.959 419.766,439.959 421.206,439.479 421.925,439.239 423.365,438.999 423.605,438.999 425.285,438.759 
		425.765,438.759 426.484,438.519 427.205,438.279 427.444,438.039 428.404,438.279 428.884,438.519 430.324,438.759 
		430.564,438.759 432.483,438.759 432.724,438.759 432.963,438.759 434.403,438.279 437.522,437.079 439.442,436.359 
		440.162,435.879 440.882,435.639 441.362,435.398 442.082,434.918 443.282,434.438 443.521,434.198 443.761,434.198 
		444.481,433.958 446.401,432.999 447.841,432.278 447.841,432.038 448.081,432.038 450,430.358 450.24,429.878 451.2,428.678 
		452.4,426.998 454.319,425.078 455.52,424.357 455.759,424.357 456.239,424.117 456.239,424.598 456.479,424.837 456.959,425.078 
		457.919,425.317 458.399,425.317 458.879,425.078 459.838,425.078 460.079,425.078 460.079,424.837 460.318,424.837 
		461.038,424.357 461.758,423.877 462.478,423.877 462.958,424.598 464.638,424.598 465.357,424.357 466.317,423.877 
		467.517,423.397 468.477,422.197 468.717,422.197 469.437,420.997 469.917,420.037 470.157,420.037 470.876,418.357 
		471.116,417.877 471.356,416.677 471.836,415.717 472.076,415.237 472.796,414.276 473.996,413.557 475.196,412.836 
		475.916,412.836 477.595,411.156 478.315,410.196 479.995,409.476 480.955,409.476 481.674,408.996 481.915,408.996 
		482.875,407.796 484.554,406.116 486.713,404.195 488.633,402.755 489.833,402.275 490.553,402.275 491.033,402.275 
		491.273,402.035 491.513,402.035 491.752,401.795 491.993,401.795 492.232,401.555 493.192,401.075 494.872,400.835 
		495.112,400.835 495.832,400.355 497.271,399.155 499.191,397.475 500.151,396.515 500.391,396.515 501.111,395.794 
		502.311,394.595 502.791,393.875 503.271,392.674 503.511,392.435 503.511,392.194 503.99,391.474 504.23,391.234 506.15,389.074 
		507.35,388.114 508.79,387.154 509.27,386.914 509.989,386.674 510.229,386.674 511.429,386.193 514.068,385.233 515.508,384.273 
		515.748,384.033 516.708,383.313 517.668,383.073 520.067,382.593 520.308,382.593 521.027,382.113 521.507,381.633 
		521.747,381.153 521.747,380.913 522.227,380.673 524.146,379.953 524.387,379.953 525.347,379.953 526.306,379.953 
		527.266,379.713 531.105,379.233 531.345,379.233 531.585,379.233 533.265,379.233 533.505,379.233 533.505,378.753 
		534.225,378.513 534.465,378.513 534.945,378.513 537.104,378.513 538.304,378.513 538.544,378.513 539.984,378.513 
		540.224,378.513 541.903,378.753 542.624,378.753 543.823,378.993 544.063,379.233 549.822,379.713 550.782,379.713 
		553.901,381.153 555.581,382.354 556.541,383.313 556.781,386.674 556.781,387.394 556.061,387.394 554.621,386.674 
		553.901,386.674 553.421,386.914 552.941,387.394 550.542,387.874 549.342,388.594 548.622,388.594 548.143,388.114 
		547.183,387.634 546.703,387.394 544.783,387.394 540.704,387.874 539.504,388.114 539.024,389.314 538.784,389.794 
		539.024,390.514 539.504,391.234 539.984,391.234 540.704,392.194 540.704,392.674 540.224,393.395 539.984,393.395 
		539.264,393.395 538.544,393.634 537.104,394.595 534.945,396.035 532.305,396.755 531.825,396.995 531.105,397.955 
		529.186,400.595 528.466,400.595 527.746,401.075 526.546,402.515 524.387,404.916 522.227,405.636 521.507,405.396 
		520.787,405.396 519.828,406.355 519.587,406.355 519.587,406.596 519.107,407.556 518.628,408.756 518.628,408.996 
		518.628,409.236 518.388,410.676 518.628,411.396 518.868,411.636 519.107,411.636 519.107,411.876 518.628,412.596 
		518.148,412.836 517.908,412.836 517.908,412.356 517.428,412.116 516.948,411.876 516.468,412.116 515.748,412.596 
		515.028,413.316 515.028,413.796 515.269,413.796 515.269,414.276 515.028,414.997 514.309,416.677 511.189,418.357 
		510.709,418.357 510.469,418.597 510.229,419.317 510.229,420.517 509.989,421.717 509.75,422.438 509.029,424.598 508.55,425.078 
		508.55,425.317 508.31,425.317 507.59,426.038 506.15,427.958 505.67,428.678 505.19,428.678 504.23,428.918 503.511,429.158 
		503.031,431.558 502.791,432.278 502.791,432.519 502.551,433.238 502.311,433.958 500.871,437.319 500.631,437.799 
		500.631,438.279 500.631,439.719 500.391,441.159 500.391,441.399 500.391,441.879 499.911,443.08 499.911,443.319 499.911,443.56 
		499.911,443.799 500.391,445.96 500.631,446.68 501.111,448.12 502.311,448.12 502.791,448.12 503.271,447.4 504.71,445.72 
		507.11,443.08 507.11,442.359 507.11,442.119 507.35,441.879 507.35,441.639 507.35,441.399 507.59,441.159 507.83,440.919 
		508.07,441.159 508.79,441.159 509.27,441.159 509.509,440.919 510.709,439.719 512.389,438.039 513.349,437.319 514.548,436.359 
		515.269,435.879 515.988,435.398 516.228,435.159 517.188,434.198 517.908,433.718 520.787,432.278 521.987,431.798 
		522.707,431.318 523.667,430.838 524.626,430.598 524.626,430.838 525.347,431.078 525.106,431.318 524.146,432.758 
		523.907,432.999 521.267,435.398 521.507,435.879 521.987,436.839 522.947,436.839 525.347,436.599 527.266,435.879 
		528.706,435.639 529.906,435.879 531.345,436.599 532.065,436.839 533.985,437.319 535.425,437.319 535.665,437.319 
		536.145,437.319 537.344,437.079 540.464,437.319 541.423,437.319 542.383,438.279 543.103,438.999 545.023,440.199 
		545.503,439.959 546.463,439.479 547.183,439.479 547.422,439.719 548.862,440.439 549.582,440.679 549.822,440.919 
		550.062,441.399 549.822,441.639 549.822,441.879 549.822,442.119 550.542,442.6 551.262,442.839 551.502,442.6 551.981,442.359 
		552.461,442.359 552.702,443.799 552.702,444.04 552.702,444.279 552.702,445.24 552.941,445.72 552.941,445.96 553.182,446.2 
		554.141,446.44 555.581,446.44 556.061,445.72 556.061,445.24 556.061,445 556.541,444.76 557.021,445.479 557.021,446.44 
		557.021,446.68 557.021,447.16 557.741,447.64 558.46,447.88 558.46,448.12 559.18,447.88 559.66,448.12 560.14,448.84 
		561.1,450.28 561.58,450.52 562.3,451.24 562.3,451.72 562.54,452.68 562.54,454.36 563.02,456.521 563.02,456.761 
		563.739,457.721 564.699,458.681 565.179,459.161 565.419,459.641 566.379,460.361 566.859,460.841 567.099,461.081 
		567.099,461.321 566.859,462.042 566.859,462.281 567.339,463.001 568.059,464.682 568.299,465.402 569.019,465.882 
		570.458,466.602 570.698,466.602 570.938,467.082 570.698,467.562 570.938,468.762 571.898,469.722 572.378,470.202 
		574.538,470.442 575.018,470.922 575.257,470.922 576.457,471.162 576.697,472.603 575.737,473.322 575.737,473.563 
		576.457,475.002 576.457,475.243 576.697,475.723 576.937,475.963 576.697,476.203 575.977,476.443 575.737,476.683 
		575.737,477.163 575.737,477.403 575.498,477.403 575.737,478.123 575.977,478.363 576.217,478.843 576.457,479.083 
		577.417,480.043 577.417,480.283 577.657,480.283 578.377,480.763 578.617,480.763 581.256,481.963 585.096,482.443 
		588.935,482.203 591.094,481.723 593.254,481.963 594.454,482.203 595.174,481.963 595.654,481.963 596.374,481.243 
		598.053,480.043 600.213,479.563 601.413,479.083 602.373,478.363 602.853,478.363 605.252,479.083 605.972,480.283 
		605.972,481.003 606.691,482.684 607.171,483.403 607.171,484.124 606.932,484.364 607.171,484.844 608.371,485.563 
		609.331,485.563 610.051,485.563 611.251,486.284 611.491,487.004 611.491,487.244 611.491,487.484 611.491,487.964 
		611.491,488.204 611.971,488.444 612.451,488.684 613.89,488.924 614.85,488.924 616.29,488.684 616.77,487.484 616.77,486.284 
		617.25,485.563 618.449,484.604 619.889,484.364 621.089,484.604 622.049,484.844 622.529,485.324 622.529,485.563 
		623.729,488.204 624.208,488.684 624.688,488.684 625.648,487.004 625.408,486.284 625.648,485.324 625.888,482.684 
		624.928,482.203 624.688,481.243 624.208,477.883 625.168,476.683 626.368,476.203 626.608,476.683 626.848,476.683 
		628.048,476.443 628.288,476.203 629.967,479.083 629.728,480.763 629.487,481.723 629.248,482.203 628.768,482.443 
		628.528,483.403 628.528,484.124 629.248,484.844 629.728,484.844 630.208,484.364 630.447,483.644 630.927,483.403 
		631.167,483.403 631.167,484.844 631.167,485.804 631.887,486.044 632.607,486.524 634.767,484.124 637.166,482.203 
		639.326,480.283 640.045,479.083 640.286,478.363 641.245,477.643 641.965,477.643 642.925,477.883 643.405,477.883 
		646.764,476.443 648.684,475.723 649.644,475.002 661.401,467.562 663.321,465.882 665.001,465.642 666.201,467.322 
		666.681,467.562 667.641,467.562 669.561,467.322 672.199,466.362 675.079,465.882 677.959,465.642 680.118,464.682 
		683.478,464.202 684.438,464.202 686.117,464.441 689.236,465.402 691.636,465.642 692.356,465.642 692.836,465.882 
		694.996,465.882 698.114,465.642 699.794,465.642 701.234,465.642 703.394,466.122 703.874,466.122 707.233,466.362 
		709.393,466.122 711.313,465.642 719.471,462.521 724.989,459.401 725.23,459.161 727.39,458.441 728.829,458.201 733.389,457.481 
		741.066,458.201 742.986,457.961 744.906,457.001 746.346,456.761 748.025,456.521 748.745,456.761 748.985,457.001 
		746.346,459.401 744.906,461.081 744.187,462.761 743.706,464.441 743.467,465.642 743.467,466.602 742.986,471.882 
		742.746,474.283 742.986,476.203 743.227,477.643 743.227,479.083 743.467,479.083 743.706,479.803 743.467,480.283 
		742.267,480.763 741.547,481.243 741.307,481.963 741.547,483.164 741.787,484.124 742.986,485.804 743.467,486.284 
		744.187,486.764 746.106,487.004 747.546,487.004 748.506,486.764 749.226,486.044 749.945,485.804 749.945,486.764 
		750.905,487.724 751.145,487.964 751.386,487.964 752.105,488.204 752.824,488.204 754.265,488.204 755.225,487.724 
		755.944,488.924 756.424,490.124 757.384,490.604 759.544,490.364 761.703,489.644 765.063,487.964 767.462,486.524 
		768.182,486.044 769.861,486.524 771.541,486.284 772.502,487.724 772.741,488.444 773.221,489.164 774.182,490.364 774.9,491.084 
		775.62,492.284 777.061,493.245 777.301,493.245 780.66,491.084 781.379,490.844 781.619,491.084 782.34,491.804 782.819,491.564 
		783.539,490.844 784.019,489.644 784.019,488.684 783.539,488.204 784.739,486.044 786.658,484.604 787.858,484.844 
		788.338,484.844 788.578,484.844 788.818,484.604 789.778,483.884 791.938,484.124 792.418,484.364 792.897,484.604 
		793.377,484.844 794.577,485.324 795.537,485.563 796.736,485.563 797.456,485.324 797.697,485.324 798.416,484.844 
		800.336,481.243 802.495,480.763 803.695,481.963 804.655,482.203 805.615,481.963 805.855,481.723 806.575,481.483 
		807.295,481.723 807.535,482.684 808.015,482.923 808.494,484.364 807.535,487.964 806.095,493.245 806.575,498.045 
		808.015,501.646 808.975,503.085 808.015,503.806 808.255,508.606 809.455,509.806 808.734,511.486 808.015,512.207 
		807.535,512.207 806.814,512.446 806.095,513.167 805.855,513.167 805.615,513.167 805.615,512.927 805.615,512.687 
		805.136,512.207 803.936,512.207 803.936,511.966 803.456,511.966 802.976,511.966 800.815,512.446 799.856,513.167 
		798.656,515.087 798.896,516.527 798.896,517.727 798.656,518.207 799.616,518.687 800.096,519.167 800.815,519.407 
		801.057,519.407 802.495,519.167 802.976,518.687 803.936,517.247 804.176,517.487 804.415,517.487 805.855,517.727 
		807.535,517.727 807.775,517.727 808.255,518.207 808.494,518.927 808.975,519.887 809.455,520.607 809.694,521.087 
		810.174,521.087 812.334,521.087 814.733,522.768 814.253,523.488 813.773,523.248 812.814,523.968 812.094,524.448 
		811.614,525.408 811.374,526.368 811.374,526.608 811.854,527.328 812.814,528.048 813.533,528.768 814.494,530.448 
		816.173,531.648 817.373,532.849 819.293,533.329 820.013,533.088 820.492,532.849 820.973,533.088 821.213,534.049 
		821.452,534.289 821.932,534.529 823.132,535.009 823.853,536.209 825.291,536.689 825.771,536.929 826.011,536.689 
		827.69,533.568 828.65,533.809 829.61,535.969 829.851,535.969 831.051,536.449 831.29,536.449 832.73,535.729 832.97,535.009 
		833.45,534.289 833.45,532.849 832.73,530.688 831.051,530.208 830.091,528.528 829.131,525.408 829.61,524.928 830.091,524.928 
		831.29,525.648 832.25,526.368 832.97,526.848 833.93,526.608 836.09,526.608 836.33,526.368 836.569,525.648 837.77,525.408 
		840.889,525.648 842.568,525.408 843.288,525.408 844.008,526.128 845.208,526.608 846.407,526.848 846.888,527.328 
		847.127,528.288 847.127,528.768 847.607,529.488 848.567,529.968 849.048,530.928 849.287,532.128 849.527,533.809 
		850.007,534.769 852.887,535.969 853.366,535.969 853.846,536.209 854.326,537.169 854.326,537.409 853.846,538.849 
		853.366,539.089 851.687,543.169 851.207,543.89 850.728,544.37 848.088,544.85 846.647,544.61 843.048,542.93 841.129,541.729 
		838.969,542.689 838.249,542.689 836.81,542.93 835.85,542.45 835.13,542.45 833.45,542.689 833.21,543.169 832.011,542.93 
		830.811,542.45 830.811,541.969 830.331,541.729 829.37,541.969 828.891,542.209 828.411,542.209 827.932,541.009 827.69,541.009 
		826.252,540.289 825.291,539.569 825.052,539.329 824.812,539.569 823.132,539.809 822.173,540.529 821.932,540.289 
		820.013,539.809 817.613,539.569 816.894,540.049 815.453,540.289 811.135,539.329 810.894,539.329 810.174,539.569 
		808.975,539.089 808.975,538.609 808.734,538.369 808.494,538.369 806.575,538.849 804.415,539.569 804.176,539.809 
		803.936,539.329 802.016,539.569 799.616,539.569 798.416,540.77 797.937,540.77 797.456,540.77 796.497,540.77 793.857,540.77 
		792.897,540.77 792.178,541.489 791.938,541.729 791.218,542.209 790.979,542.45 789.538,543.169 787.378,541.489 785.939,540.529 
		785.459,539.089 785.219,539.089 785.219,538.849 784.979,538.609 783.539,539.329 782.819,538.849 782.1,538.609 782.1,538.129 
		782.1,537.649 781.859,537.409 781.619,537.409 780.18,537.169 779.699,537.649 779.699,539.089 778.98,539.569 778.5,539.329 
		778.261,539.089 778.261,538.369 778.5,537.169 778.5,535.729 777.78,534.289 777.54,533.809 776.34,532.849 774.9,533.088 
		774.66,533.568 772.981,533.568 772.741,533.329 771.541,532.128 770.342,531.168 769.621,530.928 769.621,530.688 
		768.902,530.928 768.182,531.408 768.182,531.648 767.462,532.608 766.982,533.329 766.982,534.529 766.982,534.769 
		767.223,536.929 767.462,538.369 767.462,538.609 767.462,538.849 767.462,539.089 767.223,539.089 766.742,539.089 
		766.262,539.089 764.823,539.569 764.343,540.289 763.623,541.729 763.623,542.209 764.103,542.93 764.103,543.169 
		765.063,543.649 765.543,544.37 765.543,544.85 764.582,545.33 764.103,545.81 764.343,546.77 764.343,547.01 764.823,548.69 
		764.823,549.17 765.303,549.89 765.782,550.61 766.262,551.331 766.262,551.57 766.022,551.811 765.782,551.811 765.543,551.811 
		765.063,551.811 764.823,551.811 764.823,552.05 764.582,552.53 764.582,553.011 763.144,553.011 762.663,552.771 762.423,552.771 
		762.183,552.291 761.463,552.05 760.983,551.57 759.783,550.61 757.864,549.65 756.904,549.41 756.904,549.17 756.424,548.21 
		756.424,547.73 756.424,547.49 756.424,547.25 756.424,547.01 756.184,546.53 755.465,546.53 754.984,546.05 754.265,545.57 
		754.024,545.33 753.785,545.09 753.545,544.85 751.865,543.89 750.905,543.169 750.665,543.169 749.465,540.77 749.465,540.529 
		746.826,537.409 745.626,536.209 744.666,535.489 743.946,535.009 742.027,534.049 741.066,533.568 739.147,533.329 
		738.668,533.088 737.707,532.608 736.988,532.128 736.748,531.889 735.788,531.168 734.828,530.928 734.108,530.688 
		731.469,531.168 730.989,531.408 730.028,530.448 729.549,530.208 729.549,529.968 729.069,529.728 728.109,529.488 
		727.149,529.248 726.91,529.248 725.949,529.008 724.989,528.768 724.511,528.528 724.27,528.288 723.79,528.048 722.351,526.848 
		721.15,526.368 720.91,526.368 720.431,526.368 719.471,526.368 719.231,526.608 718.751,526.848 717.791,527.328 717.071,526.368 
		716.831,525.888 715.632,525.408 714.432,525.168 713.473,525.888 713.473,526.128 713.473,526.368 712.992,526.848 
		712.992,527.088 712.512,526.608 710.832,525.888 710.593,525.888 709.393,525.648 709.152,525.648 708.434,525.888 
		707.953,526.128 707.713,526.368 707.233,526.608 706.993,526.848 706.753,527.088 706.273,527.568 705.073,529.008 
		704.594,529.488 702.434,531.648 701.715,532.369 701.474,532.849 700.994,534.049 700.754,534.769 698.595,537.169 
		698.114,538.129 697.395,538.849 695.476,539.329 694.996,539.569 693.076,539.089 692.596,539.089 691.636,539.089 
		690.677,538.609 689.716,538.369 688.277,537.649 	"/>
	
		<polyline clip-path="url(#SVGID_2_)" fill="none" stroke="#B37C34" stroke-width="0.4799" stroke-linecap="round" stroke-linejoin="round" stroke-miterlimit="3.85" points="
		688.277,537.649 686.837,537.409 686.356,537.409 685.877,537.649 685.397,538.609 684.677,538.849 683.478,538.609 
		683.238,538.609 682.998,538.609 681.798,538.369 680.838,538.609 679.878,539.329 678.678,540.529 678.438,541.489 
		678.438,541.729 678.438,542.209 679.158,542.689 679.639,543.169 679.398,543.41 678.919,543.41 678.919,543.169 677.719,542.45 
		676.519,541.729 673.879,540.289 673.64,540.289 673.399,540.049 673.16,540.049 669.561,538.849 668.36,538.609 668.12,538.609 
		666.681,538.369 666.44,538.369 665.001,538.369 664.521,538.609 663.561,538.849 662.841,539.329 662.602,539.329 
		662.602,539.569 661.881,539.569 661.401,539.329 660.682,539.089 659.242,538.609 658.522,538.609 658.282,538.609 
		657.563,538.849 657.322,539.089 656.842,540.049 656.603,540.289 656.362,540.289 655.643,540.289 655.402,540.289 
		654.923,540.049 653.723,540.529 653.243,540.529 650.604,543.169 650.364,543.41 649.884,544.13 649.884,544.85 649.644,545.57 
		649.644,546.05 649.644,546.77 649.403,548.93 649.164,549.65 649.164,549.89 648.684,550.61 647.964,551.331 647.964,551.57 
		647.484,554.451 647.484,554.691 647.724,555.171 647.004,555.651 646.764,556.131 646.284,556.131 646.044,556.131 
		644.365,556.131 644.365,555.891 644.125,555.411 642.925,555.651 642.445,555.891 642.205,556.371 642.205,556.611 
		641.965,556.611 641.965,556.851 642.205,557.091 642.205,557.331 641.725,558.291 641.245,559.011 640.286,559.251 
		640.045,559.251 639.806,559.251 639.326,559.011 638.366,559.251 637.886,560.211 637.166,559.971 636.686,559.491 
		635.726,559.731 635.486,560.211 635.247,561.171 635.006,562.852 634.287,563.812 634.046,564.052 633.807,564.052 
		631.647,563.332 630.927,563.572 630.687,564.292 630.687,566.692 630.447,568.372 629.967,568.372 628.528,567.892 
		628.048,568.132 627.568,568.612 627.328,569.092 628.048,572.933 628.048,574.373 627.568,573.653 626.848,573.173 
		625.888,573.413 624.448,572.692 623.009,571.493 623.009,570.772 622.529,570.052 621.569,569.813 620.849,567.892 
		620.849,566.932 621.089,566.212 622.049,565.492 623.009,565.972 623.968,565.492 624.928,564.532 624.928,563.812 
		624.688,563.572 624.448,562.611 625.168,561.651 626.128,561.412 627.328,559.971 627.328,558.291 627.568,556.371 
		628.528,556.371 629.007,556.611 629.967,557.091 630.927,556.851 631.407,555.891 631.167,555.411 631.167,555.171 
		631.407,554.451 631.887,554.211 632.367,554.211 632.847,553.73 633.087,553.25 632.847,552.291 633.087,551.331 633.567,551.09 
		633.807,550.851 634.287,550.61 635.006,549.17 635.247,548.93 635.006,547.01 634.767,546.29 634.287,545.33 633.327,544.85 
		632.367,544.37 631.407,544.37 631.167,544.61 630.447,545.81 629.728,546.77 629.007,546.77 628.048,547.49 627.568,548.45 
		627.568,550.13 626.608,551.09 621.329,549.65 620.849,549.41 619.889,547.73 619.169,547.25 618.689,547.25 617.729,547.73 
		617.01,547.97 616.77,548.69 616.77,551.09 617.25,551.331 617.25,551.811 617.25,552.05 617.49,553.011 616.53,554.691 
		615.33,556.131 613.89,557.091 613.65,557.571 613.89,558.051 613.65,558.531 612.451,559.971 612.451,560.691 612.21,561.412 
		612.451,562.131 610.051,563.332 609.571,563.092 608.371,563.092 607.651,563.332 606.452,564.292 604.772,564.532 
		603.332,566.932 603.092,566.692 603.092,565.732 602.853,565.012 602.132,564.532 601.893,563.332 602.132,561.892 
		602.373,561.171 602.612,558.531 602.373,557.331 602.373,554.691 601.893,552.771 601.173,551.09 600.933,550.37 600.693,550.37 
		599.733,549.65 599.013,549.89 598.533,550.13 598.293,550.13 598.053,550.61 597.333,551.331 597.093,552.291 597.093,552.53 
		596.854,552.53 596.854,553.491 596.854,554.211 596.854,554.931 596.854,555.651 596.854,555.891 596.374,557.091 
		596.374,557.811 596.374,558.291 596.854,558.531 597.093,558.771 597.093,559.011 597.093,559.251 596.854,559.971 
		596.374,560.451 595.654,561.892 596.134,562.372 596.374,562.852 596.374,563.092 595.894,563.092 594.934,563.332 
		593.974,563.572 593.734,563.812 593.494,563.812 593.494,564.052 593.494,564.292 592.774,565.252 592.534,565.252 
		591.334,565.492 590.135,566.452 589.895,566.452 588.935,567.172 588.215,567.412 587.975,567.892 587.255,568.852 
		587.015,569.092 587.015,569.332 586.775,569.572 586.295,570.052 585.576,571.493 584.855,572.692 584.375,573.653 
		584.375,573.893 584.136,573.893 583.656,574.853 583.416,574.853 582.216,576.773 581.256,578.453 581.256,578.693 
		579.816,582.054 579.336,583.734 579.097,583.734 577.897,586.374 576.937,587.334 575.737,589.254 575.737,589.734 
		575.737,590.214 575.977,590.694 576.217,590.935 576.217,591.415 575.498,592.375 574.538,593.095 574.297,593.095 
		573.817,594.055 573.338,595.015 572.858,595.495 571.898,596.455 571.418,596.935 571.178,596.935 571.178,597.655 
		570.698,599.095 569.738,600.055 568.778,601.735 568.299,602.216 567.819,603.416 567.579,604.616 565.659,606.536 
		563.02,609.896 562.06,611.577 560.62,613.257 560.14,613.497 559.18,614.697 559.18,614.937 558.221,615.657 557.98,615.897 
		557.741,615.897 557.5,616.137 557.021,616.857 556.541,617.097 556.541,617.337 556.301,617.337 556.301,617.577 555.581,618.777 
		555.341,619.257 555.101,619.498 555.101,619.737 554.621,620.458 554.621,620.697 554.381,621.658 554.381,622.138 
		554.381,622.377 554.381,622.618 554.621,622.858 554.861,623.098 555.101,623.818 555.821,624.538 556.061,624.538 
		556.301,624.298 556.301,624.538 555.821,624.538 555.581,624.538 554.141,624.058 553.661,623.818 553.182,623.578 
		552.941,623.578 552.941,623.338 552.461,623.338 551.742,623.338 551.262,623.098 551.022,623.098 550.782,623.098 
		550.782,622.858 550.782,622.618 550.542,622.618 550.542,622.377 550.302,622.138 550.302,621.897 550.062,621.897 
		549.822,621.658 549.582,620.697 549.822,620.458 549.822,620.217 549.342,619.257 549.102,619.257 548.862,619.017 
		548.622,618.777 548.382,618.537 547.902,618.537 547.902,618.297 547.422,618.057 547.183,617.577 546.703,617.337 
		546.463,617.097 546.223,616.857 546.223,616.617 545.983,616.377 545.503,616.377 545.503,616.137 545.503,615.657 
		545.263,613.737 545.263,613.497 545.503,613.257 545.743,613.017 546.223,612.537 546.463,612.537 546.463,612.057 
		546.463,611.816 546.463,611.577 546.703,611.097 546.942,610.616 546.703,610.616 546.703,610.376 546.463,610.376 
		546.463,610.136 546.703,610.136 547.183,609.417 547.422,609.417 547.663,609.417 547.663,609.176 547.663,608.937 
		547.663,608.456 547.902,607.976 547.902,607.496 547.902,607.256 548.382,606.536 548.622,606.296 548.622,606.056 
		548.622,605.576 548.622,605.096 549.102,604.616 549.342,604.376 549.342,604.136 549.582,603.656 549.582,603.416 
		550.302,602.696 550.542,602.456 551.022,601.735 551.262,601.496 551.502,601.496 551.502,601.255 551.502,601.016 
		551.502,600.775 551.502,600.536 551.742,600.295 551.981,600.295 551.981,600.055 552.702,599.335 552.702,598.855 
		552.702,598.135 552.461,597.895 552.222,597.895 551.981,597.415 552.222,597.175 552.222,596.935 552.222,596.455 
		551.981,596.215 551.022,595.495 550.782,595.255 550.782,595.015 550.782,594.775 550.302,594.535 550.062,594.055 
		549.822,594.055 549.582,594.055 549.102,594.055 549.102,594.295 548.622,594.535 548.382,594.775 547.663,595.255 
		546.463,596.455 546.223,596.935 546.223,597.175 545.263,597.415 545.263,597.655 545.023,597.895 544.303,598.135 
		543.823,597.655 543.583,597.655 542.863,597.895 542.624,597.655 542.383,597.415 541.664,597.415 540.944,597.655 
		540.704,597.655 539.984,597.415 539.984,597.655 539.744,597.655 539.504,597.415 539.264,597.415 539.024,597.655 
		539.024,598.135 538.784,598.135 538.064,598.615 537.824,598.615 537.824,598.375 538.064,598.135 538.064,597.895 
		537.824,597.655 537.344,597.655 537.344,597.415 537.104,597.175 536.864,597.175 536.864,596.935 536.864,596.695 
		536.864,596.455 536.625,596.455 536.625,596.695 536.625,596.935 536.384,596.935 536.384,597.175 535.905,597.415 
		535.665,597.415 535.425,597.415 535.425,597.175 535.185,596.935 535.425,596.935 535.425,596.695 535.665,596.215 
		536.145,595.735 536.625,595.255 536.384,594.775 536.384,594.535 536.384,594.295 536.625,594.295 537.104,594.055 
		537.584,593.575 537.824,593.095 537.584,592.854 537.584,592.615 538.304,592.375 538.304,592.135 538.304,591.415 
		538.064,591.174 537.824,590.935 537.824,590.694 537.584,589.974 537.584,589.494 537.584,589.014 538.064,588.294 
		538.544,588.054 538.784,587.574 539.504,587.334 539.504,587.094 539.744,587.094 539.744,586.854 540.224,586.614 
		540.704,586.374 541.184,586.134 541.184,585.894 541.423,585.654 541.664,585.174 541.664,584.934 541.664,584.694 
		541.664,584.454 542.383,583.974 542.383,583.734 542.383,583.254 542.624,583.014 542.863,582.534 542.863,581.813 
		542.383,581.813 542.144,580.854 542.144,579.894 542.144,579.173 542.144,578.933 542.144,578.693 542.144,578.453 
		541.903,577.973 541.423,577.253 541.184,577.013 540.704,576.533 540.224,576.293 540.224,575.813 540.224,575.333 
		540.464,575.333 541.664,575.573 542.144,575.813 542.863,576.053 543.103,576.053 543.343,575.813 543.343,575.573 
		543.583,574.853 543.583,574.373 543.583,574.133 543.583,573.893 543.823,573.893 544.063,573.653 544.303,573.413 
		544.303,572.933 544.303,572.692 544.543,572.453 544.303,571.732 544.303,571.252 544.303,570.772 543.343,570.532 
		543.103,570.292 543.103,569.813 542.624,569.092 542.144,568.132 541.664,567.652 541.423,567.412 541.184,567.172 
		541.184,566.692 541.423,566.212 541.184,565.972 541.184,565.732 541.423,565.492 542.624,565.252 542.863,565.252 
		543.103,565.012 543.343,564.772 544.303,564.772 544.543,564.532 544.543,563.812 544.303,563.572 544.063,563.092 
		543.103,562.372 542.863,562.372 542.624,561.892 542.863,561.412 542.863,561.171 542.383,560.691 540.944,560.211 
		540.704,560.211 540.464,559.971 540.224,559.731 539.744,559.491 539.504,559.011 539.264,559.011 538.784,557.811 
		538.784,557.331 538.784,556.851 538.544,556.611 538.304,556.611 538.064,556.371 538.064,556.131 537.584,555.891 
		536.864,556.131 536.384,556.131 536.145,556.131 536.145,555.651 535.905,555.411 535.665,555.411 535.185,555.651 
		534.705,555.651 534.465,555.411 534.225,555.411 534.225,555.171 533.745,555.411 533.265,555.411 533.025,555.411 
		532.785,555.411 532.305,555.411 532.065,555.411 531.825,555.411 531.585,555.411 531.585,555.171 531.345,554.691 
		531.105,554.451 530.866,554.451 530.146,554.211 529.906,553.971 529.906,553.73 530.146,553.491 530.386,553.491 
		530.625,553.491 530.386,552.771 530.146,552.05 530.146,551.811 530.146,551.57 529.906,551.57 529.666,551.57 529.666,551.331 
		529.426,551.331 529.426,551.57 529.186,551.57 528.706,551.811 528.226,551.811 527.986,551.57 527.986,551.811 527.746,551.811 
		527.506,551.811 527.266,552.05 527.026,552.05 526.786,551.811 526.306,551.811 526.306,552.05 526.306,552.291 526.066,552.53 
		525.586,552.53 525.586,552.771 524.867,552.771 524.146,552.771 523.907,552.771 523.667,552.53 523.427,552.291 523.187,552.291 
		522.947,552.291 522.707,552.291 522.467,552.05 521.987,551.57 521.747,551.57 521.507,550.851 521.747,550.851 521.747,550.61 
		521.507,550.37 521.507,550.13 521.267,550.13 521.027,550.13 520.787,550.13 520.067,549.65 520.067,549.41 519.828,549.41 
		519.587,548.45 519.587,548.21 519.828,548.21 520.308,547.73 520.547,547.49 520.547,547.25 520.787,547.25 521.267,546.77 
		521.507,546.53 521.747,546.29 522.467,545.57 523.187,544.85 523.427,544.37 523.667,544.13 523.667,543.89 523.907,544.13 
		524.146,544.13 524.146,543.89 524.387,543.41 524.387,542.93 523.667,542.45 522.707,542.45 522.467,542.209 522.227,541.969 
		522.227,540.77 521.987,540.529 521.987,540.289 522.227,539.809 522.227,539.569 522.467,539.329 522.707,539.089 
		522.947,538.849 522.947,538.609 522.467,538.129 522.227,538.129 521.507,538.129 521.267,538.129 521.027,538.129 
		520.787,538.129 520.787,537.889 520.787,537.649 519.828,537.169 519.348,536.689 519.107,536.449 518.628,536.209 
		518.148,536.209 517.668,535.969 517.428,535.969 517.428,535.489 517.188,535.249 516.468,534.769 516.228,534.529 
		515.988,534.529 515.748,534.529 515.508,535.009 515.508,535.249 515.508,535.489 515.028,535.489 514.789,535.489 
		514.548,535.249 514.068,535.009 513.829,535.009 513.589,535.009 513.109,535.009 512.869,534.769 512.629,534.769 
		512.389,534.529 512.389,534.289 512.389,534.049 512.389,533.809 512.389,533.329 512.149,533.329 511.669,533.329 
		511.429,533.809 510.709,533.809 509.75,534.049 509.029,534.529 508.79,534.529 508.79,534.289 508.31,533.809 507.83,533.568 
		507.35,533.329 507.11,533.329 507.11,533.568 506.63,533.809 506.63,534.049 506.39,533.809 506.39,533.568 506.39,533.088 
		506.39,532.849 506.15,532.608 504.71,531.408 503.99,530.928 503.511,530.448 503.271,530.208 503.031,529.968 502.551,530.208 
		502.551,530.448 502.311,530.928 501.831,531.168 501.591,531.168 501.351,530.928 500.631,531.168 500.391,531.408 
		500.151,531.648 499.911,531.408 499.671,531.168 499.911,530.928 499.671,530.928 499.671,530.688 498.951,530.448 
		498.951,530.208 498.711,529.968 498.472,529.968 497.992,529.968 497.512,529.488 497.751,529.248 497.751,529.008 
		497.271,529.008 496.792,528.768 496.552,528.768 496.312,529.008 496.072,529.248 496.312,529.248 496.072,529.488 
		495.832,529.488 495.832,529.728 495.352,529.728 494.872,529.488 494.632,529.248 494.632,529.008 494.392,529.008 
		494.632,529.008 494.632,528.768 494.392,528.768 494.392,528.528 494.152,528.288 494.152,527.328 494.152,526.848 
		493.912,526.848 493.912,526.608 493.432,526.608 492.953,526.608 492.712,526.368 492.232,526.368 491.993,526.368 
		491.993,526.608 491.752,527.088 491.513,527.088 490.793,527.088 490.553,526.848 490.313,526.848 489.833,526.848 
		489.593,526.848 489.353,527.088 489.353,527.328 488.633,527.568 488.153,527.808 487.914,527.808 487.914,527.088 
		487.914,526.848 487.673,526.848 487.434,526.608 487.193,526.608 486.954,526.608 486.713,527.088 486.474,528.048 
		486.474,528.528 486.234,529.248 486.234,529.488 485.994,529.488 485.514,529.488 484.794,529.488 484.554,529.728 
		483.834,529.488 483.354,529.248 483.114,529.248 482.875,529.248 482.634,529.248 482.634,529.008 482.634,528.768 
		482.395,528.528 482.154,528.048 482.154,527.568 481.915,526.848 481.674,526.608 481.435,526.608 480.715,526.368 
		480.235,526.128 479.755,526.128 479.515,526.128 479.275,526.608 478.795,526.608 478.555,525.888 478.795,525.648 
		478.555,525.408 478.075,525.168 477.355,524.928 476.875,525.168 476.396,525.408 476.155,525.648 475.916,525.648 
		475.676,525.408 475.436,525.408 475.196,525.648 474.716,526.128 474.476,526.128 474.236,525.888 474.236,525.408 
		474.236,525.168 474.716,524.688 474.716,524.448 474.236,524.208 473.756,524.208 473.276,524.208 473.036,524.448 
		473.276,524.928 473.276,525.168 473.036,525.168 472.316,525.408 471.836,525.168 472.076,525.168 471.836,524.928 
		471.596,524.688 470.876,524.448 470.637,524.208 470.396,524.208 470.157,524.208 469.917,523.968 469.677,523.488 
		469.677,523.248 463.918,519.407 463.198,518.927 462.718,518.687 459.838,516.767 457.439,515.087 452.88,512.207 450.48,511.486 
		448.081,510.526 447.601,510.286 446.641,510.046 445.681,509.806 445.201,509.566 444.961,509.566 444.961,509.326 
		444.001,509.086 439.922,507.646 432.963,505.246 429.604,504.045 428.164,503.565 425.045,502.605 424.565,502.365 
		421.925,501.405 420.486,500.925 417.366,499.965 414.727,499.005 413.767,498.765 413.287,498.525 412.567,498.285 
		407.768,496.605 407.528,496.605 407.528,496.365 407.288,496.365 405.849,495.885 402.969,494.925 400.569,493.965 
		398.41,493.245 397.69,493.004 395.771,492.284 395.05,492.044 394.331,491.804 390.011,490.364 380.893,487.004 381.133,486.764 
		381.133,486.524 381.133,486.284 381.133,486.044 381.133,485.804 381.373,485.804 381.373,485.563 381.373,485.324 
		381.373,484.844 381.133,484.844 381.133,484.604 380.893,484.604 380.893,484.364 380.893,483.884 380.413,483.644 
		380.173,483.403 380.173,483.164 380.413,482.443 380.173,482.443 379.933,481.963 379.693,481.483 379.453,480.763 
		379.453,480.523 379.213,480.283 378.974,479.563 378.733,479.083 378.733,478.843 378.974,478.363 378.974,478.123 
		378.733,477.643 378.733,476.923 378.493,476.443 378.493,476.203 378.013,476.203 377.773,476.203 377.773,475.243 
		377.773,475.002 377.773,474.763 377.534,474.522 377.054,474.283 376.813,474.042 376.813,473.803 376.813,473.563 
		377.054,473.322 377.054,473.083 376.813,472.842 376.333,472.362 376.094,472.123 375.614,470.922 375.374,469.962 
		375.374,469.722 375.134,469.482 374.894,469.482 374.414,469.722 374.414,469.482 374.414,469.242 374.414,469.002 
		374.414,468.762 373.934,469.002 373.454,469.242 373.214,469.242 372.495,469.242 372.254,469.242 372.015,469.242 
		372.015,469.002 371.775,468.762 	"/>
	
		<polyline clip-path="url(#SVGID_2_)" fill="none" stroke="#B37C34" stroke-width="0.4799" stroke-linecap="round" stroke-linejoin="round" stroke-miterlimit="3.85" points="
		371.775,468.762 371.535,468.762 371.535,468.522 371.535,468.282 371.295,468.042 371.535,467.562 371.535,467.322 
		371.295,467.082 371.055,467.082 371.055,467.322 370.815,467.562 370.575,467.562 370.095,467.322 370.095,467.562 
		369.615,467.562 369.375,467.562 369.135,467.562 368.655,467.562 368.655,467.802 368.416,467.562 368.416,467.082 
		368.655,466.842 368.655,466.602 368.896,466.362 368.896,466.122 368.896,465.882 368.896,465.642 368.896,465.402 
		368.896,465.162 368.416,464.682 368.175,464.682 367.935,464.682 367.935,464.441 367.935,464.202 367.695,463.722 
		367.216,463.722 366.976,463.722 366.736,463.961 366.496,464.441 366.255,465.162 366.255,465.402 366.016,465.402 
		366.016,465.162 365.775,464.922 365.296,464.922 364.816,464.922 364.576,464.922 363.616,465.402 363.136,465.642 
		362.896,465.402 362.896,465.162 362.896,464.441 362.656,464.441 362.417,463.961 362.176,463.481 361.696,463.001 
		361.696,462.281 361.696,462.042 	"/>
	
		<polyline clip-path="url(#SVGID_2_)" fill="none" stroke="#B37C34" stroke-width="0.4799" stroke-linecap="round" stroke-linejoin="round" stroke-miterlimit="3.85" points="
		483.594,324.747 481.674,325.467 480.235,325.467 477.115,326.428 475.676,327.147 475.196,328.108 472.556,329.308 
		472.076,330.748 471.836,331.468 472.556,332.188 473.756,332.188 476.635,331.708 476.875,331.948 475.916,332.908 
		469.677,335.068 467.997,335.789 466.557,336.029 465.598,336.269 461.998,337.709 460.798,338.429 458.399,338.669 
		456.239,337.949 455.999,337.709 456.239,336.988 455.52,335.789 453.36,335.548 453.12,335.308 453.36,335.308 453.84,335.068 
		452.64,333.628 452.16,333.628 451.92,333.148 452.64,331.708 454.08,331.228 454.56,330.748 454.56,329.788 455.04,329.308 
		457.679,327.388 463.678,324.268 468.957,322.107 470.876,321.147 474.476,319.467 475.196,319.467 475.436,319.707 
		476.396,319.467 477.835,318.747 477.595,318.507 477.835,318.267 481.915,316.106 483.354,316.106 483.834,316.347 
		484.074,316.347 485.274,315.626 486.474,314.906 486.474,313.946 487.193,313.466 488.633,312.746 489.593,311.786 
		491.273,311.066 491.993,311.066 492.712,310.586 493.432,310.106 493.432,309.626 493.432,309.386 494.872,308.426 
		497.751,306.985 500.391,306.266 502.551,305.065 503.99,306.025 505.67,305.785 506.39,305.065 507.11,304.825 508.55,304.345 
		509.509,304.585 511.189,303.865 511.429,304.825 511.189,306.025 510.709,306.266 509.27,306.505 508.55,306.985 507.83,307.466 
		506.63,309.146 504.71,310.586 500.871,313.226 499.911,314.187 499.911,314.906 500.151,315.146 500.151,315.867 500.151,316.347 
		499.671,316.827 493.192,321.387 489.833,322.827 485.994,324.027 484.554,324.268 483.594,324.747 	"/>
	
		<polyline clip-path="url(#SVGID_2_)" fill="none" stroke="#B37C34" stroke-width="0.4799" stroke-linecap="round" stroke-linejoin="round" stroke-miterlimit="3.85" points="
		708.193,563.092 708.913,563.812 709.152,565.972 709.152,566.692 708.434,567.412 708.193,568.372 708.434,569.572 
		708.673,570.292 709.393,571.493 709.633,574.613 709.152,575.813 707.953,577.253 707.233,577.493 706.753,577.733 
		706.273,577.973 706.033,578.933 705.554,579.413 704.114,579.653 700.035,578.453 699.794,578.213 699.314,576.773 
		700.035,574.133 700.754,573.413 700.994,572.692 700.994,571.732 700.754,570.772 701.234,568.372 701.474,567.652 
		702.194,566.692 702.674,566.452 703.634,565.252 704.114,563.332 704.114,563.092 704.114,561.892 703.874,561.171 
		703.874,560.451 704.114,560.211 705.313,560.691 705.554,561.171 706.273,561.412 706.993,561.412 708.434,560.932 
		708.673,560.932 708.913,561.651 708.434,562.131 708.193,562.131 707.953,562.131 708.193,561.892 708.193,561.412 
		707.713,561.412 707.233,561.892 707.233,562.372 707.233,562.611 707.953,562.852 708.193,563.092 	"/>
	
		<polyline clip-path="url(#SVGID_2_)" fill="none" stroke="#B37C34" stroke-width="0.4799" stroke-linecap="round" stroke-linejoin="round" stroke-miterlimit="3.85" points="
		774.182,554.931 773.94,554.931 773.701,554.451 772.741,553.25 771.781,552.05 771.541,551.57 770.822,551.331 769.861,550.61 
		769.861,550.37 770.342,547.97 770.581,547.97 771.541,548.21 772.021,548.69 772.981,550.37 773.461,551.57 774.421,554.211 
		774.66,554.451 775.141,554.691 778.02,555.891 779.699,555.651 781.379,556.371 785.698,558.051 785.939,558.051 786.419,557.571 
		786.419,556.851 786.419,556.131 786.658,556.131 787.139,557.091 787.619,558.531 791.218,559.731 790.979,559.971 
		790.019,561.412 790.019,562.372 788.338,563.572 788.338,563.812 788.338,564.292 787.619,564.772 786.658,564.772 
		785.698,564.292 784.26,564.292 783.059,563.812 781.859,563.812 780.66,563.332 780.18,562.372 780.18,561.412 778.98,560.451 
		777.061,557.811 776.34,557.091 774.9,556.611 774.421,556.131 774.182,555.411 774.182,554.931 	"/>
	
		<polyline clip-path="url(#SVGID_2_)" fill="none" stroke="#B37C34" stroke-width="0.4799" stroke-linecap="round" stroke-linejoin="round" stroke-miterlimit="3.85" points="
		669.32,621.417 671.239,621.897 672.199,622.138 672.439,622.377 673.16,623.578 673.16,625.498 672.919,626.218 672.68,628.858 
		672.68,629.578 673.16,630.298 673.16,631.499 671.479,631.979 670.52,631.259 670.04,630.539 668.84,628.858 667.641,627.898 
		667.16,627.418 667.16,626.938 666.92,623.338 667.4,622.138 667.881,621.417 668.36,621.417 669.32,621.417 	"/>
	
		<polyline clip-path="url(#SVGID_2_)" fill="none" stroke="#B37C34" stroke-width="0.4799" stroke-linecap="round" stroke-linejoin="round" stroke-miterlimit="3.85" points="
		664.521,636.779 662.841,637.739 661.642,637.979 659.962,637.259 659.962,636.539 659.962,635.819 661.161,633.419 
		661.401,633.179 662.841,632.699 664.521,633.419 665.481,634.619 664.521,634.379 664.281,634.619 664.041,635.099 
		663.802,635.339 664.041,635.819 664.521,636.779 	"/>
</g>
</svg>
