<?xml version="1.0" encoding="utf-8"?>
<!-- Generator: Adobe Illustrator 15.1.0, SVG Export Plug-In . SVG Version: 6.00 Build 0)  -->
<!DOCTYPE svg PUBLIC "-//W3C//DTD SVG 1.1//EN" "http://www.w3.org/Graphics/SVG/1.1/DTD/svg11.dtd">
<svg version="1.1" id="State" xmlns="http://www.w3.org/2000/svg" xmlns:xlink="http://www.w3.org/1999/xlink" x="0px" y="0px"
	 width="1296px" height="1296px" viewBox="0 0 1296 1296" enable-background="new 0 0 1296 1296" xml:space="preserve">
<g>
	<defs>
		<rect id="SVGID_1_" x="349.219" y="266.421" width="598.45" height="770.958"/>
	</defs>
	<clipPath id="SVGID_2_">
		<use xlink:href="#SVGID_1_"  overflow="visible"/>
	</clipPath>
	
		<polyline clip-path="url(#SVGID_2_)" fill="none" stroke="#B37C34" stroke-width="0.4799" stroke-linecap="round" stroke-linejoin="round" stroke-miterlimit="3.85" points="
		363.136,353.55 375.134,354.03 384.732,354.51 394.331,354.75 403.929,355.23 413.527,355.471 423.125,355.71 442.322,356.19 
		451.92,356.431 454.319,356.431 460.079,356.671 461.518,356.671 469.677,356.911 490.073,357.15 498.472,357.391 499.431,357.391 
		500.631,357.391 501.831,357.391 514.309,357.631 514.548,337.709 514.548,337.469 514.548,336.988 514.548,336.029 
		514.548,329.788 514.548,323.547 514.548,323.307 514.548,319.467 514.548,319.227 514.548,318.267 514.789,316.827 
		514.789,316.586 514.789,314.906 515.028,315.146 515.028,315.387 515.269,315.626 515.508,315.626 516.708,316.586 
		517.428,316.827 517.908,316.827 518.148,317.067 518.388,317.307 519.348,317.547 521.507,318.507 522.227,318.507 
		524.626,318.026 526.546,316.827 527.746,316.827 528.946,316.586 529.186,316.827 532.305,318.747 532.545,318.987 
		534.465,320.667 536.384,321.867 537.584,321.867 539.024,322.107 538.544,323.547 538.304,324.987 540.224,333.868 
		540.224,335.789 541.903,343.949 541.903,344.43 543.583,346.59 543.583,357.631 545.743,357.631 548.382,370.592 548.382,371.552 
		548.382,371.792 547.663,372.272 547.902,372.752 547.663,373.952 548.143,375.393 547.902,375.633 547.422,375.873 
		546.942,376.353 546.703,377.073 547.422,378.753 547.422,379.713 547.422,379.953 547.422,380.673 547.422,381.153 
		547.663,382.354 547.902,382.593 549.102,383.313 549.582,383.553 550.062,384.273 550.542,384.753 551.022,385.474 
		551.022,385.954 551.502,386.434 552.222,386.674 552.941,386.914 553.661,387.394 554.381,387.874 554.381,388.114 
		554.621,388.354 554.861,388.594 555.101,388.834 555.341,389.074 556.781,389.314 557.5,389.074 557.98,389.314 558.46,389.554 
		558.94,390.754 559.18,390.754 559.9,390.754 561.1,390.994 561.58,391.234 562.78,391.234 563.739,391.234 564.219,391.474 
		565.179,391.954 565.659,391.714 566.139,391.474 566.859,390.994 567.339,390.514 567.339,390.034 567.579,389.794 
		567.819,389.794 568.539,389.794 569.738,389.794 570.218,389.794 570.698,389.794 571.418,390.274 572.378,390.514 
		573.098,390.754 574.297,390.514 575.737,389.794 576.457,390.034 576.937,390.274 577.657,390.514 578.137,390.994 
		578.857,391.234 579.336,391.474 579.336,391.954 579.816,392.435 579.816,392.914 580.057,393.395 579.577,395.075 
		579.577,395.314 580.057,395.794 580.296,396.035 580.296,396.275 581.256,396.275 581.976,396.515 582.696,396.515 
		583.656,396.515 584.616,396.515 586.055,396.755 586.775,396.995 588.215,396.995 589.175,397.235 590.375,397.235 
		591.094,396.995 591.574,397.235 592.774,397.235 593.014,396.995 593.494,396.995 593.734,397.235 593.974,397.235 
		594.454,397.235 595.174,397.235 595.654,397.475 596.134,397.475 597.813,397.235 598.293,397.235 599.013,397.715 
		599.973,397.955 600.933,397.955 601.173,397.955 601.652,398.435 602.373,398.435 603.572,398.675 604.532,398.435 
		604.532,398.195 604.772,398.195 606.691,398.675 607.171,398.675 609.331,398.675 609.811,398.675 610.051,398.915 
		610.291,398.915 610.531,399.155 611.011,400.595 611.251,400.835 611.251,401.075 611.491,401.555 611.491,401.795 
		611.73,402.515 612.21,403.715 612.451,404.195 612.451,404.436 612.69,405.396 612.451,406.116 612.451,406.836 612.21,407.556 
		612.21,408.036 612.21,408.276 612.21,408.516 611.73,408.996 611.73,409.236 611.73,409.476 611.73,409.716 611.971,410.196 
		612.21,410.436 612.931,410.676 613.17,410.916 613.41,411.396 614.13,411.396 615.09,411.396 615.81,411.156 616.29,411.396 
		616.53,411.396 617.25,411.156 617.49,411.156 617.729,411.156 617.97,411.156 618.449,411.156 618.689,411.156 618.929,411.156 
		619.169,411.156 619.409,411.156 619.649,410.916 619.889,411.156 620.129,411.156 620.849,411.396 621.089,411.396 
		622.289,411.156 623.488,411.156 624.448,411.156 624.688,410.916 624.928,410.436 625.168,409.956 625.408,409.716 
		625.648,409.476 625.888,409.476 626.128,409.956 626.368,410.436 626.848,410.436 627.088,410.676 627.088,410.436 
		627.328,410.436 627.568,410.436 627.808,409.956 628.288,409.716 628.528,409.716 629.248,409.956 630.447,409.716 
		631.647,409.716 632.127,409.716 632.847,409.236 633.807,409.236 634.046,408.996 635.006,408.276 636.446,408.036 
		637.406,407.796 637.646,407.796 637.886,407.316 638.126,406.836 638.366,406.116 638.126,405.636 638.126,405.396 
		637.886,404.676 637.646,403.235 637.646,402.996 637.646,402.755 638.606,402.515 639.565,402.515 639.806,402.275 
		640.045,402.035 640.286,401.795 640.525,401.555 641.245,401.075 641.725,400.835 641.965,400.835 642.205,400.835 
		642.205,401.075 642.445,401.315 642.685,401.315 642.925,401.315 643.645,401.075 644.365,401.075 644.845,400.835 
		645.084,400.115 645.564,400.355 645.805,400.355 645.805,400.115 645.805,399.875 646.044,398.915 646.044,398.675 
		646.284,398.675 653.003,396.995 656.362,396.995 658.282,398.435 658.522,398.915 658.762,398.915 661.161,398.675 
		665.24,398.435 672.68,398.675 675.079,397.715 675.318,397.955 675.318,400.355 676.759,400.595 678.438,401.555 679.398,401.795 
		691.876,407.796 696.915,406.836 698.595,407.316 699.314,409.476 699.314,409.956 699.314,410.436 699.074,410.916 
		699.074,411.156 699.074,411.396 699.314,411.636 699.074,411.876 698.595,412.116 697.875,411.876 697.395,411.876 
		696.676,412.356 694.996,412.356 694.035,412.596 693.796,413.796 693.315,414.997 693.315,415.237 693.076,416.197 
		694.996,418.117 696.676,418.597 697.395,419.077 703.153,418.357 706.033,417.637 707.713,417.396 708.193,417.396 
		709.393,419.077 709.633,419.317 709.873,419.557 710.113,419.557 710.113,419.797 710.113,420.037 710.593,420.757 
		712.032,421.237 712.032,422.677 710.593,425.798 711.313,427.958 712.032,429.878 712.512,430.598 713.473,432.038 
		713.712,432.519 713.712,432.758 714.191,433.238 714.432,432.999 714.672,433.238 715.392,434.198 716.111,435.879 
		716.831,437.559 717.071,438.039 717.312,438.759 717.552,439.239 717.552,439.479 717.552,439.719 717.791,439.719 
		717.791,439.959 717.791,440.199 718.031,440.439 718.271,440.679 718.271,440.919 718.271,441.399 718.751,442.119 
		718.991,442.359 719.471,442.119 720.19,441.399 720.431,441.159 720.91,441.159 721.15,440.919 721.391,440.679 721.631,440.919 
		722.11,440.439 722.351,440.439 723.07,440.199 725.47,439.719 726.189,439.239 725.949,438.279 724.75,437.319 724.27,436.599 
		724.511,436.119 724.27,436.119 724.27,435.879 723.79,434.679 724.27,432.758 723.311,431.798 723.551,431.078 724.27,430.838 
		724.511,428.678 726.43,427.478 729.549,427.958 729.789,427.958 729.789,428.438 730.749,428.198 730.509,428.198 
		730.509,427.958 730.749,427.478 731.469,427.718 731.469,427.958 731.709,427.958 732.669,427.478 732.669,427.238 
		732.669,426.998 733.868,426.278 735.068,426.038 735.308,426.998 739.147,426.998 739.627,427.238 740.107,426.758 
		741.066,426.518 741.787,426.518 742.267,427.718 742.507,427.718 742.507,427.958 742.267,428.198 742.507,429.158 
		743.227,429.398 743.706,430.118 745.866,430.598 745.146,433.238 745.146,434.438 745.626,435.159 745.626,436.839 
		746.826,437.319 747.546,438.759 747.785,438.759 747.785,438.999 748.025,438.999 748.266,438.759 748.266,438.519 
		748.266,438.279 748.266,438.039 749.226,438.039 749.465,438.279 749.706,438.519 749.706,438.759 749.706,438.999 
		749.226,439.239 749.226,439.479 749.226,439.719 749.226,439.959 749.226,440.199 749.465,440.199 749.706,440.199 
		749.945,440.199 750.186,440.439 750.426,440.439 750.665,440.199 750.905,439.959 751.386,439.959 752.105,439.719 
		752.345,439.479 753.064,439.479 753.064,439.719 753.305,439.719 754.024,439.479 754.744,440.679 755.944,441.639 
		756.424,442.839 757.624,442.6 758.104,442.6 758.584,442.6 758.823,442.6 760.023,442.359 760.023,442.6 760.503,442.839 
		761.223,443.319 761.463,443.319 761.703,443.319 761.943,443.799 762.183,443.799 762.423,443.56 763.623,443.319 
		763.863,443.319 764.103,442.839 764.343,442.839 764.582,443.319 764.823,443.56 765.303,443.56 765.303,442.839 765.543,442.839 
		767.462,443.56 767.702,444.04 767.702,444.52 767.702,444.76 766.982,445.479 766.982,445.72 766.742,446.68 766.982,446.68 
		767.223,446.44 767.941,446.44 768.182,446.44 768.182,447.88 768.182,448.36 767.941,448.6 768.422,449.32 768.662,449.32 
		768.902,449.56 768.902,449.8 768.662,450.76 768.422,451.72 768.182,451.96 767.941,452.44 767.941,452.68 768.662,452.92 
		769.382,452.44 769.382,452.2 770.102,451.96 770.102,452.44 769.621,453.16 770.342,453.4 770.581,453.4 770.822,453.4 
		771.302,453.4 771.541,453.4 771.541,452.92 772.261,452.68 772.502,452.92 772.261,453.16 773.221,454.601 775.141,453.88 
		777.061,453.88 778.02,453.4 779.22,453.16 779.699,453.641 778.5,454.841 778.261,457.721 778.5,458.681 778.261,459.641 
		778.98,460.361 780.66,459.161 784.739,457.481 786.419,457.481 787.378,457.241 787.858,457.241 787.619,457.721 788.338,458.921 
		788.338,459.161 788.578,459.401 789.058,459.401 790.258,458.681 791.938,458.441 792.657,457.481 793.377,457.001 
		793.857,457.241 794.817,456.521 795.537,456.521 795.777,456.761 796.257,456.761 796.497,456.761 796.497,456.521 
		796.736,456.521 797.456,456.281 797.697,456.281 798.416,456.281 799.377,456.281 800.336,455.561 801.057,455.561 
		802.256,454.841 803.216,453.641 803.936,453.16 804.896,452.68 806.575,450.28 807.055,450.52 807.535,450.04 808.975,448.36 
		810.174,447.4 810.174,447.16 810.174,446.92 810.174,446.68 811.614,446.2 811.614,445.96 811.854,445.479 812.334,445.24 
		813.054,445 813.533,444.76 813.773,444.279 814.253,443.799 814.494,444.04 814.733,444.04 815.453,443.799 815.693,443.319 
		816.173,443.08 817.133,442.839 817.613,442.6 817.613,442.839 817.854,442.839 818.573,442.6 818.573,442.359 819.293,441.639 
		820.013,441.399 820.013,441.159 821.932,439.239 825.531,437.799 826.252,437.799 826.971,437.079 827.451,436.599 
		828.411,436.119 828.891,436.599 829.37,436.839 829.851,436.839 831.29,436.119 831.53,436.119 832.011,436.599 832.011,437.079 
		832.011,437.799 832.011,438.039 832.49,440.679 832.49,442.119 832.49,443.56 832.73,443.799 833.21,443.319 833.21,442.839 
		833.21,442.6 833.45,442.6 833.689,442.839 833.689,443.08 834.41,443.08 834.89,443.319 835.13,444.76 835.369,445.24 836.33,445 
		836.33,444.76 836.569,444.52 836.81,444.76 837.049,445 836.81,445.479 836.81,446.44 836.33,446.68 835.61,447.4 835.369,447.64 
		835.61,447.88 835.85,447.88 836.09,447.88 836.33,448.12 836.09,448.6 836.33,448.84 836.569,448.84 837.049,449.08 
		837.049,449.32 837.29,449.56 837.29,449.8 837.77,449.8 837.77,450.52 838.249,451.72 838.249,451.96 839.209,452.68 
		839.929,452.2 842.568,451.96 843.769,451.48 847.127,451 848.327,450.04 848.807,450.04 849.048,449.8 849.768,449.32 
		850.728,449.32 850.967,449.08 851.447,448.6 851.687,448.36 851.927,448.84 852.406,448.6 852.646,448.6 853.127,448.6 
		853.366,449.08 852.406,450.28 852.646,451 852.887,451.24 853.606,451.48 856.485,451 856.966,451.24 856.966,451 857.205,451 
		857.926,451 857.926,450.76 858.165,450.76 858.405,451 858.646,451 858.886,450.76 859.125,450.52 859.365,450.04 859.846,450.04 
		860.085,449.8 860.325,449.8 861.285,450.04 861.525,450.28 861.765,450.52 862.244,450.76 864.404,450.04 864.885,450.04 
		865.604,450.52 865.844,450.52 866.084,450.52 866.084,451 866.324,451 866.324,451.24 867.044,451.48 867.044,451.24 867.283,451 
		867.523,451 868.483,450.76 868.963,451 869.203,451 869.203,450.76 869.443,450.76 869.684,450.76 869.684,450.28 870.163,450.04 
		871.123,449.8 871.604,449.56 872.083,449.56 872.563,449.8 873.043,450.28 873.283,450.28 874.242,449.56 874.963,449.56 
		875.922,449.8 877.362,449.08 878.082,448.84 878.563,449.08 879.042,449.08 880.242,448.84 880.722,448.84 881.441,448.36 
		882.401,448.6 883.36,448.36 883.841,448.36 884.081,448.12 884.561,448.12 884.801,448.12 885.04,448.6 885.281,448.6 
		885.521,448.6 885.521,448.84 886,448.84 887.92,448.84 889.12,449.08 890.319,449.56 891.04,450.04 891.279,450.04 891.52,450.04 
		891.76,450.28 892.479,450.52 892.959,450.76 893.439,452.2 893.68,452.68 894.159,452.44 895.119,453.641 895.359,454.601 
		895.359,455.321 895.359,456.041 895.359,456.521 895.599,456.761 895.839,457.241 896.078,457.241 896.318,457.001 
		896.798,457.241 897.039,457.721 897.519,458.201 897.998,458.201 898.479,458.441 898.719,457.961 899.918,457.961 
		900.158,458.201 900.158,458.681 900.397,458.921 901.117,459.641 901.598,460.121 901.598,460.361 901.838,460.361 
		902.317,460.361 902.558,460.601 902.797,460.841 903.037,461.081 903.757,461.081 904.237,461.081 904.717,461.081 
		904.957,461.081 904.957,460.841 905.197,460.601 906.637,460.121 906.877,459.641 906.877,459.161 907.117,459.161 
		907.597,459.401 907.836,459.401 908.316,458.201 908.557,457.721 909.516,457.241 909.516,457.721 910.235,457.481 
		910.235,457.241 910.477,457.241 911.195,457.241 911.436,457.001 911.915,456.761 912.636,456.521 913.596,456.521 
		914.075,456.521 914.075,456.761 914.315,456.761 914.555,456.761 914.555,456.521 915.035,456.761 915.515,456.761 
		915.755,456.521 915.755,456.761 915.755,457.001 915.515,457.001 915.515,457.481 915.755,457.241 915.995,457.001 
		916.234,457.001 916.234,457.721 916.475,457.721 916.715,457.721 916.955,457.721 916.955,457.961 917.194,458.201 
		917.435,458.201 918.154,457.481 918.395,457.481 918.395,457.721 918.635,457.721 918.875,457.481 919.114,457.481 
		919.354,457.481 919.594,457.481 919.594,457.721 919.834,457.721 920.074,457.721 920.074,457.481 920.555,457.481 
		920.794,457.721 921.034,457.961 921.034,458.201 921.273,458.201 921.273,457.961 921.514,457.961 921.754,457.961 
		921.994,457.961 921.994,458.201 922.234,457.961 921.994,457.721 921.994,457.481 922.953,457.241 923.193,457.241 
		923.434,457.241 923.674,457.001 923.674,456.761 923.914,456.521 924.153,456.521 924.153,457.001 924.153,457.241 
		924.394,457.721 924.633,457.721 925.354,457.721 925.594,458.201 925.833,458.201 926.073,458.201 926.073,458.681 
		926.313,458.681 927.033,458.441 927.513,457.961 933.031,456.281 932.792,457.241 932.792,457.481 932.552,457.721 
		931.832,457.961 929.192,458.921 928.473,459.641 928.473,460.361 928.473,460.841 927.753,461.321 927.272,461.801 
		926.073,462.042 925.354,461.562 924.394,460.601 924.153,460.601 923.914,460.361 923.193,460.361 922.714,460.601 
		922.234,461.321 922.234,462.042 922.234,463.001 922.474,463.481 922.234,463.722 921.034,463.961 920.794,463.961 
		919.114,464.682 918.154,465.162 916.955,466.122 915.755,467.082 915.275,468.042 914.315,468.762 913.835,469.242 
		913.115,469.722 911.195,471.162 909.036,472.362 908.797,472.362 907.836,472.842 907.597,473.083 906.877,473.322 
		906.637,473.322 905.917,473.322 905.677,473.322 905.438,473.322 902.077,474.763 901.838,475.002 901.357,475.482 
		901.598,476.203 901.357,476.203 901.117,476.683 900.878,476.683 900.397,477.163 898.238,478.603 897.758,478.843 
		895.359,479.803 893.199,480.283 892.719,480.523 892.479,480.523 891.279,481.003 891.04,481.243 891.04,481.483 890.8,481.963 
		890.319,481.963 889.84,482.203 889.12,482.443 887.68,483.164 886.721,483.164 886.48,483.164 884.801,483.403 884.561,483.403 
		884.561,483.644 883.121,484.364 882.641,485.324 880.722,485.563 879.521,485.563 878.082,486.044 877.362,486.524 
		877.122,486.524 876.162,487.004 874.723,487.724 874.003,487.964 873.283,488.204 873.043,488.204 872.803,488.444 
		872.563,488.444 872.323,488.684 872.083,488.684 872.083,489.404 871.363,489.404 871.123,489.404 870.883,489.404 
		870.163,489.644 869.684,489.644 868.004,490.124 867.523,490.364 865.364,490.844 864.165,491.324 863.924,491.804 
		862.725,492.524 860.085,493.484 858.405,494.205 858.165,494.445 857.445,494.685 856.966,494.925 856.006,496.365 
		853.606,497.565 851.687,498.525 849.768,499.965 849.527,499.965 849.527,500.205 849.048,500.445 846.168,501.885 
		844.248,503.085 843.528,503.565 842.568,504.286 840.408,505.966 838.729,507.406 836.569,509.086 836.33,509.326 835.85,509.806 
		835.369,510.046 833.689,511.486 832.97,511.966 832.73,512.446 832.011,513.167 830.091,514.847 830.091,515.087 830.091,515.567 
		829.61,516.047 829.37,516.287 829.131,516.287 828.891,516.287 828.65,516.527 827.932,517.007 827.69,517.247 826.011,518.687 
		825.291,519.407 825.052,519.647 823.853,520.847 823.372,521.087 822.173,522.527 821.932,522.768 821.213,523.488 
		820.492,523.728 820.252,523.728 820.013,523.968 819.053,525.168 818.813,525.888 817.854,526.848 816.894,528.288 
		816.413,528.528 815.933,528.768 814.253,530.208 814.014,530.928 812.814,532.369 812.573,532.369 812.573,532.608 
		812.334,532.608 812.094,532.608 	"/>
	
		<polyline clip-path="url(#SVGID_2_)" fill="none" stroke="#B37C34" stroke-width="0.4799" stroke-linecap="round" stroke-linejoin="round" stroke-miterlimit="3.85" points="
		812.094,532.608 811.854,533.088 811.135,534.049 810.894,535.009 810.414,536.209 810.174,536.209 810.174,536.449 
		809.935,536.929 808.734,538.129 808.734,538.369 808.015,538.849 806.335,541.009 806.335,541.25 806.095,541.25 805.855,541.969 
		805.615,542.45 805.615,542.689 805.136,543.41 804.655,543.89 804.415,543.89 804.176,544.13 803.216,545.09 802.735,545.57 
		802.495,545.81 801.296,547.25 800.096,548.45 799.377,549.65 799.136,550.13 798.896,550.13 798.416,551.09 798.177,551.57 
		797.937,551.57 797.697,552.291 796.736,553.011 796.497,553.25 796.257,553.73 795.777,554.451 794.817,554.931 794.338,555.411 
		794.098,555.651 793.377,556.131 792.418,557.571 791.698,558.291 790.979,559.251 790.738,559.731 790.498,559.971 
		789.058,561.412 787.619,561.892 787.139,562.372 786.898,562.372 786.179,563.572 785.939,563.572 784.739,564.292 
		784.019,564.532 782.819,565.252 781.859,565.732 781.14,567.412 780.66,568.132 779.939,568.612 779.699,568.612 779.699,568.852 
		779.22,569.092 778.02,570.292 777.78,570.772 777.78,571.012 777.54,571.012 777.54,571.252 777.301,571.252 777.301,571.493 
		776.82,572.933 775.62,573.653 775.62,573.893 775.141,574.373 774.182,574.853 773.701,574.853 772.981,575.093 772.502,575.333 
		770.342,577.493 770.102,577.973 768.182,580.133 768.182,580.374 767.941,580.374 766.982,581.573 766.982,582.054 
		766.022,582.773 765.782,582.773 764.823,583.494 763.383,584.214 762.902,584.214 762.423,584.454 760.023,586.374 
		759.304,586.854 758.823,587.094 757.624,588.534 756.904,589.254 756.424,589.494 756.424,589.734 754.024,591.174 
		751.625,593.334 750.665,594.535 750.186,594.775 749.706,595.015 748.745,595.735 748.506,595.975 748.025,596.215 
		747.546,596.695 746.826,597.415 746.346,597.655 746.106,597.895 746.106,598.375 745.626,598.615 744.906,599.095 
		744.666,599.095 744.187,599.575 743.706,600.055 743.706,600.295 743.946,601.255 744.187,601.735 746.106,604.856 
		748.985,608.696 749.945,609.176 749.465,609.417 749.226,609.176 748.506,608.937 747.785,608.216 746.106,606.536 
		745.626,606.056 744.187,604.616 742.746,604.616 742.027,604.616 741.307,605.096 740.348,605.816 740.107,606.296 
		740.107,607.016 740.348,607.256 739.867,607.976 739.867,608.216 739.627,608.456 739.147,608.456 738.188,607.976 
		737.948,608.216 737.707,608.216 737.468,608.216 736.508,608.216 736.508,608.456 736.269,608.937 736.027,609.417 
		735.788,609.656 735.548,609.656 735.308,609.896 735.548,610.376 736.027,610.616 737.228,610.616 737.468,611.097 
		737.707,611.336 737.707,611.577 737.707,612.057 737.228,612.296 736.748,612.537 736.508,612.777 736.027,613.497 
		735.548,613.977 735.548,614.217 735.788,614.697 735.788,614.937 735.788,615.177 735.548,615.417 735.068,615.657 
		734.828,615.657 734.108,615.417 733.868,615.417 733.389,615.897 732.669,615.897 731.709,614.937 731.469,614.937 
		730.989,615.657 730.509,615.897 730.509,615.657 730.269,614.937 730.028,614.937 729.549,614.937 729.309,614.697 
		729.309,614.457 729.309,613.977 729.069,613.977 728.829,614.217 728.829,614.457 729.069,615.417 729.069,618.777 
		729.069,620.938 729.069,621.897 729.069,622.377 729.309,628.858 729.309,629.098 729.309,631.979 729.309,632.938 
		729.309,634.859 729.549,639.899 729.549,641.339 729.549,641.58 729.789,650.94 729.789,651.181 729.789,652.141 729.789,652.381 
		729.789,652.86 729.789,653.101 729.789,653.82 729.789,654.061 729.789,654.781 729.789,655.021 729.789,655.981 730.028,658.861 
		730.028,660.781 730.028,662.941 730.028,667.742 730.269,669.183 730.269,670.383 730.269,675.184 730.269,679.023 
		730.509,679.504 730.028,679.744 729.549,679.744 728.59,679.983 728.59,680.224 727.869,680.464 727.629,680.703 727.39,680.943 
		727.39,681.184 727.149,681.184 727.149,682.144 727.149,682.384 726.91,682.864 726.669,683.104 726.669,683.344 726.669,684.064 
		726.669,684.784 726.43,685.023 726.189,685.265 726.189,685.504 726.189,685.744 726.189,685.984 725.71,686.465 725.23,686.465 
		724.511,686.225 723.79,685.984 723.07,685.744 721.631,685.023 721.391,685.023 720.671,685.023 720.19,685.265 719.711,685.744 
		719.231,686.225 718.991,686.704 718.991,686.944 718.511,687.664 718.511,687.904 718.271,688.145 718.271,688.385 
		718.271,688.864 718.031,689.104 717.552,689.344 717.552,689.585 717.552,689.824 717.552,690.064 717.791,690.305 
		717.552,690.544 717.071,691.024 716.831,691.024 716.352,691.024 715.871,690.785 715.632,690.785 715.392,690.785 
		715.152,690.544 714.672,690.305 713.473,690.064 713.231,689.824 712.992,689.824 712.752,690.064 712.512,690.064 
		711.793,690.544 711.313,691.505 711.072,691.505 711.072,691.744 710.832,692.465 711.072,692.944 710.832,693.425 
		710.113,693.665 709.393,693.905 709.152,693.905 708.673,694.145 707.953,694.625 706.993,694.865 706.514,695.105 
		706.273,695.346 706.033,695.585 705.554,695.346 705.073,695.825 704.834,695.825 704.354,695.585 704.114,695.585 
		704.114,695.825 704.354,696.545 704.114,696.545 702.914,696.785 702.674,696.785 701.715,697.745 701.474,697.985 
		701.234,698.226 701.474,698.706 700.994,698.945 700.754,698.945 700.515,699.186 700.274,699.426 699.555,699.905 
		699.314,699.905 699.074,699.905 699.074,700.146 698.595,700.386 697.875,701.346 696.915,703.026 696.915,703.506 
		696.915,703.985 696.915,704.227 696.676,705.427 696.195,705.906 695.955,706.146 695.235,706.626 694.996,706.626 
		694.996,706.866 694.756,707.347 694.756,707.586 694.756,707.826 694.996,708.307 694.996,708.547 694.996,708.787 
		695.235,709.267 695.235,709.986 695.235,710.227 694.996,710.467 694.516,710.947 694.275,711.187 693.796,711.666 
		693.796,711.906 693.556,712.627 693.556,713.587 693.315,714.547 693.315,714.787 692.356,715.747 691.876,715.987 
		691.876,716.228 691.876,716.468 691.636,716.468 691.636,716.707 691.396,716.707 691.396,716.947 691.156,716.947 
		690.916,717.188 690.196,717.668 689.956,718.147 689.716,718.147 689.477,718.147 688.996,718.387 688.757,718.627 
		688.517,718.627 688.277,718.627 688.277,719.107 688.036,719.348 687.316,719.348 687.077,719.588 686.837,719.827 
		686.837,720.067 686.837,720.548 686.598,721.748 686.837,722.228 686.356,722.948 686.356,724.628 686.117,725.588 
		685.877,726.309 685.877,726.788 685.637,727.748 685.637,727.988 685.637,728.229 685.637,728.469 685.637,728.709 
		685.637,728.948 685.637,729.188 685.637,729.669 685.637,730.148 685.637,730.629 686.117,731.349 686.117,731.828 
		685.877,732.309 685.877,733.029 685.877,733.509 686.117,733.989 685.877,735.189 686.117,735.669 686.117,735.909 
		687.077,736.39 688.996,736.629 689.236,736.629 689.956,736.869 690.677,737.109 691.156,737.109 691.636,737.109 
		692.356,736.869 693.315,736.39 693.556,736.39 694.275,736.149 694.516,736.149 694.756,736.39 695.235,736.629 695.955,737.35 
		695.955,737.59 696.195,737.59 696.436,737.83 696.676,737.83 697.155,738.31 697.875,738.79 698.355,739.27 698.355,739.51 
		698.355,739.75 698.114,740.949 698.355,741.67 698.355,742.15 698.595,742.39 699.074,742.87 699.555,743.35 700.274,744.551 
		700.515,745.03 700.754,745.511 700.994,745.99 701.234,746.23 701.234,746.471 701.474,746.71 701.715,746.95 701.715,747.19 
		701.954,747.67 702.194,747.67 703.634,748.15 704.114,748.631 704.594,749.831 704.594,750.07 704.594,750.551 704.594,751.271 
		704.594,751.751 704.594,752.231 704.594,752.471 704.594,752.951 704.834,752.951 704.834,753.191 704.594,753.911 
		704.594,754.391 704.594,754.871 703.874,755.111 703.394,755.352 703.153,755.831 702.914,756.312 702.674,756.552 
		702.434,756.791 702.434,757.271 702.434,757.511 702.434,757.752 700.994,758.711 700.515,759.432 700.515,759.672 
		700.515,759.912 700.754,761.111 700.754,761.352 700.754,761.592 700.754,761.832 700.754,762.072 700.515,762.792 
		700.035,763.512 698.595,764.712 698.355,765.432 698.114,765.432 697.875,765.673 697.395,766.393 696.915,766.632 
		696.195,766.873 696.195,767.112 695.955,767.353 695.955,767.593 696.195,768.313 696.436,768.553 696.915,769.272 
		696.915,769.513 696.915,769.993 696.676,770.713 696.436,770.952 696.195,771.433 696.436,772.633 696.436,773.593 
		696.676,774.073 696.915,774.313 696.915,774.553 696.915,774.793 696.915,775.033 696.915,775.514 696.436,775.754 
		696.195,776.233 696.195,776.473 695.955,777.434 695.955,777.914 695.955,778.634 695.955,778.873 696.676,779.354 
		696.915,779.834 697.155,779.834 697.155,780.073 696.915,780.073 696.676,780.794 696.676,781.273 696.676,781.754 
		696.676,782.234 697.395,783.674 697.635,785.354 697.875,785.835 698.114,785.835 698.114,786.074 698.114,786.314 
		698.114,786.555 697.875,787.034 697.635,787.274 696.915,787.515 696.195,788.475 695.476,789.194 694.756,789.915 
		694.516,790.155 694.275,790.155 694.035,790.395 693.556,791.355 693.315,791.595 693.315,791.835 693.315,792.314 
		693.315,792.795 693.796,793.275 693.796,793.515 694.035,793.755 694.516,794.235 694.756,794.235 695.235,794.715 
		695.476,794.955 695.715,795.195 695.955,795.195 696.436,795.915 696.676,796.396 696.676,796.636 696.436,796.876 
		696.436,797.115 696.436,797.355 696.436,797.596 696.195,798.076 695.955,798.556 695.955,798.795 695.955,799.756 
		695.955,799.996 696.195,800.235 695.955,800.956 695.955,801.195 695.955,801.436 696.195,801.916 696.195,802.156 
		696.195,802.396 696.195,802.636 696.915,802.876 696.915,803.116 697.395,803.836 697.395,804.557 697.395,804.797 
		697.635,805.276 697.635,805.516 697.635,805.996 697.635,806.717 697.395,807.916 697.155,808.877 697.155,809.117 
		696.915,809.356 696.436,809.597 695.955,809.837 695.955,810.077 695.955,810.317 695.955,810.557 695.955,810.797 
		695.955,811.277 696.195,811.997 696.676,812.717 696.915,812.957 696.676,813.197 696.436,813.677 696.436,814.157 
		696.436,814.637 696.436,815.117 696.436,815.357 696.676,816.558 696.676,817.038 696.676,817.277 696.436,817.518 
		696.436,817.757 696.195,817.998 696.195,818.238 696.195,818.478 696.195,818.718 695.715,819.678 695.476,819.678 
		695.476,819.918 695.476,820.157 695.476,821.357 695.235,822.078 694.996,822.559 694.516,823.278 694.035,823.758 
		693.796,824.719 693.556,825.198 693.556,825.678 693.556,826.639 693.796,826.878 694.035,827.119 694.035,827.358 
		694.996,828.078 695.235,828.078 695.955,828.318 695.955,828.559 696.915,828.799 697.635,829.519 697.875,829.759 
		698.114,829.759 699.074,830.239 699.555,830.479 701.234,831.919 702.194,832.879 702.434,833.359 702.674,833.359 
		703.153,834.079 704.354,835.279 704.594,835.52 705.073,836 705.313,836.239 705.794,836.719 707.713,837.68 708.434,838.64 
		708.673,839.119 708.673,839.84 708.434,840.319 708.434,840.8 708.434,841.04 708.434,841.28 708.673,841.52 708.913,841.52 
		709.152,841.76 709.633,841.52 710.113,841.76 711.072,842.24 711.072,842.72 711.313,842.72 711.313,842.96 711.552,842.96 
		711.793,842.96 712.032,842.48 712.272,842.48 712.512,842.48 712.752,842.48 712.752,842.72 713.473,843.439 714.191,844.881 
		714.432,845.36 714.191,845.601 714.191,845.84 714.191,846.081 714.191,846.32 714.432,846.32 714.432,846.561 714.672,846.561 
		714.911,846.561 715.152,846.561 715.152,846.32 715.392,846.32 715.632,846.081 716.111,845.84 716.591,845.601 716.831,845.601 
		717.312,845.84 717.312,846.081 717.552,846.081 718.031,846.32 718.511,846.561 718.751,846.561 718.991,846.561 719.231,846.561 
		719.471,846.32 719.711,846.32 720.431,846.561 720.671,846.561 721.391,846.801 721.871,847.04 722.831,846.801 723.551,846.561 
		723.79,846.561 724.03,846.561 724.511,846.801 724.75,847.04 724.989,847.04 725.71,847.04 725.949,847.281 726.189,847.281 
		726.43,847.281 726.91,847.281 727.149,847.281 728.109,847.04 728.59,847.04 729.309,847.04 729.549,847.04 730.269,847.281 
		731.229,847.521 731.709,848.001 732.429,848.48 732.669,848.721 732.669,848.961 732.908,848.961 732.908,849.201 733.148,849.44 
		733.389,850.401 733.628,850.881 733.868,851.36 733.868,851.602 733.868,852.802 733.868,853.041 734.108,853.281 
		734.108,853.521 734.348,854.001 734.348,854.241 734.588,854.241 734.588,854.481 734.828,854.722 735.068,854.961 
		735.068,855.201 735.788,855.922 736.027,856.401 737.228,857.361 738.428,857.842 738.668,858.081 738.907,858.322 
		739.147,858.802 739.387,859.041 739.627,859.281 740.587,860.002 741.066,860.002 742.746,860.481 743.227,860.722 
		744.666,861.202 745.146,861.202 745.386,861.202 747.065,861.442 748.266,861.682 748.506,861.922 748.985,862.402 
		749.226,862.402 749.465,862.643 750.186,862.882 750.426,862.882 750.665,862.882 751.386,863.122 751.625,863.362 
		752.105,863.603 752.585,863.603 753.305,863.603 753.785,863.843 754.024,863.843 754.504,864.322 754.504,864.563 
		754.744,864.563 755.225,865.282 756.664,866.002 756.904,866.002 757.624,866.243 757.864,866.243 758.104,866.482 
		758.344,866.723 758.823,866.963 759.304,867.202 759.544,867.442 760.023,867.442 760.264,867.442 760.503,867.442 
		760.503,867.683 760.743,867.683 760.983,867.683 760.983,867.923 761.223,867.923 761.703,868.402 762.183,868.883 
		762.423,869.363 763.144,870.323 763.623,870.563 764.103,870.803 764.343,871.043 764.823,872.003 765.063,872.243 
		765.063,872.723 765.303,873.443 765.303,873.684 765.303,873.923 764.823,874.644 764.582,875.123 764.582,875.363 
		764.582,875.604 764.582,875.844 764.823,876.084 765.063,876.323 766.022,876.804 766.262,876.804 766.262,877.044 
		766.742,877.284 766.982,877.523 766.982,877.764 766.982,878.484 766.982,878.724 766.982,878.964 767.462,879.443 
		767.702,879.684 767.702,879.924 767.702,880.164 767.702,880.404 767.702,880.644 767.223,881.844 767.223,882.324 
		767.462,882.805 768.422,884.005 768.662,884.244 768.662,884.724 768.662,884.965 768.662,885.205 768.662,885.444 
		768.902,885.685 769.142,885.924 769.621,886.165 770.102,886.404 770.342,886.645 770.822,886.885 771.062,887.124 
		771.302,887.364 771.541,887.364 771.781,887.604 772.261,887.845 772.502,888.085 773.461,889.525 774.182,890.005 
		775.141,890.485 777.061,891.205 777.54,891.686 778.02,892.165 778.5,892.405 778.74,892.645 778.98,892.645 780.18,892.645 
		780.42,892.886 781.14,893.125 781.379,893.125 782.1,894.085 782.34,894.325 782.34,895.045 782.34,895.766 782.58,896.006 
		783.539,896.485 783.779,896.485 784.26,896.485 784.499,896.485 784.979,896.966 785.219,897.206 785.459,897.445 
		785.698,897.686 785.939,897.926 786.179,898.406 786.419,899.126 786.658,899.365 786.658,899.606 786.898,899.606 
		787.139,899.846 787.378,900.086 787.619,900.326 787.858,900.086 788.099,900.326 788.338,900.326 788.578,900.565 
		788.818,900.807 789.058,901.046 789.298,901.286 789.538,901.286 790.019,901.526 790.498,901.766 790.738,902.006 
		790.738,902.246 790.979,902.246 790.979,902.486 791.218,902.727 791.218,902.967 791.458,903.206 791.458,903.446 
		791.938,903.446 791.938,903.686 792.178,903.686 792.418,903.927 792.657,904.166 792.897,904.166 793.377,904.166 
		793.617,904.166 794.577,904.166 795.537,904.646 796.736,904.646 797.456,904.646 798.656,904.886 799.136,904.886 
		799.856,905.366 800.815,905.847 801.057,905.847 801.775,905.606 802.256,905.847 802.735,906.086 803.216,906.327 
		803.695,906.327 804.176,906.566 804.415,906.566 804.415,906.807 804.655,906.807 804.896,907.047 804.896,907.286 
		805.375,908.007 805.375,908.247 805.375,908.486 805.615,908.486 806.575,909.447 806.575,909.927 806.814,910.406 
		807.055,910.647 808.015,911.127 808.494,911.367 808.734,911.606 809.694,912.567 810.174,913.287 810.414,913.527 
		810.414,913.768 810.654,914.487 811.135,915.447 811.135,915.688 811.614,915.928 811.854,916.168 812.094,916.407 
		812.334,916.888 812.334,917.127 812.334,917.368 812.573,917.607 812.814,917.607 812.814,917.848 813.533,918.088 
		814.014,918.568 814.253,918.568 814.253,918.808 814.494,919.288 814.733,919.769 814.733,920.008 814.974,920.969 
		815.693,921.688 815.933,921.928 815.933,922.168 816.173,922.168 816.653,922.648 817.133,923.128 817.373,923.608 
		817.854,924.089 817.854,924.809 817.854,925.048 818.093,925.528 818.333,926.248 818.333,926.729 818.813,927.929 
		819.053,928.169 819.293,929.129 819.293,929.369 819.532,929.369 820.013,930.089 820.732,931.049 820.732,931.289 
		820.492,932.01 820.013,934.409 820.013,935.609 820.013,935.85 820.013,936.09 819.772,936.569 819.772,936.81 819.532,937.29 
		819.293,937.77 819.053,938.25 819.293,939.931 819.053,940.17 818.813,941.851 818.813,943.051 818.813,943.29 819.053,944.251 
		819.053,944.49 819.532,944.971 819.772,945.21 819.772,945.451 819.772,945.69 819.772,946.17 819.293,947.371 819.532,948.811 
		819.772,949.291 820.013,949.771 820.252,950.011 820.492,950.251 820.732,950.251 820.973,950.491 821.452,950.972 
		821.932,951.451 822.173,951.69 822.412,951.932 822.412,952.172 822.652,952.411 822.652,952.891 822.652,953.131 
		822.652,953.371 822.652,954.091 822.412,954.571 	"/>
	
		<polyline clip-path="url(#SVGID_2_)" fill="none" stroke="#B37C34" stroke-width="0.4799" stroke-linecap="round" stroke-linejoin="round" stroke-miterlimit="3.85" points="
		822.412,954.571 821.932,955.291 821.932,955.531 821.692,955.771 821.692,956.012 821.692,956.252 821.692,956.972 
		822.412,957.692 822.652,958.652 822.893,958.893 823.372,959.132 823.372,959.372 823.611,959.372 823.853,959.611 
		824.092,959.853 824.092,960.332 824.092,961.292 821.692,961.292 821.213,961.292 820.492,961.292 818.813,961.292 
		818.093,961.532 811.854,961.772 811.614,961.772 811.135,961.772 809.455,961.772 806.095,962.012 805.615,962.012 
		804.415,962.012 804.176,962.012 802.016,962.012 798.656,962.252 797.937,962.252 797.217,962.252 794.098,962.252 
		792.418,962.252 791.938,962.492 791.938,962.252 791.698,962.492 791.218,962.492 790.498,962.492 790.019,962.492 
		789.538,962.492 789.058,962.492 788.578,962.492 787.619,962.492 785.219,962.492 782.819,962.732 782.58,962.732 782.34,962.732 
		782.1,962.732 780.18,962.732 778.98,962.732 778.74,962.732 778.02,962.732 776.82,962.732 776.581,962.973 775.141,962.973 
		773.221,962.973 772.981,962.973 771.541,962.973 765.782,963.213 765.063,963.213 763.863,963.213 763.623,963.213 
		763.383,963.213 762.902,963.213 760.264,963.452 754.744,963.452 753.785,963.452 752.824,963.452 746.586,963.692 
		745.146,963.692 744.187,963.692 738.668,963.933 736.269,963.933 735.548,963.933 734.588,963.933 732.429,964.173 
		731.469,964.173 730.749,964.173 729.789,964.173 728.349,964.173 728.109,964.173 725.949,964.173 724.989,964.173 
		723.79,964.413 717.791,964.413 716.591,964.413 715.392,964.413 708.913,964.652 708.434,964.652 706.993,964.652 
		705.554,964.652 705.313,964.652 704.114,964.652 700.515,964.893 697.395,964.893 695.955,964.893 694.275,964.893 
		691.156,965.132 689.477,965.132 688.277,965.132 687.077,965.132 686.356,965.132 684.677,965.132 682.277,965.132 
		679.878,965.132 678.678,965.132 676.759,965.373 672.439,965.373 669.32,965.373 668.6,965.373 666.92,965.373 664.521,965.373 
		662.361,965.373 662.121,965.373 659.722,965.613 658.762,965.613 657.322,965.613 656.603,965.613 652.283,965.613 
		650.123,965.613 648.444,965.613 647.724,965.613 646.044,965.613 642.925,965.613 642.445,965.613 642.205,965.613 
		641.725,965.613 641.245,965.853 640.525,965.853 638.126,965.853 637.886,965.853 635.726,965.853 634.287,965.853 
		630.927,965.853 628.288,965.853 624.208,965.853 623.968,965.853 623.488,965.853 623.009,965.853 621.569,965.853 
		618.689,965.853 616.77,965.853 616.53,965.853 611.971,965.853 609.091,965.853 602.373,966.093 599.493,965.853 594.694,965.853 
		593.734,965.853 593.014,965.853 592.534,965.853 592.294,965.853 591.574,965.853 591.334,965.853 589.895,965.853 
		588.215,965.853 583.416,965.853 580.296,965.853 574.058,965.853 570.458,965.853 569.738,965.853 568.778,965.853 
		564.459,965.853 564.219,965.853 562.3,965.853 560.38,965.853 554.861,965.853 554.621,965.853 550.782,965.853 550.542,965.853 
		545.503,965.853 544.303,965.853 540.944,965.853 535.905,965.853 532.545,965.613 532.065,965.613 531.345,965.613 
		531.105,965.613 530.866,965.613 529.906,965.613 529.666,965.613 528.706,965.613 526.546,965.613 524.867,965.613 
		523.187,965.613 521.747,965.613 520.067,965.613 518.388,965.613 516.948,965.613 515.269,965.613 512.149,965.613 
		510.469,965.613 509.75,965.613 507.35,965.613 507.11,965.613 506.15,965.373 505.19,965.373 504.95,965.373 502.311,965.373 
		499.911,965.373 499.431,965.373 497.992,965.373 493.432,965.373 492.712,965.373 489.353,965.373 488.393,965.373 
		484.794,965.132 484.554,965.132 483.114,965.132 481.435,965.132 480.475,965.132 479.035,965.132 478.075,965.132 
		473.516,965.132 469.437,965.132 467.757,964.893 467.277,964.893 464.638,964.893 463.678,964.893 460.079,964.893 
		459.838,964.893 454.08,964.652 453.6,964.652 452.4,964.652 450.24,964.652 444.481,964.413 440.882,964.413 440.642,964.413 
		439.442,964.413 437.763,964.413 434.883,964.413 431.284,964.173 425.285,964.173 423.125,963.933 422.405,963.933 
		421.925,963.933 418.806,963.933 417.126,963.933 415.687,963.692 412.567,963.692 412.327,963.692 410.888,963.692 
		403.209,963.452 402.729,963.452 402.969,954.571 402.969,953.852 402.969,953.611 402.969,951.69 402.969,951.451 
		403.209,944.251 403.209,942.57 403.449,934.409 403.449,931.289 403.688,929.849 403.688,924.809 403.929,921.928 
		403.929,921.688 403.929,915.447 403.929,915.207 403.929,913.768 404.168,913.768 404.168,911.848 404.168,910.647 
		404.168,910.406 404.168,908.967 404.168,908.727 404.168,907.527 404.168,907.286 404.168,905.847 404.168,905.606 
		404.168,905.366 404.409,904.166 404.409,903.927 404.649,896.006 404.889,886.404 404.889,881.604 405.128,880.164 
		405.128,879.924 405.128,878.484 405.128,878.244 405.128,877.044 405.128,876.804 405.128,876.563 405.128,875.363 
		405.128,875.123 405.128,873.684 405.368,873.684 405.368,872.243 405.368,872.003 405.368,870.563 405.368,870.323 
		405.368,870.083 405.368,869.123 405.368,868.402 405.368,867.202 405.368,865.762 405.608,865.043 405.608,862.643 
		405.608,859.522 405.849,857.602 405.849,857.361 405.849,856.161 405.849,855.922 405.849,854.722 405.849,852.321 
		405.849,851.121 405.849,849.921 406.088,848.24 406.088,848.001 406.329,838.64 406.329,838.399 406.568,832.159 406.568,830.479 
		406.568,828.799 406.568,824.238 406.808,823.998 406.808,822.559 406.808,821.357 406.808,820.878 406.808,820.638 
		406.808,820.157 406.808,819.438 406.808,819.198 407.048,809.837 407.048,809.597 407.048,807.916 407.048,807.677 
		407.288,801.916 407.288,800.235 407.288,799.996 407.528,793.755 407.528,793.035 407.528,792.074 407.528,790.635 
		407.528,790.395 407.528,788.715 407.768,787.274 407.768,784.154 407.768,783.914 407.768,781.033 407.768,780.794 
		408.008,777.914 408.008,775.273 408.008,775.033 408.008,774.553 408.008,771.193 408.248,768.072 408.248,766.393 
		408.248,765.673 408.248,765.432 408.248,764.712 408.248,764.473 408.008,764.473 408.008,764.231 408.008,763.992 
		407.768,763.752 407.528,763.031 407.288,762.552 407.048,762.552 407.048,762.312 407.048,762.072 407.048,761.832 
		407.048,761.592 406.568,760.872 406.329,760.152 406.088,759.672 406.088,759.432 405.608,758.231 405.368,757.991 
		404.649,757.271 404.168,757.031 403.209,756.071 402.489,755.831 401.769,755.592 401.289,755.352 400.089,754.871 
		399.37,754.391 398.65,754.151 398.17,753.671 396.97,752.951 395.771,752.231 395.291,752.231 394.81,752.231 394.81,751.99 
		393.851,751.99 393.371,751.99 392.171,751.99 391.691,751.751 391.211,751.99 390.971,751.751 390.731,751.751 390.491,751.511 
		390.251,751.271 390.011,751.031 389.771,750.79 389.292,750.311 389.292,750.07 389.292,749.831 389.051,749.831 388.571,748.871 
		387.612,747.19 387.132,746.471 386.892,746.471 386.652,745.511 386.652,744.79 386.172,744.069 386.172,743.83 386.172,743.59 
		386.172,743.11 385.692,741.91 385.452,741.43 384.972,740.229 384.732,739.27 383.533,737.83 383.292,737.109 382.573,736.149 
		382.093,735.669 381.853,735.43 379.453,732.068 378.974,731.349 378.733,731.109 378.493,730.869 378.493,730.629 
		378.013,730.148 377.773,729.909 377.773,729.429 378.253,728.948 378.253,728.229 378.493,727.269 378.974,726.068 
		379.213,725.588 379.693,725.107 379.933,724.868 380.173,724.628 380.413,724.628 382.333,723.188 382.573,722.948 
		383.292,722.468 383.772,722.228 385.692,721.027 385.932,720.787 386.412,719.827 386.892,719.588 389.532,717.907 
		391.451,716.947 392.651,716.228 392.891,715.987 393.371,715.747 393.371,715.507 394.091,714.787 395.05,713.347 
		395.291,712.867 395.291,712.627 395.291,712.387 395.291,712.146 395.53,711.906 396.01,710.947 396.01,710.706 396.25,710.467 
		396.49,710.227 396.97,709.986 397.21,709.747 397.45,709.506 397.69,709.267 397.93,709.026 398.17,708.307 398.65,707.586 
		398.89,707.586 399.37,707.106 399.609,706.866 399.85,706.866 400.089,706.146 400.329,705.427 400.329,704.946 400.329,704.706 
		400.569,704.227 400.569,703.985 400.569,702.306 400.569,701.826 400.569,701.586 400.809,701.105 400.809,700.626 
		400.809,699.426 401.049,699.426 401.049,698.945 401.289,698.226 401.289,697.745 401.289,697.506 401.289,697.265 
		401.529,697.025 401.529,696.785 401.289,696.785 401.289,696.545 401.289,696.306 401.289,696.064 401.529,695.825 
		401.529,695.585 401.529,695.105 401.769,694.145 401.769,693.905 401.769,692.944 401.769,692.705 401.529,692.465 
		401.289,691.024 401.049,689.824 401.049,689.104 401.049,688.145 401.049,686.704 401.049,686.465 401.049,685.984 
		401.049,685.023 401.049,684.544 400.809,684.544 400.809,684.304 400.809,684.064 401.289,682.864 401.289,682.624 
		401.769,681.184 402.249,680.943 402.249,680.703 402.489,680.464 402.489,679.983 402.489,679.744 402.729,679.504 
		402.489,679.023 402.729,678.063 402.729,677.823 402.729,677.344 402.729,676.863 402.729,676.383 402.729,676.144 
		402.729,675.663 402.489,675.423 402.249,674.943 402.009,674.703 402.009,674.223 402.249,674.223 402.249,673.743 
		402.009,673.503 401.769,673.263 401.769,673.022 401.769,672.303 401.769,672.063 401.529,671.103 401.289,670.863 
		401.049,670.623 401.049,670.143 401.289,669.183 401.289,668.942 401.289,668.702 401.289,668.463 401.049,668.223 
		401.049,667.982 400.809,667.982 400.809,667.742 400.809,667.262 400.569,667.262 400.569,667.021 400.569,666.782 
		400.569,666.542 400.569,666.062 400.569,665.822 400.569,665.342 400.809,665.342 400.809,665.103 401.049,664.622 
		400.809,664.382 400.809,663.662 400.329,662.702 400.089,662.702 400.089,661.742 400.089,661.262 400.089,661.021 
		399.85,660.541 399.85,660.302 400.089,660.062 400.329,659.821 400.569,659.581 400.569,659.342 400.569,659.102 400.329,659.102 
		400.329,658.861 400.329,658.621 400.329,658.381 400.329,658.141 400.089,658.141 399.85,657.901 400.089,657.661 
		400.089,657.422 400.329,656.941 400.329,656.701 400.329,656.461 400.329,656.222 400.089,655.981 400.089,655.741 
		400.089,655.501 400.329,655.261 400.329,655.021 400.329,654.781 400.329,654.541 400.089,654.541 400.089,654.301 
		400.089,654.061 400.089,653.82 400.089,653.581 399.85,653.341 400.329,652.381 400.329,652.141 400.089,651.66 400.089,650.94 
		400.089,650.701 400.089,650.46 400.089,650.221 399.609,650.221 399.129,649.501 398.65,649.261 398.89,648.78 398.65,648.541 
		397.93,648.3 397.93,648.06 397.93,647.82 397.69,647.82 397.21,648.06 396.73,647.82 396.73,647.1 396.73,646.86 396.49,646.62 
		396.01,646.38 396.01,646.14 395.771,645.9 395.771,645.42 395.291,645.42 395.05,645.18 395.05,644.22 395.05,643.74 
		394.331,642.06 394.331,641.82 394.091,641.58 393.851,641.82 393.611,641.58 393.611,641.339 393.611,641.1 393.371,640.859 
		393.13,640.859 393.13,640.62 393.13,640.379 392.891,640.14 392.651,640.14 392.651,639.899 392.651,639.659 392.651,639.419 
		392.651,639.179 392.411,639.179 392.171,638.939 392.171,638.459 391.931,638.459 391.691,638.459 391.451,638.219 
		391.451,637.979 391.451,637.739 391.691,637.499 391.691,637.259 391.691,637.019 391.451,637.019 391.451,636.779 
		391.691,636.539 391.691,636.299 391.691,635.819 391.691,635.339 391.451,635.099 391.451,634.859 391.451,634.619 
		391.211,634.379 390.971,634.139 390.971,633.899 390.251,633.659 390.251,633.419 390.251,633.179 390.251,632.938 
		390.011,632.699 390.251,632.458 390.491,631.979 390.491,631.739 390.491,631.499 390.251,631.499 390.251,631.259 
		390.251,630.778 390.251,630.539 390.251,630.298 390.251,629.818 390.251,629.338 390.251,628.378 390.011,628.138 
		389.771,627.658 389.771,627.418 390.011,627.178 389.771,626.938 389.771,626.698 390.011,626.698 390.011,626.458 
		389.771,626.218 389.771,625.978 389.771,625.738 389.771,625.258 389.532,625.018 389.532,624.778 389.771,624.538 
		389.771,624.298 389.771,624.058 390.011,624.058 389.771,623.098 389.771,622.858 389.532,622.858 389.292,622.858 
		389.292,622.618 389.292,622.138 389.051,622.138 389.051,621.897 389.051,621.658 388.571,621.417 388.571,621.178 
		388.571,620.938 388.332,620.458 388.092,620.458 387.852,620.217 387.852,619.978 387.852,619.737 387.852,619.498 
		387.612,619.257 387.852,619.017 387.852,618.777 387.852,618.537 387.612,618.537 387.612,618.297 387.372,618.297 
		387.612,618.057 387.372,617.817 387.132,617.817 387.132,617.337 387.132,617.097 387.132,616.857 386.892,616.857 
		386.652,616.617 386.652,616.137 386.652,615.897 386.652,615.657 386.652,614.697 386.172,614.217 386.172,613.737 
		386.172,613.017 386.412,612.777 386.412,612.537 386.652,612.296 386.652,612.057 386.652,611.816 386.652,611.577 
		386.892,611.577 386.892,611.336 386.892,611.097 387.372,610.856 387.372,610.616 387.132,610.376 387.132,610.136 
		387.132,609.896 387.132,609.656 387.132,609.176 386.892,608.696 387.132,608.216 387.132,607.736 387.372,607.496 
		387.372,607.256 387.372,606.776 387.852,606.536 387.852,606.056 387.852,605.816 387.612,605.816 387.372,605.576 
		387.612,605.096 387.612,604.616 387.372,604.376 387.372,604.136 387.372,603.896 387.612,603.656 387.612,603.176 
		387.372,603.176 387.372,602.936 387.372,602.696 387.372,602.456 387.612,602.456 387.612,602.216 387.372,601.976 
		387.372,601.735 387.612,601.735 387.612,601.496 387.372,601.255 387.132,601.016 387.372,600.775 387.372,600.536 
		387.132,600.536 386.892,600.295 387.132,600.055 387.132,599.815 387.132,599.575 386.892,599.335 386.892,599.095 
		386.652,599.095 386.652,598.855 386.652,598.375 386.892,598.135 386.892,597.655 386.892,597.175 386.412,596.935 
		386.412,596.695 386.412,596.455 386.652,596.455 386.652,595.975 386.652,595.495 387.132,595.015 387.372,595.015 
		387.612,595.015 387.612,594.775 387.372,594.535 387.372,594.295 387.852,594.295 387.852,594.055 387.852,593.815 
		387.852,593.575 388.092,593.575 388.332,593.334 388.092,593.095 388.332,592.854 388.332,592.615 388.332,592.375 
		388.092,592.375 388.092,592.135 388.092,591.895 388.092,591.654 388.092,591.415 388.092,591.174 388.092,590.935 
		388.092,590.694 388.332,590.694 388.332,590.455 388.332,589.974 388.332,589.734 388.332,589.494 388.092,589.254 
		388.332,589.254 388.571,589.254 389.051,589.494 389.292,589.254 389.292,588.774 389.051,588.774 388.812,588.774 
		388.812,588.534 388.812,588.294 388.812,588.054 388.571,587.574 388.812,586.614 389.051,586.374 389.292,586.614 
		389.532,586.614 389.532,586.374 389.771,586.134 389.532,585.654 389.771,585.174 390.011,585.174 390.011,584.934 
		390.011,584.694 389.771,584.694 390.011,584.454 390.011,584.214 389.771,583.974 389.771,583.734 390.011,583.494 
		389.771,583.254 388.812,583.734 388.571,583.974 388.332,584.214 388.092,584.214 387.852,583.734 387.612,583.734 
		387.612,583.494 387.612,583.254 387.852,582.773 387.612,582.293 387.612,582.054 387.612,581.813 387.372,581.813 
		387.132,581.813 387.132,581.573 387.132,581.093 387.132,580.374 387.132,580.133 387.132,579.894 386.892,579.653 
		386.412,579.894 385.692,579.413 385.452,579.173 385.692,578.453 385.452,577.013 385.452,576.533 385.452,576.293 
		385.452,576.053 385.452,575.813 385.212,575.573 385.212,575.813 384.732,575.333 384.732,575.093 384.732,574.853 
		384.732,574.133 384.972,573.413 385.212,573.413 385.932,573.173 385.932,572.933 385.692,572.692 385.692,572.453 
		385.692,572.212 385.932,572.212 385.932,571.973 385.932,571.732 385.692,571.493 385.692,571.252 385.932,570.772 
		385.932,570.052 385.692,569.813 385.692,569.332 385.692,569.092 385.932,568.852 385.692,568.852 385.692,568.612 
		385.692,568.132 385.692,567.892 385.932,567.892 385.932,567.652 385.932,567.412 385.932,567.172 386.172,566.932 
		385.932,566.932 385.932,566.692 386.172,566.212 385.932,565.972 385.932,565.732 386.172,565.492 386.172,565.012 
		386.172,564.772 386.172,564.532 386.172,564.292 386.172,564.052 385.932,563.812 385.932,563.572 386.172,563.332 
		385.932,563.092 385.692,562.611 385.452,562.372 385.692,562.372 385.692,562.131 385.932,561.892 385.692,561.651 
		385.452,561.412 385.452,561.171 385.692,560.932 385.692,560.691 385.452,560.451 385.452,560.211 385.212,559.971 
		385.452,559.731 385.452,559.491 385.452,559.251 385.692,558.771 385.932,558.531 386.172,558.531 385.932,558.291 
		385.932,558.051 386.172,557.811 386.172,557.571 385.932,557.571 385.932,557.331 385.932,557.091 385.932,556.851 
		385.692,556.611 385.692,556.371 385.932,555.891 385.932,555.651 385.692,555.651 385.692,555.411 385.452,555.411 
		385.452,555.171 385.452,554.691 385.452,554.451 385.212,554.211 384.972,554.211 384.972,553.971 384.972,553.73 385.212,553.73 
		385.452,553.25 385.452,553.011 385.212,553.011 385.212,552.771 385.452,552.53 385.452,552.291 385.212,552.05 385.212,551.811 
		385.212,551.57 385.212,551.331 384.972,551.09 385.212,551.09 385.452,550.851 385.212,550.61 385.212,550.13 385.452,549.89 
		385.692,549.65 385.452,549.41 385.212,549.17 385.212,548.93 385.452,548.69 385.452,548.45 385.452,548.21 385.212,547.97 
		384.972,547.73 385.212,547.73 	"/>
	
		<polyline clip-path="url(#SVGID_2_)" fill="none" stroke="#B37C34" stroke-width="0.4799" stroke-linecap="round" stroke-linejoin="round" stroke-miterlimit="3.85" points="
		385.212,547.73 385.212,547.49 384.972,547.49 384.972,547.25 384.972,547.01 384.972,546.77 384.972,546.53 385.212,546.53 
		385.212,546.29 385.212,546.05 384.972,546.05 384.972,545.57 385.212,545.33 385.212,544.37 384.972,543.89 384.972,543.649 
		384.972,543.41 385.212,542.93 385.932,542.209 385.932,541.969 385.692,541.489 385.452,541.489 385.212,541.489 385.212,541.25 
		385.212,540.77 385.452,540.77 385.692,540.529 385.692,540.289 385.692,540.049 385.692,539.809 385.692,539.569 385.692,539.329 
		385.452,539.329 385.452,539.089 385.692,538.849 385.692,538.369 385.452,538.129 385.212,537.649 384.972,537.169 
		385.212,536.689 385.212,536.449 384.972,536.449 384.972,536.209 384.732,535.969 384.732,535.729 384.492,535.249 
		384.732,535.249 384.732,535.009 384.972,535.009 384.972,534.769 384.732,534.769 384.492,534.529 384.492,534.289 
		384.972,534.289 384.972,534.049 385.212,533.568 385.452,533.329 385.452,532.849 385.452,532.608 385.452,532.369 
		385.212,532.369 385.212,532.128 385.212,531.648 384.972,531.168 384.732,530.928 384.732,530.688 384.492,530.448 
		384.252,530.448 384.013,529.968 384.013,529.728 384.013,529.488 384.013,529.248 384.013,529.008 384.252,529.008 
		384.252,528.768 384.252,528.528 384.252,528.288 384.252,527.808 384.492,527.808 384.252,527.568 384.252,527.328 
		384.492,527.088 384.492,526.848 384.252,526.608 384.492,525.888 384.492,525.648 384.492,525.408 384.252,525.408 
		384.252,525.168 384.492,525.168 384.492,524.928 384.732,524.688 384.492,524.448 384.492,524.208 384.492,523.728 
		384.492,523.488 384.732,523.248 384.732,523.007 384.732,522.768 384.732,522.527 384.492,522.527 384.492,522.288 
		384.732,522.047 384.732,521.808 384.492,521.567 384.732,521.327 384.972,521.087 385.212,520.847 385.212,520.607 
		384.972,520.367 384.972,520.127 384.972,519.887 385.212,519.647 385.212,519.407 384.972,519.407 384.972,519.167 
		384.972,518.927 384.732,518.927 384.492,518.687 384.252,518.687 384.252,518.207 384.013,517.727 384.252,517.487 
		384.492,517.247 384.972,516.527 384.972,516.287 384.972,516.047 384.972,515.807 385.212,515.567 384.972,515.567 
		384.972,515.327 384.972,515.087 385.212,515.087 385.212,514.847 384.972,514.606 384.972,514.367 384.732,514.126 
		384.732,513.887 384.972,513.646 384.972,513.407 384.732,513.407 384.732,513.167 384.972,513.167 385.212,512.687 
		384.972,512.446 384.972,512.207 385.212,511.966 385.212,511.727 385.452,511.486 385.452,511.246 385.452,511.006 
		385.452,510.766 385.452,510.526 385.452,510.286 385.212,510.046 385.212,509.806 385.452,509.806 385.452,509.566 
		385.212,509.326 385.212,508.846 385.212,508.606 385.212,508.366 384.972,508.126 384.492,508.126 384.013,507.886 
		383.772,507.886 384.013,507.646 384.252,507.646 384.013,507.406 383.772,507.406 383.533,507.166 383.533,506.686 
		383.292,505.726 382.813,505.246 382.813,505.006 383.292,505.006 383.292,504.766 383.292,504.525 383.292,504.045 
		383.292,503.806 383.053,503.565 383.053,503.085 383.053,502.846 383.292,502.605 383.292,502.365 383.053,502.125 
		382.813,501.885 382.813,501.646 382.813,501.405 382.573,501.405 382.573,501.165 382.333,501.165 382.333,500.205 
		382.333,499.485 382.093,499.245 381.853,499.485 381.613,499.485 381.373,499.485 381.373,499.245 381.613,499.005 
		381.613,498.765 381.613,498.525 381.373,498.285 381.373,498.045 381.133,498.045 381.133,497.805 381.133,497.565 
		381.133,497.325 380.893,497.325 380.893,497.085 380.893,496.845 380.893,496.605 380.893,496.365 380.653,496.365 
		380.653,496.125 380.893,495.885 380.893,495.645 380.413,495.165 380.173,494.445 379.933,494.205 379.933,493.965 
		379.933,493.725 380.173,493.484 380.413,493.245 380.413,493.004 380.173,492.765 379.933,492.524 379.933,492.284 
		379.933,492.044 379.933,491.804 379.693,491.564 379.693,491.324 379.693,491.084 379.693,490.604 379.213,490.124 
		378.733,489.884 378.253,489.884 378.253,489.404 378.253,489.164 378.013,488.924 377.773,488.924 377.773,488.684 
		377.773,488.444 378.013,488.444 378.253,488.204 378.253,487.964 377.773,487.724 377.773,487.484 377.293,487.244 
		377.054,487.244 377.054,487.004 376.574,486.524 376.574,486.284 376.574,486.044 376.813,486.044 376.813,485.804 
		376.813,485.324 376.574,484.844 376.813,484.844 376.813,484.604 376.813,484.364 376.574,484.364 376.574,484.124 
		376.574,483.884 376.574,483.644 376.333,482.923 375.854,482.923 375.374,482.443 375.614,482.203 375.614,481.963 
		375.614,481.723 375.614,481.003 375.614,480.763 375.614,480.523 375.374,480.283 374.894,480.043 374.894,479.803 
		375.134,479.803 375.374,479.563 375.374,479.323 375.134,479.323 374.174,479.083 373.934,478.843 373.694,478.843 
		373.694,478.603 374.174,478.603 374.174,478.363 373.934,478.123 373.694,477.883 373.694,477.643 373.694,477.403 
		374.174,477.163 374.174,476.923 373.694,476.443 373.694,476.203 374.174,475.963 374.174,475.723 373.694,475.243 
		373.694,475.002 373.934,475.002 374.174,475.243 374.414,475.243 374.414,474.763 374.414,474.522 374.174,474.283 
		373.934,474.283 374.174,474.042 374.414,473.803 374.174,473.563 373.934,473.563 373.934,473.322 373.694,473.322 
		373.694,473.083 373.454,472.842 372.975,472.603 372.975,472.123 372.975,471.882 372.975,471.642 372.734,471.402 
		372.495,471.402 372.015,471.162 371.775,470.682 371.535,470.442 371.535,470.202 371.775,470.202 371.775,469.722 
		371.775,469.482 371.775,469.242 371.535,469.002 371.295,468.762 371.295,468.522 371.535,468.282 371.535,468.042 
		371.535,467.562 371.775,466.842 372.015,466.122 372.015,465.882 372.015,465.642 371.775,465.642 371.295,465.162 
		371.295,464.922 371.055,464.922 371.055,463.722 371.055,463.481 371.295,463.241 371.295,463.001 370.815,463.001 
		370.815,462.761 370.575,462.761 370.575,462.521 370.815,462.281 370.815,461.801 371.055,461.801 370.815,460.121 
		370.815,459.641 370.815,459.401 370.815,459.161 370.575,459.161 370.575,458.921 370.335,458.681 370.095,458.441 
		369.855,458.441 369.855,458.201 369.615,458.201 369.375,457.721 368.896,456.761 368.655,456.761 368.416,456.761 
		368.416,456.521 368.896,456.041 368.896,455.561 368.896,455.081 368.655,454.841 368.416,454.601 368.416,454.36 368.655,454.36 
		368.655,454.121 368.655,453.88 368.416,453.641 368.175,453.16 368.175,452.92 367.935,452.92 367.455,452.92 367.216,452.92 
		367.216,452.68 367.216,452.44 367.455,452.2 367.455,451.96 367.455,451.72 366.976,450.76 366.976,450.52 366.976,449.8 
		366.736,449.56 366.736,449.32 366.736,449.08 366.496,448.84 366.255,448.84 366.016,448.6 366.016,448.12 366.255,447.88 
		366.255,447.64 366.255,447.4 366.255,447.16 366.255,446.92 366.016,446.92 366.016,446.68 365.775,445.96 365.775,445.479 
		365.775,445.24 366.016,445 366.255,445 366.255,444.76 366.255,444.52 366.016,444.279 365.775,444.04 366.255,443.319 
		366.255,443.08 366.496,442.839 366.496,442.359 366.496,442.119 366.496,441.879 366.736,441.639 366.736,441.399 
		366.736,441.159 366.736,440.679 366.736,440.439 366.736,440.199 366.736,439.959 366.496,439.959 366.736,439.719 
		366.736,439.479 366.736,439.239 366.496,438.999 366.496,438.519 366.736,438.519 366.736,438.279 366.736,438.039 
		366.736,437.799 366.736,437.559 366.736,437.319 366.976,436.839 367.455,436.839 367.455,436.599 367.455,436.359 
		367.455,436.119 367.455,435.879 367.455,435.639 367.455,435.398 367.216,435.159 367.216,434.918 367.455,434.918 
		367.695,434.679 367.935,434.679 368.416,433.718 368.416,433.479 368.416,433.238 367.935,432.519 367.935,432.278 
		367.695,432.278 367.455,432.278 367.455,431.798 367.695,431.798 367.695,431.558 367.935,431.558 368.175,431.558 
		368.175,431.318 367.935,431.318 367.695,431.078 367.695,430.838 367.935,430.358 367.695,430.358 367.695,430.118 
		367.455,430.118 367.455,429.638 367.455,429.398 367.455,429.158 367.695,429.158 367.695,428.918 367.695,428.678 
		367.695,428.438 367.455,428.438 367.216,428.198 367.216,427.958 367.455,427.478 367.695,426.998 367.455,426.758 
		367.216,426.518 366.976,426.038 367.216,426.038 367.216,425.798 367.216,425.558 366.976,425.558 366.736,425.317 
		366.496,424.837 366.496,424.598 366.496,423.877 366.496,423.638 366.736,423.638 366.736,423.397 366.976,423.157 
		366.976,422.917 366.976,422.677 366.976,422.438 367.216,422.197 366.976,422.197 366.736,421.958 366.736,421.477 
		366.736,420.997 366.736,420.757 366.976,420.757 367.216,420.517 367.455,419.797 367.455,419.557 367.455,419.077 
		367.455,418.597 366.976,418.597 366.976,418.357 366.976,418.117 367.216,418.117 367.455,417.877 367.695,417.637 
		367.695,417.396 367.455,417.157 367.455,416.917 367.455,416.677 367.695,416.437 367.695,415.957 367.695,415.717 
		367.455,415.477 367.455,414.997 367.695,414.997 367.935,414.517 367.935,414.037 367.935,413.796 367.935,413.557 
		367.455,413.316 367.216,413.316 367.216,413.076 367.216,412.596 367.216,412.116 367.455,411.876 367.216,411.876 
		367.216,411.636 367.216,411.396 367.216,411.156 367.455,410.916 367.695,410.676 367.695,410.196 367.695,409.956 
		367.455,409.716 367.216,409.236 366.976,408.996 366.976,408.036 366.736,407.076 366.736,406.596 366.736,406.116 
		366.976,405.875 366.976,405.636 366.976,405.396 366.976,405.155 366.736,404.916 366.255,404.676 366.255,404.436 
		366.016,404.436 366.016,403.955 366.255,403.955 366.255,403.715 366.736,403.476 366.976,403.476 366.976,403.235 
		366.736,402.996 366.496,402.996 366.496,402.755 366.496,402.515 366.496,402.035 366.736,401.795 366.976,401.795 
		367.216,401.555 367.216,401.315 367.216,400.835 367.216,400.355 367.455,400.355 367.695,400.115 367.935,399.155 
		367.695,398.915 367.695,398.435 367.935,398.195 367.935,397.955 368.175,397.715 368.175,397.475 368.175,397.235 
		368.175,396.755 368.416,396.755 368.655,396.755 368.655,396.515 368.655,396.275 368.655,396.035 368.896,395.794 
		368.896,396.035 369.135,396.035 369.135,395.794 369.135,395.555 369.135,395.314 369.135,395.075 369.615,394.834 
		369.855,395.075 370.095,394.834 370.335,394.834 370.335,394.595 370.335,394.354 370.335,394.114 370.095,393.634 
		370.335,393.395 370.575,392.914 370.575,392.435 370.815,392.194 371.055,392.194 371.055,391.954 371.055,391.474 
		371.055,391.234 371.055,390.994 371.295,390.754 371.295,390.514 371.295,389.554 371.295,389.314 371.295,389.074 
		371.535,389.074 371.535,388.834 371.295,388.594 371.055,388.354 370.575,388.114 370.095,387.154 369.855,386.914 
		370.095,386.674 370.095,386.193 369.855,385.714 369.615,385.233 369.615,384.993 369.375,384.753 368.896,384.273 
		368.896,384.033 368.896,383.793 368.896,383.553 368.896,383.313 368.655,383.073 368.655,382.833 368.655,382.113 
		368.416,381.633 367.935,381.153 367.695,380.913 367.695,380.673 367.935,380.433 368.175,380.193 368.175,379.953 
		367.695,379.233 367.695,378.993 367.695,378.753 367.695,378.513 367.695,378.273 367.695,378.033 367.455,378.033 
		367.455,377.793 367.455,377.313 367.455,377.073 367.216,377.073 366.976,376.833 366.976,376.593 366.976,376.353 
		366.976,376.112 366.976,375.873 366.976,375.633 366.976,375.393 366.976,375.152 366.976,374.913 366.736,374.913 
		366.496,374.672 366.255,374.672 366.255,374.433 366.016,374.192 366.016,373.952 366.016,373.712 366.016,373.232 
		366.016,372.992 366.016,372.752 366.016,372.272 366.255,372.032 366.496,372.032 366.496,371.792 366.496,371.552 
		366.496,371.312 366.255,371.072 366.255,370.832 366.255,370.592 366.496,370.592 366.496,370.112 366.255,369.632 
		366.016,369.152 366.016,368.912 365.775,368.912 365.536,368.672 365.536,368.432 365.775,367.952 365.536,367.712 
		365.296,367.712 365.056,367.231 364.816,366.992 364.816,366.752 364.816,366.512 364.816,366.271 364.816,366.031 
		364.816,365.792 364.816,365.552 365.056,365.071 364.816,364.832 364.336,364.591 364.096,364.352 363.856,363.871 
		364.096,363.392 364.096,362.911 363.856,362.911 363.616,362.671 363.616,362.431 363.616,362.191 363.616,361.711 
		363.616,361.471 363.616,361.231 363.376,361.231 363.136,360.991 363.136,360.511 363.136,360.031 362.896,359.791 
		362.896,359.551 362.656,359.311 362.896,358.351 362.896,358.111 362.896,357.871 362.656,357.631 362.417,357.631 
		362.176,357.391 362.176,357.15 362.417,356.671 362.417,356.431 362.417,356.19 362.417,355.71 362.417,355.471 362.417,355.23 
		362.656,354.991 362.896,354.75 362.896,354.51 362.896,354.271 362.896,354.03 363.136,353.55 	"/>
</g>
</svg>
