<?xml version="1.0" encoding="utf-8"?>
<!-- Generator: Adobe Illustrator 15.1.0, SVG Export Plug-In . SVG Version: 6.00 Build 0)  -->
<!DOCTYPE svg PUBLIC "-//W3C//DTD SVG 1.1//EN" "http://www.w3.org/Graphics/SVG/1.1/DTD/svg11.dtd">
<svg version="1.1" id="State" xmlns="http://www.w3.org/2000/svg" xmlns:xlink="http://www.w3.org/1999/xlink" x="0px" y="0px"
	 width="1296px" height="1296px" viewBox="0 0 1296 1296" enable-background="new 0 0 1296 1296" xml:space="preserve">
<g>
	<defs>
		<rect id="SVGID_1_" x="349.219" y="264.741" width="591.731" height="772.639"/>
	</defs>
	<clipPath id="SVGID_2_">
		<use xlink:href="#SVGID_1_"  overflow="visible"/>
	</clipPath>
	
		<polyline clip-path="url(#SVGID_2_)" fill="none" stroke="#B37C34" stroke-width="0.7199" stroke-linecap="round" stroke-linejoin="round" stroke-miterlimit="3.85" points="
		422.166,851.121 422.166,850.881 421.686,849.681 420.726,848.721 419.286,847.281 417.846,845.84 415.207,844.64 414.247,843.439 
		414.007,842.24 414.007,842 414.007,841.52 414.487,840.8 414.727,840.561 415.687,839.84 416.167,839.6 418.326,839.6 
		420.246,840.08 422.646,840.561 424.325,840.8 425.525,840.8 425.765,840.8 425.765,840.561 426.725,840.561 426.964,840.561 
		427.205,840.561 428.644,840.08 429.124,839.84 431.524,838.64 432.003,838.399 432.483,837.439 432.724,836.239 432.963,835.76 
		432.963,833.119 432.963,832.879 432.724,832.398 431.524,831.439 429.844,830.239 429.844,829.998 429.364,829.279 
		428.404,828.559 428.164,828.318 427.924,828.318 427.685,827.839 427.685,827.599 427.685,826.878 427.444,825.919 
		427.444,825.438 427.685,823.758 427.685,823.519 427.685,823.278 428.164,822.798 428.164,822.559 427.444,822.078 
		426.964,822.078 426.245,822.318 426.005,822.559 425.285,823.278 425.045,822.318 424.565,821.357 424.085,820.157 
		424.085,819.438 424.325,818.478 425.045,817.038 425.765,816.558 427.205,815.598 427.444,815.357 427.924,815.117 
		428.404,815.117 428.884,815.357 429.364,816.317 429.364,816.558 429.124,817.277 429.124,817.998 429.844,821.118 
		429.844,821.598 430.084,821.838 430.564,822.798 430.804,823.038 431.044,823.519 431.284,823.758 431.524,823.998 
		432.003,824.478 432.963,824.959 432.963,825.198 433.204,825.198 433.443,825.198 436.803,825.438 438.243,823.758 
		438.482,823.038 438.482,822.559 438.482,822.078 438.482,821.598 438.482,821.357 437.763,820.397 436.803,818.478 
		435.603,817.277 433.923,815.838 433.443,815.117 432.963,814.157 432.483,813.437 432.244,812.717 432.003,811.036 
		432.003,807.437 432.003,805.276 432.244,804.557 432.483,803.597 432.244,803.356 431.764,803.116 431.284,802.396 
		431.284,802.156 431.524,801.676 431.524,801.436 432.003,800.956 432.244,800.476 432.483,800.235 432.963,800.235 
		433.443,800.235 434.403,800.235 435.603,799.996 436.323,800.235 436.803,800.476 437.042,800.476 437.763,800.235 
		438.722,799.996 440.162,799.516 440.642,799.275 441.602,798.795 442.322,798.315 442.562,798.076 443.761,797.115 
		444.721,796.396 445.201,795.915 445.441,795.676 445.681,795.436 445.921,794.955 446.161,794.715 446.401,794.476 
		446.401,793.995 446.401,793.755 446.641,793.755 446.641,793.515 446.641,792.556 446.641,791.835 445.681,790.875 
		444.961,790.875 444.721,790.635 444.241,790.635 443.761,790.635 443.521,790.635 443.282,790.635 443.282,790.875 
		442.802,790.875 442.562,790.875 439.922,792.074 438.722,792.314 437.522,792.314 437.283,792.314 437.042,792.314 
		436.803,792.314 436.563,792.314 436.323,792.314 436.323,792.074 436.083,792.074 435.843,792.074 435.363,791.835 
		435.363,791.595 435.123,791.595 434.163,790.635 432.724,788.955 432.483,788.715 432.483,788.475 432.244,788.234 
		432.244,787.994 432.244,787.274 432.244,786.314 432.244,786.074 432.483,785.835 432.483,785.594 432.963,784.874 
		433.683,784.154 434.643,783.435 434.883,783.435 435.123,783.435 435.363,783.435 435.843,783.914 436.083,784.635 
		436.803,785.354 437.042,785.835 437.763,786.314 439.202,787.034 442.562,788.234 443.521,788.475 444.481,788.475 
		445.201,788.234 445.441,788.234 447.121,787.274 447.361,787.034 447.601,786.314 447.841,784.635 447.841,784.394 
		447.841,783.674 447.601,780.794 447.601,779.834 447.361,776.953 447.361,775.514 447.601,773.833 447.841,773.593 450,770.473 
		450,770.232 451.2,768.793 451.92,768.313 453.12,768.072 453.6,768.072 453.84,767.832 454.08,767.832 454.319,767.353 
		454.319,767.112 454.319,766.632 454.08,766.393 453.12,766.393 452.4,766.152 451.92,765.673 452.16,763.992 452.16,763.271 
		452.16,763.031 452.64,760.632 452.64,760.392 454.56,754.151 454.56,753.911 454.799,753.432 455.04,753.191 455.52,752.711 
		455.999,752.471 456.959,752.231 461.038,751.271 461.278,751.511 461.758,753.432 461.758,755.352 461.758,756.071 
		461.758,756.312 461.998,756.791 462.238,757.752 462.718,758.231 462.958,758.472 463.438,758.711 464.397,758.952 
		465.118,758.952 465.357,758.952 466.077,758.711 466.077,758.472 466.797,757.752 467.037,757.031 467.277,755.831 
		467.517,755.831 467.277,755.592 465.357,753.671 465.357,753.432 464.638,752.711 464.397,752.471 464.397,752.231 
		464.397,751.751 464.638,751.271 464.638,751.031 464.638,750.79 464.877,750.551 467.037,750.07 468.717,748.871 469.677,747.67 
		472.076,745.511 472.556,744.79 472.796,744.311 473.036,744.069 473.516,744.311 473.996,744.069 474.236,744.069 474.476,743.59 
		474.716,743.35 475.436,743.11 475.676,742.87 475.676,742.63 475.196,741.91 475.196,741.67 475.436,740.47 475.196,740.229 
		474.476,740.47 474.236,740.229 474.716,738.549 474.716,737.59 474.716,736.869 474.716,736.39 475.196,735.669 475.916,734.949 
		476.155,734.469 476.396,734.469 476.875,733.989 477.115,733.749 477.595,733.509 477.835,733.269 478.075,733.269 
		483.834,732.549 485.514,732.068 486.713,731.349 487.434,730.629 489.113,728.229 488.633,727.988 488.633,727.269 
		488.393,726.309 488.153,726.068 487.673,725.588 486.713,725.107 482.875,724.147 480.475,723.668 479.515,723.188 
		479.035,722.708 478.555,722.228 478.315,721.748 478.315,721.268 478.315,720.787 478.315,720.548 478.555,720.067 
		479.035,719.348 479.995,718.627 480.475,718.387 481.195,718.387 481.674,718.627 482.634,719.107 483.114,719.827 
		484.314,721.988 485.754,723.188 486.234,723.428 488.153,723.428 488.393,723.428 488.633,723.428 488.873,723.188 
		488.633,719.348 488.633,719.107 488.633,718.868 488.873,718.868 490.553,717.907 494.152,715.987 494.632,715.507 
		495.112,714.547 495.112,713.587 495.112,712.627 495.592,712.627 496.552,712.146 496.792,711.906 497.271,711.427 
		497.512,711.187 497.512,710.947 497.751,710.706 498.231,709.747 498.472,709.267 498.472,708.787 498.231,707.106 
		497.032,706.626 495.832,706.386 494.872,705.666 493.672,704.466 492.712,703.985 491.752,704.227 491.513,704.946 
		491.993,706.146 492.712,707.106 492.953,708.307 492.712,709.026 492.473,709.026 492.232,712.146 491.273,711.666 
		490.313,710.947 489.113,710.706 488.633,710.706 487.434,710.706 486.234,710.947 485.754,711.187 485.514,711.427 
		485.274,711.427 484.794,711.906 484.554,711.906 482.634,711.666 482.154,711.666 481.915,711.666 481.674,711.427 
		480.715,711.187 479.275,710.706 478.315,710.706 477.835,710.467 477.115,709.026 477.115,708.787 476.875,708.307 
		476.875,708.066 476.875,707.586 476.875,707.347 476.875,707.106 476.875,706.146 476.875,705.906 477.355,704.227 
		477.595,702.546 477.835,702.066 478.075,701.105 478.555,700.865 479.035,700.386 482.154,698.706 482.634,698.706 
		483.354,698.945 484.074,699.426 484.074,699.665 484.554,699.665 484.794,699.665 485.274,699.426 486.234,697.985 
		487.434,697.025 488.393,696.785 489.593,696.785 490.073,696.785 491.273,697.985 491.993,697.025 492.232,696.545 
		492.473,695.585 492.712,695.105 493.192,694.625 494.152,694.385 494.872,694.625 495.832,694.865 496.312,695.346 
		497.992,696.785 498.231,697.265 498.472,697.506 498.711,697.985 498.711,698.465 498.951,698.465 499.191,698.465 
		499.431,698.706 499.911,698.706 500.151,698.706 500.631,698.465 500.871,698.226 501.111,697.506 501.351,696.785 
		501.351,696.064 501.591,694.145 502.071,693.665 503.031,692.944 502.791,692.225 501.831,691.024 501.591,690.785 
		501.351,690.305 501.111,688.864 501.591,687.185 501.831,686.704 502.311,686.465 502.311,686.225 502.791,686.225 
		503.75,686.225 503.75,686.465 503.99,686.944 504.95,687.904 505.19,688.145 505.43,688.385 505.67,688.385 505.91,688.385 
		506.15,688.145 507.59,687.424 507.59,687.185 508.31,686.704 508.79,686.465 508.79,686.225 509.029,686.225 509.029,685.984 
		509.75,685.265 511.189,683.823 511.189,683.584 511.669,682.864 511.669,682.384 511.909,681.424 511.429,680.464 
		510.469,679.983 509.27,679.504 507.83,679.264 507.59,679.023 506.39,679.023 504.95,679.023 500.871,678.063 500.151,677.823 
		499.191,677.103 498.951,676.623 498.711,676.383 498.711,676.144 498.711,675.663 499.191,673.503 499.671,672.543 
		499.911,672.063 500.151,671.343 499.911,670.143 501.831,669.662 502.551,669.183 502.551,668.942 503.031,668.702 
		503.031,668.463 503.271,668.223 503.511,667.742 503.511,667.021 503.511,665.822 503.511,665.582 503.271,665.103 
		503.271,664.861 502.071,663.902 501.831,663.662 501.591,663.662 501.351,663.422 500.151,663.182 499.431,663.422 
		498.711,663.902 497.271,664.861 496.072,665.582 495.592,665.822 494.872,665.582 493.432,665.342 492.473,665.103 
		490.313,663.902 490.073,663.662 488.873,663.182 487.434,662.222 487.434,661.981 487.193,661.981 486.713,661.502 
		485.994,660.302 485.754,660.302 485.514,659.821 485.274,659.581 485.274,659.342 485.034,659.342 484.794,658.861 
		484.554,658.381 484.554,658.141 484.554,656.461 484.554,655.741 485.754,653.581 486.474,651.9 486.954,650.701 486.954,650.221 
		486.954,649.021 487.434,648.3 489.833,650.701 490.553,651.66 491.752,653.82 492.953,655.741 493.432,656.461 494.632,657.182 
		495.112,657.422 496.312,658.141 497.271,658.381 498.711,658.381 498.711,658.621 498.951,658.621 499.431,658.381 
		499.911,658.141 500.631,657.661 500.871,657.182 500.871,656.701 500.871,656.222 500.631,655.981 500.631,655.741 
		500.151,654.781 498.711,653.82 497.992,653.341 497.751,653.341 495.832,652.381 493.192,651.181 492.953,651.181 
		491.513,650.221 489.833,648.78 489.113,647.34 490.553,646.38 493.192,644.7 493.912,644.46 494.872,643.98 495.592,643.26 
		496.552,642.06 497.512,641.339 497.751,641.1 498.231,640.62 498.951,639.419 499.191,638.699 499.191,637.499 498.951,637.019 
		498.711,636.059 497.751,634.859 497.032,634.379 496.312,633.899 495.592,634.139 494.632,635.339 494.392,636.059 
		494.152,637.019 493.912,637.739 493.192,638.699 493.192,639.659 491.752,639.899 489.353,640.62 488.393,641.339 485.994,642.06 
		485.034,642.3 484.314,643.02 483.594,643.02 483.114,642.78 482.395,642.06 481.674,641.1 481.435,641.1 481.195,640.859 
		481.195,640.62 480.955,640.14 480.235,638.459 480.235,637.979 479.995,637.259 479.995,636.779 479.995,636.539 479.995,636.299 
		479.995,636.059 479.995,635.339 480.235,634.619 480.475,634.139 481.195,633.419 481.435,633.419 481.915,633.179 
		482.154,633.179 482.875,631.979 483.354,631.019 483.354,630.778 484.554,629.578 486.234,628.378 486.954,627.898 
		489.353,627.178 489.833,626.698 491.513,625.498 492.232,624.058 492.712,622.858 492.712,622.618 492.473,621.897 
		491.993,621.658 489.833,620.938 488.153,620.458 485.274,619.737 484.074,619.257 482.875,619.257 480.475,619.498 
		479.995,619.498 479.515,619.257 478.795,618.777 478.555,618.057 478.555,617.337 478.555,617.097 478.795,616.377 
		479.755,614.457 479.755,613.737 479.515,613.497 478.795,612.777 479.035,611.816 479.275,611.097 479.275,610.856 
		479.275,609.896 479.275,609.417 479.275,608.937 479.515,607.496 479.755,607.496 479.755,607.256 480.475,606.776 
		480.715,606.056 481.435,604.376 481.435,604.136 482.154,603.416 483.594,602.456 483.834,602.456 485.034,602.456 
		486.234,601.976 488.873,599.815 490.793,597.655 491.033,597.175 491.513,595.735 491.752,595.255 491.752,595.015 
		491.752,594.535 491.513,594.055 491.513,593.575 491.513,593.334 491.513,593.095 491.752,592.375 491.513,591.895 
		490.793,590.455 490.553,590.214 489.593,589.494 489.353,589.254 489.353,588.774 489.353,588.534 489.593,588.294 
		489.833,588.054 489.833,587.574 489.593,586.374 488.873,584.454 488.393,583.734 487.914,583.254 487.673,582.773 
		486.474,582.534 485.754,582.534 484.074,583.014 483.834,583.254 483.114,583.494 482.875,583.734 482.634,583.734 
		482.634,583.974 482.395,584.934 482.395,585.174 482.395,585.414 483.114,585.894 483.354,586.134 483.354,586.374 
		483.114,586.614 482.875,586.854 482.634,587.094 482.395,587.334 482.395,587.574 482.395,587.814 482.634,588.774 
		483.114,591.415 483.114,591.654 483.114,591.895 483.114,592.135 483.114,592.375 482.875,593.095 481.435,595.015 
		480.475,595.495 479.755,595.735 479.515,595.735 478.795,595.735 478.315,595.735 478.315,595.975 477.595,595.735 
		476.875,595.495 474.956,594.775 474.476,594.535 473.516,593.575 473.516,593.334 473.036,592.854 472.796,592.375 
		472.796,591.654 472.796,591.174 472.796,590.214 473.276,589.734 473.516,589.014 474.716,587.814 474.476,587.574 
		474.236,587.094 474.236,586.614 474.476,586.134 474.956,586.134 476.155,584.214 476.875,583.974 477.835,582.773 
		478.555,582.054 478.795,580.374 478.795,580.133 478.795,579.173 479.275,577.733 480.235,577.253 480.955,576.773 
		481.915,576.773 482.634,576.533 483.594,575.813 484.074,575.093 484.314,573.893 484.794,572.692 484.794,572.453 
		484.554,571.973 484.074,571.252 481.435,569.092 480.955,568.612 479.755,567.892 479.035,567.892 478.315,567.652 
		478.075,567.412 477.835,566.932 477.115,565.972 476.396,565.732 476.155,565.492 475.196,565.012 474.716,564.772 
		474.476,564.532 474.476,564.292 474.476,562.611 474.476,561.892 475.436,560.691 475.676,560.211 476.155,559.971 
		476.155,559.731 476.875,559.491 478.315,559.491 478.555,559.491 478.795,559.491 479.275,559.491 479.515,559.491 
		479.755,559.731 480.715,560.451 480.715,561.171 480.955,561.171 481.915,561.412 483.354,561.412 483.594,561.412 
		485.514,561.412 486.713,561.171 488.153,560.451 488.633,559.971 488.873,559.251 488.873,559.011 489.113,558.771 
		489.113,558.531 489.113,558.051 489.113,557.571 489.113,557.331 489.353,556.851 489.353,556.611 489.353,553.73 489.113,551.09 
		488.633,549.41 488.393,547.73 489.113,547.73 489.593,547.73 490.073,547.49 490.073,547.25 490.073,547.01 490.313,546.77 
		490.793,547.01 491.033,546.77 491.033,546.29 491.513,546.05 491.752,546.05 491.993,545.33 493.192,544.13 493.672,543.169 
		494.152,541.969 494.392,541.25 494.632,540.529 494.632,539.809 494.392,539.089 494.152,538.609 493.432,538.129 
		492.712,537.889 491.752,537.889 491.033,538.129 490.313,538.369 489.833,538.849 489.593,539.089 489.353,539.809 
		488.873,541.969 488.633,542.209 488.633,542.689 488.153,543.41 487.914,544.61 487.673,545.09 487.434,545.09 486.713,544.61 
		486.234,543.89 485.754,542.93 485.514,542.689 485.274,541.729 485.274,541.489 484.074,540.529 484.314,539.569 484.314,538.849 
		482.395,536.449 482.395,535.969 482.395,535.489 482.395,533.809 482.154,531.648 482.154,531.408 482.154,531.168 
		482.395,530.928 482.395,530.448 482.395,528.528 482.395,528.288 482.634,528.048 484.554,526.848 485.034,526.368 
		486.954,523.968 487.673,523.248 488.873,522.047 489.593,521.087 490.073,520.607 490.793,520.127 491.513,519.167 
		492.473,517.727 492.712,517.007 492.953,516.767 492.953,514.126 492.712,513.407 492.232,512.927 491.752,512.687 
		490.793,512.687 490.553,512.687 490.073,512.927 489.353,513.167 488.873,513.887 488.393,514.606 488.153,515.327 
		487.914,515.807 487.914,516.287 487.914,517.007 487.673,518.207 487.434,519.407 486.234,520.607 485.274,521.327 
		484.314,522.288 482.154,523.488 480.715,523.728 479.275,523.968 478.555,523.728 478.075,523.488 477.355,523.007 
		476.155,522.288 475.916,522.288 474.476,521.087 473.996,520.607 473.996,520.367 473.996,519.887 473.996,519.407 
		474.476,518.687 474.716,518.207 475.196,517.967 476.155,518.207 477.115,517.967 477.595,518.207 478.075,518.207 
		478.555,518.207 479.755,517.487 481.674,516.767 482.154,516.767 482.875,516.767 483.594,516.287 483.834,516.047 
		483.834,515.807 484.074,515.567 485.034,514.367 485.274,513.646 485.514,512.927 485.274,511.966 484.554,510.046 
		483.114,508.606 480.475,506.926 479.995,506.926 479.515,506.926 479.035,506.926 478.795,506.926 478.555,507.406 
		478.555,508.126 478.555,508.846 478.315,510.046 478.795,511.486 479.035,512.927 478.075,514.367 477.355,514.847 
		476.875,515.087 475.916,515.327 475.196,515.567 474.476,515.567 474.236,515.807 473.756,515.807 473.036,515.567 
		472.316,515.567 470.637,514.847 470.637,514.606 470.876,514.367 470.876,514.126 471.116,512.687 471.116,512.207 
		472.316,511.486 472.556,511.246 473.276,511.006 473.996,510.526 474.236,510.286 474.476,509.806 475.196,508.366 
		475.676,507.646 476.635,506.926 477.115,506.446 477.115,505.726 477.115,505.246 476.875,504.766 476.875,504.286 
		473.276,501.405 472.796,500.925 472.076,499.725 471.596,498.765 471.356,498.525 471.116,497.805 471.116,497.085 
		471.356,496.845 471.356,496.605 471.836,496.125 472.316,495.645 472.556,495.645 472.796,495.645 474.956,495.165 
		475.436,495.165 476.635,494.445 477.595,493.725 478.075,493.484 478.315,493.484 480.235,493.725 480.715,493.725 
		481.435,493.484 483.114,492.284 483.594,491.804 483.834,491.324 483.834,491.084 484.074,490.844 484.074,490.124 
		484.074,489.404 483.594,487.964 483.114,487.244 482.875,487.004 481.674,486.044 479.995,484.364 479.035,483.644 
		478.075,483.164 477.835,483.164 477.355,482.923 	"/>
	
		<polyline clip-path="url(#SVGID_2_)" fill="none" stroke="#B37C34" stroke-width="0.7199" stroke-linecap="round" stroke-linejoin="round" stroke-miterlimit="3.85" points="
		477.355,482.923 477.115,482.923 477.115,482.684 474.956,482.203 474.236,482.203 473.996,481.963 473.756,481.963 
		473.276,481.723 473.036,481.723 472.796,481.483 472.556,481.243 472.076,480.523 471.836,480.043 471.836,479.323 
		471.836,478.363 472.316,477.643 472.796,476.923 473.756,476.203 473.996,476.203 474.236,475.963 474.716,475.723 
		475.436,475.723 476.635,475.723 478.555,475.482 479.755,475.243 480.235,475.002 480.235,474.763 480.475,474.763 
		480.475,475.002 482.154,476.923 482.395,477.403 483.834,479.323 484.074,479.803 487.914,481.963 488.633,482.203 
		488.873,482.203 489.353,482.443 489.593,482.443 489.833,482.443 490.553,482.203 491.993,481.483 492.953,481.003 
		494.152,480.763 494.632,480.763 495.832,480.283 496.072,480.043 496.312,480.043 496.312,479.803 496.552,479.323 
		496.792,478.843 496.792,477.883 496.312,477.643 496.072,477.643 495.832,477.163 495.592,476.443 495.352,475.963 
		494.632,475.002 493.672,474.042 493.432,474.042 493.192,474.042 492.953,473.803 492.712,473.563 492.473,473.563 
		491.993,473.563 491.033,473.803 489.353,474.763 488.153,475.243 487.914,475.243 487.434,475.243 487.193,475.243 
		486.954,475.243 485.754,475.243 484.794,474.522 483.834,473.803 482.395,471.882 482.395,471.642 482.154,471.162 
		482.154,470.442 482.634,468.762 482.395,468.522 482.395,468.282 482.875,467.562 482.875,467.082 482.875,466.842 
		482.634,466.602 482.395,466.362 482.395,465.882 482.875,464.922 483.114,464.441 483.354,463.961 483.594,463.722 
		483.834,463.481 484.074,463.481 484.554,463.481 485.034,463.722 485.754,464.202 486.234,464.441 486.474,464.682 
		486.713,464.682 487.193,465.402 489.353,464.682 489.833,464.441 492.953,464.441 493.912,464.202 497.271,466.602 
		497.751,466.602 498.951,466.362 500.631,465.642 501.351,464.922 501.591,464.682 501.831,463.961 502.071,463.481 
		502.071,463.001 501.831,463.001 501.591,462.281 500.631,461.081 500.391,461.081 499.671,460.601 497.992,460.361 
		497.751,460.361 497.512,460.121 495.352,459.161 494.872,458.681 494.392,458.201 493.912,457.481 493.432,456.761 
		492.473,455.561 492.232,455.081 491.752,453.641 491.513,452.44 491.513,451.72 491.752,451 492.953,449.32 493.192,449.32 
		493.672,448.6 493.912,448.36 495.832,446.68 496.072,446.2 497.512,444.76 498.472,443.319 499.431,442.359 499.431,442.119 
		499.431,441.879 499.431,441.639 499.191,441.159 498.231,440.439 496.312,439.479 494.872,438.999 491.033,438.039 
		490.793,437.799 490.313,437.559 489.833,437.319 489.833,436.839 489.593,436.839 489.593,436.599 489.593,436.119 
		489.593,435.639 489.593,435.159 489.833,434.679 490.313,433.958 490.793,433.718 491.273,433.479 491.993,433.479 
		492.953,433.238 494.632,433.238 495.352,432.999 495.832,432.758 496.552,431.798 498.472,430.598 499.191,432.038 
		500.151,434.438 500.391,435.398 500.631,436.119 501.351,436.599 501.591,436.599 502.071,436.839 502.311,437.079 
		502.791,437.079 503.75,437.079 504.47,436.839 504.71,436.599 505.19,436.359 505.19,435.879 505.67,434.918 505.67,434.679 
		505.67,434.438 505.67,434.198 505.43,433.958 504.47,432.278 503.511,431.558 503.271,431.078 502.311,428.198 503.031,427.958 
		503.75,427.958 504.47,427.958 505.91,428.198 507.11,428.438 508.07,428.438 509.029,428.198 510.229,427.718 510.469,427.718 
		511.429,427.958 513.349,427.718 514.068,427.238 514.309,427.238 514.309,426.998 514.789,426.758 514.789,426.278 
		515.028,426.038 515.028,425.798 514.789,425.317 514.789,424.357 514.789,423.397 514.789,422.917 515.028,422.438 
		515.508,421.717 516.468,420.517 516.948,419.797 516.948,419.077 516.948,418.837 516.948,418.357 516.948,418.117 
		516.228,417.396 515.988,416.917 515.508,416.677 514.789,416.437 514.068,416.437 513.109,416.917 511.669,417.396 
		510.949,417.157 510.709,417.157 507.59,414.757 507.35,414.517 506.63,413.316 506.39,413.076 506.15,412.356 505.91,411.636 
		506.63,410.436 508.55,408.756 512.149,406.355 512.869,406.596 514.068,407.076 515.508,408.516 516.228,408.996 517.428,409.956 
		517.908,410.196 519.107,410.676 520.067,410.676 521.267,410.676 521.987,410.196 522.707,409.956 522.947,409.716 
		523.907,408.756 524.387,407.796 524.867,407.076 524.867,406.116 524.867,404.916 524.626,404.676 524.626,404.436 
		524.387,404.195 523.907,403.955 523.907,403.715 523.667,403.715 522.227,403.476 521.027,403.715 520.067,403.235 
		518.868,403.235 518.628,403.235 517.908,403.715 517.668,403.715 517.188,403.715 516.948,403.715 516.708,403.715 
		516.228,403.476 515.508,403.476 515.028,403.955 514.548,403.476 512.149,402.275 511.909,402.035 511.669,402.035 
		511.669,401.795 511.429,401.555 511.189,401.555 509.509,399.155 509.27,398.915 509.27,398.675 509.029,398.435 508.79,397.235 
		508.79,396.035 508.79,395.794 509.029,395.794 509.27,395.075 509.75,394.595 510.709,394.114 511.669,394.354 511.909,394.354 
		512.149,394.354 512.389,394.595 512.629,394.595 512.869,395.075 513.349,396.755 513.589,397.235 514.068,397.475 
		515.988,398.915 517.428,399.395 518.868,399.395 519.348,399.875 519.828,400.355 520.308,399.635 520.547,398.675 
		520.787,398.435 520.787,398.195 521.027,397.715 521.027,397.235 521.027,396.755 521.027,396.515 521.027,396.035 
		521.027,395.794 521.027,395.075 521.267,394.114 521.267,393.875 521.267,393.634 521.507,392.435 521.747,391.954 
		521.747,391.714 521.987,391.234 521.987,390.994 521.987,390.754 522.227,390.514 522.227,390.274 522.467,390.274 
		522.467,390.034 522.707,390.034 522.947,389.794 523.187,389.794 523.187,389.554 523.427,389.554 524.387,389.314 
		525.347,389.074 525.586,388.834 526.066,388.834 526.306,388.834 528.226,389.074 528.466,389.314 528.946,389.314 
		529.426,389.314 530.146,389.314 530.386,389.314 531.105,388.594 531.585,388.354 531.825,387.874 533.025,386.193 
		533.025,385.954 533.265,385.233 533.265,384.273 533.025,383.313 532.785,382.593 532.785,382.354 532.545,382.113 
		532.305,381.633 531.825,381.393 530.386,379.953 530.146,379.473 529.906,379.233 529.906,378.273 530.146,377.313 
		530.146,377.073 530.625,376.593 531.345,376.353 532.305,376.112 533.265,376.353 534.225,376.593 534.705,376.833 
		535.425,376.833 536.864,376.833 538.304,376.593 539.504,376.112 540.464,376.112 540.704,376.353 540.944,377.073 
		540.704,378.513 539.504,380.673 539.264,381.873 539.264,383.073 539.744,383.553 540.224,384.033 541.184,384.514 
		542.144,384.514 543.103,384.033 543.583,383.073 543.583,382.354 543.343,380.913 542.624,378.993 542.624,378.273 
		542.624,378.033 543.343,376.593 544.063,375.633 543.583,374.913 545.743,373.712 546.463,373.472 546.942,373.232 
		548.622,372.992 549.102,372.752 553.182,369.872 553.901,369.152 554.381,368.432 554.621,368.192 554.621,367.952 
		554.861,367.712 554.861,367.472 554.861,367.231 555.101,366.992 555.101,366.752 555.101,366.271 555.101,365.792 
		554.861,365.312 554.141,363.631 553.661,363.151 552.941,362.671 552.702,362.191 552.461,360.991 552.222,360.751 
		552.222,358.591 552.222,357.871 552.461,356.911 552.461,356.431 552.702,356.431 552.941,355.71 553.182,354.51 553.421,354.51 
		553.421,354.271 553.421,354.03 553.661,354.03 554.621,352.59 556.541,351.87 557.741,350.67 557.98,350.43 558.221,349.71 
		558.221,349.23 558.221,348.75 557.741,347.07 557.261,346.35 556.061,344.909 555.341,343.949 554.621,343.229 554.141,342.269 
		553.182,340.829 552.461,339.149 552.461,337.469 552.702,336.029 552.941,335.308 552.941,335.068 552.941,334.829 
		552.702,334.349 552.702,333.628 552.461,331.708 552.461,331.228 552.461,330.748 553.182,329.308 553.661,328.828 
		554.381,328.588 555.101,327.388 555.581,327.147 556.541,326.667 556.781,326.908 557.261,327.147 557.5,327.388 557.98,328.108 
		558.46,328.828 558.46,329.068 558.7,330.508 558.46,330.748 557.021,331.948 556.781,332.428 556.541,333.148 556.541,334.588 
		556.541,335.308 557.021,336.029 557.5,336.749 557.741,336.988 557.98,336.988 558.7,337.229 558.94,337.229 559.18,337.229 
		559.42,337.229 559.9,337.229 560.38,337.229 561.1,336.749 562.3,336.029 562.54,335.789 562.78,335.548 563.02,335.308 
		563.739,334.349 564.939,333.148 565.899,332.428 566.859,331.228 567.099,330.988 567.579,330.268 567.819,329.308 
		568.059,328.828 568.059,328.348 568.059,328.108 567.819,327.868 567.579,327.628 567.579,327.147 567.339,327.147 
		567.339,326.908 567.099,326.667 566.859,326.667 566.379,326.428 565.899,326.188 564.939,326.188 563.739,326.428 563.5,326.428 
		563.26,326.428 562.06,326.667 560.86,326.908 560.62,326.908 560.14,326.908 559.9,326.908 559.66,326.908 558.46,326.667 
		557.741,326.188 556.541,324.747 555.341,323.307 555.101,323.067 554.861,322.827 554.861,322.347 555.101,321.387 
		555.341,320.907 555.581,320.667 556.061,320.427 556.301,320.187 556.781,320.187 557.021,319.947 557.5,319.707 557.741,319.467 
		557.98,318.987 557.98,318.507 557.98,316.827 557.741,315.387 557.5,314.667 557.5,314.187 557.5,313.706 557.98,312.746 
		558.46,312.026 558.94,311.786 559.42,311.546 559.42,311.306 559.66,311.306 560.62,311.066 561.34,311.306 561.58,311.306 
		561.82,312.026 563.02,314.426 563.26,315.387 563.26,315.867 563.26,316.106 563.02,316.106 562.78,316.827 561.34,317.787 
		560.86,318.507 560.62,319.227 560.62,319.947 560.86,320.667 561.1,321.627 561.58,322.107 563.26,322.827 564.699,322.827 
		565.899,322.827 567.099,322.347 568.539,321.627 569.019,321.147 569.019,320.667 569.258,320.667 569.258,320.427 
		569.258,320.187 569.258,319.947 569.499,319.707 569.499,319.227 569.258,318.507 569.019,318.267 568.539,316.827 
		567.099,314.426 566.619,313.226 566.619,312.746 566.619,312.506 566.619,312.266 566.619,311.786 566.859,311.066 
		567.099,310.826 567.099,310.586 567.579,309.866 568.539,309.386 568.778,308.426 568.778,308.186 568.778,307.946 
		567.819,306.266 566.619,304.105 565.659,302.905 565.419,302.665 565.419,302.425 565.419,302.185 565.179,301.225 
		565.179,300.265 565.419,300.025 565.899,299.064 566.379,298.585 567.579,297.865 568.299,297.625 569.019,297.865 
		570.218,298.345 570.698,298.585 570.938,298.825 571.178,299.064 571.178,299.305 571.418,299.305 572.138,300.745 
		572.138,301.225 572.138,301.465 572.138,301.705 571.898,302.665 571.898,303.145 571.898,304.105 572.138,305.306 
		572.858,306.266 572.858,306.505 573.817,306.746 574.297,306.746 574.777,306.505 575.498,306.266 575.737,306.025 
		578.137,304.585 581.736,303.625 582.216,303.145 583.176,302.425 584.136,303.625 585.335,304.585 585.815,304.825 
		586.775,304.825 587.255,304.585 587.495,303.865 587.735,303.385 587.735,303.145 587.735,302.665 587.495,302.425 
		587.495,302.185 586.535,300.745 586.775,300.265 587.735,299.545 590.615,298.104 594.214,295.464 594.454,294.984 
		594.694,294.504 594.934,293.304 594.934,290.904 594.694,289.944 594.694,289.704 594.694,289.464 594.454,289.224 
		594.214,288.744 593.734,288.264 593.494,288.024 593.014,287.784 590.854,286.824 590.375,286.344 589.655,285.623 
		588.935,285.383 588.455,285.144 587.735,284.183 587.495,283.703 587.015,282.263 587.495,282.263 593.014,282.263 
		596.613,282.263 597.093,282.263 608.131,282.263 609.331,282.263 609.571,282.263 613.17,282.263 615.33,282.263 617.49,282.263 
		618.209,282.263 619.649,282.263 619.889,282.263 621.089,282.263 622.049,282.263 623.729,282.263 623.968,282.263 
		624.688,282.263 626.368,282.263 627.568,282.263 628.048,282.263 628.528,282.263 630.447,282.263 632.847,282.263 
		635.006,282.263 635.247,282.263 637.166,282.263 638.126,282.263 639.326,282.263 640.045,282.263 642.205,282.263 
		643.645,282.263 646.044,282.263 650.364,282.263 654.683,282.023 656.842,282.023 658.522,282.023 659.002,282.023 
		661.161,282.023 666.681,282.023 668.84,282.023 672.199,282.023 674.84,282.023 678.678,282.023 685.397,282.023 687.557,282.023 
		688.277,282.023 688.517,282.023 688.996,282.023 691.396,282.023 692.356,282.023 694.035,282.023 694.756,282.023 
		696.195,282.023 698.355,282.023 699.314,282.023 704.834,281.783 706.993,281.783 719.471,281.543 721.631,281.543 
		723.79,281.543 724.511,281.543 728.829,281.543 729.069,281.543 731.229,281.543 735.548,281.543 737.468,281.303 
		744.187,281.303 744.666,281.303 745.146,281.303 745.386,281.303 745.626,281.303 746.346,281.303 747.306,281.303 
		748.985,281.303 752.824,281.063 753.545,281.063 756.904,281.063 757.624,281.063 761.463,280.823 761.703,280.823 
		761.943,280.823 762.183,280.823 765.782,280.823 766.262,280.823 766.742,280.823 770.102,280.823 774.66,280.823 778.74,280.583 
		782.819,280.583 787.139,280.583 796.977,280.343 799.616,280.343 802.016,280.343 806.095,280.103 806.575,280.103 
		808.255,280.103 809.455,280.103 811.614,280.103 812.573,280.103 813.294,280.103 813.773,280.103 814.494,279.863 
		824.812,279.863 826.731,279.863 828.891,279.863 839.929,279.623 840.408,279.623 840.648,279.623 846.888,279.383 
		847.127,280.103 848.567,282.503 849.527,283.463 850.007,284.183 850.486,285.383 851.207,287.063 851.927,288.504 
		852.166,288.983 852.887,290.184 853.846,291.384 854.807,292.104 855.046,292.344 855.525,292.584 856.485,293.064 
		859.605,294.264 859.846,294.504 859.365,303.385 859.125,304.825 858.886,306.746 858.646,310.106 858.405,313.706 
		858.165,315.387 858.165,316.586 857.926,319.947 857.686,322.107 857.686,323.307 857.445,324.268 856.726,330.988 
		856.726,331.228 856.726,331.708 856.246,335.068 856.246,335.308 855.766,340.109 855.766,340.349 855.766,341.309 
		854.807,350.19 854.807,351.15 854.566,354.991 854.086,358.831 854.086,359.071 854.086,359.311 854.086,359.551 853.846,362.191 
		853.846,363.151 853.846,364.111 853.606,365.552 853.127,371.072 853.127,371.312 852.406,380.433 852.166,383.313 
		852.166,384.514 852.166,384.753 851.927,385.233 851.687,389.794 851.207,395.555 850.967,396.995 850.967,397.955 
		850.728,400.115 850.486,402.275 850.247,404.916 850.247,405.636 849.768,411.156 849.527,414.276 849.527,414.517 
		849.287,415.717 849.287,418.357 849.048,419.797 848.807,424.357 848.567,425.317 848.567,426.998 848.327,427.478 
		848.088,431.318 847.607,436.839 847.367,438.039 847.127,441.639 847.127,441.879 846.888,444.76 846.888,445 846.647,446.68 
		846.168,451 846.168,451.72 845.688,456.281 845.688,457.001 845.688,457.961 845.448,458.201 845.448,459.401 845.208,461.562 
		845.208,462.761 845.208,463.481 844.968,465.882 844.729,466.842 844.488,470.682 844.248,473.803 844.248,474.283 
		844.008,476.203 844.008,476.443 843.769,480.763 843.528,482.203 843.528,483.403 843.528,483.884 843.288,486.044 
		843.048,488.444 843.048,489.644 843.048,489.884 842.809,491.084 842.809,492.284 842.809,492.765 842.568,493.004 
		842.568,493.965 842.568,494.685 842.328,498.045 842.328,498.525 842.088,501.165 841.849,501.885 841.849,503.085 
		841.849,503.565 841.608,505.246 841.129,512.446 840.648,517.247 840.648,518.927 840.408,521.327 840.169,524.928 
		839.929,526.128 839.929,526.368 839.689,529.968 839.689,530.688 839.449,533.329 839.209,535.489 838.729,540.049 
		838.489,544.37 838.489,545.57 838.249,546.77 838.01,548.21 838.01,550.851 838.01,551.09 837.29,557.811 836.569,567.652 
		836.569,567.892 836.09,571.973 835.61,580.133 835.13,585.654 835.13,585.894 834.65,589.494 834.65,590.455 834.17,597.655 
		833.45,607.016 832.73,614.217 832.73,616.377 832.73,616.617 832.49,617.577 832.49,618.057 832.49,618.297 832.25,622.138 
		832.011,624.058 831.051,634.859 830.811,637.739 830.811,638.939 830.57,642.06 829.37,655.981 829.37,656.222 829.37,656.461 
		829.37,656.701 829.131,659.342 829.131,660.781 828.891,661.502 828.411,668.942 828.171,670.143 828.171,670.383 
		828.171,671.823 827.932,672.303 827.932,672.783 827.932,673.982 827.932,674.223 827.69,674.223 827.451,678.303 
		827.211,682.624 826.971,685.984 826.491,691.024 826.491,691.265 826.011,694.865 826.011,696.306 826.011,696.545 
		825.771,697.745 825.531,699.665 825.531,701.586 825.291,703.026 825.052,706.866 824.812,708.307 823.853,718.868 
		823.853,721.027 823.611,721.508 823.611,722.948 822.173,739.029 822.173,739.51 821.932,740.71 821.692,744.79 821.692,747.67 
		821.932,751.271 822.173,756.071 822.412,758.952 822.412,760.392 822.412,760.872 822.412,761.111 822.652,761.592 
		823.132,770.473 823.132,771.673 823.132,774.313 823.372,775.514 823.853,783.193 824.092,785.354 824.092,785.594 
		824.331,790.395 824.572,791.595 824.572,794.476 825.052,799.275 825.052,801.676 825.052,801.916 825.052,802.156 
		825.052,803.116 825.291,803.836 825.531,806.477 825.531,809.837 825.771,811.518 825.771,813.437 826.011,815.598 
		826.252,818.238 826.252,819.918 826.491,823.278 826.491,825.438 827.451,836.96 827.69,839.84 827.69,840.8 827.69,841.76 
		827.69,844.16 827.932,844.16 828.65,857.361 828.891,861.442 829.131,866.002 829.37,868.162 830.091,878.484 830.091,878.724 
		830.091,878.964 	"/>
	
		<polyline clip-path="url(#SVGID_2_)" fill="none" stroke="#B37C34" stroke-width="0.7199" stroke-linecap="round" stroke-linejoin="round" stroke-miterlimit="3.85" points="
		830.091,878.964 830.57,887.124 830.57,889.765 831.051,897.445 831.29,898.646 831.29,899.126 831.29,899.846 831.29,900.086 
		831.29,900.326 832.011,910.647 832.49,918.327 832.49,918.808 832.49,919.048 832.49,921.688 832.73,922.648 832.97,928.169 
		833.21,932.969 833.21,933.689 833.45,935.13 833.45,935.85 833.689,939.931 833.93,946.17 833.93,946.651 833.93,947.131 
		834.17,948.57 834.41,951.932 834.41,952.891 834.41,954.571 834.65,957.452 834.65,957.692 834.89,959.853 835.61,973.053 
		835.369,973.294 835.13,974.253 835.369,975.214 835.85,975.693 835.85,976.174 834.89,976.894 833.689,977.134 832.49,975.453 
		830.57,975.453 829.131,976.414 828.891,976.414 828.891,977.134 828.891,977.614 828.891,977.854 828.171,979.054 
		825.771,980.734 824.572,980.974 821.452,980.494 821.213,980.254 821.213,979.534 820.252,978.814 819.053,977.614 
		817.373,977.373 817.133,977.373 816.413,977.373 815.693,977.373 815.453,977.134 813.773,977.134 813.533,977.134 
		812.814,977.134 811.614,977.134 809.455,975.214 809.215,974.974 808.734,975.453 807.295,975.934 805.855,975.214 
		805.136,974.974 804.655,974.974 803.216,974.974 800.815,974.733 800.576,974.733 798.656,975.693 796.977,976.894 
		796.018,977.614 794.338,977.854 793.617,977.854 792.418,977.854 790.019,977.134 789.538,976.653 787.858,975.214 
		786.658,974.494 781.379,971.613 781.379,971.133 781.619,970.653 781.619,970.173 780.9,969.693 779.939,968.973 779.699,968.973 
		779.46,968.732 777.54,968.013 777.061,968.493 775.381,970.413 775.62,971.133 776.101,972.573 776.34,973.053 776.101,973.053 
		772.981,971.613 772.502,971.373 772.021,971.133 772.021,970.653 771.062,970.413 770.822,970.413 767.223,970.413 
		765.543,970.653 765.063,970.653 763.863,970.653 761.223,970.894 760.743,970.894 758.823,971.373 758.344,971.373 
		758.104,971.373 757.144,971.613 756.904,971.613 754.984,972.094 750.665,973.294 746.826,974.253 746.346,974.494 
		745.866,974.733 745.386,974.974 744.906,974.974 744.666,975.214 743.946,975.453 741.066,976.653 740.827,976.653 
		740.587,976.894 738.907,977.614 737.948,978.094 736.988,978.334 736.269,978.814 735.068,979.294 732.908,980.254 
		728.59,981.454 728.109,981.694 725.23,982.895 721.871,984.094 720.91,984.335 719.951,984.574 719.231,984.574 718.991,983.854 
		718.991,983.614 718.991,982.414 719.231,980.734 719.711,980.015 720.671,980.254 720.671,978.814 720.671,977.614 
		718.991,975.214 716.111,973.773 713.473,974.014 712.752,974.014 711.793,974.494 711.313,974.733 709.873,976.414 
		709.633,977.373 710.353,977.614 711.072,978.094 712.272,978.573 712.992,978.573 713.473,979.054 713.952,979.294 
		715.152,982.174 715.392,982.174 715.152,982.895 714.911,983.614 714.191,984.574 712.512,986.015 710.593,986.735 
		709.633,987.215 707.953,989.615 707.473,989.855 706.514,990.335 705.554,990.575 704.834,991.056 703.634,991.535 
		702.674,992.015 702.194,993.215 702.194,994.176 702.194,994.415 701.234,996.576 699.074,999.456 699.074,1002.336 
		697.395,1004.017 697.155,1004.017 696.195,1003.776 695.476,1001.376 694.996,1001.136 693.556,1002.097 691.876,1002.816 
		689.477,1002.816 689.236,1003.057 688.757,1001.856 688.277,1001.376 688.036,1000.896 687.316,1000.896 687.077,1000.896 
		686.837,1000.896 686.837,1001.136 686.356,1001.136 686.117,1001.376 685.877,1001.376 685.637,1001.856 685.157,1002.336 
		684.197,1002.816 683.957,1003.057 683.478,1003.057 683.238,1003.297 683.238,1003.057 682.998,1003.057 682.758,1003.057 
		682.518,1003.057 682.518,1002.816 681.798,1002.336 681.078,1001.376 681.078,1000.896 680.838,1000.177 680.357,999.456 
		679.878,998.977 679.878,998.735 679.639,998.496 679.158,997.776 678.198,997.776 677.959,997.535 677.719,997.296 
		677.239,996.815 676.998,996.336 676.998,996.096 677.239,994.896 677.479,994.415 677.479,994.176 677.479,993.936 
		677.479,993.695 677.479,993.456 677.239,993.456 677.239,993.215 676.998,993.215 676.278,992.735 675.799,992.495 
		675.079,991.775 675.079,991.295 675.318,991.056 675.318,990.814 675.318,990.335 675.318,988.895 675.079,988.415 
		675.079,988.175 674.359,987.455 673.64,987.215 673.64,986.255 673.879,984.814 673.879,984.574 673.879,984.335 674.119,984.335 
		674.84,984.094 675.079,983.854 675.799,983.135 675.799,982.895 675.559,982.895 675.318,982.174 675.318,981.215 
		675.318,980.494 675.318,979.534 674.359,978.814 673.399,978.094 673.16,977.614 673.16,977.373 672.439,977.134 671.72,976.894 
		671.239,975.934 671,974.733 670.04,973.053 669.8,972.094 668.84,970.413 668.6,969.934 668.36,969.453 668.12,968.493 
		668.36,968.493 668.6,968.732 668.84,968.732 668.84,968.253 668.6,966.093 668.36,965.373 668.36,965.132 668.12,964.413 
		668.36,963.452 668.36,962.732 667.4,961.532 666.681,960.812 666.44,960.812 665.961,960.572 665.481,959.611 664.761,958.652 
		664.521,958.893 664.041,958.652 663.561,957.932 663.321,957.212 663.321,956.972 662.841,956.731 662.841,956.492 
		662.602,956.492 661.881,956.252 661.642,956.252 660.682,955.771 660.441,955.531 659.962,955.052 659.242,955.052 
		658.762,954.812 658.522,954.571 658.522,953.852 658.522,953.611 658.282,953.131 658.042,953.131 657.322,953.131 
		657.082,952.411 657.082,952.172 656.842,951.211 656.842,950.972 656.362,949.771 655.643,948.811 655.162,948.811 
		654.443,948.811 654.203,948.811 653.963,948.57 653.723,948.57 653.723,948.331 653.963,948.331 654.203,948.091 654.203,947.851 
		653.723,947.131 652.764,946.891 652.523,946.651 652.523,946.41 652.764,946.17 652.764,945.931 653.003,945.931 653.482,946.17 
		653.963,945.931 654.443,945.69 654.443,945.451 654.203,945.451 654.203,945.21 653.723,944.971 653.243,945.21 653.003,945.21 
		652.764,945.21 652.523,945.21 652.283,945.451 652.044,945.21 652.044,944.971 652.283,944.73 652.044,944.73 652.044,944.49 
		651.803,942.811 652.044,942.57 652.044,942.33 651.563,941.851 650.844,941.851 650.604,941.61 650.364,941.13 650.604,940.89 
		650.844,940.41 651.084,939.689 651.323,939.449 651.084,939.21 650.844,939.21 650.604,939.21 650.604,939.449 650.364,939.449 
		650.123,939.21 650.123,938.25 650.364,937.77 650.364,937.53 650.123,937.05 650.123,936.81 650.604,935.369 650.123,933.93 
		649.884,933.21 648.684,932.01 648.444,932.01 647.724,931.769 646.764,931.529 646.284,931.289 646.284,931.049 646.524,930.81 
		646.764,930.81 647.004,931.049 647.484,931.049 647.724,930.568 647.964,930.089 647.964,929.609 647.724,929.609 
		647.724,929.849 647.484,930.089 647.244,930.329 647.004,930.329 646.764,930.089 647.004,929.849 647.244,929.369 
		647.724,927.929 648.204,926.969 648.444,926.969 648.444,925.528 647.964,925.048 647.484,925.048 647.244,925.289 
		647.004,925.048 647.004,924.809 647.004,924.568 647.724,923.608 648.204,923.128 648.444,923.128 648.684,923.128 
		648.924,923.368 648.924,923.128 649.164,923.128 649.403,921.928 648.684,921.448 648.204,921.448 648.204,920.488 
		648.204,920.248 648.444,920.248 648.684,920.008 649.644,920.008 650.123,920.008 650.604,920.008 650.844,919.769 
		650.844,919.527 650.364,919.527 649.884,919.527 649.644,919.288 649.644,918.568 649.403,917.607 649.403,917.127 
		649.403,916.888 649.164,916.647 649.164,916.407 648.924,915.688 648.924,915.447 649.403,914.487 649.644,913.527 
		650.123,912.327 650.123,912.087 650.123,911.848 650.123,911.606 650.364,911.367 650.604,911.127 650.844,911.127 
		651.084,911.367 651.084,911.606 651.084,911.848 651.323,911.848 651.323,912.087 651.323,912.327 651.563,912.327 
		651.803,912.327 652.044,912.087 652.283,912.087 652.283,911.848 652.283,911.606 652.044,911.606 652.044,911.367 
		651.803,911.367 651.563,910.887 651.323,910.887 651.563,910.647 651.803,910.406 652.283,910.167 652.764,908.967 
		653.003,908.247 652.764,907.767 653.003,907.527 653.243,907.286 653.963,907.527 654.683,908.007 654.683,908.247 
		654.923,908.007 655.162,908.007 655.162,907.767 655.402,907.527 654.923,906.566 654.923,906.327 654.683,905.847 
		654.443,906.086 654.203,906.086 654.203,905.847 653.963,905.847 654.203,904.886 654.443,903.927 655.162,903.686 
		655.402,903.686 655.402,903.446 655.402,903.206 654.923,902.727 654.923,902.486 654.923,902.246 655.162,902.006 
		655.402,902.246 655.643,902.246 656.123,902.486 656.362,902.486 656.603,902.246 657.082,901.046 657.082,900.807 
		656.842,900.565 655.643,899.606 655.643,899.365 655.643,899.126 655.643,898.886 655.643,898.646 655.883,898.406 
		656.123,898.406 656.603,898.165 656.362,896.966 656.123,896.006 656.362,896.006 656.362,895.766 656.603,895.766 
		657.322,896.006 657.802,896.006 658.042,896.006 658.282,895.766 658.522,895.525 658.522,895.285 658.282,895.045 
		658.042,894.565 657.802,894.565 657.563,894.325 657.322,894.085 657.322,893.845 657.563,893.845 657.563,893.605 
		657.802,893.365 658.042,893.365 658.282,893.365 658.762,893.605 659.242,893.605 659.722,893.125 659.962,892.645 
		659.962,892.405 659.962,892.165 659.481,892.165 659.242,891.205 659.481,890.725 659.481,890.485 659.242,890.245 
		658.522,889.525 658.282,889.285 658.522,889.285 658.522,889.045 659.002,887.845 659.962,886.885 660.202,886.645 
		661.161,885.685 661.401,885.444 661.642,885.685 661.881,885.685 662.121,885.685 662.121,885.444 662.121,885.205 
		662.121,884.965 660.922,884.484 660.922,884.244 660.922,884.005 660.922,883.765 661.401,883.765 661.642,883.524 
		661.881,883.284 662.121,881.604 661.881,881.364 661.401,881.364 661.161,881.124 661.161,880.644 661.881,880.644 
		662.121,880.404 662.121,880.164 661.881,879.924 661.401,879.924 660.202,880.164 659.722,880.164 659.481,880.644 
		659.242,880.644 659.002,880.644 658.762,880.404 652.764,880.404 650.604,880.404 649.644,880.404 648.204,880.404 
		645.325,880.404 644.604,880.404 640.766,880.404 640.286,880.404 636.926,880.404 636.446,880.404 636.206,880.404 
		635.966,880.404 634.526,880.404 630.447,880.404 630.208,880.404 626.368,880.404 625.888,880.404 624.208,880.404 
		623.249,880.644 620.369,880.644 618.209,880.644 617.49,880.644 614.37,880.644 610.291,880.644 610.051,880.644 607.892,880.644 
		605.732,880.644 602.853,880.644 601.893,880.644 594.694,880.644 593.494,880.644 588.935,880.644 582.216,880.644 
		581.016,880.644 579.336,880.644 579.097,880.644 578.617,880.644 577.897,880.884 572.618,880.884 571.898,880.884 
		570.458,880.884 569.979,880.884 568.059,880.884 567.099,880.884 565.899,880.884 565.659,880.884 565.419,880.884 
		564.939,880.884 564.219,880.884 556.301,880.884 553.901,880.884 551.742,880.884 551.502,880.884 551.262,880.884 
		551.022,880.884 543.343,880.884 543.103,880.884 542.863,880.884 540.704,880.884 532.305,880.884 529.906,880.644 
		529.186,880.644 527.746,880.644 526.786,880.644 526.306,880.644 525.826,880.644 520.308,880.644 519.348,880.644 
		516.948,880.644 514.789,880.644 513.589,880.644 512.149,880.644 511.669,880.644 507.35,880.644 501.831,880.644 
		500.391,880.644 492.473,880.644 490.313,880.644 489.113,880.644 487.673,880.644 484.074,880.644 475.196,880.404 
		469.197,880.404 468.957,880.404 468.237,880.404 466.077,880.404 453.12,880.404 446.881,880.164 444.481,880.164 
		443.282,880.164 443.042,880.164 435.123,880.164 433.923,880.164 433.683,880.164 433.443,880.164 432.483,880.164 
		432.244,880.164 428.404,879.924 417.366,879.924 415.926,879.924 417.366,878.964 419.766,878.244 421.925,877.284 
		423.365,876.323 424.325,875.363 425.285,874.163 425.525,873.203 425.765,872.963 425.765,872.482 425.765,871.764 
		425.765,870.803 425.285,869.843 424.805,869.363 424.325,868.883 423.125,867.683 421.446,866.243 419.526,864.563 
		418.806,864.082 418.326,863.843 418.086,863.362 417.366,862.402 417.366,861.922 417.606,860.481 417.606,860.002 
		417.606,859.762 418.086,859.281 420.246,856.881 420.246,856.642 420.966,855.922 421.206,855.441 421.925,854.001 
		422.166,853.761 422.405,853.041 422.405,852.802 422.405,851.602 422.166,851.121 	"/>
	
		<polyline clip-path="url(#SVGID_2_)" fill="none" stroke="#B37C34" stroke-width="0.7199" stroke-linecap="round" stroke-linejoin="round" stroke-miterlimit="3.85" points="
		800.576,993.456 802.016,993.936 812.814,995.376 813.533,995.376 814.253,994.656 813.773,995.376 813.294,995.615 
		810.894,995.855 807.535,995.376 804.896,994.896 802.016,994.656 800.815,994.656 800.336,994.656 796.497,993.215 
		794.817,992.735 790.979,993.456 789.538,993.456 787.858,992.976 786.898,992.256 791.938,992.256 793.857,991.056 
		794.817,991.535 800.576,993.456 	"/>
	
		<polyline clip-path="url(#SVGID_2_)" fill="none" stroke="#B37C34" stroke-width="0.7199" stroke-linecap="round" stroke-linejoin="round" stroke-miterlimit="3.85" points="
		744.427,994.896 744.906,994.896 747.306,994.896 748.506,992.256 748.985,992.735 748.745,993.695 747.785,996.096 
		745.386,999.216 745.386,999.456 745.386,999.216 744.427,998.496 742.027,996.336 736.988,995.136 744.427,994.896 	"/>
	
		<polyline clip-path="url(#SVGID_2_)" fill="none" stroke="#B37C34" stroke-width="0.7199" stroke-linecap="round" stroke-linejoin="round" stroke-miterlimit="3.85" points="
		829.131,998.977 828.411,998.977 827.211,998.735 825.052,998.256 823.132,997.776 821.932,997.056 821.452,996.576 
		822.412,996.576 826.731,998.256 828.411,998.256 828.891,998.256 829.851,998.256 831.53,997.296 835.13,996.815 834.89,997.535 
		832.011,998.735 831.771,998.735 829.131,998.977 	"/>
	
		<polyline clip-path="url(#SVGID_2_)" fill="none" stroke="#B37C34" stroke-width="0.7199" stroke-linecap="round" stroke-linejoin="round" stroke-miterlimit="3.85" points="
		766.022,996.815 767.702,996.336 769.142,995.615 771.541,993.456 773.221,992.976 773.701,993.215 770.342,995.615 
		770.102,995.855 769.142,996.336 766.022,997.535 764.343,998.016 764.103,998.016 760.743,998.496 760.503,998.496 
		760.023,998.256 759.304,998.016 759.544,997.776 760.264,997.776 764.103,997.296 766.022,996.815 	"/>
</g>
</svg>
