<?xml version="1.0" encoding="utf-8"?>
<!-- Generator: Adobe Illustrator 15.1.0, SVG Export Plug-In . SVG Version: 6.00 Build 0)  -->
<!DOCTYPE svg PUBLIC "-//W3C//DTD SVG 1.1//EN" "http://www.w3.org/Graphics/SVG/1.1/DTD/svg11.dtd">
<svg version="1.1" id="State" xmlns="http://www.w3.org/2000/svg" xmlns:xlink="http://www.w3.org/1999/xlink" x="0px" y="0px"
	 width="1296px" height="1296px" viewBox="0 0 1296 1296" enable-background="new 0 0 1296 1296" xml:space="preserve">
<g>
	<defs>
		<rect id="SVGID_1_" x="349.219" y="264.741" width="591.731" height="772.639"/>
	</defs>
	<clipPath id="SVGID_2_">
		<use xlink:href="#SVGID_1_"  overflow="visible"/>
	</clipPath>
	
		<polyline clip-path="url(#SVGID_2_)" fill="none" stroke="#B37C34" stroke-width="0.4799" stroke-linecap="round" stroke-linejoin="round" stroke-miterlimit="3.85" points="
		361.217,420.997 362.656,420.997 367.455,421.237 370.335,421.237 371.055,421.237 371.295,421.237 371.535,421.237 
		373.934,421.237 376.813,421.477 378.493,421.477 379.213,421.477 380.173,421.477 380.893,421.477 384.013,421.717 
		385.452,421.717 388.812,421.717 390.011,421.717 393.371,421.958 394.81,421.958 396.49,421.958 402.969,422.197 403.449,422.197 
		405.368,422.197 406.088,422.197 406.329,422.197 406.808,422.197 407.528,422.197 410.647,422.197 411.607,422.438 
		412.327,422.438 414.247,422.438 414.967,422.438 415.207,422.438 415.446,422.438 416.167,422.438 417.606,422.438 
		418.566,422.438 420.966,422.677 421.686,422.677 422.166,422.677 422.405,422.677 425.045,422.677 425.765,422.677 
		426.964,422.677 427.924,422.677 431.284,422.677 432.483,422.677 432.724,422.917 438.962,422.917 439.202,422.917 
		439.922,422.917 440.642,422.917 440.882,422.917 443.042,422.917 445.201,423.157 447.601,423.157 447.841,423.157 
		449.28,423.157 449.76,423.157 450,423.157 450.48,423.157 454.56,423.157 457.919,423.397 458.399,423.397 461.758,423.397 
		461.998,423.397 462.238,423.397 462.478,423.397 462.718,423.397 466.557,423.397 467.997,423.397 468.717,423.397 
		468.957,423.397 471.356,423.157 473.516,423.157 474.716,423.157 477.355,423.157 478.315,423.157 479.035,423.157 
		479.995,423.157 481.195,423.157 482.634,423.157 483.114,423.157 486.713,423.157 487.434,423.157 487.673,423.157 
		487.914,423.157 488.153,423.157 496.072,423.157 497.032,422.917 499.431,422.917 500.151,422.917 503.99,422.917 505.67,422.917 
		506.63,422.917 507.83,422.677 508.79,422.677 509.75,422.677 511.909,422.677 512.149,422.677 514.068,422.677 515.028,422.677 
		515.269,422.677 515.988,422.438 518.868,422.438 520.067,422.438 521.747,422.438 521.987,422.438 524.387,422.438 
		525.586,422.438 525.826,422.197 527.506,422.197 527.746,422.197 527.986,422.197 528.466,422.197 529.186,422.197 
		529.666,422.197 532.305,422.197 533.505,422.197 533.985,422.197 534.225,422.197 534.705,422.197 534.945,422.197 
		535.185,422.197 538.064,421.958 539.984,421.958 542.624,421.958 542.863,421.958 543.103,421.958 543.343,421.958 
		543.583,421.958 544.063,421.958 545.503,421.717 545.743,421.717 545.983,421.717 546.223,421.717 546.463,421.717 
		546.942,421.717 549.102,421.717 550.782,421.717 551.022,421.717 552.941,421.717 558.46,421.717 560.86,421.717 562.3,421.477 
		563.26,421.477 567.819,421.477 571.898,421.477 572.618,421.237 578.137,421.237 581.256,420.997 581.976,420.997 
		582.456,420.997 590.854,420.517 591.334,420.517 592.774,420.277 593.014,420.277 593.974,420.277 594.214,420.277 
		597.333,420.277 598.533,420.277 599.253,420.277 600.453,420.277 600.693,420.277 600.933,420.277 601.173,420.037 
		603.092,420.037 603.572,420.037 609.331,420.037 609.811,419.797 610.291,419.797 610.771,419.797 612.931,419.797 
		615.09,419.797 615.33,419.797 619.169,419.557 623.968,419.317 625.648,419.077 628.768,419.077 631.887,418.837 632.127,418.837 
		632.847,418.837 633.807,418.597 634.526,418.597 636.686,418.597 638.126,418.597 640.525,418.357 642.925,418.357 
		644.604,418.117 647.244,418.117 647.724,418.117 651.563,417.877 652.283,417.877 653.963,417.637 655.162,417.637 
		655.643,417.637 657.082,417.637 664.041,417.157 664.281,417.157 665.001,417.157 666.201,417.157 666.44,417.157 
		666.681,417.157 666.92,417.157 667.4,416.917 669.561,416.917 671.96,416.677 674.359,416.677 676.039,416.437 676.278,416.437 
		676.519,416.437 676.998,416.437 682.758,415.957 685.637,415.717 686.356,415.717 687.316,415.717 688.277,415.477 
		688.757,415.477 689.477,415.477 694.275,414.997 694.996,416.437 695.235,416.677 695.715,416.917 696.915,417.637 
		697.635,418.117 697.875,418.597 697.875,418.837 697.395,420.277 697.395,420.517 697.635,420.757 697.635,420.997 
		697.875,420.997 698.355,421.477 699.314,421.717 700.515,421.958 701.954,422.197 702.914,422.438 703.153,422.438 
		703.394,422.438 703.394,422.677 703.634,422.917 703.634,423.397 703.634,424.117 703.394,425.317 703.394,425.558 
		703.394,426.038 703.634,426.278 703.874,426.518 704.114,426.758 704.594,426.998 705.073,427.238 705.313,427.478 
		705.794,427.478 706.033,427.958 706.514,428.438 706.753,429.158 706.753,429.638 706.993,429.878 706.993,430.118 
		707.473,430.598 708.193,431.078 708.434,431.078 709.393,431.318 710.113,431.318 710.832,431.318 711.072,431.318 
		711.313,431.318 711.552,431.318 711.793,431.558 711.793,432.038 711.793,432.278 711.793,432.519 711.552,432.519 
		711.072,432.999 711.072,433.238 711.072,433.479 711.072,433.718 711.313,433.958 711.793,433.958 712.032,433.958 
		712.272,434.198 712.032,434.679 711.552,435.398 711.552,435.879 711.793,436.119 711.793,436.599 712.032,436.599 
		712.272,436.599 712.752,436.599 713.231,436.839 713.231,437.079 713.473,437.319 713.712,437.319 714.191,437.319 
		714.432,437.319 714.672,437.079 714.911,437.079 714.911,437.319 714.911,437.559 714.672,438.039 714.672,438.279 
		715.152,439.239 715.392,439.479 715.632,439.479 715.871,439.479 716.352,439.479 716.831,438.999 716.831,439.479 
		716.831,439.719 716.831,439.959 717.071,440.199 717.791,440.199 718.031,440.199 718.031,439.959 718.271,439.719 
		718.751,438.999 718.991,438.999 719.231,438.999 719.471,438.999 720.19,439.239 720.431,439.479 720.671,439.719 
		720.431,439.959 720.19,440.439 719.951,440.679 719.471,440.679 718.991,440.919 718.511,441.399 718.511,441.639 
		718.511,441.879 718.271,442.359 718.031,442.359 717.791,443.08 717.312,443.799 717.071,444.52 716.831,444.52 716.831,444.76 
		716.831,445.96 716.591,446.44 715.392,449.08 715.392,449.56 715.152,449.8 715.152,450.04 715.152,450.28 714.911,450.76 
		714.911,451 714.911,451.72 715.152,452.2 715.152,452.44 715.152,452.68 714.672,453.88 714.672,454.121 714.432,454.36 
		714.191,454.601 713.952,455.081 713.952,455.321 713.952,455.561 714.191,455.801 714.191,456.521 713.952,457.481 
		713.952,458.201 714.191,458.681 714.191,459.161 714.191,459.401 714.191,459.641 713.952,460.121 713.712,460.601 
		713.712,461.321 713.712,461.562 713.712,462.521 714.191,463.961 713.952,464.682 713.952,464.922 713.952,465.402 
		713.952,465.642 713.952,466.122 713.952,466.362 713.952,466.602 713.952,466.842 713.952,467.082 714.191,467.082 
		714.191,467.802 714.191,468.042 714.432,468.762 714.432,469.242 714.672,469.482 714.672,469.722 714.672,470.202 
		714.911,471.162 715.392,472.362 715.632,473.322 715.871,474.283 716.111,474.763 715.871,475.243 715.632,476.923 
		715.871,477.163 715.871,477.403 716.352,478.123 716.352,478.363 716.591,478.843 717.312,479.803 718.031,481.243 
		718.031,481.723 718.271,482.203 718.271,482.443 718.511,482.684 718.751,482.923 718.991,483.164 719.231,483.884 
		719.711,484.604 719.951,485.083 720.431,486.044 720.671,486.284 720.91,486.524 720.91,486.764 721.391,487.004 721.631,487.244 
		721.871,487.484 721.871,487.724 722.11,487.964 722.11,488.204 722.351,488.444 722.351,488.924 722.351,489.164 722.351,489.644 
		722.351,489.884 722.11,490.124 721.631,490.604 720.91,491.564 720.431,492.284 720.19,493.484 720.19,493.965 720.431,494.685 
		720.91,496.365 721.15,497.085 721.15,497.325 721.391,497.565 721.631,498.045 721.871,498.285 723.07,499.005 723.79,499.485 
		724.511,499.965 725.71,500.685 726.189,500.925 726.43,501.165 727.149,502.125 727.629,503.085 727.629,503.565 727.629,503.806 
		727.629,504.045 727.39,504.525 727.39,505.006 727.39,505.246 727.39,505.966 727.629,506.686 727.39,506.926 727.39,507.166 
		727.149,508.126 727.149,509.566 727.39,509.566 727.39,509.806 727.869,510.286 728.349,511.006 728.59,511.006 728.59,511.246 
		728.829,511.246 729.069,511.727 729.309,511.966 730.269,512.687 730.509,512.927 730.749,512.927 731.709,513.646 
		732.669,514.606 732.908,514.606 732.908,514.847 733.148,515.087 733.868,515.567 734.828,516.047 735.308,516.527 
		736.269,517.487 736.748,518.207 736.988,518.447 737.707,519.167 737.948,519.407 738.188,519.647 738.188,519.887 
		738.428,520.127 739.387,521.087 739.867,521.567 740.587,521.808 743.227,522.768 743.467,523.007 743.706,523.488 
		744.187,523.968 744.187,524.208 744.427,525.168 744.666,526.608 744.666,527.088 745.146,527.808 745.626,528.288 
		746.106,528.768 746.346,529.008 746.586,529.008 748.266,529.488 749.226,529.488 749.465,529.488 750.665,529.728 
		751.145,530.688 751.865,531.889 752.345,533.088 752.824,533.568 753.064,533.809 753.785,534.289 754.024,535.729 
		754.024,536.449 754.265,536.929 754.265,537.169 754.744,537.649 754.744,537.889 754.984,537.889 754.984,538.129 
		755.225,538.129 755.465,538.369 756.184,539.329 756.424,539.569 756.664,539.569 756.904,539.809 757.144,540.049 
		757.384,540.289 758.344,541.009 759.063,541.489 760.023,541.969 760.983,542.209 761.463,542.45 761.703,542.689 762.183,542.93 
		762.423,542.93 763.144,543.169 763.863,543.41 764.343,543.649 764.582,543.649 764.582,543.89 764.823,543.89 764.823,544.13 
		764.823,544.37 765.063,544.37 765.063,544.85 765.063,545.09 765.303,545.09 765.543,545.57 766.022,545.81 766.262,545.81 
		766.502,546.05 766.742,546.05 766.982,546.05 767.462,546.05 767.702,546.29 767.941,546.53 767.941,546.77 768.182,547.01 
		768.662,547.49 768.662,547.73 768.902,547.73 769.382,547.97 769.621,547.97 770.581,548.69 770.822,548.69 771.541,549.17 
		772.741,549.89 773.221,550.13 773.221,550.37 774.9,552.05 775.381,552.291 776.82,553.25 777.301,553.491 777.54,553.73 
		777.54,554.211 778.261,554.691 778.98,555.171 778.98,555.411 779.699,556.611 781.14,558.051 781.379,558.291 782.1,558.531 
		782.58,558.771 782.819,559.011 783.299,559.491 783.539,560.932 783.779,561.651 783.779,561.892 783.779,562.372 
		783.779,562.611 784.019,563.332 784.26,563.572 784.26,564.052 784.26,564.292 784.26,564.772 784.26,565.012 784.26,565.492 
		784.499,565.972 784.499,566.212 784.499,566.692 784.979,567.652 784.979,567.892 785.219,569.813 785.219,570.292 
		785.459,571.252 785.698,571.732 785.939,571.973 786.419,572.692 786.898,573.413 787.139,573.653 787.139,573.893 
		787.378,574.133 787.378,574.373 787.619,575.813 787.619,576.773 787.619,577.013 786.179,578.933 786.179,579.173 
		786.179,579.653 785.219,580.613 785.219,580.854 785.219,581.093 785.459,581.573 785.698,582.054 786.419,583.494 
		787.139,584.934 787.378,585.414 787.619,585.894 787.619,586.134 787.858,586.374 787.858,586.614 788.099,586.614 
		788.099,586.854 788.338,587.094 788.578,587.574 788.578,588.294 788.818,590.214 788.818,590.455 788.818,590.694 
		788.818,590.935 789.058,591.174 789.298,591.654 789.538,592.135 789.778,593.815 790.019,594.295 790.258,594.775 
		790.498,595.255 790.979,595.735 791.458,595.975 792.178,596.455 792.418,596.935 793.138,598.135 793.377,598.375 
		796.018,599.815 796.736,600.295 796.977,600.536 797.217,600.536 797.697,600.536 798.416,600.536 798.656,600.295 
		798.896,600.295 799.377,600.295 799.377,600.055 800.096,599.815 800.336,599.575 801.296,598.375 802.495,596.935 
		803.216,596.455 803.936,595.735 804.896,594.055 805.136,593.095 805.375,593.095 805.375,592.854 805.136,592.615 
		805.136,592.375 805.136,592.135 805.136,591.895 805.375,591.895 805.375,591.654 805.615,591.174 806.095,590.214 
		806.335,589.974 806.814,589.734 807.775,589.254 808.734,589.254 808.975,589.254 809.215,589.494 809.935,589.734 
		810.174,589.734 811.135,589.734 811.614,589.734 812.094,589.734 812.334,589.974 812.573,589.974 813.294,590.214 
		813.533,590.214 813.533,590.455 814.733,590.935 815.213,591.174 815.453,591.174 816.653,591.895 817.854,592.375 
		817.854,592.615 818.093,592.615 818.333,592.854 818.573,592.854 818.813,592.854 819.293,593.095 820.013,593.575 
		820.252,593.575 820.973,593.575 821.213,593.575 822.173,593.334 822.652,593.334 822.893,593.334 823.372,593.575 
		823.853,593.815 824.331,593.575 824.572,593.575 825.052,593.815 825.771,594.295 826.731,594.535 826.971,594.775 
		827.211,594.775 827.451,595.015 828.171,595.495 828.171,595.735 828.65,595.975 828.65,596.215 829.131,596.455 829.61,596.935 
		829.851,597.175 830.091,597.175 830.331,597.175 830.57,597.175 830.811,597.415 831.051,597.415 831.53,597.655 831.771,597.895 
		832.25,598.135 832.49,598.135 833.21,598.855 833.689,599.095 834.17,599.335 834.41,599.575 835.13,599.815 835.369,599.815 
		835.85,600.295 836.33,600.536 837.049,600.775 837.29,601.255 837.29,601.496 837.29,601.976 837.29,602.456 837.049,604.616 
		836.81,605.576 836.33,606.296 834.41,608.216 832.97,609.417 832.49,609.896 832.25,610.376 832.25,610.616 832.25,610.856 
		832.011,611.336 831.53,612.296 830.811,612.537 829.851,613.737 829.37,614.457 829.37,614.937 829.37,615.417 829.37,616.137 
		829.61,617.097 830.331,618.057 830.57,618.537 830.811,618.537 831.29,619.498 831.53,619.737 831.771,619.978 831.771,620.217 
		832.011,620.938 832.25,621.658 832.49,623.338 832.49,623.578 832.49,624.298 832.49,625.018 832.25,625.978 832.25,626.938 
		832.011,626.938 832.011,627.178 831.53,628.138 831.29,628.618 830.811,629.338 830.331,629.578 830.331,629.818 830.091,629.818 
		829.61,630.539 829.37,630.778 829.131,630.778 828.891,631.019 827.932,632.938 827.69,633.179 827.451,633.419 827.451,633.659 
		826.971,634.379 826.971,634.619 826.252,635.819 826.011,636.059 825.771,637.019 825.531,638.699 825.291,639.659 
		825.052,640.859 825.052,641.58 825.052,641.82 824.812,642.3 824.572,643.74 824.572,643.98 824.572,644.7 824.331,645.42 
		824.331,645.66 824.092,645.9 824.092,646.14 823.611,647.34 822.173,649.021 821.452,650.221 820.973,650.46 819.772,651.9 
		819.532,652.141 819.532,652.381 819.293,652.86 818.813,654.301 818.813,654.781 817.854,656.941 817.613,657.661 
		817.613,658.861 817.613,660.781 817.613,661.981 817.613,662.222 817.613,662.462 817.613,662.702 817.613,662.941 
		817.613,663.182 817.613,663.422 817.613,663.662 817.854,664.143 817.854,664.382 817.854,664.622 817.854,664.861 
		818.093,664.861 818.093,665.342 818.333,665.822 818.333,666.062 818.333,666.542 818.333,666.782 818.813,668.223 
		819.053,669.423 819.532,670.143 819.532,670.383 819.772,670.623 820.013,671.103 820.732,672.063 821.452,673.022 
		821.692,673.263 822.652,673.982 823.132,674.223 823.611,674.223 824.331,674.463 825.291,674.943 826.011,675.663 
		826.731,676.383 828.411,679.023 828.65,679.504 828.891,679.504 828.891,679.744 829.131,680.224 829.37,680.464 829.61,681.184 
		831.771,683.104 832.97,683.584 835.85,685.504 836.569,685.023 836.81,684.784 837.049,684.784 838.249,685.504 838.489,685.504 
		839.449,686.225 839.689,686.225 839.689,686.465 839.929,686.944 839.929,687.424 839.929,688.145 839.929,688.385 
		840.169,688.625 840.408,688.864 840.889,689.344 840.889,689.585 841.129,689.585 841.129,689.824 841.369,689.824 
		842.809,690.785 843.048,690.785 843.288,691.024 843.528,691.024 844.008,691.024 844.729,690.785 845.448,690.785 
		845.928,690.785 845.928,691.024 846.168,691.024 846.168,691.265 846.407,691.744 846.407,691.985 846.647,692.225 
		846.888,692.465 847.127,692.465 848.327,692.944 849.768,694.625 850.486,695.585 851.207,696.064 851.447,696.306 
		852.406,696.306 852.646,696.306 853.127,696.306 855.046,695.825 856.246,695.346 856.485,695.825 856.726,696.306 
		856.726,696.545 856.966,696.545 857.686,696.306 857.686,696.785 857.686,697.025 857.205,697.745 856.726,697.985 
		855.766,698.465 854.807,698.706 854.566,699.186 854.086,699.665 853.606,700.146 853.606,700.865 853.606,701.105 
		853.846,701.105 853.846,701.346 854.807,703.026 854.807,703.266 855.525,704.706 855.766,704.706 855.766,704.946 
		856.006,704.946 856.246,705.186 856.726,705.427 856.966,705.666 857.205,705.666 858.405,706.146 859.125,706.146 
		860.085,706.146 860.564,705.906 861.765,704.946 862.244,704.466 862.484,703.985 862.965,703.266 863.444,703.026 
		864.404,702.066 864.885,701.826 865.124,702.066 865.604,702.306 867.523,703.746 868.483,704.227 868.963,704.227 
		868.963,704.466 869.203,705.186 868.963,705.186 868.963,705.427 868.963,705.666 869.203,706.626 869.443,706.866 
		870.163,707.586 870.643,707.106 870.643,707.347 871.123,707.347 872.083,707.347 872.323,707.586 872.803,707.826 
		873.043,707.826 873.283,707.826 874.242,707.826 874.482,708.066 874.963,708.787 875.202,709.026 876.162,709.986 
		877.603,710.947 878.082,711.187 878.322,711.187 879.042,711.666 879.281,711.906 879.762,712.146 880.002,712.146 
		880.002,712.387 880.481,712.627 880.961,713.587 881.201,713.827 881.441,714.066 881.441,714.307 881.441,714.547 
		881.441,714.787 881.441,715.027 881.441,715.268 881.201,715.507 881.201,715.987 880.961,716.468 880.961,716.947 
		881.201,717.668 881.201,717.907 881.441,718.147 881.682,718.147 882.641,718.387 882.881,718.387 883.841,718.387 
		884.32,717.907 884.801,717.907 885.281,717.907 885.521,717.907 885.521,718.387 	"/>
	
		<polyline clip-path="url(#SVGID_2_)" fill="none" stroke="#B37C34" stroke-width="0.4799" stroke-linecap="round" stroke-linejoin="round" stroke-miterlimit="3.85" points="
		885.521,718.387 885.521,718.627 885.761,718.868 886,718.868 886.721,719.107 886.721,719.348 887.2,719.588 887.68,720.548 
		888.16,721.268 888.4,721.508 888.4,721.748 889.359,721.988 889.84,722.228 892.239,722.708 892.959,722.708 893.439,722.948 
		893.68,723.188 894.159,723.428 894.398,723.908 894.639,724.389 894.639,724.868 894.639,725.348 894.398,726.309 
		894.398,727.508 894.639,727.988 894.639,728.709 894.398,728.709 894.398,729.188 894.639,729.669 895.119,730.148 
		895.599,730.869 895.839,731.109 896.078,731.349 896.798,732.068 897.278,732.549 897.519,732.549 897.998,733.509 
		898.238,733.749 898.238,734.229 898.479,734.469 898.238,734.469 898.238,734.949 897.998,735.189 897.758,735.43 897.519,735.43 
		896.798,735.669 895.599,735.189 895.359,735.189 895.119,735.189 894.879,735.189 894.639,735.43 894.639,735.669 
		894.639,735.909 894.639,736.39 894.639,736.629 894.639,737.35 894.639,737.83 894.639,738.549 895.119,740.47 895.599,741.189 
		896.078,741.67 896.559,742.39 896.798,742.87 897.039,743.83 897.519,744.79 897.519,745.03 898.479,746.23 898.479,746.471 
		899.198,747.431 899.438,747.67 899.438,747.91 899.678,747.91 900.158,748.391 901.117,749.11 901.117,749.351 901.357,749.591 
		901.598,750.07 901.838,750.07 902.077,750.311 902.077,750.551 902.317,750.79 902.317,751.031 903.037,751.99 903.757,753.911 
		903.757,754.151 903.757,754.391 903.997,754.391 903.997,754.631 903.997,754.871 903.997,755.111 904.237,755.592 
		904.237,756.071 904.237,756.312 904.237,756.791 903.757,759.672 903.757,759.912 903.757,760.152 903.518,760.632 
		903.277,760.872 902.317,761.352 902.077,761.352 901.598,761.592 899.918,761.832 899.198,762.072 898.958,762.072 
		898.958,762.312 898.719,762.312 898.719,762.552 898.479,762.552 898.238,763.271 897.998,763.752 897.278,764.231 
		897.039,764.473 897.039,764.712 896.798,764.952 896.798,765.673 896.798,766.152 896.559,766.393 896.559,766.632 
		896.559,766.873 896.559,767.112 896.318,767.353 896.559,767.353 896.559,767.593 896.559,768.072 896.798,768.553 
		897.519,769.513 897.998,769.993 898.479,770.473 899.198,771.193 899.918,770.952 900.878,770.952 901.357,770.952 
		901.598,771.193 901.838,771.193 901.838,771.433 901.838,771.913 901.838,772.152 901.838,772.394 901.598,773.113 
		901.357,773.833 901.357,774.073 901.117,774.313 901.357,774.793 901.838,776.233 901.838,776.714 902.317,777.673 
		902.317,777.914 902.558,778.153 903.037,778.873 903.997,780.794 904.478,781.754 905.438,783.193 906.396,784.394 
		906.396,784.635 906.637,784.874 906.877,785.114 907.117,785.114 907.597,785.594 908.316,786.074 908.557,786.074 
		908.797,786.314 909.036,786.794 909.756,787.754 909.996,788.715 909.996,789.194 909.756,790.155 909.756,790.395 
		909.276,791.595 909.276,792.074 909.276,792.556 909.516,792.795 909.516,793.035 909.756,793.275 909.756,793.515 
		909.996,793.515 909.996,793.755 911.436,794.715 912.875,794.955 914.315,795.676 915.035,795.915 915.515,796.155 
		915.995,796.636 917.675,798.315 918.875,798.795 919.354,798.556 919.834,798.076 920.074,797.835 920.314,797.355 
		920.555,795.676 920.314,794.955 919.834,794.235 918.875,793.515 917.675,793.035 916.715,792.795 916.475,792.556 
		916.234,792.074 915.995,791.835 915.755,791.355 915.995,790.155 917.194,790.155 918.154,790.155 918.154,790.395 
		918.395,790.395 919.834,790.395 920.074,790.395 920.314,790.395 920.314,790.155 920.555,789.675 920.555,789.435 
		921.514,791.114 922.234,792.556 922.474,793.275 923.434,793.755 924.153,794.235 924.633,794.715 925.113,794.955 
		925.594,795.195 925.594,795.436 925.833,795.676 925.833,795.915 925.833,796.155 926.073,796.636 926.073,796.876 
		926.073,797.115 926.313,798.076 926.553,799.275 927.272,799.996 927.992,800.235 928.473,800.235 929.192,799.756 
		930.152,799.275 930.632,799.035 931.112,799.035 931.592,798.795 932.072,798.556 932.313,798.556 933.031,798.556 
		933.272,798.795 933.752,799.275 934.231,799.756 934.472,799.996 934.711,800.235 934.711,800.476 934.711,800.716 
		934.711,801.195 934.711,802.636 934.711,803.116 934.231,805.276 933.512,808.877 933.512,809.356 933.272,809.837 
		933.031,810.317 933.031,810.557 932.792,810.557 932.792,810.797 932.552,812.236 932.072,813.437 931.112,813.437 
		930.632,813.437 930.393,813.917 930.152,813.917 929.672,813.917 929.192,814.157 928.952,814.397 928.713,814.877 
		928.713,815.357 928.713,816.798 928.713,817.277 928.713,817.518 928.952,817.757 929.433,818.718 929.672,819.198 
		930.393,819.438 930.872,819.678 931.832,819.678 932.792,819.678 933.272,819.678 933.752,819.918 933.992,820.397 
		934.231,821.118 934.472,821.357 934.472,821.838 934.231,822.798 933.992,823.278 933.752,823.519 933.272,823.758 
		932.792,823.758 932.313,823.278 932.072,823.278 931.592,823.278 931.353,823.278 930.872,823.278 930.152,823.038 
		929.912,823.038 929.672,823.038 929.433,823.278 928.952,823.519 928.473,823.758 927.992,824.478 927.513,825.198 
		927.272,825.919 927.272,826.639 927.272,826.878 927.272,827.358 927.272,827.599 927.513,827.599 927.513,827.839 
		927.753,828.078 927.753,828.318 928.952,829.279 929.672,830.239 930.393,830.719 930.393,830.959 930.393,831.919 
		930.393,832.159 930.152,832.398 930.393,832.398 931.353,833.119 930.872,833.84 930.152,834.799 929.433,835.52 928.952,836 
		928.713,836.479 928.232,837.199 927.992,837.68 927.992,838.399 927.992,840.319 927.033,842.72 926.793,843.2 926.553,843.2 
		926.073,843.92 925.113,844.16 923.193,844.4 922.953,844.4 922.474,844.16 921.994,843.92 921.994,843.681 921.514,843.439 
		921.514,843.2 919.834,841.52 919.354,840.561 918.154,838.88 917.675,838.399 916.955,837.439 916.715,837.439 916.234,837.68 
		915.515,837.68 914.315,838.16 913.596,838.399 913.115,838.88 912.636,839.6 912.636,839.84 912.636,840.319 912.396,842.24 
		912.396,843.2 911.195,845.84 911.195,846.081 911.195,846.561 911.195,847.521 910.716,849.201 909.756,852.321 909.516,853.041 
		909.276,853.521 908.797,854.241 908.076,855.201 907.117,856.401 906.877,856.642 906.156,857.122 905.917,857.122 
		905.197,857.122 904.717,857.122 903.997,856.881 903.518,856.401 903.277,855.922 903.277,855.441 903.037,855.201 
		903.277,854.961 903.757,853.281 903.757,852.802 903.997,852.321 904.478,851.841 904.478,851.602 904.717,851.36 
		904.957,851.121 904.957,850.881 905.197,850.16 905.197,849.44 905.438,849.201 905.438,848.721 905.197,848.48 905.197,848.24 
		904.957,847.521 904.957,846.801 904.478,846.081 903.997,845.36 903.997,845.12 903.757,845.12 903.518,844.881 902.077,844.4 
		900.878,844.4 900.397,844.16 900.158,844.16 899.918,844.16 899.678,843.92 898.238,844.16 897.998,844.16 897.519,844.64 
		897.278,844.64 897.039,844.881 896.559,845.601 896.318,846.081 896.078,846.801 896.078,847.281 896.078,847.761 896.078,848.24 
		896.559,848.961 896.798,849.44 897.039,850.16 897.278,850.641 897.758,851.121 897.758,851.36 898.719,852.321 899.198,853.041 
		899.198,853.281 899.438,853.761 900.638,854.722 900.878,855.201 900.878,855.441 900.878,856.401 900.878,856.881 
		900.638,857.602 900.638,857.842 900.397,858.081 899.198,859.281 898.958,859.522 898.958,860.002 898.958,860.481 
		898.958,860.722 898.958,861.202 899.198,861.442 900.878,863.603 901.838,865.282 902.317,866.002 902.317,866.243 
		902.317,866.482 902.317,867.202 902.077,867.923 901.838,868.643 901.598,869.123 901.357,869.603 901.117,869.843 
		900.638,870.323 900.158,870.563 899.438,870.563 898.238,870.563 896.318,870.083 894.639,870.083 894.159,870.323 
		893.68,870.563 893.199,871.043 892.959,871.764 892.959,872.482 892.959,872.723 893.68,873.923 895.839,875.123 896.318,875.363 
		896.798,876.084 898.958,877.044 899.438,876.804 899.678,876.563 899.918,876.563 899.918,876.804 900.397,877.044 
		900.397,877.284 900.638,877.284 900.638,877.764 900.878,878.724 900.878,879.684 900.638,879.684 900.397,880.164 
		899.918,880.164 899.678,880.164 899.198,879.924 898.719,879.924 898.479,879.924 898.238,880.164 897.519,880.884 
		897.278,880.884 896.318,881.364 895.119,881.604 894.639,881.604 894.398,881.364 894.159,881.364 892.959,881.124 892,880.644 
		891.52,880.404 891.279,880.404 890.56,880.404 888.4,880.644 887.68,880.644 887.2,880.404 886.96,880.404 886.721,880.404 
		886.48,880.644 886.48,880.884 886.24,881.364 886,881.364 886,881.604 886,881.844 886,882.084 886,882.324 886.48,882.805 
		886.721,882.805 886.96,883.044 887.2,883.284 887.92,883.765 888.4,884.244 888.88,884.724 889.84,885.205 890.319,885.444 
		890.56,885.685 891.52,886.404 892.239,886.885 892.959,887.364 893.439,887.604 893.919,887.845 894.879,888.805 895.599,889.525 
		896.078,890.245 896.078,890.485 896.318,890.965 896.559,891.686 896.559,892.405 896.559,892.645 896.318,893.125 
		896.318,893.605 895.839,894.085 895.599,894.325 894.639,895.045 894.159,895.285 894.159,895.525 893.68,895.766 
		893.439,895.766 892.239,896.246 890.8,896.726 890.08,897.206 889.6,897.686 889.12,898.406 889.12,898.646 888.88,899.846 
		888.88,902.006 888.64,902.727 888.64,903.927 888.64,904.406 888.4,904.886 888.16,905.606 887.44,906.807 887.2,907.286 
		887.2,907.527 887.2,907.767 884.801,907.767 884.32,907.767 881.441,908.007 878.563,908.247 875.202,908.247 874.482,908.486 
		873.763,908.486 872.803,908.486 872.323,908.486 870.403,908.727 869.923,908.727 866.084,908.967 864.885,908.967 
		864.645,908.967 864.404,908.967 863.685,908.967 861.765,909.207 856.485,909.447 855.046,909.447 852.166,909.687 
		851.687,909.687 851.207,909.687 850.967,909.687 850.728,909.687 850.247,909.687 850.007,909.687 847.367,909.927 
		844.968,910.167 844.248,910.167 839.449,910.406 835.85,910.647 835.61,910.647 831.53,910.647 831.29,910.887 828.891,910.887 
		828.171,910.887 828.65,909.927 828.891,909.447 829.131,908.967 829.851,908.486 830.331,907.527 830.331,907.286 
		830.331,907.047 830.57,906.566 830.331,906.086 830.331,905.847 830.57,905.847 830.811,905.606 831.29,905.127 831.53,905.127 
		831.53,904.646 831.53,903.927 831.53,903.686 831.771,902.967 832.73,902.486 832.97,902.006 832.97,901.766 832.73,901.526 
		832.73,900.807 832.73,900.565 832.97,900.565 833.45,900.086 833.93,899.846 834.41,899.606 834.65,898.886 834.65,898.646 
		834.89,897.926 834.89,897.686 835.13,897.686 836.33,897.445 836.81,897.206 837.29,896.966 837.77,896.246 838.01,896.246 
		838.249,896.246 838.489,896.246 838.729,896.006 838.969,895.525 839.209,895.285 839.449,895.045 839.929,894.806 
		839.929,894.565 840.169,894.085 840.169,893.845 840.169,893.365 839.929,892.645 840.169,891.926 840.169,891.686 
		840.408,891.205 841.129,889.765 841.369,889.765 841.608,890.005 841.849,890.005 842.328,889.765 842.328,889.525 
		842.809,889.045 842.568,888.805 842.568,888.564 842.809,888.564 843.048,888.564 843.288,888.085 843.528,887.845 
		843.769,887.604 844.008,887.604 844.248,887.604 844.488,887.124 844.968,886.885 845.448,886.645 846.168,886.165 
		846.168,886.404 846.407,886.404 846.647,886.404 846.888,886.165 846.888,885.924 847.607,884.965 848.088,884.965 
		848.327,884.965 848.567,884.965 849.048,884.724 849.287,884.244 849.287,884.005 849.048,884.005 848.807,883.524 
		848.567,883.284 848.807,883.284 849.048,883.044 849.287,883.044 849.768,882.084 849.768,881.364 850.007,880.644 
		850.247,880.644 850.728,880.644 851.207,880.164 851.927,879.924 852.406,879.924 852.646,879.924 853.127,878.724 
		853.127,878.003 853.606,877.523 853.606,877.284 854.086,876.323 854.086,876.084 853.846,875.844 853.606,875.363 
		852.887,874.644 852.887,874.883 852.646,874.883 852.646,874.644 852.646,874.403 852.406,874.403 852.646,874.163 
		852.646,873.684 852.887,873.443 853.127,873.203 852.887,873.203 852.887,872.963 852.887,872.723 852.887,872.243 
		853.127,872.243 853.127,872.003 852.646,871.522 852.887,871.283 853.366,870.803 853.606,870.323 853.846,869.603 
		853.846,868.883 853.846,867.923 853.366,867.202 852.887,866.723 852.646,866.482 852.646,866.243 852.406,866.002 
		852.166,866.002 850.967,865.522 850.247,865.522 850.007,865.522 849.768,865.762 849.287,865.522 849.048,865.282 
		848.567,865.043 848.088,865.043 847.848,864.563 847.367,864.802 847.127,864.802 847.127,864.563 847.367,864.563 
		847.367,864.322 847.367,863.843 847.367,863.603 847.367,863.843 847.127,863.843 846.888,863.843 846.647,863.603 
		846.647,863.362 846.647,863.122 846.647,862.882 846.888,862.882 847.127,862.882 847.367,862.162 847.367,861.682 
		847.127,861.682 847.127,861.202 847.127,860.722 847.127,860.242 846.647,860.002 846.647,859.762 846.647,859.522 
		846.407,859.281 846.407,859.522 845.448,859.522 845.448,859.041 845.688,858.562 845.928,858.802 846.168,858.802 
		846.407,858.562 846.407,858.322 846.407,858.081 846.168,858.081 845.928,858.081 844.968,857.602 845.208,857.122 
		844.968,857.122 844.968,856.881 845.208,856.881 845.208,856.401 844.968,856.401 844.968,856.161 845.208,856.161 
		845.448,855.922 845.208,855.922 845.448,855.682 843.528,855.682 841.849,855.922 839.689,855.922 839.449,855.922 
		838.729,855.922 837.29,856.161 835.61,856.161 831.051,856.401 830.331,856.401 829.131,856.401 825.771,856.401 821.452,856.642 
		820.973,856.642 820.492,856.642 817.854,856.881 815.453,856.881 814.974,856.881 813.773,856.881 808.494,857.122 
		807.775,857.122 807.535,857.361 806.814,857.361 805.855,857.361 805.136,857.361 802.976,857.361 802.016,857.361 
		801.775,857.602 798.177,857.602 796.736,857.602 791.938,857.842 790.738,857.842 790.498,857.842 790.258,857.842 
		788.578,858.081 784.499,858.081 783.539,858.322 783.299,858.322 782.58,858.322 782.34,858.322 782.1,858.322 781.859,858.322 
		778.02,858.322 776.581,858.562 774.9,858.562 774.66,858.562 772.981,858.562 770.581,858.802 769.861,858.802 762.902,859.041 
		761.943,859.041 760.264,859.041 756.424,859.281 752.345,859.522 751.625,859.522 750.905,859.522 744.906,859.762 
		742.746,859.762 736.027,860.002 735.788,860.002 733.628,860.002 733.148,860.002 732.429,860.002 731.948,860.002 
		729.549,860.002 728.109,860.002 727.629,860.002 727.39,860.002 727.149,860.002 725.23,860.242 724.989,860.242 724.511,860.242 
		724.27,860.242 723.79,860.242 723.311,860.242 723.07,860.242 722.831,860.242 722.11,860.242 720.431,860.242 719.231,860.242 
		718.751,860.242 717.312,860.242 716.111,860.481 715.152,860.481 712.512,860.481 711.313,860.481 707.953,860.722 
		704.354,860.722 703.153,860.722 702.914,860.722 701.474,860.962 701.234,860.962 700.994,860.962 698.355,860.962 
		697.395,860.962 695.955,860.962 695.715,860.962 692.596,861.202 689.956,861.202 689.477,861.202 688.036,861.202 
		685.157,861.442 684.918,861.442 682.277,861.442 681.559,861.442 680.357,861.442 679.158,861.442 678.919,861.442 
		677.479,861.442 675.318,861.442 673.399,861.682 671.96,861.682 670.76,861.682 666.681,861.922 665.481,861.922 665.24,861.922 
		665.001,861.922 661.401,861.922 661.161,861.922 656.842,862.162 656.123,862.162 653.482,862.162 651.563,862.162 
		651.323,862.402 650.364,862.162 647.244,862.402 646.764,862.402 646.044,862.402 645.084,862.162 644.365,862.402 
		641.965,862.402 641.725,862.402 641.485,862.402 638.846,862.402 637.646,862.402 636.686,862.402 635.006,862.402 
		634.767,862.643 630.447,862.643 629.967,862.643 629.007,862.643 628.288,862.643 617.49,862.882 616.53,862.882 615.33,862.882 
		610.771,862.882 609.331,863.122 605.972,863.122 605.732,863.122 603.812,863.122 602.853,863.122 602.373,863.122 
		599.013,863.122 597.813,863.122 595.414,863.122 595.174,863.362 590.615,863.362 588.935,863.362 585.576,863.362 
		585.096,863.362 583.416,863.362 583.176,863.362 578.377,863.603 577.417,863.603 574.777,863.603 570.698,863.603 
		569.019,863.603 566.619,863.603 563.02,863.603 562.78,863.603 562.06,863.603 561.82,863.603 561.1,863.603 560.62,863.603 
		560.14,863.603 559.42,863.603 558.46,863.603 558.221,863.603 556.301,863.603 554.861,863.603 553.901,863.603 553.661,863.603 
		552.941,863.603 552.222,863.603 551.742,863.603 545.743,863.843 545.503,863.843 537.104,863.843 536.145,863.843 
		535.425,863.843 534.705,863.843 533.745,863.843 533.025,863.843 532.545,863.843 532.305,863.843 531.345,863.843 
		530.866,863.843 523.667,864.082 523.427,864.082 523.187,864.082 520.787,864.082 517.428,864.082 515.988,864.082 
		515.508,864.082 515.269,864.082 512.869,864.082 512.629,864.082 512.389,864.082 511.669,864.082 511.429,864.082 
		509.509,864.082 508.79,864.082 502.551,864.082 500.871,864.082 500.631,864.082 500.391,864.082 499.671,864.082 
		499.431,864.082 499.191,864.082 497.751,864.082 493.912,864.082 493.432,864.082 493.192,864.082 492.953,864.082 
		492.232,864.082 491.993,864.082 490.313,864.082 485.754,864.082 485.514,864.082 485.274,864.082 485.034,864.082 
		484.314,864.082 481.915,864.082 	"/>
	
		<polyline clip-path="url(#SVGID_2_)" fill="none" stroke="#B37C34" stroke-width="0.4799" stroke-linecap="round" stroke-linejoin="round" stroke-miterlimit="3.85" points="
		481.915,864.082 480.475,864.082 479.515,864.082 479.035,864.082 477.595,864.082 475.676,864.082 475.436,864.082 
		475.196,864.082 473.516,864.082 473.036,864.082 472.796,864.082 470.157,864.082 469.677,864.082 469.437,864.082 
		467.757,864.082 467.277,864.082 463.918,864.082 463.438,864.082 460.798,864.082 460.318,864.082 457.439,864.082 
		455.279,864.082 455.279,862.402 455.279,862.162 455.279,860.481 455.279,860.242 455.279,860.002 455.279,858.802 
		455.279,858.322 455.279,856.642 455.279,855.682 455.279,853.521 455.279,853.281 455.279,852.561 455.279,851.841 
		455.279,850.641 455.279,850.401 455.279,847.521 455.279,847.04 455.279,845.84 455.279,845.601 455.279,842.24 455.279,841.52 
		455.279,836.239 455.279,835.279 455.279,834.56 455.279,832.64 455.279,829.279 455.279,828.799 455.279,828.318 455.279,827.839 
		455.279,826.878 455.279,826.398 455.279,826.158 455.279,823.998 455.279,822.798 455.279,821.118 455.279,819.438 
		455.279,818.478 455.279,817.998 455.279,817.518 455.279,816.558 455.279,815.598 455.279,815.357 455.279,810.557 
		455.279,810.317 455.279,810.077 455.279,809.356 455.279,808.877 455.279,808.396 455.279,806.236 455.279,805.516 
		455.279,803.836 455.279,803.356 455.279,803.116 455.279,802.396 455.279,801.676 455.279,801.436 455.279,800.716 
		455.279,800.476 455.279,800.235 455.279,799.756 455.279,799.516 455.279,798.795 455.279,798.556 455.279,797.596 
		455.279,797.115 455.279,795.915 455.279,795.676 455.279,793.515 455.279,792.556 455.279,791.114 455.279,790.395 
		455.279,789.435 455.279,788.955 455.279,787.515 455.279,785.114 455.279,784.154 455.279,783.914 455.279,781.514 
		455.52,774.793 455.52,773.353 455.52,770.473 455.52,770.232 455.52,768.553 455.52,767.112 455.52,765.432 455.52,763.752 
		455.52,762.312 455.52,760.632 455.52,760.152 455.52,759.672 455.52,759.191 455.52,758.231 455.52,757.511 455.52,755.111 
		455.52,753.432 455.52,752.711 455.52,751.99 455.52,750.07 455.52,749.591 455.52,749.351 455.52,748.871 455.52,748.631 
		455.52,748.15 455.52,747.91 455.52,743.83 455.52,740.949 455.52,740.229 455.52,739.27 455.52,737.109 455.52,736.149 
		455.52,735.669 455.52,735.43 455.52,735.189 455.52,731.828 455.52,730.869 455.52,727.508 455.52,727.028 455.52,726.309 
		455.52,725.828 455.52,721.268 455.52,719.348 455.52,718.627 455.52,718.387 455.52,717.668 455.52,716.947 455.52,716.468 
		455.759,715.507 455.52,714.787 455.759,713.827 455.759,712.387 455.759,711.906 455.759,710.706 455.759,708.787 
		455.759,708.547 455.759,708.066 455.759,707.826 455.759,707.586 455.759,707.106 455.759,706.866 455.759,704.706 
		455.759,703.985 455.759,703.026 455.759,702.546 455.759,697.745 455.759,695.105 455.759,694.625 455.759,694.385 
		455.759,688.864 455.759,688.145 455.759,686.944 455.759,685.504 455.759,684.304 455.999,683.584 455.999,683.344 
		455.999,680.943 455.999,679.983 455.999,679.504 455.999,678.063 455.999,677.823 455.999,677.103 455.999,675.903 
		455.999,672.303 455.999,672.063 455.999,670.383 455.999,670.143 455.999,668.942 455.999,667.742 455.999,667.502 
		455.999,667.021 455.999,666.542 455.999,665.342 455.999,664.382 455.999,662.222 455.999,661.742 455.999,659.581 
		455.999,659.102 455.999,658.381 455.999,657.901 455.999,657.661 455.999,656.461 455.999,650.221 455.999,649.98 
		455.999,649.261 455.999,648.541 455.999,645.42 455.999,642.3 455.999,642.06 455.999,640.379 455.999,639.179 455.999,638.939 
		455.999,636.059 455.999,635.819 455.999,634.379 455.999,633.899 455.999,632.938 456.239,628.858 456.239,628.378 
		456.239,628.138 456.239,625.978 456.239,622.377 456.239,621.897 456.239,621.658 456.239,621.417 456.239,621.178 
		456.239,619.257 456.479,617.097 456.479,616.137 456.479,613.977 456.479,612.296 456.479,612.057 456.479,611.577 
		456.479,609.896 456.479,609.656 456.479,609.176 456.479,608.456 456.479,607.736 456.479,607.496 456.479,606.056 
		456.479,605.096 456.479,604.856 456.479,603.656 456.479,603.176 456.479,602.936 456.479,601.976 456.479,601.016 
		456.479,600.295 456.479,599.815 456.479,599.575 456.479,598.855 456.479,598.135 456.479,597.175 456.479,596.935 
		456.479,596.695 456.479,596.455 456.479,596.215 456.479,595.255 456.479,595.015 456.479,594.775 456.479,594.295 
		456.479,594.055 456.479,593.334 456.479,592.615 456.479,592.135 456.479,591.895 456.479,591.415 456.479,591.174 
		456.479,590.455 456.479,590.214 456.479,589.734 456.479,589.494 456.479,589.014 456.479,588.774 456.479,588.534 
		456.479,588.294 456.479,588.054 456.479,587.574 456.479,587.334 456.479,587.094 456.479,586.854 456.479,586.614 
		456.479,586.374 456.479,585.654 456.479,584.454 456.479,583.734 456.479,581.093 456.479,580.374 456.719,580.133 
		457.199,579.413 457.679,578.693 457.919,578.213 457.919,576.533 457.439,576.293 456.959,576.053 456.479,576.053 
		455.759,576.053 455.04,576.533 453.84,576.773 452.88,576.773 451.92,576.293 452.16,575.093 451.68,573.893 451.44,573.653 
		450.48,573.413 449.76,573.413 449.041,574.133 448.081,574.613 447.601,574.853 446.641,575.093 445.681,575.093 445.201,574.853 
		444.241,574.613 443.521,573.893 442.802,572.692 442.322,571.732 442.082,571.252 441.842,571.012 441.602,571.012 
		441.362,570.772 441.362,571.012 440.882,571.012 440.402,571.012 440.162,571.012 439.442,571.012 438.482,570.772 
		438.243,570.532 437.763,570.052 437.522,569.813 437.283,569.572 437.283,569.332 437.283,569.092 437.522,568.852 
		438.002,568.132 438.002,567.892 438.002,567.652 438.243,567.652 438.243,567.172 438.002,566.692 438.002,566.452 
		438.002,566.212 437.763,565.492 437.522,565.492 437.283,565.252 437.283,565.012 437.042,565.012 436.803,564.772 
		436.563,564.532 436.323,564.292 436.083,564.052 435.603,563.812 434.643,563.332 434.403,563.092 434.163,563.092 
		433.683,562.852 433.443,562.611 432.963,562.372 432.724,562.131 432.244,561.412 432.003,560.932 432.003,560.691 
		431.764,560.691 431.764,560.451 431.764,560.211 431.524,559.971 431.524,559.731 431.524,559.491 431.524,559.251 
		431.284,559.011 431.284,558.531 431.284,558.291 431.284,557.571 431.044,556.131 431.044,555.651 431.044,555.411 
		431.044,555.171 431.284,554.931 431.284,554.691 431.764,554.211 432.003,553.971 432.244,553.971 432.724,553.971 
		433.204,553.491 433.443,553.25 433.683,552.771 433.683,552.291 433.683,552.05 433.683,551.811 433.443,551.811 433.204,551.09 
		432.963,550.851 432.724,550.851 432.483,550.851 432.483,550.61 432.244,550.851 431.764,550.851 431.284,551.331 430.564,551.57 
		430.324,551.57 430.084,551.811 429.364,551.57 429.124,551.57 428.884,551.57 428.884,551.331 428.644,551.331 428.404,551.09 
		428.164,550.61 428.164,550.37 428.164,550.13 428.164,549.41 427.924,549.17 427.685,548.69 427.444,548.45 426.484,548.21 
		426.484,547.97 426.245,547.97 425.765,547.73 425.525,547.25 425.525,547.01 425.285,546.05 425.045,545.57 424.325,545.09 
		424.085,544.85 423.605,544.61 422.405,544.37 421.206,543.649 420.726,543.41 420.486,543.169 420.486,542.93 420.246,542.689 
		420.006,542.689 419.766,542.209 419.766,541.729 419.526,541.25 419.526,539.809 419.286,539.329 419.286,539.089 
		418.806,538.609 418.566,538.369 417.126,537.649 416.646,537.409 415.926,536.449 415.687,536.209 415.446,535.969 
		414.967,535.489 414.727,535.009 414.487,534.529 414.487,534.289 414.247,533.329 414.247,533.088 414.247,532.849 
		414.247,532.608 414.487,531.648 414.487,531.408 414.727,531.168 414.727,530.928 414.967,530.928 414.967,530.688 
		415.207,530.688 415.207,530.448 415.446,530.448 415.687,530.448 416.167,530.448 417.366,530.688 417.366,530.928 
		417.606,530.928 417.846,530.928 418.086,530.928 418.086,530.688 418.326,530.688 418.806,530.448 419.046,530.448 
		419.046,530.208 419.526,529.488 419.766,528.768 419.766,528.288 419.766,528.048 419.766,527.568 419.286,526.848 
		419.286,526.368 419.046,526.128 419.046,525.888 419.046,525.648 419.286,524.928 419.526,524.208 420.006,523.488 
		420.486,523.007 420.486,522.527 421.446,521.327 421.686,520.847 421.925,520.607 422.166,520.367 422.405,520.367 
		422.646,520.127 422.885,520.127 423.125,520.127 423.365,520.127 423.605,520.127 423.845,520.127 424.325,520.127 
		424.565,519.887 424.805,519.887 425.045,519.887 425.285,519.887 425.765,519.407 426.245,518.927 426.245,518.687 
		426.245,518.207 426.484,517.007 426.484,516.767 426.245,515.087 426.245,514.847 426.245,514.606 426.245,514.367 
		426.245,514.126 426.245,513.887 426.484,513.646 426.725,513.407 426.725,513.167 427.205,512.927 427.444,512.446 
		427.685,512.446 427.924,512.446 428.164,512.687 428.404,512.687 428.884,512.927 428.884,513.167 429.604,513.646 
		429.844,513.887 430.564,514.367 431.284,514.606 431.284,514.847 431.524,514.847 432.003,514.847 432.244,514.847 
		432.724,514.847 433.443,514.606 433.683,514.606 434.163,514.126 434.643,513.887 435.363,512.927 435.363,512.207 
		435.603,511.727 435.363,510.766 435.123,510.286 435.123,510.046 434.883,509.806 434.643,509.566 434.163,509.806 
		433.683,509.806 433.443,510.046 432.724,510.526 432.483,510.766 432.244,510.766 432.244,511.006 432.003,511.006 
		431.764,511.006 431.524,511.006 431.044,511.006 430.804,511.006 430.564,510.766 430.324,510.526 430.084,510.526 
		430.084,510.286 429.844,510.046 429.604,510.046 429.364,509.566 429.124,509.326 429.124,509.086 429.124,508.606 
		429.364,508.126 429.604,508.126 429.604,507.886 429.844,507.886 430.084,507.886 431.044,507.646 431.284,507.646 
		432.483,507.646 432.724,507.646 432.963,507.646 433.443,507.406 433.683,506.926 434.163,505.966 434.163,505.246 
		434.163,504.525 434.163,504.045 433.923,504.045 433.923,503.806 433.683,503.565 433.443,503.326 433.204,503.085 
		432.963,503.085 432.724,503.085 432.003,503.085 431.764,503.085 431.524,503.085 431.284,503.085 431.284,502.846 
		430.804,502.846 430.084,502.125 429.124,501.405 428.884,501.165 428.644,500.445 428.644,499.965 428.884,499.725 
		428.884,499.485 429.604,498.765 429.844,498.525 429.844,498.045 429.844,497.565 429.844,497.325 429.844,497.085 
		429.364,496.605 428.644,496.125 427.924,495.885 427.444,495.645 427.205,495.645 426.964,495.645 425.765,496.125 
		425.525,496.125 425.045,496.125 424.805,496.125 424.325,496.125 423.605,495.885 423.125,495.885 422.885,495.885 
		422.405,496.125 422.166,496.365 421.925,496.605 421.925,496.845 421.686,496.845 421.686,497.085 421.686,497.325 
		421.686,498.045 421.686,498.285 421.686,498.525 421.446,499.005 421.206,499.245 420.966,499.485 420.726,499.485 
		420.246,499.725 419.526,499.725 417.126,499.965 416.887,499.965 416.407,499.725 416.167,499.725 414.967,499.005 
		413.287,498.525 412.567,498.285 412.327,498.045 412.087,497.805 412.087,497.325 411.847,496.845 412.087,496.365 
		412.087,495.885 411.847,495.645 411.607,495.405 411.607,495.165 411.367,495.165 411.127,495.165 411.127,494.925 
		410.888,494.925 410.647,494.925 410.408,494.925 409.448,495.405 409.448,495.645 408.968,495.645 408.728,495.645 
		408.008,495.645 407.768,495.645 407.528,495.645 407.528,495.405 407.288,495.405 407.048,495.165 406.808,494.925 
		406.808,494.685 406.808,494.445 406.808,494.205 406.808,493.965 407.048,493.245 407.288,492.765 407.048,492.044 
		406.808,491.564 406.088,491.084 405.849,490.844 405.608,490.844 404.649,490.844 404.168,490.844 403.688,490.844 
		402.969,490.364 402.489,489.644 402.009,489.164 401.529,488.204 401.049,487.964 399.85,487.244 398.65,486.524 398.41,486.044 
		398.41,485.804 398.17,485.563 398.17,484.844 398.17,484.604 397.93,483.884 397.69,483.403 397.45,483.403 396.49,483.164 
		396.01,482.684 395.05,481.723 394.81,481.483 394.331,481.483 393.611,481.243 392.171,481.723 391.691,481.963 391.451,481.723 
		390.971,481.723 390.731,481.483 390.491,481.483 390.011,481.243 389.771,480.763 389.532,480.523 389.292,480.283 
		389.292,480.043 389.292,479.803 389.051,479.563 389.051,479.323 389.051,478.843 388.812,478.363 389.051,478.123 
		389.051,477.883 389.292,477.883 389.292,477.643 389.532,477.643 389.771,477.643 390.251,477.403 390.491,477.403 
		390.971,476.923 391.211,476.683 391.211,476.203 391.211,475.482 390.731,475.243 390.731,475.002 390.971,474.763 
		391.211,474.283 390.971,474.042 390.731,473.563 390.971,473.322 391.211,473.083 391.451,472.603 391.451,472.362 
		391.451,472.123 391.211,471.882 391.211,471.642 391.211,471.402 390.971,471.162 390.731,470.922 390.491,470.682 
		390.251,470.682 390.011,470.682 389.292,470.682 389.051,470.442 388.812,470.442 388.332,469.962 388.332,469.722 
		388.092,469.482 388.092,469.242 388.092,469.002 388.092,468.042 387.852,467.802 387.852,467.562 387.612,467.322 
		387.372,467.082 386.172,466.602 385.692,466.362 384.972,465.642 384.492,464.922 384.252,464.682 384.013,464.202 
		384.013,463.961 384.013,463.481 384.013,463.241 384.013,463.001 384.492,462.042 384.732,461.562 384.732,461.321 
		384.972,461.321 384.972,461.081 384.972,460.841 384.972,460.601 385.212,459.881 384.972,459.641 384.972,459.161 
		384.492,458.441 384.013,457.961 383.772,457.721 383.533,457.721 382.573,457.721 381.373,457.721 380.893,457.721 
		378.733,456.521 378.253,456.281 378.013,456.041 378.013,455.561 378.013,455.321 378.493,454.121 378.493,453.88 
		378.493,453.641 378.493,453.4 378.253,453.16 377.773,452.68 377.534,452.44 377.293,452.44 377.293,452.2 377.054,452.2 
		376.813,452.2 375.854,452.2 375.374,451.96 375.134,451.72 374.654,451 374.414,451 373.934,450.76 373.694,450.52 
		373.454,450.52 373.214,450.52 372.975,450.52 372.495,450.76 371.295,451.24 370.815,451.48 370.575,451.48 370.095,451.24 
		369.855,451.24 369.615,450.76 369.615,450.52 369.615,450.28 369.615,449.8 369.855,449.56 370.335,449.32 371.535,448.84 
		372.015,448.6 372.254,448.36 372.495,447.88 372.495,447.64 372.495,447.16 372.495,446.92 372.495,446.68 372.254,446.2 
		372.015,445.96 371.775,445.72 371.295,445.479 371.295,445 371.055,444.76 371.055,444.52 371.055,443.799 371.055,443.56 
		370.815,442.6 370.335,441.639 370.335,441.159 369.615,440.199 369.375,439.479 369.615,439.239 369.615,438.999 369.615,438.759 
		369.615,438.519 370.335,438.279 370.575,438.039 371.055,437.799 371.295,437.559 371.295,437.319 371.055,437.319 
		370.575,437.079 370.575,436.839 370.335,436.839 370.335,436.359 370.575,436.119 370.815,435.398 371.055,434.918 
		370.815,434.918 370.815,434.679 370.575,434.679 370.335,434.679 369.855,434.679 368.655,434.918 368.175,434.679 
		367.695,434.198 367.455,434.198 367.455,433.958 366.976,433.718 366.736,433.479 366.736,432.999 366.736,432.519 
		366.736,432.278 367.216,432.038 367.455,431.798 367.695,431.798 367.935,431.318 367.935,431.078 367.935,430.598 
		367.935,430.358 367.455,430.118 367.216,429.878 366.496,429.638 366.736,429.638 366.976,429.398 369.135,428.678 
		369.615,428.438 370.095,427.718 370.095,427.478 370.335,426.278 370.335,425.798 370.095,425.317 369.615,424.837 
		369.375,424.117 368.896,423.638 368.175,423.638 367.455,423.638 366.976,424.117 366.976,424.837 366.736,425.317 
		366.736,426.278 366.736,426.758 366.736,427.238 365.775,427.958 365.536,427.718 365.296,427.238 364.576,427.238 
		364.336,427.238 363.856,427.478 363.376,427.718 362.417,427.718 361.696,427.478 361.217,427.238 360.977,426.758 
		360.737,426.518 360.737,426.278 360.737,425.798 361.217,425.317 361.217,425.078 361.217,424.837 361.217,424.357 
		361.217,424.117 360.497,423.157 360.257,422.197 360.497,421.717 360.977,421.237 361.217,420.997 	"/>
</g>
</svg>
