<?xml version="1.0" encoding="utf-8"?>
<!-- Generator: Adobe Illustrator 15.1.0, SVG Export Plug-In . SVG Version: 6.00 Build 0)  -->
<!DOCTYPE svg PUBLIC "-//W3C//DTD SVG 1.1//EN" "http://www.w3.org/Graphics/SVG/1.1/DTD/svg11.dtd">
<svg version="1.1" id="State" xmlns="http://www.w3.org/2000/svg" xmlns:xlink="http://www.w3.org/1999/xlink" x="0px" y="0px"
	 width="1296px" height="1296px" viewBox="0 0 1296 1296" enable-background="new 0 0 1296 1296" xml:space="preserve">
<g>
	<defs>
		<rect id="SVGID_1_" x="259.22" y="351.621" width="779.516" height="595.772"/>
	</defs>
	<clipPath id="SVGID_2_">
		<use xlink:href="#SVGID_1_"  overflow="visible"/>
	</clipPath>
	
		<polyline clip-path="url(#SVGID_2_)" fill="none" stroke="#B37C34" stroke-width="0.48" stroke-linecap="round" stroke-linejoin="round" stroke-miterlimit="3.85" points="
		278.9,503.565 279.14,501.645 279.14,500.444 279.14,499.484 279.38,498.284 279.62,495.404 279.62,495.164 279.86,493.483 
		280.34,487.243 280.34,485.802 280.58,483.882 280.58,483.402 280.82,479.801 281.06,477.881 281.3,474.521 282.02,467.319 
		282.02,466.839 283.46,450.037 284.9,432.994 287.78,433.234 288.26,433.474 308.42,434.915 317.3,435.634 320.18,435.875 
		322.58,436.114 334.58,437.075 343.459,437.795 352.58,438.275 362.899,438.995 366.02,439.235 377.779,439.955 383.779,440.195 
		391.219,440.675 392.659,440.915 394.1,441.155 395.299,441.155 402.02,441.635 402.5,441.635 411.619,442.115 414.02,442.355 
		424.099,443.076 429.139,443.076 429.859,443.315 431.059,443.315 439.939,443.796 441.619,443.796 443.059,443.796 
		444.019,444.036 450.979,444.276 451.459,444.276 453.619,444.276 458.419,444.516 458.659,444.516 458.899,444.516 
		459.139,444.516 459.379,444.756 459.619,444.756 459.859,444.756 460.099,444.756 464.659,444.756 502.819,446.436 
		503.299,446.436 513.139,446.676 516.019,446.916 521.059,447.156 524.179,447.156 524.419,447.156 526.819,447.156 
		533.059,447.396 538.579,447.636 554.179,448.116 567.858,448.356 580.338,448.597 581.778,448.836 583.458,448.836 
		584.418,448.836 590.418,448.836 599.059,448.836 607.938,449.077 611.538,449.077 617.058,449.077 630.258,449.316 
		632.898,449.316 643.458,449.316 672.738,449.316 673.218,449.316 673.458,449.316 675.378,449.316 676.338,449.316 
		679.458,449.316 679.698,449.316 685.458,449.316 687.618,449.316 695.777,449.316 698.897,449.316 702.258,449.316 
		702.738,449.316 729.378,449.077 732.738,449.077 747.617,448.836 766.577,448.597 767.297,448.356 767.777,448.356 
		768.498,448.356 779.297,448.116 794.897,447.876 799.457,447.636 810.257,447.396 830.897,446.676 843.137,446.196 
		843.617,446.196 849.617,446.196 850.577,445.956 851.777,445.956 858.018,445.716 858.497,445.716 864.018,445.476 
		865.697,445.476 866.417,445.476 873.137,445.236 873.617,445.236 877.217,444.996 882.257,444.756 889.938,444.276 
		893.537,444.276 900.978,443.796 903.137,443.796 903.377,443.796 905.057,443.556 908.417,443.556 915.137,443.076 
		915.377,443.076 916.337,443.076 916.576,443.076 918.257,443.076 923.057,442.596 923.777,442.596 936.017,442.115 
		937.937,441.875 946.816,441.396 952.816,440.915 960.257,440.435 966.496,440.195 980.656,439.235 995.776,438.275 
		995.776,439.235 996.017,441.155 996.017,441.396 996.017,441.875 996.017,442.115 996.017,442.596 996.017,443.315 
		996.017,443.556 996.256,444.036 996.256,445.956 996.256,446.436 996.256,446.916 996.496,447.636 996.496,448.836 
		996.496,449.077 996.496,449.316 996.496,449.557 996.496,450.037 996.496,450.277 996.496,450.517 996.736,451.957 
		996.977,455.558 996.977,456.518 996.977,457.238 997.217,459.158 997.217,460.598 997.456,460.838 997.456,463.239 
		997.696,467.079 997.937,467.799 997.937,468.279 997.937,468.52 997.937,468.76 997.937,469 997.937,469.72 998.176,471.16 
		998.176,471.64 998.176,471.88 998.176,472.36 998.176,474.28 998.416,474.761 998.416,475.721 998.416,477.401 998.656,478.841 
		998.656,479.562 998.656,480.281 998.656,480.761 998.896,481.481 998.896,483.162 998.896,483.642 999.137,486.042 
		999.137,486.762 999.137,487.243 999.137,487.482 999.377,487.962 999.377,490.123 999.616,491.083 999.616,493.003 
		999.616,493.243 999.616,493.483 999.616,493.724 999.616,493.963 999.856,494.443 1000.097,497.324 1000.097,499.244 
		1000.097,499.725 1000.097,499.964 1000.336,501.165 1000.336,502.365 1000.336,503.325 1000.576,504.285 1000.576,505.005 
		1000.576,505.965 1000.576,506.445 1001.057,510.286 1001.057,510.526 1001.057,510.766 1001.057,512.207 1001.057,513.167 
		1001.297,515.327 1001.297,515.567 1001.297,516.047 1001.536,517.967 1002.017,525.889 1002.256,528.289 1002.256,528.769 
		1002.496,530.689 1002.496,532.129 1002.736,532.609 1002.977,537.89 1003.217,540.291 1003.217,540.771 1003.456,542.211 
		1003.456,542.931 1003.456,545.332 1003.696,545.332 1003.696,545.571 1003.696,545.812 1003.937,550.853 1004.416,557.093 
		1004.656,561.654 1004.656,562.854 1004.656,563.574 1005.377,570.775 1005.616,576.536 1005.856,578.457 1006.097,582.057 
		1006.097,584.217 1006.336,587.098 1006.336,588.058 1006.336,588.298 1006.816,593.099 1006.816,593.339 1006.816,593.579 
		1006.816,593.819 1006.816,594.059 1007.057,598.62 1007.536,604.141 1007.536,604.381 1007.776,606.541 1008.017,609.662 
		1008.017,610.622 1008.017,610.862 1008.017,611.822 1008.017,612.062 1008.017,612.782 1008.256,613.022 1008.256,614.222 
		1008.256,614.462 1008.496,619.743 1008.736,623.104 1008.977,623.824 1008.977,625.264 1008.977,626.464 1009.456,633.185 
		1009.696,635.585 1010.176,642.546 1010.176,642.787 1010.176,643.027 1010.176,643.507 1010.176,643.987 1010.656,649.988 
		1010.896,651.188 1011.377,657.669 1011.377,659.109 1011.616,661.989 1011.616,664.63 1012.336,673.271 1012.336,674.711 
		1012.576,677.111 1012.576,678.552 1013.057,682.633 1013.297,688.154 1013.536,689.114 1014.017,696.555 1014.017,697.035 
		1014.736,707.597 1014.977,712.637 1015.456,718.398 1015.696,719.119 1015.696,719.599 1016.416,730.16 1017.616,747.443 
		1017.856,748.163 1017.856,749.123 1018.096,752.244 1018.096,752.724 1018.096,753.443 1018.336,755.844 1018.816,762.085 
		1019.057,764.006 1019.057,766.406 1019.297,767.365 1020.017,778.407 1020.496,786.329 1021.217,797.61 1021.456,797.61 
		1020.256,797.851 1008.017,798.57 997.696,799.291 993.856,799.531 981.856,800.251 981.617,800.251 981.377,800.251 
		977.536,800.491 975.377,800.491 975.137,800.731 959.057,801.451 958.816,801.451 958.576,801.451 957.617,801.451 
		954.496,801.691 947.057,802.172 936.496,802.651 924.257,803.372 922.097,803.372 906.018,804.331 902.177,804.331 
		901.938,804.331 901.697,804.331 900.978,805.052 894.736,805.292 884.657,805.772 879.617,806.012 863.057,806.492 
		859.938,806.731 839.537,807.212 839.297,807.212 838.817,807.212 837.857,807.212 833.057,807.452 832.098,807.452 
		829.217,807.452 827.777,807.452 827.057,807.692 825.617,807.452 824.418,807.452 823.938,807.452 814.338,807.692 
		813.377,807.692 812.177,807.692 811.697,807.692 810.018,807.692 806.657,807.692 801.137,807.932 793.697,808.173 
		793.457,808.173 784.577,808.412 776.178,808.412 774.257,808.652 768.737,808.652 768.498,808.652 759.138,808.893 
		754.577,808.893 753.857,808.893 753.377,809.132 752.657,809.132 751.218,809.132 736.577,809.373 732.498,809.373 
		731.537,809.373 728.897,809.373 726.018,809.373 724.818,809.373 713.777,809.612 707.777,809.612 701.058,809.612 
		700.818,809.612 699.378,809.612 698.178,809.132 687.857,809.132 687.378,809.132 683.298,809.132 680.658,809.373 
		680.178,809.373 679.938,809.132 678.979,809.373 667.938,809.373 662.178,809.373 656.658,809.612 653.538,809.373 
		649.938,809.373 648.738,809.373 641.058,809.373 640.578,809.373 639.138,809.132 633.858,809.132 628.098,809.853 
		622.578,809.612 620.178,809.373 618.979,809.373 617.538,809.373 615.138,809.853 609.618,810.093 605.778,809.853 
		605.538,809.853 595.698,809.853 592.818,809.132 592.099,809.132 590.658,808.652 574.099,808.652 573.378,808.652 
		573.139,814.413 573.139,814.653 573.139,820.654 572.898,831.216 572.898,833.376 572.659,838.657 572.659,842.498 
		572.659,842.978 572.898,856.18 572.418,855.939 571.938,855.939 570.258,855.22 570.019,854.979 569.778,854.979 569.539,854.739 
		568.818,854.499 568.099,854.26 567.619,853.539 567.139,852.099 566.898,850.419 565.938,849.459 565.458,849.219 
		564.738,848.979 564.499,848.019 564.499,847.539 564.019,847.059 563.298,846.818 561.619,846.098 561.378,845.618 
		561.378,843.938 561.619,842.978 561.858,842.498 560.418,840.577 559.938,839.856 559.458,839.856 558.499,839.377 
		558.979,838.177 558.738,837.697 558.499,837.457 558.259,836.977 557.298,835.297 555.619,833.136 554.418,832.656 
		554.179,833.136 553.699,832.896 552.979,831.936 552.979,831.456 552.499,830.735 552.259,830.496 551.779,830.256 
		551.299,830.496 550.818,830.976 551.059,831.216 550.818,832.656 550.818,833.136 549.858,834.336 549.139,833.856 
		548.898,833.376 548.179,833.376 547.938,833.376 547.219,833.616 546.499,833.856 545.539,834.336 545.299,834.336 
		545.059,834.576 544.818,835.057 545.299,836.257 545.539,836.736 546.259,836.977 546.259,837.217 546.019,838.177 
		545.299,839.137 544.818,839.617 544.339,840.098 543.858,840.817 543.619,841.057 542.659,842.738 542.418,843.698 
		542.418,844.178 542.418,844.418 542.659,845.618 543.858,846.818 544.579,847.539 545.539,848.258 546.019,848.498 
		546.019,849.219 545.779,849.459 543.858,849.459 542.659,848.979 542.418,848.739 540.979,847.778 540.259,848.019 
		539.779,848.019 539.299,847.539 538.579,847.298 538.339,847.298 538.099,847.298 537.379,848.019 536.659,848.498 
		536.418,848.498 535.219,848.019 534.739,848.019 534.019,847.778 532.339,847.298 532.099,847.298 530.898,847.298 
		530.418,848.258 529.938,848.739 529.699,848.739 528.979,848.739 528.739,848.739 528.019,848.979 527.299,849.698 
		527.059,849.939 526.579,850.179 524.179,851.14 523.938,851.379 523.219,851.619 522.499,851.14 521.779,850.179 521.299,848.979 
		520.819,848.019 520.339,847.298 520.099,846.578 518.899,846.578 518.419,846.818 517.939,847.298 516.979,847.298 
		515.059,847.059 515.059,847.298 514.819,847.778 514.099,848.258 513.619,848.498 512.899,848.979 511.939,848.979 
		510.739,848.258 509.539,847.778 509.539,848.258 509.539,848.739 509.299,849.459 508.339,848.979 507.619,848.739 
		507.139,848.739 506.419,848.979 505.699,849.219 505.459,849.939 505.219,850.179 504.739,850.179 503.539,849.219 
		503.299,848.739 502.819,848.258 501.139,848.019 500.179,848.739 499.939,848.739 497.539,847.778 497.059,847.298 
		497.059,846.818 497.059,846.098 496.099,845.618 495.859,845.378 495.139,845.378 493.459,845.378 493.219,845.618 
		492.019,846.339 491.779,846.339 491.539,846.578 491.539,846.818 491.539,847.059 491.539,847.539 491.539,847.778 
		491.059,848.019 489.139,848.019 488.899,848.258 488.659,848.739 488.659,852.099 488.419,852.579 487.939,853.539 
		487.699,854.26 487.459,854.499 486.499,855.939 484.819,855.22 483.379,854.499 482.659,854.02 481.939,853.299 481.219,853.06 
		480.979,852.819 480.019,853.539 479.299,854.26 478.579,854.02 478.579,853.779 478.099,853.06 476.659,852.339 475.939,852.339 
		474.499,852.579 473.779,852.579 473.299,852.099 472.819,851.619 470.899,851.619 468.979,851.859 468.739,851.859 
		468.739,851.619 468.259,851.379 467.299,850.898 466.579,850.659 466.099,850.179 465.379,850.179 464.179,850.419 
		463.219,851.14 462.499,851.379 462.259,851.379 461.299,851.619 460.099,853.299 459.139,854.26 458.899,854.499 457.939,855.46 
		457.699,856.66 457.459,857.14 458.179,858.58 458.659,859.301 458.899,860.021 458.899,860.501 458.659,861.221 458.419,861.46 
		458.179,861.701 457.459,862.421 456.499,862.901 456.019,862.66 455.059,861.701 454.819,861.46 454.579,860.98 454.339,860.74 
		454.099,859.301 453.139,859.061 452.179,858.58 450.019,857.38 449.299,856.66 448.579,855.939 448.339,855.939 448.099,855.699 
		446.659,854.02 446.419,853.06 446.179,851.619 445.699,850.179 445.939,849.459 445.939,847.778 445.939,847.059 445.219,846.339 
		444.499,845.378 444.739,844.418 444.739,843.698 443.779,842.738 443.539,842.498 443.299,842.018 442.579,840.817 
		442.099,840.338 442.339,840.098 442.819,839.137 443.299,838.897 444.019,838.897 444.259,838.657 444.499,837.937 
		444.499,837.217 444.019,836.497 443.539,836.017 443.299,835.536 443.299,834.336 443.539,833.856 443.539,833.376 
		442.579,832.176 441.619,831.695 441.619,830.735 441.619,829.535 441.619,828.815 440.659,827.855 439.699,826.655 
		439.459,826.655 439.459,825.936 439.699,825.455 439.939,824.735 439.219,824.494 438.259,824.015 438.019,824.015 
		437.779,824.015 436.819,823.294 436.579,822.814 435.859,821.854 434.899,821.374 433.219,820.654 432.739,819.935 
		432.499,819.935 432.019,820.174 430.819,820.654 430.579,820.654 430.339,820.894 429.379,821.614 429.139,821.854 
		427.459,822.574 426.499,823.055 425.539,822.335 425.539,822.094 426.259,821.854 426.259,821.614 425.539,819.935 
		425.539,819.693 424.339,818.494 423.859,818.254 421.459,817.534 419.539,815.613 419.539,815.373 419.299,814.413 
		419.059,814.173 419.059,813.934 419.059,813.213 418.579,811.532 418.579,811.293 417.379,809.612 417.379,809.373 
		417.139,808.893 417.139,808.412 417.379,807.692 418.339,807.692 418.579,807.932 419.059,807.932 420.02,807.692 
		420.259,807.452 420.739,806.973 420.739,805.531 420.5,804.812 420.739,803.372 421.219,802.651 421.219,802.411 420.739,800.731 
		420.5,800.251 420.739,799.291 420.5,798.091 420.02,797.371 419.779,797.61 419.299,797.61 418.579,797.61 416.419,794.73 
		417.139,794.25 417.379,793.53 417.139,793.05 416.899,792.811 416.659,792.811 415.459,792.811 414.739,792.811 414.259,792.811 
		413.299,791.61 413.059,791.369 413.059,790.89 412.339,789.21 412.339,788.969 412.099,788.249 412.099,788.01 412.099,787.529 
		412.339,787.049 411.859,785.609 410.659,784.648 410.179,783.929 409.459,783.448 409.219,782.969 408.979,782.248 
		408.739,781.528 408.5,780.809 407.779,780.568 407.299,780.088 407.059,780.088 406.579,779.607 406.579,779.128 406.339,778.647 
		406.339,778.168 406.339,777.928 406.579,777.928 406.579,777.688 406.579,776.968 406.1,776.247 405.619,775.768 405.379,775.527 
		405.139,775.047 403.699,773.127 403.699,772.647 403.699,771.206 403.939,769.526 404.179,768.807 404.179,768.565 
		404.419,767.847 404.419,767.606 404.179,767.365 404.179,767.126 403.219,766.165 402.5,765.686 402.259,765.445 402.259,764.726 
		402.259,764.485 402.5,763.765 402.5,763.525 402.02,762.564 401.299,761.605 401.299,761.365 402.02,760.405 402.979,758.965 
		402.979,758.484 402.739,755.364 402.5,755.364 402.02,755.124 400.819,755.124 400.579,755.124 400.1,755.364 398.659,755.124 
		398.419,755.124 398.659,754.884 399.62,751.044 400.339,750.563 400.339,750.323 400.579,749.844 400.819,749.603 
		400.819,748.883 400.579,747.923 400.339,747.443 399.62,746.963 398.179,746.243 397.219,745.763 396.5,746.002 395.779,746.243 
		395.539,746.243 394.579,746.002 394.579,745.763 394.579,745.522 394.819,744.563 395.059,743.843 395.059,743.603 
		394.819,743.122 394.579,743.122 393.859,742.402 393.139,741.202 393.139,740.242 392.419,740.002 392.419,739.762 
		392.179,739.762 391.939,739.521 390.739,738.562 390.259,738.321 389.779,738.081 389.299,738.321 387.859,738.802 
		387.62,739.041 387.62,740.002 387.62,741.202 387.859,742.162 387.859,742.643 387.62,743.122 386.899,742.882 386.659,742.882 
		386.419,743.122 384.259,744.802 383.299,746.243 383.299,746.723 383.299,747.443 383.059,747.923 382.579,748.163 382.1,748.402 
		381.62,748.402 381.14,748.402 380.899,748.402 380.659,748.402 379.939,749.363 380.179,749.844 380.179,750.083 379.7,750.803 
		378.5,751.044 377.779,751.044 376.819,751.283 376.339,751.764 375.859,752.483 375.139,752.483 374.419,752.003 373.7,751.523 
		372.979,751.523 372.5,751.523 372.259,752.244 372.5,752.483 372.5,753.443 372.259,753.924 371.299,755.844 370.819,756.805 
		370.1,757.284 368.419,758.005 366.739,758.965 366.02,758.725 365.06,757.524 364.82,755.844 364.58,755.844 363.379,754.644 
		361.7,753.924 360.979,752.483 360.739,752.003 360.5,751.523 359.779,751.044 359.3,750.803 359.3,749.603 359.3,749.123 
		358.82,749.123 358.34,748.883 357.859,749.123 357.379,749.363 356.659,749.603 356.179,749.123 355.7,748.644 355.7,748.402 
		354.979,748.163 353.54,748.883 353.06,748.402 353.06,746.723 353.54,746.243 353.779,745.763 354.259,745.282 354.5,744.802 
		354.259,743.843 353.54,743.603 353.06,742.402 353.06,741.922 353.3,741.682 354.739,740.962 354.979,740.962 355.459,740.722 
		355.7,740.962 356.659,740.242 357.379,739.281 357.859,736.401 357.62,735.682 357.379,734.961 357.379,734.721 357.379,734.481 
		357.139,734.24 355.459,732.801 354.979,731.84 354.259,730.4 353.779,729.681 354.02,729.2 354.5,728.72 355.22,728.239 
		357.379,725.119 357.379,724.88 357.379,724.64 357.139,724.64 357.139,724.399 357.379,723.919 357.62,723.439 358.34,722.959 
		359.06,722.959 359.3,722.959 360.259,723.199 361.22,722.719 361.7,722.479 363.139,722.959 364.1,723.199 365.54,720.799 
		365.54,720.559 365.54,720.078 365.54,719.839 365.3,718.878 364.58,718.639 364.1,717.919 363.139,715.758 363.139,715.519 
		363.859,714.558 363.859,713.838 363.859,712.397 363.379,711.677 362.899,710.957 361.939,710.478 361.22,710.236 
		360.979,709.997 360.739,709.518 360.739,708.797 360.979,708.317 360.979,708.077 360.739,707.117 360.739,706.877 
		360.259,706.877 360.02,706.637 359.779,706.396 359.779,705.916 360.02,705.437 360.739,704.717 361.459,704.236 361.459,703.996 
		361.7,703.756 361.939,702.796 362.179,701.115 362.179,700.876 361.939,700.396 361.459,699.676 360.739,699.436 360.5,699.436 
		359.779,698.955 	"/>
	
		<polyline clip-path="url(#SVGID_2_)" fill="none" stroke="#B37C34" stroke-width="0.48" stroke-linecap="round" stroke-linejoin="round" stroke-miterlimit="3.85" points="
		359.779,698.955 358.58,698.235 358.34,696.555 358.34,696.314 359.3,694.635 359.3,694.395 360.259,694.635 360.739,694.635 
		361.459,695.354 361.939,695.114 362.899,694.395 363.62,694.155 363.859,691.515 363.859,690.794 363.859,690.073 363.62,688.394 
		363.62,688.154 363.379,687.914 362.659,687.434 362.659,686.233 362.659,685.754 362.899,685.273 363.62,685.514 364.339,685.273 
		364.82,685.033 365.3,684.313 365.54,684.073 365.06,682.393 365.3,681.912 365.779,681.192 366.259,680.232 366.5,679.752 
		366.739,677.592 366.739,677.111 366.259,675.191 367.22,673.991 367.939,673.511 368.419,673.271 368.659,673.031 
		369.139,670.871 369.379,670.391 369.379,668.951 369.379,668.71 369.139,668.23 368.419,667.751 368.179,667.03 368.179,665.35 
		368.179,665.11 368.179,664.87 368.419,664.87 368.659,664.87 369.139,664.63 369.62,664.87 369.859,664.87 369.859,665.11 
		370.819,664.87 371.299,664.63 372.02,663.43 371.779,662.949 371.54,662.71 371.54,662.229 372.02,661.029 372.02,660.31 
		372.5,659.59 372.979,658.869 372.979,658.629 372.979,658.39 372.979,658.148 372.739,657.909 372.739,657.429 372.979,656.948 
		373.7,655.509 373.7,654.068 373.939,652.628 373.939,652.147 373.7,651.668 373.459,650.948 372.979,650.708 371.779,650.228 
		371.779,649.988 370.579,650.228 369.62,650.228 368.899,650.708 368.419,650.948 367.7,650.468 365.779,651.428 365.779,652.147 
		364.82,652.868 363.62,652.868 362.899,652.389 362.179,652.147 361.22,651.908 360.02,651.428 359.06,651.668 357.62,652.389 
		357.139,652.389 356.899,652.389 356.419,652.147 355.7,651.668 355.7,651.188 355.939,650.948 355.939,650.228 355.459,649.988 
		354.5,649.748 354.5,649.268 354.259,648.547 354.259,648.067 354.979,647.587 355.459,646.867 355.7,645.667 355.459,644.947 
		355.22,644.707 354.259,643.507 354.259,643.267 352.82,642.787 352.58,642.787 352.58,642.546 352.1,642.546 351.379,642.307 
		351.14,642.307 351.14,642.546 350.899,643.027 350.419,644.227 350.179,644.467 349.22,644.467 348.5,644.707 348.02,645.427 
		347.779,645.667 347.54,645.907 347.06,645.907 346.82,645.907 345.62,644.467 345.379,644.227 345.859,643.507 345.859,643.267 
		346.1,642.787 346.34,642.787 346.58,642.787 347.06,642.066 347.06,641.586 347.3,640.386 346.1,638.706 345.859,638.466 
		344.66,637.986 344.179,638.226 343.459,637.986 342.979,637.266 342.5,636.786 341.779,636.065 341.54,635.826 341.54,635.585 
		341.54,635.105 341.3,635.105 340.82,635.105 340.34,635.105 339.859,635.345 339.379,634.865 338.9,633.905 337.939,633.425 
		337.7,632.705 337.7,632.225 337.7,631.985 337.939,631.745 337.7,631.025 336.979,630.785 336.5,630.545 336.979,629.825 
		337.22,629.825 337.7,629.104 337.7,628.625 337.7,627.904 337.459,627.184 337.7,626.704 338.18,625.984 338.18,625.744 
		337.939,625.264 337.459,624.784 336.979,624.544 336.259,624.063 336.02,623.824 335.54,623.344 334.82,622.144 334.1,620.703 
		333.859,620.463 333.859,620.223 332.42,619.743 332.18,619.983 332.18,620.223 330.979,620.223 330.979,619.983 330.979,619.743 
		330.74,618.543 330.02,617.823 330.02,617.103 330.02,616.143 330.02,615.422 329.779,615.182 329.54,614.222 329.54,613.982 
		329.3,613.982 329.3,613.742 329.06,613.262 328.58,612.782 328.1,613.022 327.859,612.782 327.14,611.582 326.9,611.102 
		326.9,610.862 326.42,610.142 326.18,609.421 326.18,608.701 324.5,607.501 324.26,606.781 323.54,605.101 322.82,604.381 
		321.859,603.661 321.379,603.42 321.14,603.181 320.18,603.181 319.939,602.7 319.7,601.98 319.7,600.78 319.22,600.3 
		317.78,600.06 317.78,599.82 317.06,599.58 317.06,599.34 317.06,598.86 317.3,597.899 317.78,597.66 317.54,596.459 
		317.3,596.219 316.82,595.739 316.58,595.739 316.34,595.259 315.859,594.299 315.859,593.339 315.14,592.619 314.42,592.619 
		313.939,592.859 313.459,592.619 313.22,592.139 312.74,592.139 311.3,592.139 310.82,592.139 310.1,591.418 310.1,590.938 
		309.859,590.699 308.9,590.699 307.939,590.699 307.22,589.979 306.26,589.738 305.78,589.499 304.82,588.778 303.86,588.058 
		303.86,587.818 303.62,587.098 303.38,586.378 302.9,585.417 302.9,584.938 302.9,583.737 302.42,583.498 301.939,583.498 
		301.7,583.018 301.459,582.297 301.22,582.057 300.979,581.817 300.02,581.097 299.78,581.097 299.54,580.617 299.06,580.617 
		297.86,580.617 297.62,580.857 297.38,580.377 297.14,579.657 296.66,578.697 294.74,577.256 293.54,577.017 293.06,576.536 
		293.06,576.296 292.82,576.296 292.82,576.056 292.58,575.816 292.34,575.336 292.58,574.376 293.06,573.896 293.3,573.656 
		294.979,573.416 295.7,573.656 296.18,573.896 296.66,573.656 297.14,572.936 297.38,572.696 297.38,571.976 297.38,571.735 
		296.9,571.735 295.7,571.016 295.459,571.016 295.22,569.815 294.979,569.335 294.74,569.095 294.74,568.855 294.26,568.375 
		294.26,568.135 294.26,567.895 294.26,567.415 294.26,566.935 294.02,566.455 293.78,566.455 293.54,566.455 292.58,565.975 
		292.1,565.495 292.1,565.015 292.34,564.294 293.06,563.334 294.02,562.614 294.979,562.614 296.18,561.174 295.939,559.253 
		295.939,558.534 295.22,557.333 294.74,557.333 294.02,556.613 293.78,555.413 294.02,554.693 294.5,553.973 294.5,553.733 
		294.74,552.292 294.74,551.813 294.26,551.092 293.06,549.892 292.82,549.652 292.58,549.652 292.1,549.652 291.62,549.412 
		291.38,548.692 291.38,548.212 291.62,547.252 291.38,546.771 290.66,546.052 290.42,545.812 289.94,546.052 288.979,546.292 
		288.74,546.052 288.5,545.571 288.5,544.611 288.5,544.131 288.26,543.651 287.78,543.171 288.02,541.011 288.26,540.531 
		288.02,539.331 286.82,538.61 286.58,538.13 286.58,537.89 286.34,537.41 285.14,537.89 284.9,537.65 284.66,537.41 284.18,536.69 
		284.18,536.45 283.7,535.73 283.22,534.53 282.98,534.05 282.98,533.81 282.74,533.81 282.26,533.089 282.26,532.85 
		282.02,532.609 281.78,531.409 281.54,531.169 280.58,530.929 280.1,529.969 280.1,529.249 279.86,528.769 279.38,527.569 
		279.38,527.329 278.9,526.849 278.66,526.369 278.18,525.408 277.7,525.648 277.7,525.408 277.46,525.168 277.22,525.168 
		277.22,524.928 277.22,523.008 277.7,517.727 277.7,517.487 277.7,517.007 277.94,516.047 277.94,515.087 278.18,511.726 
		278.66,508.125 278.9,503.565 	"/>
</g>
</svg>
