<?xml version="1.0" encoding="utf-8"?>
<!-- Generator: Adobe Illustrator 15.1.0, SVG Export Plug-In . SVG Version: 6.00 Build 0)  -->
<!DOCTYPE svg PUBLIC "-//W3C//DTD SVG 1.1//EN" "http://www.w3.org/Graphics/SVG/1.1/DTD/svg11.dtd">
<svg version="1.1" id="State" xmlns="http://www.w3.org/2000/svg" xmlns:xlink="http://www.w3.org/1999/xlink" x="0px" y="0px"
	 width="1296px" height="1296px" viewBox="0 0 1296 1296" enable-background="new 0 0 1296 1296" xml:space="preserve">
<g>
	<defs>
		<rect id="SVGID_1_" x="259.22" y="353.062" width="771.836" height="594.332"/>
	</defs>
	<clipPath id="SVGID_2_">
		<use xlink:href="#SVGID_1_"  overflow="visible"/>
	</clipPath>
	
		<polyline clip-path="url(#SVGID_2_)" fill="none" stroke="#B37C34" stroke-width="0.48" stroke-linecap="round" stroke-linejoin="round" stroke-miterlimit="3.85" points="
		276.02,612.542 276.26,608.461 276.26,607.981 276.5,600.54 276.5,600.06 276.74,599.82 276.74,598.14 276.98,594.779 
		276.98,591.418 277.22,589.258 277.22,588.298 277.46,581.577 277.46,581.337 277.46,579.897 277.7,579.417 277.7,579.177 
		277.7,578.697 277.7,578.457 277.7,578.217 277.7,576.776 277.7,576.296 277.94,570.295 278.18,568.615 278.18,567.895 
		278.42,564.535 278.42,563.574 278.42,563.334 278.42,559.974 278.42,559.494 278.9,550.612 278.9,549.652 278.9,549.412 
		279.38,540.531 279.62,538.13 280.34,522.528 280.82,510.046 281.06,507.886 281.06,507.406 281.06,505.725 281.06,504.525 
		281.54,494.443 281.54,493.963 282.26,481.001 282.98,466.359 288.02,466.359 289.94,466.599 293.54,466.839 298.82,467.079 
		302.42,467.079 302.66,467.079 310.82,467.56 315.859,467.799 318.74,467.799 322.1,468.04 326.42,468.279 327.859,468.279 
		328.1,468.279 336.259,468.52 341.06,468.76 341.54,468.76 342.979,468.76 358.82,469.479 369.62,469.96 383.059,470.44 
		385.22,470.44 386.899,470.44 394.819,470.68 398.419,470.92 404.659,471.16 404.899,471.16 406.339,471.16 411.859,471.4 
		415.939,471.4 416.179,471.4 416.419,471.4 418.819,471.4 422.659,471.64 422.899,471.64 445.459,472.12 445.939,472.12 
		448.579,472.36 450.739,472.36 459.619,472.6 460.099,472.6 464.419,472.6 475.699,473.08 483.139,473.32 486.499,473.32 
		486.979,473.32 490.339,473.561 490.819,473.561 493.459,473.561 498.739,473.561 515.539,473.8 515.779,473.8 516.019,473.8 
		522.979,473.8 531.139,474.041 534.259,474.041 534.739,474.041 537.619,474.041 538.099,474.041 542.418,474.041 543.858,474.041 
		545.539,474.041 550.579,474.041 555.378,474.041 557.298,474.28 561.858,474.28 564.979,474.28 565.219,474.28 565.458,474.28 
		571.458,474.28 572.179,474.28 573.139,474.28 573.378,474.28 578.178,474.28 581.539,474.28 587.778,474.28 588.258,474.28 
		593.778,474.28 594.258,474.28 600.738,474.28 606.738,474.28 607.218,474.28 614.418,474.28 614.898,474.28 616.578,474.28 
		616.818,474.28 620.178,474.521 620.418,474.521 621.138,474.521 623.058,474.521 623.778,474.521 626.178,474.521 
		627.138,474.521 627.858,474.521 628.818,474.521 629.538,474.521 631.938,474.521 632.898,474.521 633.378,474.521 
		633.618,474.521 634.578,474.521 636.018,474.521 636.258,474.521 638.418,474.521 639.618,474.521 640.338,474.521 
		641.778,474.28 642.018,474.521 644.418,474.28 645.858,474.28 652.818,474.28 655.458,474.28 655.698,474.28 658.818,474.28 
		659.058,474.28 660.498,474.28 660.738,474.28 665.298,474.28 666.979,474.28 668.897,474.28 669.139,474.28 671.058,474.28 
		675.139,474.28 675.857,474.28 678.019,474.041 678.738,474.041 680.418,474.041 683.538,474.041 684.979,474.041 686.418,474.041 
		687.138,474.041 688.098,474.041 688.338,474.041 691.458,474.041 692.897,474.041 693.138,474.041 694.578,474.041 
		697.938,474.041 698.178,474.041 699.617,474.041 702.738,473.8 704.418,473.8 706.338,473.8 707.777,473.8 708.018,473.8 
		709.218,473.8 711.138,473.8 714.258,473.8 716.178,473.8 719.058,473.561 719.298,473.561 720.978,473.561 723.857,473.561 
		727.218,473.561 727.457,473.561 735.138,473.32 735.617,473.32 737.298,473.32 740.897,473.32 741.138,473.32 741.377,474.521 
		741.857,475.721 742.818,477.161 743.777,479.081 744.258,479.321 744.498,479.562 744.978,480.042 745.218,480.281 
		745.457,480.281 745.457,480.761 745.698,481.001 745.938,481.242 746.178,481.001 746.418,481.001 746.657,480.761 
		747.138,480.761 747.617,480.761 748.577,481.242 749.298,481.722 750.498,482.202 751.457,482.682 751.698,482.922 
		752.897,483.402 753.138,483.402 753.617,483.642 753.617,483.882 753.857,483.882 754.098,484.122 754.577,484.362 
		754.577,484.602 754.817,485.082 755.058,485.082 755.298,485.322 755.537,485.562 756.018,485.802 756.978,486.042 
		757.938,486.282 759.377,486.762 760.338,487.002 761.058,487.002 761.537,487.002 761.777,487.002 761.777,487.243 
		762.018,487.482 763.457,488.442 763.698,488.683 763.938,488.923 764.418,489.163 765.138,489.643 765.617,489.883 
		766.817,490.363 768.498,490.843 768.737,490.843 768.978,490.843 769.938,490.603 770.418,490.603 771.138,491.323 
		771.857,492.523 772.098,492.763 773.777,493.724 774.018,493.963 774.978,494.924 775.457,495.404 775.938,495.644 
		777.138,496.604 777.617,497.084 777.617,497.324 777.857,498.044 778.098,498.284 778.577,498.284 778.817,498.524 
		779.058,498.524 779.297,498.524 779.537,498.524 779.537,498.764 779.777,498.764 781.457,499.004 781.697,499.004 
		782.418,498.764 782.657,499.004 783.377,498.764 784.577,498.044 786.018,498.284 786.498,498.284 786.978,498.044 
		787.938,497.324 788.177,497.084 789.138,496.124 789.138,495.884 789.377,495.884 789.617,495.644 790.338,495.164 
		790.577,494.684 791.297,493.243 791.777,492.763 791.777,492.523 792.257,491.563 792.498,490.603 792.498,489.643 
		792.737,489.163 792.737,488.923 792.737,488.683 792.737,488.442 792.737,487.962 793.217,487.723 793.697,487.482 
		794.177,487.243 794.657,487.002 795.137,487.002 795.377,486.762 796.098,486.762 796.338,486.762 796.577,486.762 
		796.817,486.762 797.537,487.482 798.737,487.723 798.978,487.962 799.938,488.442 801.137,488.683 802.098,488.683 
		802.817,488.683 803.297,488.683 805.697,488.923 807.377,489.163 808.577,489.403 810.018,489.163 810.737,489.163 
		810.978,489.163 811.217,488.923 811.457,488.923 811.697,488.683 812.657,488.203 813.377,487.962 813.617,487.723 
		813.857,487.723 814.098,487.723 814.098,487.482 814.577,487.482 815.297,487.482 815.777,487.723 816.257,487.962 
		817.697,488.203 818.897,488.442 819.857,488.442 820.098,488.442 820.577,488.203 821.297,488.203 821.537,487.962 
		821.777,487.962 822.497,487.723 823.457,487.243 823.938,487.243 823.938,487.482 824.177,487.723 824.657,487.962 
		825.137,487.962 826.338,487.962 827.057,488.203 827.297,488.203 827.537,488.442 827.777,488.442 828.737,488.442 
		828.978,488.203 829.457,487.723 829.938,487.243 830.177,487.002 830.177,486.762 830.657,486.042 830.897,486.042 
		831.137,485.802 831.377,485.802 831.617,485.802 831.857,485.802 832.098,486.282 832.577,486.282 834.018,486.042 
		834.257,486.282 834.737,486.762 834.978,487.002 835.217,487.243 835.457,487.243 836.897,487.002 837.377,487.002 
		837.857,486.762 838.098,486.522 838.098,486.282 838.338,486.282 838.817,486.282 838.817,486.042 839.537,485.802 
		839.537,485.562 839.777,485.562 840.018,485.802 840.257,485.802 840.257,486.042 841.217,487.002 841.938,487.002 
		842.177,487.002 842.417,487.002 843.137,487.243 843.857,487.002 844.098,487.002 844.338,486.762 844.577,486.762 
		845.537,487.002 845.777,487.243 846.018,487.243 846.497,487.482 846.978,487.723 847.217,487.962 847.217,488.203 
		847.217,489.643 847.217,489.883 847.457,490.363 847.697,490.603 847.697,490.843 847.697,491.563 847.938,491.803 
		847.938,492.043 848.417,492.283 848.897,492.283 849.857,492.283 850.577,492.523 851.057,492.523 851.537,492.523 
		851.777,492.763 852.257,492.763 852.978,493.243 853.457,493.963 853.697,493.963 853.697,494.204 853.938,494.684 
		854.177,494.684 854.177,494.924 854.177,495.164 854.417,495.644 854.657,495.884 856.337,496.124 857.057,496.124 
		857.537,496.124 858.497,495.884 858.978,495.884 859.697,495.644 859.938,495.644 860.177,495.644 861.137,495.884 
		862.816,496.364 863.057,496.604 863.297,496.604 863.537,496.604 863.777,496.604 864.257,496.844 865.217,496.844 
		866.177,496.844 867.137,496.844 867.377,496.844 867.617,497.084 868.098,497.324 868.816,498.764 868.816,499.004 
		868.816,499.484 868.577,500.444 868.577,500.685 868.577,500.925 868.816,501.165 868.816,501.405 869.297,501.405 
		870.018,501.405 870.497,500.925 870.978,500.925 871.457,500.444 871.938,499.964 872.177,499.964 873.377,499.484 
		873.377,499.725 873.617,499.725 873.856,499.725 874.098,499.964 875.057,500.444 876.257,500.444 877.217,500.925 
		878.177,501.405 878.657,501.885 879.856,502.125 880.337,502.125 880.816,502.125 881.297,502.365 881.777,502.605 
		882.257,503.085 882.257,503.805 882.497,504.765 882.257,506.206 882.497,506.445 882.497,506.686 882.978,506.925 
		883.938,507.166 884.177,507.166 884.417,507.166 885.617,507.166 886.577,506.925 886.816,506.686 887.057,506.686 
		887.297,506.686 887.537,506.686 887.777,506.445 888.018,506.445 888.257,506.445 888.497,506.445 888.736,506.686 
		891.137,507.406 891.617,507.646 891.856,507.886 891.856,508.125 891.856,508.366 891.856,508.846 891.856,509.086 
		891.617,509.086 891.617,509.326 891.377,509.326 891.377,509.566 891.137,509.806 890.417,511.246 890.177,511.486 
		890.177,511.966 890.177,512.446 890.177,513.167 890.417,513.646 890.657,514.126 891.377,515.087 892.337,516.287 
		892.577,516.767 892.816,516.767 893.057,517.007 893.297,517.007 894.497,517.487 894.736,517.487 894.736,517.727 
		894.978,517.967 895.457,518.207 895.697,518.207 895.697,518.447 895.938,518.447 896.177,518.927 896.417,518.927 
		896.417,519.167 896.656,519.647 896.656,519.888 896.897,520.368 896.897,521.328 896.897,521.808 897.137,522.288 
		897.377,523.008 897.617,523.488 898.816,524.208 899.057,524.208 899.297,524.208 899.297,524.448 899.537,524.448 
		899.777,524.448 900.018,524.448 900.257,524.448 900.257,524.208 900.497,524.208 900.736,524.208 900.978,523.968 
		901.217,523.968 901.938,523.008 902.177,523.008 902.177,522.768 902.417,522.768 902.656,522.768 903.137,522.528 
		903.377,522.528 903.856,522.288 904.097,522.288 904.577,522.528 904.816,522.528 905.537,523.008 905.777,523.248 
		906.018,523.488 906.497,523.968 906.497,524.448 906.736,524.928 906.736,525.168 907.457,526.128 907.697,526.128 
		907.697,526.369 908.177,526.369 909.137,526.849 910.097,526.849 910.337,526.608 911.057,526.369 911.537,525.889 
		912.978,525.408 913.217,525.408 914.177,525.408 914.417,525.408 914.656,525.408 915.377,525.648 915.617,525.648 
		916.816,525.889 917.057,526.369 917.777,527.089 918.257,528.529 918.257,529.489 918.257,530.209 918.017,531.169 
		917.777,531.649 916.816,532.85 915.856,534.29 915.856,534.53 915.617,535.49 915.617,536.21 916.097,536.93 916.097,537.17 
		916.337,537.41 916.337,537.65 916.337,537.89 916.337,538.13 916.097,538.851 915.856,539.331 915.856,539.571 915.617,539.811 
		915.617,540.051 915.617,540.531 915.617,541.011 915.856,541.491 916.097,541.731 916.097,541.971 916.576,542.451 
		917.057,542.931 917.537,543.171 918.497,543.651 919.457,544.611 919.697,544.852 919.938,545.332 919.938,545.571 
		919.938,546.052 919.938,546.532 919.938,547.492 920.417,548.212 920.656,548.692 921.137,549.172 922.337,549.892 
		922.816,550.372 923.297,550.853 923.536,551.572 923.536,552.053 923.536,552.772 923.536,553.013 923.536,553.253 
		923.777,553.493 924.017,553.493 924.017,553.733 924.257,553.973 924.017,554.213 923.536,555.173 923.297,555.173 
		923.057,555.413 922.816,555.653 922.576,555.653 922.337,555.653 921.377,556.133 921.137,556.613 921.137,556.854 
		921.377,556.854 921.856,557.573 921.856,557.813 922.097,557.813 922.097,558.053 922.097,558.293 922.337,558.534 
		922.337,558.773 922.337,559.014 922.337,559.253 922.097,559.734 922.097,560.214 922.097,560.694 922.097,560.934 
		922.337,561.414 922.816,562.134 923.297,562.374 924.017,562.854 924.257,563.094 924.497,563.094 924.736,563.574 
		924.977,564.054 925.457,564.774 925.697,565.254 925.938,565.254 925.938,565.495 926.417,565.495 926.656,565.734 
		927.856,565.734 928.337,565.975 928.576,566.215 928.816,566.695 929.057,566.935 929.297,567.175 929.297,567.415 
		929.536,568.135 929.536,568.375 929.297,569.095 929.057,569.815 928.816,570.295 928.816,570.535 928.816,570.775 
		928.576,571.496 928.576,571.976 928.576,572.216 928.576,573.176 929.057,574.136 929.297,574.616 929.297,574.856 
		929.536,575.096 930.017,575.336 930.257,575.576 930.736,575.576 930.736,575.336 931.457,575.096 932.177,575.096 
		932.656,575.336 933.137,575.576 933.137,575.816 933.377,576.056 933.617,576.296 933.617,576.776 933.377,577.017 
		933.377,577.256 933.137,577.736 932.417,578.217 932.177,578.457 931.937,578.937 931.937,579.417 931.937,579.657 
		932.177,579.897 932.417,580.137 932.656,580.137 932.897,580.377 933.137,580.377 933.377,580.377 933.617,580.137 
		933.617,579.897 933.856,579.897 933.856,579.657 934.097,579.177 934.337,578.937 935.057,578.697 936.017,578.697 
		936.496,578.937 936.736,579.177 936.977,579.657 936.977,579.897 936.736,580.137 936.496,580.857 936.257,581.097 
		936.257,581.337 936.257,581.577 936.496,581.817 936.736,582.057 936.977,582.057 937.456,582.297 937.697,582.057 
		938.417,581.817 938.896,581.817 939.137,581.577 939.377,581.577 939.377,581.817 940.576,581.817 941.057,582.057 
		941.297,582.297 941.536,582.537 941.536,582.777 941.536,583.257 941.536,583.978 941.297,584.458 941.297,584.698 
		941.057,584.938 940.576,585.417 940.576,585.658 940.576,585.898 940.576,586.378 941.057,587.338 941.297,587.578 
		941.297,587.818 941.297,588.058 941.297,588.298 941.057,588.778 940.816,589.018 940.576,589.018 939.856,589.258 
		939.377,589.499 939.377,589.738 939.137,589.979 939.137,590.218 939.137,590.458 939.377,590.938 939.617,590.938 
		940.097,591.659 940.337,591.898 940.576,592.379 940.576,593.099 940.576,593.339 940.816,593.819 941.057,594.059 
		941.057,594.299 941.297,594.299 941.536,594.779 941.777,594.779 942.017,595.019 942.736,595.259 943.217,595.499 
		943.456,595.739 943.697,596.219 943.937,596.699 943.937,597.18 943.937,598.38 943.937,598.62 943.937,599.1 944.177,599.34 
		944.177,599.58 944.416,599.82 944.656,599.82 944.896,600.06 945.377,600.3 946.576,600.54 946.816,600.78 947.297,601.02 
		947.536,601.26 947.777,601.5 947.777,601.98 948.017,602.46 947.777,602.7 947.777,602.94 947.297,603.42 946.816,604.141 
		946.816,604.861 946.816,605.821 946.816,606.301 946.337,606.781 945.856,607.261 945.617,607.261 945.377,607.501 
		944.896,607.741 944.896,607.981 944.656,608.701 944.656,608.941 944.896,609.421 945.137,609.901 945.856,610.142 
		946.337,610.381 947.057,610.862 947.536,611.342 947.536,611.582 947.777,611.822 947.777,612.062 947.777,612.302 
		947.536,612.542 947.297,612.782 946.816,613.022 946.337,613.262 944.896,613.022 944.656,613.022 944.416,613.262 
		943.937,613.742 943.697,613.982 943.697,614.222 943.697,614.942 943.697,615.422 943.937,615.902 944.416,616.143 
		944.656,616.382 944.656,616.623 945.617,617.343 945.856,617.583 945.856,618.063 946.097,618.063 946.097,618.303 
		946.097,618.783 945.856,619.743 945.617,620.223 944.656,621.423 944.416,621.903 944.416,622.383 944.416,622.624 
		944.416,623.104 944.656,623.583 944.656,623.824 945.137,624.544 945.377,624.544 945.617,625.024 945.856,625.024 
		947.057,625.504 947.297,625.744 947.297,625.984 947.536,626.224 947.536,626.704 947.536,626.944 947.536,627.424 
		947.297,627.664 947.057,628.145 946.816,628.384 946.576,628.864 946.576,629.104 946.576,629.584 946.576,630.064 
		946.816,631.025 947.057,631.745 947.297,631.985 948.017,632.225 948.257,632.225 948.496,632.465 948.977,632.945 
		949.217,632.945 949.217,633.185 949.456,633.425 949.937,633.905 950.177,634.146 950.416,634.146 950.656,634.385 
		950.896,634.385 951.137,634.385 951.377,634.385 951.617,634.385 951.617,634.146 951.856,634.146 951.856,633.665 
		952.097,631.985 952.337,630.545 952.576,630.064 953.057,629.825 953.297,629.825 953.777,629.825 954.257,630.064 
		954.496,630.305 954.736,630.545 955.217,632.225 955.456,632.945 955.456,633.425 955.456,633.665 955.217,633.905 
		955.217,634.146 954.977,634.385 954.257,635.345 953.536,635.826 953.297,636.306 953.297,636.545 953.536,637.026 
		953.777,637.266 954.017,637.746 954.257,637.986 954.736,638.226 955.697,638.226 956.416,638.226 957.137,638.466 
		957.377,638.466 958.097,638.946 958.337,638.946 958.576,638.946 959.536,638.466 960.017,638.466 960.257,638.706 
		960.496,638.706 960.736,638.706 961.456,639.186 961.697,639.666 961.937,640.146 961.937,640.626 961.937,640.866 
		961.697,641.106 961.697,641.346 960.977,642.066 960.977,642.307 960.977,642.546 960.977,643.267 960.977,643.507 
		960.977,643.747 961.217,643.747 961.217,644.227 961.217,644.707 961.217,645.187 960.736,646.387 960.736,646.627 
		960.977,647.587 961.456,648.788 961.456,649.268 961.456,649.988 960.977,650.468 960.496,650.708 959.776,651.188 
		959.536,651.428 959.297,651.668 959.297,652.147 959.776,652.868 960.257,653.348 960.496,653.589 960.977,654.068 
		961.937,654.548 962.177,654.548 962.416,654.789 963.137,654.789 964.336,654.548 965.297,654.789 965.776,655.028 
		966.257,655.509 966.496,656.229 966.736,657.429 966.736,658.148 966.496,658.629 966.017,659.109 965.297,659.35 
		964.336,660.069 963.377,659.35 963.617,658.869 964.097,657.669 964.097,657.429 964.097,657.189 963.856,656.948 
		962.656,656.948 962.416,657.189 962.177,657.429 	"/>
	
		<polyline clip-path="url(#SVGID_2_)" fill="none" stroke="#B37C34" stroke-width="0.48" stroke-linecap="round" stroke-linejoin="round" stroke-miterlimit="3.85" points="
		962.177,657.429 961.937,657.909 961.937,658.148 961.937,658.869 961.937,659.35 962.177,659.35 962.416,659.59 962.896,660.069 
		963.377,660.31 962.896,660.549 962.656,661.029 962.656,661.75 962.896,661.75 963.137,662.71 963.377,662.949 963.377,663.43 
		963.856,664.15 963.856,664.39 963.856,664.63 963.617,665.35 963.617,665.83 962.896,667.03 962.656,667.03 962.656,668.23 
		962.656,668.951 962.896,669.431 963.137,669.671 963.377,669.91 963.856,669.91 964.097,670.151 967.217,669.431 967.937,669.431 
		968.656,669.431 969.137,669.671 969.856,670.151 969.856,670.631 970.097,670.871 970.097,671.352 969.617,671.831 
		969.137,671.831 967.937,671.831 967.937,671.591 967.697,671.591 967.456,671.591 967.456,671.831 967.217,672.071 
		966.736,672.791 966.496,673.271 966.496,673.752 966.736,674.472 966.977,675.191 967.937,676.632 968.177,677.353 
		968.416,679.272 968.656,679.992 968.656,680.713 968.656,680.952 968.656,681.192 968.656,681.433 968.416,681.433 
		968.416,681.673 968.177,681.912 968.177,682.152 967.937,682.393 967.456,682.873 967.217,683.113 967.217,683.353 
		967.217,683.593 967.217,683.833 967.217,684.073 967.217,684.313 967.456,684.553 967.937,685.033 968.177,685.514 
		968.416,685.514 968.896,686.233 969.137,686.233 969.137,686.473 969.377,686.953 969.137,687.673 968.896,688.634 
		968.656,689.114 968.416,689.594 968.656,689.834 968.656,690.314 968.896,690.555 969.137,690.794 969.377,691.034 
		969.617,691.034 969.856,691.273 970.097,691.515 970.576,691.515 970.816,691.754 971.057,691.994 971.297,691.994 
		971.536,692.234 971.776,692.475 972.017,692.715 972.017,692.955 972.017,693.194 972.257,693.435 972.017,694.395 
		971.776,695.114 971.536,696.074 971.297,697.275 971.536,697.995 971.536,698.715 971.776,698.955 971.776,699.195 
		972.017,699.676 972.257,699.915 973.456,700.876 973.697,701.115 973.697,701.355 973.937,701.355 974.177,701.836 
		974.177,702.076 974.177,702.315 974.177,702.556 974.177,703.036 974.177,703.276 973.937,703.516 973.937,703.756 
		973.697,703.756 973.697,703.996 973.456,703.996 973.456,704.236 973.217,704.477 972.977,704.477 972.017,704.717 
		971.776,704.717 971.776,704.956 971.536,704.956 971.536,705.196 971.297,705.437 971.057,705.677 971.057,706.156 
		971.057,706.396 971.297,706.877 971.776,707.837 972.017,708.797 972.257,709.037 972.257,709.277 972.017,709.997 
		971.776,710.957 971.776,711.197 971.536,711.197 971.536,711.677 971.776,712.397 972.496,713.838 972.736,714.318 
		972.736,714.798 972.736,715.277 972.496,715.519 972.496,715.758 972.017,716.238 971.776,716.478 971.536,716.478 
		971.297,716.719 971.057,716.958 970.816,716.958 970.576,717.198 970.336,717.198 970.336,717.438 969.856,717.438 
		969.617,717.678 969.377,717.919 969.137,718.158 969.137,718.398 968.656,718.878 968.416,719.599 968.416,720.318 
		968.416,720.799 968.656,721.999 968.896,722.239 969.377,722.719 969.617,722.719 970.097,722.959 970.336,722.959 
		970.576,723.199 970.816,723.199 971.057,723.199 971.057,723.439 971.536,723.919 971.776,724.399 972.017,724.88 
		972.017,725.359 972.257,726.08 972.257,726.319 972.496,726.319 972.496,726.56 972.977,727.04 973.217,727.04 973.456,727.28 
		973.697,727.28 973.697,727.52 974.177,727.76 974.416,727.76 975.137,728 975.856,728 976.576,728 976.816,728.239 
		977.297,728.48 977.536,728.72 977.776,728.96 978.017,729.2 978.496,729.681 978.496,730.16 978.736,730.16 978.736,730.4 
		978.736,730.64 978.977,730.64 978.977,731.12 978.977,731.601 978.977,732.32 979.217,732.561 979.456,733.04 979.696,733.04 
		980.177,733.521 980.656,733.761 980.656,734.001 980.896,734.24 980.896,734.481 981.137,734.481 981.137,734.721 
		981.137,734.961 980.896,735.201 980.656,735.682 980.177,736.161 979.696,736.641 979.456,736.881 978.977,737.602 
		978.977,738.081 979.217,738.802 979.937,739.762 979.937,740.242 980.177,740.481 979.937,740.722 979.937,741.202 
		979.696,741.682 979.696,742.162 979.696,742.402 979.937,742.643 980.177,743.122 980.656,743.362 981.377,743.362 
		982.336,743.362 983.057,743.362 983.536,742.882 983.776,742.882 984.496,742.882 984.736,743.362 984.977,743.603 
		985.937,742.882 985.937,742.162 985.696,741.922 985.696,740.962 985.937,740.242 985.937,739.521 986.416,739.041 
		987.137,738.802 987.856,738.802 988.336,739.521 988.816,740.242 989.297,740.481 989.536,741.202 989.536,741.442 
		989.536,742.643 989.536,743.122 989.057,743.843 988.336,744.082 986.416,745.043 986.177,745.282 985.696,745.282 
		986.416,745.522 986.656,745.522 986.896,745.763 987.137,746.002 987.377,746.243 987.377,746.482 987.377,746.963 
		987.137,747.443 986.896,747.683 986.177,747.923 986.177,748.163 986.177,748.402 986.177,748.644 986.416,749.123 
		986.416,749.363 987.137,749.844 987.377,750.083 987.856,750.323 988.336,750.803 989.776,750.323 990.017,750.323 
		990.256,750.323 990.496,750.323 990.736,750.323 990.736,750.563 990.736,750.803 990.496,751.764 990.256,752.003 
		990.496,752.483 990.736,752.724 990.977,752.964 991.217,752.964 991.217,753.203 991.217,753.443 990.736,753.684 
		990.496,753.924 989.776,754.164 989.776,754.644 989.536,754.644 989.536,754.884 989.536,755.364 989.776,756.084 
		990.496,757.044 990.736,757.524 991.217,758.484 991.456,759.444 991.456,759.685 991.456,760.405 991.456,760.645 
		991.696,761.125 991.937,761.365 992.416,761.605 992.656,761.845 992.656,762.085 992.896,762.085 993.137,762.564 
		993.137,762.806 993.137,763.045 993.377,763.525 993.377,763.765 993.137,764.246 992.656,764.726 992.416,764.965 
		991.217,765.445 990.736,765.686 990.496,766.165 990.496,766.406 990.496,766.886 990.496,767.126 990.736,767.365 
		990.977,767.365 991.456,767.606 991.696,767.606 992.416,767.365 993.377,766.646 993.856,766.646 993.856,766.406 
		994.097,766.406 994.336,766.406 994.576,766.406 994.816,766.646 995.057,766.646 995.536,766.886 996.256,767.606 
		996.496,767.847 996.977,767.847 998.176,767.847 998.416,768.086 998.656,768.086 999.137,768.326 999.616,768.807 
		999.616,769.047 999.856,769.286 999.856,769.526 999.856,770.006 999.377,770.967 999.377,771.447 999.616,771.687 
		999.616,771.927 999.856,772.166 1000.336,772.406 1002.496,773.367 1002.977,773.367 1004.416,773.127 1005.136,773.127 
		1005.616,773.367 1005.856,773.606 1006.336,773.847 1006.816,774.567 1007.057,775.287 1007.057,775.527 1007.057,776.247 
		1007.057,776.487 1007.057,776.728 1006.816,776.968 1006.816,777.207 1006.576,777.688 1006.097,778.647 1006.097,778.888 
		1006.097,779.128 1006.097,779.607 1006.336,779.848 1006.336,780.088 1006.576,780.328 1006.816,780.568 1006.816,780.809 
		1007.297,781.288 1007.536,781.288 1008.256,782.008 1008.736,782.248 1009.696,782.729 1009.937,782.729 1010.176,782.729 
		1010.416,783.209 1010.416,783.448 1010.656,783.688 1010.656,784.409 1010.656,784.648 1010.896,784.889 1010.896,785.129 
		1010.896,785.369 1011.136,785.609 1011.616,786.089 1011.856,786.089 1012.096,786.089 1012.816,786.329 1013.057,786.329 
		1013.297,786.329 1013.536,786.329 1013.776,786.568 1014.017,786.81 1014.017,787.049 1014.256,787.049 1014.256,787.289 
		1014.256,787.529 1014.256,787.769 1014.256,788.01 1014.496,788.01 1014.496,788.249 1014.256,788.489 1014.017,788.969 
		1013.776,789.21 1014.256,789.689 1014.256,789.93 1014.256,790.169 1014.017,790.649 1014.017,790.89 1014.256,791.13 
		1014.496,791.85 1014.496,792.33 1014.256,792.811 1014.017,793.29 1013.536,793.29 1013.057,793.53 1012.816,793.53 
		1012.576,793.53 1012.576,793.77 1012.336,793.77 1012.336,794.011 1012.336,794.25 1012.336,794.73 1012.576,795.45 
		1012.576,795.69 1012.816,795.931 1012.816,796.17 1013.057,796.41 1013.057,796.65 1013.297,796.65 1013.536,797.131 
		1014.017,797.371 1014.256,797.371 1014.736,797.61 1014.977,797.61 1015.456,797.61 1015.696,797.61 1017.377,797.131 
		1018.096,797.131 1018.576,797.131 1018.816,797.371 1019.776,798.331 1020.496,798.57 1021.456,798.811 1021.696,799.051 
		1021.937,799.291 1022.176,799.531 1022.416,800.011 1022.416,800.251 1020.736,800.491 1019.536,800.491 1016.656,800.731 
		1013.057,800.731 1012.576,800.972 1012.096,800.972 1011.377,800.972 1011.136,800.972 1009.937,800.972 1009.696,800.972 
		1008.977,800.972 1000.816,801.451 1000.097,801.451 993.856,801.691 993.377,801.932 992.656,801.932 992.176,801.932 
		990.977,801.932 981.377,802.411 980.896,802.411 972.736,802.892 971.536,802.892 971.057,802.892 966.257,803.131 
		963.137,803.372 961.697,803.372 961.456,803.372 960.496,803.372 958.097,803.372 955.697,803.611 954.977,803.611 
		951.856,803.852 949.937,803.852 949.456,803.852 943.697,804.092 943.456,804.092 942.257,804.092 942.017,804.092 
		936.736,804.331 936.257,804.331 933.137,804.572 932.417,804.572 931.937,804.572 922.576,805.052 922.337,805.052 
		922.097,805.052 917.057,805.292 916.097,805.292 914.417,805.292 913.457,805.292 912.978,805.292 912.497,805.292 
		910.337,805.531 909.856,805.531 908.897,805.531 903.137,805.772 902.897,805.772 893.297,806.012 893.057,806.012 
		887.537,806.252 887.297,806.252 887.057,806.252 886.816,806.252 886.577,806.252 883.457,806.492 875.537,806.731 
		873.856,806.731 873.617,806.731 871.938,806.731 864.497,806.973 864.018,806.973 863.777,807.212 862.816,807.212 
		862.098,807.212 860.657,807.212 858.978,807.212 858.737,807.212 855.137,807.452 854.177,807.452 846.018,807.692 
		844.338,807.692 840.497,807.692 840.257,807.692 839.537,807.692 837.857,807.932 836.417,807.932 834.737,807.932 
		834.018,807.932 833.537,807.932 833.057,807.932 832.338,807.932 832.098,807.932 831.857,807.932 828.257,808.173 
		828.018,808.173 825.137,808.173 824.897,808.173 823.217,808.173 822.497,808.412 818.418,808.412 815.777,808.412 
		815.297,808.412 814.577,808.412 810.257,808.652 810.018,808.652 809.777,808.652 809.297,808.652 805.457,808.652 
		804.018,808.893 802.338,808.893 800.657,808.893 795.857,808.893 792.257,809.132 789.138,809.132 788.657,809.132 
		786.257,809.132 785.777,809.132 785.537,809.132 784.098,809.132 783.377,809.132 782.418,809.373 781.457,809.373 
		777.617,809.373 776.418,809.373 774.978,809.373 774.498,809.373 773.297,809.373 771.617,809.373 768.258,809.612 
		766.817,809.612 766.338,809.612 756.018,809.853 753.377,809.853 751.698,809.853 747.617,809.853 746.657,809.853 
		746.418,809.853 746.178,809.853 745.218,810.093 744.738,810.093 743.058,810.093 741.617,810.093 740.178,810.093 
		738.738,810.093 737.058,810.093 736.818,810.093 734.657,810.093 733.698,810.093 733.457,810.093 732.018,810.093 
		731.777,810.093 730.338,810.093 730.098,810.332 728.657,810.332 727.218,810.332 726.978,810.332 722.897,810.332 
		719.058,810.332 717.857,810.332 717.138,810.332 709.218,810.573 707.538,810.573 707.058,810.573 706.818,810.573 
		706.098,810.573 705.857,810.573 704.178,810.573 702.019,810.573 701.777,810.573 697.938,810.573 697.698,810.573 
		696.258,810.573 693.857,810.813 692.897,810.813 688.818,810.813 688.098,810.813 687.378,810.813 687.138,810.813 
		686.418,810.813 684.979,810.813 681.857,810.813 681.618,810.813 679.218,810.813 678.738,810.813 678.498,810.813 
		678.258,810.813 671.777,810.813 668.658,811.053 667.938,811.053 666.979,810.813 661.938,811.053 660.979,811.053 
		660.498,811.053 660.258,811.053 659.058,811.053 658.818,811.053 649.458,811.053 649.219,811.053 641.298,811.053 
		640.338,811.053 639.858,811.053 639.618,811.053 639.138,811.053 638.178,811.053 637.458,811.053 636.738,811.053 
		636.498,811.053 633.378,811.053 630.018,811.053 629.778,811.053 625.218,811.053 623.058,811.053 621.858,811.053 
		621.618,811.053 618.258,811.053 618.018,811.053 610.098,811.053 601.698,811.053 600.979,811.053 600.738,811.053 
		600.499,811.053 600.258,811.053 598.578,811.053 597.378,811.053 597.138,811.053 592.099,811.053 590.658,811.053 
		583.458,811.053 582.499,811.053 580.818,811.053 579.139,811.053 578.418,811.053 576.738,811.053 576.019,811.053 
		575.059,811.053 572.898,811.053 572.659,811.053 571.218,811.053 569.539,811.053 568.099,811.053 565.699,811.053 
		565.219,811.053 563.059,810.813 561.378,810.813 560.179,810.813 558.019,810.813 554.898,810.813 554.179,810.813 
		553.699,810.813 553.219,810.813 552.259,810.813 551.539,810.813 551.059,810.813 541.938,810.813 536.179,810.573 
		534.019,810.573 532.099,810.573 528.259,810.573 525.619,810.573 522.259,810.573 521.779,810.573 519.379,810.332 
		516.259,810.332 515.299,810.332 514.579,810.332 514.099,810.332 512.659,810.332 512.179,810.332 509.299,810.332 
		505.939,810.332 505.459,810.093 502.819,810.093 501.139,810.093 498.499,810.093 497.299,810.093 495.379,810.093 
		495.139,810.093 494.659,810.093 493.219,810.093 484.819,809.853 483.859,809.853 480.739,809.853 476.659,809.612 
		466.099,809.612 462.979,809.373 461.299,809.373 461.059,809.373 460.579,809.373 458.899,809.373 458.179,809.373 
		456.259,809.373 452.659,809.132 451.459,809.132 439.939,808.893 439.939,801.932 440.179,792.569 440.419,790.89 
		440.419,783.448 440.419,782.729 440.899,771.206 440.899,770.006 440.899,769.766 440.899,768.807 440.899,764.965 
		440.899,764.726 441.139,759.925 441.379,750.803 441.379,748.883 441.379,743.843 441.859,730.881 441.859,725.119 
		442.579,696.555 440.899,696.555 436.339,696.555 430.819,696.314 429.379,696.314 429.139,696.314 428.899,696.314 
		427.219,696.314 424.819,696.314 424.099,696.074 423.859,696.074 423.379,696.074 422.179,696.074 421.939,696.074 
		415.939,696.074 414.739,695.835 414.5,695.835 414.02,695.835 407.779,695.835 407.059,695.595 406.819,695.595 405.379,695.595 
		402.979,695.595 399.62,695.595 398.899,695.595 397.939,695.354 397.699,695.354 394.1,695.354 391.459,695.354 384.5,695.114 
		384.02,695.114 382.819,694.875 381.859,694.875 381.14,694.875 376.579,694.875 376.339,694.875 374.899,694.635 374.659,694.635 
		373.22,694.635 371.54,694.635 370.1,694.635 369.859,694.635 368.419,694.635 368.179,694.395 366.739,694.395 366.5,694.395 
		365.3,694.395 365.06,694.395 363.379,694.395 361.939,694.395 361.7,694.155 358.58,694.155 358.1,694.155 356.899,694.155 
		355.459,694.155 355.22,694.155 335.779,693.435 330.979,693.194 330.74,693.194 329.3,693.194 328.1,692.955 325.939,692.955 
		320.42,692.715 319.7,692.715 316.34,692.715 312.979,692.475 298.1,691.754 296.9,691.754 288.979,691.515 287.3,691.273 
		285.62,691.273 284.9,691.273 280.82,691.034 279.38,691.034 279.14,691.034 276.02,690.794 275.3,690.794 274.82,690.794 
		273.62,690.794 272.42,690.794 272.42,689.114 272.42,688.873 272.9,680.713 272.9,679.032 272.9,678.072 273.14,673.271 
		273.14,671.831 273.38,668.951 273.38,668.471 273.86,660.069 273.86,659.59 274.1,655.509 274.1,654.789 274.1,653.828 
		274.58,646.867 274.58,645.187 274.58,643.987 275.06,632.945 275.06,632.225 275.3,630.305 275.3,630.064 275.3,628.864 
		275.3,627.664 275.54,624.304 275.54,621.903 275.54,620.943 275.78,619.263 275.78,618.543 276.02,612.542 	"/>
</g>
</svg>
