<?xml version="1.0" encoding="utf-8"?>
<!-- Generator: Adobe Illustrator 15.1.0, SVG Export Plug-In . SVG Version: 6.00 Build 0)  -->
<!DOCTYPE svg PUBLIC "-//W3C//DTD SVG 1.1//EN" "http://www.w3.org/Graphics/SVG/1.1/DTD/svg11.dtd">
<svg version="1.1" id="State" xmlns="http://www.w3.org/2000/svg" xmlns:xlink="http://www.w3.org/1999/xlink" x="0px" y="0px"
	 width="1296px" height="1296px" viewBox="0 0 1296 1296" enable-background="new 0 0 1296 1296" xml:space="preserve">
<g>
	<defs>
		<rect id="SVGID_1_" x="349.219" y="266.421" width="598.45" height="770.958"/>
	</defs>
	<clipPath id="SVGID_2_">
		<use xlink:href="#SVGID_1_"  overflow="visible"/>
	</clipPath>
	
		<polygon clip-path="url(#SVGID_2_)" fill="none" stroke="#B37C34" stroke-width="0.4799" stroke-linecap="round" stroke-linejoin="round" stroke-miterlimit="3.85" points="
		402.009,576.053 402.009,574.853 402.249,570.772 402.249,570.052 402.249,569.813 402.249,569.572 402.249,569.332 
		402.249,568.612 402.249,567.652 402.489,564.532 402.489,564.292 402.489,564.052 402.489,562.852 402.489,560.691 
		402.489,560.451 402.729,558.771 402.729,554.211 402.969,553.73 403.209,547.01 403.209,545.81 403.209,544.85 403.449,541.009 
		403.449,540.77 403.688,537.169 403.929,533.088 403.929,532.608 404.168,526.128 404.168,523.007 404.409,518.207 
		404.409,516.767 404.649,512.207 404.649,511.966 405.128,504.766 405.368,500.205 405.368,499.245 405.368,497.085 
		405.608,495.645 405.608,493.725 405.608,492.044 406.088,481.723 406.088,481.243 406.088,479.803 406.329,476.203 
		406.808,463.722 407.048,462.042 407.048,461.801 407.288,455.801 407.528,447.4 408.008,437.319 408.248,428.918 408.728,414.276 
		408.728,411.396 408.968,399.155 409.208,398.435 410.167,366.031 411.607,333.148 411.847,327.147 412.087,320.907 
		412.087,320.187 412.567,307.226 413.047,294.264 413.527,281.783 414.487,281.783 423.125,282.023 423.365,281.783 
		425.285,282.023 429.844,282.023 434.883,282.503 456.719,283.223 463.198,283.463 465.837,283.703 471.596,283.943 
		473.036,283.943 474.956,284.183 491.033,284.423 506.87,284.903 508.31,285.144 508.55,285.144 514.548,285.383 521.987,285.144 
		529.906,285.144 536.384,285.383 541.664,285.383 553.421,285.623 559.18,285.623 577.417,285.863 578.377,285.863 
		579.336,285.863 595.414,286.104 597.333,286.104 597.573,286.104 597.813,286.104 598.293,286.104 598.773,286.104 
		600.453,286.104 605.012,286.104 606.932,286.104 611.971,286.104 614.85,286.104 629.248,286.104 630.208,286.104 
		630.927,286.104 633.327,286.104 640.045,286.104 641.005,286.104 641.965,286.344 642.445,286.344 643.165,286.344 
		644.125,286.104 644.845,286.344 645.564,286.344 648.684,286.344 675.079,286.583 675.318,286.583 678.198,286.583 
		678.678,286.583 682.998,286.583 684.197,286.583 684.918,286.583 686.117,286.583 686.356,286.583 687.797,286.583 
		694.516,286.583 695.235,286.583 697.875,286.583 702.914,286.583 711.072,286.344 711.313,286.344 720.91,286.344 
		721.391,286.344 722.351,286.344 722.831,286.344 724.75,286.344 730.509,286.104 732.429,286.104 733.148,286.104 
		733.868,286.344 744.666,286.104 746.346,286.104 752.824,286.104 753.305,286.104 753.785,286.104 755.944,286.104 
		773.221,285.863 773.94,285.863 774.9,285.863 777.061,285.863 777.301,285.863 781.619,285.623 781.859,285.863 782.58,285.863 
		798.416,285.383 798.896,285.383 802.256,285.383 803.456,285.144 808.015,284.903 809.215,284.903 810.894,284.663 
		811.614,284.663 812.814,284.663 813.533,284.663 814.494,284.423 816.173,284.423 816.413,284.423 823.132,284.663 
		826.971,284.903 832.49,284.903 840.169,284.663 842.568,284.663 848.088,284.423 856.966,284.423 870.643,283.943 
		874.242,283.943 875.202,283.703 875.202,283.943 875.683,283.703 876.162,295.225 876.162,298.585 876.643,308.666 
		876.643,308.906 877.122,322.107 876.882,323.067 876.882,323.307 877.122,323.307 877.122,331.708 877.362,335.068 
		877.362,336.029 878.082,364.352 878.082,365.312 878.322,365.552 878.563,375.152 878.802,387.154 879.042,393.154 
		879.521,409.956 879.521,410.916 879.521,412.116 879.521,412.356 879.521,412.596 879.521,413.557 879.521,414.757 
		879.521,414.997 879.521,415.717 879.521,418.597 879.762,425.798 880.002,438.519 880.002,439.719 880.242,446.44 880.242,446.92 
		880.242,449.8 880.961,467.082 881.201,479.083 881.201,479.323 881.201,480.283 881.201,480.523 881.201,481.003 881.441,484.844 
		881.441,487.964 881.441,490.844 881.441,491.564 881.682,493.245 881.682,500.925 881.922,504.766 881.922,509.806 
		882.161,511.486 882.161,512.687 882.161,513.407 882.161,514.126 882.161,516.287 882.161,516.767 882.881,538.609 
		883.121,543.169 883.121,543.41 883.36,560.691 884.32,594.535 884.801,607.736 884.801,607.976 884.801,608.216 885.04,621.178 
		885.04,623.338 885.281,628.618 885.521,639.659 885.761,642.06 885.761,642.54 885.761,647.1 886,656.941 886,657.182 
		886.48,671.582 886.48,673.022 886.721,683.584 887.2,699.186 887.44,705.186 887.68,711.427 887.68,713.106 887.68,714.547 
		887.68,717.427 887.92,718.868 887.92,723.428 887.92,724.389 887.92,725.348 887.92,725.588 887.92,727.748 888.16,740.229 
		888.16,741.43 888.4,747.67 888.4,747.91 888.4,749.351 888.4,750.79 888.4,751.99 888.64,753.911 888.64,758.231 888.88,759.672 
		888.88,764.473 889.12,772.633 889.12,773.593 889.359,778.873 889.6,785.114 889.6,787.754 889.6,789.194 889.6,792.314 
		889.84,793.515 889.84,793.995 890.08,803.116 890.319,807.437 890.56,819.438 890.56,821.838 890.56,822.078 890.56,823.038 
		890.56,823.758 890.56,823.998 891.04,836 891.04,838.88 891.279,842 891.279,842.48 891.76,854.961 892,857.842 892,858.322 
		892,860.481 892,860.962 892.239,866.243 892.239,873.203 892.239,874.163 892.239,876.804 892.239,878.964 892.479,880.884 
		892.479,881.604 892.719,886.404 892.719,886.885 891.52,887.364 891.04,888.324 890.319,889.525 889.359,892.165 888.4,894.565 
		888.16,894.565 887.44,894.806 886.721,895.285 886.48,895.525 886.48,896.006 886.48,896.246 886.721,896.485 886.96,896.726 
		887.2,896.966 887.2,897.206 886.24,899.606 885.521,901.046 885.281,901.766 885.521,902.246 885.521,902.967 885.281,903.206 
		884.561,904.406 884.32,904.646 884.081,904.886 883.36,904.406 883.121,904.406 882.161,904.406 880.961,905.127 879.042,905.847 
		877.362,905.847 877.122,905.847 876.882,905.847 875.922,905.366 875.683,905.366 874.963,904.886 874.482,904.406 
		874.242,903.686 873.522,902.727 870.643,901.526 870.403,901.286 870.403,901.046 870.403,900.565 871.123,900.086 
		871.123,899.846 870.883,898.886 869.203,896.726 868.724,896.485 868.483,896.485 866.564,894.565 866.324,894.085 
		865.364,892.886 865.124,892.886 864.885,892.645 862.484,892.405 862.005,892.405 861.525,892.645 860.805,893.605 
		859.125,894.806 858.646,894.325 858.165,893.365 857.686,893.365 857.205,893.365 855.766,894.565 855.046,894.565 
		854.807,894.565 854.566,894.565 854.326,894.565 854.086,894.325 854.086,894.085 854.086,893.605 854.326,893.365 
		854.326,893.125 854.326,892.886 854.086,892.645 853.606,892.165 853.366,892.165 851.207,892.165 850.728,892.165 
		850.007,892.165 849.527,892.165 848.567,892.405 848.088,892.645 846.407,893.365 845.448,894.325 844.729,894.565 
		844.488,894.325 843.769,893.605 843.528,893.365 842.088,894.565 841.129,895.285 840.889,895.766 840.648,896.006 
		840.408,896.246 839.929,896.246 838.729,896.726 837.77,896.966 837.049,897.206 836.33,897.206 834.89,897.445 833.93,898.406 
		833.45,898.886 833.21,899.365 833.21,899.846 833.21,900.086 833.45,900.086 833.45,900.326 833.93,900.565 834.17,901.046 
		834.89,902.246 834.89,902.727 834.65,903.206 834.65,903.927 834.65,904.166 834.65,904.406 835.13,904.646 835.369,905.127 
		835.61,905.366 835.369,906.086 834.89,906.807 834.65,906.807 834.65,907.047 834.41,907.286 834.41,907.527 834.41,907.767 
		834.41,909.927 834.65,910.887 835.369,911.848 835.61,912.327 835.85,912.807 835.61,913.768 835.61,914.248 835.85,914.487 
		836.81,915.207 837.529,915.688 837.529,916.647 837.529,917.368 838.249,918.568 839.209,919.288 839.929,920.248 
		840.169,920.728 840.169,921.208 840.169,921.688 840.169,921.928 839.929,922.408 838.969,923.128 838.489,923.368 
		838.489,923.608 838.489,924.089 838.489,924.568 838.729,925.528 838.729,926.008 838.489,926.489 838.249,927.688 
		837.529,927.929 837.529,928.409 838.729,930.089 838.489,932.249 838.969,933.689 838.969,934.649 838.969,936.09 838.249,938.25 
		838.249,938.73 838.729,939.449 839.209,939.931 840.169,940.65 840.408,940.89 840.169,941.61 839.689,942.811 839.689,943.051 
		839.689,943.771 839.689,944.49 840.889,945.451 842.328,947.851 842.809,948.57 842.809,950.011 842.328,951.211 841.849,951.932 
		841.849,952.172 842.088,953.611 842.328,955.531 842.328,956.012 842.568,956.492 842.809,956.731 842.568,956.972 
		842.328,957.692 841.849,957.932 841.369,958.411 841.129,958.652 841.129,958.893 840.889,960.092 840.889,960.332 
		841.129,961.292 841.369,962.012 842.088,963.692 842.088,963.933 842.088,964.893 842.328,965.373 842.328,965.853 
		842.568,966.093 843.288,967.293 843.288,967.532 845.448,969.453 846.168,971.373 846.888,973.773 847.607,975.214 
		848.327,978.334 848.327,979.534 848.327,981.215 849.287,984.814 849.527,987.215 849.527,988.175 850.007,990.335 
		850.486,990.575 850.728,991.056 850.728,991.295 850.728,991.775 850.967,992.495 850.967,992.976 850.967,994.176 
		850.967,994.415 850.967,995.136 850.728,997.535 850.247,998.735 850.007,998.735 849.527,999.216 848.567,999.456 
		848.088,999.456 847.367,999.456 846.888,999.456 846.647,999.456 846.407,999.695 846.168,999.695 845.928,999.695 
		845.928,999.936 845.448,1000.177 844.968,1000.656 844.968,1000.896 844.729,1001.136 844.488,1001.616 844.729,1002.097 
		844.968,1002.097 845.448,1002.336 845.688,1002.336 845.688,1002.576 846.647,1002.816 847.127,1003.297 847.367,1003.536 
		847.607,1003.536 847.848,1003.776 848.088,1004.256 848.327,1004.736 848.327,1004.977 848.327,1005.456 848.088,1005.937 
		847.367,1006.656 847.127,1006.656 846.407,1007.377 845.928,1008.577 845.928,1009.297 845.928,1009.537 845.688,1010.497 
		845.688,1010.978 845.928,1011.218 845.928,1011.938 844.248,1010.257 842.088,1008.337 841.369,1007.856 831.051,997.776 
		830.811,997.776 826.971,994.176 820.492,987.936 819.053,986.735 810.174,978.334 805.615,973.773 805.136,973.294 
		803.216,971.613 801.296,969.934 800.096,968.732 794.577,963.452 790.498,959.853 787.858,957.212 780.42,950.251 780.18,950.011 
		779.939,949.771 779.22,949.051 778.98,948.811 778.5,948.331 770.822,941.37 766.742,937.53 766.742,937.29 766.502,937.05 
		763.144,933.93 760.264,931.049 760.023,931.049 758.344,929.369 756.424,927.688 754.744,926.008 749.465,921.208 
		748.985,920.728 748.985,920.488 742.986,914.968 740.827,912.807 740.348,912.567 737.468,909.687 736.988,909.207 
		735.788,908.247 731.469,904.166 730.028,902.967 728.59,901.526 723.551,896.726 721.631,894.806 720.431,893.605 
		719.951,893.365 719.231,892.405 712.272,885.924 710.593,884.484 706.993,881.124 700.035,874.403 696.436,871.283 
		696.195,871.043 687.077,862.162 686.117,861.202 682.518,858.081 668.36,844.881 650.364,827.599 644.125,821.838 
		638.606,816.798 633.327,811.518 630.447,808.877 623.968,802.876 622.289,801.195 620.609,799.756 613.17,792.556 
		602.853,782.954 599.493,779.834 596.134,776.714 587.975,768.793 585.335,766.632 575.498,757.271 572.858,754.391 
		571.898,753.671 569.738,751.751 563.739,746.23 558.7,741.189 557.5,740.229 541.423,725.107 527.026,711.666 524.387,709.026 
		521.267,705.906 515.508,700.626 511.429,696.785 503.99,689.585 501.351,687.185 499.431,685.504 497.271,683.344 
		495.832,682.144 492.232,678.783 487.193,673.982 485.034,671.823 480.955,668.223 478.555,665.822 474.476,661.981 
		473.276,660.781 470.876,658.621 468.717,656.461 468.477,656.222 462.238,650.46 461.038,649.261 458.639,647.1 454.799,643.5 
		454.799,643.26 454.56,643.26 454.319,643.02 451.44,640.379 450.96,639.899 445.201,634.379 441.602,631.019 437.283,626.938 
		434.403,624.298 434.403,624.058 434.163,624.058 428.884,619.017 425.765,616.137 421.206,611.577 419.046,609.896 
		414.007,605.096 409.448,600.775 409.208,600.536 408.488,599.815 406.568,597.895 406.329,597.895 406.329,597.655 
		406.088,597.415 405.608,597.175 405.608,596.935 404.409,595.975 404.409,595.735 402.489,594.055 401.769,593.334 
		401.769,592.615 401.769,589.494 401.769,586.134 402.009,581.573 402.009,579.413 	"/>
</g>
</svg>
