  0
SECTION
  2
HEADER
  9
$ACADVER
  1
AC1014
  9
$ACADMAINTVER
 70
     9
  9
$DWGCODEPAGE
  3
ANSI_1252
  9
$INSBASE
 10
0.0
 20
0.0
 30
0.0
  9
$EXTMIN
 10
1.000000000000000E+20
 20
1.000000000000000E+20
 30
1.000000000000000E+20
  9
$EXTMAX
 10
-1.000000000000000E+20
 20
-1.000000000000000E+20
 30
-1.000000000000000E+20
  9
$LIMMIN
 10
0.0
 20
0.0
  9
$LIMMAX
 10
12.0
 20
9.0
  9
$ORTHOMODE
 70
     0
  9
$REGENMODE
 70
     1
  9
$FILLMODE
 70
     1
  9
$QTEXTMODE
 70
     0
  9
$MIRRTEXT
 70
     1
  9
$DRAGMODE
 70
     2
  9
$LTSCALE
 40
1.0
  9
$OSMODE
 70
    37
  9
$ATTMODE
 70
     1
  9
$TEXTSIZE
 40
0.2
  9
$TRACEWID
 40
0.05
  9
$TEXTSTYLE
  7
STANDARD
  9
$CLAYER
  8
0
  9
$CELTYPE
  6
BYLAYER
  9
$CECOLOR
 62
   256
  9
$CELTSCALE
 40
1.0
  9
$DELOBJ
 70
     1
  9
$DISPSILH
 70
     0
  9
$DIMSCALE
 40
1.0
  9
$DIMASZ
 40
0.18
  9
$DIMEXO
 40
0.0625
  9
$DIMDLI
 40
0.38
  9
$DIMRND
 40
0.0
  9
$DIMDLE
 40
0.0
  9
$DIMEXE
 40
0.18
  9
$DIMTP
 40
0.0
  9
$DIMTM
 40
0.0
  9
$DIMTXT
 40
0.18
  9
$DIMCEN
 40
0.09
  9
$DIMTSZ
 40
0.0
  9
$DIMTOL
 70
     0
  9
$DIMLIM
 70
     0
  9
$DIMTIH
 70
     1
  9
$DIMTOH
 70
     1
  9
$DIMSE1
 70
     0
  9
$DIMSE2
 70
     0
  9
$DIMTAD
 70
     0
  9
$DIMZIN
 70
     0
  9
$DIMBLK
  1

  9
$DIMASO
 70
     1
  9
$DIMSHO
 70
     1
  9
$DIMPOST
  1

  9
$DIMAPOST
  1

  9
$DIMALT
 70
     0
  9
$DIMALTD
 70
     2
  9
$DIMALTF
 40
25.4
  9
$DIMLFAC
 40
1.0
  9
$DIMTOFL
 70
     0
  9
$DIMTVP
 40
0.0
  9
$DIMTIX
 70
     0
  9
$DIMSOXD
 70
     0
  9
$DIMSAH
 70
     0
  9
$DIMBLK1
  1

  9
$DIMBLK2
  1

  9
$DIMSTYLE
  2
STANDARD
  9
$DIMCLRD
 70
     0
  9
$DIMCLRE
 70
     0
  9
$DIMCLRT
 70
     0
  9
$DIMTFAC
 40
1.0
  9
$DIMGAP
 40
0.09
  9
$DIMJUST
 70
     0
  9
$DIMSD1
 70
     0
  9
$DIMSD2
 70
     0
  9
$DIMTOLJ
 70
     1
  9
$DIMTZIN
 70
     0
  9
$DIMALTZ
 70
     0
  9
$DIMALTTZ
 70
     0
  9
$DIMFIT
 70
     3
  9
$DIMUPT
 70
     0
  9
$DIMUNIT
 70
     2
  9
$DIMDEC
 70
     4
  9
$DIMTDEC
 70
     4
  9
$DIMALTU
 70
     2
  9
$DIMALTTD
 70
     2
  9
$DIMTXSTY
  7
STANDARD
  9
$DIMAUNIT
 70
     0
  9
$LUNITS
 70
     2
  9
$LUPREC
 70
     4
  9
$SKETCHINC
 40
0.1
  9
$FILLETRAD
 40
0.5
  9
$AUNITS
 70
     0
  9
$AUPREC
 70
     0
  9
$MENU
  1
.
  9
$ELEVATION
 40
0.0
  9
$PELEVATION
 40
0.0
  9
$THICKNESS
 40
0.0
  9
$LIMCHECK
 70
     0
  9
$CHAMFERA
 40
0.5
  9
$CHAMFERB
 40
0.5
  9
$CHAMFERC
 40
1.0
  9
$CHAMFERD
 40
0.0
  9
$SKPOLY
 70
     0
  9
$TDCREATE
 40
2457216.867516435
  9
$TDUPDATE
 40
2457216.867516447
  9
$TDINDWG
 40
0.0000000116
  9
$TDUSRTIMER
 40
0.0000000116
  9
$USRTIMER
 70
     1
  9
$ANGBASE
 50
0.0
  9
$ANGDIR
 70
     0
  9
$PDMODE
 70
     0
  9
$PDSIZE
 40
0.0
  9
$PLINEWID
 40
0.0
  9
$COORDS
 70
     1
  9
$SPLFRAME
 70
     0
  9
$SPLINETYPE
 70
     6
  9
$SPLINESEGS
 70
     8
  9
$ATTDIA
 70
     0
  9
$ATTREQ
 70
     1
  9
$HANDLING
 70
     1
  9
$HANDSEED
  5
332
  9
$SURFTAB1
 70
     6
  9
$SURFTAB2
 70
     6
  9
$SURFTYPE
 70
     6
  9
$SURFU
 70
     6
  9
$SURFV
 70
     6
  9
$UCSNAME
  2

  9
$UCSORG
 10
0.0
 20
0.0
 30
0.0
  9
$UCSXDIR
 10
1.0
 20
0.0
 30
0.0
  9
$UCSYDIR
 10
0.0
 20
1.0
 30
0.0
  9
$PUCSNAME
  2

  9
$PUCSORG
 10
0.0
 20
0.0
 30
0.0
  9
$PUCSXDIR
 10
1.0
 20
0.0
 30
0.0
  9
$PUCSYDIR
 10
0.0
 20
1.0
 30
0.0
  9
$USERI1
 70
     0
  9
$USERI2
 70
     0
  9
$USERI3
 70
     0
  9
$USERI4
 70
     0
  9
$USERI5
 70
     0
  9
$USERR1
 40
0.0
  9
$USERR2
 40
0.0
  9
$USERR3
 40
0.0
  9
$USERR4
 40
0.0
  9
$USERR5
 40
0.0
  9
$WORLDVIEW
 70
     1
  9
$SHADEDGE
 70
     3
  9
$SHADEDIF
 70
    70
  9
$TILEMODE
 70
     1
  9
$MAXACTVP
 70
    64
  9
$PINSBASE
 10
0.0
 20
0.0
 30
0.0
  9
$PLIMCHECK
 70
     0
  9
$PEXTMIN
 10
1.000000000000000E+20
 20
1.000000000000000E+20
 30
1.000000000000000E+20
  9
$PEXTMAX
 10
-1.000000000000000E+20
 20
-1.000000000000000E+20
 30
-1.000000000000000E+20
  9
$PLIMMIN
 10
0.0
 20
0.0
  9
$PLIMMAX
 10
12.0
 20
9.0
  9
$UNITMODE
 70
     0
  9
$VISRETAIN
 70
     1
  9
$PLINEGEN
 70
     0
  9
$PSLTSCALE
 70
     1
  9
$TREEDEPTH
 70
  3020
  9
$PICKSTYLE
 70
     1
  9
$CMLSTYLE
  2
STANDARD
  9
$CMLJUST
 70
     0
  9
$CMLSCALE
 40
1.0
  9
$PROXYGRAPHICS
 70
     1
  9
$MEASUREMENT
 70
     0
  0
ENDSEC
  0
SECTION
  2
CLASSES
  0
CLASS
  1
ACDBDICTIONARYWDFLT
  2
AcDbDictionaryWithDefault
  3
ObjectDBX Classes
 90
        0
280
     0
281
     0
  0
CLASS
  1
VISUALSTYLE
  2
AcDbVisualStyle
  3
ObjectDBX Classes
 90
     4095
280
     0
281
     0
  0
CLASS
  1
XRECORD
  2
AcDbXrecord
  3
AutoCAD 2000
 90
        0
280
     0
281
     0
  0
CLASS
  1
LWPOLYLINE
  2
AcDbPolyline
  3
AutoCAD 2000
 90
        0
280
     0
281
     1
  0
CLASS
  1
HATCH
  2
AcDbHatch
  3
AutoCAD 2000
 90
        0
280
     0
281
     1
  0
CLASS
  1
ACDBPLACEHOLDER
  2
AcDbPlaceHolder
  3
ObjectDBX Classes
 90
        0
280
     0
281
     0
  0
CLASS
  1
LAYOUT
  2
AcDbLayout
  3
ObjectDBX Classes
 90
        0
280
     0
281
     0
  0
ENDSEC
  0
SECTION
  2
TABLES
  0
TABLE
  2
VPORT
  5
8
330
0
100
AcDbSymbolTable
 70
     1
  0
VPORT
  5
29
330
8
100
AcDbSymbolTableRecord
100
AcDbViewportTableRecord
  2
*ACTIVE
 70
     0
 10
0.0
 20
0.0
 11
1.0
 21
1.0
 12
0.0
 22
0.0
 13
0.0
 23
0.0
 14
0.5
 24
0.5
 15
0.5
 25
0.5
 16
0.0
 26
0.0
 36
1.0
 17
4.243055555555555
 27
5.506944444444444
 37
0.0
 40
18.0
 41
1.0
 42
50.0
 43
0.0
 44
0.0
 50
0.0
 51
0.0
 71
     0
 72
   100
 73
     1
 74
     3
 75
     0
 76
     0
 77
     0
 78
     0
  0
ENDTAB
  0
TABLE
  2
LTYPE
  5
5
330
0
100
AcDbSymbolTable
 70
     1
  0
LTYPE
  5
14
330
5
100
AcDbSymbolTableRecord
100
AcDbLinetypeTableRecord
  2
BYBLOCK
 70
     0
  3

 72
    65
 73
     0
 40
0.0
  0
LTYPE
  5
15
330
5
100
AcDbSymbolTableRecord
100
AcDbLinetypeTableRecord
  2
BYLAYER
 70
     0
  3

 72
    65
 73
     0
 40
0.0
  0
LTYPE
  5
16
330
5
100
AcDbSymbolTableRecord
100
AcDbLinetypeTableRecord
  2
CONTINUOUS
 70
     0
  3
Solid line
 72
    65
 73
     0
 40
0.0
  0
ENDTAB
  0
TABLE
  2
LAYER
  5
2
330
0
100
AcDbSymbolTable
 70
     2
  0
LAYER
  5
10
330
2
100
AcDbSymbolTableRecord
100
AcDbLayerTableRecord
  2
0
 70
     0
 62
     7
  6
CONTINUOUS
  0
LAYER
  5
3B
330
2
100
AcDbSymbolTableRecord
100
AcDbLayerTableRecord
  2
STATE
 70
     0
 62
     7
  6
CONTINUOUS
  0
ENDTAB
  0
TABLE
  2
STYLE
  5
3
330
0
100
AcDbSymbolTable
 70
     1
  0
STYLE
  5
11
330
3
100
AcDbSymbolTableRecord
100
AcDbTextStyleTableRecord
  2
STANDARD
 70
     0
 40
0.0
 41
1.0
 50
0.0
 71
     0
 42
0.2
  3
txt
  4

  0
ENDTAB
  0
TABLE
  2
VIEW
  5
6
330
0
100
AcDbSymbolTable
 70
     0
  0
ENDTAB
  0
TABLE
  2
UCS
  5
7
330
0
100
AcDbSymbolTable
 70
     0
  0
ENDTAB
  0
TABLE
  2
APPID
  5
9
330
0
100
AcDbSymbolTable
 70
     1
  0
APPID
  5
12
330
9
100
AcDbSymbolTableRecord
100
AcDbRegAppTableRecord
  2
ACAD
 70
     0
  0
ENDTAB
  0
TABLE
  2
DIMSTYLE
  5
A
330
0
100
AcDbSymbolTable
 70
     1
  0
DIMSTYLE
105
27
330
A
100
AcDbSymbolTableRecord
100
AcDbDimStyleTableRecord
  2
STANDARD
 70
     0
  3

  4

  5

  6

  7

 40
1.0
 41
0.18
 42
0.0625
 43
0.38
 44
0.18
 45
0.0
 46
0.0
 47
0.0
 48
0.0
140
0.18
141
0.09
142
0.0
143
25.4
144
1.0
145
0.0
146
1.0
147
0.09
 71
     0
 72
     0
 73
     1
 74
     1
 75
     0
 76
     0
 77
     0
 78
     0
170
     0
171
     2
172
     0
173
     0
174
     0
175
     0
176
     0
177
     0
178
     0
270
     2
271
     4
272
     4
273
     2
274
     2
340
11
275
     0
280
     0
281
     0
282
     0
283
     1
284
     0
285
     0
286
     0
287
     3
288
     0
  0
ENDTAB
  0
TABLE
  2
BLOCK_RECORD
  5
1
330
0
100
AcDbSymbolTable
 70
     2
  0
BLOCK_RECORD
  5
1F
330
1
100
AcDbSymbolTableRecord
100
AcDbBlockTableRecord
  2
*MODEL_SPACE
  0
BLOCK_RECORD
  5
1B
330
1
100
AcDbSymbolTableRecord
100
AcDbBlockTableRecord
  2
*PAPER_SPACE
  0
BLOCK_RECORD
  5
3C
330
1
100
AcDbSymbolTableRecord
100
AcDbBlockTableRecord
  2
BLOCK_2
  0
ENDTAB
  0
ENDSEC
  0
SECTION
  2
BLOCKS
  0
BLOCK
  5
20
330
1F
100
AcDbEntity
  8
0
100
AcDbBlockBegin
  2
*MODEL_SPACE
 70
     0
 71
     0
 10
0.0
 20
0.0
 30
0.0
  3
*MODEL_SPACE
  1

  0
ENDBLK
  5
21
330
1F
100
AcDbEntity
  8
0
100
AcDbBlockEnd
  0
BLOCK
  5
1C
330
1B
100
AcDbEntity
 67
     1
  8
0
100
AcDbBlockBegin
  2
*PAPER_SPACE
 70
     0
 71
     0
 10
0.0
 20
0.0
 30
0.0
  3
*PAPER_SPACE
  1

  0
ENDBLK
  5
1D
330
1B
100
AcDbEntity
 67
     1
  8
0
100
AcDbBlockEnd
  0
BLOCK
  5
3E
330
3C
100
AcDbEntity
  8
0
100
AcDbBlockBegin
  2
BLOCK_2
 70
     0
 71
     0
 10
0.0
 20
0.0
 30
0.0
  3
BLOCK_2
  1

  0
POLYLINE
  5
40
330
3C
100
AcDbEntity
  8
STATE
 62
     2
100
AcDb2dPolyline
 66
     1
 10
0.0
 20
0.0
 30
0.0
  0
VERTEX
  5
41
330
40
100
AcDbEntity
  8
STATE
 62
     2
100
AcDbVertex
100
AcDb2dVertex
 10
0.8265109592013888
 20
6.506212022569444
 30
0.0
  0
VERTEX
  5
42
330
40
100
AcDbEntity
  8
STATE
 62
     2
100
AcDbVertex
100
AcDb2dVertex
 10
0.8265109592013888
 20
6.522874620225694
 30
0.0
  0
VERTEX
  5
43
330
40
100
AcDbEntity
  8
STATE
 62
     2
100
AcDbVertex
100
AcDb2dVertex
 10
0.8298475477430555
 20
6.579549153645833
 30
0.0
  0
VERTEX
  5
44
330
40
100
AcDbEntity
  8
STATE
 62
     2
100
AcDbVertex
100
AcDb2dVertex
 10
0.8298475477430555
 20
6.589552137586805
 30
0.0
  0
VERTEX
  5
45
330
40
100
AcDbEntity
  8
STATE
 62
     2
100
AcDbVertex
100
AcDb2dVertex
 10
0.8298475477430555
 20
6.592881944444444
 30
0.0
  0
VERTEX
  5
46
330
40
100
AcDbEntity
  8
STATE
 62
     2
100
AcDbVertex
100
AcDb2dVertex
 10
0.8298475477430555
 20
6.596218532986111
 30
0.0
  0
VERTEX
  5
47
330
40
100
AcDbEntity
  8
STATE
 62
     2
100
AcDbVertex
100
AcDb2dVertex
 10
0.8298475477430555
 20
6.599555121527778
 30
0.0
  0
VERTEX
  5
48
330
40
100
AcDbEntity
  8
STATE
 62
     2
100
AcDbVertex
100
AcDb2dVertex
 10
0.8298475477430555
 20
6.609551323784721
 30
0.0
  0
VERTEX
  5
49
330
40
100
AcDbEntity
  8
STATE
 62
     2
100
AcDbVertex
100
AcDb2dVertex
 10
0.8298475477430555
 20
6.622890896267361
 30
0.0
  0
VERTEX
  5
4A
330
40
100
AcDbEntity
  8
STATE
 62
     2
100
AcDbVertex
100
AcDb2dVertex
 10
0.8331773546006944
 20
6.666225857204861
 30
0.0
  0
VERTEX
  5
4B
330
40
100
AcDbEntity
  8
STATE
 62
     2
100
AcDbVertex
100
AcDb2dVertex
 10
0.8331773546006944
 20
6.669562445746528
 30
0.0
  0
VERTEX
  5
4C
330
40
100
AcDbEntity
  8
STATE
 62
     2
100
AcDbVertex
100
AcDb2dVertex
 10
0.8331773546006944
 20
6.672892252604166
 30
0.0
  0
VERTEX
  5
4D
330
40
100
AcDbEntity
  8
STATE
 62
     2
100
AcDbVertex
100
AcDb2dVertex
 10
0.8331773546006944
 20
6.689561631944444
 30
0.0
  0
VERTEX
  5
4E
330
40
100
AcDbEntity
  8
STATE
 62
     2
100
AcDbVertex
100
AcDb2dVertex
 10
0.8331773546006944
 20
6.719563802083333
 30
0.0
  0
VERTEX
  5
4F
330
40
100
AcDbEntity
  8
STATE
 62
     2
100
AcDbVertex
100
AcDb2dVertex
 10
0.8331773546006944
 20
6.722900390625
 30
0.0
  0
VERTEX
  5
50
330
40
100
AcDbEntity
  8
STATE
 62
     2
100
AcDbVertex
100
AcDb2dVertex
 10
0.836513943142361
 20
6.746236165364583
 30
0.0
  0
VERTEX
  5
51
330
40
100
AcDbEntity
  8
STATE
 62
     2
100
AcDbVertex
100
AcDb2dVertex
 10
0.836513943142361
 20
6.8095703125
 30
0.0
  0
VERTEX
  5
52
330
40
100
AcDbEntity
  8
STATE
 62
     2
100
AcDbVertex
100
AcDb2dVertex
 10
0.8398505316840277
 20
6.816243489583333
 30
0.0
  0
VERTEX
  5
53
330
40
100
AcDbEntity
  8
STATE
 62
     2
100
AcDbVertex
100
AcDb2dVertex
 10
0.8431803385416666
 20
6.909586588541666
 30
0.0
  0
VERTEX
  5
54
330
40
100
AcDbEntity
  8
STATE
 62
     2
100
AcDbVertex
100
AcDb2dVertex
 10
0.8431803385416666
 20
6.926249186197916
 30
0.0
  0
VERTEX
  5
55
330
40
100
AcDbEntity
  8
STATE
 62
     2
100
AcDbVertex
100
AcDb2dVertex
 10
0.8431803385416666
 20
6.939588758680555
 30
0.0
  0
VERTEX
  5
56
330
40
100
AcDbEntity
  8
STATE
 62
     2
100
AcDbVertex
100
AcDb2dVertex
 10
0.8465101453993055
 20
6.992926703559028
 30
0.0
  0
VERTEX
  5
57
330
40
100
AcDbEntity
  8
STATE
 62
     2
100
AcDbVertex
100
AcDb2dVertex
 10
0.8465101453993055
 20
6.996256510416666
 30
0.0
  0
VERTEX
  5
58
330
40
100
AcDbEntity
  8
STATE
 62
     2
100
AcDbVertex
100
AcDb2dVertex
 10
0.8498399522569444
 20
7.0462646484375
 30
0.0
  0
VERTEX
  5
59
330
40
100
AcDbEntity
  8
STATE
 62
     2
100
AcDbVertex
100
AcDb2dVertex
 10
0.853176540798611
 20
7.102939181857638
 30
0.0
  0
VERTEX
  5
5A
330
40
100
AcDbEntity
  8
STATE
 62
     2
100
AcDbVertex
100
AcDb2dVertex
 10
0.853176540798611
 20
7.109605577256944
 30
0.0
  0
VERTEX
  5
5B
330
40
100
AcDbEntity
  8
STATE
 62
     2
100
AcDbVertex
100
AcDb2dVertex
 10
0.85650634765625
 20
7.199612087673611
 30
0.0
  0
VERTEX
  5
5C
330
40
100
AcDbEntity
  8
STATE
 62
     2
100
AcDbVertex
100
AcDb2dVertex
 10
0.85650634765625
 20
7.242953830295138
 30
0.0
  0
VERTEX
  5
5D
330
40
100
AcDbEntity
  8
STATE
 62
     2
100
AcDbVertex
100
AcDb2dVertex
 10
0.8598429361979166
 20
7.309624565972221
 30
0.0
  0
VERTEX
  5
5E
330
40
100
AcDbEntity
  8
STATE
 62
     2
100
AcDbVertex
100
AcDb2dVertex
 10
0.8598429361979166
 20
7.329623752170138
 30
0.0
  0
VERTEX
  5
5F
330
40
100
AcDbEntity
  8
STATE
 62
     2
100
AcDbVertex
100
AcDb2dVertex
 10
0.8631795247395833
 20
7.392964680989583
 30
0.0
  0
VERTEX
  5
60
330
40
100
AcDbEntity
  8
STATE
 62
     2
100
AcDbVertex
100
AcDb2dVertex
 10
0.8631795247395833
 20
7.39630126953125
 30
0.0
  0
VERTEX
  5
61
330
40
100
AcDbEntity
  8
STATE
 62
     2
100
AcDbVertex
100
AcDb2dVertex
 10
0.869839138454861
 20
7.496310763888888
 30
0.0
  0
VERTEX
  5
62
330
40
100
AcDbEntity
  8
STATE
 62
     2
100
AcDbVertex
100
AcDb2dVertex
 10
0.8731689453125
 20
7.559651692708333
 30
0.0
  0
VERTEX
  5
63
330
40
100
AcDbEntity
  8
STATE
 62
     2
100
AcDbVertex
100
AcDb2dVertex
 10
0.8731689453125
 20
7.572984483506944
 30
0.0
  0
VERTEX
  5
64
330
40
100
AcDbEntity
  8
STATE
 62
     2
100
AcDbVertex
100
AcDb2dVertex
 10
0.8731689453125
 20
7.602986653645833
 30
0.0
  0
VERTEX
  5
65
330
40
100
AcDbEntity
  8
STATE
 62
     2
100
AcDbVertex
100
AcDb2dVertex
 10
0.8765055338541666
 20
7.622992621527778
 30
0.0
  0
VERTEX
  5
66
330
40
100
AcDbEntity
  8
STATE
 62
     2
100
AcDbVertex
100
AcDb2dVertex
 10
0.8765055338541666
 20
7.649658203125
 30
0.0
  0
VERTEX
  5
67
330
40
100
AcDbEntity
  8
STATE
 62
     2
100
AcDbVertex
100
AcDb2dVertex
 10
0.8765055338541666
 20
7.672993977864583
 30
0.0
  0
VERTEX
  5
68
330
40
100
AcDbEntity
  8
STATE
 62
     2
100
AcDbVertex
100
AcDb2dVertex
 10
0.8831719292534722
 20
7.81634521484375
 30
0.0
  0
VERTEX
  5
69
330
40
100
AcDbEntity
  8
STATE
 62
     2
100
AcDbVertex
100
AcDb2dVertex
 10
0.8831719292534722
 20
7.823011610243055
 30
0.0
  0
VERTEX
  5
6A
330
40
100
AcDbEntity
  8
STATE
 62
     2
100
AcDbVertex
100
AcDb2dVertex
 10
0.8831719292534722
 20
7.843010796440971
 30
0.0
  0
VERTEX
  5
6B
330
40
100
AcDbEntity
  8
STATE
 62
     2
100
AcDbVertex
100
AcDb2dVertex
 10
0.8865085177951388
 20
7.893018934461805
 30
0.0
  0
VERTEX
  5
6C
330
40
100
AcDbEntity
  8
STATE
 62
     2
100
AcDbVertex
100
AcDb2dVertex
 10
0.8931681315104166
 20
8.066365559895832
 30
0.0
  0
VERTEX
  5
6D
330
40
100
AcDbEntity
  8
STATE
 62
     2
100
AcDbVertex
100
AcDb2dVertex
 10
0.8964979383680555
 20
8.089701334635416
 30
0.0
  0
VERTEX
  5
6E
330
40
100
AcDbEntity
  8
STATE
 62
     2
100
AcDbVertex
100
AcDb2dVertex
 10
0.8964979383680555
 20
8.093037923177082
 30
0.0
  0
VERTEX
  5
6F
330
40
100
AcDbEntity
  8
STATE
 62
     2
100
AcDbVertex
100
AcDb2dVertex
 10
0.8998345269097222
 20
8.176378038194445
 30
0.0
  0
VERTEX
  5
70
330
40
100
AcDbEntity
  8
STATE
 62
     2
100
AcDbVertex
100
AcDb2dVertex
 10
0.9031711154513888
 20
8.29305691189236
 30
0.0
  0
VERTEX
  5
71
330
40
100
AcDbEntity
  8
STATE
 62
     2
100
AcDbVertex
100
AcDb2dVertex
 10
0.9098375108506944
 20
8.43307156032986
 30
0.0
  0
VERTEX
  5
72
330
40
100
AcDbEntity
  8
STATE
 62
     2
100
AcDbVertex
100
AcDb2dVertex
 10
0.9131673177083333
 20
8.549750434027777
 30
0.0
  0
VERTEX
  5
73
330
40
100
AcDbEntity
  8
STATE
 62
     2
100
AcDbVertex
100
AcDb2dVertex
 10
0.9198337131076388
 20
8.753106011284721
 30
0.0
  0
VERTEX
  5
74
330
40
100
AcDbEntity
  8
STATE
 62
     2
100
AcDbVertex
100
AcDb2dVertex
 10
0.9198337131076388
 20
8.793104383680555
 30
0.0
  0
VERTEX
  5
75
330
40
100
AcDbEntity
  8
STATE
 62
     2
100
AcDbVertex
100
AcDb2dVertex
 10
0.9231635199652777
 20
8.963127983940971
 30
0.0
  0
VERTEX
  5
76
330
40
100
AcDbEntity
  8
STATE
 62
     2
100
AcDbVertex
100
AcDb2dVertex
 10
0.9265001085069444
 20
8.973130967881945
 30
0.0
  0
VERTEX
  5
77
330
40
100
AcDbEntity
  8
STATE
 62
     2
100
AcDbVertex
100
AcDb2dVertex
 10
0.9398261176215277
 20
9.423177083333332
 30
0.0
  0
VERTEX
  5
78
330
40
100
AcDbEntity
  8
STATE
 62
     2
100
AcDbVertex
100
AcDb2dVertex
 10
0.9598253038194444
 20
9.8798828125
 30
0.0
  0
VERTEX
  5
79
330
40
100
AcDbEntity
  8
STATE
 62
     2
100
AcDbVertex
100
AcDb2dVertex
 10
0.9631551106770833
 20
9.963229709201388
 30
0.0
  0
VERTEX
  5
7A
330
40
100
AcDbEntity
  8
STATE
 62
     2
100
AcDbVertex
100
AcDb2dVertex
 10
0.96649169921875
 20
10.04989963107639
 30
0.0
  0
VERTEX
  5
7B
330
40
100
AcDbEntity
  8
STATE
 62
     2
100
AcDbVertex
100
AcDb2dVertex
 10
0.96649169921875
 20
10.05990261501736
 30
0.0
  0
VERTEX
  5
7C
330
40
100
AcDbEntity
  8
STATE
 62
     2
100
AcDbVertex
100
AcDb2dVertex
 10
0.9731513129340277
 20
10.23992241753472
 30
0.0
  0
VERTEX
  5
7D
330
40
100
AcDbEntity
  8
STATE
 62
     2
100
AcDbVertex
100
AcDb2dVertex
 10
0.9798177083333333
 20
10.41994222005208
 30
0.0
  0
VERTEX
  5
7E
330
40
100
AcDbEntity
  8
STATE
 62
     2
100
AcDbVertex
100
AcDb2dVertex
 10
0.9864908854166666
 20
10.59328884548611
 30
0.0
  0
VERTEX
  5
7F
330
40
100
AcDbEntity
  8
STATE
 62
     2
100
AcDbVertex
100
AcDb2dVertex
 10
0.99981689453125
 20
10.59328884548611
 30
0.0
  0
VERTEX
  5
80
330
40
100
AcDbEntity
  8
STATE
 62
     2
100
AcDbVertex
100
AcDb2dVertex
 10
1.119791666666667
 20
10.58995903862847
 30
0.0
  0
VERTEX
  5
81
330
40
100
AcDbEntity
  8
STATE
 62
     2
100
AcDbVertex
100
AcDb2dVertex
 10
1.123128255208333
 20
10.59328884548611
 30
0.0
  0
VERTEX
  5
82
330
40
100
AcDbEntity
  8
STATE
 62
     2
100
AcDbVertex
100
AcDb2dVertex
 10
1.149787055121528
 20
10.58995903862847
 30
0.0
  0
VERTEX
  5
83
330
40
100
AcDbEntity
  8
STATE
 62
     2
100
AcDbVertex
100
AcDb2dVertex
 10
1.213114420572917
 20
10.58995903862847
 30
0.0
  0
VERTEX
  5
84
330
40
100
AcDbEntity
  8
STATE
 62
     2
100
AcDbVertex
100
AcDb2dVertex
 10
1.283101399739583
 20
10.58329264322917
 30
0.0
  0
VERTEX
  5
85
330
40
100
AcDbEntity
  8
STATE
 62
     2
100
AcDbVertex
100
AcDb2dVertex
 10
1.586378309461805
 20
10.57328965928819
 30
0.0
  0
VERTEX
  5
86
330
40
100
AcDbEntity
  8
STATE
 62
     2
100
AcDbVertex
100
AcDb2dVertex
 10
1.676357693142361
 20
10.56995985243056
 30
0.0
  0
VERTEX
  5
87
330
40
100
AcDbEntity
  8
STATE
 62
     2
100
AcDbVertex
100
AcDb2dVertex
 10
1.713019476996528
 20
10.56662326388889
 30
0.0
  0
VERTEX
  5
88
330
40
100
AcDbEntity
  8
STATE
 62
     2
100
AcDbVertex
100
AcDb2dVertex
 10
1.793002658420139
 20
10.56328667534722
 30
0.0
  0
VERTEX
  5
89
330
40
100
AcDbEntity
  8
STATE
 62
     2
100
AcDbVertex
100
AcDb2dVertex
 10
1.813001844618055
 20
10.56328667534722
 30
0.0
  0
VERTEX
  5
8A
330
40
100
AcDbEntity
  8
STATE
 62
     2
100
AcDbVertex
100
AcDb2dVertex
 10
1.83966064453125
 20
10.55995686848958
 30
0.0
  0
VERTEX
  5
8B
330
40
100
AcDbEntity
  8
STATE
 62
     2
100
AcDbVertex
100
AcDb2dVertex
 10
2.062954372829861
 20
10.55662027994792
 30
0.0
  0
VERTEX
  5
8C
330
40
100
AcDbEntity
  8
STATE
 62
     2
100
AcDbVertex
100
AcDb2dVertex
 10
2.282918294270833
 20
10.54995388454861
 30
0.0
  0
VERTEX
  5
8D
330
40
100
AcDbEntity
  8
STATE
 62
     2
100
AcDbVertex
100
AcDb2dVertex
 10
2.302910698784722
 20
10.54661729600694
 30
0.0
  0
VERTEX
  5
8E
330
40
100
AcDbEntity
  8
STATE
 62
     2
100
AcDbVertex
100
AcDb2dVertex
 10
2.306247287326389
 20
10.54661729600694
 30
0.0
  0
VERTEX
  5
8F
330
40
100
AcDbEntity
  8
STATE
 62
     2
100
AcDbVertex
100
AcDb2dVertex
 10
2.389560275607639
 20
10.54328748914931
 30
0.0
  0
VERTEX
  5
90
330
40
100
AcDbEntity
  8
STATE
 62
     2
100
AcDbVertex
100
AcDb2dVertex
 10
2.492879231770833
 20
10.54661729600694
 30
0.0
  0
VERTEX
  5
91
330
40
100
AcDbEntity
  8
STATE
 62
     2
100
AcDbVertex
100
AcDb2dVertex
 10
2.602857801649305
 20
10.54661729600694
 30
0.0
  0
VERTEX
  5
92
330
40
100
AcDbEntity
  8
STATE
 62
     2
100
AcDbVertex
100
AcDb2dVertex
 10
2.692837185329861
 20
10.54328748914931
 30
0.0
  0
VERTEX
  5
93
330
40
100
AcDbEntity
  8
STATE
 62
     2
100
AcDbVertex
100
AcDb2dVertex
 10
2.766160753038194
 20
10.54328748914931
 30
0.0
  0
VERTEX
  5
94
330
40
100
AcDbEntity
  8
STATE
 62
     2
100
AcDbVertex
100
AcDb2dVertex
 10
2.929463704427083
 20
10.53995768229167
 30
0.0
  0
VERTEX
  5
95
330
40
100
AcDbEntity
  8
STATE
 62
     2
100
AcDbVertex
100
AcDb2dVertex
 10
3.009446885850694
 20
10.53995768229167
 30
0.0
  0
VERTEX
  5
96
330
40
100
AcDbEntity
  8
STATE
 62
     2
100
AcDbVertex
100
AcDb2dVertex
 10
3.262736002604167
 20
10.53662109375
 30
0.0
  0
VERTEX
  5
97
330
40
100
AcDbEntity
  8
STATE
 62
     2
100
AcDbVertex
100
AcDb2dVertex
 10
3.276068793402778
 20
10.53662109375
 30
0.0
  0
VERTEX
  5
98
330
40
100
AcDbEntity
  8
STATE
 62
     2
100
AcDbVertex
100
AcDb2dVertex
 10
3.289394802517361
 20
10.53662109375
 30
0.0
  0
VERTEX
  5
99
330
40
100
AcDbEntity
  8
STATE
 62
     2
100
AcDbVertex
100
AcDb2dVertex
 10
3.512688530815972
 20
10.53328450520833
 30
0.0
  0
VERTEX
  5
9A
330
40
100
AcDbEntity
  8
STATE
 62
     2
100
AcDbVertex
100
AcDb2dVertex
 10
3.539354112413194
 20
10.53328450520833
 30
0.0
  0
VERTEX
  5
9B
330
40
100
AcDbEntity
  8
STATE
 62
     2
100
AcDbVertex
100
AcDb2dVertex
 10
3.542683919270833
 20
10.53328450520833
 30
0.0
  0
VERTEX
  5
9C
330
40
100
AcDbEntity
  8
STATE
 62
     2
100
AcDbVertex
100
AcDb2dVertex
 10
3.5460205078125
 20
10.53328450520833
 30
0.0
  0
VERTEX
  5
9D
330
40
100
AcDbEntity
  8
STATE
 62
     2
100
AcDbVertex
100
AcDb2dVertex
 10
3.552680121527778
 20
10.53328450520833
 30
0.0
  0
VERTEX
  5
9E
330
40
100
AcDbEntity
  8
STATE
 62
     2
100
AcDbVertex
100
AcDb2dVertex
 10
3.559346516927083
 20
10.53328450520833
 30
0.0
  0
VERTEX
  5
9F
330
40
100
AcDbEntity
  8
STATE
 62
     2
100
AcDbVertex
100
AcDb2dVertex
 10
3.582675509982639
 20
10.53328450520833
 30
0.0
  0
VERTEX
  5
A0
330
40
100
AcDbEntity
  8
STATE
 62
     2
100
AcDbVertex
100
AcDb2dVertex
 10
3.64599609375
 20
10.53328450520833
 30
0.0
  0
VERTEX
  5
A1
330
40
100
AcDbEntity
  8
STATE
 62
     2
100
AcDbVertex
100
AcDb2dVertex
 10
3.672661675347222
 20
10.53328450520833
 30
0.0
  0
VERTEX
  5
A2
330
40
100
AcDbEntity
  8
STATE
 62
     2
100
AcDbVertex
100
AcDb2dVertex
 10
3.742648654513889
 20
10.53328450520833
 30
0.0
  0
VERTEX
  5
A3
330
40
100
AcDbEntity
  8
STATE
 62
     2
100
AcDbVertex
100
AcDb2dVertex
 10
3.782640245225694
 20
10.53328450520833
 30
0.0
  0
VERTEX
  5
A4
330
40
100
AcDbEntity
  8
STATE
 62
     2
100
AcDbVertex
100
AcDb2dVertex
 10
3.98260498046875
 20
10.53328450520833
 30
0.0
  0
VERTEX
  5
A5
330
40
100
AcDbEntity
  8
STATE
 62
     2
100
AcDbVertex
100
AcDb2dVertex
 10
3.995937771267361
 20
10.53328450520833
 30
0.0
  0
VERTEX
  5
A6
330
40
100
AcDbEntity
  8
STATE
 62
     2
100
AcDbVertex
100
AcDb2dVertex
 10
4.005933973524305
 20
10.53328450520833
 30
0.0
  0
VERTEX
  5
A7
330
40
100
AcDbEntity
  8
STATE
 62
     2
100
AcDbVertex
100
AcDb2dVertex
 10
4.039259168836805
 20
10.53328450520833
 30
0.0
  0
VERTEX
  5
A8
330
40
100
AcDbEntity
  8
STATE
 62
     2
100
AcDbVertex
100
AcDb2dVertex
 10
4.132575141059028
 20
10.53328450520833
 30
0.0
  0
VERTEX
  5
A9
330
40
100
AcDbEntity
  8
STATE
 62
     2
100
AcDbVertex
100
AcDb2dVertex
 10
4.145907931857638
 20
10.53328450520833
 30
0.0
  0
VERTEX
  5
AA
330
40
100
AcDbEntity
  8
STATE
 62
     2
100
AcDbVertex
100
AcDb2dVertex
 10
4.15924072265625
 20
10.52994791666667
 30
0.0
  0
VERTEX
  5
AB
330
40
100
AcDbEntity
  8
STATE
 62
     2
100
AcDbVertex
100
AcDb2dVertex
 10
4.165907118055555
 20
10.52994791666667
 30
0.0
  0
VERTEX
  5
AC
330
40
100
AcDbEntity
  8
STATE
 62
     2
100
AcDbVertex
100
AcDb2dVertex
 10
4.1759033203125
 20
10.52994791666667
 30
0.0
  0
VERTEX
  5
AD
330
40
100
AcDbEntity
  8
STATE
 62
     2
100
AcDbVertex
100
AcDb2dVertex
 10
4.189236111111111
 20
10.53328450520833
 30
0.0
  0
VERTEX
  5
AE
330
40
100
AcDbEntity
  8
STATE
 62
     2
100
AcDbVertex
100
AcDb2dVertex
 10
4.199232313368055
 20
10.52994791666667
 30
0.0
  0
VERTEX
  5
AF
330
40
100
AcDbEntity
  8
STATE
 62
     2
100
AcDbVertex
100
AcDb2dVertex
 10
4.209228515625
 20
10.52994791666667
 30
0.0
  0
VERTEX
  5
B0
330
40
100
AcDbEntity
  8
STATE
 62
     2
100
AcDbVertex
100
AcDb2dVertex
 10
4.252556694878472
 20
10.52994791666667
 30
0.0
  0
VERTEX
  5
B1
330
40
100
AcDbEntity
  8
STATE
 62
     2
100
AcDbVertex
100
AcDb2dVertex
 10
4.619154188368055
 20
10.52661810980903
 30
0.0
  0
VERTEX
  5
B2
330
40
100
AcDbEntity
  8
STATE
 62
     2
100
AcDbVertex
100
AcDb2dVertex
 10
4.622477213541666
 20
10.52661810980903
 30
0.0
  0
VERTEX
  5
B3
330
40
100
AcDbEntity
  8
STATE
 62
     2
100
AcDbVertex
100
AcDb2dVertex
 10
4.6624755859375
 20
10.52661810980903
 30
0.0
  0
VERTEX
  5
B4
330
40
100
AcDbEntity
  8
STATE
 62
     2
100
AcDbVertex
100
AcDb2dVertex
 10
4.669135199652778
 20
10.52661810980903
 30
0.0
  0
VERTEX
  5
B5
330
40
100
AcDbEntity
  8
STATE
 62
     2
100
AcDbVertex
100
AcDb2dVertex
 10
4.729139539930555
 20
10.52661810980903
 30
0.0
  0
VERTEX
  5
B6
330
40
100
AcDbEntity
  8
STATE
 62
     2
100
AcDbVertex
100
AcDb2dVertex
 10
4.745795355902778
 20
10.52661810980903
 30
0.0
  0
VERTEX
  5
B7
330
40
100
AcDbEntity
  8
STATE
 62
     2
100
AcDbVertex
100
AcDb2dVertex
 10
4.755805121527778
 20
10.52661810980903
 30
0.0
  0
VERTEX
  5
B8
330
40
100
AcDbEntity
  8
STATE
 62
     2
100
AcDbVertex
100
AcDb2dVertex
 10
4.7724609375
 20
10.52661810980903
 30
0.0
  0
VERTEX
  5
B9
330
40
100
AcDbEntity
  8
STATE
 62
     2
100
AcDbVertex
100
AcDb2dVertex
 10
4.775783962673611
 20
10.52661810980903
 30
0.0
  0
VERTEX
  5
BA
330
40
100
AcDbEntity
  8
STATE
 62
     2
100
AcDbVertex
100
AcDb2dVertex
 10
4.795789930555555
 20
10.52661810980903
 30
0.0
  0
VERTEX
  5
BB
330
40
100
AcDbEntity
  8
STATE
 62
     2
100
AcDbVertex
100
AcDb2dVertex
 10
4.889105902777778
 20
10.52661810980903
 30
0.0
  0
VERTEX
  5
BC
330
40
100
AcDbEntity
  8
STATE
 62
     2
100
AcDbVertex
100
AcDb2dVertex
 10
4.899102105034722
 20
10.52661810980903
 30
0.0
  0
VERTEX
  5
BD
330
40
100
AcDbEntity
  8
STATE
 62
     2
100
AcDbVertex
100
AcDb2dVertex
 10
4.935763888888888
 20
10.52661810980903
 30
0.0
  0
VERTEX
  5
BE
330
40
100
AcDbEntity
  8
STATE
 62
     2
100
AcDbVertex
100
AcDb2dVertex
 10
5.005750868055555
 20
10.52661810980903
 30
0.0
  0
VERTEX
  5
BF
330
40
100
AcDbEntity
  8
STATE
 62
     2
100
AcDbVertex
100
AcDb2dVertex
 10
5.119059244791666
 20
10.52994791666667
 30
0.0
  0
VERTEX
  5
C0
330
40
100
AcDbEntity
  8
STATE
 62
     2
100
AcDbVertex
100
AcDb2dVertex
 10
5.122395833333333
 20
10.52994791666667
 30
0.0
  0
VERTEX
  5
C1
330
40
100
AcDbEntity
  8
STATE
 62
     2
100
AcDbVertex
100
AcDb2dVertex
 10
5.255696614583333
 20
10.52994791666667
 30
0.0
  0
VERTEX
  5
C2
330
40
100
AcDbEntity
  8
STATE
 62
     2
100
AcDbVertex
100
AcDb2dVertex
 10
5.262369791666666
 20
10.52994791666667
 30
0.0
  0
VERTEX
  5
C3
330
40
100
AcDbEntity
  8
STATE
 62
     2
100
AcDbVertex
100
AcDb2dVertex
 10
5.275702582465278
 20
10.52994791666667
 30
0.0
  0
VERTEX
  5
C4
330
40
100
AcDbEntity
  8
STATE
 62
     2
100
AcDbVertex
100
AcDb2dVertex
 10
5.282375759548611
 20
10.52994791666667
 30
0.0
  0
VERTEX
  5
C5
330
40
100
AcDbEntity
  8
STATE
 62
     2
100
AcDbVertex
100
AcDb2dVertex
 10
5.309027777777778
 20
10.52994791666667
 30
0.0
  0
VERTEX
  5
C6
330
40
100
AcDbEntity
  8
STATE
 62
     2
100
AcDbVertex
100
AcDb2dVertex
 10
5.389010959201388
 20
10.53328450520833
 30
0.0
  0
VERTEX
  5
C7
330
40
100
AcDbEntity
  8
STATE
 62
     2
100
AcDbVertex
100
AcDb2dVertex
 10
5.415676540798611
 20
10.53328450520833
 30
0.0
  0
VERTEX
  5
C8
330
40
100
AcDbEntity
  8
STATE
 62
     2
100
AcDbVertex
100
AcDb2dVertex
 10
5.425672743055555
 20
10.53328450520833
 30
0.0
  0
VERTEX
  5
C9
330
40
100
AcDbEntity
  8
STATE
 62
     2
100
AcDbVertex
100
AcDb2dVertex
 10
5.4356689453125
 20
10.52994791666667
 30
0.0
  0
VERTEX
  5
CA
330
40
100
AcDbEntity
  8
STATE
 62
     2
100
AcDbVertex
100
AcDb2dVertex
 10
5.585639105902778
 20
10.53328450520833
 30
0.0
  0
VERTEX
  5
CB
330
40
100
AcDbEntity
  8
STATE
 62
     2
100
AcDbVertex
100
AcDb2dVertex
 10
5.608968098958333
 20
10.53328450520833
 30
0.0
  0
VERTEX
  5
CC
330
40
100
AcDbEntity
  8
STATE
 62
     2
100
AcDbVertex
100
AcDb2dVertex
 10
5.698947482638888
 20
10.53328450520833
 30
0.0
  0
VERTEX
  5
CD
330
40
100
AcDbEntity
  8
STATE
 62
     2
100
AcDbVertex
100
AcDb2dVertex
 10
5.705620659722222
 20
10.53328450520833
 30
0.0
  0
VERTEX
  5
CE
330
40
100
AcDbEntity
  8
STATE
 62
     2
100
AcDbVertex
100
AcDb2dVertex
 10
5.712293836805555
 20
10.53328450520833
 30
0.0
  0
VERTEX
  5
CF
330
40
100
AcDbEntity
  8
STATE
 62
     2
100
AcDbVertex
100
AcDb2dVertex
 10
5.742282443576388
 20
10.53328450520833
 30
0.0
  0
VERTEX
  5
D0
330
40
100
AcDbEntity
  8
STATE
 62
     2
100
AcDbVertex
100
AcDb2dVertex
 10
5.982231987847222
 20
10.53662109375
 30
0.0
  0
VERTEX
  5
D1
330
40
100
AcDbEntity
  8
STATE
 62
     2
100
AcDbVertex
100
AcDb2dVertex
 10
5.992228190104166
 20
10.53662109375
 30
0.0
  0
VERTEX
  5
D2
330
40
100
AcDbEntity
  8
STATE
 62
     2
100
AcDbVertex
100
AcDb2dVertex
 10
6.005560980902778
 20
10.53662109375
 30
0.0
  0
VERTEX
  5
D3
330
40
100
AcDbEntity
  8
STATE
 62
     2
100
AcDbVertex
100
AcDb2dVertex
 10
6.035563151041666
 20
10.53662109375
 30
0.0
  0
VERTEX
  5
D4
330
40
100
AcDbEntity
  8
STATE
 62
     2
100
AcDbVertex
100
AcDb2dVertex
 10
6.038899739583333
 20
10.53662109375
 30
0.0
  0
VERTEX
  5
D5
330
40
100
AcDbEntity
  8
STATE
 62
     2
100
AcDbVertex
100
AcDb2dVertex
 10
6.098876953125
 20
10.53995768229167
 30
0.0
  0
VERTEX
  5
D6
330
40
100
AcDbEntity
  8
STATE
 62
     2
100
AcDbVertex
100
AcDb2dVertex
 10
6.102213541666666
 20
10.53662109375
 30
0.0
  0
VERTEX
  5
D7
330
40
100
AcDbEntity
  8
STATE
 62
     2
100
AcDbVertex
100
AcDb2dVertex
 10
6.112223307291666
 20
10.53662109375
 30
0.0
  0
VERTEX
  5
D8
330
40
100
AcDbEntity
  8
STATE
 62
     2
100
AcDbVertex
100
AcDb2dVertex
 10
6.332166883680555
 20
10.54328748914931
 30
0.0
  0
VERTEX
  5
D9
330
40
100
AcDbEntity
  8
STATE
 62
     2
100
AcDbVertex
100
AcDb2dVertex
 10
6.338840060763888
 20
10.54328748914931
 30
0.0
  0
VERTEX
  5
DA
330
40
100
AcDbEntity
  8
STATE
 62
     2
100
AcDbVertex
100
AcDb2dVertex
 10
6.385498046875
 20
10.54328748914931
 30
0.0
  0
VERTEX
  5
DB
330
40
100
AcDbEntity
  8
STATE
 62
     2
100
AcDbVertex
100
AcDb2dVertex
 10
6.402167426215278
 20
10.54661729600694
 30
0.0
  0
VERTEX
  5
DC
330
40
100
AcDbEntity
  8
STATE
 62
     2
100
AcDbVertex
100
AcDb2dVertex
 10
6.465481228298611
 20
10.54995388454861
 30
0.0
  0
VERTEX
  5
DD
330
40
100
AcDbEntity
  8
STATE
 62
     2
100
AcDbVertex
100
AcDb2dVertex
 10
6.482150607638888
 20
10.54995388454861
 30
0.0
  0
VERTEX
  5
DE
330
40
100
AcDbEntity
  8
STATE
 62
     2
100
AcDbVertex
100
AcDb2dVertex
 10
6.505466037326388
 20
10.55329047309028
 30
0.0
  0
VERTEX
  5
DF
330
40
100
AcDbEntity
  8
STATE
 62
     2
100
AcDbVertex
100
AcDb2dVertex
 10
6.515475802951388
 20
10.55329047309028
 30
0.0
  0
VERTEX
  5
E0
330
40
100
AcDbEntity
  8
STATE
 62
     2
100
AcDbVertex
100
AcDb2dVertex
 10
6.532145182291666
 20
10.55329047309028
 30
0.0
  0
VERTEX
  5
E1
330
40
100
AcDbEntity
  8
STATE
 62
     2
100
AcDbVertex
100
AcDb2dVertex
 10
6.542127821180555
 20
10.55329047309028
 30
0.0
  0
VERTEX
  5
E2
330
40
100
AcDbEntity
  8
STATE
 62
     2
100
AcDbVertex
100
AcDb2dVertex
 10
6.555474175347221
 20
10.55662027994792
 30
0.0
  0
VERTEX
  5
E3
330
40
100
AcDbEntity
  8
STATE
 62
     2
100
AcDbVertex
100
AcDb2dVertex
 10
6.578789605034721
 20
10.55662027994792
 30
0.0
  0
VERTEX
  5
E4
330
40
100
AcDbEntity
  8
STATE
 62
     2
100
AcDbVertex
100
AcDb2dVertex
 10
6.582126193576388
 20
10.55662027994792
 30
0.0
  0
VERTEX
  5
E5
330
40
100
AcDbEntity
  8
STATE
 62
     2
100
AcDbVertex
100
AcDb2dVertex
 10
6.675442165798611
 20
10.55329047309028
 30
0.0
  0
VERTEX
  5
E6
330
40
100
AcDbEntity
  8
STATE
 62
     2
100
AcDbVertex
100
AcDb2dVertex
 10
6.728759765625
 20
10.54995388454861
 30
0.0
  0
VERTEX
  5
E7
330
40
100
AcDbEntity
  8
STATE
 62
     2
100
AcDbVertex
100
AcDb2dVertex
 10
6.805419921875
 20
10.54995388454861
 30
0.0
  0
VERTEX
  5
E8
330
40
100
AcDbEntity
  8
STATE
 62
     2
100
AcDbVertex
100
AcDb2dVertex
 10
6.912068684895833
 20
10.55329047309028
 30
0.0
  0
VERTEX
  5
E9
330
40
100
AcDbEntity
  8
STATE
 62
     2
100
AcDbVertex
100
AcDb2dVertex
 10
6.945393880208333
 20
10.55329047309028
 30
0.0
  0
VERTEX
  5
EA
330
40
100
AcDbEntity
  8
STATE
 62
     2
100
AcDbVertex
100
AcDb2dVertex
 10
7.022054036458333
 20
10.55662027994792
 30
0.0
  0
VERTEX
  5
EB
330
40
100
AcDbEntity
  8
STATE
 62
     2
100
AcDbVertex
100
AcDb2dVertex
 10
7.145358615451388
 20
10.55662027994792
 30
0.0
  0
VERTEX
  5
EC
330
40
100
AcDbEntity
  8
STATE
 62
     2
100
AcDbVertex
100
AcDb2dVertex
 10
7.335313585069444
 20
10.56328667534722
 30
0.0
  0
VERTEX
  5
ED
330
40
100
AcDbEntity
  8
STATE
 62
     2
100
AcDbVertex
100
AcDb2dVertex
 10
7.385308159722221
 20
10.56328667534722
 30
0.0
  0
VERTEX
  5
EE
330
40
100
AcDbEntity
  8
STATE
 62
     2
100
AcDbVertex
100
AcDb2dVertex
 10
7.398640950520833
 20
10.56662326388889
 30
0.0
  0
VERTEX
  5
EF
330
40
100
AcDbEntity
  8
STATE
 62
     2
100
AcDbVertex
100
AcDb2dVertex
 10
7.398640950520833
 20
10.56328667534722
 30
0.0
  0
VERTEX
  5
F0
330
40
100
AcDbEntity
  8
STATE
 62
     2
100
AcDbVertex
100
AcDb2dVertex
 10
7.405314127604166
 20
10.56662326388889
 30
0.0
  0
VERTEX
  5
F1
330
40
100
AcDbEntity
  8
STATE
 62
     2
100
AcDbVertex
100
AcDb2dVertex
 10
7.411973741319444
 20
10.40660264756944
 30
0.0
  0
VERTEX
  5
F2
330
40
100
AcDbEntity
  8
STATE
 62
     2
100
AcDbVertex
100
AcDb2dVertex
 10
7.411973741319444
 20
10.35993109809028
 30
0.0
  0
VERTEX
  5
F3
330
40
100
AcDbEntity
  8
STATE
 62
     2
100
AcDbVertex
100
AcDb2dVertex
 10
7.418646918402778
 20
10.21991644965278
 30
0.0
  0
VERTEX
  5
F4
330
40
100
AcDbEntity
  8
STATE
 62
     2
100
AcDbVertex
100
AcDb2dVertex
 10
7.418646918402778
 20
10.21658664279514
 30
0.0
  0
VERTEX
  5
F5
330
40
100
AcDbEntity
  8
STATE
 62
     2
100
AcDbVertex
100
AcDb2dVertex
 10
7.425306532118055
 20
10.03323703342014
 30
0.0
  0
VERTEX
  5
F6
330
40
100
AcDbEntity
  8
STATE
 62
     2
100
AcDbVertex
100
AcDb2dVertex
 10
7.421969943576388
 20
10.0198974609375
 30
0.0
  0
VERTEX
  5
F7
330
40
100
AcDbEntity
  8
STATE
 62
     2
100
AcDbVertex
100
AcDb2dVertex
 10
7.421969943576388
 20
10.01656765407986
 30
0.0
  0
VERTEX
  5
F8
330
40
100
AcDbEntity
  8
STATE
 62
     2
100
AcDbVertex
100
AcDb2dVertex
 10
7.425306532118055
 20
10.01656765407986
 30
0.0
  0
VERTEX
  5
F9
330
40
100
AcDbEntity
  8
STATE
 62
     2
100
AcDbVertex
100
AcDb2dVertex
 10
7.425306532118055
 20
9.899888780381945
 30
0.0
  0
VERTEX
  5
FA
330
40
100
AcDbEntity
  8
STATE
 62
     2
100
AcDbVertex
100
AcDb2dVertex
 10
7.428643120659721
 20
9.853217230902777
 30
0.0
  0
VERTEX
  5
FB
330
40
100
AcDbEntity
  8
STATE
 62
     2
100
AcDbVertex
100
AcDb2dVertex
 10
7.428643120659721
 20
9.839877658420138
 30
0.0
  0
VERTEX
  5
FC
330
40
100
AcDbEntity
  8
STATE
 62
     2
100
AcDbVertex
100
AcDb2dVertex
 10
7.438639322916666
 20
9.446506076388888
 30
0.0
  0
VERTEX
  5
FD
330
40
100
AcDbEntity
  8
STATE
 62
     2
100
AcDbVertex
100
AcDb2dVertex
 10
7.438639322916666
 20
9.433173285590277
 30
0.0
  0
VERTEX
  5
FE
330
40
100
AcDbEntity
  8
STATE
 62
     2
100
AcDbVertex
100
AcDb2dVertex
 10
7.441975911458333
 20
9.42983669704861
 30
0.0
  0
VERTEX
  5
FF
330
40
100
AcDbEntity
  8
STATE
 62
     2
100
AcDbVertex
100
AcDb2dVertex
 10
7.4453125
 20
9.296495225694445
 30
0.0
  0
VERTEX
  5
100
330
40
100
AcDbEntity
  8
STATE
 62
     2
100
AcDbVertex
100
AcDb2dVertex
 10
7.448635525173611
 20
9.129808213975695
 30
0.0
  0
VERTEX
  5
101
330
40
100
AcDbEntity
  8
STATE
 62
     2
100
AcDbVertex
100
AcDb2dVertex
 10
7.451972113715278
 20
9.046468098958332
 30
0.0
  0
VERTEX
  5
102
330
40
100
AcDbEntity
  8
STATE
 62
     2
100
AcDbVertex
100
AcDb2dVertex
 10
7.458631727430555
 20
8.8131103515625
 30
0.0
  0
VERTEX
  5
103
330
40
100
AcDbEntity
  8
STATE
 62
     2
100
AcDbVertex
100
AcDb2dVertex
 10
7.458631727430555
 20
8.79977756076389
 30
0.0
  0
VERTEX
  5
104
330
40
100
AcDbEntity
  8
STATE
 62
     2
100
AcDbVertex
100
AcDb2dVertex
 10
7.458631727430555
 20
8.78310818142361
 30
0.0
  0
VERTEX
  5
105
330
40
100
AcDbEntity
  8
STATE
 62
     2
100
AcDbVertex
100
AcDb2dVertex
 10
7.458631727430555
 20
8.779771592881945
 30
0.0
  0
VERTEX
  5
106
330
40
100
AcDbEntity
  8
STATE
 62
     2
100
AcDbVertex
100
AcDb2dVertex
 10
7.458631727430555
 20
8.776441786024305
 30
0.0
  0
VERTEX
  5
107
330
40
100
AcDbEntity
  8
STATE
 62
     2
100
AcDbVertex
100
AcDb2dVertex
 10
7.458631727430555
 20
8.763102213541666
 30
0.0
  0
VERTEX
  5
108
330
40
100
AcDbEntity
  8
STATE
 62
     2
100
AcDbVertex
100
AcDb2dVertex
 10
7.458631727430555
 20
8.74643283420139
 30
0.0
  0
VERTEX
  5
109
330
40
100
AcDbEntity
  8
STATE
 62
     2
100
AcDbVertex
100
AcDb2dVertex
 10
7.458631727430555
 20
8.74310302734375
 30
0.0
  0
VERTEX
  5
10A
330
40
100
AcDbEntity
  8
STATE
 62
     2
100
AcDbVertex
100
AcDb2dVertex
 10
7.458631727430555
 20
8.733100043402777
 30
0.0
  0
VERTEX
  5
10B
330
40
100
AcDbEntity
  8
STATE
 62
     2
100
AcDbVertex
100
AcDb2dVertex
 10
7.458631727430555
 20
8.693101671006945
 30
0.0
  0
VERTEX
  5
10C
330
40
100
AcDbEntity
  8
STATE
 62
     2
100
AcDbVertex
100
AcDb2dVertex
 10
7.461968315972221
 20
8.593085394965277
 30
0.0
  0
VERTEX
  5
10D
330
40
100
AcDbEntity
  8
STATE
 62
     2
100
AcDbVertex
100
AcDb2dVertex
 10
7.465304904513888
 20
8.416402180989582
 30
0.0
  0
VERTEX
  5
10E
330
40
100
AcDbEntity
  8
STATE
 62
     2
100
AcDbVertex
100
AcDb2dVertex
 10
7.465304904513888
 20
8.399732801649305
 30
0.0
  0
VERTEX
  5
10F
330
40
100
AcDbEntity
  8
STATE
 62
     2
100
AcDbVertex
100
AcDb2dVertex
 10
7.468641493055555
 20
8.306389702690971
 30
0.0
  0
VERTEX
  5
110
330
40
100
AcDbEntity
  8
STATE
 62
     2
100
AcDbVertex
100
AcDb2dVertex
 10
7.468641493055555
 20
8.299723307291666
 30
0.0
  0
VERTEX
  5
111
330
40
100
AcDbEntity
  8
STATE
 62
     2
100
AcDbVertex
100
AcDb2dVertex
 10
7.468641493055555
 20
8.259718153211805
 30
0.0
  0
VERTEX
  5
112
330
40
100
AcDbEntity
  8
STATE
 62
     2
100
AcDbVertex
100
AcDb2dVertex
 10
7.478624131944444
 20
8.019694010416666
 30
0.0
  0
VERTEX
  5
113
330
40
100
AcDbEntity
  8
STATE
 62
     2
100
AcDbVertex
100
AcDb2dVertex
 10
7.481960720486111
 20
7.853013780381944
 30
0.0
  0
VERTEX
  5
114
330
40
100
AcDbEntity
  8
STATE
 62
     2
100
AcDbVertex
100
AcDb2dVertex
 10
7.481960720486111
 20
7.849677191840278
 30
0.0
  0
VERTEX
  5
115
330
40
100
AcDbEntity
  8
STATE
 62
     2
100
AcDbVertex
100
AcDb2dVertex
 10
7.481960720486111
 20
7.836344401041666
 30
0.0
  0
VERTEX
  5
116
330
40
100
AcDbEntity
  8
STATE
 62
     2
100
AcDbVertex
100
AcDb2dVertex
 10
7.481960720486111
 20
7.8330078125
 30
0.0
  0
VERTEX
  5
117
330
40
100
AcDbEntity
  8
STATE
 62
     2
100
AcDbVertex
100
AcDb2dVertex
 10
7.481960720486111
 20
7.826341417100694
 30
0.0
  0
VERTEX
  5
118
330
40
100
AcDbEntity
  8
STATE
 62
     2
100
AcDbVertex
100
AcDb2dVertex
 10
7.485297309027778
 20
7.773003472222221
 30
0.0
  0
VERTEX
  5
119
330
40
100
AcDbEntity
  8
STATE
 62
     2
100
AcDbVertex
100
AcDb2dVertex
 10
7.485297309027778
 20
7.729668511284721
 30
0.0
  0
VERTEX
  5
11A
330
40
100
AcDbEntity
  8
STATE
 62
     2
100
AcDbVertex
100
AcDb2dVertex
 10
7.485297309027778
 20
7.689663357204861
 30
0.0
  0
VERTEX
  5
11B
330
40
100
AcDbEntity
  8
STATE
 62
     2
100
AcDbVertex
100
AcDb2dVertex
 10
7.485297309027778
 20
7.679660373263888
 30
0.0
  0
VERTEX
  5
11C
330
40
100
AcDbEntity
  8
STATE
 62
     2
100
AcDbVertex
100
AcDb2dVertex
 10
7.488633897569444
 20
7.656324598524305
 30
0.0
  0
VERTEX
  5
11D
330
40
100
AcDbEntity
  8
STATE
 62
     2
100
AcDbVertex
100
AcDb2dVertex
 10
7.488633897569444
 20
7.549648708767361
 30
0.0
  0
VERTEX
  5
11E
330
40
100
AcDbEntity
  8
STATE
 62
     2
100
AcDbVertex
100
AcDb2dVertex
 10
7.491970486111111
 20
7.496310763888888
 30
0.0
  0
VERTEX
  5
11F
330
40
100
AcDbEntity
  8
STATE
 62
     2
100
AcDbVertex
100
AcDb2dVertex
 10
7.491970486111111
 20
7.426303439670138
 30
0.0
  0
VERTEX
  5
120
330
40
100
AcDbEntity
  8
STATE
 62
     2
100
AcDbVertex
100
AcDb2dVertex
 10
7.495293511284721
 20
7.402967664930555
 30
0.0
  0
VERTEX
  5
121
330
40
100
AcDbEntity
  8
STATE
 62
     2
100
AcDbVertex
100
AcDb2dVertex
 10
7.495293511284721
 20
7.386298285590278
 30
0.0
  0
VERTEX
  5
122
330
40
100
AcDbEntity
  8
STATE
 62
     2
100
AcDbVertex
100
AcDb2dVertex
 10
7.495293511284721
 20
7.376295301649305
 30
0.0
  0
VERTEX
  5
123
330
40
100
AcDbEntity
  8
STATE
 62
     2
100
AcDbVertex
100
AcDb2dVertex
 10
7.495293511284721
 20
7.366299099392361
 30
0.0
  0
VERTEX
  5
124
330
40
100
AcDbEntity
  8
STATE
 62
     2
100
AcDbVertex
100
AcDb2dVertex
 10
7.495293511284721
 20
7.336290147569444
 30
0.0
  0
VERTEX
  5
125
330
40
100
AcDbEntity
  8
STATE
 62
     2
100
AcDbVertex
100
AcDb2dVertex
 10
7.495293511284721
 20
7.329623752170138
 30
0.0
  0
VERTEX
  5
126
330
40
100
AcDbEntity
  8
STATE
 62
     2
100
AcDbVertex
100
AcDb2dVertex
 10
7.505289713541666
 20
7.026258680555555
 30
0.0
  0
VERTEX
  5
127
330
40
100
AcDbEntity
  8
STATE
 62
     2
100
AcDbVertex
100
AcDb2dVertex
 10
7.508626302083333
 20
6.962924533420138
 30
0.0
  0
VERTEX
  5
128
330
40
100
AcDbEntity
  8
STATE
 62
     2
100
AcDbVertex
100
AcDb2dVertex
 10
7.508626302083333
 20
6.959587944878471
 30
0.0
  0
VERTEX
  5
129
330
40
100
AcDbEntity
  8
STATE
 62
     2
100
AcDbVertex
100
AcDb2dVertex
 10
7.511949327256944
 20
6.719563802083333
 30
0.0
  0
VERTEX
  5
12A
330
40
100
AcDbEntity
  8
STATE
 62
     2
100
AcDbVertex
100
AcDb2dVertex
 10
7.525282118055555
 20
6.249518500434028
 30
0.0
  0
VERTEX
  5
12B
330
40
100
AcDbEntity
  8
STATE
 62
     2
100
AcDbVertex
100
AcDb2dVertex
 10
7.531955295138888
 20
6.066162109375
 30
0.0
  0
VERTEX
  5
12C
330
40
100
AcDbEntity
  8
STATE
 62
     2
100
AcDbVertex
100
AcDb2dVertex
 10
7.531955295138888
 20
6.062832302517361
 30
0.0
  0
VERTEX
  5
12D
330
40
100
AcDbEntity
  8
STATE
 62
     2
100
AcDbVertex
100
AcDb2dVertex
 10
7.531955295138888
 20
6.059495713975694
 30
0.0
  0
VERTEX
  5
12E
330
40
100
AcDbEntity
  8
STATE
 62
     2
100
AcDbVertex
100
AcDb2dVertex
 10
7.5352783203125
 20
5.879475911458333
 30
0.0
  0
VERTEX
  5
12F
330
40
100
AcDbEntity
  8
STATE
 62
     2
100
AcDbVertex
100
AcDb2dVertex
 10
7.5352783203125
 20
5.849473741319444
 30
0.0
  0
VERTEX
  5
130
330
40
100
AcDbEntity
  8
STATE
 62
     2
100
AcDbVertex
100
AcDb2dVertex
 10
7.538628472222221
 20
5.776136610243055
 30
0.0
  0
VERTEX
  5
131
330
40
100
AcDbEntity
  8
STATE
 62
     2
100
AcDbVertex
100
AcDb2dVertex
 10
7.541951497395833
 20
5.622789171006944
 30
0.0
  0
VERTEX
  5
132
330
40
100
AcDbEntity
  8
STATE
 62
     2
100
AcDbVertex
100
AcDb2dVertex
 10
7.5452880859375
 20
5.589450412326388
 30
0.0
  0
VERTEX
  5
133
330
40
100
AcDbEntity
  8
STATE
 62
     2
100
AcDbVertex
100
AcDb2dVertex
 10
7.5452880859375
 20
5.582784016927083
 30
0.0
  0
VERTEX
  5
134
330
40
100
AcDbEntity
  8
STATE
 62
     2
100
AcDbVertex
100
AcDb2dVertex
 10
7.5452880859375
 20
5.519443088107638
 30
0.0
  0
VERTEX
  5
135
330
40
100
AcDbEntity
  8
STATE
 62
     2
100
AcDbVertex
100
AcDb2dVertex
 10
7.548611111111111
 20
5.382758246527778
 30
0.0
  0
VERTEX
  5
136
330
40
100
AcDbEntity
  8
STATE
 62
     2
100
AcDbVertex
100
AcDb2dVertex
 10
7.548611111111111
 20
5.379421657986111
 30
0.0
  0
VERTEX
  5
137
330
40
100
AcDbEntity
  8
STATE
 62
     2
100
AcDbVertex
100
AcDb2dVertex
 10
7.555284288194444
 20
5.179416232638888
 30
0.0
  0
VERTEX
  5
138
330
40
100
AcDbEntity
  8
STATE
 62
     2
100
AcDbVertex
100
AcDb2dVertex
 10
7.555284288194444
 20
5.159410264756944
 30
0.0
  0
VERTEX
  5
139
330
40
100
AcDbEntity
  8
STATE
 62
     2
100
AcDbVertex
100
AcDb2dVertex
 10
7.558620876736111
 20
5.012722439236111
 30
0.0
  0
VERTEX
  5
13A
330
40
100
AcDbEntity
  8
STATE
 62
     2
100
AcDbVertex
100
AcDb2dVertex
 10
7.565280490451388
 20
4.796034071180555
 30
0.0
  0
VERTEX
  5
13B
330
40
100
AcDbEntity
  8
STATE
 62
     2
100
AcDbVertex
100
AcDb2dVertex
 10
7.568617078993055
 20
4.712700737847222
 30
0.0
  0
VERTEX
  5
13C
330
40
100
AcDbEntity
  8
STATE
 62
     2
100
AcDbVertex
100
AcDb2dVertex
 10
7.571940104166666
 20
4.626017252604166
 30
0.0
  0
VERTEX
  5
13D
330
40
100
AcDbEntity
  8
STATE
 62
     2
100
AcDbVertex
100
AcDb2dVertex
 10
7.571940104166666
 20
4.602688259548611
 30
0.0
  0
VERTEX
  5
13E
330
40
100
AcDbEntity
  8
STATE
 62
     2
100
AcDbVertex
100
AcDb2dVertex
 10
7.571940104166666
 20
4.582682291666666
 30
0.0
  0
VERTEX
  5
13F
330
40
100
AcDbEntity
  8
STATE
 62
     2
100
AcDbVertex
100
AcDb2dVertex
 10
7.571940104166666
 20
4.542683919270833
 30
0.0
  0
VERTEX
  5
140
330
40
100
AcDbEntity
  8
STATE
 62
     2
100
AcDbVertex
100
AcDb2dVertex
 10
7.575276692708333
 20
4.522664388020833
 30
0.0
  0
VERTEX
  5
141
330
40
100
AcDbEntity
  8
STATE
 62
     2
100
AcDbVertex
100
AcDb2dVertex
 10
7.575276692708333
 20
4.459337022569444
 30
0.0
  0
VERTEX
  5
142
330
40
100
AcDbEntity
  8
STATE
 62
     2
100
AcDbVertex
100
AcDb2dVertex
 10
7.575276692708333
 20
4.445990668402778
 30
0.0
  0
VERTEX
  5
143
330
40
100
AcDbEntity
  8
STATE
 62
     2
100
AcDbVertex
100
AcDb2dVertex
 10
7.575276692708333
 20
4.432671440972222
 30
0.0
  0
VERTEX
  5
144
330
40
100
AcDbEntity
  8
STATE
 62
     2
100
AcDbVertex
100
AcDb2dVertex
 10
7.575276692708333
 20
4.429334852430555
 30
0.0
  0
VERTEX
  5
145
330
40
100
AcDbEntity
  8
STATE
 62
     2
100
AcDbVertex
100
AcDb2dVertex
 10
7.575276692708333
 20
4.399332682291666
 30
0.0
  0
VERTEX
  5
146
330
40
100
AcDbEntity
  8
STATE
 62
     2
100
AcDbVertex
100
AcDb2dVertex
 10
7.57861328125
 20
4.225979275173611
 30
0.0
  0
VERTEX
  5
147
330
40
100
AcDbEntity
  8
STATE
 62
     2
100
AcDbVertex
100
AcDb2dVertex
 10
7.57861328125
 20
4.209309895833333
 30
0.0
  0
VERTEX
  5
148
330
40
100
AcDbEntity
  8
STATE
 62
     2
100
AcDbVertex
100
AcDb2dVertex
 10
7.581949869791666
 20
4.122639973958333
 30
0.0
  0
VERTEX
  5
149
330
40
100
AcDbEntity
  8
STATE
 62
     2
100
AcDbVertex
100
AcDb2dVertex
 10
7.581949869791666
 20
4.119303385416666
 30
0.0
  0
VERTEX
  5
14A
330
40
100
AcDbEntity
  8
STATE
 62
     2
100
AcDbVertex
100
AcDb2dVertex
 10
7.581949869791666
 20
4.099297417534722
 30
0.0
  0
VERTEX
  5
14B
330
40
100
AcDbEntity
  8
STATE
 62
     2
100
AcDbVertex
100
AcDb2dVertex
 10
7.581949869791666
 20
4.079305013020833
 30
0.0
  0
VERTEX
  5
14C
330
40
100
AcDbEntity
  8
STATE
 62
     2
100
AcDbVertex
100
AcDb2dVertex
 10
7.581949869791666
 20
4.062635633680555
 30
0.0
  0
VERTEX
  5
14D
330
40
100
AcDbEntity
  8
STATE
 62
     2
100
AcDbVertex
100
AcDb2dVertex
 10
7.585272894965278
 20
4.035956488715278
 30
0.0
  0
VERTEX
  5
14E
330
40
100
AcDbEntity
  8
STATE
 62
     2
100
AcDbVertex
100
AcDb2dVertex
 10
7.585272894965278
 20
3.9759521484375
 30
0.0
  0
VERTEX
  5
14F
330
40
100
AcDbEntity
  8
STATE
 62
     2
100
AcDbVertex
100
AcDb2dVertex
 10
7.588609483506944
 20
3.955946180555555
 30
0.0
  0
VERTEX
  5
150
330
40
100
AcDbEntity
  8
STATE
 62
     2
100
AcDbVertex
100
AcDb2dVertex
 10
7.588609483506944
 20
3.889268663194444
 30
0.0
  0
VERTEX
  5
151
330
40
100
AcDbEntity
  8
STATE
 62
     2
100
AcDbVertex
100
AcDb2dVertex
 10
7.591946072048611
 20
3.775933159722222
 30
0.0
  0
VERTEX
  5
152
330
40
100
AcDbEntity
  8
STATE
 62
     2
100
AcDbVertex
100
AcDb2dVertex
 10
7.591946072048611
 20
3.762600368923611
 30
0.0
  0
VERTEX
  5
153
330
40
100
AcDbEntity
  8
STATE
 62
     2
100
AcDbVertex
100
AcDb2dVertex
 10
7.595269097222221
 20
3.689263237847222
 30
0.0
  0
VERTEX
  5
154
330
40
100
AcDbEntity
  8
STATE
 62
     2
100
AcDbVertex
100
AcDb2dVertex
 10
7.598605685763888
 20
3.602579752604167
 30
0.0
  0
VERTEX
  5
155
330
40
100
AcDbEntity
  8
STATE
 62
     2
100
AcDbVertex
100
AcDb2dVertex
 10
7.598605685763888
 20
3.56591796875
 30
0.0
  0
VERTEX
  5
156
330
40
100
AcDbEntity
  8
STATE
 62
     2
100
AcDbVertex
100
AcDb2dVertex
 10
7.598605685763888
 20
3.545912000868055
 30
0.0
  0
VERTEX
  5
157
330
40
100
AcDbEntity
  8
STATE
 62
     2
100
AcDbVertex
100
AcDb2dVertex
 10
7.598605685763888
 20
3.502577039930555
 30
0.0
  0
VERTEX
  5
158
330
40
100
AcDbEntity
  8
STATE
 62
     2
100
AcDbVertex
100
AcDb2dVertex
 10
7.601942274305555
 20
3.485907660590278
 30
0.0
  0
VERTEX
  5
159
330
40
100
AcDbEntity
  8
STATE
 62
     2
100
AcDbVertex
100
AcDb2dVertex
 10
7.601942274305555
 20
3.479234483506944
 30
0.0
  0
VERTEX
  5
15A
330
40
100
AcDbEntity
  8
STATE
 62
     2
100
AcDbVertex
100
AcDb2dVertex
 10
7.605278862847221
 20
3.352552625868055
 30
0.0
  0
VERTEX
  5
15B
330
40
100
AcDbEntity
  8
STATE
 62
     2
100
AcDbVertex
100
AcDb2dVertex
 10
7.608601888020833
 20
3.292548285590278
 30
0.0
  0
VERTEX
  5
15C
330
40
100
AcDbEntity
  8
STATE
 62
     2
100
AcDbVertex
100
AcDb2dVertex
 10
7.6119384765625
 20
3.125868055555555
 30
0.0
  0
VERTEX
  5
15D
330
40
100
AcDbEntity
  8
STATE
 62
     2
100
AcDbVertex
100
AcDb2dVertex
 10
7.6119384765625
 20
3.092529296875
 30
0.0
  0
VERTEX
  5
15E
330
40
100
AcDbEntity
  8
STATE
 62
     2
100
AcDbVertex
100
AcDb2dVertex
 10
7.6119384765625
 20
3.089192708333333
 30
0.0
  0
VERTEX
  5
15F
330
40
100
AcDbEntity
  8
STATE
 62
     2
100
AcDbVertex
100
AcDb2dVertex
 10
7.6119384765625
 20
3.075859917534722
 30
0.0
  0
VERTEX
  5
160
330
40
100
AcDbEntity
  8
STATE
 62
     2
100
AcDbVertex
100
AcDb2dVertex
 10
7.6119384765625
 20
3.065863715277778
 30
0.0
  0
VERTEX
  5
161
330
40
100
AcDbEntity
  8
STATE
 62
     2
100
AcDbVertex
100
AcDb2dVertex
 10
7.6119384765625
 20
3.062527126736111
 30
0.0
  0
VERTEX
  5
162
330
40
100
AcDbEntity
  8
STATE
 62
     2
100
AcDbVertex
100
AcDb2dVertex
 10
7.618611653645833
 20
2.895833333333333
 30
0.0
  0
VERTEX
  5
163
330
40
100
AcDbEntity
  8
STATE
 62
     2
100
AcDbVertex
100
AcDb2dVertex
 10
7.618611653645833
 20
2.8558349609375
 30
0.0
  0
VERTEX
  5
164
330
40
100
AcDbEntity
  8
STATE
 62
     2
100
AcDbVertex
100
AcDb2dVertex
 10
7.621934678819444
 20
2.8125
 30
0.0
  0
VERTEX
  5
165
330
40
100
AcDbEntity
  8
STATE
 62
     2
100
AcDbVertex
100
AcDb2dVertex
 10
7.621934678819444
 20
2.805826822916667
 30
0.0
  0
VERTEX
  5
166
330
40
100
AcDbEntity
  8
STATE
 62
     2
100
AcDbVertex
100
AcDb2dVertex
 10
7.628607855902778
 20
2.632486979166667
 30
0.0
  0
VERTEX
  5
167
330
40
100
AcDbEntity
  8
STATE
 62
     2
100
AcDbVertex
100
AcDb2dVertex
 10
7.631944444444444
 20
2.592475043402778
 30
0.0
  0
VERTEX
  5
168
330
40
100
AcDbEntity
  8
STATE
 62
     2
100
AcDbVertex
100
AcDb2dVertex
 10
7.631944444444444
 20
2.585801866319444
 30
0.0
  0
VERTEX
  5
169
330
40
100
AcDbEntity
  8
STATE
 62
     2
100
AcDbVertex
100
AcDb2dVertex
 10
7.631944444444444
 20
2.555813259548611
 30
0.0
  0
VERTEX
  5
16A
330
40
100
AcDbEntity
  8
STATE
 62
     2
100
AcDbVertex
100
AcDb2dVertex
 10
7.631944444444444
 20
2.549140082465278
 30
0.0
  0
VERTEX
  5
16B
330
40
100
AcDbEntity
  8
STATE
 62
     2
100
AcDbVertex
100
AcDb2dVertex
 10
7.635267469618055
 20
2.475789388020833
 30
0.0
  0
VERTEX
  5
16C
330
40
100
AcDbEntity
  8
STATE
 62
     2
100
AcDbVertex
100
AcDb2dVertex
 10
7.635267469618055
 20
2.379123263888889
 30
0.0
  0
VERTEX
  5
16D
330
40
100
AcDbEntity
  8
STATE
 62
     2
100
AcDbVertex
100
AcDb2dVertex
 10
7.635267469618055
 20
2.365790473090278
 30
0.0
  0
VERTEX
  5
16E
330
40
100
AcDbEntity
  8
STATE
 62
     2
100
AcDbVertex
100
AcDb2dVertex
 10
7.635267469618055
 20
2.329115125868055
 30
0.0
  0
VERTEX
  5
16F
330
40
100
AcDbEntity
  8
STATE
 62
     2
100
AcDbVertex
100
AcDb2dVertex
 10
7.635267469618055
 20
2.299112955729167
 30
0.0
  0
VERTEX
  5
170
330
40
100
AcDbEntity
  8
STATE
 62
     2
100
AcDbVertex
100
AcDb2dVertex
 10
7.638604058159721
 20
2.272447374131944
 30
0.0
  0
VERTEX
  5
171
330
40
100
AcDbEntity
  8
STATE
 62
     2
100
AcDbVertex
100
AcDb2dVertex
 10
7.638604058159721
 20
2.262451171875
 30
0.0
  0
VERTEX
  5
172
330
40
100
AcDbEntity
  8
STATE
 62
     2
100
AcDbVertex
100
AcDb2dVertex
 10
7.641927083333333
 20
2.195773654513889
 30
0.0
  0
VERTEX
  5
173
330
40
100
AcDbEntity
  8
STATE
 62
     2
100
AcDbVertex
100
AcDb2dVertex
 10
7.641927083333333
 20
2.189100477430555
 30
0.0
  0
VERTEX
  5
174
330
40
100
AcDbEntity
  8
STATE
 62
     2
100
AcDbVertex
100
AcDb2dVertex
 10
7.625271267361111
 20
2.182440863715278
 30
0.0
  0
VERTEX
  5
175
330
40
100
AcDbEntity
  8
STATE
 62
     2
100
AcDbVertex
100
AcDb2dVertex
 10
7.618611653645833
 20
2.169108072916667
 30
0.0
  0
VERTEX
  5
176
330
40
100
AcDbEntity
  8
STATE
 62
     2
100
AcDbVertex
100
AcDb2dVertex
 10
7.608601888020833
 20
2.152425130208333
 30
0.0
  0
VERTEX
  5
177
330
40
100
AcDbEntity
  8
STATE
 62
     2
100
AcDbVertex
100
AcDb2dVertex
 10
7.595269097222221
 20
2.115763346354167
 30
0.0
  0
VERTEX
  5
178
330
40
100
AcDbEntity
  8
STATE
 62
     2
100
AcDbVertex
100
AcDb2dVertex
 10
7.581949869791666
 20
2.082424587673611
 30
0.0
  0
VERTEX
  5
179
330
40
100
AcDbEntity
  8
STATE
 62
     2
100
AcDbVertex
100
AcDb2dVertex
 10
7.57861328125
 20
2.082424587673611
 30
0.0
  0
VERTEX
  5
17A
330
40
100
AcDbEntity
  8
STATE
 62
     2
100
AcDbVertex
100
AcDb2dVertex
 10
7.568617078993055
 20
2.079087999131944
 30
0.0
  0
VERTEX
  5
17B
330
40
100
AcDbEntity
  8
STATE
 62
     2
100
AcDbVertex
100
AcDb2dVertex
 10
7.558620876736111
 20
2.072428385416667
 30
0.0
  0
VERTEX
  5
17C
330
40
100
AcDbEntity
  8
STATE
 62
     2
100
AcDbVertex
100
AcDb2dVertex
 10
7.555284288194444
 20
2.069091796875
 30
0.0
  0
VERTEX
  5
17D
330
40
100
AcDbEntity
  8
STATE
 62
     2
100
AcDbVertex
100
AcDb2dVertex
 10
7.555284288194444
 20
2.062418619791667
 30
0.0
  0
VERTEX
  5
17E
330
40
100
AcDbEntity
  8
STATE
 62
     2
100
AcDbVertex
100
AcDb2dVertex
 10
7.555284288194444
 20
2.05908203125
 30
0.0
  0
VERTEX
  5
17F
330
40
100
AcDbEntity
  8
STATE
 62
     2
100
AcDbVertex
100
AcDb2dVertex
 10
7.558620876736111
 20
2.055759006076389
 30
0.0
  0
VERTEX
  5
180
330
40
100
AcDbEntity
  8
STATE
 62
     2
100
AcDbVertex
100
AcDb2dVertex
 10
7.561943901909721
 20
2.052422417534722
 30
0.0
  0
VERTEX
  5
181
330
40
100
AcDbEntity
  8
STATE
 62
     2
100
AcDbVertex
100
AcDb2dVertex
 10
7.565280490451388
 20
2.049085828993055
 30
0.0
  0
VERTEX
  5
182
330
40
100
AcDbEntity
  8
STATE
 62
     2
100
AcDbVertex
100
AcDb2dVertex
 10
7.565280490451388
 20
2.045749240451389
 30
0.0
  0
VERTEX
  5
183
330
40
100
AcDbEntity
  8
STATE
 62
     2
100
AcDbVertex
100
AcDb2dVertex
 10
7.551947699652778
 20
2.012410481770833
 30
0.0
  0
VERTEX
  5
184
330
40
100
AcDbEntity
  8
STATE
 62
     2
100
AcDbVertex
100
AcDb2dVertex
 10
7.541951497395833
 20
1.992418077256944
 30
0.0
  0
VERTEX
  5
185
330
40
100
AcDbEntity
  8
STATE
 62
     2
100
AcDbVertex
100
AcDb2dVertex
 10
7.538628472222221
 20
1.982421875
 30
0.0
  0
VERTEX
  5
186
330
40
100
AcDbEntity
  8
STATE
 62
     2
100
AcDbVertex
100
AcDb2dVertex
 10
7.541951497395833
 20
1.975748697916667
 30
0.0
  0
VERTEX
  5
187
330
40
100
AcDbEntity
  8
STATE
 62
     2
100
AcDbVertex
100
AcDb2dVertex
 10
7.541951497395833
 20
1.965738932291667
 30
0.0
  0
VERTEX
  5
188
330
40
100
AcDbEntity
  8
STATE
 62
     2
100
AcDbVertex
100
AcDb2dVertex
 10
7.538628472222221
 20
1.962415907118055
 30
0.0
  0
VERTEX
  5
189
330
40
100
AcDbEntity
  8
STATE
 62
     2
100
AcDbVertex
100
AcDb2dVertex
 10
7.528618706597221
 20
1.945746527777778
 30
0.0
  0
VERTEX
  5
18A
330
40
100
AcDbEntity
  8
STATE
 62
     2
100
AcDbVertex
100
AcDb2dVertex
 10
7.525282118055555
 20
1.942409939236111
 30
0.0
  0
VERTEX
  5
18B
330
40
100
AcDbEntity
  8
STATE
 62
     2
100
AcDbVertex
100
AcDb2dVertex
 10
7.521959092881944
 20
1.9390869140625
 30
0.0
  0
VERTEX
  5
18C
330
40
100
AcDbEntity
  8
STATE
 62
     2
100
AcDbVertex
100
AcDb2dVertex
 10
7.511949327256944
 20
1.945746527777778
 30
0.0
  0
VERTEX
  5
18D
330
40
100
AcDbEntity
  8
STATE
 62
     2
100
AcDbVertex
100
AcDb2dVertex
 10
7.508626302083333
 20
1.945746527777778
 30
0.0
  0
VERTEX
  5
18E
330
40
100
AcDbEntity
  8
STATE
 62
     2
100
AcDbVertex
100
AcDb2dVertex
 10
7.495293511284721
 20
1.945746527777778
 30
0.0
  0
VERTEX
  5
18F
330
40
100
AcDbEntity
  8
STATE
 62
     2
100
AcDbVertex
100
AcDb2dVertex
 10
7.478624131944444
 20
1.935736762152778
 30
0.0
  0
VERTEX
  5
190
330
40
100
AcDbEntity
  8
STATE
 62
     2
100
AcDbVertex
100
AcDb2dVertex
 10
7.451972113715278
 20
1.925740559895833
 30
0.0
  0
VERTEX
  5
191
330
40
100
AcDbEntity
  8
STATE
 62
     2
100
AcDbVertex
100
AcDb2dVertex
 10
7.428643120659721
 20
1.925740559895833
 30
0.0
  0
VERTEX
  5
192
330
40
100
AcDbEntity
  8
STATE
 62
     2
100
AcDbVertex
100
AcDb2dVertex
 10
7.425306532118055
 20
1.925740559895833
 30
0.0
  0
VERTEX
  5
193
330
40
100
AcDbEntity
  8
STATE
 62
     2
100
AcDbVertex
100
AcDb2dVertex
 10
7.421969943576388
 20
1.925740559895833
 30
0.0
  0
VERTEX
  5
194
330
40
100
AcDbEntity
  8
STATE
 62
     2
100
AcDbVertex
100
AcDb2dVertex
 10
7.408637152777778
 20
1.932413736979167
 30
0.0
  0
VERTEX
  5
195
330
40
100
AcDbEntity
  8
STATE
 62
     2
100
AcDbVertex
100
AcDb2dVertex
 10
7.405314127604166
 20
1.932413736979167
 30
0.0
  0
VERTEX
  5
196
330
40
100
AcDbEntity
  8
STATE
 62
     2
100
AcDbVertex
100
AcDb2dVertex
 10
7.395317925347221
 20
1.9390869140625
 30
0.0
  0
VERTEX
  5
197
330
40
100
AcDbEntity
  8
STATE
 62
     2
100
AcDbVertex
100
AcDb2dVertex
 10
7.388644748263888
 20
1.945746527777778
 30
0.0
  0
VERTEX
  5
198
330
40
100
AcDbEntity
  8
STATE
 62
     2
100
AcDbVertex
100
AcDb2dVertex
 10
7.385308159722221
 20
1.955756293402778
 30
0.0
  0
VERTEX
  5
199
330
40
100
AcDbEntity
  8
STATE
 62
     2
100
AcDbVertex
100
AcDb2dVertex
 10
7.375311957465278
 20
1.969075520833333
 30
0.0
  0
VERTEX
  5
19A
330
40
100
AcDbEntity
  8
STATE
 62
     2
100
AcDbVertex
100
AcDb2dVertex
 10
7.335313585069444
 20
1.985744900173611
 30
0.0
  0
VERTEX
  5
19B
330
40
100
AcDbEntity
  8
STATE
 62
     2
100
AcDbVertex
100
AcDb2dVertex
 10
7.331990559895833
 20
1.989081488715278
 30
0.0
  0
VERTEX
  5
19C
330
40
100
AcDbEntity
  8
STATE
 62
     2
100
AcDbVertex
100
AcDb2dVertex
 10
7.331990559895833
 20
1.992418077256944
 30
0.0
  0
VERTEX
  5
19D
330
40
100
AcDbEntity
  8
STATE
 62
     2
100
AcDbVertex
100
AcDb2dVertex
 10
7.331990559895833
 20
1.999091254340278
 30
0.0
  0
VERTEX
  5
19E
330
40
100
AcDbEntity
  8
STATE
 62
     2
100
AcDbVertex
100
AcDb2dVertex
 10
7.341986762152778
 20
2.005750868055555
 30
0.0
  0
VERTEX
  5
19F
330
40
100
AcDbEntity
  8
STATE
 62
     2
100
AcDbVertex
100
AcDb2dVertex
 10
7.341986762152778
 20
2.009087456597222
 30
0.0
  0
VERTEX
  5
1A0
330
40
100
AcDbEntity
  8
STATE
 62
     2
100
AcDbVertex
100
AcDb2dVertex
 10
7.338650173611111
 20
2.022420247395833
 30
0.0
  0
VERTEX
  5
1A1
330
40
100
AcDbEntity
  8
STATE
 62
     2
100
AcDbVertex
100
AcDb2dVertex
 10
7.315321180555555
 20
2.052422417534722
 30
0.0
  0
VERTEX
  5
1A2
330
40
100
AcDbEntity
  8
STATE
 62
     2
100
AcDbVertex
100
AcDb2dVertex
 10
7.308661566840278
 20
2.055759006076389
 30
0.0
  0
VERTEX
  5
1A3
330
40
100
AcDbEntity
  8
STATE
 62
     2
100
AcDbVertex
100
AcDb2dVertex
 10
7.305324978298611
 20
2.055759006076389
 30
0.0
  0
VERTEX
  5
1A4
330
40
100
AcDbEntity
  8
STATE
 62
     2
100
AcDbVertex
100
AcDb2dVertex
 10
7.278672960069444
 20
2.082424587673611
 30
0.0
  0
VERTEX
  5
1A5
330
40
100
AcDbEntity
  8
STATE
 62
     2
100
AcDbVertex
100
AcDb2dVertex
 10
7.275336371527778
 20
2.089097764756944
 30
0.0
  0
VERTEX
  5
1A6
330
40
100
AcDbEntity
  8
STATE
 62
     2
100
AcDbVertex
100
AcDb2dVertex
 10
7.262003580729166
 20
2.105753580729167
 30
0.0
  0
VERTEX
  5
1A7
330
40
100
AcDbEntity
  8
STATE
 62
     2
100
AcDbVertex
100
AcDb2dVertex
 10
7.2586669921875
 20
2.105753580729167
 30
0.0
  0
VERTEX
  5
1A8
330
40
100
AcDbEntity
  8
STATE
 62
     2
100
AcDbVertex
100
AcDb2dVertex
 10
7.255343967013888
 20
2.109103732638889
 30
0.0
  0
VERTEX
  5
1A9
330
40
100
AcDbEntity
  8
STATE
 62
     2
100
AcDbVertex
100
AcDb2dVertex
 10
7.222005208333333
 20
2.1124267578125
 30
0.0
  0
VERTEX
  5
1AA
330
40
100
AcDbEntity
  8
STATE
 62
     2
100
AcDbVertex
100
AcDb2dVertex
 10
7.215345594618055
 20
2.1124267578125
 30
0.0
  0
VERTEX
  5
1AB
330
40
100
AcDbEntity
  8
STATE
 62
     2
100
AcDbVertex
100
AcDb2dVertex
 10
7.208685980902778
 20
2.109103732638889
 30
0.0
  0
VERTEX
  5
1AC
330
40
100
AcDbEntity
  8
STATE
 62
     2
100
AcDbVertex
100
AcDb2dVertex
 10
7.198676215277778
 20
2.095757378472222
 30
0.0
  0
VERTEX
  5
1AD
330
40
100
AcDbEntity
  8
STATE
 62
     2
100
AcDbVertex
100
AcDb2dVertex
 10
7.175347222222221
 20
2.079087999131944
 30
0.0
  0
VERTEX
  5
1AE
330
40
100
AcDbEntity
  8
STATE
 62
     2
100
AcDbVertex
100
AcDb2dVertex
 10
7.168687608506944
 20
2.085761176215278
 30
0.0
  0
VERTEX
  5
1AF
330
40
100
AcDbEntity
  8
STATE
 62
     2
100
AcDbVertex
100
AcDb2dVertex
 10
7.162014431423611
 20
2.099093967013889
 30
0.0
  0
VERTEX
  5
1B0
330
40
100
AcDbEntity
  8
STATE
 62
     2
100
AcDbVertex
100
AcDb2dVertex
 10
7.155354817708333
 20
2.099093967013889
 30
0.0
  0
VERTEX
  5
1B1
330
40
100
AcDbEntity
  8
STATE
 62
     2
100
AcDbVertex
100
AcDb2dVertex
 10
7.148681640625
 20
2.099093967013889
 30
0.0
  0
VERTEX
  5
1B2
330
40
100
AcDbEntity
  8
STATE
 62
     2
100
AcDbVertex
100
AcDb2dVertex
 10
7.128689236111111
 20
2.082424587673611
 30
0.0
  0
VERTEX
  5
1B3
330
40
100
AcDbEntity
  8
STATE
 62
     2
100
AcDbVertex
100
AcDb2dVertex
 10
7.118693033854166
 20
2.082424587673611
 30
0.0
  0
VERTEX
  5
1B4
330
40
100
AcDbEntity
  8
STATE
 62
     2
100
AcDbVertex
100
AcDb2dVertex
 10
7.115370008680555
 20
2.082424587673611
 30
0.0
  0
VERTEX
  5
1B5
330
40
100
AcDbEntity
  8
STATE
 62
     2
100
AcDbVertex
100
AcDb2dVertex
 10
7.112033420138888
 20
2.082424587673611
 30
0.0
  0
VERTEX
  5
1B6
330
40
100
AcDbEntity
  8
STATE
 62
     2
100
AcDbVertex
100
AcDb2dVertex
 10
7.108696831597221
 20
2.082424587673611
 30
0.0
  0
VERTEX
  5
1B7
330
40
100
AcDbEntity
  8
STATE
 62
     2
100
AcDbVertex
100
AcDb2dVertex
 10
7.105360243055555
 20
2.085761176215278
 30
0.0
  0
VERTEX
  5
1B8
330
40
100
AcDbEntity
  8
STATE
 62
     2
100
AcDbVertex
100
AcDb2dVertex
 10
7.105360243055555
 20
2.089097764756944
 30
0.0
  0
VERTEX
  5
1B9
330
40
100
AcDbEntity
  8
STATE
 62
     2
100
AcDbVertex
100
AcDb2dVertex
 10
7.105360243055555
 20
2.095757378472222
 30
0.0
  0
VERTEX
  5
1BA
330
40
100
AcDbEntity
  8
STATE
 62
     2
100
AcDbVertex
100
AcDb2dVertex
 10
7.108696831597221
 20
2.099093967013889
 30
0.0
  0
VERTEX
  5
1BB
330
40
100
AcDbEntity
  8
STATE
 62
     2
100
AcDbVertex
100
AcDb2dVertex
 10
7.108696831597221
 20
2.102430555555555
 30
0.0
  0
VERTEX
  5
1BC
330
40
100
AcDbEntity
  8
STATE
 62
     2
100
AcDbVertex
100
AcDb2dVertex
 10
7.108696831597221
 20
2.105753580729167
 30
0.0
  0
VERTEX
  5
1BD
330
40
100
AcDbEntity
  8
STATE
 62
     2
100
AcDbVertex
100
AcDb2dVertex
 10
7.105360243055555
 20
2.109103732638889
 30
0.0
  0
VERTEX
  5
1BE
330
40
100
AcDbEntity
  8
STATE
 62
     2
100
AcDbVertex
100
AcDb2dVertex
 10
7.098700629340278
 20
2.115763346354167
 30
0.0
  0
VERTEX
  5
1BF
330
40
100
AcDbEntity
  8
STATE
 62
     2
100
AcDbVertex
100
AcDb2dVertex
 10
7.095364040798611
 20
2.115763346354167
 30
0.0
  0
VERTEX
  5
1C0
330
40
100
AcDbEntity
  8
STATE
 62
     2
100
AcDbVertex
100
AcDb2dVertex
 10
7.065375434027778
 20
2.115763346354167
 30
0.0
  0
VERTEX
  5
1C1
330
40
100
AcDbEntity
  8
STATE
 62
     2
100
AcDbVertex
100
AcDb2dVertex
 10
7.0587158203125
 20
2.115763346354167
 30
0.0
  0
VERTEX
  5
1C2
330
40
100
AcDbEntity
  8
STATE
 62
     2
100
AcDbVertex
100
AcDb2dVertex
 10
7.0487060546875
 20
2.115763346354167
 30
0.0
  0
VERTEX
  5
1C3
330
40
100
AcDbEntity
  8
STATE
 62
     2
100
AcDbVertex
100
AcDb2dVertex
 10
7.042046440972221
 20
2.115763346354167
 30
0.0
  0
VERTEX
  5
1C4
330
40
100
AcDbEntity
  8
STATE
 62
     2
100
AcDbVertex
100
AcDb2dVertex
 10
7.028713650173611
 20
2.1124267578125
 30
0.0
  0
VERTEX
  5
1C5
330
40
100
AcDbEntity
  8
STATE
 62
     2
100
AcDbVertex
100
AcDb2dVertex
 10
7.022054036458333
 20
2.109103732638889
 30
0.0
  0
VERTEX
  5
1C6
330
40
100
AcDbEntity
  8
STATE
 62
     2
100
AcDbVertex
100
AcDb2dVertex
 10
6.998711480034721
 20
2.099093967013889
 30
0.0
  0
VERTEX
  5
1C7
330
40
100
AcDbEntity
  8
STATE
 62
     2
100
AcDbVertex
100
AcDb2dVertex
 10
6.985392252604166
 20
2.085761176215278
 30
0.0
  0
VERTEX
  5
1C8
330
40
100
AcDbEntity
  8
STATE
 62
     2
100
AcDbVertex
100
AcDb2dVertex
 10
6.975396050347221
 20
2.082424587673611
 30
0.0
  0
VERTEX
  5
1C9
330
40
100
AcDbEntity
  8
STATE
 62
     2
100
AcDbVertex
100
AcDb2dVertex
 10
6.972059461805555
 20
2.085761176215278
 30
0.0
  0
VERTEX
  5
1CA
330
40
100
AcDbEntity
  8
STATE
 62
     2
100
AcDbVertex
100
AcDb2dVertex
 10
6.962063259548611
 20
2.095757378472222
 30
0.0
  0
VERTEX
  5
1CB
330
40
100
AcDbEntity
  8
STATE
 62
     2
100
AcDbVertex
100
AcDb2dVertex
 10
6.958726671006944
 20
2.099093967013889
 30
0.0
  0
VERTEX
  5
1CC
330
40
100
AcDbEntity
  8
STATE
 62
     2
100
AcDbVertex
100
AcDb2dVertex
 10
6.938720703125
 20
2.082424587673611
 30
0.0
  0
VERTEX
  5
1CD
330
40
100
AcDbEntity
  8
STATE
 62
     2
100
AcDbVertex
100
AcDb2dVertex
 10
6.925401475694444
 20
2.072428385416667
 30
0.0
  0
VERTEX
  5
1CE
330
40
100
AcDbEntity
  8
STATE
 62
     2
100
AcDbVertex
100
AcDb2dVertex
 10
6.922064887152778
 20
2.065755208333333
 30
0.0
  0
VERTEX
  5
1CF
330
40
100
AcDbEntity
  8
STATE
 62
     2
100
AcDbVertex
100
AcDb2dVertex
 10
6.918728298611111
 20
2.062418619791667
 30
0.0
  0
VERTEX
  5
1D0
330
40
100
AcDbEntity
  8
STATE
 62
     2
100
AcDbVertex
100
AcDb2dVertex
 10
6.915391710069444
 20
2.05908203125
 30
0.0
  0
VERTEX
  5
1D1
330
40
100
AcDbEntity
  8
STATE
 62
     2
100
AcDbVertex
100
AcDb2dVertex
 10
6.908732096354166
 20
2.05908203125
 30
0.0
  0
VERTEX
  5
1D2
330
40
100
AcDbEntity
  8
STATE
 62
     2
100
AcDbVertex
100
AcDb2dVertex
 10
6.892076280381944
 20
2.052422417534722
 30
0.0
  0
VERTEX
  5
1D3
330
40
100
AcDbEntity
  8
STATE
 62
     2
100
AcDbVertex
100
AcDb2dVertex
 10
6.878743489583333
 20
2.049085828993055
 30
0.0
  0
VERTEX
  5
1D4
330
40
100
AcDbEntity
  8
STATE
 62
     2
100
AcDbVertex
100
AcDb2dVertex
 10
6.868733723958333
 20
2.045749240451389
 30
0.0
  0
VERTEX
  5
1D5
330
40
100
AcDbEntity
  8
STATE
 62
     2
100
AcDbVertex
100
AcDb2dVertex
 10
6.858751085069444
 20
2.045749240451389
 30
0.0
  0
VERTEX
  5
1D6
330
40
100
AcDbEntity
  8
STATE
 62
     2
100
AcDbVertex
100
AcDb2dVertex
 10
6.8387451171875
 20
2.042426215277778
 30
0.0
  0
VERTEX
  5
1D7
330
40
100
AcDbEntity
  8
STATE
 62
     2
100
AcDbVertex
100
AcDb2dVertex
 10
6.825412326388888
 20
2.029079861111111
 30
0.0
  0
VERTEX
  5
1D8
330
40
100
AcDbEntity
  8
STATE
 62
     2
100
AcDbVertex
100
AcDb2dVertex
 10
6.818752712673611
 20
2.022420247395833
 30
0.0
  0
VERTEX
  5
1D9
330
40
100
AcDbEntity
  8
STATE
 62
     2
100
AcDbVertex
100
AcDb2dVertex
 10
6.815416124131944
 20
2.015760633680555
 30
0.0
  0
VERTEX
  5
1DA
330
40
100
AcDbEntity
  8
STATE
 62
     2
100
AcDbVertex
100
AcDb2dVertex
 10
6.815416124131944
 20
2.009087456597222
 30
0.0
  0
VERTEX
  5
1DB
330
40
100
AcDbEntity
  8
STATE
 62
     2
100
AcDbVertex
100
AcDb2dVertex
 10
6.815416124131944
 20
2.005750868055555
 30
0.0
  0
VERTEX
  5
1DC
330
40
100
AcDbEntity
  8
STATE
 62
     2
100
AcDbVertex
100
AcDb2dVertex
 10
6.818752712673611
 20
2.005750868055555
 30
0.0
  0
VERTEX
  5
1DD
330
40
100
AcDbEntity
  8
STATE
 62
     2
100
AcDbVertex
100
AcDb2dVertex
 10
6.818752712673611
 20
2.002414279513889
 30
0.0
  0
VERTEX
  5
1DE
330
40
100
AcDbEntity
  8
STATE
 62
     2
100
AcDbVertex
100
AcDb2dVertex
 10
6.825412326388888
 20
1.999091254340278
 30
0.0
  0
VERTEX
  5
1DF
330
40
100
AcDbEntity
  8
STATE
 62
     2
100
AcDbVertex
100
AcDb2dVertex
 10
6.828748914930555
 20
1.992418077256944
 30
0.0
  0
VERTEX
  5
1E0
330
40
100
AcDbEntity
  8
STATE
 62
     2
100
AcDbVertex
100
AcDb2dVertex
 10
6.8387451171875
 20
1.975748697916667
 30
0.0
  0
VERTEX
  5
1E1
330
40
100
AcDbEntity
  8
STATE
 62
     2
100
AcDbVertex
100
AcDb2dVertex
 10
6.8387451171875
 20
1.969075520833333
 30
0.0
  0
VERTEX
  5
1E2
330
40
100
AcDbEntity
  8
STATE
 62
     2
100
AcDbVertex
100
AcDb2dVertex
 10
6.835422092013888
 20
1.962415907118055
 30
0.0
  0
VERTEX
  5
1E3
330
40
100
AcDbEntity
  8
STATE
 62
     2
100
AcDbVertex
100
AcDb2dVertex
 10
6.835422092013888
 20
1.952406141493055
 30
0.0
  0
VERTEX
  5
1E4
330
40
100
AcDbEntity
  8
STATE
 62
     2
100
AcDbVertex
100
AcDb2dVertex
 10
6.835422092013888
 20
1.949083116319444
 30
0.0
  0
VERTEX
  5
1E5
330
40
100
AcDbEntity
  8
STATE
 62
     2
100
AcDbVertex
100
AcDb2dVertex
 10
6.835422092013888
 20
1.945746527777778
 30
0.0
  0
VERTEX
  5
1E6
330
40
100
AcDbEntity
  8
STATE
 62
     2
100
AcDbVertex
100
AcDb2dVertex
 10
6.842081705729166
 20
1.942409939236111
 30
0.0
  0
VERTEX
  5
1E7
330
40
100
AcDbEntity
  8
STATE
 62
     2
100
AcDbVertex
100
AcDb2dVertex
 10
6.845404730902778
 20
1.935736762152778
 30
0.0
  0
VERTEX
  5
1E8
330
40
100
AcDbEntity
  8
STATE
 62
     2
100
AcDbVertex
100
AcDb2dVertex
 10
6.8487548828125
 20
1.932413736979167
 30
0.0
  0
VERTEX
  5
1E9
330
40
100
AcDbEntity
  8
STATE
 62
     2
100
AcDbVertex
100
AcDb2dVertex
 10
6.845404730902778
 20
1.922417534722222
 30
0.0
  0
VERTEX
  5
1EA
330
40
100
AcDbEntity
  8
STATE
 62
     2
100
AcDbVertex
100
AcDb2dVertex
 10
6.8387451171875
 20
1.912407769097222
 30
0.0
  0
VERTEX
  5
1EB
330
40
100
AcDbEntity
  8
STATE
 62
     2
100
AcDbVertex
100
AcDb2dVertex
 10
6.835422092013888
 20
1.912407769097222
 30
0.0
  0
VERTEX
  5
1EC
330
40
100
AcDbEntity
  8
STATE
 62
     2
100
AcDbVertex
100
AcDb2dVertex
 10
6.835422092013888
 20
1.909071180555555
 30
0.0
  0
VERTEX
  5
1ED
330
40
100
AcDbEntity
  8
STATE
 62
     2
100
AcDbVertex
100
AcDb2dVertex
 10
6.832085503472221
 20
1.905748155381944
 30
0.0
  0
VERTEX
  5
1EE
330
40
100
AcDbEntity
  8
STATE
 62
     2
100
AcDbVertex
100
AcDb2dVertex
 10
6.832085503472221
 20
1.902398003472222
 30
0.0
  0
VERTEX
  5
1EF
330
40
100
AcDbEntity
  8
STATE
 62
     2
100
AcDbVertex
100
AcDb2dVertex
 10
6.832085503472221
 20
1.899074978298611
 30
0.0
  0
VERTEX
  5
1F0
330
40
100
AcDbEntity
  8
STATE
 62
     2
100
AcDbVertex
100
AcDb2dVertex
 10
6.832085503472221
 20
1.869072808159722
 30
0.0
  0
VERTEX
  5
1F1
330
40
100
AcDbEntity
  8
STATE
 62
     2
100
AcDbVertex
100
AcDb2dVertex
 10
6.835422092013888
 20
1.855740017361111
 30
0.0
  0
VERTEX
  5
1F2
330
40
100
AcDbEntity
  8
STATE
 62
     2
100
AcDbVertex
100
AcDb2dVertex
 10
6.845404730902778
 20
1.842393663194444
 30
0.0
  0
VERTEX
  5
1F3
330
40
100
AcDbEntity
  8
STATE
 62
     2
100
AcDbVertex
100
AcDb2dVertex
 10
6.8487548828125
 20
1.835734049479167
 30
0.0
  0
VERTEX
  5
1F4
330
40
100
AcDbEntity
  8
STATE
 62
     2
100
AcDbVertex
100
AcDb2dVertex
 10
6.852077907986111
 20
1.829074435763889
 30
0.0
  0
VERTEX
  5
1F5
330
40
100
AcDbEntity
  8
STATE
 62
     2
100
AcDbVertex
100
AcDb2dVertex
 10
6.8487548828125
 20
1.815728081597222
 30
0.0
  0
VERTEX
  5
1F6
330
40
100
AcDbEntity
  8
STATE
 62
     2
100
AcDbVertex
100
AcDb2dVertex
 10
6.8487548828125
 20
1.809054904513889
 30
0.0
  0
VERTEX
  5
1F7
330
40
100
AcDbEntity
  8
STATE
 62
     2
100
AcDbVertex
100
AcDb2dVertex
 10
6.852077907986111
 20
1.805731879340278
 30
0.0
  0
VERTEX
  5
1F8
330
40
100
AcDbEntity
  8
STATE
 62
     2
100
AcDbVertex
100
AcDb2dVertex
 10
6.865410698784721
 20
1.795735677083333
 30
0.0
  0
VERTEX
  5
1F9
330
40
100
AcDbEntity
  8
STATE
 62
     2
100
AcDbVertex
100
AcDb2dVertex
 10
6.875406901041666
 20
1.7890625
 30
0.0
  0
VERTEX
  5
1FA
330
40
100
AcDbEntity
  8
STATE
 62
     2
100
AcDbVertex
100
AcDb2dVertex
 10
6.875406901041666
 20
1.775729709201389
 30
0.0
  0
VERTEX
  5
1FB
330
40
100
AcDbEntity
  8
STATE
 62
     2
100
AcDbVertex
100
AcDb2dVertex
 10
6.875406901041666
 20
1.765719943576389
 30
0.0
  0
VERTEX
  5
1FC
330
40
100
AcDbEntity
  8
STATE
 62
     2
100
AcDbVertex
100
AcDb2dVertex
 10
6.885403103298611
 20
1.749050564236111
 30
0.0
  0
VERTEX
  5
1FD
330
40
100
AcDbEntity
  8
STATE
 62
     2
100
AcDbVertex
100
AcDb2dVertex
 10
6.898735894097221
 20
1.739054361979167
 30
0.0
  0
VERTEX
  5
1FE
330
40
100
AcDbEntity
  8
STATE
 62
     2
100
AcDbVertex
100
AcDb2dVertex
 10
6.908732096354166
 20
1.725721571180555
 30
0.0
  0
VERTEX
  5
1FF
330
40
100
AcDbEntity
  8
STATE
 62
     2
100
AcDbVertex
100
AcDb2dVertex
 10
6.912068684895833
 20
1.719061957465278
 30
0.0
  0
VERTEX
  5
200
330
40
100
AcDbEntity
  8
STATE
 62
     2
100
AcDbVertex
100
AcDb2dVertex
 10
6.912068684895833
 20
1.712388780381944
 30
0.0
  0
VERTEX
  5
201
330
40
100
AcDbEntity
  8
STATE
 62
     2
100
AcDbVertex
100
AcDb2dVertex
 10
6.912068684895833
 20
1.705715603298611
 30
0.0
  0
VERTEX
  5
202
330
40
100
AcDbEntity
  8
STATE
 62
     2
100
AcDbVertex
100
AcDb2dVertex
 10
6.912068684895833
 20
1.702392578125
 30
0.0
  0
VERTEX
  5
203
330
40
100
AcDbEntity
  8
STATE
 62
     2
100
AcDbVertex
100
AcDb2dVertex
 10
6.908732096354166
 20
1.695719401041667
 30
0.0
  0
VERTEX
  5
204
330
40
100
AcDbEntity
  8
STATE
 62
     2
100
AcDbVertex
100
AcDb2dVertex
 10
6.895399305555555
 20
1.685723198784722
 30
0.0
  0
VERTEX
  5
205
330
40
100
AcDbEntity
  8
STATE
 62
     2
100
AcDbVertex
100
AcDb2dVertex
 10
6.888739691840278
 20
1.682386610243055
 30
0.0
  0
VERTEX
  5
206
330
40
100
AcDbEntity
  8
STATE
 62
     2
100
AcDbVertex
100
AcDb2dVertex
 10
6.888739691840278
 20
1.679050021701389
 30
0.0
  0
VERTEX
  5
207
330
40
100
AcDbEntity
  8
STATE
 62
     2
100
AcDbVertex
100
AcDb2dVertex
 10
6.888739691840278
 20
1.672376844618055
 30
0.0
  0
VERTEX
  5
208
330
40
100
AcDbEntity
  8
STATE
 62
     2
100
AcDbVertex
100
AcDb2dVertex
 10
6.888739691840278
 20
1.665717230902778
 30
0.0
  0
VERTEX
  5
209
330
40
100
AcDbEntity
  8
STATE
 62
     2
100
AcDbVertex
100
AcDb2dVertex
 10
6.892076280381944
 20
1.652384440104167
 30
0.0
  0
VERTEX
  5
20A
330
40
100
AcDbEntity
  8
STATE
 62
     2
100
AcDbVertex
100
AcDb2dVertex
 10
6.892076280381944
 20
1.645724826388889
 30
0.0
  0
VERTEX
  5
20B
330
40
100
AcDbEntity
  8
STATE
 62
     2
100
AcDbVertex
100
AcDb2dVertex
 10
6.888739691840278
 20
1.6390380859375
 30
0.0
  0
VERTEX
  5
20C
330
40
100
AcDbEntity
  8
STATE
 62
     2
100
AcDbVertex
100
AcDb2dVertex
 10
6.885403103298611
 20
1.622382269965278
 30
0.0
  0
VERTEX
  5
20D
330
40
100
AcDbEntity
  8
STATE
 62
     2
100
AcDbVertex
100
AcDb2dVertex
 10
6.875406901041666
 20
1.619045681423611
 30
0.0
  0
VERTEX
  5
20E
330
40
100
AcDbEntity
  8
STATE
 62
     2
100
AcDbVertex
100
AcDb2dVertex
 10
6.875406901041666
 20
1.612372504340278
 30
0.0
  0
VERTEX
  5
20F
330
40
100
AcDbEntity
  8
STATE
 62
     2
100
AcDbVertex
100
AcDb2dVertex
 10
6.892076280381944
 20
1.589043511284722
 30
0.0
  0
VERTEX
  5
210
330
40
100
AcDbEntity
  8
STATE
 62
     2
100
AcDbVertex
100
AcDb2dVertex
 10
6.888739691840278
 20
1.559041341145833
 30
0.0
  0
VERTEX
  5
211
330
40
100
AcDbEntity
  8
STATE
 62
     2
100
AcDbVertex
100
AcDb2dVertex
 10
6.895399305555555
 20
1.539035373263889
 30
0.0
  0
VERTEX
  5
212
330
40
100
AcDbEntity
  8
STATE
 62
     2
100
AcDbVertex
100
AcDb2dVertex
 10
6.895399305555555
 20
1.525702582465278
 30
0.0
  0
VERTEX
  5
213
330
40
100
AcDbEntity
  8
STATE
 62
     2
100
AcDbVertex
100
AcDb2dVertex
 10
6.895399305555555
 20
1.505696614583333
 30
0.0
  0
VERTEX
  5
214
330
40
100
AcDbEntity
  8
STATE
 62
     2
100
AcDbVertex
100
AcDb2dVertex
 10
6.885403103298611
 20
1.475694444444444
 30
0.0
  0
VERTEX
  5
215
330
40
100
AcDbEntity
  8
STATE
 62
     2
100
AcDbVertex
100
AcDb2dVertex
 10
6.885403103298611
 20
1.469021267361111
 30
0.0
  0
VERTEX
  5
216
330
40
100
AcDbEntity
  8
STATE
 62
     2
100
AcDbVertex
100
AcDb2dVertex
 10
6.892076280381944
 20
1.459038628472222
 30
0.0
  0
VERTEX
  5
217
330
40
100
AcDbEntity
  8
STATE
 62
     2
100
AcDbVertex
100
AcDb2dVertex
 10
6.898735894097221
 20
1.452351888020833
 30
0.0
  0
VERTEX
  5
218
330
40
100
AcDbEntity
  8
STATE
 62
     2
100
AcDbVertex
100
AcDb2dVertex
 10
6.912068684895833
 20
1.442355685763889
 30
0.0
  0
VERTEX
  5
219
330
40
100
AcDbEntity
  8
STATE
 62
     2
100
AcDbVertex
100
AcDb2dVertex
 10
6.915391710069444
 20
1.439032660590278
 30
0.0
  0
VERTEX
  5
21A
330
40
100
AcDbEntity
  8
STATE
 62
     2
100
AcDbVertex
100
AcDb2dVertex
 10
6.912068684895833
 20
1.429022894965278
 30
0.0
  0
VERTEX
  5
21B
330
40
100
AcDbEntity
  8
STATE
 62
     2
100
AcDbVertex
100
AcDb2dVertex
 10
6.905409071180555
 20
1.412353515625
 30
0.0
  0
VERTEX
  5
21C
330
40
100
AcDbEntity
  8
STATE
 62
     2
100
AcDbVertex
100
AcDb2dVertex
 10
6.905409071180555
 20
1.409016927083333
 30
0.0
  0
VERTEX
  5
21D
330
40
100
AcDbEntity
  8
STATE
 62
     2
100
AcDbVertex
100
AcDb2dVertex
 10
6.905409071180555
 20
1.399020724826389
 30
0.0
  0
VERTEX
  5
21E
330
40
100
AcDbEntity
  8
STATE
 62
     2
100
AcDbVertex
100
AcDb2dVertex
 10
6.905409071180555
 20
1.389024522569444
 30
0.0
  0
VERTEX
  5
21F
330
40
100
AcDbEntity
  8
STATE
 62
     2
100
AcDbVertex
100
AcDb2dVertex
 10
6.922064887152778
 20
1.375678168402778
 30
0.0
  0
VERTEX
  5
220
330
40
100
AcDbEntity
  8
STATE
 62
     2
100
AcDbVertex
100
AcDb2dVertex
 10
6.942057291666666
 20
1.342352973090278
 30
0.0
  0
VERTEX
  5
221
330
40
100
AcDbEntity
  8
STATE
 62
     2
100
AcDbVertex
100
AcDb2dVertex
 10
6.94873046875
 20
1.332356770833333
 30
0.0
  0
VERTEX
  5
222
330
40
100
AcDbEntity
  8
STATE
 62
     2
100
AcDbVertex
100
AcDb2dVertex
 10
6.94873046875
 20
1.312350802951389
 30
0.0
  0
VERTEX
  5
223
330
40
100
AcDbEntity
  8
STATE
 62
     2
100
AcDbVertex
100
AcDb2dVertex
 10
6.942057291666666
 20
1.295681423611111
 30
0.0
  0
VERTEX
  5
224
330
40
100
AcDbEntity
  8
STATE
 62
     2
100
AcDbVertex
100
AcDb2dVertex
 10
6.935397677951388
 20
1.285671657986111
 30
0.0
  0
VERTEX
  5
225
330
40
100
AcDbEntity
  8
STATE
 62
     2
100
AcDbVertex
100
AcDb2dVertex
 10
6.935397677951388
 20
1.282335069444444
 30
0.0
  0
VERTEX
  5
226
330
40
100
AcDbEntity
  8
STATE
 62
     2
100
AcDbVertex
100
AcDb2dVertex
 10
6.938720703125
 20
1.262342664930556
 30
0.0
  0
VERTEX
  5
227
330
40
100
AcDbEntity
  8
STATE
 62
     2
100
AcDbVertex
100
AcDb2dVertex
 10
6.942057291666666
 20
1.235677083333333
 30
0.0
  0
VERTEX
  5
228
330
40
100
AcDbEntity
  8
STATE
 62
     2
100
AcDbVertex
100
AcDb2dVertex
 10
6.942057291666666
 20
1.22900390625
 30
0.0
  0
VERTEX
  5
229
330
40
100
AcDbEntity
  8
STATE
 62
     2
100
AcDbVertex
100
AcDb2dVertex
 10
6.945393880208333
 20
1.222330729166667
 30
0.0
  0
VERTEX
  5
22A
330
40
100
AcDbEntity
  8
STATE
 62
     2
100
AcDbVertex
100
AcDb2dVertex
 10
6.94873046875
 20
1.219007703993056
 30
0.0
  0
VERTEX
  5
22B
330
40
100
AcDbEntity
  8
STATE
 62
     2
100
AcDbVertex
100
AcDb2dVertex
 10
6.945393880208333
 20
1.215671115451389
 30
0.0
  0
VERTEX
  5
22C
330
40
100
AcDbEntity
  8
STATE
 62
     2
100
AcDbVertex
100
AcDb2dVertex
 10
6.942057291666666
 20
1.205661349826389
 30
0.0
  0
VERTEX
  5
22D
330
40
100
AcDbEntity
  8
STATE
 62
     2
100
AcDbVertex
100
AcDb2dVertex
 10
6.935397677951388
 20
1.202338324652778
 30
0.0
  0
VERTEX
  5
22E
330
40
100
AcDbEntity
  8
STATE
 62
     2
100
AcDbVertex
100
AcDb2dVertex
 10
6.928738064236111
 20
1.1956787109375
 30
0.0
  0
VERTEX
  5
22F
330
40
100
AcDbEntity
  8
STATE
 62
     2
100
AcDbVertex
100
AcDb2dVertex
 10
6.925401475694444
 20
1.192328559027778
 30
0.0
  0
VERTEX
  5
230
330
40
100
AcDbEntity
  8
STATE
 62
     2
100
AcDbVertex
100
AcDb2dVertex
 10
6.925401475694444
 20
1.188991970486111
 30
0.0
  0
VERTEX
  5
231
330
40
100
AcDbEntity
  8
STATE
 62
     2
100
AcDbVertex
100
AcDb2dVertex
 10
6.922064887152778
 20
1.172336154513889
 30
0.0
  0
VERTEX
  5
232
330
40
100
AcDbEntity
  8
STATE
 62
     2
100
AcDbVertex
100
AcDb2dVertex
 10
6.922064887152778
 20
1.168999565972222
 30
0.0
  0
VERTEX
  5
233
330
40
100
AcDbEntity
  8
STATE
 62
     2
100
AcDbVertex
100
AcDb2dVertex
 10
6.925401475694444
 20
1.155666775173611
 30
0.0
  0
VERTEX
  5
234
330
40
100
AcDbEntity
  8
STATE
 62
     2
100
AcDbVertex
100
AcDb2dVertex
 10
6.928738064236111
 20
1.145670572916667
 30
0.0
  0
VERTEX
  5
235
330
40
100
AcDbEntity
  8
STATE
 62
     2
100
AcDbVertex
100
AcDb2dVertex
 10
6.938720703125
 20
1.122328016493056
 30
0.0
  0
VERTEX
  5
236
330
40
100
AcDbEntity
  8
STATE
 62
     2
100
AcDbVertex
100
AcDb2dVertex
 10
6.938720703125
 20
1.118991427951389
 30
0.0
  0
VERTEX
  5
237
330
40
100
AcDbEntity
  8
STATE
 62
     2
100
AcDbVertex
100
AcDb2dVertex
 10
6.938720703125
 20
1.105658637152778
 30
0.0
  0
VERTEX
  5
238
330
40
100
AcDbEntity
  8
STATE
 62
     2
100
AcDbVertex
100
AcDb2dVertex
 10
6.942057291666666
 20
1.098985460069444
 30
0.0
  0
VERTEX
  5
239
330
40
100
AcDbEntity
  8
STATE
 62
     2
100
AcDbVertex
100
AcDb2dVertex
 10
6.942057291666666
 20
1.092325846354167
 30
0.0
  0
VERTEX
  5
23A
330
40
100
AcDbEntity
  8
STATE
 62
     2
100
AcDbVertex
100
AcDb2dVertex
 10
6.945393880208333
 20
1.0889892578125
 30
0.0
  0
VERTEX
  5
23B
330
40
100
AcDbEntity
  8
STATE
 62
     2
100
AcDbVertex
100
AcDb2dVertex
 10
6.955390082465278
 20
1.072319878472222
 30
0.0
  0
VERTEX
  5
23C
330
40
100
AcDbEntity
  8
STATE
 62
     2
100
AcDbVertex
100
AcDb2dVertex
 10
6.955390082465278
 20
1.068996853298611
 30
0.0
  0
VERTEX
  5
23D
330
40
100
AcDbEntity
  8
STATE
 62
     2
100
AcDbVertex
100
AcDb2dVertex
 10
6.985392252604166
 20
1.042317708333333
 30
0.0
  0
VERTEX
  5
23E
330
40
100
AcDbEntity
  8
STATE
 62
     2
100
AcDbVertex
100
AcDb2dVertex
 10
6.995388454861111
 20
1.015652126736111
 30
0.0
  0
VERTEX
  5
23F
330
40
100
AcDbEntity
  8
STATE
 62
     2
100
AcDbVertex
100
AcDb2dVertex
 10
7.005384657118055
 20
0.9823133680555555
 30
0.0
  0
VERTEX
  5
240
330
40
100
AcDbEntity
  8
STATE
 62
     2
100
AcDbVertex
100
AcDb2dVertex
 10
7.015380859375
 20
0.962307400173611
 30
0.0
  0
VERTEX
  5
241
330
40
100
AcDbEntity
  8
STATE
 62
     2
100
AcDbVertex
100
AcDb2dVertex
 10
7.025377061631944
 20
0.918972439236111
 30
0.0
  0
VERTEX
  5
242
330
40
100
AcDbEntity
  8
STATE
 62
     2
100
AcDbVertex
100
AcDb2dVertex
 10
7.025377061631944
 20
0.9023030598958333
 30
0.0
  0
VERTEX
  5
243
330
40
100
AcDbEntity
  8
STATE
 62
     2
100
AcDbVertex
100
AcDb2dVertex
 10
7.025377061631944
 20
0.8789605034722222
 30
0.0
  0
VERTEX
  5
244
330
40
100
AcDbEntity
  8
STATE
 62
     2
100
AcDbVertex
100
AcDb2dVertex
 10
7.038709852430555
 20
0.8289659288194444
 30
0.0
  0
VERTEX
  5
245
330
40
100
AcDbEntity
  8
STATE
 62
     2
100
AcDbVertex
100
AcDb2dVertex
 10
7.042046440972221
 20
0.7956271701388888
 30
0.0
  0
VERTEX
  5
246
330
40
100
AcDbEntity
  8
STATE
 62
     2
100
AcDbVertex
100
AcDb2dVertex
 10
7.042046440972221
 20
0.7822943793402777
 30
0.0
  0
VERTEX
  5
247
330
40
100
AcDbEntity
  8
STATE
 62
     2
100
AcDbVertex
100
AcDb2dVertex
 10
7.0487060546875
 20
0.7522922092013888
 30
0.0
  0
VERTEX
  5
248
330
40
100
AcDbEntity
  8
STATE
 62
     2
100
AcDbVertex
100
AcDb2dVertex
 10
7.055365668402778
 20
0.7489556206597222
 30
0.0
  0
VERTEX
  5
249
330
40
100
AcDbEntity
  8
STATE
 62
     2
100
AcDbVertex
100
AcDb2dVertex
 10
7.0587158203125
 20
0.7422824435763888
 30
0.0
  0
VERTEX
  5
24A
330
40
100
AcDbEntity
  8
STATE
 62
     2
100
AcDbVertex
100
AcDb2dVertex
 10
7.0587158203125
 20
0.7389594184027778
 30
0.0
  0
VERTEX
  5
24B
330
40
100
AcDbEntity
  8
STATE
 62
     2
100
AcDbVertex
100
AcDb2dVertex
 10
7.0587158203125
 20
0.7322862413194444
 30
0.0
  0
VERTEX
  5
24C
330
40
100
AcDbEntity
  8
STATE
 62
     2
100
AcDbVertex
100
AcDb2dVertex
 10
7.062038845486111
 20
0.7222900390625
 30
0.0
  0
VERTEX
  5
24D
330
40
100
AcDbEntity
  8
STATE
 62
     2
100
AcDbVertex
100
AcDb2dVertex
 10
7.062038845486111
 20
0.7156168619791666
 30
0.0
  0
VERTEX
  5
24E
330
40
100
AcDbEntity
  8
STATE
 62
     2
100
AcDbVertex
100
AcDb2dVertex
 10
7.062038845486111
 20
0.6989474826388888
 30
0.0
  0
VERTEX
  5
24F
330
40
100
AcDbEntity
  8
STATE
 62
     2
100
AcDbVertex
100
AcDb2dVertex
 10
7.062038845486111
 20
0.6956244574652778
 30
0.0
  0
VERTEX
  5
250
330
40
100
AcDbEntity
  8
STATE
 62
     2
100
AcDbVertex
100
AcDb2dVertex
 10
7.062038845486111
 20
0.6856146918402778
 30
0.0
  0
VERTEX
  5
251
330
40
100
AcDbEntity
  8
STATE
 62
     2
100
AcDbVertex
100
AcDb2dVertex
 10
7.0587158203125
 20
0.6522894965277778
 30
0.0
  0
VERTEX
  5
252
330
40
100
AcDbEntity
  8
STATE
 62
     2
100
AcDbVertex
100
AcDb2dVertex
 10
7.052042643229166
 20
0.6356201171875
 30
0.0
  0
VERTEX
  5
253
330
40
100
AcDbEntity
  8
STATE
 62
     2
100
AcDbVertex
100
AcDb2dVertex
 10
7.0487060546875
 20
0.6356201171875
 30
0.0
  0
VERTEX
  5
254
330
40
100
AcDbEntity
  8
STATE
 62
     2
100
AcDbVertex
100
AcDb2dVertex
 10
7.042046440972221
 20
0.6289469401041666
 30
0.0
  0
VERTEX
  5
255
330
40
100
AcDbEntity
  8
STATE
 62
     2
100
AcDbVertex
100
AcDb2dVertex
 10
7.028713650173611
 20
0.6256103515625
 30
0.0
  0
VERTEX
  5
256
330
40
100
AcDbEntity
  8
STATE
 62
     2
100
AcDbVertex
100
AcDb2dVertex
 10
7.022054036458333
 20
0.6256103515625
 30
0.0
  0
VERTEX
  5
257
330
40
100
AcDbEntity
  8
STATE
 62
     2
100
AcDbVertex
100
AcDb2dVertex
 10
7.012044270833333
 20
0.6256103515625
 30
0.0
  0
VERTEX
  5
258
330
40
100
AcDbEntity
  8
STATE
 62
     2
100
AcDbVertex
100
AcDb2dVertex
 10
7.005384657118055
 20
0.6256103515625
 30
0.0
  0
VERTEX
  5
259
330
40
100
AcDbEntity
  8
STATE
 62
     2
100
AcDbVertex
100
AcDb2dVertex
 10
7.002048068576388
 20
0.6256103515625
 30
0.0
  0
VERTEX
  5
25A
330
40
100
AcDbEntity
  8
STATE
 62
     2
100
AcDbVertex
100
AcDb2dVertex
 10
6.998711480034721
 20
0.6222873263888888
 30
0.0
  0
VERTEX
  5
25B
330
40
100
AcDbEntity
  8
STATE
 62
     2
100
AcDbVertex
100
AcDb2dVertex
 10
6.995388454861111
 20
0.6222873263888888
 30
0.0
  0
VERTEX
  5
25C
330
40
100
AcDbEntity
  8
STATE
 62
     2
100
AcDbVertex
100
AcDb2dVertex
 10
6.992051866319444
 20
0.6222873263888888
 30
0.0
  0
VERTEX
  5
25D
330
40
100
AcDbEntity
  8
STATE
 62
     2
100
AcDbVertex
100
AcDb2dVertex
 10
6.992051866319444
 20
0.6189507378472222
 30
0.0
  0
VERTEX
  5
25E
330
40
100
AcDbEntity
  8
STATE
 62
     2
100
AcDbVertex
100
AcDb2dVertex
 10
6.985392252604166
 20
0.6156005859375
 30
0.0
  0
VERTEX
  5
25F
330
40
100
AcDbEntity
  8
STATE
 62
     2
100
AcDbVertex
100
AcDb2dVertex
 10
6.978719075520833
 20
0.6089409722222222
 30
0.0
  0
VERTEX
  5
260
330
40
100
AcDbEntity
  8
STATE
 62
     2
100
AcDbVertex
100
AcDb2dVertex
 10
6.978719075520833
 20
0.6056043836805555
 30
0.0
  0
VERTEX
  5
261
330
40
100
AcDbEntity
  8
STATE
 62
     2
100
AcDbVertex
100
AcDb2dVertex
 10
6.975396050347221
 20
0.6022813585069444
 30
0.0
  0
VERTEX
  5
262
330
40
100
AcDbEntity
  8
STATE
 62
     2
100
AcDbVertex
100
AcDb2dVertex
 10
6.972059461805555
 20
0.595608181423611
 30
0.0
  0
VERTEX
  5
263
330
40
100
AcDbEntity
  8
STATE
 62
     2
100
AcDbVertex
100
AcDb2dVertex
 10
6.975396050347221
 20
0.5889350043402778
 30
0.0
  0
VERTEX
  5
264
330
40
100
AcDbEntity
  8
STATE
 62
     2
100
AcDbVertex
100
AcDb2dVertex
 10
6.978719075520833
 20
0.5889350043402778
 30
0.0
  0
VERTEX
  5
265
330
40
100
AcDbEntity
  8
STATE
 62
     2
100
AcDbVertex
100
AcDb2dVertex
 10
6.985392252604166
 20
0.5856119791666666
 30
0.0
  0
VERTEX
  5
266
330
40
100
AcDbEntity
  8
STATE
 62
     2
100
AcDbVertex
100
AcDb2dVertex
 10
6.988728841145833
 20
0.5856119791666666
 30
0.0
  0
VERTEX
  5
267
330
40
100
AcDbEntity
  8
STATE
 62
     2
100
AcDbVertex
100
AcDb2dVertex
 10
6.988728841145833
 20
0.582275390625
 30
0.0
  0
VERTEX
  5
268
330
40
100
AcDbEntity
  8
STATE
 62
     2
100
AcDbVertex
100
AcDb2dVertex
 10
7.002048068576388
 20
0.5789388020833333
 30
0.0
  0
VERTEX
  5
269
330
40
100
AcDbEntity
  8
STATE
 62
     2
100
AcDbVertex
100
AcDb2dVertex
 10
7.008707682291666
 20
0.572265625
 30
0.0
  0
VERTEX
  5
26A
330
40
100
AcDbEntity
  8
STATE
 62
     2
100
AcDbVertex
100
AcDb2dVertex
 10
7.012044270833333
 20
0.5689425998263888
 30
0.0
  0
VERTEX
  5
26B
330
40
100
AcDbEntity
  8
STATE
 62
     2
100
AcDbVertex
100
AcDb2dVertex
 10
7.015380859375
 20
0.5689425998263888
 30
0.0
  0
VERTEX
  5
26C
330
40
100
AcDbEntity
  8
STATE
 62
     2
100
AcDbVertex
100
AcDb2dVertex
 10
7.018717447916666
 20
0.5656060112847222
 30
0.0
  0
VERTEX
  5
26D
330
40
100
AcDbEntity
  8
STATE
 62
     2
100
AcDbVertex
100
AcDb2dVertex
 10
7.022054036458333
 20
0.5589463975694444
 30
0.0
  0
VERTEX
  5
26E
330
40
100
AcDbEntity
  8
STATE
 62
     2
100
AcDbVertex
100
AcDb2dVertex
 10
7.025377061631944
 20
0.552273220486111
 30
0.0
  0
VERTEX
  5
26F
330
40
100
AcDbEntity
  8
STATE
 62
     2
100
AcDbVertex
100
AcDb2dVertex
 10
7.025377061631944
 20
0.5489366319444444
 30
0.0
  0
VERTEX
  5
270
330
40
100
AcDbEntity
  8
STATE
 62
     2
100
AcDbVertex
100
AcDb2dVertex
 10
7.025377061631944
 20
0.5422770182291666
 30
0.0
  0
VERTEX
  5
271
330
40
100
AcDbEntity
  8
STATE
 62
     2
100
AcDbVertex
100
AcDb2dVertex
 10
7.022054036458333
 20
0.5356038411458333
 30
0.0
  0
VERTEX
  5
272
330
40
100
AcDbEntity
  8
STATE
 62
     2
100
AcDbVertex
100
AcDb2dVertex
 10
7.012044270833333
 20
0.5256076388888888
 30
0.0
  0
VERTEX
  5
273
330
40
100
AcDbEntity
  8
STATE
 62
     2
100
AcDbVertex
100
AcDb2dVertex
 10
7.008707682291666
 20
0.5256076388888888
 30
0.0
  0
VERTEX
  5
274
330
40
100
AcDbEntity
  8
STATE
 62
     2
100
AcDbVertex
100
AcDb2dVertex
 10
6.998711480034721
 20
0.5155978732638888
 30
0.0
  0
VERTEX
  5
275
330
40
100
AcDbEntity
  8
STATE
 62
     2
100
AcDbVertex
100
AcDb2dVertex
 10
6.992051866319444
 20
0.4989284939236111
 30
0.0
  0
VERTEX
  5
276
330
40
100
AcDbEntity
  8
STATE
 62
     2
100
AcDbVertex
100
AcDb2dVertex
 10
6.992051866319444
 20
0.4889322916666666
 30
0.0
  0
VERTEX
  5
277
330
40
100
AcDbEntity
  8
STATE
 62
     2
100
AcDbVertex
100
AcDb2dVertex
 10
6.992051866319444
 20
0.485595703125
 30
0.0
  0
VERTEX
  5
278
330
40
100
AcDbEntity
  8
STATE
 62
     2
100
AcDbVertex
100
AcDb2dVertex
 10
6.988728841145833
 20
0.4722629123263888
 30
0.0
  0
VERTEX
  5
279
330
40
100
AcDbEntity
  8
STATE
 62
     2
100
AcDbVertex
100
AcDb2dVertex
 10
6.988728841145833
 20
0.4655897352430555
 30
0.0
  0
VERTEX
  5
27A
330
40
100
AcDbEntity
  8
STATE
 62
     2
100
AcDbVertex
100
AcDb2dVertex
 10
6.992051866319444
 20
0.4622531467013888
 30
0.0
  0
VERTEX
  5
27B
330
40
100
AcDbEntity
  8
STATE
 62
     2
100
AcDbVertex
100
AcDb2dVertex
 10
6.992051866319444
 20
0.4522569444444444
 30
0.0
  0
VERTEX
  5
27C
330
40
100
AcDbEntity
  8
STATE
 62
     2
100
AcDbVertex
100
AcDb2dVertex
 10
6.968722873263888
 20
0.4755995008680555
 30
0.0
  0
VERTEX
  5
27D
330
40
100
AcDbEntity
  8
STATE
 62
     2
100
AcDbVertex
100
AcDb2dVertex
 10
6.938720703125
 20
0.5022650824652778
 30
0.0
  0
VERTEX
  5
27E
330
40
100
AcDbEntity
  8
STATE
 62
     2
100
AcDbVertex
100
AcDb2dVertex
 10
6.928738064236111
 20
0.508938259548611
 30
0.0
  0
VERTEX
  5
27F
330
40
100
AcDbEntity
  8
STATE
 62
     2
100
AcDbVertex
100
AcDb2dVertex
 10
6.785427517361111
 20
0.6489393446180555
 30
0.0
  0
VERTEX
  5
280
330
40
100
AcDbEntity
  8
STATE
 62
     2
100
AcDbVertex
100
AcDb2dVertex
 10
6.782090928819444
 20
0.6489393446180555
 30
0.0
  0
VERTEX
  5
281
330
40
100
AcDbEntity
  8
STATE
 62
     2
100
AcDbVertex
100
AcDb2dVertex
 10
6.728759765625
 20
0.6989474826388888
 30
0.0
  0
VERTEX
  5
282
330
40
100
AcDbEntity
  8
STATE
 62
     2
100
AcDbVertex
100
AcDb2dVertex
 10
6.638780381944444
 20
0.7856174045138888
 30
0.0
  0
VERTEX
  5
283
330
40
100
AcDbEntity
  8
STATE
 62
     2
100
AcDbVertex
100
AcDb2dVertex
 10
6.618787977430555
 20
0.8022867838541666
 30
0.0
  0
VERTEX
  5
284
330
40
100
AcDbEntity
  8
STATE
 62
     2
100
AcDbVertex
100
AcDb2dVertex
 10
6.495469835069444
 20
0.918972439236111
 30
0.0
  0
VERTEX
  5
285
330
40
100
AcDbEntity
  8
STATE
 62
     2
100
AcDbVertex
100
AcDb2dVertex
 10
6.432156032986111
 20
0.9823133680555555
 30
0.0
  0
VERTEX
  5
286
330
40
100
AcDbEntity
  8
STATE
 62
     2
100
AcDbVertex
100
AcDb2dVertex
 10
6.425496419270833
 20
0.9889729817708333
 30
0.0
  0
VERTEX
  5
287
330
40
100
AcDbEntity
  8
STATE
 62
     2
100
AcDbVertex
100
AcDb2dVertex
 10
6.398830837673611
 20
1.012315538194444
 30
0.0
  0
VERTEX
  5
288
330
40
100
AcDbEntity
  8
STATE
 62
     2
100
AcDbVertex
100
AcDb2dVertex
 10
6.372165256076388
 20
1.03564453125
 30
0.0
  0
VERTEX
  5
289
330
40
100
AcDbEntity
  8
STATE
 62
     2
100
AcDbVertex
100
AcDb2dVertex
 10
6.355495876736111
 20
1.052327473958333
 30
0.0
  0
VERTEX
  5
28A
330
40
100
AcDbEntity
  8
STATE
 62
     2
100
AcDbVertex
100
AcDb2dVertex
 10
6.278849283854166
 20
1.125664605034722
 30
0.0
  0
VERTEX
  5
28B
330
40
100
AcDbEntity
  8
STATE
 62
     2
100
AcDbVertex
100
AcDb2dVertex
 10
6.222195095486111
 20
1.1756591796875
 30
0.0
  0
VERTEX
  5
28C
330
40
100
AcDbEntity
  8
STATE
 62
     2
100
AcDbVertex
100
AcDb2dVertex
 10
6.185533311631944
 20
1.212334526909722
 30
0.0
  0
VERTEX
  5
28D
330
40
100
AcDbEntity
  8
STATE
 62
     2
100
AcDbVertex
100
AcDb2dVertex
 10
6.082221137152778
 20
1.309014214409722
 30
0.0
  0
VERTEX
  5
28E
330
40
100
AcDbEntity
  8
STATE
 62
     2
100
AcDbVertex
100
AcDb2dVertex
 10
6.078884548611111
 20
1.312350802951389
 30
0.0
  0
VERTEX
  5
28F
330
40
100
AcDbEntity
  8
STATE
 62
     2
100
AcDbVertex
100
AcDb2dVertex
 10
6.075547960069444
 20
1.315673828125
 30
0.0
  0
VERTEX
  5
290
330
40
100
AcDbEntity
  8
STATE
 62
     2
100
AcDbVertex
100
AcDb2dVertex
 10
6.0655517578125
 20
1.32568359375
 30
0.0
  0
VERTEX
  5
291
330
40
100
AcDbEntity
  8
STATE
 62
     2
100
AcDbVertex
100
AcDb2dVertex
 10
6.062228732638888
 20
1.329020182291667
 30
0.0
  0
VERTEX
  5
292
330
40
100
AcDbEntity
  8
STATE
 62
     2
100
AcDbVertex
100
AcDb2dVertex
 10
6.055555555555555
 20
1.335679796006944
 30
0.0
  0
VERTEX
  5
293
330
40
100
AcDbEntity
  8
STATE
 62
     2
100
AcDbVertex
100
AcDb2dVertex
 10
5.948920355902778
 20
1.432359483506944
 30
0.0
  0
VERTEX
  5
294
330
40
100
AcDbEntity
  8
STATE
 62
     2
100
AcDbVertex
100
AcDb2dVertex
 10
5.892252604166666
 20
1.485690646701389
 30
0.0
  0
VERTEX
  5
295
330
40
100
AcDbEntity
  8
STATE
 62
     2
100
AcDbVertex
100
AcDb2dVertex
 10
5.892252604166666
 20
1.489027235243056
 30
0.0
  0
VERTEX
  5
296
330
40
100
AcDbEntity
  8
STATE
 62
     2
100
AcDbVertex
100
AcDb2dVertex
 10
5.888916015625
 20
1.492363823784722
 30
0.0
  0
VERTEX
  5
297
330
40
100
AcDbEntity
  8
STATE
 62
     2
100
AcDbVertex
100
AcDb2dVertex
 10
5.842271592881944
 20
1.535698784722222
 30
0.0
  0
VERTEX
  5
298
330
40
100
AcDbEntity
  8
STATE
 62
     2
100
AcDbVertex
100
AcDb2dVertex
 10
5.802273220486111
 20
1.575710720486111
 30
0.0
  0
VERTEX
  5
299
330
40
100
AcDbEntity
  8
STATE
 62
     2
100
AcDbVertex
100
AcDb2dVertex
 10
5.798936631944444
 20
1.575710720486111
 30
0.0
  0
VERTEX
  5
29A
330
40
100
AcDbEntity
  8
STATE
 62
     2
100
AcDbVertex
100
AcDb2dVertex
 10
5.775607638888888
 20
1.599039713541667
 30
0.0
  0
VERTEX
  5
29B
330
40
100
AcDbEntity
  8
STATE
 62
     2
100
AcDbVertex
100
AcDb2dVertex
 10
5.748942057291666
 20
1.622382269965278
 30
0.0
  0
VERTEX
  5
29C
330
40
100
AcDbEntity
  8
STATE
 62
     2
100
AcDbVertex
100
AcDb2dVertex
 10
5.725613064236111
 20
1.645724826388889
 30
0.0
  0
VERTEX
  5
29D
330
40
100
AcDbEntity
  8
STATE
 62
     2
100
AcDbVertex
100
AcDb2dVertex
 10
5.652289496527778
 20
1.712388780381944
 30
0.0
  0
VERTEX
  5
29E
330
40
100
AcDbEntity
  8
STATE
 62
     2
100
AcDbVertex
100
AcDb2dVertex
 10
5.6456298828125
 20
1.719061957465278
 30
0.0
  0
VERTEX
  5
29F
330
40
100
AcDbEntity
  8
STATE
 62
     2
100
AcDbVertex
100
AcDb2dVertex
 10
5.6456298828125
 20
1.722384982638889
 30
0.0
  0
VERTEX
  5
2A0
330
40
100
AcDbEntity
  8
STATE
 62
     2
100
AcDbVertex
100
AcDb2dVertex
 10
5.562310112847222
 20
1.799058702256944
 30
0.0
  0
VERTEX
  5
2A1
330
40
100
AcDbEntity
  8
STATE
 62
     2
100
AcDbVertex
100
AcDb2dVertex
 10
5.532321506076388
 20
1.829074435763889
 30
0.0
  0
VERTEX
  5
2A2
330
40
100
AcDbEntity
  8
STATE
 62
     2
100
AcDbVertex
100
AcDb2dVertex
 10
5.525661892361111
 20
1.8323974609375
 30
0.0
  0
VERTEX
  5
2A3
330
40
100
AcDbEntity
  8
STATE
 62
     2
100
AcDbVertex
100
AcDb2dVertex
 10
5.485663519965278
 20
1.872409396701389
 30
0.0
  0
VERTEX
  5
2A4
330
40
100
AcDbEntity
  8
STATE
 62
     2
100
AcDbVertex
100
AcDb2dVertex
 10
5.47900390625
 20
1.879069010416667
 30
0.0
  0
VERTEX
  5
2A5
330
40
100
AcDbEntity
  8
STATE
 62
     2
100
AcDbVertex
100
AcDb2dVertex
 10
5.462334526909722
 20
1.892401801215278
 30
0.0
  0
VERTEX
  5
2A6
330
40
100
AcDbEntity
  8
STATE
 62
     2
100
AcDbVertex
100
AcDb2dVertex
 10
5.40234375
 20
1.949083116319444
 30
0.0
  0
VERTEX
  5
2A7
330
40
100
AcDbEntity
  8
STATE
 62
     2
100
AcDbVertex
100
AcDb2dVertex
 10
5.382337782118055
 20
1.965738932291667
 30
0.0
  0
VERTEX
  5
2A8
330
40
100
AcDbEntity
  8
STATE
 62
     2
100
AcDbVertex
100
AcDb2dVertex
 10
5.362358940972222
 20
1.985744900173611
 30
0.0
  0
VERTEX
  5
2A9
330
40
100
AcDbEntity
  8
STATE
 62
     2
100
AcDbVertex
100
AcDb2dVertex
 10
5.292371961805555
 20
2.052422417534722
 30
0.0
  0
VERTEX
  5
2AA
330
40
100
AcDbEntity
  8
STATE
 62
     2
100
AcDbVertex
100
AcDb2dVertex
 10
5.265706380208333
 20
2.079087999131944
 30
0.0
  0
VERTEX
  5
2AB
330
40
100
AcDbEntity
  8
STATE
 62
     2
100
AcDbVertex
100
AcDb2dVertex
 10
5.249037000868055
 20
2.095757378472222
 30
0.0
  0
VERTEX
  5
2AC
330
40
100
AcDbEntity
  8
STATE
 62
     2
100
AcDbVertex
100
AcDb2dVertex
 10
5.242377387152778
 20
2.099093967013889
 30
0.0
  0
VERTEX
  5
2AD
330
40
100
AcDbEntity
  8
STATE
 62
     2
100
AcDbVertex
100
AcDb2dVertex
 10
5.232381184895833
 20
2.1124267578125
 30
0.0
  0
VERTEX
  5
2AE
330
40
100
AcDbEntity
  8
STATE
 62
     2
100
AcDbVertex
100
AcDb2dVertex
 10
5.135728624131944
 20
2.202446831597222
 30
0.0
  0
VERTEX
  5
2AF
330
40
100
AcDbEntity
  8
STATE
 62
     2
100
AcDbVertex
100
AcDb2dVertex
 10
5.112399631076388
 20
2.222439236111111
 30
0.0
  0
VERTEX
  5
2B0
330
40
100
AcDbEntity
  8
STATE
 62
     2
100
AcDbVertex
100
AcDb2dVertex
 10
5.062405056423611
 20
2.269110785590278
 30
0.0
  0
VERTEX
  5
2B1
330
40
100
AcDbEntity
  8
STATE
 62
     2
100
AcDbVertex
100
AcDb2dVertex
 10
4.965766059027778
 20
2.362453884548611
 30
0.0
  0
VERTEX
  5
2B2
330
40
100
AcDbEntity
  8
STATE
 62
     2
100
AcDbVertex
100
AcDb2dVertex
 10
4.915771484375
 20
2.405788845486111
 30
0.0
  0
VERTEX
  5
2B3
330
40
100
AcDbEntity
  8
STATE
 62
     2
100
AcDbVertex
100
AcDb2dVertex
 10
4.912434895833333
 20
2.409125434027778
 30
0.0
  0
VERTEX
  5
2B4
330
40
100
AcDbEntity
  8
STATE
 62
     2
100
AcDbVertex
100
AcDb2dVertex
 10
4.785793728298611
 20
2.532470703125
 30
0.0
  0
VERTEX
  5
2B5
330
40
100
AcDbEntity
  8
STATE
 62
     2
100
AcDbVertex
100
AcDb2dVertex
 10
4.7724609375
 20
2.545803493923611
 30
0.0
  0
VERTEX
  5
2B6
330
40
100
AcDbEntity
  8
STATE
 62
     2
100
AcDbVertex
100
AcDb2dVertex
 10
4.722466362847222
 20
2.589152018229167
 30
0.0
  0
VERTEX
  5
2B7
330
40
100
AcDbEntity
  8
STATE
 62
     2
100
AcDbVertex
100
AcDb2dVertex
 10
4.525838216145833
 20
2.772488064236111
 30
0.0
  0
VERTEX
  5
2B8
330
40
100
AcDbEntity
  8
STATE
 62
     2
100
AcDbVertex
100
AcDb2dVertex
 10
4.275892469618055
 20
3.012518988715278
 30
0.0
  0
VERTEX
  5
2B9
330
40
100
AcDbEntity
  8
STATE
 62
     2
100
AcDbVertex
100
AcDb2dVertex
 10
4.189236111111111
 20
3.092529296875
 30
0.0
  0
VERTEX
  5
2BA
330
40
100
AcDbEntity
  8
STATE
 62
     2
100
AcDbVertex
100
AcDb2dVertex
 10
4.112582736545138
 20
3.162529839409722
 30
0.0
  0
VERTEX
  5
2BB
330
40
100
AcDbEntity
  8
STATE
 62
     2
100
AcDbVertex
100
AcDb2dVertex
 10
4.039259168836805
 20
3.235866970486111
 30
0.0
  0
VERTEX
  5
2BC
330
40
100
AcDbEntity
  8
STATE
 62
     2
100
AcDbVertex
100
AcDb2dVertex
 10
3.999267578125
 20
3.272542317708333
 30
0.0
  0
VERTEX
  5
2BD
330
40
100
AcDbEntity
  8
STATE
 62
     2
100
AcDbVertex
100
AcDb2dVertex
 10
3.909281412760417
 20
3.355889214409722
 30
0.0
  0
VERTEX
  5
2BE
330
40
100
AcDbEntity
  8
STATE
 62
     2
100
AcDbVertex
100
AcDb2dVertex
 10
3.885952419704861
 20
3.379231770833333
 30
0.0
  0
VERTEX
  5
2BF
330
40
100
AcDbEntity
  8
STATE
 62
     2
100
AcDbVertex
100
AcDb2dVertex
 10
3.862623426649305
 20
3.399224175347222
 30
0.0
  0
VERTEX
  5
2C0
330
40
100
AcDbEntity
  8
STATE
 62
     2
100
AcDbVertex
100
AcDb2dVertex
 10
3.759311252170139
 20
3.499226888020833
 30
0.0
  0
VERTEX
  5
2C1
330
40
100
AcDbEntity
  8
STATE
 62
     2
100
AcDbVertex
100
AcDb2dVertex
 10
3.616007486979167
 20
3.632581922743055
 30
0.0
  0
VERTEX
  5
2C2
330
40
100
AcDbEntity
  8
STATE
 62
     2
100
AcDbVertex
100
AcDb2dVertex
 10
3.569349500868055
 20
3.675916883680555
 30
0.0
  0
VERTEX
  5
2C3
330
40
100
AcDbEntity
  8
STATE
 62
     2
100
AcDbVertex
100
AcDb2dVertex
 10
3.522691514756944
 20
3.719251844618055
 30
0.0
  0
VERTEX
  5
2C4
330
40
100
AcDbEntity
  8
STATE
 62
     2
100
AcDbVertex
100
AcDb2dVertex
 10
3.409376356336805
 20
3.829264322916667
 30
0.0
  0
VERTEX
  5
2C5
330
40
100
AcDbEntity
  8
STATE
 62
     2
100
AcDbVertex
100
AcDb2dVertex
 10
3.372714572482639
 20
3.859280056423611
 30
0.0
  0
VERTEX
  5
2C6
330
40
100
AcDbEntity
  8
STATE
 62
     2
100
AcDbVertex
100
AcDb2dVertex
 10
3.236077202690972
 20
3.989284939236111
 30
0.0
  0
VERTEX
  5
2C7
330
40
100
AcDbEntity
  8
STATE
 62
     2
100
AcDbVertex
100
AcDb2dVertex
 10
3.199415418836805
 20
4.029296875
 30
0.0
  0
VERTEX
  5
2C8
330
40
100
AcDbEntity
  8
STATE
 62
     2
100
AcDbVertex
100
AcDb2dVertex
 10
3.186082628038194
 20
4.039293077256945
 30
0.0
  0
VERTEX
  5
2C9
330
40
100
AcDbEntity
  8
STATE
 62
     2
100
AcDbVertex
100
AcDb2dVertex
 10
3.156087239583333
 20
4.065958658854166
 30
0.0
  0
VERTEX
  5
2CA
330
40
100
AcDbEntity
  8
STATE
 62
     2
100
AcDbVertex
100
AcDb2dVertex
 10
3.072767469618055
 20
4.142632378472222
 30
0.0
  0
VERTEX
  5
2CB
330
40
100
AcDbEntity
  8
STATE
 62
     2
100
AcDbVertex
100
AcDb2dVertex
 10
3.002780490451389
 20
4.212646484375
 30
0.0
  0
VERTEX
  5
2CC
330
40
100
AcDbEntity
  8
STATE
 62
     2
100
AcDbVertex
100
AcDb2dVertex
 10
2.986117892795139
 20
4.225979275173611
 30
0.0
  0
VERTEX
  5
2CD
330
40
100
AcDbEntity
  8
STATE
 62
     2
100
AcDbVertex
100
AcDb2dVertex
 10
2.762824164496528
 20
4.436008029513888
 30
0.0
  0
VERTEX
  5
2CE
330
40
100
AcDbEntity
  8
STATE
 62
     2
100
AcDbVertex
100
AcDb2dVertex
 10
2.5628662109375
 20
4.622694227430555
 30
0.0
  0
VERTEX
  5
2CF
330
40
100
AcDbEntity
  8
STATE
 62
     2
100
AcDbVertex
100
AcDb2dVertex
 10
2.526204427083333
 20
4.659356011284722
 30
0.0
  0
VERTEX
  5
2D0
330
40
100
AcDbEntity
  8
STATE
 62
     2
100
AcDbVertex
100
AcDb2dVertex
 10
2.482876247829861
 20
4.702690972222222
 30
0.0
  0
VERTEX
  5
2D1
330
40
100
AcDbEntity
  8
STATE
 62
     2
100
AcDbVertex
100
AcDb2dVertex
 10
2.40289306640625
 20
4.776028103298611
 30
0.0
  0
VERTEX
  5
2D2
330
40
100
AcDbEntity
  8
STATE
 62
     2
100
AcDbVertex
100
AcDb2dVertex
 10
2.346238878038194
 20
4.829372829861111
 30
0.0
  0
VERTEX
  5
2D3
330
40
100
AcDbEntity
  8
STATE
 62
     2
100
AcDbVertex
100
AcDb2dVertex
 10
2.242919921875
 20
4.929375542534722
 30
0.0
  0
VERTEX
  5
2D4
330
40
100
AcDbEntity
  8
STATE
 62
     2
100
AcDbVertex
100
AcDb2dVertex
 10
2.206264919704861
 20
4.962714301215278
 30
0.0
  0
VERTEX
  5
2D5
330
40
100
AcDbEntity
  8
STATE
 62
     2
100
AcDbVertex
100
AcDb2dVertex
 10
2.179599338107639
 20
4.986056857638888
 30
0.0
  0
VERTEX
  5
2D6
330
40
100
AcDbEntity
  8
STATE
 62
     2
100
AcDbVertex
100
AcDb2dVertex
 10
2.149603949652778
 20
5.016059027777778
 30
0.0
  0
VERTEX
  5
2D7
330
40
100
AcDbEntity
  8
STATE
 62
     2
100
AcDbVertex
100
AcDb2dVertex
 10
2.129611545138889
 20
5.032728407118055
 30
0.0
  0
VERTEX
  5
2D8
330
40
100
AcDbEntity
  8
STATE
 62
     2
100
AcDbVertex
100
AcDb2dVertex
 10
2.079616970486111
 20
5.079399956597222
 30
0.0
  0
VERTEX
  5
2D9
330
40
100
AcDbEntity
  8
STATE
 62
     2
100
AcDbVertex
100
AcDb2dVertex
 10
2.009629991319444
 20
5.146077473958333
 30
0.0
  0
VERTEX
  5
2DA
330
40
100
AcDbEntity
  8
STATE
 62
     2
100
AcDbVertex
100
AcDb2dVertex
 10
1.979634602864583
 20
5.176066080729166
 30
0.0
  0
VERTEX
  5
2DB
330
40
100
AcDbEntity
  8
STATE
 62
     2
100
AcDbVertex
100
AcDb2dVertex
 10
1.922980414496528
 20
5.22607421875
 30
0.0
  0
VERTEX
  5
2DC
330
40
100
AcDbEntity
  8
STATE
 62
     2
100
AcDbVertex
100
AcDb2dVertex
 10
1.889655219184028
 20
5.259412977430555
 30
0.0
  0
VERTEX
  5
2DD
330
40
100
AcDbEntity
  8
STATE
 62
     2
100
AcDbVertex
100
AcDb2dVertex
 10
1.832994249131944
 20
5.312757703993055
 30
0.0
  0
VERTEX
  5
2DE
330
40
100
AcDbEntity
  8
STATE
 62
     2
100
AcDbVertex
100
AcDb2dVertex
 10
1.816331651475694
 20
5.329427083333333
 30
0.0
  0
VERTEX
  5
2DF
330
40
100
AcDbEntity
  8
STATE
 62
     2
100
AcDbVertex
100
AcDb2dVertex
 10
1.783006456163194
 20
5.359429253472222
 30
0.0
  0
VERTEX
  5
2E0
330
40
100
AcDbEntity
  8
STATE
 62
     2
100
AcDbVertex
100
AcDb2dVertex
 10
1.753011067708333
 20
5.389431423611111
 30
0.0
  0
VERTEX
  5
2E1
330
40
100
AcDbEntity
  8
STATE
 62
     2
100
AcDbVertex
100
AcDb2dVertex
 10
1.749681260850694
 20
5.392754448784722
 30
0.0
  0
VERTEX
  5
2E2
330
40
100
AcDbEntity
  8
STATE
 62
     2
100
AcDbVertex
100
AcDb2dVertex
 10
1.663031684027778
 20
5.4727783203125
 30
0.0
  0
VERTEX
  5
2E3
330
40
100
AcDbEntity
  8
STATE
 62
     2
100
AcDbVertex
100
AcDb2dVertex
 10
1.6463623046875
 20
5.489434136284722
 30
0.0
  0
VERTEX
  5
2E4
330
40
100
AcDbEntity
  8
STATE
 62
     2
100
AcDbVertex
100
AcDb2dVertex
 10
1.613037109375
 20
5.519443088107638
 30
0.0
  0
VERTEX
  5
2E5
330
40
100
AcDbEntity
  8
STATE
 62
     2
100
AcDbVertex
100
AcDb2dVertex
 10
1.559712727864583
 20
5.569444444444444
 30
0.0
  0
VERTEX
  5
2E6
330
40
100
AcDbEntity
  8
STATE
 62
     2
100
AcDbVertex
100
AcDb2dVertex
 10
1.559712727864583
 20
5.572781032986111
 30
0.0
  0
VERTEX
  5
2E7
330
40
100
AcDbEntity
  8
STATE
 62
     2
100
AcDbVertex
100
AcDb2dVertex
 10
1.556382921006944
 20
5.572781032986111
 30
0.0
  0
VERTEX
  5
2E8
330
40
100
AcDbEntity
  8
STATE
 62
     2
100
AcDbVertex
100
AcDb2dVertex
 10
1.553046332465278
 20
5.576117621527778
 30
0.0
  0
VERTEX
  5
2E9
330
40
100
AcDbEntity
  8
STATE
 62
     2
100
AcDbVertex
100
AcDb2dVertex
 10
1.513054741753472
 20
5.612786187065972
 30
0.0
  0
VERTEX
  5
2EA
330
40
100
AcDbEntity
  8
STATE
 62
     2
100
AcDbVertex
100
AcDb2dVertex
 10
1.506388346354167
 20
5.619452582465278
 30
0.0
  0
VERTEX
  5
2EB
330
40
100
AcDbEntity
  8
STATE
 62
     2
100
AcDbVertex
100
AcDb2dVertex
 10
1.426405164930556
 20
5.696126302083333
 30
0.0
  0
VERTEX
  5
2EC
330
40
100
AcDbEntity
  8
STATE
 62
     2
100
AcDbVertex
100
AcDb2dVertex
 10
1.376417371961806
 20
5.7427978515625
 30
0.0
  0
VERTEX
  5
2ED
330
40
100
AcDbEntity
  8
STATE
 62
     2
100
AcDbVertex
100
AcDb2dVertex
 10
1.316426595052083
 20
5.799472384982638
 30
0.0
  0
VERTEX
  5
2EE
330
40
100
AcDbEntity
  8
STATE
 62
     2
100
AcDbVertex
100
AcDb2dVertex
 10
1.276435004340278
 20
5.836140950520833
 30
0.0
  0
VERTEX
  5
2EF
330
40
100
AcDbEntity
  8
STATE
 62
     2
100
AcDbVertex
100
AcDb2dVertex
 10
1.276435004340278
 20
5.8394775390625
 30
0.0
  0
VERTEX
  5
2F0
330
40
100
AcDbEntity
  8
STATE
 62
     2
100
AcDbVertex
100
AcDb2dVertex
 10
1.273098415798611
 20
5.8394775390625
 30
0.0
  0
VERTEX
  5
2F1
330
40
100
AcDbEntity
  8
STATE
 62
     2
100
AcDbVertex
100
AcDb2dVertex
 10
1.199781629774306
 20
5.90948486328125
 30
0.0
  0
VERTEX
  5
2F2
330
40
100
AcDbEntity
  8
STATE
 62
     2
100
AcDbVertex
100
AcDb2dVertex
 10
1.156453450520833
 20
5.949483235677083
 30
0.0
  0
VERTEX
  5
2F3
330
40
100
AcDbEntity
  8
STATE
 62
     2
100
AcDbVertex
100
AcDb2dVertex
 10
1.093132866753472
 20
6.012824164496528
 30
0.0
  0
VERTEX
  5
2F4
330
40
100
AcDbEntity
  8
STATE
 62
     2
100
AcDbVertex
100
AcDb2dVertex
 10
1.063137478298611
 20
6.036159939236111
 30
0.0
  0
VERTEX
  5
2F5
330
40
100
AcDbEntity
  8
STATE
 62
     2
100
AcDbVertex
100
AcDb2dVertex
 10
0.9931504991319444
 20
6.102837456597222
 30
0.0
  0
VERTEX
  5
2F6
330
40
100
AcDbEntity
  8
STATE
 62
     2
100
AcDbVertex
100
AcDb2dVertex
 10
0.9298299153645833
 20
6.162841796875
 30
0.0
  0
VERTEX
  5
2F7
330
40
100
AcDbEntity
  8
STATE
 62
     2
100
AcDbVertex
100
AcDb2dVertex
 10
0.9265001085069444
 20
6.166171603732638
 30
0.0
  0
VERTEX
  5
2F8
330
40
100
AcDbEntity
  8
STATE
 62
     2
100
AcDbVertex
100
AcDb2dVertex
 10
0.9164971245659722
 20
6.176174587673611
 30
0.0
  0
VERTEX
  5
2F9
330
40
100
AcDbEntity
  8
STATE
 62
     2
100
AcDbVertex
100
AcDb2dVertex
 10
0.8898383246527777
 20
6.202846950954861
 30
0.0
  0
VERTEX
  5
2FA
330
40
100
AcDbEntity
  8
STATE
 62
     2
100
AcDbVertex
100
AcDb2dVertex
 10
0.8865085177951388
 20
6.202846950954861
 30
0.0
  0
VERTEX
  5
2FB
330
40
100
AcDbEntity
  8
STATE
 62
     2
100
AcDbVertex
100
AcDb2dVertex
 10
0.8865085177951388
 20
6.2061767578125
 30
0.0
  0
VERTEX
  5
2FC
330
40
100
AcDbEntity
  8
STATE
 62
     2
100
AcDbVertex
100
AcDb2dVertex
 10
0.8831719292534722
 20
6.209513346354166
 30
0.0
  0
VERTEX
  5
2FD
330
40
100
AcDbEntity
  8
STATE
 62
     2
100
AcDbVertex
100
AcDb2dVertex
 10
0.8765055338541666
 20
6.212843153211805
 30
0.0
  0
VERTEX
  5
2FE
330
40
100
AcDbEntity
  8
STATE
 62
     2
100
AcDbVertex
100
AcDb2dVertex
 10
0.8765055338541666
 20
6.216179741753472
 30
0.0
  0
VERTEX
  5
2FF
330
40
100
AcDbEntity
  8
STATE
 62
     2
100
AcDbVertex
100
AcDb2dVertex
 10
0.8598429361979166
 20
6.229512532552083
 30
0.0
  0
VERTEX
  5
300
330
40
100
AcDbEntity
  8
STATE
 62
     2
100
AcDbVertex
100
AcDb2dVertex
 10
0.8598429361979166
 20
6.23284912109375
 30
0.0
  0
VERTEX
  5
301
330
40
100
AcDbEntity
  8
STATE
 62
     2
100
AcDbVertex
100
AcDb2dVertex
 10
0.8331773546006944
 20
6.256184895833333
 30
0.0
  0
VERTEX
  5
302
330
40
100
AcDbEntity
  8
STATE
 62
     2
100
AcDbVertex
100
AcDb2dVertex
 10
0.82318115234375
 20
6.266187879774305
 30
0.0
  0
VERTEX
  5
303
330
40
100
AcDbEntity
  8
STATE
 62
     2
100
AcDbVertex
100
AcDb2dVertex
 10
0.82318115234375
 20
6.27618408203125
 30
0.0
  0
VERTEX
  5
304
330
40
100
AcDbEntity
  8
STATE
 62
     2
100
AcDbVertex
100
AcDb2dVertex
 10
0.82318115234375
 20
6.319525824652778
 30
0.0
  0
VERTEX
  5
305
330
40
100
AcDbEntity
  8
STATE
 62
     2
100
AcDbVertex
100
AcDb2dVertex
 10
0.82318115234375
 20
6.366197374131944
 30
0.0
  0
VERTEX
  5
306
330
40
100
AcDbEntity
  8
STATE
 62
     2
100
AcDbVertex
100
AcDb2dVertex
 10
0.8265109592013888
 20
6.429538302951388
 30
0.0
  0
VERTEX
  5
307
330
40
100
AcDbEntity
  8
STATE
 62
     2
100
AcDbVertex
100
AcDb2dVertex
 10
0.8265109592013888
 20
6.459540473090278
 30
0.0
  0
VERTEX
  5
308
330
40
100
AcDbEntity
  8
STATE
 62
     2
100
AcDbVertex
100
AcDb2dVertex
 10
0.8265109592013888
 20
6.506212022569444
 30
0.0
  0
SEQEND
  5
309
330
40
100
AcDbEntity
  8
STATE
  0
POLYLINE
  5
30A
330
3C
100
AcDbEntity
  8
STATE
100
AcDb2dPolyline
 66
     1
 10
0.0
 20
0.0
 30
0.0
  0
VERTEX
  5
30B
330
30A
100
AcDbEntity
  8
STATE
100
AcDbVertex
100
AcDb2dVertex
 10
0.0933159722222222
 20
0.0988905164930556
 30
0.0
  0
VERTEX
  5
30C
330
30A
100
AcDbEntity
  8
STATE
100
AcDbVertex
100
AcDb2dVertex
 10
0.0933159722222222
 20
10.80664740668403
 30
0.0
  0
VERTEX
  5
30D
330
30A
100
AcDbEntity
  8
STATE
100
AcDbVertex
100
AcDb2dVertex
 10
8.40512424045139
 20
10.80664740668403
 30
0.0
  0
VERTEX
  5
30E
330
30A
100
AcDbEntity
  8
STATE
100
AcDbVertex
100
AcDb2dVertex
 10
8.40512424045139
 20
0.0988905164930556
 30
0.0
  0
VERTEX
  5
30F
330
30A
100
AcDbEntity
  8
STATE
100
AcDbVertex
100
AcDb2dVertex
 10
0.0933159722222222
 20
0.0988905164930556
 30
0.0
  0
SEQEND
  5
310
330
30A
100
AcDbEntity
  8
STATE
  0
ENDBLK
  5
3F
330
3C
100
AcDbEntity
  8
0
100
AcDbBlockEnd
  0
ENDSEC
  0
SECTION
  2
ENTITIES
  0
INSERT
  5
3D
330
1F
100
AcDbEntity
  8
STATE
100
AcDbBlockReference
  2
BLOCK_2
 10
0.0
 20
0.0
 30
0.0
  0
ENDSEC
  0
SECTION
  2
OBJECTS
  0
DICTIONARY
  5
C
330
0
100
AcDbDictionary
  3
ACAD_GROUP
350
D
  3
ACAD_LAYOUT
350
1A
  3
ACAD_MLINESTYLE
350
17
  3
ACAD_PLOTSETTINGS
350
19
  3
ACAD_TABLESTYLE
350
331
  3
ACAD_VISUALSTYLE
350
2A
  3
ACDBHEADERROUNDTRIPXREC
350
311
  0
DICTIONARY
  5
D
102
{ACAD_REACTORS
330
C
102
}
330
C
100
AcDbDictionary
  0
DICTIONARY
  5
1A
102
{ACAD_REACTORS
330
C
102
}
330
C
100
AcDbDictionary
  0
DICTIONARY
  5
17
102
{ACAD_REACTORS
330
C
102
}
330
C
100
AcDbDictionary
  3
STANDARD
350
18
  0
DICTIONARY
  5
19
102
{ACAD_REACTORS
330
C
102
}
330
C
100
AcDbDictionary
  0
DICTIONARY
  5
331
102
{ACAD_REACTORS
330
C
102
}
330
C
100
AcDbDictionary
  0
DICTIONARY
  5
2A
102
{ACAD_REACTORS
330
C
102
}
330
C
100
AcDbDictionary
  3
2DWIREFRAME
350
2F
  3
3D_HIDDEN
350
31
  3
3DWIREFRAME
350
30
  3
BASIC
350
32
  3
BRIGHTEN
350
36
  3
COLORCHANGE
350
3A
  3
CONCEPTUAL
350
34
  3
DIM
350
35
  3
FACEPATTERN
350
39
  3
FLAT
350
2B
  3
FLATWITHEDGES
350
2C
  3
GOURAUD
350
2D
  3
GOURAUDWITHEDGES
350
2E
  3
LINEPATTERN
350
38
  3
REALISTIC
350
33
  3
THICKEN
350
37
  0
DICTIONARY
  5
311
102
{ACAD_REACTORS
330
C
102
}
330
C
100
AcDbDictionary
  3
CEPSNTYPE
350
31A
  3
DIMSTYLEDATA
350
330
  3
FINGERPRINTGUID
350
31B
  3
HYPERLINKBASE
350
314
  3
INSUNITS
350
319
  3
LAYOUTDICT
350
316
  3
LWETCUNION
350
318
  3
PLOTSETDICT
350
317
  3
PSVPSCALE
350
31D
  3
PUCSBASE
350
320
  3
PUCSORGBACK
350
326
  3
PUCSORGBOTTOM
350
322
  3
PUCSORGFRONT
350
325
  3
PUCSORGLEFT
350
323
  3
PUCSORGRIGHT
350
324
  3
PUCSORGTOP
350
321
  3
PUCSORTHOREF
350
31E
  3
PUCSORTHOVIEW
350
31F
  3
STYLESHEET
350
315
  3
TSTACKALIGN
350
312
  3
TSTACKSIZE
350
313
  3
UCSBASE
350
329
  3
UCSORGBACK
350
32F
  3
UCSORGBOTTOM
350
32B
  3
UCSORGFRONT
350
32E
  3
UCSORGLEFT
350
32C
  3
UCSORGRIGHT
350
32D
  3
UCSORGTOP
350
32A
  3
UCSORTHOREF
350
327
  3
UCSORTHOVIEW
350
328
  3
VERSIONGUID
350
31C
  0
MLINESTYLE
  5
18
102
{ACAD_REACTORS
330
17
102
}
330
17
100
AcDbMlineStyle
  2
Standard
 70
     0
  3

 62
   256
 51
90.0
 52
90.0
 71
     2
 49
0.5
 62
   256
  6
BYLAYER
 49
-0.5
 62
   256
  6
BYLAYER
  0
VISUALSTYLE
  5
2F
102
{ACAD_REACTORS
330
2A
102
}
330
2A
100
AcDbVisualStyle
  2
2dWireframe
 70
     4
 71
     0
 72
     2
 73
     0
 90
        0
 40
-0.6
 41
-30.0
 62
     5
 63
     7
 74
     1
 91
        4
 64
     7
 65
   257
 75
     1
175
     1
 42
1.0
 92
        0
 66
   257
 43
1.0
 76
     1
 77
     6
 78
     2
 67
     7
 79
     5
170
     0
171
     0
290
     0
174
     0
 93
        1
 44
0.0
173
     0
291
     0
 45
0.0
1001
ACAD
1000
AcDbSavedByObjectVersion
1070
     0
  0
VISUALSTYLE
  5
31
102
{ACAD_REACTORS
330
2A
102
}
330
2A
100
AcDbVisualStyle
  2
3D Hidden
 70
     6
 71
     1
 72
     2
 73
     2
 90
        0
 40
-0.6
 41
-30.0
 62
     5
 63
     7
 74
     2
 91
        2
 64
     7
 65
   257
 75
     2
175
     1
 42
40.0
 92
        0
 66
   257
 43
1.0
 76
     1
 77
     6
 78
     2
 67
     7
 79
     3
170
     0
171
     0
290
     0
174
     0
 93
        1
 44
0.0
173
     0
291
     0
 45
0.0
1001
ACAD
1000
AcDbSavedByObjectVersion
1070
     0
  0
VISUALSTYLE
  5
30
102
{ACAD_REACTORS
330
2A
102
}
330
2A
100
AcDbVisualStyle
  2
3dWireframe
 70
     5
 71
     0
 72
     2
 73
     0
 90
        0
 40
-0.6
 41
-30.0
 62
     5
 63
     7
 74
     1
 91
        4
 64
     7
 65
   257
 75
     1
175
     1
 42
1.0
 92
        0
 66
   257
 43
1.0
 76
     1
 77
     6
 78
     2
 67
     7
 79
     5
170
     0
171
     0
290
     0
174
     0
 93
        1
 44
0.0
173
     0
291
     0
 45
0.0
1001
ACAD
1000
AcDbSavedByObjectVersion
1070
     0
  0
VISUALSTYLE
  5
32
102
{ACAD_REACTORS
330
2A
102
}
330
2A
100
AcDbVisualStyle
  2
Basic
 70
     7
 71
     1
 72
     0
 73
     1
 90
        0
 40
-0.6
 41
-30.0
 62
     5
 63
     7
 74
     0
 91
        4
 64
     7
 65
   257
 75
     1
175
     1
 42
1.0
 92
        8
 66
     7
 43
1.0
 76
     1
 77
     6
 78
     2
 67
     7
 79
     5
170
     0
171
     0
290
     0
174
     0
 93
        1
 44
0.0
173
     0
291
     1
 45
0.0
1001
ACAD
1000
AcDbSavedByObjectVersion
1070
     0
  0
VISUALSTYLE
  5
36
102
{ACAD_REACTORS
330
2A
102
}
330
2A
100
AcDbVisualStyle
  2
Brighten
 70
    12
 71
     2
 72
     2
 73
     0
 90
        0
 40
-0.6
 41
-30.0
 62
     5
 63
     7
 74
     1
 91
        4
 64
     7
 65
   257
 75
     1
175
     1
 42
1.0
 92
        8
 66
     7
 43
1.0
 76
     1
 77
     6
 78
     2
 67
     7
 79
     5
170
     0
171
     0
290
     0
174
     0
 93
        1
 44
50.0
173
     0
291
     1
 45
0.0
1001
ACAD
1000
AcDbSavedByObjectVersion
1070
     0
  0
VISUALSTYLE
  5
3A
102
{ACAD_REACTORS
330
2A
102
}
330
2A
100
AcDbVisualStyle
  2
ColorChange
 70
    16
 71
     2
 72
     2
 73
     3
 90
        0
 40
-0.6
 41
-30.0
 62
     5
 63
     8
 74
     1
 91
        4
 64
     7
 65
   257
 75
     1
175
     1
 42
1.0
 92
        8
 66
     8
 43
1.0
 76
     1
 77
     6
 78
     2
 67
     7
 79
     5
170
     0
171
     0
290
     0
174
     0
 93
        1
 44
0.0
173
     0
291
     1
 45
0.0
1001
ACAD
1000
AcDbSavedByObjectVersion
1070
     0
  0
VISUALSTYLE
  5
34
102
{ACAD_REACTORS
330
2A
102
}
330
2A
100
AcDbVisualStyle
  2
Conceptual
 70
     9
 71
     3
 72
     2
 73
     0
 90
        0
 40
-0.6
 41
-30.0
 62
     5
 63
     7
 74
     2
 91
        2
 64
     7
 65
   257
 75
     1
175
     1
 42
40.0
 92
        8
 66
     7
 43
1.0
 76
     1
 77
     6
 78
     2
 67
     7
 79
     3
170
     0
171
     0
290
     0
174
     0
 93
        1
 44
0.0
173
     0
291
     0
 45
0.0
1001
ACAD
1000
AcDbSavedByObjectVersion
1070
     0
  0
VISUALSTYLE
  5
35
102
{ACAD_REACTORS
330
2A
102
}
330
2A
100
AcDbVisualStyle
  2
Dim
 70
    11
 71
     2
 72
     2
 73
     0
 90
        0
 40
-0.6
 41
-30.0
 62
     5
 63
     7
 74
     1
 91
        4
 64
     7
 65
   257
 75
     1
175
     1
 42
1.0
 92
        8
 66
     7
 43
1.0
 76
     1
 77
     6
 78
     2
 67
     7
 79
     5
170
     0
171
     0
290
     0
174
     0
 93
        1
 44
-50.0
173
     0
291
     1
 45
0.0
1001
ACAD
1000
AcDbSavedByObjectVersion
1070
     0
  0
VISUALSTYLE
  5
39
102
{ACAD_REACTORS
330
2A
102
}
330
2A
100
AcDbVisualStyle
  2
Facepattern
 70
    15
 71
     2
 72
     2
 73
     0
 90
        0
 40
-0.6
 41
-30.0
 62
     5
 63
     7
 74
     1
 91
        4
 64
     7
 65
   257
 75
     1
175
     1
 42
1.0
 92
        8
 66
     7
 43
1.0
 76
     1
 77
     6
 78
     2
 67
     7
 79
     5
170
     0
171
     0
290
     0
174
     0
 93
        1
 44
0.0
173
     0
291
     1
 45
0.0
1001
ACAD
1000
AcDbSavedByObjectVersion
1070
     0
  0
VISUALSTYLE
  5
2B
102
{ACAD_REACTORS
330
2A
102
}
330
2A
100
AcDbVisualStyle
  2
Flat
 70
     0
 71
     2
 72
     1
 73
     1
 90
        2
 40
-0.6
 41
30.0
 62
     5
 63
     7
 74
     0
 91
        4
 64
     7
 65
   257
 75
     1
175
     1
 42
1.0
 92
        8
 66
     7
 43
1.0
 76
     1
 77
     6
 78
     2
 67
     7
 79
     5
170
     0
171
     0
290
     0
174
     0
 93
       13
 44
0.0
173
     0
291
     1
 45
0.0
1001
ACAD
1000
AcDbSavedByObjectVersion
1070
     0
  0
VISUALSTYLE
  5
2C
102
{ACAD_REACTORS
330
2A
102
}
330
2A
100
AcDbVisualStyle
  2
FlatWithEdges
 70
     1
 71
     2
 72
     1
 73
     1
 90
        2
 40
-0.6
 41
30.0
 62
     5
 63
     7
 74
     1
 91
        4
 64
     7
 65
   257
 75
     1
175
     1
 42
1.0
 92
        0
 66
   257
 43
1.0
 76
     1
 77
     6
 78
     2
 67
     7
 79
     5
170
     0
171
     0
290
     0
174
     0
 93
       13
 44
0.0
173
     0
291
     1
 45
0.0
1001
ACAD
1000
AcDbSavedByObjectVersion
1070
     0
  0
VISUALSTYLE
  5
2D
102
{ACAD_REACTORS
330
2A
102
}
330
2A
100
AcDbVisualStyle
  2
Gouraud
 70
     2
 71
     2
 72
     2
 73
     1
 90
        2
 40
-0.6
 41
30.0
 62
     5
 63
     7
 74
     0
 91
        4
 64
     7
 65
   257
 75
     1
175
     1
 42
1.0
 92
        0
 66
     7
 43
1.0
 76
     1
 77
     6
 78
     2
 67
     7
 79
     5
170
     0
171
     0
290
     0
174
     0
 93
       13
 44
0.0
173
     0
291
     1
 45
0.0
1001
ACAD
1000
AcDbSavedByObjectVersion
1070
     0
  0
VISUALSTYLE
  5
2E
102
{ACAD_REACTORS
330
2A
102
}
330
2A
100
AcDbVisualStyle
  2
GouraudWithEdges
 70
     3
 71
     2
 72
     2
 73
     1
 90
        2
 40
-0.6
 41
30.0
 62
     5
 63
     7
 74
     1
 91
        4
 64
     7
 65
   257
 75
     1
175
     1
 42
1.0
 92
        0
 66
   257
 43
1.0
 76
     1
 77
     6
 78
     2
 67
     7
 79
     5
170
     0
171
     0
290
     0
174
     0
 93
       13
 44
0.0
173
     0
291
     1
 45
0.0
1001
ACAD
1000
AcDbSavedByObjectVersion
1070
     0
  0
VISUALSTYLE
  5
38
102
{ACAD_REACTORS
330
2A
102
}
330
2A
100
AcDbVisualStyle
  2
Linepattern
 70
    14
 71
     2
 72
     2
 73
     0
 90
        0
 40
-0.6
 41
-30.0
 62
     5
 63
     7
 74
     1
 91
        4
 64
     7
 65
   257
 75
     7
175
     7
 42
1.0
 92
        8
 66
     7
 43
1.0
 76
     1
 77
     6
 78
     2
 67
     7
 79
     5
170
     0
171
     0
290
     0
174
     0
 93
        1
 44
0.0
173
     0
291
     1
 45
0.0
1001
ACAD
1000
AcDbSavedByObjectVersion
1070
     0
  0
VISUALSTYLE
  5
33
102
{ACAD_REACTORS
330
2A
102
}
330
2A
100
AcDbVisualStyle
  2
Realistic
 70
     8
 71
     2
 72
     2
 73
     0
 90
        0
 40
-0.6
 41
-30.0
 62
     5
 63
     7
 74
     1
 91
        0
 64
     7
 65
   257
 75
     1
175
     1
 42
1.0
 92
        8
 66
     8
 43
1.0
 76
     1
 77
     6
 78
     2
 67
     7
 79
     5
170
     0
171
     0
290
     0
174
     0
 93
       13
 44
0.0
173
     0
291
     0
 45
0.0
1001
ACAD
1000
AcDbSavedByObjectVersion
1070
     0
  0
VISUALSTYLE
  5
37
102
{ACAD_REACTORS
330
2A
102
}
330
2A
100
AcDbVisualStyle
  2
Thicken
 70
    13
 71
     2
 72
     2
 73
     0
 90
        0
 40
-0.6
 41
-30.0
 62
     5
 63
     7
 74
     1
 91
        4
 64
     7
 65
   257
 75
     1
175
     1
 42
1.0
 92
       12
 66
     7
 43
1.0
 76
     1
 77
     6
 78
     2
 67
     7
 79
     5
170
     0
171
     0
290
     0
174
     0
 93
        1
 44
0.0
173
     0
291
     1
 45
0.0
1001
ACAD
1000
AcDbSavedByObjectVersion
1070
     0
  0
XRECORD
  5
31A
102
{ACAD_REACTORS
330
311
102
}
330
311
100
AcDbXrecord
 90
        0
  0
XRECORD
  5
330
102
{ACAD_REACTORS
330
311
102
}
330
311
100
AcDbXrecord
1000
DSTYLE
1002
{
1070
   340
340
11
1002
}
  0
XRECORD
  5
31B
102
{ACAD_REACTORS
330
311
102
}
330
311
100
AcDbXrecord
  1
{636E1757-A0B1-42D9-AB65-CE0F7FA87C5B}
  0
XRECORD
  5
314
102
{ACAD_REACTORS
330
311
102
}
330
311
100
AcDbXrecord
  1

  0
XRECORD
  5
319
102
{ACAD_REACTORS
330
311
102
}
330
311
100
AcDbXrecord
 90
        1
  0
XRECORD
  5
316
102
{ACAD_REACTORS
330
311
102
}
330
311
100
AcDbXrecord
340
1A
  0
XRECORD
  5
318
102
{ACAD_REACTORS
330
311
102
}
330
311
100
AcDbXrecord
 90
    10269
  0
XRECORD
  5
317
102
{ACAD_REACTORS
330
311
102
}
330
311
100
AcDbXrecord
340
19
  0
XRECORD
  5
31D
102
{ACAD_REACTORS
330
311
102
}
330
311
100
AcDbXrecord
 40
0.0
  0
XRECORD
  5
320
102
{ACAD_REACTORS
330
311
102
}
330
311
100
AcDbXrecord
340
0
  0
XRECORD
  5
326
102
{ACAD_REACTORS
330
311
102
}
330
311
100
AcDbXrecord
 10
0.0
 20
0.0
 30
0.0
  0
XRECORD
  5
322
102
{ACAD_REACTORS
330
311
102
}
330
311
100
AcDbXrecord
 10
0.0
 20
0.0
 30
0.0
  0
XRECORD
  5
325
102
{ACAD_REACTORS
330
311
102
}
330
311
100
AcDbXrecord
 10
0.0
 20
0.0
 30
0.0
  0
XRECORD
  5
323
102
{ACAD_REACTORS
330
311
102
}
330
311
100
AcDbXrecord
 10
0.0
 20
0.0
 30
0.0
  0
XRECORD
  5
324
102
{ACAD_REACTORS
330
311
102
}
330
311
100
AcDbXrecord
 10
0.0
 20
0.0
 30
0.0
  0
XRECORD
  5
321
102
{ACAD_REACTORS
330
311
102
}
330
311
100
AcDbXrecord
 10
0.0
 20
0.0
 30
0.0
  0
XRECORD
  5
31E
102
{ACAD_REACTORS
330
311
102
}
330
311
100
AcDbXrecord
340
0
  0
XRECORD
  5
31F
102
{ACAD_REACTORS
330
311
102
}
330
311
100
AcDbXrecord
 70
     0
  0
XRECORD
  5
315
102
{ACAD_REACTORS
330
311
102
}
330
311
100
AcDbXrecord
  1

  0
XRECORD
  5
312
102
{ACAD_REACTORS
330
311
102
}
330
311
100
AcDbXrecord
 90
        1
  0
XRECORD
  5
313
102
{ACAD_REACTORS
330
311
102
}
330
311
100
AcDbXrecord
 90
       70
  0
XRECORD
  5
329
102
{ACAD_REACTORS
330
311
102
}
330
311
100
AcDbXrecord
340
0
  0
XRECORD
  5
32F
102
{ACAD_REACTORS
330
311
102
}
330
311
100
AcDbXrecord
 10
0.0
 20
0.0
 30
0.0
  0
XRECORD
  5
32B
102
{ACAD_REACTORS
330
311
102
}
330
311
100
AcDbXrecord
 10
0.0
 20
0.0
 30
0.0
  0
XRECORD
  5
32E
102
{ACAD_REACTORS
330
311
102
}
330
311
100
AcDbXrecord
 10
0.0
 20
0.0
 30
0.0
  0
XRECORD
  5
32C
102
{ACAD_REACTORS
330
311
102
}
330
311
100
AcDbXrecord
 10
0.0
 20
0.0
 30
0.0
  0
XRECORD
  5
32D
102
{ACAD_REACTORS
330
311
102
}
330
311
100
AcDbXrecord
 10
0.0
 20
0.0
 30
0.0
  0
XRECORD
  5
32A
102
{ACAD_REACTORS
330
311
102
}
330
311
100
AcDbXrecord
 10
0.0
 20
0.0
 30
0.0
  0
XRECORD
  5
327
102
{ACAD_REACTORS
330
311
102
}
330
311
100
AcDbXrecord
340
0
  0
XRECORD
  5
328
102
{ACAD_REACTORS
330
311
102
}
330
311
100
AcDbXrecord
 70
     0
  0
XRECORD
  5
31C
102
{ACAD_REACTORS
330
311
102
}
330
311
100
AcDbXrecord
  1
{FAEB1C32-E019-11D5-929B-00C0DF256EC4}
  0
ENDSEC
  0
EOF
