<?xml version="1.0" encoding="utf-8"?>
<!-- Generator: Adobe Illustrator 15.1.0, SVG Export Plug-In . SVG Version: 6.00 Build 0)  -->
<!DOCTYPE svg PUBLIC "-//W3C//DTD SVG 1.1//EN" "http://www.w3.org/Graphics/SVG/1.1/DTD/svg11.dtd">
<svg version="1.1" id="State" xmlns="http://www.w3.org/2000/svg" xmlns:xlink="http://www.w3.org/1999/xlink" x="0px" y="0px"
	 width="1296px" height="1296px" viewBox="0 0 1296 1296" enable-background="new 0 0 1296 1296" xml:space="preserve">
<g>
	<defs>
		<rect id="SVGID_1_" x="349.219" y="266.421" width="598.45" height="770.958"/>
	</defs>
	<clipPath id="SVGID_2_">
		<use xlink:href="#SVGID_1_"  overflow="visible"/>
	</clipPath>
	
		<polyline clip-path="url(#SVGID_2_)" fill="none" stroke="#B37C34" stroke-width="1.1998" stroke-linecap="round" stroke-linejoin="round" stroke-miterlimit="3.85" points="
		485.994,894.565 486.234,891.926 485.994,891.444 486.474,890.965 487.673,889.765 487.914,889.285 487.914,888.805 
		487.914,888.564 487.673,888.564 486.713,886.645 486.474,885.685 487.193,884.965 487.914,884.484 488.873,883.284 
		489.113,883.044 489.113,882.805 488.873,881.124 488.633,879.443 488.633,878.244 489.113,876.563 489.593,875.604 
		489.593,875.363 489.833,875.123 490.073,874.403 490.073,874.163 489.833,873.923 489.353,872.963 488.873,871.283 
		489.113,868.883 489.593,867.442 489.833,867.202 491.033,866.723 491.273,866.482 492.473,866.002 492.473,865.762 
		492.712,865.762 493.912,863.603 495.352,860.481 496.792,854.722 497.992,852.081 497.992,851.841 497.992,851.602 
		497.751,851.121 497.751,850.881 497.512,850.881 496.552,849.921 495.352,847.761 495.112,847.04 495.112,846.801 
		495.112,846.561 495.352,846.081 495.352,845.84 495.832,845.12 495.832,844.881 497.032,842.72 497.271,842.24 497.992,841.52 
		498.231,841.52 499.191,840.08 499.191,839.84 499.191,839.6 498.951,839.36 498.231,839.36 497.271,839.36 497.032,839.36 
		496.552,839.36 494.632,837.919 494.152,837.439 494.152,836.96 493.912,834.079 494.152,833.119 494.632,831.919 496.312,830.239 
		496.552,829.759 497.032,826.398 497.271,824.478 497.512,823.278 498.231,819.438 498.231,818.957 498.231,818.718 
		498.231,817.757 498.231,816.798 498.472,816.558 498.472,815.598 498.711,814.877 499.191,813.677 499.431,813.197 
		498.951,809.117 498.951,808.637 499.191,808.156 500.631,806.717 501.111,806.236 501.111,805.516 501.351,805.276 
		501.351,805.036 501.591,802.636 501.591,802.396 501.591,802.156 501.591,801.676 501.591,801.195 500.631,799.275 
		499.671,798.315 498.472,797.115 497.992,796.396 497.992,795.676 498.472,793.995 498.472,793.515 498.472,792.795 
		498.951,791.595 499.671,791.835 499.671,791.595 499.911,791.355 500.151,791.114 500.871,789.675 501.111,789.435 
		501.831,787.994 501.591,783.914 501.351,781.754 501.351,781.273 501.831,779.354 502.071,778.634 503.031,777.193 
		503.271,777.193 503.511,776.953 505.19,775.993 508.07,774.793 511.669,771.673 512.149,771.433 512.389,771.193 512.629,770.713 
		512.629,769.752 512.629,769.513 512.389,769.272 512.389,769.033 512.149,769.033 511.669,768.553 511.189,767.353 
		511.189,765.912 511.669,764.231 512.389,763.752 512.869,762.792 512.869,762.552 512.389,762.072 512.389,761.592 
		512.389,761.352 512.629,761.111 512.869,761.111 512.869,760.872 513.109,760.872 513.829,760.392 515.269,759.912 
		515.508,759.432 515.508,759.191 515.508,758.231 515.269,757.752 515.269,757.511 515.508,756.071 515.508,755.592 
		515.748,755.352 515.748,755.111 515.748,754.871 515.988,754.871 516.228,754.631 516.468,753.911 517.188,752.711 
		517.428,751.99 517.668,750.551 517.908,749.591 517.668,748.631 517.188,748.15 517.188,747.91 517.428,746.23 517.428,745.99 
		517.428,745.75 517.428,745.511 517.428,745.27 517.428,744.551 517.908,742.87 517.908,742.63 518.148,742.15 518.628,741.43 
		519.587,740.71 520.067,740.229 521.267,738.549 521.747,737.59 522.707,736.39 523.427,735.669 524.387,733.749 525.826,733.749 
		526.306,733.509 529.666,731.349 530.625,730.869 532.065,729.909 532.305,729.909 532.785,729.188 533.745,727.748 
		533.985,727.269 534.225,727.269 534.465,726.548 534.945,725.588 535.425,724.868 535.665,724.628 536.864,724.389 
		537.584,723.908 537.824,723.668 538.064,723.428 538.064,721.988 537.824,720.308 538.064,719.588 538.304,719.348 
		539.744,718.147 539.984,717.668 540.464,716.947 540.944,715.027 542.144,714.066 542.383,713.106 542.383,712.146 
		542.383,711.906 541.903,710.947 541.423,709.506 541.423,709.026 541.903,707.826 542.624,706.626 542.863,705.906 
		542.624,702.785 541.664,700.386 541.664,699.665 542.383,697.506 542.624,697.025 542.863,696.785 543.343,696.785 
		544.303,696.785 545.743,696.064 545.503,695.346 545.503,694.865 545.263,694.625 545.023,693.905 544.543,692.944 
		544.783,691.744 545.023,691.265 545.263,691.024 545.983,691.265 547.183,690.785 547.422,690.544 547.663,689.344 
		548.143,688.145 549.102,686.704 550.542,685.744 552.461,684.544 555.341,681.904 555.821,681.424 556.061,680.703 
		556.301,677.823 556.301,677.344 556.061,677.103 556.061,676.863 555.821,675.184 555.821,674.943 555.821,674.463 
		556.061,674.223 556.301,673.982 556.541,673.982 557.5,673.982 558.46,673.503 558.7,673.022 559.9,671.103 559.9,670.863 
		559.42,670.143 559.66,669.662 559.9,669.423 561.58,668.942 561.58,668.702 560.38,668.223 558.7,667.742 558.221,667.742 
		557.5,668.463 556.781,668.463 556.781,668.223 556.781,667.742 557.021,666.782 557.261,666.062 557.261,665.582 557.261,663.422 
		557.021,662.702 556.301,661.502 556.301,660.781 556.541,660.541 557.98,659.102 558.94,658.381 558.94,658.141 558.7,656.701 
		558.7,656.222 558.7,655.741 558.7,655.501 559.18,655.021 559.9,654.781 559.9,655.021 560.62,655.501 561.1,656.222 
		561.1,656.461 561.1,656.701 561.58,656.701 561.82,656.461 561.82,655.981 561.58,655.741 560.62,654.541 560.62,653.581 
		560.86,653.101 560.86,652.621 561.34,652.381 561.58,652.381 562.78,653.341 563.26,653.101 563.5,652.621 563.5,651.66 
		563.5,651.42 563.5,651.181 563.739,650.94 563.979,650.94 564.699,650.46 564.939,649.98 564.699,649.501 563.979,648.06 
		563.979,647.58 563.979,647.1 564.219,647.1 564.219,646.86 564.459,646.62 564.939,646.38 566.619,645.42 567.579,645.18 
		567.339,644.7 566.139,643.98 566.139,643.74 566.379,643.02 566.859,642.78 568.059,643.02 568.539,642.78 568.778,642.54 
		569.258,641.1 570.218,639.899 570.218,639.179 569.738,638.459 569.738,638.219 569.738,637.979 571.418,637.739 571.658,637.739 
		571.898,637.739 572.138,638.219 572.378,638.459 572.618,638.459 572.858,638.459 573.098,638.459 573.338,638.219 
		573.578,637.979 573.578,637.739 573.578,637.499 573.338,637.019 572.138,636.539 570.458,635.339 570.218,634.859 
		570.458,634.379 570.698,634.139 571.898,634.379 572.858,634.139 573.098,633.899 573.338,633.899 573.338,633.659 
		573.578,632.938 573.817,631.739 573.817,631.259 573.338,630.778 572.618,630.298 572.138,630.298 571.898,630.298 
		571.658,630.539 571.418,631.019 571.418,631.739 571.418,631.979 571.178,631.979 571.178,632.219 570.938,632.219 
		570.698,632.219 570.218,631.979 569.979,631.739 569.738,631.499 569.738,631.259 569.499,631.019 569.499,630.778 
		569.499,630.298 569.258,630.059 569.019,628.378 569.019,627.658 569.499,625.498 570.698,624.538 571.658,624.058 
		571.898,624.058 572.378,624.298 572.618,624.298 573.338,622.377 573.338,622.138 572.618,621.658 571.658,620.697 
		571.658,620.217 571.658,619.017 571.418,616.857 571.658,616.377 571.898,615.897 572.138,615.417 572.138,615.177 
		571.658,613.977 570.698,613.737 570.458,613.737 569.499,612.057 568.539,608.696 567.819,607.256 566.859,605.816 
		567.099,603.896 567.339,603.416 568.059,602.936 568.299,602.456 568.539,601.255 568.299,600.775 569.258,598.615 
		569.499,598.375 569.499,598.135 569.499,597.655 569.258,596.695 569.499,595.735 569.979,593.575 570.698,592.135 
		570.458,591.654 570.458,591.415 570.218,590.694 569.979,590.455 569.499,589.734 568.299,587.334 568.059,585.174 
		568.059,584.694 568.299,584.694 568.299,584.454 568.539,584.214 568.539,583.974 568.539,583.254 568.059,583.254 
		567.339,583.974 566.859,583.734 566.619,583.014 567.099,581.333 568.539,578.693 569.499,577.493 570.938,577.253 
		572.378,575.813 572.858,575.573 573.578,574.373 573.817,573.893 573.817,573.173 573.817,570.532 573.578,570.052 
		573.578,569.092 574.538,568.612 575.257,568.852 575.977,569.092 576.457,569.332 577.417,569.092 578.377,568.852 
		579.816,567.892 582.696,566.692 583.176,566.212 583.416,564.772 584.136,564.532 587.735,564.772 588.935,564.532 
		591.574,564.292 592.774,565.012 593.494,565.012 594.694,564.532 595.414,563.092 597.093,561.892 599.253,561.412 
		599.973,561.651 600.213,561.651 600.453,561.892 604.292,563.812 605.492,564.532 606.212,564.772 606.452,564.772 
		606.691,564.772 608.371,563.812 610.051,563.572 611.491,562.852 611.73,562.611 613.17,561.651 614.13,560.932 615.57,560.451 
		617.01,560.211 617.97,559.731 618.209,559.491 618.209,559.011 618.209,558.531 617.729,557.091 617.49,556.131 617.729,555.651 
		618.209,555.171 618.209,554.931 618.209,554.691 617.729,554.211 617.49,553.73 617.97,552.05 618.209,551.811 618.929,551.57 
		620.129,551.57 620.609,551.331 620.849,551.09 620.849,550.851 620.129,549.65 620.129,549.17 620.369,548.93 622.049,547.25 
		622.769,546.77 625.168,547.01 625.648,546.53 626.368,546.05 627.328,545.33 627.808,545.09 628.048,545.09 628.528,545.09 
		629.728,545.09 629.967,545.33 630.927,546.53 631.887,546.53 632.367,546.53 632.367,546.29 632.847,545.33 632.847,545.09 
		633.087,544.85 633.327,544.37 633.567,544.13 633.807,544.13 634.526,543.89 635.726,543.89 635.966,543.89 637.166,543.89 
		637.646,543.89 637.886,544.13 638.126,543.89 639.326,543.649 640.286,542.93 641.005,542.45 642.685,541.009 643.885,540.289 
		645.084,539.089 645.084,537.889 645.084,537.409 645.084,537.169 645.564,536.929 647.244,536.689 648.204,536.209 
		648.684,535.729 648.684,535.249 648.924,535.249 648.924,535.009 649.164,534.289 649.164,534.049 649.644,531.889 
		650.364,529.968 650.604,529.728 652.044,529.968 652.523,529.728 653.003,529.008 652.764,528.528 651.803,527.568 
		651.323,527.328 651.323,526.608 651.563,526.368 651.803,525.888 652.283,525.408 653.243,525.168 654.443,523.488 
		654.683,523.248 654.923,523.248 655.162,523.248 655.402,523.248 655.883,523.488 656.123,523.968 656.603,523.968 
		657.082,523.248 657.322,523.248 657.322,523.007 657.563,522.768 657.802,522.768 659.242,523.248 659.722,523.007 
		660.922,522.768 661.161,522.768 661.161,522.527 661.401,522.288 661.401,522.047 661.642,521.567 661.881,520.367 
		662.121,519.887 662.121,519.167 662.121,518.687 662.602,518.687 662.841,518.687 663.081,518.687 663.081,518.927 
		663.081,519.167 663.321,519.167 663.561,519.167 663.802,519.167 663.802,518.927 663.802,517.967 664.281,517.967 
		665.001,518.207 665.001,518.447 665.24,518.447 665.24,518.207 665.481,518.207 665.481,517.967 665.721,517.967 665.721,517.727 
		665.481,517.487 664.521,516.527 664.041,516.047 663.802,515.087 663.802,514.606 662.602,513.887 662.361,513.407 
		662.121,512.687 662.602,512.446 663.561,512.446 664.041,512.446 664.521,511.966 665.721,510.286 666.201,509.326 
		666.44,508.606 666.44,508.126 666.201,507.886 665.961,507.406 663.561,505.486 661.881,504.045 661.642,503.806 661.401,503.326 
		661.401,502.846 661.881,501.646 662.121,501.405 662.121,501.165 662.361,500.925 662.361,500.685 662.602,500.685 
		662.602,500.445 663.081,500.445 665.961,500.685 667.16,501.165 668.36,501.165 668.84,500.925 669.08,500.925 669.08,500.685 
		669.32,500.445 669.32,499.725 669.32,499.485 669.32,499.245 669.561,499.005 669.8,499.005 670.52,499.245 670.76,499.245 
		671.239,499.005 671.239,498.525 671.239,498.285 670.52,497.325 670.279,496.845 670.279,496.365 670.52,496.125 670.76,496.125 
		671.239,496.605 671.72,496.845 671.72,496.605 672.199,496.605 673.16,495.645 673.16,495.405 673.64,494.925 673.879,493.965 
		672.919,493.484 671.239,492.524 670.52,492.524 670.279,492.524 670.279,491.804 670.279,491.324 670.279,491.084 670.04,490.844 
		669.8,490.364 670.04,489.644 670.04,489.164 670.279,488.684 670.279,487.964 669.8,486.044 669.8,483.884 670.04,483.884 
		670.04,483.644 670.279,483.644 670.52,483.164 670.76,482.923 670.279,481.963 670.04,481.723 669.8,481.483 669.08,480.763 
		668.84,480.523 668.6,480.523 668.6,480.283 668.6,479.563 669.32,479.323 669.561,479.083 669.561,478.843 669.32,478.363 
		669.32,478.123 668.6,476.683 668.12,475.963 668.12,475.723 667.881,475.723 667.881,475.482 667.641,475.723 667.4,475.963 
		667.4,476.203 667.16,476.443 666.92,476.443 666.681,476.443 665.961,476.443 665.721,476.203 665.721,475.723 665.961,475.482 
		665.961,475.002 665.001,475.002 664.521,474.763 664.281,474.763 664.281,474.522 664.041,474.522 663.802,474.042 
		663.802,473.803 663.802,473.563 663.802,473.322 664.041,472.842 664.041,472.362 663.802,471.642 663.802,471.162 
		664.041,470.922 664.521,470.442 664.761,469.962 664.521,469.722 663.561,469.722 663.081,469.482 661.881,468.522 
		661.642,468.282 662.121,467.802 662.121,467.082 661.642,466.362 661.642,465.162 661.401,464.682 661.642,463.961 
		662.121,463.722 662.121,463.481 661.401,463.241 660.922,463.001 660.922,462.521 660.922,462.281 661.161,461.562 
		661.161,461.321 661.161,461.081 660.922,461.081 659.962,460.361 658.282,457.241 657.322,456.281 657.322,455.801 
		657.563,454.601 657.563,454.36 657.082,454.36 656.603,454.841 656.362,454.841 656.123,454.36 655.883,454.121 655.883,452.68 
		655.883,452.2 655.883,450.28 655.643,449.32 654.923,449.08 654.683,448.84 654.683,448.6 654.683,448.36 654.683,448.12 
		654.683,447.88 654.683,447.64 656.123,447.16 657.322,446.92 657.802,446.44 658.042,446.2 658.042,445.479 658.762,444.52 
		659.242,444.04 659.481,444.04 659.962,443.56 660.202,443.56 660.441,443.08 660.682,442.359 661.881,441.399 661.881,441.159 
		661.642,440.919 661.642,440.439 662.361,439.239 664.041,438.519 665.001,438.519 665.24,438.279 666.44,436.839 666.681,435.879 
		666.44,435.159 666.92,432.999 667.16,432.519 667.16,432.038 666.44,431.558 665.961,430.598 665.961,429.878 666.201,429.398 
		667.4,427.718 667.881,427.478 668.12,427.718 668.36,427.718 668.6,427.478 668.84,426.998 669.561,424.837 670.279,424.357 
		670.52,423.877 670.52,423.638 670.52,423.397 670.52,422.677 670.04,421.717 669.561,421.237 669.561,420.757 669.8,420.277 
		670.279,419.797 671.239,418.837 671.239,418.357 671,417.637 671,417.157 671,416.917 671.72,415.957 672.919,415.237 
		674.119,414.997 674.119,414.757 675.079,413.796 675.318,412.836 675.318,412.596 675.559,412.116 676.278,411.876 
		676.519,411.876 676.519,411.636 678.438,408.996 678.678,408.756 678.198,408.276 678.198,408.036 678.198,407.796 
		679.158,407.076 679.878,406.116 680.357,405.636 680.838,405.155 680.838,404.916 681.078,404.916 681.318,405.155 
		681.559,405.155 681.798,404.916 681.798,404.676 682.037,404.195 682.037,403.715 682.277,403.235 682.037,403.235 
		682.037,402.996 680.838,402.275 680.118,401.075 679.158,399.635 677.959,398.675 677.479,395.075 677.719,394.834 
		677.719,394.114 677.959,394.114 677.719,394.114 677.479,392.914 677.959,389.794 677.719,388.114 676.519,387.634 
		675.559,385.714 674.599,384.993 673.399,382.593 673.16,381.633 673.399,379.953 673.64,379.953 674.84,378.273 675.799,377.793 
		676.998,377.553 677.959,377.073 679.398,375.873 679.878,375.873 680.598,376.112 680.598,376.353 681.318,377.073 
		683.478,378.033 684.438,377.553 684.918,377.313 685.397,376.112 685.637,375.633 686.117,375.152 687.557,374.913 
		688.036,374.433 680.357,374.433 680.838,374.192 680.838,373.952 680.598,373.712 680.838,370.832 682.037,368.432 
		682.758,366.512 682.758,366.031 682.277,365.312 681.559,365.552 681.078,365.552 680.598,365.552 679.878,364.591 
		679.878,363.631 679.878,363.392 680.357,363.392 680.838,363.631 681.318,362.911 681.559,359.791 681.318,359.071 
		681.078,358.591 681.318,358.351 681.559,358.831 681.798,358.831 682.998,357.871 682.998,357.391 683.238,357.15 683.478,356.19 
		684.197,355.95 684.438,355.71 684.677,355.471 684.677,355.23 684.918,355.23 684.918,354.991 684.677,354.75 685.877,354.51 
		686.598,354.51 687.316,353.791 687.797,352.11 688.517,351.87 688.757,351.39 689.236,350.43 689.716,349.71 690.196,349.47 
		690.916,348.75 691.156,347.79 691.156,347.55 691.636,346.35 692.596,345.87 694.275,344.189 694.996,343.229 695.235,342.269 
		695.476,341.789 694.035,339.389 693.556,338.909 693.315,338.188 694.035,336.269 694.756,335.548 695.235,335.308 
		695.476,335.068 695.955,333.388 695.955,332.908 695.715,331.468 696.195,330.988 696.915,330.268 697.395,328.348 
		697.635,326.667 697.635,326.188 698.114,325.708 698.835,325.228 699.555,323.067 699.555,322.347 700.994,320.907 
		700.994,320.187 700.754,319.467 700.035,317.547 699.074,317.067 698.835,317.307 697.635,316.827 697.395,316.827 
		697.395,316.347 697.155,315.867 696.436,315.146 694.275,313.946 693.076,312.746 692.596,312.026 692.116,312.026 
		691.876,312.026 691.876,311.546 692.116,311.306 692.116,311.066 693.076,311.066 694.035,311.306 694.516,311.786 
		694.756,312.266 696.676,312.746 696.915,312.506 697.155,311.786 698.355,311.066 699.314,310.106 700.035,309.866 
		701.715,310.346 702.194,311.306 702.674,312.026 703.394,312.506 703.634,312.506 703.874,312.026 704.594,311.066 
		704.594,310.346 705.073,309.386 705.313,309.146 706.273,308.906 706.993,308.666 707.953,308.426 	"/>
	
		<polyline clip-path="url(#SVGID_2_)" fill="none" stroke="#B37C34" stroke-width="1.1998" stroke-linecap="round" stroke-linejoin="round" stroke-miterlimit="3.85" points="
		707.953,308.426 708.673,307.466 709.152,306.985 709.152,306.505 709.152,305.785 708.673,304.345 708.193,303.625 
		707.953,303.145 707.953,302.905 708.434,302.185 709.633,302.665 709.873,302.425 710.113,302.425 711.072,301.465 
		711.793,301.945 713.231,301.225 713.712,300.745 713.712,300.265 714.191,299.305 714.672,299.064 716.352,298.585 
		716.831,298.104 717.552,297.385 718.751,297.385 718.991,296.904 719.471,295.704 720.19,294.745 721.15,294.024 723.551,293.064 
		723.79,293.784 723.79,294.264 724.27,294.984 724.511,294.984 725.949,294.504 727.149,295.225 727.39,295.464 726.91,296.185 
		727.629,298.585 727.869,300.025 727.869,300.265 728.59,301.225 729.069,301.225 730.269,302.425 731.229,302.425 
		731.469,302.665 732.429,304.345 733.148,304.585 733.389,304.825 734.108,306.746 733.868,307.226 734.108,307.706 
		734.828,307.706 735.308,307.226 736.027,306.746 736.269,307.466 737.948,307.466 739.627,306.505 740.587,306.505 
		741.066,306.746 741.307,307.466 742.027,307.706 742.746,308.186 743.467,309.146 743.706,309.626 743.706,310.106 
		744.187,310.586 744.427,310.346 744.666,310.106 744.906,309.386 745.626,308.666 746.106,308.666 746.826,308.426 
		747.785,307.466 748.745,307.946 749.226,308.666 750.665,309.626 751.386,309.866 752.345,309.626 753.545,309.146 
		753.785,308.906 754.744,306.505 755.225,306.025 756.184,304.105 756.184,303.145 756.904,301.225 757.624,300.505 
		758.104,300.265 758.584,299.545 759.063,298.345 758.344,298.585 758.104,298.345 758.104,297.865 758.344,296.665 
		759.063,294.984 760.503,292.824 762.183,292.104 762.902,291.864 763.144,291.864 764.823,308.426 765.782,326.908 
		766.502,337.229 768.662,373.712 768.902,376.353 769.142,377.793 769.382,380.433 769.621,385.233 770.342,397.235 
		771.062,406.836 771.781,416.197 771.781,418.837 772.021,421.237 772.261,423.397 772.261,426.038 773.221,440.199 
		773.461,441.639 773.701,446.44 773.701,449.08 773.94,450.76 773.94,451.96 774.182,458.201 774.421,459.401 775.141,474.522 
		775.62,487.244 776.34,501.885 777.061,518.447 777.301,521.808 777.54,525.408 777.78,525.648 777.78,529.248 778.02,532.128 
		778.02,535.009 778.5,542.209 778.98,552.53 778.98,554.211 778.98,554.451 779.699,563.092 779.939,574.133 780.18,578.933 
		780.42,581.093 780.42,582.054 780.66,586.134 780.66,589.974 782.34,627.898 782.34,632.699 782.819,639.419 783.059,647.34 
		783.299,652.86 783.539,657.901 783.539,658.621 783.539,658.861 783.779,663.182 784.019,669.902 784.019,670.863 
		784.499,679.983 784.499,682.384 784.739,688.145 784.739,690.785 784.979,693.425 785.459,703.985 785.698,717.188 
		785.698,717.427 786.419,727.508 786.419,727.748 786.658,728.229 787.139,739.029 787.139,739.989 787.378,742.63 787.378,742.87 
		787.619,747.67 787.858,750.79 788.818,764.231 788.818,767.353 789.538,779.594 790.019,780.073 790.258,780.073 791.698,781.754 
		792.657,782.234 792.897,782.714 793.138,784.154 793.377,784.635 793.857,784.635 794.098,785.114 793.138,787.994 
		792.897,787.754 791.698,787.994 791.458,788.475 791.458,789.194 791.458,789.435 791.698,789.915 792.657,790.635 
		792.897,791.355 792.657,792.314 792.897,792.556 793.377,793.035 793.377,794.235 792.897,795.915 793.138,796.155 
		793.377,796.636 793.138,796.876 792.657,797.115 792.418,799.516 791.938,799.996 790.979,801.916 790.258,803.356 
		790.498,804.076 790.738,804.315 790.738,804.557 790.738,804.797 790.498,804.797 790.498,805.036 789.298,805.756 
		789.778,806.477 790.019,806.717 790.258,806.717 790.979,806.956 791.458,806.956 791.938,807.916 792.178,808.877 
		791.458,811.518 790.979,812.478 790.979,813.437 791.218,814.157 791.938,815.357 792.178,816.077 792.178,816.317 
		792.178,816.798 790.979,817.518 790.738,817.518 790.738,817.757 790.498,817.757 790.498,818.478 790.738,819.438 
		790.258,820.397 789.538,821.118 789.298,821.118 788.818,821.357 787.858,822.078 787.619,822.318 787.139,823.038 
		787.139,823.278 786.898,823.519 786.898,824.238 786.898,826.639 787.139,827.119 787.858,827.839 787.858,828.318 
		787.858,829.039 786.898,829.519 786.898,829.998 786.898,830.479 787.378,831.439 787.139,831.919 787.139,832.398 
		787.139,832.879 787.139,833.119 787.378,833.359 787.619,834.079 787.619,834.319 788.099,835.039 789.298,836.719 
		789.778,837.919 789.538,839.36 790.979,843.2 791.218,843.439 791.458,843.439 791.698,843.92 792.657,844.16 793.138,845.12 
		793.138,845.36 793.377,845.84 794.098,846.32 794.338,845.84 797.456,845.12 798.177,845.36 798.416,845.84 798.416,846.801 
		798.656,847.281 800.096,848.48 800.096,848.721 800.815,849.201 801.536,849.921 801.775,849.921 802.495,849.921 
		802.735,852.802 802.495,853.281 802.976,853.761 803.456,854.241 803.695,854.241 804.176,854.001 804.655,854.241 
		804.896,855.201 804.655,855.922 804.176,856.401 803.456,857.361 803.936,857.842 805.375,859.281 805.855,859.762 
		807.055,860.002 807.775,860.481 808.255,861.202 808.494,861.922 808.734,863.122 808.975,863.362 810.654,863.843 
		811.614,864.563 812.334,865.043 812.573,865.282 813.054,865.762 813.294,866.723 813.533,867.442 813.773,867.683 
		814.494,868.162 814.974,867.683 816.894,868.402 817.613,869.123 817.613,869.363 817.373,869.603 817.133,869.843 
		817.613,871.043 817.854,871.522 818.093,871.522 818.093,871.764 818.813,871.522 820.013,871.764 820.252,872.003 
		820.492,872.003 820.973,872.243 822.173,872.963 822.412,873.684 822.412,874.403 822.652,875.363 822.893,875.363 
		823.132,875.363 823.372,875.604 823.611,875.844 823.611,876.084 823.853,876.323 823.853,876.563 823.132,878.244 
		823.132,878.724 822.652,878.964 822.412,879.203 822.412,879.443 821.692,883.044 821.692,883.524 821.692,883.765 
		821.692,884.005 821.692,884.244 821.692,884.484 821.932,884.965 821.932,885.444 821.692,885.685 821.692,885.924 
		820.973,885.924 820.252,886.404 820.252,886.645 820.013,887.364 820.732,889.285 821.213,890.725 820.973,890.965 
		820.732,891.205 820.492,891.444 820.252,892.165 820.252,892.886 820.013,895.285 819.053,898.406 819.293,899.606 
		819.772,900.807 820.013,902.486 820.252,903.446 820.492,903.927 821.932,905.366 824.331,906.807 824.572,907.047 
		825.291,907.767 826.252,908.727 826.971,909.207 827.451,909.687 829.37,911.367 829.61,911.606 830.57,912.807 832.73,913.287 
		833.21,913.527 833.93,914.487 834.17,915.447 834.41,915.447 834.89,916.888 835.13,917.127 836.09,917.368 838.249,917.848 
		838.489,918.088 838.969,918.808 839.929,919.048 842.568,918.568 843.769,918.568 844.968,918.327 845.688,919.048 
		845.928,919.527 846.168,922.648 844.008,923.848 844.008,924.809 844.008,926.489 844.248,927.688 843.048,930.329 
		842.088,931.289 841.129,931.769 840.648,932.489 840.408,933.21 840.169,934.89 839.929,935.85 839.689,936.09 838.729,936.33 
		838.01,937.29 837.29,939.449 837.049,940.89 837.049,941.61 836.81,941.851 836.33,942.09 835.85,941.851 835.369,942.09 
		834.89,942.57 834.41,943.29 833.93,945.21 833.689,946.651 833.45,947.131 832.97,947.61 832.73,948.091 832.25,948.57 
		832.25,949.051 832.73,949.531 832.49,950.491 831.53,951.69 830.811,951.932 830.57,952.172 829.851,953.131 829.61,953.611 
		829.37,954.571 828.65,955.771 828.411,956.012 827.932,956.492 827.211,959.372 826.971,961.052 826.971,962.012 825.771,962.973 
		825.531,963.213 825.291,963.452 824.812,964.173 824.572,965.132 824.572,965.853 824.572,969.934 823.853,970.653 
		823.611,971.613 823.372,973.533 823.132,975.693 822.412,975.693 821.932,975.934 821.692,975.934 821.692,976.174 
		820.492,976.653 819.053,977.854 816.894,978.814 816.653,978.814 811.614,974.974 809.455,973.294 808.975,972.813 
		805.615,971.853 802.976,971.853 800.336,972.094 799.856,972.333 799.616,972.573 796.018,974.733 794.817,975.453 
		794.577,975.693 793.138,976.414 792.418,976.894 790.738,977.134 787.619,977.854 785.939,978.334 784.739,978.573 
		778.98,979.773 778.261,980.494 776.34,982.654 775.62,984.094 774.421,987.215 772.261,994.656 769.382,993.936 766.742,992.976 
		764.582,992.256 761.703,991.535 758.104,990.575 754.984,992.015 754.744,992.256 751.386,994.176 751.145,994.176 
		750.905,994.415 749.465,996.096 748.745,997.296 748.025,998.256 747.546,998.735 747.065,999.216 747.546,1006.177 
		747.785,1009.777 747.785,1010.257 748.025,1014.098 745.626,1013.377 745.386,1013.377 744.906,1013.137 744.187,1013.137 
		742.746,1012.657 742.507,1012.657 742.507,1012.418 741.066,1012.177 739.387,1011.697 737.468,1011.938 734.828,1012.897 
		732.908,1014.577 732.669,1014.577 730.269,1017.458 728.829,1020.339 728.109,1021.538 725.949,1024.179 724.989,1025.619 
		720.91,1025.619 720.19,1025.619 717.312,1025.619 714.432,1025.378 712.992,1025.378 710.113,1025.378 709.633,1025.378 
		709.393,1025.378 705.794,1025.139 705.313,1025.139 698.595,1024.898 696.195,1024.898 692.596,1024.898 690.916,1024.659 
		688.996,1024.659 685.157,1024.659 684.918,1024.659 684.677,1024.659 684.197,1024.419 683.717,1024.419 677.719,1024.419 
		673.399,1024.179 672.919,1024.179 672.439,1024.179 671.239,1024.179 668.36,1023.938 657.322,1023.698 655.162,1023.698 
		654.923,1023.698 653.963,1023.698 650.844,1023.459 647.004,1023.459 646.524,1023.459 640.525,1023.219 635.247,1022.979 
		631.167,1022.979 626.608,1022.738 625.648,1022.738 623.729,1022.738 618.929,1022.498 615.09,1022.258 599.973,1021.778 
		599.493,1021.778 593.254,1021.538 587.735,1021.298 582.456,1021.058 575.257,1020.818 562.54,1020.098 562.3,1020.098 
		560.14,1020.098 555.581,1019.857 552.702,1019.857 548.382,1019.618 536.384,1019.139 519.828,1018.418 519.587,1018.418 
		519.348,1018.418 518.148,1018.418 510.949,1017.938 508.55,1017.938 502.311,1017.698 493.192,1017.218 492.232,1017.218 
		489.593,1016.978 487.914,1016.978 485.034,1016.738 483.594,1016.738 483.594,1016.018 483.114,1014.817 481.674,1012.657 
		480.715,1011.218 480.235,1010.018 479.995,1007.856 479.755,1006.897 479.275,1006.416 478.315,1005.697 477.835,1005.217 
		477.595,1004.736 476.875,1003.776 476.155,1003.536 475.436,1003.536 475.436,1003.776 475.196,1004.736 474.956,1005.217 
		473.516,1005.937 472.796,1006.177 472.316,1006.177 471.836,1005.697 471.836,1005.456 471.596,1004.736 472.076,1004.017 
		473.036,1003.536 473.276,1003.057 473.516,1002.816 473.516,1002.576 473.276,1001.616 473.276,1001.376 472.796,1000.896 
		472.796,1000.416 472.316,999.936 472.076,999.456 471.836,999.216 471.356,998.496 469.917,997.056 467.037,994.656 
		466.317,993.456 465.598,989.135 465.357,986.735 465.598,985.294 465.357,984.094 464.158,982.654 463.678,981.454 
		463.678,981.215 463.438,980.974 463.678,980.494 463.678,980.254 463.918,980.015 463.918,979.534 464.158,979.054 
		463.918,977.373 463.678,977.373 463.678,977.134 463.918,975.934 463.918,974.733 464.397,972.094 464.638,971.853 
		465.837,971.373 467.037,970.894 467.757,970.173 467.757,969.934 468.237,969.693 468.717,968.973 468.957,968.493 
		468.957,968.013 468.957,966.093 468.957,965.853 468.957,965.373 469.197,964.893 469.197,964.652 469.437,964.173 
		470.157,963.933 470.396,963.692 470.396,963.452 470.396,963.213 470.396,962.732 469.917,959.853 469.917,959.132 
		470.157,958.172 470.157,957.692 470.157,956.731 469.917,955.771 469.917,955.531 469.677,955.291 469.677,955.052 
		469.437,954.812 468.957,954.812 468.477,954.091 468.477,953.852 468.477,953.131 468.957,952.411 471.356,950.491 
		471.836,950.011 473.996,949.771 474.716,949.291 477.115,948.811 478.315,947.851 479.515,947.131 479.995,947.131 
		480.475,947.851 480.955,947.61 481.195,947.61 481.435,947.371 482.634,945.931 482.875,945.451 483.594,944.73 483.594,944.49 
		483.594,944.251 483.114,943.771 482.875,942.811 483.114,941.61 483.354,940.65 484.074,939.931 484.554,939.449 485.754,939.689 
		486.234,939.449 487.193,938.73 487.434,938.25 487.434,938.01 487.434,937.53 487.434,937.29 487.193,936.81 485.514,935.369 
		484.554,934.89 484.314,934.409 484.074,934.169 483.594,932.729 483.594,932.489 483.594,932.01 483.354,931.769 483.594,930.81 
		483.834,929.849 484.074,928.409 483.594,927.448 482.875,926.489 482.634,926.008 482.634,925.048 482.634,924.568 
		482.875,924.568 482.875,924.328 483.114,924.089 483.354,923.608 483.834,923.368 485.274,922.168 485.274,921.928 
		485.994,921.208 487.193,919.769 488.393,918.327 489.113,916.888 489.353,916.407 489.353,916.168 489.353,915.688 
		489.353,915.447 488.633,913.287 487.673,911.606 487.914,910.647 488.153,910.406 488.153,910.167 488.393,909.927 
		489.353,908.967 489.833,908.247 489.833,907.767 489.833,906.327 489.593,905.847 489.353,905.127 489.113,904.886 
		488.873,904.646 488.153,903.927 487.914,903.446 487.914,903.206 487.914,902.967 488.393,902.967 488.393,902.727 
		488.393,902.246 488.393,902.006 488.393,901.766 488.153,901.526 487.673,901.286 486.713,901.286 485.994,900.807 
		485.034,898.886 485.034,898.646 485.034,898.165 485.034,897.926 485.754,897.206 485.994,897.206 485.994,896.966 
		485.994,896.726 485.994,896.485 486.234,896.485 486.234,896.246 485.994,894.565 	"/>
</g>
</svg>
