<?xml version="1.0" encoding="utf-8"?>
<!-- Generator: Adobe Illustrator 15.1.0, SVG Export Plug-In . SVG Version: 6.00 Build 0)  -->
<!DOCTYPE svg PUBLIC "-//W3C//DTD SVG 1.1//EN" "http://www.w3.org/Graphics/SVG/1.1/DTD/svg11.dtd">
<svg version="1.1" id="State" xmlns="http://www.w3.org/2000/svg" xmlns:xlink="http://www.w3.org/1999/xlink" x="0px" y="0px"
	 width="1296px" height="1296px" viewBox="0 0 1296 1296" enable-background="new 0 0 1296 1296" xml:space="preserve">
<g>
	<defs>
		<rect id="SVGID_1_" x="349.219" y="264.741" width="596.771" height="772.639"/>
	</defs>
	<clipPath id="SVGID_2_">
		<use xlink:href="#SVGID_1_"  overflow="visible"/>
	</clipPath>
	
		<polyline clip-path="url(#SVGID_2_)" fill="none" stroke="#B37C34" stroke-width="1.1998" stroke-linecap="round" stroke-linejoin="round" stroke-miterlimit="3.85" points="
		477.835,739.51 477.595,739.51 477.595,739.27 478.795,738.069 479.995,736.629 480.475,736.629 482.634,735.43 487.434,733.029 
		485.274,731.349 487.434,729.909 487.914,729.669 488.633,729.188 489.113,728.948 490.793,727.508 492.712,726.068 
		493.432,725.348 494.392,724.628 495.112,723.908 496.072,723.188 498.711,720.787 498.951,720.308 499.911,719.827 
		500.391,719.588 501.111,719.107 501.591,718.868 501.831,718.627 502.071,718.627 504.47,717.907 506.15,717.668 507.11,717.668 
		507.35,717.668 507.59,717.668 509.029,717.427 510.949,717.668 511.429,717.907 512.869,717.907 513.829,717.907 514.068,717.907 
		517.428,717.907 517.668,717.907 517.908,717.907 521.027,717.188 524.146,716.468 525.826,715.747 527.266,715.268 
		529.186,714.547 531.585,713.106 533.745,710.947 534.945,709.986 534.945,709.747 536.384,708.787 537.344,708.547 
		537.584,708.547 539.504,708.307 545.023,708.307 546.223,707.826 546.942,707.347 547.422,706.626 548.382,705.186 
		548.862,704.466 549.582,703.266 549.822,701.826 549.822,701.105 550.062,699.905 550.062,699.186 549.822,698.706 
		549.582,698.226 549.342,697.745 549.102,697.025 548.622,695.825 548.622,695.346 548.622,694.625 548.382,693.665 
		548.382,693.425 548.382,691.505 548.382,690.544 548.382,690.064 548.382,689.585 548.622,689.344 548.622,689.104 
		548.622,688.864 548.862,687.904 549.102,687.424 549.822,686.225 549.822,685.984 550.062,685.984 550.542,685.504 
		550.782,685.265 551.022,685.023 552.222,684.304 553.661,683.344 554.621,682.864 557.98,681.664 559.18,681.424 562.78,679.744 
		563.5,679.023 563.979,678.544 564.219,678.303 565.419,676.863 565.899,676.383 567.339,673.263 567.579,672.783 568.539,671.582 
		569.499,670.863 569.979,670.623 570.218,670.383 570.458,670.383 572.378,669.662 572.618,669.662 574.538,668.942 
		575.498,668.463 575.737,668.463 575.977,668.463 576.217,668.223 576.697,667.982 577.417,667.502 578.617,666.302 
		581.496,663.422 581.976,662.702 582.216,662.462 582.696,661.742 583.176,661.262 584.855,660.062 586.535,658.861 
		587.735,658.381 591.094,656.222 591.574,655.981 593.974,654.541 594.454,654.301 595.414,654.061 595.894,653.82 596.134,653.82 
		596.134,653.581 596.854,653.581 599.013,654.061 599.493,653.82 600.933,653.341 601.893,653.101 604.292,652.381 605.972,651.42 
		608.611,650.701 609.811,650.46 610.291,649.98 610.531,649.74 611.011,648.541 611.491,647.82 611.971,647.34 612.451,646.86 
		612.69,646.62 613.17,646.38 613.41,646.38 613.65,646.14 614.37,645.9 615.57,644.94 616.29,644.22 616.53,643.26 616.77,641.82 
		617.25,640.62 617.25,640.379 617.49,639.899 617.729,639.419 618.209,638.219 619.169,637.499 619.889,637.259 620.369,637.259 
		621.329,637.499 621.809,637.739 623.009,638.219 623.968,638.699 626.128,639.179 626.608,639.419 627.088,639.419 
		627.328,639.419 628.048,639.179 629.487,637.979 630.927,636.779 632.367,635.819 633.327,635.339 633.807,635.339 
		634.046,635.099 634.287,635.099 636.206,635.339 636.926,635.339 637.406,635.099 640.766,631.979 641.005,631.499 
		641.485,630.778 641.725,629.578 641.725,628.378 641.485,627.658 639.086,623.578 638.126,622.618 636.686,621.658 
		635.006,620.938 634.767,620.938 634.287,620.458 634.046,619.978 633.807,619.257 633.087,616.857 633.087,616.617 
		633.087,616.377 632.127,614.937 631.647,613.737 631.407,613.257 630.927,611.816 630.687,611.816 630.687,611.577 
		629.248,610.616 629.248,610.376 629.007,610.376 628.528,609.896 628.288,609.896 628.048,609.417 627.808,609.176 
		627.328,609.176 627.088,608.696 626.608,608.456 625.168,607.496 623.968,606.776 619.889,604.856 618.929,603.896 
		618.449,603.656 616.05,602.456 614.85,601.255 613.89,598.855 612.451,595.735 611.73,593.334 610.771,591.415 609.811,589.494 
		609.091,588.294 606.212,585.174 605.732,584.694 605.012,583.974 604.772,583.734 603.812,583.014 602.853,582.293 
		601.652,582.293 601.173,582.293 599.973,581.813 598.053,580.133 596.134,578.213 595.894,578.213 594.454,577.013 
		593.014,575.573 592.294,574.613 592.294,574.373 591.814,572.933 591.814,572.212 591.814,570.532 591.814,570.052 
		591.094,567.892 590.375,565.252 590.135,564.532 589.895,564.292 589.175,562.372 587.735,558.771 587.495,558.291 
		587.015,558.051 586.535,557.571 584.375,556.611 583.896,556.371 583.656,556.371 583.656,556.131 583.176,555.891 
		582.936,555.651 582.696,555.651 582.696,555.411 582.216,554.931 580.537,554.451 580.057,554.451 579.097,555.171 
		575.977,556.131 574.297,556.371 574.058,556.371 573.578,556.371 573.338,556.371 573.098,556.131 572.378,555.891 
		571.658,555.411 571.418,555.171 570.458,554.451 570.218,553.971 569.979,553.971 569.738,553.73 569.258,553.25 568.778,553.25 
		567.579,552.771 567.339,552.771 567.099,552.53 566.859,552.291 566.619,552.05 566.379,551.57 566.379,551.331 566.139,551.09 
		566.139,550.61 565.659,547.49 564.699,543.169 563.979,541.25 563.979,541.009 564.459,539.329 564.699,538.849 564.939,538.369 
		564.699,538.369 564.699,537.409 564.699,535.969 565.419,535.009 565.899,533.568 566.139,532.128 565.899,530.688 
		565.899,529.968 565.419,526.848 565.179,524.928 565.179,523.007 565.179,522.527 565.419,520.607 565.179,517.487 
		564.939,516.527 564.699,515.807 562.54,514.126 561.34,512.446 560.62,511.727 558.7,509.326 557.741,508.366 557.5,508.126 
		555.341,507.406 553.901,506.686 552.702,506.446 549.582,505.966 549.342,505.966 548.862,505.966 548.382,505.966 
		548.143,506.206 547.663,506.446 547.183,506.686 546.942,506.926 546.703,507.166 544.783,508.846 544.543,508.846 
		543.823,509.326 542.863,509.326 542.383,509.326 541.903,509.086 541.184,509.086 540.944,509.086 540.704,508.846 
		539.504,508.366 539.264,508.366 539.024,508.126 538.784,507.886 538.304,507.646 537.824,507.166 537.104,506.206 
		536.864,505.726 536.625,505.006 536.625,504.766 536.625,504.045 536.864,503.806 537.344,502.846 537.584,502.605 
		537.584,501.646 537.824,501.646 537.584,501.405 537.584,501.165 537.584,500.925 537.584,500.685 537.344,498.045 
		536.384,496.845 536.384,496.125 535.905,495.405 535.185,494.445 535.185,493.725 535.425,493.484 536.145,493.004 
		537.584,493.004 538.064,492.524 538.064,492.284 538.064,491.564 537.824,488.684 537.584,487.724 537.344,486.764 
		537.104,486.524 537.104,486.284 535.425,485.083 535.665,484.364 536.384,482.684 537.584,481.003 537.824,480.763 
		538.304,480.043 539.504,479.563 539.744,479.083 539.984,478.843 539.984,478.603 540.224,478.123 540.704,477.643 
		540.944,476.683 540.704,476.203 540.704,475.963 540.464,475.963 540.224,475.723 539.984,475.723 539.984,475.482 
		539.744,475.482 539.504,475.482 539.264,475.482 538.064,475.482 537.824,475.482 536.384,475.002 535.425,473.803 
		535.425,473.563 535.425,473.322 535.185,473.083 535.185,472.603 534.945,471.882 535.185,471.162 535.185,470.922 
		535.665,469.242 536.145,468.042 536.145,467.562 536.625,466.362 537.104,465.402 537.344,465.162 537.344,464.922 
		538.064,464.202 538.784,462.521 539.024,462.521 539.024,462.281 539.024,462.042 539.744,460.841 539.744,460.361 
		539.744,459.641 539.264,458.921 539.024,458.921 539.024,458.681 538.784,458.441 538.064,457.721 536.864,456.281 
		536.625,455.801 536.625,454.841 536.625,454.36 536.864,454.121 537.824,453.16 539.744,452.2 540.464,451.48 540.944,450.76 
		541.184,449.56 541.423,448.36 541.664,447.64 541.903,447.4 542.144,447.16 542.144,446.92 542.624,446.68 543.583,446.68 
		544.063,446.68 544.783,446.92 547.183,447.88 549.342,448.12 550.542,448.12 550.782,447.88 551.262,447.4 551.981,446.2 
		552.461,445 552.941,444.279 553.901,443.799 554.141,443.799 554.381,443.56 554.621,443.56 555.581,443.319 555.821,443.319 
		556.301,443.08 557.98,440.439 558.221,440.199 558.221,439.479 557.98,438.759 558.221,438.279 558.7,437.559 559.18,436.839 
		560.38,435.879 561.58,433.958 561.82,433.479 561.82,433.238 561.82,432.519 561.82,432.278 561.58,432.038 561.58,431.798 
		561.1,431.318 559.42,429.638 558.94,428.918 558.7,428.438 558.7,427.958 558.94,427.478 559.18,426.758 560.38,426.038 
		563.5,426.038 564.219,426.278 564.699,426.758 565.899,426.518 566.139,426.518 567.099,425.078 568.539,423.157 568.778,423.157 
		568.778,422.438 569.019,421.717 569.258,421.477 569.258,420.757 569.019,420.037 569.019,419.557 568.539,419.077 
		567.579,417.877 566.859,416.437 566.379,415.957 566.139,415.477 564.219,413.557 563.739,413.076 563.739,412.596 
		563.979,411.156 563.739,409.236 563.5,408.516 563.5,408.036 563.02,407.556 563.02,407.316 561.34,405.875 560.86,405.396 
		559.42,404.195 558.94,403.476 558.46,402.515 557.261,400.595 557.021,399.635 555.821,397.235 554.621,395.794 554.381,394.834 
		554.141,393.154 554.141,392.914 553.901,392.435 554.141,391.714 553.901,391.234 553.901,390.994 553.421,390.754 
		551.981,390.994 551.502,390.994 551.022,390.514 550.782,389.554 550.782,388.834 551.262,387.874 551.502,387.154 
		551.502,386.434 551.502,385.233 551.742,384.753 551.742,384.514 552.222,384.273 552.461,384.033 552.461,383.793 
		553.421,383.073 556.301,381.393 556.541,380.913 558.46,380.193 558.7,379.953 559.42,379.473 559.66,379.473 560.14,378.753 
		560.62,378.513 560.86,378.273 560.86,377.793 562.78,377.073 564.219,377.073 565.179,376.593 570.938,373.232 571.898,372.752 
		573.098,371.312 574.058,370.832 575.018,370.592 575.257,370.352 575.018,369.152 575.018,368.672 576.457,366.752 
		576.937,366.031 577.417,365.071 577.417,364.352 578.137,362.911 578.377,362.431 579.336,362.431 581.016,360.511 
		581.976,359.791 583.176,359.311 584.616,359.071 587.255,357.391 587.735,356.671 588.215,354.991 588.215,354.75 588.215,354.51 
		587.975,354.271 587.735,354.271 587.015,354.271 586.295,354.75 585.096,355.95 584.375,356.19 584.136,356.431 583.416,356.431 
		582.936,356.431 582.696,356.19 582.696,355.23 584.855,350.67 585.335,349.95 586.775,349.23 587.735,348.99 588.455,348.99 
		588.695,348.75 592.534,346.109 592.534,345.87 592.534,345.39 593.014,344.669 596.134,343.229 597.813,342.029 601.893,336.749 
		602.612,335.068 602.853,334.349 603.092,333.868 605.492,331.708 606.932,329.548 607.892,327.628 607.892,326.667 
		608.851,324.268 609.331,323.547 609.331,323.067 610.291,321.387 611.971,318.747 611.971,318.267 612.21,318.026 611.73,317.307 
		610.531,316.106 610.291,315.867 610.531,314.426 611.491,312.986 611.73,311.786 612.69,309.626 612.931,309.386 613.17,309.146 
		614.37,308.906 614.85,308.426 615.09,307.946 615.33,306.985 615.09,306.025 615.09,305.785 615.09,305.545 616.29,303.145 
		616.53,302.185 616.77,301.705 616.77,301.465 617.25,300.745 617.729,300.265 618.689,298.585 620.369,296.425 621.809,295.944 
		622.529,295.225 623.729,293.784 626.848,291.624 627.088,291.384 626.848,290.664 626.368,289.464 626.128,289.464 
		626.368,288.744 627.088,288.264 627.328,288.024 627.808,288.024 628.048,287.784 629.007,287.784 629.248,287.784 
		630.208,287.784 630.927,287.784 630.927,287.543 631.167,287.543 631.407,287.543 631.647,287.543 631.887,287.304 
		632.607,286.344 632.847,286.104 633.087,285.863 633.327,285.623 633.327,285.144 633.807,284.183 634.046,283.223 
		634.046,282.983 635.006,281.543 635.486,281.543 635.726,281.303 636.206,281.303 639.565,281.303 640.525,281.303 
		642.685,281.063 645.564,279.383 646.284,279.143 647.244,278.903 648.444,277.942 648.684,278.183 648.924,278.423 
		650.604,279.383 653.003,280.823 655.643,282.503 658.522,284.183 660.202,285.144 667.641,289.704 675.079,294.264 
		677.719,295.944 677.959,295.944 678.198,296.185 678.919,296.665 683.238,299.305 685.637,300.985 691.396,304.345 
		696.436,307.466 697.635,308.186 698.355,308.666 700.754,310.106 704.594,312.506 706.753,314.187 707.953,314.906 
		708.434,315.146 708.673,315.387 708.913,315.387 710.113,316.347 710.353,316.347 717.071,320.907 717.552,321.147 
		718.031,321.387 718.991,322.107 719.951,322.587 720.91,323.067 723.311,324.507 724.75,325.467 725.71,326.188 726.189,326.428 
		729.069,328.108 730.749,329.068 730.749,329.308 735.068,331.948 739.867,334.829 748.025,339.629 749.945,340.589 
		750.186,340.829 754.744,343.229 755.944,343.949 758.823,345.39 761.463,346.83 765.782,349.47 766.022,349.47 766.502,349.71 
		766.742,349.95 768.662,350.91 768.662,351.15 769.142,351.39 769.382,351.39 770.342,352.11 773.221,353.55 773.701,353.791 
		773.701,354.03 774.66,354.51 775.141,354.75 775.381,354.991 777.061,355.95 778.261,356.671 778.98,356.911 780.18,357.631 
		780.42,357.871 781.379,358.351 783.779,359.791 784.26,360.031 785.939,360.991 786.898,361.471 788.818,362.671 789.298,362.911 
		789.778,363.392 790.258,363.631 790.498,363.631 792.897,365.071 793.617,365.552 793.857,365.552 794.577,366.031 
		796.257,366.992 796.497,367.231 798.896,368.672 799.136,368.672 802.016,370.352 803.216,371.072 807.055,373.232 
		809.215,374.672 810.894,375.633 812.334,376.353 812.573,376.593 814.014,377.313 815.453,378.273 819.293,380.433 
		819.772,380.673 821.452,381.633 822.412,382.593 822.893,382.833 823.611,382.833 825.531,382.833 824.812,387.394 
		824.331,389.314 823.132,394.354 822.652,396.275 821.932,399.155 821.452,400.835 820.732,403.955 820.252,405.636 
		820.252,406.116 820.013,407.076 819.772,407.316 818.333,412.596 817.854,414.276 816.894,416.437 815.933,418.597 
		813.773,423.397 812.814,425.558 812.334,426.518 810.414,432.758 809.935,433.718 809.455,434.438 809.215,434.438 
		807.295,438.039 806.335,439.959 805.615,441.399 804.176,444.04 803.936,444.52 803.456,445.72 802.735,446.92 802.256,447.64 
		802.016,448.12 800.336,451.24 799.616,452.68 799.377,453.4 798.416,458.201 798.177,459.881 797.937,461.081 797.697,461.321 
		797.697,461.801 797.697,462.281 797.697,462.521 797.456,463.001 797.456,463.961 797.217,465.162 797.217,465.402 
		797.217,465.882 796.977,467.082 793.857,466.842 793.617,467.082 793.377,467.322 792.897,468.042 792.897,468.282 
		790.979,471.162 790.019,471.882 789.538,472.362 787.378,474.042 786.898,474.522 786.658,474.763 785.939,475.482 
		784.26,477.403 784.019,477.643 783.779,478.363 783.059,480.043 782.58,481.723 783.059,483.403 781.619,484.604 778.5,485.324 
		777.54,485.563 775.86,485.804 774.66,486.044 772.741,486.524 770.822,487.004 770.581,487.004 766.742,486.284 762.183,485.563 
		761.223,485.804 760.743,486.044 760.743,486.284 760.503,486.524 760.023,487.004 758.823,488.444 757.864,489.644 
		757.624,490.124 757.384,492.765 757.144,494.445 756.904,497.325 756.664,500.685 756.424,502.605 756.424,503.085 
		756.184,505.966 756.184,506.206 755.465,508.606 754.744,510.766 754.024,511.727 751.625,511.246 751.145,511.246 
		747.306,513.887 746.826,516.047 746.826,516.767 747.546,520.127 747.785,522.288 746.586,523.968 745.386,525.648 
		744.906,526.128 744.187,527.088 743.946,527.328 743.467,528.048 743.227,528.288 742.986,528.768 742.507,529.968 
		742.027,531.889 742.267,532.608 742.267,533.088 742.746,534.529 743.227,536.689 743.227,536.929 744.427,538.849 
		745.386,539.089 745.866,539.329 750.186,540.77 753.064,542.45 756.184,543.89 756.184,544.37 756.904,545.81 756.904,546.29 
		756.424,546.77 756.664,547.25 757.864,546.29 759.304,545.81 759.544,545.57 760.264,545.09 760.983,543.89 763.863,541.489 
		763.863,541.729 763.863,543.169 763.383,543.649 763.863,544.13 765.063,542.93 765.543,543.41 765.782,543.89 766.262,543.41 
		766.502,543.41 767.702,543.89 768.662,543.649 768.902,543.89 768.902,543.649 769.861,543.169 771.062,542.93 771.781,541.969 
		772.021,541.729 772.502,541.489 772.741,541.489 772.981,541.729 773.701,541.969 774.182,542.45 774.421,542.689 
		775.141,543.169 775.62,543.41 776.82,544.13 779.939,545.09 782.34,546.05 782.58,546.05 783.299,546.29 784.739,547.01 
		785.939,547.73 787.858,549.41 788.338,549.65 789.298,550.37 789.298,550.61 789.538,550.61 789.778,550.851 790.738,551.331 
		790.979,551.331 792.178,552.05 794.817,552.53 801.536,554.211 802.495,554.211 803.216,554.211 803.936,551.811 804.415,548.21 
		804.655,544.85 804.176,543.649 801.536,538.609 801.057,538.369 798.896,536.449 798.896,535.729 799.616,535.249 
		801.296,535.489 802.016,536.209 803.695,537.409 807.775,545.57 808.015,554.931 808.494,557.571 808.975,561.651 
		809.455,565.732 809.455,568.612 809.455,572.692 809.455,573.173 809.215,575.093 808.975,577.253 808.734,580.133 
		808.494,582.534 808.494,582.773 808.255,584.454 808.255,586.134 808.255,586.854 808.015,588.294 807.535,590.694 
		807.295,592.615 807.055,593.575 806.575,595.255 806.575,596.215 806.095,598.135 804.655,604.856 804.415,606.056 
		804.176,607.016 804.176,607.496 803.695,608.696 803.695,609.417 803.456,609.656 803.456,610.616 803.216,610.856 
		802.735,613.257 802.735,613.497 802.256,614.937 802.256,615.657 802.016,616.377 801.775,617.097 	"/>
	
		<polyline clip-path="url(#SVGID_2_)" fill="none" stroke="#B37C34" stroke-width="1.1998" stroke-linecap="round" stroke-linejoin="round" stroke-miterlimit="3.85" points="
		801.775,617.097 801.536,618.297 801.296,619.498 801.057,619.978 800.815,621.178 800.576,622.138 800.576,622.618 
		800.336,623.338 799.856,625.498 798.656,629.818 797.697,633.899 797.217,635.579 796.736,638.459 796.497,639.899 
		795.777,644.22 796.257,644.7 796.497,644.94 796.018,645.18 795.537,647.1 794.817,649.261 794.817,649.98 794.577,650.46 
		794.338,652.141 793.377,657.422 791.698,666.542 790.738,672.543 790.498,673.982 789.778,677.823 789.298,679.983 
		789.298,680.464 789.298,680.703 788.818,682.624 788.818,683.344 788.338,686.225 788.338,687.424 787.858,689.344 
		787.619,691.985 787.378,692.705 787.378,693.665 786.898,696.306 786.898,697.265 786.419,699.665 786.419,700.386 
		786.179,702.306 786.179,703.266 785.459,710.947 784.979,715.268 784.979,716.228 783.539,732.789 782.1,742.15 782.1,742.39 
		782.1,743.11 782.1,743.59 781.619,744.551 781.14,745.511 779.46,748.391 778.74,749.591 778.5,750.07 778.261,750.551 
		775.86,756.312 774.9,758.952 772.502,764.231 772.261,764.952 772.261,765.192 772.021,765.432 771.302,766.393 768.662,770.952 
		765.782,776.233 765.303,776.714 762.902,781.033 761.223,783.914 757.864,790.155 756.184,793.035 755.704,793.755 
		755.465,794.476 752.345,800.235 750.186,803.836 750.186,804.076 749.945,804.557 749.706,804.797 749.226,805.276 
		748.266,806.236 748.025,806.477 747.785,806.717 745.146,811.036 741.787,816.558 738.668,818.238 738.428,818.238 
		737.468,818.478 734.108,818.718 733.868,820.638 733.628,821.838 733.389,822.318 734.588,825.198 735.548,825.438 
		736.027,826.639 735.548,828.799 730.749,837.199 728.829,840.319 724.511,845.601 722.59,848.001 721.871,848.721 
		721.391,849.201 721.391,849.44 721.15,849.44 719.951,850.401 719.471,850.641 717.791,852.081 716.591,853.041 715.871,853.761 
		715.152,854.241 712.512,856.401 712.512,857.361 712.272,858.322 712.272,858.562 712.272,859.041 712.032,860.002 
		711.313,860.962 711.072,861.202 710.832,861.442 709.873,861.682 708.673,862.162 706.993,863.122 706.753,863.122 
		704.834,863.843 703.874,864.322 703.394,864.563 703.153,864.802 702.194,865.043 701.474,865.522 701.234,865.522 
		700.515,865.762 700.274,866.002 699.555,866.482 698.355,867.202 696.915,868.162 696.676,868.402 695.715,868.883 
		695.476,869.123 694.756,869.603 693.556,870.323 692.836,870.803 692.596,871.043 692.116,871.283 691.156,871.764 
		690.916,872.003 690.677,872.243 689.956,872.723 689.477,872.963 689.236,872.963 688.757,873.443 687.797,874.163 
		686.356,874.883 682.037,878.964 679.639,880.884 679.398,881.844 679.158,882.805 678.919,883.524 678.438,883.765 
		678.198,884.244 677.719,884.724 677.719,884.965 677.479,885.205 676.998,885.444 676.519,885.685 676.039,885.924 
		675.318,886.404 673.879,887.124 673.16,887.364 672.919,887.604 672.439,888.085 671.72,888.564 671.479,888.805 671,889.285 
		669.08,890.965 668.84,891.444 666.681,893.605 665.481,895.045 665.24,895.045 665.24,895.285 664.281,896.726 661.401,900.807 
		660.441,902.006 658.042,904.646 658.042,905.127 657.802,905.847 656.842,908.727 656.603,908.967 652.764,913.527 
		652.764,913.768 652.283,914.007 652.044,914.968 648.204,921.448 648.204,921.688 647.484,922.889 645.805,925.769 
		645.325,926.969 644.604,927.929 644.125,928.648 643.645,929.849 642.685,931.529 642.445,932.489 642.685,933.21 644.845,935.13 
		644.604,936.569 643.165,938.01 642.925,938.25 642.685,938.489 640.525,941.13 637.166,944.73 635.006,948.331 633.087,951.211 
		627.808,959.853 626.128,966.332 626.128,966.573 624.688,968.973 622.529,969.934 622.289,969.934 621.089,970.653 
		620.609,971.133 618.689,972.573 617.97,973.294 616.77,974.253 616.29,974.733 612.21,978.814 611.491,979.773 608.131,983.854 
		608.131,983.614 607.171,983.135 606.932,982.895 604.292,983.374 604.052,983.374 603.092,983.854 602.373,984.335 
		598.533,986.255 597.813,986.494 596.613,986.735 595.654,986.975 595.414,987.215 595.174,987.215 594.214,987.215 
		592.534,987.215 586.535,986.494 585.576,986.494 584.855,985.774 583.656,983.854 585.335,975.934 585.576,975.693 
		585.576,975.453 586.535,971.133 586.535,970.413 587.015,968.253 587.255,967.532 587.255,967.293 587.495,966.093 
		588.215,964.413 588.215,963.933 588.935,962.012 588.935,961.772 589.655,960.092 589.895,959.853 590.375,958.652 
		590.854,957.452 591.574,956.252 591.574,956.012 592.054,955.291 592.054,955.052 592.294,954.812 593.974,951.69 
		594.454,950.491 595.894,947.61 598.293,943.051 599.013,941.61 599.493,940.89 600.213,939.449 600.933,937.53 601.413,935.609 
		602.132,933.449 602.132,933.21 602.132,932.969 603.572,924.568 603.332,920.248 603.332,920.008 603.092,919.769 
		602.373,918.808 602.132,918.808 599.253,915.447 598.533,915.207 597.093,914.487 592.294,912.807 586.775,910.887 
		586.295,910.887 585.576,910.647 584.136,910.406 583.176,910.167 582.936,910.167 580.537,910.406 578.137,910.406 
		575.257,910.167 571.898,909.687 571.178,909.447 571.418,908.007 572.378,907.047 572.378,906.566 571.898,905.366 
		571.898,905.127 571.898,904.886 570.938,904.406 569.738,903.446 568.299,903.206 567.579,903.927 566.859,904.406 
		565.899,903.927 563.5,903.927 558.221,905.366 555.821,904.646 554.861,904.406 553.421,904.406 553.182,904.646 552.702,904.886 
		551.742,905.606 549.822,908.727 548.862,910.647 546.703,913.768 546.223,913.527 544.063,911.367 541.903,909.207 
		539.984,907.047 540.224,904.886 540.464,902.727 539.024,897.445 537.584,895.045 531.105,889.285 529.666,889.285 
		527.746,888.324 527.026,887.845 524.387,886.645 523.187,885.924 522.947,885.924 522.467,884.724 522.707,884.005 
		522.707,883.044 522.467,882.564 520.787,878.484 520.787,878.244 520.308,878.244 518.388,877.764 517.188,877.284 
		516.228,877.044 514.068,878.484 513.829,878.484 513.109,880.404 512.389,881.364 511.669,880.644 508.55,877.764 506.39,875.123 
		504.95,871.283 503.99,868.643 503.75,866.963 503.75,866.723 503.271,866.243 502.311,864.802 500.391,863.843 497.512,864.082 
		496.792,864.563 496.072,865.282 495.352,866.002 489.593,860.962 488.633,859.281 488.633,858.081 488.633,857.602 
		488.393,857.122 487.914,855.682 487.673,854.961 487.673,854.722 487.434,854.722 486.713,854.481 485.754,854.001 
		484.314,853.521 482.395,852.802 482.395,852.561 480.235,851.121 477.835,848.001 476.635,845.601 475.916,843.681 
		474.476,840.561 472.796,837.439 472.796,837.199 470.396,837.439 468.717,836.719 465.357,834.319 463.918,833.119 
		463.678,833.119 463.678,832.879 463.438,832.398 463.198,831.198 457.199,830.719 456.959,830.719 456.719,830.719 
		455.279,827.839 455.04,825.919 455.04,825.198 455.04,824.959 455.52,820.157 458.879,819.918 459.119,819.198 458.879,819.198 
		458.639,818.957 458.399,818.957 458.399,817.757 458.399,816.077 459.119,811.518 459.119,810.077 459.119,808.877 
		458.159,808.637 457.679,807.437 457.919,806.717 459.358,805.036 461.038,803.116 461.998,800.956 462.238,800.716 
		462.718,799.516 462.478,796.636 461.998,795.676 461.038,794.955 460.559,794.955 459.599,794.715 458.399,793.515 
		457.679,792.795 456.959,792.074 456.479,791.835 456.479,791.595 455.52,791.114 455.279,790.875 453.36,789.435 452.88,788.234 
		452.64,787.994 452.64,787.274 452.64,786.555 452.4,784.874 452.16,782.954 452.16,781.514 452.16,781.273 452.64,780.554 
		452.88,779.834 454.08,778.873 454.319,778.873 455.04,778.153 455.52,777.434 455.999,776.953 456.239,776.714 456.719,776.473 
		457.679,776.233 458.399,775.514 458.399,775.273 459.119,774.553 459.599,774.073 459.599,773.833 459.838,773.593 
		460.079,773.353 460.079,773.113 460.559,772.394 461.278,771.673 461.518,771.433 461.998,770.473 462.478,769.993 
		462.958,768.313 463.198,768.072 463.678,765.192 463.678,764.952 463.678,762.552 464.158,761.832 464.877,761.352 
		466.557,760.632 467.277,758.952 467.517,758.231 467.757,757.752 468.477,756.552 469.197,756.312 469.677,756.552 
		469.917,756.552 469.917,756.791 470.637,757.031 470.876,756.552 471.116,755.592 470.876,755.111 471.116,753.671 
		471.356,752.711 471.356,751.99 471.596,751.271 471.836,750.79 471.836,750.551 472.316,749.591 472.556,748.871 472.796,748.391 
		473.516,746.23 473.756,745.511 474.236,744.069 474.236,743.11 474.716,742.63 475.196,741.91 476.875,740.949 477.835,739.75 
		477.835,739.51 	"/>
</g>
</svg>
