<?xml version="1.0" encoding="utf-8"?>
<!-- Generator: Adobe Illustrator 15.1.0, SVG Export Plug-In . SVG Version: 6.00 Build 0)  -->
<!DOCTYPE svg PUBLIC "-//W3C//DTD SVG 1.1//EN" "http://www.w3.org/Graphics/SVG/1.1/DTD/svg11.dtd">
<svg version="1.1" id="State" xmlns="http://www.w3.org/2000/svg" xmlns:xlink="http://www.w3.org/1999/xlink" x="0px" y="0px"
	 width="1296px" height="1296px" viewBox="0 0 1296 1296" enable-background="new 0 0 1296 1296" xml:space="preserve">
<g>
	<defs>
		<rect id="SVGID_1_" x="349.219" y="266.421" width="598.45" height="770.958"/>
	</defs>
	<clipPath id="SVGID_2_">
		<use xlink:href="#SVGID_1_"  overflow="visible"/>
	</clipPath>
	
		<polygon clip-path="url(#SVGID_2_)" fill="none" stroke="#B37C34" stroke-width="0.4799" stroke-linecap="round" stroke-linejoin="round" stroke-miterlimit="3.85" points="
		380.173,750.07 380.173,745.75 380.413,733.509 380.413,733.029 380.413,732.789 380.413,732.549 380.413,728.709 380.413,725.588 
		380.413,724.389 380.653,723.908 380.653,723.428 380.653,722.948 380.653,712.387 380.653,710.706 380.893,706.626 
		380.893,705.906 380.893,700.626 380.893,700.146 380.893,693.665 380.893,689.585 381.133,679.264 381.133,670.623 
		381.133,665.822 381.373,661.021 381.373,648.06 381.853,614.937 381.853,610.136 382.093,604.136 382.333,583.734 
		382.333,582.293 382.333,580.613 382.333,579.173 382.333,577.493 382.333,574.373 382.333,573.173 382.573,569.572 
		382.573,563.572 382.573,557.091 382.813,541.489 382.813,540.529 382.813,539.089 382.813,537.409 382.813,536.449 
		382.813,535.969 382.813,534.289 382.813,532.849 382.813,532.608 382.813,531.168 383.053,529.728 383.053,528.048 
		383.053,526.608 383.053,525.408 383.053,524.448 383.053,524.208 383.053,523.488 383.053,523.248 383.053,520.847 
		383.053,520.607 383.053,520.127 383.053,519.407 383.053,518.927 383.053,516.767 383.053,516.047 383.053,514.126 
		383.053,512.687 383.053,511.246 383.053,509.566 383.053,508.126 383.292,506.686 383.292,505.246 383.292,502.365 
		383.292,502.125 383.292,501.165 383.292,500.445 383.292,499.725 383.292,498.765 383.292,497.325 383.292,495.885 
		383.292,495.405 383.292,494.205 383.292,493.965 383.292,493.484 383.292,491.084 383.533,488.924 383.533,488.684 
		383.533,485.324 383.533,483.644 383.533,481.963 383.533,478.603 383.533,476.443 383.533,473.322 383.772,471.642 
		383.772,470.922 383.772,465.642 383.772,464.922 383.772,464.682 383.772,464.202 383.772,462.281 383.772,460.601 
		383.772,455.561 384.013,452.44 384.013,440.199 384.013,437.799 384.013,437.559 384.013,436.359 384.252,433.238 
		384.252,425.317 384.252,422.917 384.252,419.077 384.492,414.997 384.492,412.356 384.492,407.556 384.492,402.275 
		384.732,399.395 384.732,396.515 384.732,387.394 384.972,380.193 384.972,378.033 384.972,370.832 384.972,370.352 
		384.972,365.312 385.212,361.471 385.212,360.271 385.212,359.791 385.212,359.551 385.212,356.911 385.212,350.43 385.212,349.47 
		385.212,346.35 388.812,346.35 392.651,346.35 393.13,346.35 410.647,346.59 419.526,346.59 421.686,346.59 428.884,346.59 
		435.363,346.59 442.322,346.83 447.361,346.83 450,346.83 453.12,346.83 453.36,346.83 458.639,346.83 459.358,346.83 
		470.637,346.83 471.836,346.83 474.716,346.83 475.916,346.83 482.154,346.83 485.754,346.83 485.994,346.83 486.954,346.83 
		493.432,346.83 499.191,346.83 508.31,346.83 508.79,346.83 515.028,346.83 515.269,346.83 518.868,346.83 522.227,346.83 
		524.146,346.83 538.304,346.59 543.343,346.59 551.022,346.59 557.021,346.59 561.34,346.35 563.979,346.35 567.099,346.35 
		570.698,346.35 571.178,347.07 578.857,347.07 581.496,347.07 587.975,346.83 589.175,346.83 591.814,346.83 592.774,346.83 
		602.853,346.59 605.012,346.59 610.291,346.59 616.29,346.35 616.53,346.35 617.729,346.35 620.609,346.35 624.448,346.35 
		628.288,346.109 631.647,346.109 637.166,346.109 645.084,345.87 645.805,345.87 646.044,345.87 669.8,345.149 674.359,345.149 
		677.479,345.149 685.397,344.909 686.356,344.909 687.316,344.909 687.557,344.909 690.916,344.669 691.396,344.669 
		692.836,344.669 693.315,344.669 693.556,344.669 695.235,344.669 709.633,344.189 712.272,344.189 717.791,343.949 
		719.471,343.949 720.91,343.949 728.59,343.949 730.989,343.949 744.906,343.469 754.024,343.229 756.184,342.989 761.463,342.989 
		763.144,342.75 772.261,342.509 773.461,342.509 775.62,342.509 775.86,342.509 779.939,342.269 781.379,342.269 782.58,342.269 
		785.219,342.029 786.179,342.029 786.419,342.029 787.619,342.029 790.258,341.789 791.218,341.789 795.297,341.549 
		798.177,341.549 815.933,340.589 839.449,339.389 859.365,338.429 865.844,338.188 874.242,337.709 879.762,337.469 
		885.04,337.229 888.88,336.988 892.479,336.749 893.199,336.749 894.879,336.749 902.077,336.269 902.558,345.629 902.558,345.87 
		903.518,366.271 903.757,371.072 903.997,377.073 904.237,378.753 904.237,382.833 904.478,386.914 904.478,387.154 
		904.717,389.554 901.598,389.794 901.357,389.794 901.838,401.795 902.317,409.236 902.317,412.116 902.797,418.837 
		903.757,437.319 904.237,446.92 904.717,460.601 904.717,461.801 904.957,463.001 904.957,464.922 904.957,465.402 
		905.438,470.922 905.677,480.283 905.917,483.403 907.117,507.646 907.836,523.248 907.836,524.208 907.836,527.328 
		908.076,530.208 908.076,530.448 908.076,530.928 908.316,532.849 908.316,534.529 908.316,535.489 908.316,536.449 
		908.557,538.129 908.797,546.29 909.276,554.691 909.516,560.691 909.756,565.732 909.996,571.973 910.235,576.773 
		910.477,581.333 910.716,584.934 910.716,586.854 910.716,587.094 910.956,590.455 911.195,594.775 911.436,601.976 
		911.436,604.136 911.676,607.256 911.676,607.496 911.676,607.976 911.915,611.816 911.915,612.537 911.915,613.257 
		911.915,613.737 911.915,614.217 911.915,614.457 912.156,614.697 912.156,614.937 912.156,615.177 912.156,615.417 
		912.156,615.657 912.156,615.897 912.156,616.137 912.156,616.377 912.156,618.057 912.396,623.098 912.396,624.298 
		912.636,625.738 912.636,629.098 913.355,644.46 913.596,646.14 913.596,646.62 913.596,647.1 913.596,648.06 913.596,649.74 
		913.835,651.181 913.835,651.9 913.835,652.141 913.835,652.621 913.835,653.101 913.835,654.541 914.075,656.222 914.075,659.342 
		914.075,662.462 914.315,666.542 914.315,667.021 914.555,672.543 914.555,675.184 914.795,683.584 914.795,684.544 
		914.795,688.385 915.035,691.505 915.035,692.944 915.035,693.905 915.035,694.865 915.035,696.064 915.035,696.306 
		915.275,702.306 915.755,721.748 915.995,728.229 916.234,729.669 916.234,735.43 916.234,735.909 916.475,739.989 
		916.715,748.391 916.715,750.07 916.715,753.432 916.715,753.671 916.955,756.312 916.955,758.952 916.955,759.191 
		916.955,760.632 916.955,762.312 916.955,763.271 917.194,767.112 917.194,767.593 917.435,774.073 917.675,776.233 
		917.675,777.434 917.675,778.394 917.675,778.634 917.675,779.354 917.915,781.514 917.915,781.754 917.915,784.874 
		918.154,786.314 918.154,787.034 918.154,787.994 918.395,790.875 918.395,792.556 918.395,793.755 918.395,794.476 
		918.395,795.676 918.635,796.396 918.635,797.115 918.875,800.956 918.875,803.356 918.875,805.756 918.875,805.996 
		919.114,807.196 919.114,810.077 919.354,812.478 919.354,814.397 920.314,834.319 921.273,854.481 921.273,856.881 
		921.514,860.722 921.754,869.843 919.834,870.083 919.594,870.083 915.515,870.323 908.076,870.563 903.277,870.803 
		903.037,870.803 902.317,870.803 897.998,871.043 873.043,872.003 862.965,872.482 862.005,872.482 859.605,872.482 
		848.088,872.963 838.729,873.203 834.65,873.443 810.414,874.403 808.255,874.403 806.814,874.403 788.578,874.883 778.74,875.363 
		778.5,875.363 766.262,875.604 762.663,875.604 759.783,875.844 753.545,875.844 739.147,876.323 738.907,876.323 735.308,876.323 
		734.108,876.563 733.868,876.563 732.669,876.563 732.429,876.563 731.948,876.563 727.869,876.563 715.152,876.804 
		710.593,877.044 707.233,877.044 706.993,877.044 694.996,877.284 679.639,877.523 677.959,877.523 668.6,877.764 665.721,877.764 
		664.281,877.764 659.002,877.764 655.402,878.003 650.604,878.003 643.885,878.003 638.846,878.244 637.166,878.244 
		636.686,878.244 626.848,878.484 625.888,878.484 621.089,878.484 619.409,878.484 618.209,878.484 617.97,878.484 615.09,878.724 
		613.17,878.724 608.371,878.724 604.532,878.724 604.292,878.724 604.052,878.724 603.812,878.724 602.373,878.724 
		601.893,878.724 601.413,878.724 601.173,878.724 600.933,878.964 600.453,878.964 599.253,878.964 599.013,879.443 
		598.773,879.924 598.293,879.924 598.053,879.924 598.053,880.164 597.573,880.404 597.333,881.124 597.333,881.364 
		598.053,882.084 598.533,882.084 598.773,881.844 599.013,882.084 599.253,882.564 599.013,882.805 598.773,883.044 
		598.533,883.524 598.533,883.765 598.773,884.005 599.253,883.524 599.493,883.524 599.493,884.484 598.773,884.724 
		598.773,885.205 598.773,885.685 598.773,885.924 598.533,886.404 598.293,886.645 598.293,886.885 598.293,887.124 
		598.773,886.885 599.493,887.364 599.733,887.364 599.733,887.604 599.493,887.604 599.253,887.845 598.773,888.085 
		598.533,888.324 597.813,888.564 597.813,888.805 597.333,889.045 596.854,889.765 596.854,890.005 596.854,890.245 
		597.093,890.485 597.573,890.485 597.573,890.725 597.813,890.725 598.053,890.965 598.293,891.205 598.293,891.444 
		598.293,891.686 598.053,891.686 598.053,891.926 597.813,892.405 597.813,892.645 597.813,893.125 597.813,893.365 
		598.293,893.605 598.533,893.845 598.773,894.325 599.013,894.565 599.733,895.285 600.453,895.285 600.933,895.525 
		600.933,896.006 600.693,896.485 600.453,897.206 600.693,897.686 601.652,897.686 602.132,897.686 602.132,897.926 
		602.612,898.646 602.853,898.646 603.092,899.126 603.812,899.126 603.812,898.886 604.052,898.886 604.292,898.886 
		604.532,899.126 604.772,899.126 605.492,899.365 605.972,899.365 605.972,899.606 606.212,899.846 606.452,900.086 
		606.932,900.326 606.932,900.565 607.171,901.046 607.412,901.046 607.651,901.286 607.651,901.526 607.651,901.766 
		603.812,902.006 601.173,902.006 600.933,902.006 587.495,902.006 565.179,902.246 564.939,902.246 564.699,902.246 
		551.022,902.486 537.584,902.486 526.306,902.486 520.787,902.486 488.633,902.727 485.994,902.727 454.799,902.486 
		454.799,908.967 454.799,909.207 454.799,920.728 454.56,932.729 454.56,950.491 408.968,950.251 401.529,950.251 395.771,950.251 
		395.05,950.251 377.773,950.011 377.773,934.409 378.013,932.249 378.253,917.607 378.253,900.565 378.493,899.126 
		378.493,895.525 378.493,893.605 378.493,892.645 378.493,887.364 378.733,877.523 378.733,875.844 378.733,871.283 
		378.733,870.083 378.733,869.363 378.733,863.362 379.213,833.599 379.453,810.077 379.453,806.477 379.453,805.756 
		379.453,805.516 379.453,805.036 379.693,797.115 379.693,796.155 379.693,790.635 379.933,783.193 379.933,765.192 
		379.933,764.952 380.173,762.552 380.173,760.872 380.173,757.752 	"/>
</g>
</svg>
