<?xml version="1.0" encoding="utf-8"?>
<!-- Generator: Adobe Illustrator 15.1.0, SVG Export Plug-In . SVG Version: 6.00 Build 0)  -->
<!DOCTYPE svg PUBLIC "-//W3C//DTD SVG 1.1//EN" "http://www.w3.org/Graphics/SVG/1.1/DTD/svg11.dtd">
<svg version="1.1" id="State" xmlns="http://www.w3.org/2000/svg" xmlns:xlink="http://www.w3.org/1999/xlink" x="0px" y="0px"
	 width="1296px" height="1296px" viewBox="0 0 1296 1296" enable-background="new 0 0 1296 1296" xml:space="preserve">
<g>
	<defs>
		<rect id="SVGID_1_" x="259.22" y="354.262" width="776.875" height="593.132"/>
	</defs>
	<clipPath id="SVGID_2_">
		<use xlink:href="#SVGID_1_"  overflow="visible"/>
	</clipPath>
	
		<polyline clip-path="url(#SVGID_2_)" fill="none" stroke="#B37C34" stroke-width="0.48" stroke-linecap="round" stroke-linejoin="round" stroke-miterlimit="3.85" points="
		337.459,672.071 338.18,670.151 338.18,669.671 338.42,669.431 338.66,669.431 338.9,669.191 339.859,667.751 339.859,667.03 
		340.1,666.79 341.54,665.11 342.02,664.87 342.979,663.43 343.7,663.67 344.42,662.949 344.66,662.229 344.66,660.549 
		344.66,660.069 345.14,659.35 346.1,657.429 347.779,656.469 348.739,655.989 349.939,655.748 351.379,655.509 353.54,654.068 
		354.979,652.868 355.939,652.389 357.139,652.147 357.379,652.147 358.34,651.908 358.34,651.668 359.54,650.708 360.02,650.468 
		362.899,647.827 363.139,647.587 363.62,647.107 364.339,646.147 364.58,645.187 364.1,643.987 363.859,643.987 363.859,643.507 
		363.62,643.267 363.62,642.546 363.379,640.866 363.62,640.386 363.62,640.146 363.859,639.666 364.1,638.946 363.379,637.506 
		363.139,637.506 362.899,637.506 361.939,635.585 361.7,634.865 361.459,634.385 361.22,633.425 359.3,633.185 359.54,632.465 
		360.02,631.505 360.02,630.785 360.02,629.825 360.02,628.864 360.02,628.625 359.779,627.424 359.54,626.704 359.3,626.464 
		358.82,625.504 357.62,624.544 354.979,624.063 353.779,622.624 353.06,622.144 350.419,620.463 349.7,619.263 349.7,618.543 
		349.7,618.063 349.7,616.863 350.179,616.143 350.659,615.182 351.379,612.782 351.379,611.582 350.899,610.622 349.7,610.381 
		349.459,610.142 348.259,609.901 347.779,609.662 345.14,608.941 345.14,608.221 345.62,607.501 346.1,607.021 346.1,606.781 
		346.1,606.541 346.58,605.581 346.34,604.861 346.34,604.621 346.34,604.141 346.34,603.661 346.58,602.94 346.82,602.7 
		347.3,602.22 347.54,601.74 348.02,601.5 348.259,600.78 348.259,600.06 348.02,599.58 348.02,598.38 347.779,598.14 
		347.54,596.939 347.54,596.219 347.54,595.739 347.54,594.539 347.779,594.059 347.54,593.099 347.54,592.379 347.54,591.418 
		347.54,590.938 347.54,589.018 347.3,588.778 347.06,587.098 346.82,587.098 346.1,585.658 350.899,584.458 352.58,584.217 
		355.22,583.737 356.899,583.018 359.06,582.297 361.7,581.337 365.54,580.137 366.259,580.137 367.7,579.417 367.939,579.417 
		368.659,579.417 369.139,579.177 369.62,579.177 370.819,578.937 373.22,578.457 375.139,577.736 375.859,577.497 378.5,577.256 
		380.419,576.776 380.899,576.776 386.179,574.856 387.139,574.856 392.659,573.896 394.339,573.656 395.299,573.656 
		395.539,573.656 396.979,573.416 399.62,573.176 400.1,573.176 401.059,573.656 401.779,573.656 403.459,573.416 404.659,573.416 
		408.739,573.176 409.939,573.176 410.419,573.176 410.659,573.176 411.379,573.416 411.619,573.416 413.059,573.656 
		414.259,573.656 415.939,573.656 416.419,573.896 417.619,573.896 418.819,573.896 419.059,573.896 420.02,573.896 
		421.219,574.136 422.899,574.376 425.539,574.136 426.739,574.136 429.139,573.896 429.859,573.656 430.099,573.656 
		430.819,573.656 431.299,573.656 432.019,573.656 433.699,573.656 434.659,573.656 435.619,573.896 436.819,574.136 
		437.299,574.136 439.219,574.616 440.899,574.856 441.139,574.856 442.099,575.096 444.499,575.096 446.179,574.856 
		446.899,574.856 447.379,574.856 448.339,575.576 451.219,576.296 452.899,576.296 454.099,576.776 455.539,577.256 
		460.819,578.217 461.539,578.457 462.499,578.697 463.699,578.697 464.659,578.697 465.859,578.457 466.339,578.937 
		467.059,579.417 468.739,579.897 470.179,580.857 471.139,582.777 471.379,583.018 472.819,583.978 473.299,584.698 
		474.979,585.898 475.459,586.378 476.419,586.858 476.659,586.858 476.899,587.098 477.859,587.338 478.339,587.818 
		480.019,589.018 480.019,589.258 480.259,589.258 481.219,589.979 482.419,590.938 484.819,591.898 485.059,591.898 
		486.499,592.139 487.219,591.659 488.659,590.699 488.899,590.458 489.379,590.218 491.779,589.738 492.739,589.258 
		493.459,589.018 493.699,589.018 493.939,588.778 495.379,588.298 496.339,588.058 497.299,587.818 498.739,587.338 
		499.459,587.098 500.179,587.098 500.899,586.858 501.139,586.858 503.779,586.618 504.019,586.618 506.419,586.618 
		506.899,586.618 507.379,586.858 508.819,586.858 509.299,586.858 510.019,587.098 511.219,587.098 512.179,586.858 
		512.419,586.858 513.379,586.618 515.779,586.138 516.259,586.378 517.459,586.378 518.179,586.378 518.419,586.378 
		519.379,586.618 519.619,586.618 522.259,585.898 522.499,585.898 522.979,585.898 523.219,586.138 523.458,586.138 
		524.419,585.898 525.139,585.898 526.339,586.138 526.579,586.138 527.299,586.378 528.499,586.618 529.219,586.618 
		530.418,587.338 530.898,587.578 532.099,588.058 533.059,587.818 534.499,587.818 535.219,587.818 536.179,587.578 
		536.898,587.818 537.619,587.818 538.579,588.058 539.059,588.058 539.539,588.058 539.779,588.058 540.979,587.098 
		542.418,586.378 543.858,585.417 544.099,585.417 545.539,585.178 545.779,585.178 546.499,585.178 548.418,584.698 
		549.619,583.737 550.579,583.737 552.739,583.257 553.938,583.257 555.139,582.777 556.099,582.297 556.338,582.057 
		557.059,581.577 557.298,581.337 558.259,580.617 559.458,579.417 559.699,579.177 559.699,578.937 559.938,578.937 
		560.659,578.937 560.898,578.937 561.139,578.937 561.378,578.937 562.338,578.937 562.579,578.937 562.818,578.937 
		564.019,577.977 564.019,577.736 564.258,577.736 565.458,576.056 567.858,571.735 569.059,570.295 570.258,569.575 
		571.218,569.095 575.059,565.975 577.458,564.774 577.698,564.535 577.938,564.535 578.418,564.054 578.898,563.334 
		579.378,563.094 580.338,563.334 582.019,562.614 582.499,561.654 583.458,560.454 586.579,558.293 588.258,556.854 
		588.979,556.613 592.578,556.133 592.818,556.133 594.979,557.813 596.178,557.813 599.298,557.813 601.698,556.854 
		602.658,556.373 604.578,555.893 604.818,555.653 605.538,555.173 606.499,553.733 607.218,551.813 607.698,549.892 
		608.178,546.771 608.178,545.091 608.178,543.171 608.418,541.011 608.418,540.771 607.938,536.93 607.458,532.129 
		607.458,531.649 607.458,531.409 606.738,527.809 606.499,526.608 606.019,523.968 605.538,522.288 605.298,521.328 
		605.058,521.088 604.578,520.368 603.378,518.688 601.938,517.247 600.979,516.767 600.499,516.527 600.258,515.567 
		600.499,514.606 600.979,513.887 601.698,513.407 602.418,512.687 603.378,512.446 604.098,512.207 604.818,512.207 
		605.538,512.446 606.258,513.646 607.698,513.646 607.698,513.887 608.658,513.167 609.618,512.207 611.778,511.006 
		612.738,510.766 613.938,510.286 614.418,509.566 614.658,508.846 614.658,507.646 614.178,505.245 613.938,504.285 
		613.938,503.565 613.938,502.605 613.698,502.365 613.458,501.645 612.738,501.165 612.738,501.405 610.578,501.645 
		610.098,501.165 609.138,500.444 607.218,499.725 605.298,499.004 604.578,499.725 603.858,499.964 603.138,499.964 
		602.658,499.964 602.178,499.725 601.698,499.244 601.698,498.524 601.938,497.564 601.458,496.844 600.499,495.884 
		600.019,495.404 599.059,495.164 598.818,494.684 598.818,493.963 598.818,493.003 599.059,491.323 598.818,489.883 
		598.338,489.403 593.298,487.962 593.298,486.042 592.818,484.362 593.059,482.922 593.539,481.481 593.778,480.281 
		594.019,479.801 597.618,472.12 600.019,471.4 601.938,471.4 603.378,471.4 603.618,471.4 607.218,469.96 607.458,469.72 
		608.418,469.24 610.818,466.839 611.058,461.798 613.938,459.878 614.178,459.878 614.178,460.118 615.138,459.878 
		615.618,459.638 616.818,459.398 619.218,457.238 621.618,455.317 624.738,453.877 625.458,453.397 627.138,453.397 
		627.378,453.397 627.618,453.397 627.858,453.397 628.098,453.877 628.338,453.877 630.018,453.157 630.978,452.437 
		631.938,451.717 632.658,450.997 633.378,450.757 636.978,447.396 638.178,446.196 641.538,442.596 642.258,438.995 
		642.738,437.795 646.338,432.034 648.738,429.634 649.938,428.673 652.578,425.553 655.458,422.433 655.698,422.433 
		656.658,421.472 659.298,419.072 659.538,419.072 660.019,418.112 661.219,417.151 662.658,415.471 667.698,409.95 667.938,409.71 
		669.139,408.51 669.378,408.271 669.618,408.03 669.857,407.79 671.538,406.35 671.777,406.35 672.979,405.15 673.458,404.67 
		674.658,403.47 676.578,401.789 677.298,400.109 678.979,399.629 679.698,398.669 681.139,398.188 681.378,397.949 
		681.618,397.469 683.298,395.548 684.498,395.308 686.657,392.908 686.897,392.908 686.657,391.468 688.818,389.788 
		690.258,389.067 691.218,388.827 692.178,387.867 692.657,387.627 693.617,387.387 694.578,386.427 696.019,386.187 
		696.498,385.707 697.218,385.467 699.378,384.267 701.298,383.307 701.777,382.106 702.019,381.866 703.218,381.146 
		704.178,380.666 704.657,380.666 705.378,379.946 707.777,379.466 708.018,379.466 708.498,378.985 711.378,377.306 
		712.338,376.585 713.298,375.865 713.777,374.905 713.777,374.185 714.498,373.465 716.178,372.745 718.338,372.505 
		719.058,372.505 721.938,372.505 722.418,371.305 723.617,370.344 724.577,370.104 725.298,370.104 725.537,370.104 
		726.018,370.104 726.258,369.864 726.498,369.625 727.218,369.144 728.418,368.424 729.138,368.184 729.617,368.664 
		730.098,368.664 730.818,368.904 731.537,369.144 732.018,369.625 734.178,369.625 734.897,370.825 735.138,370.825 
		736.338,371.305 737.537,371.305 738.018,370.825 738.258,370.344 740.178,369.625 741.617,370.104 742.098,369.864 
		742.577,369.864 743.298,369.864 743.777,370.104 744.978,370.104 751.698,369.864 753.617,369.864 757.218,369.864 
		757.457,369.864 761.777,369.864 762.738,369.864 763.218,369.864 772.098,370.104 772.577,370.104 773.058,370.104 
		778.098,370.104 780.737,369.864 781.217,369.864 781.697,369.864 784.098,369.864 789.377,369.864 789.617,369.864 
		799.938,368.904 813.377,367.704 818.657,367.464 823.457,367.224 831.137,366.984 833.297,366.744 834.257,366.744 
		841.457,366.264 844.098,366.024 845.057,366.024 850.817,365.543 852.257,365.304 854.657,365.304 856.577,365.063 
		858.497,365.063 859.217,365.063 859.697,364.823 860.657,364.823 859.938,366.984 859.697,367.464 859.697,367.944 
		859.697,368.184 859.697,368.424 859.938,368.664 860.177,369.144 860.417,369.864 860.657,369.864 861.137,370.344 
		861.137,370.584 861.377,371.064 861.137,373.225 861.377,375.625 861.377,376.345 861.377,376.585 861.137,376.825 
		861.137,377.065 860.657,377.306 860.417,377.545 860.177,377.785 859.938,378.266 859.697,378.506 859.697,379.226 
		859.457,379.946 859.457,380.186 859.217,381.866 858.978,383.066 858.737,383.546 858.497,383.787 858.018,384.267 
		858.018,385.227 858.018,385.707 858.257,386.667 858.497,386.907 858.978,387.387 859.217,387.627 859.217,387.867 
		859.457,388.107 860.177,388.347 860.417,388.587 860.657,388.827 860.897,389.307 861.617,390.027 861.856,390.027 
		862.337,390.507 862.337,390.748 862.337,390.987 862.337,391.228 862.337,391.468 862.577,392.188 862.577,392.428 
		862.577,392.668 862.577,393.148 862.337,393.388 861.617,394.108 861.377,394.588 861.377,395.308 861.137,396.269 
		860.897,396.508 860.897,396.749 860.657,397.469 859.938,398.188 859.938,398.669 859.938,399.149 859.938,400.349 
		859.938,400.589 860.177,403.709 860.177,403.95 860.417,404.43 860.177,405.39 859.697,405.63 859.938,405.87 859.938,406.11 
		860.177,406.59 859.697,406.59 859.697,406.83 859.697,407.79 859.938,408.03 859.938,408.271 859.938,408.51 859.697,408.51 
		859.457,408.51 859.217,409.23 859.217,409.471 859.217,409.71 858.737,410.671 859.217,411.15 859.217,411.391 858.497,411.871 
		858.497,412.351 858.737,412.591 858.737,412.831 858.497,413.071 858.497,413.311 858.257,414.031 858.257,414.271 
		858.978,414.751 859.217,415.231 859.217,415.711 859.697,416.432 859.697,416.671 859.697,416.912 859.457,417.151 
		859.217,417.392 859.217,417.632 859.697,418.112 859.697,418.592 859.938,419.312 860.657,420.272 861.137,420.752 
		861.377,420.992 861.377,421.232 861.617,421.472 861.617,421.712 861.856,421.712 862.337,421.712 862.816,422.192 
		863.297,422.672 863.297,422.913 863.297,423.152 863.297,423.393 863.777,423.873 864.018,424.113 864.018,424.353 
		864.018,424.593 864.018,424.833 864.257,425.073 864.737,425.313 864.978,425.553 864.978,426.033 864.978,426.273 
		864.978,426.513 864.978,426.753 864.978,426.993 865.217,427.233 865.697,427.713 866.417,428.434 866.657,429.634 
		866.657,430.354 867.137,431.314 867.137,431.554 867.137,431.794 867.137,432.274 867.377,432.994 867.137,434.194 
		867.617,435.395 867.856,435.875 867.856,436.114 867.856,436.354 867.617,437.555 866.417,440.675 866.417,441.875 
		866.177,442.596 865.938,442.835 865.697,443.315 864.978,444.276 864.497,444.756 864.497,445.716 864.497,446.676 
		865.217,447.876 865.217,448.116 865.217,448.356 865.457,448.836 865.697,449.316 865.697,450.517 865.697,451.237 
		865.697,452.437 865.938,453.397 866.417,455.078 866.897,456.038 867.137,456.758 866.897,457.958 866.897,458.198 
		866.657,458.918 866.417,459.878 866.177,460.598 865.938,460.598 865.697,460.598 865.457,460.598 865.217,461.079 
		864.978,461.318 864.497,461.559 864.497,461.798 863.777,462.519 863.777,462.999 863.537,463.239 863.297,463.479 
		863.297,463.719 863.297,464.199 862.816,464.919 862.816,465.159 862.098,465.639 861.856,466.119 861.617,466.359 
		861.377,466.359 861.137,466.599 860.897,467.319 860.657,467.319 860.417,467.319 860.417,467.56 860.417,467.799 860.417,468.04 
		860.417,468.76 860.417,469 859.938,469.479 859.938,469.72 859.938,469.96 859.938,470.2 859.938,470.44 859.938,470.68 
		859.697,471.16 859.697,472.12 859.697,472.36 859.457,473.32 858.978,474.041 858.737,474.28 858.497,474.761 858.497,475 
		858.497,475.721 858.737,476.441 858.737,476.681 858.978,477.401 858.737,477.641 858.737,478.121 858.497,479.081 
		858.257,479.801 857.537,481.481 857.297,482.682 857.297,483.642 856.817,486.042 856.817,486.282 857.537,486.762 
		857.777,486.762 858.257,487.482 858.497,487.482 858.737,487.723 858.978,487.723 859.217,487.962 859.457,488.203 
		859.457,488.683 859.697,488.683 859.697,488.923 859.938,489.403 859.938,490.123 859.697,492.043 859.457,493.243 
		859.457,493.724 859.457,493.963 859.457,494.443 859.938,495.644 860.177,497.804 859.938,499.725 860.177,500.205 
		860.417,500.925 860.657,501.885 861.137,503.325 861.377,503.565 862.577,505.005 863.057,506.206 863.297,506.925 
		863.297,507.166 863.057,508.366 862.816,508.846 862.816,509.326 862.816,509.566 862.816,509.806 863.537,510.286 
		863.537,510.526 863.777,510.526 863.777,510.766 863.537,511.006 863.297,511.486 862.816,511.726 862.337,512.446 
		862.098,512.687 861.856,513.646 862.098,513.887 862.098,514.126 862.816,514.606 863.057,515.087 863.297,515.327 
		863.297,515.567 863.537,516.287 863.537,516.527 864.257,517.247 864.737,517.487 865.217,517.967 865.457,518.927 
		865.697,519.167 865.938,519.647 865.938,519.888 865.697,520.848 864.978,522.048 864.978,522.288 864.497,523.008 
		864.497,523.248 864.497,523.488 864.257,524.448 864.497,525.168 864.497,525.648 863.777,526.608 863.297,527.089 
		863.057,527.569 862.577,528.529 862.577,529.009 862.337,529.249 862.098,529.489 861.856,529.729 861.617,530.209 
		861.377,530.449 861.617,530.689 861.617,530.929 861.617,531.169 861.377,532.37 861.377,532.85 860.657,534.29 860.657,535.01 
		860.417,535.49 859.938,535.73 859.938,535.97 859.697,536.21 859.697,536.93 859.697,537.17 860.657,538.61 860.657,538.851 
		860.177,540.051 860.417,540.771 860.417,541.011 860.177,541.731 859.697,542.691 859.697,542.931 859.697,543.171 
		859.938,543.411 859.938,543.651 860.657,543.891 860.897,544.371 862.098,545.091 862.577,545.332 862.816,545.332 
		863.297,545.091 864.018,544.371 864.018,544.131 864.018,543.891 864.018,543.171 863.777,541.731 864.497,541.491 
		864.737,541.011 864.737,540.771 864.737,540.531 864.497,539.811 864.497,539.571 864.978,538.851 864.737,538.371 
		864.978,538.13 865.217,538.371 865.457,538.371 865.938,538.13 867.137,538.371 867.377,537.89 868.816,537.89 869.057,537.65 
		869.777,537.65 870.257,538.13 870.737,537.65 870.978,537.65 870.978,537.89 871.217,538.13 871.217,539.09 871.457,539.811 
		871.697,539.811 871.938,540.291 872.177,540.771 872.177,541.251 872.177,541.491 872.177,541.731 872.177,541.971 
		871.697,542.691 872.177,542.931 871.938,543.171 871.938,543.411 871.938,543.651 872.177,543.651 872.897,543.651 
		873.377,543.891 873.377,544.131 874.337,544.371 874.816,544.852 875.057,545.091 875.297,545.332 876.018,546.292 
		876.257,546.532 876.257,546.771 876.497,546.771 876.257,547.012 876.257,547.972 876.497,547.972 876.497,548.212 
		876.736,548.212 876.736,548.692 876.978,548.932 877.217,549.412 876.978,549.652 876.978,549.892 876.736,550.132 
		876.497,550.372 876.497,550.853 876.736,551.092 876.736,551.572 876.736,554.453 876.736,557.093 876.736,558.053 
		876.736,559.734 876.736,561.174 876.736,563.334 876.978,564.774 876.978,565.015 876.978,565.254 876.978,566.215 
		876.978,569.575 876.978,570.535 876.978,571.496 876.978,571.735 876.978,576.536 877.217,583.498 876.978,587.098 
		876.978,587.338 876.978,588.778 876.978,592.379 876.978,600.54 876.978,601.74 876.978,602.7 	"/>
	
		<polyline clip-path="url(#SVGID_2_)" fill="none" stroke="#B37C34" stroke-width="0.48" stroke-linecap="round" stroke-linejoin="round" stroke-miterlimit="3.85" points="
		876.978,602.7 876.978,602.94 876.978,603.9 876.978,605.101 876.978,609.662 876.978,611.342 876.978,612.062 876.978,613.502 
		876.978,620.703 876.978,623.104 876.978,623.344 876.978,624.063 877.217,628.384 877.217,628.864 877.217,633.425 
		877.217,636.306 877.217,636.786 876.736,636.545 876.497,636.786 876.497,638.466 876.736,639.186 876.736,639.666 
		876.497,639.906 876.257,640.866 877.697,647.827 878.897,647.587 878.177,650.468 878.177,650.708 877.697,652.868 
		875.537,661.989 875.057,663.91 872.897,673.752 871.938,677.592 869.537,687.673 869.537,688.154 868.816,690.555 
		868.098,693.915 867.377,697.515 867.137,697.995 867.137,698.715 865.697,704.477 864.737,708.557 863.297,714.318 
		862.098,719.839 861.377,722.239 860.417,726.56 860.417,727.28 859.457,730.881 859.938,733.04 860.657,735.44 861.617,735.44 
		861.617,741.682 861.377,746.963 861.377,747.202 861.377,747.443 861.377,750.803 861.377,751.523 861.137,755.124 
		861.137,756.564 861.137,756.805 861.137,758.244 861.137,759.444 860.897,763.765 860.897,767.847 860.657,771.927 
		860.657,774.087 860.417,779.848 860.417,780.088 860.417,780.568 860.417,780.809 860.417,782.969 860.417,783.448 
		860.417,786.329 860.417,786.568 860.417,789.21 860.417,789.689 860.177,795.21 859.938,797.131 859.938,800.972 859.938,801.691 
		859.697,804.331 859.697,806.973 859.697,807.212 859.697,807.932 859.697,809.612 859.697,809.853 859.697,810.093 
		859.697,810.332 859.697,811.772 859.697,812.013 859.697,812.253 859.697,812.493 859.457,816.094 859.457,818.014 
		859.457,818.254 859.217,819.693 859.217,821.135 858.978,824.975 858.978,825.694 858.978,826.175 858.978,827.136 
		858.978,827.375 858.978,828.095 858.978,828.335 858.978,828.575 858.978,829.056 858.978,830.016 859.217,830.256 
		859.938,831.456 860.417,832.176 861.377,833.616 861.617,833.616 862.098,834.576 862.337,834.816 863.297,836.497 
		863.777,836.977 864.018,837.457 864.737,838.417 865.697,840.098 865.457,840.098 864.497,840.817 864.018,841.057 
		863.777,841.298 863.297,841.538 863.057,841.777 862.816,842.018 861.856,842.498 860.897,843.218 859.938,843.938 
		858.978,844.418 858.257,844.897 856.817,845.857 856.098,846.339 855.617,846.818 855.137,846.818 853.697,848.019 
		852.018,848.979 851.777,849.219 851.297,849.459 849.377,850.659 848.657,851.14 848.417,851.379 847.217,852.099 
		846.018,852.819 843.137,854.739 843.617,855.699 844.098,856.42 844.338,856.9 845.297,858.101 846.497,859.78 846.978,860.74 
		847.217,860.98 847.457,861.701 847.697,861.701 847.938,861.94 848.417,862.66 848.657,863.381 848.897,863.381 849.137,864.102 
		849.617,864.581 849.857,864.82 849.857,865.061 850.337,865.541 850.337,865.781 850.337,866.021 850.337,866.261 
		850.098,866.741 850.098,867.222 850.098,867.702 850.098,867.941 850.098,868.661 850.098,868.902 850.337,869.142 
		850.337,869.382 850.337,869.622 850.098,871.062 849.857,871.542 849.617,871.302 849.377,871.302 848.897,871.782 
		848.417,872.022 848.177,872.262 848.177,872.982 847.938,873.702 847.697,874.183 846.497,874.902 846.018,875.143 
		845.297,875.383 845.057,875.623 844.338,875.863 843.377,876.823 843.137,877.063 842.417,877.543 842.177,877.543 
		842.177,877.783 841.938,877.783 841.697,878.022 841.457,878.264 841.217,878.264 841.217,878.503 840.737,878.983 
		840.257,879.703 839.297,881.384 839.057,881.384 839.057,881.623 838.817,881.864 838.817,882.104 838.817,882.344 
		838.577,882.823 838.577,884.023 838.338,884.984 838.338,885.224 838.338,885.704 838.338,885.944 838.817,886.185 
		839.057,886.665 839.057,886.904 839.057,887.145 839.057,887.385 839.057,887.624 839.057,887.864 838.817,887.864 
		838.577,887.624 838.338,887.385 838.338,887.145 838.098,886.665 838.338,886.185 838.098,885.704 837.857,885.704 
		837.617,885.944 837.617,886.185 837.377,886.424 837.377,886.665 837.137,886.665 836.657,886.424 836.417,886.665 
		836.177,886.904 835.938,887.385 835.938,887.864 835.938,888.104 835.938,888.345 835.938,888.585 835.938,888.824 
		836.177,889.545 836.417,889.545 836.417,889.785 836.657,890.025 836.897,890.265 837.137,890.265 837.377,890.505 
		837.617,890.745 838.817,892.426 839.297,893.146 839.777,893.146 840.497,892.426 840.737,891.705 841.457,890.505 
		841.697,890.025 841.697,889.785 841.697,889.545 841.697,889.305 841.697,889.064 842.177,888.345 842.417,888.104 
		843.377,886.904 844.098,885.704 844.098,885.224 843.857,884.744 843.857,884.265 843.857,884.023 845.297,883.544 
		849.137,885.224 849.137,884.984 849.377,884.984 849.617,884.984 849.617,884.744 850.817,884.265 851.057,882.344 
		851.297,881.864 852.257,880.664 852.497,880.184 852.737,879.943 853.457,879.703 853.938,879.703 854.417,879.703 
		855.856,879.223 856.337,878.503 856.817,878.503 857.537,878.022 858.257,877.783 859.217,877.303 859.938,877.783 
		860.897,878.264 862.577,877.783 863.057,877.543 863.537,877.543 864.018,877.543 865.457,876.823 865.697,876.343 
		866.177,873.942 866.657,873.223 867.377,873.702 868.816,874.423 869.057,874.423 869.777,874.423 870.497,874.423 
		871.457,874.663 871.938,875.143 872.177,875.863 872.177,876.343 872.417,876.343 874.337,876.343 874.577,875.623 
		874.577,873.463 874.577,873.223 874.577,872.022 874.816,872.022 875.057,872.022 875.297,872.022 875.297,871.782 
		877.217,873.942 878.177,874.663 879.377,875.383 879.856,875.383 880.098,875.383 880.098,875.143 881.297,874.902 
		881.777,874.902 882.257,874.902 883.217,875.143 884.177,875.383 884.897,875.383 890.897,877.543 891.137,877.543 
		891.377,877.543 891.617,877.303 898.577,874.423 898.577,874.183 898.816,873.463 898.816,872.262 898.816,870.822 
		899.057,870.103 899.057,869.861 899.297,869.622 899.537,869.622 899.777,869.382 901.457,868.902 901.697,868.902 
		902.177,868.902 903.617,868.661 903.856,868.661 904.816,868.661 905.297,868.661 905.537,868.661 905.777,868.902 
		906.257,868.902 906.978,869.382 908.417,869.622 908.417,869.861 908.656,869.622 908.656,869.382 909.377,869.382 
		910.576,869.382 911.537,869.142 912.978,869.142 913.938,868.902 914.897,868.902 916.816,868.902 917.777,868.902 
		918.497,869.142 919.697,869.142 920.417,869.142 920.656,869.142 921.856,869.142 922.816,869.142 923.057,869.142 
		923.536,868.902 923.777,868.902 924.977,868.661 925.217,868.661 925.457,868.661 925.938,868.661 928.576,867.941 
		929.057,867.941 930.496,867.941 932.656,868.182 933.377,868.182 933.856,868.182 935.297,866.981 935.777,866.741 
		939.377,865.541 939.617,865.541 941.777,864.82 944.177,865.061 947.057,864.581 950.896,863.621 951.617,863.381 953.297,861.94 
		953.536,861.94 953.777,861.221 954.977,860.501 957.377,858.101 957.617,858.101 957.856,858.101 958.097,857.86 959.057,857.38 
		960.496,856.66 961.456,856.18 961.697,855.939 963.137,854.26 963.856,852.819 964.336,851.859 965.297,851.619 966.977,851.379 
		967.217,851.379 968.896,850.179 969.137,850.179 969.617,849.219 971.297,847.298 972.017,846.098 972.496,845.378 
		974.656,844.897 975.617,844.418 975.856,844.178 976.336,843.938 976.816,843.457 977.536,842.978 978.496,842.498 
		978.496,842.257 978.736,842.257 979.696,842.018 979.937,842.018 980.177,842.498 980.656,842.498 981.377,842.018 
		982.816,841.538 983.536,841.777 983.536,842.018 982.097,844.418 981.137,845.618 979.937,846.578 979.696,846.578 
		979.456,846.818 978.736,847.298 978.017,847.778 977.776,846.818 977.776,845.378 977.297,844.897 977.297,844.657 
		977.057,844.657 976.576,844.657 976.336,844.657 976.097,844.897 975.377,845.378 975.377,845.618 974.656,847.059 
		974.656,847.298 974.656,848.258 974.656,848.498 974.656,848.739 976.097,850.419 976.336,850.898 976.576,850.898 
		977.057,851.14 978.017,851.619 978.256,851.619 978.256,851.859 978.496,851.859 979.937,851.859 980.416,852.099 
		980.177,852.819 979.937,853.299 980.896,855.22 981.617,855.939 982.097,856.42 984.017,855.939 984.977,855.939 986.177,856.42 
		987.377,857.14 987.617,857.38 987.856,857.38 988.816,857.38 989.057,857.14 989.536,856.9 989.776,856.42 990.256,855.46 
		990.977,854.979 991.217,854.499 991.456,854.499 992.176,854.739 992.656,854.979 993.377,855.699 993.856,856.18 994.097,857.14 
		993.856,858.101 994.097,858.34 995.297,860.261 996.017,860.98 996.736,861.701 996.977,861.94 997.456,861.94 997.937,861.94 
		998.176,861.94 999.137,861.221 999.377,860.501 999.616,860.021 999.856,859.78 1001.057,859.54 1001.536,860.021 
		1001.776,860.021 1002.017,859.78 1002.256,859.54 1002.017,858.82 1002.017,858.101 1002.496,857.86 1003.456,858.101 
		1005.377,856.9 1006.097,856.18 1006.816,855.46 1008.736,854.739 1009.937,854.26 1010.176,853.539 1010.416,853.539 
		1010.416,852.819 1010.176,852.339 1010.416,851.379 1011.136,851.14 1011.856,850.659 1012.336,850.419 1012.576,850.419 
		1012.816,850.419 1013.297,850.179 1014.256,849.939 1015.937,849.939 1016.176,849.939 1016.416,850.179 1016.896,850.419 
		1017.136,850.419 1017.377,850.419 1018.816,850.419 1019.297,850.179 1020.017,850.419 1020.256,850.898 1019.536,851.859 
		1018.816,853.06 1018.576,853.299 1017.856,853.779 1015.937,854.979 1012.816,855.939 1012.336,856.18 1010.416,857.14 
		1004.656,860.501 1004.416,860.501 1004.176,860.501 1001.536,861.94 997.456,863.86 996.496,864.581 995.536,865.061 
		995.057,865.302 992.656,866.502 992.176,866.741 989.057,868.661 988.816,868.661 988.576,868.902 985.937,870.342 
		984.256,871.302 982.097,872.502 980.177,873.463 979.696,873.702 976.576,875.623 974.416,876.823 970.336,878.983 
		963.617,882.104 963.377,882.344 962.896,882.584 962.416,882.823 958.576,884.504 957.377,884.984 954.736,885.944 
		954.496,886.185 953.777,886.424 952.337,887.145 949.937,888.104 947.057,889.064 944.177,890.265 942.496,890.985 
		939.377,892.186 937.697,892.905 936.977,893.386 936.736,893.386 936.496,893.386 935.536,893.626 935.057,894.105 
		926.656,897.706 921.137,900.347 916.097,902.986 914.656,903.947 912.736,904.907 912.257,905.147 911.537,905.627 
		910.097,906.107 908.897,906.827 901.217,909.468 900.497,909.708 899.777,909.948 899.297,910.188 896.417,911.148 
		895.217,911.389 894.497,911.868 894.018,911.868 891.617,912.589 889.457,913.068 889.217,913.068 885.137,913.309 
		884.897,913.068 884.417,912.349 883.938,911.628 880.816,912.349 876.978,914.028 874.098,915.229 871.457,915.948 
		868.337,916.909 860.897,918.83 859.697,918.83 859.697,918.59 859.457,918.59 859.217,918.59 858.978,918.59 857.537,918.59 
		857.057,918.59 856.337,918.59 854.657,918.83 853.697,919.069 853.457,919.069 852.978,919.31 852.737,919.31 852.497,919.31 
		852.018,919.31 851.777,919.31 849.617,919.31 849.137,919.31 848.657,919.31 848.417,919.31 848.177,919.31 847.697,919.31 
		846.257,919.31 844.098,919.31 842.657,919.31 842.657,919.069 842.657,918.59 841.697,918.59 841.457,918.59 841.217,918.59 
		840.737,918.59 840.497,918.83 839.297,919.069 839.057,919.069 838.817,919.31 838.338,919.31 838.098,919.31 837.857,919.549 
		837.617,919.549 836.657,920.03 836.417,920.03 835.697,920.27 835.457,920.27 834.978,920.51 834.257,920.989 833.777,921.23 
		833.297,921.47 832.817,921.71 832.577,921.71 832.338,921.949 832.098,921.949 830.897,922.67 828.978,923.39 825.617,924.831 
		825.617,923.631 825.857,922.91 825.377,922.431 825.137,922.189 824.657,921.949 824.418,921.71 824.177,921.47 823.938,921.47 
		823.217,921.47 820.098,921.949 819.137,921.949 818.418,921.71 818.418,921.47 818.177,921.47 818.177,921.23 818.177,920.989 
		818.177,920.749 818.657,920.27 819.137,919.31 818.897,918.83 818.177,918.109 817.217,917.869 816.737,917.869 816.018,917.63 
		815.777,917.39 815.777,917.148 815.297,916.669 815.297,916.43 815.297,916.189 815.297,915.948 815.297,915.709 815.057,915.469 
		815.057,915.229 815.297,914.749 815.297,914.269 815.297,914.028 815.297,913.789 815.537,913.549 815.537,913.309 
		815.777,912.828 816.018,912.589 816.257,912.108 816.737,911.628 817.217,910.908 817.217,910.428 817.217,909.948 
		816.978,909.228 816.978,908.508 816.737,908.027 816.497,907.788 816.497,907.308 816.737,906.588 817.217,906.348 
		817.217,905.627 817.217,905.387 817.217,905.147 816.978,905.147 816.978,904.907 816.497,904.667 816.497,903.947 
		816.497,903.707 816.737,903.228 816.737,902.747 816.737,902.507 816.737,902.268 816.737,902.027 816.978,901.547 
		816.978,900.827 817.217,898.666 817.457,898.427 817.697,897.706 818.418,896.506 818.418,896.266 818.657,895.785 
		818.897,895.306 819.137,894.826 819.377,894.585 819.857,893.386 820.098,892.905 820.577,892.186 821.537,890.505 
		821.537,890.025 821.777,889.785 822.737,887.145 822.737,886.665 823.217,885.704 824.177,883.784 824.418,882.823 
		824.897,881.864 825.137,881.144 825.617,878.743 825.857,878.264 825.857,878.022 826.098,877.303 826.338,876.103 
		826.338,875.383 826.817,873.942 826.817,873.223 827.297,871.062 827.537,870.103 827.777,868.182 827.057,868.182 
		826.817,868.182 826.577,868.182 826.098,867.702 825.377,867.461 825.137,867.222 823.457,866.502 823.457,866.261 
		822.978,866.021 822.737,866.021 822.257,865.781 822.018,865.541 821.537,865.302 820.817,864.82 819.857,864.341 
		818.177,863.381 817.697,863.141 816.497,862.421 816.257,862.421 815.297,861.94 815.057,861.701 814.338,861.46 814.098,861.221 
		813.617,860.98 812.657,860.501 812.657,860.261 812.418,860.261 812.177,860.021 811.938,860.021 810.978,859.54 810.737,859.301 
		810.018,858.82 809.777,858.82 808.817,858.34 808.338,858.101 808.098,857.86 807.617,857.62 807.377,857.62 806.897,857.14 
		806.177,856.9 805.938,856.66 805.457,856.42 805.217,856.42 805.217,856.18 804.018,855.699 803.537,855.46 803.297,855.22 
		803.058,855.22 802.338,854.739 802.098,854.499 801.857,854.499 800.177,853.539 798.978,852.819 797.777,852.339 
		797.058,852.099 795.137,851.14 795.137,850.898 794.177,850.659 794.177,850.419 790.817,848.739 788.657,847.539 
		786.737,846.339 786.018,845.857 784.817,845.139 784.577,844.897 784.098,844.657 783.377,844.418 782.418,843.698 
		782.178,843.457 781.697,843.218 781.217,842.978 780.978,842.978 780.737,842.738 777.857,841.057 777.377,840.577 
		777.138,840.577 776.897,840.338 776.418,840.098 775.457,839.377 773.777,838.417 772.577,837.697 772.338,837.697 
		771.857,837.217 769.697,836.017 767.297,834.576 766.098,834.097 764.178,832.896 763.938,832.656 763.698,832.656 
		762.498,831.936 759.377,830.016 756.018,828.095 755.298,827.855 754.098,827.136 752.897,826.415 751.938,825.694 
		751.218,825.455 751.218,825.215 750.978,825.215 751.457,824.975 751.457,824.735 751.457,824.494 751.457,824.015 
		750.978,823.535 750.738,823.535 750.498,823.294 750.258,823.055 750.018,822.814 749.777,822.574 749.537,822.094 
		749.298,821.614 749.298,821.135 748.817,820.894 748.577,820.654 747.617,820.654 747.377,820.414 747.138,820.174 
		746.897,819.935 746.657,819.454 746.418,818.974 746.418,818.494 746.657,818.254 747.138,817.054 747.138,816.813 
		746.897,816.573 746.897,816.334 746.657,816.094 746.418,816.094 746.178,816.094 745.457,816.573 745.218,816.813 
		744.978,817.054 744.738,817.054 744.498,817.054 744.258,817.054 743.777,816.813 743.537,816.813 743.058,817.054 
		742.338,817.294 741.857,817.294 741.617,817.294 741.377,817.054 741.138,816.334 740.897,816.334 740.897,816.094 
		740.897,815.613 740.897,815.373 740.418,814.894 740.178,814.894 739.698,814.894 739.457,814.894 739.218,815.133 
		738.978,815.373 738.738,815.373 738.738,815.613 738.498,816.334 738.258,816.334 738.018,816.334 737.777,816.334 
		737.537,816.334 736.577,815.613 736.338,815.133 735.857,814.894 735.378,814.653 734.897,814.653 733.698,815.133 
		733.457,815.373 732.978,815.373 732.498,815.613 732.258,815.373 732.018,815.373 731.777,815.373 731.777,815.133 
		732.018,814.653 732.498,813.934 732.498,813.693 732.498,813.453 732.258,813.213 732.018,812.973 731.058,812.973 
		730.818,812.732 730.577,812.253 730.577,811.772 730.577,811.293 730.338,810.813 729.857,810.813 729.138,810.813 
		728.897,810.573 728.418,810.093 728.178,810.093 727.938,810.093 727.457,809.853 727.218,810.093 726.978,810.332 
		726.018,810.813 725.537,810.813 725.298,810.813 725.058,810.813 724.818,810.813 723.857,810.573 723.617,810.332 
		723.378,810.093 723.378,809.853 723.378,809.612 723.378,809.373 723.378,809.132 723.617,808.412 723.617,808.173 
		723.617,807.932 723.378,807.452 723.378,807.212 723.378,806.973 723.138,806.973 722.418,806.973 721.938,806.973 
		721.698,806.973 721.698,806.731 721.698,806.252 721.938,805.772 721.938,805.531 721.698,805.531 721.458,805.052 
		720.978,804.572 720.498,804.092 720.258,804.092 719.777,803.852 719.537,803.852 719.537,803.611 719.537,803.131 
		719.777,802.892 720.258,802.651 720.258,802.411 720.258,802.172 720.018,801.451 719.298,800.011 719.058,800.011 
		718.818,800.011 718.338,799.771 718.098,799.291 717.617,798.811 717.378,797.61 716.897,797.131 716.178,796.65 715.938,796.65 
		715.698,796.17 715.458,795.69 	"/>
	
		<polyline clip-path="url(#SVGID_2_)" fill="none" stroke="#B37C34" stroke-width="0.48" stroke-linecap="round" stroke-linejoin="round" stroke-miterlimit="3.85" points="
		715.458,795.69 715.218,795.45 714.738,794.97 714.738,794.73 714.979,794.49 715.458,794.25 715.698,794.49 715.938,794.49 
		715.938,794.25 716.178,794.25 716.178,794.011 715.938,794.011 715.938,793.77 715.938,793.53 716.178,793.53 716.418,793.29 
		716.657,793.29 716.897,793.29 716.897,793.53 717.138,793.53 717.378,793.53 717.617,793.29 717.617,792.569 717.138,791.61 
		717.138,791.369 717.138,790.41 717.138,790.169 717.138,789.449 717.138,788.489 716.897,787.769 716.418,787.049 
		716.178,787.049 716.178,786.81 715.938,786.568 716.178,786.329 716.657,785.849 716.657,785.609 716.657,785.369 
		716.657,784.648 716.178,783.688 715.938,783.209 715.218,782.488 714.979,782.008 714.979,781.769 715.218,781.528 
		715.698,781.528 716.657,781.769 716.657,781.528 716.897,781.528 716.897,781.288 716.418,779.607 716.418,779.368 
		716.418,778.647 716.418,777.447 716.418,776.728 716.418,776.487 716.178,776.007 715.938,775.768 715.698,775.047 
		715.218,774.807 714.979,774.807 714.979,774.567 714.498,774.567 714.498,774.327 714.258,774.327 714.018,774.327 
		712.577,774.567 712.338,774.567 712.098,774.567 711.857,774.567 711.617,774.327 711.617,774.087 711.617,773.847 
		711.617,773.367 711.617,772.887 711.857,772.406 711.857,772.166 712.098,771.927 712.577,771.206 713.058,770.967 
		713.777,771.206 714.018,770.967 714.018,770.727 714.258,770.486 714.258,770.247 714.498,769.526 714.498,769.286 
		714.498,769.047 714.498,768.807 714.258,768.807 714.018,768.807 713.777,768.807 713.298,769.286 712.818,769.286 
		712.577,769.047 711.857,768.326 710.657,767.847 710.418,767.606 710.418,767.365 710.418,766.886 710.657,766.165 
		710.657,765.686 710.418,765.206 710.178,764.965 709.218,765.206 708.979,765.206 708.018,764.246 707.777,764.246 
		707.538,764.485 706.818,764.726 706.577,764.726 706.098,764.485 705.857,764.246 705.617,764.006 705.378,763.285 
		705.378,762.325 705.378,762.085 705.138,761.845 704.897,761.845 704.657,761.845 704.418,761.845 704.418,762.085 
		704.178,762.564 704.178,762.806 704.178,763.045 703.938,763.045 703.938,763.285 703.698,763.285 703.458,763.285 
		703.458,763.045 703.218,762.806 703.218,762.564 702.979,762.564 702.979,762.325 702.738,762.325 702.019,762.085 
		701.538,762.325 701.058,762.325 701.058,762.564 700.578,763.285 700.338,763.765 700.098,763.765 699.617,763.525 
		699.138,763.285 698.897,762.806 698.657,762.564 698.418,762.564 697.938,763.045 697.698,763.285 696.979,763.285 
		696.738,763.045 696.738,762.806 696.498,762.564 696.498,762.325 696.498,762.085 696.738,761.845 696.738,761.605 
		696.979,761.605 696.979,761.365 696.738,760.405 696.498,760.405 696.019,760.165 695.777,759.925 695.538,759.205 
		695.538,758.725 696.019,758.244 696.019,757.524 695.777,757.044 695.298,756.084 695.298,755.604 695.298,755.124 
		695.058,754.404 695.058,754.164 694.818,753.684 693.857,753.203 693.857,752.964 693.617,752.483 693.857,752.003 
		693.617,751.764 693.378,751.764 693.138,751.764 692.897,751.764 692.897,752.003 692.897,752.483 692.657,752.483 
		691.938,752.483 691.698,752.244 691.218,751.764 690.979,750.803 690.738,750.803 690.258,750.083 689.538,749.844 
		689.298,749.603 689.058,749.363 689.298,747.923 689.298,747.683 689.058,746.963 688.578,746.723 687.857,746.482 
		687.378,746.243 683.058,746.243 680.658,746.243 680.178,746.243 676.338,746.243 675.857,746.243 669.378,746.482 
		665.058,746.482 664.098,746.482 663.857,746.482 659.777,746.723 658.098,746.723 652.578,746.723 651.618,746.723 
		649.698,746.723 649.458,746.723 648.738,746.723 643.218,746.723 639.618,746.723 637.938,746.723 631.458,746.723 
		629.538,746.723 629.298,746.723 628.578,746.723 627.138,746.723 622.098,746.963 621.858,746.963 617.778,746.963 
		617.058,746.963 616.098,746.963 615.378,746.963 613.938,746.963 608.418,746.963 602.898,746.963 601.938,746.963 
		595.698,746.963 594.979,746.963 592.099,746.963 584.658,746.963 584.178,746.963 583.458,746.963 580.579,746.963 
		579.858,746.963 579.378,746.963 579.139,746.963 578.898,746.963 578.418,746.963 577.938,746.963 577.698,746.963 
		577.218,746.963 576.499,746.963 575.539,746.963 568.099,746.723 562.338,746.723 559.699,746.723 559.458,746.723 
		558.019,746.723 557.778,746.723 554.179,746.723 551.539,746.723 550.338,746.723 549.858,746.723 543.619,746.723 
		541.938,746.723 541.699,746.723 541.219,746.723 540.259,746.723 539.779,746.723 537.619,746.723 533.779,746.723 
		531.619,746.723 529.458,746.723 528.499,746.723 526.579,746.723 524.899,746.723 523.699,746.723 522.739,746.723 
		521.299,746.723 519.619,746.723 517.939,746.723 515.779,746.723 514.099,746.723 507.379,746.723 504.979,746.723 
		503.779,746.723 497.779,746.482 493.459,746.482 492.019,746.482 490.099,746.482 489.379,746.482 487.459,746.482 
		477.619,746.482 475.219,746.482 466.579,746.243 464.659,746.243 457.699,746.243 456.979,746.243 456.259,746.243 
		455.779,746.243 452.419,746.243 450.499,746.243 446.899,746.002 445.219,746.002 444.739,746.002 441.619,746.002 
		441.379,746.002 440.419,746.002 438.499,745.763 438.259,745.763 436.099,745.763 435.859,745.763 434.419,745.763 
		432.979,745.763 429.859,745.522 429.619,745.522 427.939,745.522 425.539,745.522 423.379,745.522 421.939,745.522 
		417.619,745.522 416.419,745.522 416.179,745.522 415.939,745.522 412.579,745.282 411.139,745.282 408.979,745.282 
		408.739,745.282 405.379,745.282 398.179,745.043 392.899,744.802 391.459,744.802 388.1,744.802 387.139,744.802 386.899,744.802 
		386.659,744.802 385.7,744.802 383.779,744.802 381.379,744.563 380.899,744.563 376.339,744.563 374.659,744.563 371.299,744.563 
		368.659,744.563 364.1,744.322 359.779,744.322 359.54,744.322 356.899,744.322 355.7,744.082 353.3,744.082 351.62,744.082 
		350.419,743.843 350.179,743.843 349.7,743.843 348.979,743.843 343.22,743.603 342.259,743.603 336.02,743.362 334.58,743.362 
		332.42,743.362 331.459,743.362 326.18,743.122 325.7,743.122 324.74,743.122 321.379,743.122 320.66,743.122 316.1,742.882 
		312.74,742.882 311.3,742.882 309.62,742.643 304.1,742.643 302.18,742.402 300.5,742.402 298.82,742.402 297.86,742.402 
		296.66,742.162 291.14,741.922 289.7,741.922 289.22,741.922 288.02,741.922 286.82,741.922 285.62,741.682 282.5,741.682 
		277.94,741.442 277.22,741.442 277.22,739.041 277.22,736.161 277.46,730.64 277.7,726.56 277.7,724.88 277.7,722.479 
		277.7,721.999 277.94,721.039 277.94,719.839 277.94,718.878 277.94,718.398 278.18,711.197 278.18,710.957 278.18,709.997 
		278.42,708.077 278.42,707.597 282.02,706.156 282.5,705.916 282.98,705.677 286.82,703.756 287.06,703.516 288.02,703.036 
		289.22,702.315 289.459,702.315 289.94,702.076 290.66,701.596 292.1,700.636 292.34,700.396 293.54,699.676 294.26,699.195 
		297.14,697.515 298.82,696.795 298.82,696.555 300.02,695.835 300.5,695.595 302.18,694.395 303.62,693.194 304.82,692.475 
		305.06,692.234 305.54,691.754 307.459,691.034 307.939,690.555 308.9,689.834 309.859,688.873 310.1,688.634 311.54,686.714 
		312.26,685.993 312.74,685.514 314.42,684.313 316.1,682.873 316.34,682.633 317.3,681.673 318.02,681.673 318.26,681.673 
		318.74,681.673 319.22,681.673 319.459,681.433 319.939,680.952 320.18,680.952 320.42,680.473 321.379,679.992 322.82,679.512 
		323.54,679.272 323.78,679.032 324.74,678.072 325.459,677.592 326.66,677.111 327.62,676.632 328.1,676.392 329.06,676.152 
		329.3,676.152 331.22,675.432 332.18,674.952 332.9,674.952 333.62,674.711 334.1,674.472 334.34,674.472 334.58,674.472 
		335.3,674.472 335.779,674.231 336.259,674.231 336.259,673.991 336.979,673.031 337.22,672.791 337.459,672.311 337.459,672.071 	
		"/>
	
		<polyline clip-path="url(#SVGID_2_)" fill="none" stroke="#B37C34" stroke-width="0.48" stroke-linecap="round" stroke-linejoin="round" stroke-miterlimit="3.85" points="
		810.737,912.349 811.697,912.349 811.938,912.349 811.938,912.589 812.177,913.068 812.418,913.068 812.418,913.309 
		812.657,914.028 812.657,915.469 813.137,916.189 813.137,916.43 813.377,916.909 813.617,917.148 813.857,917.39 814.098,917.869 
		813.617,919.069 812.897,920.27 810.978,922.189 810.737,922.67 810.257,923.149 810.018,923.39 808.817,925.07 808.577,925.07 
		808.338,925.311 807.857,925.79 807.377,926.271 806.418,927.231 806.177,926.751 805.938,926.751 805.697,926.751 
		805.217,926.751 804.737,927.231 804.498,927.471 804.257,927.711 803.537,928.19 802.577,928.671 802.098,928.671 
		801.137,929.391 800.657,929.631 800.418,929.871 799.457,930.111 798.737,930.831 798.498,931.071 798.257,931.071 
		797.777,931.071 797.297,931.071 797.058,931.312 796.817,931.312 796.817,931.552 796.577,931.552 796.098,931.791 
		795.857,931.791 795.377,931.071 795.137,930.352 795.377,929.871 795.377,929.631 795.617,929.631 795.617,929.391 
		796.338,928.671 796.338,928.19 796.338,927.471 795.857,926.031 796.338,925.551 796.817,925.07 797.058,924.831 797.537,924.351 
		798.257,924.351 798.498,924.351 798.737,924.351 798.978,924.11 799.217,923.631 799.457,922.431 799.697,921.23 799.938,920.03 
		800.418,919.069 800.657,918.59 800.418,916.669 799.938,916.669 799.938,916.189 799.938,914.749 800.418,914.269 
		800.897,913.549 801.137,913.549 801.377,913.309 801.857,913.068 802.577,913.068 802.817,913.309 803.537,913.549 
		803.777,913.549 804.498,913.789 805.457,913.549 805.697,913.549 806.657,913.309 807.617,913.309 808.338,913.068 
		808.577,913.068 808.817,912.828 809.058,912.828 809.297,912.828 810.737,912.349 	"/>
	
		<polyline clip-path="url(#SVGID_2_)" fill="none" stroke="#B37C34" stroke-width="0.48" stroke-linecap="round" stroke-linejoin="round" stroke-miterlimit="3.85" points="
		1010.416,824.255 1012.096,823.775 1011.377,824.975 1010.176,825.694 1008.736,826.415 1007.297,827.136 1005.856,828.335 
		1005.616,828.575 1005.377,828.815 1005.136,828.815 1002.017,829.295 1002.017,828.575 1002.496,827.615 1002.736,827.136 
		1002.977,826.655 1003.456,826.175 1004.416,826.175 1004.656,826.175 1005.856,825.455 1006.097,825.215 1007.057,825.215 
		1008.017,824.975 1008.736,824.735 1009.696,824.494 1010.416,824.255 	"/>
	
		<polyline clip-path="url(#SVGID_2_)" fill="none" stroke="#B37C34" stroke-width="0.48" stroke-linecap="round" stroke-linejoin="round" stroke-miterlimit="3.85" points="
		998.656,848.979 998.656,851.379 998.656,852.099 998.416,853.06 998.416,853.539 997.696,854.26 997.456,854.02 997.456,851.379 
		996.736,850.179 996.496,849.939 995.057,849.459 993.377,849.459 992.896,849.219 992.896,848.979 993.137,848.498 
		993.856,848.019 994.097,847.539 994.336,846.578 995.297,847.059 996.736,847.539 996.977,847.539 998.416,848.258 
		998.656,848.979 	"/>
	
		<polyline clip-path="url(#SVGID_2_)" fill="none" stroke="#B37C34" stroke-width="0.48" stroke-linecap="round" stroke-linejoin="round" stroke-miterlimit="3.85" points="
		839.777,885.224 840.018,884.984 840.497,885.465 840.497,885.704 840.497,886.904 840.257,886.904 839.777,886.424 
		839.777,885.704 839.777,885.224 	"/>
	
		<polyline clip-path="url(#SVGID_2_)" fill="none" stroke="#B37C34" stroke-width="0.48" stroke-linecap="round" stroke-linejoin="round" stroke-miterlimit="3.85" points="
		840.257,881.864 840.257,882.104 840.257,882.344 840.257,882.584 840.018,882.584 839.537,882.344 839.537,882.104 
		839.777,881.864 839.777,881.623 840.018,881.384 840.018,881.623 840.257,881.623 840.257,881.864 	"/>
	
		<polyline clip-path="url(#SVGID_2_)" fill="none" stroke="#B37C34" stroke-width="0.48" stroke-linecap="round" stroke-linejoin="round" stroke-miterlimit="3.85" points="
		814.817,906.107 815.057,905.867 815.057,905.627 815.057,905.867 815.297,905.867 815.057,906.348 814.817,907.067 
		814.577,907.308 814.577,907.067 814.338,907.067 814.338,906.827 814.817,906.107 	"/>
</g>
</svg>
