<?xml version="1.0" encoding="utf-8"?>
<!-- Generator: Adobe Illustrator 15.1.0, SVG Export Plug-In . SVG Version: 6.00 Build 0)  -->
<!DOCTYPE svg PUBLIC "-//W3C//DTD SVG 1.1//EN" "http://www.w3.org/Graphics/SVG/1.1/DTD/svg11.dtd">
<svg version="1.1" id="State" xmlns="http://www.w3.org/2000/svg" xmlns:xlink="http://www.w3.org/1999/xlink" x="0px" y="0px"
	 width="1296px" height="1296px" viewBox="0 0 1296 1296" enable-background="new 0 0 1296 1296" xml:space="preserve">
<g>
	<defs>
		<rect id="SVGID_1_" x="259.22" y="351.621" width="779.516" height="595.772"/>
	</defs>
	<clipPath id="SVGID_2_">
		<use xlink:href="#SVGID_1_"  overflow="visible"/>
	</clipPath>
	
		<polyline clip-path="url(#SVGID_2_)" fill="none" stroke="#B37C34" stroke-width="0.72" stroke-linecap="round" stroke-linejoin="round" stroke-miterlimit="3.85" points="
		297.14,477.161 297.14,475.241 297.14,475 297.14,473.8 297.14,473.08 297.14,472.84 297.38,472.12 297.38,471.16 297.62,464.919 
		297.86,461.079 297.86,460.598 297.86,458.438 298.1,455.317 298.1,454.117 298.1,452.677 298.34,446.916 298.58,444.516 
		298.58,444.276 298.58,444.036 298.58,443.076 298.58,442.835 298.58,442.596 298.58,442.355 298.58,440.195 298.82,438.995 
		298.82,438.515 298.82,437.795 298.82,434.674 299.06,433.714 299.06,433.234 299.06,432.514 299.06,432.034 299.06,431.314 
		299.06,431.074 299.06,430.354 299.06,429.874 299.3,426.993 299.3,425.313 304.58,425.553 305.06,425.553 305.54,425.553 
		305.78,425.553 306.02,425.553 306.74,425.553 311.06,425.793 311.3,425.793 311.54,425.793 315.379,426.033 316.58,426.033 
		316.82,426.033 317.06,426.033 317.3,426.033 317.78,426.033 329.3,426.753 338.66,426.993 341.54,427.233 347.54,427.473 
		354.02,427.713 357.859,427.953 362.419,427.953 364.1,427.953 366.259,428.193 378.5,428.434 390.739,428.914 403.219,429.394 
		411.379,429.634 415.459,429.634 427.699,430.114 437.779,430.354 438.259,430.354 440.899,430.594 452.179,430.834 
		452.419,430.834 464.419,431.074 470.659,431.314 470.899,431.314 471.139,431.314 476.659,431.314 478.579,431.554 
		488.899,431.554 501.139,431.794 512.899,432.034 513.379,432.034 525.859,432.274 526.099,432.274 537.619,432.274 
		538.099,432.274 540.499,432.514 541.699,432.514 550.338,432.514 554.179,432.514 562.579,432.754 563.298,432.754 
		563.539,432.754 563.778,432.754 564.258,432.754 572.659,432.754 574.818,432.754 588.499,432.754 591.858,432.754 
		592.099,432.754 592.578,432.754 593.298,432.754 599.539,432.994 611.778,432.994 624.018,432.994 626.178,432.994 
		636.498,432.994 637.458,432.994 637.698,432.994 648.738,432.994 660.979,432.994 686.178,432.754 688.098,432.754 
		690.979,432.754 693.617,432.754 694.818,432.754 709.938,432.514 710.178,432.514 722.418,432.514 734.657,432.274 
		735.617,432.274 736.577,432.274 738.258,432.274 747.138,432.034 747.617,432.034 750.978,432.034 759.138,431.794 
		771.617,431.554 783.857,431.314 796.338,431.074 808.577,430.594 818.897,430.354 820.817,430.354 823.457,430.354 
		833.057,430.114 845.537,429.634 845.777,429.634 869.777,428.914 882.018,428.434 886.098,428.193 894.257,427.953 
		906.497,427.473 916.816,427.233 918.977,426.993 920.177,426.993 922.097,426.993 937.217,426.273 936.977,426.753 
		936.977,426.993 937.217,427.233 937.217,427.713 936.977,427.953 936.736,427.953 936.496,428.434 936.496,428.914 
		936.496,429.634 936.496,429.874 936.496,430.114 936.496,430.834 936.496,431.074 936.736,431.314 936.977,431.554 
		937.217,431.554 937.217,431.794 937.456,432.034 937.456,432.274 937.456,432.514 937.217,433.474 937.217,433.714 
		937.697,433.954 937.697,434.194 937.697,434.434 937.937,434.434 937.937,435.154 938.177,435.634 938.417,435.875 
		938.656,436.114 938.656,436.354 938.896,436.595 938.656,437.075 938.656,437.314 938.896,437.795 939.377,438.035 
		939.377,438.275 939.617,438.515 939.377,439.235 939.377,439.475 939.617,439.955 939.856,440.195 940.816,440.435 
		940.816,440.675 940.816,441.396 940.816,441.635 940.576,441.635 940.576,441.875 940.816,441.875 940.816,442.115 
		940.816,442.355 940.816,442.596 940.816,443.076 940.816,443.315 941.057,443.556 941.536,444.036 942.017,444.036 
		942.017,444.276 942.017,444.996 942.017,445.236 942.257,445.476 942.496,445.476 942.736,445.956 942.736,446.436 
		943.217,447.156 943.217,447.396 943.217,447.636 942.977,447.876 942.977,448.116 943.217,448.116 943.456,448.597 
		943.456,448.836 943.456,449.077 943.456,449.316 943.217,449.316 943.217,449.557 942.736,449.797 942.736,450.037 
		942.736,450.517 942.977,450.757 942.977,450.997 943.217,450.997 943.217,451.237 942.977,451.477 942.977,451.957 
		943.217,452.437 943.217,452.677 943.456,452.917 943.937,452.917 944.177,452.917 944.416,453.157 944.416,453.397 
		944.416,453.637 944.416,453.877 944.416,454.117 944.416,454.357 944.656,454.597 944.656,455.078 944.656,455.317 
		944.656,455.558 944.896,455.797 945.137,455.797 945.377,456.038 945.137,456.278 945.377,456.758 945.377,456.998 
		945.617,456.998 945.617,457.238 945.617,457.718 945.617,457.958 945.617,458.198 945.856,458.438 946.337,459.398 
		946.337,459.638 946.337,460.118 946.097,460.598 946.097,460.838 946.816,461.559 947.297,462.039 947.297,462.999 
		947.297,463.239 947.297,463.479 947.777,463.719 947.777,463.959 947.777,464.439 947.777,464.679 947.536,464.679 
		947.777,464.919 947.777,465.159 948.496,465.639 948.736,465.879 948.977,466.119 949.217,466.599 949.697,467.319 
		949.697,467.799 949.456,468.04 949.456,468.52 950.416,469.72 950.896,469.96 951.377,470.2 951.617,470.44 951.617,470.68 
		951.377,470.92 951.377,471.16 951.377,471.4 951.377,472.6 951.377,473.08 951.377,473.32 951.137,473.561 951.377,473.8 
		951.377,474.28 951.377,474.761 951.137,475 950.896,475.241 950.896,475.961 950.416,476.441 950.416,476.681 950.656,477.161 
		950.896,477.641 950.896,477.881 950.896,478.121 950.656,478.361 950.177,478.601 949.697,478.361 949.217,478.601 
		949.217,479.081 949.456,479.081 949.456,479.321 949.456,479.562 949.456,479.801 949.217,479.801 948.977,479.801 
		948.736,480.042 948.736,480.281 948.736,480.521 948.736,480.761 948.736,481.001 948.257,481.001 948.257,481.481 
		948.257,481.722 948.257,482.202 948.017,482.682 948.017,482.922 947.777,483.162 947.777,483.402 947.777,483.642 
		948.017,483.882 948.017,484.122 948.017,485.082 947.777,485.322 947.777,485.562 947.297,485.562 947.297,485.802 
		947.297,486.042 947.297,486.282 947.297,486.522 947.297,487.002 947.297,487.243 947.297,487.482 947.057,487.723 
		946.576,487.723 946.576,487.962 946.576,488.683 946.576,488.923 946.816,488.923 947.057,489.163 947.297,489.403 
		947.297,489.643 947.057,489.883 946.816,489.883 946.337,490.123 946.337,490.363 946.337,490.603 946.337,490.843 
		946.337,491.083 946.576,491.323 947.057,491.563 947.536,491.803 947.536,492.283 947.536,492.523 947.536,492.763 
		947.297,493.003 947.297,493.724 947.536,494.204 947.777,495.404 948.017,496.604 948.017,496.844 948.017,497.084 
		948.736,497.564 948.736,497.804 948.736,498.284 948.736,499.004 948.736,499.244 948.496,499.484 948.257,499.725 
		948.496,499.964 948.496,500.205 948.736,500.444 948.736,500.685 948.496,500.925 948.496,501.405 948.496,501.885 
		948.736,502.125 948.977,502.365 949.456,502.605 949.697,502.845 949.697,503.085 949.697,503.325 949.697,503.805 
		949.217,504.285 949.217,504.525 949.217,505.005 949.456,505.245 949.697,505.725 949.456,506.206 949.456,506.445 
		949.217,506.445 949.217,506.686 949.217,506.925 949.456,507.406 949.456,507.646 949.697,507.886 949.456,508.125 
		949.217,508.125 948.977,508.366 948.977,508.606 948.977,508.846 949.456,509.086 949.697,509.566 949.697,510.286 
		949.697,510.766 949.217,511.486 948.977,511.726 948.736,511.966 948.736,512.207 948.977,512.926 948.977,513.167 
		949.217,513.646 949.456,513.646 949.456,513.887 949.456,514.126 949.456,514.606 949.217,514.847 948.977,515.327 
		948.977,515.567 948.736,515.807 948.736,516.047 948.736,517.007 948.977,517.007 949.217,517.727 949.456,517.967 
		949.697,517.967 949.937,518.207 949.937,518.447 949.697,518.688 949.937,519.167 950.416,519.647 950.416,519.888 
		950.416,520.368 950.177,521.088 950.177,521.328 950.416,521.568 950.656,521.568 950.896,521.568 950.896,521.808 
		950.896,522.048 950.656,522.528 950.656,522.768 950.656,523.248 950.656,523.728 950.896,523.968 951.137,523.968 
		951.137,524.208 951.137,524.688 951.137,524.928 951.617,525.168 951.617,525.408 951.617,525.648 951.377,525.648 
		951.137,525.648 951.137,525.889 950.896,526.128 951.137,526.369 951.137,526.608 951.377,526.608 951.617,526.849 
		952.097,527.809 952.337,528.049 952.337,528.289 951.617,529.489 951.617,529.729 951.137,529.729 950.896,529.969 
		950.896,530.209 950.896,530.449 951.137,530.449 951.377,530.689 951.377,530.929 951.377,531.169 951.137,531.409 
		951.137,531.649 951.377,531.889 951.377,532.129 951.377,532.37 951.137,532.37 950.896,532.609 950.416,533.089 950.416,533.33 
		950.416,533.57 950.416,533.81 950.656,534.05 950.656,534.29 950.416,534.53 950.177,534.77 950.177,535.25 950.416,535.49 
		950.656,535.49 950.656,535.73 950.656,535.97 950.656,536.21 950.656,536.45 950.656,536.69 950.896,536.69 950.896,536.93 
		950.896,537.17 950.656,537.41 950.656,537.89 950.896,537.89 951.137,538.13 950.896,538.61 950.656,538.851 950.656,539.09 
		950.656,539.331 950.656,539.571 950.656,540.051 950.656,540.531 950.416,540.531 950.416,540.771 950.416,541.011 
		949.937,541.731 950.177,541.971 950.177,542.211 950.416,542.211 950.656,542.691 950.656,542.931 950.416,542.931 
		950.177,543.411 950.177,543.891 950.177,544.131 950.416,545.091 950.656,545.332 950.896,545.571 950.896,546.052 
		950.896,546.292 950.896,546.771 950.656,547.012 950.656,547.492 950.656,547.732 951.137,547.732 951.377,547.972 
		951.617,548.212 951.617,548.452 951.617,548.692 951.856,549.172 952.097,549.892 952.337,550.372 952.816,551.333 
		952.816,551.813 953.057,551.813 952.816,552.053 952.816,552.292 952.816,552.533 952.576,552.772 952.816,552.772 
		952.816,553.013 953.057,553.013 953.777,553.013 954.017,553.013 954.257,553.733 954.496,553.973 954.736,554.213 
		954.736,554.453 954.496,554.693 954.496,554.933 954.496,555.173 954.736,555.173 954.977,555.653 955.217,556.373 
		954.977,556.854 954.736,557.333 954.736,557.573 954.977,557.813 955.456,557.813 956.177,559.014 956.416,559.734 
		956.656,559.734 956.896,559.974 957.137,560.214 957.617,560.454 957.856,560.454 957.856,560.694 957.856,560.934 
		957.856,561.174 958.097,561.174 958.097,561.894 958.337,563.814 958.337,564.054 958.097,564.774 958.097,565.015 
		958.097,565.254 958.337,565.254 958.337,565.495 958.576,565.495 958.816,565.495 959.057,565.734 959.057,565.975 
		958.816,566.215 958.816,566.455 959.057,567.895 959.057,568.135 959.297,568.375 960.017,568.855 960.017,569.095 
		960.257,569.095 960.017,569.575 959.776,570.535 959.776,571.255 959.536,571.496 959.776,571.976 959.776,572.216 
		959.536,572.696 959.536,572.936 959.776,573.176 960.257,573.416 960.496,573.896 960.496,574.136 960.257,574.856 
		960.257,575.096 960.257,575.336 960.736,575.816 961.217,576.056 961.697,576.056 962.177,576.296 962.177,576.776 
		961.937,577.256 962.177,577.497 962.896,577.977 963.137,578.217 963.137,578.457 963.377,578.457 963.617,578.697 
		963.856,578.937 963.856,579.177 963.377,579.657 963.617,579.657 963.856,579.897 964.097,579.897 964.336,580.377 
		964.336,580.857 964.097,581.097 963.856,580.857 963.377,580.617 963.377,581.097 963.856,581.577 963.856,581.817 
		963.617,582.057 963.377,582.537 964.097,583.018 964.097,583.257 963.377,583.737 963.377,583.978 963.617,584.458 
		964.097,584.698 964.097,584.938 964.097,585.178 963.856,585.417 963.856,585.658 964.336,585.898 965.536,585.898 
		965.776,586.138 965.776,586.378 965.776,586.618 965.536,586.618 965.536,586.858 965.776,587.338 966.017,587.338 
		966.257,587.578 966.257,587.818 966.257,588.058 966.496,588.298 966.496,589.018 966.496,589.499 966.496,589.738 
		966.257,589.738 966.257,589.979 966.977,590.458 967.456,590.458 967.937,591.418 967.937,591.659 967.937,592.139 
		968.177,592.139 968.177,592.379 968.177,592.619 968.177,592.859 968.177,593.579 968.416,594.059 968.416,594.539 
		968.177,594.539 968.177,594.779 968.177,595.019 968.656,595.499 968.656,595.979 968.896,595.979 968.896,596.219 
		969.137,595.979 969.617,596.219 969.856,596.459 970.576,596.939 970.576,597.18 970.097,597.419 970.097,597.66 969.856,597.899 
		969.856,598.14 970.097,598.14 970.576,598.38 970.816,598.62 970.816,599.1 971.536,599.1 971.536,599.34 971.776,599.58 
		972.496,600.06 972.736,600.78 972.496,601.02 972.736,601.26 972.736,601.5 972.977,601.5 973.217,601.74 973.217,601.98 
		972.977,601.98 972.977,602.22 972.977,602.46 973.456,602.7 973.697,602.94 973.697,603.42 973.456,603.661 973.217,604.141 
		973.217,604.381 973.217,604.621 973.456,604.861 974.177,605.581 974.656,606.301 974.656,606.541 974.177,607.021 
		974.177,607.261 974.416,607.261 974.656,607.501 974.656,607.741 974.656,607.981 974.656,608.221 974.896,608.461 
		975.137,608.701 975.137,609.181 975.137,609.421 975.377,609.421 975.377,609.662 975.617,609.662 975.617,609.901 
		975.856,610.142 975.856,610.381 976.097,610.622 975.856,610.622 975.856,610.862 975.856,611.102 975.856,611.342 
		976.097,611.342 976.336,611.342 976.336,610.862 976.576,610.862 976.816,611.102 977.057,612.062 977.057,613.262 
		977.297,613.502 977.536,613.502 977.776,613.502 977.776,613.742 977.776,613.982 978.017,614.462 978.256,614.702 
		978.256,615.182 978.256,615.422 978.017,615.422 978.256,615.663 978.256,616.382 978.736,616.623 978.736,616.863 
		978.736,617.343 978.736,617.823 978.496,618.063 978.256,618.303 978.736,619.023 978.977,620.223 979.217,620.943 
		979.456,620.943 979.937,621.183 979.937,621.423 979.696,621.663 979.696,621.903 980.656,621.903 981.137,621.903 
		981.377,622.144 981.617,622.383 981.617,622.624 981.617,622.863 981.377,623.344 981.617,623.583 981.856,623.824 
		981.856,624.063 981.617,624.304 981.617,624.544 981.856,624.784 982.097,624.784 982.097,625.264 982.097,625.744 
		982.097,625.984 982.097,626.224 981.856,626.704 981.617,627.184 981.856,627.424 981.856,627.664 982.097,627.904 
		981.617,628.145 981.617,628.384 981.377,628.384 981.617,628.625 981.617,628.864 981.617,629.104 981.617,629.345 
		981.617,629.584 981.617,629.825 981.856,630.064 982.097,630.305 982.097,630.785 981.856,631.025 981.856,631.265 
		982.097,631.505 982.097,631.745 982.097,631.985 981.856,632.225 981.856,632.465 982.097,632.465 982.097,632.705 
		981.617,633.665 981.377,633.905 981.137,633.905 981.137,634.146 981.137,634.385 981.377,635.105 981.377,635.585 
		981.617,635.585 981.856,635.826 982.097,635.826 982.336,635.826 982.336,636.065 982.336,636.306 982.576,636.545 
		982.576,636.786 982.576,637.026 982.576,637.266 982.576,637.746 982.576,637.986 982.576,638.226 982.576,638.466 
		982.336,638.706 982.097,638.706 982.097,638.946 982.097,639.186 982.097,639.426 982.336,639.666 982.336,639.906 
		982.097,640.146 982.097,640.386 982.097,640.626 982.336,640.626 982.576,640.866 982.336,641.346 982.097,641.586 
		982.097,641.827 982.097,642.066 982.097,642.546 982.336,643.027 982.336,643.507 982.097,643.747 982.097,643.987 
		982.097,644.227 982.336,644.227 982.336,644.467 982.336,644.707 982.336,645.667 982.336,646.147 982.576,646.147 
		982.576,646.387 982.336,646.627 982.336,646.867 982.336,647.107 982.336,647.347 982.336,647.827 982.336,648.067 
		982.336,648.308 982.576,648.308 982.336,648.788 982.097,649.027 981.856,649.268 982.097,649.508 982.336,649.508 
		982.336,649.748 982.336,649.988 982.576,650.468 982.576,650.708 982.816,650.708 983.057,650.708 983.057,650.948 
		983.297,651.188 983.297,651.428 983.536,651.668 984.017,651.908 984.017,652.147 984.017,652.628 984.017,652.868 
		984.256,653.108 984.496,653.348 984.496,654.309 984.017,654.548 984.017,655.028 984.017,655.269 983.776,655.509 
		983.297,655.748 983.536,655.989 983.776,656.229 983.776,656.469 983.536,656.709 983.536,656.948 983.776,657.189 
		983.776,657.429 983.776,657.669 984.017,657.909 984.017,658.148 984.256,658.148 984.256,658.39 984.496,658.629 
		984.256,659.109 984.496,659.59 984.736,660.31 985.217,660.79 985.217,661.029 984.977,661.51 984.977,661.75 985.217,661.989 
		985.456,662.229 985.456,662.47 985.456,662.71 985.217,662.71 985.217,662.949 985.456,662.949 985.456,663.189 985.456,663.43 
		985.217,663.43 985.217,663.67 984.977,663.67 984.736,663.91 984.736,664.39 984.977,664.63 985.217,664.63 985.456,664.63 
		985.696,665.11 985.696,665.59 985.217,666.551 984.736,667.271 984.736,667.511 984.736,667.751 984.977,668.471 985.217,669.431 
		985.217,669.671 985.217,669.91 984.977,669.91 984.977,670.391 984.977,670.631 985.456,670.631 985.456,670.871 985.456,671.11 
		985.217,671.11 985.217,671.352 985.217,671.591 985.217,671.831 985.217,672.071 985.217,672.311 985.456,672.552 
		985.456,672.791 985.456,673.031 985.937,673.271 985.937,673.511 985.937,673.752 985.937,673.991 985.696,674.231 
		985.696,674.472 985.696,674.711 985.937,674.711 986.177,674.952 986.177,675.191 986.177,675.432 985.937,675.432 
		985.937,675.672 985.937,675.912 985.937,676.152 985.937,676.392 985.937,676.632 985.696,676.872 985.696,677.111 
		985.696,677.353 985.937,677.353 986.177,677.592 985.937,677.832 985.937,678.072 986.177,678.552 986.416,678.552 
		986.416,678.792 986.416,679.032 986.177,679.272 986.416,679.512 986.416,679.752 985.937,680.232 985.937,680.473 
		985.937,680.713 985.937,680.952 986.177,681.192 986.416,681.192 986.656,681.433 	"/>
	
		<polyline clip-path="url(#SVGID_2_)" fill="none" stroke="#B37C34" stroke-width="0.72" stroke-linecap="round" stroke-linejoin="round" stroke-miterlimit="3.85" points="
		986.656,681.433 986.656,681.673 986.656,682.152 986.656,682.393 986.896,682.633 987.137,682.633 987.137,682.873 
		987.137,683.113 986.896,683.593 986.896,683.833 987.137,684.073 987.377,684.313 987.617,684.553 987.617,685.033 
		987.617,685.273 987.856,685.273 987.856,685.754 987.617,685.754 987.617,685.993 987.617,686.233 987.856,686.473 
		987.617,686.473 987.377,686.714 987.377,686.953 986.896,687.434 986.896,687.673 987.137,687.673 987.137,687.914 
		986.896,688.154 986.896,688.394 986.896,688.634 987.137,688.634 987.377,688.873 987.377,689.354 987.377,689.594 
		987.377,689.834 987.377,690.073 987.377,690.314 987.617,690.555 987.856,690.794 987.856,691.034 987.617,691.273 
		987.617,691.515 987.617,691.754 988.097,692.234 988.336,692.475 988.097,692.955 988.097,693.194 988.097,693.435 
		988.576,693.435 988.576,693.674 988.576,693.915 988.576,694.155 988.336,694.395 988.336,694.635 988.576,694.635 
		988.576,694.875 988.576,695.595 988.576,695.835 988.336,695.835 988.336,696.074 988.576,696.314 988.576,696.795 
		988.576,697.035 988.576,697.275 988.576,697.515 988.336,697.995 988.576,698.235 988.336,698.475 988.097,698.715 
		988.336,699.436 988.576,699.676 988.576,699.915 988.336,699.915 988.336,700.155 988.336,700.396 988.576,700.876 
		988.816,701.115 988.816,702.076 988.816,702.796 988.816,703.036 989.057,703.276 989.057,703.516 989.057,703.756 
		989.057,703.996 988.816,703.996 988.816,704.236 988.816,704.477 989.057,704.717 989.057,704.956 989.057,705.196 
		988.336,705.437 988.097,705.677 987.617,706.637 987.856,706.637 987.617,707.356 987.617,707.597 987.617,707.837 
		987.856,708.077 988.336,708.557 988.576,708.557 988.816,708.797 988.816,709.037 988.576,709.277 988.576,709.757 
		988.816,710.236 989.297,711.918 989.297,712.157 989.057,712.877 989.057,713.118 989.297,713.357 990.256,713.838 
		990.977,713.598 991.217,713.598 991.456,713.838 991.456,714.077 991.217,714.318 991.456,715.038 991.456,715.277 
		991.456,715.758 991.456,715.998 991.456,716.238 991.696,716.238 992.176,716.238 992.176,716.478 992.416,716.958 
		992.416,717.438 992.416,717.919 992.416,718.398 992.416,718.639 992.656,718.639 992.896,718.639 992.896,719.119 
		993.137,719.119 993.377,718.639 993.856,718.398 995.057,717.678 995.297,717.678 995.297,717.919 995.297,718.158 
		995.297,718.398 995.297,718.639 995.297,718.878 995.536,718.878 995.536,719.119 995.297,719.119 995.297,719.358 
		995.297,719.599 995.536,719.839 995.536,720.078 995.297,720.078 995.297,720.318 995.057,720.799 995.297,721.279 
		995.057,721.519 995.057,721.999 994.816,721.999 994.576,721.759 994.336,722.239 994.097,723.439 994.097,724.159 
		994.336,724.399 994.336,724.64 994.336,724.88 994.576,724.88 994.816,724.88 995.057,725.119 994.816,725.6 994.816,725.84 
		994.576,725.84 994.336,725.6 993.856,725.6 993.616,725.6 993.856,726.08 993.856,726.56 993.856,727.04 993.856,727.28 
		993.856,727.52 993.616,727.76 993.616,728 993.616,728.239 993.856,728.48 993.856,728.72 993.856,728.96 993.856,729.2 
		993.856,729.439 994.097,729.681 994.097,729.92 994.097,730.16 994.097,730.4 994.097,730.64 994.097,730.881 994.097,731.12 
		993.856,731.12 993.616,731.36 993.856,731.601 993.856,731.84 993.616,732.081 993.137,732.32 993.377,732.561 993.377,732.801 
		993.377,733.04 993.137,733.04 992.416,733.761 992.176,734.24 992.416,734.961 992.176,735.201 992.176,735.44 992.176,735.682 
		992.656,735.682 992.656,735.921 992.656,736.401 992.656,736.641 992.656,737.121 992.656,737.602 992.656,738.081 
		992.656,738.321 992.896,738.562 993.137,738.562 993.137,738.802 993.377,739.041 993.377,739.281 993.377,739.762 
		993.137,739.762 993.377,740.002 993.616,740.242 993.616,740.481 993.616,740.722 993.616,740.962 994.097,741.442 
		994.097,741.682 994.097,741.922 994.097,742.162 994.336,742.402 994.097,742.402 994.097,742.643 993.856,742.882 
		993.856,743.122 994.097,743.362 994.336,743.603 994.336,744.082 994.336,744.322 994.336,744.563 994.097,744.563 
		994.336,744.802 994.336,745.043 994.576,745.282 994.576,746.002 994.336,746.482 994.576,746.963 994.816,746.963 
		994.816,747.202 994.816,747.923 994.336,748.163 994.336,748.883 994.336,749.123 994.336,749.363 994.097,750.083 
		993.856,750.563 993.856,750.803 994.336,751.044 994.336,751.764 994.336,752.244 994.336,752.483 994.336,752.964 
		994.576,752.964 994.816,752.964 994.816,753.203 994.336,753.684 994.336,754.164 993.856,754.404 993.856,754.884 
		994.097,755.124 993.856,755.604 993.616,755.844 993.377,756.084 993.377,757.284 993.616,757.765 994.336,758.484 
		994.576,759.444 994.576,759.925 994.336,760.165 994.336,760.645 994.576,760.885 994.816,761.125 995.057,761.125 
		995.057,761.365 995.057,761.605 995.057,761.845 995.297,762.325 995.776,762.325 995.776,762.564 995.776,762.806 
		995.776,763.045 996.017,763.285 996.256,763.525 996.256,763.765 996.017,764.006 996.256,764.246 996.496,764.485 
		996.496,764.726 996.496,765.206 996.496,765.445 996.736,765.686 996.977,765.686 997.456,766.165 997.456,766.406 
		997.456,766.646 997.456,766.886 997.696,766.886 997.937,767.126 998.176,767.365 998.176,767.606 998.416,767.606 
		998.656,767.847 998.416,768.326 998.656,768.326 998.656,768.565 998.896,768.565 999.137,768.807 999.377,770.006 
		999.377,770.247 999.377,770.486 999.377,770.727 999.137,770.967 999.137,771.206 999.137,771.447 999.377,771.687 
		999.616,772.166 999.377,772.647 999.377,772.887 999.616,773.127 999.856,773.127 999.856,773.367 999.616,773.367 
		999.616,773.606 999.856,773.847 999.856,774.087 999.856,774.327 999.616,774.567 999.616,774.807 999.856,775.287 
		1000.336,775.768 1000.576,776.968 1000.576,777.447 1000.336,777.928 1000.576,778.168 1000.576,778.407 1000.816,778.647 
		1000.576,779.128 1000.576,779.368 1000.816,779.607 1001.057,779.607 1001.057,779.848 1000.816,780.088 1000.576,780.809 
		1000.576,781.048 1000.816,781.288 1000.816,781.528 1000.816,782.008 1000.816,782.248 1001.057,782.248 1001.776,782.729 
		1001.776,782.969 1002.017,783.209 1002.256,783.209 1002.496,783.448 1002.496,783.688 1002.496,783.929 1002.736,784.409 
		1002.977,784.409 1002.977,785.129 1002.977,785.369 1002.977,785.609 1002.977,785.849 1002.736,786.089 1002.736,786.329 
		1002.736,786.568 1002.977,786.568 1002.977,786.81 1002.977,787.049 1002.977,787.529 1002.736,787.769 1002.977,788.01 
		1003.217,788.249 1003.456,788.249 1003.696,788.489 1003.937,788.489 1003.937,788.729 1003.937,788.969 1004.176,789.21 
		1004.416,789.21 1004.656,789.449 1004.656,789.689 1004.656,789.93 1004.656,790.169 1004.656,790.41 1005.136,790.41 
		1005.136,790.649 1005.136,790.89 1005.136,791.13 1005.377,791.369 1005.616,791.369 1005.856,791.369 1006.097,791.85 
		1006.097,792.09 1006.097,792.33 1006.336,792.33 1006.576,792.09 1006.816,792.33 1007.057,792.569 1008.017,794.73 
		1008.017,795.45 1008.256,796.65 1008.496,796.891 1009.217,796.891 1009.217,797.371 1009.456,797.61 1009.456,797.851 
		1009.696,798.091 1010.176,798.331 1010.416,798.57 1010.416,798.811 1010.416,799.051 1010.656,799.771 1010.656,800.011 
		1011.136,800.011 1012.096,799.531 1012.336,799.771 1012.336,800.011 1012.336,800.251 1013.057,800.491 1013.297,800.972 
		1013.297,801.211 1013.297,801.451 1013.776,801.932 1014.496,802.411 1015.217,802.651 1015.217,802.892 1015.217,803.372 
		1015.217,803.611 1015.217,804.331 1015.456,805.052 1015.696,805.292 1015.456,806.492 1015.456,806.973 1015.696,807.212 
		1015.696,807.452 1015.696,807.692 1015.456,807.932 1015.696,808.173 1015.937,808.173 1015.937,808.412 1015.937,808.652 
		1015.937,808.893 1015.937,809.132 1015.937,809.373 1015.696,809.373 1015.696,809.612 1015.696,809.853 1015.937,810.093 
		1015.937,810.332 1016.176,810.332 1016.176,810.573 1016.176,811.053 1016.176,811.293 1015.937,811.532 1015.937,812.253 
		1015.696,812.493 1015.937,812.493 1015.937,812.732 1016.176,812.732 1016.416,812.973 1016.416,813.213 1016.416,813.453 
		1016.416,813.693 1016.416,813.934 1016.656,814.173 1016.896,814.173 1016.896,814.413 1016.656,814.653 1016.416,814.894 
		1016.176,815.133 1016.176,815.373 1016.176,815.613 1016.176,815.854 1016.176,816.334 1016.176,816.573 1016.176,816.813 
		1016.176,817.294 1016.416,818.494 1016.896,818.734 1017.377,819.935 1017.616,820.654 1017.856,821.135 1017.856,821.614 
		1017.616,821.614 1017.616,821.854 1017.377,821.854 1017.377,822.335 1017.377,822.814 1017.377,823.294 1017.616,823.535 
		1017.616,823.775 1017.616,824.015 1017.616,824.255 1017.616,824.494 1017.856,824.494 1018.096,824.975 1018.096,825.215 
		1018.096,825.455 1018.336,825.455 1018.336,825.694 1018.576,825.694 1018.576,825.936 1018.576,826.415 1018.576,826.895 
		1018.576,828.095 1018.576,828.575 1018.816,829.056 1019.057,829.295 1019.536,830.256 1019.776,830.496 1019.776,831.456 
		1019.536,831.695 1019.776,831.936 1020.017,832.176 1020.496,832.656 1020.496,832.896 1020.017,833.136 1020.256,833.616 
		1020.496,834.097 1020.977,834.576 1020.977,835.057 1021.217,835.776 1021.217,836.497 1021.456,837.217 1021.456,837.457 
		1021.456,838.177 1021.217,839.377 1021.456,839.617 1021.456,840.338 1021.456,840.577 1021.217,841.298 1021.217,841.538 
		1020.736,842.257 1020.017,844.178 1019.536,845.857 1019.776,846.098 1019.776,846.339 1019.776,846.578 1020.017,847.298 
		1020.017,848.498 1020.256,848.979 1020.256,849.219 1020.496,851.14 1020.496,852.339 1020.736,853.299 1020.977,854.739 
		1021.456,856.66 1021.696,856.9 1021.937,857.14 1021.937,858.58 1021.696,858.82 1020.496,858.82 1019.297,858.82 
		1018.336,858.82 1017.377,858.82 1016.416,859.061 1014.256,859.061 1012.096,859.061 1010.176,859.301 1008.017,859.301 
		1006.097,859.54 1005.616,859.54 1004.896,859.54 1002.017,859.54 999.137,859.78 998.416,859.78 997.696,859.78 994.576,860.021 
		994.097,860.021 993.137,860.021 989.536,860.261 989.057,860.261 986.656,860.501 981.856,860.501 980.656,860.74 978.496,860.74 
		976.576,860.98 968.177,861.221 966.736,861.221 964.097,861.46 955.937,861.94 947.536,862.181 946.816,862.181 943.456,862.421 
		931.217,862.901 930.977,862.901 930.736,862.901 929.777,862.901 927.137,862.901 924.736,863.141 918.497,863.381 
		915.617,863.381 909.377,863.621 906.257,863.86 903.377,863.86 901.457,863.86 900.736,863.86 893.777,864.102 890.897,864.341 
		883.457,864.341 881.537,864.581 880.577,864.581 878.417,864.581 872.417,864.82 869.057,864.82 862.098,865.061 860.897,865.061 
		853.697,865.302 844.338,865.541 841.457,865.541 838.098,865.781 834.018,865.781 833.777,865.781 832.098,865.781 
		828.978,865.781 819.857,866.021 817.217,866.021 816.737,866.021 814.338,866.021 813.617,866.021 807.377,866.261 
		804.498,866.261 804.257,866.261 802.098,866.261 801.137,866.261 800.418,866.261 798.018,866.261 795.377,866.261 
		792.018,866.502 789.617,866.502 782.657,866.502 779.537,866.502 770.897,866.741 770.418,866.741 769.938,866.741 
		760.098,866.981 759.138,866.981 758.897,866.981 758.178,866.981 754.577,866.981 752.657,866.981 751.938,866.981 
		750.738,866.981 748.577,866.981 745.938,867.222 742.577,867.222 741.857,867.222 740.418,867.222 736.098,867.222 
		735.617,867.222 731.537,867.222 731.298,867.222 721.698,867.461 719.537,867.461 713.537,867.461 711.378,867.461 
		708.979,867.461 705.857,867.461 705.617,867.461 696.979,867.461 692.897,867.461 684.258,867.702 680.418,867.702 
		674.178,867.702 672.498,867.702 670.098,867.702 669.857,867.702 666.738,867.702 665.777,867.702 663.857,867.702 
		653.538,867.702 652.818,867.702 652.578,867.461 651.618,867.461 640.098,867.461 639.138,867.461 638.898,867.461 
		638.178,867.461 635.058,867.461 631.458,867.461 630.018,867.461 618.738,867.461 618.498,867.461 616.338,867.461 
		610.578,867.461 609.378,867.461 606.499,867.461 605.298,867.461 604.578,867.461 600.499,867.461 593.778,867.461 
		592.578,867.461 588.019,867.461 587.778,867.461 586.099,867.461 585.139,867.461 583.938,867.222 583.698,867.222 
		571.698,867.222 570.979,867.222 567.619,867.222 567.139,867.222 565.458,867.222 564.738,867.222 564.258,867.222 
		564.019,867.222 561.378,867.222 559.458,867.222 554.659,866.981 553.219,866.981 550.579,866.981 549.139,866.981 
		548.659,866.981 545.539,866.981 544.818,866.981 544.579,866.981 540.019,866.981 537.379,866.981 536.898,866.981 
		526.339,866.741 525.859,866.741 524.419,866.741 519.379,866.502 516.499,866.502 514.099,866.502 512.179,866.502 
		511.459,866.502 510.019,866.502 509.299,866.502 506.419,866.261 505.939,866.261 505.699,866.502 503.299,866.261 
		502.819,866.261 499.939,866.261 498.979,866.261 497.059,866.261 494.899,866.261 493.699,866.261 486.739,866.021 
		485.059,866.021 483.619,866.021 483.379,866.021 482.659,866.021 482.419,866.021 476.419,865.781 474.019,865.781 
		473.779,865.781 471.139,865.781 470.179,865.541 469.939,865.781 468.979,865.541 468.019,865.541 467.059,865.541 
		466.819,865.541 466.579,865.541 465.619,865.541 464.899,865.541 462.979,865.541 460.819,865.541 457.939,865.302 
		450.739,865.302 450.019,865.302 447.379,865.061 445.459,865.061 443.539,865.061 443.059,865.061 442.099,865.061 
		441.859,865.061 440.899,864.82 440.419,864.82 440.179,864.82 438.259,864.82 436.819,864.82 436.099,864.82 435.379,864.82 
		433.219,864.82 427.939,864.581 426.979,864.581 426.019,864.581 422.899,864.341 420.739,864.341 418.819,864.341 
		417.859,864.341 416.419,864.341 415.699,864.341 413.779,864.102 412.579,864.102 408.5,864.102 406.339,864.102 401.299,863.86 
		396.259,863.621 395.299,863.621 391.219,863.621 389.059,863.381 384.259,863.381 383.779,863.381 380.659,863.141 378.5,863.141 
		377.059,863.141 375.62,862.901 373.7,862.901 371.299,862.901 369.379,862.901 367.22,862.66 362.419,862.66 361.7,862.421 
		359.06,862.421 358.34,862.421 355.22,862.421 352.82,862.181 346.82,861.94 346.1,861.94 342.5,861.94 341.779,861.701 
		340.34,861.701 340.1,861.701 334.34,861.46 327.859,861.221 326.18,861.221 322.1,860.98 317.78,860.74 317.06,860.74 
		316.1,860.74 309.62,860.501 304.1,860.261 291.62,859.78 279.62,859.301 279.86,851.379 280.82,834.576 280.82,833.856 
		280.82,833.616 281.3,822.094 281.54,820.414 281.78,811.532 282.26,805.292 282.26,802.892 282.5,799.291 282.5,796.891 
		283.22,783.448 283.46,778.888 283.7,774.567 283.7,772.406 284.18,762.085 284.18,760.165 284.66,750.803 284.66,750.083 
		284.66,748.883 284.9,748.402 285.38,737.361 285.38,733.281 285.86,722.959 286.1,720.799 286.1,718.639 286.1,717.678 
		286.34,712.157 286.82,703.996 286.82,703.516 287.06,701.836 287.06,701.115 287.06,700.396 287.06,699.915 287.06,698.235 
		287.06,697.755 287.3,696.074 287.54,691.273 287.54,687.914 287.54,687.434 288.02,678.792 288.26,671.831 288.26,671.591 
		288.26,671.352 288.5,670.871 288.5,670.391 288.5,669.91 288.74,662.47 288.74,662.229 288.74,660.549 288.979,655.989 
		289.22,652.868 289.459,647.107 289.7,644.227 290.18,635.105 290.66,623.583 290.66,622.383 290.9,620.703 291.14,613.262 
		291.62,603.181 292.1,595.259 292.1,595.019 292.1,594.779 292.1,594.539 292.34,590.699 292.34,589.738 292.58,587.578 
		292.58,586.858 292.82,582.777 293.06,574.376 293.06,573.896 293.06,571.255 293.3,568.375 293.3,567.895 293.3,563.814 
		293.78,551.572 294.02,548.452 294.02,547.732 294.02,547.492 294.26,543.891 294.26,542.211 294.5,540.051 294.5,539.811 
		294.5,539.09 294.74,533.089 294.74,532.609 294.74,532.37 294.74,531.169 294.74,530.929 294.74,529.969 294.74,528.289 
		294.979,526.849 294.979,524.928 295.22,522.768 295.22,521.808 295.22,518.688 295.459,514.367 295.459,514.126 295.459,513.167 
		295.459,512.926 295.459,512.446 295.459,512.207 295.459,511.966 295.459,511.726 295.7,508.846 295.7,507.406 295.939,504.045 
		295.939,503.805 295.939,503.085 295.939,501.885 295.939,500.925 296.18,497.084 296.18,496.364 296.42,493.724 296.42,492.523 
		296.42,491.803 296.42,490.603 296.42,489.643 296.66,487.482 296.66,484.362 296.66,483.162 296.66,482.442 296.9,482.202 
		296.9,479.321 296.9,479.081 296.9,478.361 297.14,478.121 297.14,477.161 	"/>
</g>
</svg>
