<?xml version="1.0" encoding="utf-8"?>
<!-- Generator: Adobe Illustrator 15.1.0, SVG Export Plug-In . SVG Version: 6.00 Build 0)  -->
<!DOCTYPE svg PUBLIC "-//W3C//DTD SVG 1.1//EN" "http://www.w3.org/Graphics/SVG/1.1/DTD/svg11.dtd">
<svg version="1.1" id="State" xmlns="http://www.w3.org/2000/svg" xmlns:xlink="http://www.w3.org/1999/xlink" x="0px" y="0px"
	 width="1296px" height="1296px" viewBox="0 0 1296 1296" enable-background="new 0 0 1296 1296" xml:space="preserve">
<g>
	<defs>
		<rect id="SVGID_1_" x="259.22" y="351.621" width="779.516" height="595.772"/>
	</defs>
	<clipPath id="SVGID_2_">
		<use xlink:href="#SVGID_1_"  overflow="visible"/>
	</clipPath>
	
		<polyline clip-path="url(#SVGID_2_)" fill="none" stroke="#B37C34" stroke-width="0.48" stroke-linecap="round" stroke-linejoin="round" stroke-miterlimit="3.85" points="
		305.78,640.626 306.02,640.386 306.26,640.146 306.5,639.666 306.02,638.706 305.54,638.466 305.3,638.466 305.54,637.986 
		305.78,637.026 305.78,636.786 306.02,636.545 306.02,636.306 305.78,636.065 305.3,634.865 305.54,634.625 306.5,634.146 
		306.979,633.905 306.979,633.665 307.459,633.185 307.939,632.465 307.939,631.745 307.939,631.505 307.939,631.265 307.7,631.265 
		307.939,631.025 308.18,630.785 308.18,630.545 307.7,629.825 307.459,629.825 307.22,629.584 306.979,629.104 306.979,628.864 
		307.22,628.625 307.459,628.384 307.7,628.384 307.939,628.145 308.42,627.424 308.66,627.424 308.9,627.184 308.9,626.944 
		309.14,626.464 309.379,626.224 309.62,625.744 310.34,625.504 310.82,624.784 311.3,624.784 311.3,624.544 311.54,624.304 
		311.54,624.063 311.78,624.304 312.02,624.304 312.26,623.824 312.26,623.344 312.5,623.344 312.74,623.344 312.979,623.824 
		313.22,623.583 313.939,623.344 313.939,623.104 314.42,622.624 315.14,622.624 315.14,622.383 315.379,622.383 315.859,622.624 
		316.1,622.624 316.58,622.383 316.82,621.903 316.82,621.423 317.06,620.943 317.54,620.943 317.54,620.703 317.54,620.463 
		317.54,620.223 318.02,619.743 318.26,619.743 318.979,618.783 319.22,618.303 319.459,618.063 319.939,617.823 320.66,617.823 
		321.14,617.823 321.379,617.823 321.62,618.063 322.1,618.063 322.82,618.063 323.54,617.583 323.78,617.823 324.02,617.823 
		325.22,616.863 325.459,616.623 325.939,616.143 327.379,615.663 327.859,615.182 328.58,614.702 328.58,614.222 329.3,614.222 
		329.54,614.222 329.779,613.982 330.5,614.222 331.7,613.982 331.939,614.222 332.66,614.222 332.9,614.222 334.1,613.742 
		334.34,613.742 334.58,613.742 334.82,613.742 336.02,613.742 336.5,613.742 336.739,613.742 337.459,613.742 337.7,613.742 
		337.939,613.982 338.18,613.742 338.42,613.982 339.14,614.222 339.62,614.222 339.859,614.222 339.859,613.982 340.34,613.982 
		341.779,613.502 342.259,613.022 342.5,613.022 342.739,613.262 343.459,613.742 343.939,614.462 343.939,614.702 344.179,614.702 
		344.42,614.702 344.9,614.702 345.14,614.462 345.62,614.462 346.34,614.702 346.82,614.702 347.779,614.702 348.5,614.702 
		349.459,614.702 349.7,614.942 351.379,615.182 351.859,614.702 352.34,614.702 352.82,613.742 353.06,613.502 353.06,613.262 
		353.06,613.022 353.3,613.022 353.54,612.782 353.54,612.542 353.779,612.302 354.5,612.302 354.979,611.582 355.459,611.102 
		355.939,610.622 355.939,610.381 356.419,610.381 357.139,610.622 357.379,610.622 357.859,610.381 358.1,610.381 358.1,610.142 
		358.82,609.901 359.3,609.662 359.54,609.421 360.02,609.421 360.5,609.181 360.739,608.461 360.739,608.221 361.459,608.221 
		361.7,608.221 361.7,607.981 362.179,607.741 362.419,607.981 362.659,607.981 363.379,607.261 363.379,607.021 363.62,606.781 
		363.62,606.541 363.62,606.301 363.859,606.061 364.1,605.821 364.1,605.581 364.339,605.821 365.06,605.581 365.3,605.341 
		366.5,605.581 366.739,606.061 367.22,606.541 367.459,606.541 368.179,606.301 368.419,606.301 368.899,605.821 369.139,605.341 
		369.139,604.621 369.859,604.141 370.339,604.141 370.819,603.9 371.059,603.42 371.299,603.181 371.54,603.181 371.779,602.94 
		372.02,602.7 372.02,602.46 372.259,601.98 372.02,601.74 372.259,601.26 372.259,601.02 372.259,600.78 372.259,600.54 
		372.259,600.3 372.5,600.06 373.22,599.82 373.459,599.58 373.459,599.34 374.179,599.34 374.899,599.58 375.139,599.34 
		375.379,599.58 375.62,599.58 376.579,599.58 376.819,599.58 377.059,599.58 377.779,599.34 378.02,599.34 378.5,598.62 
		378.5,598.38 378.739,597.899 379.22,597.66 379.459,597.66 379.939,596.699 379.939,596.459 379.939,596.219 380.179,595.979 
		380.419,595.739 380.899,595.739 381.379,595.979 381.379,595.739 383.059,595.499 383.779,595.739 384.259,595.499 384.5,595.259 
		384.979,595.019 385.22,595.019 385.459,595.019 385.459,594.779 385.7,594.779 386.659,594.059 386.659,593.819 387.139,593.579 
		387.62,593.579 388.339,593.819 388.579,593.819 388.819,593.819 389.299,593.579 389.779,593.819 389.779,594.059 390.02,594.059 
		390.259,594.059 390.5,594.059 390.739,593.819 391.219,594.059 391.699,594.299 392.179,594.539 392.659,594.779 393.139,595.019 
		393.62,595.499 394.1,595.499 394.339,595.499 395.059,595.019 395.539,594.539 395.779,594.059 396.259,593.819 396.739,593.819 
		396.979,593.579 396.739,593.339 396.979,592.859 397.219,592.619 397.219,592.379 397.459,592.139 397.459,591.898 
		397.699,591.179 398.419,590.458 398.419,590.218 399.139,590.218 399.379,589.499 399.62,589.258 399.859,589.018 400.1,589.018 
		400.339,589.018 400.579,588.778 400.579,588.538 400.579,587.818 400.819,586.858 400.819,586.378 401.059,586.378 
		401.539,585.898 402.02,585.898 402.259,585.658 402.5,585.417 402.5,585.178 402.5,584.938 402.259,584.938 402.259,584.698 
		402.02,584.458 402.02,584.217 402.259,583.978 402.259,583.737 402.259,583.498 402.02,583.257 402.02,582.057 401.539,581.577 
		401.539,581.337 401.539,581.097 401.539,580.857 401.539,580.617 401.539,580.137 401.779,580.137 402.02,580.137 
		402.259,579.897 402.5,579.897 402.5,579.657 402.5,578.937 402.739,578.217 402.979,578.457 403.219,578.217 403.939,577.977 
		404.899,577.497 405.139,577.736 405.859,578.217 406.579,577.977 406.819,578.217 407.539,578.937 408.02,579.417 408.5,579.657 
		408.739,580.137 408.979,580.857 409.459,580.617 409.939,580.377 410.179,580.377 410.419,580.377 410.659,580.137 
		410.419,579.657 410.419,579.417 410.899,578.697 411.859,577.977 412.099,577.977 412.099,577.256 412.099,576.776 
		412.339,576.776 412.339,576.536 412.819,576.536 413.059,576.056 413.059,575.816 412.819,575.576 412.579,575.576 
		412.339,575.336 412.339,574.376 412.579,574.136 412.819,573.896 412.819,573.416 413.059,573.176 414.02,572.936 414.5,572.696 
		414.979,572.696 415.219,572.456 416.899,571.496 417.139,571.255 417.379,571.496 418.099,571.016 418.339,570.775 
		418.339,570.535 418.339,570.295 418.579,570.295 418.819,570.295 419.299,570.055 419.539,569.815 420.5,569.335 420.739,569.095 
		420.739,568.855 420.979,568.615 421.939,568.375 422.179,568.135 422.659,567.895 423.139,567.655 423.379,567.655 
		423.859,567.655 424.099,567.415 424.339,567.175 424.819,566.935 425.299,566.935 425.539,567.175 426.259,567.895 
		426.499,568.135 426.499,568.375 426.259,568.855 426.739,568.855 426.979,569.095 427.219,569.335 427.699,569.575 
		427.699,569.815 427.939,570.055 428.179,570.295 428.179,570.535 428.179,570.775 428.179,571.016 427.699,571.496 
		427.459,571.735 426.979,572.456 426.739,572.936 426.499,573.176 426.499,573.656 426.499,574.136 426.739,574.376 
		426.979,574.376 427.219,574.856 426.979,575.096 426.739,576.296 426.739,576.536 426.739,577.017 426.979,577.017 
		427.459,577.256 427.939,577.256 428.179,577.017 429.139,577.256 429.379,577.256 429.379,577.736 429.619,577.977 
		430.099,578.217 431.059,578.457 431.299,577.736 431.779,577.497 432.259,577.017 432.499,577.017 432.979,577.017 
		433.219,576.776 433.939,576.536 434.179,576.536 434.419,576.296 434.899,576.296 435.379,576.296 435.859,575.816 
		436.579,575.096 437.059,574.856 437.299,574.616 437.299,574.376 437.539,574.136 438.019,573.896 438.979,573.416 
		439.219,573.176 439.459,572.936 442.579,567.655 443.059,566.695 443.779,565.734 444.259,565.254 445.459,564.294 
		445.699,564.294 446.179,564.054 446.419,563.814 446.659,563.574 446.899,563.574 447.379,563.334 447.859,563.094 
		447.859,562.854 448.339,562.614 448.819,562.374 448.819,562.614 449.059,562.614 449.779,562.614 450.259,562.614 
		450.499,562.374 450.739,562.374 451.219,562.374 451.459,562.134 452.179,561.654 452.419,561.414 452.659,561.174 
		453.139,560.934 453.859,560.694 454.099,560.934 454.579,561.414 454.819,561.414 455.059,561.414 455.299,561.414 
		455.299,561.654 455.539,561.654 455.779,561.654 456.019,561.414 456.259,560.934 456.499,560.934 456.739,560.934 
		456.979,561.174 457.219,561.414 457.459,561.174 457.699,560.934 457.699,560.694 458.179,560.454 458.419,560.454 
		458.419,560.214 458.899,559.734 459.139,559.494 459.379,559.014 459.379,558.773 459.859,558.534 460.099,558.534 
		460.339,558.534 460.819,558.773 461.059,559.014 461.299,559.253 461.779,559.494 462.019,559.734 462.259,559.734 
		462.499,559.974 462.499,560.214 462.739,560.214 462.979,560.214 463.219,560.214 463.459,559.974 463.699,559.974 
		464.419,559.974 464.899,559.734 465.379,559.734 465.619,559.734 465.859,560.214 466.099,560.694 466.099,560.934 
		466.339,561.894 466.339,562.374 466.339,562.854 466.579,563.334 466.819,564.054 467.059,564.294 468.019,564.294 
		468.499,564.054 468.739,564.054 468.979,564.054 469.219,564.294 469.459,564.294 470.659,564.294 470.899,564.294 
		471.139,564.294 472.099,563.814 472.579,563.574 473.059,562.854 473.059,562.614 473.299,562.134 473.779,562.374 
		474.019,562.374 474.499,562.854 474.739,562.854 474.979,562.854 475.219,562.614 475.459,562.614 475.459,562.134 
		475.459,561.894 476.179,560.934 476.419,560.454 477.859,558.053 477.859,557.813 478.819,556.613 480.019,554.453 
		480.259,553.733 481.219,552.053 483.139,549.412 483.619,548.452 485.059,546.292 485.779,544.852 486.739,544.131 
		486.979,544.371 487.699,544.131 488.179,543.651 488.419,543.411 488.659,543.171 488.899,542.691 489.619,541.971 
		490.099,541.491 490.339,541.491 490.579,541.251 491.059,541.011 491.539,540.771 492.259,540.291 492.979,540.291 
		493.939,540.051 494.179,539.571 494.899,539.331 495.139,539.331 495.379,539.331 495.619,539.571 495.619,539.811 
		495.619,540.051 495.859,540.291 496.099,540.291 496.339,540.291 496.819,540.531 497.539,541.011 497.539,541.251 
		498.019,541.251 498.019,541.491 498.259,541.491 498.499,541.491 498.739,541.491 498.979,541.491 499.219,541.491 
		499.459,541.491 499.699,541.251 499.939,541.251 500.179,541.251 500.659,541.251 500.899,541.251 501.379,541.491 
		501.619,541.731 502.099,541.971 502.579,541.731 502.579,541.491 502.579,541.251 502.579,540.771 502.099,540.291 
		501.619,540.291 501.379,540.051 501.379,539.811 501.139,539.331 501.139,539.09 501.139,538.851 501.139,538.371 500.659,537.89 
		500.419,537.65 500.419,537.41 500.659,537.17 500.659,536.93 500.899,536.45 500.659,536.21 500.659,535.97 500.419,535.73 
		500.179,535.49 499.939,535.01 499.939,534.53 500.179,534.05 500.419,533.81 500.899,533.57 501.619,532.85 501.859,532.37 
		501.859,531.889 502.099,531.409 502.099,531.169 502.099,530.929 502.099,530.689 502.339,530.449 502.339,529.969 
		502.099,529.729 502.099,529.489 502.819,529.009 503.299,528.769 503.539,528.769 503.779,528.529 503.779,528.289 
		504.019,527.809 504.019,527.569 503.779,527.569 503.779,526.608 503.779,526.128 503.779,525.889 503.779,525.648 
		503.779,525.408 503.539,525.168 503.539,524.928 503.779,524.688 503.779,524.208 503.539,523.968 503.539,523.728 
		503.539,523.488 503.539,523.008 503.299,523.008 503.299,522.768 503.059,522.528 503.059,522.288 503.059,521.808 
		503.059,521.328 503.539,521.328 503.779,521.088 503.779,520.607 504.259,520.127 504.499,519.888 504.499,519.407 
		504.499,518.927 504.259,518.688 504.259,518.447 504.499,518.207 504.499,517.967 504.739,518.207 505.459,518.207 
		505.459,517.967 505.699,517.967 505.699,517.727 505.699,517.487 505.459,517.007 505.459,516.767 505.459,516.287 
		505.699,516.047 511.939,516.527 517.459,517.007 518.419,517.247 520.339,517.247 520.579,517.487 521.059,517.487 
		522.259,517.247 523.699,517.487 524.659,517.727 524.899,517.727 530.418,518.207 532.339,518.207 534.739,518.207 
		535.938,518.207 539.059,518.447 539.779,518.447 540.019,518.447 540.739,518.447 543.378,518.688 544.579,518.688 
		546.739,518.688 547.219,518.927 548.659,518.927 548.898,518.927 549.139,519.167 549.619,519.167 550.099,519.167 
		551.059,519.167 552.259,519.167 552.739,519.407 554.418,519.407 555.619,519.407 556.099,519.407 556.338,519.407 
		560.418,519.888 560.898,519.888 562.579,519.888 563.059,519.888 565.699,520.127 565.938,520.127 569.298,520.368 
		569.539,520.368 574.579,520.607 575.778,520.607 577.218,520.607 577.458,520.607 577.698,520.607 578.178,520.607 
		579.858,520.607 582.258,520.607 583.458,520.368 585.618,520.607 585.858,520.607 586.338,520.607 588.258,520.848 
		588.979,520.848 589.698,520.848 591.378,521.088 592.099,521.088 593.059,521.088 595.458,521.328 597.138,521.328 
		597.378,521.328 599.059,521.568 601.458,521.568 603.858,521.808 607.218,522.048 607.938,522.048 612.018,522.288 
		612.258,522.528 614.898,522.528 615.858,522.768 617.058,522.768 619.218,523.008 624.738,523.008 624.978,523.008 
		627.618,523.008 628.338,523.008 628.578,523.008 629.298,523.008 629.538,523.008 633.378,523.248 635.058,523.248 
		635.538,523.248 638.178,523.248 639.138,523.248 641.298,523.248 644.178,523.248 644.418,523.248 646.098,523.248 
		649.938,523.488 650.897,523.488 651.378,523.488 651.618,523.488 652.818,523.488 654.498,523.488 656.418,523.488 
		656.658,523.488 657.378,523.488 659.298,523.488 661.219,523.488 661.938,523.488 662.178,523.488 665.058,523.488 
		665.538,523.488 666.979,523.488 670.818,523.728 673.938,523.728 675.857,523.728 682.818,523.728 683.058,523.728 
		683.777,523.728 684.979,523.728 687.138,523.728 687.378,523.728 689.058,523.728 689.538,523.728 692.657,523.728 
		693.617,523.728 695.777,523.728 697.458,523.728 703.938,523.968 705.138,523.968 707.777,523.728 708.258,523.728 
		708.498,523.728 708.738,523.728 710.418,523.728 714.258,523.728 715.218,523.728 715.458,523.728 721.218,523.728 
		727.457,523.728 727.938,523.728 728.178,523.728 728.657,523.728 730.338,523.728 732.258,523.728 732.738,523.728 
		733.698,523.728 736.338,523.728 738.258,523.728 742.338,523.728 743.298,523.728 744.258,523.728 744.738,523.728 
		744.978,523.728 745.457,523.728 747.617,523.728 752.897,523.728 753.377,523.728 754.098,523.728 754.338,523.728 
		756.498,523.728 756.738,523.728 758.178,523.728 758.897,523.728 763.457,523.728 764.178,523.728 764.418,523.728 
		766.098,523.728 768.258,523.728 768.737,523.728 769.218,523.728 770.418,523.728 771.617,523.488 772.098,523.488 
		776.418,523.488 781.217,523.488 782.178,523.488 786.257,523.248 787.697,523.248 788.657,523.248 791.537,523.248 
		797.058,523.248 797.297,523.248 798.498,523.248 799.217,523.248 804.018,523.248 804.737,523.248 816.257,523.008 
		817.217,523.008 817.697,523.008 818.177,523.008 818.657,523.008 827.057,522.768 827.297,522.768 828.497,522.768 
		829.457,522.768 834.978,522.768 837.137,522.768 840.978,522.768 841.938,522.528 842.177,522.528 842.657,522.528 
		849.137,522.528 851.057,522.528 856.098,522.528 859.457,522.528 864.257,522.288 865.697,522.288 869.297,522.288 
		871.457,522.288 873.377,522.288 874.577,522.048 876.257,521.808 876.497,522.048 877.697,522.288 879.856,522.048 
		881.777,522.048 882.018,522.048 882.257,522.048 883.457,522.048 884.417,522.048 889.217,522.048 896.656,521.808 
		897.137,521.808 896.897,521.568 896.897,521.088 897.137,521.088 898.577,521.088 906.018,520.848 908.177,520.848 
		910.337,520.848 910.816,520.848 911.537,520.848 913.697,520.607 917.297,520.607 920.417,520.607 924.977,520.368 
		927.856,520.368 931.937,520.368 934.097,520.127 940.576,520.127 941.297,520.127 946.576,519.888 953.057,519.647 
		956.416,519.647 959.776,519.647 962.177,519.407 969.377,519.167 970.097,519.167 975.856,519.167 976.097,519.167 
		978.736,518.927 979.696,518.927 979.937,518.927 980.177,518.927 980.416,518.927 981.137,518.927 981.617,518.927 
		982.097,518.927 982.336,518.927 983.297,518.927 984.256,523.968 986.416,531.889 986.416,532.37 987.856,538.371 
		989.297,543.171 990.017,545.091 990.736,547.252 990.977,547.972 991.937,550.853 991.937,551.092 992.176,551.333 
		993.137,553.733 995.057,558.773 995.297,559.014 995.297,559.253 996.017,560.694 996.256,561.174 996.977,562.854 
		997.696,564.294 998.896,566.695 1000.097,568.855 1000.576,569.335 1001.536,571.016 1002.256,572.216 1003.456,574.856 
		1003.937,576.056 1004.896,577.736 1004.896,577.977 1005.136,577.977 1008.256,584.458 1009.937,587.578 1009.937,587.818 
		1010.176,588.058 1010.176,588.298 1010.656,589.738 1011.616,592.139 1011.856,592.379 1012.816,594.539 1012.816,594.779 
		1013.297,595.499 1013.536,595.739 1013.297,595.739 1013.057,596.459 1012.576,596.459 1012.336,595.979 1012.336,595.739 
		1011.856,594.779 1011.616,594.539 1011.136,594.059 1010.656,593.099 1009.937,591.659 1008.736,590.218 1008.496,589.979 
		1007.536,587.818 1007.297,587.578 1005.856,585.417 1005.856,584.938 1006.097,584.458 1006.097,583.737 1005.856,583.018 
		1005.616,581.817 1004.656,580.377 1003.217,577.736 1002.736,577.497 1001.536,576.536 1001.297,576.056 1001.297,575.816 
		1001.057,575.576 1000.816,575.336 1000.576,575.096 1000.097,574.856 996.977,574.136 996.496,573.416 996.496,572.456 	"/>
	
		<polyline clip-path="url(#SVGID_2_)" fill="none" stroke="#B37C34" stroke-width="0.48" stroke-linecap="round" stroke-linejoin="round" stroke-miterlimit="3.85" points="
		996.496,572.456 996.977,571.255 996.977,570.775 996.496,570.535 996.017,570.535 995.536,570.535 995.536,570.295 
		995.297,569.815 995.297,568.855 995.297,568.375 995.297,567.895 995.297,567.655 995.297,566.935 994.816,565.254 
		994.336,562.374 994.336,561.414 994.336,561.174 994.097,560.214 993.616,559.014 991.937,554.213 991.217,552.772 
		990.496,551.572 990.256,551.572 990.017,551.333 989.536,550.853 988.816,549.892 988.816,549.652 989.057,548.452 
		988.336,545.812 987.617,545.091 986.896,545.091 986.416,544.852 985.937,543.651 986.177,541.491 986.896,540.291 
		986.896,539.571 986.416,537.89 985.696,537.17 985.456,536.93 984.977,536.21 984.977,535.73 984.977,532.85 984.977,532.609 
		983.776,531.169 982.576,530.689 981.856,529.969 981.617,528.049 980.896,525.889 980.656,525.889 980.177,525.648 
		979.696,525.408 979.456,525.648 978.736,525.889 978.496,525.889 977.776,525.168 975.856,524.688 974.656,524.928 
		972.257,523.728 971.536,523.968 970.816,523.968 970.576,524.448 970.097,524.928 969.856,526.128 971.057,528.529 
		971.536,529.729 972.257,530.209 973.456,530.689 974.416,530.929 975.856,532.609 976.576,532.609 977.536,532.37 
		978.017,532.129 978.256,531.649 978.496,531.409 978.977,531.649 979.696,535.49 979.696,535.97 979.456,536.69 979.217,537.41 
		979.217,537.65 979.217,538.13 979.696,539.09 979.937,539.09 981.617,542.451 982.097,544.131 982.336,545.091 982.816,546.052 
		983.536,546.052 984.256,546.052 984.736,546.292 984.496,547.732 984.256,549.172 984.496,550.853 984.977,552.292 
		985.937,552.772 986.656,554.213 986.656,554.453 986.656,554.933 986.656,555.173 986.656,555.413 986.656,556.854 
		986.896,557.093 987.137,557.573 988.097,558.773 988.336,559.974 989.057,560.934 990.256,563.334 990.977,566.455 
		990.977,566.695 990.736,567.415 990.256,567.415 987.377,565.495 986.177,564.535 984.496,561.894 984.736,560.454 
		984.496,559.494 984.256,559.253 983.776,559.014 982.816,558.773 981.377,558.293 980.177,558.293 979.696,558.534 
		978.496,558.293 973.937,557.093 972.017,556.373 971.776,556.133 970.816,556.133 969.617,556.854 969.137,556.854 
		968.177,557.813 968.177,558.053 968.177,558.534 968.656,559.734 968.656,560.214 968.177,560.694 967.697,561.174 
		966.017,561.654 964.097,562.134 958.816,563.094 958.337,563.334 957.856,563.814 957.856,564.294 957.856,564.774 
		955.937,565.975 954.017,565.734 951.856,565.254 949.937,565.254 948.977,565.734 948.496,566.455 947.057,567.415 
		946.337,567.415 945.856,567.175 944.416,567.415 940.097,568.135 939.856,568.375 939.856,568.615 939.617,568.855 
		939.137,570.055 937.217,571.976 936.496,572.456 936.017,573.416 936.017,573.896 933.377,574.616 931.457,575.816 
		928.576,575.576 927.377,575.576 926.417,576.056 925.938,575.816 925.217,575.096 924.736,574.376 924.017,573.176 
		923.057,572.936 921.617,572.696 919.938,573.176 918.736,574.616 918.497,574.856 917.297,575.816 917.537,576.776 
		917.777,577.497 917.297,578.457 916.576,579.417 916.097,580.377 916.337,581.817 916.816,582.297 916.816,582.537 
		918.497,583.498 918.977,583.498 919.697,583.257 923.777,583.018 924.257,582.777 925.697,582.537 927.137,582.537 
		928.097,582.297 930.496,582.297 931.457,581.817 932.177,581.577 932.897,581.097 934.816,580.377 936.017,579.417 
		941.057,577.736 941.777,578.217 942.496,579.177 942.496,579.897 943.937,581.817 944.177,582.057 946.097,581.817 
		947.297,581.577 947.777,581.337 951.617,578.697 956.416,577.017 959.536,576.296 960.496,576.296 966.257,576.296 
		967.217,576.536 968.896,576.056 972.017,578.217 972.977,579.417 972.977,579.657 972.496,582.057 973.456,583.978 
		973.937,584.938 974.416,585.178 976.097,585.658 977.057,585.417 977.536,585.178 978.496,583.257 979.696,582.537 
		979.937,582.297 980.177,582.057 980.177,581.097 979.217,580.137 978.736,579.897 978.496,579.657 978.496,579.177 
		979.217,578.697 982.336,577.256 984.017,577.256 985.217,577.256 985.696,577.256 986.416,577.256 990.017,578.937 
		990.256,579.417 990.736,580.377 992.176,581.337 992.176,582.057 992.656,583.018 993.377,584.698 995.057,587.098 
		994.816,587.818 995.297,589.738 996.496,590.938 997.217,592.619 997.217,593.819 996.977,595.979 996.496,597.18 
		996.256,597.899 996.496,598.14 996.736,598.38 997.696,600.78 997.696,601.02 997.696,601.5 998.176,603.661 998.416,603.9 
		998.656,604.381 998.896,605.341 998.656,605.821 996.496,607.981 996.496,609.662 996.736,610.622 996.977,611.342 
		997.696,612.302 997.696,612.782 996.256,614.222 996.017,614.462 995.297,614.702 995.057,614.942 994.816,615.182 
		994.576,615.422 993.856,616.143 994.097,617.583 992.176,618.063 988.816,618.543 987.617,617.823 986.896,617.103 
		986.177,617.343 984.017,618.543 983.057,619.983 983.057,620.463 983.057,621.183 982.336,622.144 979.937,622.624 
		979.696,622.863 979.217,623.344 978.496,625.024 978.496,625.744 978.736,626.464 978.736,626.704 976.576,627.664 
		976.097,628.625 976.097,629.345 976.097,629.825 975.856,631.025 974.896,632.225 974.656,633.185 974.896,634.146 
		974.656,634.625 974.177,635.345 973.697,635.585 972.736,635.105 971.536,634.865 970.816,635.585 970.576,636.065 
		970.576,636.786 970.816,637.266 971.057,638.226 970.097,639.426 968.177,640.626 965.776,641.586 965.057,641.827 
		964.097,643.027 964.097,643.987 963.617,644.227 962.177,643.987 961.937,643.747 960.977,643.267 958.816,643.267 
		956.416,642.066 955.217,642.066 954.977,642.066 954.496,642.787 954.017,642.787 952.576,642.546 950.656,641.586 
		948.736,641.586 948.017,641.827 947.536,642.546 946.816,642.787 945.617,642.546 944.656,641.827 944.177,641.586 
		943.697,641.827 942.736,642.546 942.017,642.546 941.777,642.066 940.816,641.586 940.337,641.346 939.856,641.346 
		939.617,639.666 938.417,639.186 937.937,639.186 937.456,639.426 936.496,640.386 935.536,640.386 934.337,639.426 
		932.417,638.466 930.257,638.706 927.617,638.946 925.457,639.186 924.257,640.146 923.536,641.106 924.257,643.267 
		925.457,643.987 925.697,644.227 926.897,644.467 929.777,644.707 930.257,644.947 934.337,645.427 935.777,646.387 
		936.736,648.308 937.217,649.988 937.217,651.668 936.496,653.589 936.017,653.828 935.536,654.548 935.297,655.748 
		935.057,656.709 934.576,656.948 934.337,657.189 932.897,658.629 931.697,660.549 931.697,661.029 931.457,661.51 
		931.697,663.189 931.697,663.91 930.977,665.83 930.017,666.551 929.777,667.271 929.297,668.471 928.576,668.951 927.617,668.951 
		927.137,669.91 927.137,670.871 926.656,671.591 925.457,672.311 924.736,672.311 924.017,672.791 923.297,673.271 
		922.816,674.231 922.816,675.432 922.816,676.152 923.057,676.632 923.297,677.353 924.497,679.032 927.617,679.272 
		927.856,679.272 929.536,678.552 931.937,678.312 935.057,677.592 935.536,677.111 935.777,676.632 936.017,674.711 
		936.736,673.031 937.217,671.11 937.697,670.631 938.177,670.391 940.337,672.311 940.816,673.271 940.816,674.952 
		941.536,678.072 942.017,678.552 942.257,678.552 942.496,678.792 942.977,679.272 943.217,679.272 943.697,680.473 
		943.937,680.713 949.456,680.952 949.937,680.232 949.456,679.272 947.777,676.152 946.816,675.432 946.576,674.711 
		946.576,674.472 947.536,674.711 950.416,675.912 952.576,676.872 952.816,677.353 952.816,678.072 952.816,678.312 
		952.576,678.552 952.337,679.272 952.337,680.232 952.816,680.952 954.017,681.673 954.257,682.393 954.017,683.833 
		953.536,684.313 951.617,686.473 951.377,686.953 950.656,688.394 949.456,689.834 948.257,691.034 946.816,691.034 
		946.576,691.034 945.856,691.515 945.617,691.994 944.416,692.715 943.937,692.715 943.697,693.194 942.977,694.155 
		942.736,695.835 942.736,697.035 943.456,697.515 943.937,697.755 944.896,697.755 945.377,697.515 946.337,696.555 
		946.576,696.314 947.297,695.835 948.977,693.915 949.217,693.435 950.177,692.234 950.416,691.994 953.536,689.114 
		954.496,688.154 957.856,685.273 960.977,681.433 963.617,678.312 967.697,673.991 969.137,672.311 971.057,669.671 
		971.536,669.431 973.217,670.151 973.697,670.631 973.937,671.11 970.816,674.231 965.536,678.792 957.856,687.434 
		954.496,690.314 951.617,692.955 951.377,693.194 950.177,694.395 947.536,697.515 945.377,699.676 945.377,699.915 
		945.137,700.396 942.736,703.516 942.496,703.756 940.097,707.356 936.977,712.157 936.496,712.637 935.536,714.798 
		934.337,717.438 934.097,717.438 934.097,717.678 933.856,718.639 933.377,720.078 933.137,720.318 932.417,718.878 
		931.457,717.438 931.697,716.238 931.937,715.998 931.937,714.558 931.697,714.318 930.017,713.357 929.297,713.118 
		928.337,712.637 927.377,712.397 926.177,711.918 924.017,711.437 922.337,710.718 922.337,710.478 921.617,710.236 
		921.137,709.997 919.697,709.997 918.977,709.997 917.297,709.757 916.816,709.757 916.576,709.757 913.697,709.757 
		913.457,709.757 913.217,709.757 912.736,709.757 912.257,709.757 911.057,709.997 909.377,710.236 905.537,710.718 
		905.057,710.718 904.337,710.957 903.137,711.197 902.897,711.197 902.656,711.197 901.938,711.437 901.457,711.437 
		899.297,711.918 895.457,712.637 894.736,712.877 894.257,713.118 894.018,713.118 891.377,713.838 890.897,713.838 
		890.657,714.077 886.337,715.519 885.617,715.758 884.657,716.238 884.417,716.238 884.177,716.238 882.497,716.958 
		880.816,717.678 879.856,717.919 879.377,718.398 879.137,718.398 877.697,719.119 876.736,719.599 876.497,719.839 
		876.257,720.078 875.537,720.318 874.816,721.039 874.577,721.279 873.856,721.759 873.617,721.759 873.137,722.239 
		870.978,723.919 867.137,727.04 866.657,727.28 866.177,727.52 865.697,727.76 864.737,728.48 855.377,733.761 852.978,735.44 
		851.777,736.401 851.537,736.401 850.817,737.121 850.577,737.121 849.137,738.081 847.457,739.521 846.978,739.762 
		845.297,741.202 844.577,741.922 840.978,745.282 839.537,746.723 838.817,747.202 838.338,747.683 836.657,749.363 
		835.457,751.044 834.497,752.003 834.257,752.244 832.338,754.404 830.177,757.044 830.177,757.284 829.938,757.524 
		828.257,760.405 827.777,760.885 826.338,763.285 826.338,763.525 824.897,765.686 823.697,767.847 822.497,771.206 
		821.537,774.087 821.297,774.327 821.057,774.567 820.817,775.287 820.577,776.007 819.617,779.128 819.377,779.848 
		818.657,782.248 818.418,782.729 818.177,783.688 817.697,785.129 816.737,788.01 816.018,789.449 815.057,791.369 814.338,794.73 
		814.098,796.891 814.098,797.371 813.137,798.091 810.018,796.891 809.777,796.41 809.777,795.931 809.777,795.45 809.297,794.25 
		809.058,793.77 808.338,793.53 807.857,793.53 807.617,793.53 804.737,792.569 804.257,792.569 803.297,792.33 803.058,792.09 
		802.577,792.09 802.098,791.85 801.857,791.85 800.897,791.85 799.697,791.61 798.978,791.369 798.737,791.369 798.498,791.369 
		796.817,791.369 796.098,791.369 795.617,791.369 794.418,791.369 793.697,791.369 791.058,791.369 790.577,791.369 
		787.217,791.61 780.737,792.33 778.338,792.569 778.098,792.569 777.857,792.569 771.857,794.97 770.897,795.21 770.418,795.45 
		770.178,795.45 769.697,795.69 769.457,795.69 767.297,796.41 766.577,796.891 766.338,796.891 765.857,797.371 764.658,797.851 
		763.218,796.41 762.018,794.97 761.777,794.97 761.298,794.49 760.817,794.011 760.338,793.53 760.338,793.29 758.418,791.369 
		757.938,790.89 757.218,790.169 755.298,788.489 755.298,788.249 755.058,788.249 754.338,787.289 750.978,783.929 
		750.258,783.209 750.018,783.209 748.098,781.048 747.857,780.809 745.218,778.168 743.777,776.728 743.058,776.007 
		742.818,775.768 741.617,774.567 740.418,773.127 738.018,770.727 736.338,769.286 736.338,769.047 736.098,769.047 
		735.617,768.565 734.897,767.606 733.218,766.165 732.978,765.686 731.537,764.246 729.857,762.806 729.617,762.325 
		728.897,761.845 728.657,761.605 728.418,761.125 727.938,760.645 726.738,759.444 726.498,759.444 726.018,758.725 
		725.058,757.765 722.418,755.124 722.178,754.884 719.777,752.244 716.418,749.123 713.537,746.243 712.818,745.522 
		709.698,742.162 709.458,741.922 708.979,741.442 708.738,741.202 707.538,740.002 707.298,739.521 705.857,738.081 
		705.378,737.842 705.138,737.361 704.657,736.881 703.698,735.921 702.498,734.721 701.538,733.521 700.578,732.561 
		699.857,731.84 699.857,731.601 698.897,730.881 698.418,730.4 698.178,730.16 697.698,729.681 695.538,727.28 694.818,726.56 
		690.258,721.999 687.857,719.358 686.897,718.639 686.897,718.398 686.178,717.919 685.938,717.919 685.218,716.958 
		684.498,715.998 683.298,714.798 682.098,713.598 681.857,713.598 680.897,712.637 678.979,710.718 678.498,710.236 
		675.618,707.117 674.418,706.156 673.458,705.196 672.498,704.236 672.258,703.996 671.538,703.276 670.338,702.076 
		669.378,701.115 668.897,700.636 667.938,700.636 667.698,700.636 665.777,700.636 664.818,700.636 663.139,700.396 
		661.698,700.396 660.738,700.396 652.578,700.396 650.897,700.396 647.778,700.396 644.418,700.155 642.978,700.155 
		642.258,700.155 641.538,700.155 641.058,699.915 640.578,699.915 639.378,699.915 638.658,699.915 638.178,699.915 
		635.778,699.915 635.538,699.915 635.298,699.915 633.378,699.676 631.218,699.676 630.738,699.676 629.778,699.676 
		629.298,699.676 628.338,699.676 627.858,699.676 625.698,699.436 622.338,699.436 622.098,699.436 618.258,699.195 
		617.778,699.195 617.058,699.195 616.098,699.195 614.658,699.195 612.979,699.195 612.258,698.955 608.178,698.955 
		606.738,698.955 606.499,698.955 605.778,698.955 605.058,698.715 604.338,698.715 604.098,698.715 603.618,698.715 
		602.418,698.715 602.178,698.715 600.979,698.715 600.738,698.715 600.258,698.715 599.778,698.715 597.378,698.475 
		594.499,698.475 592.099,698.475 589.458,698.235 588.979,698.235 587.539,698.235 587.298,698.235 585.858,698.235 
		585.378,698.235 584.418,698.235 584.178,698.235 583.458,698.235 581.298,697.995 581.059,697.995 580.579,697.995 
		576.738,697.995 576.258,697.995 574.579,697.995 574.818,697.515 574.818,697.035 574.818,696.555 574.818,696.074 
		575.778,689.594 576.019,687.673 576.258,686.233 575.778,685.514 574.099,683.353 572.898,681.673 571.458,679.272 
		570.499,678.072 569.539,676.632 569.059,675.672 567.858,673.991 566.659,672.552 565.938,671.591 564.979,670.151 
		564.019,668.951 563.778,668.471 562.579,669.191 562.338,669.431 562.099,669.671 561.858,669.91 559.938,671.11 559.458,671.352 
		559.219,671.591 554.659,674.711 553.938,673.511 553.458,673.031 553.458,672.791 553.458,671.591 553.458,671.352 
		553.458,670.391 553.458,670.151 553.699,669.431 553.938,669.431 554.179,669.191 554.179,668.951 554.418,668.951 
		554.659,668.71 554.898,668.71 555.139,668.71 555.378,668.71 555.378,668.471 555.619,668.23 555.619,667.99 555.619,667.511 
		555.139,666.79 555.139,666.311 554.179,665.83 553.938,665.83 553.938,665.59 554.418,664.63 554.418,664.39 554.659,664.15 
		554.659,663.91 553.699,663.91 552.019,663.67 550.579,663.43 549.139,663.43 548.898,663.43 547.938,663.189 547.458,663.189 
		546.739,663.189 544.099,662.949 543.378,662.949 540.739,662.71 538.339,662.47 538.099,662.47 536.179,662.47 535.938,662.229 
		534.019,662.229 532.819,662.229 532.099,661.989 531.619,661.989 530.898,661.989 527.779,661.75 521.779,661.27 521.539,661.27 
		521.299,661.27 521.059,661.27 520.819,661.27 520.579,661.27 519.859,661.27 519.379,661.27 519.139,661.029 517.219,661.029 
		516.979,661.029 515.059,660.79 513.379,660.79 512.899,660.79 512.659,660.79 511.219,660.549 510.499,660.549 509.779,660.549 
		507.379,660.31 506.899,660.31 506.179,660.31 504.259,660.069 501.859,659.829 501.379,659.829 500.179,659.829 499.699,659.59 
		498.499,659.59 498.259,659.59 497.779,659.59 496.579,659.59 496.339,659.35 494.659,659.35 494.179,659.35 493.939,659.35 
		493.699,659.35 491.299,659.109 487.939,658.869 487.459,658.869 486.739,658.869 485.299,658.629 481.699,658.39 480.979,658.39 
		477.379,658.148 476.899,658.148 476.179,658.148 474.739,657.909 474.259,657.909 471.619,657.669 470.899,657.669 
		467.299,657.429 466.579,657.429 466.099,657.429 463.219,657.189 460.819,656.948 460.099,656.948 459.379,656.948 
		458.419,656.709 457.459,656.709 456.739,656.709 456.259,656.469 456.019,656.469 455.539,656.469 455.059,656.469 
		453.859,656.229 453.379,656.229 451.939,655.989 451.219,655.989 450.739,656.229 450.259,656.469 449.299,656.709 
		448.579,656.948 448.339,656.948 448.339,657.189 448.099,657.189 447.859,657.429 447.619,657.429 447.139,657.189 
		447.139,656.948 446.899,656.948 446.899,656.709 446.659,656.948 446.419,656.948 446.419,656.709 445.939,656.469 
		445.699,656.469 445.219,656.709 444.739,656.709 444.499,656.948 444.499,657.189 444.499,657.429 444.259,657.429 
		444.019,657.669 443.779,657.669 443.539,657.669 443.299,657.429 443.059,657.189 443.059,656.709 443.059,656.469 
		443.059,656.229 443.299,655.989 443.059,655.509 442.819,655.028 442.819,654.548 442.339,654.309 442.339,654.068 
		442.099,654.068 441.859,654.309 441.139,655.269 440.419,655.509 439.939,655.509 	"/>
	
		<polyline clip-path="url(#SVGID_2_)" fill="none" stroke="#B37C34" stroke-width="0.48" stroke-linecap="round" stroke-linejoin="round" stroke-miterlimit="3.85" points="
		439.939,655.509 439.699,655.748 439.459,656.229 438.979,657.189 438.979,657.429 438.739,657.909 438.499,658.629 
		438.259,658.869 438.019,659.109 437.539,659.109 437.299,659.109 437.059,659.109 436.819,658.629 436.819,658.39 437.059,658.39 
		436.819,658.148 436.819,657.909 436.339,657.669 435.619,658.148 435.379,658.148 434.899,657.909 434.419,658.148 
		433.939,658.148 433.699,658.39 433.219,659.109 432.979,659.109 432.499,659.109 431.539,659.109 431.299,659.35 431.059,659.59 
		430.819,659.59 430.819,659.829 430.579,659.829 430.339,659.829 430.099,659.829 430.099,659.59 429.859,659.59 429.859,659.35 
		429.619,659.35 429.139,659.35 428.899,659.35 428.659,659.35 428.419,659.59 428.419,659.829 428.419,660.069 428.179,660.069 
		427.939,660.31 427.939,660.069 427.699,660.069 427.459,660.31 427.219,660.549 426.979,660.79 426.739,660.79 426.259,661.029 
		426.019,661.029 425.779,661.029 425.539,661.029 425.059,661.27 424.579,661.51 424.339,661.27 423.619,661.27 423.379,661.27 
		423.379,661.51 422.899,661.75 422.659,661.75 422.419,661.989 422.179,662.47 421.939,662.47 421.699,662.47 421.459,662.47 
		421.219,662.229 420.979,662.229 420.739,662.229 420.5,662.47 420.259,662.71 420.02,662.71 420.02,662.949 419.539,663.189 
		419.299,663.189 418.579,663.189 418.339,663.189 418.339,662.949 418.099,662.71 418.099,662.47 417.859,662.47 417.619,662.47 
		417.379,662.47 417.139,662.47 417.139,662.71 417.139,662.949 416.899,663.189 416.899,663.43 416.659,663.67 416.899,663.91 
		416.899,664.15 416.899,664.39 416.899,664.63 416.419,665.11 416.179,665.35 415.939,665.11 415.699,665.11 415.459,665.35 
		414.739,665.59 414.259,665.59 414.02,665.59 413.779,665.59 413.539,665.59 413.539,665.83 413.539,666.07 413.299,666.311 
		412.819,666.551 412.819,667.03 412.339,667.03 412.099,667.03 411.859,667.03 411.619,667.271 411.619,667.511 411.379,667.99 
		411.139,667.99 410.419,667.99 409.939,668.23 409.699,668.23 409.459,668.471 409.219,668.23 408.979,667.99 409.219,667.751 
		409.219,667.511 409.459,667.03 409.459,666.551 409.459,666.311 409.219,666.311 408.979,666.07 408.739,666.311 408.5,666.311 
		406.819,666.79 399.379,668.71 390.739,671.11 389.779,671.352 389.059,671.591 387.379,672.071 385.7,672.552 381.379,673.752 
		374.659,673.511 373.939,673.511 370.579,673.511 366.259,673.511 365.54,673.511 363.379,673.511 362.419,673.511 
		362.179,673.511 360.979,673.511 360.739,673.511 359.54,673.271 358.34,673.271 349.939,673.031 344.42,673.031 340.34,672.791 
		338.42,672.791 338.42,673.271 330.259,672.791 330.02,672.791 329.779,672.791 327.62,672.552 325.459,672.552 324.26,672.552 
		323.3,672.552 321.14,672.311 320.9,672.311 318.5,672.311 317.78,672.311 317.3,672.071 315.62,672.071 313.22,672.071 
		312.02,671.831 309.859,671.831 308.42,671.831 306.26,671.591 304.82,671.591 304.1,671.591 299.06,671.352 298.58,671.352 
		295.939,671.11 294.5,671.11 291.62,670.871 289.459,670.631 288.5,670.631 287.06,670.631 284.9,670.391 279.86,670.151 
		280.34,667.03 280.34,666.79 280.34,666.311 280.58,665.35 281.06,661.75 281.3,661.029 281.54,659.59 282.02,656.709 
		282.74,652.147 282.74,651.908 282.98,650.468 283.46,648.067 283.7,646.147 283.94,646.387 284.18,646.147 284.42,645.907 
		284.9,645.187 286.34,644.707 286.58,644.227 286.82,643.987 287.78,643.507 288.02,643.267 288.74,642.546 289.22,642.066 
		289.459,642.066 290.18,642.066 290.42,642.307 290.42,642.546 290.9,643.027 290.9,643.267 291.14,643.507 291.14,644.227 
		291.38,644.707 291.86,644.707 292.34,645.187 293.06,645.187 293.3,644.947 293.78,644.707 294.02,644.707 294.5,644.947 
		294.74,644.707 294.979,644.707 295.459,644.707 296.18,644.707 296.42,644.707 296.66,644.947 296.9,644.947 297.14,644.947 
		297.38,644.947 297.38,644.707 297.62,644.467 297.86,644.467 298.34,644.467 298.58,644.467 299.06,644.467 299.54,644.707 
		299.78,644.707 300.02,644.707 300.26,644.707 300.26,644.467 300.5,644.467 300.979,643.987 301.22,643.987 301.22,643.747 
		301.22,643.507 301.459,643.507 301.939,643.267 302.18,643.267 302.9,643.027 303.38,642.787 303.86,642.787 304.58,641.827 
		305.3,640.866 305.78,640.626 	"/>
	
		<polyline clip-path="url(#SVGID_2_)" fill="none" stroke="#B37C34" stroke-width="0.48" stroke-linecap="round" stroke-linejoin="round" stroke-miterlimit="3.85" points="
		996.977,656.229 997.696,655.748 998.656,655.509 1000.097,655.028 1000.816,654.548 1001.536,653.828 1002.017,653.589 
		1002.496,652.868 1002.736,652.628 1002.977,652.628 1003.456,653.108 1004.416,653.108 1006.336,652.389 1006.816,652.147 
		1007.297,651.908 1008.256,650.948 1008.496,650.708 1009.696,649.988 1009.937,649.508 1009.937,648.788 1009.937,648.547 
		1010.176,648.788 1010.896,648.788 1011.136,649.027 1013.057,648.788 1014.256,648.308 1014.977,648.067 1015.217,647.587 
		1015.456,646.387 1015.937,643.507 1016.176,641.586 1016.656,638.946 1017.136,636.306 1017.377,632.465 1017.856,629.584 
		1018.336,626.224 1018.096,625.024 1018.096,624.063 1018.096,622.144 1018.576,620.943 1018.816,619.503 1018.576,614.702 
		1018.336,612.302 1017.616,609.662 1017.136,608.701 1016.896,607.981 1016.656,607.981 1016.416,607.261 1015.937,606.541 
		1015.696,605.341 1015.217,603.42 1015.217,602.22 1014.977,601.5 1014.977,601.02 1014.496,600.06 1014.256,599.1 
		1014.017,598.62 1013.776,597.899 1013.536,597.18 1013.776,596.699 1014.256,596.939 1015.937,599.82 1016.176,600.06 
		1016.176,600.3 1016.656,601.5 1018.336,606.541 1018.816,608.461 1019.536,612.062 1020.256,614.942 1020.256,615.902 
		1020.256,616.382 1020.256,616.623 1020.256,617.343 1020.017,619.263 1020.017,619.743 1020.017,620.943 1019.776,626.944 
		1018.816,634.385 1018.816,635.345 1018.576,635.826 1017.616,643.267 1016.656,648.308 1016.656,648.547 1016.656,648.788 
		1016.416,649.268 1016.416,649.988 1016.176,650.948 1016.176,651.188 1015.937,651.908 1015.456,652.868 1015.217,652.868 
		1014.496,652.628 1013.057,652.389 1011.377,652.389 1008.977,652.868 1006.816,653.828 1003.937,655.028 999.137,656.948 
		997.456,657.669 996.736,657.909 996.256,658.148 995.776,658.148 994.097,659.109 990.017,661.27 984.017,664.63 981.377,666.311 
		979.937,667.751 978.256,668.71 976.816,670.391 976.336,670.391 976.336,670.631 975.856,670.871 975.617,670.631 
		975.856,670.151 976.816,668.471 977.536,667.751 977.776,666.79 977.536,666.07 977.536,665.35 977.776,665.35 978.017,665.11 
		978.017,664.87 978.256,664.87 978.736,664.87 978.977,664.63 979.456,665.11 980.416,664.87 983.057,663.189 984.256,662.47 
		985.456,661.51 990.017,659.109 991.696,658.629 992.176,658.39 993.137,657.909 993.856,657.429 994.336,656.709 996.977,656.229 
			"/>
	
		<polyline clip-path="url(#SVGID_2_)" fill="none" stroke="#B37C34" stroke-width="0.48" stroke-linecap="round" stroke-linejoin="round" stroke-miterlimit="3.85" points="
		1003.456,583.737 1003.696,583.978 1003.937,584.458 1004.176,584.698 1004.416,584.938 1005.136,586.138 1006.336,589.018 
		1006.097,589.738 1006.097,589.979 1006.097,590.699 1006.336,591.659 1006.336,591.898 1006.576,593.099 1006.097,593.819 
		1005.856,593.819 1004.416,592.859 1002.017,592.379 1001.536,591.659 1002.736,590.938 1002.736,590.699 1002.736,590.458 
		1002.736,590.218 1002.736,589.979 1002.736,589.258 1002.496,588.298 1002.256,587.578 1001.536,586.378 1000.816,586.378 
		999.377,584.458 999.377,583.737 999.377,583.498 998.896,583.018 997.217,582.057 996.736,581.337 996.736,581.097 
		997.456,580.617 998.656,580.617 999.856,580.857 1000.097,581.337 1001.057,581.577 1001.297,581.817 1002.256,582.537 
		1002.496,582.537 1002.256,583.018 1002.256,583.978 1002.977,583.978 1003.456,583.737 	"/>
</g>
</svg>
