<?xml version="1.0" encoding="utf-8"?>
<!-- Generator: Adobe Illustrator 15.1.0, SVG Export Plug-In . SVG Version: 6.00 Build 0)  -->
<!DOCTYPE svg PUBLIC "-//W3C//DTD SVG 1.1//EN" "http://www.w3.org/Graphics/SVG/1.1/DTD/svg11.dtd">
<svg version="1.1" id="State" xmlns="http://www.w3.org/2000/svg" xmlns:xlink="http://www.w3.org/1999/xlink" x="0px" y="0px"
	 width="1296px" height="1296px" viewBox="0 0 1296 1296" enable-background="new 0 0 1296 1296" xml:space="preserve">
<g>
	<defs>
		<rect id="SVGID_1_" x="349.219" y="266.421" width="598.45" height="770.958"/>
	</defs>
	<clipPath id="SVGID_2_">
		<use xlink:href="#SVGID_1_"  overflow="visible"/>
	</clipPath>
	
		<polyline clip-path="url(#SVGID_2_)" fill="none" stroke="#B37C34" stroke-width="0.7199" stroke-linecap="round" stroke-linejoin="round" stroke-miterlimit="3.85" points="
		371.055,786.314 371.055,785.594 371.295,778.873 371.535,771.673 372.015,764.712 372.254,757.031 372.254,756.791 
		372.254,754.391 372.495,751.511 372.495,751.271 372.495,749.591 372.495,745.03 372.734,742.39 372.734,742.15 372.734,741.91 
		372.734,741.67 372.734,740.949 372.734,740.71 372.734,737.35 372.734,737.109 372.975,731.349 373.214,729.669 373.214,729.188 
		373.214,727.269 373.214,726.788 373.214,724.628 373.214,722.708 373.454,714.787 373.694,711.906 373.694,704.946 
		373.694,704.706 373.934,702.306 373.934,700.386 373.934,699.905 373.934,698.226 373.934,697.745 373.934,697.506 
		374.174,697.265 374.174,696.545 374.174,695.105 374.174,693.905 374.174,693.665 374.174,693.425 374.414,690.064 
		374.414,686.944 374.414,686.704 374.654,685.023 374.654,682.624 374.654,681.664 374.654,680.703 374.894,673.022 
		374.894,672.783 375.134,669.183 375.134,667.502 375.374,665.103 375.374,662.702 375.614,660.062 375.854,652.621 
		375.854,650.221 376.094,646.86 376.094,646.62 376.574,637.979 376.574,636.059 376.574,635.819 376.813,634.859 376.813,634.379 
		376.813,634.139 376.813,632.938 376.813,632.699 376.813,630.539 377.293,623.098 377.534,617.097 377.534,615.897 
		377.773,608.696 377.773,603.656 377.773,601.016 377.773,600.055 377.773,598.855 377.773,598.615 378.013,597.655 
		378.013,592.375 378.253,589.974 378.253,589.494 378.253,589.254 378.253,588.054 378.493,586.134 378.493,583.254 
		378.493,582.054 378.733,578.933 378.733,574.613 378.974,571.252 378.974,567.172 379.213,559.731 379.213,559.011 
		379.213,557.091 379.213,556.371 379.453,553.971 379.453,551.57 379.453,551.09 379.453,549.17 379.453,546.53 379.693,544.85 
		379.693,542.45 379.693,541.729 379.693,538.609 379.693,537.649 379.933,535.489 379.933,532.608 379.933,530.208 
		379.933,528.048 379.933,526.848 380.413,515.327 380.413,511.966 380.653,500.685 380.653,497.085 380.893,485.563 
		381.133,483.644 381.133,482.443 381.133,478.123 381.133,476.683 381.133,475.002 381.373,472.603 381.373,471.402 
		381.373,470.922 381.373,469.482 381.373,469.242 381.373,467.322 381.853,456.041 381.853,452.68 382.093,443.56 382.093,441.159 
		382.093,438.279 382.333,436.359 382.333,429.398 382.333,428.918 382.573,426.518 382.573,424.837 382.573,423.397 
		382.573,419.797 382.813,415.957 382.813,413.796 382.813,411.636 382.813,408.756 382.813,406.836 383.053,399.395 
		383.053,394.834 383.053,394.114 383.053,393.634 383.292,391.714 383.292,391.474 383.292,387.874 383.292,384.273 
		383.292,381.873 383.533,380.673 390.491,380.433 390.971,380.433 395.771,380.433 398.17,380.433 400.809,380.433 
		413.047,380.433 418.566,380.433 420.726,380.433 425.525,380.193 427.924,380.193 430.324,380.193 435.123,380.193 
		435.603,380.193 440.162,380.193 451.2,379.953 456.719,379.953 457.919,379.953 459.119,379.953 460.318,379.953 467.757,379.713 
		470.876,379.713 471.356,379.713 473.996,379.473 484.794,379.233 486.234,379.233 491.273,379.233 498.711,378.993 
		501.111,378.993 503.99,378.993 504.95,378.993 509.989,378.753 513.829,378.753 516.228,378.753 518.628,378.513 521.267,378.513 
		521.507,378.513 522.467,378.513 522.947,378.513 524.387,378.513 526.066,378.273 528.466,378.273 530.625,378.273 
		531.105,378.273 531.825,378.273 532.305,378.273 533.025,378.273 533.745,378.033 534.945,378.033 535.425,378.033 
		536.145,378.033 537.584,378.033 538.784,378.033 541.184,378.033 543.583,377.793 545.743,377.793 545.983,377.793 
		546.942,377.793 549.102,377.793 549.582,377.793 549.822,377.793 550.542,377.793 551.022,377.793 551.981,377.793 
		552.222,377.793 552.461,377.793 553.901,377.553 554.141,377.553 555.581,377.553 555.341,378.513 555.821,380.913 
		556.061,381.153 556.061,381.393 556.541,382.113 558.46,383.313 561.1,384.753 563.26,384.753 565.419,385.474 566.379,385.474 
		567.819,385.474 568.299,384.993 569.738,384.514 570.218,383.553 570.218,382.833 571.658,383.073 572.138,383.553 
		575.737,386.674 576.217,387.394 576.937,387.874 577.657,388.114 582.696,391.714 582.936,391.714 583.416,392.674 
		583.656,392.914 583.896,393.154 588.215,395.314 592.054,396.515 594.454,397.475 597.093,397.955 599.733,398.195 
		601.893,399.395 602.132,399.395 602.373,399.635 604.532,401.315 604.772,401.555 605.252,402.275 605.492,402.755 
		605.972,403.715 606.691,404.916 606.932,404.916 607.412,405.875 607.651,406.116 607.651,406.355 609.091,407.796 
		609.331,408.276 609.571,408.276 610.531,408.996 612.931,411.156 616.77,413.557 617.729,413.796 620.609,414.997 
		621.329,415.237 624.448,414.757 626.128,414.517 627.328,413.796 628.768,412.836 629.007,412.596 629.728,411.876 
		631.167,409.476 631.407,407.556 631.407,406.836 630.927,404.676 631.887,403.476 632.367,403.235 633.807,402.996 
		634.287,402.755 635.966,405.636 636.686,406.596 636.686,406.836 636.926,406.836 639.326,409.956 640.286,410.916 
		641.965,410.916 644.845,409.956 645.564,409.956 646.044,409.956 648.924,410.676 649.884,411.636 649.884,413.076 
		648.444,414.997 648.444,415.237 648.684,415.957 649.403,417.396 649.884,418.117 651.803,418.837 652.764,419.077 
		656.603,424.357 660.922,428.438 661.642,429.398 661.642,429.638 661.881,429.878 662.841,430.598 665.001,432.038 
		665.961,432.519 668.6,434.438 669.32,434.679 669.561,434.918 670.279,435.159 671.96,436.119 673.399,436.839 674.359,437.079 
		674.599,437.319 675.079,437.559 676.759,437.799 676.759,438.039 679.158,438.039 680.838,437.559 681.798,437.079 
		685.637,435.398 686.356,434.918 689.716,432.519 690.677,432.038 694.035,430.358 694.516,430.358 696.195,429.878 
		697.875,429.638 702.194,429.878 703.153,429.878 703.394,429.878 704.354,429.878 706.273,429.398 708.193,428.918 
		708.434,428.678 708.913,428.438 711.552,426.518 712.272,426.278 715.152,424.357 715.871,423.877 716.111,423.638 
		716.352,423.397 716.591,423.157 716.591,422.438 716.831,422.197 717.071,422.197 717.312,422.438 717.791,422.438 
		718.271,422.438 719.231,422.197 719.471,421.958 720.91,421.477 721.391,421.477 724.03,420.277 727.39,419.077 728.59,418.597 
		730.028,418.117 730.509,417.877 731.229,417.637 731.948,417.396 732.429,417.157 734.588,416.437 734.828,416.437 
		737.948,415.237 738.188,415.237 738.907,414.997 741.066,415.237 741.307,415.237 742.267,415.477 744.666,416.437 
		744.906,416.677 745.386,417.396 745.866,417.877 746.346,418.117 748.506,419.077 750.426,419.317 752.345,419.797 
		756.184,420.277 756.664,420.277 758.344,420.277 759.544,419.797 761.463,419.317 764.823,418.117 765.303,418.117 
		766.742,418.117 768.422,418.117 770.102,418.837 772.261,419.317 773.221,419.557 773.94,419.317 774.66,418.837 774.9,418.837 
		774.9,418.597 777.54,417.157 777.54,416.917 778.02,416.437 779.22,415.237 783.299,411.876 784.979,411.396 786.658,410.676 
		787.139,410.436 787.619,410.196 788.099,409.716 791.458,406.836 793.138,405.396 794.577,403.955 795.777,402.755 
		796.257,402.275 797.937,400.355 798.656,399.395 799.616,398.675 800.096,397.955 800.336,397.715 802.016,396.995 
		802.976,396.515 803.936,396.035 805.615,394.834 808.494,391.714 808.734,390.994 809.215,390.514 809.455,390.274 
		810.414,388.834 810.654,388.594 811.374,387.634 812.094,386.914 813.054,385.954 815.213,384.273 815.453,384.033 
		818.093,381.633 820.973,379.473 822.652,378.273 823.132,377.793 824.812,376.833 827.211,375.393 829.131,374.192 
		830.091,373.232 830.331,372.992 830.57,372.752 830.811,372.512 831.771,372.512 833.689,372.752 833.93,372.752 835.85,372.272 
		838.01,371.072 838.249,370.832 841.849,368.912 843.048,368.432 843.769,367.952 844.008,367.952 845.928,366.752 
		848.567,365.071 852.166,362.911 852.887,362.431 853.846,362.191 854.086,361.951 854.326,361.951 855.046,361.711 
		855.525,361.471 856.246,360.991 857.445,360.271 858.165,360.031 858.886,359.551 860.564,358.591 860.805,358.591 
		862.484,357.871 863.924,357.391 865.124,356.431 865.604,356.19 865.844,356.19 866.804,355.95 867.523,355.71 869.923,355.471 
		870.883,355.23 871.604,355.23 875.202,354.51 876.882,354.03 877.603,353.791 879.281,353.311 879.521,353.311 879.762,353.311 
		883.841,351.39 885.521,350.67 885.761,350.43 888.88,348.99 889.359,348.75 889.84,348.51 890.08,348.51 890.56,348.27 
		891.04,347.79 891.04,347.55 891.279,347.55 892.239,346.109 892.479,346.109 892.959,346.109 893.919,345.87 894.159,345.87 
		894.398,346.35 894.639,346.59 895.119,346.35 897.519,345.39 902.317,344.189 903.277,343.949 904.478,343.469 905.917,342.75 
		911.676,340.589 913.115,340.109 914.075,339.629 915.035,339.389 916.234,338.909 919.834,337.469 920.555,336.988 
		921.514,336.509 923.193,335.789 923.193,335.548 923.914,335.308 927.513,333.868 927.513,334.108 927.753,338.429 
		927.753,339.629 927.753,340.829 927.753,342.029 927.992,345.87 927.992,348.51 927.992,349.95 927.992,352.83 927.992,353.311 
		927.992,353.55 927.992,355.71 928.232,365.552 928.473,369.872 928.473,371.312 928.473,372.032 928.473,374.433 928.713,378.513 
		928.713,380.673 928.713,385.954 928.713,386.193 928.713,387.634 928.952,390.514 928.952,396.755 929.192,401.555 
		929.192,402.996 929.192,406.116 929.192,408.276 929.433,409.476 929.433,409.956 929.433,414.997 929.433,416.677 
		929.433,416.917 929.672,421.237 929.672,425.078 929.672,425.798 929.672,426.998 929.672,427.958 929.912,429.158 
		929.912,434.198 929.912,435.398 929.912,436.599 929.912,438.519 929.912,438.759 929.912,440.199 930.152,441.879 
		930.152,442.119 930.152,442.359 930.152,442.6 930.152,442.839 930.152,443.08 930.152,446.68 930.152,447.88 930.393,453.4 
		930.393,454.36 930.393,454.841 930.393,457.481 930.632,458.681 930.632,460.361 930.632,461.081 930.632,462.281 
		930.632,462.521 930.632,462.761 930.632,464.202 930.632,465.402 930.632,465.642 930.632,467.082 930.632,468.042 
		930.632,470.682 930.872,472.362 930.872,475.002 930.872,477.163 930.872,478.603 930.872,480.043 930.872,481.963 
		931.112,482.684 931.112,484.364 931.112,485.804 931.112,487.004 931.112,487.484 931.112,487.724 931.112,489.164 
		931.112,489.404 931.112,491.084 931.353,494.685 931.353,495.645 931.353,497.085 931.353,500.685 931.353,500.925 
		931.353,501.885 931.592,502.125 931.592,505.486 931.592,506.926 931.592,507.646 931.592,507.886 931.592,508.126 
		931.592,509.326 931.592,509.566 931.592,511.486 931.832,513.167 931.592,514.606 931.592,515.567 931.592,516.527 
		931.592,516.767 931.832,520.607 932.072,524.928 932.072,525.168 932.072,525.408 932.072,527.808 932.072,531.648 
		932.072,533.568 932.313,535.009 932.313,535.489 932.313,536.929 932.313,538.129 932.313,538.849 932.552,544.37 932.552,546.29 
		932.552,547.73 932.552,552.53 932.792,555.171 932.792,555.891 932.792,558.531 932.792,559.251 932.792,560.451 932.792,561.171 
		932.552,561.412 932.313,561.412 932.072,561.651 931.832,561.651 931.353,561.651 931.112,561.651 930.632,561.892 
		930.393,562.131 930.152,562.372 929.433,562.611 929.192,562.852 928.713,562.852 927.753,563.572 927.513,563.812 
		927.033,564.292 926.553,564.772 926.553,565.012 926.313,565.012 926.073,565.012 926.073,565.252 925.594,565.252 
		925.354,565.492 925.113,565.492 924.873,565.492 924.873,565.252 924.633,565.252 924.394,565.252 924.153,564.772 
		923.914,564.532 923.674,564.532 923.434,564.052 923.193,563.812 922.474,563.572 921.994,563.572 921.034,564.052 
		920.314,564.292 920.074,564.292 919.114,564.532 918.875,564.532 918.395,565.012 918.154,565.012 918.154,565.252 
		917.915,565.252 917.675,565.732 917.435,565.972 917.435,566.212 916.715,567.412 915.755,568.372 915.515,568.612 
		915.275,568.612 915.035,568.852 914.315,569.572 914.075,570.052 913.835,571.012 913.835,571.732 913.835,572.453 
		914.555,573.173 915.515,573.893 915.755,574.373 917.194,576.773 917.435,576.773 917.675,577.253 917.675,577.493 
		918.395,578.453 918.875,578.453 919.114,578.933 919.354,579.653 919.834,580.854 919.834,581.573 920.074,582.054 
		920.074,582.773 920.555,584.694 921.034,585.414 921.754,586.614 922.474,587.574 922.714,587.574 922.953,587.814 
		923.193,588.294 923.434,589.014 923.674,589.734 923.674,589.974 923.434,591.174 923.193,591.895 922.714,593.095 
		922.474,593.334 922.474,593.815 922.474,594.055 921.754,595.495 921.514,595.975 921.514,596.935 921.514,597.175 
		921.514,597.415 921.514,598.135 921.514,598.615 921.514,600.536 921.754,601.255 921.754,601.496 921.273,601.976 
		920.314,602.216 919.594,602.696 919.114,602.936 918.875,603.656 919.114,604.376 919.354,604.376 919.354,604.616 
		919.834,604.616 920.794,605.096 921.514,605.576 921.994,606.056 922.474,607.016 922.234,608.216 921.994,608.937 
		921.754,609.417 921.754,610.856 921.994,611.816 922.474,612.777 922.714,613.257 922.953,613.497 922.953,613.977 
		923.193,613.977 923.434,615.177 923.434,615.897 923.434,616.137 923.434,616.857 923.434,617.097 923.193,617.577 
		922.714,618.297 922.234,619.257 921.754,620.217 921.514,620.938 921.514,621.417 921.514,622.377 921.514,623.578 
		921.273,624.538 921.273,624.778 920.794,625.258 918.875,626.698 918.875,626.458 917.915,627.178 917.675,627.418 
		916.955,628.378 916.955,628.618 915.995,630.539 915.755,631.019 915.515,632.699 915.515,633.179 915.515,633.899 
		915.275,634.859 915.035,636.059 914.555,637.259 913.596,638.219 913.355,638.459 913.115,638.699 912.875,639.179 
		912.636,639.419 912.156,640.379 911.676,641.58 911.436,641.82 911.195,642.54 910.716,643.26 910.716,643.5 910.477,643.74 
		910.477,643.98 910.477,644.22 910.235,644.22 910.235,644.94 910.235,645.18 910.235,645.42 909.996,645.66 909.996,646.62 
		909.756,646.62 909.756,646.86 909.756,648.06 909.756,648.78 909.996,649.98 910.235,650.221 910.235,650.46 910.235,650.701 
		910.477,651.181 910.235,652.141 910.235,652.86 909.996,653.101 909.516,653.581 909.036,654.061 907.836,655.021 
		907.597,655.261 907.356,655.501 907.117,655.741 906.637,656.461 906.396,657.182 906.396,657.901 906.637,659.102 
		906.877,659.821 906.877,660.062 907.117,660.062 907.117,660.302 907.117,660.541 907.356,660.781 907.356,661.021 
		907.356,661.502 907.356,661.742 907.356,661.981 907.356,662.222 907.356,663.422 907.356,663.662 907.117,664.382 
		906.877,665.103 906.637,665.342 906.637,666.302 906.637,666.542 906.637,666.782 906.396,667.502 906.156,668.702 
		906.156,668.942 906.156,669.183 906.156,669.423 906.156,669.902 906.156,670.143 906.396,670.623 906.396,671.103 
		906.396,671.582 906.637,671.823 906.637,672.063 906.637,672.543 906.637,673.503 906.637,673.982 906.637,674.223 
		906.637,674.463 906.637,675.184 906.156,675.423 905.677,675.903 904.957,676.383 904.717,676.623 904.478,676.623 
		904.478,676.863 904.237,677.103 903.997,677.344 903.518,678.063 903.518,678.544 903.518,679.023 903.518,679.264 
		903.757,681.184 903.997,682.144 904.478,683.344 904.478,683.584 904.478,683.823 904.478,684.064 904.717,684.064 
		904.717,684.304 904.717,684.544 904.478,684.784 904.237,685.265 904.237,685.504 903.997,685.504 903.997,685.744 
		903.757,685.744 903.757,685.504 903.277,685.504 903.037,685.504 902.797,685.504 902.558,685.265 901.117,684.304 
		900.638,684.064 899.438,683.823 898.719,683.823 898.719,684.064 898.479,684.064 898.238,684.304 897.998,684.304 
		897.998,684.544 897.998,684.784 897.758,685.023 897.758,685.504 897.758,686.225 897.758,686.704 897.758,686.944 
		898.238,687.664 898.719,688.625 899.438,689.585 899.678,689.824 899.678,690.064 899.918,690.305 900.158,691.024 
		900.158,691.265 900.158,691.505 900.397,691.985 900.158,692.705 899.918,693.425 899.198,694.145 897.519,695.105 
		897.039,695.346 896.318,695.825 895.839,696.306 895.599,696.785 895.599,697.265 895.839,698.226 896.078,699.665 
		896.318,700.146 896.318,702.306 896.318,703.026 896.078,703.746 896.078,703.985 895.839,704.466 894.639,705.906 
		893.199,707.106 891.04,708.547 890.8,709.267 890.319,709.747 890.319,709.986 890.319,710.227 890.319,710.467 890.319,710.706 
		890.56,711.427 890.56,711.666 890.8,711.906 890.8,712.387 892.239,714.066 892.479,714.307 892.959,714.547 893.439,714.787 
		894.639,717.188 895.119,717.668 895.359,717.907 895.599,718.868 895.599,719.348 895.359,720.308 895.119,720.787 
		894.398,721.027 894.159,721.268 893.68,721.508 892.719,721.508 892.479,721.748 892,721.988 891.76,722.228 891.52,722.468 
		891.279,722.708 891.279,722.948 891.04,723.668 891.04,724.147 891.04,725.107 891.04,725.588 891.04,727.748 891.04,728.229 
		891.04,729.429 890.56,730.389 890.56,730.869 890.56,731.109 890.56,731.349 890.56,731.589 890.56,731.828 890.319,732.068 
		890.319,732.309 889.84,733.749 889.359,734.949 887.68,735.43 887.2,735.43 886,735.189 884.32,735.189 884.081,735.43 
		883.36,735.43 882.401,735.909 881.922,736.39 880.961,737.35 880.481,737.83 877.603,740.229 877.122,740.71 876.643,741.189 
		876.643,741.43 875.442,742.39 874.482,743.59 874.242,743.83 	"/>
	
		<polyline clip-path="url(#SVGID_2_)" fill="none" stroke="#B37C34" stroke-width="0.7199" stroke-linecap="round" stroke-linejoin="round" stroke-miterlimit="3.85" points="
		874.242,743.83 874.003,744.069 873.522,744.311 873.283,744.551 873.043,744.551 872.563,745.03 872.323,745.27 871.123,746.23 
		870.643,746.71 870.403,747.431 870.163,747.67 869.923,747.91 869.684,748.15 869.443,748.391 868.724,748.871 868.004,749.591 
		867.283,750.311 867.283,750.551 867.044,750.79 866.564,751.271 866.084,751.751 866.084,751.99 865.364,752.231 864.645,752.951 
		864.645,753.191 863.924,754.151 863.444,754.631 862.965,755.111 862.005,756.071 862.005,756.312 861.285,757.271 
		860.805,757.752 860.805,757.991 859.125,761.592 858.886,761.592 858.165,763.031 857.686,763.752 857.205,764.473 
		856.726,764.952 856.485,765.192 856.006,765.432 854.807,765.432 854.566,765.432 854.326,765.673 854.086,765.673 
		853.606,765.673 853.127,765.912 852.646,765.912 852.166,766.152 851.687,766.393 850.486,767.112 850.247,767.353 
		849.768,767.832 849.048,769.033 848.327,769.752 847.848,770.232 847.848,770.473 847.127,771.193 846.888,771.913 
		846.407,772.394 846.407,772.633 846.407,773.593 846.407,774.313 846.168,774.553 845.928,775.033 845.688,775.033 
		845.208,775.514 844.968,775.514 842.328,774.793 841.608,774.793 840.408,775.273 840.169,775.273 838.729,775.514 
		838.01,775.754 838.01,775.993 837.29,776.714 837.049,776.714 836.33,776.953 836.09,777.193 835.13,777.434 834.89,777.673 
		834.41,777.914 834.17,778.153 832.25,779.834 831.53,780.313 830.091,781.273 829.37,781.994 829.131,782.234 828.891,782.475 
		828.65,782.475 828.171,782.714 827.69,782.954 827.451,782.954 826.731,782.954 826.491,782.954 826.011,783.193 825.531,783.193 
		824.812,783.193 824.331,783.193 823.853,782.954 823.611,782.954 823.132,782.234 822.893,781.994 822.412,781.514 
		822.173,780.794 821.452,778.634 821.213,777.193 820.973,775.993 820.732,775.514 820.013,774.313 818.813,773.353 
		818.093,772.633 817.854,772.394 817.613,772.394 816.894,772.152 816.894,771.913 815.453,771.673 815.213,771.673 
		814.253,771.913 812.573,772.873 812.573,773.113 811.854,773.353 810.894,774.793 810.654,775.273 809.935,776.233 
		808.255,777.914 808.015,778.153 807.295,778.634 806.814,779.114 806.575,779.354 805.855,779.834 805.375,780.073 
		805.136,780.073 803.936,780.554 803.456,781.033 802.976,781.514 801.057,783.914 800.815,784.874 800.815,785.354 
		800.576,787.515 800.336,789.194 800.096,791.595 800.096,792.314 800.096,792.556 800.096,793.515 800.096,794.715 
		799.856,795.436 799.856,795.676 799.377,796.155 797.937,795.915 797.456,795.915 797.217,795.915 796.977,795.676 
		796.736,795.676 796.257,795.195 796.018,795.195 795.777,794.955 795.537,794.955 795.057,794.715 794.817,794.715 
		794.577,794.715 794.338,794.715 794.098,794.715 793.857,794.715 793.617,794.955 793.138,794.955 792.657,795.195 
		789.778,794.476 789.538,794.476 788.099,794.476 787.139,794.715 786.179,794.715 785.939,794.955 785.219,795.195 
		784.499,795.676 783.779,796.636 783.539,796.636 783.539,796.876 783.299,797.115 783.059,797.355 782.819,798.076 
		782.819,798.795 782.819,799.516 782.819,799.756 782.819,799.996 782.819,800.476 783.059,800.956 783.299,801.436 
		783.299,801.676 783.539,801.916 783.539,802.156 783.539,802.636 783.539,803.116 783.299,803.116 783.299,803.356 
		783.059,803.597 782.58,804.076 782.34,804.076 782.34,804.315 782.1,804.315 781.619,804.315 780.9,804.557 779.939,804.797 
		779.22,805.036 778.98,805.036 778.74,805.276 778.5,805.756 778.02,806.717 778.02,806.956 777.78,808.396 777.54,808.877 
		777.061,809.597 775.86,810.077 775.381,810.317 775.381,810.557 775.141,810.797 775.141,811.036 775.141,811.277 774.9,811.757 
		775.141,811.757 775.141,811.997 775.381,812.717 776.581,816.558 776.82,817.757 776.581,818.238 776.581,819.438 
		776.581,820.157 777.061,821.838 776.82,823.758 776.82,824.478 776.581,825.198 776.34,825.678 775.62,826.398 774.9,827.119 
		774.9,827.358 774.66,827.599 774.182,827.839 773.94,827.839 772.741,828.318 772.502,828.559 771.781,828.559 771.302,828.559 
		771.062,828.318 770.581,828.318 769.621,827.839 768.902,827.599 768.422,827.599 767.941,827.599 767.702,827.839 
		767.462,828.318 767.462,829.279 767.702,830.239 767.702,830.719 767.702,831.198 767.941,831.679 767.941,831.919 
		768.182,832.398 768.422,832.64 768.662,833.119 768.902,833.84 769.142,833.84 769.142,834.079 769.382,834.079 769.861,834.56 
		770.342,835.039 771.302,835.52 772.261,836.479 772.502,836.719 772.981,837.439 773.221,837.439 773.701,838.399 773.94,838.64 
		774.182,839.119 774.182,839.36 774.182,840.319 774.182,840.561 774.182,841.28 773.94,841.76 773.221,842.24 772.981,842.96 
		772.741,843.2 772.741,843.439 772.502,844.4 772.502,844.881 772.741,845.12 772.261,846.32 772.261,846.561 772.021,847.281 
		772.021,847.761 772.021,848.001 772.021,848.24 772.021,848.721 772.261,848.961 772.261,849.201 772.981,849.921 
		773.461,850.401 774.182,851.36 774.66,851.841 775.381,852.561 775.381,853.041 775.141,853.761 775.141,854.001 774.9,854.481 
		774.421,854.722 773.94,854.961 773.701,854.961 772.981,854.961 772.502,854.722 772.021,854.481 771.541,854.241 
		770.342,853.761 770.102,853.281 768.662,851.602 767.702,850.881 766.982,850.881 766.742,850.881 766.262,850.881 
		766.022,851.121 765.303,851.36 764.582,852.561 763.623,854.001 763.383,856.642 763.623,857.122 763.144,858.562 
		762.183,860.002 761.703,860.481 760.983,861.202 759.783,862.162 757.864,863.122 757.864,863.362 757.624,863.362 
		757.384,863.362 757.144,863.362 756.664,863.122 755.225,862.643 754.984,862.402 754.265,861.682 752.824,860.242 
		752.585,860.002 752.585,859.762 752.824,858.802 753.064,858.322 753.785,857.361 754.024,857.122 754.504,856.401 
		754.744,856.161 755.225,855.922 756.184,854.722 756.424,854.481 756.424,853.761 756.424,853.281 756.184,852.561 
		755.465,851.121 755.225,850.881 754.984,850.401 754.744,849.921 754.744,849.681 754.265,848.961 753.785,847.521 
		752.824,845.84 752.345,845.12 751.865,844.16 751.625,843.681 751.386,843.681 750.665,843.2 749.706,842.72 749.465,842.72 
		748.506,842.72 748.266,842.96 747.785,842.96 747.306,843.2 746.346,843.2 745.866,843.2 745.626,843.2 745.386,842.96 
		745.386,842.72 745.386,842 745.386,841.76 745.146,841.52 745.146,841.04 744.906,840.319 744.666,840.319 744.666,840.08 
		744.666,839.84 744.187,838.88 743.706,838.399 743.706,838.16 743.227,837.68 742.986,837.439 742.746,837.439 742.746,837.199 
		742.507,837.199 742.267,837.199 742.027,836.96 740.587,836.96 739.627,837.199 739.387,837.199 739.147,837.439 738.188,837.68 
		737.948,838.16 737.468,838.88 737.468,839.119 737.468,839.36 737.228,839.6 737.228,840.561 736.988,840.561 736.988,841.28 
		736.508,842.48 736.269,842.96 736.027,842.96 735.788,843.2 735.548,843.439 735.308,843.681 734.108,844.4 733.868,844.64 
		732.429,845.36 731.709,845.84 731.229,846.081 731.229,846.32 730.989,846.32 730.989,846.561 730.749,846.801 730.749,847.04 
		730.509,848.001 730.028,849.201 729.789,849.681 729.549,849.681 729.309,850.401 728.59,851.121 728.59,851.36 728.349,852.321 
		728.349,853.041 728.349,853.281 728.349,853.521 728.109,854.001 727.869,854.001 727.39,854.722 726.91,855.441 726.669,856.161 
		726.43,856.401 725.949,857.361 725.23,858.081 724.03,859.281 724.03,859.522 724.03,860.481 723.79,861.682 723.79,861.922 
		723.79,862.162 724.27,862.882 724.27,863.603 724.511,863.603 724.511,864.082 724.511,864.563 724.511,864.802 724.75,865.043 
		724.511,865.522 724.511,865.762 724.511,866.002 724.511,866.482 724.511,866.723 724.27,867.442 724.27,867.683 724.03,868.162 
		724.03,868.402 724.03,868.643 724.03,869.123 723.79,869.123 723.551,869.603 723.551,869.843 723.311,870.083 723.07,870.323 
		723.07,870.563 721.871,871.764 721.631,872.003 721.15,872.243 719.231,873.203 718.751,873.203 718.271,873.443 717.791,873.443 
		717.791,873.684 716.591,874.644 715.392,875.604 715.152,875.844 714.911,876.084 714.672,876.323 714.432,876.804 
		713.712,878.244 713.712,878.964 713.712,879.443 713.712,879.684 713.712,879.924 713.952,880.404 713.952,880.644 
		714.432,881.364 714.911,881.844 715.632,882.324 716.352,882.805 716.831,883.284 717.312,884.244 717.552,886.165 
		718.031,886.645 718.271,887.364 718.271,888.564 718.511,889.285 718.751,890.245 718.991,891.444 718.991,891.686 
		718.991,891.926 718.991,892.165 718.751,892.886 718.751,893.125 718.511,893.605 718.271,894.085 718.031,895.045 
		718.031,895.285 718.031,895.766 717.791,896.485 718.271,897.686 718.511,898.406 718.511,898.646 718.511,898.886 
		718.511,899.846 719.471,901.766 719.711,902.727 720.19,904.406 720.431,904.886 720.431,905.127 720.431,905.606 
		720.431,906.807 720.19,908.247 720.19,908.486 719.951,908.486 719.711,909.207 719.711,909.447 719.471,909.687 719.231,910.167 
		718.271,910.887 718.031,910.887 717.552,911.127 716.352,911.367 716.111,911.367 715.871,911.367 714.191,911.367 
		713.712,911.606 711.552,910.647 710.593,910.406 710.113,910.406 709.633,910.167 709.633,910.406 708.434,910.406 
		707.953,910.647 707.233,910.887 706.993,910.887 706.993,911.127 706.753,911.127 706.753,911.367 705.313,912.807 
		705.073,913.048 704.594,913.768 704.354,914.248 704.114,914.728 704.354,915.207 704.354,916.888 704.354,917.127 
		704.114,920.248 704.114,920.488 703.634,921.448 703.394,922.168 703.394,922.408 703.153,922.648 703.153,923.128 
		702.914,923.368 702.914,923.608 702.914,924.089 702.914,926.248 702.914,927.448 702.914,927.688 702.914,927.929 
		702.674,928.648 701.954,929.849 701.954,930.568 701.715,930.81 701.715,931.049 701.715,932.01 701.715,932.249 701.715,932.489 
		701.474,932.729 701.474,933.21 701.234,933.449 700.994,934.169 700.274,935.609 699.314,936.569 698.114,937.05 695.476,937.53 
		693.796,937.77 693.556,938.01 693.315,938.01 692.596,938.25 691.636,938.25 691.396,938.25 691.156,938.01 689.477,937.29 
		688.996,937.53 688.757,937.77 686.837,938.489 686.117,938.73 685.877,938.73 685.637,938.97 685.397,938.97 685.157,939.21 
		683.717,939.449 683.238,939.689 682.037,939.931 681.798,939.931 681.559,940.17 681.318,940.17 681.078,940.17 680.598,940.41 
		678.438,941.13 677.479,941.61 675.799,942.33 672.919,943.29 672.439,943.29 671.96,943.29 671.479,943.53 670.04,943.53 
		669.08,943.53 668.6,943.29 667.4,943.051 667.16,942.811 666.44,942.57 666.201,942.33 665.961,942.33 665.481,941.851 
		665.001,941.61 665.001,941.37 664.761,941.13 664.281,940.41 663.802,939.689 663.802,939.449 663.802,939.21 663.321,937.77 
		663.081,936.81 662.841,934.169 662.841,933.93 662.602,932.969 662.361,932.489 662.121,932.249 662.121,932.01 661.881,932.01 
		661.881,931.769 661.642,931.529 661.401,931.289 661.161,931.289 660.922,931.049 660.202,930.568 659.481,930.329 
		659.242,930.089 658.282,929.849 658.282,929.609 657.082,928.889 656.842,928.648 656.603,928.409 656.123,927.929 
		655.883,927.688 655.402,927.209 655.402,926.969 654.683,926.008 653.482,924.809 653.243,924.328 652.523,922.889 
		652.044,922.168 651.803,921.928 651.803,921.688 651.803,921.448 651.563,921.208 651.323,920.969 650.604,920.008 
		650.123,919.527 649.403,919.048 648.924,918.808 648.684,918.808 648.204,918.568 647.964,918.327 647.484,917.848 
		647.004,917.368 646.764,917.368 646.044,916.888 644.845,917.127 644.365,916.888 644.125,916.888 643.405,916.888 
		641.725,916.888 639.806,916.888 639.565,917.127 639.086,916.888 638.126,916.888 637.886,916.888 637.886,916.647 
		637.166,916.407 636.686,916.407 635.966,915.688 635.247,915.447 634.767,914.968 634.526,914.968 634.046,914.728 
		634.046,914.487 633.087,913.768 632.367,913.048 631.887,912.807 631.647,912.567 631.407,912.327 631.167,911.848 
		630.927,911.606 630.447,910.887 629.967,909.207 629.487,907.767 629.487,907.286 629.487,907.047 629.487,906.566 
		629.248,904.406 629.248,902.727 629.248,902.246 629.248,902.006 629.007,899.846 628.528,898.406 628.288,898.165 
		627.568,896.726 626.848,896.006 626.848,895.525 626.608,894.806 626.608,893.365 626.848,892.165 627.328,890.485 
		627.328,890.005 627.568,889.285 627.568,888.324 627.568,888.085 627.328,886.645 627.328,886.404 627.328,885.685 
		627.088,885.205 626.848,884.965 626.368,884.244 625.648,883.765 624.928,883.524 624.448,883.524 624.208,883.524 
		621.329,884.244 621.089,884.244 620.369,884.484 619.889,884.724 618.689,885.205 618.209,885.444 617.729,885.685 
		617.49,885.924 617.25,886.165 615.81,886.885 615.81,887.124 615.09,887.604 614.37,888.085 613.89,888.324 612.931,888.564 
		612.451,888.564 612.21,888.564 611.971,888.564 611.011,888.085 610.771,888.085 610.291,887.845 610.051,887.845 
		608.851,887.845 608.611,887.845 608.371,887.845 607.412,888.085 606.452,888.324 606.212,888.564 605.972,888.805 
		605.492,889.525 605.252,890.245 604.532,891.444 603.092,893.605 601.652,894.806 599.973,895.766 599.493,895.766 
		599.013,896.006 596.613,896.726 595.894,896.966 595.174,897.686 594.454,898.646 593.974,899.846 593.734,900.086 
		593.494,901.766 593.254,902.246 593.254,902.486 593.014,902.727 593.014,902.967 592.294,904.166 592.294,904.406 
		591.814,904.886 591.094,905.606 589.415,906.327 589.175,906.327 588.215,906.327 587.255,906.327 585.815,906.566 
		584.855,906.807 584.616,906.807 584.375,906.807 583.656,906.807 583.416,906.807 583.176,906.807 582.936,906.807 
		581.976,906.566 580.537,905.606 580.296,905.606 579.816,905.366 579.336,905.127 579.097,905.127 578.377,904.886 
		577.417,904.886 576.697,905.127 576.217,905.606 575.498,905.847 575.018,906.086 574.538,906.566 574.297,907.047 
		572.378,909.207 571.898,909.687 571.898,909.927 571.658,909.927 571.418,910.167 570.938,910.167 569.979,909.927 
		569.738,909.927 569.738,909.687 569.499,909.687 569.258,909.687 569.019,909.447 569.019,909.207 568.778,909.207 
		568.539,908.967 567.819,908.007 567.819,907.767 567.579,907.527 567.579,906.807 567.579,905.847 567.339,904.406 
		566.619,903.206 564.939,901.766 562.78,900.326 561.58,899.606 561.34,899.606 561.1,899.606 560.38,899.126 560.14,899.126 
		558.94,898.886 555.341,898.165 554.381,897.926 551.981,897.686 551.502,897.686 550.782,897.445 549.342,896.966 
		549.102,896.966 547.902,896.485 547.422,896.246 546.942,895.525 545.503,894.085 544.543,893.365 543.103,892.405 
		542.144,892.165 540.944,891.926 539.264,891.926 537.104,892.405 535.425,893.125 534.465,893.365 533.745,893.605 
		531.105,894.085 530.866,894.325 528.706,894.806 528.466,894.806 528.226,894.806 527.746,895.045 527.506,895.285 
		527.026,895.525 526.786,895.525 526.786,895.766 525.826,896.726 525.586,897.206 525.347,897.686 525.106,899.126 
		525.106,900.326 524.867,900.326 524.626,901.766 524.146,902.727 524.146,902.967 523.667,903.446 523.187,903.927 
		522.947,904.166 522.467,904.166 521.747,904.406 521.267,904.406 519.828,903.927 519.587,903.927 518.868,903.686 
		516.468,902.246 516.228,902.246 515.988,902.246 515.269,902.006 514.789,901.526 514.548,901.286 514.309,901.286 
		514.309,901.046 514.068,901.046 511.909,900.807 510.709,900.565 510.469,900.565 509.27,900.086 508.79,900.086 508.31,899.846 
		507.83,899.606 507.59,899.126 507.35,899.126 507.35,898.646 507.11,898.165 506.87,897.445 506.87,896.726 506.39,894.565 
		506.39,894.085 505.91,892.645 505.67,891.926 505.43,891.926 504.95,891.686 503.99,890.965 503.031,890.725 502.071,890.485 
		500.871,890.245 499.431,889.045 498.951,888.805 498.951,888.564 498.711,888.324 498.472,888.085 498.472,887.845 
		498.231,887.604 498.231,887.364 498.231,887.124 498.231,886.645 497.992,885.444 497.751,884.724 497.751,884.484 
		497.512,884.244 497.512,883.765 497.271,883.284 497.032,883.284 497.032,883.044 497.032,882.805 496.072,882.084 
		495.112,881.604 494.872,881.364 494.392,881.124 494.152,881.124 492.473,880.644 490.073,880.164 488.873,879.684 
		488.633,879.684 488.393,879.684 487.914,879.684 487.193,879.443 486.954,879.203 486.954,878.964 484.794,877.284 
		483.594,876.804 482.634,876.804 482.395,876.563 481.674,876.563 480.235,876.563 478.075,877.523 476.635,877.764 
		476.396,877.764 475.436,878.244 474.716,878.484 474.476,878.484 474.476,878.724 473.756,878.724 472.316,879.203 
		471.596,879.443 470.637,879.203 470.396,879.203 468.957,879.203 467.997,879.203 464.877,878.484 463.918,878.003 
		462.958,877.764 462.478,877.523 461.998,877.044 459.838,876.084 459.599,875.844 458.639,875.604 458.399,875.604 
		457.439,875.123 457.199,875.123 456.719,874.883 456.239,874.883 452.88,874.163 452.4,874.163 451.2,873.684 450.24,873.443 
		449.521,873.203 449.28,872.963 448.561,872.003 448.321,872.003 448.321,871.764 448.081,871.522 447.601,870.803 
		447.121,869.363 446.881,869.123 446.881,868.643 446.881,868.402 446.881,867.442 446.641,866.723 446.641,866.002 
		446.641,865.522 446.641,864.802 446.641,864.322 446.641,864.082 	"/>
	
		<polyline clip-path="url(#SVGID_2_)" fill="none" stroke="#B37C34" stroke-width="0.7199" stroke-linecap="round" stroke-linejoin="round" stroke-miterlimit="3.85" points="
		446.641,864.082 446.881,862.643 446.881,861.922 446.881,861.682 446.881,861.442 446.881,861.202 446.881,860.242 
		446.881,859.522 446.641,858.081 445.921,856.642 445.681,856.401 445.201,855.682 444.481,854.241 443.761,852.802 
		443.282,852.321 443.042,852.081 443.042,851.841 442.322,850.881 441.362,849.681 440.882,849.201 440.402,848.48 
		440.162,848.001 439.922,847.521 439.682,847.281 439.442,846.561 439.202,845.84 438.962,845.12 438.962,844.64 438.962,844.4 
		438.722,842.96 438.722,842.72 438.722,842.48 438.722,842.24 438.722,841.52 438.722,841.28 438.482,840.319 438.002,839.36 
		437.763,838.64 436.563,836.719 435.843,836 434.883,835.039 433.683,834.079 432.483,833.359 430.564,832.64 430.324,832.398 
		429.364,832.398 426.964,831.919 426.005,831.679 425.765,831.679 425.045,831.679 424.325,831.679 422.885,830.959 
		422.405,830.719 422.166,830.479 421.925,830.479 421.925,830.239 421.686,829.998 421.446,829.759 421.446,829.519 
		420.966,827.839 420.966,826.878 420.966,826.158 420.966,825.198 420.966,824.719 420.966,823.758 421.206,823.278 
		420.726,822.078 420.246,820.638 419.526,819.918 419.046,819.438 418.326,818.957 417.366,818.718 416.167,818.718 
		415.446,818.957 414.727,819.438 414.247,819.918 414.007,820.397 413.287,821.598 413.047,821.838 412.807,822.078 
		412.567,822.318 412.327,822.318 412.087,822.798 411.367,823.038 410.888,823.278 409.928,823.519 409.688,823.519 
		409.208,823.519 408.968,823.519 407.288,822.559 407.048,822.318 406.808,822.078 406.568,822.078 405.608,822.078 
		405.128,822.318 404.649,822.798 403.688,824.238 403.449,824.238 402.969,824.719 402.729,824.959 399.85,825.678 
		399.129,825.919 398.89,826.158 398.65,826.158 398.41,826.398 398.17,826.398 397.93,826.398 397.45,826.398 396.49,826.398 
		396.25,826.398 396.01,826.158 395.771,826.158 394.571,825.678 394.331,825.198 392.411,823.038 391.451,822.559 390.251,822.078 
		388.812,821.838 387.852,821.598 387.372,820.878 387.132,820.878 387.132,820.638 386.652,820.157 386.172,819.438 
		385.692,818.238 384.252,816.317 384.013,815.838 383.533,815.117 382.813,814.637 382.573,814.397 381.853,813.917 
		380.173,813.437 379.213,813.437 378.733,813.437 378.253,813.917 377.054,814.877 374.894,818.238 374.174,818.718 
		373.454,818.957 371.295,819.678 371.055,819.918 370.815,820.157 369.855,820.157 370.095,819.198 370.095,817.757 
		370.095,816.317 370.095,815.598 370.095,813.437 370.095,812.717 370.335,811.277 370.335,810.797 370.335,804.797 
		370.575,800.956 370.575,800.716 370.575,799.996 370.575,799.516 370.575,799.275 370.575,799.035 370.575,796.636 
		370.575,796.155 370.575,795.915 370.575,795.436 370.575,794.715 370.575,794.476 370.815,793.755 370.815,793.515 
		370.815,792.795 370.815,792.556 370.815,792.314 370.815,792.074 370.815,791.114 371.055,786.314 	"/>
	
		<polyline clip-path="url(#SVGID_2_)" fill="none" stroke="#B37C34" stroke-width="0.7199" stroke-linecap="round" stroke-linejoin="round" stroke-miterlimit="3.85" points="
		650.844,397.715 651.323,398.675 652.523,398.915 653.723,397.475 654.203,397.715 653.963,400.355 653.723,401.795 
		653.003,402.996 652.764,403.235 651.084,403.235 647.964,401.555 646.764,400.595 646.764,400.355 646.764,400.115 
		648.204,398.195 648.924,397.475 650.364,397.475 650.844,397.715 	"/>
	
		<polyline clip-path="url(#SVGID_2_)" fill="none" stroke="#B37C34" stroke-width="0.7199" stroke-linecap="round" stroke-linejoin="round" stroke-miterlimit="3.85" points="
		636.686,393.154 635.006,395.075 634.046,395.794 633.087,396.035 633.087,392.674 634.287,390.994 635.486,390.754 
		637.406,390.274 637.886,389.794 639.086,389.554 639.565,389.794 639.326,390.274 638.846,390.994 636.926,393.154 
		636.686,393.154 	"/>
	
		<polyline clip-path="url(#SVGID_2_)" fill="none" stroke="#B37C34" stroke-width="0.7199" stroke-linecap="round" stroke-linejoin="round" stroke-miterlimit="3.85" points="
		637.886,388.114 637.886,388.594 636.926,388.834 635.247,386.434 636.926,385.233 638.126,384.753 640.286,384.273 
		640.766,384.753 639.806,385.474 638.366,386.674 637.886,388.114 	"/>
	
		<polyline clip-path="url(#SVGID_2_)" fill="none" stroke="#B37C34" stroke-width="0.7199" stroke-linecap="round" stroke-linejoin="round" stroke-miterlimit="3.85" points="
		636.926,379.713 637.166,380.193 637.406,382.354 636.446,382.593 634.046,382.354 634.046,381.873 634.526,381.153 
		635.247,379.953 635.966,379.713 636.926,379.713 	"/>
</g>
</svg>
