<?xml version="1.0" encoding="utf-8"?>
<!-- Generator: Adobe Illustrator 15.1.0, SVG Export Plug-In . SVG Version: 6.00 Build 0)  -->
<!DOCTYPE svg PUBLIC "-//W3C//DTD SVG 1.1//EN" "http://www.w3.org/Graphics/SVG/1.1/DTD/svg11.dtd">
<svg version="1.1" id="State" xmlns="http://www.w3.org/2000/svg" xmlns:xlink="http://www.w3.org/1999/xlink" x="0px" y="0px"
	 width="1296px" height="1296px" viewBox="0 0 1296 1296" enable-background="new 0 0 1296 1296" xml:space="preserve">
<g>
	<defs>
		<rect id="SVGID_1_" x="259.22" y="351.621" width="779.516" height="595.772"/>
	</defs>
	<clipPath id="SVGID_2_">
		<use xlink:href="#SVGID_1_"  overflow="visible"/>
	</clipPath>
	
		<polyline clip-path="url(#SVGID_2_)" fill="none" stroke="#B37C34" stroke-width="0.48" stroke-linecap="round" stroke-linejoin="round" stroke-miterlimit="3.85" points="
		362.659,524.688 355.22,524.448 354.979,524.448 354.739,524.448 353.3,524.208 351.62,524.208 344.66,523.968 344.179,523.968 
		335.54,523.488 334.58,523.488 311.06,522.528 306.74,522.288 298.58,521.808 294.5,521.568 289.22,521.328 280.82,520.848 
		281.06,518.688 281.06,518.207 281.3,514.126 281.54,510.286 281.54,508.606 281.78,502.605 282.02,498.044 283.22,478.121 
		283.22,477.881 283.7,468.76 284.9,469 285.38,469 297.14,469.479 299.3,469.479 300.02,469.479 302.42,469.72 303.86,469.72 
		305.3,469.96 309.14,470.44 323.54,471.16 337.7,471.88 341.779,472.12 344.9,472.36 345.62,472.36 346.34,472.36 350.179,472.6 
		352.1,472.6 362.899,473.08 364.1,473.08 365.3,473.32 367.459,473.32 372.979,473.561 375.379,473.561 375.62,473.561 
		376.1,473.561 377.539,473.561 378.979,473.8 382.1,473.8 387.62,474.041 391.219,474.041 395.059,474.28 398.419,474.28 
		401.059,474.521 401.539,474.521 404.899,474.521 407.779,474.761 410.659,474.761 416.659,475 419.779,475 421.219,475 
		421.459,475 427.699,475.241 429.139,475.241 433.459,475.48 433.699,475.48 437.779,475.48 441.379,475.48 443.299,475.721 
		443.779,475.721 445.699,475.721 446.899,475.721 450.259,475.721 451.699,475.961 454.819,475.961 456.019,475.961 
		459.379,475.961 460.579,475.961 463.459,476.201 463.939,476.201 467.059,476.201 467.539,476.201 471.139,476.201 
		471.619,476.201 471.859,476.201 473.539,476.441 477.139,476.441 478.579,476.441 482.179,476.441 482.419,476.441 
		485.539,476.681 485.779,476.681 488.899,476.681 491.059,476.681 493.699,476.681 496.339,476.921 498.739,476.921 
		502.099,476.921 512.659,477.161 518.419,477.161 518.899,477.161 519.139,477.161 519.619,477.161 525.619,477.401 
		527.779,477.401 534.739,477.641 534.979,477.641 535.219,477.641 535.699,477.641 543.139,477.881 545.779,477.881 
		549.378,477.881 553.219,478.121 554.179,478.121 558.499,478.121 560.418,478.121 562.338,478.361 564.019,478.361 
		564.738,478.361 566.659,478.361 570.979,478.601 572.418,478.601 573.619,478.601 576.499,478.601 576.738,478.601 
		576.979,478.601 577.218,478.601 578.418,478.601 580.818,478.601 584.898,478.841 585.858,478.601 587.539,478.601 
		595.938,478.841 598.338,478.841 600.258,478.841 600.499,478.841 600.979,478.841 608.178,479.081 608.658,479.081 
		614.898,479.081 615.378,479.081 616.578,479.081 618.018,479.081 618.979,479.081 619.698,479.081 625.458,479.321 
		629.058,479.321 630.018,479.321 634.818,479.321 636.018,479.321 636.498,479.321 639.138,479.321 642.738,479.321 
		642.978,479.321 648.258,479.562 650.897,479.562 657.378,479.562 662.178,479.562 662.897,479.562 667.698,479.562 
		667.938,479.562 668.658,479.562 672.498,479.562 673.218,479.801 673.938,479.801 683.058,479.801 684.498,479.801 
		685.458,479.801 686.897,479.801 688.098,479.801 690.498,479.801 692.178,479.801 693.617,479.801 699.138,479.801 
		699.617,479.801 700.098,479.801 700.338,479.801 702.979,479.801 705.857,479.801 711.857,479.562 713.298,479.562 
		719.537,479.562 720.978,479.562 721.218,479.562 722.418,479.562 728.418,479.562 728.897,479.562 732.258,479.562 
		733.457,479.562 735.857,479.562 736.098,479.562 738.018,479.562 739.457,479.562 741.138,479.562 742.577,479.562 
		747.138,479.562 748.098,479.562 754.577,479.562 755.537,479.562 756.258,479.562 756.498,479.562 758.178,479.562 
		761.537,479.321 765.377,479.321 769.938,479.321 773.777,479.321 774.498,479.321 775.218,479.321 776.658,479.321 
		778.098,479.321 778.338,479.321 783.138,479.321 783.617,479.321 784.338,479.321 788.897,479.081 789.617,479.081 
		792.257,479.081 793.217,479.081 793.457,479.081 793.697,479.081 794.897,479.081 795.137,479.081 797.297,479.081 
		798.018,479.081 801.617,479.081 804.018,479.081 804.257,479.081 807.857,479.081 808.577,478.841 809.058,478.841 
		809.297,478.841 811.217,478.841 811.457,478.841 818.418,478.841 824.418,478.841 826.577,478.841 828.737,478.601 
		835.938,478.601 837.617,478.601 838.817,478.601 847.217,478.361 847.457,478.361 847.697,478.361 851.057,478.361 
		852.497,478.361 853.938,478.121 855.137,478.121 857.777,478.121 858.018,478.121 858.257,478.121 858.497,478.121 
		858.737,478.121 858.978,478.121 862.816,478.121 870.737,477.881 873.617,477.881 876.018,477.881 876.736,477.641 
		878.177,477.641 881.057,477.641 881.297,477.641 881.777,477.641 885.856,477.641 886.816,477.641 888.497,477.401 
		890.177,477.401 890.897,477.401 892.098,477.401 892.337,477.401 894.257,477.401 894.736,477.401 894.978,477.401 
		896.177,477.401 896.897,477.401 898.097,477.161 898.816,477.161 900.736,477.161 900.978,477.161 901.697,477.161 
		901.938,477.161 902.177,477.161 902.417,477.161 902.897,477.161 903.137,477.161 904.097,477.161 905.297,477.161 
		906.497,477.161 909.856,476.921 910.816,476.921 911.777,476.921 920.417,476.681 922.576,476.681 923.057,476.681 
		926.897,476.441 927.137,476.441 927.617,476.441 930.496,476.441 930.977,476.441 932.177,476.441 938.177,476.201 
		939.617,476.201 941.297,476.201 941.536,476.201 942.736,475.961 948.496,475.961 950.416,475.721 951.377,475.721 
		952.097,475.721 953.536,475.721 954.017,475.721 954.977,475.721 959.536,475.48 962.656,475.48 963.137,475.48 963.856,475.48 
		966.977,475.48 967.217,475.48 967.456,475.241 967.697,475.241 967.937,475.241 968.656,475.241 969.617,475.241 970.576,475.241 
		973.217,475.241 975.617,475 975.856,475 976.336,475 976.576,475 977.057,475 977.776,475 978.736,475 979.456,475 979.696,475 
		985.937,474.761 986.656,474.761 986.656,475 986.656,475.241 986.656,479.801 986.896,480.281 986.896,481.001 986.896,481.961 
		986.896,482.202 986.896,482.922 986.896,483.882 986.896,485.322 986.896,487.243 987.137,488.203 987.137,490.363 
		987.137,490.603 987.137,490.843 987.137,491.083 987.137,492.043 987.137,492.283 987.137,493.003 987.137,493.243 
		987.377,496.604 987.377,498.524 987.377,499.004 987.377,499.964 987.617,505.005 987.617,505.725 987.856,509.086 
		987.856,509.326 987.856,510.526 987.856,511.006 987.856,513.646 987.856,513.887 988.097,515.087 988.097,515.567 
		988.097,516.527 988.097,518.688 988.097,519.647 988.336,521.328 988.336,521.808 988.336,523.008 988.336,523.248 
		988.336,524.928 988.336,525.168 988.336,526.849 988.576,528.529 988.816,529.249 989.057,530.209 989.057,530.929 
		989.776,535.01 990.017,536.69 990.017,536.93 990.256,537.89 990.256,538.61 990.496,539.571 990.977,542.451 990.977,542.931 
		990.977,543.171 991.217,544.371 991.937,547.732 991.937,548.692 992.176,549.652 992.176,549.892 992.416,551.572 
		992.656,552.772 992.656,553.013 992.896,553.973 993.137,554.453 993.137,554.693 993.137,554.933 993.137,555.893 
		993.377,556.613 993.377,556.854 993.616,558.534 993.856,559.253 993.856,559.494 993.856,559.734 993.856,559.974 
		994.097,560.214 994.097,560.454 994.097,560.694 994.336,561.414 994.336,561.894 994.336,562.134 994.576,563.094 
		994.576,563.814 994.576,564.054 994.816,565.254 995.536,568.135 996.017,570.775 996.496,573.416 996.496,574.616 
		996.977,577.017 997.217,577.977 997.217,578.457 997.456,579.177 997.456,580.137 997.937,582.297 997.937,582.537 
		998.416,584.458 998.416,584.698 998.656,585.417 998.656,585.658 998.656,585.898 998.896,588.058 999.137,588.538 
		999.137,588.778 999.137,589.018 1000.097,594.779 1000.097,595.019 1000.336,596.219 1000.576,596.939 1000.576,597.899 
		1000.816,598.86 1000.816,599.34 1001.057,599.34 1001.057,600.06 1001.057,600.3 1001.057,600.54 1001.536,602.94 
		1001.776,603.661 1001.776,603.9 1002.017,604.861 1002.256,607.021 1002.256,607.261 1002.736,609.421 1002.977,610.381 
		1003.937,616.382 1004.176,617.343 1004.656,620.943 1004.896,621.663 1004.896,622.144 1005.377,624.544 1005.616,626.464 
		1005.616,626.704 1005.856,627.424 1005.856,628.145 1006.336,631.025 1006.336,631.265 1007.297,635.826 1007.536,636.545 
		1007.776,638.946 1008.256,641.346 1008.496,641.827 1008.256,642.066 1008.256,642.546 1008.256,643.267 1008.256,643.747 
		1008.496,644.467 1008.496,644.707 1008.496,644.947 1008.496,645.187 1008.496,646.147 1008.496,646.387 1008.496,646.627 
		1008.496,646.867 1008.496,647.587 1008.496,648.788 1008.496,649.508 1008.496,649.988 1008.496,650.228 1008.496,650.708 
		1008.496,650.948 1008.496,652.389 1008.496,652.628 1008.496,653.108 1008.496,653.828 1008.496,654.309 1008.496,654.789 
		1008.496,655.989 1008.496,656.948 1008.496,657.669 1008.496,658.148 1008.496,658.869 1008.496,659.35 1008.496,659.829 
		1008.496,661.029 1008.496,661.27 1008.496,661.989 1008.496,662.47 1008.496,662.71 1008.496,663.43 1008.496,663.67 
		1008.496,665.11 1008.496,665.35 1008.496,665.83 1008.736,669.671 1008.496,670.631 1008.736,671.352 1008.736,676.632 
		1008.736,680.952 1008.736,682.873 1008.736,683.353 1008.736,685.273 1008.736,690.073 1008.736,693.915 1008.736,694.155 
		1008.736,694.635 1008.736,695.114 1008.736,696.074 1008.736,697.515 1008.736,697.755 1008.736,698.235 1008.736,698.475 
		1008.977,700.876 1008.977,701.115 1008.977,705.677 1008.977,707.597 1008.977,709.997 1008.977,710.236 1008.977,710.478 
		1008.977,710.718 1008.977,711.437 1008.977,713.838 1008.977,715.038 1008.977,715.758 1008.977,716.478 1008.977,720.318 
		1008.977,721.279 1008.977,723.439 1009.217,724.88 1009.217,730.4 1009.217,730.64 1009.217,731.84 1009.217,734.001 
		1009.217,734.481 1009.217,740.962 1009.456,742.402 1009.456,743.843 1009.456,744.322 1009.456,745.522 1009.456,748.163 
		1009.456,748.402 1009.456,750.083 1009.456,750.803 1009.456,761.605 1009.696,762.806 1009.696,765.206 1009.696,765.686 
		1009.696,767.847 1009.696,770.967 1009.696,771.447 1009.696,773.847 1009.696,776.968 1009.937,779.848 1009.937,781.528 
		1009.937,785.369 1009.937,785.609 1009.937,792.09 1009.937,792.569 1009.937,793.77 1009.937,794.25 1010.176,800.011 
		1010.176,802.651 1010.176,803.131 1010.176,805.531 1010.176,806.252 1010.176,808.412 1010.176,809.132 1010.176,809.853 
		1010.176,813.213 1010.176,813.453 1010.176,813.693 1010.176,815.373 1010.176,816.334 1010.176,817.294 1010.176,817.773 
		1010.416,819.935 1010.416,820.414 1010.416,822.814 1010.416,824.015 1010.416,825.455 1010.176,826.415 1009.937,826.895 
		1009.696,826.895 1008.736,827.375 1007.536,827.855 1007.297,827.855 1006.816,827.615 1006.576,827.375 1006.576,826.895 
		1006.816,826.655 1006.816,826.415 1006.576,826.175 1006.336,825.694 1005.856,825.694 1005.377,825.936 1004.896,825.936 
		1004.656,825.694 1004.416,825.455 1004.656,824.975 1004.656,824.494 1004.656,824.255 1004.176,823.775 1003.456,824.015 
		1002.977,824.015 1002.736,823.775 1002.736,823.535 1002.977,823.055 1002.977,822.814 1002.736,822.574 1002.256,822.094 
		1002.017,821.614 1001.536,821.614 1001.057,821.854 1000.816,822.094 1000.576,822.335 1000.097,822.335 999.616,822.335 
		999.377,822.094 999.137,821.854 998.896,821.854 998.896,821.614 998.416,821.374 997.937,821.854 997.696,822.335 
		997.456,822.335 997.217,822.574 996.496,822.814 996.256,822.814 996.017,822.574 996.017,822.335 996.017,821.614 
		996.017,821.374 996.017,821.135 996.017,820.894 995.776,820.894 995.536,820.414 995.057,820.414 992.896,821.374 
		992.416,821.374 992.176,821.374 991.937,821.135 990.736,821.135 990.496,820.894 990.496,820.654 990.496,820.174 
		990.496,819.935 990.736,819.693 990.496,819.214 990.017,818.974 989.776,818.974 989.536,818.974 989.297,819.214 
		989.297,819.454 989.057,819.935 988.576,819.693 988.097,819.454 988.097,819.214 988.097,818.734 988.097,818.254 
		987.856,817.534 987.617,817.054 986.896,816.813 986.656,816.813 986.177,816.813 985.937,816.573 985.456,816.094 
		985.456,815.373 985.456,815.133 985.456,814.894 985.456,814.653 985.217,814.413 984.977,814.173 984.736,814.173 
		984.496,814.413 984.256,814.413 983.536,815.133 982.576,815.373 981.856,814.894 981.377,814.653 981.137,814.653 
		980.896,814.653 980.656,814.653 980.416,814.894 980.177,815.613 980.177,815.854 979.937,815.854 978.977,816.094 
		978.256,816.094 977.536,815.854 976.576,815.373 976.336,815.373 976.097,815.133 975.856,814.894 975.856,814.413 
		975.856,814.173 975.856,813.934 975.617,813.453 975.377,813.453 975.137,813.453 974.896,813.453 974.896,813.213 
		974.656,813.213 974.177,812.732 973.456,812.253 973.217,812.253 972.736,812.253 972.736,812.013 972.496,812.013 
		972.017,811.293 972.017,811.053 972.017,810.813 972.017,810.573 972.257,809.853 972.257,809.373 972.017,809.373 
		972.017,808.893 971.776,808.652 971.536,808.652 971.057,808.652 970.816,808.893 970.576,808.893 970.097,808.893 
		969.617,808.652 969.377,808.173 969.377,807.692 969.137,807.212 968.416,806.252 967.937,806.252 967.697,805.052 
		967.456,803.852 967.456,803.611 967.217,803.611 966.977,803.611 966.736,803.852 966.257,804.572 966.257,804.812 
		965.776,804.812 965.536,804.812 965.297,804.572 965.057,804.092 964.576,803.611 963.856,803.131 963.377,803.852 
		963.137,803.852 962.656,803.852 962.177,803.852 961.937,803.852 961.697,803.852 961.456,803.852 960.736,803.611 
		960.496,803.611 959.536,801.211 959.297,800.251 958.816,799.771 958.337,799.771 958.097,799.771 957.617,800.011 
		957.377,800.491 956.656,800.731 956.416,800.251 956.177,800.011 956.177,799.531 955.937,798.811 955.697,798.57 955.456,798.57 
		954.977,798.57 954.017,798.331 953.777,798.091 953.777,797.61 953.777,797.371 954.017,796.65 953.536,796.41 953.057,796.17 
		951.377,796.17 950.896,796.17 950.416,796.17 949.937,795.931 949.697,795.69 949.217,795.45 948.496,794.97 945.617,794.011 
		945.377,793.77 944.656,793.77 944.416,794.011 944.177,794.011 942.736,796.41 942.496,796.891 942.496,797.131 942.496,797.371 
		942.496,797.851 942.736,798.57 942.736,799.051 942.496,799.771 942.257,800.011 941.777,800.251 941.536,800.491 
		941.297,800.251 940.816,800.251 940.576,800.251 940.337,800.251 940.097,800.491 940.097,800.731 940.097,801.451 
		940.097,801.691 940.097,802.172 939.856,802.651 939.617,803.131 938.896,802.892 937.456,802.411 936.257,801.932 
		935.536,801.932 935.536,802.651 935.536,802.892 935.057,803.611 935.057,803.852 933.856,803.852 931.937,803.852 
		929.536,804.092 929.297,804.092 929.057,804.331 928.816,804.092 928.097,804.092 925.697,804.092 924.497,803.852 
		924.257,803.611 924.257,803.131 924.497,802.411 924.257,802.411 924.017,802.172 923.777,802.172 923.536,802.172 
		923.057,802.892 922.816,803.131 921.856,803.611 920.897,803.611 920.417,803.372 920.417,803.131 920.417,802.411 
		920.177,801.932 919.697,801.932 919.217,802.172 918.736,802.411 918.257,802.892 918.017,802.892 917.777,803.131 
		917.537,803.131 917.297,803.131 917.057,803.131 916.816,802.892 916.576,802.172 916.337,801.691 916.576,800.972 
		916.576,800.251 916.576,799.531 915.856,798.091 915.617,797.851 915.617,797.61 915.377,797.61 914.897,797.61 913.457,797.61 
		913.457,797.371 912.257,797.61 911.777,798.331 911.297,798.57 909.137,800.491 908.177,800.491 906.978,800.251 906.497,800.491 
		906.257,800.731 905.537,801.691 904.816,802.411 903.856,802.892 902.656,802.892 902.417,802.892 902.177,802.651 
		901.457,802.411 900.978,802.172 900.978,801.932 900.257,801.932 899.537,801.932 898.577,802.172 898.577,802.411 
		898.097,803.131 898.097,803.372 898.097,804.092 898.337,804.331 898.337,804.572 898.577,804.812 899.057,806.012 
		898.816,806.252 898.577,806.731 898.097,806.973 897.377,807.452 897.137,807.212 895.938,806.012 895.697,806.012 
		894.736,805.531 894.497,805.531 893.057,806.012 893.057,806.252 893.057,806.731 893.297,806.973 893.297,807.452 
		893.057,807.692 893.057,807.932 892.577,808.173 892.098,808.412 891.617,808.412 891.617,808.173 891.377,808.173 
		891.137,807.932 890.657,807.452 889.697,806.731 887.777,805.772 887.297,805.531 886.816,805.052 885.617,804.331 
		884.657,803.852 884.177,803.372 883.217,803.131 882.978,803.131 882.978,803.372 882.978,803.611 882.978,803.852 
		882.978,804.092 882.978,804.331 882.978,804.572 882.978,804.812 882.497,805.772 882.497,806.012 882.257,806.012 
		881.777,806.252 879.856,806.492 879.137,806.252 878.897,805.531 878.417,805.292 878.177,805.292 877.938,805.531 
		877.697,805.531 877.697,805.772 877.697,806.012 877.697,806.492 877.697,806.973 877.457,807.212 876.978,807.692 
		875.777,808.173 875.537,807.932 875.537,807.692 875.537,807.212 875.537,806.973 875.297,806.973 874.816,806.973 
		874.816,807.212 874.337,808.173 873.617,808.412 873.377,808.652 873.137,808.652 872.657,808.412 871.938,808.173 
		870.018,807.692 869.057,807.452 868.816,807.452 868.577,807.692 868.816,807.932 868.816,808.173 869.057,808.652 
		869.057,809.132 868.816,809.373 868.577,809.373 867.856,809.132 867.137,808.652 866.897,808.412 866.417,808.412 
		865.457,808.412 864.737,808.652 864.497,808.652 864.497,808.893 864.257,809.373 864.497,810.573 864.497,810.813 
		863.297,810.813 862.337,811.053 862.098,811.293 861.856,811.532 862.098,812.253 862.337,812.493 862.577,812.732 
		862.816,812.732 863.057,812.973 863.537,812.973 863.537,813.934 863.057,815.373 862.816,815.854 	"/>
	
		<polyline clip-path="url(#SVGID_2_)" fill="none" stroke="#B37C34" stroke-width="0.48" stroke-linecap="round" stroke-linejoin="round" stroke-miterlimit="3.85" points="
		862.816,815.854 862.337,816.573 862.098,816.813 861.377,817.294 860.657,817.534 860.177,817.773 858.497,818.254 
		857.777,818.254 856.817,817.534 856.098,817.054 855.617,817.054 854.177,816.094 853.457,816.094 852.257,816.334 
		852.018,816.573 851.777,816.813 851.537,817.294 851.297,817.773 851.297,818.014 851.057,818.494 851.057,818.734 
		851.057,818.974 850.817,819.693 851.057,820.654 851.057,821.135 851.057,821.374 850.817,821.614 850.817,822.335 
		850.337,823.055 850.098,823.535 850.098,823.775 849.857,823.775 848.417,824.494 847.938,824.735 847.697,824.735 
		847.457,824.735 846.978,824.735 846.737,824.735 846.257,824.255 846.018,824.015 846.018,823.294 845.777,822.335 
		845.537,821.854 845.537,821.614 845.297,821.614 844.577,820.654 844.338,820.414 844.098,820.414 842.417,818.734 
		841.938,818.254 841.697,817.773 841.697,817.534 841.457,816.573 841.217,816.334 840.978,816.094 840.978,815.854 
		840.737,815.613 840.018,815.373 839.537,815.133 839.297,815.133 838.817,815.133 838.577,815.133 838.338,815.133 
		837.857,815.613 837.617,815.613 835.217,815.854 834.018,816.094 833.777,815.854 833.057,815.133 832.577,814.413 
		832.577,813.693 832.577,813.453 832.577,813.213 832.577,812.973 832.338,812.732 832.098,812.013 831.857,811.293 
		831.617,811.053 831.377,810.813 831.137,810.813 830.657,810.813 830.417,811.053 829.457,811.293 828.257,811.293 
		828.018,811.293 827.537,811.293 826.338,810.332 825.857,810.093 825.617,809.853 825.377,809.853 825.137,809.853 
		825.137,809.612 824.657,809.612 823.457,809.132 823.217,808.893 822.737,808.652 822.497,808.652 822.497,808.412 
		822.497,807.932 822.737,807.932 822.978,807.452 824.177,806.012 824.897,805.772 825.377,805.531 825.857,804.812 
		826.098,804.572 826.098,804.331 826.338,804.092 826.338,803.852 826.338,803.611 826.098,803.372 825.617,803.372 
		824.418,803.372 823.938,803.372 823.697,803.372 822.737,803.372 822.497,803.372 821.297,802.172 820.577,801.691 
		820.338,801.451 819.857,801.211 819.377,801.211 819.137,801.211 818.897,801.451 818.657,801.691 818.418,801.932 
		818.177,802.651 817.938,803.131 817.938,803.372 817.938,804.572 817.938,805.292 817.938,805.772 817.938,806.012 
		817.697,806.731 817.457,807.452 817.457,807.692 817.217,808.173 816.978,808.412 816.737,808.893 816.497,809.373 
		816.257,809.612 816.018,809.853 815.777,809.853 815.297,810.093 814.577,810.332 812.897,810.813 812.418,810.813 
		811.697,810.813 810.978,810.813 810.737,810.813 810.498,810.573 810.257,810.332 809.777,809.132 809.777,808.412 
		809.537,807.452 809.297,807.212 809.058,806.973 808.817,806.731 808.098,806.252 807.857,806.252 806.657,806.012 
		804.978,805.772 804.737,805.772 804.498,806.012 804.257,806.492 804.018,806.973 804.018,807.932 803.777,808.412 
		803.297,808.652 802.817,808.652 801.857,807.932 801.377,807.452 801.137,807.212 800.418,806.492 799.938,805.292 
		799.217,803.611 799.217,802.892 799.217,801.932 799.217,801.691 799.217,801.211 798.978,799.531 798.737,798.811 
		798.498,798.331 798.257,797.851 798.018,797.851 798.018,797.61 797.777,797.61 797.537,797.371 797.537,797.131 797.297,797.131 
		797.058,796.891 796.817,796.891 796.098,797.371 795.857,797.371 795.857,797.61 794.897,798.091 794.418,798.57 792.498,799.531 
		792.257,799.291 792.018,799.291 792.018,798.811 791.777,798.091 791.777,797.851 792.018,797.371 791.777,797.371 
		791.537,797.371 791.297,797.61 791.058,797.61 790.817,797.851 790.577,798.091 790.577,798.331 790.577,798.811 790.577,799.051 
		790.577,799.531 790.577,799.771 790.577,800.011 790.577,800.251 791.058,801.211 791.537,802.651 791.537,804.092 
		791.537,804.572 790.577,805.772 790.338,806.252 789.377,807.692 788.657,808.412 788.177,809.132 786.978,809.853 
		786.737,809.853 786.257,809.612 786.018,809.373 785.777,809.373 785.537,809.373 785.297,809.612 785.058,809.853 
		785.297,810.093 785.297,810.573 785.537,811.053 785.537,811.293 785.058,811.772 784.817,812.013 784.577,812.253 
		784.338,812.253 783.377,812.493 782.657,812.973 782.178,813.453 782.178,813.693 781.938,813.934 781.938,814.173 
		781.938,814.413 781.938,814.653 782.178,814.894 782.178,815.133 782.657,816.573 782.897,817.294 782.897,818.014 
		782.897,818.734 782.897,819.693 782.657,819.935 782.418,820.414 782.418,820.654 782.178,820.894 782.178,821.135 
		781.938,821.374 781.217,821.854 780.978,822.094 780.737,822.094 780.498,822.335 780.257,822.335 780.018,822.574 
		779.777,822.574 779.297,822.574 778.338,822.335 777.377,822.094 777.138,821.854 776.897,821.854 776.178,821.374 
		776.178,821.135 775.697,820.654 775.218,820.414 775.218,820.174 774.498,818.494 774.018,817.054 773.777,815.854 
		773.297,815.373 772.577,814.173 772.338,813.693 772.338,813.213 772.338,812.973 772.338,812.013 772.577,811.532 
		772.817,811.053 773.058,810.813 773.058,810.573 773.297,810.573 774.018,810.573 774.498,810.573 775.218,810.093 
		775.697,809.612 775.697,808.893 775.218,807.452 774.498,804.331 774.498,803.852 774.257,803.852 774.018,803.611 
		774.018,803.372 773.777,803.131 773.297,802.651 772.577,802.411 772.098,801.932 771.857,801.691 771.617,801.691 
		770.658,801.932 770.418,801.932 769.457,802.651 769.218,802.892 768.978,802.892 768.737,803.131 768.737,803.372 
		768.737,803.611 768.498,806.012 768.018,806.973 768.018,807.212 767.777,807.212 766.577,807.452 766.098,807.212 
		765.857,807.212 765.377,806.973 765.377,806.731 765.138,806.731 764.658,806.012 764.418,805.772 764.178,805.531 
		763.938,805.531 763.457,805.772 763.218,806.012 763.218,806.252 762.738,806.973 762.498,807.212 762.018,807.212 
		762.018,806.973 761.777,806.252 761.537,806.252 761.058,806.252 760.817,806.252 760.817,806.492 760.577,806.973 
		760.577,807.692 759.857,809.373 758.897,810.813 758.418,811.532 758.178,811.772 757.698,812.013 756.738,812.013 
		755.058,812.013 754.338,812.013 753.138,812.013 751.457,811.532 750.738,811.053 750.258,810.332 749.777,809.612 
		750.018,808.893 750.258,808.412 750.258,808.173 750.498,807.692 750.738,806.731 750.978,804.572 750.738,804.092 
		750.258,803.372 750.018,803.131 748.577,802.411 747.857,801.932 747.617,801.691 747.377,801.691 747.138,801.691 
		746.897,801.691 746.418,801.451 746.178,801.691 744.978,802.172 744.498,802.411 743.777,802.892 743.537,802.892 
		742.818,803.372 742.098,803.852 741.857,803.852 741.617,803.852 741.377,803.852 739.698,803.611 739.457,803.611 
		738.978,803.372 738.738,803.131 738.498,802.651 738.258,802.172 738.018,801.932 738.018,801.691 738.018,801.451 
		738.258,801.211 738.498,800.731 738.498,800.491 738.738,798.091 737.058,796.41 734.897,795.21 732.978,794.25 732.498,794.25 
		732.018,794.25 731.537,794.011 731.537,794.25 730.098,794.73 729.617,794.97 729.378,795.69 728.657,797.131 728.418,797.61 
		728.178,797.851 728.178,798.091 727.938,798.57 727.698,798.811 727.218,799.051 726.978,799.291 726.258,799.771 
		726.018,799.771 725.777,799.771 725.298,799.771 724.577,799.771 723.617,800.011 723.617,800.491 723.857,800.972 
		723.857,801.691 723.857,801.932 723.617,802.172 723.378,802.172 722.897,802.172 721.938,802.651 722.178,803.131 
		722.178,803.852 722.178,804.092 721.698,804.572 720.258,805.292 720.018,805.772 720.018,806.012 719.777,806.252 
		717.617,807.932 717.378,808.173 715.458,808.652 714.738,808.893 714.258,809.132 713.777,808.893 712.098,808.173 
		711.138,807.452 710.178,806.731 708.738,806.012 708.498,806.012 708.498,805.772 708.258,805.772 708.018,805.772 
		707.538,806.012 707.298,806.012 706.577,805.772 705.857,805.531 705.138,805.052 704.897,804.812 704.418,804.092 
		704.418,803.852 704.418,803.611 704.418,803.372 704.657,802.411 704.897,802.411 705.378,802.892 705.617,803.131 
		706.098,802.892 706.338,802.651 706.818,802.172 707.058,801.211 707.058,800.731 707.058,800.251 707.058,800.011 
		707.058,799.771 706.818,799.771 706.098,800.011 705.857,800.011 705.378,799.771 705.138,799.531 705.138,799.291 
		705.378,799.051 705.857,798.811 706.338,798.331 706.818,797.61 707.058,796.41 707.058,796.17 707.777,794.49 707.777,794.25 
		707.538,794.25 707.058,794.25 706.818,794.25 706.577,794.25 706.338,793.77 706.098,793.77 706.098,793.53 705.857,793.29 
		705.378,792.569 705.138,792.569 704.897,792.569 704.418,793.05 704.178,793.29 703.938,793.29 702.979,793.53 702.498,793.77 
		701.298,793.77 701.298,794.011 700.578,794.011 699.378,794.011 698.657,793.77 698.178,793.77 695.777,793.05 695.538,792.811 
		695.298,792.569 693.857,790.169 693.857,789.93 693.857,789.689 693.857,789.449 694.098,789.449 694.338,789.21 694.578,789.21 
		694.578,788.969 694.578,788.489 694.338,788.249 694.098,788.01 692.897,786.81 692.657,786.329 692.418,785.609 692.418,784.648 
		692.657,784.409 692.897,784.169 693.138,783.929 693.138,783.688 693.617,783.448 693.857,782.969 694.098,782.729 
		694.098,782.488 694.338,782.488 694.338,782.248 694.578,781.769 694.818,781.528 695.058,781.048 695.058,780.568 
		695.058,779.848 695.058,779.607 695.058,779.368 694.098,777.928 693.617,777.207 693.378,777.207 693.138,776.968 
		692.178,776.968 691.698,777.447 690.979,778.168 690.979,778.407 690.498,778.888 689.538,780.328 689.298,780.568 
		688.338,781.288 686.418,781.048 685.698,781.048 685.218,780.809 684.258,780.568 683.538,780.088 683.298,779.848 
		682.098,779.368 681.378,779.607 680.897,779.607 680.658,779.607 680.418,779.607 680.178,779.607 679.698,779.607 
		678.498,779.607 677.538,779.368 677.058,779.128 676.818,779.128 675.857,778.407 675.618,778.168 675.378,777.928 
		675.139,777.688 674.897,777.447 674.658,777.447 674.418,777.447 674.178,777.207 673.458,777.207 673.218,777.207 
		671.298,776.728 671.058,776.728 671.058,776.968 669.857,777.447 669.857,777.688 669.618,777.928 668.418,779.848 
		668.178,780.328 668.418,780.568 668.418,782.248 668.178,782.729 666.979,784.169 666.738,784.409 666.498,784.409 
		666.498,784.648 666.258,784.409 666.019,784.409 665.777,784.169 665.538,784.169 665.298,784.169 665.058,784.169 
		664.818,784.409 664.578,784.409 664.338,784.409 664.338,784.648 664.338,784.889 664.098,784.889 664.098,785.129 
		664.098,785.369 663.857,785.369 662.658,786.089 661.698,786.329 660.979,786.568 660.738,786.568 660.498,786.568 
		659.058,785.609 657.139,783.209 656.897,782.729 656.418,782.008 654.979,780.568 654.498,779.607 654.258,779.128 
		653.298,777.928 652.818,777.447 650.897,776.247 650.418,776.247 649.938,776.728 649.698,776.728 649.458,776.728 
		649.219,776.728 648.978,776.728 648.018,776.247 647.778,776.247 647.058,775.768 646.578,775.768 646.338,776.007 
		646.098,776.487 644.658,777.688 644.178,778.168 643.458,778.888 643.218,778.888 642.978,779.128 642.498,779.128 
		641.538,778.888 640.818,778.888 640.578,778.647 639.378,778.888 639.138,778.888 638.898,779.128 638.898,779.368 
		638.658,779.607 638.658,779.848 638.418,779.848 637.698,780.088 637.458,780.088 637.218,779.848 636.978,779.607 
		636.738,779.128 636.738,778.888 636.498,778.888 636.498,778.647 636.258,778.647 635.778,778.407 635.298,778.407 
		634.098,777.928 633.138,776.968 632.898,776.728 632.418,776.487 630.738,776.007 629.778,776.007 628.818,776.007 
		628.578,776.007 628.338,776.007 628.338,776.247 628.338,776.968 628.098,777.207 627.618,777.207 627.378,777.207 
		627.138,776.728 626.898,776.728 626.898,776.487 627.138,776.247 627.138,775.768 627.138,775.527 626.898,775.287 
		625.458,774.807 624.018,774.327 623.058,773.847 623.058,773.606 622.818,773.367 622.338,772.887 622.338,772.647 
		621.378,771.447 620.418,770.727 620.178,770.486 619.698,770.486 619.458,770.486 619.458,770.727 619.458,771.206 
		619.458,771.447 618.979,771.687 618.738,771.687 618.258,771.447 618.018,771.206 618.018,770.727 617.778,770.006 
		617.298,769.766 616.818,769.526 616.098,770.006 615.858,770.486 615.858,770.727 615.858,770.967 615.618,771.206 
		614.898,771.447 612.979,771.206 612.738,771.206 612.738,771.447 612.498,771.687 612.258,771.927 611.778,771.927 
		611.058,771.687 611.058,771.447 610.818,771.447 610.338,770.967 609.618,770.727 609.138,770.727 608.178,770.727 
		607.218,771.206 606.738,771.447 605.778,771.687 605.058,771.447 604.818,771.206 604.578,770.967 604.578,770.727 
		604.818,770.486 605.058,770.247 605.058,769.766 604.818,769.766 604.098,769.766 603.618,770.247 602.178,770.727 
		599.778,770.247 599.539,770.247 599.539,770.006 599.298,769.766 599.539,769.286 599.539,768.807 599.539,768.565 
		599.539,768.326 599.059,767.606 599.059,767.126 599.059,765.206 599.298,764.006 599.298,763.285 599.059,763.285 
		598.818,763.285 598.578,763.045 598.098,763.045 598.098,762.564 597.858,762.564 597.858,762.085 597.618,760.405 
		597.618,760.165 597.858,759.685 598.098,758.725 597.858,757.524 597.858,757.284 597.858,757.044 597.378,756.805 
		597.138,756.805 596.898,757.044 596.658,757.044 596.178,757.044 596.178,756.805 595.938,756.564 595.938,755.604 
		595.938,755.124 595.698,754.644 595.458,754.164 595.218,753.684 594.738,753.203 594.499,753.203 594.258,753.684 
		593.778,753.684 592.818,752.724 592.818,752.483 592.578,752.244 592.338,752.003 592.578,752.003 592.818,752.003 
		593.298,752.003 593.539,751.764 593.778,751.764 593.778,751.523 593.778,750.563 593.778,750.323 593.539,750.083 
		591.378,749.123 591.138,749.123 590.898,749.123 590.418,749.123 589.698,749.603 588.979,749.844 588.738,749.844 
		588.738,749.603 588.499,749.603 588.499,749.363 588.258,749.123 588.258,748.883 587.778,748.402 587.539,748.163 
		587.298,747.683 586.818,747.443 586.818,747.202 586.099,746.723 585.378,746.243 585.378,746.002 585.378,745.763 
		585.618,745.522 585.618,745.282 585.618,745.043 585.378,744.802 584.418,744.322 583.938,744.322 583.698,744.322 
		583.458,744.563 582.258,746.002 582.258,746.243 582.019,746.243 582.019,746.963 582.019,747.923 582.019,748.644 
		582.258,748.883 582.499,749.844 582.019,752.244 581.778,752.964 581.539,753.203 581.298,753.203 581.298,753.443 
		581.059,753.443 580.818,753.443 579.858,752.483 578.898,753.203 578.178,753.203 577.698,752.483 576.979,751.764 
		576.258,751.283 575.539,750.803 575.298,750.803 575.059,750.803 574.818,750.803 574.099,750.563 573.858,750.563 
		573.378,749.844 573.139,749.603 572.898,749.363 571.698,748.883 571.458,748.883 570.979,749.123 570.499,749.123 
		568.818,749.123 568.099,748.883 567.619,748.644 567.619,748.402 566.898,748.402 566.659,748.402 566.179,748.644 
		565.699,749.603 565.458,750.563 565.699,751.283 565.458,751.523 565.458,751.764 564.499,752.724 564.258,752.964 
		562.099,752.964 561.858,752.724 561.619,752.724 559.938,752.244 559.458,752.724 559.219,752.964 558.979,752.964 
		558.738,752.964 558.499,752.964 558.499,752.724 558.019,752.483 557.539,752.244 555.858,752.003 554.898,751.523 
		554.418,751.044 554.418,750.563 554.418,750.323 554.418,750.083 554.179,749.844 553.938,749.603 553.938,749.363 
		552.979,748.883 552.499,748.644 552.019,748.402 551.059,747.923 549.858,746.723 550.099,746.243 550.099,746.002 
		549.378,745.522 549.139,745.282 548.418,745.282 547.699,744.322 545.779,741.922 545.539,740.962 545.539,740.722 
		545.059,739.762 544.339,739.521 543.378,738.802 542.659,738.321 541.458,736.641 541.219,736.401 540.979,735.921 
		540.979,735.682 540.739,735.44 540.739,735.201 540.499,735.201 540.019,734.481 539.779,734.481 539.779,734.24 539.059,733.761 
		539.059,733.521 538.819,733.521 537.379,732.561 537.379,732.32 536.659,732.081 536.659,731.601 536.179,731.36 535.938,731.36 
		534.739,730.881 534.019,731.12 533.779,731.36 533.779,731.601 533.539,731.84 533.059,732.32 532.339,732.801 532.099,732.801 
		531.139,732.801 530.179,732.801 529.938,732.801 529.938,731.84 530.179,717.198 530.418,713.357 530.418,706.396 
		530.659,702.315 530.659,702.076 530.898,683.833 531.379,667.751 531.379,665.59 531.379,658.39 531.619,655.748 531.619,655.509 
		531.859,642.787 532.099,632.705 532.339,622.144 532.339,621.663 532.579,608.941 532.819,595.019 532.819,594.779 
		533.059,576.536 533.299,568.615 533.299,565.254 533.539,561.174 533.539,555.173 534.019,538.371 534.019,530.209 
		533.779,530.209 526.579,529.969 518.899,529.729 512.659,529.729 507.859,529.489 506.899,529.489 505.939,529.489 
		504.499,529.489 502.099,529.489 499.219,529.249 498.499,529.249 497.539,529.249 497.059,529.249 492.979,529.249 
		490.099,529.249 489.379,529.009 488.179,529.009 485.299,529.009 484.819,529.009 484.099,529.009 479.539,528.769 
		478.579,528.769 476.419,528.769 474.259,528.769 473.059,528.529 469.939,528.529 466.339,528.529 466.099,528.529 
		464.659,528.289 462.259,528.289 461.539,528.289 459.619,528.289 456.739,528.049 455.059,528.049 453.619,528.049 
		451.699,528.049 445.939,527.809 445.459,527.809 442.579,527.809 425.299,527.089 420.979,527.089 416.659,526.849 
		414.739,526.849 399.379,526.369 397.219,526.128 395.059,526.128 394.579,526.128 392.899,525.889 390.739,525.889 
		390.02,525.889 	"/>
	
		<polyline clip-path="url(#SVGID_2_)" fill="none" stroke="#B37C34" stroke-width="0.48" stroke-linecap="round" stroke-linejoin="round" stroke-miterlimit="3.85" points="
		390.02,525.889 386.899,525.648 384.5,525.648 384.02,525.648 383.779,525.648 383.299,525.648 381.14,525.648 379.939,525.408 
		372.5,525.168 372.02,525.168 371.779,525.168 371.299,525.168 362.659,524.688 	"/>
</g>
</svg>
