<?xml version="1.0" encoding="utf-8"?>
<!-- Generator: Adobe Illustrator 15.1.0, SVG Export Plug-In . SVG Version: 6.00 Build 0)  -->
<!DOCTYPE svg PUBLIC "-//W3C//DTD SVG 1.1//EN" "http://www.w3.org/Graphics/SVG/1.1/DTD/svg11.dtd">
<svg version="1.1" id="State" xmlns="http://www.w3.org/2000/svg" xmlns:xlink="http://www.w3.org/1999/xlink" x="0px" y="0px"
	 width="1296px" height="1296px" viewBox="0 0 1296 1296" enable-background="new 0 0 1296 1296" xml:space="preserve">
<g>
	<defs>
		<rect id="SVGID_1_" x="259.22" y="351.621" width="779.516" height="595.772"/>
	</defs>
	<clipPath id="SVGID_2_">
		<use xlink:href="#SVGID_1_"  overflow="visible"/>
	</clipPath>
	
		<polyline clip-path="url(#SVGID_2_)" fill="none" stroke="#B37C34" stroke-width="0.48" stroke-linecap="round" stroke-linejoin="round" stroke-miterlimit="3.85" points="
		297.14,791.85 297.38,791.13 298.82,787.529 298.82,787.289 299.3,786.329 301.7,777.447 302.18,775.287 302.18,774.807 
		302.18,774.087 302.18,773.847 302.18,772.406 302.18,771.927 302.18,771.687 302.66,771.206 302.9,770.967 303.14,770.486 
		303.62,769.047 305.54,763.525 305.54,763.285 305.78,763.045 306.26,760.885 306.26,760.165 306.5,758.484 306.74,757.524 
		307.939,752.724 307.459,750.323 306.979,749.123 306.5,748.644 306.26,748.402 306.26,748.163 306.5,747.683 307.22,746.723 
		307.22,746.482 307.7,745.763 307.939,745.763 308.42,745.043 308.9,744.563 309.14,744.322 310.82,743.843 311.06,743.843 
		311.78,743.122 312.02,742.882 312.74,741.922 314.66,738.321 317.54,732.561 318.5,730.16 320.9,724.399 322.34,720.078 
		323.06,717.678 323.3,716.958 324.74,710.957 325.459,708.077 326.18,705.196 326.42,703.996 326.42,703.516 326.42,703.036 
		327.14,701.115 327.62,699.195 328.82,693.915 330.259,687.193 330.5,686.473 331.22,682.393 331.459,680.952 331.7,679.752 
		331.7,679.512 331.939,678.072 331.939,677.592 332.66,673.752 333.62,667.751 334.1,665.11 334.58,660.549 334.58,660.31 
		334.58,660.069 334.82,658.148 335.06,657.909 335.54,654.309 336.02,651.188 336.02,650.948 336.259,649.748 336.259,649.508 
		336.259,647.587 336.02,647.107 336.02,646.867 336.259,645.667 336.5,644.947 337.22,641.346 337.459,637.986 337.459,637.026 
		337.939,633.425 338.42,629.584 338.42,628.864 337.939,628.625 337.939,628.384 337.939,628.145 337.939,626.944 337.939,626.704 
		338.42,625.264 338.66,624.784 338.66,624.063 338.66,623.344 339.14,622.144 339.62,621.423 340.58,616.623 340.58,616.382 
		341.54,610.862 341.779,610.381 342.259,610.142 342.739,609.901 342.979,609.421 342.739,608.941 342.5,608.701 342.02,608.941 
		341.779,607.741 342.02,605.101 342.02,603.181 341.779,601.98 342.02,600.3 342.5,597.419 342.739,596.459 343.459,591.418 
		343.7,589.258 343.7,588.778 343.939,586.858 343.939,586.378 342.739,586.858 342.739,586.618 342.5,586.378 344.179,585.178 
		344.42,585.178 344.42,583.978 344.66,583.018 344.66,582.537 345.14,580.617 345.14,579.417 345.14,579.177 344.9,579.177 
		344.9,578.937 344.179,577.497 344.66,576.056 344.9,575.096 344.9,574.616 345.379,570.775 344.9,567.655 344.66,567.175 
		344.66,566.935 344.179,566.455 344.179,565.734 344.179,565.495 344.42,565.015 344.42,564.774 344.42,564.294 344.42,563.094 
		344.66,562.134 344.9,561.174 345.14,559.734 345.379,559.014 345.62,558.773 345.62,558.534 346.1,558.293 346.58,558.293 
		346.58,558.053 347.06,556.854 347.3,555.653 348.739,550.372 349.459,547.252 349.459,547.012 349.459,546.052 349.7,545.332 
		349.7,544.371 350.419,541.251 350.659,541.011 350.659,540.291 350.899,539.811 351.14,537.89 351.14,537.65 351.379,536.21 
		351.859,533.57 352.1,532.609 352.1,532.37 352.1,532.129 351.62,532.37 350.899,531.889 351.14,530.449 351.14,529.969 
		351.14,529.729 351.62,528.529 352.1,527.569 353.54,526.608 353.54,526.369 353.779,525.648 354.979,520.368 355.22,520.127 
		355.459,518.447 355.939,513.887 356.179,513.167 355.7,511.246 356.179,508.846 356.179,507.646 356.659,505.245 356.899,503.325 
		356.899,502.125 357.139,498.764 356.659,497.084 356.419,496.124 355.939,495.884 355.22,495.884 353.3,496.124 353.3,495.644 
		354.739,495.164 354.979,495.164 355.7,494.924 355.939,494.924 355.939,494.684 356.419,493.963 356.419,493.724 356.899,492.283 
		357.379,490.123 357.62,486.762 357.859,486.282 357.859,484.602 357.859,483.882 357.859,482.202 357.62,481.961 357.139,479.801 
		357.139,479.321 356.899,477.161 357.379,476.681 357.859,476.681 358.58,474.521 359.06,472.6 359.54,469.24 359.779,468.76 
		359.779,467.799 359.54,467.56 359.06,466.839 359.54,465.159 359.779,463.479 360.02,462.039 360.739,457.718 360.979,456.278 
		361.22,455.797 361.22,450.037 361.22,449.797 361.22,449.557 361.22,448.597 361.22,447.876 360.979,447.636 360.979,446.676 
		360.259,445.716 359.3,444.276 359.06,443.796 358.34,443.315 357.859,443.076 357.859,442.115 359.06,440.435 360.02,433.714 
		360.02,431.314 360.02,431.074 360.02,429.634 360.02,428.193 360.02,427.233 360.02,425.793 360.02,424.833 359.779,424.353 
		359.06,421.952 357.859,420.752 357.859,420.032 360.02,417.151 360.739,416.671 360.979,416.671 361.22,416.432 362.419,416.432 
		362.659,416.432 362.899,416.191 362.899,415.951 363.379,414.751 363.62,413.311 363.62,413.071 363.859,412.351 363.859,412.111 
		363.859,411.391 363.859,410.911 363.859,409.95 363.859,409.471 363.859,408.271 363.859,407.55 363.859,404.43 363.139,401.069 
		362.899,400.109 362.899,399.149 362.659,398.909 362.419,397.708 362.179,396.269 361.939,395.548 361.7,395.068 361.459,394.588 
		360.739,392.188 360.5,391.708 360.5,391.468 359.779,389.547 359.06,387.627 358.34,386.187 357.859,385.227 356.659,384.507 
		357.859,383.546 358.58,383.546 359.06,383.787 359.779,385.227 359.54,385.947 359.779,386.907 360.259,387.147 361.939,387.387 
		362.899,387.867 363.139,387.867 365.06,389.547 365.06,389.788 366.259,390.987 366.739,392.428 367.939,392.908 370.819,393.868 
		370.819,394.108 371.059,394.108 372.02,393.628 372.259,392.668 372.259,392.428 372.02,392.428 371.299,391.708 370.579,390.987 
		370.339,390.987 370.1,390.268 370.339,390.027 371.779,389.788 372.739,389.788 373.939,390.027 374.179,390.027 376.579,389.307 
		377.059,389.067 378.5,388.587 379.459,388.107 380.179,388.347 381.62,389.067 383.539,389.307 384.02,389.307 386.179,388.107 
		386.899,387.867 387.139,387.387 387.62,387.147 388.579,387.147 390.259,387.627 390.739,387.387 391.219,386.187 
		391.459,385.227 391.699,384.987 392.419,384.747 393.139,384.747 393.62,385.227 393.859,385.467 394.819,386.187 
		398.179,383.787 398.179,382.346 399.139,382.346 400.1,381.866 401.059,381.626 402.259,381.146 404.179,381.386 404.659,381.626 
		405.139,381.866 405.379,382.346 406.819,383.787 408.02,385.707 408.5,386.427 408.5,387.147 408.02,392.428 413.059,396.988 
		413.779,396.988 416.419,397.229 419.059,397.469 420.979,397.469 423.379,396.269 425.299,395.068 426.979,394.348 
		431.059,392.428 435.139,392.908 435.379,392.908 436.339,393.868 440.899,396.988 441.619,397.949 442.339,398.188 
		443.299,398.909 443.539,398.909 444.499,399.389 444.739,399.629 444.979,399.629 447.619,402.509 448.339,403.47 450.259,404.43 
		450.499,404.67 451.219,404.91 453.379,406.11 454.819,408.99 455.059,409.23 455.299,410.911 455.539,412.831 457.219,414.751 
		457.219,414.991 458.899,419.312 459.139,419.792 460.819,421.712 460.819,422.672 461.299,425.313 460.819,427.713 
		460.819,427.953 461.059,428.434 461.059,428.673 461.299,429.153 461.779,430.834 462.019,431.314 462.259,431.794 
		462.259,432.034 462.979,433.474 462.979,433.954 462.979,434.674 462.979,435.634 462.739,436.354 461.779,438.755 
		461.779,440.675 463.939,444.276 463.939,444.516 464.179,444.516 464.659,447.156 464.659,450.277 464.419,450.997 
		463.459,454.597 463.459,455.317 463.219,456.998 464.179,459.878 464.179,460.118 466.339,461.559 466.819,461.798 
		467.059,461.798 468.499,462.519 470.419,464.199 471.859,464.919 474.499,466.119 477.619,466.359 477.859,466.359 
		478.099,466.599 479.539,466.839 480.019,467.079 482.899,468.04 483.139,468.04 485.059,469 486.499,469.479 487.459,469.72 
		487.699,469.72 487.939,469.96 488.899,470.2 489.139,470.44 489.379,470.44 489.619,470.68 490.819,471.88 491.059,471.88 
		492.259,472.36 494.179,472.12 494.899,471.88 495.619,471.4 496.099,471.4 496.579,471.16 497.299,470.92 497.539,470.92 
		498.259,471.16 499.939,471.88 501.619,474.521 504.979,475.241 507.379,475.241 507.859,475.241 509.059,474.761 513.139,472.84 
		514.819,471.16 518.659,470.44 519.619,470.44 519.859,470.68 521.059,470.68 522.019,470.44 527.059,467.319 528.979,466.599 
		530.659,466.599 532.579,465.879 532.819,465.639 534.259,464.679 534.979,463.239 535.219,462.999 536.659,463.239 
		537.858,462.519 539.059,462.039 539.539,461.559 539.779,461.079 539.779,459.878 541.938,457.958 542.179,457.958 
		542.898,457.238 543.619,456.998 545.299,456.278 547.699,455.558 550.099,456.278 554.418,457.238 556.818,457.238 
		559.699,456.278 560.179,456.038 562.818,456.038 563.539,456.038 569.539,454.357 571.938,453.397 572.179,453.397 
		573.139,453.637 574.099,453.877 575.059,454.117 575.539,454.597 576.019,454.837 576.499,455.317 578.178,456.758 
		580.099,457.238 581.778,457.718 583.698,457.718 586.099,456.518 586.818,456.518 588.019,456.518 589.218,456.278 
		591.378,456.998 593.059,458.198 593.539,458.678 596.898,459.638 600.019,460.598 600.738,462.519 601.218,463.479 
		601.458,465.399 601.698,465.879 601.458,467.079 601.458,467.56 602.658,468.76 603.858,468.76 604.098,468.76 606.019,468.76 
		606.499,468.279 606.499,468.04 607.218,468.52 607.938,467.799 608.178,467.56 608.418,467.319 608.178,466.839 611.298,463.719 
		613.218,462.999 615.858,463.239 618.258,462.999 618.738,463.239 620.178,463.719 620.658,463.479 623.058,462.759 
		623.778,462.759 626.178,464.679 626.418,464.679 627.858,464.439 630.258,462.039 631.458,460.838 633.138,460.358 
		637.458,458.918 642.978,456.518 646.098,455.317 647.778,453.637 649.219,452.677 650.897,451.717 654.738,451.477 
		657.378,452.437 658.098,453.157 660.738,456.038 662.178,457.238 662.658,457.478 664.338,457.958 671.058,457.478 
		677.777,456.038 681.139,454.837 681.857,454.597 688.098,454.117 691.458,449.557 694.098,448.116 700.338,446.676 
		706.338,443.315 706.577,443.076 709.458,441.635 714.498,441.155 717.138,440.195 717.857,440.195 723.617,438.515 
		726.258,438.755 730.098,438.275 735.138,437.314 738.978,431.554 739.218,431.314 741.138,429.394 743.777,428.673 
		746.897,430.114 747.857,430.834 750.978,431.074 754.338,429.634 756.018,429.394 760.817,428.914 761.777,428.914 
		762.498,428.673 765.138,427.713 765.377,427.473 766.338,427.233 771.138,426.513 774.018,427.233 776.658,427.953 
		778.817,427.953 781.217,427.473 782.657,427.233 785.537,425.793 788.177,423.873 791.297,422.433 792.737,421.232 
		794.657,418.592 795.377,418.592 798.498,418.352 802.338,418.352 806.418,418.352 808.817,418.112 809.058,418.112 
		811.938,418.112 821.537,417.872 823.217,417.872 824.897,417.872 825.137,417.872 827.777,417.872 829.217,417.632 
		830.177,417.632 830.417,417.632 830.897,417.632 832.338,417.632 833.297,417.632 833.777,417.632 834.018,417.632 
		837.377,417.632 839.537,417.392 843.617,417.392 845.537,417.392 846.978,417.392 847.697,417.392 848.657,417.392 
		850.577,417.151 851.057,417.151 853.217,417.151 855.856,417.151 858.257,417.151 858.737,416.912 859.938,416.912 
		860.657,416.912 867.856,416.671 869.297,416.671 869.537,416.671 880.816,416.432 882.497,416.191 883.217,416.191 
		886.816,416.191 888.497,416.191 905.297,415.711 915.137,415.471 923.777,415.231 925.938,415.231 926.417,415.231 
		929.536,414.991 933.856,414.751 936.977,414.991 938.417,414.511 943.456,414.511 946.097,414.271 946.337,414.271 
		948.977,414.271 949.217,414.271 954.977,414.031 960.017,413.791 961.697,413.791 963.377,413.791 969.137,413.551 
		972.977,413.551 975.137,413.551 975.617,414.271 977.297,415.951 977.776,417.872 978.977,419.552 978.977,420.032 
		979.456,422.192 979.937,423.152 980.177,423.873 980.416,424.353 980.656,424.593 982.097,426.033 983.297,426.753 
		984.256,427.473 984.736,427.713 986.416,430.114 986.416,430.354 986.896,431.074 987.137,431.794 987.137,432.274 
		987.137,432.754 987.137,433.234 987.137,433.474 987.617,434.194 989.536,435.154 989.776,435.154 990.256,435.154 
		990.256,434.915 990.496,434.915 990.736,434.674 990.977,434.674 990.977,434.434 991.217,434.434 991.456,434.194 
		991.456,433.954 991.696,433.954 991.937,433.954 993.616,433.714 993.856,433.714 994.097,433.714 994.097,433.954 
		995.057,434.434 995.297,434.434 996.256,436.114 996.736,437.795 996.977,437.795 998.176,439.235 998.656,439.235 
		999.856,439.235 1000.576,438.995 1000.816,438.755 1001.057,438.515 1003.456,438.995 1004.416,439.235 1004.656,439.235 
		1006.097,440.675 1007.776,442.115 1008.256,442.115 1008.496,442.355 1008.736,442.355 1008.736,442.596 1008.977,443.076 
		1009.696,444.276 1009.937,444.516 1009.696,446.916 1009.937,449.316 1010.176,449.797 1010.896,450.997 1011.136,451.477 
		1011.377,451.717 1012.336,452.437 1014.017,454.117 1014.256,454.357 1014.496,454.837 1014.977,456.038 1015.217,456.038 
		1015.217,456.518 1015.456,456.998 1015.696,457.238 1015.937,457.958 1016.416,458.438 1016.656,458.678 1016.896,458.918 
		1016.896,459.158 1016.896,460.598 1016.896,460.838 1016.896,461.079 1015.456,463.959 1014.736,464.199 1014.017,464.919 
		1013.776,465.399 1012.816,466.599 1012.096,468.04 1011.136,470.68 1010.416,472.12 1010.176,472.6 1009.696,474.041 
		1009.456,476.201 1009.456,476.441 1009.696,477.401 1009.937,478.601 1009.217,478.841 1008.977,478.841 1008.017,480.042 
		1007.536,480.281 1007.057,481.001 1007.057,481.242 1006.816,483.162 1006.336,485.082 1005.136,486.522 1004.656,487.002 
		1003.937,488.203 1002.736,490.843 1001.776,493.003 1000.336,496.604 1000.097,497.564 1000.576,499.725 1000.576,500.685 
		1000.576,501.405 1000.576,501.645 1000.336,502.365 1000.336,502.605 999.856,503.085 999.377,503.565 998.896,504.045 
		998.656,505.245 998.176,507.166 997.696,509.566 997.696,509.806 997.937,511.006 997.696,511.726 996.736,515.567 
		996.736,516.767 996.496,519.167 996.256,519.407 996.256,519.647 994.336,523.008 992.656,524.208 991.937,525.408 
		991.937,525.648 991.937,526.369 991.937,527.569 991.937,527.809 991.937,528.049 990.736,529.969 989.776,531.169 
		988.576,532.85 988.097,533.089 987.137,533.81 986.656,534.77 986.656,535.25 986.896,535.73 986.896,537.41 986.896,537.65 
		985.937,539.571 985.937,540.051 985.937,540.291 985.937,540.531 986.656,542.691 986.656,542.931 987.137,543.651 
		988.097,545.091 988.576,545.812 988.576,546.052 988.336,546.532 987.856,547.012 987.617,548.212 987.377,549.412 
		987.137,550.853 986.896,551.572 986.656,552.533 985.937,553.733 984.256,555.413 983.297,556.854 982.816,557.813 
		982.576,558.053 982.576,558.534 981.377,561.174 980.656,561.894 980.416,562.374 980.177,563.094 980.177,563.334 
		980.177,563.574 980.416,564.054 980.416,564.294 980.416,564.535 980.177,565.015 979.937,565.015 978.977,565.734 
		977.297,566.215 977.057,566.455 976.816,566.455 976.336,567.175 975.617,567.895 975.377,568.135 975.137,568.375 
		974.656,568.615 974.177,568.615 973.937,568.615 973.456,568.615 973.217,568.615 971.057,569.815 970.576,570.295 
		970.336,570.535 969.137,572.456 969.377,573.176 969.377,575.096 969.137,575.576 968.416,575.816 967.937,577.017 
		967.697,577.736 967.697,577.977 967.697,578.217 966.977,579.897 966.496,580.377 966.496,581.337 966.736,582.057 
		966.496,583.498 965.536,585.178 965.057,585.417 964.816,586.138 964.576,586.858 964.576,587.338 964.336,589.499 
		964.336,590.699 964.336,590.938 963.617,591.898 963.137,592.139 962.896,592.379 962.416,592.619 962.416,593.099 
		962.416,593.579 962.896,594.059 962.896,595.499 962.416,596.699 962.177,597.18 961.456,598.14 960.736,598.38 959.536,598.62 
		959.297,599.1 958.816,599.82 958.816,600.3 958.816,600.54 958.576,601.02 958.576,601.5 958.097,602.46 957.377,603.181 
		957.137,603.42 956.656,603.181 956.177,603.42 955.937,603.661 955.937,604.141 955.697,604.141 955.937,604.381 955.937,604.621 
		955.937,604.861 956.177,605.341 956.656,606.541 956.896,607.261 956.896,607.981 957.137,610.622 956.896,611.342 
		956.177,613.022 956.177,613.262 955.456,614.222 954.736,614.462 954.736,615.182 955.456,617.343 956.177,618.063 
		957.137,619.023 957.856,619.263 958.097,619.503 959.057,620.463 959.057,620.703 959.776,621.903 959.776,622.144 
		959.536,622.624 959.536,622.863 958.576,624.784 958.576,625.024 957.617,625.264 957.617,625.504 957.377,625.504 
		957.137,626.464 957.137,626.704 957.137,626.944 957.617,627.904 959.297,629.825 959.776,630.064 961.937,631.505 
		963.137,631.505 964.336,631.505 964.816,631.265 965.057,630.785 965.297,630.785 965.297,630.305 965.297,630.064 
		966.257,628.864 966.496,628.864 966.736,628.625 966.977,628.625 967.456,628.625 967.697,628.625 967.937,628.625 
		968.177,629.104 968.656,629.584 968.656,629.825 969.137,631.025 969.137,631.265 970.336,632.225 970.576,632.465 
		971.297,632.945 972.017,633.665 972.257,634.625 972.496,634.625 972.736,634.865 972.977,634.865 972.977,634.625 
		973.217,634.625 973.217,634.385 973.456,632.945 974.177,632.465 974.416,632.225 974.896,632.225 975.377,632.465 
		975.856,632.465 977.297,632.465 978.496,632.465 978.977,632.465 979.456,632.705 979.696,633.185 979.696,633.425 
		979.937,633.665 979.937,633.905 979.696,634.865 979.937,637.026 980.177,638.466 980.416,638.706 980.656,638.706 	"/>
	
		<polyline clip-path="url(#SVGID_2_)" fill="none" stroke="#B37C34" stroke-width="0.48" stroke-linecap="round" stroke-linejoin="round" stroke-miterlimit="3.85" points="
		980.656,638.706 982.336,639.186 982.576,638.946 982.816,638.706 983.057,638.706 983.297,638.706 984.256,638.946 
		986.416,640.386 986.656,640.626 987.137,641.346 987.377,642.546 987.377,642.787 987.377,643.027 987.137,643.507 
		987.137,643.747 985.696,646.627 985.456,647.107 985.456,647.347 984.496,649.268 984.496,649.508 984.017,650.468 
		983.776,650.708 983.536,650.948 983.297,651.188 983.057,651.188 982.097,651.668 981.137,651.668 980.656,651.908 
		980.416,652.147 980.177,652.389 980.177,652.628 980.177,652.868 980.416,654.548 980.416,655.028 980.656,655.748 
		980.656,656.469 980.656,656.948 980.896,656.948 982.336,657.669 982.816,658.148 983.536,658.39 984.017,659.35 984.256,659.829 
		984.496,660.069 984.496,660.31 984.256,661.51 984.017,662.71 984.017,663.189 983.776,664.39 983.776,664.63 983.536,664.87 
		982.576,666.551 981.856,667.03 981.617,667.03 981.377,667.511 981.377,667.751 981.377,667.99 981.617,668.23 981.617,668.471 
		981.856,668.471 982.097,668.951 982.336,669.91 982.336,671.352 982.336,672.071 982.336,672.791 982.097,673.271 
		981.856,673.511 981.137,674.711 981.137,674.952 981.377,675.432 981.377,676.152 981.377,676.392 981.137,678.072 
		981.137,678.552 980.896,679.512 980.896,679.752 980.656,679.992 980.416,679.992 980.177,680.232 979.696,679.992 
		979.456,679.992 979.217,680.232 978.977,680.232 978.496,680.473 978.017,680.713 978.017,681.192 977.776,681.673 
		977.536,683.113 977.057,684.073 977.057,684.313 977.057,684.553 977.057,685.033 977.297,686.714 977.297,687.193 
		977.297,687.434 977.297,687.673 977.297,691.034 977.536,693.194 977.536,696.555 977.536,696.795 977.776,698.955 
		977.776,699.915 977.776,701.596 978.017,702.796 978.017,703.276 978.017,703.756 978.017,705.196 978.256,709.277 
		978.256,710.236 978.256,710.718 978.256,711.197 978.256,711.918 978.256,713.118 978.256,713.357 978.256,713.838 
		978.496,714.077 978.496,715.998 978.496,716.478 978.496,717.678 978.977,728.48 979.217,733.281 979.696,742.162 
		979.937,751.764 980.177,753.203 980.177,756.564 981.137,777.688 981.377,785.129 982.576,812.493 983.536,834.816 
		983.536,835.297 984.017,844.178 984.977,866.021 985.217,868.661 985.217,872.742 985.456,874.423 986.177,892.665 
		986.177,892.905 986.177,896.746 986.416,898.666 986.896,913.309 985.696,913.549 984.977,913.549 984.256,913.549 
		983.057,913.549 981.856,913.549 973.937,913.789 971.057,914.028 970.097,914.028 969.137,914.028 951.856,914.989 
		948.017,914.989 942.257,915.229 940.097,915.469 934.337,915.709 932.177,915.709 931.937,915.709 931.217,915.709 
		930.977,915.709 930.496,915.709 928.097,915.948 908.897,916.43 907.938,916.669 906.736,916.669 884.657,917.39 877.697,917.63 
		863.777,918.109 857.297,918.349 849.377,918.59 840.018,919.069 831.137,919.549 823.697,919.549 821.777,919.549 802.577,919.79 
		783.377,920.27 781.217,920.03 779.297,920.27 772.577,920.27 769.218,920.27 761.298,920.27 734.897,920.51 728.897,920.27 
		723.378,920.51 721.218,920.51 720.978,920.51 710.657,920.749 709.458,920.989 709.218,920.749 694.578,920.989 692.418,920.989 
		691.458,920.989 682.578,921.23 678.979,921.23 662.658,921.23 662.178,921.23 661.938,921.23 661.219,921.23 651.378,921.23 
		648.978,921.23 644.658,921.23 633.618,920.989 632.898,920.989 627.138,920.989 612.738,920.989 607.218,920.749 604.098,920.51 
		592.818,920.51 592.818,920.27 592.578,920.27 587.059,920.27 586.338,920.27 584.658,920.27 584.178,920.51 582.258,920.27 
		580.818,920.27 576.019,920.27 575.298,920.27 574.818,920.27 574.099,920.27 567.378,920.03 561.858,919.79 560.179,919.79 
		559.938,919.79 552.979,919.549 551.539,919.549 550.099,919.31 549.858,919.31 539.059,919.069 538.579,919.069 536.898,918.83 
		522.499,918.59 513.139,918.109 508.099,917.869 507.619,917.869 504.979,917.869 498.259,917.63 495.619,917.63 488.179,917.148 
		487.219,917.148 486.259,917.148 485.539,917.148 482.659,917.148 475.939,916.909 465.139,917.148 463.459,917.148 
		456.019,916.909 447.859,916.669 441.379,916.669 440.899,916.669 439.219,916.669 434.659,916.43 432.739,916.43 425.059,916.189 
		423.139,915.948 421.459,915.709 415.699,915.229 414.739,915.229 411.379,915.469 407.779,915.469 396.739,915.709 396.5,915.709 
		393.62,915.709 388.579,915.229 382.579,914.989 382.339,914.989 380.899,914.989 380.179,914.989 379.7,914.989 378.979,914.989 
		377.779,914.989 371.059,914.749 370.339,914.749 367.939,915.229 361.22,914.749 355.459,914.509 353.3,914.509 352.58,914.509 
		351.379,914.509 338.9,913.789 335.779,913.789 334.1,913.549 327.859,913.309 327.62,913.309 326.66,913.309 326.42,913.309 
		324.02,913.068 316.1,912.589 315.859,911.628 313.7,909.468 313.22,908.748 311.3,906.827 311.06,906.348 310.1,906.348 
		309.859,906.348 309.379,906.348 309.14,906.107 308.66,905.867 308.18,905.627 306.979,903.467 306.979,903.228 306.74,902.986 
		304.58,900.106 303.38,897.466 303.38,896.985 303.86,895.546 303.86,894.826 303.62,894.105 303.14,893.626 302.66,892.665 
		302.66,891.945 302.9,891.945 303.38,891.465 303.38,889.064 302.66,888.104 302.18,887.864 302.18,887.624 301.939,887.145 
		302.18,885.465 301.939,884.984 301.939,884.265 301.459,883.304 300.74,882.344 299.06,880.184 299.06,879.703 299.3,878.983 
		299.78,876.823 299.78,876.583 299.54,872.982 298.82,871.782 297.86,869.861 298.1,869.622 298.34,867.461 298.58,864.341 
		298.58,864.102 298.58,861.94 298.58,861.701 298.58,859.78 298.58,858.82 298.1,856.9 298.1,856.42 299.3,853.779 299.3,851.619 
		299.54,849.939 300.74,847.298 301.939,843.938 302.9,840.817 302.9,839.617 302.66,838.417 302.18,836.736 302.42,834.336 
		302.18,833.136 301.459,829.295 300.979,828.815 299.78,828.095 298.82,827.375 298.1,826.895 297.86,826.655 298.34,825.694 
		298.34,825.455 298.34,824.975 297.38,822.814 296.18,819.693 295.939,819.214 294.74,818.494 294.5,818.494 294.02,818.494 
		294.02,818.734 293.06,819.214 292.82,819.214 292.58,819.214 292.58,818.974 292.58,818.494 292.34,816.813 292.34,816.573 
		291.86,812.253 291.38,810.332 290.9,809.132 290.18,807.932 289.7,805.772 290.18,804.812 290.66,803.852 291.38,802.892 
		294.979,796.41 296.66,792.569 296.9,792.33 297.14,791.85 	"/>
</g>
</svg>
