<?xml version="1.0" encoding="utf-8"?>
<!-- Generator: Adobe Illustrator 15.1.0, SVG Export Plug-In . SVG Version: 6.00 Build 0)  -->
<!DOCTYPE svg PUBLIC "-//W3C//DTD SVG 1.1//EN" "http://www.w3.org/Graphics/SVG/1.1/DTD/svg11.dtd">
<svg version="1.1" id="State" xmlns="http://www.w3.org/2000/svg" xmlns:xlink="http://www.w3.org/1999/xlink" x="0px" y="0px"
	 width="1296px" height="1296px" viewBox="0 0 1296 1296" enable-background="new 0 0 1296 1296" xml:space="preserve">
<g>
	<defs>
		<rect id="SVGID_1_" x="259.22" y="351.621" width="779.516" height="595.772"/>
	</defs>
	<clipPath id="SVGID_2_">
		<use xlink:href="#SVGID_1_"  overflow="visible"/>
	</clipPath>
	
		<polyline clip-path="url(#SVGID_2_)" fill="none" stroke="#B37C34" stroke-width="0.72" stroke-linecap="round" stroke-linejoin="round" stroke-miterlimit="3.85" points="
		284.18,492.043 284.42,489.883 284.42,489.643 284.42,489.163 284.42,486.282 284.42,484.842 284.66,482.202 284.66,478.601 
		284.66,477.161 284.66,475.961 284.9,475 284.9,470.68 284.9,470.44 286.1,469.96 289.459,468.52 295.7,465.879 296.66,465.639 
		298.82,465.159 301.939,463.719 302.42,463.479 303.62,462.999 303.62,463.239 304.58,462.519 304.82,462.519 305.06,462.519 
		306.5,462.279 306.5,462.039 307.22,462.039 307.22,461.798 309.14,461.318 309.14,461.079 309.62,460.838 312.979,459.398 
		313.22,459.158 315.379,458.198 317.54,456.758 318.5,456.278 320.9,455.078 321.859,454.597 324.02,453.397 324.5,453.157 
		325.459,452.677 326.18,452.437 327.14,451.957 328.1,451.237 328.34,451.237 328.58,450.997 328.82,450.757 330.02,450.037 
		330.5,449.557 331.459,448.597 333.379,444.036 333.859,442.835 334.58,441.635 336.259,439.955 337.22,439.715 337.7,439.715 
		338.42,439.475 340.1,438.995 341.3,439.235 341.779,439.715 341.06,440.675 342.02,442.115 341.06,442.596 341.54,443.315 
		342.02,443.556 342.5,443.796 343.22,443.796 345.14,442.835 345.859,442.355 346.58,442.115 347.54,441.635 348.5,440.915 
		349.459,440.435 349.7,440.195 350.899,439.715 351.859,438.995 352.34,438.755 352.58,438.755 353.06,438.275 353.779,437.795 
		356.179,436.114 357.139,435.634 358.82,434.434 359.779,433.954 360.739,433.714 362.899,432.754 363.379,432.514 363.62,432.274 
		365.06,431.314 365.54,430.834 367.939,429.874 370.819,429.153 372.259,428.434 373.22,427.953 376.819,426.033 379.7,424.593 
		381.379,423.633 381.379,424.113 381.14,426.753 381.14,428.193 381.14,428.434 380.899,438.275 380.899,438.995 380.899,439.955 
		380.899,441.875 380.899,443.076 380.899,443.796 380.659,447.156 380.659,449.077 380.659,454.597 380.419,462.039 
		380.419,466.119 380.419,469.479 381.379,469.479 387.62,469.479 391.699,469.479 393.379,469.72 395.059,469.72 396.739,469.72 
		397.459,469.72 399.379,469.72 406.819,469.96 408.259,469.96 409.699,470.2 411.859,470.2 414.259,470.2 416.659,470.2 
		424.339,470.44 426.499,470.44 428.179,470.44 432.979,470.44 438.979,470.68 440.179,470.68 444.739,470.68 445.939,470.68 
		446.659,470.68 453.379,470.68 453.619,470.68 454.819,470.68 457.939,470.92 459.619,470.92 468.259,470.92 469.459,471.16 
		477.379,471.16 478.099,471.16 478.819,471.16 479.299,471.16 480.979,471.4 483.139,471.4 486.259,471.4 487.939,471.64 
		491.539,471.64 491.779,471.64 497.779,471.64 503.779,471.64 507.619,471.64 511.939,471.64 514.099,471.64 520.339,471.64 
		521.059,471.64 524.179,471.64 526.819,471.64 528.019,471.64 528.499,471.64 528.979,471.64 529.938,471.64 534.499,471.64 
		536.418,471.88 543.619,471.88 553.219,471.88 557.778,471.88 558.019,471.88 558.259,471.88 561.139,472.12 563.059,472.12 
		567.619,472.12 568.099,472.12 569.778,472.12 575.778,472.12 577.698,472.12 580.579,472.12 583.698,471.88 586.099,471.88 
		586.579,471.88 590.658,472.12 592.338,472.12 594.258,472.12 594.738,472.12 597.858,472.12 600.738,472.36 601.938,472.36 
		602.178,472.36 606.499,472.36 607.218,472.36 609.378,472.36 614.178,472.36 616.818,472.36 621.138,472.36 621.858,472.36 
		622.818,472.36 624.018,472.36 633.138,472.36 636.018,472.36 647.538,472.36 647.778,472.36 650.897,472.12 664.098,472.12 
		666.738,472.12 667.698,472.12 670.098,472.12 672.258,472.12 678.258,472.12 686.178,472.12 687.618,472.12 690.979,472.12 
		699.857,472.12 702.258,472.12 705.378,471.88 707.538,471.88 709.698,471.88 711.857,471.88 713.058,471.88 714.498,471.88 
		717.138,471.88 719.537,471.64 720.978,471.64 723.617,471.64 726.498,471.64 731.777,471.4 734.657,471.4 735.378,471.4 
		736.818,471.4 737.298,471.4 737.537,471.4 739.938,471.4 748.338,471.16 748.817,471.16 750.738,471.16 754.338,471.16 
		759.138,471.16 759.377,471.16 761.298,471.16 761.537,471.16 761.777,471.16 765.138,471.16 773.058,471.16 783.138,471.16 
		784.338,471.16 785.297,471.16 786.018,471.16 786.498,471.16 786.737,471.16 787.457,471.16 787.697,471.16 788.177,471.16 
		788.897,471.16 789.857,471.16 793.697,471.16 794.657,471.16 795.137,471.16 805.217,470.92 809.297,470.92 810.018,470.92 
		818.657,470.92 820.098,470.68 827.537,470.68 834.737,470.44 836.897,470.44 837.617,470.44 839.057,470.44 840.018,470.44 
		845.297,470.2 845.777,470.2 852.737,470.2 854.657,469.96 855.377,469.96 855.856,469.96 858.497,469.96 867.137,469.72 
		869.537,469.72 874.098,469.72 881.777,469.72 882.736,469.72 883.217,469.72 885.617,469.479 887.057,469.479 894.257,469.24 
		896.656,469.24 902.177,469 902.417,469 902.656,469 903.856,469 909.377,468.76 918.257,468.52 918.977,468.52 924.257,468.279 
		924.736,468.279 928.097,468.279 933.856,468.04 934.576,468.52 935.536,468.76 936.017,469 936.257,469.24 936.496,470.2 
		936.496,470.44 936.017,472.36 936.017,472.6 936.496,472.84 936.977,472.84 937.697,473.32 938.656,474.28 938.896,474.521 
		939.137,475.48 939.856,476.201 940.097,476.441 941.057,476.441 941.297,476.441 941.297,475.961 941.297,475.721 941.536,475.48 
		941.777,475.48 942.017,475.48 942.257,475.48 942.496,475.721 942.496,476.681 942.736,476.921 942.977,477.401 944.177,478.121 
		944.416,478.841 944.416,479.081 944.656,480.042 944.656,480.761 944.656,481.242 945.617,482.682 945.856,483.402 
		945.856,484.122 945.137,485.082 945.137,485.802 945.377,486.762 945.856,487.002 946.576,487.002 946.816,487.243 
		947.297,488.442 947.057,488.683 946.816,488.923 946.576,489.163 946.337,489.403 946.576,489.883 946.576,490.123 
		946.816,490.363 946.816,490.603 947.297,490.843 948.017,490.843 948.257,490.603 948.496,490.603 948.977,490.123 
		949.217,489.883 949.697,490.123 950.177,490.843 950.656,491.323 951.377,491.563 951.617,491.563 952.097,491.083 
		952.576,489.883 952.816,489.643 953.297,489.403 954.017,489.403 954.736,489.643 955.217,489.883 955.456,490.123 
		955.697,490.123 955.697,490.603 955.937,490.843 956.177,490.843 956.416,491.083 956.416,490.843 956.656,490.843 
		956.656,490.603 956.896,490.603 956.896,490.363 956.896,489.883 957.137,489.403 957.137,489.163 957.377,489.163 
		957.377,488.923 957.617,488.923 957.617,488.683 957.856,488.923 958.097,488.923 958.337,489.163 958.576,489.643 
		958.576,491.083 958.816,492.043 959.057,492.283 959.536,492.523 960.017,492.763 960.496,492.763 961.217,492.283 
		961.697,492.283 962.177,492.043 963.377,493.243 963.617,493.243 964.816,493.003 965.297,493.243 965.297,493.483 
		965.536,493.963 965.536,494.684 965.297,495.644 965.297,496.124 965.536,496.604 965.536,497.084 967.456,497.564 
		968.177,498.524 968.656,498.764 969.137,498.764 969.856,498.284 970.097,498.044 970.576,498.044 970.816,498.284 
		970.816,498.524 971.057,498.524 971.057,498.764 970.816,499.004 970.816,499.244 970.816,499.964 970.576,500.205 
		970.576,500.444 970.336,500.925 970.097,501.165 969.856,501.165 968.896,501.165 968.416,501.405 968.177,501.645 
		967.697,502.365 967.456,502.605 967.217,502.845 967.217,503.085 966.977,503.805 966.977,504.285 966.977,505.005 
		966.977,505.245 966.977,505.485 967.217,505.725 967.456,505.965 967.697,505.965 968.177,505.965 968.416,505.965 
		970.097,505.485 970.336,505.485 970.576,505.485 970.816,505.485 970.816,505.725 971.057,505.725 971.057,505.965 
		971.536,506.206 972.017,506.206 972.496,506.445 972.977,507.406 973.217,507.886 973.456,508.606 973.697,509.806 
		973.456,511.486 973.697,512.446 973.697,512.687 973.697,512.926 974.177,514.847 974.177,515.087 974.177,515.327 
		973.937,515.567 972.736,515.327 972.017,515.327 971.776,515.807 971.776,516.047 972.017,516.527 972.977,517.487 
		973.456,518.207 973.937,519.407 974.177,520.368 974.177,520.848 974.177,521.088 973.937,521.088 973.217,521.808 
		973.217,522.048 973.456,522.528 973.456,522.768 973.937,522.768 974.416,523.728 974.656,524.688 974.656,525.889 
		974.656,527.089 974.656,527.329 974.896,528.529 974.896,528.769 975.377,530.209 975.377,531.169 975.377,531.409 
		975.137,531.649 974.896,531.649 974.656,531.409 974.416,531.169 974.177,531.169 973.937,531.169 973.456,531.409 
		973.217,531.649 973.456,531.889 973.456,532.129 973.456,532.37 973.456,532.609 973.217,532.609 972.977,532.609 
		972.496,532.609 972.017,532.609 972.017,532.85 971.776,532.85 971.536,533.089 971.536,533.33 972.257,534.05 972.736,534.53 
		972.977,535.25 973.456,535.73 973.697,535.97 974.416,536.45 975.377,537.17 975.617,538.371 976.097,539.331 976.576,539.811 
		977.057,540.051 977.536,540.051 977.776,540.291 978.977,542.211 979.456,543.171 979.456,543.411 979.217,543.891 
		978.496,544.131 978.256,544.371 978.256,545.091 978.496,545.332 979.456,545.571 979.696,545.571 980.177,546.052 
		981.137,546.771 981.377,547.492 981.377,547.732 981.377,547.972 981.137,548.452 981.137,548.932 981.137,549.172 
		981.137,549.412 981.137,549.652 981.617,549.652 982.336,549.412 983.057,549.412 983.536,549.412 983.536,549.652 
		983.536,549.892 983.776,549.892 983.776,550.132 983.776,550.612 984.017,551.092 983.776,551.333 983.536,552.533 
		983.536,552.772 983.536,553.013 983.536,553.253 983.536,553.493 983.776,553.733 983.776,553.973 984.017,554.213 
		985.696,554.693 986.177,554.693 986.656,554.693 987.137,554.693 987.377,554.693 988.336,553.973 988.576,553.493 
		989.057,553.493 989.536,553.493 990.256,553.493 990.256,553.733 990.977,554.213 991.456,554.453 992.176,554.453 
		992.416,554.453 992.896,554.693 993.137,555.173 993.377,555.173 993.377,555.893 993.377,556.613 993.616,557.093 
		994.097,557.333 995.297,557.573 995.536,557.813 995.776,558.053 996.017,558.534 996.017,558.773 995.297,559.494 
		995.057,560.214 995.057,560.694 995.536,560.694 996.017,560.934 996.496,560.694 997.217,560.454 997.696,560.454 
		999.137,559.734 999.856,559.734 1000.336,559.974 1001.057,560.454 1001.536,560.694 1002.736,561.654 1002.977,561.894 
		1003.456,561.894 1003.696,561.894 1004.176,561.654 1004.416,560.934 1004.656,560.694 1004.896,560.454 1004.896,560.214 
		1005.136,560.214 1005.377,559.974 1005.856,559.734 1006.336,559.734 1006.576,559.974 1007.297,560.454 1007.297,560.694 
		1007.297,560.934 1007.297,561.414 1007.536,561.654 1007.536,561.894 1008.017,562.854 1008.256,563.094 1008.496,563.094 
		1008.736,563.334 1009.456,563.094 1010.176,562.614 1010.896,562.374 1011.136,562.374 1011.856,562.614 1012.096,562.854 
		1012.576,562.854 1012.816,562.854 1013.057,562.614 1013.297,562.374 1013.536,561.894 1014.496,561.414 1014.977,561.414 
		1015.217,561.414 1015.456,561.654 1015.696,562.134 1015.696,562.374 1015.696,562.854 1015.217,564.294 1014.977,564.774 
		1014.977,565.254 1014.977,565.734 1015.456,566.455 1015.696,566.935 1015.937,567.175 1016.416,567.415 1017.616,567.415 
		1018.336,567.895 1018.576,568.375 1018.816,568.615 1019.057,569.575 1019.297,570.055 1019.776,570.535 1020.017,570.775 
		1020.496,571.016 1020.736,571.255 1020.977,571.496 1021.456,571.976 1021.696,572.456 1021.696,572.936 1021.696,573.176 
		1020.977,573.656 1021.217,573.656 1020.496,574.136 1020.017,574.136 1019.536,574.376 1017.856,575.336 1016.656,575.816 
		1015.937,575.576 1014.017,575.816 1013.776,575.816 1013.536,576.056 1013.057,576.776 1012.816,576.776 1012.816,577.497 
		1012.576,577.977 1012.576,578.217 1012.576,578.457 1012.336,578.697 1012.096,578.937 1011.856,579.177 1011.616,579.417 
		1011.377,579.417 1011.136,579.657 1010.896,579.657 1010.416,579.657 1010.176,579.657 1009.696,579.657 1009.456,579.897 
		1009.217,579.897 1008.977,579.897 1008.736,580.377 1008.496,580.617 1008.977,581.337 1008.977,581.817 1008.977,582.057 
		1007.297,583.257 1006.576,584.217 1006.097,584.458 1005.377,584.938 1004.416,586.138 1003.937,587.098 1003.696,587.578 
		1003.456,587.818 1003.217,588.058 1003.217,588.298 1002.977,588.778 1002.496,590.218 1002.496,590.458 1002.736,590.938 
		1002.496,591.659 1002.496,591.898 1002.256,592.139 1001.536,592.379 1001.297,592.379 1001.057,592.619 1000.576,593.819 
		1000.576,594.539 1000.097,595.499 999.856,596.219 1000.097,596.459 1000.816,597.18 1001.057,597.419 1001.057,597.66 
		1000.816,597.899 1000.097,599.34 999.616,600.54 999.616,600.78 999.377,601.26 998.896,602.46 998.896,603.181 998.416,604.141 
		997.456,605.341 996.256,606.781 996.017,607.261 996.017,607.501 995.536,608.461 993.377,611.582 992.416,612.302 
		990.736,613.262 990.256,613.742 990.256,613.982 990.256,614.222 988.336,615.663 988.097,615.902 987.617,615.902 
		987.137,615.902 986.416,616.382 985.937,616.863 984.977,619.503 984.977,620.223 985.456,620.223 985.696,620.223 
		985.937,619.983 986.177,619.983 986.896,619.263 987.377,619.023 987.617,618.783 987.856,619.023 988.097,619.023 
		988.097,619.263 987.856,620.223 987.617,620.703 986.177,621.663 985.217,621.903 984.496,622.144 984.017,622.624 
		983.057,623.824 982.576,623.824 982.336,624.063 982.097,625.024 982.097,625.504 981.856,625.984 981.617,626.224 
		980.896,627.424 980.656,627.664 980.896,628.384 980.896,628.625 980.177,628.864 979.696,629.104 978.977,630.064 
		978.496,630.305 975.137,632.225 974.656,632.465 973.937,632.705 972.736,633.185 972.736,633.425 972.496,633.665 
		972.017,634.146 971.536,634.385 970.336,634.865 970.097,635.345 968.656,636.306 968.177,636.786 967.937,636.786 
		967.937,637.026 967.697,637.266 967.697,637.506 967.697,638.226 967.456,638.706 967.456,638.946 967.217,639.666 
		967.217,640.146 967.456,640.626 967.697,640.866 967.937,640.866 968.896,640.626 968.896,640.866 969.137,640.866 
		969.137,641.346 969.137,641.586 969.137,641.827 969.137,642.066 969.377,643.027 969.617,643.507 970.336,644.227 
		971.057,645.667 971.297,646.387 972.017,647.347 972.257,647.827 972.496,648.308 973.456,649.027 973.697,649.268 
		974.656,649.988 974.656,650.228 974.896,650.468 974.896,650.708 975.137,651.188 975.137,652.389 975.137,653.108 
		975.377,653.348 975.377,653.589 976.576,654.789 976.816,654.789 977.057,655.269 977.536,655.989 978.256,656.709 
		978.256,656.948 978.496,657.189 978.496,657.669 978.496,657.909 978.496,658.148 978.256,658.629 978.256,658.869 
		978.256,659.109 977.297,660.069 976.816,661.029 976.097,661.27 975.617,660.79 975.377,660.79 973.456,661.029 972.977,661.27 
		972.736,661.75 972.736,661.989 972.736,662.229 972.736,662.71 972.977,662.949 973.937,663.91 974.177,663.91 974.416,664.15 
		974.416,664.39 974.416,664.63 974.416,665.11 974.416,665.59 973.697,666.551 972.977,667.03 972.977,667.271 972.736,667.511 
		972.496,667.99 972.496,668.23 972.496,668.71 972.496,668.951 972.496,669.191 971.536,670.871 971.297,670.871 971.297,671.11 
		970.576,671.11 970.336,671.352 969.617,671.591 969.377,672.071 969.137,672.552 968.656,673.511 968.416,673.752 
		967.697,673.752 966.496,673.752 965.057,673.271 964.576,673.031 964.336,673.031 963.856,673.271 963.617,673.271 
		963.377,673.511 963.137,673.752 963.137,673.991 962.896,674.711 962.896,675.672 962.656,675.912 962.177,676.392 
		960.977,677.111 960.496,677.592 960.496,677.832 960.496,678.072 960.496,678.552 960.736,678.792 961.456,679.512 
		961.937,679.992 961.937,680.232 962.416,680.713 962.416,681.192 962.416,681.433 961.937,682.152 961.937,682.393 
		961.456,683.353 961.217,683.833 960.977,683.833 960.977,684.073 960.736,684.553 960.496,685.273 960.496,685.514 
		960.257,686.233 960.017,687.193 960.017,687.434 959.776,687.914 960.017,688.394 960.017,688.634 960.257,688.873 
		960.736,689.594 961.456,689.834 961.697,689.834 962.416,689.834 962.656,689.834 962.896,689.834 963.137,690.073 
		963.377,690.073 963.377,690.314 963.377,690.555 963.377,691.034 963.137,691.273 962.896,691.754 962.896,691.994 
		962.656,692.234 961.937,692.475 961.697,692.955 961.456,692.955 960.977,694.155 960.496,695.114 960.496,695.354 
		961.456,696.074 961.456,696.314 961.697,696.555 961.697,696.795 961.937,697.515 962.177,699.195 962.177,699.436 
		962.177,699.676 961.937,699.915 960.977,700.155 960.496,700.155 960.496,700.396 960.496,700.876 960.977,701.355 
		961.217,701.836 961.217,702.076 961.697,702.796 961.937,704.477 961.937,704.717 962.177,704.717 962.177,704.956 
		961.937,705.437 961.937,705.677 961.697,706.156 961.456,706.396 961.456,706.637 961.456,706.877 961.697,707.356 
		961.937,707.597 962.416,708.077 962.656,708.317 962.656,708.557 962.896,708.557 962.896,708.797 963.137,708.797 
		963.377,708.797 963.856,709.037 964.097,709.037 964.336,709.277 964.816,709.277 965.057,709.277 965.297,709.277 
		965.776,709.277 966.257,709.037 967.456,707.837 967.697,707.597 967.937,707.597 968.177,707.356 968.416,707.356 
		968.656,707.356 968.896,707.117 969.137,707.117 970.816,707.356 971.536,707.597 972.496,707.837 973.697,708.317 
		973.937,708.557 974.416,709.037 975.617,710.236 975.856,710.718 976.576,711.677 978.017,712.637 978.256,713.118 
		978.256,713.598 978.496,715.277 	"/>
	
		<polyline clip-path="url(#SVGID_2_)" fill="none" stroke="#B37C34" stroke-width="0.72" stroke-linecap="round" stroke-linejoin="round" stroke-miterlimit="3.85" points="
		978.496,715.277 978.496,716.478 978.496,716.719 978.496,717.919 978.496,718.878 978.977,720.799 978.977,721.039 
		979.217,721.999 979.217,722.719 978.736,723.68 978.496,724.159 978.496,724.88 978.496,725.6 978.496,725.84 978.496,726.08 
		978.256,727.04 978.256,727.28 978.496,728.48 979.217,730.881 979.456,732.561 979.696,732.801 979.696,733.04 979.937,733.521 
		980.177,733.761 980.416,733.761 981.137,734.001 981.377,734.001 981.617,734.24 981.856,734.481 982.097,734.721 
		982.576,735.201 982.816,735.201 983.297,735.44 983.776,735.682 984.017,735.682 984.256,735.682 985.217,735.44 987.137,734.961 
		987.617,734.481 987.856,734.481 988.816,734.721 989.297,734.961 989.297,735.201 989.536,735.201 989.776,735.44 990.017,735.44 
		990.256,735.682 991.456,736.161 991.696,736.401 991.937,736.641 992.176,736.881 993.137,738.802 993.616,740.002 
		993.856,740.481 994.336,741.922 994.816,743.122 994.816,743.603 994.816,744.563 994.816,744.802 995.057,745.763 
		995.297,745.763 995.536,746.482 996.496,747.202 997.456,747.923 998.656,748.883 999.856,749.844 1000.576,750.083 
		1000.816,750.083 1001.297,750.083 1002.017,750.563 1002.496,750.803 1002.736,751.044 1003.217,751.283 1003.456,751.764 
		1005.136,753.443 1005.616,754.164 1006.097,755.124 1006.816,756.324 1007.297,757.524 1008.017,759.444 1008.736,760.885 
		1009.456,761.365 1010.896,762.085 1011.136,762.325 1011.616,762.806 1014.017,763.765 1014.977,764.006 1015.696,764.726 
		1015.937,764.726 1016.176,764.965 1016.416,765.206 1016.656,765.445 1016.896,765.445 1017.136,765.686 1017.377,765.926 
		1018.096,766.406 1018.576,767.365 1018.576,767.606 1019.057,768.326 1019.536,769.047 1019.536,769.286 1020.017,770.727 
		1020.256,771.206 1020.496,771.447 1020.736,771.687 1021.696,772.166 1022.656,772.647 1023.136,773.127 1024.816,775.287 
		1024.816,775.768 1024.816,776.487 1024.816,777.207 1024.576,777.688 1024.336,777.928 1022.416,779.848 1022.176,779.848 
		1021.937,779.848 1020.736,779.848 1020.496,779.848 1020.256,780.088 1019.536,780.328 1018.816,780.809 1018.096,781.528 
		1017.136,782.248 1016.896,782.488 1016.656,782.488 1016.416,782.488 1016.176,782.488 1014.736,782.008 1014.256,782.008 
		1013.536,781.528 1013.297,781.528 1012.816,781.288 1012.336,781.288 1012.096,781.528 1011.616,782.008 1011.136,782.729 
		1011.136,782.969 1011.136,783.209 1010.896,783.448 1010.656,784.169 1010.656,784.889 1010.416,785.369 1010.176,785.849 
		1009.456,786.568 1008.977,786.81 1008.736,786.81 1008.496,787.049 1008.256,787.049 1008.017,787.289 1007.776,787.529 
		1007.776,787.769 1007.536,788.01 1007.297,788.729 1007.297,788.969 1006.816,789.21 1006.097,789.449 1004.656,789.93 
		1003.696,790.41 1002.496,790.89 1001.776,791.13 1001.057,791.369 1000.816,791.61 999.616,791.369 999.137,791.369 
		998.896,791.369 998.656,791.61 998.176,791.85 997.937,791.85 996.496,792.811 996.256,793.05 994.336,794.25 993.616,794.73 
		992.656,795.45 991.937,796.17 991.456,796.41 991.217,796.65 991.217,796.891 990.736,797.371 989.297,799.051 988.576,799.771 
		988.097,800.011 987.856,800.251 987.617,800.491 986.896,800.731 985.937,801.211 985.696,801.211 984.736,801.451 
		984.496,801.691 984.256,801.691 984.017,801.932 983.536,802.411 983.057,803.131 982.816,803.372 982.097,805.052 
		981.856,805.531 981.137,806.252 980.896,806.492 980.896,806.731 980.416,807.212 978.256,808.173 977.776,808.412 
		975.856,809.132 975.377,809.373 974.416,809.853 973.697,810.332 973.697,810.573 973.456,810.813 973.217,811.053 
		972.977,811.053 972.496,811.772 972.496,812.253 972.496,812.732 972.496,812.973 972.257,813.213 972.257,813.453 
		972.257,813.693 972.257,814.173 972.496,815.373 972.496,815.613 972.496,816.094 972.496,816.334 972.736,816.813 
		972.977,817.294 972.977,817.773 973.217,818.254 973.456,818.494 973.456,818.734 973.456,818.974 973.456,819.935 
		973.456,820.174 973.217,820.894 972.977,821.614 972.496,822.094 972.017,823.055 971.776,823.294 971.536,823.775 
		970.816,824.015 967.697,824.255 966.496,824.255 966.257,824.255 965.776,824.494 965.057,825.215 964.336,825.694 
		963.137,827.136 961.697,827.855 960.736,828.335 960.017,828.815 958.816,829.056 957.137,829.535 955.217,830.016 
		954.977,830.016 953.297,830.256 953.057,830.256 952.337,830.256 951.617,830.256 951.377,830.256 950.177,830.016 
		949.456,830.256 949.217,830.256 948.496,830.256 947.536,830.256 946.097,830.976 945.856,830.976 945.617,831.216 
		945.137,831.456 945.137,831.695 944.416,831.936 944.416,832.176 942.736,833.616 942.257,834.097 942.017,834.576 
		941.777,834.576 941.297,834.816 941.057,835.297 939.856,836.257 938.896,836.977 938.656,837.217 938.177,837.697 
		936.736,838.657 935.057,837.457 934.337,836.977 933.856,836.736 932.177,836.017 932.177,835.776 931.697,835.776 
		931.697,835.536 930.977,835.297 930.496,835.057 929.297,834.576 929.057,834.576 928.097,834.336 926.656,833.856 
		925.697,833.616 924.017,833.376 923.297,833.136 920.417,832.896 918.736,832.896 916.337,832.896 915.137,832.896 
		913.457,833.136 913.217,833.376 910.337,833.856 908.177,834.576 907.217,834.816 905.057,836.017 904.577,836.257 
		902.897,837.217 902.177,837.457 901.938,837.697 901.457,837.937 901.457,838.177 900.497,838.897 899.537,839.377 
		899.297,839.856 899.057,839.856 898.577,840.338 897.617,841.298 897.377,841.538 897.137,841.777 896.897,842.018 
		896.656,842.257 896.417,842.498 896.417,842.738 895.938,843.218 895.457,843.698 895.217,844.178 894.978,844.418 
		894.736,844.657 894.497,844.897 894.018,845.378 894.018,845.618 893.777,845.857 893.297,846.818 893.057,847.059 
		892.816,847.539 892.098,848.979 891.377,850.659 891.377,850.898 890.657,852.819 890.417,853.06 888.497,853.299 
		887.057,853.299 885.856,853.299 885.617,853.299 884.417,853.299 881.537,853.539 877.217,853.539 869.297,853.779 
		865.938,853.779 863.537,853.779 861.137,854.02 859.217,854.02 857.537,854.02 852.257,854.02 844.817,854.26 843.857,854.26 
		843.377,854.26 840.978,854.26 840.737,854.26 831.857,854.499 830.657,854.499 829.697,854.499 826.577,854.739 817.697,854.739 
		817.217,854.739 816.257,854.739 811.457,854.979 809.537,854.979 808.338,854.979 806.657,854.979 806.418,854.979 
		803.777,854.979 803.537,854.979 801.137,854.979 797.058,855.22 793.697,855.22 792.498,855.22 790.338,855.22 789.377,855.22 
		786.978,855.22 781.697,855.46 778.817,855.46 775.938,855.46 775.457,855.46 771.857,855.46 770.178,855.46 769.697,855.46 
		768.258,855.46 767.777,855.46 762.498,855.699 761.537,855.699 758.657,855.699 756.738,855.699 756.018,855.699 755.777,855.699 
		750.258,855.939 746.418,855.939 745.218,855.939 744.258,855.939 741.857,855.939 741.138,855.939 739.218,855.939 
		737.058,855.939 736.338,855.939 734.178,855.939 732.018,856.18 730.818,856.18 725.298,856.18 724.818,856.18 723.378,856.18 
		723.138,856.18 722.178,856.18 716.897,856.18 714.979,856.18 710.897,856.18 709.218,856.18 702.738,856.42 702.498,856.42 
		699.617,856.42 699.138,856.42 692.657,856.42 692.418,856.42 689.298,856.42 685.218,856.42 683.777,856.42 683.538,856.42 
		683.058,856.42 682.818,856.42 682.338,856.42 681.378,856.42 681.139,856.42 680.897,856.42 679.698,856.42 677.777,856.42 
		671.058,856.42 669.857,856.42 666.258,856.42 664.818,856.42 661.458,856.42 661.219,856.42 660.019,856.42 656.897,856.42 
		656.178,856.42 652.098,856.42 643.698,856.42 643.458,856.42 642.978,856.42 636.498,856.42 636.258,856.42 635.538,856.42 
		634.578,856.42 634.098,856.42 632.658,856.42 630.738,856.18 629.058,856.18 628.098,856.18 622.098,856.18 621.858,856.18 
		620.658,856.18 618.258,856.18 617.058,856.18 616.818,856.18 616.338,856.18 613.458,856.18 608.898,856.18 608.658,856.18 
		607.458,856.18 601.218,856.18 592.818,855.939 591.138,855.939 590.898,855.939 587.778,855.939 583.698,855.939 582.738,855.939 
		581.298,855.939 577.698,855.939 574.338,855.939 574.099,855.939 571.458,855.939 569.298,855.939 569.059,855.939 
		565.699,855.939 564.019,855.939 557.539,855.699 556.818,855.939 556.579,855.939 556.338,855.939 556.099,855.939 
		551.059,855.699 545.299,855.699 543.619,855.699 542.659,855.699 541.938,855.699 540.739,855.699 538.579,855.699 
		536.659,855.699 535.458,855.699 530.659,855.699 530.179,855.699 529.938,855.699 529.458,855.46 528.019,855.46 525.619,855.46 
		523.938,855.46 522.499,855.46 520.099,855.46 518.179,855.46 515.539,855.46 514.819,855.46 512.659,855.46 511.699,855.46 
		508.819,855.22 506.899,855.22 506.419,855.22 504.739,855.22 504.019,855.22 501.619,855.22 500.659,855.22 500.179,855.22 
		498.499,855.22 498.259,855.22 495.379,855.22 494.659,855.22 493.699,855.22 490.579,855.22 489.859,855.22 489.619,855.22 
		485.299,854.979 482.899,854.979 481.459,854.979 479.539,854.979 464.659,854.739 464.179,854.739 463.219,854.739 
		459.139,854.739 443.539,854.499 438.019,854.499 437.539,854.499 436.579,854.499 431.539,854.499 429.139,854.26 426.979,854.26 
		419.539,854.26 408.5,854.02 402.259,854.02 399.139,854.02 393.379,853.779 392.659,853.779 391.459,853.779 390.979,853.779 
		389.059,853.779 384.5,853.539 378.02,853.539 376.819,853.539 374.419,853.299 371.059,853.299 365.3,853.299 359.54,853.06 
		359.3,853.06 359.06,853.06 358.82,853.06 351.859,852.819 351.379,852.819 342.5,852.579 341.54,852.579 334.82,852.339 
		333.62,852.339 332.42,852.339 332.18,852.339 331.939,852.339 330.5,852.339 323.54,852.099 317.78,851.859 316.1,851.859 
		313.7,851.859 313.459,851.859 313.22,851.859 311.78,851.619 308.9,851.619 308.66,851.619 304.58,851.619 302.9,851.379 
		300.26,851.379 300.02,851.379 296.18,851.379 288.5,851.14 285.62,850.898 281.54,850.898 281.3,850.898 280.82,850.898 
		280.34,850.659 278.42,850.659 272.9,850.419 273.14,838.657 273.14,836.257 273.38,830.976 273.38,829.056 273.62,828.095 
		273.62,826.415 273.62,824.735 273.62,824.015 273.86,821.854 273.86,814.173 274.1,813.934 274.1,810.813 274.1,810.332 
		274.1,809.853 274.1,809.373 274.34,800.731 274.58,796.17 274.58,792.09 274.82,791.13 274.82,790.649 274.82,790.41 
		274.82,787.529 274.82,786.089 275.06,783.688 275.06,779.368 275.3,776.728 275.3,774.567 275.3,770.486 275.54,762.325 
		275.54,762.085 275.78,760.165 275.78,758.244 275.78,756.084 276.02,753.924 276.02,750.323 276.02,747.923 276.26,746.002 
		276.26,745.763 276.26,745.043 276.5,742.643 276.5,741.682 276.5,736.401 276.74,735.44 276.74,732.32 276.98,725.6 
		276.98,725.359 276.98,723.68 276.98,723.199 276.98,722.479 276.98,721.519 277.22,716.238 277.22,710.718 277.46,709.277 
		277.46,704.236 277.46,703.756 277.7,699.676 277.7,696.074 277.7,695.835 277.7,695.114 277.94,694.155 277.94,693.915 
		277.94,693.435 277.94,690.794 277.94,690.073 277.94,687.434 278.18,682.633 278.18,681.192 278.42,679.512 278.42,673.752 
		278.42,673.031 278.42,671.831 278.66,670.631 278.66,670.151 278.66,668.471 278.66,666.551 278.9,662.71 278.9,660.549 
		278.9,660.31 278.9,660.069 279.14,655.748 279.14,651.908 279.14,651.668 279.14,650.708 279.14,649.748 279.38,648.308 
		279.38,646.627 279.38,644.947 279.38,644.467 279.38,643.267 279.38,643.027 279.38,642.066 279.62,640.626 279.62,637.506 
		279.62,637.266 279.62,636.306 279.62,635.826 279.86,632.465 279.86,631.025 279.86,630.064 280.1,626.224 280.1,624.784 
		280.1,624.544 280.1,623.104 280.1,622.863 280.1,622.383 280.1,621.183 280.1,619.743 280.34,618.063 280.34,617.343 
		280.34,615.663 280.34,613.982 280.34,612.542 280.58,610.622 280.58,607.981 280.58,606.301 280.82,603.42 280.82,602.46 
		280.82,601.26 280.82,600.78 280.82,599.82 280.82,598.14 280.82,597.899 281.06,596.699 281.06,595.979 281.06,594.299 
		281.06,594.059 281.06,593.099 281.06,590.458 281.06,589.979 281.3,589.018 281.3,583.498 281.3,582.537 281.54,578.937 
		281.54,578.457 281.54,578.217 281.54,577.977 281.54,577.736 281.54,576.056 281.54,574.376 281.54,574.136 281.78,572.456 
		281.78,571.255 281.78,569.815 282.02,565.015 282.02,563.574 282.02,562.854 282.02,561.654 282.02,560.934 282.26,557.093 
		282.26,552.772 282.26,552.533 282.5,550.853 282.5,546.052 282.5,545.332 282.5,544.131 282.74,541.971 282.74,538.851 
		282.74,537.65 282.98,532.85 283.22,526.608 283.22,523.728 283.22,522.288 283.22,522.048 283.46,517.007 283.46,514.606 
		283.7,510.526 283.7,508.366 283.7,507.406 283.7,506.206 283.94,501.885 284.18,492.043 	"/>
</g>
</svg>
