<?xml version="1.0" encoding="utf-8"?>
<!-- Generator: Adobe Illustrator 15.1.0, SVG Export Plug-In . SVG Version: 6.00 Build 0)  -->
<!DOCTYPE svg PUBLIC "-//W3C//DTD SVG 1.1//EN" "http://www.w3.org/Graphics/SVG/1.1/DTD/svg11.dtd">
<svg version="1.1" id="State" xmlns="http://www.w3.org/2000/svg" xmlns:xlink="http://www.w3.org/1999/xlink" x="0px" y="0px"
	 width="1296px" height="1296px" viewBox="0 0 1296 1296" enable-background="new 0 0 1296 1296" xml:space="preserve">
<path fill="none" stroke="#B37C34" stroke-linecap="round" stroke-linejoin="round" stroke-miterlimit="3.85" d="M476.875,540.529
	l-0.72-37.444l-0.24-3.36v-0.24l-0.72-26.883v-1.2l-0.48-16.802l-0.24-9.361v-0.72l-0.24-6.721v-2.4l-0.24-1.92v-0.72l-0.24-10.801
	l-0.72-29.763l-0.48-19.682l-0.24-3.121v-1.44v-1.2V352.11l-0.24-6.001v-13.681l-0.24-6.721v-18.722l20.396-1.44l6.479-0.24
	l18.716-0.48l27.115-0.72h1.44l10.078-0.24l34.313-1.2l7.439-0.24h2.159h3.12l5.279-0.24h8.878l1.92-0.24h3.839l10.558-0.24
	l4.319-0.24h0.96l1.68-0.24l1.92-0.24l5.999-0.48l6-0.72h0.719h0.721h0.959l2.4-0.24h1.919h1.2h1.199h2.4l15.598-0.24l22.075-0.48
	l24.956-0.48v15.602v3.36v8.881v1.92v13.201v1.44v10.081v4.081v14.881v5.521v0.24v5.281v0.72v0.48v0.48v9.121v8.161l3.119-0.48
	l1.68-0.48l1.68-0.24l3.6-0.48h0.479l1.2-0.24l4.799-0.72h0.239l0.96-0.24l2.64-0.48h0.96l0.72-0.24l3.839-0.48l0.48-0.24
	l-0.24,3.601v0.48l-0.24,2.88l-0.719,6.961l1.199,4.8l0.72,2.16v0.24l0.96,3.601l1.2,4.8l0.24,0.24l-0.24,0.72l-0.24,0.24
	l-1.92,5.761l-2.64,7.441v0.24v0.24l0.24,0.72v0.48l0.48,0.48l0.239,0.24v0.24l3.359,5.28l-1.68,1.68l-1.2,1.2l-2.159,2.16v0.24
	l-0.959,0.96l-1.44,4.081l5.039,11.521v0.72l-0.24,1.44v1.68l-0.959,3.601l0.239,1.44l0.72,1.68l2.16,1.2l1.2,0.24l1.199,1.92
	l0.96,2.641l0.239,0.72l0.48,1.2v3.36l0.96,1.68l6.238,3.601l12.479,6.96l1.68,0.96l5.759,3.36l0.72,0.24l14.157,8.161l3.839,5.761
	l1.92,2.88l2.4,3.6l1.68,2.4l5.759,8.641l6.479,10.081l0.72,0.96l-1.919,4.081l-8.159,6.48l0.239,1.44l0.961,5.281l0.96,6.241v0.24
	l-0.721,3.841l-1.68,8.161l-10.798,19.922l-0.24,0.24l-4.799-1.92l-1.68-6l0.479-2.16l-1.68-3.36l-2.879-6.241l-1.2-2.64
	l-1.199-2.16h-1.439h-3.12l-1.68,8.401l-5.279,10.561l-1.439-0.48l-1.439-3.841l-1.44-14.641l2.16-7.681l2.159,0.24l3.6-5.521
	l0.24-3.36l0.239-2.88l0.241-2.16l0.479-3.601l-2.64-3.6l-6.479-9.601l-3.359-2.4l-2.159-1.68l-5.759-1.2l-11.519-2.64l-4.559,0.48
	l-1.92,2.4l-0.239,0.24l-7.438,10.801v3.36v1.92v3.12v2.4v2.88l-1.92,7.681l-2.64,10.801l-2.88,5.041l-2.639-0.72l-4.8-3.84
	l-0.479-6.961l0.72-2.16v-0.24l-0.72-0.48h-0.479l-6-0.24h-10.558l-6.959-0.72l-7.438-0.96l-0.96-1.68l0.72-1.44l-2.159-0.72h-0.24
	l-1.92,2.64l-0.239,0.24l1.68,10.801l0.479,3.36l0.72,4.32v0.48h0.24l1.439-0.24l7.199-2.16l2.88-2.88l10.078,6.721l0.479,6.961
	l0.72,16.321l0.72,9.841l1.44,27.363l-17.038,4.801l-10.078,2.64l0.721,2.641l1.199,4.56l1.2,5.521l2.399,3.84l6.959,12.002
	l3.6,6.48l2.639,2.641l0.72,4.08l0.961,5.521v5.521l-2.88,10.081l-1.2,4.561l0.48,5.04l0.479,5.281v0.959l1.2,2.4l0.239,3.361
	l-0.479,4.32l-0.72,0.96l-0.96,1.199l-1.2-2.159l-4.799,1.68v4.08l1.68,5.041l-0.239,4.32l-3.12,7.681l-2.64,3.12l-1.68-0.24h-0.479
	l-4.8,2.401l-3.6,4.08l-0.719,0.479v0.961l0.24,4.32v6.24l0.239,8.881v0.24l-0.479,0.72l-1.2,1.921l-1.2,1.439l-6.238,9.361
	l-3.12,4.561v0.239l-5.278,11.762l-1.439-0.24l-17.037-2.399l-5.999-0.961l-2.399-0.479l-4.08,0.72h-0.24l-7.679,1.2l-5.759,0.72
	l-11.038,2.641L598.773,836l-5.039,1.199l-15.357,3.601l-0.72,0.24l-6.719,2.399l-1.68,0.721l-30.474,11.281l-6.719,4.081
	l-1.68,0.72l-11.758,4.56l-5.279,0.48l-21.356,1.92l-6.239,0.48l-7.679,1.681l-16.557,4.8l-4.079,0.96l-9.118,2.641l-14.638,7.441
	l-3.359-2.881l0.48-5.521l0.96-3.12l0.48-1.681l7.199-5.76l0.48-0.481l4.799-3.84l4.559-5.28v-0.24l0.72-2.641v-5.76V844.4
	l-0.24-5.761v-0.721v-1.2v-0.959v-0.48v-2.16v-0.96l-0.48-4.561v-0.96l-0.24-1.44v-0.96v-0.72l-0.24-1.681v-0.24v-0.72l-0.24-0.24
	l-2.879-4.561v-0.239l-1.68-2.881l-0.24-0.24l-0.24-0.239l-0.24-0.48v-0.24v-0.239l-0.72-8.161v-0.48l0.24-1.2l0.24-0.48v-1.199
	l0.24-0.24l1.68-1.68l11.038-5.041l2.16-0.961l4.319,0.721l8.638,1.681v-2.401v-1.439l0.24-4.08l0.24-8.641l0.24-4.801l0.48-13.441
	l0.24-4.08l0.96-29.044l0.24-5.28l0.72-17.762l0.48-15.121l0.96-21.843l0.72-20.642l1.2-35.523l0.48-13.201l-0.959-35.044
	L476.875,540.529z M843.769,581.333l0.72,0.24l0.96,0.24l1.199,0.24l4.08,0.96l1.919,0.48l3.359,0.96v2.4v0.24l8.398,2.16l5.039,1.2
	l5.039,0.96l6.719,1.92h0.24l1.199,0.24v1.2l-0.959,14.401l-0.721,10.561l-2.879,3.84l-0.24,1.68l-0.479,4.801l0.479,6.96l0.24,1.92
	l1.199,1.2l0.24,0.48l0.48,0.48l3.6,7.201l0.239,1.201l2.399,24.002l0.48,6.241l2.879,27.603l1.2,20.401l-8.639,2.4l-1.439,0.48
	l-2.64,3.36l0.48,3.36l-16.558,12.001l-1.68,6.001l-14.397,5.04l-1.199-0.96l-0.96-1.68v-2.881l4.079-11.281v-4.8l-5.76-6.241
	l-0.239-3.12l-0.72-0.48l-3.6-2.4l3.6-12.721l-7.919-25.202l-0.24-0.48l3.12-20.883l0.24-13.201v-4.8l0.239-6.481l-3.119-7.681
	l0.239-6.721v-1.44l0.24-2.64l-2.64-1.92l-0.479,0.24l-1.68,0.48l-5.759,1.92l-5.519,1.92l-0.721,0.24l-0.96,0.48l-0.24,3.36
	l-0.239,2.4l-1.44,20.401l0.48,0.48l1.199,2.641l3.12,7.201v4.08l-0.239,14.401v13.682l1.199,2.64l4.079,3.601l-0.72,5.521
	l-2.399,5.521l-0.48,1.681l-3.839,9.36l-0.24,0.72v0.24l0.72,5.521l0.48,5.52l0.96,0.24v0.24l0.24,1.681v0.72l-0.24,0.96
	l-2.16,6.001l-3.359,2.4h-0.239l0.239-6.241v-1.44l-4.079-3.6l-7.438-2.641l-1.44,0.24h-0.239h-0.24l-9.118,0.72h-1.44h-0.479
	l-4.318,2.16l-1.68,0.721l-0.24,1.199l-0.721,3.601l-0.479,2.4l-1.68,7.201l-2.399,10.32l-4.319,3.12l-0.96-0.479v-2.641
	l-4.319-0.72l-0.96-0.24l-10.078,5.521l-8.398-1.44l-4.079-4.56l-2.64-2.641l-0.479-0.721l0.72-3.6l0.24-0.24l3.839-2.16l3.6-2.16
	l1.2-0.72l4.318,0.72l1.92,0.239l0.72,0.241l10.318-5.762h0.239l1.44-0.719l-0.24-4.081v-1.68l-0.239-3.601l-0.24-0.48l-1.2-4.32
	l-1.439-4.561l-0.72-2.4l-2.88-0.96l-1.92-2.88v-8.161v-0.479l6.72-8.401l4.318-5.04l1.44-10.321l2.159-5.041l1.199-3.6l0.48-0.961
	l0.48-0.96l1.199-2.4h0.24l4.318-7.201l3.6-1.439l1.92-3.12l3.6-11.761l0.479-1.681l1.92-6.481l1.2-4.8l0.24-0.72v-0.96l0.479-5.041
	l-1.68-3.601l1.919-3.84l0.72-0.72l4.8-4.561l0.479-0.24l0.48-0.48l3.599-3.601l2.88-2.4l3.6-0.48l19.437-2.16l0.959-0.24
	l2.16-5.761l3.6-9.601l0.479-1.44L843.769,581.333z M735.068,665.342l0.959-0.239l4.08,2.399l2.399,12.002l-1.68,34.563
	l-0.479,10.322l0.719,5.76l0.721,5.041l0.479,4.8l-12.718,6.961l-1.68,8.161l-3.6,3.36l-0.479,4.56l-5.759,5.521l-0.72-10.321
	l2.879-25.683l5.759-0.721l1.2-2.399l3.6-7.44l-0.48-0.48l-6.958-7.441l-0.721-8.16l1.68-10.321l2.88-16.321l3.359-9.121
	l3.359-4.561L735.068,665.342z M746.106,591.654l3.358-0.72l6,4.08l1.439,9.121l-0.48,1.44l-3.359,0.96l-0.72,4.08l8.158,5.761
	l9.599,2.16l5.759,6.481l1.44,12.961l-2.4,7.201l-6.238,12.242l-5.279,3.84l-3.119-1.44l-3.12-4.561l-0.72-7.44l2.16-9.121
	l2.639-2.64l1.68-5.761l0.48-6.48l-4.56-4.561l-8.158-2.16l-6.719-10.321l-3.359-5.521l-2.159-7.921L746.106,591.654z
	 M763.144,733.269l0.72,2.881l-1.44,3.84l-9.358-10.32l1.2-2.4L763.144,733.269z M790.738,603.656l2.159,0.72l2.399,7.681
	l-5.999,0.24l-1.679-4.08l2.159-1.44L790.738,603.656z M619.889,995.615l4.559,5.281l3.6,1.439l0.24,2.881l-1.919,6.48l-3.12,1.439
	l-25.915,4.562l-3.839-0.48l-7.439-5.28l-0.72-5.761l4.559-18.002l6.719-5.28l3.359-6.721l0.24-0.24l5.519-6.48l1.919-8.161
	l0.24-7.921l1.919-3.36l7.918,3.36l3.839,6.24l0.48,3.121l-2.16,6.961l-4.079,7.44l-0.96,9.121l2.879,6.721L619.889,995.615z"/>
<rect x="349.219" y="266.421" fill="none" width="598.45" height="770.958"/>
</svg>
