<?xml version="1.0" encoding="utf-8"?>
<!-- Generator: Adobe Illustrator 15.1.0, SVG Export Plug-In . SVG Version: 6.00 Build 0)  -->
<!DOCTYPE svg PUBLIC "-//W3C//DTD SVG 1.1//EN" "http://www.w3.org/Graphics/SVG/1.1/DTD/svg11.dtd">
<svg version="1.1" id="State" xmlns="http://www.w3.org/2000/svg" xmlns:xlink="http://www.w3.org/1999/xlink" x="0px" y="0px"
	 width="1296px" height="1296px" viewBox="0 0 1296 1296" enable-background="new 0 0 1296 1296" xml:space="preserve">
<g>
	<defs>
		<rect id="SVGID_1_" x="259.22" y="351.621" width="779.516" height="595.772"/>
	</defs>
	<clipPath id="SVGID_2_">
		<use xlink:href="#SVGID_1_"  overflow="visible"/>
	</clipPath>
	
		<polyline clip-path="url(#SVGID_2_)" fill="none" stroke="#B37C34" stroke-width="0.72" stroke-linecap="round" stroke-linejoin="round" stroke-miterlimit="3.85" points="
		342.259,495.884 342.259,496.124 341.779,496.604 341.779,496.844 341.779,497.084 341.54,497.084 340.58,497.084 340.34,497.084 
		336.739,494.924 336.259,495.164 336.02,495.164 334.58,493.963 334.1,493.243 333.62,492.763 333.379,491.803 333.14,491.563 
		332.66,491.323 331.459,491.803 330.979,491.563 330.02,490.843 328.34,489.163 328.34,488.683 329.779,487.723 329.779,487.482 
		329.54,487.482 328.82,486.522 328.58,486.282 328.34,486.282 327.62,486.042 327.379,486.042 326.9,486.282 326.18,486.042 
		325.939,485.802 325.939,485.322 325.939,484.602 324.979,483.402 324.5,482.922 323.06,481.001 322.58,480.761 322.1,480.761 
		320.9,479.801 320.66,479.562 318.74,477.641 318.5,475.961 316.58,475.241 316.34,475.241 316.1,475 316.1,474.041 316.34,473.32 
		316.34,473.08 316.34,472.84 316.1,472.6 315.859,472.36 315.379,472.36 314.9,472.36 312.26,472.6 311.78,472.12 310.1,471.64 
		308.66,471.88 307.7,471.64 307.459,471.64 307.22,471.64 307.22,471.4 306.979,471.4 306.02,470.68 305.54,470.2 305.78,469.24 
		305.78,469 305.3,468.76 304.82,467.799 303.86,466.599 302.66,466.119 301.22,465.879 300.5,465.399 300.02,464.919 
		299.54,464.679 299.3,464.199 298.82,463.959 298.34,463.719 297.14,462.039 297.14,461.318 296.66,460.838 295.939,460.598 
		295.22,460.838 294.74,460.838 294.5,459.878 294.5,459.638 294.02,459.398 293.54,458.918 293.3,458.918 292.82,458.678 
		292.58,458.678 292.1,458.678 291.86,458.678 291.62,458.438 291.62,458.198 291.62,457.718 291.38,457.718 291.38,457.478 
		291.38,457.238 291.14,456.758 290.66,456.278 290.42,456.038 290.18,455.797 289.94,455.558 289.94,455.317 289.94,455.078 
		290.18,454.597 290.42,454.597 290.42,454.357 290.42,454.117 289.94,453.637 289.94,452.917 289.94,452.677 289.7,452.197 
		289.7,450.037 289.7,449.797 290.18,448.597 291.86,447.636 292.82,446.676 293.54,445.716 294.74,444.516 294.5,443.556 
		294.74,442.115 294.26,439.235 295.7,437.314 297.14,436.834 297.62,436.595 297.62,435.875 297.38,435.395 297.38,435.154 
		297.38,434.915 297.62,434.915 297.86,434.915 298.1,434.915 298.34,434.915 298.58,434.674 299.06,433.954 299.3,433.474 
		299.3,432.994 300.02,433.234 300.26,433.714 301.459,434.434 302.18,434.194 302.66,433.714 302.66,431.554 302.42,430.834 
		302.66,429.394 303.14,429.153 303.62,429.153 303.86,429.394 304.1,429.394 304.58,429.394 304.58,429.153 304.82,428.914 
		305.06,427.953 305.3,427.473 305.78,427.233 305.78,426.993 305.78,426.753 305.78,426.513 305.78,426.273 306.02,425.793 
		306.5,425.793 306.74,425.553 307.22,425.073 307.22,424.593 307.22,424.113 307.459,423.873 308.18,423.633 308.66,423.152 
		308.66,423.393 309.859,423.633 310.1,423.633 311.06,422.913 311.54,423.152 312.02,423.393 312.74,422.433 312.26,421.472 
		312.5,420.752 312.74,420.752 313.22,420.752 313.459,420.512 313.7,420.272 314.18,420.272 314.42,420.272 314.9,419.792 
		315.859,419.072 315.859,418.592 316.1,418.352 316.58,418.112 316.82,417.872 317.3,417.392 317.78,416.671 318.26,416.432 
		318.74,416.671 319.22,416.191 319.7,415.471 319.939,415.231 320.42,414.991 321.379,415.471 321.859,415.471 323.3,414.511 
		323.54,414.271 323.3,413.551 323.54,413.311 323.78,413.071 324.26,413.311 324.5,413.071 324.74,413.071 324.979,412.591 
		324.74,412.351 324.5,412.111 324.02,411.15 324.02,410.431 324.26,409.95 324.979,409.471 324.74,408.51 324.979,407.79 
		326.18,406.35 326.66,405.63 327.14,405.15 327.379,403.95 327.379,403.47 327.379,402.75 326.9,402.029 334.58,399.629 
		337.459,398.669 340.1,397.949 341.3,397.469 341.779,397.469 342.979,396.988 358.34,392.668 371.299,388.827 374.419,387.627 
		374.659,387.627 375.139,387.627 375.62,387.867 375.859,387.867 376.339,388.347 376.1,389.067 376.1,389.307 375.859,389.788 
		375.62,390.027 375.62,390.268 375.62,390.507 375.379,390.987 375.859,391.228 376.1,391.468 376.339,391.468 377.059,391.228 
		378.02,390.748 378.979,390.748 379.459,390.507 379.939,389.788 379.939,389.547 380.179,389.067 380.659,388.827 
		381.379,389.067 381.859,388.827 382.1,388.347 383.059,387.627 383.059,387.387 383.059,386.907 383.299,386.667 383.539,386.187 
		384.02,386.187 384.5,386.427 385.22,386.427 386.419,385.707 386.899,385.707 387.379,385.707 387.62,385.707 387.859,385.707 
		388.339,385.467 389.059,384.507 389.059,384.267 389.299,384.267 389.299,384.026 389.299,383.787 389.059,383.066 
		388.819,382.826 388.819,382.586 389.059,382.346 389.299,382.106 389.539,381.866 389.539,381.626 389.539,381.386 
		389.779,380.906 390.02,380.666 390.5,380.666 390.739,380.666 390.979,380.666 391.219,381.146 391.459,381.626 391.699,381.866 
		392.179,382.106 393.139,382.106 393.859,381.866 394.579,381.386 394.819,381.146 394.819,380.906 395.299,380.426 
		395.779,380.186 396.259,380.186 396.5,380.186 396.739,380.426 396.979,380.426 397.219,380.666 397.699,380.666 398.179,380.666 
		398.419,380.426 398.659,379.946 399.379,379.226 399.859,378.985 400.339,378.746 400.579,378.506 401.059,378.506 
		402.02,378.506 402.739,378.746 403.459,378.506 404.179,377.785 404.419,377.785 405.139,377.785 405.379,378.025 
		405.619,378.025 406.579,377.545 406.819,377.545 406.819,377.306 407.059,377.065 407.299,377.065 407.539,376.585 
		407.779,376.345 408.259,376.345 408.5,376.345 408.979,376.345 409.219,376.105 409.219,375.625 409.219,375.385 409.459,375.145 
		409.699,374.905 410.179,374.665 410.659,374.665 411.379,374.665 411.859,374.905 411.859,375.145 412.099,375.385 
		412.339,375.625 412.819,375.625 413.059,375.625 413.299,375.385 413.539,375.385 414.02,375.145 414.5,374.665 414.739,374.425 
		414.979,374.185 416.419,374.185 417.379,374.185 417.859,374.185 418.579,373.225 419.059,372.745 419.539,372.505 
		420.739,372.265 421.459,372.265 421.939,372.265 423.139,371.785 423.859,371.785 424.099,372.265 424.339,372.505 
		424.339,372.745 424.339,372.985 424.099,373.465 424.339,373.945 424.819,374.185 425.299,373.945 426.019,373.945 
		426.259,373.945 426.739,373.705 426.979,373.465 426.979,372.985 427.459,371.785 427.939,370.825 428.419,369.144 
		429.139,368.184 429.379,367.944 430.339,367.464 431.539,367.224 432.739,365.543 432.979,365.543 433.219,365.304 
		433.219,365.063 433.459,365.063 433.459,365.304 433.699,365.304 434.419,366.024 434.419,366.504 434.899,367.464 
		435.139,368.424 435.139,368.664 435.139,368.904 434.899,369.144 434.899,369.625 434.899,369.864 435.139,370.344 
		435.379,370.825 436.099,371.064 436.339,371.305 436.579,371.305 437.059,371.064 437.299,370.825 437.299,370.584 
		437.539,370.584 437.539,370.104 437.539,369.864 437.779,369.625 438.739,369.384 438.979,369.384 439.459,369.384 
		440.179,369.144 440.659,369.625 440.899,369.864 440.899,370.104 441.139,370.104 441.859,369.625 442.339,370.104 
		442.339,370.344 442.819,370.825 443.299,370.825 444.019,370.344 444.259,370.344 444.259,370.104 444.499,369.864 
		444.499,369.625 444.739,369.625 445.699,369.384 447.619,368.904 447.859,368.904 448.579,368.424 449.299,368.184 
		450.499,368.184 453.139,368.424 453.859,368.424 456.019,368.664 456.979,368.904 457.699,368.904 458.419,368.904 
		459.139,368.904 460.339,369.144 462.259,369.144 463.699,369.384 464.899,369.384 466.339,369.384 470.659,369.625 
		475.459,369.864 476.419,370.104 477.859,370.104 484.099,370.344 485.299,370.344 489.859,370.584 490.099,370.584 
		490.819,370.584 493.219,370.825 494.899,370.825 495.619,370.825 502.099,371.305 503.059,371.305 509.539,371.544 
		511.939,371.785 513.139,371.785 514.099,371.785 520.339,372.265 524.179,372.265 524.659,372.505 525.139,372.505 
		525.859,372.505 528.979,372.505 529.699,372.505 531.619,372.745 532.339,372.745 532.819,372.745 534.739,372.745 
		535.699,372.985 538.099,372.985 538.819,372.985 543.139,373.465 546.499,373.465 547.938,373.705 548.659,373.705 
		552.739,373.945 553.938,373.945 555.378,373.945 557.778,374.185 558.019,374.185 559.219,374.185 562.338,374.425 
		565.699,374.665 565.699,374.425 569.298,374.665 569.778,374.665 570.499,374.905 571.698,374.905 572.179,374.905 
		572.898,374.905 573.139,374.905 573.378,374.905 573.858,374.905 584.418,375.625 590.178,375.865 591.378,375.865 
		592.099,375.865 593.298,375.865 595.698,376.105 598.818,376.345 599.298,376.345 602.898,376.345 603.138,376.585 
		607.458,376.825 612.018,377.065 613.458,377.065 618.258,377.306 619.458,377.306 620.178,377.545 621.858,377.545 
		622.098,377.545 622.338,377.545 624.738,377.785 627.138,378.025 630.258,378.266 632.178,378.266 632.178,378.506 
		631.938,378.746 631.698,379.226 631.458,379.466 630.978,381.146 630.978,381.386 630.978,381.626 631.218,381.626 
		632.898,382.586 633.138,383.307 633.618,384.747 633.858,385.467 633.618,385.707 633.618,385.947 633.378,386.427 
		633.138,386.667 633.138,386.907 632.658,386.907 632.418,386.907 631.938,387.147 631.698,387.147 631.458,387.387 
		631.218,387.387 630.738,387.867 630.738,388.347 630.258,389.547 630.018,389.788 630.018,391.468 630.018,391.948 
		630.018,392.188 630.018,394.108 630.258,394.348 631.218,395.308 632.418,397.229 640.098,391.948 640.818,391.228 
		641.778,390.748 644.658,388.587 645.618,388.107 645.858,387.867 646.098,387.627 646.338,387.387 648.258,385.947 
		648.738,386.667 650.418,388.827 652.338,391.468 653.538,393.148 655.458,395.548 657.618,398.669 658.818,400.109 
		660.498,402.509 662.178,404.91 664.818,408.99 667.218,411.871 669.857,415.471 670.818,416.671 670.818,416.912 670.578,419.552 
		670.098,422.672 668.897,434.434 668.897,434.915 668.897,435.154 668.658,435.875 668.658,436.834 668.418,437.555 
		671.538,437.555 672.258,437.555 678.979,437.555 679.938,437.795 680.178,437.795 683.777,437.795 684.019,437.795 
		685.458,437.795 685.698,437.795 687.138,437.795 688.338,437.795 690.979,437.795 691.218,437.795 693.857,437.795 
		694.578,437.795 699.138,437.795 703.458,437.795 708.738,437.795 712.577,437.795 713.777,438.035 714.498,438.035 
		714.738,438.035 717.138,438.035 717.617,438.035 719.777,438.035 720.258,438.035 720.738,438.035 722.178,438.035 
		723.617,438.035 724.577,438.035 724.818,438.035 727.457,438.275 734.897,438.275 736.338,438.275 739.218,438.275 
		741.617,438.275 743.298,438.275 744.738,438.275 745.457,438.275 751.938,438.515 752.657,438.515 758.418,438.515 
		758.657,438.515 762.258,438.515 762.978,438.515 764.658,438.755 765.617,438.755 767.297,438.755 768.498,438.755 
		772.098,438.755 775.218,438.755 775.938,438.755 776.178,438.755 780.257,438.995 781.457,438.995 782.657,438.995 
		784.817,438.995 785.537,438.995 786.498,438.995 787.697,438.995 788.897,438.995 791.297,438.995 797.537,439.235 
		802.817,439.235 803.058,439.235 805.938,439.235 820.338,438.995 821.777,438.995 824.418,438.995 824.657,438.995 
		827.537,438.995 829.457,438.995 832.577,438.995 832.817,438.995 833.057,438.995 834.737,438.995 835.697,439.955 
		837.377,441.635 839.537,443.556 840.978,444.996 841.457,445.476 842.897,446.916 844.577,448.597 846.497,450.517 
		851.777,455.558 852.978,456.518 856.337,459.638 858.018,461.559 858.257,461.559 860.417,463.719 862.577,465.879 
		864.257,467.319 865.457,468.76 865.938,469 866.897,469.96 867.137,470.2 868.577,471.64 873.377,476.201 881.297,483.882 
		882.497,485.082 886.577,489.163 887.537,490.123 887.777,490.363 888.736,491.323 890.177,492.763 890.417,493.003 
		891.617,494.443 893.297,496.124 894.978,497.804 897.137,500.205 898.816,501.885 899.777,502.605 900.257,503.325 
		900.978,504.045 903.617,506.445 904.097,506.925 906.257,509.086 906.497,509.566 907.697,510.526 907.938,510.766 
		913.697,516.527 915.137,517.727 920.177,522.768 925.938,528.529 930.257,532.609 930.977,533.33 935.777,537.89 937.456,539.571 
		938.417,540.531 938.656,540.771 940.816,542.931 941.777,543.651 942.257,544.371 942.736,544.852 943.937,545.812 
		944.416,546.532 947.297,549.172 949.697,551.572 950.416,552.292 953.297,554.933 954.736,556.373 955.697,557.333 
		955.937,557.573 956.177,557.813 958.816,560.454 963.137,564.535 965.536,566.935 967.697,568.855 968.177,569.575 
		969.377,570.535 972.017,573.176 976.336,577.497 977.297,578.217 980.656,581.577 980.896,581.817 980.896,582.057 
		982.097,583.018 988.336,589.018 989.776,590.458 990.017,590.699 990.256,590.938 993.377,593.819 994.576,595.019 
		995.536,595.979 998.896,599.34 999.137,599.58 999.856,600.3 1000.816,601.26 1001.776,602.22 1002.017,602.46 1004.176,604.621 
		1006.816,607.261 1005.136,607.741 1004.896,607.981 1000.336,608.701 999.856,608.941 998.176,609.421 997.696,609.662 
		994.336,610.862 992.416,611.822 991.696,612.062 987.377,613.742 987.137,613.982 986.416,614.222 984.256,615.422 
		983.297,615.902 981.377,616.863 981.137,616.863 981.137,617.103 980.896,617.343 980.656,617.343 979.937,617.823 
		978.017,619.023 977.776,619.263 977.057,619.743 976.336,620.223 972.736,622.624 972.496,622.863 972.017,623.104 
		970.816,624.063 969.377,625.264 969.137,625.504 967.456,626.704 966.977,627.184 966.496,627.424 966.496,627.664 
		965.297,628.864 961.937,631.745 960.496,633.185 959.536,634.146 959.297,634.385 958.816,634.865 958.576,635.105 
		958.337,635.585 956.656,637.266 954.977,638.946 952.816,641.346 952.576,641.586 952.337,642.066 951.377,643.027 
		948.736,645.907 948.257,646.387 948.017,646.627 945.137,650.228 944.896,650.708 943.456,652.868 942.977,653.348 
		941.777,655.028 938.896,658.869 937.937,659.829 935.057,665.83 934.097,666.79 933.137,667.511 933.137,667.751 929.536,671.831 
		928.816,672.552 926.897,674.711 926.656,674.952 926.177,675.912 925.457,677.111 924.257,679.032 923.057,681.433 
		919.217,689.354 918.977,690.314 918.977,690.555 917.537,694.155 917.057,698.955 916.097,702.315 915.856,702.556 
		915.617,703.276 914.656,707.597 913.217,715.758 912.978,716.478 912.978,719.358 913.938,722.719 914.417,724.88 913.457,727.28 
		912.497,729.681 912.257,730.881 911.057,732.32 910.816,732.32 908.177,734.24 907.938,734.24 907.217,734.961 906.018,736.161 
		904.577,737.602 903.617,739.762 903.377,739.762 900.257,741.202 899.297,741.442 896.897,742.643 896.656,742.643 
		896.417,742.643 894.497,744.082 892.816,745.043 892.577,745.282 890.897,746.243 889.938,749.363 890.177,750.803 
		889.697,753.443 887.777,758.244 886.577,761.365 885.377,761.365 881.057,761.845 880.098,761.845 878.177,761.365 
		877.938,761.365 876.978,759.925 876.497,760.165 875.057,760.405 871.457,761.365 868.098,762.564 867.856,762.564 
		867.137,759.925 864.257,757.044 862.098,756.564 861.137,757.044 856.817,759.205 853.217,761.845 853.217,762.085 
		852.497,764.485 850.337,766.646 849.377,768.086 847.697,771.447 847.697,772.887 848.657,774.807 849.617,776.247 
		852.737,776.247 853.217,775.287 854.417,774.807 854.657,774.807 854.657,775.047 855.137,776.247 854.657,778.407 
		854.177,779.848 852.497,780.568 846.018,782.969 846.018,783.209 845.777,783.209 844.577,784.169 842.897,785.609 
		842.417,785.849 842.177,786.089 840.737,787.049 838.338,788.489 836.417,789.93 836.177,790.169 836.177,790.649 835.938,790.89 
		835.697,791.85 835.217,792.811 832.577,794.49 832.817,795.45 833.057,796.17 833.057,796.65 831.617,798.091 827.297,800.011 
		822.018,802.172 818.897,803.372 818.657,803.611 818.657,803.852 817.697,805.292 817.217,805.772 816.018,806.252 
		815.297,806.731 814.577,807.212 813.377,807.452 813.137,807.452 810.498,806.973 809.537,807.932 809.537,808.652 
		809.537,809.132 809.537,809.373 809.777,809.853 810.257,811.053 810.257,811.293 810.018,812.253 810.018,812.493 
		809.777,812.973 809.058,814.413 808.098,816.573 807.377,818.254 807.377,818.494 807.617,819.454 807.857,820.174 
		807.377,820.654 806.657,821.135 803.297,823.775 799.938,825.694 795.137,828.335 794.177,828.335 792.498,830.735 
		792.257,831.456 792.257,831.695 791.777,832.656 790.577,833.376 788.897,834.097 784.817,833.856 778.817,835.057 
		772.098,837.457 768.258,839.617 768.018,839.617 765.138,842.978 765.138,843.218 764.418,845.378 762.018,844.178 
		761.058,843.938 759.377,843.698 753.138,848.258 752.657,848.498 748.338,850.898 747.857,851.379 746.178,852.819 
		745.698,853.299 740.178,857.86 739.218,857.86 738.498,855.699 738.258,855.46 736.577,854.979 735.378,854.739 732.738,856.42 
		731.777,857.86 731.058,858.34 727.938,859.301 727.457,859.061 727.218,858.34 726.978,855.699 726.738,855.22 726.258,854.26 
		723.857,853.299 721.938,854.499 719.777,854.979 718.818,854.499 718.098,856.66 717.617,858.101 717.617,858.58 716.897,860.98 
		717.617,863.381 717.617,863.621 719.537,867.461 722.897,867.702 723.378,868.182 724.577,869.861 724.818,870.103 
		725.298,871.542 725.537,873.942 724.818,876.343 723.138,880.903 721.458,883.304 721.458,884.265 	"/>
	
		<polyline clip-path="url(#SVGID_2_)" fill="none" stroke="#B37C34" stroke-width="0.72" stroke-linecap="round" stroke-linejoin="round" stroke-miterlimit="3.85" points="
		721.458,884.265 721.698,885.224 720.018,886.424 719.777,886.665 715.698,888.585 714.979,888.824 714.738,889.064 
		714.498,889.064 713.298,889.785 712.098,890.265 708.738,892.426 707.777,893.146 705.617,894.105 703.938,894.826 
		702.258,894.826 700.818,894.826 700.098,894.826 696.738,897.227 693.617,897.946 690.738,899.146 690.738,899.386 
		689.298,903.947 689.058,905.147 688.098,905.867 687.618,906.588 685.938,907.788 685.938,908.027 685.698,908.508 
		684.979,909.468 684.258,910.668 681.618,914.509 681.139,915.229 679.698,916.43 677.058,918.59 676.818,918.83 673.698,920.51 
		670.578,921.949 668.178,923.631 667.218,924.351 665.777,924.59 664.818,923.631 664.338,923.87 663.857,923.87 662.418,924.351 
		660.019,926.271 657.139,929.631 653.058,934.672 654.979,936.112 655.938,937.793 654.979,937.793 652.098,937.552 
		651.139,937.313 650.418,937.072 649.698,936.593 648.738,935.393 647.298,933.712 645.618,931.791 644.658,931.312 
		643.458,930.831 641.778,930.111 641.058,929.871 640.338,928.911 639.858,927.711 639.378,926.99 638.658,926.271 
		638.178,926.031 637.698,926.031 637.458,925.79 636.738,926.031 636.018,926.511 635.538,927.471 635.298,927.711 
		633.618,928.671 632.658,928.911 632.178,928.911 631.218,928.671 630.978,928.671 630.738,928.671 629.538,928.432 
		629.298,928.432 629.298,928.19 628.818,927.951 628.338,927.711 625.698,926.031 625.218,925.551 624.978,925.311 
		624.738,924.831 624.498,924.11 624.258,924.11 623.298,924.11 621.618,923.87 621.138,923.631 620.658,922.91 620.178,920.51 
		620.178,920.03 620.178,919.79 620.178,919.549 620.418,918.59 620.418,918.109 620.178,916.43 620.178,916.189 619.938,914.989 
		619.698,914.749 618.979,914.509 618.738,914.269 618.738,914.028 618.979,913.549 619.458,913.068 619.938,912.589 
		620.418,912.589 620.418,912.108 620.178,911.868 620.178,911.389 620.418,910.668 620.418,909.948 620.178,909.468 
		620.178,908.988 619.698,907.788 618.979,906.588 617.778,905.867 617.778,905.627 616.578,904.187 616.338,903.467 
		616.098,903.228 615.858,902.747 615.378,901.786 615.138,901.307 614.898,901.067 614.898,900.827 614.658,900.586 
		614.658,900.106 614.658,899.867 614.898,899.867 615.858,898.186 616.338,896.746 617.298,895.546 617.778,895.065 
		618.498,894.826 618.979,894.346 619.938,892.905 620.178,892.426 620.178,892.186 620.178,891.945 619.938,889.305 
		619.698,888.824 619.698,888.585 619.458,888.585 618.738,887.145 617.778,885.704 617.538,884.984 617.538,884.744 
		618.258,884.023 618.258,883.064 618.258,882.823 618.018,882.584 617.058,881.384 616.818,881.144 616.818,880.903 
		616.578,880.903 616.098,881.384 615.858,881.623 615.858,881.864 615.618,881.864 615.378,881.864 615.138,881.864 
		614.898,881.864 614.898,881.623 614.898,881.384 614.898,881.144 614.418,880.664 613.938,880.184 612.498,879.223 
		612.498,878.983 612.498,878.743 612.738,878.503 612.738,878.264 612.738,878.022 612.738,877.783 612.018,877.063 
		611.538,876.343 611.058,875.863 611.058,875.623 611.298,874.902 611.538,873.702 611.058,872.742 609.618,870.822 
		608.898,870.103 608.418,869.382 607.218,867.941 606.738,865.781 606.979,865.541 607.458,865.302 607.698,865.061 
		607.938,864.82 607.938,864.581 607.938,864.341 607.698,864.102 607.698,863.86 607.698,863.621 607.698,863.381 607.698,863.141 
		607.938,862.901 608.418,862.901 609.138,862.181 610.098,860.98 610.098,860.74 609.858,860.501 609.618,860.501 609.138,860.501 
		608.898,860.501 608.178,860.021 606.258,858.101 603.858,855.22 602.898,854.499 602.178,853.06 602.178,852.579 602.178,852.339 
		602.418,852.099 602.898,852.099 602.898,851.619 602.898,851.379 602.418,851.14 601.218,850.898 600.738,850.898 600.499,851.14 
		600.258,850.898 600.019,850.898 598.578,849.698 597.858,848.979 596.898,848.258 596.418,848.019 596.418,847.778 
		596.418,847.298 596.658,846.818 596.658,846.339 596.658,846.098 596.178,844.418 595.698,843.938 594.738,843.457 
		594.499,843.457 594.019,843.218 593.539,842.978 593.298,842.978 593.059,842.978 592.818,842.978 592.578,842.978 
		591.618,843.218 589.938,843.457 589.698,843.457 588.499,843.218 585.618,841.777 584.178,841.057 582.738,840.338 
		582.499,839.137 582.499,837.937 582.258,837.697 582.019,837.697 581.778,837.697 581.298,838.177 580.818,838.177 
		580.579,837.937 579.378,836.977 578.658,835.776 578.178,835.057 576.979,834.097 576.019,832.896 575.059,831.216 
		575.059,830.976 574.818,830.976 574.818,830.735 575.059,830.016 575.298,829.775 575.298,829.535 575.539,829.535 
		575.778,829.535 576.019,830.256 576.258,830.496 576.738,830.496 577.458,829.775 577.458,829.535 577.218,829.295 
		576.979,828.575 577.218,828.335 578.658,827.375 578.898,826.895 578.658,826.655 577.938,826.175 577.458,825.936 
		576.979,825.936 576.738,825.215 576.738,824.975 577.218,824.015 577.698,822.335 577.698,821.854 576.979,820.414 
		576.499,819.214 576.499,818.974 576.258,818.974 576.258,819.214 576.019,819.214 576.019,819.454 575.778,819.454 
		575.298,819.214 573.858,818.014 573.619,817.773 574.579,816.094 574.818,814.653 575.059,812.253 576.019,811.293 
		576.019,811.053 576.258,810.813 576.258,810.332 576.258,810.093 576.258,809.853 576.019,809.612 575.778,809.612 
		575.778,809.373 575.539,809.373 575.298,809.132 575.298,808.893 575.298,808.652 575.298,808.412 575.539,807.932 
		575.298,807.452 575.298,806.973 574.818,806.492 574.579,806.252 574.099,806.012 573.858,806.012 573.858,805.772 
		573.858,805.531 573.858,805.292 574.099,805.292 574.099,805.052 574.338,805.052 574.579,804.812 574.579,804.572 
		574.579,804.331 574.579,804.092 574.579,803.852 574.099,803.852 573.858,803.611 573.619,803.372 573.619,803.131 
		573.378,802.892 573.619,802.411 574.099,801.932 574.099,801.211 574.099,800.011 574.338,798.331 574.818,797.851 
		575.059,797.371 575.059,796.891 574.818,794.73 574.579,794.011 573.858,792.811 571.458,791.13 571.218,791.13 570.499,791.369 
		570.258,791.61 570.019,791.61 569.778,791.369 569.539,790.41 569.778,789.449 570.258,788.01 570.019,787.289 570.019,787.049 
		569.778,787.049 569.778,786.81 568.818,786.81 567.619,786.329 567.378,786.568 566.418,786.329 565.938,785.609 566.179,784.409 
		567.139,783.929 568.099,782.969 568.338,782.729 567.858,782.248 567.619,782.008 565.938,781.288 565.938,779.848 
		565.458,778.407 563.539,776.487 562.818,776.487 562.579,776.007 562.579,775.768 562.338,775.287 562.818,774.327 
		562.818,774.087 562.338,773.606 561.858,773.127 561.619,772.647 561.619,772.166 561.619,771.927 561.619,771.687 
		561.619,771.447 561.858,771.206 561.858,770.967 562.099,770.967 562.338,770.967 562.579,770.967 562.818,770.727 
		563.059,770.486 563.778,768.086 564.258,765.206 564.258,764.965 564.258,764.726 564.258,762.806 564.019,762.564 
		562.579,761.605 561.139,759.205 560.898,759.205 559.938,758.965 557.059,757.284 556.818,757.044 556.579,756.084 
		556.338,755.844 555.858,755.844 555.378,756.084 555.139,756.324 554.898,756.324 554.418,756.084 554.179,755.844 
		553.938,755.604 553.938,755.364 553.938,754.884 553.938,754.644 553.938,754.404 553.699,754.404 553.699,754.164 
		553.458,754.164 553.219,754.404 552.739,754.644 552.499,754.644 552.019,754.404 551.059,753.684 550.818,752.964 
		550.338,752.244 549.619,751.523 549.139,751.523 548.898,751.764 548.659,751.764 547.938,751.283 547.938,751.044 
		547.699,750.803 547.938,750.563 547.938,750.323 548.179,750.083 548.179,749.603 547.938,749.123 547.699,748.883 
		547.219,749.123 546.739,749.603 546.499,749.603 546.259,749.363 546.259,748.883 546.499,748.644 546.499,748.163 
		546.259,747.443 546.019,747.202 545.779,747.202 545.539,747.202 545.059,746.963 543.619,747.202 542.898,747.202 
		542.659,747.443 542.179,747.443 541.699,747.443 541.458,747.443 541.219,747.443 540.979,747.202 540.739,747.202 
		540.739,746.963 539.779,746.243 539.299,745.763 539.059,745.763 539.059,745.522 538.579,745.282 535.219,743.843 
		533.299,743.122 532.819,743.122 532.339,743.362 532.099,743.122 530.179,741.922 529.938,741.682 529.699,741.442 
		529.219,740.722 528.979,740.722 526.099,738.562 525.139,737.602 524.419,736.881 523.219,735.44 523.219,735.201 523.219,734.24 
		522.739,733.281 522.019,731.601 522.019,731.36 522.739,730.4 522.979,730.4 523.458,730.16 523.699,730.16 524.179,728.48 
		524.179,728 523.699,727.76 523.458,727.52 523.219,727.52 522.739,725.84 522.739,725.359 522.499,725.119 522.499,724.88 
		522.019,724.64 521.779,724.399 521.059,724.159 520.819,724.399 520.579,724.64 520.819,724.88 521.299,725.359 521.299,726.08 
		521.059,726.319 520.099,726.56 519.379,726.56 516.979,726.08 516.739,725.84 516.499,725.6 516.499,724.64 516.259,723.919 
		516.019,723.68 514.819,723.199 513.619,722.959 513.139,721.999 512.179,721.279 511.699,721.039 510.739,720.559 
		510.019,719.599 509.779,718.878 510.739,716.478 510.739,715.998 511.459,715.998 511.939,715.998 512.179,715.519 
		512.179,715.038 511.699,714.558 511.459,714.077 511.219,713.838 510.019,713.118 508.579,712.637 508.579,712.397 
		508.579,712.157 508.339,712.157 508.339,711.918 508.579,710.478 509.299,710.236 510.019,710.236 510.499,710.236 
		510.979,709.518 510.979,709.277 510.739,708.797 510.259,708.557 509.779,708.317 507.859,707.597 507.619,707.597 
		507.379,707.597 506.419,708.797 505.219,708.077 504.979,706.877 504.259,706.637 503.299,706.156 503.299,705.916 
		503.299,705.677 503.299,704.956 503.059,704.717 502.819,704.477 502.579,704.477 502.339,704.717 502.339,705.196 
		501.859,705.677 501.619,705.677 501.379,705.677 501.379,705.437 501.139,704.956 500.899,704.717 500.179,703.996 
		499.939,703.756 500.179,702.556 499.459,702.076 499.219,701.836 498.499,702.076 498.019,702.076 497.299,702.076 
		497.059,701.836 496.819,701.836 496.819,701.355 497.299,701.115 497.539,700.636 497.779,699.915 496.819,699.195 
		496.099,698.475 495.859,697.755 495.859,697.275 496.099,697.275 496.339,697.035 497.059,697.035 497.779,697.515 
		498.259,697.755 498.979,697.275 498.979,697.035 499.219,696.795 499.219,696.555 498.739,696.314 498.259,695.595 
		497.779,692.475 497.299,691.754 497.539,691.273 497.779,691.034 498.499,690.794 499.459,690.555 499.939,690.073 
		500.179,689.594 500.179,689.114 499.939,688.873 499.219,688.634 498.979,687.914 498.979,687.193 499.219,686.714 
		499.939,686.473 500.419,686.233 500.659,685.993 500.659,685.754 500.899,685.514 500.899,685.273 501.139,685.273 
		501.139,684.793 501.139,684.553 500.899,684.553 500.899,684.073 500.659,683.833 499.939,682.633 499.939,682.393 
		499.459,681.192 499.219,681.192 499.219,680.713 498.739,680.232 498.019,679.752 496.819,679.512 496.099,679.032 
		494.899,678.312 494.179,678.072 493.459,677.832 492.979,677.353 492.019,677.111 491.059,676.872 490.819,676.632 
		490.099,676.392 489.619,675.672 489.379,674.952 489.619,674.231 489.619,673.752 489.379,673.271 488.899,672.071 
		487.939,670.391 487.459,669.91 487.219,669.91 486.979,669.91 486.979,669.671 486.739,668.471 486.499,668.23 486.259,668.23 
		485.299,667.511 484.579,667.03 484.579,666.551 483.859,665.83 483.139,665.59 482.899,665.11 482.659,664.15 481.219,662.47 
		480.979,662.229 480.019,662.229 479.779,661.989 479.539,661.75 477.859,660.31 477.379,659.829 476.899,659.829 475.219,659.35 
		474.019,658.869 473.779,658.629 473.539,658.39 472.339,656.709 471.859,656.469 470.899,656.469 470.659,656.469 
		470.179,656.709 469.459,657.429 469.219,657.429 468.979,657.429 468.979,657.669 468.739,657.669 468.499,657.429 
		468.259,657.429 468.019,657.429 466.819,656.709 465.859,655.989 465.619,655.509 465.379,654.548 464.899,654.309 
		464.419,654.068 463.939,653.828 463.699,653.828 462.019,653.348 461.539,652.868 461.299,652.868 460.339,651.908 
		458.899,650.228 458.899,649.988 458.179,647.347 458.419,645.427 458.419,644.707 458.419,644.467 458.179,643.987 
		457.219,643.027 456.979,642.787 456.499,641.827 455.779,640.386 455.539,640.146 455.059,639.666 454.819,639.186 
		454.099,638.466 453.859,638.226 453.379,637.506 452.899,636.306 453.139,635.105 452.659,632.465 452.659,631.985 
		452.419,631.265 451.699,629.345 451.459,628.145 450.259,626.944 449.779,626.704 449.059,626.464 448.819,626.224 
		448.819,625.744 448.579,625.504 448.339,625.504 448.099,625.504 446.899,624.544 446.419,623.824 445.699,623.104 
		445.219,622.863 444.739,622.863 444.499,622.863 443.779,622.624 443.779,622.144 443.779,621.903 443.779,620.463 
		443.779,620.223 443.779,619.983 443.779,619.743 443.779,619.503 443.539,619.503 443.299,619.263 443.299,619.023 
		442.339,618.543 441.619,617.823 441.379,617.583 441.379,617.343 441.139,617.343 440.899,616.863 439.939,615.902 
		439.459,615.663 439.219,615.422 438.499,614.942 438.019,614.702 437.779,614.222 436.819,613.262 436.099,613.022 
		435.379,612.542 435.139,612.542 433.459,611.822 432.979,611.582 432.739,611.342 431.779,610.142 431.059,609.662 
		430.339,609.181 429.379,608.701 428.659,607.981 428.179,607.501 427.699,607.501 426.739,607.501 426.259,607.741 
		426.019,607.741 425.539,607.981 424.819,607.741 424.579,607.501 424.099,607.261 423.139,606.061 422.899,605.821 
		421.699,605.341 420.739,604.621 420.02,603.661 418.339,602.46 416.899,601.02 416.659,600.78 414.979,599.58 414.5,598.86 
		414.02,597.899 413.539,596.459 412.819,595.499 412.099,594.539 410.419,593.339 410.179,593.339 409.699,593.339 
		409.219,593.339 408.979,593.339 408.739,593.339 408.02,593.579 407.539,593.819 405.859,593.339 405.619,592.859 
		404.419,590.938 404.179,590.458 404.179,589.499 403.939,588.778 403.699,588.298 402.979,587.818 402.5,587.098 402.259,586.618 
		402.02,586.138 402.02,585.658 402.259,585.417 402.5,585.178 402.739,584.938 402.979,584.698 402.979,584.458 402.739,584.217 
		402.5,584.217 401.779,583.978 401.299,583.498 400.819,583.018 400.579,581.577 400.579,581.337 400.339,581.097 400.1,580.857 
		400.1,580.617 399.859,580.137 399.859,579.657 400.339,578.457 400.1,577.977 399.859,577.497 398.899,576.776 397.939,575.816 
		397.459,574.616 396.5,573.656 396.259,573.176 396.259,572.696 396.02,572.456 395.299,571.496 395.059,571.255 394.819,571.255 
		394.579,571.255 394.339,571.255 394.1,571.255 393.379,570.775 392.899,570.055 392.659,569.575 392.659,569.335 392.659,568.615 
		393.139,568.375 393.379,567.415 393.62,567.175 393.379,567.175 393.379,566.935 393.379,566.695 393.379,566.455 
		392.419,565.254 391.699,565.015 391.459,564.774 390.739,564.294 390.5,563.574 390.259,563.574 390.02,562.854 389.539,562.614 
		389.539,562.374 389.539,562.134 389.539,561.174 388.339,559.494 388.1,559.253 386.659,558.773 386.179,558.053 385.939,557.813 
		385.459,557.813 384.739,557.813 384.02,557.573 382.339,556.133 382.1,555.653 381.379,553.253 381.379,553.013 381.14,552.533 
		380.899,552.292 380.179,551.092 380.179,550.612 379.939,550.372 380.179,547.972 379.939,547.732 378.739,545.332 
		378.739,545.091 378.739,544.852 378.5,544.371 378.979,543.411 378.979,543.171 378.259,542.211 378.5,541.971 378.739,541.251 
		378.5,539.811 378.259,539.09 378.259,538.61 378.5,537.41 378.259,536.69 378.02,535.97 377.779,535.25 378.02,534.77 
		377.779,534.05 376.819,533.089 375.859,532.129 375.859,531.889 375.379,532.129 374.659,531.409 374.179,530.689 
		373.939,530.449 373.22,529.249 372.979,528.289 372.259,526.849 371.779,524.448 371.779,524.208 371.54,523.728 371.779,523.248 
		371.779,523.008 371.54,523.008 371.299,521.568 371.299,521.328 371.059,521.328 370.579,521.328 368.899,519.647 
		368.179,518.927 366.979,517.967 365.54,517.007 365.3,516.767 365.3,516.047 365.3,515.327 365.3,515.087 365.06,513.887 
		365.06,513.646 364.58,512.926 364.339,512.446 364.339,512.207 364.339,511.966 364.339,511.726 364.339,511.006 364.339,510.766 
		364.339,510.526 363.62,508.846 363.62,508.366 363.62,506.925 363.379,506.445 363.379,506.206 363.139,505.725 362.659,504.765 
		362.419,502.605 362.179,502.365 361.7,501.645 361.7,501.405 361.7,500.685 361.7,500.205 361.459,499.964 360.979,499.725 
		359.54,499.004 359.54,498.764 359.54,498.284 359.779,498.044 359.779,497.564 359.54,497.084 359.3,497.084 358.58,496.364 
		355.7,494.924 354.739,495.164 352.58,495.644 352.1,495.644 351.859,495.164 349.939,494.924 348.979,496.124 347.779,496.364 
		347.06,495.644 346.34,495.404 344.179,495.404 342.259,495.884 	"/>
</g>
</svg>
