<?xml version="1.0" encoding="utf-8"?>
<!-- Generator: Adobe Illustrator 15.1.0, SVG Export Plug-In . SVG Version: 6.00 Build 0)  -->
<!DOCTYPE svg PUBLIC "-//W3C//DTD SVG 1.1//EN" "http://www.w3.org/Graphics/SVG/1.1/DTD/svg11.dtd">
<svg version="1.1" id="State" xmlns="http://www.w3.org/2000/svg" xmlns:xlink="http://www.w3.org/1999/xlink" x="0px" y="0px"
	 width="1296px" height="1296px" viewBox="0 0 1296 1296" enable-background="new 0 0 1296 1296" xml:space="preserve">
<g>
	<defs>
		<rect id="SVGID_1_" x="259.22" y="351.621" width="779.516" height="595.772"/>
	</defs>
	<clipPath id="SVGID_2_">
		<use xlink:href="#SVGID_1_"  overflow="visible"/>
	</clipPath>
	
		<polyline clip-path="url(#SVGID_2_)" fill="none" stroke="#B37C34" stroke-width="0.48" stroke-linecap="round" stroke-linejoin="round" stroke-miterlimit="3.85" points="
		287.78,607.501 288.02,606.061 288.26,600.3 288.26,598.38 288.74,591.659 288.74,591.418 288.74,590.458 288.979,587.338 
		288.979,583.978 289.22,581.577 289.7,568.615 289.94,567.415 290.42,551.333 292.1,551.333 292.1,551.092 293.06,534.77 
		293.06,534.53 293.54,523.008 294.26,506.686 294.5,505.485 294.74,501.645 294.74,499.244 295.22,490.123 295.22,486.282 
		295.459,485.082 295.459,484.842 295.7,480.042 295.7,478.841 295.7,478.601 295.7,477.641 296.9,452.197 297.62,436.595 
		297.62,436.114 297.62,434.915 297.86,426.513 309.14,426.993 320.66,427.473 325.7,427.713 331.7,428.193 332.66,428.193 
		333.379,428.193 337.22,428.434 341.06,428.434 342.739,428.673 348.739,428.914 354.02,429.153 354.259,429.153 355.7,429.153 
		356.179,429.153 359.54,429.394 360.02,429.394 365.779,429.634 367.939,429.634 370.819,429.874 371.54,429.874 373.939,429.874 
		374.659,429.874 379.22,430.114 381.14,430.114 383.059,430.114 384.979,430.354 386.899,430.354 388.1,430.354 389.779,430.354 
		391.699,430.594 394.579,430.594 395.059,430.594 399.379,430.834 401.299,430.834 405.139,431.074 406.1,431.074 410.899,431.314 
		415.459,431.314 417.379,431.554 421.219,431.554 422.179,431.554 424.099,431.794 424.819,431.794 426.019,431.794 
		426.979,431.794 428.899,431.794 430.819,432.034 433.699,432.034 434.659,432.034 435.379,432.034 440.419,432.274 
		442.339,432.274 443.059,432.274 443.779,432.274 444.979,432.274 446.899,432.514 447.379,432.514 448.339,432.514 
		448.819,432.514 449.299,432.514 449.539,432.514 450.019,432.514 451.699,432.514 453.379,432.754 453.619,432.754 
		455.779,432.754 456.499,432.754 463.219,432.994 466.099,432.994 468.019,432.994 469.699,433.234 469.939,433.234 
		470.419,433.234 471.379,433.234 471.619,433.234 472.579,433.234 472.819,433.234 473.539,433.234 474.499,433.234 
		474.739,433.234 475.459,433.234 478.099,433.474 478.339,433.474 480.499,433.474 486.019,433.474 486.259,433.474 
		486.739,433.714 486.979,433.714 488.419,433.714 490.099,433.714 496.579,433.714 497.539,433.954 499.699,433.954 
		501.379,433.954 502.339,433.954 504.979,433.954 505.459,433.954 507.619,434.194 507.859,434.194 508.339,434.194 
		510.979,434.194 511.459,434.194 512.899,434.194 513.619,434.194 515.299,434.194 515.539,434.194 517.699,434.434 
		520.339,434.434 525.139,434.434 526.339,434.434 526.819,434.434 536.659,434.674 537.139,434.674 539.539,434.915 
		543.619,434.915 544.099,434.915 544.579,434.915 547.458,434.915 547.938,434.915 549.378,434.915 551.779,434.915 
		553.219,434.915 557.539,435.154 559.219,435.154 559.458,435.154 561.619,435.154 561.858,435.154 562.338,435.154 
		563.059,435.154 564.738,435.154 564.979,435.154 568.338,435.154 568.818,435.154 579.858,435.395 580.338,435.395 
		581.298,435.395 582.258,435.395 583.698,435.395 584.178,435.395 588.258,435.395 589.458,435.395 595.458,435.634 
		599.298,435.634 600.019,435.634 601.218,435.634 603.858,435.634 605.058,435.634 610.338,435.634 612.498,435.634 
		623.058,435.875 624.258,435.875 627.618,435.875 630.498,435.875 631.218,435.875 631.458,435.875 632.418,435.875 
		643.218,435.875 643.938,436.114 644.898,436.114 654.498,436.114 656.178,436.114 657.139,436.114 660.019,436.114 
		660.258,436.114 662.418,436.114 663.857,436.114 669.618,436.114 673.458,436.114 681.139,436.114 684.979,436.354 
		693.138,436.354 693.378,436.354 696.258,436.354 698.418,436.354 700.338,436.354 706.098,436.114 708.018,436.114 
		716.897,436.354 717.138,436.354 720.978,436.354 721.458,436.114 725.298,436.114 726.738,436.114 727.457,436.114 
		730.577,436.114 732.978,436.114 734.897,436.114 736.098,436.114 736.818,436.114 738.498,436.114 741.857,436.114 
		742.577,436.114 743.777,436.114 752.897,435.875 753.377,435.875 753.617,435.875 761.777,435.875 764.658,435.875 
		770.897,435.875 771.138,435.875 773.297,435.875 776.418,435.875 778.817,435.875 780.978,435.875 781.938,435.875 
		782.657,435.634 784.577,435.634 785.058,435.634 787.697,435.634 793.217,435.634 794.177,435.634 796.098,435.634 
		796.817,435.634 798.978,435.634 807.617,435.634 810.498,435.634 812.177,435.634 816.257,435.395 819.137,435.395 
		822.018,435.395 830.657,435.154 837.137,435.154 837.377,435.154 838.338,435.154 844.817,434.915 847.938,434.915 
		853.457,434.674 855.617,434.674 856.337,434.674 858.018,434.674 865.217,434.434 867.617,434.434 874.098,434.194 
		874.816,434.194 876.497,434.194 879.137,434.194 882.257,433.954 888.018,433.954 890.657,433.714 896.417,433.714 
		898.577,433.474 901.217,433.474 901.938,433.474 902.177,433.474 902.417,433.474 913.697,433.234 917.057,432.994 
		917.537,432.994 925.457,432.754 933.137,432.514 935.536,432.274 936.977,432.274 944.656,432.034 946.337,432.034 
		946.576,431.794 948.496,431.794 949.456,431.794 954.017,431.554 956.177,431.554 956.656,431.554 960.017,431.314 
		960.736,431.314 961.217,431.314 964.336,431.314 964.816,431.314 965.536,431.074 968.177,431.074 970.816,430.834 
		971.776,430.834 972.017,430.834 973.937,430.834 975.856,430.834 977.776,430.594 979.456,430.594 981.377,430.594 
		982.576,430.594 983.297,430.594 984.256,430.354 985.217,430.354 986.656,430.354 986.416,431.554 986.416,432.274 
		986.656,432.514 986.416,432.754 986.416,432.994 986.416,433.234 986.416,433.474 986.656,433.714 986.416,434.194 
		986.416,434.434 986.177,434.674 986.416,435.154 986.416,436.114 986.416,436.595 986.177,436.834 985.937,438.035 
		986.177,438.755 985.937,439.475 985.937,439.715 986.177,440.195 985.937,442.115 985.937,442.596 985.937,443.076 
		985.696,443.315 985.696,443.796 985.696,444.756 985.456,445.716 985.217,445.716 984.977,446.196 984.496,446.436 
		984.256,446.676 983.776,447.396 983.297,448.597 983.057,448.597 982.816,449.077 982.576,449.316 982.336,449.557 
		981.617,450.037 981.377,450.277 981.377,450.517 981.137,450.997 980.656,451.957 980.416,452.437 980.416,452.677 
		980.416,453.157 980.177,453.877 979.456,455.558 978.496,456.518 978.496,456.758 978.017,456.998 977.776,457.478 
		977.536,457.478 976.336,458.438 974.177,459.638 971.057,461.798 970.576,462.279 970.097,463.239 969.617,463.719 
		967.697,465.399 967.456,465.399 966.977,465.879 966.257,466.359 966.017,466.599 963.856,468.52 963.617,468.52 963.137,468.76 
		962.896,469 962.896,469.24 962.416,469.72 962.177,470.44 961.937,471.88 961.697,472.84 961.697,473.08 961.697,473.8 
		961.217,474.521 961.217,475 961.456,475.48 961.937,475.721 962.177,476.201 962.416,476.441 962.656,476.681 963.377,477.401 
		966.496,481.242 966.736,481.481 967.456,481.961 968.177,483.162 968.656,483.882 970.097,485.802 970.576,486.522 
		971.297,488.203 971.536,488.442 972.257,489.883 972.257,490.603 972.496,491.083 972.496,491.323 972.977,492.043 
		972.977,492.763 973.456,493.963 973.697,493.963 974.416,494.684 975.617,496.604 976.336,497.804 976.576,497.804 
		976.576,498.044 976.576,498.284 976.816,498.284 977.297,499.004 977.536,499.244 977.776,499.484 978.017,499.725 
		978.256,499.964 978.496,499.964 978.977,499.964 979.456,499.964 980.416,500.205 981.617,499.964 982.336,499.964 
		983.297,499.964 983.776,499.964 984.496,500.205 985.937,500.685 987.617,501.645 988.097,502.125 988.816,502.365 
		989.776,502.845 991.217,503.325 991.937,503.325 992.656,503.565 993.616,504.045 994.816,505.005 995.536,505.245 
		996.256,505.965 996.736,506.206 997.456,507.646 997.456,507.886 997.696,508.606 998.176,509.326 998.656,510.286 
		998.656,510.526 998.656,510.766 998.896,511.006 998.896,511.246 998.896,511.486 999.377,511.966 999.856,512.687 
		999.856,512.926 1000.097,513.167 1000.097,513.407 1000.336,513.407 1000.336,513.887 1000.336,514.847 1000.336,515.087 
		1000.576,515.807 1000.576,517.727 1000.816,521.568 1001.057,525.648 1001.057,526.128 1001.057,526.369 1001.057,529.729 
		1001.297,533.089 1001.297,533.33 1001.536,536.93 1001.536,537.17 1001.536,540.771 1001.776,542.691 1001.776,544.371 
		1001.776,544.611 1001.776,544.852 1001.776,546.532 1002.017,547.732 1002.017,548.452 1002.256,555.893 1002.256,556.133 
		1002.256,558.053 1002.736,565.015 1002.736,565.495 1002.736,567.415 1002.736,567.655 1003.456,578.937 1003.456,579.177 
		1003.456,579.897 1003.456,580.617 1003.456,580.857 1003.456,581.337 1003.456,582.777 1003.696,584.698 1003.937,590.458 
		1003.937,592.379 1003.937,594.299 1004.416,601.74 1004.416,601.98 1004.896,613.262 1004.896,613.502 1004.896,615.663 
		1004.896,616.863 1005.136,618.303 1005.136,621.183 1005.136,622.624 1005.136,622.863 1005.377,624.304 1005.377,624.544 
		1005.377,626.944 1005.616,630.545 1005.616,633.665 1005.856,634.385 1005.856,636.065 1005.856,637.506 1005.856,638.226 
		1005.856,639.426 1006.097,639.906 1006.097,640.146 1006.097,641.827 1006.097,642.066 1006.097,643.747 1006.097,643.987 
		1006.336,645.667 1006.336,645.907 1006.336,647.347 1006.336,647.587 1006.336,647.827 1006.336,649.268 1006.336,649.508 
		1006.576,651.428 1006.336,651.428 1006.576,653.348 1006.816,659.109 1007.297,670.391 1007.536,679.992 1007.536,680.232 
		1007.776,681.673 1007.776,681.912 1007.776,682.152 1007.776,683.833 1007.776,684.073 1007.776,685.754 1007.776,685.993 
		1008.017,687.673 1008.017,687.914 1008.017,689.354 1008.017,691.515 1008.256,691.754 1008.256,693.435 1008.256,693.674 
		1008.496,701.115 1008.496,701.355 1008.736,704.956 1008.977,710.718 1008.977,712.637 1009.217,716.478 1009.696,726.08 
		1009.696,728 1010.176,736.401 1010.176,736.881 1010.176,739.281 1010.176,739.521 1010.176,740.242 1010.656,750.803 
		1003.217,751.283 997.456,751.523 996.736,751.523 996.736,752.003 996.736,752.244 997.217,752.483 997.456,752.244 
		997.696,752.244 997.937,752.724 998.176,752.964 998.656,753.924 998.176,754.404 998.176,755.364 998.416,755.604 
		997.937,756.084 997.696,756.324 996.977,757.284 996.736,758.005 996.736,758.244 996.736,758.484 997.696,760.165 
		997.696,760.405 997.937,760.405 998.176,760.645 998.656,760.405 999.137,760.405 999.377,760.405 999.856,760.885 
		1000.097,760.885 999.856,761.125 999.856,761.365 999.856,761.605 999.616,762.085 1000.097,762.325 1000.816,762.806 
		1001.297,763.765 1001.776,764.006 1003.217,765.206 1003.937,764.965 1003.937,764.726 1004.416,764.965 1004.416,765.206 
		1004.656,765.206 1004.656,765.926 1004.656,766.165 1004.896,766.165 1004.896,766.406 1004.896,767.606 1004.896,767.847 
		1004.896,768.086 1004.416,768.565 1004.416,769.526 1004.656,770.727 1004.656,771.206 1004.896,771.447 1004.656,771.447 
		1004.656,771.687 1004.656,771.927 1004.416,772.166 1004.176,772.647 1003.937,772.647 1003.937,772.887 1003.937,773.847 
		1004.416,775.527 1004.896,776.007 1004.896,776.247 1004.656,776.728 1004.656,776.968 1004.416,777.688 1003.456,778.168 
		1002.736,778.647 1002.496,778.647 1002.256,778.647 1002.017,778.407 1001.297,778.407 1000.816,778.407 1000.576,778.407 
		1000.576,778.168 1000.576,777.928 1000.336,777.928 999.616,778.168 999.616,778.407 999.856,778.407 999.856,778.647 
		999.856,779.128 1000.097,780.568 999.856,781.288 999.616,781.288 999.616,781.048 999.377,780.809 999.137,781.288 
		999.377,782.008 999.616,782.248 1000.097,782.008 1001.057,782.729 1001.536,782.969 1001.776,783.209 1002.256,783.209 
		1002.256,782.969 1002.496,783.209 1002.496,783.448 1002.736,784.169 1002.496,784.648 1002.017,784.889 1001.536,785.129 
		1001.297,785.129 1000.816,785.849 1000.816,786.089 1001.057,786.568 1001.297,786.81 1002.017,787.769 1002.256,787.769 
		1002.496,787.529 1003.217,787.289 1003.456,787.529 1003.937,787.529 1004.416,787.289 1005.136,787.769 1005.616,788.01 
		1005.856,788.489 1006.097,788.489 1006.576,788.249 1007.057,788.249 1007.776,788.01 1008.256,787.529 1009.217,787.529 
		1010.176,787.769 1010.176,788.249 1010.656,789.449 1010.656,789.689 1010.656,789.93 1010.416,790.649 1010.656,791.85 
		1010.656,792.569 1011.136,792.569 1011.377,792.811 1011.377,793.05 1011.377,793.29 1011.377,793.53 1011.377,794.011 
		1011.377,794.49 1011.377,794.73 1011.377,795.21 1011.377,795.931 1011.377,797.131 1011.616,797.371 1012.096,798.091 
		1012.336,798.091 1012.576,797.851 1013.057,798.091 1013.776,799.291 1014.017,799.771 1014.017,800.491 1014.256,800.731 
		1014.496,800.972 1014.256,801.932 1013.536,803.131 1013.297,803.611 1012.336,804.331 1012.096,804.812 1012.096,805.052 
		1012.816,805.292 1013.057,805.531 1013.057,805.772 1013.057,806.012 1013.057,806.973 1012.816,807.932 1012.576,808.412 
		1012.336,808.652 1011.856,808.893 1011.616,808.893 1011.377,808.652 1010.896,808.652 1010.176,809.612 1009.937,809.853 
		1009.937,810.332 1009.696,810.332 1008.736,810.573 1008.256,810.573 1008.017,810.573 1007.776,810.573 1007.057,811.532 
		1007.297,811.772 1007.297,812.013 1007.536,812.013 1007.776,811.772 1008.017,812.253 1007.776,812.973 1007.776,813.213 
		1007.776,813.453 1007.776,813.693 1008.017,813.934 1008.736,814.413 1008.977,814.653 1009.217,814.653 1009.456,814.894 
		1009.456,815.133 1009.937,815.854 1009.696,816.094 1009.696,816.334 1009.696,816.813 1009.456,817.294 1009.217,817.294 
		1008.977,817.534 1008.736,817.534 1008.496,817.534 1008.256,817.773 1008.017,818.254 1008.017,818.494 1008.017,818.974 
		1007.536,819.454 1007.536,819.693 1007.297,819.693 1007.297,820.174 1007.776,820.654 1008.256,820.894 1008.736,820.894 
		1008.977,821.374 1009.217,822.335 1008.977,823.055 1008.736,824.015 1008.496,824.255 1008.496,824.494 1008.017,824.494 
		1007.536,825.215 1007.776,825.694 1008.017,825.936 1007.776,826.175 1007.536,826.175 1007.536,825.936 1007.536,825.694 
		1007.297,825.694 1007.057,825.694 1005.616,827.136 1005.616,827.375 1005.616,827.615 1005.616,828.095 1005.856,829.056 
		1006.097,829.295 1006.097,829.775 1005.856,829.775 1005.616,829.775 1005.377,829.775 1005.616,830.016 1005.856,830.496 
		1006.097,830.256 1006.816,830.735 1007.057,831.216 1007.057,831.456 1007.057,831.695 1006.336,831.695 1005.856,831.695 
		1005.856,831.936 1006.097,832.176 1006.097,833.376 1005.616,833.856 1005.377,833.856 1005.136,833.856 1005.136,834.336 
		1004.896,835.297 1005.377,836.017 1005.616,836.017 1005.616,835.776 1005.856,835.776 1005.856,836.017 1005.616,836.977 
		1005.136,837.457 1004.656,837.457 1004.656,837.697 1004.656,837.937 1004.896,838.177 1005.136,838.417 1005.136,838.657 
		1005.136,838.897 1004.896,838.897 1004.656,838.897 1004.416,838.657 1004.416,838.417 1004.176,838.417 1004.176,838.657 
		1003.937,838.897 1003.937,839.617 1003.696,839.617 1003.217,838.897 1002.256,838.657 1002.256,838.897 1002.017,838.897 
		1002.017,839.377 1002.496,840.098 1002.256,840.817 1002.017,841.298 1001.776,841.538 1001.297,841.777 1001.057,841.777 
		1000.816,841.777 1000.816,842.498 1001.297,842.498 1001.297,842.738 1001.297,842.978 1001.297,843.218 1001.297,843.698 
		1001.057,844.657 1001.057,844.897 1000.336,845.618 1000.336,846.098 1000.097,846.098 999.137,845.857 998.656,846.098 
		998.416,846.818 998.176,847.539 997.937,847.778 997.696,847.778 997.456,848.019 997.456,848.258 997.696,848.979 
		997.937,849.698 998.416,849.459 998.656,849.459 998.896,849.698 998.896,849.939 998.896,850.179 998.176,850.179 
		997.937,850.659 997.696,851.14 997.456,851.859 997.217,852.099 996.977,852.339 997.217,852.579 997.937,853.779 
		998.416,853.779 998.656,853.779 998.656,855.22 998.416,855.939 998.176,855.939 998.176,856.42 999.137,857.14 999.616,857.38 
		999.856,857.38 999.856,857.62 1000.097,857.86 1000.576,857.86 1000.576,857.62 1000.816,857.38 1001.057,857.38 1001.297,857.38 
		1001.536,857.62 1001.536,858.101 1001.536,858.58 1002.017,858.58 1002.496,858.82 1003.456,859.301 1003.696,859.301 
		1003.696,859.78 1003.696,860.021 1003.696,860.261 1003.456,860.501 1003.217,860.74 1003.456,860.74 1003.937,860.74 
		1004.176,860.74 1004.176,860.261 1004.416,860.021 1005.136,860.98 1005.616,861.46 1005.616,861.701 1005.377,861.701 
		1005.136,861.701 1005.136,862.421 1005.377,862.421 1005.616,862.421 1006.576,861.94 1006.816,861.94 1007.297,862.66 
		1007.536,863.141 1007.297,863.621 1007.297,863.86 1007.536,863.86 1007.776,864.102 1007.776,864.341 1008.017,864.341 
		1008.256,864.341 1008.496,864.581 1009.696,865.781 1009.696,866.261 1009.696,866.502 1009.696,866.981 1009.456,867.222 
		1009.217,867.461 1008.977,867.461 1008.496,867.461 1008.256,867.702 1008.256,867.941 1008.256,868.182 1008.256,868.422 
		1008.496,868.661 1008.736,868.661 1009.217,868.422 1009.217,868.182 1009.456,867.941 1009.696,867.941 1009.937,867.941 
		1010.416,868.182 1010.416,868.422 1010.896,869.142 1010.896,869.382 1011.377,870.582 1011.377,870.822 1011.377,871.062 
		1011.377,871.302 1011.856,871.542 1012.096,871.782 1012.096,872.022 1011.856,872.022 1011.856,872.262 1011.856,872.502 
		1012.096,872.502 1012.336,872.742 1012.576,872.982 1012.816,872.982 1012.816,873.223 1012.816,873.463 1012.576,873.702 
		1012.096,873.702 1011.856,873.702 1011.616,873.702 1011.616,874.183 1011.616,874.423 1011.856,874.902 1011.856,875.383 
		1012.096,875.623 1013.776,875.623 1014.017,876.823 1014.017,878.264 1013.776,878.983 1013.776,879.464 1013.776,879.703 
		1012.816,880.423 1012.576,880.664 1012.816,881.384 1013.536,881.623 1014.017,881.384 1014.017,881.623 1014.496,882.344 
		1014.496,882.823 1014.256,883.304 1014.256,883.544 1014.256,883.784 1014.496,884.023 1015.696,884.023 1016.176,883.784 
		1017.616,884.265 1015.937,884.744 	"/>
	
		<polyline clip-path="url(#SVGID_2_)" fill="none" stroke="#B37C34" stroke-width="0.48" stroke-linecap="round" stroke-linejoin="round" stroke-miterlimit="3.85" points="
		1015.937,884.744 1015.456,885.224 1014.496,885.465 1014.256,885.704 1013.057,885.704 1011.856,885.224 1011.377,884.984 
		1011.136,884.744 1010.416,883.784 1010.176,883.544 1010.176,883.064 1009.937,882.584 1009.456,881.864 1008.977,881.384 
		1008.736,881.144 1008.256,880.903 1007.776,880.664 1007.057,880.423 1006.336,880.664 1006.097,880.664 1005.616,880.903 
		1005.136,880.903 1005.136,881.144 1004.896,881.144 1003.696,882.344 1003.217,882.584 1002.977,882.584 1002.736,882.823 
		1002.496,882.823 1002.017,882.823 1001.776,882.823 1001.536,882.823 1001.297,882.823 1001.057,882.584 999.616,881.864 
		999.377,881.384 998.896,880.423 998.896,879.703 998.656,879.464 998.656,878.264 998.656,877.783 998.416,877.543 
		998.416,877.303 998.176,876.823 998.176,876.583 997.937,876.583 997.696,876.103 997.456,875.863 997.217,875.623 
		996.496,875.143 996.256,874.902 996.017,874.902 994.336,874.423 994.336,874.183 994.097,873.942 993.856,873.942 
		993.377,873.463 992.176,872.022 991.217,870.822 990.977,870.103 990.736,869.622 990.736,868.661 990.736,868.422 
		990.977,867.702 990.977,867.461 991.937,865.781 992.176,865.541 992.416,865.302 992.416,865.061 992.656,865.061 
		992.656,864.82 992.896,864.581 992.896,864.102 992.896,863.621 992.416,863.141 991.696,862.901 989.057,861.94 988.816,861.94 
		988.576,861.94 988.336,861.94 988.097,861.94 987.617,861.94 987.377,861.94 987.137,862.181 986.896,862.181 986.656,862.181 
		986.656,862.421 985.217,862.66 984.017,862.66 983.776,862.66 983.536,862.66 982.576,862.421 981.856,861.94 981.617,861.94 
		981.617,861.701 981.617,861.46 981.617,860.021 981.617,858.82 981.377,858.101 980.896,857.38 980.416,857.14 979.696,856.9 
		979.217,856.9 978.736,856.9 977.297,856.42 976.816,856.18 975.617,855.46 974.416,854.979 972.977,854.979 971.776,854.26 
		971.536,854.02 971.297,854.02 971.297,853.779 971.057,853.779 969.856,854.26 969.377,854.26 968.896,854.979 968.177,855.22 
		967.697,855.46 966.977,855.939 966.496,855.939 965.776,855.939 965.536,855.699 965.536,855.46 965.297,855.22 965.297,854.979 
		965.776,853.539 965.776,853.299 965.776,853.06 965.057,851.379 964.336,850.898 963.856,850.659 963.617,850.659 
		962.656,850.659 961.697,850.659 960.257,850.419 959.776,850.419 959.536,850.419 959.297,850.419 959.057,850.419 
		958.576,849.939 956.656,849.459 955.456,849.219 954.736,849.219 954.017,849.459 953.536,849.698 952.576,849.698 
		952.097,849.698 950.896,849.939 949.217,849.698 948.977,849.459 948.736,849.219 948.496,848.739 948.496,848.498 
		948.496,848.258 948.257,848.019 948.017,847.778 947.777,847.539 947.777,847.298 947.057,846.578 946.097,846.098 
		945.856,845.857 945.377,845.618 944.896,845.618 944.416,845.618 943.456,845.378 943.217,845.378 942.257,845.378 
		941.777,845.378 941.297,844.897 941.057,844.657 941.057,844.418 940.816,843.457 940.816,843.218 940.337,842.498 
		940.337,842.257 940.337,840.338 940.337,840.098 940.097,840.098 939.617,839.856 938.896,839.377 938.656,839.377 
		938.417,839.137 937.217,838.897 936.977,838.897 936.496,839.137 935.536,839.377 934.576,839.377 934.337,839.137 
		933.377,839.137 932.177,837.937 932.177,837.697 931.937,837.697 931.697,837.697 931.697,837.457 931.457,837.697 
		931.217,837.697 930.496,838.177 930.017,838.417 929.777,838.417 929.536,838.657 929.297,838.897 928.816,839.137 
		928.337,839.137 926.417,839.377 925.697,839.137 925.697,838.897 924.977,838.417 924.736,838.177 923.057,838.177 
		922.576,838.177 922.097,837.937 921.856,837.697 921.617,837.697 921.617,837.937 921.377,837.937 921.137,837.937 
		920.897,838.177 920.417,838.657 920.177,839.137 920.177,839.377 919.457,840.098 918.736,840.577 918.497,840.817 
		917.537,840.817 917.057,840.817 916.816,840.577 916.576,840.577 915.856,840.338 914.417,840.338 913.697,840.338 
		913.217,840.098 912.978,839.856 912.978,839.617 912.497,839.377 911.297,840.098 910.337,840.338 910.097,840.338 
		909.856,840.577 909.137,840.817 908.417,840.817 906.978,841.057 905.777,840.817 904.097,840.338 903.377,839.856 
		902.897,839.617 901.938,839.617 901.457,839.856 901.217,839.856 900.978,840.098 900.497,840.338 899.777,840.577 
		898.577,841.298 898.337,841.298 898.097,841.538 897.617,841.538 897.377,841.777 896.656,841.777 894.736,842.018 
		893.537,841.777 891.617,841.538 888.736,841.298 888.257,841.298 887.297,841.298 886.337,841.298 884.897,840.817 
		883.697,840.338 883.217,840.098 882.018,839.856 881.297,839.137 881.057,838.897 880.577,838.897 880.337,838.897 
		880.098,838.897 879.617,839.137 879.377,839.137 879.137,839.137 878.657,839.377 878.177,839.377 877.457,839.856 
		876.736,840.098 876.497,840.338 876.257,840.817 876.257,841.057 876.497,841.538 876.497,841.777 876.257,842.257 
		876.018,843.457 875.537,844.657 875.297,845.857 875.057,846.098 874.816,846.578 873.856,848.258 873.377,848.979 
		872.657,849.459 872.177,849.698 872.177,849.939 871.938,849.939 871.217,851.14 870.737,851.379 869.537,852.339 
		869.057,852.339 868.337,852.339 866.897,852.339 865.457,853.06 864.737,853.299 864.497,853.299 864.018,853.06 863.297,853.539 
		863.057,853.299 861.377,853.299 861.137,853.06 860.897,853.06 860.657,852.819 860.417,852.819 860.177,852.819 859.938,852.819 
		859.697,852.579 859.217,852.339 858.737,852.099 858.737,851.379 858.497,851.14 858.018,850.659 856.577,849.459 
		856.098,849.219 855.377,848.739 854.417,847.539 854.177,847.298 852.018,846.098 852.018,845.857 851.057,844.418 
		850.098,843.457 849.617,843.698 848.657,843.938 848.177,843.938 847.697,843.938 846.018,843.457 844.577,842.738 
		843.857,842.257 843.137,842.018 842.657,841.538 842.417,841.298 841.938,841.057 841.938,840.817 840.257,839.856 
		840.018,839.377 839.777,839.377 839.297,839.137 838.338,839.137 837.137,839.137 835.457,838.417 834.257,838.177 
		833.297,837.937 832.577,837.697 832.338,837.457 832.098,837.217 831.857,836.977 831.617,836.497 831.377,836.257 
		830.897,835.776 830.657,835.536 830.417,835.536 829.697,835.297 829.457,835.057 828.018,834.336 827.777,834.336 
		826.577,833.616 825.377,833.136 824.657,832.656 823.217,831.936 822.737,831.936 822.257,831.936 822.018,832.176 
		821.777,832.416 821.537,832.416 821.057,832.416 820.817,832.176 820.817,831.456 820.577,831.456 820.338,831.216 
		819.617,830.496 819.377,830.256 818.897,830.016 818.657,830.016 817.697,827.855 816.497,825.936 816.018,824.735 
		815.537,823.294 811.217,823.294 809.297,823.294 808.817,823.294 799.697,823.535 799.457,823.535 795.617,823.535 
		792.018,823.775 790.098,823.775 789.857,823.775 786.257,823.775 784.098,823.775 780.498,823.775 778.098,824.015 
		776.658,824.015 776.418,824.015 774.978,824.015 772.577,824.015 770.658,824.015 767.058,824.015 765.377,824.015 
		764.897,824.015 761.298,824.015 759.377,824.015 759.138,824.255 757.457,824.255 753.857,824.255 753.617,824.255 
		752.418,824.255 751.457,824.255 749.777,824.255 748.098,824.255 744.258,824.255 742.338,824.255 741.617,824.255 
		739.218,824.255 738.258,824.255 733.457,824.494 731.298,824.494 731.058,824.494 730.818,824.494 728.657,824.494 
		726.738,824.494 721.458,824.494 720.978,824.494 719.537,824.494 719.298,824.494 715.218,824.494 711.857,824.494 
		703.938,824.735 702.258,824.735 699.378,824.735 699.138,824.735 697.458,824.735 696.738,824.735 695.058,824.735 
		692.657,824.735 692.418,824.735 690.738,824.735 689.538,824.735 689.298,824.735 688.578,824.735 687.378,824.735 
		684.738,824.735 683.777,824.735 682.818,824.735 682.098,824.735 680.897,824.735 678.019,824.735 677.298,824.735 
		674.897,824.735 673.938,824.735 673.698,824.735 669.618,824.735 669.378,824.735 667.458,824.735 666.979,824.735 
		658.578,824.494 657.857,824.494 650.897,824.494 643.218,824.494 642.738,824.494 636.258,824.494 635.778,824.494 
		628.338,824.494 624.498,824.494 618.738,824.494 618.498,824.494 617.538,824.494 616.578,824.494 609.618,824.255 
		609.378,824.494 608.898,824.494 605.298,824.494 599.778,824.255 597.618,824.255 592.099,824.255 586.099,824.255 
		584.178,824.255 582.499,824.255 582.258,824.255 577.458,824.255 576.738,824.255 573.378,824.255 572.659,824.015 
		569.059,824.015 559.699,824.015 551.299,823.775 551.059,823.775 531.139,823.535 524.899,823.535 522.019,823.535 
		521.299,823.535 517.219,823.294 516.739,823.294 512.659,823.294 504.259,823.055 491.059,822.574 485.779,822.335 
		485.299,822.335 474.739,822.094 472.339,822.094 468.979,821.854 468.499,821.854 442.099,821.135 441.859,821.135 
		437.299,820.894 434.419,820.894 434.179,820.894 433.939,820.894 429.379,820.654 422.899,820.654 420.979,820.414 
		420.739,820.414 413.299,820.174 409.219,820.174 399.859,819.693 397.939,819.693 395.299,819.693 379.7,818.974 366.979,818.494 
		366.739,818.494 348.259,817.773 346.58,817.534 346.1,817.534 340.58,817.294 330.74,817.054 329.06,816.813 324.02,816.573 
		323.78,816.573 319.939,816.573 316.58,816.334 310.58,816.094 300.979,815.613 300.74,815.613 296.42,815.373 290.18,815.133 
		286.1,814.894 283.7,814.653 277.7,814.413 278.66,796.65 278.9,792.811 279.62,776.487 279.62,775.527 279.62,774.567 
		279.86,771.687 280.1,763.045 280.34,758.005 280.82,751.523 280.82,748.163 281.3,740.962 281.54,738.321 281.54,737.602 
		282.5,715.998 282.5,715.758 283.22,702.076 283.7,691.034 284.42,679.032 284.9,667.03 285.14,664.15 285.38,659.109 
		285.86,649.748 286.34,640.146 286.34,639.666 286.58,634.625 286.82,630.785 287.54,614.462 287.78,611.102 287.78,607.501 	"/>
</g>
</svg>
