<?xml version="1.0" encoding="utf-8"?>
<!-- Generator: Adobe Illustrator 15.1.0, SVG Export Plug-In . SVG Version: 6.00 Build 0)  -->
<!DOCTYPE svg PUBLIC "-//W3C//DTD SVG 1.1//EN" "http://www.w3.org/Graphics/SVG/1.1/DTD/svg11.dtd">
<svg version="1.1" id="State" xmlns="http://www.w3.org/2000/svg" xmlns:xlink="http://www.w3.org/1999/xlink" x="0px" y="0px"
	 width="1296px" height="1296px" viewBox="0 0 1296 1296" enable-background="new 0 0 1296 1296" xml:space="preserve">
<g>
	<defs>
		<rect id="SVGID_1_" x="259.22" y="351.621" width="779.516" height="595.772"/>
	</defs>
	<clipPath id="SVGID_2_">
		<use xlink:href="#SVGID_1_"  overflow="visible"/>
	</clipPath>
	
		<polyline clip-path="url(#SVGID_2_)" fill="none" stroke="#B37C34" stroke-width="0.48" stroke-linecap="round" stroke-linejoin="round" stroke-miterlimit="3.85" points="
		302.66,680.473 302.18,680.473 302.18,680.232 301.459,679.752 300.979,679.512 300.74,679.272 300.02,678.552 300.02,678.312 
		299.54,677.832 299.54,677.592 299.06,677.353 297.86,677.111 297.62,677.353 297.38,677.353 296.9,677.592 296.9,677.832 
		296.66,678.072 296.66,678.552 296.66,679.032 296.66,679.752 297.38,680.952 296.66,681.192 294.74,681.192 294.26,680.713 
		293.78,680.232 293.78,679.992 294.5,677.353 294.5,676.632 294.74,676.152 297.38,674.711 298.1,674.231 298.82,672.552 
		299.06,671.831 299.3,671.591 299.54,671.11 300.26,670.631 300.74,670.871 300.979,670.631 301.7,670.631 302.18,670.631 
		302.42,670.871 302.9,671.352 303.14,671.591 303.62,672.071 303.62,672.552 303.14,673.511 302.9,674.711 302.9,675.191 
		303.14,676.392 303.86,677.353 303.86,677.832 303.86,678.072 304.1,678.072 304.34,678.312 304.58,678.072 304.82,677.832 
		305.06,677.592 305.3,677.353 305.3,676.872 305.54,676.632 306.5,676.152 306.74,675.432 306.74,674.952 306.979,674.952 
		306.979,674.231 306.979,673.991 307.22,673.271 307.459,673.031 307.7,672.311 307.7,672.071 307.459,671.831 306.26,670.631 
		305.78,669.431 305.54,668.951 305.3,667.99 305.3,667.03 305.3,666.311 305.54,665.59 305.78,665.35 306.02,664.63 306.26,663.67 
		306.5,663.43 306.74,662.949 307.22,662.949 307.7,662.71 307.939,662.949 308.18,662.949 308.66,662.47 308.9,662.47 
		309.62,662.47 309.859,662.47 310.34,662.47 310.58,662.47 311.54,663.189 312.979,664.39 313.22,664.63 313.22,664.87 
		313.22,665.35 313.22,665.83 313.22,666.07 313.22,666.311 313.459,666.551 313.7,666.551 313.939,666.79 314.18,666.79 
		315.14,667.03 316.1,667.511 316.34,667.511 316.58,667.511 317.06,667.271 317.3,666.79 317.3,666.551 317.78,665.59 
		317.78,665.35 317.54,665.11 317.3,665.11 317.06,665.11 317.06,664.87 317.3,664.63 317.3,664.39 317.06,664.15 316.82,663.91 
		316.58,663.67 316.1,663.67 315.62,663.67 314.66,662.949 314.42,662.71 314.18,662.229 313.7,661.029 313.459,660.31 
		313.22,660.069 313.459,659.829 313.459,659.59 313.7,659.109 313.939,658.869 314.42,658.39 315.62,657.669 316.58,657.429 
		317.3,656.948 317.54,656.709 317.78,656.948 318.5,657.189 318.74,657.189 318.979,656.948 319.7,656.469 320.42,655.989 
		321.379,655.509 322.1,655.269 322.34,655.028 322.34,654.789 322.58,654.309 322.58,653.589 322.58,653.108 322.58,652.868 
		322.58,652.389 322.34,652.147 322.1,651.668 321.859,651.668 321.859,651.428 321.62,651.428 321.379,651.428 321.14,651.668 
		320.9,651.668 320.66,651.908 320.42,651.908 320.42,652.147 319.939,652.868 319.7,653.108 319.459,653.348 319.22,653.348 
		318.5,653.348 318.02,653.348 317.3,653.108 316.58,652.868 316.1,652.389 315.859,652.389 315.859,652.147 315.379,651.668 
		314.9,650.708 314.42,649.988 314.18,649.508 313.939,649.027 313.939,648.547 313.939,646.867 313.939,646.147 313.939,645.667 
		313.939,645.187 314.18,644.707 314.42,644.467 314.66,644.227 315.14,643.987 317.54,642.546 317.78,642.307 318.02,642.066 
		318.26,642.066 318.5,642.066 319.939,643.267 320.18,643.747 320.9,643.987 321.14,644.227 321.859,643.507 322.58,643.267 
		323.54,642.787 324.5,642.787 325.22,642.787 325.7,642.787 326.18,642.307 326.42,642.307 326.66,641.827 327.62,640.866 
		327.62,640.386 327.859,640.146 327.62,639.426 327.859,638.946 329.06,637.746 330.5,637.506 330.5,637.266 331.22,637.266 
		332.42,637.746 333.14,637.746 334.1,637.506 334.34,637.266 335.54,636.786 335.779,636.545 336.02,636.065 336.02,635.585 
		336.02,635.345 336.02,635.105 335.779,634.865 335.3,634.625 333.62,633.665 333.62,633.425 332.66,633.185 332.18,632.945 
		330.74,632.225 330.5,631.985 330.259,631.505 330.02,631.265 330.02,631.025 330.259,630.545 330.259,630.305 330.259,630.064 
		330.5,629.345 330.74,628.864 331.459,628.384 331.7,628.384 331.939,628.384 333.62,627.664 335.3,627.424 337.459,628.625 
		337.939,629.345 338.42,629.825 338.9,630.064 339.14,630.064 339.859,629.825 340.1,629.825 340.58,629.345 340.82,628.864 
		341.06,627.904 341.06,627.664 340.58,626.464 340.58,626.224 340.34,625.744 338.9,624.544 338.66,624.063 337.7,623.344 
		336.739,622.624 335.779,621.903 335.54,621.663 335.06,621.183 335.06,620.703 335.06,620.463 335.06,619.263 334.34,618.303 
		334.1,618.063 334.1,617.583 336.259,617.823 336.259,617.583 336.259,617.343 336.5,617.103 337.459,615.663 337.7,615.182 
		337.939,614.942 337.939,614.462 338.18,613.022 338.42,612.542 338.66,610.381 338.9,609.421 338.9,609.181 339.379,608.461 
		340.1,607.981 340.82,607.741 342.02,607.261 343.22,607.021 343.459,606.781 343.939,606.541 344.179,606.541 344.42,606.301 
		344.66,606.301 345.62,605.821 345.859,605.581 346.34,604.861 346.34,604.621 346.34,604.141 346.34,603.9 346.58,603.181 
		346.58,602.7 346.34,601.98 346.1,601.74 345.859,601.26 345.859,601.02 345.379,600.3 344.42,599.34 343.939,599.1 
		343.459,598.86 342.979,598.38 342.259,597.899 341.3,597.18 341.06,596.939 340.58,596.459 339.859,595.979 339.379,595.499 
		338.9,595.019 338.42,594.539 338.18,594.299 337.939,594.059 337.7,593.819 337.459,593.339 337.22,593.339 337.22,593.099 
		337.22,592.859 337.459,592.619 337.459,592.379 337.7,592.139 337.939,591.898 338.18,591.659 338.42,591.659 338.9,591.898 
		339.62,592.139 341.779,591.898 342.5,592.139 342.739,592.139 343.22,592.379 344.179,592.859 345.14,593.339 345.379,593.339 
		345.62,593.339 345.859,593.339 347.06,593.339 347.3,593.339 348.02,593.099 348.259,593.099 348.259,592.859 349.22,592.379 
		349.459,592.139 349.7,592.139 350.179,592.379 350.419,592.619 350.659,592.619 350.899,592.619 351.14,592.619 351.379,592.619 
		351.62,592.139 351.859,591.179 351.62,590.218 351.62,589.979 351.62,589.738 351.379,589.499 350.899,589.258 350.659,589.499 
		350.179,589.499 348.259,588.298 347.779,587.818 347.3,587.338 345.379,586.138 344.9,584.698 344.9,584.458 344.9,583.978 
		345.14,583.257 345.62,582.777 346.1,582.537 346.58,582.537 348.02,582.777 349.939,583.257 351.14,583.257 351.62,583.257 
		352.34,583.257 352.58,583.018 353.06,582.537 353.3,582.297 353.54,581.577 354.02,581.097 354.02,580.377 354.259,579.657 
		354.259,579.417 354.259,579.177 354.02,578.457 353.06,576.776 351.62,574.616 351.62,574.376 351.379,573.896 351.379,573.656 
		351.62,573.176 351.62,572.696 351.859,572.456 353.06,571.496 353.3,571.255 353.3,571.016 353.54,570.535 353.779,569.815 
		353.779,569.095 353.779,568.615 353.54,568.375 352.58,567.415 352.34,566.695 355.7,566.695 356.179,566.935 356.659,566.935 
		356.659,567.175 355.939,568.855 355.939,569.095 355.939,569.335 355.939,569.575 356.179,570.055 356.659,570.535 
		357.379,571.016 357.859,571.016 358.34,571.016 358.58,571.016 359.3,570.775 359.779,570.295 360.739,569.335 361.459,568.615 
		361.939,567.895 362.179,567.415 362.419,566.935 363.62,566.935 364.58,566.935 365.54,566.935 367.459,566.695 368.419,566.695 
		372.259,566.455 373.7,566.455 374.179,566.455 377.779,566.695 379.459,566.695 379.7,566.695 383.779,567.175 384.02,567.175 
		387.379,567.175 387.62,567.175 389.779,567.415 391.459,567.415 392.419,567.415 394.579,567.655 396.5,567.655 396.979,567.655 
		397.459,567.655 400.339,567.895 404.179,567.895 404.419,567.895 405.859,567.895 406.339,567.895 406.819,568.135 
		407.059,568.135 407.299,568.135 407.779,568.135 408.02,568.135 408.259,568.135 409.219,568.135 409.459,568.135 
		411.379,568.135 411.859,568.135 412.819,568.135 414.259,568.135 418.579,568.375 421.219,568.375 425.779,568.615 
		428.899,568.615 432.979,568.855 435.619,568.855 438.019,568.855 438.259,568.855 440.179,569.095 441.619,569.095 
		443.299,569.095 443.539,569.095 445.219,569.095 446.419,569.335 453.619,569.335 453.859,569.335 454.339,569.575 
		455.299,569.575 459.619,569.575 466.339,569.815 469.699,570.055 470.659,570.055 473.779,570.055 476.659,570.295 
		476.899,570.055 477.379,569.575 477.859,568.855 478.099,568.615 478.099,568.135 478.099,567.895 478.099,567.655 
		478.339,567.415 478.339,566.695 478.579,565.734 478.579,564.774 478.339,563.574 478.099,562.374 477.859,561.174 
		477.619,559.253 476.899,556.373 476.899,555.893 476.899,555.653 476.659,555.413 476.659,555.173 476.179,554.213 
		475.939,553.493 475.699,551.572 477.859,551.572 480.739,551.813 488.899,552.772 492.259,553.253 494.179,553.253 
		493.699,556.613 498.499,556.373 502.819,556.373 506.899,556.373 507.139,556.373 511.459,556.373 517.939,556.373 
		518.179,556.373 525.379,556.373 528.739,556.373 529.458,556.373 529.699,556.373 530.659,556.373 532.099,556.373 
		535.458,556.373 536.179,556.373 536.418,556.373 536.898,556.373 537.139,556.373 539.059,556.373 541.219,556.373 
		541.699,556.373 541.938,556.373 544.579,556.373 545.779,556.373 546.019,556.373 548.179,556.373 548.659,556.373 
		550.579,556.373 552.499,556.373 555.619,556.373 560.179,556.373 560.898,556.373 561.858,556.373 564.258,556.373 
		565.219,556.373 566.179,556.373 568.579,556.373 571.938,556.373 573.139,556.373 577.458,556.133 578.418,556.133 
		579.139,556.133 580.338,556.133 580.579,556.133 580.818,556.133 582.979,556.133 585.139,556.133 585.378,556.133 
		589.218,556.133 590.418,556.133 592.099,555.893 594.258,555.893 598.098,555.893 598.338,555.893 599.539,555.893 
		600.979,557.333 601.698,557.813 602.658,557.333 602.898,556.613 603.378,556.854 603.378,557.093 603.858,556.854 
		606.499,555.893 609.378,555.893 609.618,555.893 614.418,556.133 615.378,556.133 617.538,556.133 618.738,556.133 
		620.418,556.373 621.138,556.373 624.018,556.613 624.258,556.613 626.658,556.854 630.258,557.093 630.498,557.093 
		630.738,557.093 631.698,557.333 632.418,557.333 635.058,557.573 638.178,557.573 639.378,557.813 641.058,557.813 
		642.018,557.813 642.258,557.813 645.618,558.293 646.098,558.293 648.498,558.293 649.938,558.534 650.897,558.534 
		651.139,558.534 651.378,558.534 652.338,558.534 655.458,558.773 656.897,558.773 659.538,559.014 662.897,559.014 
		665.538,559.014 666.498,559.253 669.618,559.253 670.338,559.253 671.298,559.253 673.938,559.494 674.418,559.494 
		675.857,559.494 676.818,559.494 677.058,559.494 683.298,559.734 683.538,559.734 686.418,559.734 690.498,559.734 
		691.698,559.734 696.019,559.253 696.498,559.253 696.738,559.253 698.178,559.253 704.657,558.773 705.378,558.773 
		707.538,558.773 707.777,558.534 708.258,558.534 709.458,558.534 710.418,558.534 714.738,558.534 715.218,558.534 
		715.458,558.534 716.178,558.534 716.657,558.534 716.897,558.534 718.338,558.534 724.577,558.773 725.298,558.773 
		728.418,559.014 730.577,559.014 733.698,559.253 734.657,559.253 737.298,559.734 739.938,559.734 744.258,560.214 
		745.698,560.214 749.058,560.454 750.498,560.454 751.218,560.454 761.058,560.694 762.498,560.694 762.978,560.694 
		763.938,560.694 765.617,560.694 769.218,560.934 770.897,560.934 772.817,560.934 774.498,560.694 778.577,560.694 
		779.297,560.694 779.537,560.694 779.777,560.694 780.018,560.694 781.457,560.934 793.697,560.934 794.418,560.934 
		797.297,560.934 799.457,560.934 799.938,560.934 800.418,560.934 803.777,560.934 804.257,560.934 805.697,560.934 
		806.177,560.934 806.897,560.934 807.617,560.694 812.177,560.694 814.577,560.694 817.457,560.694 822.257,560.934 
		822.497,560.934 825.137,560.934 829.697,560.934 834.018,560.934 840.257,560.934 842.177,560.934 842.417,560.694 
		842.657,560.454 842.897,559.974 843.137,559.734 843.377,559.494 843.377,559.253 843.617,559.253 843.617,559.014 
		843.857,559.014 844.817,559.014 845.777,559.014 846.018,559.014 846.257,559.014 846.737,559.014 847.938,559.253 
		849.377,559.253 850.337,559.253 851.057,559.253 853.457,559.253 854.177,559.014 854.417,559.014 858.257,559.014 
		859.217,559.014 860.657,559.014 861.856,559.014 866.177,558.773 868.577,558.773 870.978,558.773 874.337,558.534 
		876.257,558.534 876.978,558.534 878.177,558.773 879.137,558.773 881.297,558.773 882.257,558.773 885.377,558.534 
		891.617,558.534 897.617,558.293 897.856,558.293 901.217,558.293 901.457,558.293 903.137,558.053 906.018,558.053 
		909.377,558.053 914.177,557.813 914.417,557.813 918.497,557.573 923.536,557.573 925.217,557.333 925.457,557.333 
		926.177,557.333 926.897,557.333 929.057,557.333 929.297,557.333 930.736,557.093 932.656,557.093 932.897,557.093 
		934.097,557.093 934.576,557.093 935.777,556.854 936.017,556.854 936.736,556.854 936.977,556.854 937.456,556.854 
		937.697,556.854 938.177,556.854 940.576,556.613 942.496,556.613 942.977,556.613 943.217,556.613 943.697,556.613 
		944.656,556.613 944.896,556.613 948.977,556.373 949.697,556.373 951.137,556.373 951.377,556.373 957.137,556.133 
		958.816,555.893 959.057,555.893 960.977,555.893 961.697,555.893 963.377,555.893 964.097,555.893 964.816,555.893 
		965.057,555.653 965.297,555.653 966.017,555.653 966.257,555.653 967.217,555.653 967.697,555.653 967.937,555.653 
		968.656,555.653 968.896,555.653 969.137,555.653 969.856,555.653 970.336,555.653 970.576,555.653 971.057,555.653 
		971.297,555.653 971.536,555.653 972.977,555.653 975.137,555.413 975.617,555.413 976.816,555.413 979.217,555.413 
		982.097,555.173 989.297,554.933 990.017,552.533 990.256,552.533 994.576,552.533 998.176,552.533 1002.977,552.533 
		1003.937,552.292 1004.176,552.292 1004.656,552.292 1005.616,552.292 1013.297,552.053 1010.656,554.693 1010.656,554.933 
		1010.656,555.413 1010.656,555.653 1010.896,556.133 1010.896,556.373 1010.656,556.613 1010.176,556.854 1009.696,556.613 
		1009.696,556.854 1009.696,557.093 1009.696,557.333 1009.937,557.573 1009.937,558.053 1009.937,558.534 1009.696,558.773 
		1009.217,559.253 1009.217,559.734 1009.217,559.974 1008.496,560.214 1008.496,560.694 1008.496,561.174 1008.736,561.414 
		1008.736,561.654 1008.977,561.654 1008.977,561.894 1009.217,562.374 1009.217,562.614 1009.456,563.094 1009.456,563.334 
		1009.456,563.574 1009.217,563.814 1009.217,564.054 1009.456,564.294 1009.696,564.535 1009.696,564.774 1009.696,565.015 
		1009.696,565.495 1009.696,566.455 1009.937,566.455 1009.937,566.695 1009.937,567.175 1009.696,567.415 1009.696,567.655 
		1009.456,567.655 1008.736,567.895 1008.256,568.375 1008.256,568.855 1008.256,569.095 1008.256,569.335 1008.256,569.575 
		1008.256,569.815 1008.256,570.055 1008.256,570.295 1008.256,570.535 1008.256,570.775 1008.017,571.255 1008.017,571.735 
		1008.017,571.976 1007.057,572.696 1006.816,572.936 1006.576,573.176 1006.336,573.656 1006.336,574.136 1006.576,574.616 
		1006.816,574.856 1007.057,575.096 1007.297,575.336 1007.297,575.576 1007.297,576.056 1007.057,576.536 1007.057,576.776 
		1007.297,577.017 1007.776,577.497 1007.776,577.977 1008.017,578.457 1008.017,578.697 1008.017,578.937 1008.256,579.177 
		1008.496,579.417 1008.736,579.657 1009.217,579.897 1009.456,580.137 1009.456,580.377 1009.456,580.617 1009.456,581.097 
		1008.977,581.097 1008.496,580.857 1008.256,580.617 1007.776,580.617 1007.297,580.377 1007.057,580.617 1006.816,580.617 
		1006.576,580.617 1006.336,580.857 1006.097,580.857 1005.856,580.857 1005.616,581.097 1005.377,581.097 1005.136,580.857 
		1004.896,580.857 1004.416,580.857 1004.176,580.617 1003.456,580.137 1003.217,579.897 1002.977,579.897 1002.736,579.897 
		1002.496,579.897 1002.496,579.657 1002.256,579.657 1002.256,579.417 1002.256,579.177 1002.017,578.937 1001.776,578.937 
		1001.536,578.937 1000.816,579.417 1000.576,579.657 999.616,580.137 998.896,580.137 998.176,580.617 997.937,580.857 
		997.696,581.097 997.456,581.337 997.217,581.337 996.736,581.577 996.496,582.057 996.256,582.057 995.776,583.018 
		995.536,583.257 995.297,583.498 995.057,583.737 995.057,583.978 994.336,584.458 993.856,584.698 993.616,584.698 
		992.656,585.178 991.937,586.858 990.736,589.018 990.256,589.979 988.576,593.099 987.856,594.779 987.377,595.499 
		986.416,597.66 985.696,599.1 984.256,601.74 984.017,602.22 983.536,603.42 983.297,603.9 983.297,604.141 983.057,604.381 
		982.816,604.381 982.576,604.381 982.097,603.9 981.617,603.9 981.137,603.9 981.137,604.141 981.137,604.621 980.656,605.341 
		980.177,605.341 979.217,606.061 978.977,606.061 978.496,606.061 977.536,606.301 977.297,606.061 977.057,606.061 
		976.576,606.061 976.097,606.301 975.137,606.541 974.896,606.301 974.416,605.581 974.177,604.861 974.177,604.381 974.177,603.9 
		973.937,603.181 973.697,602.7 973.456,602.46 973.217,601.74 972.977,601.98 972.496,601.98 972.017,602.22 971.297,602.22 
		971.057,602.22 971.057,602.46 970.816,602.46 970.576,602.46 970.336,602.46 970.097,602.46 969.856,602.22 969.377,601.98 
		969.137,601.98 968.896,601.74 968.656,601.5 968.416,601.26 967.937,601.02 967.697,601.02 967.217,601.26 966.977,601.26 
		966.736,601.5 	"/>
	
		<polyline clip-path="url(#SVGID_2_)" fill="none" stroke="#B37C34" stroke-width="0.48" stroke-linecap="round" stroke-linejoin="round" stroke-miterlimit="3.85" points="
		966.736,601.5 966.736,601.98 966.496,602.46 966.017,602.7 966.017,602.94 965.776,602.94 965.776,603.181 965.297,603.42 
		965.297,603.661 965.057,603.9 965.057,604.141 964.816,604.141 964.576,603.9 964.336,603.9 964.097,603.9 963.856,603.9 
		963.617,604.141 963.377,604.381 963.137,604.621 962.896,604.621 962.896,604.381 962.656,604.381 962.416,604.381 
		962.177,604.381 961.697,603.9 961.456,603.661 960.736,603.9 960.257,604.141 959.776,604.621 959.057,605.341 958.816,605.581 
		958.337,605.581 958.097,605.821 957.856,605.821 957.377,606.061 956.656,606.061 956.416,606.061 956.416,605.821 
		955.937,606.061 955.456,606.541 954.977,606.781 954.496,607.021 954.257,607.021 954.017,607.261 954.017,607.501 
		953.777,607.741 953.297,607.981 953.057,607.981 951.856,609.181 951.377,609.421 951.377,609.662 950.896,610.622 
		950.416,611.822 947.536,617.343 947.297,617.583 947.057,617.583 946.337,618.303 945.617,618.543 945.617,618.783 
		945.617,619.023 945.377,619.263 945.137,619.263 944.896,619.503 944.896,619.743 944.177,620.223 943.697,620.703 
		943.217,620.943 942.736,620.943 942.496,621.183 942.257,621.183 941.536,621.423 941.297,621.663 940.816,621.663 
		940.816,621.903 940.576,621.903 940.097,622.383 939.856,622.624 939.377,623.344 938.656,623.344 937.937,623.104 
		937.697,622.863 937.697,622.383 937.456,622.383 936.496,622.144 936.257,622.383 935.777,622.383 935.057,622.383 
		935.057,622.144 934.816,622.144 934.816,621.663 934.816,621.423 935.297,620.463 935.297,619.983 935.057,619.503 
		934.576,619.503 934.337,618.783 934.576,618.543 934.576,618.303 934.576,618.063 934.816,617.583 935.297,616.863 
		935.536,616.382 936.017,616.143 936.017,615.663 936.017,615.422 935.777,615.182 935.536,614.942 935.297,614.702 
		935.057,614.462 934.816,614.222 934.337,613.982 934.097,613.982 934.097,613.502 934.097,613.262 933.856,613.022 
		933.137,612.302 932.656,612.062 932.417,612.062 931.697,612.302 931.457,612.782 931.217,612.782 930.977,613.022 
		930.736,613.022 930.257,613.262 929.777,613.502 929.297,613.742 928.576,614.222 928.337,614.222 928.337,614.702 
		928.097,614.942 927.137,615.422 926.897,615.663 926.656,615.902 926.417,615.902 926.177,616.143 925.938,616.143 
		925.938,616.382 925.938,616.623 924.977,617.343 924.736,617.103 924.497,617.343 923.057,618.543 922.576,618.783 
		922.337,618.783 921.856,619.023 920.897,619.263 920.656,619.503 920.656,619.983 920.417,620.223 920.177,620.463 
		920.177,620.703 920.177,621.663 920.417,621.903 920.656,621.903 920.897,621.903 921.137,622.144 920.897,622.624 
		920.417,622.863 920.177,623.104 920.177,623.583 919.938,624.304 918.977,625.024 918.497,625.744 918.497,625.984 
		918.736,626.464 918.736,626.704 918.736,626.944 918.257,626.944 917.777,627.184 917.297,627.424 916.816,626.704 
		916.576,626.464 916.337,626.224 915.617,625.744 915.617,625.504 914.897,624.784 914.656,624.784 913.938,625.024 
		913.217,624.544 912.978,624.544 912.736,624.544 912.017,624.784 911.297,625.264 910.816,625.264 910.576,625.984 
		910.576,626.704 910.337,626.944 910.097,627.184 909.856,627.184 909.617,627.424 909.617,627.664 909.617,627.904 
		909.617,628.145 909.617,628.384 909.856,628.625 910.097,629.104 910.337,630.305 910.576,630.785 910.576,631.025 
		910.576,631.265 910.337,631.265 910.337,631.505 910.816,631.745 910.816,631.985 910.816,632.225 910.816,632.705 
		910.337,632.945 910.097,633.185 909.377,633.425 909.377,633.665 909.137,634.146 909.137,635.105 909.377,635.826 
		909.137,636.065 908.897,636.306 908.656,636.306 908.656,636.545 908.177,636.545 908.177,637.026 907.697,637.506 
		907.217,637.746 907.217,637.986 906.497,638.706 906.257,639.426 906.257,639.666 906.018,640.146 905.777,640.386 
		905.777,641.106 905.777,641.346 905.777,641.586 905.297,641.586 904.816,641.827 904.577,642.307 904.097,642.787 
		903.377,643.267 903.137,643.507 902.656,643.267 902.177,642.787 901.697,642.787 901.217,642.546 900.497,642.307 
		900.018,642.307 899.537,642.066 899.297,642.066 899.057,642.307 898.816,642.307 898.577,642.066 898.097,641.827 
		897.617,642.066 897.377,642.066 897.137,642.066 896.417,642.066 896.417,641.827 895.938,641.827 895.457,642.307 
		895.457,642.546 894.497,643.267 894.257,643.507 894.018,643.507 893.777,643.507 893.777,643.747 893.297,643.987 
		893.057,643.987 892.577,644.467 891.856,644.227 890.177,644.707 889.697,644.707 889.217,644.707 888.978,644.707 
		888.736,645.187 888.736,645.427 888.736,645.667 888.497,646.627 888.257,646.627 887.777,646.867 887.537,647.347 
		887.297,647.827 887.057,648.308 886.816,648.308 886.098,648.788 885.856,648.788 885.617,648.788 884.657,649.027 
		884.417,648.788 884.177,648.788 883.938,648.788 883.217,648.788 882.497,648.788 882.257,649.027 882.257,649.268 
		881.537,649.508 881.297,649.988 881.297,650.228 881.297,650.708 881.297,650.948 881.297,651.188 881.297,651.428 
		881.297,652.147 881.057,652.389 880.816,652.868 880.577,652.868 880.098,653.108 880.098,653.589 879.617,653.828 
		879.137,654.068 878.417,654.309 878.417,654.548 878.417,655.028 878.177,655.748 877.938,656.229 877.697,656.229 
		877.457,656.229 876.736,656.469 876.497,656.469 876.018,655.989 875.777,655.748 874.577,655.509 874.337,655.748 
		873.617,655.989 873.377,655.989 873.137,656.229 872.897,656.469 872.897,656.709 872.897,656.948 872.657,657.429 
		871.938,658.148 871.938,658.39 871.697,658.39 871.697,658.148 871.457,658.148 871.217,658.39 871.217,658.629 870.978,658.629 
		870.257,658.869 869.777,659.829 869.537,660.069 869.057,660.069 868.816,660.31 868.337,660.549 867.617,661.029 867.617,661.27 
		867.377,661.27 866.897,661.27 866.657,661.27 865.697,661.27 865.457,661.27 865.217,661.51 864.978,662.229 864.737,662.71 
		864.018,663.189 863.297,663.43 863.297,663.67 863.297,663.91 863.057,664.15 862.577,664.15 862.577,664.39 862.816,664.63 
		862.577,664.87 862.098,665.83 861.617,666.07 861.137,666.311 859.457,666.551 859.217,666.07 858.018,666.311 857.537,666.311 
		857.297,666.311 856.577,666.311 855.856,666.311 855.377,666.311 854.897,666.311 854.417,666.551 853.938,666.551 
		853.697,666.551 853.457,666.551 853.457,666.07 852.978,665.59 852.257,665.11 852.018,664.87 851.777,664.87 851.057,665.59 
		849.857,666.07 849.617,666.07 849.377,666.07 849.377,666.311 849.137,666.311 848.657,666.311 847.938,666.07 847.457,666.07 
		847.217,666.311 847.217,666.07 846.737,666.07 846.257,666.07 846.018,666.07 845.297,666.07 844.098,666.311 843.857,666.311 
		843.617,666.311 843.377,666.311 842.177,666.79 841.938,667.03 841.217,666.79 840.978,666.551 839.777,667.03 839.057,666.79 
		838.817,667.03 838.577,667.03 837.857,667.03 837.857,667.511 837.137,668.23 836.657,668.71 835.457,669.191 834.737,669.91 
		833.537,671.11 833.297,671.11 832.817,671.11 832.098,671.352 831.617,671.591 831.137,671.591 830.897,671.352 830.657,671.352 
		829.938,671.591 829.457,671.591 828.737,671.831 828.497,671.831 828.497,672.311 827.777,673.511 827.537,673.511 
		827.057,673.991 827.057,674.231 827.057,674.472 827.057,674.711 826.817,674.952 826.577,675.432 826.338,675.912 
		826.338,676.152 825.857,676.632 825.617,676.632 825.377,676.632 825.137,676.392 824.897,676.632 824.657,676.632 
		824.177,676.872 823.697,677.111 823.697,677.353 822.978,677.832 822.737,677.832 822.497,677.592 822.257,677.592 
		822.018,677.592 822.018,678.072 821.777,678.552 821.537,678.552 821.297,678.552 821.057,678.792 821.057,679.272 
		820.577,679.272 820.338,679.992 819.377,680.232 819.137,680.713 818.897,681.192 818.897,681.673 818.657,681.912 
		818.418,682.152 817.938,682.633 817.697,683.113 817.457,683.113 817.217,683.353 816.978,683.593 816.978,683.833 
		817.217,684.313 817.457,684.313 817.697,684.553 818.177,685.273 817.938,685.754 817.938,685.993 818.177,686.233 
		818.177,686.473 818.418,687.193 817.697,687.914 817.457,688.634 817.217,688.634 816.978,689.114 816.018,689.354 
		815.777,689.594 815.777,689.834 816.257,691.034 816.497,691.273 816.497,691.515 816.257,691.754 816.257,691.994 
		816.018,692.955 816.018,693.435 816.737,693.674 817.217,694.635 817.217,695.114 816.737,695.595 816.018,695.835 
		815.537,697.035 814.577,697.995 814.338,697.995 813.857,698.235 813.137,698.475 812.897,698.715 812.418,698.715 
		812.177,698.955 812.177,699.195 811.938,699.436 811.457,699.915 811.217,700.155 810.978,700.396 810.498,700.155 
		810.018,699.915 809.537,700.155 809.297,699.915 808.817,699.915 808.577,700.155 808.338,700.396 808.338,700.636 
		808.098,700.876 807.857,700.636 807.617,700.636 807.377,700.396 807.137,700.396 806.418,700.396 805.938,700.396 
		805.697,700.636 805.457,700.876 804.978,700.636 804.737,700.636 804.257,700.876 804.018,701.115 803.297,701.115 
		802.817,700.876 802.338,700.876 802.098,700.876 802.098,700.396 801.857,699.676 801.617,699.436 801.617,699.195 
		801.137,698.715 801.137,698.475 800.657,698.475 800.177,698.235 799.697,698.475 799.457,698.715 798.737,699.676 
		798.498,699.915 797.777,700.396 797.297,700.636 797.058,701.115 795.857,701.836 795.137,702.556 795.137,702.796 
		794.657,703.036 794.657,702.796 794.418,704.956 794.177,707.356 793.938,708.797 793.938,709.037 793.457,713.598 
		793.217,716.719 793.217,718.158 792.978,718.878 792.737,722.719 792.737,723.439 792.498,724.159 792.257,727.52 790.338,727.52 
		790.098,727.52 789.138,727.52 787.938,727.76 787.697,727.76 786.978,727.76 786.257,727.76 786.018,727.76 780.978,727.76 
		776.178,727.76 771.138,728 766.577,728 766.338,728 761.537,728 757.698,728 757.218,728 756.738,728.239 754.338,728.239 
		753.377,728.239 750.738,728.239 750.498,728.239 750.018,728.239 749.777,728.239 749.298,728.239 748.817,728.239 
		746.418,728.239 746.178,728.239 744.018,728.239 743.537,728.239 740.178,728.239 739.457,728.239 739.218,728.239 
		738.978,728.239 738.018,728.48 736.338,728.48 736.098,728.48 731.058,728.48 730.577,728.48 728.897,728.48 727.457,728.48 
		727.218,728.48 726.258,728.72 725.537,728.72 723.857,728.72 723.617,728.72 723.378,728.72 722.418,728.72 721.698,728.72 
		719.298,728.72 718.818,728.72 718.577,728.72 717.617,728.72 717.378,728.72 717.138,728.72 716.657,728.72 716.178,728.72 
		715.938,728.72 715.698,728.72 715.458,728.72 714.979,728.72 714.738,728.72 714.258,728.72 713.777,728.96 712.577,728.96 
		711.617,728.96 711.138,728.96 710.657,728.96 710.418,728.96 710.178,728.96 709.938,728.96 709.218,728.96 708.738,728.96 
		708.498,728.96 708.258,728.96 708.018,728.96 706.338,728.96 705.378,728.96 705.138,728.96 704.897,728.96 703.218,729.2 
		702.738,729.2 701.538,729.2 700.818,729.2 700.578,729.2 699.617,729.2 699.378,729.2 697.938,729.2 695.777,729.2 694.578,729.2 
		694.098,729.2 693.857,729.2 691.698,729.2 690.498,729.2 687.138,729.2 682.578,729.2 682.098,729.2 674.897,728.96 
		674.418,728.96 672.738,728.96 672.258,728.96 671.777,728.96 668.658,728.96 666.258,728.72 665.298,728.72 664.098,728.72 
		663.857,728.72 663.618,728.72 660.738,728.72 660.498,728.72 657.618,728.72 657.139,728.72 654.738,728.72 643.698,728.72 
		643.218,728.72 642.738,728.72 635.778,728.48 633.618,728.48 631.458,728.48 627.138,728.48 622.338,728.48 621.618,728.48 
		621.378,728.48 616.578,728.48 614.898,728.48 612.258,728.48 611.778,728.48 608.898,728.48 608.418,728.48 607.218,728.48 
		604.098,728.48 603.858,728.48 601.458,728.48 600.019,728.48 598.578,728.239 597.618,728.239 594.019,728.239 592.578,728.239 
		591.618,728.239 591.378,728.239 591.138,728.239 590.898,728.239 587.298,728.239 586.579,728.239 582.019,728.239 
		579.139,728.239 578.898,728.239 577.458,728.239 576.499,728 576.258,728 575.539,728 575.298,728 573.858,728 571.938,728 
		569.778,727.76 568.818,727.76 566.179,727.76 565.938,727.76 565.699,727.76 564.499,727.76 563.539,727.76 562.579,727.52 
		560.898,727.52 555.858,727.28 555.378,727.28 553.219,727.28 552.979,727.28 552.739,727.28 551.539,727.28 549.619,727.28 
		545.539,727.04 545.059,727.04 544.818,727.04 544.339,727.04 543.858,727.04 540.499,726.8 537.858,726.8 533.539,726.56 
		532.819,726.56 530.898,726.56 530.659,726.56 529.938,726.56 527.779,726.319 527.539,726.319 526.819,726.319 526.099,726.319 
		525.619,726.319 524.179,726.319 521.299,726.319 521.059,726.319 518.899,726.319 517.699,726.08 514.099,726.08 513.619,726.08 
		511.699,726.08 510.499,726.08 510.019,726.08 506.659,726.08 506.179,726.08 504.739,725.84 504.019,725.84 503.539,725.84 
		502.819,725.84 498.739,725.84 498.019,725.6 497.299,725.6 493.459,725.6 490.819,725.6 490.579,725.6 488.899,725.359 
		488.419,725.359 484.339,725.359 480.259,725.359 479.299,725.359 478.099,725.119 460.819,724.64 460.819,724.88 460.819,725.6 
		461.059,725.84 460.819,725.84 456.499,725.84 456.259,725.84 456.019,725.84 448.579,725.6 446.899,725.6 445.459,725.6 
		438.499,725.359 438.019,725.359 437.539,725.359 437.059,725.359 436.579,725.359 436.339,725.359 434.899,725.359 
		434.179,725.119 432.979,725.119 432.739,725.119 429.859,725.119 428.179,725.119 426.259,725.119 419.539,724.88 416.419,724.88 
		413.779,724.64 410.899,724.64 407.779,724.64 405.379,724.64 405.139,724.64 404.659,724.399 402.259,724.399 402.02,724.399 
		401.779,724.399 399.139,724.399 398.419,724.399 396.259,724.399 395.779,724.159 393.139,724.159 391.939,724.159 
		391.219,724.159 390.739,724.159 390.259,724.159 390.02,724.159 389.779,724.159 384.979,723.919 383.779,723.919 
		380.659,723.919 379.22,723.919 376.1,723.68 375.62,723.68 374.179,723.68 372.739,723.68 364.1,723.439 362.419,723.199 
		358.58,723.199 358.1,723.199 356.659,723.199 355.459,722.959 354.979,722.959 353.779,722.959 353.3,722.959 351.379,722.959 
		351.14,722.959 350.419,722.719 348.979,722.719 344.42,722.479 341.779,722.479 339.859,722.479 337.7,722.239 336.259,722.239 
		332.42,721.999 330.74,721.999 330.5,721.999 329.3,721.999 327.859,721.999 327.62,721.999 324.74,721.999 321.62,721.759 
		320.18,721.759 318.979,721.759 317.54,721.519 317.3,721.519 316.34,721.519 315.62,721.519 314.18,721.519 312.74,721.279 
		311.06,721.279 309.62,721.279 309.379,721.279 308.9,721.279 308.18,721.279 306.979,721.039 306.5,721.039 306.26,721.039 
		305.06,721.039 304.58,721.039 303.62,721.039 302.42,721.039 302.18,720.799 300.5,720.799 299.06,720.799 296.42,720.559 
		295.459,720.559 288.02,720.318 287.54,720.318 285.14,720.078 281.3,719.839 280.82,719.839 280.82,719.358 280.82,719.119 
		280.82,718.398 281.06,717.678 281.78,716.478 282.02,715.519 282.26,715.277 282.5,715.277 284.9,715.519 284.9,715.758 
		285.14,715.758 285.62,715.998 287.78,716.478 288.26,716.719 288.979,717.198 289.22,717.198 289.459,717.198 290.18,716.478 
		290.42,716.478 290.66,715.998 290.9,715.519 290.9,714.558 290.9,714.077 290.9,713.598 291.62,712.157 292.1,710.478 
		292.58,708.317 293.06,707.837 293.06,707.597 293.3,707.597 293.54,707.117 293.78,707.117 294.26,706.637 294.5,706.396 
		295.459,706.156 295.7,706.156 295.939,706.156 298.58,707.837 299.3,708.077 300.02,708.077 300.5,707.837 300.74,707.597 
		301.459,707.117 301.7,706.637 302.18,706.156 302.42,705.677 302.18,704.717 302.18,704.477 301.939,704.477 300.5,703.996 
		300.02,703.996 300.02,703.756 299.54,703.516 299.3,703.276 299.06,703.036 298.82,703.036 298.82,702.796 298.82,702.556 
		298.82,702.076 298.82,701.596 298.58,701.596 298.34,701.355 298.1,700.636 298.1,700.396 298.34,699.676 298.82,699.436 
		299.78,700.155 299.78,699.915 300.26,699.195 300.5,698.475 300.74,698.235 300.74,697.995 300.979,697.995 301.22,697.995 
		301.459,697.995 301.459,697.755 301.459,697.515 301.459,697.035 301.459,696.555 301.22,696.314 300.979,695.835 300.5,695.114 
		300.02,694.395 299.78,694.155 299.54,693.915 299.06,693.674 298.34,693.674 297.86,693.674 297.14,693.915 296.42,693.915 
		295.459,693.435 294.979,692.715 294.26,691.515 294.02,691.034 294.02,690.794 294.5,689.594 294.5,689.354 294.74,689.114 
		294.979,688.873 295.459,688.634 295.939,688.634 296.66,689.114 297.38,688.873 298.1,688.634 298.58,688.634 299.3,688.634 
		299.54,686.473 299.78,685.754 299.3,684.553 299.54,684.553 300.26,683.833 300.5,683.113 300.979,682.873 301.22,682.873 
		301.459,682.633 301.7,682.152 302.66,680.473 	"/>
</g>
</svg>
