<?xml version="1.0" encoding="utf-8"?>
<!-- Generator: Adobe Illustrator 15.1.0, SVG Export Plug-In . SVG Version: 6.00 Build 0)  -->
<!DOCTYPE svg PUBLIC "-//W3C//DTD SVG 1.1//EN" "http://www.w3.org/Graphics/SVG/1.1/DTD/svg11.dtd">
<svg version="1.1" id="State" xmlns="http://www.w3.org/2000/svg" xmlns:xlink="http://www.w3.org/1999/xlink" x="0px" y="0px"
	 width="1296px" height="1296px" viewBox="0 0 1296 1296" enable-background="new 0 0 1296 1296" xml:space="preserve">
<g>
	<defs>
		<rect id="SVGID_1_" x="259.22" y="351.621" width="779.516" height="595.772"/>
	</defs>
	<clipPath id="SVGID_2_">
		<use xlink:href="#SVGID_1_"  overflow="visible"/>
	</clipPath>
	
		<polyline clip-path="url(#SVGID_2_)" fill="none" stroke="#B37C34" stroke-width="0.24" stroke-linecap="round" stroke-linejoin="round" stroke-miterlimit="3.85" points="
		346.1,594.059 347.779,594.059 350.419,594.299 351.14,594.299 352.58,594.299 357.379,594.779 358.1,594.779 365.779,595.259 
		371.779,595.499 372.02,595.499 373.7,595.739 375.859,595.739 382.1,596.219 384.259,596.219 384.5,596.219 385.22,596.219 
		385.459,596.219 385.939,596.459 387.859,596.459 395.059,596.939 398.179,596.939 399.62,597.18 401.539,597.18 407.539,597.419 
		412.579,597.66 421.699,598.14 422.419,598.14 423.379,598.14 435.619,598.86 437.539,598.86 442.339,599.1 448.099,599.34 
		449.059,599.34 449.299,599.34 449.539,599.34 454.819,599.58 467.299,600.06 469.459,600.06 469.699,600.06 469.939,600.06 
		472.099,600.06 475.939,600.3 477.859,600.3 478.099,600.3 479.059,600.3 479.299,595.739 479.299,593.819 479.299,592.619 
		479.779,582.537 480.019,572.696 480.019,571.735 480.019,570.535 480.019,569.095 480.259,568.375 480.259,567.175 
		480.259,565.975 480.259,564.054 480.259,563.574 480.259,563.334 480.259,562.614 480.259,562.374 480.499,561.654 
		480.499,560.934 480.499,559.494 480.499,559.014 480.499,558.773 480.499,557.813 480.499,556.373 480.499,555.173 
		480.739,554.693 480.739,554.213 480.739,553.733 480.739,552.533 480.739,549.412 480.739,549.172 480.979,547.252 
		480.979,546.532 480.979,545.812 480.979,545.091 480.979,544.852 480.979,543.651 481.219,542.451 481.219,542.211 
		481.219,540.531 481.219,539.571 481.459,535.49 481.699,533.57 481.699,533.33 481.699,530.449 481.939,529.729 481.939,526.608 
		482.419,516.767 482.659,513.646 482.659,512.926 482.659,512.446 482.659,512.207 482.899,511.246 482.899,509.806 
		482.899,507.886 482.899,507.406 483.139,503.325 483.379,501.885 483.379,499.244 483.379,499.004 483.619,496.844 
		483.619,495.164 483.619,493.724 483.619,493.003 483.859,492.043 483.859,491.803 483.859,491.563 483.859,491.323 
		483.859,490.603 483.859,489.643 483.859,489.163 483.859,488.923 483.859,488.683 483.859,487.962 484.099,480.281 
		484.339,478.361 484.339,477.641 484.339,477.161 484.339,474.521 484.339,473.8 484.339,473.561 484.339,473.32 484.339,473.08 
		484.339,472.84 484.339,472.6 484.339,472.36 484.339,471.88 484.579,471.64 484.579,469.479 484.579,469.24 484.579,467.56 
		484.579,466.599 484.819,462.999 484.819,460.838 484.819,459.158 484.819,458.918 485.059,457.958 485.059,456.278 
		485.059,453.877 485.299,451.477 485.299,448.597 485.299,445.956 485.539,442.835 485.539,438.755 485.779,434.674 
		485.779,433.714 485.779,433.234 485.779,432.754 485.779,432.034 486.019,430.834 486.019,430.594 486.019,429.153 
		486.019,427.473 486.019,426.993 486.259,419.312 486.739,407.07 486.739,405.63 486.979,400.829 487.219,398.188 486.979,397.949 
		487.219,396.988 487.219,396.269 487.219,395.548 487.459,388.827 487.699,384.026 487.939,374.665 487.939,371.305 
		488.179,369.864 488.179,366.264 488.419,360.022 490.099,360.263 494.419,360.263 497.059,360.503 499.219,360.503 
		503.299,360.743 505.699,360.743 517.699,360.983 518.179,360.983 522.739,361.223 522.979,361.223 526.579,361.223 
		527.299,361.223 528.019,361.463 528.259,361.223 532.099,361.463 536.418,361.463 536.659,361.463 536.898,361.463 
		537.139,361.703 540.979,361.703 541.458,361.703 542.659,361.703 542.898,361.703 543.139,361.703 543.378,361.703 
		544.579,361.703 546.019,361.943 546.499,361.943 547.699,361.943 548.418,361.943 548.659,361.943 549.858,361.943 
		551.059,361.943 558.979,362.183 559.938,362.183 562.099,362.183 564.258,362.183 573.139,362.423 574.579,362.423 
		574.818,362.423 577.938,362.423 578.898,362.423 579.619,362.423 580.338,362.423 581.778,362.423 582.979,362.663 
		583.218,362.663 584.418,362.663 585.139,362.663 585.378,362.663 587.059,362.663 588.738,362.663 589.458,362.663 
		590.418,362.663 591.618,362.663 592.099,362.663 594.499,362.663 594.979,362.663 595.218,362.663 596.418,362.663 
		597.138,362.663 597.138,362.903 597.138,362.663 597.618,362.903 599.059,362.903 600.979,362.903 601.458,362.903 
		601.938,362.903 602.178,362.903 603.858,362.903 604.818,362.903 605.778,362.903 606.019,362.903 606.738,362.903 
		609.138,362.903 612.258,362.903 616.338,362.903 619.938,362.903 620.178,362.903 620.178,367.224 619.938,375.865 
		619.938,378.985 619.938,381.146 619.938,382.826 619.938,386.907 619.938,396.269 619.698,403.47 619.698,409.95 619.698,410.19 
		619.698,415.471 619.698,420.752 619.698,427.233 619.698,427.473 619.458,428.914 619.458,432.514 619.458,433.474 
		619.458,441.635 619.458,451.237 619.458,453.397 619.218,456.998 619.218,458.918 619.218,466.359 619.218,466.839 
		619.458,466.839 619.938,466.839 620.418,466.839 620.898,466.599 621.138,466.359 621.138,466.119 621.378,465.879 
		621.618,465.879 622.338,466.119 622.578,466.119 622.818,466.359 623.058,466.599 623.778,467.079 624.018,467.319 
		624.258,467.56 624.738,468.04 624.738,468.279 624.978,468.52 624.978,468.76 625.218,468.76 625.698,469.479 626.178,469.72 
		626.658,470.2 626.898,470.2 627.378,470.92 627.138,470.92 627.378,471.4 628.338,472.6 628.818,473.08 629.058,473.08 
		629.298,473.32 629.538,473.561 629.538,473.8 630.018,474.28 630.738,474.761 630.978,474.761 631.218,475 631.698,475.241 
		631.698,475.48 631.938,475.721 631.698,475.721 631.938,475.961 632.178,476.201 632.658,476.441 633.378,476.681 
		633.618,476.681 633.858,476.921 634.098,476.921 634.338,476.921 634.578,476.921 634.818,476.681 635.538,476.921 
		635.778,476.921 636.978,476.921 636.978,476.681 637.458,476.441 637.458,476.201 637.698,475.961 637.458,475.721 
		637.698,475.241 637.698,474.761 637.938,474.521 638.178,474.521 638.658,474.521 638.658,474.761 638.898,474.761 639.138,475 
		640.098,475 640.338,475 640.578,474.761 640.818,474.761 641.298,475 641.538,475.241 641.778,475.721 642.018,475.721 
		642.258,475.721 642.498,475.721 642.978,475.961 643.458,476.201 643.698,476.681 643.938,476.921 644.418,476.921 
		644.898,476.681 645.378,477.161 645.618,476.921 645.858,476.921 645.858,476.681 645.858,476.441 646.098,475.241 
		646.098,474.761 645.858,474.761 645.858,474.521 645.858,474.28 645.858,473.8 646.098,473.32 646.578,472.6 646.818,472.36 
		647.058,472.36 647.538,472.6 647.778,472.84 647.778,473.08 647.778,473.32 648.018,473.561 648.258,474.041 648.498,474.041 
		648.738,474.041 648.738,474.28 648.978,474.521 648.978,474.761 649.219,474.761 649.219,475 649.219,475.241 649.458,475.241 
		649.938,475 650.178,474.761 650.418,474.761 650.658,474.761 651.857,475.241 651.857,475.48 652.098,475.961 652.098,476.201 
		651.857,476.201 651.378,476.201 651.378,476.441 651.378,476.681 652.098,477.161 652.338,476.921 652.818,477.161 
		652.818,477.401 653.058,477.641 653.058,477.881 653.058,478.121 653.058,478.601 653.298,478.841 653.538,478.841 
		653.778,478.841 654.019,478.841 654.019,479.081 654.258,479.081 654.258,479.562 654.019,480.281 654.019,480.521 
		654.019,481.481 654.258,481.722 654.258,481.961 654.498,481.961 654.738,481.961 654.738,482.442 654.738,483.162 
		654.738,483.882 654.738,484.122 654.979,484.602 654.979,484.842 654.979,485.082 654.979,485.322 654.979,485.562 
		655.219,485.562 656.418,485.802 657.139,485.562 657.378,485.322 657.618,485.322 657.857,485.322 657.857,485.562 
		657.618,485.562 657.618,485.802 657.618,486.042 657.857,486.042 658.098,486.282 658.578,486.042 659.058,486.042 
		659.298,485.802 659.777,485.802 660.019,485.802 660.498,485.802 660.738,486.042 660.979,486.282 661.219,486.522 
		661.458,486.522 661.698,486.282 661.698,486.042 661.938,486.042 662.897,486.042 663.139,486.042 663.378,485.802 
		663.378,485.562 663.378,485.322 663.857,485.082 664.098,485.082 664.338,485.322 664.338,485.802 664.578,486.042 
		664.818,486.282 665.058,486.282 665.058,486.042 665.058,485.802 665.298,485.562 665.538,485.562 665.777,485.802 
		666.019,486.042 666.738,486.762 666.979,487.002 666.979,487.243 667.218,487.243 667.458,487.482 668.178,487.723 
		668.897,487.962 669.139,488.203 669.139,488.442 669.139,488.683 669.378,488.923 669.618,488.923 669.857,488.923 
		669.857,488.442 670.578,488.442 671.058,488.442 671.777,488.442 672.019,488.683 672.258,488.683 672.738,489.403 
		673.218,489.403 673.458,489.643 673.698,489.643 673.938,489.643 673.938,489.883 674.178,489.883 674.178,490.123 
		674.178,490.363 674.418,490.363 674.658,490.363 674.897,490.363 674.897,490.123 675.139,490.123 675.139,489.883 
		675.378,489.643 676.098,489.643 676.578,489.883 677.058,489.883 677.298,489.883 677.538,489.643 677.777,489.403 
		678.019,489.163 678.738,488.442 678.979,488.203 679.218,488.203 679.698,488.442 679.938,488.442 680.178,488.683 
		680.418,488.683 680.658,488.683 680.897,488.683 680.897,488.442 681.139,488.442 682.338,488.923 682.578,489.163 
		683.058,489.883 683.058,490.123 683.538,490.603 684.019,491.323 684.258,491.563 684.498,491.803 685.458,493.003 
		686.178,493.483 686.418,493.724 686.897,493.483 687.378,493.243 687.857,493.003 688.098,493.003 688.098,492.763 
		688.098,492.523 688.338,492.523 688.578,492.283 688.818,492.283 689.058,492.523 689.298,492.523 689.538,492.283 
		690.019,491.563 690.258,491.563 690.258,491.323 690.258,490.363 690.019,490.363 690.258,490.123 690.738,489.163 
		690.979,488.923 691.458,488.683 691.698,488.683 691.698,488.442 692.657,488.683 692.897,488.683 693.138,488.683 
		693.138,488.923 693.378,488.923 693.617,488.923 693.617,489.163 693.857,489.163 694.098,489.403 694.578,489.643 
		694.818,489.883 695.538,489.883 696.019,489.883 696.258,489.883 696.498,489.883 696.979,489.883 697.218,489.883 
		697.938,490.123 698.178,490.363 698.897,490.603 699.378,490.603 700.338,490.843 700.818,490.363 701.058,490.363 
		701.538,489.643 701.777,489.403 701.777,489.163 702.019,488.923 702.498,488.683 702.738,488.683 702.979,488.683 
		703.218,488.683 703.458,488.923 703.698,489.643 703.938,489.883 703.938,490.363 703.698,490.603 703.698,490.843 
		703.698,491.083 703.458,491.323 703.458,491.563 703.218,491.563 702.979,491.803 702.979,492.043 702.738,492.283 
		702.498,492.283 702.498,492.523 702.498,493.003 702.738,493.243 702.738,493.483 703.458,494.204 703.698,494.443 
		703.698,494.684 703.458,494.684 703.458,494.924 703.218,494.924 703.218,495.164 703.218,495.404 703.938,496.604 
		704.178,496.604 705.378,497.084 705.617,497.084 706.098,497.084 706.818,497.084 707.058,497.084 707.777,497.084 
		708.018,496.844 708.498,496.844 708.738,496.604 708.979,496.604 708.979,496.364 709.218,496.364 709.218,496.604 
		709.458,496.844 709.458,497.084 709.698,497.084 709.698,497.324 709.938,497.324 710.178,497.324 710.418,497.324 
		710.178,498.284 709.938,498.524 709.938,499.004 709.698,499.244 709.458,499.484 709.218,499.725 709.218,499.964 
		709.218,500.205 709.458,500.205 709.698,500.205 709.938,500.205 710.178,500.444 709.938,500.925 709.938,501.405 
		709.698,501.645 709.458,501.645 709.458,501.885 709.218,501.885 709.218,501.645 708.979,501.405 708.979,501.645 
		708.738,501.885 708.738,502.125 708.738,502.365 708.979,502.605 709.218,502.845 709.458,503.085 709.938,503.325 
		710.178,503.325 710.418,503.325 710.657,503.085 710.657,503.325 710.897,503.325 711.617,503.805 712.098,504.045 
		712.577,504.285 713.537,504.765 713.777,504.765 714.018,504.765 714.498,504.765 715.458,504.285 716.657,503.325 
		716.657,503.085 716.897,502.845 717.617,502.605 717.857,502.365 717.857,502.125 717.857,501.885 717.617,501.405 
		718.098,501.165 718.338,501.405 718.577,501.405 718.577,501.165 718.577,500.925 718.577,500.685 718.577,500.444 
		718.577,500.205 719.058,499.964 719.298,499.964 719.537,499.964 719.777,499.964 719.777,500.205 719.777,499.964 
		720.258,499.725 720.498,499.725 720.498,499.484 720.738,499.244 720.978,499.004 721.218,498.524 721.458,497.804 
		721.698,497.564 721.938,497.324 722.418,497.084 722.657,497.084 722.897,497.084 723.138,497.084 723.138,497.324 
		724.338,497.564 725.298,498.284 726.258,499.004 726.258,499.244 726.258,500.444 726.018,500.685 726.018,500.925 
		726.018,501.165 726.018,501.405 726.258,501.645 726.258,501.885 726.498,501.885 726.738,501.885 727.457,502.125 
		727.698,502.125 727.938,502.125 728.418,501.885 728.657,501.645 728.897,501.645 729.138,501.405 729.378,501.165 
		730.098,500.925 730.338,500.925 730.577,500.925 730.818,500.925 731.058,501.165 731.298,501.165 732.018,501.645 
		732.018,501.885 732.258,502.125 732.498,502.365 732.498,503.325 732.498,503.565 732.258,504.045 732.258,504.285 
		732.018,504.285 732.018,504.525 732.018,505.005 732.018,505.485 732.498,505.725 732.738,505.965 733.457,506.206 
		734.178,506.206 734.657,506.206 735.378,506.206 735.857,506.206 736.098,505.965 736.338,505.965 736.577,505.485 
		737.058,504.765 737.298,504.045 737.537,503.565 737.537,503.325 737.777,503.085 738.018,503.085 738.018,503.325 
		738.018,503.565 738.258,503.565 738.498,503.565 738.738,503.325 738.738,503.085 738.738,502.845 738.978,502.845 
		739.218,502.845 739.457,503.085 739.698,503.325 739.698,503.565 739.938,503.565 740.178,503.565 740.178,503.805 
		740.418,503.805 741.138,503.805 741.138,503.565 741.377,503.085 741.617,501.885 741.617,501.645 741.617,501.405 
		741.857,501.405 742.338,500.925 742.577,500.925 743.058,500.925 743.298,500.925 743.537,501.165 743.777,501.405 
		744.258,501.645 744.498,501.885 744.498,502.125 744.978,503.805 745.218,504.525 745.218,504.765 744.978,505.245 
		744.498,505.245 744.498,505.485 744.258,505.485 744.018,505.485 743.777,505.485 743.537,505.965 743.537,506.445 
		743.537,506.686 743.537,506.925 743.537,507.166 744.018,507.886 744.018,508.125 744.258,508.606 744.498,509.326 
		744.978,510.286 745.218,510.526 745.457,510.766 745.698,511.006 745.938,511.006 745.938,511.246 746.418,511.246 
		747.138,511.486 747.377,511.486 747.617,511.246 747.857,511.246 748.098,511.006 748.338,510.766 748.577,510.766 
		748.577,510.526 748.577,510.286 748.817,510.046 748.817,509.566 748.817,509.086 748.817,508.846 748.817,508.366 
		748.338,507.646 748.338,507.406 748.338,507.166 748.338,506.925 748.577,506.925 748.577,506.686 748.577,506.445 
		749.058,506.206 749.537,506.206 749.777,506.206 750.018,505.965 750.018,505.725 750.018,505.485 750.018,505.245 
		750.018,505.005 750.018,504.765 750.258,504.765 750.498,504.765 750.738,505.005 751.457,504.525 751.698,504.285 
		752.178,503.805 752.418,503.085 752.657,503.085 752.657,502.845 753.138,502.365 753.138,502.125 753.138,501.885 
		753.138,501.405 753.138,501.165 752.897,500.685 752.657,499.964 752.657,499.725 752.657,499.484 752.657,499.244 
		752.657,499.004 752.897,498.764 753.138,498.524 753.377,498.524 753.377,498.764 753.377,499.004 753.377,499.244 
		753.377,499.484 753.617,499.484 753.617,499.725 754.577,499.244 754.817,499.004 755.298,498.524 755.537,498.524 
		755.777,498.284 756.018,498.284 756.258,498.524 756.498,498.524 756.498,498.764 756.738,499.004 756.738,499.244 
		756.978,499.725 756.978,500.444 756.978,500.685 756.978,500.925 756.978,501.405 757.218,501.645 757.457,502.605 
		757.698,503.085 758.178,503.565 758.178,503.805 758.418,504.045 758.897,504.285 759.138,504.285 759.377,504.285 
		759.617,504.045 759.617,503.325 759.617,503.085 759.857,503.085 759.857,502.845 760.098,502.845 760.817,502.845 
		761.537,503.085 761.777,503.085 762.018,503.325 762.258,503.325 762.258,503.565 762.498,504.045 762.498,504.525 
		762.738,505.245 762.978,505.245 762.978,505.485 763.218,505.485 763.457,505.485 763.938,505.245 764.178,505.245 
		765.138,505.005 765.377,505.005 765.617,505.005 765.617,504.765 765.857,504.765 765.857,504.525 766.098,504.285 
		766.098,504.045 766.338,504.045 766.338,503.805 766.338,503.565 766.577,503.325 766.577,502.845 766.577,502.605 
		766.577,502.125 766.817,501.645 766.817,501.405 766.817,501.165 767.058,500.925 767.058,500.685 767.058,500.444 
		767.297,500.444 767.537,500.444 767.777,500.685 768.018,500.685 768.258,500.925 768.978,501.405 768.978,501.645 
		769.697,501.645 769.938,501.645 770.658,501.405 770.897,501.405 770.897,501.645 770.897,501.885 770.897,502.125 
		770.658,502.365 770.418,502.605 770.178,502.605 769.697,502.845 769.218,503.565 768.978,503.805 768.978,504.045 
		768.978,504.285 769.218,504.285 769.457,504.285 769.457,504.525 770.178,504.765 770.418,504.765 770.658,504.765 
		770.658,505.005 770.897,505.005 771.617,505.485 771.857,505.485 772.577,505.485 773.058,505.485 773.058,505.245 
		773.297,505.245 773.537,505.245 773.777,505.485 774.018,505.965 774.018,506.206 774.018,506.445 774.257,506.445 
		774.257,506.686 774.257,507.166 774.257,507.406 774.737,507.886 774.978,507.886 775.457,507.886 776.658,507.886 
		776.897,507.646 777.138,507.406 777.377,507.406 777.617,507.406 778.098,507.646 778.338,507.646 778.338,507.886 
		778.577,507.886 778.577,508.125 778.817,508.606 778.817,508.846 779.058,509.086 779.297,509.326 780.018,510.046 
		780.257,510.046 780.257,510.286 780.737,510.766 	"/>
	
		<polyline clip-path="url(#SVGID_2_)" fill="none" stroke="#B37C34" stroke-width="0.24" stroke-linecap="round" stroke-linejoin="round" stroke-miterlimit="3.85" points="
		780.737,510.766 780.978,511.006 780.978,511.726 780.978,511.966 781.217,511.966 781.217,512.207 781.457,512.446 
		781.697,512.446 781.938,512.446 782.178,512.207 782.897,511.966 783.138,511.726 783.138,511.486 783.377,511.006 
		783.617,510.766 783.617,510.526 783.617,510.286 783.617,509.806 783.617,509.326 783.617,509.086 783.617,508.846 
		783.857,508.846 783.857,508.606 783.857,508.366 784.098,508.125 784.817,507.886 785.058,507.886 786.018,508.366 
		786.498,508.606 786.978,509.086 787.457,509.086 788.418,508.846 788.418,508.606 788.897,508.606 789.377,508.366 
		789.377,508.125 789.617,507.886 789.617,507.646 789.617,507.406 789.857,506.686 789.857,506.445 789.617,506.206 
		789.377,506.206 789.377,505.965 789.138,505.965 789.138,505.485 789.377,505.485 789.857,505.245 790.338,505.245 
		790.577,505.005 790.338,504.525 790.338,504.285 790.577,504.045 790.817,504.045 791.297,504.045 791.537,504.045 
		791.777,504.045 792.257,504.285 792.498,504.525 792.737,504.525 792.737,504.285 792.737,504.045 792.737,503.805 
		792.498,503.805 792.498,503.565 792.737,503.565 793.217,503.565 794.177,503.805 794.657,504.045 794.897,504.045 
		795.137,504.045 795.377,503.805 795.617,503.325 795.857,503.085 795.857,503.325 796.098,503.325 796.098,503.565 
		796.098,503.805 796.817,503.565 797.058,503.325 797.058,503.085 797.297,503.085 797.058,502.605 797.297,502.605 
		797.297,502.365 797.537,502.365 797.777,502.605 798.018,502.845 798.257,502.845 799.217,502.845 799.457,502.845 
		799.457,502.605 799.697,502.605 799.938,502.125 799.938,501.885 799.938,501.645 799.938,501.405 799.938,501.165 
		800.418,501.405 800.657,501.645 801.137,501.885 801.857,502.125 802.098,502.365 802.338,502.605 803.297,503.085 
		803.777,503.325 804.018,503.805 804.257,503.805 804.498,503.805 804.737,503.805 804.978,503.805 804.978,503.565 
		805.217,503.565 805.217,503.325 805.217,503.085 804.978,503.085 804.978,502.845 804.978,502.605 805.697,502.365 
		805.938,502.365 806.418,502.605 807.137,503.325 807.617,503.085 807.857,503.085 808.098,502.845 808.098,502.605 
		807.857,502.125 807.617,501.885 807.617,501.645 807.617,501.405 807.617,501.165 807.857,500.925 807.857,500.685 
		808.338,500.444 808.577,500.444 809.058,500.685 809.297,500.685 809.537,500.925 809.777,501.165 810.498,501.165 
		810.978,500.685 811.457,500.444 811.697,499.964 811.938,499.725 812.177,499.725 812.657,499.964 813.137,499.725 
		814.338,499.004 814.577,498.764 814.817,498.284 815.297,498.284 816.018,498.284 816.257,498.284 816.497,498.284 
		816.497,498.524 816.737,498.524 816.978,499.244 816.978,499.725 816.978,499.964 816.978,500.444 816.978,500.685 
		817.217,500.925 817.217,501.165 817.457,501.165 817.697,501.165 817.938,500.925 818.177,500.925 818.418,500.685 
		818.657,500.444 818.897,500.444 818.897,500.685 818.897,501.165 819.137,501.165 819.137,501.405 819.617,501.405 
		820.098,501.165 820.338,501.165 820.577,500.685 820.817,500.685 821.057,500.925 821.057,501.165 820.817,501.405 
		821.057,501.405 821.537,501.645 822.978,501.645 823.217,501.645 823.457,501.645 824.897,501.645 825.857,501.645 
		826.338,501.405 826.577,501.405 826.577,500.925 826.577,500.444 827.057,500.444 827.777,500.685 828.497,500.925 
		828.737,501.165 828.978,500.925 828.978,500.685 828.978,500.444 828.978,500.205 828.978,499.964 828.978,499.725 
		829.217,499.725 829.217,499.484 829.457,499.484 829.697,499.725 829.938,499.725 830.177,499.484 830.417,499.004 
		830.417,498.764 830.177,498.284 830.177,498.044 830.177,497.804 831.137,496.364 831.377,496.364 831.617,496.364 
		831.857,496.364 833.297,496.844 833.777,497.084 834.018,497.324 834.257,497.564 834.497,497.564 834.737,497.564 
		835.457,497.564 835.697,497.564 835.938,497.564 835.938,497.804 835.938,498.044 835.938,498.284 835.938,498.524 
		836.177,498.524 836.657,498.764 836.897,498.764 837.137,499.004 837.377,499.244 837.377,499.484 837.377,499.725 
		837.857,499.725 838.098,499.484 838.338,499.484 838.338,499.244 838.577,499.484 838.817,499.725 838.817,500.205 
		839.297,501.165 839.537,501.405 839.777,501.405 840.018,501.405 840.257,501.405 840.497,501.405 840.737,501.405 
		841.217,501.165 841.457,501.405 841.697,501.645 841.938,501.885 842.177,501.885 842.417,501.885 842.657,501.405 
		842.897,501.165 842.897,501.405 843.137,501.885 843.137,502.605 843.617,502.605 843.857,503.085 843.857,503.325 
		843.857,503.565 844.098,503.805 844.338,504.045 844.577,504.045 844.817,503.805 845.057,503.805 845.297,504.045 
		845.297,504.285 845.297,504.525 845.297,504.765 845.297,505.005 845.297,505.245 845.537,505.485 845.777,505.725 
		846.018,505.725 846.497,505.965 846.737,506.206 846.737,506.445 846.978,506.206 847.217,506.206 847.217,506.445 
		847.217,506.686 847.217,506.925 847.457,507.166 847.697,507.406 848.177,507.406 848.417,507.646 848.897,507.646 
		849.377,507.646 849.377,507.406 849.617,507.406 849.617,507.166 849.617,506.925 849.857,506.925 850.098,506.925 
		850.337,506.925 850.817,507.166 851.057,507.166 851.537,506.925 851.777,506.686 852.018,506.686 852.257,506.925 
		852.257,507.166 852.018,507.406 852.257,507.646 852.257,507.886 852.497,508.125 852.737,507.886 852.978,508.125 
		853.217,508.125 853.457,508.366 853.457,508.606 853.457,508.846 853.457,509.086 853.457,509.326 853.697,509.566 
		853.938,509.566 854.177,509.326 854.177,509.086 854.417,509.086 854.657,509.086 854.897,509.566 854.657,509.806 
		854.897,510.046 854.897,510.286 855.617,510.286 855.856,510.286 857.057,509.806 857.297,509.806 857.537,510.046 
		857.537,510.286 857.537,510.526 857.537,510.766 857.777,511.006 858.257,511.006 858.257,510.766 858.497,510.766 
		858.497,510.526 858.737,510.286 858.978,510.526 859.217,510.526 859.217,510.766 859.457,510.766 859.697,510.766 
		859.938,510.766 860.177,510.526 860.417,510.526 860.657,510.526 860.897,510.766 861.137,511.006 861.137,511.246 
		861.137,511.486 861.137,511.726 861.377,511.726 861.617,511.486 861.856,511.726 861.856,511.966 862.098,512.207 
		861.856,512.446 862.098,512.687 862.337,512.687 862.577,512.446 862.816,512.446 863.057,512.687 863.057,512.926 
		863.057,513.167 863.057,513.407 863.297,513.646 864.018,513.407 864.497,513.167 864.737,513.167 864.978,512.926 
		864.978,512.446 865.217,512.446 865.697,512.446 865.938,512.446 865.938,512.207 866.177,511.966 866.657,512.207 
		866.657,512.446 866.177,512.687 865.938,512.687 865.938,513.167 866.177,513.167 866.417,513.167 866.417,513.407 
		866.417,513.646 865.938,513.887 865.697,514.126 865.697,514.367 866.177,514.606 866.417,514.847 866.657,514.847 
		866.897,514.847 867.137,514.606 867.377,514.847 867.617,514.847 867.617,515.087 868.337,516.047 868.577,516.047 
		868.816,516.047 869.057,515.807 869.537,515.327 869.537,515.087 869.777,515.327 869.777,515.567 869.777,515.807 
		869.777,516.047 869.537,516.047 869.297,516.047 869.057,516.287 869.057,516.527 869.057,516.767 869.297,517.007 
		869.297,517.247 869.537,517.247 869.777,517.247 870.018,517.247 870.257,517.247 870.497,517.247 870.737,517.247 
		870.978,517.247 871.217,517.007 871.217,516.767 870.978,516.287 871.217,516.047 871.457,516.047 871.457,515.807 
		871.457,516.047 871.697,516.047 871.938,516.287 871.938,516.527 871.938,516.767 872.177,516.767 872.417,516.767 
		872.417,517.007 872.897,516.767 873.137,516.527 873.137,516.287 873.137,515.807 873.377,515.567 873.377,515.327 
		873.617,515.087 873.856,515.087 874.098,515.087 874.098,515.327 874.098,515.567 873.856,515.807 873.617,516.047 
		873.856,516.287 874.337,516.287 874.577,516.287 874.577,516.047 874.816,515.567 875.057,515.327 875.297,515.087 
		875.537,514.847 875.777,514.606 876.018,514.606 876.257,514.847 876.257,515.087 876.018,515.327 875.777,515.327 
		875.537,515.807 875.537,516.047 875.537,516.287 876.257,516.527 876.497,516.527 876.736,516.527 876.978,516.287 
		877.217,516.047 877.217,515.807 877.457,515.807 877.697,515.807 877.697,516.047 877.697,516.287 877.938,516.287 
		878.177,516.287 878.177,516.047 878.177,515.567 877.938,515.327 877.697,515.327 877.457,515.327 877.217,515.327 
		876.978,515.327 876.978,515.087 877.217,514.847 877.457,514.847 877.697,515.087 877.697,514.847 877.938,514.847 
		878.177,514.606 878.417,514.367 878.417,514.126 878.657,514.367 878.897,514.367 879.377,514.367 879.617,514.606 
		879.377,514.847 879.617,515.087 879.856,515.087 880.098,514.847 880.337,514.847 880.337,515.087 880.098,515.327 
		879.856,515.567 880.098,515.567 880.098,515.807 880.337,515.807 880.577,515.327 880.816,515.327 880.816,515.567 
		880.816,516.047 880.816,516.287 881.057,516.527 881.297,516.287 881.297,515.807 881.297,515.567 881.777,515.567 
		882.018,515.327 882.257,515.327 882.497,515.087 882.736,515.087 882.978,515.087 883.457,515.087 883.697,515.087 
		883.697,515.327 883.938,515.327 884.177,515.327 884.177,515.807 883.938,515.807 883.697,515.807 883.457,515.807 
		883.457,516.047 883.457,516.287 883.697,516.287 883.938,516.287 884.177,516.287 884.417,516.287 884.657,516.287 
		884.897,516.287 884.897,516.767 884.897,519.167 884.897,519.407 884.897,519.647 885.137,520.607 885.137,521.088 
		885.137,521.328 885.137,521.568 885.137,521.808 885.137,522.288 885.137,522.528 885.137,522.768 885.137,523.248 
		885.137,523.728 885.137,523.968 885.137,524.448 885.137,524.928 885.137,525.168 885.137,525.408 885.377,525.889 
		885.377,526.608 885.377,526.849 885.377,527.089 885.377,527.329 885.377,527.569 885.377,528.049 885.377,531.169 
		885.617,531.649 885.617,532.37 885.617,532.85 885.617,534.29 885.617,534.77 885.617,535.01 885.856,537.17 885.856,537.89 
		885.856,538.371 885.856,538.61 885.856,539.331 885.856,540.771 885.856,541.491 886.098,544.611 886.098,545.332 
		886.098,547.492 886.098,547.972 886.337,548.932 886.337,550.372 886.337,551.092 886.337,551.333 886.337,552.053 
		886.337,552.533 886.577,554.693 886.577,556.373 886.577,557.093 886.577,557.333 886.577,557.573 886.577,558.053 
		886.577,558.534 886.816,561.654 886.816,561.894 886.816,563.334 886.816,564.054 886.816,564.535 886.816,564.774 
		887.057,565.734 887.057,565.975 887.057,566.455 887.057,566.695 887.057,566.935 887.057,568.855 887.057,569.095 
		887.297,571.496 887.297,571.976 887.297,572.696 887.297,572.936 887.297,573.176 887.297,573.416 887.297,573.656 
		887.297,573.896 887.297,574.376 887.297,575.576 887.297,575.816 887.537,577.497 887.537,577.977 887.537,578.937 
		887.537,579.417 887.537,580.377 887.777,582.297 887.777,583.978 887.777,584.458 887.777,586.858 887.777,587.338 
		888.018,588.538 888.018,589.018 888.018,589.979 888.018,590.458 888.018,591.659 888.018,592.139 888.018,592.619 
		888.257,595.259 888.257,595.979 888.257,598.62 888.497,598.86 888.497,599.1 888.497,599.34 888.978,599.1 889.457,599.34 
		889.697,599.58 889.938,599.82 889.938,600.06 890.177,600.3 890.177,600.54 890.417,601.02 890.657,601.26 891.377,602.46 
		891.617,602.7 891.856,602.94 892.577,603.42 893.057,603.661 893.297,603.661 893.537,603.9 893.537,604.141 893.777,604.381 
		894.018,604.621 894.257,604.381 894.736,604.381 894.978,604.381 894.978,604.621 894.978,605.101 895.217,605.341 
		895.697,605.581 895.697,606.061 895.697,606.301 895.938,606.781 896.177,606.781 896.417,607.021 896.417,607.261 
		896.417,607.501 896.417,607.981 896.656,608.221 896.656,608.461 897.377,608.941 897.856,608.941 898.097,609.181 
		898.097,609.421 898.097,609.662 898.337,609.901 898.577,610.142 898.577,610.381 898.816,610.381 898.816,610.862 
		898.816,611.102 898.816,611.342 898.577,611.582 898.577,612.062 898.816,612.542 899.057,612.782 899.297,613.502 
		899.297,613.742 899.297,613.982 899.537,613.982 899.777,614.222 900.018,614.222 900.018,614.462 900.018,614.702 
		900.018,615.182 899.537,615.663 899.297,615.902 899.057,615.902 899.057,616.143 899.057,616.382 899.057,616.623 
		899.297,617.103 899.537,617.583 899.537,618.543 899.537,619.023 899.297,619.023 899.057,619.023 899.057,618.783 
		898.577,619.503 898.577,619.743 898.577,619.983 898.816,620.463 899.297,621.423 899.297,621.663 899.537,621.903 
		899.537,622.144 900.497,623.104 900.978,623.583 901.457,623.583 902.417,623.583 902.656,623.583 902.897,623.583 
		903.137,623.583 903.137,623.824 903.137,624.063 903.377,624.063 903.617,624.063 903.856,624.304 903.856,624.544 
		903.856,625.024 903.617,625.264 903.617,625.504 903.377,625.744 903.137,625.744 903.137,625.984 902.897,625.984 
		902.897,626.224 902.897,626.464 903.137,626.704 904.816,627.904 905.057,627.904 905.297,628.145 905.297,628.625 
		905.057,629.104 905.057,629.584 905.297,629.584 905.537,629.584 905.777,629.825 906.257,630.064 906.497,630.064 
		906.497,630.305 906.736,630.305 906.736,630.785 906.736,631.265 906.978,631.265 906.736,631.505 906.978,631.745 
		906.978,631.985 907.217,631.985 907.217,632.225 906.978,632.225 906.978,632.465 906.978,632.705 906.736,633.185 
		906.497,633.665 906.018,634.865 906.257,635.105 906.257,635.345 906.736,635.345 906.978,635.585 907.697,636.306 
		907.938,636.786 908.417,637.026 908.656,636.786 908.897,636.786 909.377,636.786 909.617,637.266 909.617,637.506 
		909.617,637.746 909.617,638.226 909.617,638.706 909.617,638.946 909.856,638.946 910.097,639.186 910.097,639.426 
		910.097,639.666 910.097,640.386 910.337,641.586 910.576,641.827 910.576,642.066 911.057,642.307 911.297,642.307 
		911.537,642.307 911.777,641.827 911.777,641.586 912.017,641.586 912.257,641.346 912.497,641.106 912.736,641.106 
		913.457,641.106 913.457,641.346 913.697,641.346 913.457,641.827 913.457,642.066 913.457,642.546 913.217,642.787 
		912.978,643.027 912.978,643.507 913.217,643.747 913.217,643.987 913.217,644.227 913.457,644.467 913.217,644.947 
		912.978,645.427 912.978,645.667 912.978,645.907 912.978,646.147 913.217,646.627 913.457,646.867 913.938,647.107 
		914.177,647.347 914.177,647.587 914.177,647.827 913.938,648.067 913.938,648.308 914.417,649.027 914.656,649.268 
		914.656,649.508 914.656,649.748 913.697,650.708 912.978,650.948 912.497,650.708 912.497,650.948 912.257,650.948 
		912.257,651.188 912.257,651.668 912.497,652.389 912.736,652.628 913.217,652.868 913.697,653.348 914.177,653.589 
		914.417,654.309 914.417,654.789 914.177,655.028 913.697,655.269 913.457,655.269 913.217,655.509 913.217,655.748 
		913.217,655.989 913.217,656.229 912.978,656.709 912.736,656.709 912.736,656.948 912.736,657.669 912.978,657.909 
		913.217,657.909 913.217,658.148 913.217,658.869 913.217,659.35 913.217,659.59 913.457,659.829 913.457,660.069 913.457,660.31 
		913.217,661.27 912.978,661.51 912.736,661.51 912.497,661.75 912.017,661.989 912.017,662.229 912.017,662.47 912.017,662.949 
		911.777,663.43 911.777,663.67 911.057,664.15 911.057,664.39 910.816,664.63 910.576,664.87 910.576,665.11 910.816,665.11 
		911.057,665.59 911.057,665.83 911.057,666.07 910.816,666.311 910.816,666.551 910.576,667.03 910.576,667.271 910.576,667.511 
		910.337,668.23 910.097,668.471 909.856,668.71 909.617,668.71 909.377,668.71 909.137,668.71 908.656,669.431 908.417,669.431 
		907.938,670.391 907.938,670.871 907.938,671.352 907.938,671.591 907.938,671.831 907.938,672.071 908.177,672.311 
		908.177,672.552 908.177,672.791 907.938,673.031 907.697,673.031 907.457,673.031 906.736,673.271 906.257,673.752 
		906.018,673.991 906.018,674.231 906.018,674.472 906.257,674.952 906.018,675.672 905.777,675.912 905.537,675.912 
		905.537,676.152 906.018,676.392 906.257,676.632 906.736,676.872 906.736,677.111 906.978,677.353 906.978,677.592 
		906.978,678.072 906.736,678.312 906.978,678.792 906.978,679.272 907.217,679.272 907.217,679.512 907.217,679.752 
		907.457,680.232 907.697,680.952 907.697,681.192 907.697,681.673 907.457,681.673 906.736,682.152 906.497,682.633 
		906.018,683.113 906.018,683.353 905.777,683.593 905.537,683.593 905.297,683.593 905.297,683.833 905.057,683.833 
		905.057,684.073 905.057,684.313 905.297,685.033 905.297,685.273 905.297,685.754 905.297,685.993 905.057,686.233 
		905.057,686.714 904.816,686.953 905.057,687.193 905.777,687.914 906.018,688.154 906.018,688.394 906.257,688.394 
		906.497,688.634 906.736,688.634 906.978,688.873 907.217,688.873 907.457,688.873 907.457,689.114 907.697,689.114 
		907.697,689.354 907.697,689.594 907.697,689.834 907.697,690.073 907.697,691.034 907.697,691.273 907.938,691.515 
		907.938,691.754 907.697,691.994 907.457,692.475 907.457,692.955 907.217,692.955 907.217,693.435 907.457,694.395 
		907.697,694.875 907.938,695.114 908.177,695.354 908.177,695.595 908.177,695.835 908.417,696.314 908.656,696.555 
		908.897,697.035 908.656,697.275 908.417,697.275 908.417,697.515 908.417,697.755 908.417,697.995 908.417,698.475 
		908.177,698.715 907.938,698.955 907.938,699.195 907.457,699.676 907.217,699.676 906.978,699.915 906.978,700.155 
		906.978,700.396 907.217,700.396 907.697,700.876 907.938,700.876 908.177,700.876 908.177,701.115 908.417,701.115 	"/>
	
		<polyline clip-path="url(#SVGID_2_)" fill="none" stroke="#B37C34" stroke-width="0.24" stroke-linecap="round" stroke-linejoin="round" stroke-miterlimit="3.85" points="
		908.417,701.115 908.656,701.115 908.656,701.355 908.656,701.596 908.417,701.596 908.177,701.596 907.697,701.836 
		907.457,701.836 907.217,702.076 907.217,702.315 906.978,702.556 906.736,702.796 906.736,703.276 906.736,703.516 
		906.497,703.756 906.257,703.996 905.777,704.477 904.816,704.956 904.816,705.196 904.577,705.437 904.097,706.637 
		903.856,707.117 903.617,708.317 903.617,709.037 903.377,709.277 902.897,710.478 902.656,710.957 901.938,711.918 
		901.938,712.157 901.697,712.157 901.457,712.397 901.217,712.877 900.257,713.357 900.018,713.598 899.777,713.598 
		899.297,714.077 899.057,714.318 898.816,714.558 898.577,715.038 898.577,715.519 898.577,715.758 898.816,716.238 
		899.057,716.478 900.018,717.198 900.257,717.198 900.497,717.678 900.497,717.919 900.257,718.158 900.497,718.398 
		900.497,718.639 901.217,718.878 901.457,718.878 901.938,719.599 903.137,721.279 902.417,721.999 901.697,722.239 
		900.736,722.239 898.816,721.999 897.617,721.999 895.938,721.999 895.697,721.999 895.457,721.999 895.217,722.239 
		893.057,722.719 889.457,724.159 879.377,729.2 878.657,729.439 877.697,729.92 874.816,731.36 874.577,731.36 872.897,732.32 
		872.657,732.32 870.257,733.521 869.537,734.001 868.577,734.481 868.337,734.481 868.098,734.721 866.897,735.44 866.657,735.44 
		866.657,735.682 865.457,736.401 864.978,736.641 864.737,736.881 864.497,737.121 863.777,737.602 863.297,738.081 
		862.577,739.281 862.337,740.002 861.617,740.002 860.897,740.481 860.417,740.481 860.177,740.481 859.938,740.481 
		859.938,740.242 859.938,739.762 860.657,738.802 861.137,738.321 861.617,737.842 861.856,737.602 862.337,737.121 
		862.577,736.881 862.816,736.641 863.297,736.401 864.257,734.721 864.257,734.481 864.737,734.24 864.978,734.001 
		865.457,734.001 865.938,734.24 866.897,734.24 867.856,733.761 868.337,733.281 868.337,732.561 868.337,732.32 868.577,732.081 
		869.057,731.36 869.537,731.12 870.257,731.12 870.497,731.36 871.217,731.84 872.177,731.601 872.897,731.36 872.417,730.4 
		872.177,730.4 871.457,730.16 871.457,729.92 870.737,728.96 870.497,728.96 870.018,728.72 869.297,728.96 869.057,729.2 
		868.337,729.681 866.897,730.16 866.417,730.16 865.938,730.4 864.978,730.64 863.777,730.881 863.777,731.12 862.577,731.36 
		861.617,731.601 860.657,731.84 860.177,731.84 859.697,731.601 859.457,731.12 859.217,730.64 859.697,730.4 859.938,730.64 
		860.177,730.64 860.417,730.16 860.657,729.681 860.897,729.439 861.617,728.72 861.856,728.48 862.098,727.76 862.816,726.319 
		863.057,725.6 863.057,725.119 863.057,724.88 863.057,724.159 863.297,723.68 863.297,722.959 863.297,722.719 863.297,722.239 
		863.297,721.999 863.297,721.279 863.297,721.039 863.057,721.039 862.816,720.078 862.337,719.358 861.856,718.639 
		861.856,718.398 861.377,717.919 861.137,717.919 860.897,717.919 860.657,717.919 860.417,718.158 859.697,718.639 
		858.737,718.878 858.257,719.119 857.537,719.599 857.537,719.839 857.297,720.078 856.098,721.519 855.856,721.999 
		855.617,722.479 855.377,722.719 855.377,722.959 855.377,723.68 855.137,724.159 854.177,724.64 853.217,725.119 852.978,724.88 
		852.497,724.399 852.497,724.159 852.257,724.159 852.257,723.919 852.257,723.439 852.018,723.199 851.777,722.959 
		851.297,722.959 850.817,722.719 850.337,723.68 850.098,723.919 849.857,724.159 849.617,724.399 849.137,724.88 848.897,725.119 
		848.657,725.6 848.657,725.84 848.417,726.08 848.657,726.319 848.657,726.56 848.897,727.04 849.377,727.28 849.617,727.28 
		849.617,727.52 849.857,727.52 849.857,727.76 850.098,728 850.098,728.239 849.857,728.48 849.857,728.72 849.617,728.72 
		849.137,729.439 849.137,729.681 848.897,729.681 848.657,730.4 848.657,730.64 848.657,730.881 848.657,731.36 848.897,731.601 
		849.377,732.32 850.098,732.801 850.337,732.801 851.297,733.04 851.537,733.281 851.777,733.281 852.737,733.281 852.978,733.281 
		853.697,733.521 853.697,734.001 853.457,734.001 853.457,734.24 852.978,734.961 852.737,735.921 853.217,736.161 
		853.457,736.161 854.657,736.881 854.897,737.602 854.897,737.842 854.897,738.562 854.897,739.041 854.897,739.281 
		854.897,739.762 855.137,740.242 855.137,740.481 854.897,740.722 854.897,740.962 854.657,741.922 854.657,742.402 
		854.897,743.362 854.897,743.603 854.897,743.843 855.137,743.843 855.137,744.082 855.377,744.082 855.617,744.322 
		856.098,744.322 856.337,744.082 856.817,744.082 858.018,743.603 858.018,743.122 858.018,742.643 858.018,741.442 
		858.497,740.962 859.217,741.442 859.938,741.922 860.177,741.922 860.417,741.922 861.617,741.922 861.617,741.682 
		862.337,741.682 862.816,741.922 862.337,741.922 860.657,743.603 860.177,744.082 859.938,744.322 859.457,744.563 
		858.978,744.802 858.737,745.043 858.257,745.522 858.018,745.522 858.018,745.763 857.777,746.002 857.297,746.243 
		856.098,747.202 855.617,747.443 854.897,747.923 853.457,748.883 853.457,749.123 852.737,749.363 851.537,750.323 
		851.057,750.563 851.057,750.803 848.897,752.244 846.737,754.164 846.497,754.404 846.257,754.404 845.537,755.124 
		845.057,755.604 844.817,755.844 844.817,756.084 844.577,756.324 844.577,756.805 841.697,758.965 841.457,759.205 
		839.297,761.125 838.817,761.605 837.857,762.564 836.657,764.006 836.177,764.485 834.978,765.206 834.018,765.926 
		833.057,767.126 833.057,767.365 832.817,767.847 831.137,768.086 830.177,768.326 829.697,768.565 828.257,769.286 
		828.018,769.526 827.057,770.247 825.617,771.206 824.418,771.927 824.177,772.166 823.938,772.406 822.497,773.127 
		822.018,773.367 818.418,775.768 817.457,776.247 812.897,779.128 810.978,780.088 809.537,780.809 807.857,781.528 
		805.217,782.969 804.257,783.448 803.058,783.929 802.577,784.169 801.857,784.648 800.657,785.129 795.137,788.249 
		793.938,788.729 793.697,788.969 792.978,789.449 792.978,789.689 791.777,790.41 790.098,791.61 789.377,792.33 789.138,792.569 
		788.418,792.811 786.978,794.011 787.217,794.49 786.737,794.73 786.737,794.49 786.498,794.25 786.737,793.77 786.978,793.53 
		788.418,792.09 788.657,791.85 789.857,791.13 791.297,789.93 791.537,789.689 791.777,789.449 792.498,789.21 792.737,789.21 
		793.938,788.489 794.177,788.249 794.177,787.769 797.537,785.849 799.457,785.129 802.098,783.448 802.817,783.448 
		803.777,782.729 804.978,782.488 804.978,782.008 804.978,781.528 804.978,780.568 805.217,780.088 804.737,779.848 
		804.257,779.607 804.018,779.848 803.777,780.088 803.537,780.088 803.058,780.088 802.577,780.088 802.338,780.088 
		801.857,780.088 801.857,780.328 801.617,780.328 801.377,780.568 800.897,781.048 799.938,781.528 799.457,781.528 
		797.537,782.248 797.297,782.248 795.377,783.209 794.897,783.688 793.938,783.929 793.457,783.929 793.217,783.209 
		793.217,782.969 793.697,782.729 794.177,782.248 794.177,781.769 793.457,780.809 794.418,779.607 794.177,779.607 
		795.137,778.407 795.137,777.928 794.897,777.688 794.657,777.688 794.418,777.688 793.938,777.688 793.697,777.688 
		793.457,777.928 793.217,777.928 792.737,778.168 792.018,778.647 791.777,778.647 791.537,778.407 790.577,778.647 
		789.857,779.368 789.857,779.848 789.857,780.568 789.857,780.809 789.138,780.809 788.657,781.048 786.737,781.769 
		786.498,782.008 786.257,782.248 781.938,784.648 781.457,784.889 781.697,784.409 781.697,783.448 781.457,782.969 
		781.217,782.729 780.257,782.488 780.978,782.008 780.978,781.769 780.737,781.288 780.498,781.288 780.018,781.288 
		779.777,781.048 779.537,781.048 778.817,781.048 778.577,780.809 778.098,780.809 777.857,781.048 777.617,780.809 
		777.377,779.848 777.377,779.368 777.857,778.647 777.857,778.407 777.857,778.168 777.617,778.168 777.138,777.928 
		776.897,777.928 776.897,777.688 776.897,777.447 776.897,777.207 776.658,776.968 776.658,776.728 776.418,776.728 
		776.178,776.728 775.457,776.968 775.218,777.207 774.737,777.207 774.498,777.447 774.257,777.447 774.018,777.447 
		773.777,777.688 773.297,777.928 773.058,778.407 773.297,778.888 774.018,779.368 774.498,779.848 774.498,780.088 
		774.498,780.328 774.498,780.568 774.737,780.809 774.978,780.809 775.218,781.048 775.457,781.048 775.457,781.288 
		775.457,781.528 775.218,782.008 774.978,782.008 774.978,782.248 774.978,782.488 775.218,782.488 775.218,782.729 
		775.218,783.209 775.457,783.448 775.457,783.688 775.457,783.929 775.457,784.169 775.697,784.169 776.178,784.169 
		776.418,784.169 777.377,784.169 777.857,784.409 777.857,784.648 777.857,784.889 778.098,784.889 778.817,785.369 
		779.058,785.369 779.058,785.609 779.537,785.609 779.777,785.609 779.777,785.849 780.018,786.329 780.257,786.81 
		780.498,787.289 780.978,787.529 781.217,787.529 781.697,788.01 782.657,788.489 783.138,788.969 784.817,790.169 
		785.058,790.649 785.297,790.649 785.297,790.89 785.297,791.13 785.537,791.13 785.537,791.369 785.537,791.61 785.297,791.61 
		784.817,791.85 782.897,792.811 782.178,793.29 781.938,793.53 780.737,794.011 780.498,794.25 780.018,794.25 779.297,794.49 
		779.058,794.73 778.338,795.21 777.857,795.69 777.377,795.931 776.658,796.17 776.418,796.41 774.018,796.891 773.058,797.61 
		772.098,796.891 771.857,796.891 771.857,797.131 771.377,796.891 771.617,795.69 771.377,794.011 771.138,793.77 770.897,793.77 
		770.658,793.77 769.218,793.77 768.737,793.53 768.498,793.53 768.018,793.77 768.018,794.011 767.777,794.25 767.297,794.97 
		767.297,795.931 767.297,796.17 767.297,796.891 767.297,797.61 767.537,798.331 767.297,798.57 767.297,798.811 766.817,799.771 
		766.577,800.011 766.817,800.491 767.058,800.972 767.777,801.932 767.777,802.172 767.058,803.611 766.577,803.852 
		766.098,804.572 765.377,805.052 765.138,805.292 764.897,805.292 764.418,805.772 763.698,806.252 763.457,806.492 
		762.978,806.731 762.498,807.452 762.258,807.692 762.018,807.692 761.298,808.652 760.817,809.132 759.617,809.132 
		758.657,808.652 757.938,808.412 757.698,808.412 757.457,808.412 757.218,808.412 756.498,809.132 756.498,809.373 
		756.498,809.853 756.738,809.853 756.738,810.093 756.498,810.332 756.258,810.573 756.258,811.053 756.018,811.293 
		756.018,811.772 756.258,812.493 756.258,812.732 756.498,813.453 756.498,813.934 756.258,813.934 756.018,814.173 
		755.537,814.413 755.537,814.653 755.058,815.613 755.058,815.854 754.577,816.094 754.338,816.334 753.857,817.054 
		753.617,817.534 753.377,817.773 753.138,818.254 752.657,819.214 752.418,819.693 752.178,819.935 751.938,819.935 
		751.698,820.894 751.457,821.135 751.218,821.374 750.738,822.094 750.498,822.335 750.018,823.535 749.777,823.535 
		749.298,824.494 749.298,824.735 749.298,825.215 749.058,825.215 748.817,825.215 748.577,825.215 748.098,825.215 
		747.857,825.215 747.617,825.215 747.377,825.215 747.377,824.975 747.377,824.735 747.377,824.494 747.377,824.255 
		747.138,824.255 746.897,824.015 746.897,823.775 746.657,823.535 746.657,823.294 746.657,823.055 746.418,823.055 
		746.418,822.814 746.178,822.335 745.457,822.335 745.457,822.094 745.218,822.094 744.978,822.094 744.498,822.335 
		744.258,822.335 744.018,822.335 743.777,822.335 743.777,822.574 743.537,822.574 743.058,822.814 742.577,822.814 
		742.577,823.055 742.098,823.294 741.617,823.535 741.138,824.015 740.897,823.775 740.897,824.015 740.178,824.494 
		740.178,824.735 739.457,825.936 739.457,826.175 739.457,827.375 739.457,827.615 739.698,827.855 739.698,828.095 
		739.698,828.335 739.938,828.335 740.178,828.815 740.418,829.056 740.418,829.295 740.657,829.775 740.897,829.775 
		741.377,830.256 741.617,830.496 741.857,830.496 742.818,830.976 743.058,831.216 743.298,831.216 743.537,831.216 
		743.777,831.216 744.738,831.456 745.938,831.936 746.178,831.936 746.178,832.176 745.938,832.896 745.698,832.896 
		745.457,832.896 745.218,833.616 745.218,833.856 744.978,834.097 744.978,834.336 744.978,834.576 744.738,834.816 
		744.498,835.536 744.498,835.776 744.258,836.017 744.258,836.257 744.258,836.497 744.018,836.736 744.018,836.977 
		744.018,837.217 744.258,837.457 744.018,837.697 744.018,837.937 743.537,838.177 743.058,838.657 742.818,839.137 
		742.338,841.057 742.098,841.538 741.857,842.257 741.617,843.698 741.377,844.657 740.897,845.139 740.657,846.578 
		740.897,847.059 740.657,847.778 740.418,848.258 739.457,850.898 739.457,851.379 739.218,851.619 738.978,852.099 
		738.498,852.339 738.018,852.579 737.058,852.579 735.617,853.299 734.418,854.499 733.218,854.499 732.738,854.02 
		732.498,853.779 732.978,853.779 733.457,853.779 733.698,853.299 733.938,853.06 734.418,853.06 734.897,852.819 734.657,852.099 
		734.657,851.859 735.378,851.14 735.378,850.419 735.378,850.179 734.657,849.698 733.938,849.939 733.698,850.419 
		732.978,851.379 731.298,852.339 730.818,852.819 729.617,854.02 728.897,854.02 728.418,854.02 728.178,854.26 728.178,854.979 
		728.178,855.699 728.418,856.18 728.657,856.42 730.098,856.42 730.818,856.42 731.298,856.42 731.777,856.9 732.738,857.14 
		733.938,856.9 734.418,856.66 734.657,856.42 734.897,856.18 735.378,855.939 736.338,855.699 736.818,855.46 737.058,855.22 
		738.498,855.22 738.498,855.46 738.018,858.34 737.537,861.46 737.537,862.901 737.058,863.141 737.058,863.381 737.058,863.86 
		736.818,864.102 736.098,863.86 735.857,863.621 735.378,863.86 735.138,864.102 735.138,865.061 736.098,865.781 735.857,865.781 
		735.617,866.021 735.617,866.261 735.617,867.222 736.098,867.461 736.098,867.702 736.098,867.941 736.098,869.142 
		735.857,869.382 735.617,869.142 735.378,869.142 734.897,869.142 733.457,869.142 733.218,869.142 732.498,869.382 
		732.258,869.861 732.498,870.342 732.738,871.062 732.498,871.782 732.258,872.022 732.258,872.502 732.978,874.183 
		733.218,874.423 732.738,874.902 732.498,875.143 732.498,875.863 732.498,876.103 732.498,876.343 732.258,876.343 
		732.258,876.823 732.018,877.543 732.498,878.503 732.738,878.503 733.218,878.503 734.657,879.703 735.857,881.864 
		736.098,882.104 736.577,882.104 736.577,883.064 736.818,884.504 737.777,888.585 737.777,890.025 738.018,890.505 
		738.258,891.226 738.498,891.465 738.738,891.705 738.738,891.945 739.218,892.905 739.218,893.386 738.978,894.105 
		738.978,894.585 738.738,894.826 738.498,895.306 738.738,896.026 738.738,896.266 738.738,896.506 738.738,896.985 
		738.498,897.466 738.018,897.466 738.018,898.186 738.258,898.427 738.978,898.666 739.218,898.666 739.218,898.427 
		739.457,898.666 739.457,899.386 739.218,900.106 739.218,900.347 739.938,900.586 740.178,900.586 740.418,900.347 
		740.418,900.106 740.897,900.347 741.138,900.586 741.617,901.307 741.377,902.027 740.657,902.986 740.657,904.187 
		740.657,904.667 740.897,904.667 741.377,904.427 741.617,904.187 741.617,903.707 742.098,903.467 742.818,903.228 
		743.058,903.228 743.298,903.467 743.537,903.707 743.298,904.187 743.298,904.667 742.818,904.907 742.577,905.387 
		742.338,905.627 742.577,905.627 742.818,905.627 742.818,906.588 742.818,906.827 742.818,908.027 743.058,908.027 
		743.058,908.268 743.298,908.268 743.537,908.268 743.537,908.027 744.018,907.788 744.498,907.788 744.738,908.748 
		744.738,908.988 744.018,909.708 744.018,910.188 744.978,911.628 745.218,911.628 745.457,912.108 745.218,912.589 
		744.978,913.309 744.738,913.789 745.218,914.269 745.218,914.749 745.938,915.469 745.938,915.948 745.457,916.189 
		745.457,916.43 745.457,916.669 745.698,916.669 745.698,916.909 745.938,916.909 745.938,917.148 746.178,917.39 746.657,917.63 
		747.617,917.869 747.857,917.869 748.577,917.869 749.058,917.869 749.537,917.869 749.777,918.109 750.018,918.109 
		750.018,918.349 750.018,918.59 750.258,919.549 750.258,920.03 749.777,920.51 749.298,920.51 748.817,920.749 748.817,920.989 
		749.058,922.431 749.298,922.67 749.777,922.67 750.258,922.67 751.218,922.189 751.698,921.71 751.938,921.47 751.938,920.989 
		751.457,919.79 750.978,919.79 750.978,919.31 751.698,918.83 752.418,918.83 752.178,920.03 752.418,921.23 752.657,922.91 
		752.657,923.631 752.657,923.87 752.657,924.59 752.178,924.831 751.938,924.831 751.698,924.351 751.218,924.11 750.738,924.351 
		749.777,924.351 749.298,924.351 748.817,924.351 748.098,924.59 747.857,924.831 747.857,925.07 747.377,925.07 746.418,924.831 
		746.178,925.07 746.418,925.79 746.178,925.79 745.698,925.79 745.218,925.551 744.498,926.031 744.258,926.031 744.018,926.271 
		743.777,926.271 743.537,926.511 742.818,926.271 742.098,926.751 742.098,926.99 741.857,927.231 741.857,927.471 
		742.098,927.471 742.098,927.711 742.098,928.19 742.338,928.432 742.338,928.911 742.577,929.391 742.338,930.111 
		742.338,930.352 741.857,930.831 740.897,931.071 739.457,930.831 739.218,930.831 738.978,930.591 738.498,930.352 
		738.258,930.352 738.258,930.111 738.258,929.871 738.258,929.151 738.018,928.911 737.777,928.911 737.537,928.671 
		737.298,928.671 736.577,928.911 736.338,928.911 736.098,928.911 735.857,928.911 734.657,928.432 734.657,928.19 	"/>
	
		<polyline clip-path="url(#SVGID_2_)" fill="none" stroke="#B37C34" stroke-width="0.24" stroke-linecap="round" stroke-linejoin="round" stroke-miterlimit="3.85" points="
		734.657,928.19 734.418,927.471 734.178,926.751 733.698,926.751 733.457,926.511 733.457,926.271 733.457,926.031 732.978,925.79 
		732.738,926.031 731.777,925.79 731.777,925.311 731.777,924.831 731.058,924.831 730.577,923.87 730.338,923.631 730.098,923.39 
		729.617,922.91 729.617,922.67 729.138,922.431 728.897,922.431 728.897,922.189 728.657,922.189 728.657,921.949 728.657,921.71 
		728.418,921.47 727.938,921.47 727.698,921.47 727.457,921.47 727.457,921.23 726.498,921.23 726.258,921.23 725.777,920.989 
		725.537,920.749 725.058,920.989 724.818,920.989 724.577,920.989 724.338,920.989 723.138,920.749 722.897,920.749 
		722.897,920.51 722.657,920.27 722.418,920.27 722.178,920.27 721.938,920.51 721.698,920.27 721.458,920.27 721.458,920.03 
		721.458,919.79 721.458,919.549 721.218,919.31 720.978,919.31 720.738,919.549 720.258,919.549 720.018,919.549 719.777,919.549 
		719.777,919.79 719.537,919.79 718.818,919.79 718.577,919.79 718.338,919.79 718.098,919.79 717.857,919.549 717.378,919.31 
		716.897,919.069 716.178,919.31 716.178,919.549 715.698,919.549 714.738,919.79 714.258,919.549 714.018,919.31 713.298,919.79 
		713.058,920.03 712.818,919.79 712.577,919.549 712.577,919.31 712.338,919.069 711.138,919.31 710.897,919.31 710.418,919.069 
		710.178,919.069 709.938,919.549 709.938,920.03 709.698,920.51 708.979,920.27 708.258,920.27 708.258,920.03 708.018,919.79 
		707.777,919.069 707.777,918.83 707.538,918.83 707.538,919.069 707.538,919.31 707.298,919.549 707.058,919.549 706.818,919.549 
		706.577,919.069 705.617,919.31 705.378,919.31 705.378,919.549 704.657,920.03 704.418,920.03 704.418,919.79 704.178,919.549 
		703.938,919.31 703.698,919.31 703.458,919.069 703.218,919.069 702.979,918.83 702.498,919.31 702.258,919.79 702.019,919.79 
		702.019,919.549 701.777,919.31 701.058,918.59 700.578,918.59 700.338,918.59 700.098,918.83 699.617,918.83 698.897,918.349 
		698.897,918.109 698.418,917.869 698.178,917.63 698.178,917.39 698.418,917.148 698.657,917.148 698.657,916.909 698.657,916.669 
		698.657,916.43 698.418,916.43 698.178,916.43 697.698,916.43 697.218,916.43 696.979,916.669 696.979,916.909 696.738,916.909 
		696.498,916.669 696.258,916.43 696.019,916.43 695.538,915.469 695.298,914.749 695.298,914.509 695.538,914.509 695.538,914.269 
		695.538,914.028 695.298,914.028 694.818,914.028 694.578,914.749 693.378,914.509 692.897,914.509 692.897,914.269 
		692.657,913.789 692.178,913.309 692.178,913.068 691.698,913.068 691.458,913.068 690.258,912.108 690.258,911.868 
		690.258,911.389 689.777,911.148 689.058,910.908 688.578,911.148 688.338,911.148 688.338,911.389 687.618,911.389 
		687.378,911.389 687.138,910.908 686.657,910.908 686.418,910.908 686.178,910.908 686.178,911.148 686.178,910.908 
		685.698,910.908 685.698,910.428 685.458,910.428 684.738,910.428 684.498,910.668 684.498,910.428 683.777,910.428 
		683.538,909.948 683.538,909.708 683.298,909.228 682.818,909.228 682.098,909.468 681.857,909.468 681.378,909.468 
		681.139,909.948 680.897,909.948 680.178,910.188 679.458,910.188 678.979,910.188 678.979,909.948 678.979,909.708 
		678.979,909.228 678.979,908.988 678.738,908.988 678.498,908.748 678.019,908.748 677.538,908.268 677.298,908.027 
		677.538,907.788 677.298,907.548 676.818,907.067 676.578,907.067 676.338,907.067 676.098,907.067 675.618,906.827 
		675.618,906.588 675.618,906.107 675.618,905.867 675.618,905.627 675.139,905.627 674.658,905.627 673.938,905.387 
		673.458,905.147 673.218,904.187 673.218,903.947 673.218,903.707 672.738,903.228 672.498,903.228 672.258,903.228 
		671.777,903.228 671.538,903.467 671.298,903.707 671.058,903.707 670.818,903.707 670.578,903.467 670.098,903.467 
		669.857,903.467 669.618,903.707 669.378,903.707 669.139,903.707 668.658,903.947 668.418,903.707 668.178,903.707 
		667.938,903.467 667.698,902.986 667.458,902.986 667.218,902.507 666.979,902.507 666.738,902.747 666.498,902.747 
		666.258,902.986 665.777,902.747 665.777,902.507 665.777,902.268 665.538,901.786 665.298,901.786 665.058,901.786 
		664.338,901.786 664.098,901.786 663.857,901.786 663.139,901.786 662.658,901.547 662.658,901.307 662.418,901.067 
		662.178,901.067 661.938,901.067 661.938,900.827 661.698,900.827 661.458,900.827 661.219,901.067 660.979,901.547 
		660.498,901.786 659.538,901.786 659.298,901.547 659.298,901.067 659.058,901.067 658.818,900.827 658.818,900.586 
		658.098,900.106 658.098,899.867 658.098,899.627 658.578,899.386 658.818,898.427 659.058,897.946 659.058,897.466 
		658.338,896.266 658.098,895.785 657.618,895.065 657.378,895.065 657.378,894.826 657.139,894.826 656.897,894.826 
		656.658,894.826 655.938,894.585 655.458,894.346 655.219,894.105 655.219,893.626 655.458,893.146 655.458,892.665 
		655.458,892.426 654.979,889.785 653.778,887.864 653.538,885.944 653.538,884.265 652.098,883.064 651.857,880.903 
		650.897,879.464 650.658,878.022 650.418,877.543 650.178,877.303 649.458,876.823 648.258,876.823 647.778,876.103 
		648.018,875.383 648.018,874.663 648.018,874.183 647.298,873.702 646.338,873.463 645.858,873.463 645.378,873.223 
		644.898,872.502 644.658,871.782 644.898,871.302 645.378,871.062 645.618,870.822 645.378,870.582 645.138,870.582 
		644.898,870.582 644.178,869.861 644.178,869.382 643.698,868.661 643.458,868.661 642.978,869.142 642.498,868.902 
		642.258,868.422 642.258,868.182 642.258,867.941 642.258,867.702 642.258,866.981 642.018,866.261 642.018,866.021 
		642.498,865.541 642.738,865.541 642.978,864.82 642.978,864.581 642.738,864.341 642.498,863.86 642.738,863.381 642.978,862.901 
		642.978,862.421 642.738,861.94 642.498,861.701 642.738,861.46 642.978,861.221 643.218,860.261 643.218,859.78 642.978,858.58 
		642.498,858.101 642.258,857.62 642.498,857.38 642.498,857.14 642.498,856.42 642.018,855.699 642.018,855.46 641.778,855.46 
		641.538,855.46 641.538,855.22 641.538,855.46 640.578,855.699 640.338,855.699 640.098,855.46 639.858,855.22 640.098,854.499 
		640.338,854.26 640.338,854.02 640.098,853.539 639.858,853.539 639.618,853.299 639.138,853.539 638.658,853.539 638.418,853.299 
		638.178,853.06 637.938,853.06 637.938,852.819 638.178,852.339 638.658,852.339 638.898,852.099 639.378,851.859 639.378,851.619 
		639.378,851.14 639.378,850.898 639.378,850.659 639.618,850.419 639.618,850.179 639.858,849.698 640.098,849.459 
		640.338,847.778 640.338,847.539 640.338,847.298 639.858,846.339 640.098,845.618 640.338,845.139 640.578,844.897 
		640.578,844.657 640.578,844.178 640.578,843.938 640.578,843.698 640.578,843.457 640.098,842.978 639.858,842.978 
		639.618,842.978 639.138,842.978 638.898,842.978 638.898,843.218 638.418,843.218 638.418,842.978 638.658,842.018 
		638.658,841.298 638.658,840.817 638.658,840.577 638.898,840.098 639.138,839.856 639.138,839.617 639.138,839.377 
		639.138,839.137 638.898,839.137 638.658,838.897 638.418,838.657 637.938,837.937 637.938,837.457 637.458,837.217 
		637.218,836.977 636.978,836.977 636.978,837.217 636.738,837.217 636.018,837.457 635.778,837.457 635.778,837.217 
		636.018,837.217 636.018,836.736 635.778,836.497 635.538,836.257 635.298,836.017 635.298,835.536 634.818,835.536 
		634.338,835.536 633.858,835.776 633.858,836.017 633.138,836.257 632.418,836.017 631.938,835.776 631.938,835.536 
		632.178,835.297 632.418,835.057 632.178,834.576 631.698,834.576 631.698,834.336 630.978,834.336 630.258,834.576 
		630.018,834.816 629.778,834.576 629.298,834.097 629.298,833.616 629.058,833.376 628.818,833.136 627.618,831.695 
		627.618,831.456 626.898,830.496 626.418,830.735 626.178,830.735 625.698,830.496 625.458,830.016 625.458,829.056 
		624.978,828.335 624.738,828.335 624.498,828.815 624.018,828.815 623.538,828.815 623.538,828.335 623.538,828.095 
		623.298,827.375 622.818,827.375 622.338,827.136 622.098,826.895 621.858,826.895 621.858,825.694 622.098,825.215 
		622.098,824.975 622.098,824.735 621.858,824.255 621.138,824.015 620.898,823.535 620.658,822.814 620.898,822.335 
		621.138,822.094 621.378,821.614 621.138,821.374 620.898,820.894 620.658,820.894 620.178,820.654 619.698,820.174 
		619.218,819.454 619.218,818.734 619.458,818.014 619.458,817.294 618.018,817.054 617.058,816.813 616.578,816.573 
		616.338,815.854 615.858,814.894 615.618,814.173 615.618,813.693 615.618,813.213 615.378,812.732 614.898,812.253 
		614.178,812.013 613.698,811.772 613.698,811.293 613.698,810.813 613.218,810.332 613.218,810.093 612.738,809.612 
		612.498,808.652 612.018,808.412 610.818,807.932 610.338,807.692 609.618,807.212 608.898,807.212 608.658,807.212 
		608.418,806.973 608.178,806.731 608.178,806.492 607.698,806.252 607.218,806.012 606.979,806.012 606.738,806.012 
		606.499,806.012 606.258,805.772 606.258,805.052 606.019,804.092 606.019,803.852 605.778,803.611 604.818,803.611 
		604.578,803.611 604.098,803.131 603.858,802.892 603.138,801.932 602.898,801.691 602.658,801.211 602.658,800.972 
		602.898,800.011 602.898,799.531 602.898,799.291 601.698,797.61 601.458,797.131 601.458,796.891 600.258,795.69 600.258,795.45 
		600.019,794.73 600.258,794.49 600.258,794.25 600.738,793.29 600.499,792.569 600.499,792.09 600.019,791.61 599.778,791.61 
		599.778,791.369 599.539,791.369 599.298,790.649 599.298,790.41 599.778,790.41 600.019,790.41 600.258,790.169 600.738,789.93 
		600.738,789.449 600.499,789.449 599.539,788.969 598.818,788.969 598.338,788.729 597.618,787.529 597.138,786.81 
		597.618,786.089 597.858,785.369 597.858,785.129 597.858,784.889 597.618,784.889 596.658,784.409 596.418,784.409 
		596.178,784.169 595.458,783.688 595.458,783.209 595.458,782.729 595.698,782.248 595.698,782.008 595.698,781.769 
		595.698,782.008 595.458,782.008 595.218,782.008 594.738,782.008 594.258,781.528 594.019,781.288 594.019,781.048 
		593.539,781.048 593.298,781.048 593.059,780.809 593.059,780.568 592.818,780.088 592.818,779.368 592.578,779.368 
		592.578,779.128 592.578,778.888 592.578,778.407 592.818,778.168 592.818,777.928 592.818,777.688 592.818,777.207 
		592.818,776.728 592.578,776.247 592.338,775.768 591.618,775.287 591.378,774.567 591.618,774.087 591.618,773.847 
		591.618,773.127 591.138,772.166 590.898,771.927 590.658,771.927 590.418,771.927 589.938,771.927 589.698,771.927 
		589.698,771.447 589.938,770.727 589.458,770.486 588.979,770.006 588.738,769.526 588.738,769.286 588.499,768.807 
		588.499,768.326 588.499,768.086 587.778,767.847 587.298,767.847 587.059,767.847 586.818,767.365 586.818,767.126 
		586.818,766.646 586.338,765.686 586.338,765.206 586.338,764.965 586.579,764.485 586.579,764.246 586.579,763.525 
		586.579,763.045 586.338,763.045 586.338,762.806 586.338,762.325 586.099,761.845 585.858,761.125 585.858,760.165 
		585.858,759.685 585.858,758.725 585.618,758.484 585.618,758.244 585.378,757.524 584.898,756.805 584.418,756.564 
		583.698,756.324 582.738,755.844 582.258,755.364 582.258,755.124 582.258,754.884 582.258,754.644 582.019,754.404 
		581.778,754.404 581.298,754.404 581.059,754.164 580.818,753.684 580.579,753.443 580.818,753.203 581.059,752.724 
		581.059,752.244 580.579,751.523 580.099,750.563 579.858,750.563 579.619,750.563 579.619,750.083 579.858,749.844 
		579.858,749.603 579.619,749.603 579.378,749.363 578.898,748.883 578.418,748.644 577.938,748.644 577.698,748.644 
		577.698,748.402 577.218,748.163 576.979,747.923 576.499,747.923 576.019,747.683 575.778,747.683 575.778,747.443 
		575.778,747.202 575.778,746.723 575.539,746.243 575.059,746.002 574.818,746.002 574.579,746.002 574.338,745.522 
		574.099,745.522 573.858,745.282 573.619,745.282 573.619,745.043 573.139,744.802 572.898,744.563 572.898,744.322 
		572.659,744.082 572.418,744.082 571.938,744.082 571.698,743.843 571.458,743.603 570.499,743.122 570.019,743.122 
		569.778,742.882 569.778,742.402 569.298,741.442 568.579,740.962 568.579,740.722 568.579,740.481 568.338,739.521 
		567.858,739.041 567.619,738.081 567.378,737.842 566.418,737.361 565.699,737.361 564.979,737.361 564.258,736.881 
		564.019,737.121 563.778,737.121 563.298,736.881 562.818,736.161 562.579,735.682 562.579,735.44 562.338,734.961 
		561.619,734.721 559.938,734.481 559.458,734.481 558.499,734.481 558.259,734.001 558.259,733.761 558.738,732.801 
		559.219,732.081 559.219,731.84 559.219,730.881 558.979,730.16 558.738,730.16 558.499,729.92 558.259,729.92 557.778,730.16 
		557.539,730.4 557.298,730.64 556.818,731.12 556.338,730.881 556.099,730.64 555.858,730.64 556.099,730.16 556.099,729.439 
		556.338,728.239 556.099,727.76 555.858,727.28 555.378,727.28 554.418,727.28 554.179,727.28 553.699,727.28 553.699,727.04 
		553.458,726.8 553.458,726.319 553.219,726.08 552.979,725.119 552.259,724.159 552.259,723.919 552.259,723.439 552.259,723.199 
		552.019,722.959 551.539,722.719 551.299,722.479 551.299,722.239 551.299,721.999 551.059,721.759 550.818,721.759 
		550.099,721.999 549.858,721.999 549.619,721.759 549.619,721.039 548.898,720.559 548.659,720.559 547.458,721.279 
		546.499,721.519 546.259,721.519 546.019,721.279 545.779,720.318 545.299,719.599 544.579,719.599 544.099,720.559 
		544.099,720.799 543.619,721.039 542.898,720.799 542.659,720.799 542.418,720.799 541.699,720.799 541.458,721.039 
		541.219,721.279 541.219,721.519 540.739,721.759 540.499,721.519 540.259,721.279 540.019,720.799 538.579,720.799 
		537.858,721.279 537.619,721.039 536.659,720.799 535.699,720.318 535.458,720.078 535.219,720.078 534.739,719.839 
		534.259,719.839 534.019,720.078 533.779,720.078 533.299,719.839 533.059,719.599 532.819,719.599 532.099,719.599 
		531.139,719.119 530.659,719.119 530.418,719.119 530.179,719.358 529.938,719.358 529.219,719.119 528.499,719.119 
		528.259,719.358 528.019,719.599 527.539,719.599 527.539,719.358 527.299,719.119 526.819,719.119 526.579,719.119 
		526.339,719.119 525.859,718.639 525.619,718.398 525.139,718.639 524.899,718.878 524.659,718.878 524.179,718.639 
		523.219,718.878 522.739,718.639 522.499,718.878 522.499,719.358 522.019,719.599 521.779,719.599 520.819,719.599 
		520.819,719.358 520.339,719.119 520.099,719.119 519.859,719.119 518.899,719.119 517.699,718.639 516.979,717.919 
		516.979,717.678 516.019,716.238 515.779,716.238 515.779,715.998 515.539,716.238 514.819,716.478 514.339,716.478 
		513.859,716.238 512.419,715.758 512.179,715.758 512.419,715.277 512.179,715.038 511.939,715.038 511.699,715.277 
		511.459,715.277 510.739,714.558 510.499,714.558 509.779,714.318 509.539,714.318 509.299,714.798 509.059,714.798 
		508.579,714.798 508.339,715.277 507.619,715.998 507.619,716.478 507.619,716.719 507.139,717.438 506.899,718.398 
		506.899,719.119 506.419,720.078 506.419,720.318 506.179,720.318 505.699,720.318 505.219,720.078 504.259,719.599 
		503.059,719.358 502.579,719.358 502.099,719.358 501.619,719.119 501.379,719.119 500.659,719.119 500.659,719.358 
		500.419,719.599 500.419,720.078 499.939,720.559 499.459,720.799 499.219,720.799 498.979,720.799 498.739,720.799 
		498.499,720.559 498.259,720.318 498.019,720.318 497.779,720.559 497.539,720.559 497.059,720.799 496.579,720.799 
		495.859,720.799 495.379,721.519 495.139,721.519 494.419,721.519 493.699,721.519 493.219,721.279 493.219,721.039 
		492.739,721.279 492.739,721.519 492.499,721.999 492.259,722.239 492.259,722.959 492.019,723.439 491.779,723.68 
		491.779,724.159 492.019,724.64 491.779,724.88 491.059,725.359 490.579,726.08 489.859,726.319 489.619,726.8 489.619,727.04 
		489.859,727.52 489.619,728.72 489.379,728.96 488.899,728.72 488.659,728.72 488.419,728.72 488.419,728.96 488.659,729.681 
		488.419,729.92 488.179,729.92 487.939,730.64 487.939,730.881 487.939,731.12 488.179,731.36 487.219,732.081 486.499,732.561 
		486.259,732.561 486.259,732.801 486.499,734.24 486.019,734.721 485.539,735.682 485.539,736.161 485.299,736.161 
		485.299,736.641 485.059,737.361 485.299,737.602 485.299,738.081 485.299,738.802 485.539,739.041 485.059,739.762 
		484.579,740.242 484.579,740.722 484.579,740.962 484.579,741.202 483.619,741.682 483.139,741.682 482.899,741.442 
		482.659,741.682 482.659,741.922 482.659,742.162 482.179,743.843 482.179,744.322 482.179,744.802 482.179,745.043 
		481.459,745.282 481.459,745.522 481.459,746.482 481.459,746.723 482.179,747.202 482.419,747.202 482.899,747.443 
		483.139,748.163 483.139,748.402 482.659,748.883 481.939,749.123 481.699,749.123 481.219,748.644 480.979,748.644 
		480.739,748.644 480.739,748.883 480.979,749.123 480.979,749.363 480.979,749.603 480.739,750.083 480.499,749.844 
		480.259,749.844 480.019,749.844 479.539,750.083 479.299,750.563 479.059,750.803 477.859,750.323 477.619,750.323 
		477.379,750.323 477.139,750.323 477.139,750.563 476.899,750.803 477.139,751.523 476.659,752.003 476.659,752.244 
		476.419,752.244 476.179,752.724 475.939,753.443 475.699,753.684 475.219,753.924 475.219,754.404 474.979,754.644 
		474.739,754.644 474.499,754.884 474.019,754.884 473.779,754.884 	"/>
	
		<polyline clip-path="url(#SVGID_2_)" fill="none" stroke="#B37C34" stroke-width="0.24" stroke-linecap="round" stroke-linejoin="round" stroke-miterlimit="3.85" points="
		473.779,754.884 473.539,755.124 473.299,755.364 473.059,755.364 473.059,755.844 472.339,756.564 471.859,756.805 
		471.859,757.284 471.859,757.765 471.859,758.244 471.859,758.484 471.859,758.965 471.619,759.205 471.139,759.925 
		471.139,760.405 471.139,760.645 470.659,760.885 470.179,760.645 469.699,761.125 469.219,761.365 468.739,761.365 
		468.739,761.125 468.739,760.885 468.259,760.885 468.019,760.645 467.299,760.645 466.819,760.405 465.859,760.165 
		465.379,760.645 465.139,760.645 464.899,760.645 464.659,760.405 464.419,760.165 464.179,760.165 463.939,760.165 
		463.939,760.405 463.699,760.405 463.699,760.645 463.459,760.645 463.219,760.405 463.219,759.925 462.979,759.685 
		462.739,759.444 462.499,759.205 462.019,758.965 461.779,758.965 461.539,758.725 461.059,758.484 461.059,758.005 
		461.059,757.765 461.059,757.524 460.579,757.284 460.339,757.524 460.099,758.005 459.859,758.244 459.619,758.484 
		458.659,758.244 458.659,758.005 457.939,757.765 457.699,757.765 456.739,757.044 456.499,756.805 456.259,756.324 
		456.019,756.324 455.539,755.844 455.299,755.604 455.059,755.604 455.059,755.844 454.819,755.604 454.579,755.364 
		454.579,754.884 454.579,754.644 454.099,754.164 453.619,753.443 453.379,752.964 453.139,752.964 452.899,752.724 
		452.179,752.724 452.179,752.483 452.419,752.003 452.179,752.003 451.699,751.523 450.979,751.044 450.739,750.803 
		449.779,751.044 449.059,751.044 448.819,750.803 448.579,750.563 448.579,750.323 448.339,750.323 447.619,750.323 
		447.379,750.323 447.139,750.323 446.659,750.563 446.419,750.323 446.179,749.844 445.939,749.844 445.699,749.844 
		445.699,749.603 444.739,749.363 444.259,749.363 443.539,749.123 443.059,748.644 442.819,748.163 442.339,747.683 
		441.859,747.202 441.619,746.723 441.139,746.723 440.659,746.482 440.659,745.763 440.659,745.522 440.179,745.043 
		440.179,744.802 439.939,744.802 439.219,744.563 438.979,744.322 438.019,743.843 437.299,743.603 437.059,743.603 
		436.099,743.362 435.379,743.362 434.659,743.362 434.419,743.362 434.179,743.362 434.179,743.122 433.939,742.882 
		433.219,742.643 432.019,742.402 431.539,742.643 431.299,742.402 430.579,742.162 429.859,741.682 429.619,741.682 
		428.659,741.202 428.419,740.962 427.939,740.481 427.939,740.242 427.459,740.002 426.979,739.762 426.739,739.762 
		426.499,739.281 426.259,739.041 426.019,738.562 425.779,738.321 425.059,737.842 424.819,737.842 424.579,737.842 
		424.339,737.602 424.099,737.602 423.859,737.602 423.859,737.361 423.619,737.361 423.379,737.121 422.899,736.641 
		422.419,735.921 422.419,735.201 421.699,734.24 421.219,734.001 420.979,733.761 420.979,733.521 420.979,733.281 
		420.979,732.801 420.739,732.561 420.739,732.32 420.259,732.32 420.02,731.84 420.02,731.601 420.02,731.36 419.779,731.36 
		419.539,731.12 419.059,730.881 418.819,730.64 418.819,730.4 418.339,730.4 417.379,729.92 416.659,729.92 416.659,729.681 
		416.419,729.681 416.179,729.681 415.939,729.92 415.699,729.92 415.459,729.92 415.219,729.92 414.5,729.439 414.02,728.72 
		413.779,728.72 413.539,728.72 413.299,728.72 412.819,728 412.819,727.76 412.819,727.52 412.579,727.52 412.579,727.28 
		412.579,727.04 410.179,725.359 409.459,724.88 408.739,723.919 408.259,723.68 408.02,723.439 407.779,723.199 407.539,722.959 
		407.299,722.479 406.579,721.519 406.339,721.279 406.339,721.039 406.339,720.799 406.579,720.559 406.339,720.318 406.1,719.839 
		406.1,719.599 405.859,719.119 405.619,718.158 405.859,717.919 405.859,717.678 405.619,717.438 405.379,716.719 405.379,716.238 
		405.139,715.758 404.419,714.558 404.179,714.077 403.939,713.838 403.459,713.357 403.219,713.118 403.219,712.637 
		402.979,712.157 402.739,712.157 402.5,711.677 402.5,711.197 402.5,710.957 402.5,710.718 402.259,710.478 402.02,710.236 
		401.539,709.757 401.299,709.518 401.299,709.037 401.299,708.797 401.059,708.797 400.819,708.557 400.579,707.597 
		400.339,707.356 400.339,705.916 400.579,704.956 400.339,704.236 400.339,702.796 400.1,702.556 399.62,702.556 399.62,702.315 
		399.62,702.076 399.859,701.836 399.62,700.876 399.62,700.396 399.62,700.155 399.859,700.155 400.1,700.155 400.339,699.915 
		400.579,699.436 400.579,699.195 400.579,698.715 400.579,698.475 400.339,697.995 400.339,697.275 400.339,696.555 
		400.339,696.314 400.579,695.835 400.819,695.114 400.819,694.155 400.1,692.475 399.859,691.994 399.859,691.754 399.62,691.034 
		399.379,690.314 399.139,690.314 398.899,689.834 398.899,689.594 398.659,689.594 398.419,689.834 398.179,689.594 
		397.939,689.594 397.939,689.114 397.699,688.634 397.699,687.434 396.979,686.953 396.5,686.233 396.02,685.993 395.539,685.514 
		395.539,685.273 395.299,685.033 395.299,684.553 395.299,684.313 395.299,684.073 395.059,683.593 394.339,683.593 
		393.859,682.873 393.379,682.633 393.62,681.673 393.859,680.952 393.379,680.473 393.379,679.752 393.139,679.752 
		393.139,679.272 393.139,678.792 393.139,678.552 393.379,678.552 393.139,677.592 393.139,676.872 392.899,676.152 
		392.899,675.912 392.659,675.672 392.419,674.711 392.419,674.472 392.419,673.991 392.179,673.511 391.939,672.791 
		391.699,672.071 391.219,671.352 390.979,671.11 390.739,671.11 390.5,671.11 390.259,671.11 389.539,670.871 389.059,670.631 
		388.819,670.631 388.579,669.91 388.339,669.91 388.339,669.671 388.339,669.191 388.339,668.23 388.339,667.99 387.62,667.271 
		387.62,666.79 387.379,666.551 386.899,666.551 386.179,666.551 385.7,666.311 385.7,666.551 385.459,666.79 385.459,666.551 
		385.22,666.551 384.979,666.311 384.979,666.07 384.979,665.83 384.02,665.11 383.299,664.63 382.819,663.91 382.819,663.43 
		382.819,663.189 382.579,662.949 382.339,662.949 381.379,662.71 380.899,662.71 380.659,662.47 380.659,662.229 380.659,661.75 
		380.419,661.51 380.179,661.51 379.7,661.51 379.459,661.27 379.459,660.79 378.979,660.31 378.979,660.549 378.739,660.549 
		378.5,660.79 378.259,660.79 378.02,660.549 378.02,660.31 378.259,660.069 378.02,659.829 377.779,659.829 377.539,659.829 
		377.059,659.829 376.579,659.829 376.339,660.069 376.1,659.829 375.62,659.35 375.379,659.109 375.139,658.869 374.899,658.629 
		374.419,658.629 374.179,658.629 374.179,658.869 373.7,658.869 373.459,658.39 373.459,658.148 373.22,658.148 372.979,657.909 
		372.259,657.669 372.02,657.429 371.779,657.189 371.54,657.189 371.299,656.948 370.819,656.948 370.339,656.709 370.1,656.709 
		370.1,656.469 370.1,655.748 370.1,655.509 369.859,654.789 369.859,654.548 369.379,654.068 368.659,653.828 367.939,653.108 
		367.7,653.108 367.7,652.868 367.22,652.628 366.979,652.389 366.739,652.147 366.5,652.147 366.02,651.668 365.779,651.428 
		365.779,651.188 365.779,650.948 365.54,650.708 365.3,650.468 364.1,649.268 363.859,649.268 363.62,649.268 363.139,649.027 
		362.419,648.067 362.419,647.587 362.179,647.347 362.179,647.107 361.939,646.867 362.179,646.627 362.179,646.387 
		361.939,645.427 361.7,644.947 361.459,644.947 361.459,644.467 361.22,643.987 360.259,643.027 359.54,643.027 359.3,642.066 
		358.58,641.827 358.1,641.586 356.419,640.866 356.179,640.626 356.179,640.386 356.179,640.146 354.979,639.186 354.02,639.186 
		353.779,638.946 353.54,638.226 353.54,637.986 353.54,637.746 353.3,637.266 353.06,637.266 352.82,637.026 351.859,635.585 
		351.62,635.105 351.14,634.625 350.419,633.665 349.939,632.465 349.7,632.225 349.459,632.225 348.739,632.225 348.5,632.225 
		348.259,631.265 348.02,631.025 347.779,630.785 346.82,630.785 346.58,630.545 346.34,629.345 346.34,628.625 346.1,628.145 
		345.379,627.904 344.179,626.704 343.939,626.464 343.7,626.464 342.979,626.224 340.34,625.984 339.62,625.024 339.379,624.784 
		339.379,624.544 339.14,624.544 338.18,624.304 337.7,624.063 336.979,623.583 336.259,622.624 336.02,622.383 334.82,621.903 
		334.58,621.423 334.34,621.183 334.1,619.983 333.62,619.263 333.379,618.303 333.379,617.823 332.9,617.583 331.939,616.623 
		331.7,615.422 331.459,614.942 331.22,614.462 330.979,613.502 330.74,613.022 329.779,611.342 329.779,611.102 329.54,610.622 
		329.3,609.662 329.06,609.181 328.82,608.941 328.34,608.461 328.1,608.221 327.859,607.501 327.859,607.261 327.62,607.261 
		327.14,606.781 326.9,606.541 326.18,606.061 325.7,606.061 325.459,605.821 324.979,605.581 324.74,605.341 324.02,605.581 
		323.78,605.821 323.78,606.061 323.54,606.061 323.3,606.061 323.3,606.301 323.06,606.061 322.1,605.341 322.1,605.101 
		321.62,604.621 321.379,604.141 321.379,603.9 321.14,603.661 321.14,603.42 320.9,603.181 320.66,603.181 320.66,602.94 
		320.42,602.7 319.939,602.7 319.939,602.46 319.7,602.46 319.459,602.46 319.459,602.7 319.22,602.7 318.979,602.46 
		318.979,602.22 318.74,601.98 318.5,601.74 318.02,601.74 318.02,601.5 318.02,601.26 318.26,601.02 318.26,600.78 318.02,600.54 
		317.54,600.54 317.3,600.3 317.06,600.06 317.06,599.82 317.06,599.58 316.82,599.58 316.82,599.34 316.82,599.1 317.06,598.86 
		317.06,598.62 317.06,598.38 316.82,598.14 316.58,597.899 316.34,597.899 316.34,597.66 316.58,597.419 316.82,597.18 
		317.06,597.18 317.3,596.939 317.54,596.939 317.78,596.939 317.78,596.699 318.02,596.699 317.78,596.459 317.54,596.459 
		317.3,596.459 317.3,596.219 317.54,595.979 317.54,595.739 317.54,595.499 317.54,595.259 318.02,595.019 318.02,594.779 
		317.78,594.779 317.54,594.779 317.54,594.539 317.78,594.299 317.78,594.059 317.78,593.819 317.54,593.819 317.3,593.819 
		317.06,593.579 317.06,593.339 317.06,593.099 317.3,592.859 317.54,592.859 317.78,592.859 318.02,592.619 318.02,592.379 
		318.74,592.379 318.979,592.379 319.22,592.379 319.459,592.379 319.7,592.379 320.42,592.619 320.66,592.619 322.58,592.619 
		324.979,592.859 325.939,592.859 327.379,592.859 328.1,592.859 328.82,593.099 331.22,593.099 331.459,593.099 331.7,593.099 
		336.739,593.579 336.979,593.579 337.7,593.579 340.34,593.579 343.7,593.819 346.1,594.059 	"/>
	
		<polyline clip-path="url(#SVGID_2_)" fill="none" stroke="#B37C34" stroke-width="0.24" stroke-linecap="round" stroke-linejoin="round" stroke-miterlimit="3.85" points="
		740.897,854.26 741.138,853.299 741.138,853.06 741.377,852.819 741.617,852.819 741.377,851.619 741.138,851.379 741.377,849.939 
		741.857,848.258 742.577,847.778 742.577,847.059 742.818,846.818 742.577,846.339 742.818,846.098 743.298,844.418 
		744.498,842.498 744.978,841.298 745.698,840.338 745.698,840.098 745.938,839.377 745.938,839.137 745.938,838.897 
		746.178,838.417 746.418,838.177 746.897,837.217 746.897,836.977 746.657,836.736 747.138,835.536 747.138,835.297 
		747.617,835.297 747.857,835.536 748.098,835.297 748.577,834.336 748.817,833.616 748.817,832.896 748.577,832.656 
		748.577,832.416 749.058,832.176 749.298,831.936 750.018,830.735 750.258,830.016 750.498,830.016 750.738,830.016 
		751.218,829.775 751.938,829.056 751.938,828.815 751.938,828.575 752.178,828.335 753.138,826.895 753.138,826.655 
		753.138,826.415 753.377,826.175 753.377,825.936 753.617,825.694 753.617,825.455 753.377,825.215 753.138,825.215 
		752.178,825.455 751.938,825.215 751.698,824.975 752.897,824.735 753.857,824.494 755.298,824.015 756.018,823.294 
		757.218,820.654 757.218,820.414 757.218,820.174 758.657,818.014 758.897,816.813 758.657,816.813 758.418,816.573 
		758.897,815.613 759.377,814.653 759.617,814.894 760.098,814.653 760.338,814.173 761.058,813.693 761.298,813.213 
		761.058,812.973 761.298,812.493 762.258,811.532 762.978,811.532 763.218,811.053 762.978,811.053 762.978,810.332 
		763.218,809.373 763.457,808.652 763.698,808.412 763.938,808.652 764.178,808.893 764.418,809.373 765.138,809.853 
		765.857,809.612 766.338,809.132 766.577,808.893 766.577,808.173 766.338,807.212 766.098,806.731 766.098,806.492 
		766.338,806.252 767.537,805.531 770.178,805.292 771.617,804.812 771.857,804.572 771.617,804.092 771.617,803.852 
		772.338,803.852 773.537,803.372 773.537,803.131 773.537,802.892 774.018,801.932 776.178,800.491 775.938,800.251 
		776.658,799.531 777.377,799.291 778.577,799.291 778.817,799.051 779.058,798.331 779.777,798.091 782.178,797.61 
		783.377,797.131 784.098,796.891 784.817,796.17 785.058,795.931 785.058,795.69 785.058,795.45 785.537,795.45 785.777,795.69 
		785.777,795.931 785.777,796.65 785.777,796.891 785.058,797.61 783.857,798.091 781.457,799.531 778.817,800.731 777.138,802.172 
		775.938,802.892 775.457,803.131 772.098,805.772 769.218,808.173 765.857,811.293 764.897,812.013 764.658,812.253 
		764.658,812.493 764.418,812.493 762.738,814.413 762.738,814.653 761.298,816.094 759.377,818.254 757.938,820.414 
		756.498,822.574 756.018,823.535 755.777,824.255 755.777,824.494 755.537,824.735 755.298,825.215 754.338,826.175 
		754.338,826.415 754.098,826.655 752.657,828.815 752.657,829.056 752.418,829.056 751.457,830.735 751.218,831.216 
		750.258,832.896 749.537,834.576 749.058,835.297 748.817,836.017 748.577,836.257 748.098,837.217 748.098,837.457 
		747.857,838.417 745.698,842.738 745.698,842.978 745.218,843.938 744.018,847.298 743.058,850.659 742.098,854.26 
		741.857,854.739 741.377,857.86 740.897,860.501 740.657,863.86 740.657,866.502 740.657,869.622 741.138,873.942 741.377,875.863 
		741.617,875.863 741.617,876.103 742.098,879.223 742.338,879.464 743.058,883.064 744.498,887.864 744.738,888.585 
		744.978,888.824 744.978,889.064 745.457,890.265 745.938,892.186 746.178,892.665 746.418,892.905 746.897,894.585 
		748.338,899.146 748.577,900.347 749.537,903.707 750.018,905.867 750.498,908.027 750.978,910.428 750.978,910.668 
		751.218,911.868 751.457,913.309 751.457,913.549 751.457,914.749 751.938,917.39 751.938,917.869 752.178,918.59 751.938,918.59 
		751.457,918.109 751.457,916.669 750.978,914.509 750.978,912.828 750.738,910.908 750.018,907.788 749.058,903.467 
		748.577,901.786 747.857,900.586 747.857,900.347 747.617,899.146 747.377,897.946 747.138,897.227 746.657,896.506 
		745.938,894.585 745.218,894.105 744.258,892.665 744.498,891.945 744.498,891.705 744.018,890.505 744.018,890.265 
		743.537,889.785 742.818,887.864 743.058,886.904 742.577,884.984 741.617,884.504 741.377,883.784 741.377,883.064 
		741.377,882.823 741.617,881.864 741.617,881.623 741.377,881.144 741.377,880.664 741.377,879.943 741.138,879.223 
		740.418,878.743 740.657,875.863 740.418,875.143 740.178,874.423 740.178,872.022 740.178,866.261 740.178,865.541 
		740.418,864.82 740.178,864.341 740.178,864.102 740.178,860.74 740.657,858.58 740.418,858.34 740.178,858.34 740.418,856.9 
		740.657,855.699 740.897,854.499 740.897,854.26 	"/>
</g>
</svg>
