<?xml version="1.0" encoding="utf-8"?>
<!-- Generator: Adobe Illustrator 15.1.0, SVG Export Plug-In . SVG Version: 6.00 Build 0)  -->
<!DOCTYPE svg PUBLIC "-//W3C//DTD SVG 1.1//EN" "http://www.w3.org/Graphics/SVG/1.1/DTD/svg11.dtd">
<svg version="1.1" id="State" xmlns="http://www.w3.org/2000/svg" xmlns:xlink="http://www.w3.org/1999/xlink" x="0px" y="0px"
	 width="1296px" height="1296px" viewBox="0 0 1296 1296" enable-background="new 0 0 1296 1296" xml:space="preserve">
<g>
	<defs>
		<rect id="SVGID_1_" x="349.219" y="266.421" width="598.45" height="770.958"/>
	</defs>
	<clipPath id="SVGID_2_">
		<use xlink:href="#SVGID_1_"  overflow="visible"/>
	</clipPath>
	
		<polygon clip-path="url(#SVGID_2_)" fill="none" stroke="#B37C34" stroke-width="0.7199" stroke-linecap="round" stroke-linejoin="round" stroke-miterlimit="3.85" points="
		374.654,899.126 375.134,882.805 375.134,879.684 375.374,878.244 375.614,877.044 375.854,871.043 375.854,869.123 
		375.854,865.043 375.854,863.362 376.094,861.202 376.094,852.802 376.333,844.881 377.054,824.478 377.293,810.557 
		377.534,808.396 378.013,789.194 378.253,775.993 378.493,769.993 378.493,769.513 378.733,766.152 378.974,751.751 
		379.213,744.551 379.453,741.67 379.933,724.628 379.933,724.389 380.173,724.147 380.413,706.626 381.853,661.742 
		382.573,638.939 382.573,638.699 382.813,632.699 383.533,603.896 383.533,603.656 383.533,602.936 383.772,600.295 
		383.772,599.335 383.772,598.375 383.772,596.935 383.772,594.535 384.013,588.054 384.252,582.773 384.492,572.692 
		384.732,570.292 384.732,569.572 384.732,565.732 384.972,561.651 384.972,556.611 384.972,555.891 384.972,555.651 
		384.972,554.451 384.972,553.971 385.692,538.129 386.172,515.327 386.412,511.486 386.412,510.766 386.652,502.125 
		386.652,501.885 386.652,500.445 387.372,483.644 387.612,474.042 387.852,470.202 387.852,469.482 387.852,468.762 
		387.852,467.322 387.852,466.122 387.852,465.642 388.092,463.961 388.092,462.761 388.812,440.439 389.051,432.519 
		389.532,416.437 389.771,403.955 389.771,403.476 390.011,402.275 391.211,365.071 390.971,363.871 391.211,359.071 
		391.451,348.27 391.691,348.03 391.691,346.59 392.171,329.308 392.171,328.828 392.411,315.626 392.651,310.826 392.891,295.944 
		397.93,296.185 407.288,297.145 408.248,297.145 408.728,297.145 408.968,297.145 411.127,297.145 415.446,297.145 
		418.086,297.145 421.446,297.385 422.646,297.385 428.404,297.385 433.204,297.385 448.321,297.385 448.8,297.385 449.041,297.385 
		455.52,297.385 456.479,297.385 458.639,297.385 459.119,297.385 463.198,297.625 464.877,297.625 473.996,297.625 
		474.236,297.625 480.235,297.625 498.951,297.625 499.671,297.625 501.831,297.625 509.029,297.865 509.75,297.865 
		511.909,297.865 512.149,297.865 516.948,297.865 521.507,297.865 529.666,297.865 535.905,297.865 550.302,298.104 
		550.542,298.104 556.061,298.104 556.301,298.104 557.261,298.104 562.78,298.104 564.939,298.104 575.257,298.345 
		577.417,298.345 577.897,298.345 578.137,298.345 579.097,298.345 582.696,298.345 584.616,299.064 585.576,299.064 
		591.094,298.825 598.293,298.825 599.733,298.825 601.173,298.825 604.772,298.825 605.012,298.825 608.131,298.825 
		608.371,298.825 609.331,298.825 611.011,298.825 613.17,298.825 615.09,298.825 617.01,298.825 619.169,298.825 620.609,298.825 
		621.569,298.825 628.048,298.825 629.248,298.825 633.087,298.825 653.003,298.825 656.603,298.825 661.401,298.585 
		661.881,298.585 662.361,298.585 663.081,298.585 666.681,298.585 669.561,298.585 672.199,298.585 682.277,298.585 
		689.956,298.585 694.996,298.585 697.155,298.345 700.274,298.345 700.515,320.667 700.515,329.068 700.515,329.308 
		700.515,330.508 700.515,330.988 700.515,345.149 700.754,356.431 700.754,358.351 700.754,359.551 700.754,360.271 
		700.754,361.231 700.754,364.352 700.754,384.273 700.754,386.674 700.754,401.555 700.754,402.035 700.994,432.038 
		700.994,436.599 718.991,436.359 731.709,436.359 734.108,436.359 734.348,436.359 735.548,436.359 737.228,436.359 
		742.746,436.359 746.826,436.359 753.064,436.359 753.785,436.359 757.864,436.359 770.822,436.359 780.66,436.119 
		783.779,435.879 785.219,436.119 796.977,435.639 797.217,435.639 804.896,435.398 809.215,435.398 809.935,435.398 
		812.573,435.159 813.773,435.159 825.052,435.159 826.491,434.918 838.01,434.679 839.689,434.679 839.929,434.679 
		843.769,434.679 850.728,434.438 853.127,434.438 855.766,434.438 857.445,434.438 858.405,434.438 862.005,434.198 
		887.92,433.238 889.84,432.999 896.078,432.999 908.797,432.758 909.036,438.519 909.756,456.761 909.996,472.123 910.477,480.523 
		910.477,485.083 910.716,495.885 910.716,496.125 910.716,501.646 910.716,502.125 910.956,509.086 911.676,539.569 
		911.915,545.33 911.915,546.53 912.396,562.131 913.115,587.334 913.596,605.096 913.835,616.857 914.315,639.179 914.555,644.22 
		915.035,657.182 915.755,690.305 915.755,691.744 915.755,692.705 915.995,704.706 915.995,704.946 916.234,707.586 
		916.234,715.507 916.475,720.787 916.475,724.868 916.475,735.189 916.475,735.909 916.475,746.23 916.715,762.792 
		917.194,776.473 917.675,788.475 918.154,807.196 918.875,811.518 920.555,822.318 920.555,823.998 920.555,826.878 
		920.555,829.998 921.034,845.12 921.034,845.36 921.034,848.721 921.514,857.842 921.514,861.442 921.514,862.643 921.754,866.723 
		921.754,867.683 921.754,872.482 921.994,876.563 921.994,878.724 921.994,879.443 921.994,880.404 921.994,880.884 
		922.234,884.484 922.234,884.724 922.234,890.965 922.474,896.726 922.474,897.686 922.474,899.365 922.953,909.687 
		922.714,913.768 922.953,915.688 922.953,915.928 922.953,917.127 922.953,918.088 922.953,931.049 922.953,933.21 923.193,937.53 
		923.193,938.489 923.434,948.091 923.434,948.331 923.434,949.531 923.674,953.611 923.674,954.331 923.674,954.812 
		923.674,958.172 924.153,967.053 924.153,967.532 924.153,969.213 924.153,970.653 924.153,972.333 924.153,972.573 
		924.394,979.534 924.394,979.773 924.394,982.654 909.516,983.135 903.757,983.135 902.317,983.135 900.397,983.374 
		899.918,983.374 899.678,983.374 894.159,983.374 892,983.614 890.319,983.614 889.6,983.614 887.68,983.614 887.44,983.614 
		887.2,983.614 877.362,983.854 874.963,983.854 862.244,984.335 861.765,984.335 860.564,984.335 852.406,984.574 851.207,984.574 
		843.528,984.574 843.048,984.574 832.97,984.814 831.29,984.814 826.491,985.055 819.053,985.055 816.894,985.055 812.814,985.294 
		812.573,985.294 812.334,985.294 810.894,985.294 808.734,985.294 806.814,985.294 802.976,985.294 801.057,985.294 
		799.616,985.294 788.818,985.535 784.979,985.535 782.819,985.774 780.9,985.774 776.82,985.774 774.9,985.774 772.741,985.774 
		770.822,985.774 767.702,985.774 767.223,985.774 765.063,985.055 764.823,985.055 763.863,985.055 762.902,985.055 
		760.743,985.055 758.823,985.294 756.904,985.294 753.064,985.294 752.585,985.294 750.905,985.294 750.186,985.294 
		741.787,985.294 736.508,985.535 702.194,985.774 701.474,985.774 698.595,986.015 694.035,986.015 693.556,986.015 
		693.315,986.015 693.076,986.015 682.998,986.015 682.037,986.015 681.078,986.015 680.838,986.015 678.198,986.255 
		676.039,986.255 674.119,986.255 669.561,986.015 668.84,986.015 665.721,986.015 665.481,986.015 665.24,986.015 665.001,986.015 
		664.761,986.015 664.521,986.015 664.281,986.015 664.041,986.015 663.561,986.015 663.321,986.015 645.805,986.015 
		638.846,986.015 638.366,986.015 634.046,986.015 630.208,986.015 613.41,986.015 594.934,986.015 586.295,985.774 
		573.338,985.774 559.18,985.774 557.98,985.535 557.261,985.535 551.981,985.535 547.663,985.535 545.263,985.535 540.224,985.535 
		539.504,985.535 539.024,985.535 538.544,985.535 538.064,985.535 536.864,985.535 531.345,985.294 518.628,985.294 
		507.11,985.055 503.511,985.055 499.431,985.055 496.312,985.055 493.432,984.814 492.232,984.814 491.993,984.814 
		487.193,984.814 486.474,984.814 479.515,984.814 474.956,984.574 457.919,984.335 454.56,984.335 443.521,984.094 
		438.962,983.854 437.522,983.854 433.683,983.854 425.285,983.614 421.686,983.614 419.526,983.374 410.647,983.374 
		387.372,982.654 381.853,982.414 372.495,982.174 372.734,970.173 372.734,969.693 372.495,968.013 372.734,963.692 
		372.734,962.012 372.975,958.652 373.214,950.011 373.454,943.29 373.454,943.051 373.454,941.851 373.694,931.289 
		373.934,924.809 373.934,922.889 374.174,917.368 374.174,914.487 374.174,913.048 374.174,911.127 374.174,909.207 
		374.174,908.967 374.414,908.967 374.414,900.807 	"/>
</g>
</svg>
