<?xml version="1.0" encoding="utf-8"?>
<!-- Generator: Adobe Illustrator 15.1.0, SVG Export Plug-In . SVG Version: 6.00 Build 0)  -->
<!DOCTYPE svg PUBLIC "-//W3C//DTD SVG 1.1//EN" "http://www.w3.org/Graphics/SVG/1.1/DTD/svg11.dtd">
<svg version="1.1" id="State" xmlns="http://www.w3.org/2000/svg" xmlns:xlink="http://www.w3.org/1999/xlink" x="0px" y="0px"
	 width="1296px" height="1296px" viewBox="0 0 1296 1296" enable-background="new 0 0 1296 1296" xml:space="preserve">
<g>
	<defs>
		<rect id="SVGID_1_" x="349.219" y="261.381" width="600.13" height="775.999"/>
	</defs>
	<clipPath id="SVGID_2_">
		<use xlink:href="#SVGID_1_"  overflow="visible"/>
	</clipPath>
	
		<polyline clip-path="url(#SVGID_2_)" fill="none" stroke="#B37C34" stroke-width="1.4397" stroke-linecap="round" stroke-linejoin="round" stroke-miterlimit="3.85" points="
		443.282,682.144 445.201,678.544 446.161,676.623 446.161,676.383 446.161,676.144 445.201,674.703 444.961,674.223 
		444.721,671.823 443.521,670.383 442.322,669.423 440.402,667.742 440.162,667.021 439.922,665.342 439.682,664.622 
		439.442,663.902 438.962,663.182 437.283,661.742 436.803,660.781 436.803,660.302 437.283,658.141 437.763,657.182 
		439.202,655.501 440.402,655.021 441.122,653.82 441.362,653.101 441.362,652.86 441.362,652.621 441.362,652.381 441.122,652.381 
		439.442,650.701 439.202,650.221 439.202,649.98 439.202,649.74 439.442,648.541 439.922,646.86 441.122,643.98 441.122,643.5 
		440.642,642.06 438.962,638.699 436.323,634.859 436.083,633.899 435.123,630.298 434.403,628.138 433.683,626.218 
		433.443,625.258 434.163,620.458 433.923,614.457 432.963,611.816 432.724,610.616 432.724,609.656 432.963,608.456 
		433.443,605.576 434.403,600.536 434.403,599.095 434.163,597.895 433.923,597.655 433.923,597.415 433.923,596.935 
		433.443,595.975 433.204,595.735 432.963,595.495 432.724,595.015 432.483,595.015 432.244,594.775 431.764,594.295 
		431.284,594.055 430.564,593.815 429.604,592.375 429.364,592.375 428.884,591.895 427.444,590.694 427.205,589.974 
		428.644,584.214 429.124,581.573 429.364,579.173 431.284,574.853 432.244,572.933 432.963,570.292 433.443,569.332 
		433.443,569.092 433.443,568.612 433.443,567.172 433.204,566.212 432.963,564.532 432.483,562.852 432.483,562.372 
		433.443,560.691 434.403,560.211 435.363,558.771 435.603,558.291 436.083,556.131 436.323,555.411 436.563,553.011 
		437.283,551.811 437.283,551.57 437.042,551.09 436.803,550.13 437.042,549.41 437.283,548.93 438.482,547.73 438.722,547.25 
		438.722,547.01 438.482,545.57 438.482,544.61 438.482,544.13 438.962,543.649 439.202,543.649 439.682,543.649 439.922,543.41 
		440.402,542.209 441.362,541.489 441.842,541.25 442.562,540.529 443.042,539.809 444.961,538.609 445.201,538.129 
		445.921,536.209 446.641,535.249 446.641,534.049 446.641,533.809 447.601,533.088 447.841,531.889 449.521,530.448 
		449.28,529.248 450.72,529.008 451.44,528.528 452.16,527.328 452.4,527.328 453.6,527.568 453.84,527.568 454.799,525.888 
		455.52,523.248 456.239,521.327 456.239,521.087 456.239,520.847 456.719,517.967 456.479,516.287 455.52,513.887 454.319,509.326 
		453.84,506.686 453.84,503.806 454.08,501.885 454.08,499.245 453.84,497.805 453.36,496.125 453.36,495.885 453.12,495.405 
		451.68,492.044 451.68,489.644 451.92,487.004 452.64,486.044 454.799,483.884 455.759,482.923 456.239,481.963 456.719,480.043 
		457.199,477.643 460.559,469.482 461.038,466.602 461.038,466.362 461.278,466.122 461.278,465.882 461.278,465.642 
		461.038,465.402 460.798,463.961 459.838,461.081 460.079,458.201 460.079,456.041 460.079,455.321 459.838,454.36 459.838,453.88 
		458.879,451.48 458.879,449.32 458.399,446.68 456.959,444.52 455.52,443.08 455.279,442.6 455.279,441.879 455.279,441.639 
		455.279,441.159 455.279,440.679 455.279,440.439 455.04,438.999 454.56,438.279 453.6,437.799 453.36,437.559 453.12,437.079 
		453.12,436.839 453.12,436.119 452.88,435.639 452.88,435.398 452.4,434.679 451.2,433.238 451.2,432.999 451.2,432.758 
		451.44,432.038 451.44,431.798 450.48,430.358 448.8,429.398 447.601,428.918 447.601,428.678 447.361,428.678 447.361,428.438 
		446.881,427.718 446.641,426.998 446.401,426.758 446.161,426.758 444.961,425.558 443.521,422.917 443.042,420.997 
		442.802,419.797 441.842,418.597 441.842,418.357 441.842,418.117 442.802,417.157 443.042,416.677 443.042,416.197 
		443.042,415.237 442.082,413.796 442.082,413.557 442.082,413.316 441.842,412.356 441.602,411.396 440.162,409.716 
		439.922,409.476 440.162,408.996 440.642,407.796 440.882,406.836 440.882,406.116 441.122,405.636 441.122,405.396 
		440.882,405.155 440.882,404.916 440.642,403.955 440.882,403.715 442.322,402.515 442.802,402.035 441.602,400.835 
		442.802,398.435 442.802,398.195 442.562,397.715 442.562,397.235 443.761,395.555 444.001,395.555 444.481,395.555 
		444.721,395.314 444.721,394.354 444.001,393.634 444.241,391.474 444.241,391.234 444.241,390.994 444.481,390.994 
		444.481,390.754 445.441,390.514 445.441,389.554 444.961,388.834 444.721,388.594 445.921,387.634 446.881,385.474 
		446.881,385.233 446.161,384.273 445.921,383.553 445.921,375.633 445.921,374.672 445.921,371.792 445.921,370.592 
		446.401,369.392 447.841,367.712 448.561,366.271 448.561,366.031 448.8,365.552 449.041,364.591 449.76,362.191 450.24,360.751 
		450.96,359.791 452.88,357.871 453.36,356.911 453.36,356.19 453.36,355.95 453.36,355.71 453.36,354.75 453.36,352.83 
		453.36,352.59 453.12,351.63 453.12,351.39 452.88,350.91 451.68,349.47 451.44,348.99 449.76,347.07 449.041,345.87 
		448.561,345.39 447.841,344.909 446.161,343.949 445.681,343.469 445.441,343.229 445.441,342.989 444.961,342.509 
		444.001,340.829 443.282,340.349 443.282,340.109 442.802,337.949 442.802,336.749 443.042,334.108 444.001,333.148 
		444.961,332.428 445.681,331.228 446.161,328.588 447.121,324.507 447.121,324.027 447.121,323.307 447.601,321.627 
		448.081,320.427 448.561,319.227 449.28,318.507 450.24,317.547 450.48,317.307 451.68,316.347 451.92,316.106 452.4,315.387 
		452.4,315.146 452.64,315.146 452.64,314.906 452.64,313.226 452.4,307.226 452.88,301.705 452.88,300.265 452.64,300.025 
		452.64,299.785 451.44,298.585 451.2,298.104 450.24,296.665 449.521,295.225 449.521,294.504 449.28,294.264 449.28,293.304 
		449.521,292.344 450.24,291.144 451.92,285.863 472.796,285.623 474.716,285.383 485.754,285.383 490.553,285.144 509.27,284.903 
		509.509,285.144 514.068,285.144 515.269,284.903 516.948,284.903 517.668,285.144 525.106,285.144 525.347,285.144 
		529.426,285.383 530.146,285.383 535.665,285.383 542.863,285.383 544.063,285.144 549.582,285.144 563.02,284.903 
		565.899,284.903 569.499,284.903 578.377,285.144 594.934,285.383 596.613,285.383 601.173,285.383 605.012,285.383 
		613.65,285.863 620.129,286.104 620.849,286.104 621.809,286.583 622.769,286.824 627.808,287.543 628.048,287.543 
		633.087,287.784 644.604,287.543 651.803,287.543 655.162,287.784 658.522,288.024 662.361,288.264 671.72,288.264 
		674.119,288.504 678.438,288.744 682.758,288.983 686.837,288.744 691.636,288.744 696.915,288.744 716.111,288.024 
		720.19,288.264 727.39,288.264 729.069,288.264 732.188,288.264 732.429,288.264 740.348,288.024 744.666,287.063 745.386,287.784 
		746.826,287.784 753.305,287.543 754.984,287.304 755.704,287.304 763.863,287.063 771.062,287.304 774.9,287.063 803.936,285.863 
		819.532,285.863 819.772,285.863 820.973,285.623 839.209,285.144 850.247,285.144 863.205,284.663 871.604,284.423 
		871.363,284.903 869.684,285.383 869.203,285.863 868.724,286.344 868.483,287.784 868.244,288.024 867.764,288.024 
		866.564,288.504 864.404,287.543 863.685,286.824 863.444,286.583 862.725,286.344 862.005,286.344 860.564,287.543 
		859.365,288.264 858.165,288.264 857.205,288.983 855.525,290.904 855.286,292.584 855.525,294.024 856.966,296.425 
		857.926,297.145 858.886,299.545 860.325,300.025 860.564,301.945 860.325,305.306 860.564,306.746 860.564,307.466 
		860.325,307.946 860.805,311.786 862.005,312.986 863.205,314.426 863.924,315.867 865.364,316.586 865.364,316.827 
		865.604,316.827 865.364,317.307 865.364,318.026 865.124,318.747 864.885,318.987 864.645,318.987 864.404,318.747 
		864.165,318.987 863.924,318.987 863.685,319.467 863.205,320.187 862.244,321.147 861.045,322.107 861.045,322.347 
		861.045,322.587 861.525,323.067 861.525,323.307 861.525,323.547 859.365,326.428 859.125,326.428 858.405,327.147 
		857.926,327.388 857.926,327.628 857.686,328.828 856.726,330.028 856.485,330.028 855.286,330.268 854.086,331.228 
		853.366,332.188 853.127,332.668 853.127,333.148 853.606,334.108 853.606,334.588 852.406,335.548 851.927,336.029 
		851.687,336.749 851.687,337.229 852.166,337.709 852.646,338.669 852.887,339.629 852.887,339.869 852.887,340.109 
		852.646,340.109 852.406,340.589 851.447,341.309 850.728,343.709 850.728,344.189 850.486,344.189 850.247,344.43 850.007,344.43 
		850.007,344.189 849.287,344.669 847.848,346.35 847.607,347.07 847.607,347.79 848.327,348.75 849.048,349.23 849.048,349.95 
		848.807,350.43 848.327,352.83 848.567,353.791 848.327,354.75 846.888,356.431 846.647,356.671 845.688,356.671 843.769,357.631 
		843.048,358.831 843.048,359.311 843.288,359.551 843.048,359.791 841.849,360.991 841.608,361.711 841.369,362.191 
		841.369,362.431 841.129,362.431 840.648,362.911 840.408,362.911 839.689,363.392 839.209,364.591 839.209,365.312 
		838.969,365.312 838.729,365.552 838.249,366.031 837.049,366.271 835.369,366.992 835.13,367.231 835.13,367.472 835.13,367.712 
		835.13,367.952 835.369,368.192 835.369,368.432 835.61,368.432 836.33,368.912 836.81,369.872 836.81,372.032 836.569,372.752 
		836.569,374.192 836.81,374.672 837.29,374.913 838.249,374.433 838.489,374.672 838.489,374.913 838.249,376.112 838.249,376.593 
		839.449,377.793 841.369,381.153 842.568,381.873 842.568,382.113 842.568,382.354 842.809,382.354 842.568,382.593 
		842.328,383.313 842.328,383.793 842.568,384.033 842.809,384.273 843.769,384.514 843.769,384.993 843.288,385.233 
		843.048,385.954 843.048,386.674 843.288,387.634 844.008,388.834 843.769,389.314 843.528,390.034 843.528,390.274 
		844.968,391.234 845.448,391.474 846.407,391.474 846.647,391.954 846.647,392.435 846.168,392.914 845.928,393.395 
		845.928,393.875 846.168,394.595 845.928,395.075 845.688,395.794 845.688,396.275 846.168,396.995 846.407,397.235 
		846.647,397.235 847.127,397.475 848.088,397.475 848.088,397.955 848.088,398.435 848.088,398.675 848.327,399.155 
		849.048,399.155 849.287,399.155 849.527,399.155 849.768,398.915 849.768,398.675 850.007,398.195 850.247,398.195 
		850.486,398.195 850.486,398.435 850.728,398.435 851.207,399.155 851.927,401.075 852.166,401.315 852.166,401.795 
		852.166,402.035 851.927,402.515 851.207,402.515 851.207,403.235 851.207,403.476 851.447,403.715 851.927,403.955 
		852.646,404.676 852.887,404.916 853.127,405.155 853.606,406.355 853.366,406.596 853.127,407.076 852.887,407.076 
		852.887,407.316 852.646,407.556 852.646,409.716 853.127,412.116 853.127,412.836 853.127,413.316 852.887,414.037 
		852.887,414.517 852.887,415.237 853.127,415.477 853.127,415.717 853.127,416.437 853.366,416.917 853.366,417.157 
		854.326,417.157 856.246,418.117 857.205,418.597 856.966,419.797 856.485,420.277 856.485,420.517 855.286,421.477 
		854.807,421.717 854.326,421.717 853.846,421.237 853.606,421.237 853.366,421.477 853.366,421.958 853.366,422.438 
		854.566,423.638 854.566,423.877 854.326,424.357 853.846,424.598 853.606,424.598 852.887,424.357 852.646,424.357 
		852.406,424.357 852.406,424.598 852.406,424.837 852.166,424.837 852.166,425.078 852.406,425.798 852.166,426.278 
		851.927,426.518 851.687,426.518 851.207,426.758 849.768,426.758 848.567,426.278 845.208,426.038 844.729,426.038 
		844.729,426.278 844.488,426.518 844.248,426.758 844.008,426.998 844.008,427.478 843.528,428.678 843.528,429.158 
		843.769,429.638 843.769,429.878 844.008,430.118 845.688,431.558 848.567,433.718 849.048,434.198 849.048,434.679 
		849.287,435.159 848.807,436.119 848.327,437.079 847.127,438.999 846.407,439.479 846.168,439.479 844.729,439.479 
		844.488,439.719 844.488,440.439 844.968,441.159 846.168,442.119 846.407,442.359 846.647,443.56 846.888,444.04 848.327,445 
		848.327,445.24 848.327,445.479 848.327,445.72 848.088,445.96 847.848,445.96 847.607,445.96 846.888,445.72 846.168,445.72 
		846.407,446.68 846.168,447.16 845.928,447.16 845.688,447.16 845.688,446.92 845.448,446.68 845.208,446.44 844.968,446.44 
		844.488,446.44 844.248,447.16 844.248,447.88 844.248,448.36 844.008,449.56 843.769,450.28 843.528,450.52 843.528,450.76 
		843.288,451 843.048,451 841.849,451.48 841.129,451.72 839.689,451.24 839.209,451.24 838.969,451.48 838.969,451.72 
		838.249,452.68 837.77,452.44 837.529,452.44 837.529,451.96 837.049,451.72 836.81,451.72 836.569,451.72 836.33,451.72 
		836.09,451.72 835.85,451.72 835.85,451.96 834.41,453.88 833.689,454.121 832.97,454.601 832.49,455.321 832.49,455.561 
		832.49,456.281 832.73,456.521 834.17,457.481 834.17,457.961 833.689,458.921 833.21,459.161 831.53,459.161 831.29,459.161 
		830.57,461.321 830.091,463.722 830.091,464.202 829.851,464.922 829.61,465.162 829.61,465.402 829.37,465.642 828.891,466.362 
		827.932,466.842 826.011,467.082 825.531,467.322 825.531,467.562 825.531,468.282 825.531,469.482 824.092,470.922 
		822.893,471.642 820.973,473.322 820.973,473.563 820.252,474.042 819.053,474.763 817.613,475.002 817.613,475.243 
		817.373,475.243 816.653,475.002 815.213,475.002 814.974,475.002 813.773,475.002 812.814,475.243 812.814,475.482 
		812.573,475.482 812.334,475.723 812.094,475.963 811.854,476.443 811.854,476.683 811.374,477.883 811.135,477.883 
		810.894,478.123 809.694,477.883 808.734,476.683 808.255,476.443 807.055,476.443 806.335,476.443 805.615,476.923 
		804.655,477.643 803.936,478.123 803.216,478.603 800.576,478.603 799.856,478.843 799.616,478.843 797.937,480.763 
		797.697,481.243 797.697,481.723 798.416,482.923 798.416,483.164 798.416,483.644 797.697,483.884 796.497,483.644 
		795.537,484.124 795.297,484.364 794.817,486.284 795.057,486.764 795.777,487.244 795.777,487.724 795.537,487.964 
		795.057,488.444 794.817,488.924 795.057,490.124 795.777,491.804 795.777,492.044 795.537,492.765 795.297,493.004 
		794.338,493.484 792.657,493.725 790.979,494.445 790.019,495.165 788.578,496.365 788.099,496.605 786.658,497.325 
		784.499,497.565 782.819,498.525 782.58,498.765 782.34,498.765 782.1,498.765 781.379,498.525 779.939,497.565 775.86,495.645 
		775.381,495.405 774.421,495.165 772.021,495.645 770.342,497.085 769.382,498.525 767.941,499.005 767.223,499.005 
		765.782,498.525 762.902,498.525 761.703,499.005 757.624,498.525 756.904,499.005 756.424,500.685 755.944,501.165 
		752.824,502.605 751.145,503.565 750.186,503.806 748.985,504.045 748.506,503.806 747.546,503.565 746.826,503.565 
		745.866,504.045 745.866,505.006 746.106,505.486 746.106,508.366 746.106,509.326 745.866,510.046 745.146,511.246 
		744.666,511.727 742.986,513.167 741.307,513.646 740.107,514.847 738.668,517.727 738.188,519.647 738.428,520.607 
		738.907,520.607 739.627,520.127 740.107,519.887 740.348,520.607 740.107,520.847 740.107,521.327 739.867,521.567 
		739.627,522.047 739.867,524.448 740.107,524.448 741.307,527.328 742.027,528.048 742.267,528.288 742.507,529.008 
		742.507,529.488 742.746,529.968 742.027,531.408 741.547,533.809 741.307,535.009 741.547,536.209 741.547,536.449 
		741.547,536.689 741.307,537.169 740.348,539.569 740.348,540.049 740.348,541.489 740.107,541.969 739.147,542.45 738.907,542.93 
		738.668,545.33 739.627,546.77 740.587,548.45 741.547,552.291 742.986,553.971 742.986,554.211 744.187,554.451 744.666,555.651 
		744.666,555.891 744.427,556.371 743.946,557.091 743.946,557.331 744.187,559.971 744.187,561.412 744.187,561.651 
		744.187,561.892 745.146,562.852 745.866,563.332 746.106,563.572 745.146,565.732 744.906,565.732 744.427,565.492 
		744.187,565.492 743.227,565.972 741.787,567.412 741.307,569.813 741.307,570.292 741.787,572.453 741.787,572.692 
		741.787,573.173 742.027,573.173 742.027,573.413 742.267,573.653 742.267,573.893 742.507,574.133 742.746,574.373 
		742.746,574.613 743.227,574.613 743.467,574.613 743.706,574.613 743.946,574.613 744.187,574.373 744.187,573.413 
		744.427,572.933 744.427,572.692 744.666,572.692 744.666,572.453 744.906,572.453 745.386,572.453 746.346,572.933 
		746.826,573.413 746.826,574.133 746.586,575.573 746.346,576.293 746.106,576.533 745.626,577.013 744.666,577.013 
		744.427,577.013 743.227,576.773 742.986,577.013 742.746,577.733 742.986,578.213 744.906,579.413 746.106,580.133 
		746.586,580.613 746.586,580.854 746.586,581.093 746.346,581.333 746.346,581.573 746.106,581.573 745.626,581.813 
		745.386,581.813 745.146,581.573 744.906,581.573 744.666,580.854 744.187,580.854 742.267,581.093 742.267,581.333 
		742.027,581.333 742.267,581.813 742.746,582.534 742.986,583.254 741.787,584.694 741.066,586.374 740.827,586.614 
		740.587,586.854 739.147,586.614 738.428,586.854 738.188,587.814 738.188,588.054 738.428,588.054 739.627,588.774 
		739.867,589.254 738.907,589.494 736.988,590.694 736.269,591.174 736.027,591.415 736.027,591.654 735.788,592.135 
		735.788,592.615 736.748,594.295 736.988,594.775 736.748,595.015 735.788,595.735 735.548,595.975 735.548,596.215 
		735.308,596.455 735.308,596.695 735.308,597.655 735.308,598.135 735.068,598.135 734.588,598.375 733.389,597.415 
		733.148,597.415 732.669,597.895 732.429,598.135 732.188,598.855 732.429,599.815 733.389,601.016 733.628,601.496 
		733.628,601.976 733.148,602.216 732.669,602.216 732.669,601.976 	"/>
	
		<polyline clip-path="url(#SVGID_2_)" fill="none" stroke="#B37C34" stroke-width="1.4397" stroke-linecap="round" stroke-linejoin="round" stroke-miterlimit="3.85" points="
		732.669,601.976 732.669,601.735 732.429,600.775 731.469,600.295 730.749,600.536 730.028,601.016 730.028,601.255 
		730.028,601.735 730.028,602.216 730.509,603.896 730.509,604.136 729.309,604.856 727.629,606.536 727.39,606.776 727.39,607.736 
		728.349,608.937 728.59,609.896 728.59,612.057 728.349,612.777 728.349,613.737 727.869,614.697 727.869,615.177 728.109,615.417 
		728.829,615.657 729.789,614.697 730.269,614.697 732.188,615.177 733.389,615.657 733.628,615.897 733.628,616.137 
		733.389,616.137 731.709,616.617 731.229,616.857 731.229,617.577 731.469,618.057 731.709,618.537 731.469,618.537 
		730.269,620.697 730.028,621.178 728.829,621.658 727.869,621.658 727.629,621.658 727.39,621.897 727.149,622.138 
		727.149,622.377 727.149,622.858 727.149,623.098 727.39,625.018 727.39,625.258 727.629,625.498 727.629,625.978 727.39,629.338 
		726.91,630.059 726.669,630.778 723.311,633.419 721.15,635.099 719.711,636.059 718.751,637.499 718.031,638.939 718.031,640.379 
		717.552,640.62 716.111,641.1 715.392,641.1 715.152,641.339 714.911,641.82 714.672,643.02 715.152,644.22 715.632,645.18 
		715.632,645.42 715.871,645.9 716.111,646.38 714.432,647.34 713.473,647.34 713.231,647.34 712.992,647.58 712.512,647.58 
		712.512,647.82 712.032,648.3 711.552,650.46 711.552,651.42 712.512,654.061 712.752,657.422 712.512,658.621 711.793,659.821 
		711.313,661.021 711.313,661.502 711.793,663.182 712.272,664.382 712.512,665.582 712.272,666.782 710.832,667.982 
		710.353,669.902 709.873,670.863 709.393,671.343 707.953,672.543 707.473,673.022 707.473,673.743 707.713,675.663 
		707.713,677.344 707.473,677.583 706.993,677.823 706.273,678.544 705.073,678.783 704.594,679.023 704.114,679.744 
		703.874,680.943 703.394,681.664 702.914,682.144 701.954,683.823 701.234,684.544 700.994,684.784 699.314,685.744 
		698.595,686.225 694.756,688.625 694.275,689.104 692.596,689.104 691.396,691.265 690.677,691.985 689.477,693.425 
		688.996,694.385 687.797,696.306 687.077,697.025 686.117,697.745 685.637,698.465 685.397,698.945 685.157,699.426 
		684.918,701.105 684.677,702.066 684.677,702.546 684.677,702.785 684.677,703.026 684.677,704.946 684.677,705.186 
		685.157,705.666 685.397,706.626 685.157,708.066 685.157,709.506 684.677,710.467 683.957,711.666 683.478,712.627 
		683.238,712.867 682.998,712.867 682.998,713.106 682.998,713.347 682.758,713.587 682.758,714.066 682.518,715.747 
		682.758,715.987 682.998,716.707 682.758,717.668 682.758,717.907 682.518,718.387 680.838,719.107 680.118,719.588 
		679.878,719.588 679.878,719.827 679.639,719.827 679.398,720.067 679.398,720.308 679.398,721.027 679.878,721.508 
		679.878,721.748 679.398,722.948 678.678,723.428 678.198,725.348 678.198,726.788 678.678,727.988 679.398,728.709 
		679.639,729.188 679.639,729.429 679.878,730.389 679.639,731.109 679.398,731.349 678.678,731.589 674.599,735.189 
		671.479,736.39 669.561,737.59 669.32,737.83 669.08,738.069 667.881,739.51 667.641,740.47 667.16,742.63 667.16,743.11 
		667.641,745.511 667.641,750.07 667.16,751.751 666.92,751.99 665.961,753.432 665.721,753.911 665.481,754.151 665.481,754.391 
		664.521,754.151 664.281,755.352 664.281,756.312 664.041,756.791 663.561,758.711 663.561,759.432 663.561,759.672 
		664.041,760.392 665.721,761.592 666.681,762.792 667.641,764.952 667.641,765.432 667.641,765.912 667.641,766.152 
		667.641,766.393 667.4,769.033 667.4,769.272 667.4,769.513 667.4,769.752 667.16,770.473 666.92,770.952 666.681,770.952 
		665.24,772.633 665.001,773.113 665.001,773.833 665.481,778.153 665.24,778.873 664.761,780.073 664.761,780.313 664.521,781.033 
		664.281,781.994 664.281,782.234 664.281,783.674 664.281,784.635 664.041,785.354 663.321,789.675 663.321,790.875 
		662.841,793.275 662.361,796.876 662.361,797.115 662.121,797.596 660.202,799.275 659.722,800.716 659.722,801.676 
		659.722,805.036 659.962,805.756 660.202,806.236 662.361,807.677 663.081,807.677 664.281,807.677 665.001,807.677 
		665.24,807.677 665.481,807.916 665.481,808.156 665.481,808.396 665.481,808.637 664.281,810.077 663.561,810.797 
		663.081,811.518 661.881,813.917 661.642,814.157 661.161,815.117 661.161,815.357 660.922,815.598 660.922,815.838 
		660.922,816.317 661.401,817.277 662.841,819.438 663.802,820.397 663.802,820.638 664.041,820.878 664.281,821.357 
		664.281,821.598 664.281,821.838 662.841,824.719 661.401,831.198 659.722,834.799 658.522,837.439 658.282,837.439 
		657.082,838.16 656.603,838.399 655.162,838.88 654.923,839.36 654.443,840.8 654.443,843.439 654.923,845.36 655.402,846.32 
		655.643,846.801 655.643,847.04 655.402,847.761 655.162,848.24 654.683,849.44 653.963,851.36 653.963,852.561 654.443,854.481 
		654.683,856.401 654.683,856.642 654.443,856.881 654.443,857.122 653.243,858.081 652.523,859.041 651.803,859.762 
		652.044,860.722 653.243,862.882 653.243,863.122 653.243,863.603 653.243,863.843 653.003,864.322 651.803,865.762 
		651.323,866.243 651.323,866.723 651.323,869.603 651.563,871.522 651.563,871.764 651.323,872.003 651.323,872.243 
		651.084,872.482 651.084,872.723 650.364,873.203 650.123,873.443 650.123,873.684 650.364,874.163 650.364,874.403 
		651.323,876.563 652.283,877.284 653.243,877.044 653.723,877.284 653.963,877.523 653.963,877.764 653.963,878.244 
		653.963,878.724 653.963,878.964 653.482,878.964 653.482,879.203 653.482,879.443 653.723,879.684 653.723,879.924 
		653.963,880.164 654.683,880.884 654.683,881.124 655.162,881.604 655.402,882.084 655.643,882.564 655.883,882.805 
		655.883,884.484 655.643,884.965 655.402,885.685 654.203,886.885 653.963,886.885 653.963,887.124 653.723,887.604 
		653.482,887.845 653.482,888.564 654.443,890.485 655.162,893.125 655.162,893.365 655.162,893.605 655.162,893.845 
		655.162,894.085 655.162,894.565 654.203,896.246 653.003,897.926 651.563,899.606 650.844,900.326 650.604,900.565 
		649.164,901.766 648.684,902.246 648.444,902.727 648.204,902.967 647.964,903.206 647.964,903.446 647.964,903.927 
		647.964,904.886 648.204,905.366 648.924,906.566 649.403,907.527 649.403,908.967 649.164,910.167 648.924,911.367 
		648.924,911.606 648.924,912.087 648.924,912.327 649.644,914.007 649.884,914.248 650.123,914.968 651.084,915.447 
		653.003,917.127 653.243,917.607 653.243,917.848 653.243,918.327 653.003,919.048 652.283,920.008 651.563,920.248 
		650.364,920.008 649.644,920.488 648.924,921.448 648.444,922.408 648.444,923.608 648.684,924.809 649.164,925.528 
		649.164,925.769 648.444,926.729 648.204,927.209 646.764,928.889 646.284,929.129 645.805,929.369 645.084,928.648 
		644.604,928.648 643.405,929.369 641.965,930.568 639.326,931.289 638.606,931.769 636.206,932.01 635.966,932.01 635.486,932.489 
		632.847,934.649 632.367,935.369 632.367,936.09 632.367,936.569 633.087,937.29 633.327,937.29 633.567,937.53 633.807,937.53 
		633.807,937.77 633.807,938.01 634.046,938.25 634.046,939.449 634.046,939.689 634.287,940.65 634.287,941.13 634.046,942.33 
		634.046,942.811 634.767,946.17 634.767,946.891 634.526,947.131 634.526,947.371 634.287,947.371 633.567,947.851 
		633.327,948.331 633.327,948.57 633.087,949.051 633.087,949.771 633.087,950.011 633.087,952.172 633.087,952.651 
		632.847,952.651 632.607,953.131 632.127,953.852 631.887,954.331 631.647,954.571 630.927,955.291 629.487,956.012 
		628.288,956.492 628.048,956.731 627.568,959.611 627.568,961.052 627.328,962.252 627.328,962.492 627.568,962.732 
		627.808,964.413 627.568,965.132 627.328,965.613 627.328,966.093 627.088,966.573 627.088,966.813 627.088,967.053 
		627.328,967.293 628.048,968.732 629.007,970.173 629.248,971.613 629.248,973.053 629.728,975.934 630.447,980.494 
		630.447,980.734 631.167,981.935 634.287,984.814 635.966,986.255 636.686,986.975 636.926,987.455 637.166,987.694 
		637.646,988.415 637.886,988.895 638.126,989.615 638.366,989.855 638.366,990.814 638.366,991.056 638.366,991.295 
		637.886,991.775 636.926,992.495 636.446,993.215 636.686,994.176 637.166,994.896 637.646,994.896 637.886,994.896 
		638.366,994.656 640.045,993.695 640.525,993.215 640.525,992.256 640.766,992.015 641.485,991.775 642.445,992.015 
		643.165,992.976 643.405,993.936 643.885,994.176 645.084,995.136 645.564,995.615 645.805,996.815 646.284,998.977 
		646.524,1000.416 647.724,1001.856 649.403,1004.497 649.884,1005.697 649.884,1006.416 636.446,1005.937 624.928,1005.456 
		623.968,1005.456 617.49,1005.217 613.17,1004.977 599.733,1004.497 597.093,1004.497 575.498,1003.536 575.018,1003.536 
		572.858,1003.536 568.539,1003.297 561.1,1003.057 555.821,1002.816 541.184,1002.336 540.464,1002.336 519.828,1001.616 
		518.868,1001.616 513.109,1001.376 509.989,1001.376 507.59,1001.136 507.35,1001.136 503.271,1001.136 498.711,1000.896 
		495.592,1000.896 491.273,1000.656 486.234,1000.416 474.956,1000.177 474.476,1000.177 467.277,999.695 462.718,999.695 
		460.079,999.695 456.959,981.935 457.919,980.015 458.159,979.294 458.639,978.094 457.919,976.174 458.159,971.853 
		458.639,971.613 459.838,972.094 459.838,970.653 460.079,963.692 460.559,951.932 460.798,950.731 461.038,940.17 
		461.038,938.489 461.038,937.77 461.278,937.29 461.518,931.289 462.238,913.287 462.478,909.927 462.478,909.687 462.478,908.247 
		462.718,903.686 463.438,892.165 463.678,889.285 463.678,886.885 463.678,886.165 463.918,883.524 463.918,880.644 
		464.877,860.002 465.357,851.36 465.598,847.761 465.598,847.281 465.598,847.04 466.077,837.919 466.797,820.397 467.277,808.396 
		467.277,807.916 467.277,805.036 467.277,802.876 467.277,802.636 467.757,794.235 467.757,792.074 467.757,791.595 
		467.757,790.875 467.997,787.515 468.237,781.514 468.477,778.394 468.477,774.073 468.717,771.433 468.957,764.712 
		468.957,757.511 469.197,756.071 468.957,756.071 468.957,754.871 469.197,753.911 469.917,753.432 470.396,752.951 
		470.396,751.99 470.396,751.031 470.157,751.031 469.917,750.07 469.437,749.351 469.197,748.871 468.957,748.631 468.477,748.391 
		468.477,746.23 468.957,745.511 468.717,745.03 467.997,744.311 466.557,741.67 466.077,741.189 465.357,740.47 464.158,739.51 
		461.758,738.549 461.518,738.31 461.518,737.59 460.559,737.109 458.639,737.35 458.399,737.109 458.159,736.629 458.399,736.149 
		458.399,735.909 458.879,735.43 458.879,735.189 457.919,734.469 458.639,732.789 458.879,732.549 458.879,731.828 
		458.879,731.109 458.879,729.669 458.639,728.948 457.679,727.269 457.199,727.028 456.959,725.348 456.719,722.948 
		456.719,722.708 456.719,722.468 456.239,721.988 455.759,721.748 455.52,721.748 454.799,722.948 454.319,722.708 453.36,721.748 
		451.92,721.748 450.96,722.228 447.601,722.228 446.401,723.188 443.761,722.468 443.761,722.708 442.322,722.948 441.842,722.948 
		441.602,722.468 441.362,722.468 440.882,722.708 440.642,723.188 441.362,724.147 441.362,724.389 440.162,725.588 
		439.922,726.309 440.642,728.469 440.642,728.709 440.402,729.188 439.442,730.389 438.002,731.349 438.002,735.189 
		438.243,736.869 438.002,737.35 438.002,737.59 437.763,738.069 436.083,739.75 435.123,740.229 434.643,740.229 434.163,739.989 
		432.963,739.27 430.324,737.35 429.604,736.149 428.164,735.669 427.685,735.189 427.444,734.709 427.205,734.229 427.205,733.989 
		427.444,733.269 428.644,730.629 429.364,729.188 429.364,728.229 428.884,726.788 428.884,726.309 430.324,723.668 
		430.324,723.428 430.084,722.948 427.924,719.348 427.924,718.627 428.404,716.707 428.644,716.228 429.124,715.747 
		430.084,715.027 431.044,713.587 431.284,711.906 432.724,708.307 432.724,707.347 432.963,707.106 433.683,704.706 
		433.683,703.746 433.683,703.506 433.443,702.306 433.443,701.826 433.683,701.826 434.163,700.865 435.123,700.386 
		435.603,699.905 435.603,699.665 436.083,698.945 436.563,697.745 438.002,695.105 438.482,694.385 439.682,693.186 
		441.362,690.785 441.602,689.824 441.362,687.664 441.602,685.504 441.602,685.023 441.602,684.784 441.842,684.544 
		443.042,682.624 443.282,682.144 	"/>
</g>
</svg>
