<?xml version="1.0" encoding="utf-8"?>
<!-- Generator: Adobe Illustrator 15.1.0, SVG Export Plug-In . SVG Version: 6.00 Build 0)  -->
<!DOCTYPE svg PUBLIC "-//W3C//DTD SVG 1.1//EN" "http://www.w3.org/Graphics/SVG/1.1/DTD/svg11.dtd">
<svg version="1.1" id="State" xmlns="http://www.w3.org/2000/svg" xmlns:xlink="http://www.w3.org/1999/xlink" x="0px" y="0px"
	 width="1296px" height="1296px" viewBox="0 0 1296 1296" enable-background="new 0 0 1296 1296" xml:space="preserve">
<g>
	<defs>
		<rect id="SVGID_1_" x="259.22" y="351.621" width="779.516" height="595.772"/>
	</defs>
	<clipPath id="SVGID_2_">
		<use xlink:href="#SVGID_1_"  overflow="visible"/>
	</clipPath>
	
		<polyline clip-path="url(#SVGID_2_)" fill="none" stroke="#B37C34" stroke-width="0.48" stroke-linecap="round" stroke-linejoin="round" stroke-miterlimit="3.85" points="
		343.459,752.483 339.859,752.244 339.62,752.244 333.379,752.003 326.9,751.764 323.78,751.523 322.58,751.523 320.42,751.283 
		319.459,751.283 318.02,750.803 317.3,750.803 315.379,750.563 311.78,750.563 309.379,750.323 306.74,750.323 302.42,750.083 
		300.979,750.083 299.54,749.844 298.58,749.844 294.5,749.603 294.26,749.603 293.54,749.603 290.9,749.363 290.18,749.363 
		289.22,749.363 287.78,749.123 286.58,748.883 286.1,748.883 285.86,748.883 285.38,748.883 284.42,748.644 283.7,748.644 
		283.22,748.644 283.22,748.402 283.22,748.163 283.46,748.163 283.94,748.163 284.18,747.923 284.66,747.443 285.62,746.963 
		285.62,746.243 285.86,746.243 286.34,746.243 286.82,746.482 287.3,746.243 287.78,746.243 288.26,746.002 288.26,745.763 
		288.5,745.763 288.5,745.522 288.74,745.282 289.22,745.043 289.459,745.043 289.7,745.043 289.94,745.043 291.38,744.563 
		292.1,744.563 292.58,744.322 293.06,744.082 293.3,743.603 294.02,743.362 294.74,743.362 295.22,743.122 295.939,742.643 
		295.939,742.402 296.18,742.402 296.18,742.162 296.42,742.162 297.38,742.162 297.86,741.922 298.34,742.162 298.82,741.922 
		299.06,741.922 299.54,741.922 299.78,742.162 300.5,742.402 301.7,742.643 302.42,742.643 302.66,742.643 302.9,742.643 
		303.38,742.643 304.1,742.643 304.34,742.643 304.82,742.643 305.54,742.643 306.02,742.402 306.26,742.402 306.74,742.162 
		307.939,741.682 308.18,741.682 308.18,741.442 308.66,740.722 308.9,740.722 310.58,740.002 311.06,740.002 311.3,740.002 
		311.54,740.002 311.78,739.762 312.02,739.762 312.26,739.521 312.74,739.281 312.979,739.281 315.14,738.802 315.14,738.562 
		315.379,738.562 315.62,738.562 315.859,738.321 316.1,738.321 316.34,738.321 317.3,738.321 317.78,738.081 318.02,738.081 
		318.74,737.842 318.979,737.842 319.22,737.842 319.459,737.842 319.939,737.602 320.42,737.361 320.66,737.361 321.379,737.121 
		322.1,736.881 322.34,736.881 322.82,736.881 323.06,736.881 323.78,736.641 325.459,735.921 325.7,735.921 325.939,735.921 
		326.42,735.921 327.62,735.921 328.34,735.921 328.82,735.921 329.3,735.682 330.259,735.682 330.979,735.682 331.22,735.682 
		331.22,735.201 331.7,734.961 331.939,734.961 331.939,734.24 331.939,734.001 331.939,733.761 332.18,733.761 331.7,733.521 
		331.459,733.281 331.7,733.281 331.7,733.04 331.939,732.801 331.939,732.081 331.7,731.84 331.7,731.601 331.939,731.12 
		332.42,731.12 332.9,730.64 333.379,729.92 333.62,729.681 333.859,729.439 334.34,728.96 334.82,728.239 334.82,728 
		334.82,727.28 334.82,727.04 334.58,726.8 334.58,726.56 334.58,726.319 334.82,726.319 335.54,726.08 335.54,725.84 
		335.779,725.84 336.02,725.6 336.5,725.359 336.979,725.359 337.22,724.88 336.979,724.159 337.22,723.919 337.459,723.919 
		337.7,724.159 337.939,724.159 338.42,723.919 338.9,724.159 339.379,724.159 339.62,724.159 339.859,723.919 341.3,723.919 
		341.54,724.399 341.779,724.64 342.5,724.88 342.739,724.88 342.979,724.88 343.22,724.399 343.7,723.919 344.66,723.68 
		345.379,723.68 345.859,723.68 346.1,723.919 346.58,723.68 346.82,723.68 347.06,723.439 347.779,723.199 348.02,723.199 
		349.22,722.959 350.419,722.479 351.379,722.479 351.62,722.479 351.859,722.479 351.859,722.239 351.859,721.999 351.859,721.759 
		352.58,721.759 352.82,721.519 353.3,721.519 353.54,721.039 353.779,721.039 354.259,721.039 354.259,720.799 354.5,720.559 
		354.5,720.318 354.5,720.078 354.979,720.078 355.22,719.599 354.979,719.358 354.5,718.878 354.739,718.639 354.979,718.398 
		355.459,717.919 355.7,717.438 355.939,717.438 355.939,717.198 356.179,717.198 356.419,716.719 356.419,716.238 356.179,715.758 
		356.179,715.519 356.179,715.038 356.179,714.798 356.419,714.558 356.659,714.077 356.419,714.077 356.179,713.838 
		356.179,713.598 355.939,713.598 355.7,712.877 355.459,712.637 355.7,711.918 355.7,711.677 355.7,711.437 355.939,711.437 
		355.939,711.197 356.179,711.197 356.419,711.437 356.659,711.437 356.659,711.197 356.899,710.957 357.139,710.718 
		357.379,710.718 357.859,710.718 358.1,710.478 358.34,710.478 358.58,710.236 358.82,709.997 359.06,709.757 359.3,709.277 
		359.06,709.037 359.3,708.797 359.3,708.557 359.54,708.317 359.779,708.557 360.02,708.557 360.259,708.557 360.5,708.317 
		360.739,708.557 361.7,708.317 361.939,708.077 362.179,708.317 362.179,708.557 362.419,708.557 362.659,708.557 362.899,708.317 
		363.139,708.317 363.379,708.317 363.62,707.837 363.859,707.597 364.1,707.597 364.339,707.597 364.82,707.117 364.82,706.877 
		365.54,706.396 366.02,706.637 366.259,706.877 366.5,706.637 366.739,706.156 366.979,704.956 366.979,704.717 367.7,704.717 
		367.939,704.717 368.419,704.956 368.659,704.956 368.659,704.717 368.659,704.477 368.659,703.756 368.899,703.276 
		368.659,702.796 368.659,702.315 368.419,701.596 368.659,701.355 368.899,701.355 369.379,701.355 369.379,701.115 
		369.379,700.876 369.139,700.636 368.899,700.396 368.899,699.436 369.139,699.195 369.139,698.475 369.139,697.995 
		368.659,697.275 368.659,697.035 368.899,697.035 369.139,696.555 369.62,696.314 370.1,696.074 370.339,696.074 371.54,695.354 
		371.779,695.114 372.5,694.875 372.979,694.875 373.22,695.114 373.459,694.875 373.7,694.635 373.939,694.395 374.419,694.155 
		374.899,694.155 375.139,693.435 375.379,693.435 376.1,693.194 377.059,693.194 377.059,692.955 377.779,692.234 378.259,691.754 
		378.5,691.754 379.22,691.273 379.7,691.034 380.179,690.794 380.419,690.794 380.659,690.555 380.659,690.314 380.659,690.073 
		381.14,689.834 381.379,689.834 381.859,689.594 382.1,689.594 383.059,688.873 383.779,688.394 384.259,688.154 384.5,687.914 
		384.979,688.154 385.22,687.914 385.7,687.914 385.939,687.673 386.179,687.673 386.179,687.434 386.179,687.193 386.419,687.193 
		386.899,686.953 387.139,687.193 387.859,686.714 388.1,686.714 388.339,686.473 388.339,686.233 389.059,685.754 389.299,685.754 
		389.299,685.993 389.539,685.993 389.779,685.993 390.02,685.754 390.02,685.514 390.259,685.273 390.5,685.273 390.979,685.033 
		391.459,685.033 392.179,684.793 392.179,684.553 392.659,684.793 393.139,684.313 393.379,684.073 393.62,684.073 
		394.579,683.833 395.059,683.833 396.259,683.353 398.419,682.873 398.659,682.633 399.139,682.633 399.379,682.633 
		399.62,682.633 399.859,682.633 400.819,682.152 401.779,682.152 402.02,681.912 402.979,681.192 402.979,680.473 403.459,680.713 
		403.939,680.473 404.419,680.232 404.899,679.752 405.139,679.512 405.139,679.272 405.379,679.032 405.859,678.552 406.1,678.312 
		406.579,678.072 407.539,677.353 408.02,676.872 410.899,674.711 414.02,672.071 415.459,670.871 419.779,667.511 420.259,667.03 
		420.979,666.551 421.459,666.07 421.939,665.83 422.419,665.35 423.379,664.39 423.619,664.39 426.499,661.989 427.939,660.79 
		429.139,659.829 436.339,653.828 436.339,654.309 437.059,654.309 437.299,654.309 437.299,654.789 437.299,655.028 
		437.539,655.028 438.259,654.548 438.499,654.789 438.259,655.028 438.259,655.269 438.259,655.509 438.499,655.748 
		438.499,655.989 438.259,656.229 438.259,656.469 438.499,656.709 438.979,656.709 438.979,656.469 439.459,655.989 
		439.939,656.469 439.939,656.709 439.699,656.709 439.459,656.709 438.739,656.948 438.499,657.189 438.259,657.429 
		438.499,657.669 438.259,657.909 438.019,657.909 437.779,657.909 437.539,657.909 437.539,658.148 437.539,658.39 
		437.539,658.629 437.539,658.869 437.299,658.869 436.579,658.629 436.099,659.109 435.379,659.59 435.139,659.59 434.659,659.59 
		434.419,659.59 434.179,659.59 434.179,659.829 433.699,660.31 433.699,661.27 433.939,662.229 434.419,662.71 434.419,662.949 
		434.659,662.949 434.899,662.71 435.139,662.71 435.379,662.71 436.099,663.189 435.859,663.43 436.339,663.67 436.819,663.67 
		437.059,663.67 437.299,663.91 437.779,663.91 438.019,664.63 438.259,664.63 438.499,664.63 438.739,664.87 438.739,665.11 
		438.739,665.35 438.259,665.83 438.739,666.79 438.979,667.271 439.219,667.511 439.699,667.751 439.699,668.23 439.459,668.23 
		439.219,668.471 439.219,668.71 439.219,669.191 439.219,669.431 439.219,669.671 438.739,670.151 438.499,671.11 438.499,671.352 
		438.739,671.352 438.739,671.831 438.979,672.552 439.219,672.791 439.219,673.271 439.219,673.511 439.459,673.511 
		439.699,673.752 439.939,673.991 440.179,674.472 440.419,674.472 440.659,674.472 440.659,674.711 440.899,675.191 
		441.139,675.191 441.379,675.432 441.619,675.432 441.619,675.672 441.859,676.152 441.859,676.392 441.859,676.632 
		442.099,676.632 442.579,676.632 442.819,676.632 443.059,676.632 443.299,676.392 443.299,676.632 443.299,676.872 
		443.779,677.353 443.779,677.592 444.019,677.832 444.259,677.832 444.979,678.312 444.979,678.552 444.499,678.792 
		444.499,679.032 444.739,679.512 444.979,679.512 445.219,679.272 445.459,679.272 445.459,679.992 445.219,679.992 
		445.459,680.713 445.219,680.952 445.459,681.433 445.699,681.673 445.939,681.673 446.179,681.673 446.419,681.673 
		446.659,681.673 446.899,681.673 447.139,681.912 446.899,681.912 446.899,682.152 447.859,682.393 448.099,682.393 
		448.339,682.393 448.579,682.393 448.819,682.152 449.059,682.152 449.299,682.152 449.539,681.673 449.779,681.673 
		450.499,681.912 450.499,682.152 450.739,681.912 450.979,681.912 451.459,682.152 451.699,682.393 451.699,682.873 
		451.939,682.873 452.179,683.113 452.659,683.113 452.899,683.113 453.139,683.113 453.379,683.113 453.619,683.113 
		453.619,683.353 453.619,683.593 453.859,683.833 454.099,684.073 454.339,684.313 454.579,684.313 454.579,684.553 
		454.579,685.033 454.819,685.273 455.059,685.514 454.819,685.993 454.819,686.233 454.579,686.473 454.579,686.714 
		455.059,686.953 455.059,687.193 455.539,687.193 456.019,686.953 456.259,686.953 456.499,686.953 456.739,687.193 
		456.979,687.673 456.979,688.154 458.419,689.354 458.899,689.834 459.619,690.073 459.859,690.314 459.859,690.794 
		459.859,691.034 460.099,691.273 460.339,691.273 461.779,691.273 463.939,691.273 465.619,691.273 468.259,691.034 
		470.179,691.034 470.419,691.034 470.659,691.034 470.899,691.034 471.139,691.034 471.379,690.314 471.859,689.594 
		472.819,689.354 473.299,689.114 474.019,689.114 474.979,688.394 475.219,688.394 475.219,687.673 475.219,687.193 
		475.459,686.714 475.459,686.473 475.699,686.233 475.939,685.754 476.179,685.754 475.939,685.754 476.179,685.993 
		476.179,686.233 476.659,686.473 477.379,686.473 477.619,686.473 477.859,685.993 478.579,685.754 478.819,685.754 
		479.059,685.754 479.299,685.514 479.299,685.273 479.299,685.033 479.539,684.793 480.019,684.793 480.259,684.553 
		480.499,684.553 481.699,684.313 482.179,684.553 483.139,684.313 483.619,683.593 483.859,683.113 483.859,682.873 
		484.339,681.673 484.339,681.433 484.579,681.192 484.819,681.192 485.059,680.952 485.059,680.713 484.819,680.473 
		484.819,680.232 485.299,679.752 485.779,679.272 486.019,679.272 486.019,679.512 486.259,679.512 486.499,679.512 
		486.739,679.512 486.979,679.512 487.219,679.272 487.219,678.792 487.699,678.552 487.699,678.312 487.459,678.072 
		487.699,678.072 487.699,677.832 487.699,677.592 488.179,677.353 490.339,680.232 491.779,681.673 491.779,681.912 
		492.019,681.912 493.939,683.833 494.659,684.313 494.899,684.553 495.619,685.273 496.339,685.993 496.819,686.473 
		497.059,686.473 498.019,687.434 498.259,687.673 498.979,688.394 499.699,688.873 500.179,688.634 501.379,688.154 
		501.619,688.154 503.059,687.193 503.299,686.953 503.779,686.714 503.779,686.473 504.019,686.473 504.739,686.233 
		504.739,685.993 505.459,685.754 506.899,685.514 508.579,684.793 509.539,684.553 511.219,684.073 512.179,683.833 
		514.339,683.593 514.819,683.593 516.259,683.353 517.459,683.113 518.659,682.873 519.379,682.633 519.859,682.393 
		521.299,682.152 521.299,682.393 521.059,682.873 521.059,683.113 521.059,683.353 521.539,683.353 521.779,683.353 
		522.259,683.353 523.938,683.113 524.899,682.633 525.379,682.393 525.859,682.152 526.579,681.912 528.019,680.952 
		529.938,679.512 530.898,678.552 531.139,678.312 532.579,677.592 532.099,676.872 531.139,675.672 531.139,675.432 
		530.898,675.191 530.418,674.472 529.699,673.511 531.619,670.631 531.619,670.391 531.379,670.151 531.379,669.671 
		531.619,669.191 532.099,668.71 532.099,668.951 532.579,668.951 532.819,669.191 533.059,669.431 533.299,669.431 
		533.539,669.191 533.779,669.191 534.019,669.191 534.499,669.671 535.458,670.631 536.179,671.11 536.418,671.352 
		536.418,671.591 536.418,671.831 536.418,672.071 536.418,672.311 536.898,672.311 536.898,672.552 537.139,672.552 
		537.619,672.552 537.858,672.552 538.339,672.552 538.579,672.791 538.579,673.031 538.579,673.271 539.059,673.752 
		539.539,675.191 540.499,674.952 541.458,674.231 541.699,674.231 542.418,673.991 542.898,673.752 543.619,673.511 
		543.858,673.511 544.099,673.271 544.339,673.271 544.579,673.271 544.579,673.031 544.818,673.031 545.299,672.791 
		545.539,672.552 546.499,672.071 546.979,671.831 548.898,670.871 549.619,670.391 549.858,670.151 550.579,669.91 
		551.299,669.431 551.299,669.191 551.539,668.951 551.779,668.951 552.259,668.71 552.499,668.71 552.499,668.471 552.979,668.23 
		554.418,667.511 555.378,666.79 555.858,666.311 557.539,665.35 558.019,664.87 558.738,664.63 559.458,664.39 559.699,664.39 
		560.418,664.39 560.418,664.15 560.898,664.15 561.139,664.15 561.858,664.15 562.099,663.91 562.338,663.67 563.778,666.311 
		563.539,667.511 563.298,667.751 563.539,668.951 565.219,670.151 566.179,669.91 566.898,669.191 567.378,668.951 568.099,668.71 
		569.539,667.271 571.698,666.311 571.938,666.07 573.378,665.11 573.858,665.11 574.338,664.87 574.579,664.63 575.059,664.15 
		574.818,663.67 576.738,662.949 577.938,662.71 578.178,662.47 578.898,662.229 579.378,661.989 579.858,661.75 580.579,661.27 
		582.258,658.629 581.298,658.148 579.858,659.109 578.178,658.148 578.418,657.669 578.658,657.669 578.898,657.669 
		579.378,657.429 579.619,657.189 578.418,655.028 578.178,655.028 579.619,654.309 581.298,653.589 582.258,652.868 
		582.738,652.628 582.979,652.389 583.458,652.389 583.698,652.147 583.938,652.147 584.418,651.908 585.139,651.188 
		586.099,650.708 587.298,649.268 587.539,648.788 587.778,648.308 587.539,648.308 586.099,647.347 584.898,646.627 
		584.178,646.387 583.938,646.387 583.698,646.387 583.458,645.907 582.738,645.187 581.778,642.066 581.298,641.346 
		581.539,641.106 582.258,640.866 583.218,639.666 583.458,639.186 584.178,638.466 584.658,638.226 585.139,637.746 
		585.139,637.506 585.139,637.266 584.418,636.786 584.418,636.306 584.898,634.385 585.139,634.385 585.378,634.385 
		585.378,633.905 585.378,633.665 585.858,633.185 586.338,632.945 587.059,632.225 587.298,631.985 587.539,631.985 
		588.019,631.985 588.258,632.225 588.499,632.225 588.499,631.745 588.258,631.505 588.019,631.505 587.778,631.025 
		587.539,630.545 587.298,630.545 587.298,630.305 587.539,629.825 588.258,628.625 588.499,628.625 588.979,628.384 
		589.458,627.904 589.458,627.664 589.698,627.184 589.698,626.944 589.938,626.704 590.178,626.464 590.418,626.224 
		590.658,625.984 591.138,625.744 591.618,625.504 591.378,624.544 591.378,624.304 591.618,624.063 592.099,623.824 
		592.099,623.583 592.338,623.104 592.578,622.383 593.298,621.663 594.019,620.943 594.258,620.703 594.499,620.463 
		594.738,620.703 594.979,620.703 595.938,619.983 595.938,619.743 596.178,619.503 596.658,619.263 596.898,619.263 
		597.138,619.263 597.138,619.023 597.138,618.783 597.138,618.543 597.138,618.303 598.098,617.343 598.578,616.863 
		599.059,617.103 599.778,615.902 600.499,615.182 600.979,614.702 600.979,614.462 601.698,613.982 601.938,613.742 
		602.418,613.502 602.658,613.262 602.898,612.782 603.138,612.782 604.338,611.822 605.298,610.862 606.258,609.901 
		606.258,609.662 606.499,609.421 606.738,609.181 607.218,608.941 607.458,608.701 607.698,608.221 607.938,607.981 
		607.938,607.741 607.938,607.501 608.418,606.781 608.658,606.781 608.898,606.541 608.658,606.301 609.138,605.341 
		609.378,605.101 609.618,605.101 609.858,604.861 609.858,604.381 609.858,604.141 609.858,603.9 610.098,603.42 610.338,603.181 
		611.058,601.5 611.058,600.78 611.538,599.58 612.018,599.1 612.498,598.38 612.979,598.14 613.218,597.899 613.218,597.66 
		613.458,597.419 613.938,596.939 613.938,596.699 613.698,596.459 613.218,596.459 612.979,596.219 612.738,595.019 
		612.498,595.019 612.498,594.539 612.498,594.059 612.498,593.819 613.458,593.579 613.698,593.099 613.938,592.619 
		614.178,592.139 614.418,591.898 614.658,591.659 615.138,590.218 614.898,589.979 614.658,589.979 614.658,589.738 
		614.898,589.258 614.898,589.018 614.658,588.778 614.418,588.778 	"/>
	
		<polyline clip-path="url(#SVGID_2_)" fill="none" stroke="#B37C34" stroke-width="0.48" stroke-linecap="round" stroke-linejoin="round" stroke-miterlimit="3.85" points="
		614.418,588.778 614.898,588.538 614.898,588.298 614.898,588.058 615.138,587.818 615.378,588.058 615.858,587.818 
		616.578,587.338 617.058,586.618 617.058,586.378 617.058,586.138 617.538,585.898 617.778,585.898 618.258,585.417 
		619.458,584.217 620.178,583.257 620.658,583.018 621.138,582.297 621.378,582.297 621.858,582.297 622.098,582.297 
		622.098,582.057 622.098,581.817 622.098,581.577 622.338,581.337 622.818,581.337 623.298,581.577 623.538,581.337 
		623.778,581.097 623.778,580.857 623.778,580.377 624.018,580.137 624.498,580.377 624.978,580.137 625.218,579.657 
		625.938,579.417 626.178,578.937 625.938,577.977 625.458,577.017 625.218,576.776 624.978,576.776 624.738,576.776 
		624.738,576.296 624.738,576.056 624.498,575.816 624.258,575.336 624.258,575.096 624.498,574.856 624.738,574.376 
		625.218,574.136 625.218,573.896 625.458,573.416 626.178,572.696 626.418,572.696 626.898,572.456 627.378,572.216 
		627.858,571.496 628.098,570.535 628.098,570.295 628.338,569.815 628.818,569.815 629.058,569.815 630.018,570.055 
		630.258,570.055 630.738,569.815 630.978,569.575 631.218,569.335 631.458,569.335 631.458,569.095 631.458,568.855 
		631.458,568.375 631.458,568.135 631.218,568.135 630.978,568.135 630.978,567.895 631.218,567.655 631.218,567.415 
		631.218,567.175 631.458,566.455 631.938,566.215 632.178,565.734 632.178,565.495 632.418,565.015 632.658,564.774 
		632.658,564.535 633.138,564.054 633.138,563.814 633.378,563.574 634.818,561.894 634.818,561.654 634.578,561.414 
		634.578,561.174 634.578,560.934 634.818,560.694 634.578,560.214 634.818,559.734 634.818,559.014 634.818,558.773 
		634.578,558.293 634.578,558.053 634.338,557.813 634.098,557.573 633.858,557.093 634.098,557.093 634.338,556.854 
		634.338,556.613 634.578,556.373 634.338,556.373 634.098,555.893 634.098,555.653 634.338,554.933 634.578,554.693 
		635.058,554.693 635.298,554.213 635.538,553.973 635.538,553.493 635.538,553.253 636.258,553.253 636.498,553.493 
		636.498,553.253 636.738,553.013 636.978,552.772 637.218,552.772 637.218,552.292 636.738,551.813 636.498,551.333 
		636.258,551.333 636.738,550.612 636.738,550.132 636.498,549.652 636.738,548.932 636.978,547.732 637.218,547.732 
		637.458,547.492 637.458,547.252 637.218,547.012 637.458,546.532 637.698,546.532 637.698,546.052 638.418,544.371 
		644.898,547.492 645.378,547.732 646.338,547.972 647.538,548.692 647.778,548.932 648.018,548.932 648.258,549.412 
		648.258,549.652 648.258,549.892 649.219,550.853 649.698,551.813 650.178,552.772 651.139,554.693 651.139,554.933 
		652.098,557.333 653.058,559.253 661.938,562.614 666.979,564.294 667.938,564.054 668.178,563.814 668.418,563.574 
		668.658,563.334 668.897,563.334 669.139,563.334 669.378,563.574 669.618,563.334 669.857,562.854 669.618,562.854 
		669.618,562.614 669.618,562.374 669.618,562.134 670.338,561.654 670.338,561.414 670.818,561.414 671.058,561.174 
		671.298,560.934 671.298,560.694 671.298,560.454 672.019,559.494 672.498,559.734 672.979,559.734 672.979,559.494 
		672.979,558.534 673.218,558.053 673.698,557.573 673.938,557.573 674.418,557.333 674.658,557.093 674.897,556.854 
		674.897,556.613 674.897,556.373 674.897,556.133 675.378,555.893 675.618,555.653 675.857,555.413 675.857,555.173 
		675.857,554.693 676.098,554.453 675.618,553.973 676.098,552.053 676.578,551.813 676.818,550.853 677.298,550.132 
		677.538,549.652 678.019,549.172 678.258,548.212 678.738,547.732 678.738,547.492 678.979,547.492 679.218,547.492 
		679.218,547.252 679.218,547.012 679.218,546.771 679.458,546.292 679.938,545.812 680.178,544.852 680.178,544.611 
		680.178,543.891 680.658,543.171 680.418,542.931 680.658,542.691 680.897,541.731 681.378,541.251 681.618,540.291 
		681.857,539.811 682.098,539.811 682.098,539.571 682.098,539.331 682.338,539.09 682.338,538.851 682.578,538.371 682.578,538.13 
		682.818,537.89 683.298,537.41 683.538,537.41 684.258,537.41 684.738,537.89 685.938,537.41 685.938,537.17 685.938,536.93 
		686.178,536.45 686.418,535.97 686.657,534.53 686.657,534.29 686.418,534.29 686.178,533.81 685.938,533.089 685.938,532.85 
		686.418,531.409 686.418,530.929 686.657,530.449 686.897,529.969 687.138,529.249 687.378,528.769 687.618,528.529 
		687.618,528.289 687.618,528.049 688.338,527.089 688.578,526.849 689.058,526.608 689.058,526.369 689.058,525.889 
		689.058,525.408 689.298,525.168 689.538,525.168 689.538,524.688 689.538,524.448 689.298,524.448 689.058,524.208 
		689.298,523.728 689.777,523.248 690.019,523.008 690.979,523.248 691.458,523.248 691.938,522.528 691.938,522.048 
		691.938,521.808 691.938,521.328 692.178,520.368 692.418,520.127 692.897,520.127 693.138,519.888 693.378,519.647 
		693.378,519.407 693.378,518.927 693.617,518.207 694.098,517.967 694.098,517.727 693.857,517.247 694.098,517.247 
		694.338,517.007 694.338,516.767 694.578,517.007 702.738,524.208 704.897,526.369 705.378,525.889 705.378,525.408 
		706.818,523.008 708.018,521.088 708.258,520.848 708.498,519.888 709.218,518.927 709.698,517.727 709.938,517.007 
		710.178,516.287 710.418,516.047 710.418,515.807 711.138,514.367 711.617,513.887 711.857,513.646 711.857,513.167 
		712.098,512.926 712.818,512.446 713.298,512.207 714.498,511.486 714.498,511.246 714.738,510.766 715.218,509.806 
		716.178,508.606 717.138,508.125 717.378,508.125 717.617,508.125 717.857,507.886 718.098,507.646 717.857,508.606 
		717.617,508.846 717.857,509.086 717.857,509.326 717.617,510.526 717.857,510.766 717.857,511.006 718.098,511.006 
		718.098,510.766 718.338,510.766 718.338,510.526 719.058,509.806 719.537,509.806 720.258,509.086 720.258,508.846 
		720.498,508.846 720.978,508.606 720.978,508.846 721.458,508.366 721.938,507.886 722.178,507.166 722.418,506.925 
		722.657,506.445 722.897,506.445 723.138,505.725 723.378,505.005 723.857,504.045 724.577,504.285 725.058,503.325 
		725.058,503.085 725.298,502.845 725.537,502.845 725.537,502.605 725.777,502.605 726.258,502.605 726.258,503.085 
		726.258,503.565 726.738,503.325 726.978,503.325 727.218,504.045 727.698,504.525 727.698,504.285 727.938,504.045 
		728.178,503.805 728.418,503.805 728.897,503.085 729.378,502.365 729.378,501.885 729.617,501.645 730.338,500.685 
		730.338,500.444 730.577,500.444 731.058,499.725 731.298,499.484 731.777,499.004 732.018,499.004 732.018,498.764 
		731.537,498.284 731.298,498.044 731.058,497.804 730.818,497.804 730.338,497.084 731.298,496.124 731.537,495.884 
		731.777,495.404 732.258,494.684 732.498,494.684 732.738,494.443 732.978,493.963 733.698,493.483 734.178,493.243 
		734.418,493.003 734.897,492.283 735.138,492.043 734.897,491.803 735.378,491.323 735.617,491.083 736.098,490.843 
		736.818,489.883 736.818,489.643 737.777,488.923 738.258,488.683 738.498,488.923 738.738,488.923 738.978,488.683 
		739.218,488.442 739.698,488.442 741.617,486.282 741.617,486.042 741.857,485.322 742.577,484.122 743.777,483.402 
		743.777,483.162 744.018,482.922 744.498,482.442 744.258,482.202 743.777,481.961 742.577,480.761 742.338,480.281 
		742.818,479.801 742.818,479.562 742.338,479.321 741.857,479.321 741.617,479.081 741.617,478.841 742.098,478.361 
		742.338,478.361 742.338,478.121 742.577,477.881 742.818,477.641 743.298,476.921 744.498,475.48 744.498,474.761 
		744.498,474.521 744.978,474.041 744.018,473.32 743.537,472.84 743.298,472.84 743.298,472.6 743.537,472.12 743.537,471.88 
		744.738,470.68 744.738,470.44 744.978,470.2 745.457,469.96 745.457,469.72 745.698,469.72 745.698,469.24 745.938,469 
		745.938,468.76 745.938,468.52 746.897,467.56 747.138,467.319 747.617,466.839 747.857,466.119 748.098,466.119 748.338,466.119 
		748.338,465.879 749.298,463.719 749.537,463.479 749.298,463.479 749.298,463.239 749.537,462.999 749.777,462.999 
		750.018,462.759 750.018,462.519 749.777,462.279 749.058,462.039 748.577,461.798 748.098,461.798 747.617,461.559 
		748.098,461.318 748.577,460.358 749.537,458.438 749.058,457.958 749.058,457.478 748.338,456.758 748.098,456.278 
		748.338,455.797 748.577,455.558 749.058,454.837 749.298,454.597 749.298,454.117 749.298,453.877 748.817,453.157 
		749.298,452.677 749.298,452.437 749.298,452.197 749.298,451.957 749.298,451.717 749.298,451.477 749.537,450.757 
		749.058,450.517 749.298,450.037 752.657,452.677 754.338,454.117 755.537,454.837 756.498,455.558 759.377,458.198 
		761.298,459.878 762.738,461.079 764.178,462.279 765.138,463.239 766.098,463.959 766.817,464.439 767.058,464.679 
		769.457,466.599 771.857,468.52 775.938,471.88 778.098,473.561 779.297,474.761 784.098,478.601 785.537,479.801 790.577,483.882 
		793.217,486.042 793.697,485.322 793.697,484.842 793.697,484.602 793.697,484.362 793.938,483.882 794.177,483.642 
		794.418,482.442 794.657,482.202 794.897,482.202 795.137,481.722 795.137,481.481 795.137,481.001 795.857,479.562 
		795.857,479.321 795.617,478.841 795.857,478.601 796.098,478.121 796.098,477.641 796.577,477.161 797.058,475.961 
		797.058,475.721 797.537,475.48 798.018,474.761 798.257,473.32 798.018,473.32 798.018,472.6 798.257,472.6 798.257,472.36 
		798.737,472.36 798.737,472.12 798.737,471.88 798.737,471.64 798.978,471.16 799.217,470.68 799.217,470.44 799.457,470.2 
		799.457,469.96 799.457,469.72 799.697,469 799.938,468.279 800.897,466.359 801.377,466.119 802.098,465.879 802.338,465.639 
		802.338,465.399 802.577,465.639 803.297,465.399 804.257,465.639 804.498,465.639 804.978,465.639 805.457,465.159 
		805.697,465.159 805.938,465.159 806.418,465.399 806.657,465.879 806.897,465.879 807.137,466.119 807.617,466.359 
		808.098,466.599 808.338,466.599 808.577,466.599 808.817,466.839 809.058,466.839 809.297,466.839 809.777,467.079 
		810.978,467.319 811.938,467.319 812.177,467.319 812.418,467.319 812.418,467.56 812.897,467.56 813.377,467.56 813.857,467.319 
		814.098,467.079 814.817,467.079 815.057,467.079 815.297,467.079 815.537,467.319 815.537,467.56 815.537,468.279 815.777,469.24 
		816.018,469.479 816.257,469.96 816.497,470.2 816.978,470.68 817.217,470.92 817.217,471.16 817.457,471.4 817.938,471.64 
		818.657,471.88 818.897,472.12 819.137,472.12 819.137,472.36 820.098,472.84 821.057,472.84 821.297,472.84 821.297,473.08 
		822.018,473.32 822.257,473.561 822.497,473.8 822.497,474.041 823.457,474.761 824.177,475.241 824.418,475.48 824.418,475.721 
		824.418,475.961 824.418,476.201 824.418,476.441 824.177,476.441 823.457,477.161 823.217,477.641 822.978,478.121 
		822.978,479.081 822.978,479.562 822.737,479.562 822.257,480.042 820.577,480.521 820.098,480.761 819.617,481.722 
		819.377,482.682 819.137,482.682 818.897,484.122 818.657,484.362 818.657,484.602 818.657,485.322 818.897,485.802 
		818.897,486.282 819.377,487.002 819.377,487.243 819.617,487.243 819.857,487.243 820.817,487.723 821.057,487.723 
		821.537,487.962 821.777,487.962 822.257,488.203 822.497,488.683 822.737,488.683 822.978,489.163 822.978,489.403 
		823.217,489.643 823.217,489.883 823.457,490.123 823.697,490.843 824.177,491.563 824.177,491.803 824.418,492.043 
		824.657,492.043 824.657,492.283 825.137,492.283 825.857,492.283 826.338,492.523 826.577,492.523 827.057,492.763 
		827.537,492.763 827.777,492.763 828.257,493.003 829.217,493.003 829.697,493.003 830.897,493.243 831.137,493.243 
		831.377,493.243 831.617,493.483 832.338,493.483 833.057,493.243 833.777,493.243 834.497,493.243 834.737,493.243 
		834.978,493.243 835.217,493.483 835.697,493.724 835.938,493.724 835.938,493.963 836.177,493.963 836.897,494.443 
		837.137,494.443 837.617,494.443 838.098,494.684 838.577,494.924 839.537,495.644 840.257,496.364 840.978,496.604 
		841.457,496.604 841.697,496.604 841.938,496.604 842.417,497.084 842.657,497.324 842.897,497.804 842.657,498.044 
		842.657,498.284 842.177,498.764 841.938,499.725 842.177,500.444 842.417,500.685 842.657,500.685 842.417,501.405 
		843.617,502.605 843.857,502.125 844.098,502.125 844.338,502.365 844.577,502.845 844.817,503.085 845.537,503.085 
		845.777,503.325 845.777,503.085 846.257,503.325 846.497,503.325 846.978,503.565 847.697,503.325 848.177,503.325 
		848.417,503.325 849.137,503.325 849.377,503.325 849.617,503.325 850.817,503.565 851.057,503.565 851.297,503.805 
		852.018,504.765 852.497,505.485 852.978,506.206 853.457,506.925 853.697,507.166 853.697,507.406 854.177,507.886 
		854.657,508.366 854.657,508.606 854.897,508.846 854.897,509.326 855.137,509.326 855.856,510.046 856.098,510.046 
		856.817,510.286 857.057,510.526 857.297,510.526 857.777,510.526 858.018,510.526 858.018,510.766 858.257,511.486 
		858.497,511.726 858.737,512.687 859.217,512.687 859.217,512.926 859.457,513.167 859.457,513.407 859.697,513.646 
		859.938,513.646 859.938,513.407 859.938,513.167 860.177,513.407 860.417,513.646 860.417,514.126 860.417,514.367 
		860.657,514.606 861.137,515.807 861.137,516.767 860.417,517.007 860.177,517.007 859.938,517.247 859.938,517.727 
		860.177,517.727 860.417,517.727 860.657,517.967 860.657,518.207 860.657,519.167 860.657,519.407 860.657,519.647 
		860.897,519.888 860.657,520.368 860.657,520.848 860.657,521.088 860.657,521.328 860.657,521.808 860.657,522.288 
		860.657,522.528 860.417,522.768 860.417,523.248 860.417,524.208 860.417,524.688 860.417,524.928 860.417,525.889 
		860.417,526.608 860.417,527.089 860.417,527.329 860.417,527.569 860.417,527.809 860.657,528.049 860.657,529.009 
		860.657,529.249 860.657,529.729 860.417,529.969 860.417,530.209 860.177,530.689 859.457,531.169 858.737,531.169 
		858.497,531.169 858.018,531.169 857.777,531.169 857.297,531.409 856.817,531.649 856.577,531.889 856.337,531.889 
		856.098,532.129 855.617,532.609 855.377,532.609 855.137,532.609 854.657,533.089 854.177,533.57 853.697,533.81 852.978,535.25 
		852.737,537.89 852.978,538.371 852.978,538.851 853.217,539.571 850.817,539.331 849.377,540.771 848.417,541.011 
		847.697,541.251 846.978,541.491 846.737,541.491 846.737,540.771 846.257,539.811 845.777,539.331 845.297,539.331 
		844.817,539.331 843.617,539.09 843.137,539.571 843.137,540.291 843.377,541.251 843.377,542.211 843.377,542.451 
		843.377,543.411 843.137,544.371 841.938,545.091 841.697,545.332 841.697,545.571 841.938,547.012 842.177,547.252 
		840.737,549.172 840.737,549.892 840.497,551.092 840.257,551.572 840.018,551.813 840.018,552.053 839.537,552.533 
		839.297,553.013 839.057,553.493 838.817,553.493 838.577,553.733 838.098,554.933 837.857,555.173 837.617,555.893 
		837.617,556.133 837.377,556.613 836.897,557.813 836.657,559.974 837.137,561.414 837.377,562.854 837.377,563.334 
		837.857,565.015 838.098,565.495 837.857,566.215 837.857,566.455 837.617,566.935 838.577,567.895 838.817,567.895 
		839.297,568.375 840.018,569.575 840.018,570.535 840.257,571.016 840.737,571.735 841.938,572.216 842.177,572.456 
		843.377,572.456 844.338,572.456 844.577,572.456 844.817,572.456 847.697,571.496 849.377,571.255 850.817,571.016 
		851.537,570.295 852.018,569.575 852.978,568.375 855.377,568.375 855.856,568.375 856.577,568.375 857.297,568.375 
		857.537,568.375 857.537,568.135 858.497,567.655 858.737,567.415 859.217,566.455 859.457,565.975 859.938,565.254 
		860.177,565.015 860.897,564.774 862.337,566.215 862.577,566.215 862.816,566.695 863.777,567.655 863.537,568.855 
		863.537,569.575 863.297,571.255 863.057,572.456 862.577,573.416 862.098,574.376 862.577,575.096 862.577,575.336 
		864.497,577.497 864.978,577.977 865.697,578.457 866.417,578.457 866.657,578.697 866.897,578.937 867.137,579.177 
		867.137,579.417 867.377,579.417 868.098,580.377 868.098,580.617 868.577,581.817 868.577,582.537 868.098,583.257 
		867.856,583.257 867.856,583.498 868.098,584.938 868.816,585.178 870.497,586.138 870.737,586.138 871.217,586.378 
		872.177,586.378 872.657,586.618 873.377,587.338 874.098,588.058 874.577,588.298 875.777,589.258 875.777,589.499 
		877.457,589.979 878.657,590.218 878.897,590.218 879.137,590.218 879.856,590.218 880.098,590.218 882.018,589.738 
		882.978,589.499 883.217,589.499 883.697,589.738 885.137,589.738 885.617,589.738 886.577,590.218 887.057,590.938 
		887.297,591.179 887.537,591.898 888.257,592.379 888.978,592.859 890.417,591.659 890.657,590.938 892.098,590.699 
		893.777,591.659 894.736,591.659 895.697,591.659 895.938,591.179 896.897,591.179 897.137,591.179 897.617,591.418 
		898.097,591.418 899.057,593.579 899.297,595.739 899.777,595.979 900.257,596.219 900.736,596.699 901.217,597.18 
		901.457,597.419 903.856,598.86 904.337,599.1 905.057,600.06 905.777,601.5 906.257,602.94 906.497,603.661 906.736,604.621 
		908.656,605.341 908.897,605.581 909.617,605.581 909.856,605.821 910.816,605.821 911.297,606.301 911.537,607.501 
		913.938,609.421 914.656,609.901 915.617,610.862 917.777,611.822 918.736,612.062 918.977,612.062 919.938,612.302 
		920.417,612.302 920.897,612.542 921.617,612.782 921.856,612.782 922.097,613.022 923.777,613.982 924.497,614.222 
		924.736,614.462 924.977,614.462 928.097,616.382 928.576,616.623 928.816,616.623 929.777,617.583 	"/>
	
		<polyline clip-path="url(#SVGID_2_)" fill="none" stroke="#B37C34" stroke-width="0.48" stroke-linecap="round" stroke-linejoin="round" stroke-miterlimit="3.85" points="
		929.777,617.583 930.977,618.783 931.217,618.783 931.217,619.023 930.496,621.903 930.496,622.624 930.257,625.024 
		928.816,626.944 928.097,627.424 927.617,627.424 927.617,627.184 927.617,626.704 927.377,626.704 927.377,626.224 
		926.656,626.224 926.177,626.704 925.457,627.424 925.217,629.345 925.457,629.825 925.457,630.064 925.217,634.146 
		925.697,636.306 925.217,637.506 925.938,639.186 926.417,640.146 926.177,640.866 925.217,641.346 924.977,641.346 
		924.736,641.827 924.497,641.827 924.257,642.307 923.536,643.507 923.057,644.467 923.536,645.667 925.697,645.907 
		925.938,645.907 925.938,646.147 927.137,646.627 927.617,647.107 928.337,648.547 928.337,649.027 925.938,648.308 
		925.697,648.067 924.736,648.547 923.536,648.788 921.856,649.268 921.617,649.268 921.137,649.508 920.656,649.027 
		919.457,647.827 918.736,647.347 918.017,647.587 914.177,645.187 913.938,645.187 911.537,643.747 911.057,643.747 
		910.097,643.747 909.856,643.987 909.377,645.907 909.137,646.147 908.177,646.387 906.018,643.987 905.777,643.507 
		906.018,641.586 905.777,640.146 905.537,639.666 903.856,637.026 902.417,633.905 901.697,632.705 901.457,632.705 
		900.736,632.225 900.497,632.465 900.018,632.225 898.816,631.505 896.656,630.305 895.697,629.825 895.217,628.625 
		893.297,626.704 892.098,626.944 891.377,627.184 889.697,625.504 889.217,625.024 888.497,624.063 888.018,622.383 
		887.297,621.423 885.856,620.943 884.897,621.663 884.177,622.144 884.417,622.863 885.856,625.264 887.057,626.944 
		887.537,627.664 888.497,629.825 889.457,630.785 890.177,631.025 892.577,631.025 893.057,631.505 893.057,631.985 
		893.057,632.225 893.057,632.705 893.057,633.185 893.297,633.905 893.537,634.385 894.736,634.625 896.897,634.865 
		898.577,635.345 898.816,635.585 898.577,636.065 898.577,636.786 899.777,637.506 900.497,638.466 900.736,638.706 
		900.497,639.186 900.497,639.906 902.177,643.267 902.177,643.747 901.938,644.227 902.417,645.187 902.656,645.907 
		902.897,645.907 903.377,646.627 905.297,649.027 905.537,649.268 906.257,649.508 906.978,649.748 908.656,649.748 
		908.897,649.748 910.576,649.508 912.736,649.508 914.897,649.508 916.097,650.708 916.097,650.948 916.576,651.668 
		917.057,652.628 917.297,652.868 918.977,653.348 919.457,653.589 921.617,653.589 922.816,653.589 923.777,653.828 
		924.017,653.828 926.656,654.789 926.897,655.028 926.417,655.748 925.938,656.229 925.697,656.469 924.257,657.429 
		924.017,657.429 923.297,657.189 922.576,657.429 922.097,658.629 921.617,659.35 921.617,660.069 922.337,661.029 
		924.257,661.989 925.457,661.75 926.177,661.75 926.897,660.549 927.137,660.069 926.897,660.069 926.897,659.59 927.377,659.59 
		927.856,659.829 928.337,660.549 929.777,663.189 929.777,663.43 930.257,664.39 930.496,664.87 930.977,667.03 931.217,667.99 
		931.217,668.23 931.217,669.671 931.457,669.91 931.697,671.591 931.937,673.511 931.697,674.711 931.697,674.952 931.217,675.432 
		930.977,675.912 930.736,676.392 930.496,676.392 930.257,676.872 929.777,678.792 929.536,679.272 929.777,680.713 
		929.536,681.912 929.057,681.433 928.816,680.952 928.097,680.473 926.897,679.992 926.417,679.992 926.177,679.032 
		925.457,678.072 925.217,677.832 924.017,676.152 923.297,675.912 922.576,675.672 921.377,675.191 919.457,673.991 
		919.457,673.752 919.217,673.511 918.977,672.791 918.977,672.552 918.736,672.552 918.017,672.311 917.057,672.311 
		916.816,672.791 916.816,673.991 916.576,674.472 915.137,674.711 914.656,675.912 914.656,676.152 915.617,677.353 
		918.017,679.752 918.977,681.192 919.697,682.393 919.938,683.833 920.417,684.793 921.377,685.514 922.816,685.514 
		923.057,685.993 922.097,686.473 920.897,686.714 920.417,686.714 919.457,687.193 917.297,687.193 916.816,688.154 
		916.337,688.394 914.897,688.634 912.257,688.873 911.777,688.394 911.537,688.394 910.576,688.873 910.337,689.834 
		909.856,690.794 910.576,691.515 911.537,691.994 912.736,692.475 919.457,691.515 919.697,691.754 919.457,692.715 
		919.457,692.955 919.217,693.674 919.217,694.155 919.938,694.875 919.697,696.314 919.457,697.275 919.217,697.995 
		918.977,698.475 919.457,698.715 919.697,698.715 920.656,698.955 920.897,698.715 921.137,698.475 921.856,697.995 
		922.576,697.515 923.297,697.275 923.536,697.275 923.536,697.515 923.777,697.755 924.017,697.755 923.777,697.995 
		923.777,698.475 924.257,699.195 924.736,700.155 925.217,700.396 925.697,700.155 925.697,700.396 925.938,700.396 
		926.897,700.636 927.617,701.115 927.856,701.355 928.337,701.836 928.576,701.836 928.816,702.796 930.017,705.437 
		930.496,706.396 930.257,706.877 929.536,708.797 928.816,711.197 928.816,711.677 928.576,711.918 928.097,714.798 
		927.856,715.519 927.137,715.758 926.897,715.519 926.897,714.798 926.656,714.318 926.417,714.318 926.177,714.318 
		925.457,714.077 924.497,714.077 924.017,715.038 923.297,715.519 921.856,715.998 921.617,715.998 921.377,716.238 
		920.897,716.478 920.417,716.958 919.697,717.919 918.977,718.878 918.736,719.119 918.736,719.358 918.497,720.078 
		917.777,719.839 917.057,719.119 916.576,718.639 916.097,718.158 914.897,716.238 914.897,715.519 915.137,715.519 
		915.137,715.277 915.137,715.038 914.417,713.838 913.697,713.118 912.497,712.157 911.537,711.677 910.816,710.957 
		909.617,710.236 908.897,709.997 908.177,709.277 908.177,708.797 908.177,708.557 908.177,707.597 907.938,707.597 
		907.457,707.117 907.217,707.117 906.736,707.356 905.777,707.837 904.816,707.837 904.577,707.597 903.617,705.677 
		900.018,703.276 899.537,702.556 899.777,700.876 900.257,700.636 901.217,698.955 900.978,698.235 900.736,698.235 
		900.257,697.275 900.257,696.795 899.777,695.354 899.537,694.635 898.816,693.915 897.856,692.955 897.137,692.475 
		893.777,692.234 893.297,692.475 892.816,692.715 890.177,693.194 889.938,694.395 889.457,695.354 889.217,695.595 
		888.497,695.835 887.777,695.835 886.337,694.155 885.856,693.915 884.897,694.155 883.938,694.155 883.938,694.635 
		883.938,695.114 884.177,695.835 884.417,696.074 885.377,696.795 888.018,698.955 888.736,700.155 889.697,700.636 
		890.177,700.636 890.417,700.636 891.617,700.396 893.297,697.515 893.537,696.314 893.537,695.114 894.018,694.875 
		895.457,696.555 895.938,697.515 895.938,697.755 895.697,698.235 895.457,699.195 895.457,700.876 895.457,701.115 
		895.938,701.355 896.177,702.315 896.897,704.477 896.656,705.437 896.656,705.916 896.656,706.156 895.938,708.077 
		895.697,709.518 895.938,710.478 896.417,711.437 896.656,711.677 897.137,712.157 897.856,712.397 900.736,712.397 
		903.137,713.118 903.856,713.838 905.057,715.519 905.297,715.758 906.257,716.238 908.656,717.919 908.656,718.158 
		908.656,718.398 908.897,719.119 909.617,719.599 910.816,719.839 911.777,721.279 912.257,723.68 912.497,725.119 912.497,726.8 
		912.497,727.28 912.736,727.76 913.697,728.72 914.897,728.72 915.137,728.239 914.897,727.76 915.617,726.56 916.097,726.08 
		916.816,726.319 918.977,727.04 920.656,726.8 920.897,724.159 923.536,724.159 924.257,723.919 924.497,724.64 925.457,724.64 
		925.938,724.64 925.697,722.479 925.938,720.078 926.177,720.078 926.897,720.559 928.337,719.358 928.337,719.119 
		929.536,719.119 930.257,719.358 930.977,719.599 931.697,720.078 933.137,721.039 933.856,721.519 934.576,721.759 
		935.057,721.999 935.777,722.239 936.496,722.479 937.217,722.719 937.937,722.959 939.137,723.199 942.257,723.68 
		942.496,723.919 942.977,723.919 943.937,724.399 946.097,725.119 946.576,725.119 946.816,725.119 947.057,725.119 
		947.297,724.88 947.536,724.88 948.257,724.64 949.456,724.159 950.656,722.959 951.617,722.479 953.297,722.479 953.777,722.719 
		954.736,723.439 954.977,724.159 955.217,724.64 955.937,727.04 956.177,728.239 956.656,730.16 956.896,730.881 957.137,731.84 
		957.137,732.081 957.377,733.521 957.617,734.721 957.856,735.201 959.297,740.962 961.937,748.402 962.177,748.644 
		964.816,754.884 966.496,759.925 967.217,763.525 966.017,763.525 965.536,763.525 965.057,763.525 964.816,763.525 
		964.336,763.525 964.097,763.525 963.856,763.525 963.617,763.525 963.377,763.525 962.416,763.765 959.776,763.765 
		959.536,763.765 959.297,763.765 953.297,764.006 952.576,764.006 944.896,764.246 942.257,764.246 938.656,764.246 
		935.057,764.485 928.097,764.485 922.576,764.726 921.617,764.726 914.897,764.726 912.497,764.965 908.177,764.965 
		905.057,764.965 900.018,765.206 896.897,765.206 892.816,765.206 890.897,765.206 889.938,765.445 889.457,765.445 
		887.057,765.445 884.897,765.445 876.978,765.445 875.297,765.445 875.297,765.686 875.297,766.165 875.297,766.406 
		874.816,766.406 866.897,766.406 861.856,766.406 860.897,766.646 859.697,766.646 859.217,766.646 858.978,766.646 
		857.057,766.646 854.657,766.646 853.457,766.406 852.978,766.406 851.297,766.406 849.857,766.646 848.177,766.646 
		845.777,766.646 841.938,766.886 840.257,766.886 835.217,766.886 831.617,766.886 826.338,766.886 824.418,766.886 
		824.177,766.886 817.457,767.126 816.737,767.126 816.497,767.126 815.537,767.126 811.457,767.126 809.058,767.126 
		803.058,767.126 802.098,767.126 800.897,767.126 800.657,767.126 791.777,767.365 791.297,767.365 790.577,767.365 
		790.098,767.365 789.138,767.365 776.897,767.365 776.178,767.365 770.897,767.606 770.178,767.606 768.978,767.606 
		768.498,767.606 762.978,767.606 759.617,767.365 758.657,767.365 758.657,767.606 756.978,767.606 752.897,767.606 
		751.938,767.606 746.657,767.606 742.098,767.606 741.617,767.606 740.178,767.606 738.978,767.847 738.498,767.847 
		738.018,767.847 735.617,767.847 733.698,767.847 733.457,767.847 732.978,767.847 727.938,767.847 727.218,767.847 
		725.777,767.847 725.298,767.847 723.138,767.847 722.897,767.847 722.178,767.847 721.458,767.847 715.938,767.847 
		713.777,767.847 713.058,767.847 712.338,767.847 711.378,767.847 710.418,767.847 705.857,767.847 703.698,767.606 
		701.058,767.606 700.098,767.606 699.857,767.606 699.617,767.606 697.698,767.606 695.777,767.606 695.538,767.606 
		695.058,767.606 694.338,767.606 687.618,767.606 681.618,767.606 680.418,767.606 676.098,767.606 674.418,767.606 
		674.178,767.606 673.938,767.606 673.458,767.606 670.578,767.606 669.378,767.606 662.418,767.606 660.738,767.606 
		658.338,767.365 657.378,767.365 654.019,767.365 653.538,767.365 651.857,767.365 651.618,767.365 651.378,767.365 
		648.978,767.365 647.778,767.365 647.058,767.365 646.818,767.365 639.618,767.365 639.378,767.365 637.458,767.126 
		634.098,767.126 629.778,767.126 628.338,767.126 628.098,767.126 624.978,766.886 624.498,766.886 624.018,766.886 
		621.618,766.886 619.938,766.886 618.979,766.886 618.738,766.886 616.578,766.886 614.658,766.646 613.698,766.886 
		613.218,766.886 612.738,766.886 612.018,766.646 607.698,766.646 606.019,766.646 605.538,766.646 602.418,766.646 
		600.258,766.646 599.059,766.646 596.418,766.406 595.938,766.406 594.258,766.406 589.938,766.406 589.698,766.406 
		588.979,766.165 588.738,766.165 588.019,766.165 585.139,766.165 584.898,766.165 579.139,765.926 578.898,765.926 
		576.738,765.926 575.298,765.686 574.338,765.686 571.698,765.445 571.218,765.445 567.139,765.206 566.898,764.965 
		566.418,764.965 562.818,764.726 559.938,764.485 557.539,764.485 555.858,764.246 555.378,764.246 553.699,764.006 
		551.299,764.006 550.099,763.765 549.378,763.765 547.699,763.765 546.739,763.525 546.019,763.525 543.858,763.285 
		543.619,763.285 543.139,763.285 540.979,763.285 539.539,763.285 537.139,763.285 535.458,763.285 535.219,763.285 
		534.739,763.285 534.499,763.285 534.259,763.285 532.819,763.285 531.619,763.285 531.379,763.285 526.099,762.806 
		525.859,762.806 522.259,762.564 522.019,762.564 519.139,762.564 518.659,762.564 516.979,762.325 516.259,762.325 
		512.179,761.845 511.939,761.845 511.219,761.845 510.019,761.845 508.339,761.605 507.619,761.605 506.419,761.605 
		505.459,761.365 505.219,761.365 504.739,761.365 504.259,761.365 504.019,761.365 503.779,761.365 502.339,761.125 
		501.859,761.125 499.699,760.885 499.459,760.885 498.259,760.885 498.019,760.885 495.379,760.885 494.659,760.645 
		494.419,760.645 493.459,760.645 490.339,760.405 488.899,760.405 486.259,760.405 484.339,760.165 478.579,759.925 
		478.339,759.925 478.339,759.685 477.139,759.685 475.459,759.444 474.499,759.444 473.779,759.444 473.539,759.444 
		471.619,759.205 470.419,758.965 464.659,758.244 457.939,758.005 460.819,755.364 452.899,755.124 451.699,755.124 
		451.219,755.124 450.979,755.124 450.019,754.884 444.979,754.644 441.379,754.404 436.819,754.164 436.579,754.164 
		435.619,756.564 428.179,756.084 425.059,756.084 422.419,755.844 421.459,755.844 420.739,755.844 418.579,755.844 
		416.899,755.604 416.659,755.604 415.939,755.604 415.699,755.604 415.219,755.604 414.5,755.604 414.259,755.604 414.02,755.604 
		413.299,755.604 413.059,755.604 413.059,755.364 412.339,755.364 411.619,755.364 411.379,755.364 410.419,755.364 
		410.179,755.364 409.939,755.364 409.219,755.364 408.5,755.124 406.819,755.124 405.859,755.124 403.939,755.124 403.699,755.124 
		402.02,754.884 396.02,754.884 395.539,754.884 394.1,754.644 393.379,754.644 389.059,754.644 388.819,754.644 387.859,754.404 
		387.379,754.404 387.139,754.404 386.659,754.404 384.5,754.164 382.1,754.164 381.62,754.164 381.14,754.164 380.659,754.164 
		379.7,754.164 378.259,754.164 377.779,754.164 376.339,754.164 374.419,753.924 372.739,753.924 372.5,753.924 370.339,753.924 
		369.62,753.684 368.899,753.684 368.419,753.684 366.739,753.684 361.459,753.443 357.139,753.203 352.1,752.964 348.259,752.724 
		345.62,752.724 343.459,752.483 	"/>
	
		<polyline clip-path="url(#SVGID_2_)" fill="none" stroke="#B37C34" stroke-width="0.48" stroke-linecap="round" stroke-linejoin="round" stroke-miterlimit="3.85" points="
		958.097,655.269 958.097,655.028 957.856,654.789 957.617,654.309 957.617,653.828 957.617,653.589 958.337,651.668 
		958.337,651.428 959.057,649.748 959.297,649.027 960.257,647.107 960.496,646.867 960.736,646.387 961.697,644.947 
		962.896,643.027 963.617,642.066 963.617,641.346 963.617,639.906 963.856,639.426 963.856,639.186 964.336,638.466 
		964.336,638.226 965.536,637.746 966.257,637.266 966.496,636.306 966.736,635.826 966.736,635.105 966.977,634.385 
		967.217,634.146 968.177,633.185 968.896,631.745 968.177,630.305 967.697,628.625 969.617,627.184 970.336,626.944 
		971.536,626.944 973.217,626.944 973.937,626.704 974.656,625.744 975.137,625.504 975.617,625.264 976.336,624.544 
		976.336,623.344 976.816,622.144 977.297,621.903 977.776,621.423 978.496,620.703 978.736,619.263 978.496,618.063 
		977.297,616.863 976.576,616.382 975.617,616.382 975.377,616.623 975.137,616.863 972.977,617.103 972.257,616.863 
		972.496,616.143 975.377,613.502 975.856,613.022 976.336,612.542 977.057,613.262 977.776,613.262 979.937,610.862 
		980.177,611.102 981.137,611.582 981.856,611.342 981.617,609.181 981.856,608.701 982.097,608.221 982.576,607.741 
		982.816,607.981 983.057,607.981 983.057,608.221 983.297,607.981 982.816,607.261 982.816,607.021 983.057,606.781 
		983.297,606.781 983.536,606.541 983.536,606.061 983.776,606.061 990.736,605.101 995.057,604.381 997.456,604.141 998.656,603.9 
		999.616,603.9 1000.336,603.661 1002.977,603.42 1004.656,603.181 1009.456,602.46 1014.736,601.74 1015.217,601.5 1015.456,601.5 
		1016.416,601.5 1015.456,602.94 1014.496,604.621 1014.017,605.101 1013.057,607.021 1012.096,608.701 1011.856,608.941 
		1011.856,609.181 1010.176,613.022 1008.977,616.143 1007.776,618.543 1007.536,618.543 1007.057,619.263 1006.816,619.503 
		1006.336,619.983 1005.616,619.983 1003.937,619.263 1003.696,618.783 1003.217,618.303 1002.496,618.543 1000.816,618.543 
		1000.097,618.783 999.856,619.023 998.896,619.743 997.456,621.183 996.017,623.344 995.057,624.784 995.057,625.024 
		994.816,625.024 994.336,625.744 993.616,626.944 992.896,628.864 992.656,629.345 992.416,629.825 992.176,630.545 
		991.937,631.025 991.696,631.505 990.977,633.185 990.256,635.105 990.256,635.345 989.776,636.545 989.536,636.545 
		989.057,637.506 989.057,637.746 988.336,639.426 988.336,639.666 988.336,639.906 988.336,640.146 988.097,642.307 
		987.137,644.947 986.656,646.627 986.177,648.308 985.937,650.468 986.416,650.948 986.416,651.188 987.377,651.428 
		987.617,651.428 987.617,652.147 986.656,653.589 986.416,653.828 984.496,657.429 981.856,662.949 981.856,663.43 981.856,664.39 
		982.097,664.63 981.856,666.551 981.377,667.511 979.937,669.191 979.217,670.151 978.256,671.831 977.297,673.752 
		977.057,674.711 976.816,675.191 976.816,675.432 977.057,675.432 977.057,675.672 976.816,676.392 976.097,677.832 
		976.097,678.072 973.697,681.192 972.736,682.152 972.496,682.152 972.017,681.912 971.536,681.912 971.057,682.152 
		970.816,682.393 971.536,684.553 970.816,687.193 971.297,688.873 971.776,689.354 971.776,689.834 971.776,690.073 
		971.536,690.555 971.297,691.034 970.816,691.515 970.576,691.994 971.057,692.715 971.057,693.194 969.617,694.875 
		969.137,695.114 968.896,695.595 968.656,695.835 968.416,696.074 968.416,696.314 968.177,696.314 967.217,697.515 
		966.977,697.755 966.736,697.755 966.257,698.235 964.576,699.915 963.856,701.115 963.377,701.355 962.896,701.836 
		961.937,702.315 961.456,702.315 961.456,701.836 960.257,700.396 958.816,701.355 958.576,701.836 957.137,702.076 
		956.416,702.076 956.416,700.876 955.697,697.995 955.217,697.035 953.777,694.635 953.057,693.915 952.576,692.715 
		952.337,691.754 952.337,691.273 952.576,689.834 952.337,689.594 951.377,687.193 951.377,686.953 951.377,686.473 
		951.377,686.233 951.377,685.993 951.377,685.754 951.856,685.033 952.097,684.553 951.617,684.073 951.617,683.833 
		951.377,683.593 951.377,682.393 951.617,680.473 952.097,679.032 952.337,678.552 953.297,676.872 954.257,674.952 
		954.257,674.231 954.496,673.031 954.736,671.591 954.736,671.352 954.736,671.11 954.736,670.871 954.736,670.631 954.496,669.91 
		954.496,667.751 954.977,666.551 955.456,665.59 955.937,664.63 956.177,664.15 956.177,663.67 956.177,663.43 955.937,663.189 
		955.937,662.71 956.416,660.549 957.137,658.148 957.856,656.709 958.097,655.269 	"/>
	
		<polyline clip-path="url(#SVGID_2_)" fill="none" stroke="#B37C34" stroke-width="0.48" stroke-linecap="round" stroke-linejoin="round" stroke-miterlimit="3.85" points="
		949.937,611.342 950.896,611.342 951.856,611.342 951.137,612.062 949.937,613.502 948.736,615.663 948.496,614.222 
		947.536,611.582 947.777,611.582 948.257,611.582 948.736,611.582 948.977,611.582 949.456,611.582 949.697,611.342 
		949.937,611.342 	"/>
	
		<polyline clip-path="url(#SVGID_2_)" fill="none" stroke="#B37C34" stroke-width="0.48" stroke-linecap="round" stroke-linejoin="round" stroke-miterlimit="3.85" points="
		954.017,624.063 954.257,624.784 953.777,625.264 953.297,627.424 953.057,627.664 952.097,626.704 951.617,624.304 
		951.856,622.863 952.097,622.624 952.337,622.863 952.816,623.583 953.297,624.063 954.017,624.063 	"/>
</g>
</svg>
