<?xml version="1.0" encoding="utf-8"?>
<!-- Generator: Adobe Illustrator 15.1.0, SVG Export Plug-In . SVG Version: 6.00 Build 0)  -->
<!DOCTYPE svg PUBLIC "-//W3C//DTD SVG 1.1//EN" "http://www.w3.org/Graphics/SVG/1.1/DTD/svg11.dtd">
<svg version="1.1" id="State" xmlns="http://www.w3.org/2000/svg" xmlns:xlink="http://www.w3.org/1999/xlink" x="0px" y="0px"
	 width="1296px" height="1296px" viewBox="0 0 1296 1296" enable-background="new 0 0 1296 1296" xml:space="preserve">
<g>
	<defs>
		<rect id="SVGID_1_" x="259.22" y="351.621" width="779.516" height="595.772"/>
	</defs>
	<clipPath id="SVGID_2_">
		<use xlink:href="#SVGID_1_"  overflow="visible"/>
	</clipPath>
	
		<polyline clip-path="url(#SVGID_2_)" fill="none" stroke="#B37C34" stroke-width="0.72" stroke-linecap="round" stroke-linejoin="round" stroke-miterlimit="3.85" points="
		286.82,517.247 287.78,516.527 288.26,516.287 289.22,514.367 289.7,512.446 289.94,511.486 289.459,510.766 289.22,510.046 
		288.74,509.086 288.74,508.846 288.5,508.606 289.22,507.886 289.459,507.646 290.66,506.686 291.14,505.245 291.14,503.805 
		291.62,501.165 292.34,500.925 292.58,500.685 292.58,500.444 293.06,499.004 293.3,497.324 293.54,496.844 293.54,496.364 
		292.58,494.924 292.1,494.684 291.86,494.443 290.18,493.483 288.74,491.323 287.78,490.603 287.54,490.603 287.3,489.883 
		287.3,489.163 287.54,488.923 287.78,488.442 288.5,487.962 290.66,488.203 292.58,488.203 293.78,488.203 294.5,488.203 
		294.74,488.442 295.7,488.923 296.18,489.883 296.18,490.123 296.42,490.123 298.1,490.123 299.3,489.643 299.54,489.643 
		299.78,490.123 300.02,490.603 300.02,490.843 300.26,490.843 300.5,491.083 301.7,491.803 302.42,491.563 303.14,492.763 
		303.86,493.483 303.86,493.724 304.34,493.963 304.58,494.204 305.78,494.443 306.02,494.443 306.26,494.684 307.22,495.404 
		309.62,497.084 310.58,497.804 312.02,499.004 312.74,499.484 315.62,501.405 317.3,503.325 317.54,503.325 318.74,503.805 
		320.42,503.565 322.1,505.005 324.5,505.965 325.939,506.445 326.18,506.445 326.42,507.166 326.18,507.406 326.18,507.646 
		326.9,507.886 327.859,508.366 328.34,508.366 328.34,508.606 328.58,508.366 329.06,508.366 330.02,507.886 330.259,507.646 
		330.259,507.406 330.5,507.166 331.459,507.406 333.379,508.846 335.54,509.806 336.5,510.526 338.66,511.726 340.34,512.687 
		342.979,513.646 342.979,513.887 343.7,514.126 343.7,514.367 343.22,516.527 344.66,517.247 346.34,518.207 347.3,518.927 
		348.259,519.888 350.419,520.607 354.5,522.048 354.739,522.048 356.899,522.048 357.859,522.288 358.58,522.528 358.82,522.528 
		360.5,523.008 362.179,523.008 362.899,523.008 363.859,522.768 363.859,523.008 365.06,523.728 365.3,523.728 365.779,523.728 
		368.179,523.488 369.379,523.488 373.22,523.968 373.7,523.728 375.139,523.248 375.62,523.248 377.779,523.008 377.779,523.488 
		378.02,523.728 378.739,523.728 379.939,523.008 379.7,522.768 379.939,522.768 380.179,522.768 382.819,523.248 384.5,523.968 
		384.739,524.208 384.979,524.208 386.179,525.168 385.7,525.648 386.899,526.608 390.259,527.329 391.939,526.608 392.419,525.889 
		392.899,525.648 393.139,525.408 393.379,525.408 393.62,525.408 394.1,525.168 394.339,525.408 395.539,526.128 396.5,527.329 
		396.5,527.569 396.739,527.569 397.939,528.049 399.139,528.049 400.819,527.809 401.059,527.809 401.299,527.809 402.02,527.329 
		402.739,527.089 404.179,526.849 404.179,527.089 403.939,529.249 404.179,529.489 404.899,529.969 405.379,530.209 
		406.339,530.449 406.579,530.449 407.059,530.689 407.779,530.689 408.259,530.929 408.739,530.929 409.459,530.929 
		410.899,530.689 411.379,530.689 412.099,530.929 412.819,530.929 413.299,531.169 413.779,531.169 414.979,531.169 
		415.459,531.169 417.859,530.209 418.099,530.209 418.339,530.449 418.579,530.689 418.819,530.689 418.819,530.929 
		419.059,530.929 419.779,530.929 421.699,531.169 422.179,530.929 422.419,530.689 422.659,530.689 423.859,529.969 
		424.339,529.729 424.579,529.729 426.979,527.329 427.219,527.329 427.459,527.089 427.459,526.849 429.619,524.448 
		430.579,523.728 431.059,523.488 431.299,523.248 431.539,523.008 431.779,523.008 432.499,523.008 432.499,523.248 
		432.019,524.448 431.539,525.889 432.019,526.128 432.499,526.369 433.219,526.369 433.939,526.849 434.659,527.569 
		436.819,529.969 437.059,530.209 437.539,530.449 438.499,530.929 439.699,533.33 440.659,535.73 440.659,536.21 440.899,536.45 
		442.819,535.97 443.299,535.49 444.019,535.25 446.419,534.53 449.299,534.29 450.499,534.53 450.739,534.53 450.979,534.53 
		451.939,535.25 451.699,535.73 451.219,537.41 450.979,537.65 450.979,538.61 450.979,538.851 450.979,539.09 451.219,539.09 
		451.699,539.811 453.619,540.771 455.539,541.491 456.739,541.251 458.179,540.771 458.179,540.531 457.939,540.531 
		457.459,539.09 455.539,537.65 455.299,535.73 455.299,534.05 455.779,532.85 456.019,532.609 457.699,531.169 458.419,530.689 
		459.859,529.729 460.819,529.489 461.059,529.489 461.539,529.249 463.699,528.769 464.419,528.529 465.139,528.529 
		466.099,528.529 466.579,528.529 466.819,529.009 467.299,530.929 467.539,532.129 467.059,532.609 466.579,532.85 466.339,532.85 
		465.379,533.57 464.899,533.57 464.659,533.81 464.419,533.81 463.939,534.53 463.459,534.77 463.459,535.01 462.979,535.49 
		462.739,536.21 462.979,536.45 463.699,537.89 464.179,538.61 464.179,538.851 465.379,541.011 465.379,541.731 465.619,542.211 
		466.579,541.971 468.019,541.491 468.019,541.251 468.259,540.771 468.259,540.291 468.259,538.851 468.259,538.61 468.019,538.61 
		467.539,538.61 467.539,538.371 467.539,538.13 468.739,536.21 468.979,535.97 468.979,535.73 470.419,535.01 472.099,534.29 
		473.299,534.53 472.819,535.25 472.819,536.45 472.579,536.45 473.299,541.491 473.539,542.451 474.019,543.411 474.739,544.131 
		474.499,544.852 474.499,546.052 472.819,547.252 472.579,547.252 472.339,546.771 472.099,546.532 472.099,546.292 
		471.619,546.292 470.899,546.532 469.459,547.252 469.939,549.172 469.939,549.892 469.939,550.132 470.179,550.372 
		471.379,552.053 473.059,552.292 473.539,552.772 473.779,554.213 473.299,555.413 473.059,555.893 472.819,556.133 
		472.819,556.373 472.819,556.613 473.059,557.093 474.259,557.813 474.979,558.053 475.459,558.053 475.939,559.253 
		475.699,559.974 475.459,561.414 475.699,561.894 476.179,562.854 477.139,563.574 478.819,563.574 479.539,564.054 
		478.819,564.535 478.339,565.254 477.619,565.734 477.379,566.695 477.139,566.935 475.939,567.175 474.259,566.695 
		471.859,566.455 472.099,567.655 472.339,568.135 472.819,569.095 472.819,570.295 472.579,570.535 472.099,571.496 
		471.379,572.216 469.939,573.416 469.699,573.656 469.219,574.136 468.259,574.376 468.019,574.376 467.299,575.096 
		467.059,575.336 466.579,575.576 466.339,579.417 465.619,581.577 465.379,583.018 466.339,583.737 467.059,584.458 
		467.779,584.458 467.779,584.217 468.739,582.777 468.979,582.297 468.979,581.097 469.459,580.137 470.419,579.657 
		471.139,579.177 471.619,578.937 471.859,578.937 471.859,578.457 472.339,576.536 472.579,576.056 472.579,575.816 
		473.779,574.856 475.939,572.456 478.099,571.255 478.339,571.016 479.059,569.095 479.299,568.855 479.539,568.375 
		479.779,568.375 480.259,568.375 482.419,568.135 482.899,568.135 482.899,566.935 482.899,565.975 482.659,565.015 
		482.659,564.535 481.939,562.374 481.939,562.134 481.699,560.694 480.979,559.494 480.259,559.253 479.059,558.773 
		478.819,558.053 479.059,556.854 479.539,556.613 480.259,556.854 480.499,558.053 481.459,559.253 482.419,559.494 
		484.819,559.734 485.059,559.734 485.299,559.734 485.299,559.974 485.779,560.214 486.259,560.694 486.499,560.934 
		487.219,561.654 488.419,565.015 488.419,565.254 488.419,565.975 488.419,567.415 488.899,571.496 489.139,571.735 
		489.139,571.976 489.139,572.216 489.379,572.696 490.099,573.176 490.819,573.896 491.059,574.136 491.299,574.136 
		491.299,574.376 491.299,574.616 491.059,575.096 490.819,575.816 489.859,576.776 489.859,577.017 489.859,577.256 
		489.859,578.217 490.579,578.937 491.059,579.897 492.019,581.097 492.259,582.297 492.019,583.257 491.539,583.737 
		490.339,583.978 489.859,583.978 488.659,583.978 487.939,583.978 487.459,583.737 486.979,583.498 486.739,583.498 
		486.259,583.498 486.019,583.498 485.779,583.498 485.539,583.498 484.819,583.498 484.579,583.498 484.339,583.737 
		484.579,585.178 484.579,585.417 484.819,586.378 485.059,587.338 485.299,588.538 486.259,589.258 486.739,589.258 
		486.979,589.018 486.979,588.778 487.939,588.778 488.179,588.778 488.659,589.979 488.899,590.218 488.899,590.699 
		488.899,591.179 488.659,591.898 488.659,592.139 488.419,594.059 488.179,594.299 488.179,594.539 487.939,594.779 
		487.459,596.459 487.459,596.699 487.939,597.419 488.899,598.38 489.619,598.86 489.619,599.82 489.619,600.54 489.379,600.78 
		489.139,601.02 488.899,601.26 488.899,601.5 488.899,601.98 489.139,602.94 489.139,603.42 489.139,603.9 489.139,604.141 
		489.379,605.341 490.339,605.581 490.819,606.061 488.419,607.261 487.219,607.261 486.739,607.501 485.539,608.221 
		485.299,608.701 485.299,608.941 484.819,609.662 484.819,609.901 484.819,610.622 484.819,612.302 484.819,612.542 
		484.579,612.542 484.339,613.502 484.339,614.222 484.579,614.222 485.539,614.462 485.779,614.462 486.019,614.222 
		486.499,614.222 486.739,614.222 486.979,614.222 487.699,614.942 488.659,615.422 489.139,616.143 490.099,615.663 
		491.059,616.143 491.779,616.143 492.979,617.103 492.739,617.583 492.499,618.063 492.259,618.303 492.259,619.263 
		492.979,620.223 493.699,620.943 494.659,621.903 494.659,622.144 494.179,623.104 494.179,623.344 494.179,623.583 
		494.179,624.544 494.179,624.784 493.939,626.224 493.939,627.184 493.939,628.864 494.179,630.064 494.179,630.305 
		495.139,631.025 496.819,631.265 498.019,631.505 499.219,632.225 499.939,632.705 500.179,632.945 499.939,633.185 
		499.699,633.425 497.539,633.905 496.339,634.625 495.859,635.105 495.139,635.345 494.899,635.345 493.939,636.065 
		492.979,637.506 492.499,638.946 492.499,639.186 492.019,639.186 491.059,638.946 489.619,639.666 488.899,640.146 
		488.899,640.386 488.899,640.626 488.899,640.866 488.659,640.866 487.699,640.626 486.259,640.386 486.019,639.666 
		485.779,639.666 485.779,639.426 485.539,638.706 485.779,636.786 484.579,636.786 483.379,636.545 483.379,636.786 
		483.139,637.746 482.899,638.226 481.459,641.106 481.219,641.106 480.979,641.106 480.979,641.346 481.219,641.827 
		481.219,642.307 481.459,642.546 482.419,642.546 483.619,642.546 483.619,642.307 484.339,642.307 485.059,642.546 
		486.259,643.987 487.219,644.707 487.459,645.187 488.179,645.667 488.659,646.387 489.859,647.347 490.099,647.587 
		490.579,648.067 490.819,648.308 491.299,648.547 492.499,649.268 492.739,649.508 493.219,649.748 493.699,649.508 
		494.419,649.268 495.619,647.587 496.579,646.627 496.099,645.907 495.139,645.427 494.419,645.667 493.939,645.427 
		493.219,644.947 493.459,644.227 494.419,643.267 494.659,643.027 495.139,642.546 495.859,642.307 496.819,641.827 
		497.779,641.346 499.219,640.866 500.179,640.626 500.899,640.386 501.379,640.146 502.099,639.906 503.299,639.666 
		503.539,639.426 504.499,638.706 504.499,637.026 504.499,636.306 504.499,636.065 504.499,635.826 504.499,635.345 
		504.499,635.105 504.499,634.385 504.499,633.185 504.499,632.705 504.499,631.745 504.259,631.505 503.779,630.545 
		503.779,630.305 502.579,629.345 502.579,629.104 502.339,627.424 502.099,626.464 502.099,626.224 502.099,625.984 
		501.859,625.744 501.379,625.264 500.899,625.024 499.459,624.544 500.659,623.583 500.899,623.344 500.899,622.863 
		500.899,622.624 501.139,622.383 501.139,622.144 501.139,621.903 501.139,621.423 501.379,621.183 501.379,620.943 
		501.379,620.463 501.379,620.223 501.139,619.263 500.179,618.303 499.699,617.823 499.459,617.583 499.219,617.343 
		498.499,615.902 498.259,615.663 498.499,614.942 498.499,614.462 498.499,614.222 498.499,612.542 498.259,612.302 
		498.259,611.822 498.259,611.342 498.259,610.862 497.539,609.421 497.539,609.181 497.539,608.941 497.299,608.461 
		497.299,608.221 497.059,607.981 496.819,607.741 496.099,607.261 496.339,607.021 496.819,606.781 497.059,606.781 
		497.539,606.301 497.779,606.301 498.019,606.061 499.459,604.621 499.939,605.341 500.179,605.581 500.179,605.821 
		500.419,605.821 500.419,606.061 500.899,606.301 501.619,606.061 502.099,606.061 503.299,605.341 503.539,605.341 
		503.779,604.141 503.779,603.9 503.779,603.661 503.299,602.94 503.299,602.7 503.059,602.46 502.819,602.22 502.579,601.98 
		501.859,601.26 501.379,600.78 500.899,600.54 499.699,599.82 499.699,599.58 499.219,599.58 498.979,599.58 498.019,599.34 
		497.059,598.38 496.819,598.14 496.579,597.899 496.099,596.939 495.619,595.739 496.579,594.299 497.299,593.579 497.299,593.339 
		497.779,592.859 498.019,592.139 498.019,591.659 498.499,591.179 498.739,590.458 498.979,590.458 498.979,590.218 
		499.219,589.979 499.699,589.499 500.419,589.018 500.419,588.538 500.659,588.298 500.659,588.058 500.899,587.578 
		500.899,586.858 501.139,586.138 500.899,585.658 500.179,583.498 500.419,582.297 499.939,581.577 499.699,581.097 
		499.219,580.377 498.979,579.417 498.979,579.177 498.979,578.457 499.219,576.056 499.459,575.336 500.179,574.616 
		500.659,574.136 501.139,573.416 502.579,571.735 503.299,571.016 503.539,571.016 503.539,570.775 503.779,570.775 
		504.259,570.295 504.499,570.055 504.739,569.815 504.739,569.575 504.739,569.335 504.979,569.335 504.979,569.095 
		505.219,568.375 505.219,567.655 505.459,567.175 505.459,566.215 505.219,565.734 505.219,565.495 505.459,563.814 
		505.699,563.094 505.699,562.854 505.939,562.374 505.939,562.134 506.179,561.414 506.419,561.174 506.659,560.694 
		507.139,559.974 507.139,559.734 507.379,559.494 507.379,559.014 507.379,557.813 507.619,556.854 507.619,556.373 
		507.859,556.133 508.099,556.133 509.059,555.653 509.299,555.653 510.499,555.173 511.699,554.933 512.179,554.933 
		513.139,554.933 513.859,554.213 514.579,553.493 514.819,553.493 514.819,553.253 515.299,552.533 515.059,551.813 
		515.059,551.572 514.819,551.092 515.059,548.212 515.059,547.492 515.539,547.012 515.539,546.771 515.059,545.571 
		514.819,545.091 512.899,543.891 512.179,543.411 510.499,542.451 510.259,541.971 509.779,541.491 509.299,540.771 
		508.819,540.051 508.339,539.09 508.099,539.09 506.899,537.41 506.419,536.45 504.739,535.73 503.059,532.129 502.819,531.889 
		502.819,531.649 503.059,530.689 503.059,529.969 503.059,529.489 503.059,528.289 502.819,528.049 502.819,527.329 
		502.579,527.089 502.579,526.369 502.579,526.128 503.059,525.168 503.299,523.248 502.339,522.528 502.099,521.568 
		501.859,521.328 501.619,520.607 501.139,519.167 501.139,518.927 501.139,518.688 500.899,518.688 500.899,518.447 
		500.419,517.727 500.419,517.487 497.539,517.007 497.299,516.527 496.819,516.527 495.379,517.007 495.139,517.247 
		495.139,517.487 495.139,517.727 495.379,519.407 495.859,519.407 495.859,519.647 496.099,519.888 496.099,520.127 
		496.099,520.368 494.899,521.808 494.179,522.288 493.939,522.048 493.699,522.288 493.459,522.288 492.739,523.008 
		492.499,524.688 492.739,525.889 494.179,528.049 494.419,528.769 495.139,529.969 495.379,530.209 495.619,530.689 
		495.859,530.929 496.099,531.169 496.579,531.649 497.539,532.609 498.499,533.33 500.659,535.97 501.379,536.93 501.619,537.65 
		503.059,540.531 503.299,540.771 503.299,541.251 503.299,541.491 502.819,541.491 501.619,541.251 500.659,540.051 
		500.419,539.571 500.179,538.13 499.459,537.41 498.499,536.21 497.539,535.01 497.539,534.77 497.299,534.77 495.139,533.33 
		493.699,531.409 493.459,530.929 492.499,531.169 492.259,531.409 492.019,531.889 491.779,532.129 491.299,532.37 
		491.299,532.129 491.059,531.889 489.859,530.929 489.859,530.689 489.379,530.449 489.139,529.489 489.139,529.249 
		488.659,526.849 488.419,526.608 488.179,525.648 488.179,525.408 487.699,524.448 487.219,523.488 487.219,521.328 
		487.219,520.848 487.219,519.888 487.699,518.207 487.699,517.727 487.699,517.247 487.699,515.807 487.939,514.367 
		488.659,514.126 490.579,513.407 490.819,513.646 491.059,513.887 491.059,514.126 491.299,514.126 491.539,514.126 
		492.259,514.367 492.499,514.367 492.739,514.367 492.739,514.126 493.219,513.887 493.939,511.966 494.179,511.726 
		494.659,511.966 495.379,512.207 496.579,512.926 497.059,513.167 499.459,514.367 500.419,513.646 500.899,511.966 
		502.819,509.566 502.339,508.366 502.099,508.125 501.619,507.406 501.619,507.166 501.139,506.686 500.899,506.445 
		500.419,505.725 500.419,505.485 499.939,504.765 499.459,504.285 498.019,503.085 497.539,502.845 496.339,502.605 
		495.379,501.405 494.419,500.685 493.459,499.484 493.219,499.244 492.739,499.244 492.019,499.244 491.299,499.244 
		491.299,499.004 490.579,498.764 489.859,497.804 489.619,497.804 489.379,497.564 489.379,497.324 489.139,497.084 
		488.659,496.604 488.179,496.124 487.699,494.204 486.979,493.724 486.259,493.003 486.259,492.283 486.259,491.323 
		486.019,490.123 486.739,488.442 486.499,487.962 486.259,487.723 485.299,487.482 484.579,487.723 484.339,488.683 
		483.859,489.643 483.139,490.363 480.979,491.563 480.019,491.803 479.779,491.803 479.059,492.043 478.099,492.283 
		477.619,492.283 476.179,491.323 476.179,491.083 475.459,490.123 474.979,488.203 475.219,487.482 475.459,487.482 
		475.459,487.723 476.179,487.723 477.379,486.042 477.139,483.642 477.139,483.402 476.419,482.922 475.939,482.922 
		474.259,482.922 473.539,484.602 473.539,485.082 473.059,485.562 472.339,485.082 472.099,484.602 	"/>
	
		<polyline clip-path="url(#SVGID_2_)" fill="none" stroke="#B37C34" stroke-width="0.72" stroke-linecap="round" stroke-linejoin="round" stroke-miterlimit="3.85" points="
		472.099,484.602 472.099,482.682 472.579,481.242 473.059,480.521 473.299,480.042 473.539,479.562 473.779,479.562 
		474.019,479.321 474.739,478.601 475.219,478.601 475.459,478.841 475.459,479.081 475.939,479.321 476.659,479.081 
		477.379,478.601 478.579,478.121 479.299,477.881 481.219,476.921 481.459,476.921 481.939,476.921 482.419,477.161 
		482.659,477.161 482.659,477.641 482.659,478.361 484.099,478.601 484.579,478.601 485.539,478.841 486.019,479.801 
		486.259,480.042 486.499,480.281 487.459,482.922 488.179,484.602 488.419,484.842 488.899,484.602 489.139,484.602 
		489.619,484.602 490.099,484.842 490.339,485.322 491.539,485.562 492.499,485.082 492.979,484.842 494.179,484.122 
		494.179,483.882 494.419,483.642 493.939,482.922 493.459,482.682 492.979,481.242 492.979,480.521 492.979,478.841 
		492.979,478.121 493.219,477.401 493.219,477.161 492.979,476.201 492.019,472.36 491.299,471.16 490.819,471.16 490.099,470.92 
		489.379,470.92 488.899,470.68 488.659,469.96 488.659,469.72 490.819,469.479 492.259,469.72 492.499,470.44 492.499,470.68 
		492.739,470.68 492.739,471.16 492.739,471.4 493.219,471.64 493.459,471.88 493.699,472.12 494.899,471.4 495.139,471.4 
		495.379,471.4 495.619,471.16 495.859,471.16 496.099,470.92 496.819,470.68 497.779,469.479 498.019,469 498.499,467.079 
		498.739,466.599 498.499,466.359 496.579,463.479 495.139,462.999 494.659,462.279 493.219,460.598 492.979,460.118 
		492.499,459.398 492.019,458.678 491.539,457.238 491.539,456.758 491.299,455.078 491.059,454.357 490.579,450.997 
		490.579,450.757 490.579,450.277 490.819,450.277 490.819,450.037 490.819,449.797 491.059,449.557 491.299,449.557 
		491.539,449.557 491.779,449.316 491.779,449.077 492.019,448.836 492.259,448.116 492.739,447.636 492.739,447.396 
		492.979,446.676 492.979,446.436 493.219,445.956 493.219,445.716 492.739,445.476 492.499,445.236 491.779,444.996 
		491.299,444.756 491.299,444.516 489.859,443.315 489.619,442.835 489.139,442.115 487.939,441.875 486.979,441.875 
		486.739,441.635 486.499,441.635 486.259,441.635 485.779,441.875 485.299,442.115 483.619,442.596 483.619,442.835 
		482.659,444.276 480.979,445.956 480.739,446.196 479.779,447.396 479.779,447.876 480.739,449.557 481.459,450.037 
		481.939,450.517 482.659,452.437 482.659,452.677 481.699,453.397 481.219,453.397 480.259,452.917 479.779,452.197 
		478.819,451.237 478.579,450.757 478.339,450.517 477.379,449.077 476.659,448.116 476.659,447.876 477.139,445.956 
		477.139,445.716 477.379,445.476 477.619,444.996 477.859,444.756 477.859,444.516 478.819,442.835 479.059,442.355 
		479.059,442.115 479.299,441.155 479.059,440.675 478.339,440.675 477.859,440.435 477.619,439.955 477.379,439.715 
		477.139,439.475 476.899,439.235 476.899,438.995 476.659,438.755 476.179,438.275 474.979,438.035 474.739,438.035 
		474.499,438.035 474.499,438.275 474.499,438.515 474.499,439.235 474.499,439.955 474.019,440.435 473.539,440.435 
		473.299,439.715 473.299,439.475 473.299,438.515 473.539,436.114 473.539,435.875 473.299,433.954 473.059,432.034 
		472.579,431.314 471.619,430.594 469.699,428.914 468.499,427.953 466.819,426.753 466.339,425.553 466.339,425.313 
		467.059,425.313 467.539,425.073 468.259,424.353 469.699,423.393 470.179,423.152 470.419,422.433 470.659,421.712 
		470.659,420.512 470.419,420.032 469.699,419.312 468.979,418.832 468.739,418.832 468.499,418.832 467.059,420.032 
		466.819,420.272 464.179,419.072 463.939,418.832 463.699,418.832 463.699,418.352 464.179,416.912 465.619,414.991 
		466.099,414.271 468.259,412.111 468.739,412.111 468.979,412.111 469.219,411.871 469.939,411.391 469.939,410.911 
		469.699,410.671 471.139,410.671 471.619,410.671 471.859,410.671 472.819,410.671 474.499,410.671 479.059,410.911 
		482.179,410.911 483.619,410.911 488.419,411.15 494.419,411.15 496.339,411.15 501.379,411.391 501.619,411.391 511.939,411.631 
		512.419,411.631 515.539,411.631 525.859,411.871 529.458,411.871 530.659,411.871 539.299,412.351 542.898,412.351 
		560.659,413.071 581.298,413.071 592.818,412.831 597.378,412.831 605.538,413.071 606.019,413.071 606.258,412.831 
		607.938,412.831 617.298,412.831 623.298,413.071 625.458,413.071 626.898,413.071 630.498,413.071 642.018,413.071 
		654.258,413.071 684.979,412.831 697.458,412.831 719.058,412.831 726.258,412.591 730.338,412.591 745.938,412.351 
		746.178,412.351 766.577,411.871 768.018,411.871 769.938,411.871 770.658,411.871 781.938,411.631 793.217,411.391 
		797.058,411.391 797.537,411.391 800.897,411.391 804.978,411.15 819.377,410.911 824.177,410.671 825.857,410.671 843.617,410.19 
		866.897,409.471 882.018,408.99 895.697,408.51 899.537,408.271 899.777,408.51 910.337,408.03 911.057,407.79 933.137,407.07 
		935.297,406.83 945.617,406.59 951.377,406.35 958.097,405.87 958.337,405.87 959.776,405.87 962.896,405.87 965.776,405.63 
		978.736,405.15 987.137,404.67 987.377,409.23 988.097,421.712 988.097,425.793 988.336,427.473 988.336,429.394 988.576,434.194 
		988.816,438.995 989.297,451.717 989.536,455.558 989.536,456.758 989.536,458.438 990.017,464.439 990.017,465.159 
		990.017,466.839 990.017,467.079 990.256,470.2 990.256,473.32 990.256,474.041 990.256,474.28 990.496,476.201 990.496,477.161 
		990.736,481.722 990.736,482.922 990.736,483.882 990.977,485.322 990.977,487.962 991.217,490.843 991.696,506.206 
		991.696,506.686 991.696,507.406 991.937,511.966 991.937,512.207 991.937,513.407 991.937,513.887 991.937,514.126 
		991.937,514.367 991.937,514.847 991.937,515.087 991.937,515.567 991.937,516.047 991.937,516.287 991.937,516.527 
		992.176,517.007 992.176,517.487 992.176,517.967 992.176,518.447 992.176,518.927 992.176,523.488 992.416,524.688 
		992.656,530.209 992.896,535.73 993.137,545.091 993.377,546.532 993.616,552.053 993.856,557.333 993.856,557.573 
		993.856,557.813 993.856,558.534 993.856,558.773 993.856,559.014 993.856,560.214 993.856,560.934 994.097,564.054 
		994.097,564.294 994.097,564.774 994.336,565.734 994.336,566.215 994.576,572.216 994.576,573.896 994.576,574.136 
		994.576,574.616 994.816,576.776 994.816,577.017 994.816,578.217 995.057,579.897 995.057,582.057 995.057,582.777 
		995.057,583.018 995.057,583.257 995.057,583.498 995.057,583.737 995.297,585.417 995.297,585.658 995.297,586.138 
		995.776,593.579 995.776,595.019 995.776,596.939 996.017,598.86 996.017,599.58 996.017,600.3 996.017,602.46 996.256,606.061 
		996.496,606.781 996.496,607.261 996.496,607.501 996.736,613.502 996.977,615.422 996.977,619.503 997.217,622.383 
		997.217,624.304 997.456,627.664 997.456,628.864 997.696,631.505 997.696,633.425 998.176,643.507 998.416,646.147 
		998.416,646.387 998.416,648.067 998.656,651.188 998.896,654.068 998.896,657.909 999.137,660.549 999.137,661.51 999.137,661.75 
		999.377,666.551 999.377,666.79 999.616,672.552 999.856,676.392 1000.097,682.393 1000.336,683.593 1000.336,684.073 
		1000.576,691.034 1000.816,696.314 1001.057,698.235 1001.297,702.796 1001.297,703.036 1001.297,704.477 1001.536,710.236 
		1001.536,711.197 1001.776,715.038 1001.776,715.758 1002.017,717.198 1002.017,717.678 1002.017,719.839 1002.017,720.078 
		1002.256,723.199 1002.736,731.12 1002.736,735.682 1003.217,741.922 1003.696,751.523 1003.696,751.764 1003.696,752.724 
		1003.696,753.684 1003.937,755.844 1003.937,756.564 1003.937,757.524 1003.937,758.005 1004.176,758.005 1004.176,758.244 
		1004.416,758.484 1004.416,758.725 1004.416,759.925 1004.416,760.405 1004.176,760.645 1003.937,761.605 1003.937,761.845 
		1003.937,762.085 1003.937,762.564 1003.696,763.045 1003.456,764.246 1003.217,764.726 1002.977,764.965 1002.496,765.445 
		1002.256,765.926 1002.256,766.165 1002.256,767.847 1002.256,768.086 1002.496,768.565 1002.736,768.807 1002.977,769.047 
		1003.217,769.047 1003.456,769.047 1003.937,769.286 1004.896,769.286 1004.896,769.526 1005.377,769.526 1005.616,769.766 
		1006.097,770.006 1006.097,770.247 1006.097,770.967 1006.097,771.447 1006.336,772.166 1006.336,772.647 1006.576,772.887 
		1006.816,773.367 1007.776,774.327 1008.496,774.327 1008.736,774.567 1008.977,774.567 1009.456,775.047 1009.937,775.287 
		1010.176,775.768 1010.176,776.247 1009.456,777.447 1009.456,777.928 1009.456,778.168 1009.937,778.647 1011.136,779.368 
		1011.377,779.848 1011.616,780.088 1012.096,780.568 1012.096,780.809 1012.096,781.048 1012.336,781.048 1012.816,782.729 
		1013.297,784.169 1013.297,784.889 1013.057,785.609 1012.336,787.289 1012.336,787.529 1012.576,788.01 1012.816,788.489 
		1013.776,789.21 1014.256,789.689 1014.977,790.41 1016.656,792.33 1016.896,792.569 1016.896,793.05 1016.896,793.77 
		1015.696,796.17 1015.696,796.41 1014.736,798.331 1014.736,798.57 1014.496,798.811 1014.496,799.531 1014.496,800.491 
		1014.256,801.932 1013.776,802.411 1012.336,802.651 1012.096,802.651 1011.856,802.892 1011.616,803.131 1011.616,803.372 
		1011.616,803.852 1011.856,804.331 1011.856,804.812 1012.096,805.052 1013.057,805.292 1013.536,805.531 1013.776,805.531 
		1014.256,805.531 1014.977,806.492 1015.696,807.452 1016.896,810.332 1017.856,813.213 1018.336,815.613 1018.576,816.094 
		1018.576,816.334 1016.416,816.334 1012.096,816.334 1005.616,816.813 1003.937,816.813 1002.017,816.813 996.736,817.054 
		990.256,817.294 990.017,817.294 989.776,817.294 987.137,817.534 986.656,817.534 984.017,817.534 978.256,817.773 
		976.816,818.254 973.217,818.014 968.656,818.254 965.297,818.494 965.057,818.494 964.816,818.494 962.416,818.494 
		952.816,818.974 942.017,819.214 923.536,819.935 921.617,819.935 917.777,819.935 917.057,819.935 915.137,820.174 
		902.897,820.654 902.417,820.654 900.978,820.654 893.057,820.894 892.337,820.894 890.897,821.135 890.417,821.135 
		887.777,821.135 884.897,821.135 882.257,821.374 881.777,821.374 879.856,821.374 878.657,821.374 877.938,821.374 
		876.257,821.374 874.337,821.614 870.018,821.614 867.377,821.854 863.777,821.854 863.537,821.854 862.816,821.854 
		861.856,821.854 860.417,821.854 859.938,821.854 859.457,821.854 858.497,822.094 856.817,822.094 853.938,822.094 
		853.697,822.094 852.018,822.094 850.098,822.094 839.537,822.574 836.417,822.574 835.938,822.574 833.297,822.574 
		829.217,822.814 824.897,822.814 821.297,823.055 820.577,823.055 818.418,825.936 816.737,827.375 813.617,829.056 
		810.498,831.216 807.377,832.656 805.938,832.896 803.297,833.376 800.657,833.376 797.777,832.896 794.897,831.936 
		789.377,832.896 788.657,832.896 788.177,833.136 785.297,834.336 784.577,834.576 783.377,834.816 778.098,835.297 
		776.418,835.297 772.817,836.977 769.218,836.736 768.018,836.017 764.658,834.576 762.018,835.297 759.857,837.217 
		759.617,837.697 755.537,843.938 755.298,844.178 749.777,845.139 745.457,845.857 742.577,845.618 736.338,847.298 
		735.617,847.298 732.738,848.258 726.978,848.979 723.857,850.659 723.617,850.659 717.138,854.499 710.178,856.18 707.538,857.62 
		703.698,862.66 696.738,863.381 696.258,863.381 692.178,864.82 684.979,866.502 677.538,867.222 675.618,866.502 675.378,866.261 
		673.698,865.061 670.578,861.701 670.098,861.221 666.979,860.021 662.897,860.021 660.979,861.221 659.538,862.181 
		657.618,864.341 654.258,865.541 648.018,868.422 643.458,869.861 641.538,870.342 640.098,871.782 637.698,874.183 
		636.018,874.663 635.778,874.423 633.138,872.502 632.178,872.502 629.778,873.463 629.298,873.463 627.618,872.982 
		626.898,872.742 624.498,873.223 621.378,872.982 619.458,873.463 616.098,877.063 616.338,877.543 615.858,878.022 
		615.618,878.022 614.898,878.743 614.178,878.503 613.698,878.983 611.538,879.223 611.298,879.223 609.858,879.223 
		608.658,877.783 608.658,877.303 608.898,876.103 608.658,875.383 608.418,873.463 608.418,873.223 607.938,872.502 
		606.979,870.342 603.378,869.382 600.019,868.182 599.298,867.702 597.618,866.261 595.218,865.541 593.778,865.781 
		592.578,865.781 591.858,865.781 588.979,867.222 586.818,866.981 585.139,866.502 583.218,866.021 581.059,864.341 
		580.579,864.102 580.099,863.621 579.619,863.381 578.658,863.141 577.458,862.66 576.499,862.421 576.258,862.421 576.258,862.66 
		573.619,863.381 566.898,865.302 566.179,865.302 563.298,865.302 562.579,865.541 559.458,866.741 556.818,866.741 
		552.259,865.541 549.619,864.82 546.979,865.781 545.059,866.502 544.099,866.741 543.378,867.461 540.739,869.861 
		540.979,870.822 540.979,871.062 540.499,871.542 540.259,872.022 538.819,872.742 537.619,873.463 535.938,873.223 
		535.458,873.463 534.739,874.902 533.299,875.863 532.819,876.343 530.898,877.063 528.979,877.303 527.059,878.022 
		521.539,881.384 521.299,881.384 520.339,881.623 518.899,881.623 518.659,881.384 517.699,881.144 513.379,882.104 
		511.699,884.023 507.139,886.185 505.699,886.665 505.219,886.665 502.579,886.665 498.979,885.944 497.059,882.823 
		495.139,882.344 494.419,882.104 494.179,882.104 493.459,882.104 492.739,882.344 492.499,882.584 491.539,883.064 
		490.819,883.304 488.899,883.544 487.219,883.064 487.219,882.823 485.779,881.864 485.539,881.623 485.299,881.384 
		484.819,881.384 483.859,880.903 483.619,880.664 483.379,880.664 482.419,880.423 480.739,879.943 478.579,878.983 
		478.339,878.743 475.219,877.783 474.739,877.543 473.059,877.063 472.819,877.063 472.579,877.063 469.219,876.823 
		466.099,875.623 464.659,874.663 462.499,872.742 460.819,872.262 460.819,872.022 460.339,871.782 460.099,871.782 
		457.939,870.103 457.699,870.103 456.739,866.741 456.979,864.82 456.979,864.102 458.179,860.261 458.419,859.301 
		458.419,855.939 457.699,853.299 457.699,853.06 457.459,852.819 455.299,848.979 455.299,846.818 456.259,844.178 
		456.259,843.457 456.259,842.257 456.499,841.538 456.499,841.057 455.539,839.377 455.539,839.137 455.299,838.657 
		455.059,837.937 454.339,836.017 454.339,835.776 454.339,835.536 454.099,834.816 454.099,834.576 454.579,832.176 
		454.099,829.056 453.859,828.095 452.179,825.936 451.699,825.455 450.019,820.654 450.019,820.414 448.099,818.254 
		447.859,816.334 447.619,814.413 447.379,814.173 445.699,811.053 443.299,809.612 442.579,809.373 442.339,809.132 
		440.179,807.932 439.459,806.973 436.339,803.852 435.859,803.611 434.899,803.131 434.659,803.131 433.699,802.411 
		432.979,802.172 432.019,800.972 426.979,797.61 426.019,796.65 425.539,796.41 421.219,795.931 416.659,798.091 414.979,798.811 
		413.059,800.011 410.179,801.691 408.259,801.691 408.02,801.451 405.139,801.211 402.259,801.211 401.539,801.211 396.02,796.17 
		396.5,790.169 396.5,789.449 395.779,788.489 394.579,786.568 393.139,784.889 392.659,784.648 392.179,784.169 391.699,783.929 
		389.539,783.688 388.1,784.169 387.139,784.648 386.179,784.889 385.22,785.129 385.22,784.169 384.979,784.169 384.739,784.169 
		384.5,784.169 384.02,784.169 383.539,784.648 383.059,784.648 381.859,784.648 381.62,784.648 381.379,784.648 378.979,784.648 
		378.02,784.409 373.7,783.688 372.739,782.729 372.739,782.008 372.979,780.809 372.739,780.328 372.739,779.607 372.02,779.128 
		370.819,778.168 369.379,778.407 368.659,778.647 368.659,779.607 368.179,780.088 368.179,780.328 366.979,780.088 
		365.06,782.008 365.06,782.248 364.339,782.248 363.62,782.248 362.899,781.288 361.7,780.809 360.739,780.809 360.02,781.288 
		358.58,782.488 358.34,782.729 357.62,783.448 357.379,783.688 356.419,784.409 355.939,784.889 355.7,785.129 355.459,785.369 
		355.22,785.369 354.5,786.089 354.259,786.329 354.02,786.329 354.02,786.568 353.779,786.568 352.34,786.089 350.659,785.609 
		349.7,784.889 349.7,784.648 349.22,784.169 348.739,783.688 347.779,782.488 346.58,781.048 345.14,779.128 345.14,778.888 
		345.14,778.647 345.14,777.928 344.9,777.688 344.66,777.447 344.42,777.207 343.7,776.728 343.7,776.487 342.5,776.007 
		342.259,776.007 341.54,775.768 340.34,775.527 339.62,776.487 339.14,777.207 338.9,778.168 338.9,778.647 338.42,779.848 
		337.939,781.048 336.5,780.568 334.34,782.008 334.34,781.769 334.34,781.048 334.58,779.607 335.06,777.928 335.54,776.968 
		335.54,776.728 335.779,776.247 335.779,775.527 336.02,775.047 336.259,774.327 336.259,773.847 336.5,773.367 336.5,772.166 
		336.739,769.286 336.979,768.326 336.979,767.606 337.22,765.686 337.459,764.485 337.459,762.564 337.939,754.884 
		337.939,753.924 337.939,751.283 337.939,751.044 337.939,750.083 337.939,749.844 337.939,748.402 337.939,746.243 
		337.939,745.043 337.939,743.122 337.939,742.402 337.939,741.922 337.459,736.161 337.7,732.561 337.7,732.32 337.7,732.081 
		337.7,731.84 337.7,731.601 337.7,731.36 338.18,730.64 338.42,730.64 338.42,730.4 338.9,730.16 339.62,730.16 339.859,730.4 
		340.34,731.36 340.82,732.32 340.1,732.801 339.62,733.04 339.14,733.281 339.379,734.001 340.34,735.921 341.06,737.602 
		341.3,737.602 341.3,737.842 341.779,739.041 341.54,741.442 341.3,745.043 341.06,746.002 340.82,748.402 340.82,748.644 
		340.82,748.883 340.34,750.563 340.34,750.803 340.58,751.283 340.58,751.523 340.58,752.003 340.58,752.483 340.82,755.364 
		342.5,755.844 342.979,755.844 	"/>
	
		<polyline clip-path="url(#SVGID_2_)" fill="none" stroke="#B37C34" stroke-width="0.72" stroke-linecap="round" stroke-linejoin="round" stroke-miterlimit="3.85" points="
		342.979,755.844 343.22,755.844 344.179,755.364 344.179,755.124 343.939,754.644 343.939,754.164 343.939,753.443 
		344.179,752.003 344.42,750.803 344.9,750.563 345.14,750.563 345.379,750.803 345.379,751.764 346.1,753.684 346.1,753.924 
		346.34,754.164 348.739,753.684 349.939,751.523 350.419,750.803 350.899,749.603 352.58,748.402 353.3,747.683 353.3,746.723 
		353.779,745.763 352.82,743.603 352.1,742.643 351.62,742.162 351.379,741.442 351.14,740.002 350.659,738.802 350.659,738.321 
		349.7,737.361 348.979,736.881 348.259,736.401 348.02,734.961 348.02,734.001 348.02,732.561 348.02,731.84 349.939,731.36 
		351.379,730.16 351.62,729.92 351.859,729.681 351.859,728.96 351.62,727.04 352.34,726.08 352.58,726.08 354.259,725.6 
		354.5,725.6 357.379,723.68 358.58,723.199 358.82,722.479 359.06,721.759 359.3,721.279 359.06,720.799 358.34,720.078 
		357.859,719.599 356.899,719.599 356.419,719.119 356.179,718.878 355.22,716.958 354.979,716.478 354.5,716.478 353.3,716.719 
		353.3,716.958 352.82,717.438 352.82,718.158 352.82,718.878 353.06,719.119 352.58,719.599 352.1,719.599 351.379,719.599 
		349.459,719.599 348.5,718.639 347.779,718.158 347.06,718.398 346.58,719.599 346.82,719.839 346.82,720.559 347.06,721.039 
		347.54,721.999 347.779,722.239 347.06,722.479 346.1,721.999 345.859,721.999 345.14,721.759 344.66,722.239 344.179,722.479 
		343.7,722.239 343.22,721.999 342.5,721.519 342.02,721.279 342.02,721.039 341.06,720.318 340.58,720.078 340.82,719.599 
		340.34,719.119 338.9,717.919 337.22,717.678 336.02,716.719 335.779,716.238 336.02,714.798 336.02,710.957 335.779,709.518 
		335.779,707.356 335.06,703.756 334.58,700.636 334.34,699.195 334.34,698.715 334.1,697.755 333.859,697.035 332.9,694.395 
		332.66,694.155 332.9,694.155 334.58,693.435 334.82,693.194 335.3,693.194 335.779,693.674 336.259,694.155 336.979,694.875 
		337.22,695.595 337.22,696.314 337.22,699.436 338.42,700.396 338.66,700.396 338.9,700.396 339.14,700.155 339.379,700.155 
		339.859,699.915 340.34,699.195 341.06,696.555 341.3,696.074 342.259,695.595 343.459,695.114 344.179,694.875 344.42,694.875 
		344.9,693.915 345.379,693.674 347.3,692.475 347.779,692.475 349.459,692.715 349.7,692.715 349.939,692.715 353.779,691.273 
		355.939,690.794 356.659,690.555 356.899,690.314 357.379,690.314 357.379,690.073 359.06,689.354 358.82,688.873 358.58,688.873 
		357.62,687.434 356.899,686.714 356.419,686.473 355.939,686.233 355.7,685.993 355.459,685.993 355.22,685.993 354.259,685.993 
		353.54,685.993 351.859,685.993 350.899,685.754 350.659,685.273 349.939,684.313 349.7,684.313 347.06,684.553 345.62,684.073 
		345.379,683.833 345.14,683.833 345.14,683.593 344.42,682.873 344.9,682.393 345.14,682.152 345.379,681.912 345.859,681.192 
		344.66,679.992 344.66,679.512 343.939,677.592 342.02,676.632 340.82,676.152 340.34,675.912 339.62,675.672 339.14,675.672 
		338.42,675.672 336.5,675.432 335.06,675.432 333.14,676.392 332.42,677.111 332.18,678.072 332.18,678.312 332.42,678.792 
		332.42,679.032 332.42,679.272 333.14,682.873 333.14,684.793 333.14,685.033 333.14,685.273 333.14,685.514 333.379,685.754 
		333.62,686.473 333.859,687.434 333.859,687.914 334.1,688.634 334.34,688.873 333.859,689.114 333.379,689.114 332.66,689.354 
		330.979,690.794 328.82,691.034 329.06,691.034 329.06,690.555 329.54,689.114 330.02,686.714 330.02,686.233 330.259,683.353 
		330.259,681.912 330.259,678.552 330.5,674.952 330.5,672.071 330.5,671.831 330.259,671.591 330.259,669.191 330.259,668.71 
		330.259,668.471 330.259,668.23 330.02,666.551 330.02,665.11 329.779,663.91 329.779,662.949 330.02,662.71 329.54,662.229 
		329.3,661.029 329.3,660.79 329.06,659.35 329.06,659.109 328.82,656.948 328.82,656.709 328.58,654.789 327.859,650.948 
		327.14,647.347 325.939,642.066 325.939,641.827 325.939,641.346 325.22,640.146 324.5,639.426 324.26,639.186 324.02,638.946 
		322.58,638.706 321.379,635.826 321.379,635.585 321.14,635.105 320.9,633.905 320.42,632.945 320.42,632.705 320.18,632.705 
		320.18,632.465 319.939,632.465 319.7,632.225 318.5,631.745 318.26,630.064 318.02,627.184 318.02,626.944 318.02,626.704 
		317.78,625.504 317.3,623.344 317.06,620.223 317.06,619.503 317.06,617.343 317.06,616.863 317.06,615.663 317.06,613.502 
		317.06,613.262 316.34,607.021 316.34,605.341 316.1,605.101 315.859,603.42 315.859,602.94 315.62,600.3 315.62,600.06 
		315.14,597.899 314.9,597.419 314.42,593.339 313.939,591.179 313.22,588.778 312.74,587.098 312.02,585.178 311.78,582.297 
		311.78,582.057 311.54,580.377 311.3,579.417 311.06,578.697 310.58,577.736 310.58,577.497 310.34,577.017 308.66,574.856 
		307.7,574.616 306.979,574.616 306.5,574.136 306.5,572.216 306.26,570.295 305.54,567.655 304.82,566.695 304.1,566.455 
		303.62,566.695 303.14,566.455 301.7,565.254 301.22,564.535 300.26,563.094 299.54,561.894 299.54,560.934 299.3,560.694 
		299.3,560.454 296.9,558.773 294.979,558.293 294.74,558.293 293.54,557.333 293.06,556.613 293.3,556.133 293.3,555.893 
		293.06,554.933 292.82,553.733 292.58,553.253 292.58,552.772 292.34,552.292 292.1,550.612 291.62,549.652 290.66,548.452 
		290.18,547.492 289.7,546.532 289.94,544.131 289.94,543.891 289.7,541.251 289.459,539.571 289.459,539.09 289.459,536.93 
		289.459,536.69 289.22,534.77 288.979,534.05 288.5,533.57 288.5,533.089 288.26,532.129 288.26,531.409 288.5,530.449 
		288.5,529.489 288.979,529.009 289.22,529.009 289.22,528.049 288.74,526.128 288.74,525.889 288.74,525.648 288.5,525.408 
		286.58,520.368 285.62,519.407 285.62,518.927 285.62,517.967 286.82,517.247 	"/>
	
		<polyline clip-path="url(#SVGID_2_)" fill="none" stroke="#B37C34" stroke-width="0.72" stroke-linecap="round" stroke-linejoin="round" stroke-miterlimit="3.85" points="
		444.259,467.319 443.779,466.839 443.299,466.359 444.019,465.879 444.259,465.399 442.579,463.479 442.099,463.479 
		442.099,462.279 442.819,461.798 444.259,460.598 445.219,459.398 445.219,458.678 445.699,457.718 446.419,456.998 
		446.659,456.998 447.619,456.038 448.099,455.317 449.299,454.357 451.459,452.677 452.179,451.237 451.939,450.757 
		453.379,450.277 454.099,450.037 454.339,449.797 455.059,449.797 455.299,449.797 456.499,449.797 457.459,450.037 
		457.699,450.037 458.179,450.277 461.539,451.957 461.779,452.197 462.019,452.197 462.019,452.437 462.499,452.677 
		464.179,453.877 464.419,454.117 464.659,454.357 464.899,454.837 468.259,456.518 469.939,457.238 469.939,457.478 
		470.179,457.478 468.739,459.158 468.019,459.638 467.059,460.358 466.099,460.838 465.379,461.079 464.179,462.759 
		463.939,462.999 463.699,463.239 463.939,463.719 464.659,465.159 464.659,465.399 464.659,465.639 464.419,465.639 
		464.179,466.359 464.419,467.079 464.419,467.799 464.899,468.04 465.619,469 467.059,470.92 467.059,471.64 466.819,472.36 
		465.859,473.32 465.379,475.241 465.379,476.201 465.379,476.441 466.339,477.161 466.099,478.361 464.179,480.042 
		464.179,480.281 463.459,480.761 462.739,481.242 462.499,481.722 462.499,481.961 462.499,482.682 462.259,485.082 
		462.979,486.042 462.979,486.522 463.219,487.243 463.459,487.482 463.699,488.683 463.699,488.923 463.699,489.163 
		463.459,489.643 462.739,490.123 461.539,489.883 459.139,490.363 458.179,490.363 457.939,490.363 457.699,490.363 
		457.219,490.603 456.259,490.363 455.779,490.123 455.299,489.883 455.779,488.203 454.579,487.962 453.619,487.002 
		453.379,487.482 452.419,487.482 453.379,485.562 453.139,484.842 452.419,484.602 451.459,485.082 450.259,485.562 
		449.299,485.802 445.699,485.082 443.539,484.602 443.059,484.602 442.819,484.602 442.339,484.362 440.659,482.682 
		439.699,481.722 439.459,481.481 438.979,481.242 436.819,480.521 435.139,479.801 434.179,478.841 433.699,478.361 
		432.979,477.881 432.739,477.401 432.499,476.921 432.259,476.681 432.259,476.441 432.019,476.441 431.299,474.521 431.059,473.8 
		431.299,473.08 431.299,472.84 431.539,472.12 430.819,471.4 430.579,470.68 430.099,469.96 430.339,469.24 430.579,468.52 
		430.579,467.799 429.379,466.599 428.419,466.599 428.179,466.599 427.939,466.119 427.939,465.159 428.659,463.719 
		430.099,462.039 430.099,461.798 432.739,461.559 433.699,461.798 434.179,462.039 434.419,462.039 436.579,461.798 
		437.059,462.759 437.539,463.239 437.539,463.719 437.059,464.439 437.059,465.399 438.259,465.879 439.219,466.119 
		439.459,466.119 440.899,467.56 441.139,468.04 441.139,468.279 441.619,469.24 441.859,469.479 442.819,469.96 443.059,470.2 
		443.779,470.44 444.739,470.68 445.699,470.68 446.659,470.68 447.379,470.44 447.619,469.479 447.139,468.76 446.659,468.279 
		446.179,468.04 445.939,468.04 445.939,467.799 444.739,468.04 444.259,467.319 	"/>
	
		<polyline clip-path="url(#SVGID_2_)" fill="none" stroke="#B37C34" stroke-width="0.72" stroke-linecap="round" stroke-linejoin="round" stroke-miterlimit="3.85" points="
		471.139,505.965 472.099,505.005 473.299,503.085 473.539,502.605 474.259,501.405 475.219,499.725 475.939,497.804 
		476.179,497.084 476.179,493.724 476.179,493.483 476.179,493.243 478.099,492.763 479.059,493.003 479.299,493.483 
		479.059,493.724 478.819,493.963 478.579,494.204 478.819,494.204 479.539,493.963 480.739,492.763 481.219,492.043 
		481.939,492.283 482.419,493.003 482.659,493.963 483.619,494.443 483.379,494.684 483.379,495.644 483.379,495.884 
		483.379,496.124 483.139,497.084 483.139,498.044 483.139,498.764 483.139,499.244 483.379,500.205 484.579,500.685 
		485.059,500.925 485.299,500.925 486.019,501.405 486.499,501.645 489.139,504.285 489.619,504.765 489.619,505.005 
		490.339,506.206 490.579,507.406 490.579,507.646 490.579,507.886 489.859,508.606 489.379,509.086 489.139,509.086 
		488.899,509.566 488.179,510.046 486.259,510.046 485.779,510.046 485.539,510.046 484.099,508.125 483.379,507.886 
		483.379,507.646 483.139,507.646 481.939,507.646 481.699,507.646 480.259,508.125 480.019,508.125 479.299,508.846 
		479.779,509.806 479.779,510.046 479.779,510.286 479.539,511.486 478.819,511.726 477.379,511.966 476.899,512.207 
		476.899,512.926 475.699,514.847 475.219,515.327 475.219,516.767 475.219,517.727 475.459,517.727 475.699,517.727 
		476.179,517.967 476.659,517.967 477.859,518.207 478.819,518.207 479.059,517.967 480.739,519.647 480.739,519.888 
		480.979,519.888 482.659,523.008 482.659,523.248 482.899,523.488 483.139,525.168 483.619,527.329 483.859,527.569 
		484.339,528.289 484.339,528.529 485.059,532.37 485.059,533.089 483.859,534.29 483.859,534.53 484.339,535.73 484.339,535.97 
		485.299,538.13 485.779,540.291 486.019,540.771 486.019,541.491 486.739,541.731 487.219,541.491 488.899,541.011 
		488.899,540.771 489.379,538.61 489.379,538.371 488.899,537.65 488.179,535.73 488.179,535.49 489.139,535.49 490.579,535.73 
		491.299,535.97 492.019,537.17 492.979,538.371 493.939,539.571 495.139,541.491 495.619,541.971 496.579,542.691 496.819,542.931 
		497.539,543.171 498.739,543.651 499.459,543.891 500.659,544.371 501.619,544.371 501.619,545.091 501.619,545.332 
		501.619,546.771 501.859,547.732 501.859,547.972 501.859,548.932 502.099,549.652 502.579,550.372 503.539,551.572 
		503.539,551.813 503.539,552.053 503.779,552.533 503.779,553.253 503.779,553.973 503.779,554.693 503.779,555.413 
		503.059,557.333 503.059,557.573 502.819,557.813 502.099,558.293 501.859,558.773 501.379,559.494 501.379,561.174 
		501.379,561.414 501.139,561.894 501.139,562.134 500.899,562.134 499.939,561.894 499.219,560.934 497.779,560.934 
		497.299,560.934 496.339,560.694 495.139,559.014 494.899,558.534 494.899,557.573 495.139,557.093 495.379,556.373 
		495.379,555.893 495.379,555.653 495.379,555.413 494.899,553.973 494.659,553.733 494.419,553.493 494.179,552.772 
		492.739,550.853 492.739,550.612 492.499,550.372 491.299,550.132 489.859,550.612 488.659,551.333 488.419,552.292 
		488.179,552.533 485.779,553.253 485.299,552.292 485.299,552.053 485.299,551.813 486.019,550.612 486.259,549.652 
		486.259,549.172 486.019,549.172 484.579,547.732 484.099,547.732 482.899,547.252 482.659,547.252 480.259,544.371 
		480.499,544.131 481.219,543.171 481.699,542.211 481.699,541.971 481.699,541.731 481.459,541.011 481.459,540.771 
		481.219,540.531 480.259,539.09 479.779,538.61 480.019,537.65 480.499,536.45 480.979,534.77 481.459,533.33 481.459,532.609 
		481.219,532.129 481.219,530.689 481.219,529.969 480.499,528.049 480.499,527.809 480.499,527.569 480.259,527.329 
		479.779,526.849 479.779,526.608 478.339,526.128 476.419,526.128 476.179,526.128 475.219,526.608 475.219,526.849 
		474.739,526.849 474.259,527.329 474.019,527.089 473.779,525.648 473.539,524.448 473.059,523.488 472.819,523.488 
		471.859,522.528 471.379,521.808 471.139,521.568 470.899,521.568 470.659,521.568 469.219,520.848 468.979,520.368 
		468.259,519.407 466.579,518.688 466.099,517.487 466.099,517.007 466.099,516.527 466.339,516.527 467.059,514.126 
		467.779,512.446 468.019,512.446 468.259,511.966 469.459,510.046 469.699,510.046 469.699,509.806 469.699,509.566 
		469.939,508.606 470.659,506.686 470.659,506.445 471.139,505.965 	"/>
	
		<polyline clip-path="url(#SVGID_2_)" fill="none" stroke="#B37C34" stroke-width="0.72" stroke-linecap="round" stroke-linejoin="round" stroke-miterlimit="3.85" points="
		472.339,464.679 474.259,466.359 474.499,467.319 476.179,470.44 474.499,473.8 471.859,474.28 471.379,474.041 471.379,472.84 
		470.899,470.68 470.179,470.2 469.939,469.479 469.939,468.04 471.379,465.399 472.339,464.679 	"/>
	
		<polyline clip-path="url(#SVGID_2_)" fill="none" stroke="#B37C34" stroke-width="0.72" stroke-linecap="round" stroke-linejoin="round" stroke-miterlimit="3.85" points="
		472.819,445.476 473.779,446.196 474.499,447.156 474.979,447.876 475.459,449.077 475.699,449.316 476.899,451.477 
		477.139,451.957 477.379,452.677 478.099,453.157 479.059,453.637 481.219,456.518 481.459,456.518 481.459,456.758 
		481.939,459.158 481.939,459.878 482.179,460.118 481.459,459.878 480.019,459.158 479.779,458.918 476.419,454.837 
		475.939,453.877 475.699,453.157 475.219,451.957 474.739,450.757 473.779,450.037 473.299,450.037 472.339,449.797 
		472.099,449.077 472.099,447.876 472.579,446.676 472.819,445.476 	"/>
	
		<polyline clip-path="url(#SVGID_2_)" fill="none" stroke="#B37C34" stroke-width="0.72" stroke-linecap="round" stroke-linejoin="round" stroke-miterlimit="3.85" points="
		482.419,472.12 483.379,472.6 484.099,472.84 484.579,473.32 485.059,475.961 484.099,475.48 483.379,475 482.659,475 
		482.659,474.761 482.419,475 480.739,475.961 480.499,475.961 479.539,476.201 479.299,476.201 478.819,476.201 478.579,476.201 
		478.099,475.961 477.859,475.48 477.619,474.521 477.859,473.08 478.099,472.36 477.859,468.279 478.339,467.799 478.819,467.799 
		480.019,469.96 481.699,471.64 482.419,472.12 	"/>
	
		<polyline clip-path="url(#SVGID_2_)" fill="none" stroke="#B37C34" stroke-width="0.72" stroke-linecap="round" stroke-linejoin="round" stroke-miterlimit="3.85" points="
		431.059,453.877 433.219,455.558 434.419,456.998 434.659,457.238 435.379,458.438 436.819,460.358 435.619,460.358 
		434.179,459.878 431.059,457.718 428.659,456.278 426.979,455.078 425.779,453.877 425.539,453.637 425.059,453.157 
		425.299,452.437 427.219,452.437 427.459,452.437 428.179,452.917 428.659,453.157 429.619,453.157 429.859,453.157 
		430.099,453.157 431.059,453.877 	"/>
	
		<polyline clip-path="url(#SVGID_2_)" fill="none" stroke="#B37C34" stroke-width="0.72" stroke-linecap="round" stroke-linejoin="round" stroke-miterlimit="3.85" points="
		444.499,449.077 444.979,448.597 445.939,448.356 446.179,448.836 446.179,452.197 445.459,453.637 444.739,454.117 
		442.819,454.837 442.819,454.357 443.539,453.397 443.299,452.917 442.579,451.957 440.419,451.477 443.059,449.077 
		444.499,449.077 	"/>
	
		<polyline clip-path="url(#SVGID_2_)" fill="none" stroke="#B37C34" stroke-width="0.72" stroke-linecap="round" stroke-linejoin="round" stroke-miterlimit="3.85" points="
		439.699,409.95 441.859,409.95 444.739,409.95 444.979,410.431 445.219,411.391 445.699,412.591 445.699,412.831 445.939,413.311 
		445.219,413.791 444.019,413.311 443.059,413.551 442.339,413.551 442.099,413.551 441.859,413.551 441.619,413.551 
		440.179,413.311 440.179,411.871 439.939,410.671 439.699,409.95 	"/>
	
		<polyline clip-path="url(#SVGID_2_)" fill="none" stroke="#B37C34" stroke-width="0.72" stroke-linecap="round" stroke-linejoin="round" stroke-miterlimit="3.85" points="
		473.779,462.999 474.019,462.759 476.179,462.039 477.619,464.679 476.899,464.919 475.939,464.679 474.979,464.199 
		473.779,462.999 	"/>
	
		<polyline clip-path="url(#SVGID_2_)" fill="none" stroke="#B37C34" stroke-width="0.72" stroke-linecap="round" stroke-linejoin="round" stroke-miterlimit="3.85" points="
		506.659,546.292 508.339,548.452 507.859,548.692 506.179,547.732 505.459,546.532 505.939,546.292 506.659,546.292 	"/>
</g>
</svg>
