<?xml version="1.0" encoding="utf-8"?>
<!-- Generator: Adobe Illustrator 15.1.0, SVG Export Plug-In . SVG Version: 6.00 Build 0)  -->
<!DOCTYPE svg PUBLIC "-//W3C//DTD SVG 1.1//EN" "http://www.w3.org/Graphics/SVG/1.1/DTD/svg11.dtd">
<svg version="1.1" id="State" xmlns="http://www.w3.org/2000/svg" xmlns:xlink="http://www.w3.org/1999/xlink" x="0px" y="0px"
	 width="1296px" height="1296px" viewBox="0 0 1296 1296" enable-background="new 0 0 1296 1296" xml:space="preserve">
<g>
	<defs>
		<rect id="SVGID_1_" x="259.22" y="351.621" width="779.516" height="595.772"/>
	</defs>
	<clipPath id="SVGID_2_">
		<use xlink:href="#SVGID_1_"  overflow="visible"/>
	</clipPath>
	
		<polyline clip-path="url(#SVGID_2_)" fill="none" stroke="#B37C34" stroke-width="0.72" stroke-linecap="round" stroke-linejoin="round" stroke-miterlimit="3.85" points="
		351.859,728.96 353.54,728.239 354.739,727.76 356.659,727.28 357.139,727.28 357.379,727.04 357.62,727.04 357.859,727.04 
		358.34,726.8 359.3,726.56 359.779,726.56 361.22,726.08 361.459,726.08 361.939,725.84 362.179,725.84 362.899,725.6 
		364.82,724.88 365.06,724.88 365.54,724.64 367.22,725.359 367.459,725.6 368.419,725.6 369.379,725.359 369.62,725.359 
		369.859,725.359 371.299,724.88 373.939,724.64 375.379,724.159 376.1,723.439 377.059,721.999 377.299,721.279 377.299,720.799 
		377.539,720.318 377.539,720.078 377.539,719.839 377.779,719.839 377.779,718.878 377.779,718.639 378.02,718.398 378.02,717.678 
		378.739,716.478 378.979,715.758 378.979,715.519 378.979,715.277 379.22,714.318 379.22,711.918 379.22,711.677 379.22,711.437 
		379.22,710.957 379.459,710.718 379.459,710.478 379.7,709.997 379.939,709.518 380.419,708.557 380.419,708.077 380.659,705.196 
		380.899,704.956 380.659,703.276 380.659,702.796 380.899,702.315 381.14,701.836 381.859,701.115 381.859,700.876 
		383.299,699.676 383.299,699.436 383.539,699.436 383.779,699.195 384.5,698.955 384.739,698.955 384.979,698.715 386.179,698.715 
		386.419,698.715 386.659,698.715 387.139,698.715 388.1,699.195 390.259,699.915 390.739,699.915 392.179,699.915 392.419,699.915 
		392.659,699.915 394.1,699.915 394.579,699.676 394.579,699.436 395.539,698.715 396.02,698.235 396.259,697.995 396.5,697.275 
		396.739,696.795 396.979,695.595 396.979,694.395 396.979,693.915 396.739,693.194 396.5,691.515 396.259,690.555 395.299,688.634 
		395.299,687.673 395.299,687.434 395.299,687.193 395.299,686.473 394.819,685.273 394.819,684.553 395.059,684.073 
		395.059,683.833 395.299,682.873 395.539,682.633 395.779,682.152 395.779,681.912 396.02,681.192 396.02,680.952 396.02,680.713 
		396.02,680.473 395.779,679.272 395.539,678.312 395.539,677.592 395.539,676.392 395.299,675.672 394.819,675.191 
		394.579,673.271 394.1,672.552 394.1,672.311 393.859,671.831 393.139,671.352 392.419,670.871 391.939,670.391 391.459,669.671 
		391.459,669.431 391.459,668.951 391.219,668.71 391.219,668.471 391.219,667.99 391.219,667.271 391.939,665.83 392.419,665.35 
		392.659,665.11 392.899,664.87 393.139,664.87 394.339,663.91 395.299,662.71 395.539,662.71 396.02,662.71 396.5,662.47 
		396.979,662.47 398.899,661.75 398.899,661.51 399.139,661.27 399.379,661.27 400.579,659.829 400.819,659.829 401.059,659.59 
		401.059,659.35 401.299,659.35 401.299,659.109 401.539,658.629 401.779,658.148 401.779,657.909 401.779,657.669 402.02,657.189 
		402.02,656.948 402.259,656.229 402.259,655.989 402.259,655.509 402.5,655.028 402.5,654.548 402.5,654.068 402.5,653.828 
		402.259,653.108 402.259,652.628 401.779,651.668 401.779,651.428 402.02,650.228 402.02,649.027 403.219,647.827 403.939,647.107 
		404.659,646.147 405.139,645.427 405.619,644.707 406.1,643.987 406.1,643.747 406.339,643.507 406.579,643.267 406.579,643.027 
		406.579,642.066 406.819,641.346 406.819,641.106 407.539,640.386 408.02,639.666 408.259,639.186 408.739,638.226 
		408.979,637.026 409.219,636.545 409.459,636.545 409.459,636.306 409.939,636.065 410.899,635.585 412.339,634.865 
		412.339,634.625 412.579,634.625 413.539,634.146 414.02,633.665 414.259,633.665 414.5,633.425 414.979,632.945 415.459,631.745 
		415.459,631.505 415.459,631.025 415.699,630.064 415.939,629.825 415.939,629.584 415.939,629.345 416.419,628.625 
		416.659,628.145 417.619,627.904 417.859,627.664 418.099,627.664 418.339,627.664 419.059,627.424 420.5,627.664 420.739,627.904 
		420.979,627.904 421.219,627.904 421.219,628.145 421.699,628.384 421.939,628.864 422.179,629.104 422.419,629.584 
		422.899,630.545 423.139,630.545 423.139,630.785 423.139,631.025 423.379,631.745 423.379,631.985 423.619,632.225 
		423.619,632.705 423.619,633.425 423.619,633.665 423.859,633.905 424.099,633.905 424.579,633.905 425.539,633.905 
		426.019,633.905 426.259,633.665 426.499,633.425 427.699,633.425 427.939,633.665 428.899,633.905 429.379,634.385 
		429.619,634.625 429.859,634.865 430.339,635.826 430.819,636.545 431.779,638.466 432.259,639.666 432.499,640.626 
		432.499,640.866 432.739,641.346 432.979,641.827 433.219,642.066 433.939,643.267 434.179,643.987 434.179,644.707 
		433.939,645.427 433.939,645.667 432.739,646.627 432.499,646.867 432.499,647.107 432.259,647.107 431.539,647.827 
		431.299,648.067 430.819,649.027 430.339,649.268 430.099,650.228 430.099,650.708 430.339,650.948 431.779,652.147 
		432.499,653.108 432.739,653.108 433.939,653.828 434.659,654.068 435.139,654.068 435.139,653.828 437.059,652.868 
		438.259,651.908 439.219,651.428 439.699,650.948 440.659,649.508 441.139,648.067 440.899,647.587 441.139,644.947 
		442.099,643.747 443.059,642.546 443.539,642.307 443.779,642.066 444.259,642.066 444.499,642.066 445.219,642.307 
		446.179,643.027 447.619,644.467 447.859,644.947 448.819,645.667 449.539,645.907 449.779,646.147 450.499,646.147 
		450.979,646.387 451.459,646.387 451.939,646.147 452.179,645.907 452.419,645.427 452.659,645.187 452.899,644.467 
		452.659,643.987 452.179,643.267 451.699,642.787 450.979,642.066 450.499,641.346 450.019,640.626 449.779,640.386 
		449.779,640.146 449.539,639.666 449.539,639.426 449.539,639.186 449.779,638.706 449.779,637.986 449.779,637.746 
		450.499,636.545 450.259,636.306 450.259,635.826 450.499,635.105 450.499,634.865 450.739,634.625 450.739,634.385 
		450.979,633.905 451.699,633.425 451.939,632.945 451.939,632.225 451.939,631.985 452.179,631.025 452.179,630.785 
		451.939,630.785 451.699,630.305 451.699,630.064 450.979,629.104 450.499,628.384 450.259,628.145 449.299,627.184 
		448.339,626.464 447.859,626.224 447.379,625.744 447.139,625.504 447.139,625.264 446.899,624.784 446.659,624.304 
		446.419,624.063 446.179,623.583 446.179,623.344 445.939,622.624 445.939,622.144 445.939,621.903 445.699,620.943 
		445.939,619.983 446.179,619.503 446.419,619.263 446.659,619.263 447.139,619.263 447.379,619.263 447.859,619.503 
		448.819,619.983 449.299,620.223 449.539,620.223 450.019,620.223 450.739,620.223 450.979,620.223 452.179,619.743 
		452.419,619.503 452.899,619.263 453.139,619.263 453.139,619.023 453.859,618.543 454.579,617.583 454.819,617.103 
		455.059,616.382 455.299,615.663 455.299,613.982 455.059,612.302 455.059,611.582 455.059,610.381 455.299,609.662 
		455.299,608.701 454.099,604.861 453.859,604.141 453.859,603.9 453.859,603.661 453.859,603.42 453.859,603.181 454.099,602.94 
		454.339,602.7 454.339,602.46 454.579,602.22 455.779,601.74 456.259,601.02 456.499,600.78 456.979,599.34 456.979,599.1 
		457.459,598.14 457.699,597.66 457.939,597.419 458.179,597.419 458.899,597.18 459.859,596.939 460.579,596.939 461.059,596.699 
		461.299,596.699 461.539,596.459 462.019,596.219 462.259,595.979 462.259,595.739 462.499,595.739 462.499,595.499 
		462.499,595.259 462.499,594.779 462.499,594.539 462.259,594.299 462.259,593.819 462.019,593.579 462.019,593.099 
		461.779,592.619 461.779,592.379 461.779,592.139 461.779,591.418 461.779,590.699 462.019,590.699 462.259,589.979 
		462.499,589.738 462.499,589.499 462.739,589.258 463.699,588.298 464.419,588.058 465.139,587.578 465.379,587.578 
		466.339,587.578 467.299,587.338 468.739,587.578 468.979,587.578 471.619,588.058 472.099,588.058 472.579,587.818 
		472.819,587.818 473.059,587.818 473.299,587.818 473.779,587.818 474.019,587.818 474.499,588.058 474.739,588.058 
		475.219,588.298 475.699,588.778 475.939,589.018 476.179,589.018 476.419,589.018 476.899,589.258 478.339,589.258 
		478.819,588.778 479.059,587.818 479.059,586.618 479.059,585.898 479.059,585.417 479.059,584.938 479.539,582.537 
		479.779,580.857 480.019,578.697 480.019,578.457 480.259,577.497 482.179,575.096 482.899,574.616 483.379,574.376 
		484.339,573.896 484.579,573.896 484.579,573.656 485.059,573.416 485.779,572.936 486.019,572.936 486.739,572.456 
		487.219,571.976 487.459,571.976 487.459,571.735 489.379,570.055 490.099,569.335 490.099,569.095 490.339,568.855 
		491.299,567.415 492.019,567.175 492.019,566.935 493.699,565.975 494.659,565.975 494.899,565.734 496.339,566.215 
		497.059,566.695 497.299,566.695 497.299,566.935 498.259,567.655 499.219,568.615 499.939,569.575 500.179,570.295 
		500.419,571.496 500.659,572.936 501.379,575.096 501.619,575.816 501.859,576.296 502.099,576.536 502.579,577.017 
		502.579,577.256 502.819,577.256 503.059,577.256 503.299,577.497 503.779,577.497 504.499,577.497 504.979,577.497 
		505.219,577.497 505.699,577.256 506.179,577.256 506.419,577.256 507.139,577.017 507.379,577.017 507.379,576.776 
		507.619,576.776 508.099,576.536 509.059,575.816 510.259,574.856 511.219,574.376 513.139,572.936 513.379,572.696 
		513.859,572.456 514.099,572.216 515.059,571.976 515.299,571.735 516.019,571.496 516.259,571.496 516.979,570.775 
		517.699,570.295 518.899,570.295 519.139,570.295 519.379,570.055 520.339,569.815 521.299,569.815 523.699,570.535 
		523.938,570.535 524.419,570.295 524.659,570.295 524.659,570.055 525.139,569.815 525.379,569.335 525.379,568.855 
		525.379,568.615 525.379,567.895 525.379,567.655 525.859,566.935 526.099,566.455 526.819,565.734 526.819,565.495 
		527.299,565.015 528.019,564.294 528.739,563.094 529.219,562.614 529.458,562.374 530.659,561.654 531.139,561.654 
		531.619,561.414 532.339,561.414 532.579,561.174 533.059,561.174 533.299,561.174 533.539,561.174 533.779,561.174 
		534.979,560.934 535.458,560.934 535.458,560.694 535.699,560.694 536.179,560.214 536.179,559.974 536.659,559.494 
		537.139,558.773 538.099,557.333 540.019,553.973 540.019,553.733 540.259,553.253 541.219,552.292 541.219,552.053 
		542.179,551.092 542.659,550.853 543.139,550.132 543.858,549.172 544.818,548.452 545.299,547.972 545.539,547.972 
		545.779,547.492 546.019,547.252 546.259,547.012 546.499,546.771 546.499,546.532 546.739,546.532 547.219,545.812 
		547.458,545.812 548.179,545.091 548.659,544.611 549.139,544.371 549.378,544.371 549.378,544.131 549.619,543.891 
		550.099,543.171 550.579,542.691 551.539,541.731 552.019,541.491 552.499,541.251 552.739,541.011 552.979,540.771 
		553.458,540.531 553.699,540.531 553.938,540.051 554.898,539.09 556.099,538.13 556.099,537.89 556.818,537.41 557.059,536.93 
		559.938,534.77 560.659,534.29 561.378,533.33 561.858,532.85 562.818,532.609 563.778,532.37 564.019,532.37 565.458,532.37 
		566.659,532.609 567.139,532.609 568.818,532.129 569.298,530.929 569.778,529.489 570.019,529.249 570.019,529.009 
		570.019,528.769 570.019,528.529 570.019,528.289 570.258,527.809 570.738,526.849 570.738,525.648 570.738,525.168 
		570.738,523.008 570.738,522.528 570.738,521.568 570.738,521.088 570.979,520.607 571.218,520.127 571.458,519.888 
		571.938,519.647 572.418,519.167 572.659,519.167 573.619,518.927 573.858,518.927 574.099,518.688 574.338,518.688 
		575.059,518.207 575.298,517.967 575.539,517.007 575.539,516.527 575.298,515.807 575.298,515.567 575.059,515.327 
		574.818,514.847 573.619,512.446 572.898,512.207 572.659,511.966 572.418,511.726 570.979,510.046 570.979,509.566 
		570.738,509.326 570.738,509.086 570.499,508.366 570.499,508.125 570.499,507.886 570.738,507.646 570.738,507.406 
		570.979,506.925 571.458,506.206 573.619,504.765 575.059,503.805 576.258,502.365 576.499,502.125 576.499,501.645 
		576.738,500.925 576.738,500.205 576.738,498.284 576.738,498.044 576.738,497.564 576.258,496.364 576.258,496.124 
		576.258,495.164 576.258,494.924 576.499,494.443 576.979,493.963 577.698,493.243 578.178,493.243 579.858,492.523 
		580.579,491.563 581.059,491.083 581.059,490.123 580.818,489.643 580.818,489.403 580.579,488.683 580.579,488.442 
		580.338,488.203 580.338,487.962 579.619,487.002 579.139,486.042 578.658,485.082 578.658,484.602 578.658,483.882 
		578.658,483.642 578.898,483.402 578.898,483.162 578.898,482.922 579.139,482.682 579.378,482.442 579.619,482.442 
		579.858,482.202 580.338,482.202 581.539,482.442 582.019,482.682 583.458,483.642 583.458,483.882 583.698,483.882 
		583.938,483.882 584.178,484.122 584.658,484.122 584.898,484.122 585.139,484.122 585.139,483.882 585.378,483.402 
		585.378,483.162 585.618,483.162 585.618,482.922 585.618,482.682 585.618,482.442 585.378,482.442 585.378,482.202 
		585.378,481.961 584.898,480.761 584.898,479.801 584.418,477.881 584.418,477.641 584.658,477.161 584.658,476.681 
		585.139,475.961 585.378,475.721 585.618,475.48 585.858,475.241 586.099,475.241 586.818,474.521 587.298,474.041 587.778,473.8 
		587.778,473.08 587.778,472.84 587.778,472.36 587.778,472.12 588.019,471.4 587.778,470.92 587.778,470.44 587.778,469.96 
		587.539,469.479 587.539,468.76 587.539,468.52 587.539,468.279 587.539,468.04 587.539,467.799 587.539,467.56 587.778,466.359 
		588.019,465.639 588.019,465.399 588.258,465.159 588.258,464.439 588.258,463.959 588.738,463.479 588.979,462.759 
		588.979,462.519 588.979,461.079 588.979,460.838 588.979,460.598 588.979,460.358 588.979,460.118 588.979,459.878 
		588.979,459.638 588.738,459.398 588.738,459.158 588.738,458.918 588.499,458.678 588.258,458.198 588.258,456.998 
		588.258,456.758 588.258,456.278 588.499,455.558 588.979,454.837 589.218,454.597 589.458,454.357 589.698,454.117 
		590.898,453.157 591.378,452.917 591.858,452.437 591.858,452.197 592.099,451.957 592.099,451.477 592.338,450.517 
		592.338,450.277 592.338,450.037 592.338,449.797 592.099,449.316 591.858,448.116 591.858,447.396 591.858,446.196 
		591.858,445.956 592.099,445.716 592.338,444.996 592.338,444.756 592.338,444.516 592.338,444.276 592.578,443.556 
		592.578,443.076 592.818,442.835 593.298,441.875 593.778,441.155 594.499,439.955 594.979,438.995 595.218,438.755 
		595.458,438.275 595.698,438.035 595.938,437.795 596.898,436.834 597.378,435.634 597.618,434.674 597.858,433.474 
		597.858,432.754 598.098,432.514 598.338,430.594 598.578,430.354 599.539,428.434 599.539,428.193 600.258,427.473 
		600.499,427.233 601.458,426.513 603.378,425.313 603.858,424.833 603.858,424.593 604.338,423.633 604.338,422.433 
		604.338,421.472 604.338,420.992 604.578,420.272 605.058,419.552 605.538,418.352 606.019,417.872 606.258,417.151 
		606.499,416.432 606.499,416.191 606.499,415.471 606.019,414.271 605.778,413.791 605.778,413.551 605.538,413.071 
		605.058,412.111 604.818,411.15 605.058,409.71 605.298,409.23 605.538,408.75 605.538,407.31 605.298,406.59 605.298,406.35 
		604.818,405.87 604.098,405.39 603.138,404.91 602.658,404.91 602.658,404.67 602.178,403.95 602.418,403.229 602.898,402.989 
		603.858,402.75 604.578,402.27 605.058,401.789 605.058,401.069 605.058,399.149 605.058,398.669 605.058,397.949 605.058,397.708 
		605.058,397.469 605.058,396.508 605.298,396.028 606.019,394.588 606.019,394.348 606.258,394.108 606.258,393.628 
		606.979,392.668 607.218,391.708 607.458,390.748 607.458,390.507 607.218,389.788 606.979,388.827 606.979,388.587 
		606.499,388.347 606.499,388.107 605.538,387.387 605.058,386.187 604.578,385.227 604.098,383.546 604.098,383.307 
		604.098,382.826 604.098,382.106 603.858,381.626 603.618,380.426 603.378,379.706 602.898,379.226 602.658,378.985 
		601.938,378.025 601.698,377.545 601.698,377.306 600.258,375.145 599.778,374.665 599.059,373.705 598.338,373.225 
		598.338,372.505 598.338,371.785 598.578,370.825 598.818,370.344 599.059,370.344 599.059,370.104 599.778,369.625 
		600.019,369.384 600.499,369.144 601.218,368.184 601.458,368.184 601.938,366.984 602.178,366.984 602.418,366.504 
		602.658,366.264 602.898,366.024 603.138,365.784 603.618,365.543 603.858,365.543 604.818,365.304 605.058,365.304 
		605.778,365.063 606.499,364.823 606.738,364.823 607.218,364.583 607.938,365.063 608.178,365.063 608.418,365.543 
		608.658,365.784 608.658,366.024 609.138,366.264 609.378,366.504 609.618,366.504 609.858,366.504 610.098,366.504 
		610.338,366.504 610.578,366.264 610.818,366.264 611.058,366.024 611.538,365.543 612.018,365.063 612.258,364.823 
		613.218,364.104 613.698,364.104 613.938,364.104 614.658,363.623 614.898,363.623 614.898,363.383 615.138,363.383 
		615.378,363.383 615.618,363.143 615.858,362.903 616.098,362.903 616.578,362.903 616.818,362.903 617.058,362.903 
		617.298,362.663 617.298,366.264 617.298,370.344 617.298,370.584 617.298,375.865 617.298,377.065 617.058,382.586 
		617.058,382.826 617.058,387.867 617.058,388.827 617.058,389.547 617.058,390.027 617.298,391.708 617.298,391.948 
		617.058,398.429 617.058,401.789 617.058,402.75 617.058,407.79 617.058,408.03 617.058,408.75 616.818,411.15 616.818,411.871 
		616.818,412.111 616.818,414.271 616.818,416.432 616.818,420.032 616.818,422.192 616.818,424.353 616.578,426.273 
		616.578,428.193 616.578,428.434 616.578,436.595 616.578,440.435 616.578,442.596 616.578,445.236 616.338,449.557 
		616.338,451.957 616.338,453.397 616.338,456.278 616.338,456.518 616.338,456.998 616.338,457.958 616.338,462.039 
		616.098,466.599 616.098,475 616.098,475.48 	"/>
	
		<polyline clip-path="url(#SVGID_2_)" fill="none" stroke="#B37C34" stroke-width="0.72" stroke-linecap="round" stroke-linejoin="round" stroke-miterlimit="3.85" points="
		616.098,475.48 616.098,476.201 616.098,476.441 616.098,479.562 616.098,479.801 616.098,487.482 615.858,489.643 
		615.858,490.123 615.858,492.043 615.858,493.724 615.858,494.684 615.858,496.604 615.858,501.645 615.858,504.045 
		615.618,515.807 621.138,516.047 623.058,516.047 623.538,516.047 624.018,516.047 624.258,516.047 628.338,516.047 
		631.218,516.047 638.898,516.047 642.738,516.047 645.618,516.287 647.298,516.287 651.139,516.287 651.378,516.287 
		654.258,516.287 655.698,516.287 655.938,516.287 656.178,516.287 658.578,516.287 660.019,516.287 666.019,516.287 
		672.738,516.287 674.178,516.287 674.658,516.287 675.857,516.287 677.298,516.527 684.019,516.527 684.738,516.527 
		693.378,516.527 694.098,516.527 701.058,516.527 701.298,516.527 701.538,516.527 707.298,516.527 713.058,516.767 
		716.418,516.767 718.577,516.527 720.018,516.527 726.258,516.527 730.818,516.527 732.978,516.527 733.218,516.527 
		734.418,516.527 735.378,516.767 740.897,516.767 744.018,516.767 750.258,516.767 750.258,526.369 750.258,529.489 
		750.018,529.729 750.018,531.889 750.018,537.65 750.018,542.451 750.018,544.131 749.777,548.212 749.298,548.212 
		749.298,549.412 749.298,550.132 749.298,551.092 749.298,551.813 749.298,561.414 749.298,561.654 749.298,567.175 
		749.298,574.856 749.058,578.457 749.058,578.697 749.058,579.657 748.817,583.978 748.817,587.578 748.817,590.458 
		748.817,590.699 748.817,590.938 748.817,592.859 749.058,592.859 748.817,597.66 748.817,602.7 750.258,603.181 751.218,602.46 
		753.377,601.74 755.058,600.78 756.258,599.58 756.978,599.1 756.978,598.14 757.457,597.18 758.178,596.939 758.657,596.939 
		758.897,596.459 760.817,594.059 761.777,592.859 762.738,591.898 763.218,591.659 763.218,591.418 763.698,591.418 
		764.178,591.418 764.658,591.179 765.138,591.179 765.377,591.179 765.617,590.938 766.098,590.699 767.297,589.258 
		767.537,589.018 767.058,588.778 767.297,588.058 768.978,587.098 768.978,586.858 770.897,586.378 771.138,586.378 
		771.138,586.138 771.138,586.378 771.377,586.378 771.617,586.378 772.817,587.098 774.018,587.098 774.257,587.098 
		774.498,586.858 775.218,585.417 775.457,583.737 775.457,583.018 776.418,582.297 777.138,581.817 778.338,581.337 
		778.817,580.857 779.058,580.857 779.058,580.617 779.058,579.897 779.058,579.177 779.058,578.937 779.058,577.977 
		779.297,577.736 779.297,577.497 779.777,577.497 781.217,577.256 781.457,577.256 781.697,576.776 781.938,576.776 
		781.938,576.536 782.178,576.296 783.377,576.296 784.338,576.056 784.338,575.816 785.537,573.896 785.777,573.896 
		786.018,572.936 786.257,572.456 786.498,572.216 786.978,572.216 787.217,572.456 787.457,572.456 788.657,572.216 
		788.897,571.735 788.897,571.496 789.377,571.496 789.617,571.496 789.857,571.496 790.338,571.255 790.577,570.775 
		790.338,570.055 790.577,569.335 790.817,568.615 791.058,568.135 791.297,568.135 791.537,568.135 792.018,568.135 
		792.257,568.855 792.498,568.855 792.737,568.855 792.978,568.855 793.217,568.855 793.457,568.375 793.457,567.895 
		793.697,567.415 794.177,567.175 794.657,567.175 794.897,567.175 795.137,566.935 795.137,566.215 795.137,565.734 
		795.137,565.495 795.137,565.254 795.857,564.535 796.098,564.774 796.338,564.774 796.338,564.535 796.577,564.535 
		796.817,564.294 796.817,563.814 796.817,563.334 797.058,562.854 798.018,562.614 798.498,562.134 798.498,561.894 
		799.457,559.734 799.457,559.253 799.217,558.773 798.978,558.534 798.978,558.293 799.217,558.053 799.457,558.053 
		799.697,558.053 799.938,558.053 801.137,558.293 803.058,557.813 804.257,558.053 804.257,558.293 804.498,558.293 
		804.737,558.053 804.737,557.333 804.737,557.093 804.978,557.093 804.978,556.854 804.978,556.373 805.217,556.373 
		805.217,556.133 805.938,556.133 806.897,557.093 807.137,557.333 807.137,557.573 807.377,557.813 807.137,558.293 
		807.377,558.773 807.617,558.773 807.857,559.253 808.338,559.253 809.058,559.014 809.297,559.014 809.537,559.014 
		810.498,559.734 810.498,559.974 811.217,560.454 811.938,560.694 812.177,560.934 812.657,561.174 813.137,561.414 
		813.617,561.414 814.577,561.894 815.297,562.614 815.777,562.854 816.018,563.334 816.257,563.574 816.497,563.574 
		817.217,563.334 817.457,563.334 817.697,563.094 817.938,559.494 818.897,559.014 819.377,558.293 819.857,557.573 
		819.377,557.333 819.377,556.854 819.377,556.613 819.857,556.133 820.338,555.653 820.577,555.653 821.057,555.653 
		821.297,555.413 821.297,555.653 822.497,555.653 822.737,555.653 823.697,553.973 825.377,551.333 825.377,551.092 
		825.857,550.372 825.857,550.132 826.577,549.652 827.297,549.652 827.537,549.652 827.777,549.652 828.018,549.412 
		828.737,547.972 829.217,547.252 830.897,544.611 831.137,544.371 831.137,544.131 831.137,543.651 831.137,543.411 
		831.137,543.171 831.617,542.931 831.617,542.691 832.338,542.451 832.338,542.211 832.577,542.211 832.577,541.971 
		833.777,542.451 834.257,542.691 834.978,543.171 835.457,542.931 835.938,541.971 835.697,541.251 834.978,540.531 
		834.737,540.531 834.257,540.291 834.257,539.571 834.257,539.331 834.257,538.371 834.497,538.13 835.217,538.13 835.938,536.93 
		835.938,536.45 836.417,535.25 836.657,535.25 837.377,535.49 837.617,535.73 837.857,535.73 838.098,535.49 838.098,535.25 
		838.098,535.01 838.098,534.77 838.098,534.05 837.857,533.57 837.617,533.089 837.377,531.889 837.377,531.649 838.098,530.449 
		838.098,530.209 838.338,530.209 838.817,530.209 839.537,530.449 839.777,530.449 840.018,530.449 840.257,529.729 
		840.497,529.489 840.737,528.769 840.978,528.769 841.217,528.529 841.697,528.529 841.938,528.289 841.938,528.529 
		841.938,528.769 841.938,529.249 841.938,529.489 841.697,529.969 841.457,529.969 841.217,529.969 840.978,530.449 
		840.497,531.649 840.497,531.889 840.257,532.37 840.257,532.609 840.497,532.85 840.978,533.089 841.457,533.33 841.938,533.33 
		842.417,533.33 843.137,532.609 843.617,532.37 844.098,532.129 844.338,532.129 845.057,532.37 845.297,532.609 845.777,532.85 
		846.018,533.57 846.257,533.81 846.257,534.05 846.018,534.29 845.537,534.77 845.057,535.01 844.817,535.25 844.338,535.49 
		844.098,535.49 844.098,535.01 843.857,535.01 843.857,534.77 843.377,534.77 842.657,534.77 841.697,535.01 840.737,535.73 
		840.497,535.73 840.497,535.97 840.497,536.21 840.737,536.69 840.978,536.93 841.217,537.17 841.457,537.41 841.697,537.89 
		841.697,538.371 841.938,538.61 842.657,539.571 843.137,539.811 843.377,539.811 844.577,539.811 845.057,539.811 
		845.297,538.851 845.537,538.851 846.257,538.61 846.257,539.09 846.497,540.531 846.978,541.731 847.217,541.971 847.457,542.451 
		847.697,542.451 848.657,542.691 848.897,542.691 849.377,543.651 849.617,543.891 850.098,543.891 850.577,544.131 
		850.817,544.131 851.297,544.131 851.297,544.371 851.537,544.371 851.537,544.611 851.777,545.091 852.018,545.571 
		852.978,545.812 853.697,546.292 854.657,546.292 855.377,547.012 856.098,547.252 856.337,547.252 859.457,546.771 
		859.938,546.771 859.938,546.532 860.657,546.532 861.617,546.771 861.856,546.771 862.337,547.012 862.577,547.252 
		862.816,547.252 863.297,547.492 863.537,547.492 863.777,547.252 864.018,547.012 864.257,547.012 864.497,547.252 
		864.497,547.732 864.737,547.972 864.978,548.212 865.217,548.212 866.177,548.452 867.137,549.172 867.617,549.652 
		868.098,549.652 869.057,549.412 869.777,549.412 870.018,549.412 870.497,549.412 871.938,548.932 872.897,548.932 
		872.897,548.692 873.377,548.692 873.617,548.692 873.856,548.692 874.816,549.172 876.018,549.652 876.736,549.652 
		877.938,549.892 878.417,549.652 878.657,549.652 879.137,549.652 879.856,550.132 880.337,550.132 880.577,550.132 
		881.297,549.412 881.537,548.452 881.537,548.212 881.537,547.972 881.537,547.252 881.537,547.012 881.777,546.771 
		882.497,546.771 882.736,546.771 882.978,546.532 882.978,546.292 882.978,546.052 882.978,545.812 883.217,545.571 
		883.457,545.571 883.938,545.812 884.177,546.052 884.417,546.292 884.657,546.292 884.657,546.052 884.897,545.812 
		884.897,545.332 884.897,544.852 885.137,544.611 885.377,544.611 885.856,545.091 886.337,545.091 886.577,544.852 
		886.816,544.852 887.057,544.611 886.816,544.371 886.816,544.131 886.577,543.651 886.337,543.411 886.337,543.171 
		885.856,542.931 884.417,542.211 882.978,541.011 882.257,540.291 881.777,539.331 881.777,538.61 882.018,538.13 882.257,537.89 
		882.736,537.65 882.978,537.65 883.457,537.65 883.697,537.65 885.617,538.371 886.337,538.61 886.816,539.09 887.297,539.331 
		888.257,539.571 889.217,539.331 889.697,539.09 889.938,538.61 889.938,538.13 889.938,537.89 889.697,537.65 888.978,537.17 
		887.777,536.45 887.537,536.21 886.577,535.49 885.856,534.77 885.137,533.57 884.897,533.33 884.897,533.089 884.897,532.85 
		884.897,532.609 885.377,532.129 885.856,531.889 886.577,532.129 887.537,532.609 889.697,533.33 890.417,534.05 891.377,534.53 
		892.098,534.53 892.577,534.53 892.816,534.29 892.816,534.05 892.816,533.81 891.856,532.85 891.377,532.37 891.377,532.129 
		891.377,531.889 891.377,531.409 891.617,531.169 891.856,531.169 892.816,530.929 893.297,531.169 893.537,531.409 
		894.018,531.649 894.736,531.649 894.978,531.649 895.217,531.409 895.217,531.169 895.217,530.689 894.978,530.449 
		894.497,529.969 894.497,529.489 894.497,529.249 894.978,529.249 895.457,529.249 897.137,529.729 897.856,529.729 
		898.097,529.969 899.297,530.209 900.497,530.689 901.217,530.929 902.177,531.409 902.656,531.649 903.137,531.889 
		904.337,532.37 906.018,532.609 906.497,532.609 906.736,532.609 906.978,532.129 906.978,531.409 906.978,530.689 
		908.177,529.009 908.897,528.289 909.617,527.569 909.856,527.329 910.097,527.089 911.537,526.128 911.777,525.889 
		912.017,525.408 912.017,525.168 911.777,525.168 911.297,524.688 910.816,523.968 910.576,523.488 910.816,523.488 
		910.816,523.248 911.057,523.248 911.537,523.008 914.177,523.008 914.656,522.768 914.897,522.768 915.377,522.048 
		915.856,520.848 916.097,520.607 916.576,520.127 917.057,519.647 917.297,519.647 918.017,519.647 918.497,519.647 
		918.736,519.647 919.697,519.888 919.938,520.127 920.417,520.368 920.656,520.368 920.897,520.368 922.097,520.368 
		923.297,520.848 923.536,521.088 924.736,521.328 926.417,521.808 926.897,521.808 927.617,522.048 927.856,522.048 
		927.856,522.288 928.337,522.288 929.297,523.488 929.777,523.488 930.257,523.488 930.736,523.968 931.217,524.208 
		931.937,525.168 934.097,527.089 934.097,527.329 934.337,527.809 934.576,527.809 934.576,528.049 934.816,528.049 
		935.057,528.289 935.777,529.009 936.257,529.489 936.977,530.689 937.697,531.649 937.937,531.649 937.937,532.129 
		939.617,534.53 939.617,534.77 940.097,535.01 940.576,535.25 942.017,535.25 942.977,535.25 943.937,535.25 944.416,535.01 
		944.896,534.29 945.377,534.05 946.097,534.05 946.337,534.05 946.576,534.29 946.816,534.77 947.057,535.25 947.057,535.49 
		947.057,535.73 947.536,535.73 947.777,535.97 948.017,535.97 948.257,535.73 948.496,535.73 948.977,534.77 948.977,534.29 
		948.977,533.33 948.736,532.85 948.736,532.609 948.736,532.37 949.217,532.37 949.456,532.37 950.177,532.85 950.416,533.81 
		950.896,534.29 951.617,534.53 951.856,534.53 952.816,534.77 954.496,535.25 955.217,535.49 955.456,535.49 955.697,535.49 
		955.937,535.25 956.177,535.25 956.177,535.01 956.416,534.53 956.416,534.05 956.177,533.57 955.456,532.85 955.456,532.609 
		955.697,532.37 957.137,532.609 957.856,533.089 958.097,533.089 958.337,533.33 958.576,533.33 959.057,533.57 959.297,533.57 
		959.536,533.57 959.776,533.81 960.017,533.81 960.257,533.81 960.736,533.81 961.217,533.81 961.937,533.81 962.416,534.29 
		962.416,534.53 962.656,534.77 962.896,536.45 962.896,536.93 962.896,537.41 962.896,538.13 962.656,539.09 962.656,539.811 
		962.416,540.051 962.177,540.531 961.456,540.771 959.776,540.771 958.576,541.011 958.337,541.011 957.617,541.011 
		956.896,541.011 956.656,541.251 956.416,541.251 956.177,541.491 955.937,541.731 955.697,541.731 955.456,541.971 
		955.456,542.211 955.456,542.451 955.697,542.931 955.937,543.171 957.856,544.371 958.576,545.091 958.576,545.332 
		958.576,545.571 958.816,545.812 958.576,546.771 958.576,547.012 958.576,547.252 958.576,547.492 958.576,547.732 
		958.576,548.212 958.576,548.452 958.576,548.692 958.816,548.932 958.816,549.172 959.297,549.172 960.496,549.172 
		960.496,548.932 961.697,548.452 961.937,548.212 961.697,546.771 961.937,546.292 962.177,546.292 962.656,546.052 
		963.377,546.532 963.617,546.532 963.856,546.771 964.097,547.252 964.097,547.492 963.856,548.692 963.377,549.172 
		961.217,550.612 960.977,551.092 960.977,551.333 960.977,551.572 961.217,551.813 963.137,552.533 963.856,552.533 
		964.336,552.533 964.576,552.533 965.536,553.013 966.017,553.013 966.257,553.253 966.496,553.253 966.736,553.253 
		966.977,553.253 967.217,553.253 967.456,553.253 967.697,553.253 967.937,553.013 968.177,553.013 968.416,552.772 
		968.896,552.053 969.137,551.813 969.377,551.813 969.377,551.572 969.617,551.572 970.336,551.572 970.576,551.572 
		970.816,551.572 971.057,551.572 971.057,551.813 971.297,551.813 971.536,552.053 971.536,552.292 971.536,552.533 
		971.536,552.772 971.297,553.013 971.057,553.013 970.816,553.253 970.576,553.253 969.617,553.733 969.137,553.733 
		968.896,553.973 968.656,553.973 967.697,554.453 967.697,554.693 967.456,554.933 967.456,555.653 967.697,556.133 
		967.697,556.373 968.656,556.854 970.097,557.573 970.097,557.813 969.856,558.053 969.377,558.053 968.177,557.813 
		967.697,557.813 967.456,558.053 967.456,558.534 967.456,558.773 968.177,559.494 969.137,560.214 969.137,560.694 
		968.896,560.934 967.217,561.414 966.977,561.654 966.977,562.134 967.217,562.374 967.456,562.614 967.697,562.614 
		967.937,562.854 968.177,562.854 968.416,563.094 969.137,563.334 970.576,563.574 972.017,563.334 972.257,563.334 
		972.736,563.574 973.217,564.054 973.456,564.294 973.456,564.774 974.177,566.215 974.896,567.415 975.137,567.655 
		975.137,567.895 975.377,567.895 975.617,568.855 975.617,569.335 975.856,569.335 975.856,569.575 975.856,569.815 
		975.856,570.055 975.617,570.295 975.377,570.295 975.377,570.535 975.137,570.535 974.177,570.775 973.937,570.775 
		973.697,570.775 973.456,571.016 973.456,571.255 973.456,571.496 973.697,571.735 974.896,573.896 974.896,574.136 
		974.896,574.856 974.656,575.816 973.937,576.536 972.977,577.256 972.736,577.497 972.736,577.736 972.736,577.977 
		972.736,578.217 972.977,578.697 973.217,578.937 973.456,579.177 973.697,579.177 973.937,579.417 974.416,579.657 
		974.656,579.657 976.097,580.137 976.576,580.617 976.816,580.857 977.057,581.097 978.256,581.097 978.017,581.337 
		977.776,581.577 976.816,582.057 976.097,582.777 974.656,585.658 974.177,586.618 973.937,587.578 973.937,588.058 
		973.937,588.538 973.697,589.018 973.217,589.979 973.217,590.218 972.977,590.938 972.736,591.418 972.736,591.659 
		972.257,591.898 972.017,591.898 972.017,592.139 971.776,592.139 971.776,592.379 971.776,593.339 972.257,593.339 
		971.776,595.499 970.816,596.699 970.336,597.18 970.097,597.66 969.617,599.1 968.896,599.82 968.896,600.06 968.896,600.54 
		968.656,600.54 968.416,601.5 968.177,601.74 968.416,602.7 967.456,605.101 967.697,605.341 967.456,606.061 967.456,606.301 
		966.977,606.781 966.736,607.021 966.496,607.501 965.776,609.181 965.536,609.662 965.297,610.381 965.297,610.862 
		965.297,611.342 965.297,611.822 964.576,613.022 960.496,609.662 960.257,609.662 952.576,603.42 950.177,601.5 943.217,595.739 
		941.057,594.059 937.697,591.418 931.457,586.618 931.217,586.378 927.617,583.498 924.017,580.617 924.017,580.377 
		923.536,580.137 922.576,579.417 921.137,578.457 919.457,577.017 917.297,575.096 914.897,573.176 912.017,570.535 
		907.457,566.695 906.018,565.734 904.097,564.535 901.697,562.374 896.417,558.293 896.177,559.014 896.656,559.494 
		896.656,560.454 896.417,560.934 896.417,561.414 896.656,561.654 896.656,562.134 896.417,562.614 895.697,563.094 
		896.417,564.294 896.656,564.774 896.417,565.254 895.938,565.975 895.217,566.695 894.978,567.175 894.978,567.895 
		895.217,568.615 896.177,569.815 896.177,570.535 897.137,571.255 895.697,574.136 894.736,575.576 894.018,576.056 
		894.736,576.536 895.457,576.536 896.417,577.017 897.617,577.017 897.617,577.736 897.617,577.977 897.377,578.457 
		897.377,578.217 897.137,578.217 896.656,578.697 896.656,578.937 896.897,579.177 896.897,579.417 895.217,582.777 
		894.978,583.018 894.497,583.257 894.257,584.458 893.537,584.698 893.297,585.178 891.856,586.858 891.617,587.098 
		891.617,587.578 891.377,588.058 891.137,588.538 890.897,588.778 890.897,589.018 890.657,589.018 890.177,589.258 
		889.697,589.979 889.697,590.218 888.257,592.139 888.018,592.379 887.537,593.339 887.537,593.579 888.018,593.579 
		888.736,594.059 	"/>
	
		<polyline clip-path="url(#SVGID_2_)" fill="none" stroke="#B37C34" stroke-width="0.72" stroke-linecap="round" stroke-linejoin="round" stroke-miterlimit="3.85" points="
		888.736,594.059 889.938,595.499 890.177,595.499 889.457,595.979 889.457,596.459 889.217,597.66 887.777,600.06 887.057,600.78 
		886.577,601.5 886.337,601.74 886.098,601.98 885.856,602.22 885.377,602.94 885.137,603.181 885.377,603.42 886.098,603.42 
		886.816,603.9 887.057,604.141 886.337,605.101 886.816,605.821 888.497,607.501 889.217,607.741 889.697,608.221 888.978,608.941 
		888.497,609.421 888.497,609.901 886.577,610.862 885.377,612.542 885.377,613.742 885.137,614.222 882.497,617.343 
		881.537,617.583 881.297,617.823 881.057,618.063 880.816,618.303 880.577,618.303 880.337,618.063 880.098,618.063 
		879.377,618.543 877.938,619.503 877.938,619.983 876.736,621.183 876.257,621.663 875.777,622.144 875.297,622.863 
		875.297,623.104 875.057,623.583 874.337,624.544 873.856,625.024 873.137,625.264 872.177,626.224 871.697,626.944 
		871.457,627.184 871.217,627.424 870.257,628.384 870.018,629.104 869.537,629.584 868.098,631.265 868.816,632.225 
		869.057,632.225 869.297,631.985 869.777,632.465 870.018,632.945 870.978,633.425 870.737,633.665 870.257,633.905 
		869.777,634.625 869.537,635.105 868.337,636.306 868.098,636.545 866.897,637.986 866.897,638.466 866.657,638.946 
		865.938,640.146 865.457,641.346 864.978,641.586 864.737,641.586 864.257,642.066 864.257,642.546 863.297,641.586 
		863.057,640.626 862.577,640.626 862.098,640.866 861.856,640.386 861.856,639.666 861.856,639.426 861.137,639.426 
		860.897,639.666 860.657,639.666 860.417,639.906 860.177,640.386 860.177,640.866 859.457,642.066 858.497,641.827 
		857.777,643.267 857.297,644.227 856.817,645.427 856.337,645.667 855.856,646.387 855.856,646.867 855.377,647.587 
		854.417,648.788 854.177,649.027 853.938,649.027 853.217,649.268 852.978,649.268 852.978,649.508 852.737,649.748 
		851.777,650.708 851.057,650.948 849.857,651.908 849.857,652.147 849.617,652.389 849.377,652.628 849.137,652.628 
		848.897,652.389 848.897,652.147 848.897,651.668 848.897,649.988 848.897,649.748 848.897,649.508 848.897,649.027 
		849.377,647.347 849.137,647.587 848.657,648.067 848.417,648.308 848.177,648.308 846.497,648.788 845.057,650.708 
		844.338,652.147 844.338,652.389 844.098,652.868 843.857,653.348 842.177,654.548 841.217,654.789 840.257,655.509 
		840.018,655.989 839.777,656.709 839.537,657.189 839.057,657.669 837.857,660.31 837.617,660.549 837.617,660.79 837.377,660.79 
		837.137,661.989 836.657,663.189 835.938,665.11 834.978,666.551 834.497,667.751 834.018,668.23 832.338,671.11 830.417,674.952 
		830.177,675.672 829.697,676.392 826.098,673.271 813.617,662.229 813.137,661.989 812.657,662.47 812.418,662.71 812.657,663.43 
		812.657,663.67 812.177,664.15 811.697,665.35 811.697,666.07 811.697,666.311 811.457,666.551 810.978,667.03 810.257,667.03 
		810.018,667.271 809.297,668.951 809.297,669.671 809.537,669.91 809.537,670.631 809.058,671.591 808.577,671.831 
		808.098,671.831 806.418,671.831 806.177,672.071 805.217,672.791 805.217,673.271 805.457,673.752 805.697,673.991 
		805.938,674.711 805.697,674.952 805.457,674.952 805.217,675.191 805.217,675.912 804.978,676.872 804.978,677.111 
		804.498,677.592 804.018,678.072 803.058,679.272 803.058,679.512 803.058,679.752 802.817,679.992 802.577,680.473 
		802.098,681.433 801.857,682.152 801.377,683.113 801.137,683.833 801.137,684.553 800.418,686.714 800.418,687.193 
		800.657,688.394 801.137,688.873 801.377,689.114 801.617,689.354 801.137,691.515 800.657,692.234 800.418,693.194 
		800.418,693.435 800.418,693.674 800.418,693.915 798.737,694.395 798.018,693.915 796.817,693.915 796.577,693.915 
		795.617,694.635 795.377,694.875 795.377,695.354 795.137,696.074 794.897,696.555 794.657,696.795 794.657,697.035 
		794.657,697.515 794.418,697.755 793.938,698.235 793.457,699.676 792.737,700.396 792.257,702.076 792.257,702.315 
		792.498,702.796 791.777,703.756 791.777,704.717 792.018,704.956 791.777,705.196 791.297,706.637 790.817,707.356 
		790.577,707.356 790.577,707.597 790.338,708.317 790.098,708.557 790.338,709.037 790.338,709.277 789.857,709.518 
		789.617,709.757 788.897,710.478 788.657,711.918 787.938,712.637 787.457,713.598 786.978,714.558 786.257,715.998 
		785.777,716.478 785.058,719.358 785.537,720.078 785.537,720.559 785.297,721.279 785.297,721.519 785.058,721.759 
		784.577,722.479 784.098,722.719 783.617,723.199 783.857,723.68 783.857,723.919 783.377,724.399 783.138,724.64 782.418,724.88 
		781.938,725.119 781.217,725.6 780.978,726.56 780.978,727.76 780.978,728.239 780.257,728.48 779.537,728 779.297,728 
		778.577,729.2 778.338,729.92 777.857,730.4 777.617,730.881 777.138,731.12 776.658,731.36 775.697,732.081 775.697,732.561 
		775.938,732.801 775.938,733.04 776.178,733.281 775.938,734.001 775.697,734.24 775.218,734.24 775.218,734.001 774.978,733.761 
		774.737,734.001 774.498,734.001 774.018,734.24 773.777,734.721 773.297,734.961 771.857,735.44 764.178,732.801 750.258,727.76 
		749.058,725.119 747.377,721.279 747.138,721.039 745.698,717.919 744.978,716.478 744.258,715.038 743.058,713.598 
		742.818,713.118 742.818,712.877 742.338,712.157 742.098,712.157 742.098,711.918 741.617,711.677 739.938,710.718 
		738.498,710.236 737.777,710.236 727.698,705.437 726.738,707.837 726.498,708.557 726.258,708.557 726.018,709.518 
		726.258,710.236 725.777,710.478 725.537,710.478 724.818,712.397 724.818,713.357 725.298,714.318 725.058,715.038 
		724.338,715.758 724.577,715.998 724.818,716.238 725.298,716.478 725.777,717.438 725.777,718.158 725.777,718.398 
		725.298,718.398 725.058,718.398 725.058,718.639 724.818,718.878 724.818,719.358 724.338,719.119 724.338,718.878 
		723.378,718.878 723.378,719.358 723.378,719.839 723.138,720.318 722.418,721.279 721.938,721.279 721.698,721.519 
		721.218,722.719 721.218,723.199 721.458,723.68 721.698,723.919 721.698,724.159 721.458,724.399 720.978,724.88 720.978,725.6 
		721.458,725.84 721.698,726.319 721.938,726.8 722.418,727.52 722.418,727.76 722.418,728.96 722.418,729.2 721.938,729.681 
		722.178,730.16 721.938,730.64 721.938,731.36 721.938,731.601 722.178,731.84 722.178,732.081 720.018,734.721 719.537,735.44 
		719.777,735.682 719.058,736.401 719.058,736.641 718.577,737.121 718.338,737.842 718.098,738.081 717.857,739.041 
		717.378,739.521 716.897,740.481 716.897,740.722 716.897,741.202 716.657,741.682 716.657,741.922 716.897,741.922 
		717.138,742.162 717.378,742.162 717.378,743.122 717.378,743.362 717.378,743.603 717.138,743.603 716.897,743.843 
		716.657,744.082 716.178,744.563 715.458,745.043 714.979,745.043 713.537,744.563 713.298,744.322 712.338,744.563 
		711.857,745.043 712.098,745.522 711.617,746.963 711.617,747.202 711.138,748.163 710.418,748.644 709.458,748.883 
		708.258,750.083 708.018,750.083 707.777,750.803 707.777,751.283 707.058,751.764 706.577,752.483 706.338,752.964 
		706.338,753.203 706.577,753.684 707.058,754.164 707.298,754.644 707.298,755.124 707.298,755.364 707.538,755.364 
		708.018,755.364 708.258,755.604 708.979,757.284 709.218,758.484 708.979,759.205 708.979,759.444 708.018,759.685 
		707.777,759.685 707.538,760.405 706.818,760.885 706.098,760.645 705.857,761.125 705.617,761.605 705.617,761.845 
		705.617,762.085 705.378,762.564 705.138,762.564 704.897,762.564 704.178,762.325 703.458,762.325 703.218,762.806 
		703.218,763.285 703.218,763.525 702.979,763.765 702.738,763.765 702.019,763.765 701.538,763.765 701.538,764.006 
		701.058,765.206 700.098,765.445 699.138,766.646 697.218,768.807 696.498,769.286 696.258,769.286 696.019,769.526 
		695.538,770.006 695.538,770.247 695.298,770.247 695.298,770.727 694.578,771.927 693.617,772.406 692.897,772.647 
		692.418,772.647 692.178,772.887 692.178,773.367 691.698,773.847 691.698,774.087 692.178,774.327 692.178,774.807 
		691.938,775.287 691.938,775.527 691.938,776.007 692.178,776.007 692.418,776.007 691.938,778.168 691.218,778.888 
		690.979,778.888 690.498,779.848 690.498,780.809 689.777,781.528 688.818,781.528 688.338,782.008 688.578,782.729 
		688.818,783.448 688.818,783.688 689.298,785.369 689.298,785.609 689.777,785.849 690.498,785.849 690.738,786.089 
		690.738,786.568 690.258,787.049 689.777,787.529 689.777,787.769 689.777,788.01 689.298,788.249 688.818,788.729 687.857,789.93 
		687.138,790.41 687.138,790.649 686.418,792.569 686.418,793.53 685.218,796.17 684.979,796.65 684.498,797.371 684.498,797.61 
		684.738,798.091 684.498,798.57 684.258,799.051 684.019,799.051 684.019,799.291 683.538,799.531 683.058,800.972 
		682.818,800.972 683.058,801.211 682.818,801.691 682.338,801.932 681.618,802.651 681.618,803.131 681.618,803.611 
		681.618,803.852 681.139,804.812 680.658,805.292 679.938,805.531 679.458,806.012 679.218,806.012 679.458,806.492 
		679.218,806.731 677.777,807.932 676.098,809.373 674.658,811.053 674.178,811.293 673.698,811.772 673.458,812.013 
		673.218,812.253 672.498,812.732 672.258,812.732 671.058,813.693 671.058,814.173 670.338,814.653 669.378,815.854 
		668.178,817.534 667.218,817.534 666.738,818.254 665.538,819.693 665.298,819.935 665.058,820.414 665.298,820.654 
		665.298,821.135 665.058,821.135 664.578,820.894 663.857,821.614 663.618,821.854 663.618,822.094 663.378,822.335 
		662.178,823.535 661.458,823.294 661.458,823.055 661.219,822.814 660.738,823.294 660.498,823.775 659.538,824.735 
		658.578,826.175 658.098,826.895 658.098,827.375 657.618,828.095 657.378,828.335 656.897,828.575 656.658,828.815 
		656.658,829.535 657.139,830.735 656.897,830.976 656.178,830.976 655.698,831.456 654.979,831.936 654.738,832.416 
		654.498,832.656 654.258,832.896 654.019,833.136 653.538,834.097 653.538,834.576 652.818,835.057 652.098,835.536 
		652.098,835.776 651.857,835.536 650.658,837.457 650.418,838.177 650.418,838.657 650.658,838.657 651.139,839.377 
		651.618,840.098 651.857,840.098 652.098,840.338 652.098,841.057 652.098,841.298 651.857,841.057 651.378,840.817 
		650.658,840.817 650.178,840.817 649.938,841.298 648.738,842.257 648.018,842.498 647.538,843.457 647.538,843.698 
		647.778,844.418 647.298,844.657 647.058,844.657 646.818,844.418 646.578,844.657 645.858,847.539 646.338,848.258 
		647.298,848.979 647.298,849.459 647.298,849.698 646.578,850.419 645.618,850.898 644.658,852.099 644.178,852.579 
		642.738,854.499 641.778,854.979 641.298,855.22 642.018,856.66 643.698,860.98 644.898,862.421 645.138,862.901 645.618,863.141 
		646.818,863.621 648.738,864.341 648.978,864.341 651.139,866.021 651.378,866.021 650.897,866.741 650.658,867.222 
		648.738,869.622 647.538,870.342 646.338,871.302 645.618,871.782 645.138,872.022 644.658,872.022 644.178,872.262 
		643.938,872.502 642.978,872.982 641.298,874.183 639.138,875.383 636.978,876.583 639.138,879.464 638.658,879.943 
		637.938,880.423 637.458,880.423 636.978,880.664 636.738,881.144 639.378,882.823 641.778,881.144 642.978,881.623 
		642.978,881.864 640.578,885.944 639.378,886.665 639.378,886.904 638.658,887.145 637.938,887.385 636.978,888.104 
		636.258,888.345 634.818,888.585 631.698,889.785 632.178,890.505 631.218,891.226 630.978,891.465 630.258,891.945 
		629.538,892.186 627.138,893.386 626.898,893.865 623.778,895.546 621.378,897.466 620.418,898.186 619.458,898.427 
		618.498,899.386 617.058,899.867 614.658,897.946 614.178,896.266 614.418,896.026 614.898,894.105 612.498,890.025 
		612.258,890.505 612.018,890.505 610.818,890.985 610.098,890.745 609.618,890.745 609.378,890.985 608.658,891.226 
		607.938,891.226 606.979,891.465 605.778,891.945 605.058,892.426 602.418,894.105 601.938,894.826 601.698,895.065 
		600.499,895.785 598.338,896.985 597.618,897.466 597.618,897.946 597.138,897.946 596.178,898.186 595.938,898.427 
		595.458,898.666 595.698,898.906 594.499,899.867 593.298,900.347 593.059,900.586 591.858,901.067 589.218,902.747 
		588.258,903.228 587.059,903.947 586.818,903.947 586.338,904.427 585.858,904.667 585.618,904.667 585.378,904.907 
		585.139,904.907 584.658,905.147 584.418,905.147 584.178,905.387 583.938,905.387 582.979,905.867 582.019,906.348 
		581.059,906.588 580.579,906.588 579.139,907.548 577.698,908.027 576.979,906.107 576.979,905.867 576.258,905.147 
		576.019,904.907 576.019,904.427 576.019,904.187 575.298,903.947 575.059,903.947 574.579,903.947 573.858,903.947 
		573.619,903.947 573.378,903.707 572.898,903.467 572.898,903.228 572.898,902.986 572.898,902.507 572.659,902.268 
		572.179,902.027 571.218,901.067 569.778,899.627 569.059,899.146 568.818,898.906 568.338,898.906 567.858,899.146 
		567.619,899.146 567.139,898.906 566.898,898.666 566.179,898.666 566.179,898.427 565.938,898.427 565.938,898.186 
		565.458,898.906 565.219,899.867 565.219,900.347 565.219,900.827 565.458,901.067 565.458,901.307 562.579,905.867 
		563.539,907.067 564.499,908.268 564.499,908.508 564.738,908.748 566.179,910.908 567.139,912.108 564.979,913.068 
		564.499,913.309 563.059,914.989 560.179,917.148 557.778,918.59 556.579,919.069 556.099,919.31 555.139,919.549 553.699,920.27 
		551.299,920.989 550.338,920.989 549.378,920.749 549.139,920.27 549.619,919.549 549.619,919.31 547.458,919.549 546.739,919.79 
		545.779,920.27 543.858,920.51 541.938,920.989 539.779,921.47 539.059,921.47 535.699,921.949 534.259,922.189 531.859,922.91 
		530.179,923.39 527.779,924.351 525.619,925.07 525.379,925.07 524.419,925.311 524.179,925.551 523.219,926.031 522.979,926.271 
		522.739,926.271 522.019,926.751 521.539,926.99 519.379,928.432 519.379,928.671 517.459,929.391 516.499,929.871 
		515.539,928.911 514.339,927.951 513.859,927.471 512.419,926.271 512.179,926.031 511.219,925.311 510.019,924.11 
		509.059,923.149 508.819,922.91 508.579,922.91 507.859,922.189 504.739,919.31 504.499,919.069 504.019,918.83 502.099,916.669 
		502.099,916.43 498.739,912.349 498.019,912.589 498.019,912.828 497.779,913.309 497.779,913.549 497.779,913.789 
		497.779,914.028 497.299,914.509 497.299,915.229 497.059,915.469 496.579,915.469 496.099,915.709 495.619,915.469 
		495.379,915.229 495.139,915.229 494.179,915.709 493.699,916.669 493.699,917.148 493.939,917.39 493.939,917.869 
		493.699,918.109 493.219,918.349 492.739,918.83 492.979,919.069 492.259,920.749 492.019,920.989 492.019,921.23 491.779,921.71 
		491.059,922.91 489.619,923.39 488.899,922.91 486.979,923.39 486.739,923.39 486.019,923.87 485.539,923.87 485.299,924.11 
		485.299,924.351 485.299,924.59 485.059,925.07 484.579,925.311 483.859,925.551 483.139,925.79 482.659,926.511 482.179,926.511 
		480.979,926.511 480.499,926.271 480.259,925.79 480.259,925.551 480.259,925.311 480.019,925.311 480.019,925.551 
		479.539,926.031 479.539,926.271 479.299,926.511 479.299,926.99 479.059,927.471 479.059,928.432 478.819,929.391 
		478.579,929.391 477.139,930.352 476.179,930.591 475.459,930.831 473.779,931.312 473.779,931.552 473.299,932.512 
		472.579,933.472 472.339,933.472 472.099,933.472 471.859,933.472 471.619,933.712 471.379,933.712 468.259,933.712 
		464.179,933.952 461.539,933.952 458.179,934.192 456.019,934.192 455.779,933.952 455.539,933.712 455.299,933.472 
		455.299,932.512 454.819,932.271 453.619,932.031 453.139,931.312 450.979,929.391 450.979,928.432 450.499,927.951 
		450.019,927.471 449.779,927.471 449.539,927.471 449.299,927.471 448.819,927.951 448.099,927.711 447.859,927.711 
		447.379,926.99 447.379,926.751 447.379,926.511 447.379,926.271 447.859,925.07 447.619,925.07 447.379,925.07 447.139,924.59 
		447.139,923.87 447.139,923.631 446.899,923.39 446.419,923.39 446.419,923.149 446.179,922.91 445.939,922.91 445.699,922.431 
		445.699,922.189 445.699,921.71 445.219,921.47 444.979,921.47 444.739,921.47 444.499,921.47 444.259,921.71 443.299,921.47 
		443.059,921.47 442.819,921.23 442.819,920.749 442.339,920.27 442.099,920.27 441.619,920.03 441.379,920.03 440.899,920.27 
		440.899,920.03 440.899,919.79 439.459,919.549 439.219,919.79 438.979,920.03 438.739,920.03 438.499,920.03 438.259,920.51 
		437.779,920.51 437.299,920.749 436.579,920.51 435.379,920.27 435.379,920.03 435.379,919.79 435.619,919.79 435.379,919.549 
		435.139,919.549 434.899,919.549 434.419,919.549 434.179,919.549 433.699,919.79 433.459,919.549 432.979,919.31 432.979,919.069 
		432.739,918.59 432.979,917.869 432.739,917.148 432.979,917.148 432.979,916.909 432.739,915.948 432.019,916.189 
		431.779,916.189 431.539,915.709 431.299,915.469 431.539,914.989 432.019,914.749 432.019,914.509 431.059,913.549 
		430.819,913.549 430.579,913.068 430.339,912.828 429.859,912.108 429.619,911.628 429.379,911.868 428.899,911.868 
		428.659,911.868 428.419,911.868 427.699,911.868 427.459,911.628 427.219,911.389 426.979,910.188 426.499,909.948 
		426.499,909.708 426.019,909.708 425.779,909.708 425.539,908.748 425.299,908.748 424.819,908.748 424.339,908.027 
		424.099,907.548 423.619,907.308 423.379,907.067 423.139,906.588 423.379,906.107 423.139,905.627 422.899,905.627 
		422.419,904.667 422.659,904.427 422.659,903.707 422.179,903.707 	"/>
	
		<polyline clip-path="url(#SVGID_2_)" fill="none" stroke="#B37C34" stroke-width="0.72" stroke-linecap="round" stroke-linejoin="round" stroke-miterlimit="3.85" points="
		422.179,903.707 422.179,903.228 422.659,902.027 423.379,901.067 423.379,900.586 423.379,900.347 423.139,899.867 
		423.139,899.146 423.619,898.906 423.859,898.906 424.099,898.186 423.139,897.706 422.899,897.466 422.419,896.746 
		421.939,895.306 422.179,894.826 422.659,894.105 422.659,893.626 422.179,893.386 421.939,893.386 421.699,893.386 
		421.219,893.386 420.739,892.426 420.259,892.186 420.02,892.186 419.539,891.945 418.579,892.186 418.099,891.465 
		418.339,891.465 417.379,890.505 416.659,890.265 416.419,890.745 416.179,890.745 415.939,890.745 415.699,890.745 
		415.699,890.505 415.219,889.785 414.739,888.104 414.739,887.145 415.219,885.944 415.459,885.704 415.699,885.704 
		416.179,885.704 416.899,885.704 417.139,885.704 418.099,884.984 419.059,884.265 420.02,884.744 420.5,884.744 420.5,884.504 
		420.5,884.265 420.5,884.023 420.259,884.023 420.5,883.304 420.5,883.064 420.739,883.064 420.979,883.064 421.459,883.064 
		421.699,882.823 421.699,882.104 421.939,881.864 422.179,881.864 423.379,881.384 423.859,881.384 424.099,881.144 
		423.379,880.184 422.659,880.903 422.419,881.144 422.179,881.384 421.939,881.144 421.699,881.144 421.699,880.664 
		421.939,880.184 421.939,879.703 421.459,879.464 421.459,879.223 421.459,878.743 421.939,878.264 421.699,878.022 
		420.739,878.743 420.259,878.503 420.02,878.264 420.02,877.783 420.259,877.543 419.779,877.543 418.819,877.783 418.579,877.543 
		418.819,877.063 419.059,876.343 419.059,876.103 418.579,875.623 418.579,875.383 418.339,875.623 417.619,875.623 
		417.139,876.103 416.899,876.343 416.179,876.103 415.939,876.103 415.459,876.823 415.219,876.823 414.979,876.823 
		414.979,876.103 414.739,875.863 414.5,876.103 413.539,877.543 413.299,877.543 412.579,877.543 412.339,877.303 412.339,876.583 
		412.099,876.343 411.619,876.343 411.139,876.583 410.659,876.823 409.699,875.863 409.459,875.143 409.459,874.902 
		409.219,874.902 408.979,874.902 408.739,874.902 408.739,875.143 408.5,875.143 408.5,875.383 408.5,875.623 408.5,876.103 
		408.739,877.063 408.739,877.303 408.739,877.543 408.5,878.022 408.5,878.264 408.259,878.264 408.02,878.022 408.02,877.303 
		407.779,877.063 407.299,876.823 406.819,876.823 406.339,876.823 406.1,876.823 405.859,876.823 405.859,876.343 406.1,875.863 
		406.1,875.623 405.859,875.623 405.859,875.383 404.899,873.702 404.659,873.702 404.659,873.463 403.939,873.463 403.459,873.463 
		403.219,873.463 402.739,873.463 401.299,873.942 400.819,873.942 400.579,873.942 400.579,873.702 400.579,873.463 
		401.059,872.982 401.059,872.742 400.819,872.742 400.339,872.742 400.1,872.742 399.139,872.742 398.419,873.223 398.419,873.942 
		398.179,874.183 397.939,874.183 397.699,874.183 396.979,873.942 396.739,873.702 396.739,873.463 396.739,872.982 
		396.739,872.502 396.739,872.262 396.5,871.782 395.539,871.542 395.299,871.542 395.299,871.302 395.539,870.822 395.779,870.822 
		397.459,870.582 397.699,870.582 397.699,870.342 398.179,869.861 398.179,869.622 397.939,869.622 397.939,869.382 
		397.939,868.902 397.699,868.182 397.459,867.461 397.459,867.222 397.219,866.981 396.02,866.741 395.299,867.222 
		395.059,867.461 393.859,866.981 393.859,866.502 393.859,866.261 394.1,865.061 394.1,864.341 393.859,864.341 392.899,864.581 
		392.419,864.341 392.419,864.102 392.419,863.86 392.419,863.621 392.419,863.381 392.899,862.66 393.139,862.421 392.899,862.421 
		392.659,862.181 392.419,862.181 391.939,862.421 391.699,862.66 391.459,862.66 391.219,862.66 390.979,862.421 390.739,862.181 
		390.739,861.94 390.739,861.701 390.739,861.46 390.739,861.221 390.979,861.221 391.459,860.98 391.699,860.74 391.939,860.501 
		391.939,860.261 391.939,860.021 391.459,859.54 391.459,859.061 391.459,858.82 391.699,858.34 391.699,858.101 391.699,857.86 
		391.459,857.62 390.739,857.62 390.259,857.62 390.02,857.86 389.539,858.34 389.539,858.58 389.779,859.061 390.02,859.301 
		390.02,859.54 390.259,860.74 390.02,861.221 389.299,861.46 388.339,860.98 388.1,860.98 387.859,861.221 387.859,861.46 
		387.62,861.46 387.139,861.46 386.419,861.46 386.179,861.221 386.419,860.98 385.7,860.021 385.7,859.78 385.939,859.54 
		386.179,858.82 385.939,858.34 385.22,858.101 385.22,857.62 384.979,856.9 384.979,856.66 383.299,855.22 383.059,855.22 
		382.579,855.22 381.859,855.699 381.62,855.939 381.379,855.939 381.14,855.939 380.899,855.939 380.179,855.46 379.459,854.979 
		378.979,854.739 378.5,854.02 378.259,853.779 378.02,853.06 377.779,852.819 377.539,852.579 377.299,852.819 377.059,853.539 
		376.819,853.779 376.819,854.02 376.339,853.779 376.1,853.539 376.1,853.299 376.1,853.06 376.1,852.339 375.859,852.339 
		374.899,852.579 374.659,852.579 374.659,852.339 374.899,852.099 375.62,851.14 375.859,850.898 375.859,850.659 375.62,850.659 
		375.139,850.179 375.139,849.698 374.899,849.698 375.139,849.698 375.139,849.219 375.859,848.498 375.859,848.258 
		375.62,847.778 375.379,847.539 375.139,847.539 374.659,847.539 374.419,847.298 374.419,847.059 374.179,846.578 
		374.179,846.339 373.939,845.618 373.939,845.378 373.459,844.897 373.22,843.938 373.22,842.978 372.979,842.738 372.02,842.498 
		371.299,841.538 371.299,841.298 372.02,840.338 372.5,840.098 372.739,839.856 372.979,839.137 373.22,838.657 373.459,838.657 
		373.459,838.417 373.939,838.417 374.419,838.177 374.419,837.937 374.179,837.697 373.939,837.697 373.459,837.697 
		372.02,838.177 371.779,837.937 371.54,837.937 371.299,837.457 371.54,836.977 372.739,836.257 372.739,836.017 372.5,835.776 
		371.779,835.776 371.54,836.017 371.059,836.017 370.819,835.776 370.579,835.536 370.579,835.297 370.819,835.057 
		370.579,834.097 369.379,833.856 369.139,833.376 368.659,832.896 368.659,832.656 368.419,832.656 367.7,832.656 367.459,832.416 
		367.22,832.176 367.22,831.936 367.22,831.695 366.979,831.456 366.739,831.216 366.02,831.216 365.779,830.976 365.54,830.256 
		365.54,829.775 365.3,829.535 364.82,828.575 364.58,828.575 364.339,828.335 364.1,828.575 363.62,829.535 363.379,829.775 
		363.139,829.775 363.139,830.016 362.899,830.016 362.659,829.775 362.419,829.775 362.419,829.535 362.419,829.295 
		362.899,827.855 362.899,826.655 362.899,826.415 362.419,825.936 362.179,825.694 361.939,825.455 361.7,825.215 361.459,824.735 
		361.459,824.494 361.459,824.015 361.22,824.015 361.22,823.775 360.979,823.775 360.739,823.775 360.5,823.775 360.259,823.535 
		360.5,823.055 360.979,822.335 360.979,822.094 360.979,821.854 360.02,821.374 359.779,821.135 359.779,820.894 360.02,820.654 
		360.259,820.654 361.7,820.414 361.939,820.414 362.179,820.174 361.7,819.935 361.22,819.935 360.979,819.693 360.739,819.454 
		360.5,819.214 360.5,818.974 360.5,818.734 360.5,817.534 360.5,817.294 360.259,817.054 359.3,816.573 358.82,816.334 
		358.82,815.854 358.58,815.133 358.34,815.133 358.34,814.653 358.1,814.413 356.899,813.693 356.659,813.213 356.419,813.213 
		356.419,812.973 356.179,812.973 355.939,812.973 355.7,812.973 355.459,812.973 355.22,812.732 355.22,812.253 354.979,812.253 
		354.979,812.013 354.739,812.013 354.259,812.253 354.259,812.493 354.259,813.693 354.259,813.934 354.02,814.173 
		353.779,814.653 353.54,814.653 353.3,814.413 353.3,813.934 353.3,813.693 353.3,813.453 353.54,813.213 353.54,812.973 
		353.3,812.732 353.3,812.493 353.06,812.253 352.82,812.013 352.82,811.772 352.58,811.772 351.859,811.532 351.62,811.293 
		351.859,811.053 352.58,810.332 352.82,810.093 352.34,809.853 350.659,809.853 350.419,809.612 349.939,808.893 349.939,808.652 
		349.939,808.412 350.179,808.173 350.419,808.173 351.379,808.412 351.62,808.173 351.62,807.932 351.14,807.692 350.899,807.452 
		350.659,807.212 350.659,806.731 350.659,806.492 350.899,806.492 351.859,806.731 352.34,806.731 352.82,806.252 353.54,805.292 
		354.02,804.572 354.02,804.331 353.06,804.092 352.34,803.852 352.34,803.372 352.34,802.651 352.58,802.411 353.06,802.172 
		354.5,802.172 354.979,801.691 355.22,800.972 355.22,800.491 354.979,800.251 354.739,800.251 354.739,800.011 354.259,800.011 
		353.3,800.251 353.06,800.251 352.82,800.251 352.58,800.251 352.34,799.771 352.34,799.531 352.34,798.331 352.1,798.091 
		352.1,797.851 351.859,797.851 350.659,797.851 350.179,797.61 349.7,797.371 349.459,797.371 349.22,797.371 348.739,797.61 
		348.5,797.61 348.259,797.371 348.259,797.131 348.259,796.65 348.259,796.41 348.02,796.17 347.54,795.45 347.3,794.25 
		347.3,793.05 347.06,792.811 346.82,792.569 346.1,792.09 345.859,791.61 345.62,791.13 345.62,790.89 345.859,790.41 
		345.859,789.93 345.379,789.449 345.14,788.969 345.14,788.729 344.9,788.249 344.9,787.529 344.66,787.289 344.42,786.81 
		344.42,785.849 344.179,785.609 343.939,785.369 342.979,785.129 342.259,783.929 341.3,783.448 340.1,782.248 339.859,782.008 
		339.859,781.528 339.859,780.809 339.859,779.368 339.62,779.128 339.14,778.888 338.9,778.647 338.66,778.407 338.18,777.688 
		337.939,777.447 337.7,777.447 337.22,776.968 336.5,776.968 336.259,776.968 336.02,776.968 335.779,776.968 335.54,776.968 
		335.3,776.728 335.3,776.487 335.3,776.247 335.3,775.047 335.3,774.807 334.82,774.567 334.58,774.567 334.34,774.327 
		334.1,774.327 333.62,774.087 333.379,774.087 333.379,773.847 333.14,773.847 333.14,773.127 333.14,771.687 333.14,770.727 
		332.42,769.286 332.66,768.807 332.66,768.565 332.9,768.565 333.14,768.326 335.06,768.565 335.779,768.807 336.259,768.807 
		336.5,768.807 336.5,768.565 336.739,768.565 337.939,765.686 338.18,764.965 338.42,764.726 338.42,764.485 338.66,764.246 
		338.66,763.765 338.66,763.525 338.9,760.885 338.66,760.645 337.939,760.165 337.459,759.685 337.22,759.205 336.979,758.005 
		336.979,757.765 337.939,756.084 338.18,755.844 339.379,756.084 340.58,756.084 340.82,756.084 341.06,755.604 341.3,755.604 
		341.54,754.884 341.779,754.644 342.259,753.203 342.259,751.523 342.259,751.283 342.02,750.803 341.779,750.083 341.779,749.603 
		341.779,748.644 341.3,747.923 341.3,747.683 341.54,746.963 342.02,746.243 342.739,745.282 342.739,744.802 342.979,744.563 
		342.739,744.082 342.5,742.882 342.259,742.402 341.3,741.442 340.82,740.722 340.82,740.481 340.58,740.481 340.58,740.242 
		340.34,740.242 339.859,740.002 339.62,739.521 339.62,739.041 339.62,737.602 339.62,737.361 339.859,736.401 339.859,736.161 
		339.859,735.921 340.1,735.44 340.34,735.201 340.34,734.481 340.34,733.521 340.1,733.281 339.62,732.32 339.62,732.081 
		339.62,731.601 339.859,731.36 339.859,731.12 340.1,730.4 340.34,730.16 340.34,729.92 340.34,729.439 340.1,729.439 
		340.1,728.72 340.1,728.48 340.1,728.239 340.34,727.52 340.58,726.8 341.06,727.52 341.3,727.76 341.54,728 341.779,728.239 
		342.259,728.72 342.5,728.72 342.5,728.96 342.739,728.96 343.22,729.2 343.459,729.439 343.7,729.439 344.9,729.92 
		345.379,729.92 346.34,730.16 347.54,729.92 348.02,729.92 348.5,729.92 348.979,729.92 351.859,728.96 	"/>
</g>
</svg>
