<?xml version="1.0" encoding="utf-8"?>
<!-- Generator: Adobe Illustrator 15.1.0, SVG Export Plug-In . SVG Version: 6.00 Build 0)  -->
<!DOCTYPE svg PUBLIC "-//W3C//DTD SVG 1.1//EN" "http://www.w3.org/Graphics/SVG/1.1/DTD/svg11.dtd">
<svg version="1.1" id="State" xmlns="http://www.w3.org/2000/svg" xmlns:xlink="http://www.w3.org/1999/xlink" x="0px" y="0px"
	 width="1296px" height="1296px" viewBox="0 0 1296 1296" enable-background="new 0 0 1296 1296" xml:space="preserve">
<g>
	<defs>
		<rect id="SVGID_1_" x="349.219" y="266.421" width="598.45" height="770.958"/>
	</defs>
	<clipPath id="SVGID_2_">
		<use xlink:href="#SVGID_1_"  overflow="visible"/>
	</clipPath>
	
		<polyline clip-path="url(#SVGID_2_)" fill="none" stroke="#B37C34" stroke-width="0.4799" stroke-linecap="round" stroke-linejoin="round" stroke-miterlimit="3.85" points="
		363.616,513.407 363.616,513.167 363.856,511.966 364.096,511.246 364.336,510.526 364.576,509.326 364.816,507.406 
		365.536,506.446 365.296,505.966 365.536,504.286 365.536,504.045 365.536,503.565 366.016,503.326 366.255,503.085 
		367.216,502.846 367.455,502.846 367.455,502.365 367.455,502.125 368.175,502.125 368.416,502.125 368.896,501.646 
		369.375,501.646 369.855,501.165 370.575,500.445 371.055,500.445 371.295,500.205 371.535,500.205 371.535,499.965 
		371.775,499.725 371.775,499.485 372.015,499.245 372.495,499.005 373.694,497.805 373.694,497.565 374.174,496.605 
		374.174,496.365 374.414,495.165 374.414,494.445 374.654,494.205 375.134,493.484 375.374,493.245 376.094,492.765 
		376.333,492.524 376.333,492.044 376.574,491.564 376.333,490.844 376.094,490.604 376.094,490.364 375.854,489.644 
		375.854,489.404 375.854,488.924 376.094,488.444 376.333,488.204 376.813,487.964 377.534,487.484 377.773,487.484 
		378.253,486.764 378.733,485.324 378.733,485.083 378.733,484.604 378.974,483.884 380.173,481.963 381.133,481.003 
		381.133,480.763 381.613,480.523 381.613,480.283 381.853,480.283 382.333,480.283 383.053,479.803 383.533,479.323 
		383.772,479.323 384.013,479.323 384.492,479.083 384.492,478.843 384.492,478.363 384.492,478.123 385.212,477.643 
		386.172,476.923 386.412,476.683 388.092,476.683 388.092,476.443 388.092,475.723 388.092,475.482 388.332,475.243 
		389.051,475.723 389.292,475.482 389.532,475.243 390.491,475.482 390.731,475.002 390.971,475.002 391.451,474.522 
		392.651,474.522 393.611,474.042 394.091,473.803 394.571,473.803 395.53,473.322 396.25,473.322 396.49,473.322 396.49,472.603 
		396.49,472.123 396.49,471.162 396.73,470.922 396.97,470.922 397.69,469.722 398.41,469.242 398.89,469.242 398.89,469.002 
		399.37,469.002 399.609,469.002 399.609,469.242 401.049,469.722 401.769,470.202 402.009,470.202 402.249,470.202 
		402.729,470.202 403.209,470.442 403.688,470.682 404.168,470.442 404.649,470.202 404.889,469.722 404.649,469.482 
		404.649,469.242 404.649,469.002 404.889,468.762 405.368,468.282 405.608,468.042 405.608,467.562 405.849,467.322 
		405.849,467.082 406.088,466.842 406.568,465.882 406.568,465.642 406.808,464.922 407.528,464.202 408.008,463.961 
		408.248,463.961 408.968,463.722 409.688,463.481 409.928,463.481 409.928,463.722 411.367,464.682 412.567,464.922 
		413.287,465.402 414.007,465.642 414.247,465.642 414.727,465.642 415.207,465.162 415.446,465.162 415.446,464.922 
		415.446,464.441 415.446,464.202 415.926,463.961 415.926,463.722 416.167,463.481 416.167,462.761 416.167,462.042 
		416.167,461.562 416.407,461.321 416.646,460.601 416.646,460.361 416.887,459.401 417.126,459.401 417.126,459.161 
		417.126,458.921 417.366,458.921 417.606,458.681 417.846,458.441 418.566,458.201 418.806,458.201 419.766,457.721 
		420.486,457.721 420.966,457.481 420.966,457.001 420.966,452.2 421.206,446.44 421.206,445.24 421.206,443.319 421.446,437.559 
		421.446,434.918 421.686,432.758 421.686,428.918 421.686,427.958 421.925,427.718 421.925,426.758 421.925,426.518 
		421.925,425.558 421.925,425.317 421.925,424.837 421.925,424.357 421.925,423.157 422.166,411.636 422.405,411.156 
		422.405,409.716 422.646,403.476 422.646,401.075 422.646,400.115 422.885,396.515 422.885,396.275 423.125,388.354 
		423.125,387.874 423.125,386.674 423.125,383.793 423.365,379.713 423.365,378.753 423.365,378.273 423.365,378.033 
		423.845,378.273 423.845,378.753 423.845,379.233 424.085,379.233 424.565,379.473 424.805,379.473 425.045,380.193 
		425.285,380.433 425.525,380.433 426.245,379.713 426.484,379.473 427.685,380.673 428.404,380.673 429.124,380.193 
		429.364,380.193 429.604,380.433 430.324,380.673 430.564,380.673 431.044,380.433 431.284,380.193 431.524,379.953 
		431.524,379.473 431.284,378.753 431.524,378.513 431.764,378.033 432.483,377.073 432.963,376.833 433.443,376.833 
		433.923,376.353 434.163,375.873 433.923,375.393 433.923,375.152 433.443,374.672 432.003,374.672 431.524,374.192 
		431.284,373.712 431.524,373.472 431.764,373.232 432.244,372.992 432.483,372.512 432.724,371.792 432.963,371.792 
		433.923,371.792 434.403,371.792 434.883,371.552 436.083,372.032 436.563,372.032 436.803,372.032 437.042,371.792 
		437.283,370.832 437.283,370.352 437.283,369.632 437.283,369.392 437.763,368.912 438.962,368.192 439.682,367.712 
		440.642,367.712 442.322,367.712 444.001,369.632 444.481,370.112 446.401,372.272 447.121,373.232 448.081,373.712 
		448.561,373.952 449.041,373.712 449.521,373.712 451.44,375.393 452.64,376.353 453.84,376.833 455.52,377.313 456.719,377.073 
		457.679,376.833 460.798,376.112 461.278,376.112 461.518,376.112 463.438,375.873 464.877,376.112 465.118,376.353 
		466.797,376.112 469.677,375.633 472.316,374.433 473.276,373.952 473.516,373.712 474.236,373.472 474.716,373.472 
		479.755,371.792 480.715,371.312 480.955,371.312 483.114,370.592 488.153,368.192 488.153,367.952 488.393,367.952 
		489.593,367.712 490.313,367.712 491.752,367.952 493.192,368.192 495.592,367.712 496.552,367.231 497.271,366.512 
		499.431,366.271 500.151,366.031 501.351,365.792 503.271,364.832 503.511,364.832 503.511,364.591 504.71,363.631 505.91,363.392 
		506.15,363.392 506.63,363.631 507.35,363.392 507.59,363.392 508.55,363.151 508.79,363.151 509.27,362.671 509.509,362.671 
		509.509,362.431 510.229,361.231 511.669,360.031 513.829,358.831 514.789,358.351 515.028,358.351 515.988,358.111 
		517.188,358.111 518.148,357.871 519.107,357.631 519.587,356.911 521.267,354.51 521.987,354.03 523.187,353.55 523.427,353.55 
		523.667,353.791 523.907,354.75 524.387,355.23 525.586,356.19 526.306,356.671 526.546,356.671 527.266,356.671 528.466,355.23 
		529.186,354.271 529.426,353.311 529.906,352.83 530.386,352.83 530.625,353.311 530.386,354.03 530.146,354.271 530.146,354.51 
		530.386,354.75 531.345,355.23 533.025,354.991 533.745,354.51 533.985,354.51 533.985,354.271 533.985,354.03 534.225,352.11 
		534.465,351.63 535.425,351.63 536.145,352.11 536.625,352.35 537.824,351.87 538.064,351.87 538.064,351.63 538.784,351.15 
		539.024,350.91 539.504,350.19 539.504,349.71 539.744,348.99 541.184,347.79 542.383,347.31 542.863,347.31 543.343,347.07 
		543.343,346.83 544.303,346.109 544.783,345.149 545.263,343.949 545.743,343.469 546.223,343.469 546.942,344.189 546.942,344.43 
		548.143,344.669 549.102,344.909 549.822,345.149 550.062,345.39 550.782,344.909 551.262,343.949 553.901,341.789 
		554.621,341.309 554.861,341.309 556.061,341.309 557.741,341.789 558.221,342.269 560.86,344.669 562.54,346.109 565.419,349.95 
		565.659,350.43 565.659,350.67 565.659,351.39 565.419,351.63 565.179,351.63 564.699,351.87 563.979,352.83 562.78,355.23 
		562.3,356.911 561.82,358.111 561.34,359.071 561.1,359.791 561.1,360.031 560.38,360.751 558.94,362.191 558.7,362.431 
		558.46,363.392 557.741,364.352 555.821,364.352 555.581,364.832 555.341,365.071 555.101,365.552 555.581,366.512 
		555.341,367.231 554.861,367.712 553.182,368.672 553.182,369.872 553.182,370.112 553.661,371.072 554.381,373.232 
		556.061,376.353 555.821,377.313 555.341,378.033 554.621,378.993 552.941,380.193 551.981,380.673 551.262,380.913 
		550.542,381.153 550.302,381.633 550.302,381.873 549.582,384.753 549.582,385.474 549.342,386.193 547.902,388.594 
		546.942,389.314 546.703,389.554 546.703,390.034 547.663,391.234 548.143,391.474 549.102,391.714 549.822,391.954 
		550.542,391.954 550.782,391.954 551.022,391.954 551.262,391.714 551.981,391.234 552.222,390.994 553.182,390.274 
		553.661,390.034 553.901,389.794 554.141,389.554 554.621,389.554 558.221,387.634 558.7,387.394 560.62,386.674 561.34,386.434 
		563.5,384.993 563.739,384.753 564.939,383.793 564.939,383.553 564.939,381.153 565.659,380.433 566.379,377.793 566.619,377.553 
		566.859,377.793 570.218,380.913 570.458,381.393 571.418,381.873 571.658,382.113 573.817,384.033 574.538,384.993 
		575.498,385.714 576.457,386.674 576.697,386.674 576.937,386.914 580.537,390.034 582.936,391.714 583.176,391.714 
		583.176,391.954 583.896,392.194 584.855,392.435 585.096,392.435 586.055,391.714 587.975,391.474 588.935,392.194 
		590.135,392.914 590.375,393.154 590.854,393.395 591.334,393.634 594.214,395.314 595.894,394.595 596.134,395.075 
		596.374,395.794 596.854,396.515 597.093,396.995 597.573,397.475 597.813,397.715 598.053,398.675 598.053,398.915 
		598.293,399.155 598.773,398.915 599.973,398.195 600.453,397.955 601.173,397.955 601.652,398.195 601.652,397.955 
		601.652,398.195 601.893,398.435 602.132,398.435 602.373,398.435 602.612,397.235 602.853,396.515 603.092,396.515 
		603.572,396.275 604.052,396.275 604.292,396.755 604.292,396.995 604.532,397.235 604.532,397.475 604.772,397.475 
		605.012,397.235 605.732,398.195 605.972,398.195 605.972,398.435 605.972,398.675 605.972,399.155 605.732,399.395 
		605.732,399.635 605.732,399.875 605.492,400.355 605.252,400.595 605.252,401.315 605.732,401.315 606.212,401.075 
		606.691,401.075 607.171,401.075 607.412,401.075 607.412,400.835 607.651,400.835 608.131,401.075 608.371,401.075 
		608.851,400.595 608.851,400.355 609.091,400.355 609.331,400.595 609.571,400.835 609.331,401.555 609.571,402.035 
		609.571,402.275 609.571,402.515 609.811,402.515 610.051,402.515 610.051,402.755 610.051,402.996 610.291,403.235 
		610.531,403.235 610.771,402.996 611.73,402.755 611.971,402.996 612.21,402.755 612.69,402.515 613.17,402.275 613.41,402.275 
		613.41,402.515 613.17,402.996 613.41,403.235 614.13,402.996 614.61,403.235 614.85,403.476 614.85,403.715 615.09,404.916 
		615.81,406.596 616.05,406.836 616.77,407.316 617.25,407.796 617.01,408.036 616.77,408.276 616.77,408.516 617.01,408.996 
		617.25,408.996 617.25,409.236 617.97,409.236 617.97,409.716 617.97,409.956 617.97,410.196 618.209,411.636 618.449,411.636 
		619.169,411.636 619.169,411.876 619.409,412.356 619.889,413.316 619.889,414.037 619.889,414.276 619.889,414.997 
		619.889,415.237 620.129,415.717 620.369,416.677 620.849,417.157 621.089,417.396 621.329,418.357 621.809,419.077 
		622.049,419.317 622.289,419.317 622.289,419.557 622.049,420.277 622.289,420.757 622.529,420.997 623.009,421.477 
		623.249,421.958 623.249,422.197 623.488,422.438 623.729,422.438 623.729,422.917 623.729,423.638 623.488,423.877 
		623.488,424.117 623.488,424.357 623.488,424.598 623.729,424.598 623.488,425.078 623.488,425.317 635.486,428.918 
		641.005,430.358 641.245,430.358 642.205,430.598 642.925,430.838 643.165,430.838 645.564,431.558 646.524,431.798 
		649.644,432.758 652.764,433.479 656.603,434.679 658.522,435.159 658.762,435.159 659.242,435.398 665.481,437.079 
		666.44,437.319 667.16,437.559 668.12,437.799 671.96,438.759 676.039,439.959 677.959,440.439 681.559,441.399 682.037,441.639 
		686.356,442.839 688.036,443.319 692.596,444.52 701.954,446.92 707.233,448.36 707.473,448.36 708.673,448.6 708.673,448.84 
		708.913,448.84 709.633,449.08 710.832,449.32 712.272,449.8 712.752,449.8 716.111,450.76 719.231,451.48 725.23,455.081 
		728.59,457.001 732.669,459.161 733.148,459.401 734.108,460.121 741.787,464.441 742.027,464.682 742.027,464.922 
		742.507,465.402 742.746,465.642 742.986,465.642 743.227,465.642 743.706,465.882 744.666,466.362 745.146,466.602 
		745.146,466.842 745.386,466.842 746.346,466.602 746.826,466.602 747.065,466.362 746.826,466.122 746.586,465.642 
		746.826,465.402 746.826,465.162 747.306,465.402 748.025,465.402 748.506,465.402 748.506,465.882 748.025,466.362 
		748.025,466.602 748.025,466.842 748.266,467.562 748.506,467.562 748.745,467.562 749.465,467.082 749.465,466.842 
		749.706,466.842 749.706,466.602 749.706,466.842 749.945,466.842 750.426,467.082 750.665,467.082 750.905,466.602 
		751.145,466.602 751.625,466.122 752.105,465.882 753.064,466.122 753.545,466.362 754.024,466.602 754.024,467.082 
		754.265,467.802 754.744,467.802 754.984,467.322 755.465,467.082 755.944,467.082 756.664,467.562 757.384,467.562 
		757.864,467.802 758.344,468.042 758.584,468.762 758.823,469.482 758.584,469.482 758.584,469.722 759.063,470.202 
		759.304,470.442 759.304,470.682 759.304,470.922 759.544,470.922 760.023,470.922 760.503,471.162 760.743,471.162 
		761.703,471.402 761.943,471.402 761.943,471.162 762.183,471.162 763.144,470.922 763.623,471.162 763.863,471.162 
		763.863,470.922 764.103,470.922 764.103,470.682 764.103,469.722 764.103,469.002 764.582,468.042 764.823,467.322 
		765.063,467.082 765.303,467.082 765.782,467.322 765.782,467.562 766.022,467.802 766.262,468.762 766.982,468.522 
		767.702,467.802 767.941,467.562 768.182,467.322 768.422,467.322 768.662,467.322 769.142,467.322 769.382,467.322 
		769.861,467.562 770.581,467.562 770.822,467.562 770.822,467.322 771.302,466.842 771.541,466.602 771.302,466.602 
		771.541,466.602 771.541,466.362 772.021,466.602 772.502,466.602 773.221,466.602 773.701,466.602 773.94,466.842 773.94,467.082 
		773.94,467.562 774.421,468.522 774.421,469.002 774.66,469.242 774.9,469.242 774.9,469.482 774.9,469.722 774.9,469.962 
		775.381,470.202 775.86,470.442 776.581,470.442 776.82,470.202 777.061,469.962 777.061,469.722 777.061,469.482 777.301,469.002 
		777.54,469.002 777.78,469.002 778.5,469.242 778.98,469.482 778.98,469.722 778.98,469.962 779.22,470.442 779.46,470.442 
		779.939,470.442 780.18,470.442 780.66,470.682 780.9,470.922 781.619,471.162 781.859,471.642 781.859,471.882 782.1,472.123 
		782.34,472.362 782.58,472.362 783.059,471.882 783.779,471.642 784.019,471.642 784.499,471.642 784.979,471.402 785.459,470.682 
		785.459,470.442 785.698,470.202 786.179,470.442 786.419,470.442 786.658,470.682 787.139,471.162 788.099,471.882 
		790.019,473.083 790.498,473.563 790.738,473.803 790.738,474.522 790.498,474.763 790.979,475.002 791.458,474.283 
		791.698,474.042 791.938,474.283 792.418,474.283 793.377,474.763 793.617,475.002 793.857,475.482 794.098,475.482 
		795.057,474.763 796.257,474.522 797.217,474.283 797.456,473.803 797.697,473.803 797.937,473.803 797.937,473.563 
		798.177,473.563 798.416,473.803 798.416,474.283 798.416,474.522 798.416,475.002 798.656,475.243 798.896,475.482 
		799.136,475.723 799.616,475.723 800.096,475.723 800.576,475.723 801.296,475.723 801.775,476.203 802.016,476.203 
		802.495,475.963 802.495,475.482 802.976,475.002 803.456,475.002 803.695,475.002 804.896,475.723 805.136,475.963 
		805.375,476.443 805.615,476.683 806.095,476.923 806.335,476.683 806.575,476.683 807.295,476.923 807.775,477.163 
		807.775,477.403 808.255,477.883 808.494,477.883 809.694,478.363 809.694,478.603 809.694,478.843 809.694,479.083 
		809.935,479.083 810.174,479.083 810.414,479.083 810.654,479.083 810.654,478.843 811.614,478.843 811.854,478.843 
		812.573,479.563 812.573,479.803 812.573,480.043 812.334,480.283 812.094,480.523 811.854,481.003 811.614,481.243 
		811.614,481.723 811.614,482.203 811.854,482.443 812.094,484.124 812.334,484.364 812.814,484.604 813.773,484.364 
		814.014,484.364 814.733,485.083 814.733,485.563 814.733,486.284 814.733,486.524 814.494,486.764 814.014,486.524 
		813.773,486.764 813.533,487.484 813.533,487.724 812.573,488.444 811.854,489.884 811.614,489.884 811.374,490.124 
		811.135,490.124 810.414,490.844 810.414,491.084 810.414,491.324 810.174,491.324 809.935,491.564 809.935,491.804 
		809.455,492.284 809.215,492.284 809.215,492.524 809.215,492.765 809.455,493.725 809.694,493.965 809.935,494.205 
		810.894,494.685 811.135,494.685 811.374,494.685 811.614,494.685 811.614,494.925 811.854,494.925 812.094,495.165 
		812.094,495.405 811.854,495.645 812.334,496.365 812.573,496.605 813.054,497.085 813.773,497.325 814.014,497.325 
		814.253,497.325 814.494,497.325 814.733,497.325 814.733,497.565 814.974,497.805 815.213,497.805 815.453,497.805 
		816.173,497.805 816.413,497.805 817.133,497.805 817.373,497.565 817.854,497.325 818.093,496.845 818.093,496.605 
		818.333,496.605 818.813,496.365 819.053,496.605 819.293,496.605 819.772,496.365 820.252,496.125 820.492,496.125 
		820.732,496.125 821.213,496.125 821.452,496.125 821.692,495.885 821.932,495.885 822.173,495.645 822.412,495.645 
		822.652,495.645 822.893,495.645 822.893,495.885 823.132,495.885 823.132,496.365 823.611,497.325 823.853,498.045 
		823.611,498.285 823.372,498.285 822.893,498.525 822.893,498.765 823.132,498.765 823.372,499.005 824.092,499.485 
		824.572,499.485 825.052,499.725 825.531,500.205 825.291,500.445 825.531,500.445 825.531,500.685 825.771,500.685 
		826.252,500.445 826.731,500.445 827.211,500.685 827.451,500.685 828.171,500.445 828.65,500.205 828.891,500.205 
		829.131,500.445 829.37,500.685 830.091,500.445 830.57,500.445 830.811,500.205 831.051,500.205 831.29,500.445 831.29,500.685 
		831.53,500.925 831.53,501.165 831.771,501.165 832.25,500.925 833.21,500.925 833.45,500.685 833.689,500.925 833.93,501.405 
		834.17,501.405 834.41,501.405 834.89,501.885 834.89,502.365 	"/>
	
		<polyline clip-path="url(#SVGID_2_)" fill="none" stroke="#B37C34" stroke-width="0.4799" stroke-linecap="round" stroke-linejoin="round" stroke-miterlimit="3.85" points="
		834.89,502.365 834.89,503.085 835.61,504.525 835.85,504.525 836.569,505.006 837.049,505.486 837.29,505.726 837.529,505.726 
		837.77,505.966 838.01,505.966 839.929,506.446 839.929,506.686 840.408,506.926 840.408,507.406 840.169,507.886 840.648,508.606 
		840.889,508.846 842.088,509.566 842.809,510.046 842.809,510.526 842.809,511.246 842.809,511.486 841.608,511.727 
		841.369,511.727 841.129,511.966 840.889,512.446 840.648,512.446 838.969,512.927 838.969,513.167 838.969,513.407 
		838.969,513.646 838.969,513.887 838.969,514.367 838.969,515.087 839.209,515.327 839.689,515.567 840.169,516.287 
		840.889,517.487 841.608,518.207 841.608,518.447 841.608,518.687 842.088,519.167 843.048,519.407 843.528,520.127 
		843.528,520.847 843.528,521.567 843.528,521.808 843.528,522.047 843.528,522.768 843.288,523.248 842.809,523.488 
		842.568,523.488 842.568,523.728 842.568,523.968 842.568,524.688 842.568,525.648 842.568,525.888 842.328,526.128 
		842.328,526.368 841.849,526.368 840.889,526.368 840.169,526.128 838.729,525.648 838.489,525.648 838.249,526.368 
		838.489,526.848 838.969,527.328 839.689,527.808 840.169,528.288 840.889,529.008 841.369,529.488 841.369,529.728 
		841.129,530.208 841.129,530.448 841.369,531.408 841.369,532.849 841.849,533.809 842.328,534.049 842.328,534.769 
		842.328,535.009 842.088,535.489 842.088,535.969 841.849,536.449 841.849,536.689 841.129,537.649 841.129,537.889 
		841.369,538.129 841.369,538.369 840.889,539.089 840.648,539.329 840.648,539.569 839.929,540.049 839.209,540.289 
		838.729,540.77 838.729,541.009 838.729,541.25 838.489,541.489 837.77,541.729 837.529,542.209 836.81,542.689 836.569,542.93 
		836.09,543.649 836.09,543.89 836.33,544.37 836.33,545.09 836.569,545.81 836.81,546.05 837.049,546.29 837.049,546.53 
		837.29,546.77 837.29,547.01 837.529,547.73 837.29,547.97 836.569,548.45 836.569,548.69 836.81,549.17 836.569,549.89 
		836.09,550.13 835.369,550.61 835.13,550.851 835.13,551.09 835.13,551.331 835.369,551.811 835.369,552.05 834.89,552.53 
		834.17,553.25 833.93,553.73 833.93,553.971 833.93,554.211 833.93,554.451 834.17,554.691 834.65,554.931 834.65,554.691 
		835.369,554.451 835.369,554.211 835.61,554.211 835.61,553.971 835.61,553.73 835.61,553.491 835.85,553.491 836.09,553.971 
		836.09,554.211 836.33,554.451 836.569,554.691 836.81,554.931 837.29,554.931 837.529,555.171 837.529,555.651 837.529,555.891 
		837.529,556.131 837.77,556.131 838.729,555.651 838.729,555.411 838.969,554.691 839.209,554.691 839.449,554.691 
		839.689,554.691 839.929,554.691 840.169,554.691 840.169,554.451 840.889,554.691 841.369,554.691 842.328,554.211 
		843.288,554.211 843.288,554.451 843.769,554.691 844.729,554.451 844.968,554.451 845.208,554.451 845.928,554.931 
		846.647,554.691 846.888,554.451 846.888,554.211 846.888,553.971 848.088,553.491 848.088,553.25 848.567,552.771 
		849.768,550.851 850.728,550.37 850.967,550.13 851.207,549.89 851.687,549.41 852.166,549.17 852.406,549.17 852.887,549.41 
		853.127,549.89 853.846,550.13 854.086,550.13 854.086,550.61 854.086,550.851 855.766,551.811 855.766,552.05 855.766,552.771 
		855.766,553.011 855.766,553.25 856.006,553.73 856.246,553.971 856.485,554.211 856.726,554.211 856.726,554.931 856.726,555.891 
		856.006,556.851 856.006,557.091 855.525,557.331 855.286,557.571 855.525,558.291 855.286,558.531 855.286,558.771 
		855.046,558.771 854.807,559.011 854.086,560.211 853.846,560.451 853.127,561.412 853.127,561.651 852.887,562.372 
		852.887,562.611 852.646,562.852 852.166,563.812 851.927,564.292 852.166,564.772 852.166,565.012 852.166,565.252 
		851.687,565.732 851.207,566.452 851.207,566.932 851.207,567.412 851.207,568.132 850.967,568.612 850.967,568.852 
		850.967,569.332 850.967,569.572 850.486,569.572 849.768,570.292 849.768,570.532 849.768,570.772 850.007,570.772 
		850.247,571.012 850.007,571.493 849.768,572.212 849.527,572.453 849.768,572.933 849.768,573.413 849.527,573.653 
		848.807,574.133 848.567,574.373 848.327,574.613 848.327,574.853 848.327,575.093 849.048,577.733 849.048,578.213 
		849.048,578.453 849.527,578.693 849.768,578.693 850.007,578.933 850.247,579.413 850.728,579.894 851.447,580.133 
		851.687,580.613 852.166,581.093 852.406,581.093 852.887,581.333 853.127,581.333 853.606,581.573 854.086,582.054 
		854.807,583.254 854.566,583.734 854.566,583.974 855.286,585.174 855.525,585.414 855.766,585.414 855.766,585.654 
		856.006,585.894 856.246,586.134 856.246,586.614 856.246,586.854 856.485,586.854 856.726,586.854 857.205,586.614 
		857.445,587.094 858.646,587.094 859.125,587.094 859.365,587.094 859.365,587.334 859.605,587.334 860.085,587.574 
		860.325,587.574 860.805,587.814 862.965,588.294 863.444,589.014 863.444,589.734 862.965,589.974 862.725,589.734 
		862.005,590.214 861.765,590.455 861.525,590.935 861.285,590.935 861.045,591.895 859.846,595.015 859.846,595.255 
		860.085,599.335 859.846,604.376 857.445,604.856 856.726,604.856 853.366,604.856 847.127,606.056 846.888,606.296 
		844.729,607.016 842.568,607.736 841.849,608.216 840.169,610.616 840.169,610.856 839.689,611.816 839.689,612.777 
		839.689,613.497 840.169,614.217 840.169,614.457 840.408,614.937 840.889,615.417 841.129,615.897 841.129,616.137 
		841.369,616.377 840.889,617.577 840.648,618.057 840.408,618.537 839.449,619.017 839.449,619.257 838.969,619.978 
		838.969,620.458 838.969,620.697 838.969,620.938 838.729,620.938 838.729,621.178 838.249,622.138 837.77,623.098 837.29,623.338 
		837.049,623.338 836.81,623.338 836.569,623.338 836.09,623.818 834.65,625.018 834.41,625.258 834.41,625.738 834.17,626.218 
		833.689,627.898 832.97,629.578 832.25,631.499 831.051,634.619 830.811,634.619 830.091,635.099 829.61,635.339 829.61,635.579 
		828.65,636.299 828.65,636.539 827.932,637.739 826.971,639.659 826.971,639.899 826.731,643.5 826.491,643.98 826.491,645.18 
		826.491,646.14 826.491,646.38 825.531,647.1 825.291,647.82 825.052,649.501 824.812,650.701 824.812,651.42 824.812,651.66 
		825.771,653.82 826.011,654.301 826.011,654.541 825.771,655.261 824.572,655.261 824.331,656.701 824.092,657.422 
		823.853,657.661 823.372,658.621 822.412,658.861 821.932,659.342 821.932,659.581 821.932,660.302 822.412,660.781 
		823.853,662.222 824.331,662.702 825.531,663.902 825.771,663.902 826.011,663.902 826.252,663.902 826.731,664.143 
		827.451,664.382 828.891,664.861 831.53,664.861 832.97,664.143 833.21,663.422 833.93,662.462 835.369,659.821 835.369,659.581 
		835.61,658.861 835.61,658.621 835.369,658.381 835.13,657.901 835.369,657.661 835.369,657.422 836.33,656.941 836.33,656.701 
		838.489,654.301 841.849,652.141 842.568,651.66 844.008,650.221 847.127,649.74 848.088,649.501 848.327,649.261 849.048,648.541 
		849.527,647.58 849.768,646.14 850.728,644.7 851.447,643.98 852.406,642.54 852.406,640.62 851.927,638.939 852.166,638.219 
		853.366,636.539 855.046,633.659 855.525,632.938 858.886,628.138 859.125,627.658 859.846,626.218 860.085,625.738 
		860.564,625.258 862.244,622.858 864.885,620.938 865.604,620.697 867.764,620.938 869.684,619.978 870.883,618.777 
		871.123,618.297 872.323,619.017 874.723,619.017 878.563,614.937 878.802,614.937 880.002,615.657 880.242,615.897 
		880.242,617.097 881.201,619.017 881.682,619.257 882.401,619.017 883.602,618.537 883.602,615.897 883.36,615.177 
		882.641,614.217 881.441,613.257 881.441,612.296 881.922,610.616 882.401,609.176 882.881,608.937 882.881,608.696 
		883.36,607.736 884.081,606.296 885.281,601.976 887.44,598.615 888.64,595.735 888.88,595.735 889.359,594.775 890.08,593.815 
		890.56,593.095 890.8,593.095 892.239,591.654 892.959,590.694 893.919,589.254 894.159,588.534 894.398,587.814 894.159,585.894 
		894.398,583.734 895.119,582.534 896.078,581.573 895.839,580.133 896.078,577.733 896.798,576.773 897.519,576.533 
		898.479,577.733 900.158,577.973 902.077,576.533 902.797,575.093 903.037,574.853 903.997,574.613 903.997,574.373 
		904.237,574.373 904.478,574.133 905.917,573.893 906.877,574.133 907.117,574.133 907.117,572.933 907.117,572.212 
		906.877,571.493 906.877,569.813 907.356,567.172 907.836,565.252 910.716,563.812 911.436,561.892 912.636,560.211 
		913.115,561.171 913.835,561.171 914.795,560.932 916.475,559.251 918.635,559.251 919.594,559.731 920.074,560.211 
		920.794,561.892 920.555,562.852 919.594,563.812 919.594,564.532 919.834,565.732 920.555,566.212 920.794,566.212 
		920.314,568.612 919.834,570.292 918.154,570.772 917.915,570.532 917.675,569.572 915.275,569.572 914.555,571.012 
		914.315,576.053 914.315,578.213 915.995,579.653 915.755,580.374 914.555,581.333 914.075,582.293 913.835,583.254 
		914.075,583.734 914.315,584.934 914.555,587.334 913.596,587.814 913.115,588.774 911.676,589.974 911.436,591.654 
		910.477,592.135 907.597,591.895 907.356,592.615 907.356,594.055 906.156,597.895 906.156,598.135 904.957,598.375 
		904.717,598.615 903.997,599.095 902.317,602.456 901.598,604.136 901.838,606.776 903.037,607.976 903.277,608.216 
		903.518,608.937 903.277,609.417 902.077,609.896 900.397,611.097 899.438,612.537 899.438,613.497 900.397,615.177 
		900.638,616.617 895.359,620.217 894.879,620.697 894.159,622.138 893.919,622.377 893.439,625.018 892.239,625.738 
		891.52,626.458 890.56,627.898 890.56,628.138 890.08,629.098 890.08,629.578 890.08,629.818 890.319,630.778 890.08,631.499 
		889.84,631.979 888.64,635.339 888.16,637.979 887.2,640.379 886,642.78 885.521,643.74 885.04,644.94 884.32,647.1 
		883.602,648.541 882.881,649.98 882.641,650.46 881.441,651.42 880.961,651.66 880.002,653.101 879.762,653.341 879.521,653.581 
		878.802,655.741 878.802,655.981 876.882,660.781 875.683,666.062 875.683,667.021 875.202,670.383 875.202,670.863 
		874.963,671.343 874.723,672.303 874.482,672.303 874.482,673.022 874.242,673.022 874.242,673.982 874.003,675.184 
		874.003,675.423 874.003,675.663 873.763,678.063 873.283,679.264 872.803,681.904 872.803,682.384 872.803,684.304 
		872.803,684.544 872.563,685.504 871.604,687.664 871.363,687.664 870.883,690.544 870.643,691.024 870.403,691.744 
		870.643,693.665 870.643,693.905 870.883,695.585 872.803,699.426 873.043,699.905 873.763,702.066 873.763,702.546 
		874.482,703.985 874.482,706.386 874.242,708.787 874.003,708.787 874.003,709.026 873.522,710.706 871.604,713.347 
		871.363,713.827 870.883,714.066 870.883,714.307 869.443,715.507 867.523,716.468 866.804,716.707 865.844,717.427 
		864.165,718.627 863.924,718.627 862.965,719.827 862.005,720.548 861.765,720.787 861.525,721.027 861.525,721.508 
		861.285,722.468 861.285,722.708 861.045,722.948 860.805,724.147 860.805,724.628 861.045,726.068 861.045,727.269 
		860.805,728.229 860.564,728.469 860.325,728.709 859.365,730.148 858.646,732.068 858.405,732.309 858.405,732.549 
		858.165,733.269 857.686,735.43 857.205,736.629 857.205,737.83 856.966,739.75 856.726,740.949 856.485,741.189 855.525,742.87 
		855.286,743.59 855.286,744.069 855.046,744.069 854.807,746.23 854.807,746.71 854.807,746.95 854.566,748.15 854.326,749.831 
		854.086,750.311 853.846,751.271 853.846,752.231 854.566,755.111 854.566,756.791 854.566,757.511 854.566,757.752 
		854.566,758.231 854.807,759.432 855.046,760.152 855.046,760.632 855.286,761.352 856.246,763.271 856.485,763.992 
		856.726,764.473 857.686,766.393 857.686,767.112 857.686,767.353 857.686,768.072 857.445,768.313 857.445,768.793 
		857.205,769.272 856.966,769.752 856.966,770.713 856.966,771.193 857.205,772.394 857.445,773.593 857.686,774.553 
		857.686,775.273 857.686,776.473 857.686,776.953 857.445,778.153 856.006,781.033 855.766,781.994 855.046,782.954 
		854.807,783.674 854.086,784.874 850.486,791.835 849.768,793.755 849.768,793.995 849.527,795.436 849.287,796.636 
		849.048,798.556 849.048,798.795 849.287,800.956 849.287,801.195 849.287,801.676 849.527,802.156 849.527,802.396 
		849.527,802.636 849.768,803.356 849.527,803.597 849.287,804.315 848.807,806.477 848.327,807.677 848.327,807.916 
		848.088,808.396 847.848,808.877 847.367,809.597 846.647,811.277 844.968,813.677 844.008,815.117 843.048,816.798 
		842.809,817.277 842.328,818.718 841.849,820.157 841.369,822.318 841.369,824.238 841.129,825.678 840.889,828.318 
		840.408,830.239 839.929,831.439 839.689,832.159 838.969,836 839.209,837.919 839.209,838.399 839.449,838.64 839.689,840.08 
		839.689,840.319 840.648,843.2 841.129,843.92 841.608,844.64 842.328,846.801 842.088,846.801 841.608,848.721 841.369,848.961 
		841.129,849.681 841.129,849.921 840.408,851.121 840.408,851.841 840.408,852.561 840.408,852.802 840.648,852.802 
		840.648,853.281 841.129,854.241 841.369,854.241 841.369,854.481 843.048,856.161 843.288,857.361 843.528,858.081 
		843.769,858.562 844.008,859.522 843.769,860.242 843.769,860.722 843.769,860.962 842.568,862.643 841.849,863.362 
		841.369,863.843 841.369,864.082 841.129,865.522 840.889,865.762 841.129,866.243 841.369,867.442 841.849,868.402 
		841.849,868.883 842.088,869.603 842.568,870.083 843.048,870.563 843.769,871.043 844.008,871.283 845.208,872.482 
		846.168,873.923 846.407,874.644 846.647,874.883 846.647,875.844 846.888,876.804 846.647,878.724 846.647,879.684 
		846.647,881.604 846.647,882.564 846.407,883.765 846.407,884.244 846.647,884.965 847.127,886.645 847.367,886.885 
		847.848,888.564 848.807,890.485 849.048,891.444 852.166,895.285 853.127,896.246 853.846,896.726 854.086,896.966 
		854.807,897.926 854.807,898.165 854.566,899.606 854.326,900.086 854.086,900.565 853.846,901.046 853.606,902.006 
		853.366,902.967 853.606,903.927 853.846,904.886 853.846,905.127 853.846,905.366 853.846,905.847 853.846,906.807 
		853.606,908.247 853.366,908.727 853.366,909.447 853.127,909.447 852.646,910.647 852.406,910.887 852.166,911.606 
		851.687,912.807 851.447,913.768 851.207,914.487 850.728,917.127 850.486,918.568 850.486,919.288 850.486,919.527 
		850.247,919.769 850.247,920.728 850.247,921.928 850.247,922.168 850.486,922.889 850.728,923.608 851.207,924.568 
		851.207,924.809 850.967,925.528 850.967,925.769 850.967,927.209 851.207,928.889 851.207,932.249 851.687,934.409 
		852.166,936.33 852.646,937.29 850.967,937.29 850.486,937.29 850.007,937.29 849.048,937.29 848.327,937.53 847.367,937.53 
		846.888,937.53 844.488,937.53 844.008,937.53 843.769,937.53 843.048,937.53 842.809,937.53 841.129,937.53 840.889,937.53 
		837.77,937.53 835.61,937.53 833.689,937.53 832.49,937.53 827.932,937.53 826.731,937.53 826.252,937.53 825.771,937.53 
		825.052,937.53 823.372,937.53 822.652,937.53 821.692,937.53 821.452,937.53 820.732,937.53 820.492,937.53 819.053,937.53 
		817.854,937.77 816.413,937.77 815.213,937.77 814.253,937.77 813.054,937.77 811.614,937.77 811.374,937.77 811.135,937.77 
		810.654,937.77 810.174,937.77 809.215,937.77 808.255,938.01 808.015,938.01 807.055,938.01 806.575,938.01 805.855,938.01 
		805.615,938.01 805.375,938.01 804.655,938.01 803.216,938.25 802.735,938.25 801.775,938.25 799.616,938.25 799.136,938.25 
		797.697,938.25 795.297,938.25 791.938,938.489 791.458,938.489 790.979,938.489 790.019,938.489 787.139,938.489 786.179,938.489 
		782.58,938.489 779.22,938.489 778.261,938.73 774.421,938.73 774.182,938.73 771.302,938.73 769.621,938.73 768.902,938.73 
		768.422,938.73 767.702,938.73 762.663,938.97 761.223,939.21 760.743,939.21 759.783,939.21 759.063,939.21 756.904,939.449 
		755.944,939.449 754.984,939.449 753.545,939.449 752.824,939.449 751.625,939.449 747.306,939.21 744.187,939.21 739.627,939.21 
		739.387,939.21 734.588,939.21 734.348,939.21 732.429,939.21 731.709,939.21 731.229,939.21 730.749,939.21 730.028,939.21 
		729.549,939.21 729.069,939.21 728.829,939.21 728.349,939.21 728.109,939.21 727.869,939.21 727.39,939.21 727.149,939.21 
		726.669,939.21 725.949,939.21 724.03,939.21 722.11,939.21 721.871,939.21 721.391,939.21 720.91,939.21 718.271,939.21 
		717.312,939.21 714.191,939.21 711.313,939.21 711.072,939.21 709.152,939.21 708.913,939.21 707.713,939.21 704.834,938.97 
		697.875,938.97 697.395,938.97 694.035,938.97 692.116,938.97 691.876,938.97 691.636,938.97 685.877,938.97 685.637,938.97 
		684.918,938.97 682.037,938.73 677.719,938.73 676.759,938.73 676.278,938.73 676.039,938.73 674.84,938.73 674.359,938.73 
		674.119,938.73 673.879,938.73 672.919,938.489 669.8,938.489 669.32,938.489 667.641,938.489 665.24,938.489 665.001,938.489 
		662.361,938.489 660.922,938.489 660.202,938.489 659.242,938.489 657.563,938.489 656.362,938.489 655.162,938.489 
		654.443,938.489 654.203,938.489 650.844,938.489 641.965,938.489 640.045,938.489 639.806,938.489 639.086,938.489 
		637.886,938.489 636.206,938.25 635.966,938.25 635.006,938.25 634.767,938.25 633.327,938.25 632.847,938.25 627.328,938.01 
		626.128,938.01 625.408,938.01 	"/>
	
		<polyline clip-path="url(#SVGID_2_)" fill="none" stroke="#B37C34" stroke-width="0.4799" stroke-linecap="round" stroke-linejoin="round" stroke-miterlimit="3.85" points="
		625.408,938.01 625.168,938.25 624.208,938.25 620.369,938.01 618.449,938.01 616.77,938.01 615.57,938.25 615.09,938.25 
		614.61,938.25 614.13,938.25 612.69,938.25 612.451,938.25 609.811,938.25 609.571,938.25 608.131,938.25 607.892,938.25 
		607.651,938.25 604.772,938.25 604.532,938.25 604.052,938.25 598.773,938.25 598.293,938.25 597.813,938.25 594.934,938.25 
		594.454,938.25 592.294,938.25 591.334,938.25 587.495,938.01 587.255,938.01 586.535,938.01 585.815,938.01 581.976,938.01 
		580.776,938.01 580.057,938.01 579.577,938.01 578.617,938.01 576.217,938.01 574.297,938.01 573.817,938.01 573.338,938.01 
		571.658,937.77 571.418,937.77 571.178,937.77 571.658,937.29 571.658,936.569 571.178,935.609 571.178,935.369 571.178,934.649 
		570.938,934.409 570.938,933.449 570.698,932.969 569.979,932.249 569.499,931.289 569.258,929.849 568.059,928.648 
		567.819,928.648 567.819,928.409 567.579,928.409 567.339,927.929 566.859,926.969 566.619,926.729 566.619,926.248 
		566.619,925.528 566.379,924.568 566.139,924.089 565.899,923.608 565.419,922.408 565.419,921.928 565.179,921.448 
		564.699,920.969 564.459,920.728 563.5,920.008 562.3,919.769 562.06,919.527 561.1,919.288 560.38,919.048 559.42,918.808 
		559.18,918.808 558.7,918.568 557.741,918.327 557.5,918.327 556.781,918.327 555.821,918.088 555.101,917.848 552.461,917.127 
		551.262,916.888 550.302,916.647 548.862,916.168 547.663,915.688 547.422,915.688 546.942,915.688 546.463,915.447 
		545.983,915.207 545.743,915.207 545.743,914.968 545.503,914.968 544.303,914.248 543.583,913.768 543.343,913.768 
		542.863,914.007 542.144,914.007 541.664,914.007 540.944,913.768 540.464,913.768 540.464,913.527 539.264,912.807 
		538.304,912.567 538.064,912.327 537.824,912.087 537.104,910.647 536.384,909.927 535.905,909.687 534.945,909.207 
		534.465,909.207 534.225,909.207 533.265,908.486 533.025,908.247 532.785,907.767 532.785,907.527 532.785,907.286 
		532.785,907.047 532.545,906.807 532.305,906.807 532.065,906.566 531.585,906.566 531.345,906.807 531.105,906.807 
		530.866,906.807 530.625,906.566 530.625,906.327 530.625,905.847 530.386,905.366 530.146,905.127 530.146,904.886 
		529.666,904.886 529.426,904.646 529.426,904.166 529.666,904.166 529.906,903.927 530.146,903.686 530.146,903.446 
		529.666,903.206 529.426,902.727 529.186,902.486 529.186,902.246 528.946,901.526 528.946,900.565 528.946,900.086 
		528.706,898.886 528.466,897.445 528.226,895.525 528.226,894.565 527.986,894.325 527.746,894.325 527.266,894.325 
		527.026,894.325 526.786,894.085 526.786,893.605 527.026,892.405 527.026,891.686 527.026,891.444 526.786,890.965 
		526.546,890.245 526.306,889.765 526.546,888.085 526.306,887.124 526.066,886.885 525.106,886.165 524.867,885.685 
		524.626,885.444 523.427,884.724 522.707,884.244 522.227,884.244 521.987,884.005 521.987,883.765 521.747,883.524 
		521.747,883.284 521.987,882.805 521.987,882.084 521.987,881.844 521.987,881.364 521.987,880.884 521.987,880.644 
		521.507,879.443 521.507,879.203 521.747,878.724 521.987,877.284 521.987,877.044 521.987,876.804 521.987,876.563 
		521.987,876.323 521.747,876.323 521.747,876.084 521.507,875.363 521.027,874.644 521.027,874.403 521.027,872.963 
		520.787,872.482 519.828,868.883 519.828,868.643 519.587,867.442 519.348,866.482 519.348,866.243 519.348,865.762 
		519.107,865.522 519.107,865.043 519.107,864.563 519.107,863.122 519.107,862.882 518.868,862.402 518.868,861.922 
		519.107,861.682 519.107,860.722 519.348,857.602 519.107,855.441 519.107,854.722 519.107,854.241 519.348,853.761 
		519.348,853.281 519.828,853.041 520.787,852.561 521.267,852.321 522.227,851.121 522.707,850.641 522.707,849.681 
		523.187,848.721 523.427,848.24 524.387,846.32 524.626,845.601 524.626,845.12 525.106,844.64 525.586,844.4 526.066,843.92 
		528.226,841.76 528.946,841.04 529.666,840.08 530.386,839.6 530.625,839.119 530.625,838.88 530.866,838.399 531.105,837.68 
		531.105,837.439 531.105,836.96 530.866,836.96 530.866,836.719 530.146,836.719 529.906,836.719 529.666,836.479 529.666,836.239 
		529.906,835.76 529.906,835.279 529.666,834.799 528.946,833.599 528.466,832.398 526.306,829.519 525.347,828.799 
		525.106,828.559 524.387,827.839 523.907,827.599 523.427,827.358 521.747,826.639 520.308,825.678 519.348,825.198 
		518.628,824.959 517.908,824.719 517.188,824.719 516.948,824.478 516.708,824.238 516.468,823.519 515.988,822.559 
		515.988,822.318 515.988,822.078 516.228,821.838 516.708,821.357 516.948,821.118 516.948,820.638 517.428,819.678 
		517.668,819.198 517.668,818.478 517.668,817.998 517.668,817.518 517.428,816.798 517.428,816.077 517.428,815.598 
		517.188,815.117 516.948,814.637 516.948,814.397 516.708,814.157 516.228,813.677 514.789,811.757 514.548,811.036 
		514.309,810.317 514.309,810.077 514.548,809.837 514.548,809.597 514.789,809.356 515.269,809.117 515.748,808.156 
		516.228,806.956 516.228,806.477 515.988,805.516 515.988,805.036 515.988,804.797 515.988,804.315 515.988,803.356 
		515.988,802.636 515.988,802.396 515.508,801.916 515.269,801.916 514.789,801.436 514.548,801.195 514.309,799.996 
		513.589,799.035 513.589,798.315 513.589,797.835 513.589,797.596 513.829,797.115 514.548,796.155 514.548,795.676 
		514.789,794.715 514.789,794.476 514.789,794.235 514.789,793.515 514.789,793.275 514.548,793.035 514.548,792.795 
		514.309,792.556 514.068,792.314 513.589,791.835 513.109,791.355 512.869,790.875 512.629,790.875 512.149,790.395 
		511.909,790.155 511.669,789.675 511.189,788.955 511.429,787.274 511.909,785.835 511.909,785.354 511.909,785.114 
		511.909,784.874 511.909,784.635 511.669,784.394 511.189,783.914 510.949,783.674 510.949,782.234 510.949,781.994 
		510.949,780.794 511.429,778.634 511.429,778.153 511.429,776.233 511.669,775.754 512.149,775.033 512.389,774.553 
		512.629,774.073 512.629,773.593 512.869,773.593 512.869,773.353 512.869,773.113 512.869,771.673 513.589,768.793 
		514.068,767.832 514.068,767.593 513.109,766.393 512.629,765.673 512.389,765.432 512.149,765.192 512.149,764.231 
		511.669,763.512 511.429,762.312 511.189,761.592 510.949,760.872 510.949,760.152 510.949,759.672 510.949,759.191 
		510.469,758.472 510.229,757.752 509.75,757.031 509.509,757.031 509.029,756.791 508.79,756.552 508.79,756.312 508.55,756.071 
		507.59,755.111 507.59,753.911 507.35,753.671 507.35,753.191 506.87,752.471 506.87,752.231 506.63,752.231 506.15,751.511 
		505.19,751.031 504.71,750.551 504.71,750.311 504.71,750.07 504.47,749.351 504.23,749.11 503.75,748.631 503.271,748.391 
		502.791,747.19 502.551,746.23 502.551,745.99 502.551,745.75 502.551,745.511 501.591,744.79 500.631,743.35 500.391,743.11 
		499.671,742.63 498.711,741.91 498.472,741.91 498.231,741.189 498.231,740.71 497.032,739.51 497.032,739.27 496.792,739.029 
		496.792,738.79 496.552,738.069 496.312,737.59 496.072,737.35 495.832,737.109 495.592,737.109 495.592,736.869 495.352,736.869 
		494.872,736.629 494.392,736.39 493.912,736.149 493.192,735.909 492.712,735.909 491.752,735.909 491.513,735.909 490.313,735.43 
		489.593,734.709 489.113,734.469 487.434,733.989 486.474,733.989 485.274,733.989 484.074,733.509 482.875,733.269 
		482.634,733.269 482.154,733.269 481.915,733.269 481.435,733.029 481.195,732.789 480.955,732.549 480.715,732.549 
		480.475,732.309 480.475,732.068 480.235,732.068 480.235,731.828 479.995,731.589 479.995,731.109 479.755,730.869 
		479.755,730.629 479.515,730.629 479.515,730.389 479.275,730.148 478.795,729.909 478.075,729.669 477.835,729.429 
		477.595,729.429 477.355,729.188 477.115,728.709 476.875,728.469 476.635,728.469 476.635,728.229 476.396,728.229 
		476.155,728.469 475.916,728.229 475.676,728.229 475.196,727.748 475.196,727.508 474.956,727.269 474.716,727.269 
		474.476,726.788 474.236,725.828 473.996,725.348 473.756,725.107 473.516,724.868 473.516,724.628 473.036,724.389 
		472.796,723.908 472.556,723.668 472.316,723.668 472.076,723.428 471.596,723.668 471.116,723.428 469.917,722.708 
		469.917,722.468 469.917,721.748 469.917,720.787 469.677,720.548 468.957,719.348 468.717,719.107 467.757,718.868 
		467.517,718.868 467.517,718.627 466.077,718.627 465.837,718.387 465.598,718.387 465.357,718.147 464.638,717.668 
		464.158,717.188 463.678,716.707 461.518,715.747 460.559,715.027 459.599,714.307 458.399,712.387 458.159,712.146 
		457.439,711.906 457.439,711.666 456.959,711.666 456.719,711.427 456.479,711.187 455.759,710.706 455.759,710.467 
		455.04,709.986 454.319,709.506 454.08,709.506 454.08,709.267 454.08,709.026 454.08,708.787 454.08,708.547 454.08,708.307 
		453.84,707.826 453.6,707.347 452.88,705.906 452.4,705.186 452.4,704.706 453.12,703.266 453.12,703.026 453.12,702.546 
		453.12,702.306 452.88,702.066 452.64,701.586 452.4,701.346 452.4,701.105 452.4,700.865 452.16,700.626 452.4,699.665 
		452.4,699.426 452.16,699.426 452.16,699.186 451.92,698.945 451.68,698.706 451.44,698.465 451.2,698.465 450,697.745 
		449.76,697.745 449.76,697.265 449.521,697.025 449.521,696.785 449.521,696.545 449.76,696.545 449.76,696.306 450,695.825 
		450.72,694.865 450.72,694.625 450.72,694.385 450.48,693.665 450.24,692.944 450.24,692.465 449.76,691.505 449.521,691.265 
		448.561,690.785 448.081,690.544 447.361,689.344 447.121,688.864 446.401,687.904 446.161,687.664 445.921,687.424 
		445.681,687.185 445.441,687.185 445.441,686.944 445.201,686.944 444.961,686.944 444.961,686.704 444.721,686.704 
		444.241,686.704 444.001,686.704 443.761,686.704 443.282,686.225 442.562,685.744 442.322,685.504 442.082,685.265 
		441.842,685.265 440.882,685.023 440.642,684.784 439.202,683.823 438.962,683.823 438.243,683.104 438.243,682.864 
		438.002,682.624 437.763,682.144 437.522,682.144 437.283,681.904 436.803,681.664 435.843,681.664 435.123,681.664 
		434.643,681.184 434.403,680.943 433.683,680.703 433.443,680.703 432.963,680.464 432.244,680.224 432.003,680.224 
		431.764,679.983 431.284,679.504 430.804,679.264 429.364,678.783 427.205,678.303 426.484,678.303 424.805,677.583 
		424.085,677.344 422.166,676.863 422.166,676.623 421.686,676.383 420.726,675.663 420.246,675.184 420.006,674.943 
		419.766,674.463 419.526,674.223 419.046,673.743 417.846,673.022 416.407,671.823 415.926,671.343 415.446,670.623 
		415.207,670.383 414.967,669.902 414.727,669.662 414.727,669.423 414.487,669.183 414.487,668.942 414.247,668.223 
		414.007,668.223 414.007,667.982 414.007,667.742 414.007,667.502 414.247,666.062 414.007,665.822 414.007,665.582 
		413.767,665.103 413.527,664.382 413.287,663.422 413.287,663.182 413.047,663.182 413.047,662.941 413.047,662.702 
		412.807,662.702 412.807,662.462 412.567,662.222 412.567,661.981 411.847,661.502 411.127,661.021 409.928,660.541 
		408.968,660.302 408.728,660.302 408.008,660.302 407.288,660.302 406.088,660.302 405.849,660.302 405.368,660.302 
		405.128,660.302 404.889,660.062 404.409,660.062 403.449,659.821 402.969,659.581 402.489,659.342 402.009,659.102 
		401.769,659.102 401.049,659.581 399.85,659.581 399.609,659.581 399.129,659.342 398.41,659.102 397.93,658.861 397.21,658.621 
		396.97,658.621 396.49,658.861 396.25,658.861 396.01,658.861 395.771,658.861 395.291,658.621 394.571,658.381 394.571,658.141 
		394.331,658.141 393.851,657.661 393.611,657.661 392.891,657.901 392.171,658.141 391.931,658.381 391.691,658.621 
		391.451,658.621 391.211,658.621 390.971,658.621 390.731,658.381 390.491,657.901 390.491,657.661 390.731,657.422 
		390.731,657.182 390.731,656.701 389.771,654.781 389.292,653.82 389.051,653.82 389.051,653.581 388.812,653.581 388.571,653.581 
		388.332,653.341 388.092,653.581 387.852,654.061 387.612,654.061 387.372,654.061 387.132,653.82 386.892,653.341 
		385.932,652.381 385.452,652.381 384.732,652.381 384.492,652.381 384.252,652.141 384.013,651.9 384.013,651.66 384.013,651.42 
		384.013,651.181 384.013,650.94 384.252,649.98 384.252,649.501 384.252,648.78 383.292,647.34 380.893,646.14 380.413,645.66 
		380.173,645.42 379.693,644.7 379.453,644.46 378.253,642.78 377.293,642.06 377.293,641.82 377.054,641.339 376.813,641.1 
		375.614,640.14 373.934,638.459 373.454,637.979 372.254,637.259 371.775,637.019 371.535,637.019 370.815,636.299 
		369.855,635.579 369.615,635.579 368.896,635.099 368.655,635.099 367.455,633.899 367.455,633.659 367.216,633.659 
		367.216,633.419 366.976,633.179 366.976,632.219 367.216,631.259 367.216,630.778 367.695,629.578 368.175,629.098 
		368.896,628.378 369.135,627.658 369.375,626.938 369.615,625.498 369.615,625.258 369.855,625.258 369.855,625.018 
		370.575,623.818 370.575,623.578 370.575,623.098 370.815,622.618 370.815,622.377 371.055,622.377 371.295,622.138 
		371.295,621.897 371.295,621.178 371.055,619.737 371.055,619.498 371.055,619.017 371.055,618.537 371.295,617.817 
		371.535,617.097 371.775,616.857 371.535,616.617 371.055,615.657 370.815,614.697 370.575,614.217 370.815,613.737 
		370.815,613.497 370.815,613.257 371.535,612.777 372.015,612.537 372.254,612.296 372.254,612.057 372.495,612.057 
		372.495,611.816 372.734,610.856 372.975,609.176 373.214,608.456 373.214,607.976 373.214,607.736 373.214,607.496 
		372.975,607.016 372.975,606.776 372.975,606.056 372.975,605.816 372.495,605.096 372.254,604.616 371.775,604.376 
		371.775,604.136 371.535,604.136 371.535,603.656 371.535,603.416 371.535,602.696 371.535,602.216 371.775,601.496 
		371.535,601.016 371.535,600.775 371.535,599.815 371.535,599.335 371.775,598.855 372.015,598.135 372.254,597.895 
		372.254,597.655 372.254,597.415 372.495,597.175 372.495,596.935 372.495,596.695 372.254,596.215 371.775,595.495 
		371.535,595.255 371.055,594.775 370.815,594.535 370.335,594.295 370.095,594.055 369.615,593.575 369.375,593.095 
		369.135,593.095 368.896,592.375 368.896,592.135 368.655,591.654 368.896,591.174 368.896,590.935 369.135,590.694 
		369.855,589.494 369.855,589.254 370.095,589.254 370.335,589.014 370.575,588.774 371.775,588.054 372.495,587.094 
		373.694,586.134 374.414,585.654 374.894,584.934 375.134,584.694 375.134,584.454 374.894,584.214 374.654,583.974 
		374.414,583.494 374.174,581.573 373.454,579.653 373.454,579.173 373.454,578.453 373.694,577.973 373.934,577.253 
		374.174,577.013 374.174,576.773 373.934,576.773 373.694,576.293 372.975,575.573 372.734,575.093 372.734,574.613 
		372.734,573.893 373.214,572.692 373.214,572.212 373.694,571.973 374.174,571.493 374.174,571.012 374.414,570.772 
		374.414,570.532 374.174,570.292 373.934,569.813 373.934,569.092 373.934,568.132 373.694,566.692 373.934,566.212 
		374.174,565.732 374.654,565.012 374.654,564.532 374.654,564.292 374.414,564.052 373.934,563.332 373.694,562.611 
		373.694,561.892 373.694,561.651 373.694,561.412 373.934,561.171 374.894,560.932 375.374,560.451 376.094,559.971 
		376.333,559.491 376.574,559.491 377.054,558.771 378.733,557.091 379.213,556.611 379.693,555.651 379.933,555.171 
		379.933,554.931 379.933,554.691 379.933,554.451 379.453,552.771 379.453,552.53 379.693,552.291 380.173,551.57 381.853,550.37 
		382.093,550.37 381.853,549.89 382.093,549.41 382.333,549.17 382.573,548.69 382.813,548.21 383.292,547.73 384.013,547.25 
		384.732,547.01 384.732,546.53 384.732,546.29 384.972,546.05 384.972,545.81 385.212,545.09 385.212,544.85 384.972,544.61 
		384.732,544.37 384.972,543.89 384.972,543.41 384.972,542.93 385.212,541.729 385.212,541.489 385.212,541.25 385.212,541.009 
		384.732,539.569 384.732,539.329 384.013,539.089 382.573,538.369 382.333,538.129 382.093,538.129 381.853,537.649 
		381.853,537.409 381.613,536.929 381.373,536.689 381.133,536.449 381.133,536.209 380.893,535.489 380.653,535.009 
		380.173,534.289 379.453,532.849 378.974,532.369 378.253,531.648 378.013,531.168 378.013,530.688 378.013,529.728 
		378.253,528.288 378.253,528.048 378.253,527.808 377.773,527.328 377.054,526.608 376.333,526.128 376.094,525.888 
		375.854,525.648 375.614,525.648 375.374,525.408 374.654,524.688 374.174,524.208 373.934,523.968 373.694,523.968 
		373.454,523.968 372.734,523.968 372.254,523.968 371.295,524.448 370.335,524.688 369.855,524.688 369.135,524.688 
		368.175,524.448 367.216,523.968 366.976,523.968 364.816,523.728 363.856,522.768 363.616,522.527 363.376,522.047 
		363.616,520.607 363.376,519.887 363.376,519.407 363.616,518.687 363.856,517.967 363.856,517.487 363.616,516.767 
		363.376,516.047 363.376,515.567 363.616,514.847 363.616,514.606 363.616,514.367 363.376,514.126 363.616,513.646 
		363.616,513.407 	"/>
	
		<polyline clip-path="url(#SVGID_2_)" fill="none" stroke="#B37C34" stroke-width="0.4799" stroke-linecap="round" stroke-linejoin="round" stroke-miterlimit="3.85" points="
		922.714,549.89 921.754,547.73 922.714,543.41 923.193,542.689 923.674,542.689 923.914,543.169 924.153,543.89 925.113,544.37 
		927.513,544.13 928.952,543.41 930.393,543.649 931.353,544.37 933.512,543.649 933.512,542.93 933.272,541.489 933.512,541.25 
		934.711,541.489 935.191,541.969 935.672,543.169 935.911,543.89 935.432,544.13 934.711,543.89 933.992,544.13 932.552,546.53 
		931.592,549.17 930.632,549.89 930.152,551.57 930.393,553.011 930.152,554.211 929.672,554.451 928.473,554.451 927.753,554.691 
		927.272,555.651 927.753,557.811 927.753,559.011 927.513,559.251 927.033,559.251 926.073,557.091 924.873,555.651 
		923.674,554.451 922.714,554.211 921.994,553.25 921.994,552.05 922.234,551.57 922.714,551.331 922.714,551.09 922.714,549.89 	
		"/>
	
		<polyline clip-path="url(#SVGID_2_)" fill="none" stroke="#B37C34" stroke-width="0.4799" stroke-linecap="round" stroke-linejoin="round" stroke-miterlimit="3.85" points="
		581.976,357.15 581.496,357.631 581.016,357.871 578.137,358.111 577.417,358.351 574.058,359.791 572.618,360.511 
		572.378,360.511 571.898,361.231 571.658,362.431 573.098,363.151 573.578,363.151 574.297,363.151 574.538,363.392 
		574.538,363.871 574.297,364.591 574.058,364.591 573.578,364.832 572.138,365.071 570.458,365.552 569.258,365.312 
		568.778,365.071 568.539,365.071 568.059,365.552 566.619,367.231 566.619,367.472 564.939,368.672 564.459,368.912 
		564.219,369.152 563.739,369.392 562.06,369.392 562.3,367.952 562.54,366.752 562.06,365.792 561.82,365.552 561.82,365.071 
		561.82,364.832 562.78,364.591 564.939,363.631 566.139,363.392 566.619,363.151 566.859,363.151 567.099,363.151 567.339,362.911 
		567.579,362.671 567.579,362.431 567.579,361.711 568.299,360.991 569.019,360.511 569.019,360.271 569.258,360.271 
		569.738,360.031 570.938,359.311 571.658,359.071 572.618,358.591 574.297,357.391 574.297,357.15 575.498,355.95 576.457,354.51 
		577.417,353.311 577.897,353.07 579.097,353.311 579.336,353.311 579.336,353.55 580.296,354.75 580.296,354.991 580.537,355.23 
		580.776,355.471 582.216,356.431 582.216,356.671 582.456,356.911 582.216,356.911 581.976,357.15 	"/>
	
		<polyline clip-path="url(#SVGID_2_)" fill="none" stroke="#B37C34" stroke-width="0.4799" stroke-linecap="round" stroke-linejoin="round" stroke-miterlimit="3.85" points="
		585.815,340.829 586.055,340.589 586.535,340.829 587.735,341.549 587.975,342.269 587.735,342.75 586.535,345.149 585.815,345.39 
		585.576,345.629 585.096,346.109 584.855,346.83 584.616,347.31 584.616,347.55 584.136,347.79 583.896,347.55 583.416,347.31 
		582.456,347.07 581.496,347.31 580.057,347.79 576.937,348.51 576.217,348.75 575.498,348.51 574.538,347.07 574.777,346.35 
		575.737,345.149 576.457,343.949 579.577,342.75 581.976,342.029 585.815,340.829 	"/>
	
		<polyline clip-path="url(#SVGID_2_)" fill="none" stroke="#B37C34" stroke-width="0.4799" stroke-linecap="round" stroke-linejoin="round" stroke-miterlimit="3.85" points="
		598.053,326.188 598.533,326.188 598.533,326.428 598.773,327.388 598.533,328.348 598.533,328.588 598.053,330.268 
		597.573,333.148 596.854,334.829 595.174,335.789 593.494,336.509 592.054,337.229 592.054,336.029 592.774,334.829 
		593.014,333.148 592.774,331.468 592.774,330.508 593.014,329.308 593.494,328.108 593.494,327.628 593.734,327.388 
		594.694,326.667 596.374,326.188 598.053,326.188 	"/>
	
		<polyline clip-path="url(#SVGID_2_)" fill="none" stroke="#B37C34" stroke-width="0.4799" stroke-linecap="round" stroke-linejoin="round" stroke-miterlimit="3.85" points="
		871.844,592.615 872.083,592.615 872.323,592.615 872.323,592.854 872.563,593.095 872.563,593.334 872.803,593.334 
		872.563,593.334 872.323,593.334 871.844,593.095 871.604,593.095 871.363,592.854 871.123,592.854 871.363,592.854 
		871.604,592.615 871.844,592.615 	"/>
</g>
</svg>
