<?xml version="1.0" encoding="utf-8"?>
<!-- Generator: Adobe Illustrator 15.1.0, SVG Export Plug-In . SVG Version: 6.00 Build 0)  -->
<!DOCTYPE svg PUBLIC "-//W3C//DTD SVG 1.1//EN" "http://www.w3.org/Graphics/SVG/1.1/DTD/svg11.dtd">
<svg version="1.1" id="State" xmlns="http://www.w3.org/2000/svg" xmlns:xlink="http://www.w3.org/1999/xlink" x="0px" y="0px"
	 width="1296px" height="1296px" viewBox="0 0 1296 1296" enable-background="new 0 0 1296 1296" xml:space="preserve">
<g>
	<defs>
		<rect id="SVGID_1_" x="259.22" y="351.621" width="779.516" height="595.772"/>
	</defs>
	<clipPath id="SVGID_2_">
		<use xlink:href="#SVGID_1_"  overflow="visible"/>
	</clipPath>
	
		<polygon clip-path="url(#SVGID_2_)" fill="none" stroke="#B37C34" stroke-width="0.48" stroke-linecap="round" stroke-linejoin="round" stroke-miterlimit="3.85" points="
		313.7,423.633 313.939,415.951 313.939,412.831 314.18,397.469 314.66,388.827 314.42,388.347 314.9,379.946 315.859,379.946 
		339.859,380.426 342.02,380.906 342.979,381.146 347.3,381.866 361.459,382.346 361.939,382.346 367.459,382.346 375.379,382.346 
		378.979,381.626 380.899,381.866 382.579,381.866 385.939,382.106 394.1,382.346 402.5,381.626 410.179,381.626 412.579,381.866 
		413.059,381.866 424.099,381.866 426.019,382.106 431.299,382.106 435.619,382.346 443.779,382.346 451.939,382.346 
		468.019,382.346 469.459,382.346 469.939,382.346 470.419,382.346 474.019,382.346 480.259,382.346 480.739,382.346 
		495.619,382.346 497.539,383.066 497.779,383.066 499.459,383.066 499.939,383.066 509.779,383.066 518.179,383.066 
		534.499,383.066 536.179,383.066 540.259,383.066 544.339,383.066 545.539,383.066 551.539,383.066 572.659,383.066 
		574.818,383.066 575.778,382.826 576.499,382.826 577.458,382.826 577.698,382.826 583.938,382.826 597.858,382.586 
		598.098,382.586 606.019,382.586 608.898,382.586 620.898,382.346 634.098,382.346 644.898,382.106 653.298,381.866 
		657.857,381.866 660.258,381.866 660.979,381.866 662.897,381.866 664.338,381.866 678.019,381.626 678.738,381.626 
		680.658,381.626 682.578,381.866 683.538,381.866 685.698,381.866 690.019,381.866 691.458,381.866 698.178,381.626 
		699.617,381.626 700.338,381.626 700.818,381.626 730.338,381.146 734.897,380.906 758.657,380.426 766.098,380.186 
		780.737,379.706 789.857,379.466 791.058,378.506 791.537,378.506 797.058,378.266 820.577,377.306 823.457,377.306 
		841.217,376.585 856.817,375.865 867.377,375.385 872.177,375.145 873.377,375.145 873.856,375.145 874.098,375.145 
		897.377,374.185 897.856,374.185 900.978,373.945 906.736,373.705 907.217,373.705 924.736,372.745 930.257,372.505 
		945.137,371.785 962.896,370.825 964.097,386.907 964.097,387.867 964.816,400.829 965.057,403.229 965.297,406.59 965.536,409.71 
		965.536,410.431 965.536,410.911 965.776,417.392 966.017,419.552 966.257,425.073 966.496,426.513 966.496,430.114 
		966.736,433.474 967.697,449.557 967.937,453.397 968.177,458.438 968.177,458.678 968.896,468.52 969.377,477.401 
		969.617,482.682 969.856,485.562 970.576,497.324 971.297,509.086 971.297,509.326 971.776,520.127 972.496,533.57 972.496,534.05 
		973.937,555.413 973.937,555.893 973.937,558.773 974.416,565.975 974.656,569.335 974.896,575.576 975.377,580.617 
		975.856,589.018 975.856,591.898 976.097,592.859 976.097,593.819 977.057,610.142 977.297,613.982 978.256,631.505 
		979.217,648.547 980.177,663.67 980.177,664.15 980.896,675.912 980.896,677.353 980.896,679.272 981.137,679.752 981.137,682.393 
		981.856,696.795 983.057,715.038 983.057,717.678 983.776,728 983.776,728.48 983.776,729.439 984.256,740.002 984.496,740.481 
		984.496,744.322 984.736,744.802 984.736,745.763 984.977,749.603 984.977,750.563 984.977,752.244 985.456,759.205 
		985.456,759.925 985.456,761.845 985.696,762.325 985.696,762.806 985.696,763.045 985.696,763.525 985.696,763.765 
		985.696,765.206 985.696,765.686 986.177,773.367 986.177,774.327 986.416,777.207 986.656,780.809 986.896,784.648 
		986.896,786.568 986.896,787.049 986.896,787.769 987.377,796.17 987.377,796.891 987.617,801.691 988.097,808.412 
		988.097,809.373 988.336,811.293 988.336,812.493 988.576,815.373 988.816,818.974 988.816,820.654 988.816,822.094 
		988.816,822.335 989.057,824.494 989.057,825.455 989.776,838.177 989.776,839.377 990.017,841.298 990.256,849.459 
		990.496,850.659 990.496,850.898 990.496,851.379 990.736,856.42 990.736,856.66 991.217,866.741 991.217,867.222 991.456,870.342 
		991.456,870.582 991.456,872.262 991.937,877.783 991.937,878.983 991.937,880.903 992.416,890.265 992.416,890.505 
		992.656,892.426 991.217,892.665 989.297,892.665 987.617,892.665 985.696,892.905 979.937,893.146 977.057,893.386 
		976.816,893.386 976.576,893.386 961.217,894.105 959.776,894.105 951.617,894.585 948.736,894.826 938.656,895.306 
		935.297,895.546 930.977,895.785 921.617,896.266 915.856,896.506 913.457,896.746 905.057,897.227 904.577,897.227 
		882.018,898.186 873.856,898.427 873.617,898.427 871.697,898.666 858.257,899.146 844.338,899.867 835.217,900.106 
		827.297,900.347 826.817,900.347 823.457,900.586 794.177,901.547 781.457,901.786 780.978,901.786 778.577,901.786 
		768.498,902.027 762.018,901.786 761.537,901.786 757.457,902.027 756.978,902.027 756.738,902.027 755.298,902.027 
		719.537,902.747 715.458,902.747 701.298,902.986 689.777,903.228 687.138,903.228 677.538,903.467 671.538,903.707 
		671.298,903.707 671.058,903.707 669.857,903.707 665.058,903.707 649.698,903.947 644.658,904.187 642.498,904.187 
		639.618,904.187 632.898,904.187 610.578,904.427 610.098,904.427 597.858,904.667 593.778,904.667 584.658,904.907 
		577.698,905.147 574.099,905.147 572.898,905.147 552.979,905.147 550.338,905.147 540.019,905.147 524.659,905.147 
		515.059,905.147 498.739,905.147 486.499,904.907 480.739,904.907 478.819,904.907 454.099,904.907 450.739,905.147 
		450.019,905.147 448.099,905.147 445.699,905.147 443.539,904.907 436.819,904.907 433.459,904.907 433.219,904.907 
		432.979,904.907 431.539,904.907 420.5,904.907 419.299,904.907 419.059,904.907 408.5,904.667 407.299,904.667 404.899,904.667 
		404.659,904.667 404.179,904.667 400.1,904.667 392.899,904.427 392.419,904.667 381.379,904.427 379.939,904.427 377.059,904.427 
		367.7,904.427 355.22,904.187 351.379,903.947 350.899,903.947 344.9,903.707 341.06,903.707 335.779,903.467 334.1,903.467 
		333.14,903.467 332.66,903.467 330.74,903.228 318.5,902.986 301.459,902.507 301.459,898.186 302.18,869.861 302.18,869.382 
		302.66,855.22 302.66,852.819 303.38,834.097 303.38,830.976 303.38,830.016 303.38,829.535 303.38,828.335 303.38,826.655 
		303.86,815.613 304.1,802.411 304.1,801.932 304.1,800.731 304.1,800.491 304.34,792.569 304.82,771.447 305.06,759.925 
		305.3,755.844 305.3,753.203 305.3,752.244 305.54,747.923 305.54,746.243 305.54,743.843 305.78,734.961 306.02,726.08 
		306.26,719.358 306.5,710.478 306.5,706.396 306.5,705.916 306.74,704.717 306.979,695.595 307.22,692.234 307.22,686.953 
		307.459,685.993 307.7,677.832 307.7,677.353 307.939,671.591 308.18,659.59 308.18,657.429 308.42,647.347 308.42,645.907 
		308.42,645.187 308.66,644.467 308.66,643.507 308.66,638.706 308.66,638.466 308.66,638.226 308.66,637.986 308.66,637.746 
		308.66,637.266 308.9,635.826 308.9,635.345 308.9,635.105 308.9,634.146 308.9,633.425 308.9,632.465 308.9,632.225 
		308.9,631.745 308.9,629.345 309.14,622.383 309.14,618.543 309.14,618.063 309.379,617.103 309.379,616.382 309.379,615.663 
		309.379,614.942 309.62,600.06 310.34,575.816 310.82,559.974 310.82,557.573 310.82,557.333 310.82,555.173 310.82,552.533 
		310.82,552.292 310.82,552.053 310.82,551.813 310.82,551.572 310.82,551.333 311.06,547.012 311.06,546.532 311.06,546.292 
		311.06,543.171 311.3,539.811 311.3,538.851 311.3,534.77 311.3,534.05 311.54,528.769 311.78,522.528 311.78,513.887 
		311.78,512.926 312.02,510.766 311.78,508.125 312.02,502.845 312.02,502.605 312.02,502.365 312.26,496.844 312.26,495.644 
		312.26,494.924 312.26,494.443 312.26,493.483 312.74,477.881 312.979,464.439 313.22,461.798 313.459,453.637 313.459,453.397 
		313.459,448.836 313.459,429.874 313.459,429.153 	"/>
</g>
</svg>
